<svg id="Layer_1" height="512" viewBox="0 0 512 512" width="512" xmlns="http://www.w3.org/2000/svg" data-name="Layer 1"><path d="m437.11 98.5s113.65 89.97-5.6 219.89c32.61-103.32-53.91-147.82-55.05-148.4 8.46-27.53 29.46-45.2 46.87-55.61a33.722 33.722 0 0 0 13.78-15.88z" fill="#ddbf5e"/><path d="m123.05 165.31a4.545 4.545 0 0 0 .34 5.86c2.42 2.51 7.09 4.92 15.23 1.19-9.44 4.96-46.58 25.91-49.3 50.32-.53 4.74.77 9.48 9.29 8.52-44.29 38.32-44.91 101.27-44.92 102.21l159.93-38.44v-.01c18.24-5.94 20.64-24.77 20.64-24.77 6.57 2.63 16.33 2.7 29.86-6.22 26.19-17.27 36 7.77 46.15 37.98s33.16 8.69 33.16 8.69a37.664 37.664 0 0 1 1.34-12.82l8.59-30.37c-11.15-2.91-22.55-12.98-32.93-34.96a57.3 57.3 0 0 1 -9.49 1.27c-49.56 2.47-40.23-32.56-47.08-47.82-7.3-16.24-19.15-19.68-26.65-20.07a4.613 4.613 0 0 1 -3.79-6.61c40.23-85.05 127.12-52.13 127.12-52.13.62-16.94 6.02-33.43 21.05-44.26 0 0-121.24-80.25-258.54 102.44zm15.81 6.93c.91-.48 1.53-.78 1.79-.91-.62.34-1.21.65-1.79.91z" fill="#d55f55"/><path d="m347.19 324.53a36.671 36.671 0 0 1 -3.76-13.89s-23 21.52-33.16-8.69-19.96-55.25-46.15-37.98c-13.53 8.92-23.29 8.85-29.86 6.22 0 0-2.4 18.83-20.64 24.77v.01l48.29 109.45h.01c22.02-6.73 43.57 20.7 66.58 4.6 15.85-11.09 37.31-11.09 37.31-11.09h.01a191.814 191.814 0 0 0 -18.63-73.4z" fill="#90bbf2"/><path d="m360.54 107.13s-86.89-32.92-127.12 52.13a4.613 4.613 0 0 0 3.79 6.61c7.5.39 19.35 3.83 26.65 20.07 6.85 15.26-2.48 50.29 47.08 47.82a57.3 57.3 0 0 0 9.49-1.27c19.8-4.41 33.46-18.84 42.22-32.35a115.233 115.233 0 0 0 12.84-26.78s-16.13-33.97-14.95-66.23z" fill="#ccd3df"/><path d="m365.82 397.93h-.01s-21.46 0-37.31 11.09c-23.01 16.1-44.56-11.33-66.58-4.6h-.01l-2.17 35.66 84.63 26.2a8.793 8.793 0 0 0 10.73-4.98c9.03-21.77 11.56-43.59 10.72-63.37z" fill="#d55f55"/><path d="m376.46 169.99c-.35 1.11-.67 2.23-.97 3.37 0 0-16.13-33.97-14.95-66.23.62-16.94 6.02-33.43 21.05-44.26 20.45-14.13 35.2-12.1 45.63-4.06 12.6 9.71 15.55 26.28 9.89 39.69a33.722 33.722 0 0 1 -13.78 15.88c-17.41 10.41-38.41 28.08-46.87 55.61z" fill="#b59b52"/><path d="m362.65 200.14c18.62 37.93 51.24 27.62 51.24 27.62s-29.32 47.85-60.53 39.69c-11.15-2.91-22.55-12.98-32.93-34.96 19.8-4.41 33.46-18.84 42.22-32.35z" fill="#ddbf5e"/><path d="m327.12 140.74c1.2 11.22-6.69 21.31-17.62 22.54a20.037 20.037 0 0 1 -21.97-18.08 20.324 20.324 0 0 1 17.62-22.54 20.051 20.051 0 0 1 21.97 18.08z" fill="#706972"/><path d="m53.69 333.41 30.424-7.31c1.581-17.819 9.061-64.238 44.5-94.9-8.52.96-9.82-3.78-9.29-8.52 2.72-24.41 39.86-45.36 49.3-50.32-8.14 3.73-12.81 1.32-15.23-1.19a4.545 4.545 0 0 1 -.34-5.86c65.764-87.5 127.842-114.682 174.679-119.251-48.227-4.799-123.657 11.441-204.683 119.251a4.545 4.545 0 0 0 .34 5.86c2.42 2.51 7.09 4.92 15.23 1.19-9.44 4.96-46.58 25.91-49.3 50.32-.53 4.74.77 9.48 9.29 8.52-44.29 38.32-44.91 101.27-44.92 102.21zm86.96-162.08c-.62.34-1.21.65-1.79.91.91-.48 1.53-.78 1.79-.91z" fill="#a84d48"/><path d="m213.62 294.97c-13.53-6.98-30.12-10.7-50.07-10.89-37.17-.36-71.32 18.02-109.86 49.33v.01q-12.06 9.795-24.76 21.23a8.81 8.81 0 0 0 3.27 14.97l152.53 47.23 75.01 23.23a355.212 355.212 0 0 0 2.17-35.66c.42-53.77-14.18-91.9-48.29-109.45z" fill="#a6ce76"/><path d="m49.085 369.65c8.49-7.61 16.915-14.7 24.915-21.23v-.01c38-31.31 72.535-49.69 109.705-49.33 19.95.19 36.463 3.91 49.993 10.89.12.062.195.13.315.192a75.9 75.9 0 0 0 -20.374-15.192c-13.529-6.98-29.974-10.7-49.924-10.89-37.17-.36-71.715 18.02-109.715 49.33v.01c-8 6.53-16.425 13.62-24.915 21.23a8.8 8.8 0 0 0 3.193 14.97l14.132 4.364a8.762 8.762 0 0 1 2.675-4.334z" fill="#8aa860"/><path d="m381.59 82.87c20.45-14.13 35.2-12.1 45.63-4.06a32.035 32.035 0 0 1 11.152 16.1c3.783-12.672.346-27.238-11.152-36.1-10.43-8.04-25.18-10.07-45.63 4.06-15.03 10.83-20.43 27.32-21.05 44.26a104.492 104.492 0 0 0 .46 13.754c1.642-14.684 7.416-28.521 20.59-38.014z" fill="#897542"/><path d="m138.86 172.24c.91-.48 1.53-.78 1.79-.91-.62.34-1.21.65-1.79.91z" fill="#d55f55"/><path d="m140.65 171.33c-.62.34-1.21.65-1.79.91.91-.48 1.53-.78 1.79-.91z" fill="#a84d48"/><path d="m177.739 143.955a6 6 0 0 1 -4.3-10.185c18.025-18.517 36.575-33.615 55.135-44.874a182.2 182.2 0 0 1 47.628-20.7 6 6 0 0 1 3.069 11.6 170.27 170.27 0 0 0 -44.471 19.36c-17.693 10.733-35.444 25.195-52.761 42.984a5.983 5.983 0 0 1 -4.3 1.815z" fill="#f4f8fc"/><path d="m297.413 76.228a6 6 0 0 1 -.693-11.959c1.733-.2 3.484-.377 5.2-.514a6 6 0 1 1 .954 11.962c-1.572.125-3.173.284-4.759.469a6.038 6.038 0 0 1 -.702.042z" fill="#f4f8fc"/><path d="m212.426 340.708a6 6 0 0 0 -11.961.973c.034.411 3.029 41.092-20.819 73.6l5.084 1.574 6.964 2.156c23.899-35.365 20.879-76.498 20.732-78.303z" fill="#8aa860"/></svg>