<svg id="Layer_1" height="512" viewBox="0 0 512 512" width="512" xmlns="http://www.w3.org/2000/svg" data-name="Layer 1"><path d="m485.99 329.61a.815.815 0 0 1 .01.1s-103.51-131.23-200.44-124.06c0 0 3.25-22.85-.17-42.99h.01c181.34 29.89 200.05 162.8 200.59 166.95z" fill="#d39d57"/><path d="m321.5 111.24c21.47 3.44 52.1 12.15 81.16 33.5 40.78 29.97 78.46 84.81 83.33 184.87-.54-4.15-19.25-137.06-200.59-166.95h-.01a61.906 61.906 0 0 0 -4.02-14.35c-7.33-16.92 5.72-34.83 11.28-40.08 9.45 1.49 19.1 2.44 28.85 3.01z" fill="#f4b860"/><path d="m418.67 111.34a2.57 2.57 0 0 1 -1.67.46c-13.25-.94-42.87-.18-52.5 0-14.33.27-28.77.26-43-.56 21.47 3.44 52.1 12.15 81.16 33.5-3.95-15.7 14.29-31.9 16.01-33.4z" fill="#e2b23e"/><path d="m419.06 107.49c-15.49-16.87-73.33-72.91-157.94-72.44-37.68.21-59.58-1.06-73.67-2.93-.12-.01-.23-.02-.35-.02a2.568 2.568 0 0 0 -2.26 3.77c8.84 16.4 19.37 29.33 31.19 39.51 21.99 18.95 48.43 28.37 76.62 32.85 9.45 1.49 19.1 2.44 28.85 3.01 14.23.82 28.67.83 43 .56 9.63-.18 39.25-.94 52.5 0a2.57 2.57 0 0 0 1.67-.46.929.929 0 0 0 .13-.1 2.579 2.579 0 0 0 .26-3.75z" fill="#ddbf5e"/><path d="m285.39 162.66c3.42 20.14.17 42.99.17 42.99-10.36 4.25-26.03 14.23-25 38 0 0-35.95 8.98-46.23-27.84-14.35-51.46-34.37-26.44-37.57-74.78-1.07-16.15 14.6-62.41 39.27-65.65 21.99 18.95 48.43 28.37 76.62 32.85-5.56 5.25-18.61 23.16-11.28 40.08a61.906 61.906 0 0 1 4.02 14.35z" fill="#595b7f"/><path d="m267.37 270.89c-4.45-10.66-6.48-19.65-6.81-27.24 0 0-35.95 8.98-46.23-27.84-14.35-51.46-34.37-26.44-37.57-74.78-1.07-16.15 14.6-62.41 39.27-65.65-11.82-10.18-22.35-23.11-31.19-39.51a2.568 2.568 0 0 1 2.26-3.77c-17.38-1.31-10.39 18.15-10.34 28.6l-16.35-17.85s-2.82 29.18 1.33 38.77a73.813 73.813 0 0 1 -22.62-19.47 45.068 45.068 0 0 0 7.85 43.35s-23.47 22.75-20.24 67.98c2.56 35.78 1.01 68.47-21.52 100.74 0 0-3.69 29.7 20.34 48.11s50.9 23.69 77.55 43.67l60.49 32.1a62.057 62.057 0 0 0 34.59 7.27c.07-42.96-11.55-88.31-30.81-134.48z" fill="#ffca83"/><path d="m265 398.824-61.9-32.824c-26.65-19.98-53.51-25.26-77.55-43.67s-20.34-48.11-20.34-48.11c-14.09 20.2-36.4 40.22-71.06 60.73a16.645 16.645 0 0 0 1.11 29.23l91.01 45.11 119.09 59.03 20 9.91a16.637 16.637 0 0 0 23.22-9.73 205.9 205.9 0 0 0 9.6-63.13s-15.697 2.205-33.18-6.546z" fill="#595b7f"/><path d="m263.59 398.1c5.11 21.47-.83 48.85-18.23 70.22l-119.09-59.03c26.36-19.2 54.48-36.66 76.83-43.29a63.034 63.034 0 0 1 15.58-2.81c24.91-.85 40.01 14.3 44.91 34.91z" fill="#353a54"/><circle cx="242.38" cy="127.02" fill="#f2555d" r="10.93"/><path d="m135.21 294.22c22.53-32.27 24.08-64.96 21.52-100.74-3.23-45.23 20.24-67.98 20.24-67.98a45.068 45.068 0 0 1 -7.85-43.35 73.806 73.806 0 0 0 19.473 17.635q.873-1.6 1.8-3.158c-2.073-12.132.016-33.777.016-33.777l15.215 16.611c.351-.233.7-.456 1.06-.672-.271-4.11-1.2-9.162-1.335-13.769a143.6 143.6 0 0 1 -20.51-29.15 2.568 2.568 0 0 1 2.26-3.77c-17.38-1.31-10.39 18.15-10.34 28.6l-16.349-17.85s-2.82 29.18 1.33 38.77a73.813 73.813 0 0 1 -22.62-19.47 45.068 45.068 0 0 0 7.85 43.35s-23.47 22.75-20.24 67.98c2.56 35.78 1.01 68.47-21.52 100.74 0 0-2.814 22.673 12.5 40.678a152.69 152.69 0 0 0 17.5-20.678z" fill="#ffbe71"/><path d="m64.15 354.95c22.812-13.5 40.273-26.786 53.563-40.052-15.317-18.005-12.5-40.678-12.5-40.678-14.09 20.2-36.4 40.22-71.06 60.73a16.645 16.645 0 0 0 1.11 29.23l21.737 10.774a16.587 16.587 0 0 1 7.15-20.004z" fill="#3e415b"/><path d="m204.84 55.87a2.568 2.568 0 0 1 2.26-3.77c.12 0 .23.01.35.02 14.09 1.87 35.99 3.14 73.67 2.93 63.45-.352 111.846 31.075 138.616 53.93a2.552 2.552 0 0 0 -.676-1.49c-15.49-16.87-73.33-72.91-157.94-72.44-37.68.21-59.58-1.06-73.67-2.93-.12-.01-.23-.02-.35-.02a2.568 2.568 0 0 0 -2.26 3.77c8.84 16.4 19.37 29.33 31.19 39.51 1.191 1.027 2.4 2.013 3.619 2.984a148.273 148.273 0 0 1 -14.809-22.494z" fill="#af964f"/><g fill="#f4f8fc"><path d="m137.486 272.24a6 6 0 0 1 -5.428-8.551c9.106-19.394 13.426-40.28 13.6-65.73a6 6 0 0 1 6-5.96h.041a6 6 0 0 1 5.959 6.041c-.182 27.247-4.864 49.728-14.733 70.749a6 6 0 0 1 -5.439 3.451z"/><path d="m151.132 184.992a6 6 0 0 1 -5.986-5.664q-.2-3.585-.457-7.13a6 6 0 1 1 11.97-.854q.258 3.635.469 7.313a6 6 0 0 1 -5.656 6.326c-.114.006-.228.009-.34.009z"/></g></svg>