<svg id="Layer_1" height="512" viewBox="0 0 512 512" width="512" xmlns="http://www.w3.org/2000/svg" data-name="Layer 1"><path d="m400.42 338.745c-.81-3.321-1.62-6.48-2.44-9.51h-.01c-16.78-26.95-34.67-56.39-88.62-88.28l-60.41-31.29a.031.031 0 0 1 -.01-.02c-59.2-34.93-71.69-88.02-72.29-90.7.59 30.67 7.88 63.78 33.44 99.75 19.82 27.9 27.6 50.92 25.94 71.49-2.19 27.38-16.54 44.79-50.82 52.77-47.57 11.06-91.19 30.33-111.74 40.17a5.613 5.613 0 0 0 .71 10.4l285.95 92.21a5.671 5.671 0 0 0 5-.79c35-24.89 53.54-71.43 35.3-146.2z" fill="#6a4530"/><path d="m205.425 363.18c34.28-7.98 48.63-25.39 50.82-52.77 1.66-20.57-6.12-43.59-25.94-71.49-18.6-26.175-27.519-50.834-31.228-74.142-17.248-23.679-22.07-44.194-22.437-45.833.59 30.67 7.88 63.78 33.44 99.75 19.82 27.9 27.6 50.92 25.94 71.49-2.19 27.38-16.54 44.79-50.82 52.77-47.57 11.06-91.19 30.33-111.74 40.17a5.613 5.613 0 0 0 .71 10.4l23.955 7.724c21.975-10.285 62.915-27.749 107.3-38.069z" fill="#49342a"/><path d="m309.35 240.955c1.01 1.11 55.23 61.18 30.84 114.02 0 0-.04-8.72-14.21-19.97l-12.66 19.97-8.03-21.48-14.89 19.62-4.78-23.88-20.27 18.97-2.7-23.91-28.34 10.69c41.97-33.03 15.11-123.71 14.63-125.32a190.1 190.1 0 0 0 17.35 9.03 459.946 459.946 0 0 1 43.05 22.25.01.01 0 0 0 .01.01z" fill="#b0b5ca"/><path d="m310.37 370.425c52.44 23.56 34.17 68.29-13.61 94.87v.01l-191.89-61.88c53.77-20.65 157.1-54.74 205.5-33z" fill="#945c3c"/><path d="m290.12 162.1c-28.83-45.31 77.77-69.2 77.77-69.2l-33.6-29.3a159.811 159.811 0 0 0 -46.48-31.15c-51.22-21.9-108.27 14.61-110.93 70.35-.25 5.29-.36 10.65-.25 16.09a.354.354 0 0 1 .01.06c.6 2.68 13.09 55.77 72.29 90.7a.031.031 0 0 0 .01.02 190.1 190.1 0 0 0 17.35 9.03 459.946 459.946 0 0 1 43.05 22.25.01.01 0 0 0 .01.01c53.95 31.89 71.84 61.33 88.62 88.28h.01c-19.6-72.215-43.38-65.805-107.86-167.14z" fill="#ccd3df"/><path d="m270.82 56.635a12.575 12.575 0 1 1 -12.54 12.58 12.564 12.564 0 0 1 12.54-12.58z" fill="#6f6970"/><path d="m330.37 390.425a88.967 88.967 0 0 1 8.55 4.389c-4.413-9.242-13.607-17.676-28.55-24.389-48.4-21.74-151.73 12.35-205.5 33l39.53 12.746c56.433-20.256 142.925-45.081 185.97-25.746z" fill="#68412e"/><path d="m176.64 118.945c.367 1.639 5.189 22.154 22.437 45.833a185.153 185.153 0 0 1 -2.212-25.608.354.354 0 0 0 -.01-.06c-.11-5.44 0-10.8.25-16.09 2.66-55.74 59.71-92.25 110.93-70.35a159.811 159.811 0 0 1 46.48 31.15l11.047 9.633c1.487-.369 2.328-.558 2.328-.558l-33.6-29.3a159.811 159.811 0 0 0 -46.48-31.15c-51.22-21.9-108.27 14.61-110.93 70.35-.25 5.29-.36 10.65-.25 16.09a.354.354 0 0 1 .01.06z" fill="#a5acb5"/><path d="m443.93 80.355a1.771 1.771 0 0 1 -.36 3.13c-7.23 2.71-75.68 9.41-75.68 9.41l-53.47-8.53c13.96-2.39 19.87-20.77 19.87-20.77s72.51-7.53 109.64 16.76z" fill="#635a63"/><g fill="#f4f8fc"><path d="m260.919 191.3a5.972 5.972 0 0 1 -3.281-.982 167.733 167.733 0 0 1 -55.629-59.718 6 6 0 0 1 10.538-5.74 155.7 155.7 0 0 0 51.664 55.418 6 6 0 0 1 -3.292 11.021z"/><path d="m199.229 116.3a6 6 0 0 1 -5.612-3.877c-.815-2.153-1.557-4.281-2.2-6.329a6 6 0 1 1 11.442-3.616c.579 1.835 1.247 3.75 1.983 5.7a6 6 0 0 1 -5.61 8.127z"/></g></svg>