<svg id="Layer_1" height="512" viewBox="0 0 512 512" width="512" xmlns="http://www.w3.org/2000/svg" data-name="Layer 1"><path d="m389.7 99.26c-84.54-78.74-195.22-29.13-255.42 51.73l.18.13c-.43.69-17.83 29.36 40.39 63.56 9.67-31.37 35.16-52.43 74.46-55.45s42.47-8.12 42.47-8.12l44.8 7.01s27.18 18.88 67.28 13.24l18.73-26.73c-10.56-24.88-20.38-33.72-32.89-45.37z" fill="#6d7fad"/><path d="m232.15 316.57c-125.81-33.86-134.65-99.5-135.25-107.36-25.63 40.88-57.89 92.09-69.8 110.99a7.118 7.118 0 0 0 3.58 10.48l80.48 29.54 121.02-43.53z" fill="#6d7fad"/><path d="m174.85 214.68c-58.22-34.2-40.82-62.87-40.39-63.56l-.18-.13q-6.42 8.61-12.03 17.65c-6.38 10.27-15.36 24.63-25.35 40.57.6 7.86 9.44 73.5 135.25 107.36l.03.12 86.9 7.97c-9.1-76.49-109.48-89.57-144.23-109.98z" fill="#51638c"/><path d="m422.59 186.97-18.73-15.61c-40.1 5.64-67.28-13.24-67.28-13.24l-44.8-7.01s-3.17 5.1-42.47 8.12-64.79 24.08-74.46 55.45c34.75 20.41 135.13 33.49 144.23 109.98l3.88 113.31 38.17 14.01a7.154 7.154 0 0 0 8.81-3.43c23.5-45.05 12.97-137.7 10.26-187.16-2.84-51.56 42.39-74.42 42.39-74.42z" fill="#e6be59"/><path d="m485.46 171.63a1.764 1.764 0 0 1 -.89 3l-61.98 12.34-18.73-15.61 18.73-26.73s44.71 9.82 62.87 27z" fill="#897868"/><path d="m337.68 151.11a22.559 22.559 0 0 1 -1.1 7.01 22.9 22.9 0 1 1 1.1-7.01z" fill="#706972"/><path d="m315.62 160.18a9.45 9.45 0 1 1 9.46-9.45 9.46 9.46 0 0 1 -9.46 9.45z" fill="#534f54"/><path d="m319.08 324.66c29.66 24.93 27.6 75.25 3.88 113.31l-211.8-77.75c26.56-11.99 76.62-33.11 121.02-43.53 26.35-6.17 50.71-8.58 66.98-3.06a61.225 61.225 0 0 1 19.92 11.03z" fill="#7e89a7"/><path d="m406.076 115.986c-5.1-6.288-10.433-11.191-16.376-16.726-84.54-78.74-195.22-29.13-255.42 51.73l.18.13c-.313.5-9.631 15.867 7.866 37.4q5.578-8.968 11.954-17.531c59.344-79.709 167.74-129.044 251.796-55.003z" fill="#516184"/><path d="m96.9 209.21c-25.63 40.88-57.89 92.09-69.8 110.99a7.118 7.118 0 0 0 3.58 10.48l18.208 6.683c11.739-18.63 37.432-59.423 60.243-95.769-10.367-16.356-11.986-29.178-12.231-32.384z" fill="#516184"/><path d="m116.9 229.21c9.99-15.94 18.97-30.3 25.35-40.57l.076-.119c-17.5-21.534-8.179-36.9-7.866-37.4l-.18-.13q-6.42 8.61-12.03 17.65c-6.38 10.27-15.36 24.63-25.35 40.57.245 3.206 1.864 16.028 12.231 32.384 2.637-4.202 5.236-8.345 7.769-12.385z" fill="#3b4b6b"/><path d="m252.18 337h-.18v-.155c27-6.17 50.8-8.657 67.07-3.137a64.779 64.779 0 0 1 12.264 5.556 56.87 56.87 0 0 0 -12.277-14.585 61.18 61.18 0 0 0 -19.908-11.039c-16.27-5.52-40.625-3.115-66.975 3.055-44.4 10.42-94.457 31.537-121.017 43.527l35.671 13.248c27.972-12.042 68.595-28.47 105.352-36.47z" fill="#5a6377"/><g fill="#f4f8fc"><path d="m355.73 403.19a6.084 6.084 0 0 1 -1.06-.093 6 6 0 0 1 -4.853-6.961c6.041-33.881 4.287-77.314 1.492-119.2a6 6 0 0 1 11.973-.8c2.846 42.647 4.616 86.957-1.652 122.107a6 6 0 0 1 -5.9 4.947z"/><path d="m355.739 259.517a6 6 0 0 1 -5.982-5.615q-.185-2.856-.346-5.569a6 6 0 0 1 11.979-.713q.159 2.682.342 5.51a6 6 0 0 1 -5.6 6.374c-.132.008-.264.013-.393.013z"/></g></svg>