<svg id="Layer_1" height="512" viewBox="0 0 512 512" width="512" xmlns="http://www.w3.org/2000/svg" data-name="Layer 1"><path d="m405.3 463.74c-1.73-14.81-3.61-18.76-3.61-18.76-4.4-9.97-9.31-20.04-14.12-29.39a295.783 295.783 0 0 0 -15.38-26.43l-221.58-81.76h-48.73s-23.63 27.93-43.42 73.98a19.915 19.915 0 0 0 13.45 27.23l308.85 76.79a19.9 19.9 0 0 0 24.54-21.66z" fill="#ad572b"/><path d="m81.46 396.18c19.79-46.05 50.42-89.18 50.42-89.18h-30s-23.63 28.13-43.42 74.18a20.012 20.012 0 0 0 13.45 27.33l9.044 2.25a20.074 20.074 0 0 1 .506-14.58z" fill="#8e401e"/><path d="m362.2 237.17c-19.4-40.03 5.18-67.85 5.18-67.85l29.52-76.53a7.4 7.4 0 0 0 1.42-10.45c-55.68-71.58-127.96-67.25-181.55-29.72-47.19 33.04-60.68 85.53-78.75 134.66-31.04 84.38-36.14 120.12-36.14 120.12s25.89 10.24 48.73 0c0 0-.24 20.96-15.65 44.14 0 0 42.82-2.08 64.06-19.83 0 0 3.29 30.72-9.23 55.88 0 0 52.01 2.5 72.13-24.38 0 0 7.82 34.08-11.22 58.91 0 0 35.33 9.19 69.38-26.65a122.5 122.5 0 0 1 -5.74 49.51s57.84-3.25 57.85-55.82a295.783 295.783 0 0 1 15.38 26.43c4.81 9.35 9.72 19.42 14.12 29.39 20.74-79.86-20.08-167.77-39.49-207.81z" fill="#c3cee0"/><path d="m338.38 86.84a10.766 10.766 0 0 1 .22 2.74 16.905 16.905 0 1 1 -31.42-8.7c4.89-.98 11.2-.83 18.66 2.38a46.832 46.832 0 0 0 12.54 3.57z" fill="#b74848"/><path d="m434.7 180.45c-29.14 4.98-51.62-2.13-67.32-11.13-17.97-10.31-27.05-23.11-27.05-23.11 10.82 2.81 24.79 4.79 42.47 4.54 30.18-.43 44.83 15.31 51.9 29.7z" fill="#d39d57"/><path d="m398.32 82.34a7.4 7.4 0 0 1 -1.42 10.45c-5.66 4.21-12.85 13.67-24.71 23.72-27.77 23.52-63.21 14.11-63.7 13.98.39.43 9.3 9.88 31.84 15.72 10.82 2.81 24.79 4.79 42.47 4.54 30.18-.43 44.83 15.31 51.9 29.7a66.777 66.777 0 0 1 6.54 23.05s51.3-44.97-42.92-121.16z" fill="#f4b860"/><path d="m128.291 311.942c2.264-2.973 3.589-4.542 3.589-4.542s5.1-35.74 36.14-120.12c18.07-49.13 31.56-101.62 78.75-134.66 19.307-13.521 41.041-22.731 63.551-25.636-32.929-4.358-65.754 6.169-93.551 25.636-47.19 33.04-60.68 85.53-78.75 134.66-31.04 84.38-36.14 120.12-36.14 120.12a78.3 78.3 0 0 0 26.411 4.542z" fill="#9ba8bc"/><path d="m343.253 93.146a49.752 49.752 0 0 1 -19.788-4.373c-14.863-6.415-23.576 1.894-23.662 1.978a6 6 0 1 1 -8.406-8.563c.587-.577 14.636-14.009 36.823-4.433 15.336 6.618 24.449 1.648 24.829 1.433a5.959 5.959 0 0 1 8.2 2.036 6.039 6.039 0 0 1 -2.049 8.266c-.37.225-6.191 3.656-15.947 3.656z" fill="#9ba8bc"/><g fill="#f4f8fc"><path d="m160.544 201.566a6 6 0 0 1 -5.63-8.073c2.284-6.209 4.515-12.525 6.672-18.633 11.7-33.134 22.74-64.383 44.641-88.919a6 6 0 0 1 8.953 7.992c-20.327 22.767-30.98 52.936-42.26 84.867-2.189 6.2-4.433 12.55-6.744 18.832a6 6 0 0 1 -5.632 3.934z"/><path d="m225.331 82.149a6 6 0 0 1 -3.721-10.711c1.775-1.4 3.618-2.771 5.48-4.075a6 6 0 1 1 6.884 9.829c-1.676 1.174-3.335 2.408-4.93 3.667a5.98 5.98 0 0 1 -3.713 1.29z"/></g></svg>