<svg id="Layer_1" height="512" viewBox="0 0 512 512" width="512" xmlns="http://www.w3.org/2000/svg" data-name="Layer 1"><path d="m402.89 404.36-216.81-73.68-49.52 5.04c-17.77 16.19-40.47 29.79-54.46 37.45a6.152 6.152 0 0 0 1.06 11.25l311.81 101.28a6.153 6.153 0 0 0 6.95-2.31c14.89-21.45 16.29-57.46 16.29-57.46-7.28-5.6-12.21-14.26-15.32-21.57z" fill="#bb744e"/><path d="m156.56 355.72a122.711 122.711 0 0 0 14.81-15.87 39.828 39.828 0 0 0 4.488-8.13l-39.3 4c-17.77 16.19-40.47 29.79-54.46 37.45a6.152 6.152 0 0 0 1.06 11.25l21.9 7.112c14.083-7.876 34.932-20.716 51.502-35.812z" fill="#8c5038"/><path d="m378.06 70.62c8.97 24.64-23.41 30.39-23.41 30.39-9.02-14.35-25.17-24.78-51.97-27.58a82.75 82.75 0 0 0 -9.06-.45s-33.08-46.65 2-46.98c5.27-.05 10.96 1.92 17.19 6.53a19.681 19.681 0 0 0 19.75 2.12c7.69-3.4 17.46-3.95 20.9 12.33 5.98 28.3 15.97-.04 24.6 23.64z" fill="#c45555"/><path d="m348.66 215.6 3.14-62.56 9.73-36.14a59.216 59.216 0 0 0 -6.88-15.89c-9.02-14.35-25.17-24.78-51.97-27.58a82.75 82.75 0 0 0 -9.06-.45c-105.86.59-117.94 214.99-142.25 246.87a122.711 122.711 0 0 1 -14.81 15.87s29.69 11.24 49.52-5.04c0 0-1.28 36.52-21.74 40.36 0 0 30.7 9.61 53.08-16.66 0 0-.64 32.68-9.59 41.01s31.34 3.84 46.69-16.66c0 0 7.04 30.11-3.2 41 0 0 30.06 6.97 57.68-24.34 0 0 4.37 37.15-5.23 44.84 0 0 50.66.64 64.03-32.03 0 0 13.36 28.19 7.61 40.36 30.06-10.25 27.48-44.2 27.48-44.2 3.11 7.31 8.04 15.97 15.32 21.57a27.275 27.275 0 0 0 11.57 5.33c23.02-78.16-81.12-215.66-81.12-215.66z" fill="#f5dbbc"/><path d="m358.28 170.31c8.07 15.11 20.46 45.17-9.62 45.29-23.24.1-23.06-25.6-15.27-42.86a43.692 43.692 0 0 1 18.41-19.7 81.349 81.349 0 0 0 5.18 14.66c.78 1.66 1.3 2.61 1.3 2.61z" fill="#c45555"/><path d="m416.37 139.77-17.58 1.48-48.35 4.07c-1.09-10.21.84-21.28 11.09-28.42 0 0 30-4.29 54.84 22.87z" fill="#efbf66"/><path d="m350.44 145.32 48.35-4.07c-10.06 21.79-41.81 26.45-41.81 26.45a81.349 81.349 0 0 1 -5.18-14.66 60.3 60.3 0 0 1 -1.36-7.72z" fill="#c99e5b"/><path d="m319.32 109.04a9.325 9.325 0 1 1 -9.31 9.33 9.323 9.323 0 0 1 9.31-9.33z" fill="#706872"/><path d="m172.906 337.565c23.33-38.627 37.106-244.008 140.714-244.585a82.75 82.75 0 0 1 9.06.45c13.748 1.436 24.688 4.885 33.306 9.836-.429-.761-.87-1.515-1.336-2.256-9.02-14.35-25.17-24.78-51.97-27.58a82.75 82.75 0 0 0 -9.06-.45c-105.86.59-117.94 214.99-142.25 246.87a122.711 122.711 0 0 1 -14.81 15.87s18.71 7.07 36.346 1.845z" fill="#d1b89d"/><g fill="#f4f8fc"><path d="m206.908 242.073a6.006 6.006 0 0 1 -5.8-7.558c5.909-21.994 15.314-54.489 28.724-82.624a6 6 0 1 1 10.832 5.163c-12.986 27.248-22.181 59.034-27.966 80.574a6 6 0 0 1 -5.79 4.445z"/><path d="m246.08 140.3a6 6 0 0 1 -5.117-9.125c.988-1.621 2-3.223 3-4.764a6 6 0 0 1 10.051 6.556c-.939 1.439-1.884 2.938-2.809 4.455a6 6 0 0 1 -5.125 2.878z"/></g></svg>