<svg id="Layer_1" height="512" viewBox="0 0 512 512" width="512" xmlns="http://www.w3.org/2000/svg" data-name="Layer 1"><path d="m309.46 280.805q-.435-6.765-.3-12.95l-177.2-73.255a47.984 47.984 0 0 1 -15.35 4.329c-47.68 5.25-74.6 14.25-87.85 20.091a9.616 9.616 0 0 0 -3.8 14.62l8.51 11.18 126.61 48.97h.01c31.08 19.13 91.69 45.95 147.85 34.09a226.985 226.985 0 0 0 1.52-47.075z" fill="#314360"/><path d="m48.76 239.015c13.25-5.841 40.17-14.841 87.85-20.091a48.141 48.141 0 0 0 26.355-11.511l-31-12.818a47.984 47.984 0 0 1 -15.35 4.329c-47.68 5.25-74.6 14.25-87.85 20.091a9.616 9.616 0 0 0 -3.8 14.62l8.51 11.18 9.556 3.7a9.618 9.618 0 0 1 5.729-9.5z" fill="#44556d"/><path d="m369.48 166.525-219.01 12.71a47.922 47.922 0 0 1 -18.51 15.36s51.99 75.82 177.2 73.26c1.62-76.94 65.93-88.62 65.93-88.62z" fill="#e0cac3"/><path d="m151.032 215.011c.309-.139.622-.271.928-.416a48.13 48.13 0 0 0 22.93-22.81c2.031-4.264 4.346-9.127 6.983-14.373l-31.4 1.823a47.922 47.922 0 0 1 -18.51 15.36s6.075 8.859 19.069 20.416z" fill="#ba9d95"/><path d="m160.09 293.785h-.01l-24.52 85.28 49.74 65.41a9.591 9.591 0 0 0 9.82 3.55c66.99-15.83 104.02-58.7 112.82-120.15-56.16 11.86-116.77-14.96-147.85-34.09z" fill="#e0cac3"/><path d="m160.08 293.785c2.34 36.1-8.61 64.02-24.52 85.28l-102.09-134.25c23.63-11.6 118.18-51.63 126.39 45.99.08 1 .16 1.995.22 2.98z" fill="#ba9d95"/><path d="m274.22 64.035c-70.23 4.37-103.43 74.37-119.33 107.75a47.833 47.833 0 0 1 -4.42 7.45s56.4 49.45 121.49 18.51 97.52-27.22 97.52-27.22l14.26-32.351s-13.18-80.119-109.52-74.139z" fill="#314360"/><path d="m483 174.585-17.8 2.51a78.091 78.091 0 0 1 -25.57-.48c-30.28-5.78-64.54 2.62-64.54 2.62l-5.61-8.71-7.19-11.17 21.45-21.18s11.43 13.54 49.46 15.14a74.352 74.352 0 0 1 42.28 15.46z" fill="#6d7486"/><ellipse cx="298.75" cy="126.735" fill="#893f43" rx="14.8" ry="14.78"/><path d="m174.89 191.785c15.9-33.38 49.1-103.38 119.33-107.75 33.55-2.083 57.006 6.28 73.341 18.061-14.8-20.379-42.481-41.218-93.341-38.061-70.23 4.37-103.43 74.37-119.33 107.75a47.833 47.833 0 0 1 -4.42 7.45 122.98 122.98 0 0 0 23.159 14.99c.439-.8.865-1.61 1.261-2.44z" fill="#44556d"/><path d="m155.412 266.869c-20.846-66.437-100.524-32.569-121.942-22.054l13.822 18.176c22.464-10.425 80.508-32.374 108.12 3.878z" fill="#9b7e78"/><g fill="#f4f8fc"><path d="m209.052 424.924a6 6 0 0 1 -2.428-11.49c23.339-10.309 41.814-25.37 54.912-44.763a6 6 0 0 1 9.945 6.716c-14.383 21.293-34.572 37.787-60.007 49.024a5.972 5.972 0 0 1 -2.422.513z"/><path d="m275.787 361.883a6 6 0 0 1 -5.395-8.617c.875-1.806 1.725-3.67 2.526-5.537a6 6 0 0 1 11.029 4.729c-.873 2.035-1.8 4.068-2.756 6.041a6 6 0 0 1 -5.404 3.384z"/></g></svg>