<svg id="Layer_1" height="512" viewBox="0 0 512 512" width="512" xmlns="http://www.w3.org/2000/svg" data-name="Layer 1"><path d="m402.99 348.94 9.22-170.76c-8.48-18.62-26.8-42.58-66.83-63.82-36.1-19.16-69.99-88.36-69.99-88.36l8.11 75.83-20.79-28.2 8.86 58.41-24.17-19.89 6.63 38.31c-38.24 31.23-47.88 78.83-53.25 114.28a34.243 34.243 0 0 1 -26.51 28.33l8.29 159.17 190.21 33.69a4.648 4.648 0 0 0 4.58-1.89c31.9-44.28 29.44-104.94 25.65-135.1z" fill="#f45858"/><path d="m419.27 270.41-.95-73.54a84.706 84.706 0 0 0 -6.11-18.69 144.333 144.333 0 0 0 -28.55 8.1 39.077 39.077 0 0 1 -28.68-.02c-32.71-13.18-49.07 13.76-49.07 13.76s59.06 44.97 59.06 118.13c0 31.22 17.71 35.8 38.02 30.79h.01c-.48-3.82-.98-7.15-1.44-9.89a22.687 22.687 0 0 1 3-15.67c18.42-29.78 14.71-52.97 14.71-52.97z" fill="#842934"/><path d="m384.03 234.78 96.91 12.04s-32.45 15.62-61.67 23.59c-19.61 5.35-37.76 7.25-43.68-1.33-5.84-8.47-.34-21.57 8.43-34.3z" fill="#d33c29"/><path d="m480.94 246.82-96.91-12.04h-.01c13.36-19.39 34.3-37.91 34.3-37.91z" fill="#f95130"/><path d="m339.34 197.3a5.335 5.335 0 1 1 -5.33 5.34 5.33 5.33 0 0 1 5.33-5.34z" fill="#f0c2ff"/><path d="m282.71 93.63 20.79 28.2-6.223-58.189a375.145 375.145 0 0 1 -21.887-37.641l8.11 75.83-20.79-28.2 8.86 58.41-24.17-19.89 6.63 38.31c-38.24 31.23-47.88 78.83-53.25 114.28a34.243 34.243 0 0 1 -26.51 28.33l20 20a34.243 34.243 0 0 0 26.51-28.33c5.37-35.45 15.01-83.05 53.25-114.28l-6.63-38.31 24.17 19.89z" fill="#b55555"/><path d="m283.364 360.562c-28.024 0-49.49-15.949-50.728-16.888a6 6 0 0 1 7.244-9.567c1.491 1.122 36.633 27.011 73.009 6.638a6 6 0 1 1 5.864 10.469 71.48 71.48 0 0 1 -35.389 9.348z" fill="#994a4a"/><path d="m240.27 339.9c2.91 32.17-10.94 77.87-57.71 112.34l-147.68-26.16a4.61 4.61 0 0 1 -3.57-6.02c7.33-21.51 41.81-104.71 142.96-126.99 0 0 55.33-5.95 64.57 37.26a81.407 81.407 0 0 1 1.43 9.57z" fill="#ad2a34"/><path d="m219.334 314.621a65.384 65.384 0 0 1 16.079 5.457c-15.088-31.954-61.143-27.008-61.143-27.008-101.15 22.28-135.63 105.48-142.96 126.99a4.61 4.61 0 0 0 3.57 6.02l20.384 3.611c12.1-28.928 46.409-90.361 125.823-113.275a79.643 79.643 0 0 1 38.247-1.795z" fill="#842934"/><g fill="#f4f8fc"><path d="m169.371 426.113a6 6 0 0 1 -4.2-10.281c24.622-24.17 33.559-49.377 36.722-66.267a6 6 0 1 1 11.795 2.208c-3.48 18.583-13.263 46.267-40.11 72.622a5.979 5.979 0 0 1 -4.207 1.718z"/><path d="m209.588 334.252a6 6 0 0 1 -5.993-5.813c-.052-1.649-.149-3.289-.29-4.875a6 6 0 1 1 11.952-1.065c.162 1.816.274 3.689.332 5.566a6 6 0 0 1 -5.811 6.184c-.063.002-.127.003-.19.003z"/></g></svg>