<svg id="Layer_1" height="512" viewBox="0 0 512 512" width="512" xmlns="http://www.w3.org/2000/svg" data-name="Layer 1"><path d="m317.23 136.02c-.67-.8-1.35-1.59-2.06-2.37-15.98-17.98-38.72-32.37-71.07-37.75-97.81-16.28-142.8 81.38-154.04 110.88a256.751 256.751 0 0 1 35.88-16.07c17.91-6.57 41.6-7.84 53.86-22.26l93.32-6.42h.01a78.853 78.853 0 0 0 13.48.91h.01a7.616 7.616 0 0 1 3.7-3.18l.01-.01h.01a139.006 139.006 0 0 0 14.52-6.74l-.01-.01 10.4-7.34.01.01c6.17-6.28 1.97-9.65 1.97-9.65z" fill="#637dea"/><path d="m197.83 172.47-18.03-4.02c-12.26 14.42-35.95 15.69-53.86 22.26a256.751 256.751 0 0 0 -35.88 16.07c-1.98 5.17-2.91 8.25-2.91 8.25l78.2-2.22h.01c.52-.31 35.56-20.94 32.47-40.34z" fill="#77ea63"/><path d="m286.61 162.94a78.853 78.853 0 0 1 -13.48-.91h-.01l-75.29 10.44c3.09 19.4-31.95 40.03-32.47 40.34 1.78.67 3.54 1.41 5.25 2.22 0 0 25.74-7.99 40.88-2.22 0 0-3.15-17.95 33.38-25.2s47.47-13.14 47.47-13.14z" fill="#436f91"/><path d="m292.34 174.47 21.45 5.16c-.9.25-42.74 6.71-54.26 43.35-18.25-15.3-29.89 1.76-43.77-7.95a19.617 19.617 0 0 0 -4.27-2.22s-3.15-17.95 33.38-25.2 47.47-13.14 47.47-13.14z" fill="#d6c75b"/><path d="m215.76 215.03a19.617 19.617 0 0 0 -4.27-2.22c-15.14-5.77-40.88 2.22-40.88 2.22l-30.75 172.72 25.89 29.14a3.034 3.034 0 0 0 3.91.55c68.89-44.6 80.3-144.37 88.06-187.09a61.546 61.546 0 0 1 1.81-7.37c-18.25-15.3-29.89 1.76-43.77-7.95z" fill="#d9ed62"/><path d="m290.34 159.75 195.65 11.23c-51.44 13.03-172.2 8.65-172.2 8.65l-21.45-5.16a7.663 7.663 0 0 1 -5.73-11.53h.01a7.616 7.616 0 0 1 3.7-3.18l.01-.01z" fill="#4a5160"/><path d="m485.99 170.98-195.65-11.23a139.006 139.006 0 0 0 14.52-6.74 45.694 45.694 0 0 0 10.4-7.34c6.17-6.28 1.97-9.65 1.97-9.65-.67-.8-1.35-1.59-2.06-2.37 117.3 14.96 170 36.98 170.82 37.33z" fill="#6d7486"/><path d="m315.25 145.66.01.01a45.694 45.694 0 0 1 -10.4 7.34l-.01-.01s-1.41-3.09-20.87-5.51c-5.66-.7-7.89-13.28.95-16.27 5.94-2.01 19.92 3.65 30.32 14.44z" fill="#436f91"/><path d="m250.82 135.89a8.835 8.835 0 1 1 -8.88 8.83 8.847 8.847 0 0 1 8.88-8.83z" fill="#6f6970"/><path d="m232.75 149.84a144.309 144.309 0 0 0 40.37 12.19c-34.35 6.25-63.3 11.07-75.29 10.44a57.2 57.2 0 0 1 -18.03-4.02c-7.44-3.12-13.38-8.27-12.08-16.14 2.89-17.56 33.96-16.82 65.03-2.47z" fill="#f94161"/><path d="m127.81 190.051c22.764-38.458 65.814-85.881 136.29-74.151 22.458 3.735 40.276 11.818 54.424 22.424a4.243 4.243 0 0 0 -1.294-2.3c-.67-.8-1.35-1.59-2.06-2.37-15.98-17.98-38.72-32.37-71.07-37.75-97.81-16.284-142.8 81.376-154.04 110.876a256.751 256.751 0 0 1 35.88-16.07c.616-.226 1.241-.445 1.87-.659z" fill="#4c68bf"/><path d="m127.81 190.051c-.629.214-1.254.433-1.87.659a256.751 256.751 0 0 0 -35.88 16.07c-1.98 5.17-2.91 8.25-2.91 8.25l28.133-.8a245.348 245.348 0 0 1 12.527-24.179z" fill="#3a6484"/><path d="m170.61 215.03c22.86 10.78 38.51 33.81 24.33 78.63-8.83 27.91-31.16 72.35-55.08 94.09l-113.09-127.26a3.028 3.028 0 0 1 .09-4.13c6.67-6.85 29.9-29.14 60.29-41.33a110.915 110.915 0 0 1 30.45-7.7c14-1.36 32.07-.45 47.75 5.48h.01c1.78.67 3.54 1.41 5.25 2.22z" fill="#637dea"/><path d="m44.86 278.36c6.67-6.85 29.9-29.14 60.29-41.33a110.8 110.8 0 0 1 30.45-7.6c14-1.36 32.07-.425 47.75 5.575h.01c1.78 0 3.54 1.315 5.25 2.125a61.1 61.1 0 0 1 8.054 4.5c-5-12.706-14.625-21.087-26.054-26.476-1.71-.81-3.47-2.149-5.25-2.149h-.01c-15.68-6-33.75-6.935-47.75-5.575a110.82 110.82 0 0 0 -30.45 7.653c-30.39 12.189-53.62 34.456-60.29 41.306a3.012 3.012 0 0 0 -.09 4.118l17.284 19.444a3.035 3.035 0 0 1 .806-1.591z" fill="#4c68bf"/><g fill="#f4f8fc"><path d="m131.478 351.122a6 6 0 0 1 -4.675-9.756c10.942-13.629 22.006-32.2 31.155-52.3a6 6 0 0 1 10.921 4.973c-9.55 20.979-21.17 40.454-32.718 54.838a5.991 5.991 0 0 1 -4.683 2.245z"/><path d="m171.13 278.866a6.006 6.006 0 0 1 -5.63-8.066c.691-1.884 1.338-3.731 1.925-5.491a6 6 0 1 1 11.384 3.8c-.624 1.872-1.311 3.832-2.042 5.827a6 6 0 0 1 -5.637 3.93z"/></g></svg>