<svg id="Layer_1" height="512" viewBox="0 0 512 512" width="512" xmlns="http://www.w3.org/2000/svg" data-name="Layer 1"><path d="m456.88 163.87a4.721 4.721 0 0 1 -1.23 7.96c-10.42 4.29-35.02 7.33-76.7-29.24l-.02-.02a17.158 17.158 0 0 0 4.2-4.76 22.029 22.029 0 0 0 3.26-8.37h.01c11.05-4.02 23.98 3.04 23.98 3.04-1.42-17.98 14.38-16.74 14.38-16.74h.01c7.25 16.98 17.87 36.15 32.11 48.13z" fill="#efa750"/><path d="m373.72 88.46a27.2 27.2 0 0 0 -3.72 22.88 69 69 0 0 0 -13.49-2.93c-32-3.07-34.18-37.74-34.23-38.52 15.6-2.52 33.87-1.34 51.44 18.57z" fill="#d3bd9f"/><path d="m410.38 132.48s-12.93-7.06-23.98-3.04h-.01c1.41-9.89-7.82-15.27-16.39-18.1a27.2 27.2 0 0 1 3.72-22.88c9.66 10.93 22.83 7.04 31.57 2.47a14.068 14.068 0 0 0 7.33-10.83h.01a245.863 245.863 0 0 0 12.14 35.64h-.01s-15.8-1.24-14.38 16.74z" fill="#ce9549"/><path d="m319.03 111.35s-66.03-22.74-83.84 46.31 25.53 125 94.97 162.5c63.87 34.49 125.23 83.35 126.33 155.69a10 10 0 0 1 -10 10.15h-383.02a10 10 0 0 1 -6.14-17.9c59.73-46.44 124.74-81.8 165.22-58.82 12.78 7.25 23.81 17.28 37.8 21.73 28.98 9.21 71.98 13.11-12.02-79.44-106.25-117.07-68.4-213.76-68.4-213.76 21.61-71.01 58.07-99.83 115.34-109.35 66.57-11.06 103.74 17.18 116.16 43.95a14.335 14.335 0 0 1 -6.14 18.52c-8.74 4.57-21.91 8.46-31.57-2.47-17.57-19.91-35.84-21.09-51.44-18.57.05.78 2.23 35.45 34.23 38.52a69 69 0 0 1 13.49 2.93c8.57 2.83 17.8 8.21 16.39 18.1a22.029 22.029 0 0 1 -3.26 8.37 17.158 17.158 0 0 1 -4.2 4.76c-14.66 11.29-44.42-7.65-59.9-31.22z" fill="#e5d5bd"/><path d="m348.04 79.52a8.935 8.935 0 1 1 -8.91 8.94 8.924 8.924 0 0 1 8.91-8.94z" fill="#706872"/><path d="m294.722 432.322c28.54 8.047 63.466 7.235-16.392-80.752-106.25-117.07-68.4-213.76-68.4-213.76 21.61-71.01 58.07-99.83 115.34-109.35 4.5-.748 8.862-1.31 13.1-1.711a160.565 160.565 0 0 0 -43.1 1.711c-57.27 9.52-93.73 38.34-115.34 109.35 0 0-37.85 96.69 68.4 213.76 47.054 51.843 54.252 73.418 46.392 80.752z" fill="#bcaf9f"/><path d="m87.33 468.1c40.721-31.661 83.894-58.164 120.077-64.55-40.453-8.83-97.323 23.533-150.077 64.55a10 10 0 0 0 6.14 17.9h30a10 10 0 0 1 -6.14-17.9z" fill="#bcaf9f"/><g fill="#f4f8fc"><path d="m322.13 349.123a5.972 5.972 0 0 1 -2.882-.742q-1.66-.912-3.348-1.823a6 6 0 0 1 5.7-10.558q1.724.933 3.42 1.863a6 6 0 0 1 -2.893 11.261z"/><path d="m425.867 447.611a6 6 0 0 1 -5.608-3.863c-5.208-13.658-13.549-26.628-25.5-39.651-14.7-16.016-34-31.136-59-46.223a6 6 0 1 1 6.2-10.274c26 15.686 46.165 31.512 61.647 48.384 13 14.162 22.111 28.387 27.87 43.488a6 6 0 0 1 -5.6 8.139z"/></g></svg>