<svg id="Layer_1" height="512" viewBox="0 0 512 512" width="512" xmlns="http://www.w3.org/2000/svg" data-name="Layer 1"><path d="m295.64 165c-15.81.41-41.31-1.36-62.72-14.04-33.78-20.02-46.8-28.84-66.03-24.43-8.85 9.35-13.52 17.52-18.06 23.59a81.917 81.917 0 0 1 -23.54 21.35c-9.02 5.4-21.12 14.51-33.88 26.2l13.57 179.66 40.51 41.9a7.811 7.811 0 0 0 10.38.74c126.92-97.21 51.52-197.87 92.95-214.72 42.02-17.1 61.84-41.45 61.84-41.45a123.3 123.3 0 0 1 -15.02 1.2z" fill="#8ae858"/><path d="m201.951 133.116c-13.588-6.962-23.132-9.322-35.061-6.586-8.85 9.35-13.52 17.52-18.06 23.59a81.917 81.917 0 0 1 -23.54 21.35c-9.02 5.4-21.12 14.51-33.88 26.2l2.8 37.05c5.721-6.13 11.525-11.848 17.2-17.05 12.76-11.69 24.86-20.8 33.88-26.2a81.917 81.917 0 0 0 23.54-21.35c4.54-6.07 9.21-14.24 18.06-23.59a122.124 122.124 0 0 1 15.061-13.414z" fill="#73ba49"/><path d="m316.88 127.04-21.24 37.96c-15.81.41-41.31-1.36-62.72-14.04-33.78-20.02-46.8-28.84-66.03-24.43 8.03-8.49 19.52-17.96 37.5-27.71 54.51-29.57 112.49 28.22 112.49 28.22z" fill="#f9644b"/><path d="m284.99 130.61s-14.28 17.68-29.99-2.92c18.31-18.06 29.99 2.92 29.99 2.92z" fill="#706872"/><path d="m316.88 127.04c68.78-19.58 169.12-9.73 169.12-9.73s-124.97 29.6-175.34 46.49a123.3 123.3 0 0 1 -15.02 1.2z" fill="#6d7486"/><path d="m149.2 200.3c27.65 29.87 16.49 80.54-44.22 177.03l-76.77-79.42a7.76 7.76 0 0 1 -1.84-7.78c10.257-31.892 34.274-62.582 57.667-85.476a57.4 57.4 0 0 1 27.1-15.154c11.791-2.718 26.218-2 38.063 10.8z" fill="#f9644b"/><path d="m315.211 130.023 1.669-2.983s-57.98-57.79-112.49-28.22c-17.98 9.75-29.47 19.22-37.5 27.71 11.929-2.736 21.472-.376 35.06 6.586a175.2 175.2 0 0 1 22.44-14.3c33.838-18.352 69.01-3.044 90.821 11.207z" fill="#c64f40"/><path d="m91.647 197.526a2.7 2.7 0 0 0 -.446.336c-25.484 23.4-53.522 57.1-64.831 92.268a7.76 7.76 0 0 0 1.84 7.78l13.528 13.528a2.768 2.768 0 0 0 4.606-1.226l.026-.082c11.34-35.26 39.5-69.05 65.04-92.46a255.121 255.121 0 0 1 26.415-21.359 2.759 2.759 0 0 0 -.426-4.767c-18.25-8.52-38.361 1.524-45.752 5.982z" fill="#c64f40"/><g fill="#f4f8fc"><path d="m212.8 258.5a6 6 0 0 1 -6-5.968c-.013-2.362-.045-4.672-.083-6.927a6 6 0 0 1 5.9-6.1h.1a6 6 0 0 1 6 5.9q.06 3.453.085 7.069a6 6 0 0 1 -5.968 6.032z"/><path d="m174.523 375.209a6 6 0 0 1 -4.646-9.792c29.6-36.308 34.967-70.682 36.426-93.378a6 6 0 1 1 11.974.77c-3.265 50.827-23.879 81.524-39.1 100.192a5.992 5.992 0 0 1 -4.654 2.208z"/></g></svg>