<svg id="Layer_1" height="512" viewBox="0 0 512 512" width="512" xmlns="http://www.w3.org/2000/svg" data-name="Layer 1"><path d="m350.23 63.59c-38.23-18.1-119.85-24.87-174.71 84.81a39.23 39.23 0 0 1 -10.57 13.15c-113.82 90.77-134.96 223.33-138.89 269.49a15.8 15.8 0 0 0 15.22 17.13l27.67.93v-.01l57.74-126.6c8.77-52.76 36.81-84.97 90.11-76.95 76.64 11.52 121.73-29.56 121.73-29.56 4.43-49.33 82.01-76.37 83.25-76.8v-.01l5.55-32.07s-31.38-21.85-77.1-43.51z" fill="#324d77"/><path d="m355.27 340.53a644.7 644.7 0 0 0 -15.56-108.37 51 51 0 0 1 -1.18-16.18s-45.09 41.08-121.73 29.56c-53.3-8.02-81.34 24.19-90.11 76.95l33.66 129.67v.01l189.54 6.36s9.48-46.48 5.38-118z" fill="#ccd3df"/><path d="m355.27 340.53s20.91 44.86 20.53 102.68a15.8 15.8 0 0 1 -16.35 15.64l-9.56-.32s9.48-46.48 5.38-118z" fill="#293f60"/><path d="m135.12 326.64c14.86 20.6 45.09 71.79 25.23 125.52v.01l-91.4-3.07v-.01a236.137 236.137 0 0 1 2.44-26.53 176.924 176.924 0 0 1 45.74-94.15l2.57-2.75a10 10 0 0 1 15.42.98z" fill="#293f60"/><path d="m319.04 106.38c5.79 0 10.49 3.7 10.49 8.25s-4.7 8.26-10.49 8.26-10.48-3.7-10.48-8.26 4.69-8.25 10.48-8.25z" fill="#ea7373"/><path d="m465.27 117.34c.76.38 20.73 13.52 20.73 13.52-24.16 4.34-45.99 6.86-64.22 8.31-17.4 1.39-31.53 1.79-41.25 1.84a44.791 44.791 0 0 1 -26.22-8.28l-4.46-3.15 26.23-12.54a103.25 103.25 0 0 1 51.25-9.94 98.789 98.789 0 0 1 37.94 10.24z" fill="#dbad45"/><path d="m56.06 435.04c3.93-46.16 25.07-178.72 138.89-269.49a39.23 39.23 0 0 0 10.57-13.15c37.326-74.624 87.035-95.333 127.042-95.253-42.1-11.361-109.581-3.635-157.042 91.253a39.23 39.23 0 0 1 -10.57 13.15c-113.82 90.77-134.96 223.33-138.89 269.49a15.8 15.8 0 0 0 15.22 17.13l20.864.7a15.755 15.755 0 0 1 -6.084-13.83z" fill="#293f60"/><path d="m91.39 442.56a176.924 176.924 0 0 1 45.74-94.15l2.57-2.75a9.87 9.87 0 0 1 5.752-3.048c-3.711-6.415-7.334-11.817-10.332-15.972a10 10 0 0 0 -15.42-.98l-2.57 2.75a183.8 183.8 0 0 0 -48.13 120.68v.01l21.45.721c.29-2.471.586-4.896.94-7.261z" fill="#21324c"/><g fill="#f4f8fc"><path d="m325.587 427.967c-.16 0-.32-.006-.481-.019a6 6 0 0 1 -5.507-6.456 587.608 587.608 0 0 0 .538-82.1 6 6 0 1 1 11.976-.734 599.415 599.415 0 0 1 -.552 83.785 6 6 0 0 1 -5.974 5.524z"/><path d="m324.048 319.6a6 6 0 0 1 -5.963-5.394q-.4-3.929-.854-7.931a6 6 0 1 1 11.921-1.361q.467 4.077.872 8.079a6.012 6.012 0 0 1 -5.976 6.607z"/></g></svg>