<svg id="Layer_1" height="512" viewBox="0 0 512 512" width="512" xmlns="http://www.w3.org/2000/svg" data-name="Layer 1"><path d="m325.91 286.44q-.885-5.385-1.34-10.66l-36.34-216.09c-52.89-14.02-97.16 14.26-105.83 14.77-11.82.7-52.22-19.48-52.22-19.48l12.78 19.85-26.45 2.75 13.82 16.07-21.21 9.43 35.11 22.5c-7.5 56.48-35.52 103.43-64.1 137.99l.01.01 86.13 157.38 56.96 33.14a21.117 21.117 0 0 0 20.47.53c59.67-31.58 92.19-107.66 82.21-168.19z" fill="#f4a269"/><path d="m143.25 132.135c-8.716 53.565-35.65 98.222-63.12 131.435l.01.01 14.934 27.289-2.407 3.464q1.278-1.546 2.576-3.157l.535.979c26.552-36.427 62.052-98.381 68.452-146.575z" fill="#d87939"/><path d="m135.738 120.138 14.592-6.488-13.82-16.07 26.45-2.75-12.78-19.85s40.4 20.18 52.22 19.48c7.712-.454 43.6-22.88 88.657-17.96l-2.827-16.81c-52.89-14.02-97.16 14.26-105.83 14.77-11.82.7-52.22-19.48-52.22-19.48l12.78 19.85-26.45 2.75 13.82 16.07-21.21 9.43z" fill="#d87939"/><path d="m80.14 263.58c106.94-74.31 186.51 44.6 86.13 157.38l-129.69-75.47a21.256 21.256 0 0 1 -3.11-34.56 387.241 387.241 0 0 0 46.66-47.36z" fill="#3a4baf"/><path d="m351.91 169.61-3.97-74.57c-20.18-19.59-40.52-30.26-59.71-35.35 0 0-61.11-3.15-70.71 48.49-.73 3.94-2.9 7.45-6.65 8.85l-19.99 7.47a5.178 5.178 0 0 0 -.79 9.33l9.88 5.74a5.189 5.189 0 0 1 2.03 6.78l-7.41 14.92a5.182 5.182 0 0 0 5.14 7.46l13.08-1.24a10.267 10.267 0 0 1 11.11 8.49c3.18 19 19.53 63.06 100.65 99.8-5.25-59.18 27.34-106.17 27.34-106.17z" fill="#f95f5f"/><path d="m486 135.53-157.25 1.63 19.19-42.12z" fill="#6d7486"/><path d="m486 135.53-134.09 34.08-23.16-32.45z" fill="#4a5160"/><path d="m285.73 107.94a13.645 13.645 0 1 1 -13.66 13.65 13.65 13.65 0 0 1 13.66-13.65z" fill="#706872"/><path d="m53.47 330.93a387.241 387.241 0 0 0 46.66-47.36l.01.01c39.559-27.489 75.37-28.532 99.715-13.231-21.228-33.142-67.166-43.284-119.715-6.769l-.01-.01a387.241 387.241 0 0 1 -46.66 47.36 21.256 21.256 0 0 0 3.11 34.56l9.822 5.716a21.161 21.161 0 0 1 7.068-20.276z" fill="#3a21b7"/><g fill="#f4f8fc"><path d="m263.278 409.735a6 6 0 0 1 -4.609-9.838 172.9 172.9 0 0 0 36.656-79.561 6 6 0 0 1 11.819 2.075 185.083 185.083 0 0 1 -39.251 85.163 5.99 5.99 0 0 1 -4.615 2.161z"/><path d="m303.626 304.332h-.184a6 6 0 0 1 -5.816-6.178c.087-2.894.087-5.8 0-8.633a6 6 0 1 1 11.994-.365c.094 3.076.094 6.224 0 9.359a6 6 0 0 1 -5.994 5.817z"/></g></svg>