<svg id="Layer_1" height="512" viewBox="0 0 512 512" width="512" xmlns="http://www.w3.org/2000/svg" data-name="Layer 1"><path d="m362.55 124.963-5.2-8.328s-67.42-78.13-116.86-83.73l19.96 23.93c-.73-.25-37.53-12.83-59.9 1.73l16.46 14.32s-25.92-4.51-38.75 8.7l22.61 11.115s-24.2 9.13-31.36 20.24l31.28-1.83s-34.33 20.26-31.71 80.85c1.6 37.18-10.57 71.41-20.21 92.32a47.673 47.673 0 0 1 -29.11 25.62c-43.48 13.43-78.13 40.99-91.72 52.92a6 6 0 0 0 1.05 9.75l190.02 105.77a5.985 5.985 0 0 0 4.84.45c113.45-38.5 77.57-136.49 76.36-214.59-.94-60.7 33.53-74.56 49.32-77.73a6.356 6.356 0 0 0 .66-.18c.03-.01.07-.03.13-.05a4.425 4.425 0 0 0 1.57-7.13z" fill="#a8b6cc"/><path d="m461.41 122.335c15.95 3.64 24.59 25.51 24.59 25.51s-7.24.03-18.61.31c-35.62.88-111.82 4.2-133.51 16.68a61.766 61.766 0 0 0 -10.01-4.73c38.54-12.59 33.48-43.47 33.48-43.47s88.12 2.05 104.06 5.7z" fill="#6d7486"/><path d="m467.39 148.155s-18.71 11.03-57.45 20.23a534.463 534.463 0 0 0 -59.52 17.85 4.424 4.424 0 0 0 1.57-7.13 78.129 78.129 0 0 0 -18.11-14.27c21.69-12.48 97.89-15.8 133.51-16.68z" fill="#4a5160"/><path d="m302.44 135.585a8.78 8.78 0 1 1 -8.81 8.78 8.789 8.789 0 0 1 8.81-8.78z" fill="#706972"/><path d="m48.04 382.815c13.59-11.93 48.24-39.49 91.72-52.92a47.673 47.673 0 0 0 29.11-25.62c9.64-20.91 21.81-55.14 20.21-92.32-2.62-60.59 31.71-80.85 31.71-80.85l-31.28 1.83c7.16-11.11 31.36-20.24 31.36-20.24l-22.61-11.11c12.83-13.21 38.75-8.7 38.75-8.7l-16.46-14.32c22.37-14.56 59.17-1.98 59.9-1.73l-19.96-23.93c28.87 3.27 63.867 31.27 87.994 54.005-19.9-21.118-69.42-69.636-107.994-74l19.96 23.93c-.73-.25-37.53-12.83-59.9 1.73l16.46 14.32s-25.92-4.51-38.75 8.7l22.61 11.11s-24.2 9.13-31.36 20.24l31.28-1.83s-34.33 20.26-31.71 80.85c1.6 37.18-10.57 71.41-20.21 92.32a47.673 47.673 0 0 1 -29.11 25.62c-43.48 13.43-78.13 40.99-91.72 52.92a6 6 0 0 0 1.05 9.75l18.758 10.441c.065-.068.123-.136.192-.196z" fill="#7689a5"/><g fill="#f4f8fc"><path d="m197.219 220.334a6 6 0 0 1 -6-5.988c0-2.045-.05-4.109-.137-6.134a6 6 0 0 1 11.989-.516c.094 2.189.144 4.417.148 6.625a6 6 0 0 1 -5.987 6.013z"/><path d="m155.266 328.844a6 6 0 0 1 -2.737-11.342 41.991 41.991 0 0 0 18.888-19.744c6.767-14.668 15.488-37.617 18.612-63.64a6 6 0 0 1 11.914 1.43c-3.31 27.576-12.5 51.784-19.629 67.237a54.041 54.041 0 0 1 -24.321 25.4 5.964 5.964 0 0 1 -2.727.659z"/></g></svg>