<svg id="Layer_1" enable-background="new 0 0 512 512" height="512" viewBox="0 0 512 512" width="512" xmlns="http://www.w3.org/2000/svg"><path d="m425.9 182.4-3.2-2.3 8-7.3c-35.1-9.3-76.5-9.3-76.5-9.3l-25.4-7.2c-37.4-37.2-126.3-57.6-126.3-57.6-2.9 2.3-5.5 4.5-7.7 6.4-6.1 5.3-13.2 9.4-20.9 12.1-84.5 30.1-129.3 72.4-144.7 89.2-3.6 3.9-3.5 10 .3 13.8l235.5 237c2.2 2.3 5.4 3.3 8.6 2.9 111.5-16 164.8-82 165.4-171.6 0-3.4.1-6.8.1-10z" fill="#cbc3aa"/><path d="m47.2 227.4c15.4-16.8 60.2-59.1 144.6-89.2 7.6-2.7 14.7-6.8 20.9-12.1 2.2-1.9 4.8-4.1 7.7-6.4 4.4-3.5 9.6-7.5 15.5-11.5-19.4-6.3-33.5-9.5-33.5-9.5-2.9 2.3-5.5 4.5-7.7 6.4-6.1 5.3-13.2 9.4-20.9 12.1-84.4 30.1-129.3 72.4-144.6 89.2-3.6 3.9-3.5 10 .3 13.8l15.2 15.3c-.4-2.9.5-5.9 2.5-8.1z" fill="#d8d2c3"/><path d="m422.7 180.1 62.7.8-38.1 20.4c-.4-2.5-1.8-4.7-3.8-6.1l-17.5-12.7z" fill="#67655b"/><path d="m485.4 180.9-62.7-.8 8-7.3 13.9-12.7c1.3-1.2 2.2-2.6 2.7-4.2z" fill="#848278"/><path d="m447.3 150.3c-8-28.2-27-59-68.9-82.5-71.9-40.4-144.5 5.7-176 30.9 0 0 88.9 20.4 126.3 57.6l25.4 7.2s41.4 0 76.5 9.3l13.9-12.7c2.8-2.5 3.8-6.3 2.8-9.8z" fill="#5e494f"/><path d="m447.2 201.3c.2 1.3.2 2.7-.1 4-2.5 10.3-7.1 34-8 73.2-64.5-9.7-100.4-59-105.7-66.7-.3-.4-.2-1 .3-1.2.1 0 .2-.1.2-.1l92-27.9 17.5 12.7c2.1 1.3 3.4 3.5 3.8 6z" fill="#5e494f"/><path d="m356.2 156.2c0 2.5-.7 5-2.1 7.2-4 6.4-12.4 8.4-18.9 4.4-6.4-4-8.4-12.4-4.4-18.9 4-6.4 12.4-8.4 18.9-4.4 4.1 2.6 6.6 7 6.5 11.7z" fill="#272e38"/><path d="m272.2 235.5c5.8 65.4-33.5 114-82.3 146.1l-135.7-136.6c36.9-24.4 100.6-59.3 157.3-55.2 22.2 1.6 58 14.8 60.7 45.7z" fill="#5e494f"/><path d="m396.5 88.8c12.1 6.7 23.4 14.9 33.5 24.4-11.2-16.3-27.7-32-51.5-45.4-71.9-40.4-144.5 5.7-176 30.9 0 0 14.1 3.2 33.5 9.5 36.2-24.9 98.6-54.1 160.5-19.4z" fill="#896d74"/><path d="m229.4 210.8c11.9.9 27.6 5 40.1 13.4-9.2-22.8-38.7-33-58.1-34.4-56.7-4.1-120.4 30.8-157.3 55.2l19.7 19.9c37.2-24.4 99.8-58.2 155.6-54.1z" fill="#896d74"/><g fill="#f4f8fc"><path d="m343.6 415.8c-3.3 0-6-2.7-6-6 0-2.1 1.1-4 2.9-5.1 19.4-11.9 35.2-26.9 47-44.8 1.8-2.8 5.5-3.5 8.3-1.7s3.5 5.5 1.7 8.3c-12.7 19.3-29.8 35.6-50.8 48.4-.9.6-2 .9-3.1.9z"/><path d="m402.6 351.2c-3.3 0-6-2.7-6-6 0-.9.2-1.8.6-2.6.8-1.6 1.5-3.3 2.2-4.9 1.3-3 4.8-4.4 7.9-3.1s4.4 4.8 3.1 7.9c-.8 1.8-1.6 3.6-2.4 5.3-1 2.1-3.1 3.4-5.4 3.4z"/></g></svg>