<svg id="Layer_1" height="512" viewBox="0 0 512 512" width="512" xmlns="http://www.w3.org/2000/svg" data-name="Layer 1"><path d="m440.1 150.325-8.3-63.38s-15.86-67.9-104.95-60.36c-132.82 11.25-160.81 143.87-160.81 143.87l41.3 241.11 85.55 73.35a4.514 4.514 0 0 0 4.93.62c169.77-84.04 126.93-237.32 126.93-237.32 31.63-37.9 15.35-97.89 15.35-97.89z" fill="#c7b07a"/><path d="m326.85 26.585c-132.82 11.25-160.81 143.87-160.81 143.87l4.9 28.591 16.5-.422-1.4-8.169s27.99-132.62 160.81-143.87c34.11-2.887 57.475 5.288 73.336 16.474-13.242-18.736-40.323-40.959-93.336-36.474z" fill="#9e885e"/><path d="m351.05 102.745-24.24 1.4c-34.17 9.19-56.74 25.13-69.99 37.39a20.964 20.964 0 0 0 26.16 32.62c21.03-14.5 63.43-40.18 100.89-40.91l.01-.01 35.77-41.27c-29.03-.39-68.6 10.78-68.6 10.78z" fill="#ccd3df"/><path d="m351.05 102.745a16.509 16.509 0 1 1 -11.47-4.64 16.455 16.455 0 0 1 11.47 4.64z" fill="#706972"/><path d="m475.92 133.905q-5.415-2.085-10.73-3.59c-43.14-12.23-80.48 2.59-81.31 2.92 13.29-24.11 26.57-35.71 35.77-41.27h.01c7.39-4.46 12.14-5.02 12.14-5.02s43.68 9.23 44.12 46.96z" fill="#6d7486"/><path d="m465.19 130.315-.1.38c-10.42 19.94-24.99 19.63-24.99 19.63-26.38 2.88-56.23-17.08-56.23-17.08l.01-.01c.83-.33 38.17-15.15 81.31-2.92z" fill="#4a5160"/><path d="m253.29 222.215c37.1 7.81 58.14 47.42 43.09 82.21-14.62 33.81-41.09 73.46-89.04 107.14l-169.69-145.5a4.5 4.5 0 0 1 -.8-5.93c9.69-14.3 51.76-70.22 129.19-89.68 0 0 17.74 37.11 87.25 51.76z" fill="#55514e"/><path d="m56.85 280.135c9.6-14.163 50.962-69.145 126.977-89.1-13.3-11.192-17.787-20.576-17.787-20.576-77.43 19.46-119.5 75.38-129.19 89.68a4.5 4.5 0 0 0 .8 5.93l18.5 15.866a4.467 4.467 0 0 1 .7-1.8z" fill="#3a3532"/><path d="m214.042 346.875a6 6 0 0 1 -4.238-10.248 243.011 243.011 0 0 0 40.066-52.44 6 6 0 0 1 10.448 5.9 255.044 255.044 0 0 1 -42.039 55.033 5.981 5.981 0 0 1 -4.237 1.755z" fill="#f4f8fc"/><path d="m264.338 275.013a6 6 0 0 1 -5.452-8.5q1.032-2.255 1.991-4.474a6 6 0 0 1 11.015 4.763q-1.01 2.334-2.094 4.7a6 6 0 0 1 -5.46 3.511z" fill="#f4f8fc"/><path d="m429.688 241.543a5.983 5.983 0 0 0 -3.353-.16c-1.268.307-29.963 7.1-80.064 11.946a6 6 0 0 0 .57 11.971 5.782 5.782 0 0 0 .585-.028c42.578-4.117 69.746-9.572 78.6-11.511-.724-3.587-1.271-5.546-1.271-5.546a72.76 72.76 0 0 0 4.933-6.672z" fill="#9e885e"/></svg>