<svg id="Layer_1" height="512" viewBox="0 0 512 512" width="512" xmlns="http://www.w3.org/2000/svg" data-name="Layer 1"><path d="m385.29 137.17h-.01l-11.12-39.09a12.751 12.751 0 0 1 -5.4-2.09q-5.07-3.45-10.62-6.86c-135.85-29.41-213.89 42.98-214.93 43.95l-.01.01c-6.44 11.02-11.91 21.55-16.66 30.33-21.35 39.42-82.96 75.16-98.96 83.96a3.056 3.056 0 0 0 -.54 4.97l234.27 206.66a3.048 3.048 0 0 0 4.13-.07c33.98-32.53 53.12-123.98 51.91-180-1.12-52.01 57.4-128.44 67.94-141.77z" fill="#d7d1b7"/><path d="m46.576 265.38c16-8.8 77.6-44.541 98.955-83.961 4.75-8.78 10.211-19.31 16.652-30.33 0 0-.018 0-.008-.012 10.433-17.854 23.427-37.016 40.11-52.2-38 14.666-58.545 33.713-59.075 34.207l-.01.01c-6.44 11.02-11.91 21.55-16.66 30.33-21.35 39.42-82.96 75.16-98.96 83.96a3.056 3.056 0 0 0 -.54 4.97l17.98 15.861a3.023 3.023 0 0 1 1.556-2.835z" fill="#afaa94"/><path d="m294.57 59.52a312.573 312.573 0 0 1 63.57 29.61c-135.85-29.41-213.89 42.98-214.93 43.95 26.92-46.07 70.91-100.86 151.36-73.56z" fill="#a39d84"/><path d="m486 104.42c-46.23 4.11-86.81 24.2-96.77 29.47a12.353 12.353 0 0 0 -3.94 3.28h-.01l-14.33-15.17a6.127 6.127 0 0 1 -1.2-4.53l4.41-19.39a12.533 12.533 0 0 0 4.6-.22c15.4-3.66 61.9-12.04 107.24 6.56z" fill="#d6a454"/><path d="m210.1 306.35c11.65 29.77-1.45 58.62-27.51 83.22l-123.57-109.01c46.02-9.54 132.9-20.69 151.08 25.79z" fill="#74715d"/><path d="m282.39 108.79a8.8 8.8 0 1 1 -8.81 8.79 8.8 8.8 0 0 1 8.81-8.79z" fill="#706872"/><path d="m315.57 75.515c9.809 3.328 19 6.944 27.6 10.754 4.911.823 9.893 1.763 14.966 2.861a312.573 312.573 0 0 0 -63.57-29.61c-80.45-27.3-124.44 27.49-151.36 73.56.529-.494 21.013-19.482 58.9-34.139 26.594-25.246 62.794-40.621 113.464-23.426z" fill="#7a7769"/><path d="m204.782 296.693c-25.889-35.127-103.254-24.945-145.762-16.133l20.263 17.876c34.869-6.992 92.789-16.1 125.499-1.743z" fill="#565345"/><g fill="#f4f8fc"><path d="m87.3 249.212a6 6 0 0 1 -3.45-10.913c24.429-17.132 42.992-34.436 53.679-50.04a6 6 0 0 1 9.9 6.782c-11.657 17.017-30.73 34.876-56.69 53.083a5.975 5.975 0 0 1 -3.439 1.088z"/><path d="m154.606 176.251a6 6 0 0 1 -5.275-8.852q1.572-2.91 3.236-5.94a6 6 0 0 1 10.512 5.789q-1.642 2.981-3.189 5.853a6 6 0 0 1 -5.284 3.15z"/></g></svg>