<svg id="Layer_1" height="512" viewBox="0 0 512 512" width="512" xmlns="http://www.w3.org/2000/svg" data-name="Layer 1"><path d="m426.76 234.55c-15.75-66.3 7.64-100.92 7.64-100.92l-12.98-42.2s-13.44-12.21-36.61-23.2c0 0-4.79 24.58-42.22 25.84-26.31.89-47.29 25.3-43.25 48.37 5.02 28.62-9.99 51.69-10.87 53.01a.133.133 0 0 1 .03.08l11.57 237.8v.01l40.53 23.54a30.154 30.154 0 0 0 34.84-3.32c45.1-38.91 79.48-100.49 51.32-219.01z" fill="#cc7e66"/><path d="m486 81.31-51.6 52.32-28.7-12.82 15.72-29.38z" fill="#ccc260"/><ellipse cx="338.36" cy="125.59" fill="#706872" rx="11.61" ry="11.56"/><path d="m134.64 151.58v.01l153.83 43.86c.88-1.32 15.89-24.39 10.87-53.01-4.04-23.07 16.94-47.48 43.25-48.37 37.43-1.26 42.22-25.84 42.22-25.84-50.3-23.87-146.42-41.96-250.17 83.35z" fill="#4a5160"/><path d="m349.97 244.81c-17.3-33.19-59.52-48.58-61.47-49.28l-92.81 177.18 104.38 60.63v-.01c74.23-49.93 77.36-135.84 49.9-188.52z" fill="#636875"/><path d="m383.626 71.739c.907-2.121 1.364-3.509 1.364-3.509-50.3-23.87-146.99-41.96-249.99 83.35v.01l24.089 6.92c89.031-104.394 171.851-104.153 224.537-86.771z" fill="#3b4049"/><path d="m295.07 228.85c4.07 62.04-46.74 110.57-99.38 143.86l-154.76-89.88a29.9 29.9 0 0 1 -9.32-43.29c19.94-27.68 46.03-49.47 65.9-66.41a128.685 128.685 0 0 1 37.13-21.54c22.13-8.57 48.04-12.75 74.57-11.17 32.04 1.91 65.22 16.11 79.26 55.03a.457.457 0 0 0 -.04.06.313.313 0 0 0 .07.02 121.035 121.035 0 0 1 6.57 33.32z" fill="#6d7486"/><path d="m51.61 251.54c19.94-27.68 46.03-49.47 65.9-66.41a128.685 128.685 0 0 1 37.13-21.54c22.13-8.57 48.04-12.75 74.57-11.17a106.522 106.522 0 0 1 34.992 7.8c-15.742-12.955-35.572-18.641-54.992-19.8-26.53-1.58-52.44 2.6-74.57 11.17a128.685 128.685 0 0 0 -37.13 21.54c-19.87 16.94-45.96 38.73-65.9 66.41a29.9 29.9 0 0 0 9.32 43.29l16.337 9.488a29.88 29.88 0 0 1 -5.657-40.778z" fill="#585d68"/><g fill="#f4f8fc"><path d="m113.084 197.39a6 6 0 0 1 -3.9-10.565c16.625-14.177 40.655-23.894 67.663-27.362a6 6 0 1 1 1.528 11.9c-24.725 3.175-46.532 11.908-61.4 24.591a5.979 5.979 0 0 1 -3.891 1.436z"/><path d="m207.792 170.381c-.119 0-.24 0-.361-.01-1.844-.11-3.718-.187-5.57-.23a6 6 0 1 1 .279-12c2 .046 4.016.13 6 .248a6 6 0 0 1 -.351 11.989z"/></g></svg>