<svg id="Layer_1" height="512" viewBox="0 0 512 512" width="512" xmlns="http://www.w3.org/2000/svg" data-name="Layer 1"><path d="m432.72 93.79c-12.08-80.24-91.7-66.97-91.7-66.97-112.67 20.98-106.09 161.26-175.59 241.77a580.357 580.357 0 0 1 -59.88 60.44l211.93 136.12 82.07 20.49a12.161 12.161 0 0 0 14.34-7.64c42.34-115.02-25.1-214.38-20.93-282.6 1.42-23.18 9.28-40.1 14.7-48.71l22.17-49.38a3.076 3.076 0 0 0 2.18-1.07 3.02 3.02 0 0 0 .71-2.45z" fill="#415d72"/><path d="m469.74 147.3-68.98-33.47c9.29-6.74 20.05-15.98 29.07-16.52a3.076 3.076 0 0 0 2.18-1.07l.01.01c25.92 19.11 37.72 51.05 37.72 51.05z" fill="#d8b9a9"/><path d="m400.76 113.83 68.98 33.47c-12.18 5.2-62.08-.61-62.08-.61z" fill="#af968b"/><path d="m359.2 74.23a12.96 12.96 0 1 1 -12.95 12.96 12.957 12.957 0 0 1 12.95-12.96z" fill="#bc505f"/><path d="m185.43 288.59c69.5-80.51 62.92-220.79 175.59-241.77 0 0 32.518-5.416 59.144 11.615-26.051-40.454-79.144-31.615-79.144-31.615-112.67 20.98-106.09 161.26-175.59 241.77a580.357 580.357 0 0 1 -59.88 60.44l24.713 15.87a589.407 589.407 0 0 0 55.167-56.31z" fill="#3a6b89"/><path d="m284.68 301.11c64.28 28.87 60.79 124.78 32.8 164.04l-262.58-65.58a16.67 16.67 0 0 1 -12.51-14.13 15.981 15.981 0 0 1 -.13-2.07 16.643 16.643 0 0 1 8.22-14.36c15.13-8.83 33.78-21.61 55.06-39.97l.01-.01c45.15-27.33 116.04-56.25 179.13-27.92z" fill="#abb2bb"/><path d="m70.48 389.01c15.13-8.83 33.78-21.61 55.06-39.97l.01-.01a567.52 567.52 0 0 0 52.706-52.266c-27.366 7.6-52.591 20.09-72.706 32.266l-.01.01c-21.28 18.36-39.93 31.14-55.06 39.97a16.643 16.643 0 0 0 -8.22 14.36 15.981 15.981 0 0 0 .13 2.07 16.67 16.67 0 0 0 12.51 14.13l7.479 1.868a16.63 16.63 0 0 1 8.101-12.428z" fill="#8d9399"/><g fill="#f4f8fc"><path d="m325.343 56.271a6 6 0 0 0 -8.125-2.927c-14.7 7.238-27.247 18.135-38.366 33.315-15.525 21.2-26.679 48.108-38.131 76.784a6 6 0 1 0 11.143 4.455c11.161-27.946 22.011-54.136 36.669-74.149 9.9-13.515 20.957-23.183 33.8-29.546a6.155 6.155 0 0 0 3.01-7.932z"/><path d="m339.579 57.661a6 6 0 0 1 -1.408-11.833c2-.485 4.069-.927 6.141-1.312a6 6 0 1 1 2.2 11.8c-1.863.346-3.717.742-5.512 1.177a6.019 6.019 0 0 1 -1.421.168z"/></g></svg>