<svg id="Layer_1" height="512" viewBox="0 0 512 512" width="512" xmlns="http://www.w3.org/2000/svg" data-name="Layer 1"><path d="m427.54 284.04-.06-.08c-52.26 41.21-116.55 3.37-116.55 3.37l-19.96 176.48 159.78 4.7a12.361 12.361 0 0 0 12.64-10.73 341.919 341.919 0 0 0 3.02-47.25c-.69-87.73-38.87-126.49-38.87-126.49z" fill="#b68470"/><path d="m471.82 277.13c37.51-82.65-11.27-162.84-11.27-162.84 26.58-37.28 12.74-70.81 12.74-70.81-21.44 3.32-43.58 17.8-54.34 22.85a31.022 31.022 0 0 1 -25.4.32c-42.4-18.11-85.85-7.31-128.69 4.72-47.04 13.2-86.73-23.47-86.73-23.47-10.29 49.13 29.4 68.93 29.4 68.93-45.17 39.83-29.78 95.3-21.47 116.56v.01l124.87 53.93s64.29 37.84 116.55-3.37l.06.08s38.18 38.76 38.87 126.49h.01c13.53-63.22 8.37-98.43 3.9-113.63a28.469 28.469 0 0 1 1.5-19.77z" fill="#986c53"/><path d="m310.42 115.87a61.315 61.315 0 1 0 51.98 94.03l7.22-16.21v-.01a61.316 61.316 0 0 0 -59.2-77.81z" fill="#f7c965"/><path d="m449.25 135.05c-15.85-15.08-44.13-10-56.9 11.75-10.12 17.22-.34 35.48-.34 35.48l.01.09 31.4 36.98c34.39 4.77 58.61-53.1 25.83-84.3z" fill="#f7c965"/><path d="m430.68 154.663a14.238 14.238 0 1 1 -16 14.137 14.241 14.241 0 0 1 16-14.137z" fill="#706872"/><path d="m321.65 160.4a17.725 17.725 0 1 1 -17.76 17.73 17.754 17.754 0 0 1 17.76-17.73z" fill="#706872"/><path d="m423.42 219.35a92.4 92.4 0 0 1 -2.2 24.9 47.589 47.589 0 0 0 -7.85-14.2c-18.3-22.79-52.91-22.79-52.91-22.79a50.56 50.56 0 0 1 9.16-13.57v-.01c5.15-5.43 12.54-10.58 22.4-11.31a34.6 34.6 0 0 1 7.06.23s22.39 5.5 24.34 36.75z" fill="#da7a3a"/><path d="m413.37 230.05c-26.82 6.75-45.19-12.84-50.97-20.15-1.28-1.62-1.94-2.64-1.94-2.64s34.61 0 52.91 22.79z" fill="#c16b30"/><path d="m237.5 118.83s-31.024-15.493-31.082-53.06a113.7 113.7 0 0 1 -28.3-17.87c-10.29 49.13 29.375 68.93 29.375 68.93-45.171 39.83-29.5 95.3-21.5 116.56v-.39l29.851 1.99c-8.035-21.544-23.238-76.574 21.656-116.16z" fill="#775442"/><path d="m366.91 309.188c-3.456 0-6.789-.164-9.975-.446a138.543 138.543 0 0 1 -53.047-16.242 6 6 0 0 1 6.081-10.345 128.556 128.556 0 0 0 48.422 14.664c35.415 3.008 64-11.8 84.931-44.012a6 6 0 1 1 10.063 6.538c-26.043 40.093-59.81 49.843-86.475 49.843z" fill="#5e423a"/><path d="m351.44 181.12a6 6 0 0 1 -5.958-5.354 13.262 13.262 0 0 0 -5.011-8.144c-3.781-2.7-9.431-3.331-16.793-1.862-27.895 5.566-45.925.077-46.679-.158a6 6 0 0 1 3.57-11.457c.19.058 16.126 4.764 40.761-.152 10.878-2.172 19.744-.813 26.353 4.035a24.911 24.911 0 0 1 9.729 16.445 6.009 6.009 0 0 1 -5.972 6.647z" fill="#b59255"/><path d="m450.464 129.178a6 6 0 0 0 -7.092 4.66c-.024.121-3.087 12.18-23.925 14.769-10.5 1.306-16.625 5.476-19.909 8.745q-.417.415-.793.828a5.987 5.987 0 0 0 3.237 9.852 6.022 6.022 0 0 0 5.67-1.817c1.937-2.08 5.815-4.772 13.276-5.7 29.61-3.681 34.022-23.41 34.2-24.247a6 6 0 0 0 -4.664-7.09z" fill="#b59255"/><path d="m310.93 287.33c35.96 69.81-19.31 175.24-19.96 176.48l-252.94-7.43a12.379 12.379 0 0 1 -11.36-16.37c16.09-47.15 70.05-184.37 159.39-206.61 25.23-6.29 53.27-3.4 84.09 13.27 19.54 10.57 32.55 24.68 40.78 40.66z" fill="#765042"/><path d="m56.67 442.01c16.09-47.15 70.05-184.37 159.39-206.61a102.829 102.829 0 0 1 16.843-2.751 103.775 103.775 0 0 0 -46.843.751c-89.34 22.24-143.3 159.46-159.39 206.61a12.379 12.379 0 0 0 11.36 16.37l24.92.732a12.367 12.367 0 0 1 -6.28-15.102z" fill="#5e423a"/><g fill="#f4f8fc"><path d="m142.628 297.592a6 6 0 0 1 -4.073-10.406c1.687-1.559 3.405-3.094 5.1-4.56a6 6 0 1 1 7.838 9.087c-1.6 1.377-3.211 2.819-4.8 4.285a5.974 5.974 0 0 1 -4.065 1.594z"/><path d="m68.339 414.485a6 6 0 0 1 -5.476-8.449c18.231-40.8 38.619-74.684 60.6-100.71a6 6 0 1 1 9.168 7.742c-21.253 25.165-41.039 58.091-58.81 97.864a6 6 0 0 1 -5.482 3.553z"/></g></svg>