<svg id="Layer_1" height="512" viewBox="0 0 512 512" width="512" xmlns="http://www.w3.org/2000/svg" data-name="Layer 1"><path d="m257.61 31.185c-22.48-5.91-46.44-4.06-67.32 6.13-55.86 27.27-47.39 90.75-34.8 128.93 15.49 47.01 108.11 157.56 19.13 119.37-71.84-30.84-125.53-14.191-143.55-6.63a5.845 5.845 0 0 0 -2.47 8.8l139.02 193.93a5.892 5.892 0 0 0 7.58 1.74c130.24-70.62 115.74-209.69 60.21-298.59-31.61-50.62-24.51-73.55-24.51-73.55 11.06 7.62 33.95 20.17 57.77 13.85 18.96-5.04 24.52-1.62 24.52-1.62l21.92-42.34s-6.36-36.55-57.5-50.02z" fill="#ef9595"/><path d="m130.27 304.005c46.51 0 69.28 73.9 12.62 143.2h-.01l-82.38-114.92 29.65-17.63a78.194 78.194 0 0 1 40.12-10.65z" fill="#d88d8d"/><path d="m272.38 59.545a7.76 7.76 0 1 1 -7.77 7.76 7.772 7.772 0 0 1 7.77-7.76z" fill="#6f6970"/><path d="m315.11 81.205s177.44 101.44 172.28 222.4a1.464 1.464 0 0 1 -2.83.46c-39.36-105.365-191.37-180.52-191.37-180.52l1-24.78z" fill="#6d7486"/><path d="m46.07 303.985c18.02-7.561 71.71-24.21 143.55 6.63 88.98 38.19-3.64-72.36-19.13-119.37-12.59-38.18-21.06-101.66 34.8-128.93 20.88-10.19 44.84-12.04 67.32-6.13 20.235 5.33 33.455 14.273 42.048 23.136-2.109-7.639-12.866-36.5-57.048-48.136-22.48-5.91-46.44-4.06-67.32 6.13-55.86 27.27-47.39 90.75-34.8 128.93 15.49 47.01 108.11 157.56 19.13 119.37-71.84-30.84-125.53-14.191-143.55-6.63a5.845 5.845 0 0 0 -2.47 8.8l14.188 19.792a5.8 5.8 0 0 1 3.282-3.592z" fill="#c17878"/><path d="m105.15 339.655a78.194 78.194 0 0 1 40.12-10.65 40.268 40.268 0 0 1 27.755 10.883c-6.593-21.729-22.4-35.883-42.755-35.883a78.194 78.194 0 0 0 -40.12 10.65l-29.65 17.63 17.048 23.782z" fill="#ad7777"/><g fill="#f4f8fc"><path d="m213.551 428.647a6 6 0 0 1 -4.695-9.731 163.458 163.458 0 0 0 28.7-55.027 6 6 0 0 1 11.5 3.442 175.426 175.426 0 0 1 -30.8 59.048 5.989 5.989 0 0 1 -4.705 2.268z"/><path d="m248.455 349.317a6 6 0 0 1 -5.927-6.98c.3-1.837.583-3.707.831-5.558a6 6 0 1 1 11.894 1.594c-.264 1.971-.563 3.965-.886 5.923a6 6 0 0 1 -5.912 5.021z"/></g></svg>