<svg id="Layer_1" height="512" viewBox="0 0 512 512" width="512" xmlns="http://www.w3.org/2000/svg" data-name="Layer 1"><path d="m325.49 77.07a10.666 10.666 0 0 1 .08-5.92l-29.79-9.82-14.09-2.5c-22.75-.66-28.07-31.46-28.07-31.46a98.532 98.532 0 0 0 -14.26 3.77c-82.61 28.41-25.51 148.48-16.5 221.92 6.94 56.55-44.97 97.82-88.19 52.58-42.6-44.59-98.09-57.34-98.09-57.34l5.65 237.7s234.06-44.03 237.94-177.38c2.66-91.21-69.91-207.3-12.78-200.18 26.14 3.26 45.13.31 55.4-2.24a21.446 21.446 0 0 0 8.51-4.27 20 20 0 0 0 5.85-8.03c3.71-9.43-9.02-7.07-11.66-16.83z" fill="#c3e1e5"/><path d="m37.45 284.88s92.26 27.99 65.07 63.02c-14.86 19.15-62.76 34.33-62.76 34.33z" fill="#97c2c9"/><path d="m104.682 344.706c19.467-33.522-67.232-59.826-67.232-59.826l.478 20.148c5.296 1.662 54.328 17.536 66.754 39.678z" fill="#76a8ad"/><path d="m183.765 323.7c34.133 8.261 64.507-26.541 59.1-70.638-8.845-72.1-64.029-189.135 12.131-220.265a50.174 50.174 0 0 1 -1.371-5.425 98.532 98.532 0 0 0 -14.26 3.77c-82.61 28.41-25.51 148.48-16.5 221.92 4.311 35.168-14.138 64.422-39.1 70.638z" fill="#97c2c9"/><path d="m253.62 27.37s5.32 30.8 28.07 31.46l14.09 2.5 29.79 9.82c1.46-5.02 5.99-8.29 5.99-8.29s-24.96-45.21-77.94-35.49z" fill="#ff9292"/><path d="m474.41 107.08c-37.12-.65-143.11-5.15-143.11-5.15a20 20 0 0 0 5.85-8.03c3.71-9.43-9.02-7.07-11.66-16.83a10.666 10.666 0 0 1 .08-5.92c1.46-5.02 5.99-8.29 5.99-8.29s87.86 12.21 143.33 42.34a1 1 0 0 1 -.48 1.88z" fill="#e8bd71"/><circle cx="288.959" cy="58.834" fill="#a5374a" r="7.268"/><circle cx="288.959" cy="58.834" fill="#5d585e" r="7.268"/><g fill="#f4f8fc"><path d="m192.486 405.728a6 6 0 0 1 -3.454-10.911c33.973-23.87 55.23-50.938 63.182-80.453a6 6 0 0 1 11.587 3.121c-8.7 32.3-31.537 61.622-67.87 87.151a5.976 5.976 0 0 1 -3.445 1.092z"/><path d="m261.5 301.606c-.154 0-.309 0-.466-.017a6 6 0 0 1 -5.522-6.442c.129-1.681.22-3.4.27-5.106a6 6 0 0 1 12 .352c-.056 1.9-.157 3.8-.3 5.673a6 6 0 0 1 -5.982 5.54z"/></g></svg>