<svg id="Layer_1" height="512" viewBox="0 0 512 512" width="512" xmlns="http://www.w3.org/2000/svg" data-name="Layer 1"><path d="m305.37 373.45-61.96-32.69c-28.27 17.08-61.21 19.16-85.54 1.02-54.94-40.97-101.5-49.55-123.53-51.12a5 5 0 0 0 -3.69 8.72l209.5 187.13a8 8 0 0 0 10.48.16c21.42-18.04 40.81-44.04 56.3-73.85l-.25-.13c3.58-18.3-1.31-39.24-1.31-39.24z" fill="#9095a3"/><path d="m54.34 310.66c22.03 1.57 68.59 10.15 123.53 51.12 24.33 18.14 57.27 16.06 85.54-1.02q4.026-2.433 7.912-5.274l-27.912-14.726c-28.27 17.08-61.21 19.16-85.54 1.02-54.94-40.97-101.5-49.55-123.53-51.12a5 5 0 0 0 -3.69 8.72l18.32 16.364a5 5 0 0 1 5.37-5.084z" fill="#737782"/><path d="m426.88 78.44-13.63 29.94s41.02 19.45 69.79.83c-19.17-1.52-56.16-30.77-56.16-30.77z" fill="#d6a454"/><path d="m426.88 78.44 2 19.2-15.63 10.74s-61.61-14.97-74.07 45.55c-13.48 65.42 18.75 88.9-3.41 181.5a343 343 0 0 1 -28.84 77.39l-.25-.13c3.58-18.3-1.31-39.24-1.31-39.24l-34.87 30.52 3.32-44.56-40.8 13.02c12.84-12.83 10.46-31.14 10.39-31.67 38.64-23.36 68.54-74.75 55.75-140.86-44.41-197.82 77.92-175.71 77.92-175.71s42.19 2.19 49.8 54.25z" fill="#ffd8b7"/><ellipse cx="370.71" cy="64.9" fill="#706872" rx="7.99" ry="7.98"/><path d="m254.42 365.6q4.556-2.175 8.99-4.841c38.64-23.36 68.54-74.75 55.75-140.86-44.41-197.819 77.92-175.709 77.92-175.709a51.315 51.315 0 0 1 20.67 6.789 53.861 53.861 0 0 0 -40.67-26.789s-122.33-22.11-77.92 175.71c12.79 66.11-17.11 117.5-55.75 140.86.07.53 2.45 18.84-10.39 31.67z" fill="#d1af95"/><g fill="#d4e1f4"><path d="m275.529 181.321a6 6 0 0 1 -5.891-4.9c-6.349-34-7.814-63.391-4.353-87.347a6 6 0 0 1 11.877 1.716c-3.272 22.651-1.835 50.721 4.273 83.429a6.005 6.005 0 0 1 -5.906 7.1z"/><path d="m276.347 73.879a6 6 0 0 1 -5.688-7.914c.594-1.766 1.233-3.518 1.9-5.207a6 6 0 1 1 11.16 4.408c-.591 1.5-1.16 3.053-1.688 4.624a6 6 0 0 1 -5.684 4.089z"/></g></svg>