<svg id="Layer_1" height="512" viewBox="0 0 512 512" width="512" xmlns="http://www.w3.org/2000/svg" data-name="Layer 1"><path d="m358.06 113.305 9.41 43.44-10.62 29.06s-22.53 30.52-67.84 23.51c0 0 106.24 58.36 50.67 123.14-54.77 63.85-86.13-2.05-117.15 88.11a2.887 2.887 0 0 1 -4.61 1.26l-193.92-167.31a2.876 2.876 0 0 1 -.62-3.61c5.21-9.14 30.52-44.58 109.61-44.26 76.06.31 65.69 53.75 94.85 62.21 12.75 3.71 18.3-2.66 20.5-10.99a29.772 29.772 0 0 0 -12.78-32.33c-27.21-17.77-54.21-47.08-33.59-83.18 56.33-98.62 156.09-29.05 156.09-29.05z" fill="#8c6862"/><path d="m463.33 178.765s-17.93 21.29-40.92 8.91c-25.71-13.83-33.52-13.73-65.56-1.87l10.62-29.06c42.95-12.48 76.27 5.73 95.86 22.02z" fill="#b5854b"/><path d="m305.1 129.175a17.33 17.33 0 1 1 -17.38 17.33 17.353 17.353 0 0 1 17.38-17.33z" fill="#af3a41"/><path d="m142.99 226.645c76.06.31 65.69 53.75 94.85 62.21 12.75 3.71 18.3-2.66 20.5-10.99a29.6 29.6 0 0 0 -9.147-29.54 28.578 28.578 0 0 1 -.853 9.54c-2.2 8.33-7.75 14.7-20.5 10.99-29.16-8.46-18.79-61.9-94.85-62.21-79.09-.32-104.4 35.12-109.61 44.26a2.876 2.876 0 0 0 .62 3.61l12.886 11.117c9.927-13.165 38.184-39.262 106.104-38.987z" fill="#70534f"/><path d="m211.97 162.355c47.676-83.468 126.458-46.459 149.542-33.116l-3.452-15.934s-99.76-69.57-156.09 29.05c-12.419 21.742-7.561 41.019 4.209 56.8-2.927-11.196-1.779-23.539 5.791-36.8z" fill="#70534f"/><path d="m483 199.125a120.37 120.37 0 0 0 -19.67-20.36c-19.59-16.29-52.91-34.5-95.86-22.02l-9.41-43.44s109.82-23.05 124.94 85.82z" fill="#dda559"/><g fill="#f4f8fc"><path d="m65.877 262a6 6 0 0 1 -3.034-11.181c15.458-9.038 34.417-14.956 56.348-17.591a6 6 0 1 1 1.432 11.914c-20.291 2.438-37.692 7.833-51.723 16.036a5.969 5.969 0 0 1 -3.023.822z"/><path d="m141.668 243.7a6 6 0 0 1 -.122-12c2.121-.043 4.3-.057 6.47-.053a6 6 0 0 1 -.024 12h-.025c-2.073-.012-4.15.008-6.172.051z"/></g></svg>