<svg id="Layer_1" height="512" viewBox="0 0 512 512" width="512" xmlns="http://www.w3.org/2000/svg" data-name="Layer 1"><path d="m390.91 97.21s-19.74-30.34-52.37-33.84c-122.32-13.12-104.74 102.74-189.14 143.96q-3.675 1.8-7.24 3.64l4.37 164.2 138 73.62a7.394 7.394 0 0 0 9.13-1.74c49.58-58.84 52.16-114.77 59.66-183.12 9.86-89.82 59.15-110.74 59.15-110.74z" fill="#3c3751"/><path d="m485.38 142.4c-11.48 4.16-72.91 10.79-72.91 10.79s-43.41-12.61-50.54-16.73a1.842 1.842 0 0 1 -.92-1.57s71.49-10.64 124.96 6.37a.954.954 0 0 1 -.59 1.14z" fill="#4a5160"/><path d="m485.97 141.26c-53.47-17.01-124.96-6.37-124.96-6.37-.63-7.98 29.9-37.68 29.9-37.68s84.36 3.96 95.06 44.05z" fill="#6d7486"/><path d="m339.99 100.59a7.51 7.51 0 1 1 -7.52 7.51 7.518 7.518 0 0 1 7.52-7.51z" fill="#a84c55"/><path d="m338.54 63.37c-122.32-13.12-104.74 102.74-189.14 143.96q-3.675 1.8-7.24 3.64l20 20q3.57-1.845 7.24-3.64c84.4-41.22 66.82-157.08 189.14-143.96 12.6 1.352 23.27 6.71 31.632 12.774-3.83-5.373-22.634-29.664-51.632-32.774z" fill="#464260"/><path d="m142.16 210.97c75.16-16.15 100.5 35.29 87.16 80-5.9 19.73-29.15 54.99-82.79 84.2l-116.61-62.2a7.382 7.382 0 0 1 -2.25-11.19c13.52-16.48 51.86-58.54 114.48-90.81z" fill="#464260"/><path d="m47.67 321.8c13.52-16.485 51.86-58.8 114.48-90.8h.01c27.257-6 47.956-2.819 62.64 5.557-12.261-21.575-39.084-34.557-82.64-25.557h-.01c-62.62 32-100.96 74.315-114.48 90.8a7.375 7.375 0 0 0 2.25 11.183l17.405 9.287c.111-.165.219-.322.345-.47z" fill="#2e2a42"/><g fill="#f4f8fc"><path d="m303.762 381.176a6 6 0 0 1 -5.441-8.521c15.464-33.418 20.108-67.263 24.2-104.866a6 6 0 0 1 11.93 1.3c-4.208 38.674-9.01 73.539-25.239 108.608a6 6 0 0 1 -5.45 3.479z"/><path d="m330.7 253.718a6.005 6.005 0 0 1 -5.973-6.642q.31-2.887.63-5.805a6 6 0 0 1 11.929 1.309q-.319 2.9-.627 5.779a6 6 0 0 1 -5.959 5.359z"/></g></svg>