<svg id="Layer_1" height="512" viewBox="0 0 512 512" width="512" xmlns="http://www.w3.org/2000/svg" data-name="Layer 1"><path d="m418.09 377.44h-.01l-209.26-150.78c-47.03 53.49-32.67 73.35-54.57 87.56-63.87 41.44-96.01 102.3-104.81 121.08a4.606 4.606 0 0 0 3.59 6.53l341.19 44.13a4.616 4.616 0 0 0 4.6-2.27c5.98-10.46 26.36-50.91 19.27-106.25z" fill="#aee1f5"/><path d="m174.25 325.22c21.611-14.022 7.918-33.55 52.746-85.464l-18.176-13.1c-47.03 53.49-32.67 73.35-54.57 87.56-63.87 41.444-96.01 102.304-104.81 121.084a4.606 4.606 0 0 0 3.59 6.53l17.463 2.259c10.122-20.962 42.207-78.931 103.757-118.869z" fill="#91bac6"/><path d="m411.44 346.53q-.99-3.27-1.8-6.43l-106.59-132.2 1.3-11.46c-28.49-11.9-64.85-5.74-64.85-5.74-1.42 5.87-4.06 8.59-4.06 8.59-10.59 10-19.34 19.09-26.62 27.37 0 0-22.81 181.02 209.26 150.78h.01a190.047 190.047 0 0 0 -6.65-30.91z" fill="#53a4c4"/><path d="m334.87 159.36c-57.21-25.86-94.47 23.57-94.47 23.57a32.993 32.993 0 0 1 -.9 7.77s36.36-6.16 64.85 5.74l26.21 7.18 14.5 5.68a14.842 14.842 0 0 0 18.24-6.22c6.07-10.4 7.57-27.44-28.43-43.72z" fill="#a9efff"/><path d="m303.22 92.99c-56.39-5.64-105.8-66.99-105.8-66.99-2.13 20.15 7.06 42.1 7.31 42.71l-14.63-5.48c-1.37 16.29 4.56 41.58 19.02 58.17 25.32 29.04 31.3 49.06 31.28 61.53 0 0 37.26-49.43 94.47-23.57 36 16.28 34.5 33.32 28.43 43.72a14.842 14.842 0 0 1 -18.24 6.22l-14.5-5.68-4.57 10.38 26.08 32.28c2.19 18.77 49.44 5.32 50.26 5.08l17.27-46.99c13.47-50.03-38.3-103.58-116.38-111.38z" fill="#aee1f5"/><path d="m415.28 255.67a92.112 92.112 0 0 1 -12.94-4.31h-.01c-.82.24-48.07 13.69-50.26-5.08-3.21-27.6-26.08-32.28-26.08-32.28l-22.94-6.1-37.24.62a22.619 22.619 0 0 0 -21.91 18.72c-4.38 25.16-1.96 69.05 38.86 93.75 64.11 38.8 126.88 19.11 126.88 19.11-13.49-52.01 5.64-84.43 5.64-84.43z" fill="#64bdea"/><path d="m330.56 203.62a14.092 14.092 0 1 1 -14.09-14.08 14.059 14.059 0 0 1 14.09 14.08z" fill="#706872"/><path d="m453.65 258.22a112.434 112.434 0 0 1 -38.37-2.55 92.112 92.112 0 0 1 -12.94-4.31h-.01c-23.84-9.99-34.18-26.58-34.74-27.5.69.88 13.02 16.01 45.71 13.56 16.54-1.24 31.34 11.05 40.35 20.8z" fill="#c99e5b"/><path d="m423.75 207.07c11.4 9.75 41.96 38.37 39.06 62.55a97.581 97.581 0 0 0 -9.16-11.4c-9.01-9.75-23.81-22.04-40.35-20.8-32.69 2.45-45.02-12.68-45.71-13.56a.3.3 0 0 0 -.03-.04s21.96-21.68 44.46-21.24a18.494 18.494 0 0 1 7.58 1.79 18.841 18.841 0 0 1 4.15 2.7z" fill="#efbf66"/><path d="m255.44 210.29s2.64-2.72 4.06-8.59a32.993 32.993 0 0 0 .9-7.77 42.474 42.474 0 0 0 -.277-4.81 146.989 146.989 0 0 0 -20.623 1.58c-1.42 5.87-4.06 8.59-4.06 8.59-10.59 10-19.34 19.09-26.62 27.37 0 0-1.874 14.888.923 35.408a245.7 245.7 0 0 1 19.077-24.408c7.28-8.28 16.03-17.37 26.62-27.37z" fill="#42869b"/><path d="m210.1 74.23 14.63 5.48c-.21-.511-6.7-16.026-7.538-32.9a229.211 229.211 0 0 1 -19.772-20.81c-2.13 20.15 7.06 42.1 7.31 42.71l-14.63-5.48c-1.37 16.29 4.56 41.58 19.02 58.17 25.32 29.04 31.3 49.06 31.28 61.53a83.016 83.016 0 0 1 13.866-13.544c-4.657-10.195-12.483-22.463-25.146-36.986-14.46-16.59-20.39-41.88-19.02-58.17z" fill="#91bac6"/><path d="m240.4 182.93a32.993 32.993 0 0 1 -.9 7.77 146.989 146.989 0 0 1 20.623-1.58 65.31 65.31 0 0 0 -5.857-19.734 83.016 83.016 0 0 0 -13.866 13.544z" fill="#90ccd6"/><g fill="#f4f8fc"><path d="m183.726 337.6a6 6 0 0 1 -3.422-10.933c2.186-1.515 4.434-3.023 6.683-4.482a6 6 0 0 1 6.534 10.064c-2.148 1.395-4.295 2.835-6.383 4.281a5.969 5.969 0 0 1 -3.412 1.07z"/><path d="m99.642 428.091a6 6 0 0 1 -5.117-9.125c12.8-20.984 34.9-51.636 67.536-78.5a6 6 0 1 1 7.628 9.264c-31.34 25.8-52.6 55.293-64.919 75.487a6 6 0 0 1 -5.128 2.874z"/></g></svg>