<svg id="Layer_1" height="512" viewBox="0 0 512 512" width="512" xmlns="http://www.w3.org/2000/svg" data-name="Layer 1"><g fill="#363c47"><path d="m169.314 97.227c-21.439 4.156-57-.258-80.528-3.178-7.5-.93-13.969-1.733-18.915-2.149a6 6 0 0 0 -1.006 11.958c4.71.4 11.074 1.185 18.443 2.1 17.82 2.211 40.195 4.987 60.014 4.987a130.5 130.5 0 0 0 24.274-1.937 6 6 0 1 0 -2.282-11.781z"/><path d="m192.716 82.274c-.521 0-53.067-.183-130.344-14.358a6 6 0 0 0 -2.166 11.8c78.441 14.388 131.978 14.555 132.509 14.555a6 6 0 0 0 0-12z"/><path d="m238.9 72.963c-1.206-.1-121.208-9.913-172.383-29.1a6 6 0 1 0 -4.217 11.237c52.75 19.779 170.643 29.425 175.635 29.827.164.013.326.019.487.019a6 6 0 0 0 .474-11.981z"/></g><path d="m312.14 280.44c-33.14-93.68-99.42-66.7-118.79-80.55-14.02-10.02-12.62-35.14 20.9-46.73 27.11-9.39 68.05-6.92 80.14-5.92 1.66.39 3.35.78 5.06 1.15 2.8-7.55-3.25-22.5-3.25-22.5l-63.78-23.59s-32.06 8.8-61.83-6.95l-.01-.01q-2.115 1.815-4.13 3.78a92.469 92.469 0 0 0 -22.91 36.52c-.27.79-.53 1.59-.79 2.4-14.54 46.13-4.79 106.07 67.77 119.2a63.107 63.107 0 0 1 50.01 47.34c5.24 21.84 5.03 47.11-14.45 64.62-14.32 12.88-37.9 12.71-52.18-.21-87.01-78.66-148.48-19.24-166.43 2.55a6.39 6.39 0 0 0 2.76 10.09l240.86 86.51a6.411 6.411 0 0 0 6.18-1.03c44.96-36 66.19-98.13 34.87-186.67z" fill="#6b94bf"/><path d="m188.72 83.27h-.01a90.539 90.539 0 0 0 -18.13 12.07l.01.01c29.77 15.75 61.83 6.95 61.83 6.95l69.66-5.71a.459.459 0 0 1 .37.05c-36.91-27.1-80.6-30.1-113.73-13.37z" fill="#a84e4e"/><path d="m305.97 112.87c4.05 8.66-9.77 13.02-9.77 13.02l-50.54 2a19.507 19.507 0 0 1 -10.3-2.34c-6.47-3.6-7.54-9.24-6.19-15.34a24.822 24.822 0 0 1 3.25-7.91 26.522 26.522 0 0 1 26.12-11.88c16.55 2.37 38.85 5.55 43.54 6.17-1.15.37-.78 6.3 3.89 16.28z" fill="#9197a6"/><path d="m296.2 125.89 189.8 37.99s-115.63 0-186.55-15.49c2.8-7.55-3.25-22.5-3.25-22.5z" fill="#bf9c4c"/><path d="m302.45 96.64 183.55 67.24-189.8-37.99s13.82-4.36 9.77-13.02c-4.67-9.98-5.04-15.91-3.89-16.28.14.02.26.04.37.05z" fill="#e6be59"/><path d="m254.15 115.08a7.91 7.91 0 1 1 7.91-7.91 7.924 7.924 0 0 1 -7.91 7.91z" fill="#6f6970"/><path d="m213.9 388.989c14.28 12.92 37.86 13.089 52.18.209 19.48-17.51 19.69-42.782 14.45-64.622a63.157 63.157 0 0 0 -27.882-38.757 62.817 62.817 0 0 1 7.882 18.761c5.24 21.84 5.03 47.11-14.45 64.62-14.32 12.88-37.9 12.71-52.18-.21-87.01-78.66-148.48-19.24-166.43 2.55a6.39 6.39 0 0 0 2.76 10.09l19.66 7.061c20.595-23.565 80.55-75.153 164.01.298z" fill="#53799b"/><path d="m170.374 241.764c-16.321-24.4-16.216-56.481-7.624-83.741.26-.81.52-1.627.79-2.417a92.607 92.607 0 0 1 22.91-36.554c1.34-1.309 2.72-2.637 4.13-3.847 4.779-4.1 9.96-7.224 15.451-10.566a84.082 84.082 0 0 1 -35.441-9.289l-.01-.01q-2.115 1.815-4.13 3.78a92.469 92.469 0 0 0 -22.91 36.52c-.27.79-.53 1.59-.79 2.4-11.239 35.66-7.955 79.56 27.624 103.724z" fill="#53799b"/><path d="m206.031 104.639q1.329-.808 2.679-1.639h.01c22.579-10.9 50.062-13.25 76.961-5.066l16.4-1.344c.11-.04.23-.155.37-.085-36.911-27.1-80.601-29.505-113.731-13.505h-.01c-6.49 4-12.58 7.445-18.13 12.2l.01.078a84.255 84.255 0 0 0 35.441 9.361z" fill="#d67f7b"/><g fill="#f4f8fc"><path d="m292.661 396.054a6.007 6.007 0 0 1 -5.786-7.6c7.387-26.651 6.808-57.213-1.724-90.837a6 6 0 0 1 11.632-2.951c9.05 35.672 9.608 68.306 1.656 96.993a6 6 0 0 1 -5.778 4.395z"/><path d="m285.221 282.53a6 6 0 0 1 -5.695-4.116q-.981-2.964-2.045-5.971a6 6 0 0 1 11.313-4q1.106 3.123 2.124 6.2a6 6 0 0 1 -5.7 7.887z"/></g></svg>