<svg id="Layer_1" height="512" viewBox="0 0 512 512" width="512" xmlns="http://www.w3.org/2000/svg" data-name="Layer 1"><g fill="#4a4a77"><path d="m297.354 32.408a6.02 6.02 0 0 0 -6.75-5.6c-27.326 3.32-50.776 17.157-69.78 41.2-31.4 39.715-42.3 98.843-37.834 124.532a6 6 0 0 0 5.9 4.974 6.288 6.288 0 0 0 3.017-.789 5.924 5.924 0 0 0 2.9-6.252c-3.585-20.671 5.184-76.766 35.428-115.023 16.965-21.457 37.765-33.794 61.889-36.731a5.983 5.983 0 0 0 5.23-6.311z"/><path d="m238.48 92.491a6 6 0 1 0 -10.986-4.828c-1.154 2.627-28.184 65.086-20.709 130.991a6 6 0 1 0 11.923-1.352c-7.092-62.538 19.442-124.056 19.772-124.811z"/><path d="m240.353 155.154a6 6 0 1 0 -11.786-2.254c-.323 1.687-7.752 41.772 5.063 82.563a6 6 0 1 0 11.448-3.6c-11.85-37.715-4.836-76.117-4.725-76.709z"/></g><path d="m371.02 103.17s4.82-81.97-77.68-76.95a91.989 91.989 0 0 0 -41.43 12.5 42.328 42.328 0 0 0 -16.187 17.352 42.829 42.829 0 0 0 -2.5 5.949 193.172 193.172 0 0 0 -6.243 24.079c0 .01 0 .01-.01.02-4.88 25.08-5.21 59.53 13.7 95.83 26.03 49.99 77.61 118.49 16.28 136.66-59.47 17.63-106.69-32.19-216.61 6.42a6.308 6.308 0 0 0 -1.85 10.88l186.84 148.72a6.289 6.289 0 0 0 10.02-3.43c8.53-34.43 28.74-45.17 50.45-55.35 77.21-36.24 80.11-147.22 43.69-186.47-39.99-43.09-47.68-93.17-47.68-93.17 15.71 8.12 33.07 8.52 33.07 8.52z" fill="#eab0b0"/><path d="m471.54 296.82c9.95 28.56 1.77 41.24-14.13 48.89-4.79 2.31-9.78 1.95-15.05.29-12.77-4.02-17.21-18.17-18.75-28.03a63.6 63.6 0 0 1 -.82-9.99 79.468 79.468 0 0 0 -9.88-38.22 1.983 1.983 0 0 1 -.11-.2c-35.87-65.5-93.47-137.47-93.47-137.47 13.27-31.26 51.69-28.92 51.69-28.92s16.68 67.68 30.22 92.42c15.83 28.92 60.91 74.25 70.3 101.23z" fill="#b76c6c"/><path d="m423.61 317.97-.12.02c-31.38-63.9-108.61-163.26-108.61-163.26a60.173 60.173 0 0 1 4.45-22.64s57.6 71.97 93.47 137.47a1.983 1.983 0 0 0 .11.2 79.468 79.468 0 0 1 9.88 38.22 63.6 63.6 0 0 0 .82 9.99z" fill="#965a5a"/><path d="m303.16 89.19a8.83 8.83 0 1 1 -8.83 8.83 8.824 8.824 0 0 1 8.83-8.83z" fill="#a53d3d"/><path d="m60.34 345.03c109.92-38.61 157.14 11.21 216.61-6.42 61.33-18.17 9.75-86.67-16.28-136.66-18.91-36.3-18.58-70.75-13.7-95.83.01-.01.01-.01.01-.02a193.172 193.172 0 0 1 6.245-24.08 42.935 42.935 0 0 1 2.58-6.109c3.513-6.812 12.19-15.14 18.932-18.784a92.1 92.1 0 0 1 38.6-10.907c20-1.217 34.848 2.685 45.9 9.282-10.373-16.985-29.755-31.481-65.9-29.282a92.1 92.1 0 0 0 -38.6 10.907c-6.737 3.644-15.419 11.973-18.932 18.784a42.935 42.935 0 0 0 -2.58 6.109 193.172 193.172 0 0 0 -6.245 24.08c0 .01 0 .01-.01.02-4.88 25.08-5.21 59.53 13.7 95.83 26.03 49.99 77.61 118.49 16.28 136.66-59.47 17.63-106.69-32.19-216.61 6.42a6.308 6.308 0 0 0 -1.85 10.88l17.711 14.1a6.253 6.253 0 0 1 4.139-4.98z" fill="#ea8c8c"/><g fill="#f4f8fc"><path d="m248.973 360.532c-14.937 0-29.731-2.737-45.375-5.631-12.688-2.347-25.808-4.774-40.361-6.053a6 6 0 1 1 1.05-11.953c15.123 1.328 28.529 3.808 41.494 6.207 15.436 2.855 30.019 5.566 44.165 5.425h.054a6 6 0 0 1 .053 12c-.359.003-.721.005-1.08.005z"/><path d="m269.782 358.433a6 6 0 0 1 -1.24-11.871c2.249-.477 4.5-1.049 6.7-1.7a6 6 0 0 1 3.412 11.506c-2.5.74-5.062 1.391-7.618 1.934a6.035 6.035 0 0 1 -1.254.131z"/></g></svg>