<svg id="Layer_1" height="512" viewBox="0 0 512 512" width="512" xmlns="http://www.w3.org/2000/svg" data-name="Layer 1"><path d="m366.09 274.39c-106.13-44.87-65.94-142.57-65.94-142.57l84.43-14.87a78.93 78.93 0 0 0 -18.49-38.62 73.413 73.413 0 0 0 -9.62-9.05c-14.78-11.54-37.17-19.77-70.98-16.53-96.37 9.23-131.32 186.62-140.62 217.62a339.562 339.562 0 0 1 -14.73 40.48l95.21 147.35 182.04 27.67a11.084 11.084 0 0 0 12.59-9.27c11.38-71.53-12.69-124.29-53.89-202.21z" fill="#d69f72"/><path d="m441.48 28.78c50.17 15.74 50.57 64.6 31.48 80.65-15.25 12.82-31.97 2.48-35.9-18.67s-10.97.98-29.69-5.9c-16.05-5.9-16.83-29.78-41.28-6.53a73.413 73.413 0 0 0 -9.62-9.05s34.85-56.24 85.01-40.5z" fill="#936241"/><path d="m366.09 165.83 18.49-48.88s-17.171-20.224-41.672-19.158a43.258 43.258 0 0 0 -34.785 20.963l-5.529 9.06a43.371 43.371 0 0 0 -4.481 9.939c-6.655 21.831-22.444 98.408 67.977 136.636-43.26-81.81 0-108.56 0-108.56z" fill="#d17e46"/><path d="m313.91 109.27a13.28 13.28 0 1 1 -5.71-1.29 13.288 13.288 0 0 1 5.71 1.29z" fill="#495060"/><path d="m416.87 148.12a1.683 1.683 0 0 1 -1.37 2.88l-8.12-1.06-54.63-7.13a6.441 6.441 0 0 1 2.34-3.5l29.49-22.36z" fill="#6d7486"/><path d="m407.38 149.94-.01.08-41.28 15.81-12.38-17.59a6.441 6.441 0 0 1 -.96-5.43z" fill="#4a5160"/><path d="m366.09 78.33a73.413 73.413 0 0 0 -9.62-9.05c-14.78-11.54-37.17-19.77-70.98-16.53-96.37 9.23-131.32 186.62-140.62 217.62a339.562 339.562 0 0 1 -14.73 40.48l20 20a339.562 339.562 0 0 0 14.73-40.48c9.3-31 44.25-208.39 140.62-217.62 30.66-2.938 51.929 3.556 66.648 13.4a75.052 75.052 0 0 0 -6.048-7.82z" fill="#a8754e"/><path d="m211.12 229.51c66.11-16.85 124.18 75.59 64.79 174.11-13.42 22.27-30.95 40.18-50.56 54.58l-188.57-28.66c-10.68-1.63-12.93-16.04-3.26-20.86 41.961-20.954 69.532-45.222 89.825-83.782a305.516 305.516 0 0 1 33.374-51.022c15.681-19.219 35.997-39.671 54.401-44.366z" fill="#a8754e"/><path d="m53.52 428.68c41.961-20.954 69.532-45.222 89.825-83.782a305.516 305.516 0 0 1 33.374-51.022c15.68-19.219 36-39.671 54.4-44.366 18.458-4.7 36.286-.883 51.108 9.2-16.815-23.995-43.247-36.306-71.108-29.2-20.978 5.352-44.44 31.175-60.688 52.31a271.088 271.088 0 0 0 -26.131 41.246c-20.383 39.628-48.159 64.334-90.78 85.614-9.67 4.82-7.42 19.23 3.26 20.86l13.091 1.99a11.228 11.228 0 0 1 3.649-2.85z" fill="#936241"/><g fill="#f4f8fc"><path d="m234.214 419.042a6 6 0 0 1 -4.805-9.588c3.341-4.479 6.491-9.166 9.363-13.931a168.1 168.1 0 0 0 20.617-50.408 6 6 0 0 1 11.718 2.585 180.073 180.073 0 0 1 -22.057 54.019c-3.074 5.1-6.446 10.116-10.022 14.909a5.988 5.988 0 0 1 -4.814 2.414z"/><path d="m268.391 330.057c-.12 0-.24 0-.361-.011a6 6 0 0 1 -5.63-6.346c.095-1.613.16-3.236.192-4.825a6 6 0 0 1 12 .246c-.036 1.742-.107 3.522-.212 5.289a6 6 0 0 1 -5.989 5.647z"/></g></svg>