<svg id="Layer_1" height="512" viewBox="0 0 512 512" width="512" xmlns="http://www.w3.org/2000/svg" data-name="Layer 1"><path d="m213.85 102.61s-64.04 3.67-80.97 83.75c-16.56 78.36-88.73 50.85-106.8 205.44a11.083 11.083 0 0 0 9.07 12.23l24.25 4.28 157.74-279.2z" fill="#576d9b"/><path d="m485.84 167.75c-6.23-21.58-27.62-70.85-86.66-89.65v.01s-22.62 13.71-23 50.27c70.72 6.78 108.87 43.04 108.87 43.04a3.906 3.906 0 0 0 .79-3.67z" fill="#6d7177"/><path d="m376.18 128.38c-.11 10.06 1.46 21.85 5.66 35.57 56.51-6.08 85.98 2.69 98.57 8.49a3.888 3.888 0 0 0 4.64-1.02s-38.15-36.26-108.87-43.04z" fill="#52565c"/><path d="m155.15 238.29c7.76 68.24 36.23 96.32 24.03 191.17l-119.78-21.15c10.24-145.32 93.92-169.51 95.75-170.02z" fill="#405077"/><path d="m276.59 269.4c-9.33-29.18-12.53-66.71-12.64-76.15a3.247 3.247 0 0 0 -1.66-2.8h-.01l-45.14-61.34s-69.69-8.08-63.27 94.59c.32 5.07.75 9.92 1.28 14.59 7.76 68.24 36.23 96.32 24.03 191.17l66.54 11.75a11.076 11.076 0 0 0 8.95-2.33c28.99-23.73 52.88-72.68 21.92-169.48z" fill="#ffe5c0"/><path d="m213.85 102.61 3.29 26.5 3.76 30.25c62.03-28.91 114.16-34.93 155.28-30.98.38-36.56 23-50.27 23-50.27v-.01c-41.05-13.07-100.31-11.42-185.33 24.51z" fill="#efbf66"/><path d="m376.18 128.38c-41.12-3.95-93.25 2.07-155.28 30.98l.88 7.1a26.917 26.917 0 0 0 26.73 23.57h12.18a3.2 3.2 0 0 1 1.59.42h.01c49.17-15.31 88.46-23.16 119.55-26.5-4.2-13.72-5.77-25.51-5.66-35.57z" fill="#d6a454"/><path d="m194.03 156.43a10.405 10.405 0 1 1 -10.43 10.41 10.418 10.418 0 0 1 10.43-10.41z" fill="#c46969"/><path d="m152.88 206.36c11.323-53.558 43.715-72.934 63.931-79.9l-2.961-23.85s-64.04 3.67-80.97 83.75c-16.56 78.36-88.73 50.85-106.8 205.44a11.083 11.083 0 0 0 9.07 12.23l11.637 2.054c19.165-148.194 89.741-122.346 106.093-199.724z" fill="#2b416d"/><path d="m237.14 149.11a34.451 34.451 0 0 1 22.394-36.616c52.356-19.053 93.882-24.189 126.85-20.966 6.123-9.417 12.616-13.418 12.616-13.418v-.01c-41-13.07-100.22-11.42-185.24 24.51l3.335 26.5 3.783 30.25q8.427-3.927 16.618-7.3z" fill="#bc9353"/><path d="m419.18 98.1a128.878 128.878 0 0 1 41.761 22.185 126.029 126.029 0 0 0 -61.941-42.185v.01s-6.493 4-12.616 13.418a159.233 159.233 0 0 1 32.796 6.572z" fill="#535456"/><path d="m157.809 256.406c-1.033-5.748-1.936-11.757-2.659-18.116-1.83.51-85.51 24.7-95.75 170.02l20.506 3.621c8.737-100.014 52.883-140.447 77.903-155.525z" fill="#2b416d"/><g fill="#f4f8fc"><path d="m264.457 373.746c-.182 0-.366-.008-.551-.025a6 6 0 0 1 -5.431-6.52c2.03-22.282-.868-48.205-8.615-77.052a6 6 0 1 1 11.589-3.112c8.116 30.218 11.136 57.556 8.976 81.253a6 6 0 0 1 -5.968 5.456z"/><path d="m249.042 272.311a6 6 0 0 1 -5.764-4.343c-.523-1.818-1.037-3.7-1.529-5.6a6 6 0 1 1 11.617-3.008c.465 1.8.951 3.576 1.444 5.292a6 6 0 0 1 -5.768 7.66z"/></g></svg>