<svg id="Layer_1" height="512" viewBox="0 0 512 512" width="512" xmlns="http://www.w3.org/2000/svg" data-name="Layer 1"><path d="m306.93 72.5c-30 28.77-38.46 71.01-41.55 82.98-11.31 43.94-55.81 62.62-55.81 62.62v.01l58.84 8.48s26.1-30.93 88.14-32.03a6.659 6.659 0 0 0 6.48-5.37c2.59-13.52 13.57-49.66 58.57-73.79q5.37-2.9 11.41-5.53h.01c.55.1 1.11.21 1.68.32l6.06-12.99 14.83-19.26.24-.24c-53.68-53.38-114.38-38.31-148.9-5.2z" fill="#ccd3df"/><path d="m421.6 115.4c-45 24.13-55.98 60.27-58.57 73.79a6.659 6.659 0 0 1 -6.48 5.37c-62.04 1.1-88.14 32.03-88.14 32.03l-76.27 232.42 164.74 10.4a15.459 15.459 0 0 0 9.99-2.82c74.16-53.32 80.52-181.65 57.26-262.54-12.88-44.82 20.99-69.74 20.99-69.74v-.01z" fill="#bf9a81"/><path d="m388.36 74.01a13.805 13.805 0 1 1 -13.85 13.8 13.825 13.825 0 0 1 13.85-13.8z" fill="#706872"/><path d="m285.38 175.48c3.09-11.97 11.55-54.21 41.55-82.98 29.921-28.7 79.51-43.833 127.149-12.6l1.511-1.962.24-.24c-53.68-53.38-114.38-38.31-148.9-5.2-30 28.77-38.245 71.01-41.335 82.98-11.31 43.942-55.595 62.622-55.595 62.622v.01l42.245 6.119c12.838-10.129 27.298-26.073 33.135-48.749z" fill="#a7aeb7"/><path d="m279.98 234.51c75.85 59.73-20.41 167.45-87.84 224.5l-151.48-9.56a15.632 15.632 0 0 1 -13-22.58c26.45-52.98 101.24-188.72 181.91-208.76 19.47-4.85 39.28-2.95 58.84 8.48a101.4 101.4 0 0 1 11.57 7.92z" fill="#84624c"/><path d="m47.66 446.87c26.45-52.98 101.24-188.72 181.91-208.76 19.47-4.85 39.28-2.95 58.84 8.48q4.081 2.383 8.141 5.338a78.976 78.976 0 0 0 -16.571-17.418 101.4 101.4 0 0 0 -11.57-7.92c-19.56-11.43-39.37-13.33-58.84-8.48-80.67 20.04-155.46 155.78-181.91 208.76a15.632 15.632 0 0 0 13 22.58l5.878.371a15.923 15.923 0 0 1 1.122-2.951z" fill="#664b3c"/><path d="m456.74 78.61c-.3-.31-.61-.61-.91-.91l-.24.24-14.83 19.26-6.06 12.99c13.67 2.68 31.07 9.25 39.42 25.23a41.956 41.956 0 0 1 4.09 12.04c26.01-40.93-21.47-68.85-21.47-68.85z" fill="#efbf66"/><path d="m474.12 135.42c-12.23 1.6-21.7.84-29-1.12-19.46-5.21-23.52-18.9-23.52-18.9q5.37-2.9 11.41-5.53h.01c.55.1 1.11.21 1.68.32 13.67 2.68 31.07 9.25 39.42 25.23z" fill="#c99e5b"/><path d="m440.76 97.2a12.3 12.3 0 1 1 6.14 1.64 12.23 12.23 0 0 1 -6.14-1.64z" fill="#c99e5b"/><g fill="#f4f8fc"><path d="m153.867 293.873a6 6 0 0 1 -4.3-10.18c1.725-1.776 3.463-3.526 5.168-5.2a6 6 0 0 1 8.414 8.556c-1.639 1.611-3.311 3.295-4.97 5a5.985 5.985 0 0 1 -4.312 1.824z"/><path d="m88.056 380.6a6 6 0 0 1 -5.083-9.18c17.2-27.532 34.608-51.578 51.75-71.471a6 6 0 1 1 9.089 7.834c-16.743 19.43-33.788 42.98-50.662 69.995a5.993 5.993 0 0 1 -5.094 2.822z"/></g></svg>