<svg id="Layer_1" height="512" viewBox="0 0 512 512" width="512" xmlns="http://www.w3.org/2000/svg" data-name="Layer 1"><path d="m339.78 322.58c-29.92-42.29-2.55-94.25 9.03-114.36a13.817 13.817 0 0 0 1.71-8.91l37.71-94.06s-12.06-37.83-43.5-58.57c-26.33-17.38-68.58-21.74-106.44 8.15-49.56 39.12-28.25 111.44-12.5 148.72a252.779 252.779 0 0 1 19.39 82.89c.02.43.05.85.07 1.28a38.432 38.432 0 0 1 -39.71 40.63c-54.34-1.88-128.72 33.37-170.6 133.97a12.017 12.017 0 0 0 11.05 16.68h335.32a12.01 12.01 0 0 0 12-12.44c-1.59-44.65-16.27-91.33-53.53-143.98z" fill="#8a503b"/><path d="m477.87 204.5a3.112 3.112 0 0 1 -3.78 3.91c-13.02-3.54-49.85-12.08-84.69-11.54a238.247 238.247 0 0 1 8.98-72.47 197.667 197.667 0 0 1 6.49 21.07c8 31.45 58 8.13 73 59.03z" fill="#d6a454"/><path d="m397.23 242.77c7.04 21.27 5.36 46.15-22.59 50.98-15.82 2.73-42.5-15.9-23.13-48.06 7.56-12.54 1.29-36.88-.99-46.38a13.537 13.537 0 0 0 -1.03-3.58c-18.08-40.97 24.19-35.45 20.2-52.41-6.49-27.51 18.54-38.07 18.54-38.07s4.5 4.15 10.15 19.15a238.247 238.247 0 0 0 -8.98 72.47 166.258 166.258 0 0 0 7.83 45.9z" fill="#e75163"/><ellipse cx="315.13" cy="103.7" fill="#706872" rx="10.54" ry="10.55"/><path d="m225.54 348.35a38.432 38.432 0 0 0 39.71-40.63c-.02-.43-.05-.85-.07-1.28a252.779 252.779 0 0 0 -19.39-82.89c-15.75-37.28-37.06-109.6 12.5-148.72 37.86-29.89 80.11-25.53 106.44-8.15 1.421.937 2.789 1.92 4.132 2.923a100.522 100.522 0 0 0 -24.132-22.923c-26.33-17.38-68.58-21.74-106.44 8.15-49.56 39.12-28.25 111.44-12.5 148.72a252.779 252.779 0 0 1 19.39 82.89c.02.43.05.85.07 1.28a38.432 38.432 0 0 1 -39.71 40.63c-54.34-1.88-128.72 33.37-170.6 133.97a12.017 12.017 0 0 0 11.05 16.68h10.363c42.123-98.049 115.447-132.509 169.187-130.65z" fill="#60382b"/><path d="m368.51 248.69c7.56-12.54 1.29-36.88-.99-46.38a13.537 13.537 0 0 0 -1.03-3.58c-18.08-40.97 24.19-35.45 20.2-52.41-3.479-14.746 2.1-24.617 8.024-30.607-3.811-7.993-6.484-10.463-6.484-10.463s-25.03 10.56-18.54 38.07c3.99 16.96-38.28 11.44-20.2 52.41a13.537 13.537 0 0 1 1.03 3.58c2.28 9.5 8.55 33.84.99 46.38-19.37 32.16 7.31 50.79 23.13 48.06.391-.068.758-.153 1.138-.229-11.934-6.642-20.741-22.462-7.268-44.831z" fill="#af4556"/><g fill="#f4f8fc"><path d="m241.546 97.527a6 6 0 0 1 -5.377-8.653c.938-1.905 1.957-3.79 3.028-5.6a6 6 0 0 1 10.328 6.109c-.916 1.549-1.788 3.162-2.592 4.794a6 6 0 0 1 -5.387 3.35z"/><path d="m250.789 219.552a6 6 0 0 1 -5.53-3.668c-21.6-51.169-20.729-86.211-16.192-106.6a6 6 0 1 1 11.713 2.606c-7.928 35.626 6.329 77.521 15.534 99.323a6 6 0 0 1 -5.525 8.335z"/></g></svg>