<svg id="Layer_1" height="512" viewBox="0 0 512 512" width="512" xmlns="http://www.w3.org/2000/svg" data-name="Layer 1"><path d="m418.406 59.08c-37.6-12.32-85.54-.72-114.52 29.26-29.75 30.75-39.4 62.44-52.99 89.22-8 15.77-17.37 29.84-33.01 41-49.86 35.59-86.47 73.49-113.24 108.21l145.254 131.35 140.76 3.66a5.607 5.607 0 0 0 4.99-2.77c40.29-68.86 37.58-122.95 34.74-155.01-1.5-17.03 4.63-29.4 10.09-37.87 9.15-14.18 15.23-31.73 15.23-47.57l26.03-82.81c-.004-18.86-15.384-60.96-63.334-76.67z" fill="#f46464"/><ellipse cx="375.906" cy="131.93" fill="#5569e0" rx="11.06" ry="11.03"/><path d="m470.476 215.62a56.43 56.43 0 0 1 6.01 13.18 97.158 97.158 0 0 1 -20.78-10.24c-26.89-17.83-26.12-41-26.12-41s29.4 20.27 40.89 38.06z" fill="#bc8d39"/><path d="m476.486 228.8a56.43 56.43 0 0 0 -6.01-13.18c-11.49-17.79-40.89-38.06-40.89-38.06l52.15-41.81s36.95 68.06-1.8 108.2a86.093 86.093 0 0 0 -3.45-15.15z" fill="#f4bc4a"/><path d="m237.886 238.56c15.64-11.16 25.01-25.23 33.01-41 13.59-26.78 23.24-58.47 52.99-89.22 28.98-29.98 76.92-41.58 114.52-29.26a97.876 97.876 0 0 1 27.346 13.861c-9.943-13.659-25.152-26.589-47.346-33.861-37.6-12.32-85.54-.72-114.52 29.26-29.75 30.75-39.4 62.44-52.99 89.22-8 15.77-17.37 29.84-33.01 41-49.86 35.59-86.47 73.49-113.24 108.21l20.874 18.876c26.692-34.413 63.042-71.879 112.366-107.086z" fill="#c94747"/><path d="m260.886 279.36c60.9 30.87 37.16 130.27-10.99 178.76l-206.77-5.37a5.637 5.637 0 0 1 -5.1-7.68c6.96-17.71 24.82-64.12 66.62-118.3 0 0 78.17-86.98 156.24-47.41z" fill="#5264d1"/><path d="m124.646 346.77s78.17-86.98 156.24-47.41c1.8.911 3.516 1.887 5.167 2.914a62.057 62.057 0 0 0 -25.167-22.914c-78.07-39.57-156.24 47.41-156.24 47.41-41.8 54.18-59.66 100.59-66.62 118.3a5.637 5.637 0 0 0 5.1 7.68l19.622.51c9.215-22.36 27.398-61.772 61.898-106.49z" fill="#3e51a3"/><path d="m155.956 325.724a6 6 0 0 1 -4.471-10q1.671-1.87 3.382-3.746a6 6 0 0 1 8.865 8.088q-1.671 1.83-3.3 3.654a5.986 5.986 0 0 1 -4.476 2.004z" fill="#f4f8fc"/><path d="m90.822 417.946a6 6 0 0 1 -5.274-8.854 485.751 485.751 0 0 1 51.795-76.863 6 6 0 1 1 9.275 7.613 473.782 473.782 0 0 0 -50.513 74.958 6 6 0 0 1 -5.283 3.146z" fill="#f4f8fc"/><path d="m323.4 265.232a6 6 0 0 0 3.6-11.445c-25.123-7.912-44.543-23.22-57.721-45.5-9.9-16.744-12.411-31.407-12.456-31.684a5.985 5.985 0 0 0 -3.274-4.427q-1.31 2.721-2.654 5.383-2.07 4.08-4.292 8a120.422 120.422 0 0 0 12.083 28.389 113.029 113.029 0 0 0 64.714 51.284z" fill="#a84040"/></svg>