<svg id="Layer_1" height="512" viewBox="0 0 512 512" width="512" xmlns="http://www.w3.org/2000/svg" data-name="Layer 1"><path d="m417.22 286.14c-20.21-35.37-84.63-86.27-85.64-87.06a88.046 88.046 0 0 0 26.38-5.15 38.125 38.125 0 0 0 4.83-2.46c8.18-4.8 23.56-16.98 20.25-39.37 0 0 12.44-5.81 14.02-11.42a56.5 56.5 0 0 0 2.09-15.06c.07-20.82-11.11-40.68-25.86-55.4-19.1-19.04-45.06-27.73-72-27.02-33.73.89-65.87 18.54-85.29 46.36-16.22 23.24-18.25 52.19-13.2 79.44 1.63 8.83 10.33 44.64 12.62 52.58l57.61 199.7 67.61 45.44a12.6 12.6 0 0 0 11.61 1.25c87.39-34.08 92.06-134.42 64.97-181.83z" fill="#f1e286"/><path d="m460.76 225.83c32.35 28.86 24.37 34.99 24.37 34.99s-20.68 11.78-47.63-5.9c-9.28-6.08-74.71-63.45-74.71-63.45 8.18-4.8 23.56-16.98 20.25-39.37 0 0 12.44-5.81 14.02-11.42a56.5 56.5 0 0 0 2.09-15.06h.05s19.47 62.64 61.56 100.21z" fill="#e8bd71"/><path d="m348.43 101.9a13.47 13.47 0 1 1 -13.5 13.47 13.49 13.49 0 0 1 13.5-13.47z" fill="#706972"/><path d="m373.29 70.22c-19.1-19.04-45.06-27.73-72-27.02-33.73.89-65.87 18.54-85.29 46.36-16.22 23.24-18.25 52.19-13.2 79.44 1.63 8.83 10.33 44.64 12.62 52.58l20 20c-2.29-7.94-10.99-43.75-12.62-52.58-5.05-27.25-3.02-56.2 13.2-79.44 19.42-27.82 51.56-45.47 85.29-46.36 22.382-.59 44.084 5.316 61.741 18.247a103.028 103.028 0 0 0 -9.741-11.227z" fill="#c4b670"/><path d="m340.57 333.59c4.23 41.13-34.4 71.94-67.54 87.69l-241.49-162.3a12.514 12.514 0 0 1 3.1-22.29c57.14-18.53 121.95-28.61 180.78-15.11a202.814 202.814 0 0 1 52.16 19.57c33.52 18.31 68.92 52.84 72.99 92.44z" fill="#e8bd71"/><path d="m54.64 256.69c57.14-18.53 121.95-28.61 180.78-15.11a202.814 202.814 0 0 1 52.16 19.57 176.934 176.934 0 0 1 28.753 19.7c-13.726-16.519-31.483-30.266-48.753-39.7a202.814 202.814 0 0 0 -52.16-19.57c-58.83-13.5-123.64-3.42-180.78 15.11a12.514 12.514 0 0 0 -3.1 22.29l14.46 9.72a12.406 12.406 0 0 1 8.64-12.01z" fill="#c19d63"/><path d="m407.594 196.536a5.992 5.992 0 0 1 -4.882-2.5l-4.1-5.722a6 6 0 1 1 9.754-6.991l4.1 5.723a6 6 0 0 1 -4.872 9.5z" fill="#b58f54"/><g fill="#f4f8fc"><path d="m241.56 267.337a6 6 0 0 1 -2.078-.373c-41.31-15.257-90.372-17.709-145.822-7.287a6 6 0 0 1 -2.216-11.794c57.614-10.827 108.82-8.2 152.2 7.824a6 6 0 0 1 -2.079 11.63z"/><path d="m267.576 279.147a5.967 5.967 0 0 1 -2.872-.736c-2.068-1.13-4.191-2.237-6.311-3.291a6 6 0 1 1 5.342-10.746c2.258 1.123 4.521 2.3 6.724 3.508a6 6 0 0 1 -2.883 11.265z"/></g></svg>