<svg id="Layer_1" height="512" viewBox="0 0 512 512" width="512" xmlns="http://www.w3.org/2000/svg" data-name="Layer 1"><path d="m442.51 129.21s33.85 56.61 21.41 103.32l-22.65-5.88h-.01c-.29-39.06-29.49-70.9-29.49-70.9 4.14-1.1 6.09-3.59 6.5-6.86 0 0 23.13-7.12 24.24-19.68z" fill="#f7a246"/><path d="m320.54 43.87c-73.07 29.42-85.37 141.21-28.83 212.52 84.01 105.97 59.93 140.33 16.68 146.62-20.15 2.93-18.09-47.05-70.33-89.03-51.56-41.43-134.01-14.3-187.97 26.8a12 12 0 0 0 3.15 20.85l313.65 113.85a12.014 12.014 0 0 0 13.22-3.48c107.88-126.42-88.75-263.37-66.15-320.95 15.5-39.51 59.62-.53 74.9 14.67a5.5 5.5 0 0 0 8.33-.71c2.48-3.36 6.89-7.22 14.58-9.26 4.14-1.1 6.09-3.59 6.5-6.86l21.72-47.51h.01c-11.42-46.83-58.33-82.13-119.46-57.51z" fill="#ffb0b0"/><path d="m439.99 101.38h.01a94.012 94.012 0 0 1 2.51 27.83c-1.11 12.56-24.24 19.68-24.24 19.68 1.12-8.87-9.01-23.52-16.95-31.86-12.2-12.81-4.65-34.26 14.51-34.06 18.16.19 23.68 16.85 24.16 18.41z" fill="#f98282"/><path d="m441.27 226.65 22.65 5.88c-5.09 19.12-17.93 36.57-44.02 47.82 16.03-17.9 21.5-36.5 21.36-53.7z" fill="#ef9d4b"/><path d="m441.26 226.65-19.55 7.42h-.01c-7.62-37.62-32.84-68.34-32.84-68.34v-.01a5.5 5.5 0 0 0 8.33-.71c2.48-3.36 6.89-7.22 14.58-9.26 0 0 29.2 31.84 29.49 70.9z" fill="#e08d3b"/><path d="m441.26 226.65c.14 17.2-5.33 35.8-21.36 53.7 5.09-15.53 4.82-31.44 1.8-46.28h.01z" fill="#e08d3b"/><ellipse cx="415.97" cy="101.37" fill="#706872" rx="4.2" ry="4.21"/><path d="m70.09 360.78c53.96-41.1 136.41-68.23 187.97-26.8q1.3 1.046 2.555 2.1a158.451 158.451 0 0 0 -22.555-22.1c-51.56-41.43-134.01-14.3-187.97 26.8a12 12 0 0 0 3.15 20.85l12.809 4.649a11.919 11.919 0 0 1 4.041-5.499z" fill="#f98282"/><path d="m308.944 402.923c6.37 13.092 10.92 21.327 19.446 20.087 43.25-6.29 67.33-40.65-16.68-146.62-56.54-71.31-44.24-183.1 28.83-212.52 34.08-13.726 63.737-8.822 85.292 6.315-20.718-29.175-58.909-45-105.292-26.315-73.07 29.42-85.37 141.21-28.83 212.52 83.649 105.51 60.132 140.029 17.234 146.533z" fill="#f98282"/><g fill="#f4f8fc"><path d="m284.337 127.942a6 6 0 0 1 -5.8-7.537c5.9-22.276 17.494-40.09 33.538-51.518a6 6 0 1 1 6.961 9.775c-13.734 9.782-23.727 25.279-28.9 44.814a6 6 0 0 1 -5.799 4.466z"/><path d="m333.98 70.449a6 6 0 0 1 -1.98-11.666c1.952-.682 3.924-1.3 5.861-1.85a6 6 0 1 1 3.254 11.55c-1.7.479-3.435 1.027-5.154 1.628a6 6 0 0 1 -1.981.338z"/></g></svg>