<svg id="Layer_1" height="512" viewBox="0 0 512 512" width="512" xmlns="http://www.w3.org/2000/svg" data-name="Layer 1"><path d="m180.05 176.445v.01a78.322 78.322 0 0 0 -15.16 14.46l-78.17-68.87-4.43-3.9c-15.71-13.06-16.52-27.37-5.24-39.01a25.032 25.032 0 0 1 37.29 1.5l6.793 7.614a184.616 184.616 0 0 1 18.051 23.88z" fill="#f2c097"/><path d="m220.05 55.545c.09-23.94 54.46-29.46 48.02 14.06-.01.05-2.46 9.27-5.91 22.21-8.2 30.76-22.04 82.58-22.04 82.58a73.037 73.037 0 0 0 -19.55-6.92l-.52-111.8z" fill="#d19259"/><path d="m86.72 122.045 78.17 68.87c-4.24 5.19-7.03 11.87-8.68 19.25l-82.52-38.865-6.84-3.22c-.16-.07-.32-.14-.48-.22a20.1 20.1 0 0 1 -11.35-14.65c-3.5-16.915 8.05-35.835 31.7-31.165z" fill="#d19259"/><g fill="#f2c097"><path d="m73.69 171.3 82.52 38.87a89.785 89.785 0 0 0 -1.92 21.05l-84.39-9.38c-.17-.02-.34-.03-.52-.05a20.1 20.1 0 0 1 -15.64-9.94c-9.01-14.735-3.88-36.95 19.95-40.55z"/><path d="m262.16 91.815c3.61-13.59 19.17-21.07 32.25-15.92.27.1.53.21.8.31a23.535 23.535 0 0 1 10.34 35.82l-50.35 71.93a103.558 103.558 0 0 0 -15.08-9.56s13.84-51.82 22.04-82.58z"/><path d="m220.05 55.675.52 111.8a52.6 52.6 0 0 0 -18.63-.32l-28.3-86.8v-.01l-2.92-25.24a25.917 25.917 0 0 1 -.33-4.09 25.056 25.056 0 0 1 23.76-24.97c16.15-.83 26.38 9.17 25.9 29.5z"/></g><path d="m173.64 80.355 28.3 86.8a52.653 52.653 0 0 0 -21.89 9.29l-48.92-76.99-13.88-21.85a26.97 26.97 0 1 1 48.24-22.26l8.15 25z" fill="#d19259"/><path d="m262.05 296.545c-6.84-24.91 14.81-57.36 14.81-57.36l-8.42-43.47a110.39 110.39 0 0 0 -28.32-21.32 73.037 73.037 0 0 0 -19.55-6.92 51.057 51.057 0 0 0 -40.52 8.97v.01a78.322 78.322 0 0 0 -15.16 14.46c-4.24 5.19-7.03 11.87-8.68 19.25a89.785 89.785 0 0 0 -1.92 21.05 120.411 120.411 0 0 0 4.45 30.3c4.75 16.52 1.65 38.05-5.66 49.93a23.8 23.8 0 0 1 -17.09 11.39c-16.87 2.21-60.95 11.17-99.62 46.33a8.226 8.226 0 0 0 1.82 13.39l200.48 102.545a8.271 8.271 0 0 0 9.79-1.72c71.52-76.135 18.8-167.855 13.59-186.835z" fill="#f19a7e"/><path d="m214.06 203.655a6.51 6.51 0 1 1 -6.5 6.51 6.51 6.51 0 0 1 6.5-6.51z" fill="#6f6970"/><path d="m207.56 342.735c53.17 12.16 20.53 78.52-17.44 117.53l-126.92-64.92c23.42-24.51 82.55-66.74 144.36-52.61z" fill="#a8b6cc"/><path d="m56.37 389.165c38.67-35.16 82.75-44.12 99.62-46.33a23.8 23.8 0 0 0 17.09-11.39c7.31-11.88 10.41-33.41 5.66-49.93a120.411 120.411 0 0 1 -4.45-30.3 89.785 89.785 0 0 1 1.92-21.05c1.65-7.38 4.165-14.06 8.405-19.25a80.426 80.426 0 0 1 14.885-14.46v-.01a51.983 51.983 0 0 1 22.165-9.29 53.373 53.373 0 0 1 18.767.32 73.5 73.5 0 0 1 19.619 6.92 97.953 97.953 0 0 1 9.132 5.335l-.76-4.015a110.256 110.256 0 0 0 -28.307-21.32 73.023 73.023 0 0 0 -19.548-6.92 54.15 54.15 0 0 0 -18.9-.32 51.98 51.98 0 0 0 -22.164 9.29v.01a80.426 80.426 0 0 0 -14.885 14.46c-4.24 5.19-6.893 11.87-8.542 19.25a89.8 89.8 0 0 0 -1.852 21.05 120.368 120.368 0 0 0 4.485 30.3c4.75 16.52 1.667 38.05-5.643 49.93a23.781 23.781 0 0 1 -17.082 11.39c-16.87 2.21-60.945 11.17-99.615 46.33a8.226 8.226 0 0 0 1.822 13.39l16.646 8.513a8.162 8.162 0 0 1 1.532-1.903z" fill="#bc7764"/><path d="m227.56 362.735a53.734 53.734 0 0 1 6.455 1.9c-3.037-10.469-11.216-18.411-26.455-21.9-61.81-14.13-120.94 28.1-144.36 52.61l26.548 13.579c26.7-24.706 81.126-59.148 137.812-46.189z" fill="#7689a5"/><path d="m475.3 210.225c-53.17-11.7-198.44 28.96-198.44 28.96l-25.13-12.92 16.71-30.55s123.24-16.7 206.86 14.51z" fill="#5e4f53"/><g fill="#f4f8fc"><path d="m213.019 376.729a5.894 5.894 0 0 1 -.723-.044c-1.7-.2-3.434-.37-5.164-.494a6 6 0 1 1 .858-11.969c1.92.138 3.85.323 5.737.549a6 6 0 0 1 -.708 11.958z"/><path d="m119.04 400.709a6 6 0 0 1 -3.121-11.129c23.4-14.217 48.017-22.893 71.19-25.09a6 6 0 0 1 1.133 11.947c-21.379 2.027-44.233 10.118-66.093 23.4a5.983 5.983 0 0 1 -3.109.872z"/></g></svg>