<svg id="Layer_1" height="512" viewBox="0 0 512 512" width="512" xmlns="http://www.w3.org/2000/svg" data-name="Layer 1"><path d="m279.47 40.73c-89 10.65-107.23 60.93-143.75 91.71-16.46 13.86-40.96 32.06-62.93 47.87l.01.01 77.94 198.06 71.47 91.18a6.845 6.845 0 0 0 8.78 1.74c95.18-54.67 85.85-156.99 90.14-192.47 4.37-36.12 44.33-68.5 44.33-68.5l43.11-86.35s-35.34-94.48-129.1-83.25z" fill="#d86f77"/><path d="m346.36 173.81c23.64 19.37 55.4 10.04 87.96 9.1a46.522 46.522 0 0 1 24.6 6.42s-35.69 30.29-93.46 21c-20.57-9.61-19.1-36.52-19.1-36.52z" fill="#4a5160"/><path d="m418 143.34s58.33 10.38 68 73.7c0 0-9.71-17.82-27.08-27.71a46.522 46.522 0 0 0 -24.6-6.42c-32.56.94-64.32 10.27-87.96-9.1v-.01c37.66 2.04 59.51-12.23 68.07-22.66a16.955 16.955 0 0 0 3.57-7.8z" fill="#6d7486"/><path d="m408.57 123.98c6.91 2.82 10.86 11.42 9.43 19.36a16.955 16.955 0 0 1 -3.57 7.8c-8.56 10.43-30.41 24.7-68.07 22.66a155.586 155.586 0 0 1 -19.68-2.37c14.93-7.68 20.46-23.16 20.46-23.16 44.25.56 47.99-23.98 54.06-25.03a13.171 13.171 0 0 1 7.37.74z" fill="#dc5b5b"/><path d="m302.43 126.31a14.635 14.635 0 1 1 -14.67 14.64 14.647 14.647 0 0 1 14.67-14.64z" fill="#706872"/><path d="m279.47 40.73c-89 10.65-107.23 60.93-143.75 91.71-16.46 13.86-40.96 32.06-62.93 47.87l.01.01 15.992 22.989c21.969-15.809 46.468-34.009 62.928-47.869 36.52-30.78 54.75-81.06 143.75-91.71 50.793-6.084 84.434 18.856 104.606 42.991-15.35-26.694-52.613-74.135-120.606-65.991z" fill="#b25964"/><path d="m72.8 180.32c124.83-9.67 181.49 93.85 77.94 198.06l-123.28-157.29a6.821 6.821 0 0 1 1.49-9.83c8.55-5.92 25.29-17.57 43.84-30.95z" fill="#4a5160"/><path d="m72.8 180.32-.01-.01c-18.55 13.38-35.29 25.03-43.84 30.95a6.821 6.821 0 0 0 -1.49 9.83l14.55 18.564a6.807 6.807 0 0 1 2.94-5.394l25.212-17.79a73.763 73.763 0 0 1 47.73-13.321c34.014 2.412 61.186 14.231 79.014 32.4-17.212-37.055-62.306-60.017-124.106-55.229z" fill="#3e4551"/><g fill="#f4f8fc"><path d="m263.142 402.429a6 6 0 0 1 -5.179-9.021c19.746-33.913 24.381-70.477 26.309-101.772a6 6 0 0 1 11.977.738c-2.015 32.7-6.908 70.992-27.917 107.073a6 6 0 0 1 -5.19 2.982z"/><path d="m291.665 274.627q-.248 0-.5-.021a6 6 0 0 1 -5.488-6.47c.156-1.906.319-3.552.5-5.033a6 6 0 1 1 11.912 1.447c-.161 1.326-.31 2.82-.453 4.568a6 6 0 0 1 -5.971 5.509z"/></g></svg>