<svg id="Layer_1" height="512" viewBox="0 0 512 512" width="512" xmlns="http://www.w3.org/2000/svg" data-name="Layer 1"><path d="m228.84 62.445c-70.96 15.82-85.61 67.27-109.72 66.42 0 0 55.73 23.85 53.18 74.23s17.46 100.25 73.48 113.25c6.99-28.32 21.2-47.28 37.27-61.3l-.01-.01 55.84-110.24c12.84 0 24.16-14.1 31.46-26.09a21.366 21.366 0 0 1 7.56-7.42c-24.83-46.26-77.45-64.8-149.06-48.84z" fill="#e8ba59"/><path d="m245.78 316.345c-14.47 58.69-47.15 115.89-81.59 138.22a3.776 3.776 0 0 1 -5.49-1.56l-133.84-286.38a3.754 3.754 0 0 1 1.41-4.79c11.7-7.28 57.47-34.21 92.85-32.97 0 0 55.73 23.85 53.18 74.23s17.46 100.25 73.48 113.25z" fill="#a36342"/><path d="m403.39 114.665a20.706 20.706 0 0 0 -25.49-3.38 21.366 21.366 0 0 0 -7.56 7.42c-7.3 11.99-18.62 26.09-31.46 26.09-22.33 0-117.29-22.27-105.74 67.08 3.69 28.61 21.47 43.16 49.9 43.16l.01.01c18.41-16.1 39.25-25.73 54.41-35.621 21.14-13.779 57.45-38.379 57.45-38.379l11.04-53c2.65-5.19.98-9.67-2.56-13.38z" fill="#4ca987"/><path d="m484.5 172.915-89.59 8.13-22.08-26.7s57.51 1.155 111.67 18.57z" fill="#4a5160"/><path d="m405.95 128.045s61.29 20.86 78.55 44.87c-54.16-17.42-111.67-18.57-111.67-18.57s24.68-9.745 33.12-26.3z" fill="#6d7486"/><path d="m333.66 115.345a14.565 14.565 0 1 1 -14.57 14.56 14.572 14.572 0 0 1 14.57-14.56z" fill="#6f6970"/><path d="m248.84 82.445c50.967-11.36 92.3-5.227 120.857 15.922-27.254-36.667-76.344-50.301-140.857-35.922-70.96 15.82-85.61 67.27-109.72 66.42a112.121 112.121 0 0 1 27.8 18.453c20.274-8.632 38.868-50.818 101.92-64.873z" fill="#ba924a"/><path d="m139.12 148.865a18.04 18.04 0 0 0 7.8-1.547 112.121 112.121 0 0 0 -27.8-18.453c-35.38-1.24-81.15 25.69-92.85 32.97a3.754 3.754 0 0 0 -1.41 4.79l11.111 23.775c13.099-8.166 68.429-42.752 103.149-41.535z" fill="#7c4e3a"/><g fill="#f4f8fc"><path d="m239.814 88.174a6 6 0 0 1 -1.558-11.8c2.372-.64 4.821-1.242 7.28-1.79a6 6 0 1 1 2.611 11.716c-2.288.51-4.565 1.07-6.767 1.664a6.012 6.012 0 0 1 -1.566.21z"/><path d="m162.385 137.712a6 6 0 0 1 -4.206-10.28q1.709-1.678 3.506-3.473c12.859-12.791 30.472-30.31 59.19-41.8a6 6 0 1 1 4.457 11.14c-26.447 10.582-42.381 26.431-55.185 39.166q-1.825 1.816-3.556 3.525a5.985 5.985 0 0 1 -4.206 1.722z"/></g></svg>