<svg id="Layer_1" height="512" viewBox="0 0 512 512" width="512" xmlns="http://www.w3.org/2000/svg" data-name="Layer 1"><path d="m244.36 28.19c-110.88 18.67-85.95 196.32-122.91 229.98l72.32 162.58 79.41 64.54a3.184 3.184 0 0 0 3.64.29c100.13-59.36 50.02-245.85 43.18-291.2-6.87-45.64 48.22-34.8 48.22-34.8l15.39-44.22s-28.37-105.84-139.25-87.17z" fill="#ccd3df"/><ellipse cx="294.36" cy="90.85" fill="#706872" rx="10.79" ry="10.81"/><path d="m346.67 132.87s116.65 17.4 127.81 53.28c-57.09-31.31-106.26-26.57-106.26-26.57 3.39-15.68-10.71-22.91-21.72-26.12z" fill="#f2a33a"/><path d="m474.48 186.15c-11.16-35.88-127.81-53.28-127.81-53.28l-.17.59a70.188 70.188 0 0 0 -12.04-2.41c3.34-13.36 49.15-15.69 49.15-15.69s31.27 10.74 43.78 14.02c27.08 7.1 47.92 23.79 47.09 56.77z" fill="#f6c244"/><path d="m244.36 28.19c-110.88 18.67-85.95 196.32-122.91 229.98l20 20c36.96-33.66 12.03-211.31 122.91-229.98 42.939-7.23 73.5 4.217 94.832 20.953-20.472-25.763-56.06-50.849-114.832-40.953z" fill="#a3aab5"/><path d="m121.45 258.17c73.12-29.77 142.98 1.75 105.06 104.24-8.75 23.65-20.07 42.81-32.74 58.34l-155.07-126.03a3.221 3.221 0 0 1 1.88-5.72c16.55-.81 53.14-5.58 80.87-30.83z" fill="#39474e"/><path d="m60.58 309c14.944-.731 46.228-4.692 72.574-24.043a80.328 80.328 0 0 1 26.427-12.941c26.569-7.211 51.5-5.931 69.517 4.329-17.71-31.465-62.043-36.745-107.648-18.175-27.73 25.25-64.32 30.02-80.87 30.83a3.221 3.221 0 0 0 -1.88 5.72l19.342 15.72a3.149 3.149 0 0 1 2.538-1.44z" fill="#253135"/><path d="m211.764 86.038a6 6 0 0 1 -4.521-9.942c1.783-2.046 3.644-4.024 5.531-5.879a6 6 0 0 1 8.411 8.561c-1.668 1.638-3.315 3.388-4.9 5.2a5.982 5.982 0 0 1 -4.521 2.06z" fill="#f4f8fc"/><path d="m168.934 200.412a6.091 6.091 0 0 1 -1.11-.1 6 6 0 0 1 -4.8-7c6.053-32.389 13.919-69.361 30.737-98.235a6 6 0 1 1 10.369 6.04c-15.854 27.218-23.442 63-29.311 94.4a6 6 0 0 1 -5.885 4.895z" fill="#f4f8fc"/><path d="m317.894 175.937c-8.651 14.363-22.073 21.526-39.819 21.347a76.394 76.394 0 0 1 -25.627-4.988 6 6 0 0 0 -4.676 11.052 87.463 87.463 0 0 0 29.76 5.93q.629.011 1.25.01c16.666 0 30.607-5.593 41.035-16.294-1.075-8.536.078-15.025 2.65-19.928a5.983 5.983 0 0 0 -4.573 2.871z" fill="#a3aab5"/></svg>