<svg id="Layer_1" height="512" viewBox="0 0 512 512" width="512" xmlns="http://www.w3.org/2000/svg" data-name="Layer 1"><path d="m293.96 275.57c-8.63-15.87-20.66-44.79-31.38-72.04a.322.322 0 0 0 -.02-.06c-13.4-34.11-24.73-65.59-24.73-65.59s43.35 5.74 49.28-6.11a18.455 18.455 0 0 0 1.91-7.9l4.94-25.85s-23.84-75.35-87.11-51.83c-101.24 37.63 20.92 211.14 30.02 230.96 9.1 19.8 36.38 65.99-48.7 59.44l10.46 118.61 75.37 15.09a3.571 3.571 0 0 0 2.02-.18c81.72-32.9 51.3-133.19 17.94-194.54z" fill="#c3e1e5"/><path d="m262.56 88.69a5.345 5.345 0 1 1 -5.35 5.34 5.35 5.35 0 0 1 5.35-5.34z" fill="#706972"/><path d="m289.02 123.87a18.455 18.455 0 0 1 -1.91 7.9c-5.93 11.85-49.28 6.11-49.28 6.11s11.33 31.48 24.73 65.59a.322.322 0 0 1 .02.06c1.29 2.74 45.42 95.66 134.89 69.18 20.11-5.96 44.55-11.39 63.75-4.47z" fill="#e0a24b"/><path d="m483.22 268.36-189.26-170.34c-9.11 8.85-4.69 17.09-4.94 25.85l172.2 144.37 5.09 4.27a5.627 5.627 0 0 1 1.87 3.01l1.73 7.21a5.647 5.647 0 0 0 9.02 3.11 24.883 24.883 0 0 0 6.31-7.75 8.393 8.393 0 0 0 -2.02-9.73z" fill="#e7b559"/><path d="m226.85 66.19c22.4-8.328 39.856-4.254 53.064 4.475-13.259-18.765-36.614-38.024-73.064-24.475-101.24 37.63 20.92 211.14 30.02 230.96 9.1 19.8 36.38 65.99-48.7 59.44l20 20c85.08 6.55 57.8-39.64 48.7-59.44-9.1-19.82-131.26-193.33-30.02-230.96z" fill="#79b1b5"/><path d="m188.17 336.59c3.43.36 97.66 11.02 40.62 92.1-6.15 8.76-18.21 19.38-30.16 26.51l-169.79-34a3.514 3.514 0 0 1 -1.84-5.9c17.86-18.34 87.62-84.41 161.07-78.72.03 0 .07.01.1.01z" fill="#79b1b5"/><path d="m208.07 356.58c.03 0 .07.01.1.01 1.479.155 19.827 2.231 35.66 11.029-12.03-26.119-53.408-30.793-55.66-31.029-.03 0-.07-.01-.1-.01-73.45-5.69-143.21 60.38-161.07 78.72a3.514 3.514 0 0 0 1.84 5.9l27 5.406c26.206-24.788 87.796-75.018 152.23-70.026z" fill="#609293"/><g fill="#f4f8fc"><path d="m267.3 279.853a6 6 0 0 1 -5.334-3.243c-1.066-2.06-2.168-4.137-3.276-6.174a6 6 0 0 1 10.542-5.732c1.146 2.107 2.288 4.258 3.392 6.391a6 6 0 0 1 -5.324 8.758z"/><path d="m296.664 406.879a6 6 0 0 1 -5.917-7.032c6.594-37.807-9.98-82.616-20.447-105.96a6 6 0 0 1 10.951-4.91c24.405 54.434 25.063 91.458 21.317 112.932a6 6 0 0 1 -5.904 4.97z"/></g></svg>