<svg id="Layer_1" height="512" viewBox="0 0 512 512" width="512" xmlns="http://www.w3.org/2000/svg" data-name="Layer 1"><path d="m206.91 76.78c-49.61 7.85-61.11 50.74-45.98 110.08a184.155 184.155 0 0 1 3.62 18.25h.01c9.52-13.92 6.29-41.49 17.77-74.33s46.11-29.43 46.11-29.43h.01l13.77 3.64c13.71 4.8 21.56 9.89 25.36 12.84l10.12-12.01s-25.4-36.23-70.79-29.04z" fill="#d2a472"/><path d="m227.48 145.65c26.22 3.72 51.04-.43 51.04-.43l-10.94-27.39c-3.8-2.95-11.65-8.04-25.36-12.84l-13.77-3.64h-.01s-34.62-3.41-46.11 29.43-8.25 60.41-17.77 74.33h-.01c5.07 33.92 2.38 75.04-29.03 51.09-37.27-28.42-84.7-26.5-102.42-24.56a7.99 7.99 0 0 0 -7.1 7.95v188.58a8 8 0 0 0 8.71 7.96c265.6-22.89 192.95-191.38 172.2-232.49-8.47-16.78-17.84-63.45 20.57-57.99z" fill="#bf9b77"/><path d="m277.7 105.82-16.59 19.69 17.41 19.71c161.93 48.64 207.48-10.15 207.48-10.15-106.62 23.98-208.3-29.25-208.3-29.25z" fill="#6d7486"/><path d="m26 281.43s135.3-25.04 134.98 36.26c-.29 56.59-134.98 64.67-134.98 64.67z" fill="#3f301c"/><path d="m205.91 98.78c29.033-4.6 49.887 8.566 61.147 18.653.178.134.36.27.523.4l10.12-12.01s-25.4-36.23-70.79-29.04c-38.334 6.066-53.9 33.065-52.018 72.4 4.241-27.274 20.332-45.547 51.018-50.403z" fill="#a88460"/><path d="m158.68 329.8a33.6 33.6 0 0 0 2.3-12.113c.32-61.297-134.98-36.257-134.98-36.257v21.823c11.482-1.988 119.642-19.422 132.68 26.547z" fill="#261d10"/><path d="m32.1 253.64c17.72-1.94 65.15-3.86 102.42 24.56 25.788 19.663 32.215-4.536 30.884-32.6-2.863 16.249-11.4 24.7-29.884 10.6-37.27-28.42-84.7-26.5-102.42-24.56a7.99 7.99 0 0 0 -7.1 7.95v18.138a7.964 7.964 0 0 1 6.1-4.088z" fill="#a38061"/><path d="m234.85 97.63a7.355 7.355 0 1 1 -7.37 7.36 7.28 7.28 0 0 1 .97-3.64 7.357 7.357 0 0 1 6.4-3.72z" fill="#5d5d5d"/><g fill="#f4f8fc"><path d="m207.584 277.723a6 6 0 0 1 -5.915-5.037 214.582 214.582 0 0 0 -13.68-46.934 6 6 0 0 1 11.1-4.572 226.6 226.6 0 0 1 14.428 49.577 6 6 0 0 1 -4.957 6.887 6.066 6.066 0 0 1 -.976.079z"/><path d="m186.429 213.687a6 6 0 0 1 -5.394-3.363q-.777-1.587-1.481-2.981a6 6 0 0 1 10.713-5.406q.733 1.452 1.545 3.11a6 6 0 0 1 -5.383 8.64z"/></g></svg>