<svg id="Layer_1" height="512" viewBox="0 0 512 512" width="512" xmlns="http://www.w3.org/2000/svg" data-name="Layer 1"><path d="m370.75 214.735c-11.07-14.78 7.9-19.54 7.9-19.54l52.72-38.54s6.85-128.97-133.9-124.08-199.79 220.03-199.79 220.03l175.64 164.6 146.9 61.7a8.513 8.513 0 0 0 10.02-2.67c92.45-118.96-48.58-246.93-59.49-261.5z" fill="#f2d57c"/><path d="m456.49 196.715c18.93 13.96 38.57 34.35 21.43 50.45 0 0-4.76-9.13-24.29-15.75-37.47-12.69-74.98-36.22-74.98-36.22s3.81-15.41 17.01-18.2 9.11-12.1 16.53-16.99c4.4-2.9 19.18-3.35 19.18-3.35s6.19 26.11 25.12 40.06z" fill="#e18c5b"/><path d="m353.86 65.945c53.85 11.23 57.04 87.41 9.91 76.58-26.19-6.02-67.8-29.71-113.81-13.63-45.64 15.94-120.14 85.96-121.31 87.06 91.04-155.39 173.67-160.755 225.21-150.01z" fill="#f3f3e6"/><path d="m355.91 102.205a13.955 13.955 0 1 1 -13.93 13.96 13.947 13.947 0 0 1 13.93-13.96z" fill="#6f6970"/><path d="m317.47 52.575c41.071-1.427 69.557 8.553 89.33 23.391-18.727-24.889-51.613-45.4-109.33-43.391-140.75 4.89-199.79 220.03-199.79 220.03l20.281 19.006c4.539-15.76 64.347-214.341 199.509-219.036z" fill="#bca45e"/><path d="m97.68 252.605c66.52-26.91 260.75-28.37 195.15 130.96a155.959 155.959 0 0 1 -19.51 33.64l-243.62-102.32a8.486 8.486 0 0 1 -2.74-13.8c18.55-18.76 42.1-36.9 70.72-48.48z" fill="#6d7486"/><path d="m46.96 321.085c18.55-18.76 42.1-36.9 70.72-48.48 40.564-16.41 128.616-23.355 176.282 9.852-37.117-55.257-148.983-48.987-196.282-29.852-28.62 11.58-52.17 29.72-70.72 48.48a8.486 8.486 0 0 0 2.74 13.8l16.591 6.968a8.712 8.712 0 0 1 .669-.768z" fill="#505560"/><path d="m431.58 195.091a5.984 5.984 0 0 1 -4.487-2.015l-3.208-3.61a6 6 0 1 1 8.97-7.97l3.207 3.609a6 6 0 0 1 -4.482 9.986z" fill="#b57352"/><g fill="#f4f8fc"><path d="m347.028 238.754a5.984 5.984 0 0 1 -4.475-2q-1.82-2.036-3.5-3.874a6 6 0 0 1 8.873-8.079q1.707 1.875 3.568 3.955a6 6 0 0 1 -4.47 10z"/><path d="m421.466 392.335a6 6 0 0 1 -6-5.881c-.83-41.688-20.773-86.7-59.272-133.783a6 6 0 0 1 9.29-7.6c40.241 49.215 61.095 96.7 61.98 141.141a6 6 0 0 1 -5.879 6.118z"/></g></svg>