<svg id="Layer_1" height="512" viewBox="0 0 512 512" width="512" xmlns="http://www.w3.org/2000/svg" data-name="Layer 1"><path d="m408.29 98.405c-1.68-40.17-79.48-72.95-137.74-46.03-45.15 20.86-64.53 64.02-78.67 94.76-12.45 27.039-13.95 51.92-41.77 63.01-65.38 26.055-107.87 68.655-124.58 87.72a10.151 10.151 0 0 0 2.79 15.63l284.82 154.72a10.257 10.257 0 0 0 9.6.07c50.13-26 70.5-94.44 57.91-183.9-8.91-63.36 4.16-82.84 4.46-83.29l.01-.01c24.41-20.49 26.31-57.65 26.31-57.65z" fill="#d8be93"/><path d="m334.57 94.7a17.87 17.87 0 1 1 -17.93 17.87 17.9 17.9 0 0 1 17.93-17.87z" fill="#706972"/><path d="m483 121.845c-26.91-6.88-71.57 21.59-71.57 21.59l-10.79-19.39c19.58-7.74 45.36-15.445 82.36-2.2z" fill="#4a5160"/><path d="m274.33 234.405c76.79 15.6 58.91 123.12-43.28 189.21l-181.68-98.68c46.65-36.02 149.15-105.93 224.96-90.53z" fill="#615947"/><path d="m483 121.845c-37-13.25-62.78-5.54-82.36 2.2l7.65-25.64s47.8-11.62 74.71 23.44z" fill="#6d7486"/><path d="m45.53 317.865c16.71-19.07 59.2-61.67 124.58-87.72 27.82-11.09 29.32-35.971 41.77-63.01 14.14-30.74 33.52-73.9 78.67-94.76 38-17.557 84.3-9.717 112.381 9-18.73-31.47-82.665-51.974-132.381-29-45.15 20.86-64.53 64.02-78.67 94.76-12.45 27.039-13.95 51.92-41.77 63.01-65.38 26.055-107.87 68.655-124.58 87.72a10.151 10.151 0 0 0 2.79 15.63l15.1 8.2a10.1 10.1 0 0 1 2.11-3.83z" fill="#af9877"/><path d="m294.33 254.405a68.724 68.724 0 0 1 20.277 7.367c-7.473-13.57-20.836-23.418-40.277-27.367-75.81-15.4-178.31 54.51-224.96 90.53l27 14.664c49.303-37.118 145.742-99.865 217.96-85.194z" fill="#4c4537"/><g fill="#f4f8fc"><path d="m258.22 268.875a6 6 0 0 1 -.56-11.973c1.854-.177 3.746-.322 5.622-.432a6 6 0 0 1 .705 11.979c-1.734.1-3.48.236-5.192.4q-.29.027-.575.026z"/><path d="m126.6 321.1a6 6 0 0 1 -3.171-11.1c41.546-25.8 79.515-42.528 112.851-49.73a6 6 0 1 1 2.538 11.73c-31.988 6.912-68.68 23.128-109.055 48.2a5.978 5.978 0 0 1 -3.163.9z"/></g></svg>