<svg id="Layer_1" height="512" viewBox="0 0 512 512" width="512" xmlns="http://www.w3.org/2000/svg" data-name="Layer 1"><path d="m217.73 74.62c-72.6 19.24-41.47 126.21-79.75 148.13a24.169 24.169 0 0 1 -6.34 2.38l2.37 159.55 52.28 50.98a18.033 18.033 0 0 0 19.33 3.8c101.55-40.9 81.84-189.41 72.39-224.25-9.79-36.08 20.22-34.26 20.22-34.26l6.67-52.76s-12.45-73.37-87.17-53.57z" fill="#dcdadd"/><path d="m246.04 106.85a8.845 8.845 0 1 1 -8.86 8.84 8.847 8.847 0 0 1 8.86-8.84z" fill="#706872"/><path d="m487.76 251.66-189.53-70.71-19.07-29.27c17.52-4.72 25.74-23.49 25.74-23.49z" fill="#d6a454"/><path d="m217.73 74.62c-72.6 19.24-41.47 126.21-79.75 148.13a24.169 24.169 0 0 1 -6.34 2.38l20 20a24.169 24.169 0 0 0 6.34-2.38c38.28-21.92 7.15-128.89 79.75-148.13 24.754-6.559 42.668-2.889 55.564 4.947-11.572-18.035-33.872-35.995-75.564-24.947z" fill="#b8b1bc"/><path d="m131.64 225.13c79.87 30.08 64.75 111.05 2.37 159.55l-105.55-102.9a14.015 14.015 0 0 1 .3-20.34c42.6-39.26 82.61-31.39 102.88-36.31z" fill="#403e4a"/><path d="m131.64 225.13c-20.27 4.92-60.28-2.95-102.88 36.31a14.015 14.015 0 0 0 -.3 20.34l18.015 17.563a14.016 14.016 0 0 1 2.285-17.9c33.8-31.153 65.975-32.631 87.949-34.371a59.614 59.614 0 0 1 38.544 10.178l.2.14c-8.764-13.211-23.081-24.452-43.813-32.26z" fill="#31303a"/><g fill="#f4f8fc"><path d="m259.366 247.729a6 6 0 0 1 -5.963-5.4q-.31-3.066-.662-5.981a6 6 0 0 1 11.914-1.43q.363 3.02.688 6.2a6 6 0 0 1 -5.977 6.605z"/><path d="m241.522 377.24a6 6 0 0 1 -5.362-8.686c17.305-34.591 19.726-76.067 18.709-104.77a6 6 0 0 1 11.992-.425c1.067 30.1-1.533 73.712-19.968 110.564a6 6 0 0 1 -5.371 3.317z"/></g></svg>