<svg id="Layer_1" height="512" viewBox="0 0 512 512" width="512" xmlns="http://www.w3.org/2000/svg" data-name="Layer 1"><path d="m319.38 40.78c-36.57-21.89-92.53-5.57-109.71 36.5-21.24 52.03 4.07 78.65-41.44 80.27-44.39 1.59-113.52-3.78-141.02 38.1a7.58 7.58 0 0 0 -.74 6.74l98.94 273.46a7.693 7.693 0 0 0 8.6 4.97c167.85-30.5 159.33-167.67 156.93-239.74-2.44-72.98 26-70.23 26-70.23l44.82-32.14s9.91-66.62-42.38-97.93z" fill="#9f6d41"/><path d="m318.72 103.96a8.635 8.635 0 1 1 -8.65 8.64 8.653 8.653 0 0 1 8.65-8.64z" fill="#706872"/><path d="m486 394.97s-116.96-188.37-169.06-224.12c3.28-6.72 11.04-26.91 11.04-26.91l33.78-5.23s102.07 151.88 124.24 256.26z" fill="#d6a454"/><path d="m36.21 224.65c27.5-41.88 96.63-36.51 141.02-38.1 45.51-1.62 20.2-28.24 41.44-80.27 17.18-42.07 73.14-58.39 109.71-36.5a83.013 83.013 0 0 1 32.489 35.536c-3.478-21.285-13.7-47.9-41.489-64.536-36.57-21.89-92.53-5.57-109.71 36.5-21.24 52.03 4.07 78.65-41.44 80.27-44.39 1.59-113.52-3.78-141.02 38.1a7.58 7.58 0 0 0 -.74 6.74l8.81 24.351a7.257 7.257 0 0 1 .93-2.091z" fill="#704c30"/><g fill="#f4f8fc"><path d="m214.445 409.125a6 6 0 0 1 -4.3-10.183c26.381-27.128 41.222-63.92 45.37-112.474a6 6 0 1 1 11.957 1.021c-4.394 51.43-20.331 90.622-48.724 119.819a5.983 5.983 0 0 1 -4.303 1.817z"/><path d="m262.735 268.331h-.115a6 6 0 0 1 -5.886-6.112q.06-3.153.076-6.251a6 6 0 0 1 6-5.966h.034a6 6 0 0 1 5.967 6.033q-.018 3.174-.078 6.41a6 6 0 0 1 -5.998 5.886z"/></g></svg>