<svg id="Layer_1" height="512" viewBox="0 0 512 512" width="512" xmlns="http://www.w3.org/2000/svg" data-name="Layer 1"><path d="m366.1 53.542a11.592 11.592 0 0 0 -8.564-2.632 11.717 11.717 0 0 0 -3.361.831c-10.879 3.488-21.76 19.479-27.206 30.773-.549-9.235 1.57-20.718 4.554-28.806a11.687 11.687 0 0 0 16.989-6.443 11.729 11.729 0 0 0 -7.425-14.791 11.705 11.705 0 0 0 -11.787 2.671c-9.2 7.537-14.914 30.026-14.365 46.617-4.878-7.575-7.622-23.105-7.249-34.057a11.711 11.711 0 1 0 -7.866-16.956c-8.529 13.352-3.279 50.7 8.946 62.332l6.491-6.823c.075.649.157 1.289.255 1.908l11.851-1.876c-.059-.375-.109-.76-.157-1.146l9.752 4.344a79.024 79.024 0 0 1 12.537-19.633 11.676 11.676 0 0 0 9.132 4.425c.375 0 .753-.018 1.132-.054a11.612 11.612 0 0 0 7.913-4.208 11.74 11.74 0 0 0 -1.572-16.476zm-28.836-10.207a.337.337 0 0 1 .243-.018.285.285 0 0 1 .189.359.31.31 0 0 1 -.147.17.338.338 0 0 1 -.242.017.285.285 0 0 1 -.191-.359.316.316 0 0 1 .148-.169zm-27.129-7.367a.289.289 0 1 1 -.305.289.3.3 0 0 1 .305-.289zm48.751 26.778a.2.2 0 0 1 -.021.022l-.458-.378a.331.331 0 0 1 .209-.11h.028a.339.339 0 0 1 .2.071.279.279 0 0 1 .042.395z" fill="#4a5160"/><path d="m351.69 239.85c-32.19-35.15-23-63.93-23-63.93 24.09 3.93 44.84-11.56 44.84-11.56l12.02-36.28s-14.69-42.38-54.07-45.03a59.663 59.663 0 0 0 -10.04.18c-.26.02-.52.05-.79.08a54.583 54.583 0 0 0 -7.75 1.42c-31.48 8.12-43.39 41.29-43.39 41.29s-16.27 38.34 3.72 88.17c30.61 76.3 44.67 93.79 40.85 119.5a11.492 11.492 0 0 1 -14.74 9.3c-29.08-8.96-55.62-12.02-79.59-11.03q-7.14.3-13.99 1.06l79.42 134.02 95.85 18.2a12.023 12.023 0 0 0 11.62-4.29c65.91-82.49-9.5-206.73-40.96-241.1z" fill="#4b72d1"/><path d="m385.55 128.08s51.48 18.52 61.23 69.91c-24.39-22.07-73.25-33.63-73.25-33.63l-2.83-20.29z" fill="#efbb48"/><path d="m334.65 113.93a10.07 10.07 0 1 1 -10.04 10.07 10.055 10.055 0 0 1 10.04-10.07z" fill="#f98282"/><path d="m331.48 83.05a59.663 59.663 0 0 0 -10.04.18c-.26.02-.52.05-.79.08a54.583 54.583 0 0 0 -7.75 1.42c-31.48 8.12-43.39 41.29-43.39 41.29s-16.27 38.34 3.72 88.17c30.61 76.3 44.67 93.79 40.85 119.5a11.492 11.492 0 0 1 -14.74 9.3c-29.08-8.96-55.62-12.02-79.59-11.03q-7.14.3-13.99 1.06l20 20q6.84-.765 13.99-1.06c23.97-.99 50.51 2.07 79.59 11.03a11.492 11.492 0 0 0 14.74-9.3c3.82-25.71-10.24-43.2-40.85-119.5-19.99-49.83-3.72-88.17-3.72-88.17s11.91-33.17 43.39-41.29a54.583 54.583 0 0 1 7.75-1.42c.27-.03.53-.06.79-.08a59.663 59.663 0 0 1 10.04-.18 53.238 53.238 0 0 1 25.3 8.307c-8.227-12.173-22.694-26.786-45.3-28.307z" fill="#4940bf"/><path d="m205.76 333.02c86.52-4.38 119.27 81.86 79.42 134.02l-210.18-39.9a12 12 0 0 1 -6.87-19.61c18.69-21.6 58.47-58.91 118.55-71.48q9.195-1.92 19.02-3.03z" fill="#3a895a"/><path d="m88.13 427.53c18.69-21.6 58.47-58.92 118.55-71.49 6.13-1.28 12.47-2.04 19.02-3.04h.06c25.079-1 45.629 5.085 61.214 16.006-15.674-22.418-43.274-38.006-81.214-36.006h-.06c-6.55 1-12.89 1.76-19.02 3.04-60.08 12.57-99.86 49.885-118.55 71.485a12 12 0 0 0 6.87 19.612l11.813 2.244a12.167 12.167 0 0 1 1.317-1.851z" fill="#bfd156"/><g fill="#f4f8fc"><path d="m385.238 452.941a6 6 0 0 1 -5.636-8.057c9.84-27 9.7-58.744-.421-94.364a6 6 0 1 1 11.543-3.28c10.825 38.1 10.877 72.336.151 101.755a6 6 0 0 1 -5.637 3.946z"/><path d="m378.453 335.115a6 6 0 0 1 -5.623-3.906q-.954-2.559-1.952-5.084a6 6 0 0 1 11.162-4.407q1.038 2.631 2.034 5.3a6 6 0 0 1 -5.621 8.1z"/></g></svg>