<svg id="Layer_1" height="512" viewBox="0 0 512 512" width="512" xmlns="http://www.w3.org/2000/svg" data-name="Layer 1"><path d="m307.67 98.99c-66.59-41.47-104.45-11.99-104.45-11.99-17.02 19.99-31.06 48.84-39.21 89.8-3.2 16.09-6.33 20.98-14.88 24.03v.01l20.94 192.26 8.24 7.78h.01c113.25-26.59 217.54-118 217.57-186.91v-.02l4.54-83.34a5.782 5.782 0 0 1 .62-2.91c-5.22 4.71-25.59 13.5-93.38-28.71z" fill="#efd8ca"/><path d="m203.22 87c-17.02 19.99-31.125 48.84-39.275 89.8-3.2 16.09-5.945 20.98-14.945 24.03v.17l20 20v-.17c9-3.05 11.745-7.94 14.945-24.03 8.15-40.96 22.255-69.81 39.275-89.8a114.772 114.772 0 0 1 35.567-28.341c-35.904-6.964-55.567 8.341-55.567 8.341z" fill="#d1baae"/><path d="m402.64 125.77a5.627 5.627 0 0 0 -1.59 1.93c-5.22 4.71-25.59 13.5-93.38-28.71-66.59-41.47-104.45-11.99-104.45-11.99 35.73-41.98 84.61-44.9 119.75-38.81 72.76 12.62 79.67 77.58 79.67 77.58z" fill="#d79c7a"/><path d="m420.84 223.79-24.95-9.82c-.03 68.91-104.32 160.32-217.57 186.91l67.54 63.71a5.95 5.95 0 0 0 6.06 1.29c225.36-79.28 168.92-242.09 168.92-242.09z" fill="#d79c7a"/><path d="m431.93 184.83a58.8 58.8 0 0 1 26.4-5.55s-.34 30.29-37.49 44.51a94.576 94.576 0 0 1 -13.45 4.01 6.281 6.281 0 0 1 -7.06-3.4c-1.28-2.69-2.93-6.39-4.44-10.43v-.02c-3.2-8.56-5.76-18.62-2.73-23.79 7.43 1.75 21.47 3 38.77-5.33z" fill="#eaa63f"/><path d="m486 184.83a77.513 77.513 0 0 0 -27.67-5.55 58.8 58.8 0 0 0 -26.4 5.55c-17.3 8.33-31.34 7.08-38.77 5.33a9.746 9.746 0 0 1 -7.37-7.7 39.916 39.916 0 0 1 7.64-32.11c6.07-7.91 7.22-14.94 7-19.74a5.782 5.782 0 0 1 .62-2.91 6.852 6.852 0 0 0 1.59-1.93 5.641 5.641 0 0 1 4.15-1.18c18.63 2.03 65.46 11.94 79.21 60.24z" fill="#f5c543"/><path d="m305.88 135.56a17.025 17.025 0 1 1 -17.09 17.02 17.061 17.061 0 0 1 17.09-17.02z" fill="#706972"/><path d="m350.15 207.33c-.12-3.49-.75-5.76-2.61-6.07-36.39-6.03-60.94 7.6-101.98-31.65-13.65-13.06-7.64 48.66-7.64 48.66l25.22 67.88s26.14-25.4 59.54-38.1a42.384 42.384 0 0 0 27.47-40.72z" fill="#d79c7a"/><path d="m237.92 218.27c21.49 14.74 32.92 38.19 25.22 67.88-6.67 25.74-27.74 56.17-69.11 89.67a262.283 262.283 0 0 1 -23.96 17.28l-142.21-134.14a5.954 5.954 0 0 1 .92-9.36 345.855 345.855 0 0 1 31.81-18.25c52.23-25.49 76.11-26.07 88.54-30.52v.01c15.62-1.58 39.38-.21 53.38 2.78 13.36 2.85 25.46 7.81 35.41 14.65z" fill="#d18b61"/><path d="m258.787 78.659c28.678-14.576 59.751-14.7 84.183-10.469 18.13 3.144 32.163 9.536 43.03 17.363-11.516-15.927-30.815-31.775-63.03-37.363-35.14-6.09-84.02-3.17-119.75 38.81 0 0 19.663-15.305 55.567-8.341z" fill="#bc8062"/><path d="m48.78 269.6a345.656 345.656 0 0 1 31.745-18.25c52.23-25.49 76.475-26.07 88.475-30.52v.01c16-1.58 39.445-.21 53.445 2.78a99.758 99.758 0 0 1 34.383 13.965 66.482 66.482 0 0 0 -18.928-19.315c-9.95-6.84-22.107-11.8-35.467-14.65-14-2.99-37.437-4.36-53.437-2.78v-.01c-12 4.45-36.245 5.03-88.475 30.52a345.753 345.753 0 0 0 -31.773 18.25 5.953 5.953 0 0 0 -.9 9.36l18.387 17.34a5.957 5.957 0 0 1 2.545-6.7z" fill="#a56b4e"/><g fill="#f4f8fc"><path d="m164.061 363.42a6 6 0 0 1 -3.934-10.532c1.74-1.51 3.473-3.043 5.15-4.56a6 6 0 1 1 8.047 8.9c-1.738 1.571-3.532 3.16-5.333 4.722a5.974 5.974 0 0 1 -3.93 1.47z"/><path d="m185.146 343.384a6 6 0 0 1 -4.345-10.137c22.963-24.127 36.248-47.954 38.421-68.9a6 6 0 1 1 11.936 1.238c-2.484 23.95-16.5 49.5-41.664 75.94a5.987 5.987 0 0 1 -4.348 1.859z"/></g></svg>