<svg id="Layer_1" height="512" viewBox="0 0 512 512" width="512" xmlns="http://www.w3.org/2000/svg" data-name="Layer 1"><path d="m443.34 114.01a2.853 2.853 0 0 0 -5.42.99c-1.06 12.65-3.49 33.6-8.39 40.72a.744.744 0 0 1 -1.36-.5c.69-6.06-7.12-45.04-36.23-55.81a1.685 1.685 0 0 0 -2.1 2.32c4.38 8.84 14.8 31.51 9.45 37.17 0 0-15.61-33.15-67.61-31.29-57.65 2.07-115.87-34.22-118-78.5a3.281 3.281 0 0 0 -5.49-2.25c-8.23 7.47-19.84 41.34 14.67 77.87-47.35-25.15-64.59-75.37-64.59-75.37s-47.6 84.97 79.41 118.84c-21.76-2.32-81.96-7.46-124.88-56.88-21.63 70.22 52.35 86.57 102.58 89.25v.07c-59.3 6.7-93.78-7.81-93.78-7.81 13.48 33.41 39.53 43.27 62.87 44.54 0 0-27.26 36.99-15.77 89.37l52.62 161.21 94.38 17.82a13.365 13.365 0 0 0 10.63-2.55c16.88-12.99 70.78-59.83 61.54-121.68-5.32-35.59-14.19-45.98-5.41-68.2l38.02-79.44a47.1 47.1 0 0 0 13.77-9.49 43.48 43.48 0 0 0 7.16-9.3c9.41-16.37 18.87-45.05 1.93-81.1z" fill="#cacbcd"/><path d="m434.25 204.41c72.32 65.37-10.31 96.36-10.31 96.36a30.4 30.4 0 0 0 .06-14.11c-2.52-10.76-12.11-24.2-43.61-27.03 6.09-26.55 27.38-39.95 40.09-45.73a47.1 47.1 0 0 0 13.77-9.49z" fill="#6b6a70"/><path d="m424 286.66h-.01s-11.5 11.05-38.23 8.03a6.51 6.51 0 0 1 -3.3-1.35 6.714 6.714 0 0 1 -2.51-4.19 75.206 75.206 0 0 1 .44-29.52c31.5 2.83 41.09 16.27 43.61 27.03z" fill="#525254"/><path d="m301.24 217.52a28.935 28.935 0 1 1 -28.9 28.94 28.916 28.916 0 0 1 28.9-28.94z" fill="#ebb647"/><path d="m358.66 182.43a18.275 18.275 0 1 1 -18.24 18.28 18.262 18.262 0 0 1 18.24-18.28z" fill="#706872"/><g fill="#b3b5b7"><path d="m252.86 104.73c-11.983-12.685-18.4-25.047-21.336-36.1-10.557-11.641-17.153-25.159-17.844-39.52a3.281 3.281 0 0 0 -5.49-2.25c-3.855 3.5-8.451 12.79-8.7 25.432 9.91 16.565 26.948 38.408 53.37 52.438z"/><path d="m214.47 217.383c-21.421-1.166-45.118-9.589-59.292-36.792-21.727-2.778-33.578-7.758-33.578-7.758 13.48 33.41 39.53 43.269 62.87 44.539 0 0-27.26 37.014-15.77 89.394l33 8c-11.49-52.381 12.77-97.383 12.77-97.383z"/><path d="m138.749 115.106a151.13 151.13 0 0 1 -26.234-23.786c-21.63 70.22 52.485 86.57 102.485 89.25l30 .43v-.43c-44-2.347-105.976-15.17-106.251-65.464z"/><path d="m179.9 122.273c35.286 21.013 71.843 24.228 87.78 25.927-71.071-18.953-87.466-53.9-88.124-81.017-15.107-19.836-21.286-37.823-21.286-37.823s-30.17 53.862 21.63 92.913z"/></g><path d="m240.91 353.18c25.36 45.58-2.58 93-19.59 114.77l-162.34-30.64a13.373 13.373 0 0 1 -10.32-17.01c8.73-28.71 36.42-92.14 114.16-112.44a47.24 47.24 0 0 1 5.88-1.12c25.84-3.18 54.96 15.45 72.21 46.44z" fill="#9a9a9e"/><path d="m88.98 437.31a13.373 13.373 0 0 1 -10.32-17.01c8.615-28.333 35.7-90.477 111.13-111.615a52.175 52.175 0 0 0 -21.09-1.945 47.24 47.24 0 0 0 -5.88 1.12c-77.74 20.3-105.43 83.73-114.16 112.44a13.373 13.373 0 0 0 10.32 17.01l162.34 30.64c1.194-1.528 2.444-3.188 3.723-4.96z" fill="#7c7c7f"/><g fill="#f4f8fc"><path d="m362.463 358.378a6 6 0 0 1 -5.964-5.414c-.148-1.509-.337-3.034-.561-4.533a6 6 0 1 1 11.868-1.776c.254 1.7.467 3.427.635 5.137a6 6 0 0 1 -5.384 6.557c-.2.02-.398.029-.594.029z"/><path d="m320.384 457.405a6 6 0 0 1 -4.274-10.211c16.485-16.728 36.859-43.473 40.308-75.886a6 6 0 1 1 11.933 1.269c-3.816 35.858-25.867 64.949-43.693 83.04a5.984 5.984 0 0 1 -4.274 1.788z"/></g></svg>