<svg enable-background="new 0 0 256 256" height="512" viewBox="0 0 256 256" width="512" xmlns="http://www.w3.org/2000/svg"><path d="m200.342 237.517c-1.088-.014-1.809-1.135-1.386-2.138l11.67-27.648c15.488-43.468-2.486-52.659-20.935-52.48 1.851 22.297-1.088 48.777-16.049 75.125-1.786 3.145-.929 7.031 1.979 9.303 1.823 1.425 3.803 3.223 5.418 5.304 2.428 3.128.533 7.397-3.148 8.326l.189.19h37.796c3.348-14.28-9.99-15.908-15.534-15.982z" fill="#f9bd55"/><path d="m66.309 155.252c-18.45-.179-36.423 9.011-20.935 52.48l11.67 27.648c.423 1.003-.297 2.123-1.386 2.138-5.544.074-18.882 1.702-15.533 15.982h37.795l.189-.19c-3.681-.929-5.576-5.198-3.148-8.326 1.615-2.081 3.595-3.879 5.418-5.304 2.907-2.272 3.764-6.158 1.979-9.303-14.961-26.348-17.9-52.828-16.049-75.125z" fill="#f9bd55"/><path d="m175.621 239.679c-2.907-2.272-3.764-6.158-1.979-9.303 16.306-28.717 18.338-57.588 15.443-81.023-1.634-13.227-7.477-25.551-16.469-35.335-3.274 2.834-6.994 5.356-11.082 7.492-.297.568-.621 1.127-.998 1.662-2.459 3.494-6.111 5.667-10.04 6.333l-.023.023c.235-.037.469-.072.702-.12-4.103 8.799-13.011 14.596-22.897 14.596-9.836 0-18.788-5.763-22.907-14.623-3.675-.789-7.058-2.912-9.378-6.209-.377-.536-.702-1.094-.999-1.663 0 0 0 .001.001.002-4.209-2.2-8.028-4.808-11.372-7.746-9.127 9.825-15.06 22.249-16.708 35.592-2.894 23.437-.862 52.307 15.443 81.021 1.786 3.145.928 7.031-1.979 9.303-1.823 1.425-3.803 3.223-5.418 5.304-2.738 3.527.017 8.516 4.637 8.516h26.778c2.996 0 5.349-2.175 5.638-4.851.009-.083.035-.162.04-.246.632.227 1.27.44 1.915.641.202.063.405.116.607.176.445.132.889.265 1.339.385.227.06.457.11.685.167.427.106.854.215 1.286.31.244.054.49.097.735.146.417.085.833.172 1.254.246.273.048.548.084.822.127.393.062.785.127 1.182.179.337.044.676.075 1.014.112.334.036.665.079 1.001.108.499.044.998.072 1.497.099.178.01.354.027.533.034 1.38.061 2.763.061 4.143 0 .198-.009.393-.027.591-.038.481-.027.962-.054 1.442-.096.329-.029.653-.07.98-.105.345-.038.691-.069 1.036-.115.386-.051.768-.115 1.151-.174.285-.044.57-.083.854-.132.411-.072.818-.157 1.225-.24.255-.052.51-.097.764-.152.426-.094.847-.201 1.269-.306.234-.058.469-.11.702-.172.451-.12.895-.253 1.34-.385.202-.06.406-.113.607-.176.645-.201 1.284-.415 1.917-.641.02.101.032.167.04.239.285 2.68 2.639 4.859 5.638 4.859h26.778c4.621 0 7.375-4.989 4.637-8.516-1.615-2.082-3.594-3.88-5.417-5.305z" fill="#f9bd55"/><path d="m181.039 244.983c-1.615-2.081-3.595-3.879-5.418-5.304-1.868-1.46-2.884-3.586-2.902-5.755-1.335.014-2.988.353-4.97 1.344-5.396 2.698-9.999-4.976-20.181-1.057-.156 2.026-.622 4.45-1.93 7.324-.841 1.849-1.631 4.647-1.653 7.104.285 2.68 2.639 4.859 5.638 4.859h26.778c4.621.001 7.376-4.988 4.638-8.515z" fill="#e3e4e5"/><path d="m110.362 241.536c-1.301-2.858-1.768-5.269-1.926-7.289-10.246-4.001-14.861 3.727-20.273 1.021-1.937-.969-3.563-1.316-4.882-1.345-.017 2.168-1.033 4.296-2.902 5.756-1.823 1.425-3.803 3.223-5.418 5.304-2.738 3.527.017 8.516 4.637 8.516h26.778c2.996 0 5.35-2.174 5.638-4.851-.022-2.587-.862-5.376-1.652-7.112z" fill="#e3e4e5"/><path d="m200.342 237.517c-.484-.006-.888-.238-1.158-.575-6.811 3.22-13.69 2.481-17.844-1.673-3.311-3.311-6.612-3.156-8.508-2.653-.472 2.594.543 5.31 2.788 7.064 1.823 1.425 3.803 3.223 5.418 5.304 2.428 3.128.533 7.397-3.148 8.326l.189.19h37.796c3.349-14.281-9.989-15.909-15.533-15.983z" fill="#e3e4e5"/><path d="m80.379 239.679c2.181-1.704 3.208-4.316 2.832-6.842-1.676-.615-5.45-1.345-9.227 2.432-4.058 4.058-10.718 4.854-17.374 1.887-.255.215-.58.357-.953.362-5.544.074-18.882 1.702-15.533 15.982h37.796l.189-.19c-3.681-.929-5.576-5.198-3.148-8.326 1.616-2.082 3.595-3.88 5.418-5.305z" fill="#e3e4e5"/><path d="m210.148 43.982c3.314-6.394 11.549-5.238 17.13-2.79 3.736 1.639 8.011 1.066 10.261-2.691 1.896-3.165 1.012-8.637-2.691-10.261-31.924-14.004-50.346 13.514-36.497 40.493 6.328 12.327 17.646 21.432 22.442 34.67 4.444 12.266 2.956 26.092-5.608 36.287-5.71 6.798-13.527 11.271-21.369 15.698 6.491.487 12.602 2.406 16.844 6.886 5.933-3.589 11.567-7.588 16.112-13.167 14.408-17.685 17.009-43.359-1.923-68.833-7.221-9.717-21.157-23.837-14.701-36.292z" fill="#f9bd55"/><g fill="#52565b"><path d="m177.98 195.816c-2.908 3.846-5.749 9.626 4.995 8.091.773-.11 1.456-.239 2.072-.38.68-2.322 1.278-4.632 1.811-6.93-.792-.67-1.676-1.304-2.523-1.859-2.072-1.357-4.861-.898-6.355 1.078z"/><path d="m185.035 172.455c-2.816-1.845-6.607-1.222-8.638 1.464-3.952 5.228-7.815 13.084 6.789 10.998 2.675-.382 4.626-.909 6.008-1.535.294-2.389.517-4.755.676-7.095-1.346-1.39-3.146-2.725-4.835-3.832z"/><path d="m224.85 80.275c-2.2-2.96-5.023-6.331-7.703-9.937-.661.403-1.258.93-1.751 1.582-3.952 5.228-7.815 13.084 6.789 10.998 1.565-.224 2.876-.498 3.977-.812-.428-.611-.858-1.221-1.312-1.831z"/><ellipse cx="164.49" cy="195" rx="4.5" ry="3.956" transform="matrix(.938 -.347 .347 .938 -57.448 69.2)"/><path d="m180.64 148.425-2.046 3.798c-1.459 2.708-.437 6.117 2.271 7.575l3.798 2.046c1.754.945 3.8.844 5.422-.077-.161-4.276-.506-8.426-.999-12.415-.123-.997-.278-1.986-.448-2.971l-.422-.227c-2.709-1.458-6.118-.436-7.576 2.271z"/><path d="m171.15 159.48-2.305-1.242c-1.644-.885-3.713-.265-4.598 1.378l-1.242 2.305c-.885 1.644-.265 3.713 1.378 4.598l2.305 1.242c1.644.885 3.713.265 4.598-1.378l1.242-2.305c.886-1.643.265-3.712-1.378-4.598z"/><path d="m168.568 210.372c-2.179-1.174-4.921-.351-6.095 1.827-1.174 2.179-.352 4.921 1.827 6.095 2.179 1.174 4.921.352 6.095-1.827 1.173-2.179.351-4.922-1.827-6.095z"/><path d="m178.912 127.712c-2.938-.195-5.863 1.725-6.498 4.267-.636 2.541 1.248 4.78 4.186 4.975 2.938.195 5.863-1.725 6.498-4.267.637-2.541-1.247-4.78-4.186-4.975z"/><path d="m220.417 143.093c-1.594-1.695-3.932-2.554-6.094-2.46-1.579 1.759-3.297 3.364-5.123 4.85.043 1.287.597 2.635 1.686 3.794 2.405 2.559 6.517 3.261 9.138 1.561 2.622-1.701 2.798-5.186.393-7.745z"/><path d="m233.912 109.712c-2.938-.195-5.863 1.725-6.498 4.267-.636 2.541 1.248 4.78 4.186 4.975 2.938.195 5.863-1.725 6.498-4.267.637-2.541-1.247-4.78-4.186-4.975z"/><path d="m201.336 211.844c-3.217 2.796-6.73 7.277 2.844 7.911.489.032.93.044 1.351.047l2.708-6.417c-.395-.457-.802-.903-1.21-1.313-1.543-1.553-4.04-1.665-5.693-.228z"/><path d="m210.829 204.366c.331.022.623.027.931.04 1.242-3.761 2.213-7.245 2.948-10.477-.002-.002-.004-.004-.005-.005-2.099-2.11-5.493-2.263-7.74-.31-4.373 3.8-9.148 9.891 3.866 10.752z"/><path d="m212.287 170.334-2.463 2.912c-1.756 2.076-1.494 5.212.582 6.968l2.912 2.464c.878.743 1.945 1.116 3.017 1.151.503-6.205-.154-11.135-1.648-15.042-.907.259-1.749.777-2.4 1.547z"/><path d="m204.023 182.193-1.794-1.517c-1.279-1.082-3.21-.92-4.292.358l-1.517 1.794c-1.082 1.279-.92 3.21.358 4.292l1.794 1.518c1.279 1.082 3.21.92 4.292-.358l1.517-1.794c1.082-1.28.92-3.211-.358-4.293z"/><path d="m230.023 130.193-1.794-1.517c-1.279-1.082-3.21-.92-4.292.358l-1.517 1.794c-1.082 1.279-.92 3.21.358 4.292l1.794 1.518c1.279 1.082 3.21.92 4.292-.358l1.517-1.794c1.082-1.28.92-3.211-.358-4.293z"/><path d="m54.664 211.844c-1.653-1.437-4.149-1.324-5.694.228-.408.41-.815.857-1.21 1.314l2.708 6.417c.421-.003.862-.015 1.351-.047 9.575-.635 6.062-5.116 2.845-7.912z"/><path d="m44.24 204.406c.308-.012.6-.018.931-.04 13.014-.861 8.239-6.952 3.866-10.753-2.247-1.953-5.64-1.8-7.74.31-.002.002-.004.004-.005.006.735 3.232 1.707 6.715 2.948 10.477z"/><path d="m42.683 182.677 2.912-2.464c2.076-1.756 2.338-4.891.582-6.968l-2.464-2.912c-.651-.77-1.493-1.288-2.4-1.548-1.494 3.907-2.151 8.837-1.648 15.042 1.073-.034 2.14-.407 3.018-1.15z"/><path d="m51.977 182.193 1.794-1.517c1.279-1.082 3.21-.92 4.292.358l1.517 1.794c1.082 1.279.92 3.21-.358 4.292l-1.794 1.518c-1.279 1.082-3.21.92-4.292-.358l-1.517-1.794c-1.082-1.28-.92-3.211.358-4.293z"/><path d="m78.02 195.816c-1.494-1.976-4.283-2.435-6.355-1.077-.847.555-1.731 1.188-2.522 1.858.532 2.298 1.13 4.608 1.811 6.93.616.141 1.299.269 2.072.379 10.743 1.536 7.902-4.245 4.994-8.09z"/><path d="m66.131 176.286c.16 2.34.382 4.707.676 7.097 1.382.626 3.332 1.153 6.007 1.535 14.604 2.086 10.742-5.771 6.789-10.998-2.031-2.686-5.822-3.31-8.638-1.464-1.689 1.106-3.488 2.441-4.834 3.83z"/><path d="m216.965 92.455c-.437.286-.88.588-1.322.902 2.043 3.143 3.843 6.438 5.15 10.045.215.594.404 1.194.591 1.795 11.538.814 7.919-6.384 4.218-11.278-2.03-2.686-5.821-3.309-8.637-1.464z"/><ellipse cx="91.51" cy="195" rx="3.956" ry="4.5" transform="matrix(.347 -.938 .938 .347 -123.128 213.154)"/><path d="m205.987 48.029c.898.332 1.813.462 2.691.423.238-1.507.707-3.001 1.469-4.471.783-1.511 1.848-2.589 3.081-3.339-.724-1.238-1.921-2.278-3.455-2.846-3.214-1.189-6.667.137-7.713 2.963-1.045 2.826.713 6.081 3.927 7.27z"/><path d="m71.337 161.846 3.798-2.046c2.708-1.459 3.73-4.868 2.271-7.575l-2.046-3.798c-1.459-2.708-4.868-3.729-7.575-2.271l-.421.227c-.171.986-.325 1.977-.449 2.974-.492 3.989-.838 8.138-.999 12.413 1.623.919 3.668 1.02 5.421.076z"/><path d="m198.352 68.733c.619 1.205 1.296 2.372 1.999 3.522.963-.377 1.836-1.014 2.482-1.912l2.522-3.501c1.798-2.496 1.227-6.008-1.269-7.806l-3.501-2.522c-1.947-1.403-4.504-1.346-6.392-.075.674 4.01 2.036 8.158 4.159 12.294z"/><path d="m84.85 159.48 2.305-1.242c1.644-.885 3.713-.265 4.598 1.378l1.242 2.305c.885 1.644.265 3.713-1.378 4.598l-2.305 1.242c-1.644.885-3.713.265-4.598-1.378l-1.242-2.305c-.886-1.643-.265-3.712 1.378-4.598z"/><path d="m87.432 210.372c2.179-1.174 4.921-.351 6.095 1.827 1.174 2.179.352 4.921-1.827 6.095-2.179 1.174-4.921.352-6.095-1.827-1.173-2.179-.351-4.922 1.827-6.095z"/><path d="m77.088 127.712c2.938-.195 5.863 1.725 6.498 4.267.636 2.541-1.248 4.78-4.186 4.975-2.938.195-5.863-1.725-6.498-4.267-.637-2.541 1.247-4.78 4.186-4.975z"/><path d="m234.848 28.24c-5.064-2.222-9.788-3.395-14.098-3.695-1.322 3.04-2.529 8.207-.158 14.807 2.337.256 4.681.961 6.684 1.84 3.736 1.639 8.011 1.066 10.261-2.691 1.898-3.165 1.014-8.637-2.689-10.261z"/></g><path d="m185.492 71.365c-1.398-3.895-2.338-7.938-2.579-12.069-.347-5.929-1.634-11.605-3.713-16.882-.186-.472-.126-1.005.156-1.427 12.871-19.238 6.989-32.053 3.85-36.684-.883-1.304-2.424-1.97-3.986-1.767-8.709 1.135-15.84 8.012-19.889 12.887-.594.715-1.609.863-2.4.374-8.339-5.154-18.155-8.132-28.667-8.132-10.655 0-20.592 3.064-29.002 8.347-.795.499-1.822.35-2.418-.374-4.014-4.885-11.225-11.95-20.065-13.102-1.562-.204-3.103.463-3.986 1.767-3.165 4.67-9.112 17.665 4.188 37.174.285.418.35.948.169 1.42-1.96 5.116-3.185 10.597-3.529 16.316-.25 4.158-1.176 8.229-2.583 12.149-1.398 3.894-2.146 7.996-2.146 12.233 0 15.775 10.352 29.684 26.102 37.915-2.741-5.249-2.115-11.752 1.47-16.617 4.356-5.911 12.078-8.132 18.846-5.585-1.011.69-1.62 1.614-1.62 2.874 0 4.474 7.472 10.801 14.574 10.801s14.573-6.327 14.573-10.801c0-1.261-.609-2.185-1.62-2.874 6.768-2.547 14.49-.326 18.846 5.585 3.585 4.865 4.211 11.369 1.47 16.617 15.751-8.231 26.103-22.14 26.103-37.915.001-4.236-.747-8.337-2.144-12.23z" fill="#f9bd55"/><ellipse cx="147.407" cy="25" fill="#52565b" rx="3.956" ry="4.5"/><path d="m132.637 10.5c0 3.314 2.362 6 5.275 6s5.275-2.686 5.275-6c0-.263-.02-.521-.049-.775-3.213-.909-6.547-1.527-9.97-1.833-.337.79-.531 1.672-.531 2.608z" fill="#52565b"/><ellipse cx="109.593" cy="25" fill="#52565b" rx="3.956" ry="4.5"/><path d="m113.813 10.5c0 3.314 2.362 6 5.275 6s5.275-2.686 5.275-6c0-.952-.2-1.849-.547-2.649-3.411.276-6.731.868-9.936 1.744-.04.296-.067.597-.067.905z" fill="#52565b"/><path d="m184.72 6.915-.19-.018s-12.53 6.263-17.803 21.37c-.199.571.279 1.157.881 1.09l6.667-.741c.532-.059.98.395.914.927l-.712 5.696c-.074.594.487 1.069 1.06.896l7.961-2.388c5.986-12.611 3.726-21.773 1.222-26.832z" fill="#e3e4e5"/><path d="m81.523 35.238-.712-5.696c-.066-.532.381-.986.914-.927l6.667.741c.601.067 1.08-.519.881-1.09-5.272-15.106-17.803-21.369-17.803-21.369l-.189.018c-2.503 5.06-4.754 14.224 1.232 26.835l7.949 2.385c.574.172 1.135-.303 1.061-.897z" fill="#e3e4e5"/><path d="m142.838 102.182c0 4.474-7.472 10.801-14.573 10.801s-14.573-6.327-14.573-10.801 7.472-4.819 14.573-4.819 14.573.345 14.573 4.819z" fill="#f98080"/><path d="m160.064 104.893c-4.356-5.911-12.078-8.132-18.846-5.585 1.011.69 1.62 1.614 1.62 2.874 0 4.474-7.472 10.801-14.573 10.801s-14.573-6.327-14.573-10.801c0-1.261.609-2.185 1.62-2.874-6.768-2.547-14.49-.326-18.846 5.585-3.973 5.391-4.326 12.802-.472 18.279 3.987 5.665 11.103 7.894 17.467 5.773l14.804-4.935 14.804 4.935c6.364 2.121 13.48-.108 17.467-5.772 3.855-5.478 3.501-12.888-.472-18.28z" fill="#e3e4e5"/><path d="m143.221 128.944-14.804-4.935-14.804 4.935c-2.717.906-5.569 1.012-8.258.403 4.007 8.652 12.762 14.657 22.924 14.657 10.138 0 18.877-5.977 22.897-14.596-2.601.533-5.34.408-7.955-.464z" fill="#e3e4e5"/><path d="m187.635 83.679c-3.173 5.83-10.872 16.319-27.101 21.901 3.158 4.779 3.614 10.924 1 15.93 15.723-8.216 26.064-22.091 26.101-37.831z" fill="#e3e4e5"/><path d="m94.995 121.51c-2.589-4.957-2.17-11.033.904-15.791-15.64-5.249-23.479-15.045-26.985-21.065.452 15.336 10.684 28.81 26.081 36.856z" fill="#e3e4e5"/><path d="m215.875 255.999h-37.795c-.667 0-1.305-.266-1.774-.739l-.189-.19c-.633-.637-.875-1.565-.634-2.43.24-.865.926-1.535 1.797-1.754 1.029-.26 1.874-1.016 2.203-1.972.202-.587.293-1.479-.419-2.397-1.275-1.643-2.951-3.28-4.981-4.867-3.9-3.047-4.999-8.307-2.614-12.507 12.649-22.276 17.941-47.067 15.731-73.683-.058-.692.175-1.377.644-1.891.468-.514 1.128-.809 1.823-.816 11.554-.089 19.836 3.265 24.662 10.037 6.62 9.291 6.167 24.694-1.347 45.782-.016.045-.033.089-.052.133l-11.127 26.362c4.334.238 10.843 1.427 14.492 6.093 2.574 3.292 3.252 7.636 2.016 12.911-.267 1.129-1.275 1.928-2.436 1.928zm-31.839-5h29.756c.352-2.818-.129-5.087-1.438-6.76-2.896-3.705-9.389-4.187-12.046-4.222-1.341-.018-2.58-.7-3.314-1.824-.738-1.129-.865-2.544-.341-3.786l11.642-27.582c6.911-19.423 7.571-33.263 1.961-41.135-3.465-4.862-9.471-7.512-17.871-7.893 1.717 26.597-3.852 51.417-16.57 73.813-1.169 2.059-.616 4.566 1.344 6.099 2.355 1.84 4.325 3.772 5.853 5.74 1.602 2.064 2.038 4.648 1.196 7.092-.052.155-.109.308-.172.458zm16.34-15.982h.002c-.001.001-.001 0-.002 0z"/><path d="m77.92 255.999h-37.795c-1.161 0-2.169-.799-2.434-1.929-1.237-5.274-.559-9.618 2.016-12.911 3.648-4.667 10.157-5.855 14.492-6.093l-11.127-26.362c-.019-.044-.036-.088-.052-.133-7.514-21.088-7.967-36.491-1.347-45.782 4.826-6.772 13.119-10.119 24.662-10.037.695.007 1.355.302 1.823.816s.701 1.199.644 1.891c-2.21 26.616 3.083 51.407 15.731 73.683 2.385 4.2 1.286 9.46-2.613 12.507-2.031 1.586-3.707 3.224-4.983 4.867-.712.917-.621 1.81-.418 2.396.33.957 1.174 1.712 2.204 1.972.871.22 1.558.89 1.797 1.756.24.866-.003 1.794-.637 2.431l-.189.19c-.471.473-1.109.738-1.774.738zm-35.712-5h29.756c-.062-.15-.12-.303-.173-.458-.842-2.443-.406-5.028 1.196-7.091 1.529-1.97 3.499-3.901 5.854-5.741 1.96-1.532 2.513-4.04 1.344-6.098-12.718-22.397-18.287-47.216-16.57-73.813-8.401.381-14.405 3.031-17.871 7.893-5.609 7.873-4.949 21.712 1.961 41.135l11.642 27.582c.524 1.242.397 2.658-.341 3.786-.734 1.124-1.974 1.806-3.314 1.824-2.658.035-9.15.517-12.047 4.222-1.309 1.672-1.79 3.941-1.437 6.759z"/><path d="m128.265 115.484c-7.979 0-17.074-7.086-17.074-13.302 0-7.319 10.688-7.319 17.074-7.319s17.073 0 17.073 7.319c0 6.216-9.095 13.302-17.073 13.302zm0-15.621c-8.012 0-12.074.78-12.074 2.319 0 2.903 6.206 8.302 12.074 8.302 5.867 0 12.073-5.398 12.073-8.302 0-1.538-4.062-2.319-12.073-2.319z"/><path d="m147.982 132.248c-1.896 0-3.819-.304-5.704-.932l-14.014-4.671-14.014 4.671c-7.55 2.517-15.708-.178-20.302-6.705-4.417-6.277-4.215-14.796.503-21.2 4.967-6.741 13.905-9.391 21.74-6.442.873.329 1.49 1.116 1.602 2.042.111.926-.303 1.837-1.074 2.363-.528.36-.528.599-.528.809 0 2.903 6.206 8.302 12.074 8.302 5.867 0 12.073-5.398 12.073-8.302 0-.21 0-.448-.528-.809-.771-.526-1.185-1.437-1.074-2.363s.729-1.714 1.602-2.042c7.834-2.947 16.772-.299 21.739 6.442 4.719 6.404 4.921 14.924.503 21.201-3.447 4.895-8.901 7.636-14.598 7.636zm-19.717-10.739c.267 0 .534.043.791.128l14.804 4.935c5.438 1.813 11.318-.131 14.632-4.839 3.178-4.515 3.001-10.687-.44-15.357-3.002-4.074-7.982-6.11-12.854-5.496.103.465.14.907.14 1.302 0 6.216-9.095 13.302-17.073 13.302-7.979 0-17.074-7.086-17.074-13.302 0-.396.037-.837.14-1.302-4.871-.614-9.852 1.422-12.853 5.496-3.441 4.67-3.618 10.841-.44 15.356 3.313 4.708 9.194 6.652 14.632 4.84l14.804-4.935c.256-.085.524-.128.791-.128z"/><path d="m128.265 126.414c-1.381 0-2.5-1.119-2.5-2.5v-9.184c0-1.381 1.119-2.5 2.5-2.5s2.5 1.119 2.5 2.5v9.184c0 1.38-1.119 2.5-2.5 2.5z"/><path d="m128.278 146.504c-10.772 0-20.661-6.322-25.193-16.106-.4-.865-.274-1.881.324-2.623.6-.741 1.568-1.077 2.497-.867 2.301.521 4.692.405 6.916-.336l14.804-4.935c.513-.171 1.068-.171 1.581 0l14.804 4.935c2.131.71 4.434.843 6.66.386.926-.193 1.879.158 2.465.899.585.742.703 1.75.304 2.606-4.544 9.745-14.42 16.041-25.162 16.041zm-18.353-14.313c4.239 5.766 11.048 9.312 18.353 9.312 7.31 0 14.13-3.556 18.369-9.334-1.433-.113-2.85-.398-4.217-.854l-14.014-4.671-14.014 4.671c-1.453.485-2.958.778-4.477.876z"/><path d="m117.867 99.61c-.396 0-.798-.094-1.173-.293-1.219-.649-1.681-2.163-1.032-3.382 3.064-5.756 3.992-12.199 2.759-19.149-.241-1.359.665-2.657 2.025-2.898 1.356-.243 2.657.665 2.898 2.025 1.413 7.964.283 15.7-3.268 22.372-.45.843-1.315 1.325-2.209 1.325z"/><path d="m138.663 99.61c-.894 0-1.759-.481-2.209-1.326-3.551-6.672-4.681-14.408-3.268-22.372.241-1.36 1.539-2.269 2.898-2.025 1.36.241 2.266 1.539 2.025 2.898-1.233 6.95-.305 13.393 2.759 19.149.648 1.219.187 2.733-1.032 3.382-.375.2-.777.294-1.173.294z"/><path d="m95.163 72.6c-1.377 0-2.496-1.114-2.5-2.492-.015-4.793 3.872-8.705 8.664-8.721 4.84.002 8.706 3.872 8.721 8.665.004 1.381-1.111 2.504-2.492 2.508-.003 0-.006 0-.008 0-1.377 0-2.496-1.114-2.5-2.492-.007-2.036-1.659-3.67-3.705-3.681-2.036.007-3.687 1.669-3.68 3.705.004 1.381-1.111 2.503-2.492 2.508-.003 0-.006 0-.008 0z"/><path d="m148.981 72.6c-1.377 0-2.496-1.114-2.5-2.492-.015-4.793 3.872-8.705 8.665-8.721h.028c4.781 0 8.677 3.881 8.693 8.665.004 1.381-1.111 2.504-2.492 2.508-.003 0-.006 0-.008 0-1.377 0-2.496-1.114-2.5-2.492-.007-2.032-1.662-3.681-3.693-3.681-.004 0-.008 0-.012 0-2.036.007-3.687 1.669-3.681 3.705.004 1.381-1.111 2.503-2.492 2.508-.002 0-.005 0-.008 0z"/><path d="m149.872 111.49c-1.047 0-2.022-.662-2.371-1.71-.437-1.31.271-2.726 1.581-3.162l10.332-3.444c1.308-.437 2.725.271 3.162 1.581s-.271 2.726-1.581 3.162l-10.332 3.444c-.263.087-.529.129-.791.129z"/><path d="m161.355 121.822c-.092 0-.185-.005-.279-.015l-10.332-1.148c-1.372-.153-2.361-1.389-2.208-2.761.152-1.372 1.381-2.356 2.761-2.208l10.332 1.148c1.372.153 2.361 1.389 2.208 2.761-.142 1.277-1.225 2.223-2.482 2.223z"/><path d="m107.396 111.49c-.262 0-.529-.042-.791-.129l-10.332-3.444c-1.31-.437-2.018-1.852-1.581-3.162s1.854-2.016 3.162-1.581l10.332 3.444c1.31.437 2.018 1.852 1.581 3.162-.349 1.047-1.325 1.71-2.371 1.71z"/><path d="m95.913 121.822c-1.257 0-2.34-.945-2.482-2.224-.152-1.373.836-2.608 2.208-2.761l10.332-1.148c1.373-.148 2.608.836 2.761 2.208.152 1.373-.836 2.608-2.208 2.761l-10.332 1.148c-.094.011-.187.016-.279.016z"/><path d="m176.401 255.999h-26.778c-3.213 0-6.012-1.791-7.35-4.416-9.266 2.783-19.281 2.783-28.547 0-1.338 2.624-4.139 4.416-7.349 4.416h-26.778c-3.211 0-6.062-1.746-7.437-4.555-1.303-2.662-.995-5.65.825-7.994 1.528-1.968 3.497-3.9 5.854-5.741 1.96-1.532 2.513-4.04 1.344-6.098-14.141-24.902-19.439-52.68-15.75-82.562 1.705-13.809 7.707-26.599 17.357-36.987.921-.992 2.465-1.069 3.481-.176 3.193 2.806 6.831 5.286 10.811 7.373.467.226.868.598 1.126 1.093.279.535.55.987.828 1.382 1.879 2.669 4.67 4.518 7.858 5.203.767.165 1.412.679 1.742 1.39 3.722 8.005 11.824 13.177 20.64 13.177 7.664 0 14.791-3.91 18.967-10.19-.335-.391-.554-.888-.596-1.44-.103-1.373.923-2.571 2.296-2.68 3.838-.304 7.317-2.294 9.546-5.46.276-.392.546-.844.827-1.38.236-.453.605-.822 1.058-1.059 3.892-2.033 7.459-4.444 10.603-7.166 1.021-.885 2.562-.797 3.477.198 9.503 10.34 15.419 23.038 17.109 36.72 3.691 29.881-1.608 57.66-15.75 82.564-1.169 2.059-.616 4.566 1.344 6.099 2.356 1.84 4.325 3.772 5.854 5.741 1.819 2.344 2.128 5.332.825 7.994-1.375 2.808-4.225 4.554-7.437 4.554zm-32.454-10.103c1.321 0 2.42 1.027 2.495 2.354.086 1.542 1.484 2.749 3.182 2.749h26.778c1.539 0 2.531-.906 2.947-1.754.265-.542.58-1.615-.284-2.729-1.275-1.643-2.951-3.28-4.982-4.867-3.899-3.047-4.999-8.308-2.613-12.507 13.599-23.95 18.691-50.691 15.136-79.482-1.466-11.871-6.382-22.946-14.256-32.174-2.755 2.182-5.764 4.153-8.98 5.883-.257.448-.517.858-.786 1.241-2.379 3.38-5.789 5.793-9.664 6.916-4.749 9.137-14.293 14.979-24.639 14.979-10.349 0-19.89-5.841-24.639-14.982-3.917-1.128-7.324-3.55-9.691-6.912-.271-.385-.53-.795-.787-1.243-3.338-1.795-6.452-3.851-9.292-6.132-8.003 9.278-12.993 20.44-14.473 32.426-3.555 28.792 1.537 55.533 15.135 79.48 2.385 4.2 1.286 9.46-2.613 12.507-2.032 1.587-3.708 3.224-4.982 4.867-.865 1.114-.549 2.188-.285 2.729.416.848 1.408 1.754 2.947 1.754h26.778c1.695 0 3.092-1.205 3.182-2.743.046-.787.46-1.506 1.117-1.94s1.482-.534 2.223-.267c9.677 3.474 20.373 3.492 30.056.052.283-.123.593-.194.92-.203.022-.002.046-.002.07-.002z"/><path d="m128 253.67c-5.307 0-10.615-.846-15.699-2.538-.132.015-.269.02-.406.013-1.324-.063-2.368-1.149-2.38-2.475-.02-2.229-.782-4.678-1.428-6.099-2.35-5.164-2.264-9.108-2.207-11.717.015-.675.027-1.258-.006-1.709-.004-.062-.007-.124-.007-.186 0-14.12-1.458-27.469-4.335-39.678-.789-3.346-1.383-6.885-1.765-10.52-.144-1.373.852-2.604 2.225-2.748 1.379-.14 2.604.852 2.748 2.225.36 3.425.918 6.754 1.658 9.896 2.959 12.559 4.463 26.265 4.469 40.738.043.661.028 1.356.012 2.09-.053 2.412-.118 5.412 1.759 9.538.686 1.506 1.413 3.728 1.723 6.044 8.852 2.834 18.425 2.834 27.278 0 .31-2.314 1.038-4.537 1.724-6.044 1.881-4.134 1.814-7.137 1.761-9.55-.017-.73-.032-1.422.011-2.078.006-14.477 1.509-28.183 4.469-40.738.737-3.126 1.292-6.438 1.652-9.844.145-1.373 1.373-2.365 2.749-2.224 1.373.145 2.369 1.375 2.224 2.749-.381 3.614-.973 7.136-1.758 10.467-2.876 12.205-4.335 25.555-4.335 39.678 0 .062-.002.124-.007.186-.033.444-.021 1.023-.005 1.694.058 2.611.146 6.558-2.208 11.732-.698 1.533-1.41 4.01-1.428 6.091-.012 1.327-1.059 2.414-2.385 2.475-.129.005-.258.001-.384-.012-5.092 1.696-10.406 2.544-15.719 2.544z"/><path d="m176.401 255.999h-26.778c-3.211 0-6.008-1.781-7.34-4.426l-.248.072c-.437.129-.873.259-1.314.376-.158.042-.319.08-.479.119l-.429.104c-.387.097-.774.193-1.166.279-.178.039-.355.073-.533.107l-.483.096c-.359.073-.718.146-1.08.209-.205.036-.411.066-.618.097l-.565.087c-.308.049-.616.098-.927.138-.266.035-.529.062-.793.09l-.611.067c-.239.027-.478.054-.719.075-.478.042-.956.069-1.434.097l-.308.02c-.132.01-.265.019-.398.025-1.45.063-2.918.064-4.364 0-.123-.005-.246-.014-.369-.023l-.19-.013c-.528-.029-1.053-.06-1.578-.105-.25-.022-.498-.05-.745-.079l-.62-.067c-.253-.026-.507-.053-.76-.086-.336-.044-.672-.097-1.009-.15l-.515-.08c-.195-.029-.391-.058-.585-.092-.381-.066-.758-.144-1.135-.221l-.447-.089c-.171-.033-.343-.066-.513-.104-.388-.085-.774-.181-1.16-.277l-.429-.105c-.163-.039-.326-.078-.488-.121-.442-.117-.882-.248-1.322-.378l-.235-.068c-1.334 2.646-4.131 4.426-7.339 4.426h-26.776c-3.211 0-6.062-1.746-7.437-4.555-1.303-2.662-.995-5.65.825-7.994 1.528-1.968 3.497-3.9 5.854-5.741 1.96-1.532 2.513-4.04 1.344-6.098-14.141-24.903-19.439-52.681-15.75-82.562 1.705-13.809 7.707-26.599 17.357-36.987.921-.992 2.465-1.069 3.481-.176 3.212 2.822 6.873 5.315 10.88 7.408.453.237.823.606 1.059 1.06.278.534.548.985.826 1.379 1.88 2.671 4.671 4.519 7.858 5.204.767.165 1.412.679 1.742 1.39 3.722 8.005 11.824 13.178 20.64 13.178 8.183 0 15.754-4.458 19.774-11.499-.169-.811.059-1.665.672-2.265.364-.356.852-.616 1.354-.701 3.425-.58 6.413-2.465 8.413-5.307.276-.392.546-.844.827-1.38.236-.453.605-.822 1.058-1.059 3.892-2.033 7.459-4.444 10.603-7.166 1.021-.885 2.562-.797 3.477.198 9.503 10.34 15.419 23.038 17.109 36.72 3.691 29.881-1.608 57.66-15.75 82.564-1.169 2.059-.616 4.566 1.344 6.098 2.356 1.841 4.326 3.772 5.854 5.741 1.82 2.345 2.128 5.333.825 7.994-1.376 2.81-4.225 4.556-7.437 4.556zm-32.456-10.098c.425 0 .849.108 1.228.322.633.356 1.079.971 1.223 1.683.041.205.062.336.076.481.158 1.483 1.513 2.611 3.151 2.611h26.778c1.539 0 2.531-.906 2.947-1.754.265-.542.581-1.616-.284-2.729-1.275-1.643-2.952-3.28-4.982-4.866-3.899-3.047-4.998-8.307-2.613-12.507 13.599-23.95 18.691-50.691 15.136-79.482-1.466-11.871-6.382-22.946-14.256-32.174-2.755 2.182-5.765 4.153-8.98 5.882-.257.448-.517.859-.787 1.242-2.375 3.374-5.753 5.775-9.656 6.901-4.747 9.145-14.295 14.993-24.647 14.993-10.349 0-19.89-5.842-24.639-14.982-3.917-1.128-7.324-3.549-9.69-6.911-.271-.384-.531-.795-.788-1.244-3.336-1.793-6.451-3.849-9.291-6.131-8.003 9.278-12.993 20.44-14.473 32.426-3.555 28.791 1.537 55.532 15.135 79.48 2.385 4.2 1.286 9.46-2.613 12.507-2.032 1.587-3.708 3.224-4.982 4.867-.865 1.114-.549 2.188-.285 2.729.416.848 1.408 1.754 2.947 1.754h26.778c1.636 0 2.992-1.126 3.152-2.62.01-.096.026-.194.045-.292.091-.72.491-1.368 1.102-1.771.657-.435 1.482-.536 2.224-.267.599.215 1.204.417 1.814.607l.575.166c.48.143.871.26 1.267.364l.846.208c.339.084.678.169 1.02.245.129.028.258.053.386.077l.504.101c.331.068.661.136.994.194.151.026.302.048.454.071l.572.088c.29.046.578.093.871.131.21.028.418.049.626.07l.673.074c.203.023.405.047.609.064.473.042.946.068 1.419.094l.503.033c1.302.058 2.622.058 3.924 0l.564-.037c.506-.029.933-.053 1.36-.09.196-.017.392-.04.587-.062l.661-.072c.221-.023.442-.046.663-.075.264-.035.529-.077.793-.119l.615-.095c.163-.024.326-.048.489-.077.317-.055.629-.12.942-.183l.537-.107c.136-.026.271-.052.407-.082.344-.076.686-.161 1.027-.247l.837-.205c.395-.104.783-.22 1.171-.336l.672-.195c.612-.191 1.218-.393 1.817-.608.274-.096.56-.145.845-.145z"/><path d="m176.401 255.999h-26.778c-4.201 0-7.694-3.05-8.124-7.095-.01-.095-.015-.191-.014-.287.027-3.002.987-6.161 1.877-8.117.998-2.192 1.542-4.251 1.713-6.479.074-.962.694-1.796 1.595-2.142 6.592-2.538 11.312-.805 14.758.459 2.498.917 3.864 1.364 5.204.694 2.093-1.046 4.132-1.587 6.061-1.608.645-.012 1.303.25 1.777.715s.743 1.1.749 1.764c.012 1.464.72 2.851 1.941 3.806 2.356 1.84 4.325 3.772 5.854 5.741 1.82 2.344 2.128 5.333.825 7.994-1.376 2.809-4.226 4.555-7.438 4.555zm-29.914-7.496c.221 1.432 1.545 2.496 3.136 2.496h26.778c1.539 0 2.531-.906 2.947-1.754.265-.542.58-1.615-.284-2.729-1.275-1.643-2.951-3.28-4.982-4.866-1.643-1.284-2.819-2.984-3.416-4.876-.577.177-1.178.421-1.798.731-3.335 1.667-6.298.579-9.163-.472-2.832-1.039-5.75-2.109-9.833-.958-.329 2.197-.975 4.336-1.958 6.497-.681 1.493-1.374 3.885-1.427 5.931z"/><path d="m106.377 255.999h-26.778c-3.211 0-6.062-1.746-7.437-4.555-1.303-2.662-.995-5.65.825-7.994 1.528-1.968 3.497-3.9 5.854-5.741 1.222-.955 1.929-2.342 1.941-3.806.005-.669.279-1.308.759-1.774s1.098-.74 1.796-.706c1.893.042 3.894.583 5.946 1.609 1.34.67 2.705.224 5.204-.694 3.466-1.272 8.215-3.015 14.86-.419.894.349 1.509 1.178 1.583 2.135.172 2.215.715 4.264 1.708 6.447.89 1.955 1.85 5.116 1.877 8.125.001.097-.004.194-.015.291-.435 4.037-3.927 7.082-8.123 7.082zm-21.05-19.202c-.599 1.883-1.772 3.573-3.408 4.852-2.032 1.587-3.708 3.224-4.982 4.867-.865 1.114-.549 2.188-.285 2.729.416.848 1.408 1.754 2.947 1.754h26.778c1.589 0 2.913-1.062 3.136-2.49-.054-2.185-.795-4.552-1.426-5.938-.979-2.153-1.624-4.284-1.954-6.47-4.132-1.197-7.072-.117-9.926.931-2.866 1.052-5.829 2.14-9.162.472-.592-.296-1.166-.532-1.718-.707z"/><path d="m215.875 255.999h-37.795c-.667 0-1.305-.266-1.774-.739l-.189-.19c-.633-.637-.875-1.565-.634-2.43.24-.865.926-1.535 1.797-1.754 1.029-.26 1.874-1.016 2.203-1.972.202-.587.293-1.479-.419-2.397-1.275-1.643-2.951-3.28-4.981-4.867-2.935-2.292-4.356-5.926-3.709-9.481.173-.953.882-1.721 1.819-1.969 2.25-.595 6.656-.958 10.917 3.302 3.466 3.466 9.217 3.919 15.007 1.181.895-.422 1.938-.273 2.674.344 4.268.108 11.559 1.087 15.504 6.134 2.574 3.292 3.252 7.636 2.016 12.911-.267 1.128-1.275 1.927-2.436 1.927zm-31.839-5h29.756c.352-2.818-.129-5.087-1.438-6.76-2.896-3.704-9.388-4.187-12.045-4.222-.464-.006-.917-.093-1.341-.251-7.25 2.94-14.745 1.921-19.396-2.729-1.345-1.345-2.768-2.076-4.246-2.186.241 1.095.877 2.112 1.833 2.858 2.355 1.841 4.325 3.772 5.853 5.741 1.602 2.064 2.038 4.648 1.196 7.092-.052.154-.109.307-.172.457zm16.339-15.982h.003c-.001.001-.002 0-.003 0z"/><path d="m77.92 255.999h-37.795c-1.161 0-2.169-.799-2.434-1.929-1.237-5.274-.559-9.618 2.016-12.911 3.975-5.084 11.345-6.04 15.599-6.136.695-.426 1.563-.489 2.323-.151 5.637 2.513 11.228 1.989 14.588-1.371 4.862-4.861 9.91-3.726 11.855-3.011.859.315 1.477 1.074 1.611 1.979.513 3.447-.93 6.964-3.765 9.18-2.03 1.586-3.707 3.223-4.982 4.867-.712.917-.621 1.81-.418 2.396.33.957 1.174 1.712 2.204 1.972.871.22 1.558.89 1.797 1.756.24.866-.003 1.794-.637 2.431l-.189.19c-.47.473-1.108.738-1.773.738zm-35.712-5h29.756c-.062-.15-.12-.303-.173-.458-.842-2.443-.406-5.028 1.196-7.091 1.529-1.97 3.499-3.901 5.854-5.741.971-.759 1.61-1.772 1.846-2.871-1.416-.079-3.137.401-4.935 2.199-4.632 4.632-11.868 5.685-19.097 2.847-.313.083-.637.129-.964.133-2.657.035-9.149.517-12.046 4.222-1.309 1.673-1.79 3.942-1.437 6.76zm38.171-11.32h.01z"/><path d="m94.994 124.01c-.394 0-.791-.093-1.157-.284-17.185-8.98-27.445-23.982-27.445-40.131 0-4.441.771-8.841 2.293-13.078 1.396-3.888 2.218-7.742 2.441-11.453.341-5.68 1.522-11.258 3.511-16.589-13.795-20.547-7.347-34.506-3.913-39.574 1.412-2.083 3.856-3.176 6.379-2.844 9.17 1.195 16.588 7.923 21.301 13.545 8.983-5.521 19.295-8.437 29.861-8.437 10.428 0 20.621 2.84 29.514 8.22 4.683-5.528 12.044-12.146 21.119-13.328 2.523-.333 4.967.76 6.379 2.844 3.392 5.005 9.789 18.787-3.569 39.064 2.11 5.499 3.355 11.278 3.7 17.185.213 3.633 1.033 7.458 2.437 11.37 1.521 4.237 2.292 8.636 2.292 13.075 0 16.148-10.26 31.151-27.445 40.131-.968.508-2.153.325-2.925-.448s-.954-1.957-.448-2.925c2.275-4.358 1.778-9.844-1.267-13.977-3.002-4.074-7.982-6.11-12.854-5.496.103.465.14.907.14 1.302 0 6.215-9.095 13.301-17.073 13.301-7.979 0-17.074-7.086-17.074-13.301 0-.396.037-.837.14-1.302-4.875-.614-9.852 1.422-12.853 5.496-3.045 4.133-3.542 9.619-1.267 13.977.506.968.324 2.153-.448 2.925-.481.48-1.12.732-1.769.732zm-18.769-119.01c-.551 0-1.059.258-1.361.706-2.884 4.256-8.25 16.125 4.184 34.364.748 1.097.911 2.489.437 3.725-1.913 4.993-3.046 10.232-3.367 15.569-.252 4.186-1.169 8.507-2.726 12.843-1.327 3.693-1.999 7.524-1.999 11.388 0 12.553 7.181 24.402 19.485 32.584-.412-4.427.809-9.016 3.574-12.769 4.966-6.741 13.904-9.39 21.739-6.442.873.329 1.49 1.116 1.602 2.042.111.926-.303 1.837-1.074 2.363-.528.36-.528.599-.528.809 0 2.903 6.206 8.301 12.074 8.301 5.867 0 12.073-5.398 12.073-8.301 0-.21 0-.448-.528-.809-.771-.526-1.185-1.437-1.074-2.363s.729-1.714 1.602-2.042c7.834-2.947 16.772-.299 21.739 6.442 2.766 3.753 3.986 8.342 3.575 12.769 12.305-8.183 19.485-20.032 19.485-32.584 0-3.861-.672-7.692-1.998-11.385-1.566-4.362-2.482-8.657-2.722-12.768-.324-5.546-1.517-10.967-3.543-16.112-.486-1.232-.335-2.629.405-3.734 12.027-17.977 6.705-29.689 3.858-33.89-.345-.509-.957-.776-1.593-.69-8.116 1.058-14.942 7.976-18.289 12.006-1.396 1.68-3.766 2.06-5.637.904-8.213-5.076-17.671-7.759-27.353-7.759-9.809 0-19.378 2.754-27.672 7.964-1.855 1.166-4.296.778-5.679-.904-3.371-4.101-10.251-11.141-18.458-12.21-.078-.012-.155-.017-.231-.017z"/><path d="m175.295 38.671c-.776 0-1.536-.272-2.146-.789-.862-.729-1.293-1.834-1.152-2.956l.449-3.591-4.562.507c-1.146.125-2.257-.336-2.977-1.239-.716-.898-.917-2.081-.54-3.162 5.543-15.881 18.496-22.506 19.045-22.781.419-.209.887-.297 1.354-.252l.19.018c.862.082 1.62.604 2.004 1.38 2.926 5.913 5.093 15.746-1.204 29.012-.303.639-.863 1.12-1.54 1.323l-7.961 2.388c-.316.095-.639.142-.96.142zm-.922-12.56c.887 0 1.732.351 2.364.992.72.73 1.06 1.732.933 2.75l-.394 3.151 4.423-1.327c4.125-9.258 3.521-16.364 1.804-21.226-3.3 2.239-9.636 7.412-13.427 16.117l3.923-.436c.125-.014.25-.021.374-.021z"/><path d="m80.705 38.671c-.32 0-.644-.046-.959-.142l-7.95-2.385c-.677-.203-1.237-.684-1.54-1.322-6.301-13.273-4.139-23.105-1.215-29.016.384-.776 1.141-1.298 2.003-1.38l.189-.018c.465-.045.936.043 1.355.252.549.274 13.502 6.9 19.046 22.782.377 1.082.175 2.263-.541 3.161-.719.902-1.827 1.363-2.977 1.238l-4.561-.507.449 3.593c.14 1.121-.292 2.225-1.154 2.955-.61.517-1.37.789-2.145.789zm-1.663-3.124v.001zm-4.73-3.867 4.412 1.324-.394-3.151c-.128-1.016.211-2.019.931-2.749.72-.731 1.714-1.085 2.738-.972l3.924.436c-3.79-8.703-10.123-13.875-13.426-16.116-1.712 4.86-2.313 11.965 1.815 21.228z"/><path d="m161.535 124.01c-.648 0-1.288-.251-1.769-.732-.772-.772-.954-1.957-.448-2.925 2.173-4.162 1.84-9.294-.87-13.395-.427-.645-.53-1.451-.281-2.183s.822-1.308 1.554-1.56c15.451-5.314 22.745-15.27 25.718-20.732.547-1.005 1.704-1.511 2.815-1.227 1.108.283 1.883 1.283 1.88 2.428-.038 16.113-10.296 31.081-27.443 40.041-.365.192-.762.285-1.156.285zm2.578-17.093c1.319 2.946 1.842 6.139 1.55 9.254 8.955-5.959 15.195-13.864 17.925-22.566-4.264 4.705-10.516 9.734-19.475 13.312z"/><path d="m94.994 124.01c-.394 0-.791-.093-1.157-.284-16.708-8.731-26.96-23.31-27.422-38.998-.034-1.143.712-2.163 1.812-2.478 1.098-.312 2.272.158 2.847 1.146 3.07 5.271 10.482 14.873 25.621 19.953.732.246 1.309.815 1.564 1.544s.159 1.534-.26 2.183c-2.634 4.076-2.936 9.164-.788 13.277.506.968.324 2.153-.448 2.925-.481.48-1.12.732-1.769.732zm-21.76-29.544c2.872 8.358 9.005 15.952 17.634 21.704-.286-3.054.21-6.187 1.47-9.083-8.664-3.386-14.829-8.144-19.104-12.621z"/><path d="m210.662 164.774c-.669 0-1.331-.268-1.816-.781-3.361-3.55-8.48-5.606-15.216-6.111-1.098-.083-2.013-.874-2.253-1.949s.252-2.18 1.21-2.721c7.459-4.212 15.171-8.567 20.684-15.13 7.624-9.076 9.558-21.722 5.171-33.828-2.575-7.108-7.115-12.945-11.922-19.125-3.704-4.761-7.534-9.685-10.394-15.255-7.462-14.538-6.428-30.155 2.636-39.789 8.51-9.043 22.375-10.589 37.089-4.136 2.185.958 3.832 2.878 4.637 5.405.91 2.851.601 6.082-.807 8.431-2.718 4.537-8.106 6.021-13.41 3.695-1.088-.477-10.725-4.487-13.906 1.651l-2.22-1.15 2.22 1.15c-4.777 9.217 3.953 20.248 10.967 29.112 1.262 1.595 2.455 3.102 3.523 4.539 9.225 12.412 14.051 25.845 13.958 38.847-.086 12.013-4.271 23.444-12.103 33.057-5.084 6.241-11.324 10.441-16.757 13.727-.4.243-.847.361-1.291.361zm-9.55-10.704c3.909 1.058 7.213 2.75 9.882 5.066 4.651-2.907 9.726-6.555 13.842-11.607 15.352-18.844 14.607-43.428-1.992-65.763-1.023-1.376-2.193-2.854-3.431-4.419-7.491-9.465-17.749-22.428-11.485-34.515 4.007-7.732 13.469-6.95 20.354-3.929 2.336 1.025 5.431 1.121 7.112-1.686.67-1.119.804-2.864.333-4.342-.21-.66-.735-1.842-1.883-2.346-12.881-5.65-24.339-4.562-31.439 2.984-7.595 8.071-8.313 21.448-1.83 34.079 2.646 5.153 6.165 9.678 9.892 14.468 4.834 6.214 9.832 12.64 12.677 20.491 5.001 13.804 2.742 28.289-6.044 38.747-4.487 5.341-10.267 9.346-15.988 12.772z"/><path d="m147.407 32c-3.56 0-6.456-3.14-6.456-7s2.896-7 6.456-7 6.456 3.14 6.456 7-2.896 7-6.456 7zm0-9c-.789 0-1.456.916-1.456 2s.667 2 1.456 2 1.456-.916 1.456-2-.667-2-1.456-2z"/><path d="m137.912 19c-4.287 0-7.775-3.813-7.775-8.5 0-1.243.246-2.451.73-3.588.424-.997 1.44-1.605 2.522-1.51 3.54.315 7.048.96 10.429 1.917.975.276 1.687 1.113 1.803 2.12.041.348.066.701.066 1.062 0 4.686-3.488 8.499-7.775 8.499zm-2.773-8.375c.052 1.873 1.276 3.375 2.773 3.375 1.217 0 2.254-.994 2.627-2.372-1.773-.428-3.579-.764-5.4-1.003z"/><path d="m109.593 32c-3.56 0-6.456-3.14-6.456-7s2.896-7 6.456-7 6.456 3.14 6.456 7-2.896 7-6.456 7zm0-9c-.789 0-1.456.916-1.456 2s.667 2 1.456 2 1.456-.916 1.456-2-.667-2-1.456-2z"/><path d="m119.088 19c-4.287 0-7.774-3.813-7.774-8.5 0-.389.029-.793.088-1.236.133-.996.85-1.816 1.819-2.081 3.391-.926 6.887-1.54 10.393-1.824 1.066-.091 2.069.515 2.496 1.496.5 1.153.754 2.379.754 3.644-.001 4.688-3.489 8.501-7.776 8.501zm-2.652-7.473c.349 1.43 1.406 2.473 2.652 2.473 1.513 0 2.748-1.536 2.774-3.437-1.823.226-3.638.548-5.426.964z"/><path d="m179.82 206.667c-2.537 0-5.071-.575-6.338-2.726-1.409-2.39-.59-5.541 2.504-9.633 2.276-3.011 6.545-3.74 9.72-1.66 1.044.684 1.976 1.371 2.768 2.042.715.605 1.032 1.56.82 2.473-.563 2.429-1.185 4.807-1.847 7.067-.255.87-.96 1.533-1.844 1.735-.726.166-1.471.302-2.275.417-1.078.154-2.293.285-3.508.285zm-1.99-5.288c.33.152 1.522.52 4.792.053.151-.021.299-.043.444-.067.344-1.234.674-2.5.989-3.786-.341-.247-.705-.497-1.089-.749-.981-.644-2.295-.427-2.991.494-1.875 2.478-2.119 3.695-2.145 4.055zm-.001.118h.01z"/><path d="m178.891 187.773c-3.187 0-6.322-.698-7.834-3.264-1.71-2.9-.615-6.857 3.347-12.097 2.811-3.716 8.083-4.616 12.002-2.048 2.194 1.438 3.964 2.845 5.26 4.183.493.509.747 1.203.699 1.91-.166 2.426-.397 4.859-.689 7.23-.106.865-.656 1.612-1.449 1.972-1.687.765-3.874 1.332-6.687 1.734-1.43.204-3.046.38-4.649.38zm2.604-13.875c-1.186 0-2.35.531-3.104 1.529-3.173 4.197-3.262 6.146-3.028 6.542.233.396 2.03 1.25 7.469.473 1.605-.229 2.962-.517 4.055-.859.158-1.423.293-2.864.404-4.307-.96-.861-2.194-1.791-3.626-2.73-.667-.437-1.423-.648-2.17-.648z"/><path d="m217.891 85.773c-3.187 0-6.322-.698-7.834-3.264-1.71-2.9-.615-6.857 3.347-12.097.667-.883 1.489-1.626 2.442-2.208 1.103-.674 2.538-.395 3.309.643 1.384 1.862 2.806 3.659 4.181 5.397 1.262 1.596 2.455 3.103 3.522 4.54 0 0 0 0 .001.001.466.628.909 1.255 1.35 1.883.466.662.582 1.509.312 2.272s-.893 1.348-1.671 1.57c-1.245.355-2.695.652-4.31.883-1.43.204-3.046.38-4.649.38zm-1.011-11.653c-2.671 3.721-2.738 5.476-2.517 5.85.232.395 2.029 1.251 7.469.473.003 0 .006 0 .008-.001-.76-.988-1.578-2.021-2.428-3.096-.83-1.052-1.68-2.125-2.532-3.226z"/><path d="m164.134 201.524c-2.748 0-5.267-1.55-6.209-4.095-.611-1.65-.461-3.523.411-5.137.827-1.53 2.217-2.719 3.915-3.347 1.696-.628 3.526-.63 5.15-.007 1.712.658 3.044 1.982 3.655 3.632 1.234 3.339-.706 7.145-4.324 8.484-.862.32-1.742.47-2.598.47zm1.729-2.814h.01zm-1.001-5.236c-.29 0-.589.054-.877.161-.55.203-1.005.58-1.251 1.034-.135.25-.266.631-.12 1.025.274.74 1.365 1.048 2.381.672s1.644-1.32 1.37-2.06c-.146-.393-.493-.598-.759-.7-.228-.088-.481-.132-.744-.132z"/><path d="m187.295 165.014c-1.311 0-2.62-.322-3.818-.967l-3.798-2.047c-3.928-2.116-5.402-7.034-3.287-10.962l2.047-3.798c1.022-1.897 2.727-3.285 4.802-3.907 2.074-.622 4.262-.402 6.16.62l.423.229c.675.364 1.146 1.018 1.277 1.774.198 1.147.351 2.158.466 3.091.516 4.177.858 8.426 1.016 12.627.035.933-.452 1.807-1.264 2.268-1.257.714-2.642 1.072-4.024 1.072zm-1.727-17.028c-1.101 0-2.169.589-2.727 1.625l-2.046 3.798c-.808 1.501-.245 3.38 1.256 4.189l3.798 2.046c.516.277 1.085.396 1.655.358-.175-3.451-.477-6.922-.899-10.343-.061-.491-.133-1.009-.219-1.563-.27-.074-.545-.11-.818-.11zm-4.928.439h.01z"/><path d="m168.288 170.667c-.943 0-1.899-.227-2.786-.704l-2.306-1.243c-2.861-1.541-3.935-5.123-2.394-7.984l1.243-2.306c1.541-2.861 5.124-3.934 7.984-2.394l2.306 1.242c2.861 1.542 3.935 5.124 2.394 7.984l-1.243 2.306c-1.062 1.976-3.098 3.099-5.198 3.099zm-1.044-10.331c-.321 0-.637.17-.796.466l-1.243 2.306c-.15.279-.105.545-.065.68.04.134.149.381.428.531l2.306 1.243c.427.23.982.063 1.211-.363l1.243-2.306c.229-.427.063-.982-.364-1.212l-2.305-1.241c-.131-.071-.274-.104-.415-.104z"/><path d="m166.415 221.332c-1.142 0-2.271-.282-3.301-.837-3.397-1.83-4.673-6.083-2.843-9.481 1.831-3.398 6.083-4.673 9.482-2.843 3.398 1.831 4.673 6.084 2.842 9.481-.884 1.642-2.359 2.842-4.154 3.38-.668.2-1.349.3-2.026.3zm.022-8.998c-.712 0-1.403.381-1.763 1.05-.251.466-.305 1.006-.15 1.521.154.515.496.937.961 1.188.467.251 1.005.305 1.521.149.515-.154.937-.496 1.188-.961s.304-1.006.149-1.521c-.154-.515-.496-.937-.961-1.188-.301-.161-.625-.238-.945-.238z"/><path d="m177.021 139.468c-.195 0-.39-.006-.586-.019-2.26-.15-4.249-1.187-5.456-2.844-1.104-1.515-1.456-3.374-.991-5.233.933-3.727 4.912-6.43 9.089-6.155 2.26.15 4.248 1.186 5.456 2.843 1.104 1.515 1.456 3.374.991 5.233-.888 3.553-4.556 6.175-8.503 6.175zm1.474-9.27c-1.767 0-3.363 1.217-3.656 2.387-.104.415-.044.766.181 1.076.332.456.969.747 1.746.799 1.866.135 3.601-1.154 3.907-2.378.104-.415.044-.767-.181-1.076-.333-.456-.969-.747-1.746-.798-.083-.007-.167-.01-.251-.01z"/><path d="m216.653 154.274c-2.738 0-5.576-1.144-7.588-3.286-1.459-1.552-2.298-3.478-2.363-5.422-.026-.781.314-1.529.921-2.022 1.792-1.458 3.42-2.999 4.84-4.582.449-.5 1.081-.798 1.752-.827 3.001-.127 5.992 1.084 8.023 3.246 1.752 1.864 2.598 4.243 2.321 6.528-.251 2.075-1.378 3.86-3.174 5.025-1.393.905-3.044 1.34-4.732 1.34zm-4.705-7.834c.172.389.428.771.76 1.124 1.567 1.668 4.351 2.219 5.956 1.176.547-.354.86-.836.933-1.432.098-.81-.267-1.723-1.001-2.504l1.822-1.712-1.822 1.712c-.821-.874-1.999-1.459-3.218-1.628-1.061 1.117-2.208 2.209-3.43 3.264z"/><path d="m232.021 121.468c-.195 0-.39-.006-.586-.019-2.26-.15-4.249-1.187-5.456-2.844-1.104-1.515-1.456-3.374-.991-5.233.932-3.727 4.915-6.429 9.089-6.155 2.26.15 4.248 1.186 5.456 2.843 1.104 1.515 1.456 3.374.991 5.233-.888 3.553-4.556 6.175-8.503 6.175zm1.474-9.27c-1.767 0-3.363 1.217-3.656 2.387-.104.415-.044.766.181 1.076.332.456.969.747 1.746.799 1.864.137 3.601-1.154 3.907-2.378.104-.415.044-.767-.181-1.076-.333-.456-.969-.747-1.746-.798-.083-.007-.167-.01-.251-.01z"/><path d="m164.58 185c-.16 0-.32-.02-.48-.05s-.32-.08-.47-.14-.3-.14-.43-.23c-.14-.09-.27-.2-.38-.31-.47-.47-.74-1.11-.74-1.77 0-.16.02-.33.05-.49.04-.16.08-.32.15-.47.06-.15.14-.29.22-.43.1-.13.2-.26.32-.38.11-.11.24-.22.38-.31.13-.09.28-.17.43-.23s.31-.11.47-.14c.32-.06.65-.06.97 0 .16.03.32.08.47.14s.3.14.43.23c.14.09.27.2.38.31.12.12.22.25.31.38.09.14.17.28.23.43s.11.31.14.47c.04.16.05.33.05.49 0 .66-.26 1.3-.73 1.77-.46.46-1.11.73-1.77.73z"/><path d="m205.532 222.302c-.007 0-.013 0-.021 0-.466-.004-.954-.017-1.496-.053-3.05-.202-7.231-.847-8.328-4.104-.824-2.449.487-5.127 4.009-8.188 2.633-2.29 6.632-2.134 9.106.352.421.424.856.896 1.329 1.442.622.72.782 1.73.412 2.607l-2.708 6.417c-.391.925-1.299 1.527-2.303 1.527zm-4.99-5.798c.372.197 1.299.549 3.363.723l1.408-3.336c-.018-.019-.037-.037-.055-.055-.625-.629-1.628-.675-2.282-.105-1.578 1.372-2.223 2.318-2.434 2.773zm.794-4.66h.01z"/><path d="m211.761 206.906c-.033 0-.066 0-.1-.002l-.251-.009c-.241-.008-.482-.017-.745-.034-3.888-.257-9.21-1.052-10.528-4.97-.991-2.945.706-6.27 5.188-10.165 3.223-2.803 8.123-2.611 11.152.434.082.083.163.176.232.269.44.587.601 1.338.438 2.054-.767 3.372-1.78 6.974-3.012 10.707-.341 1.027-1.3 1.716-2.374 1.716zm-1.109-12.166c-.733 0-1.463.251-2.048.76-3.383 2.94-3.802 4.531-3.729 4.796.004.01.64 1.063 5.102 1.493.735-2.343 1.375-4.62 1.912-6.803-.396-.164-.817-.246-1.237-.246z"/><path d="m216.335 186.328c-.027 0-.055 0-.083-.001-1.696-.055-3.269-.657-4.55-1.74l-2.912-2.463c-3.133-2.651-3.526-7.357-.876-10.491l2.463-2.913c.948-1.12 2.198-1.928 3.617-2.336 1.249-.359 2.563.297 3.027 1.51 1.704 4.458 2.311 9.887 1.804 16.137-.105 1.301-1.193 2.297-2.49 2.297zm-3.013-13.347-1.59 1.88c-.87 1.029-.741 2.574.288 3.444l1.98 1.675c.006-2.545-.22-4.883-.678-6.999zm-1.035-2.647.422.357z"/><path d="m200.534 191.855c-1.266 0-2.537-.43-3.577-1.309l-1.794-1.518c-1.128-.954-1.817-2.294-1.941-3.773-.123-1.479.334-2.914 1.289-4.042l1.517-1.793c1.975-2.334 5.48-2.627 7.815-.653l1.794 1.518c1.128.955 1.817 2.294 1.941 3.773s-.334 2.914-1.289 4.042l-1.518 1.794c-1.094 1.294-2.661 1.961-4.237 1.961zm-.27-9.397c-.157 0-.313.065-.419.19l-1.517 1.793c-.118.14-.132.293-.124.398.008.104.048.253.187.371l1.794 1.518c.225.189.576.161.769-.064l1.518-1.794c.118-.139.132-.292.124-.397s-.048-.253-.188-.372l-1.794-1.518c-.1-.083-.225-.125-.35-.125z"/><path d="m226.534 139.855c-1.266 0-2.537-.43-3.577-1.309l-1.794-1.518c-1.128-.954-1.817-2.294-1.941-3.773-.123-1.479.334-2.914 1.289-4.042l1.517-1.793c1.975-2.334 5.48-2.627 7.815-.653l1.794 1.518c1.128.955 1.817 2.294 1.941 3.773s-.334 2.914-1.289 4.042l-1.518 1.794c-1.094 1.294-2.661 1.961-4.237 1.961zm-.27-9.397c-.157 0-.313.065-.419.19l-1.517 1.793c-.118.14-.132.293-.124.398.008.104.048.253.187.371l1.794 1.518c.225.189.577.161.769-.064l1.518-1.794c.118-.139.132-.292.124-.397s-.048-.253-.188-.372l-1.794-1.518c-.1-.083-.225-.125-.35-.125z"/><path d="m195.42 201.81c-.66 0-1.3-.27-1.77-.73-.46-.47-.73-1.11-.73-1.77s.27-1.3.73-1.77c.58-.58 1.45-.84 2.26-.68.16.03.32.08.47.14s.3.14.43.23c.14.09.27.2.38.31.47.47.73 1.11.73 1.77s-.26 1.3-.73 1.77c-.11.11-.24.22-.38.31-.13.09-.28.16-.43.23-.15.06-.31.11-.47.14s-.32.05-.49.05z"/><path d="m50.468 222.302c-1.004 0-1.912-.602-2.303-1.528l-2.708-6.417c-.37-.876-.21-1.887.412-2.607.473-.546.907-1.018 1.329-1.442 2.472-2.485 6.472-2.641 9.106-.351 3.522 3.061 4.833 5.739 4.009 8.188-1.097 3.258-5.278 3.903-8.328 4.104-.542.036-1.03.049-1.496.053-.007 0-.014 0-.021 0zm.219-8.411 1.408 3.336c2.063-.173 2.991-.526 3.363-.723-.211-.456-.856-1.402-2.434-2.773-.654-.569-1.657-.523-2.281.104-.019.019-.037.037-.056.056zm4.855 2.862h.01z"/><path d="m44.239 206.906c-1.074 0-2.034-.689-2.373-1.716-1.232-3.733-2.246-7.335-3.012-10.707-.182-.802.042-1.639.594-2.242.026-.029.054-.058.082-.085 3.024-3.042 7.923-3.232 11.147-.429 4.482 3.895 6.179 7.219 5.188 10.164-1.318 3.918-6.64 4.713-10.528 4.97-.262.017-.503.026-.745.034l-.252.009c-.034.001-.068.002-.101.002zm-.128-11.92c.537 2.183 1.177 4.46 1.913 6.804 4.462-.43 5.097-1.483 5.102-1.494.073-.264-.346-1.855-3.729-4.795-.922-.803-2.203-.967-3.286-.515z"/><path d="m39.665 186.328c-1.297 0-2.385-.996-2.49-2.298-.507-6.25.1-11.679 1.804-16.137.464-1.213 1.779-1.869 3.027-1.51 1.419.408 2.669 1.216 3.617 2.336l2.463 2.912c2.65 3.134 2.257 7.84-.875 10.491l-2.913 2.463c-1.281 1.084-2.854 1.686-4.55 1.74-.029.002-.056.003-.083.003zm3.013-13.347c-.458 2.116-.684 4.454-.677 6.999l1.98-1.675c1.028-.87 1.157-2.416.287-3.445z"/><path d="m55.466 191.855c-1.577 0-3.143-.667-4.238-1.962l-1.518-1.793c-.955-1.128-1.412-2.564-1.289-4.042s.812-2.818 1.941-3.773l1.794-1.518c2.335-1.974 5.84-1.682 7.815.652l1.517 1.794c.955 1.128 1.412 2.563 1.289 4.042-.124 1.479-.813 2.819-1.941 3.773l-1.793 1.518c-1.04.879-2.312 1.309-3.577 1.309zm-1.874-7.753c-.14.118-.179.267-.188.372s.006.258.124.397l1.518 1.794c.191.226.545.256.769.064l1.793-1.517c.14-.118.179-.267.188-.371s-.005-.258-.124-.397l-1.517-1.794c-.191-.224-.542-.253-.769-.064z"/><path d="m60.58 201.81c-.17 0-.33-.02-.49-.05s-.32-.08-.47-.14-.29-.14-.43-.23-.27-.2-.38-.31c-.47-.47-.73-1.12-.73-1.77 0-.66.26-1.3.73-1.77.93-.93 2.6-.93 3.54 0 .46.46.73 1.11.73 1.77 0 .16-.02.33-.05.49s-.08.31-.14.46c-.07.16-.14.3-.23.44-.09.13-.2.26-.31.38-.47.46-1.11.73-1.77.73z"/><path d="m76.18 206.667c-1.215 0-2.43-.132-3.508-.286-.811-.116-1.556-.252-2.276-.417-.883-.202-1.587-.865-1.842-1.734-.662-2.259-1.283-4.637-1.847-7.068-.211-.913.105-1.868.82-2.473.792-.67 1.723-1.357 2.768-2.042 3.173-2.079 7.443-1.35 9.719 1.661 3.094 4.092 3.913 7.243 2.504 9.633-1.267 2.151-3.801 2.726-6.338 2.726zm-3.244-5.302c.145.023.292.045.443.067 3.271.467 4.461.101 4.792-.053-.026-.36-.271-1.577-2.145-4.055-.696-.919-2.01-1.136-2.99-.494-.385.252-.749.502-1.089.749.314 1.286.645 2.552.989 3.786z"/><path d="m77.109 187.773c-1.604 0-3.219-.176-4.649-.38-2.813-.402-5-.969-6.686-1.733-.793-.36-1.343-1.107-1.449-1.972-.292-2.372-.523-4.805-.689-7.231-.048-.708.206-1.402.699-1.911 1.295-1.336 3.064-2.743 5.258-4.181 3.921-2.57 9.193-1.669 12.003 2.047 3.962 5.24 5.057 9.197 3.347 12.097-1.512 2.566-4.647 3.264-7.834 3.264zm-7.995-6.19c1.091.342 2.448.63 4.054.86 5.438.776 7.236-.078 7.469-.473.234-.397.146-2.345-3.028-6.542-1.229-1.626-3.546-2.013-5.274-.881-1.432.939-2.666 1.868-3.625 2.729.111 1.443.246 2.884.404 4.307z"/><path d="m223.17 107.772c-.811 0-1.5-.049-1.961-.082-1.027-.072-1.905-.767-2.211-1.75-.176-.564-.353-1.128-.555-1.687-1.118-3.086-2.674-6.116-4.896-9.534-.73-1.124-.445-2.623.647-3.399.468-.333.938-.653 1.4-.956 3.919-2.567 9.193-1.669 12.002 2.047 3.883 5.135 5.008 9.038 3.439 11.93-1.599 2.953-5.326 3.431-7.865 3.431zm-4.08-13.613c1.729 2.895 3.063 5.658 4.054 8.392.025.069.05.139.074.208 2.419-.021 3.29-.555 3.423-.801.222-.409.108-2.378-3.032-6.531-1.057-1.398-2.919-1.88-4.519-1.268z"/><path d="m91.866 201.524c-.857 0-1.736-.151-2.596-.469 0 0 0 0-.001 0-3.619-1.34-5.559-5.146-4.324-8.484.611-1.651 1.943-2.975 3.655-3.633 1.624-.624 3.453-.621 5.151.007 1.697.628 3.087 1.817 3.914 3.347.872 1.614 1.021 3.486.411 5.137-.943 2.545-3.462 4.095-6.21 4.095zm-.862-5.158c1.018.378 2.107.068 2.381-.672.146-.394.015-.774-.12-1.025-.246-.454-.701-.831-1.25-1.034-.549-.204-1.14-.214-1.623-.029-.266.102-.613.307-.759.7-.272.74.355 1.683 1.371 2.06z"/><path d="m208.376 50.959c-1.11 0-2.204-.196-3.255-.584-4.502-1.666-6.926-6.368-5.404-10.482.759-2.05 2.354-3.632 4.491-4.453 2.025-.778 4.31-.773 6.434.013 2.013.745 3.699 2.14 4.746 3.928.689 1.177.307 2.689-.858 3.398-.925.563-1.632 1.333-2.162 2.354-.612 1.183-1.011 2.396-1.219 3.711-.186 1.174-1.173 2.056-2.361 2.107-.139.005-.275.008-.412.008zm-1.008-11.1c-.475 0-.938.083-1.367.248-.776.298-1.342.838-1.595 1.521-.557 1.505.501 3.294 2.364 4.025.301-.97.688-1.913 1.158-2.82.458-.883 1.007-1.678 1.645-2.381-.21-.12-.433-.223-.666-.31-.51-.189-1.032-.283-1.539-.283z"/><path d="m68.705 165.014c-1.382 0-2.765-.357-4.022-1.071-.812-.461-1.299-1.335-1.264-2.269.158-4.205.5-8.453 1.016-12.625.116-.938.268-1.95.466-3.094.131-.756.602-1.41 1.276-1.773l.421-.227c3.929-2.119 8.847-.643 10.963 3.286l2.046 3.798c2.116 3.928.642 8.846-3.286 10.962l-3.798 2.046c-1.197.645-2.507.967-3.818.967zm2.632-3.168h.01zm-2.839-1.843c.562.036 1.139-.081 1.654-.358l3.798-2.046c1.501-.809 2.064-2.688 1.255-4.189l-2.046-3.798c-.389-.722-1.041-1.25-1.836-1.489-.568-.17-1.156-.176-1.708-.025-.086.554-.158 1.072-.219 1.565-.421 3.417-.723 6.887-.898 10.34z"/><path d="m200.352 74.756c-.85 0-1.668-.435-2.134-1.197-.848-1.387-1.512-2.558-2.09-3.685-2.182-4.25-3.662-8.63-4.399-13.02-.163-.968.255-1.941 1.069-2.488 2.809-1.89 6.525-1.843 9.25.12l3.501 2.522c3.62 2.607 4.444 7.674 1.836 11.295l-2.522 3.501c-.898 1.248-2.143 2.208-3.599 2.778-.299.118-.608.174-.912.174zm.224-7.165c.155.303.318.61.492.927l2.26-3.137c.996-1.383.682-3.319-.702-4.315l-3.501-2.522c-.607-.438-1.35-.621-2.078-.552.727 3.226 1.911 6.447 3.529 9.599z"/><path d="m87.712 170.667c-2.1 0-4.135-1.124-5.199-3.098l-1.242-2.306c-1.542-2.861-.468-6.443 2.393-7.984l2.306-1.242c2.862-1.542 6.443-.467 7.984 2.394l1.242 2.305c1.542 2.862.468 6.444-2.394 7.985l-2.305 1.242c-.886.478-1.842.704-2.785.704zm-1.676-8.986c-.427.23-.593.785-.363 1.212l1.242 2.306c.23.427.785.595 1.212.363l2.305-1.242c.28-.151.389-.398.429-.532.041-.134.085-.401-.065-.68l-1.242-2.305c-.23-.427-.785-.592-1.211-.363z"/><path d="m89.585 221.332c-.677 0-1.359-.1-2.027-.3-1.794-.538-3.27-1.738-4.154-3.38-1.831-3.397-.556-7.651 2.842-9.481 3.396-1.83 7.651-.555 9.481 2.843s.556 7.651-2.842 9.481c-1.029.555-2.158.837-3.3.837zm-.967-8.76c-.466.251-.807.673-.961 1.188-.155.515-.102 1.055.149 1.521s.673.807 1.188.961c.516.156 1.055.102 1.521-.149.97-.523 1.334-1.738.812-2.708-.524-.971-1.738-1.335-2.709-.813z"/><path d="m78.979 139.468c-3.947 0-7.614-2.622-8.503-6.174-.465-1.86-.113-3.719.991-5.234 1.207-1.657 3.196-2.693 5.455-2.843 4.169-.274 8.157 2.427 9.089 6.155.465 1.859.113 3.718-.991 5.233-1.207 1.657-3.195 2.693-5.455 2.844-.196.012-.392.019-.586.019zm-1.726-9.261c-.777.051-1.413.342-1.746.798-.226.31-.285.661-.181 1.076.307 1.225 2.05 2.5 3.908 2.379.777-.052 1.414-.343 1.746-.799.226-.31.285-.661.181-1.076-.307-1.225-2.056-2.498-3.908-2.378z"/><path d="m91.42 185c-.17 0-.33-.02-.49-.05s-.32-.08-.47-.14-.3-.14-.43-.23c-.14-.09-.27-.2-.38-.31-.47-.47-.73-1.11-.73-1.77s.26-1.3.73-1.77c.11-.11.24-.22.38-.31.13-.09.28-.17.43-.23s.31-.11.47-.14c.81-.16 1.67.1 2.26.68.11.12.21.25.31.38.08.14.16.28.23.43.06.15.11.31.14.47s.05.33.05.49-.02.33-.05.49-.08.32-.14.47c-.07.15-.15.29-.23.43-.1.13-.2.26-.31.38-.47.46-1.11.73-1.77.73z"/><path d="m231.226 44.569c-1.602 0-3.281-.354-4.953-1.087-1.942-.852-4.057-1.436-5.953-1.644-.95-.104-1.757-.74-2.08-1.64-2.626-7.308-1.331-13.087.218-16.649.422-.971 1.415-1.566 2.466-1.497 4.762.331 9.785 1.643 14.929 3.899 2.185.958 3.832 2.878 4.638 5.405.909 2.852.6 6.082-.807 8.431-1.862 3.106-4.976 4.782-8.458 4.782zm-8.732-7.462c2.369.437 4.402 1.187 5.788 1.795 2.335 1.025 5.432 1.121 7.113-1.686.67-1.119.804-2.864.333-4.342-.21-.66-.735-1.842-1.883-2.346-3.942-1.729-7.774-2.838-11.417-3.306-.746 2.463-1.098 5.815.066 9.885z"/></svg>