<svg enable-background="new 0 0 256 256" height="512" viewBox="0 0 256 256" width="512" xmlns="http://www.w3.org/2000/svg"><path d="m219.3 158.06c-1.475-.295-2.897.717-3.102 2.208-2.715 19.768-15.036 13.471-23.751 6.142-.082 1.162-.213 2.349-.448 3.59-.373 1.974-.732 3.809-1.077 5.532 25.998 19.222 29.891-6.568 30.474-14.713.096-1.319-.799-2.5-2.096-2.759z" fill="#f9bd55"/><path d="m107.211 81.447c.001 0 .001-.001 0 0-.884 2.113-2.199 3.997-3.825 5.56 2.203 8.239 5.281 16.505 9.596 23.816 3.49 5.912 8.245 10.825 13.81 14.542-8.529-13.594-13.495-30.208-16.381-45.495-1.029.568-2.091 1.102-3.2 1.577z" fill="#7d3d1a"/><path d="m162.486 251.859c.153-2.344 1.095-6.688 5.683-9.607 1.022-.65 1.885-1.518 2.491-2.566 2.254-3.897 6.684-13.655 2.841-25.186-3.035-9.104-9.753-16.735-14.566-24.457 0 0-4.176.711-10.586.648 4.777 7.502 11.202 14.959 14.152 23.808 3.844 11.531-.586 21.289-2.841 25.186-.606 1.048-1.469 1.916-2.491 2.566-4.588 2.919-5.53 7.263-5.683 9.607-.058.893.663 1.641 1.557 1.641h11c-.895.001-1.615-.747-1.557-1.64z" fill="#f9bd55"/><path d="m102.52 250.357c-.004-2.305 1.07-5.553 6.48-7.357.041-.02.104-.038.175-.056.028-.007.063-.015.096-.023.043-.01.09-.02.139-.03.549-.113 1.474-.274 2.299-.787.009-.006.018-.012.028-.018.152-.097.301-.204.443-.327.467-3.208 1.782-12.088 3.113-19.8.318-3.483.707-8.462.707-11.96 0-8.346-8.7-17.743-9.545-33.121-3.95-3.188-7.672-7.1-10.981-11.863l-.001.455c-.019 12.12 2.422 24.114 7.094 35.297 1.394 3.338 2.433 6.347 2.433 9.231 0 7.941-1.892 23.451-2.671 29.5-.42 3.261-3.788 3.239-4.329 3.5-5.41 1.803-6.484 5.052-6.48 7.357.003 1.464 1.202 2.643 2.666 2.643h11c-1.464.002-2.663-1.177-2.666-2.641z" fill="#f9bd55"/><circle cx="111.778" cy="8.196" fill="#f9bd55" r="5.696"/><circle cx="70.486" cy="8.196" fill="#f9bd55" r="5.696"/><path d="m81.351 19.732-5.684-9.182c-.896 1.969-2.877 3.341-5.182 3.341-.195 0-.388-.01-.578-.029l5.648 9.124c1.7-1.32 3.659-2.417 5.796-3.254z" fill="#f9bd55"/><path d="m106.678 23.033 5.677-9.171c-.19.019-.383.029-.578.029-2.305 0-4.285-1.372-5.182-3.341l-5.7 9.208c2.138.844 4.091 1.949 5.783 3.275z" fill="#f9bd55"/><path d="m147.004 132.888c-14.13-1.778-26.783-9.801-34.022-22.065-4.315-7.309-7.397-15.575-9.6-23.812-2.983 2.865-7.026 4.636-11.489 4.636-2.776 0-5.388-.69-7.687-1.895 1.52 18.689 2.033 37.522 2.206 48.106.121 7.379 1.865 14.676 5.371 21.169 4.106 7.605 9.175 13.416 14.672 17.853.845 15.377 9.545 24.774 9.545 33.12 0 7.941-1.892 23.451-2.671 29.5-.42 3.261-3.788 3.239-4.329 3.5-5.41 1.803-6.484 5.052-6.48 7.357.003 1.464 1.202 2.643 2.666 2.643h16.236c1.305 0 2.443-.941 2.632-2.233.348-2.383.141-5.341-.57-6.825-.314-.654-.422-1.377-.318-2.095.657-4.513 3.114-21.112 4.833-28.847 1.291-5.809.291-17.653-.581-25.325 16.677 4.896 31.515 2.368 31.515 2.368 4.813 7.722 11.531 15.353 14.566 24.457 3.844 11.531-.586 21.289-2.841 25.186-.606 1.048-1.469 1.916-2.491 2.566-4.588 2.919-5.53 7.263-5.683 9.607-.058.893.663 1.641 1.557 1.641h15.729c.499 0 .978-.233 1.267-.64 1.418-1.996 1.439-4.959 1.255-6.9-.123-1.303.075-2.615.635-3.797 2.19-4.62 7.258-17.209 4.071-29.162-4-15-2-6 5-43 5.127-27.09-27.27-34.882-44.994-37.113z" fill="#f9bd55"/><g fill="#7d3d1a"><path d="m181.039 252.86c1.418-1.996 1.439-4.959 1.255-6.9-.063-.668-.039-1.338.073-1.992-5.224.731-9.861-1.341-12.641-3.03-.459.501-.979.946-1.557 1.314-4.588 2.919-5.53 7.263-5.683 9.607-.058.893.663 1.641 1.557 1.641h15.729c.5 0 .978-.233 1.267-.64z"/><path d="m124.054 250.767c.348-2.383.141-5.341-.57-6.825-.099-.206-.169-.42-.227-.636-5.063.67-8.66-.872-10.598-2.07-1.127 1.523-3.24 1.563-3.659 1.765-5.41 1.803-6.484 5.052-6.48 7.357.003 1.464 1.202 2.643 2.666 2.643h16.236c1.306-.001 2.444-.942 2.632-2.234z"/><path d="m102.52 250.357c-.004-2.16.94-5.15 5.514-7.002-2.873-.31-5.031-1.289-6.375-2.12-1.131 1.529-3.247 1.566-3.659 1.765-5.41 1.803-6.484 5.052-6.48 7.357.003 1.464 1.202 2.643 2.666 2.643h11c-1.464 0-2.663-1.179-2.666-2.643z"/><path d="m162.486 251.859c.127-1.948.807-5.277 3.666-8.023-3.026-.547-5.62-1.801-7.426-2.899-.476.519-1.016.97-1.557 1.314-4.588 2.919-5.53 7.263-5.683 9.607-.058.893.663 1.641 1.557 1.641h11c-.895.001-1.615-.747-1.557-1.64z"/><path d="m230.7 149.1-1.986.384c-.45.087-.829-.35-.668-.779.7-1.864 1.855-6.062-.009-9.998-1.227-2.592-1.138-4.323-.732-5.413.189-.507-.289-1.005-.785-.788-3.391 1.482-10.12 5.094-11.387 10.838-.082.373-.477.582-.818.409l-1.28-.648c-.281-.142-.625-.042-.779.232-1.075 1.911-4.725 9.141-2.388 15.45.961 2.595 3.008 4.583 5.515 5.642.325-1.241.603-2.613.816-4.163.205-1.49 1.627-2.503 3.102-2.208 1.297.259 2.191 1.44 2.097 2.759-.083 1.158-.233 2.673-.504 4.363 4.408-.596 8.152-3.963 8.788-8.578.045-.327.083-.665.113-1.014 0 0 .412-3.539 1.54-5.644.233-.432-.151-.938-.635-.844z"/><path d="m114.977 113.873c-.699-.989-1.374-1.998-1.995-3.051-2.756-4.669-5.008-9.729-6.851-14.921-3.861 1.501-9.943 5.068-7.131 12.099 3.689 9.224 8.232 12.484 15.977 5.873z"/><path d="m133.54 129.097c-4.743-2.132-9.095-5.038-12.857-8.619-6.176 4.481-14.786 12.419-8.682 18.522 7.841 7.842 15.681 2.775 21.539-9.903z"/><path d="m183.557 145.957c-4.513-3.805-10.273-6.574-16.225-8.589-3.153 4.472-4.716 9.398-.321 12.8 6.638 5.14 12.34 2.937 16.546-4.211z"/><path d="m157.822 134.744c-3.881-.857-7.593-1.45-10.817-1.856-2.379-.299-4.71-.79-6.986-1.434-2.15 5.77-2.74 11.902 3.062 13.987 8.397 3.018 13.228-1.53 14.741-10.697z"/><path d="m101.375 123.203c-2.115-.639-4.444.878-5.203 3.389s.34 5.065 2.454 5.704c2.115.639 4.444-.878 5.203-3.389.759-2.51-.34-5.064-2.454-5.704z"/><path d="m152.375 154.203c-2.115-.639-4.444.878-5.203 3.389s.34 5.065 2.454 5.704c2.115.639 4.444-.878 5.203-3.389s-.34-5.064-2.454-5.704z"/><path d="m189.221 180.218c-3.511-1.062-7.38 1.458-8.641 5.628s.564 8.411 4.075 9.472c.569.172 1.147.241 1.721.233.826-3.275 2.008-7.901 3.528-15.074-.219-.099-.446-.187-.683-.259z"/><ellipse cx="131.5" cy="154.5" rx="7" ry="8"/><path d="m191.685 158.098c-1.168-.999-2.613-1.598-4.185-1.598-3.866 0-7 3.582-7 8s3.134 8 7 8c1.648 0 3.16-.655 4.356-1.744.048-.253.096-.499.144-.756.847-4.477.652-8.417-.315-11.902z"/><path d="m168.533 159.895c-2.063-2.023-5.551-1.047-6.315 1.739-2.819 10.285 5.966 16.907 10.281 10.865 3.069-4.295-.641-9.344-3.966-12.604z"/></g><path d="m149.059 15.596c-13.621-7.285-22.321.392-29.369 7.44-3.325 3.325-6.126 4.906-8.158 5.65.54 1.004.977 2.052 1.278 3.146.475 1.728 1.126 3.394 1.932 4.979 27.366 6.19 50.513-12.552 34.317-21.215z" fill="#f98080"/><path d="m69.202 32.463c.329-1.454.895-2.836 1.639-4.135-1.931-.856-4.407-2.427-7.272-5.291-7.049-7.049-15.749-14.726-29.369-7.44-16.024 8.571 6.464 27.012 33.448 21.407.667-1.454 1.198-2.968 1.554-4.541z" fill="#f98080"/><path d="m149.059 15.596c-13.621-7.285-22.321.392-29.369 7.44-3.325 3.325-6.126 4.906-8.158 5.65.54 1.004.977 2.052 1.278 3.146.06.217.132.43.197.646 7.251-1.279 15.432-5.723 25.48-12.574 4.612-3.145 8.093-4.257 10.731-4.218-.054-.03-.104-.061-.159-.09z" fill="#f9bd55"/><path d="m70.842 28.328c-1.931-.856-4.407-2.427-7.272-5.291-7.049-7.049-15.749-14.726-29.369-7.44-.055.029-.104.06-.158.09 2.638-.04 6.119 1.073 10.731 4.218 9.591 6.539 17.479 10.88 24.482 12.374.333-1.388.874-2.708 1.586-3.951z" fill="#f9bd55"/><path d="m118.48 42.263c-2.703-2.971-4.606-6.558-5.671-10.431-2.213-8.049-11.28-13.92-21.721-13.92-10.648 0-19.986 6.159-21.886 14.552-.895 3.95-2.853 7.548-5.452 10.656-3.543 4.238-5.61 9.333-5.61 14.815 0 10.506 7.596 19.585 18.63 23.936-.249-.551-.474-1.115-.663-1.697-.525-1.616-.816-3.337-.816-5.128 0-9.169 7.433-16.601 16.601-16.601s16.601 7.433 16.601 16.601c0 1.649-.249 3.239-.696 4.743-.168.566-.361 1.121-.586 1.659 10.487-4.496 17.633-13.329 17.633-23.514.001-5.858-2.362-11.272-6.364-15.671z" fill="#f9bd55"/><circle cx="91.893" cy="75.045" fill="#f9bd55" r="16.601"/><path d="m158.937 192.544c-.834 0-1.649-.417-2.124-1.178-2.707-4.342-5.813-10.183-5.813-16.866 0-1.381 1.119-2.5 2.5-2.5s2.5 1.119 2.5 2.5c0 4.225 1.56 8.611 5.057 14.221.729 1.171.372 2.713-.8 3.444-.411.256-.868.379-1.32.379z"/><path d="m179.772 256h-15.729c-1.121 0-2.203-.468-2.969-1.285-.76-.811-1.155-1.911-1.084-3.017.185-2.809 1.316-8.043 6.837-11.555.377-.24.731-.541 1.055-.894.807-.879 2.123-1.068 3.142-.448 2.581 1.568 6.582 3.31 10.996 2.69.794-.111 1.585.162 2.141.734.555.572.805 1.375.671 2.161-.075.438-.091.888-.048 1.336.235 2.489.13 5.998-1.705 8.583-.754 1.062-1.989 1.695-3.307 1.695zm-14.673-5h14.148c.507-1.005.718-2.554.593-4.382-3.808-.066-7.188-1.282-9.786-2.628-.177.13-.357.254-.542.372-3.066 1.949-4.09 4.701-4.413 6.638z"/><path d="m127.674 192.544c-1.265 0-2.35-.956-2.484-2.241-.552-5.313-1.157-9.394-1.163-9.435-.204-1.366.739-2.638 2.104-2.841 1.369-.201 2.638.739 2.841 2.104.025.17.627 4.224 1.191 9.653.143 1.374-.854 2.603-2.228 2.746-.087.01-.174.014-.261.014z"/><path d="m106.636 181.723c-1.259 0-2.342-.948-2.482-2.229-.314-2.881-.355-5.833-.122-8.776.109-1.376 1.311-2.402 2.69-2.294 1.376.109 2.403 1.314 2.294 2.69-.209 2.631-.173 5.268.108 7.837.15 1.373-.841 2.607-2.214 2.757-.092.01-.183.015-.274.015z"/><path d="m179.772 256h-15.729c-1.121 0-2.203-.468-2.969-1.285-.76-.811-1.155-1.911-1.084-3.017.185-2.809 1.316-8.043 6.837-11.555.704-.448 1.28-1.039 1.668-1.708 1.975-3.412 6.183-12.495 2.633-23.144-2.025-6.077-5.894-11.615-9.634-16.971-1.276-1.827-2.587-3.705-3.808-5.582-4.044.478-14.898 1.281-27.396-1.712.792 8.006 1.302 17.337.15 22.517-1.686 7.585-4.1 23.858-4.8 28.665-.034.229 0 .449.098.655 1.051 2.193 1.146 5.822.789 8.266-.364 2.492-2.559 4.372-5.105 4.372h-16.236c-2.844 0-5.161-2.305-5.166-5.139-.004-2.604 1.044-7.315 8.101-9.703.308-.121.607-.181.92-.244 1.533-.307 1.729-.611 1.809-1.234.797-6.189 2.65-21.423 2.65-29.181 0-3.158-1.597-6.826-3.445-11.073-2.392-5.495-5.345-12.277-6.022-20.804-5.803-4.871-10.661-10.891-14.45-17.91-3.58-6.631-5.541-14.348-5.67-22.316-.16-9.771-.658-28.993-2.198-47.944-.074-.908.352-1.785 1.112-2.288.76-.502 1.734-.552 2.54-.129 2.038 1.067 4.234 1.609 6.527 1.609 3.648 0 7.114-1.398 9.758-3.938.639-.612 1.554-.84 2.404-.605.852.238 1.515.908 1.743 1.762 2.39 8.938 5.532 16.74 9.338 23.187 6.71 11.367 18.74 19.164 32.181 20.856 14.601 1.837 33.893 6.619 42.878 18.959 4.347 5.971 5.781 13.069 4.262 21.098-2.493 13.182-4.33 20.453-5.545 25.264-1.914 7.58-1.914 7.58.232 15.609l.272 1.019c3.382 12.682-1.83 25.818-4.228 30.877-.35.738-.49 1.6-.405 2.492.235 2.488.13 5.997-1.706 8.583-.753 1.059-1.988 1.692-3.306 1.692zm-14.673-5h14.148c.545-1.082.748-2.793.558-4.805-.169-1.788.131-3.553.866-5.104 2.161-4.561 6.869-16.365 3.913-27.448l-.271-1.016c-2.413-9.024-2.42-9.533-.25-18.124 1.2-4.753 3.015-11.935 5.48-24.969 1.27-6.712.16-12.346-3.393-17.225-8.352-11.471-28.308-15.539-39.46-16.942-14.965-1.884-28.371-10.585-35.862-23.275-3.512-5.95-6.48-12.946-8.843-20.839-3.007 1.882-6.484 2.891-10.094 2.891-1.648 0-3.295-.218-4.888-.641 1.312 17.761 1.757 35.159 1.907 44.311.117 7.17 1.871 14.094 5.071 20.023 3.656 6.773 8.381 12.524 14.042 17.095.551.445.887 1.102.926 1.808.448 8.151 3.232 14.547 5.688 20.189 2.072 4.759 3.861 8.869 3.861 13.068 0 8.047-1.882 23.534-2.691 29.819-.381 2.956-2.327 4.806-5.786 5.498-.067.014-.127.025-.18.036-.018.006-.035.012-.052.018-3.169 1.057-4.774 2.732-4.771 4.981 0 .08.076.147.166.147h16.236c.084 0 .152-.056.158-.094.307-2.101.061-4.524-.351-5.384-.528-1.102-.714-2.324-.538-3.536.707-4.85 3.145-21.276 4.867-29.029.921-4.145.699-12.846-.625-24.5-.095-.833.234-1.657.875-2.196s1.51-.72 2.313-.485c15.939 4.68 30.25 2.327 30.392 2.303 1-.171 2.005.28 2.542 1.142 1.384 2.221 2.915 4.414 4.537 6.736 3.944 5.648 8.022 11.488 10.278 18.252 4.191 12.577-.736 23.231-3.049 27.229-.788 1.362-1.934 2.546-3.312 3.423-3.061 1.954-4.085 4.706-4.408 6.643zm-55.015-5.748c-.001 0-.002.001-.003.001.002 0 .002 0 .003-.001z"/><path d="m121.422 255.5h-16.236c-2.844 0-5.161-2.305-5.166-5.139-.004-2.603 1.045-7.315 8.1-9.703.305-.12.602-.18.912-.243.495-.101 1.323-.269 1.618-.667.773-1.044 2.218-1.324 3.325-.639 1.764 1.091 4.749 2.276 8.954 1.718 1.252-.165 2.422.622 2.745 1.838.018.066.034.133.064.196 1.051 2.194 1.146 5.824.79 8.268-.364 2.492-2.559 4.371-5.106 4.371zm2.632-4.732h.01zm-14.207-5.416c-.019.007-.037.013-.056.02-3.169 1.057-4.774 2.732-4.771 4.981 0 .08.076.147.166.147h16.236c.084 0 .152-.056.158-.094.228-1.563.15-3.305-.074-4.448-3.577.12-6.425-.708-8.527-1.707-1.144.697-2.325.937-2.954 1.064-.065.014-.126.026-.178.037zm.238-.1c-.057.027-.115.053-.173.076.069-.026.127-.053.173-.076z"/><path d="m105.186 255.5h-11c-2.844 0-5.161-2.305-5.166-5.139-.004-2.604 1.045-7.315 8.102-9.704.304-.119.598-.178.907-.24.495-.1 1.323-.266 1.622-.669.773-1.045 2.22-1.324 3.325-.639 1.059.655 2.842 1.492 5.327 1.761 1.14.123 2.05 1.005 2.208 2.14s-.476 2.233-1.538 2.663c-2.663 1.078-3.956 2.608-3.952 4.68 0 .08.076.147.166.147 1.381 0 2.5 1.119 2.5 2.5s-1.12 2.5-2.501 2.5zm-6.347-10.145c-.016.006-.032.011-.048.017-3.169 1.057-4.774 2.732-4.771 4.981 0 .08.076.147.166.147h5.836c-.001-.046-.002-.092-.002-.139-.003-1.528.364-3.864 2.205-6.004-.08-.036-.159-.072-.236-.108-1.152.706-2.344.944-2.976 1.072-.065.012-.123.023-.174.034zm.245-.102c-.001 0-.002.001-.004.001.002 0 .003-.001.004-.001z"/><path d="m164.043 256h-11c-1.121 0-2.203-.468-2.969-1.285-.76-.811-1.155-1.911-1.084-3.017.185-2.809 1.316-8.043 6.837-11.555.704-.448 1.28-1.039 1.668-1.708 1.975-3.412 6.183-12.495 2.633-23.144-2.026-6.08-5.895-11.621-9.636-16.979-1.434-2.053-2.915-4.176-4.253-6.277-.493-.773-.522-1.754-.077-2.556.444-.801 1.312-1.312 2.21-1.287 6.074.056 10.104-.607 10.146-.613.992-.169 2.002.282 2.539 1.143 1.384 2.221 2.915 4.414 4.537 6.736 3.944 5.648 8.022 11.488 10.278 18.252 4.191 12.577-.736 23.231-3.049 27.229-.788 1.362-1.934 2.546-3.312 3.423-3.181 2.024-4.164 4.913-4.446 6.856.872.391 1.479 1.266 1.479 2.282-.001 1.381-1.12 2.5-2.501 2.5zm-9.944-5h5.953c.325-2.914 1.684-7.618 6.775-10.857.704-.448 1.28-1.039 1.668-1.708 1.975-3.412 6.183-12.495 2.633-23.144-2.025-6.077-5.894-11.615-9.634-16.971-1.276-1.828-2.588-3.706-3.809-5.585-1.101.128-2.709.28-4.722.374.53.769 1.073 1.546 1.628 2.341 3.945 5.65 8.024 11.493 10.28 18.26 4.191 12.577-.736 23.231-3.049 27.229-.788 1.362-1.934 2.546-3.312 3.423-3.064 1.949-4.088 4.701-4.411 6.638z"/><path d="m164.043 256h-11c-1.121 0-2.203-.468-2.969-1.285-.76-.811-1.155-1.911-1.084-3.017.185-2.809 1.316-8.043 6.837-11.555.366-.233.741-.55 1.055-.893.806-.88 2.122-1.069 3.142-.449 1.483.901 3.827 2.079 6.573 2.575.925.167 1.678.838 1.949 1.738s.016 1.875-.662 2.526c-1.93 1.853-2.597 4.065-2.818 5.578.871.391 1.478 1.266 1.478 2.282-.001 1.381-1.12 2.5-2.501 2.5zm-9.944-5h5.954c.17-1.503.638-3.611 1.858-5.751-1.057-.391-2.016-.829-2.855-1.262-.179.132-.36.257-.544.374-3.066 1.95-4.09 4.702-4.413 6.639z"/><path d="m105.186 255.5h-11c-2.844 0-5.161-2.305-5.166-5.139-.004-2.604 1.044-7.315 8.101-9.703.308-.121.607-.181.921-.244 1.533-.307 1.728-.611 1.808-1.234.797-6.189 2.65-21.423 2.65-29.181 0-2.412-.896-5.049-2.24-8.267-4.855-11.622-7.307-23.823-7.288-36.266l.001-.456c.002-1.092.713-2.056 1.755-2.381 1.045-.327 2.176.063 2.798.959 3.013 4.336 6.545 8.153 10.498 11.344.551.444.887 1.102.926 1.808.448 8.151 3.232 14.547 5.688 20.189 2.072 4.759 3.861 8.869 3.861 13.068 0 3.566-.39 8.595-.717 12.187-.006.066-.015.133-.026.198-1.319 7.641-2.61 16.347-3.103 19.735-.086.591-.381 1.131-.831 1.524-.228.199-.472.38-.746.554-1.196.744-2.4.988-3.047 1.119l-.114.023-.003-.012c.067-.025.126-.053.174-.076-.057.027-.115.053-.174.076l-.641-2.407.521 2.446c.039-.01.077-.022.112-.036-.037.015-.075.028-.113.041-3.169 1.057-4.774 2.732-4.771 4.981 0 .08.076.147.166.147 1.381 0 2.5 1.119 2.5 2.5s-1.119 2.503-2.5 2.503zm-6.343-10.146c-.017.006-.035.012-.052.018-3.169 1.057-4.774 2.732-4.771 4.981 0 .08.076.147.166.147h5.836c-.001-.046-.002-.092-.002-.139-.004-2.604 1.045-7.318 8.107-9.706.164-.063.313-.104.434-.135.02-.005.136-.033.156-.038.015-.003.169-.036.185-.04l.135-.027c.25-.051.556-.113.843-.208.582-3.958 1.744-11.679 2.933-18.575.316-3.48.688-8.288.688-11.633 0-3.158-1.597-6.826-3.445-11.073-2.392-5.495-5.345-12.278-6.022-20.804-2.042-1.715-3.976-3.584-5.79-5.595.733 9.331 2.955 18.478 6.63 27.276 1.577 3.773 2.626 6.951 2.626 10.195 0 8.047-1.882 23.534-2.691 29.819-.381 2.956-2.327 4.806-5.786 5.498-.067.016-.127.027-.18.039zm.241-.102c-.001 0-.002.001-.003.002.001-.001.002-.001.003-.002z"/><path d="m207.122 184.995c-5.053 0-10.975-2.491-17.685-7.453-.779-.576-1.155-1.551-.965-2.501.343-1.714.699-3.541 1.071-5.506.192-1.02.322-2.069.409-3.302.066-.938.653-1.759 1.52-2.126.863-.366 1.864-.217 2.584.389 6.169 5.188 11.285 7.381 14.407 6.182 3.3-1.271 4.681-6.548 5.258-10.751.19-1.389.956-2.654 2.101-3.469s2.587-1.126 3.969-.85c2.521.504 4.284 2.821 4.1 5.39-.488 6.827-2.583 18.867-11.12 22.796-1.741.801-3.625 1.201-5.649 1.201zm-13.434-10.552c7.216 5.062 12.93 6.68 16.992 4.809 6.611-3.043 7.966-15.015 8.224-18.612.004-.064-.034-.117-.094-.129-.015-.004-.047-.009-.089.02-1.153 8.131-3.984 13.089-8.462 14.813-4.27 1.645-9.611.2-15.915-4.292-.223 1.179-.442 2.307-.656 3.391z"/><path d="m220.894 167.683c-.669 0-1.315-.269-1.789-.754-.553-.566-.805-1.36-.68-2.141.219-1.365.38-2.76.479-4.147.004-.064-.034-.117-.094-.129 0 0-.136.096-.136.097-.217 1.576-.502 3.033-.873 4.455-.184.702-.663 1.29-1.314 1.611s-1.411.342-2.078.06c-3.213-1.358-5.723-3.938-6.886-7.077-2.695-7.278 1.273-15.269 2.554-17.544.675-1.205 2.035-1.784 3.332-1.505 2.365-5.418 8.429-8.782 12.108-10.391 1.14-.497 2.455-.269 3.355.582.912.864 1.216 2.187.773 3.371-.131.352-.331 1.396.65 3.468 1.514 3.199 1.432 6.454.935 8.978.815.108 1.562.542 2.072 1.235.712.967.802 2.224.233 3.281-.736 1.374-1.166 3.954-1.259 4.749-.026.319-.069.699-.12 1.066-.764 5.542-5.258 9.948-10.93 10.715-.109.012-.221.02-.332.02zm-2.098-12.173c.332 0 .665.032.995.098 2.521.505 4.284 2.822 4.1 5.39-.011.16-.023.319-.036.479 1.794-1.177 3.053-3.053 3.351-5.214.039-.286.072-.583.1-.889.033-.295.217-1.778.653-3.448-.662-.141-1.271-.497-1.722-1.03-.719-.852-.922-2.028-.531-3.07.517-1.375 1.557-4.914.072-8.049-.588-1.243-.969-2.423-1.142-3.535-2.861 1.627-6.311 4.237-7.062 7.641-.212.95-.831 1.728-1.702 2.139-.714.338-1.512.385-2.249.144-1.204 2.612-2.962 7.566-1.41 11.754.319.864.82 1.66 1.461 2.346.016-.112.032-.225.048-.339.19-1.389.956-2.654 2.101-3.469.87-.62 1.916-.948 2.973-.948zm12.378-3.955-.004.001c.001-.001.003-.001.004-.001z"/><path d="m126.792 127.865c-.481 0-.965-.138-1.388-.421-6.039-4.034-10.943-9.198-14.574-15.351-4.032-6.83-7.349-15.053-9.858-24.441-.235-.879.026-1.817.683-2.448 1.416-1.36 2.51-2.949 3.252-4.723.25-.599.724-1.077 1.321-1.333.958-.41 1.931-.891 2.975-1.468.703-.388 1.548-.416 2.273-.074.726.341 1.244 1.01 1.393 1.798 3.416 18.092 8.813 33.108 16.042 44.631.626.999.47 2.3-.375 3.122-.482.468-1.111.708-1.744.708zm-20.62-40.149c2.343 8.383 5.356 15.724 8.963 21.835.81 1.372 1.689 2.688 2.639 3.948-3.748-8.606-6.783-18.434-9.069-29.388-.698 1.292-1.545 2.498-2.533 3.605z"/><path d="m111.778 16.392c-4.519 0-8.196-3.677-8.196-8.196s3.677-8.196 8.196-8.196 8.195 3.677 8.195 8.196-3.676 8.196-8.195 8.196zm0-11.392c-1.762 0-3.196 1.434-3.196 3.196s1.434 3.196 3.196 3.196 3.195-1.434 3.195-3.196-1.433-3.196-3.195-3.196z"/><path d="m70.485 16.392c-4.519 0-8.195-3.677-8.195-8.196s3.676-8.196 8.195-8.196 8.196 3.677 8.196 8.196-3.677 8.196-8.196 8.196zm0-11.392c-1.762 0-3.195 1.434-3.195 3.196s1.434 3.196 3.195 3.196c1.762 0 3.196-1.434 3.196-3.196s-1.433-3.196-3.196-3.196z"/><path d="m75.556 25.486c-.147 0-.296-.013-.443-.04-.698-.125-1.31-.542-1.683-1.145l-5.648-9.124c-.501-.809-.499-1.833.005-2.64s1.417-1.262 2.37-1.163c1.322.13 2.669-.619 3.235-1.86.382-.84 1.196-1.401 2.117-1.459.925-.058 1.799.395 2.284 1.179l5.684 9.182c.391.631.481 1.402.246 2.106-.234.704-.769 1.268-1.46 1.538-1.926.754-3.667 1.73-5.174 2.9-.442.344-.982.526-1.533.526zm-1.618-9.862 2.364 3.819c.464-.282.941-.551 1.43-.807l-2.384-3.851c-.44.325-.913.607-1.41.839z"/><path d="m106.678 25.533c-.555 0-1.099-.185-1.542-.532-1.502-1.178-3.238-2.159-5.158-2.917-.689-.271-1.222-.835-1.455-1.538s-.143-1.473.248-2.103l5.7-9.208c.485-.784 1.358-1.245 2.284-1.179.921.059 1.734.62 2.117 1.459.565 1.242 1.903 1.998 3.236 1.86.948-.093 1.865.357 2.369 1.164s.506 1.831.005 2.64l-5.678 9.171c-.374.604-.988 1.021-1.688 1.146-.146.025-.292.037-.438.037zm-2.168-6.864c.488.257.963.528 1.427.812l2.388-3.857c-.497-.232-.97-.514-1.411-.839z"/><path d="m91.223 84.155c-2.803 0-5.558-.933-8.192-2.773-1.132-.791-1.408-2.35-.617-3.481.792-1.133 2.35-1.408 3.481-.617 1.825 1.275 3.666 1.904 5.473 1.871 1.729-.033 3.468-.675 5.168-1.908 1.118-.81 2.681-.561 3.492.557.81 1.118.561 2.681-.557 3.492-2.544 1.843-5.238 2.805-8.008 2.858-.08 0-.16.001-.24.001z"/><path d="m99.088 71.95c-.262 0-.529-.042-.791-.129l-2.398-.799c-1.31-.437-2.018-1.852-1.581-3.162s1.854-2.016 3.162-1.581l2.398.799c1.31.437 2.018 1.852 1.581 3.162-.349 1.047-1.325 1.71-2.371 1.71z"/><path d="m84.698 71.95c-1.047 0-2.022-.663-2.371-1.71-.437-1.31.271-2.726 1.581-3.162l2.398-.799c1.309-.437 2.725.271 3.162 1.581s-.271 2.726-1.581 3.162l-2.398.799c-.262.087-.529.129-.791.129z"/><path d="m102.026 52.452c-1.377 0-2.496-1.114-2.5-2.492-.006-1.817.696-3.528 1.977-4.818s2.988-2.003 4.805-2.008h.023c3.741 0 6.791 3.038 6.803 6.782.004 1.381-1.111 2.504-2.492 2.508-.003 0-.006 0-.008 0-1.377 0-2.496-1.114-2.5-2.492-.003-.993-.812-1.798-1.804-1.798-.002 0-.004 0-.006 0-.482.001-.935.19-1.274.532-.34.342-.526.795-.524 1.277.004 1.381-1.111 2.504-2.492 2.508-.003.001-.006.001-.008.001z"/><path d="m81.297 52.438c-1.381 0-2.5-1.119-2.5-2.5 0-.995-.81-1.804-1.804-1.804s-1.804.809-1.804 1.804c0 1.381-1.119 2.5-2.5 2.5s-2.5-1.119-2.5-2.5c0-3.751 3.052-6.804 6.804-6.804s6.804 3.052 6.804 6.804c0 1.38-1.119 2.5-2.5 2.5z"/><path d="m107.755 119.861c-.66 0-1.309-.079-1.949-.237-4.823-1.19-7.519-6.674-9.128-10.695-1.161-2.902-1.202-5.634-.121-8.121 1.671-3.847 5.636-6.059 8.668-7.236.629-.245 1.332-.224 1.946.057.615.282 1.089.8 1.315 1.437 1.906 5.369 4.143 10.243 6.648 14.487.518.878 1.117 1.793 1.884 2.88.746 1.055.564 2.505-.419 3.343-3.205 2.736-6.119 4.085-8.844 4.085zm-3.026-20.545c-1.446.818-2.929 1.974-3.585 3.484-.536 1.234-.478 2.631.178 4.271 1.854 4.635 3.766 7.226 5.683 7.699 1.212.298 2.75-.185 4.588-1.438-.272-.424-.524-.833-.764-1.238-2.257-3.824-4.304-8.113-6.1-12.778z"/><path d="m119.619 145.233c-2.55 0-5.867-.946-9.386-4.466-2.036-2.036-3.002-4.506-2.793-7.144.369-4.665 4.331-9.768 11.775-15.169.975-.708 2.318-.619 3.191.213 3.546 3.375 7.637 6.117 12.158 8.149.609.273 1.083.779 1.317 1.405.233.625.208 1.318-.072 1.924-4.073 8.814-9.051 13.977-14.395 14.929-.541.097-1.143.159-1.795.159zm.912-21.513c-4.965 3.876-7.892 7.575-8.107 10.297-.094 1.183.333 2.204 1.344 3.215 2.324 2.324 4.603 3.309 6.77 2.92 3.224-.574 6.607-4.061 9.65-9.895-3.489-1.792-6.723-3.981-9.657-6.537z"/><path d="m173.993 155.482c-2.792 0-5.646-1.117-8.513-3.336-2.809-2.175-6.567-7.173-.191-16.218.639-.905 1.796-1.281 2.845-.928 6.991 2.367 12.723 5.41 17.034 9.045.932.786 1.161 2.128.543 3.179-2.727 4.634-6.005 7.349-9.742 8.068-.655.127-1.314.19-1.976.19zm-5.638-15.1c-3.1 5.265-.749 7.086.186 7.811 2.36 1.827 4.539 2.566 6.483 2.191 2.103-.405 3.863-2.093 5.184-3.878-3.203-2.345-7.175-4.397-11.853-6.124z"/><path d="m147.871 148.874c-1.75 0-3.632-.36-5.638-1.081-2.51-.902-4.298-2.47-5.315-4.662-1.442-3.107-1.188-7.33.757-12.55.454-1.22 1.774-1.885 3.023-1.533 2.223.629 4.449 1.086 6.618 1.36 3.796.478 7.511 1.115 11.044 1.895 1.297.287 2.144 1.538 1.928 2.848-.997 6.046-3.305 10.17-6.859 12.259-1.661.975-3.52 1.464-5.558 1.464zm-6.216-14.416c-.812 2.847-.886 5.094-.202 6.568.446.961 1.231 1.616 2.472 2.062 2.879 1.035 5.224 1.037 6.971.01 1.775-1.043 3.127-3.242 3.965-6.419-2.646-.521-5.384-.96-8.169-1.311-1.66-.209-3.346-.514-5.037-.91z"/><path d="m99.601 134.941c-.566 0-1.136-.081-1.699-.251-3.431-1.037-5.281-4.994-4.125-8.821 1.157-3.827 4.889-6.096 8.32-5.059 3.43 1.038 5.28 4.995 4.124 8.821-.966 3.199-3.734 5.31-6.62 5.31zm.79-9.382c-.658 0-1.489.642-1.827 1.757-.384 1.269.106 2.383.785 2.588.681.208 1.704-.45 2.087-1.72.383-1.269-.106-2.382-.785-2.588-.083-.025-.17-.037-.26-.037z"/><path d="m150.6 165.941c-.565 0-1.136-.081-1.697-.251-3.431-1.037-5.281-4.994-4.125-8.821 1.158-3.826 4.89-6.099 8.32-5.059h.001c3.43 1.038 5.279 4.995 4.124 8.821-.969 3.199-3.737 5.31-6.623 5.31zm.792-9.382c-.658 0-1.49.642-1.828 1.757-.383 1.269.106 2.382.785 2.587.673.205 1.703-.45 2.088-1.72.383-1.268-.106-2.381-.784-2.587-.084-.025-.171-.037-.261-.037z"/><path d="m186.297 198.052c-.822 0-1.617-.114-2.364-.34-4.825-1.459-7.402-7.107-5.744-12.589 1.658-5.483 6.935-8.753 11.757-7.297.001 0 .002 0 .003.001.339.103.666.229.982.371 1.073.482 1.665 1.648 1.421 2.799-1.46 6.891-2.601 11.409-3.434 14.708l-.116.459c-.277 1.099-1.259 1.874-2.392 1.889-.038-.001-.076-.001-.113-.001zm.608-15.515c-1.687.324-3.277 1.87-3.932 4.033-.743 2.459-.036 4.925 1.583 5.974.64-2.557 1.422-5.773 2.349-10.007z"/><path d="m131.5 165c-5.238 0-9.5-4.71-9.5-10.5s4.262-10.5 9.5-10.5 9.5 4.71 9.5 10.5-4.262 10.5-9.5 10.5zm0-16c-2.481 0-4.5 2.467-4.5 5.5s2.019 5.5 4.5 5.5 4.5-2.467 4.5-5.5-2.019-5.5-4.5-5.5z"/><path d="m187.5 175c-5.238 0-9.5-4.71-9.5-10.5s4.262-10.5 9.5-10.5c2.12 0 4.129.76 5.81 2.198.378.323.651.752.784 1.231 1.115 4.023 1.237 8.408.362 13.035l-.146.766c-.102.529-.372 1.01-.771 1.373-1.695 1.546-3.84 2.397-6.039 2.397zm0-16c-2.481 0-4.5 2.467-4.5 5.5s2.019 5.5 4.5 5.5c.848 0 1.545-.288 2.074-.63.641-3.491.608-6.779-.092-9.793-.511-.314-1.18-.577-1.982-.577z"/><path d="m168.445 177.303c-1.066 0-2.155-.246-3.219-.751-4.26-2.025-7.489-8.027-5.419-15.578.599-2.184 2.263-3.84 4.452-4.432 2.172-.585 4.423 0 6.023 1.569 7.966 7.811 6.083 13.279 4.251 15.843-1.558 2.183-3.765 3.349-6.088 3.349zm-2.523-15.983c-.141 0-.265.023-.357.048-.221.06-.755.27-.935.927-1.49 5.437.893 8.86 2.744 9.741 1.184.562 2.223.229 3.092-.99 1.998-2.797-.9-6.637-3.683-9.366-.289-.283-.603-.36-.861-.36z"/><path d="m125.678 40.533c-3.722 0-7.588-.401-11.488-1.284-.725-.164-1.34-.643-1.677-1.306-.89-1.751-1.602-3.584-2.114-5.449-.237-.864-.597-1.747-1.068-2.624-.344-.639-.393-1.395-.135-2.072.258-.678.797-1.21 1.478-1.459 1.568-.574 4.099-1.92 7.25-5.07 6.131-6.131 16.394-16.394 32.315-7.877 5.629 3.011 7.892 7.753 6.052 12.687-2.952 7.916-15.603 14.454-30.613 14.454zm-9.213-5.911c17.563 3.512 32.696-3.733 35.141-10.291.937-2.511-.317-4.708-3.725-6.531-11.703-6.259-18.889-.531-26.422 7.003-2.221 2.221-4.443 3.936-6.634 5.124.15.414.283.829.396 1.242.321 1.171.738 2.328 1.244 3.453z"/><path d="m57.659 40.529c-15.105 0-27.861-6.652-30.723-14.54-1.777-4.899.498-9.609 6.085-12.598 15.922-8.517 26.185 1.745 32.316 7.877 2.247 2.246 4.439 3.852 6.518 4.773.647.287 1.142.834 1.362 1.507.221.672.146 1.407-.206 2.021-.648 1.132-1.109 2.292-1.37 3.445v.001c-.38 1.68-.959 3.373-1.721 5.03-.332.722-.986 1.243-1.764 1.405-3.56.74-7.089 1.079-10.497 1.079zm-12.864-25.4c-2.822 0-5.917.799-9.416 2.671-3.387 1.812-4.646 3.993-3.743 6.483 2.313 6.376 17.009 13.605 34.232 10.517.378-.964.678-1.932.896-2.891.189-.838.45-1.672.779-2.496-1.905-1.153-3.828-2.696-5.742-4.61-5.28-5.28-10.392-9.674-17.006-9.674zm24.408 17.334h.01z"/><path d="m113.005 34.978c-1.084 0-2.069-.708-2.392-1.779l-.065-.208c-.052-.164-.103-.329-.149-.495-.238-.866-.597-1.749-1.069-2.626-.344-.639-.393-1.395-.135-2.072.258-.678.797-1.21 1.478-1.459 1.568-.574 4.099-1.92 7.25-5.07 6.131-6.131 16.394-16.394 32.315-7.877.001 0 .001 0 .002.001l.165.093c.983.571 1.491 1.753 1.188 2.849s-1.295 1.872-2.412 1.851c-2.424-.042-5.603 1.272-9.286 3.784-11.517 7.853-19.429 11.732-26.454 12.971-.146.024-.292.037-.436.037zm25.46-19.849c-6.615 0-11.726 4.393-17.006 9.674-1.761 1.761-3.523 3.204-5.27 4.318 5.508-1.722 12.142-5.32 20.89-11.284 1.435-.978 2.804-1.799 4.115-2.466-.939-.163-1.847-.242-2.729-.242z"/><path d="m69.258 34.778c-.173 0-.349-.018-.524-.056-6.798-1.451-14.385-5.265-25.368-12.753-3.684-2.511-6.909-3.82-9.285-3.784-1.152.039-2.158-.748-2.453-1.855-.295-1.108.2-2.275 1.203-2.831l.198-.111c15.916-8.514 26.178 1.75 32.309 7.881 2.247 2.246 4.439 3.852 6.518 4.773.647.287 1.142.834 1.362 1.507.221.673.146 1.407-.206 2.021-.609 1.064-1.055 2.172-1.326 3.293-.276 1.143-1.297 1.915-2.428 1.915zm-27.192-19.406c1.312.667 2.681 1.488 4.116 2.466 8.786 5.99 15.379 9.563 20.884 11.279-1.748-1.116-3.51-2.559-5.264-4.313-5.986-5.986-11.752-10.827-19.736-9.432z"/><path d="m76.771 84.37c-.308 0-.619-.057-.917-.174-12.468-4.917-20.213-14.979-20.213-26.262 0-5.896 2.141-11.574 6.192-16.418 2.508-3 4.167-6.231 4.932-9.604 2.165-9.561 12.395-16.5 24.324-16.5 11.473 0 21.622 6.627 24.131 15.758.979 3.558 2.745 6.812 5.109 9.411 4.589 5.045 7.015 11.045 7.015 17.353 0 10.857-7.337 20.747-19.148 25.811-.937.402-2.022.194-2.746-.522-.723-.717-.939-1.802-.545-2.741.18-.431.342-.891.496-1.407.393-1.32.592-2.675.592-4.029 0-7.775-6.326-14.102-14.102-14.102s-14.099 6.326-14.099 14.101c0 1.473.233 2.938.694 4.355.151.464.335.935.563 1.438.42.927.235 2.017-.466 2.754-.482.507-1.141.778-1.812.778zm14.318-63.959c-9.46 0-17.821 5.418-19.448 12.604-.941 4.155-2.951 8.094-5.972 11.707-3.289 3.934-5.028 8.502-5.028 13.211 0 7.701 4.593 14.766 12.276 19.292-.084-.723-.126-1.451-.126-2.181 0-10.533 8.569-19.102 19.101-19.102 10.533 0 19.102 8.569 19.102 19.102 0 .545-.024 1.09-.071 1.633 7.152-4.553 11.421-11.409 11.421-18.744 0-5.042-1.976-9.879-5.713-13.989-2.891-3.178-5.046-7.137-6.232-11.451-1.924-7-10.045-12.082-19.31-12.082z"/><path d="m91.893 94.146c-10.532 0-19.101-8.569-19.101-19.101 0-10.533 8.569-19.102 19.101-19.102 10.533 0 19.102 8.569 19.102 19.102-.001 10.532-8.57 19.101-19.102 19.101zm0-33.203c-7.775 0-14.101 6.326-14.101 14.102s6.326 14.101 14.101 14.101 14.102-6.326 14.102-14.101-6.327-14.102-14.102-14.102z"/></svg>