<svg enable-background="new 0 0 256 256" height="512" viewBox="0 0 256 256" width="512" xmlns="http://www.w3.org/2000/svg"><path d="m190.282 56.09c5.718-8.324 20.233-32.177 10.595-47.506-11.082-17.627-39.521 12.282-43.084 16.147 16.372 6.307 26.718 20.575 32.489 31.359z" fill="#ffc097"/><path d="m98.213 24.737c-3.536-3.836-32.002-33.791-43.091-16.153-9.637 15.329 4.877 39.182 10.595 47.506 5.773-10.783 16.124-25.046 32.496-31.353z" fill="#ffc097"/><path d="m174.591 35.343c.583-3.086 1.851-6.784 4.147-11.226 6.857-13.272 15.999-15.782 21.983-15.767-11.19-17.11-39.381 12.535-42.926 16.38 6.524 2.514 12.093 6.291 16.796 10.613z" fill="#52565b"/><path d="m77.263 24.117c2.296 4.443 3.564 8.142 4.147 11.228 4.704-4.322 10.277-8.093 16.804-10.607-3.519-3.817-31.737-33.508-42.934-16.388 5.984-.015 15.125 2.495 21.983 15.767z" fill="#52565b"/><path d="m157.109 24.017c-1.521-2.418-5.243-6.963-11.862-7.242-.385-.016-.6-.443-.366-.75.878-1.154 2.772-3.348 5.095-4.279.377-.151.416-.662.055-.846-2.662-1.36-10.535-4.551-19.187-.161-1.712.869-3.806.541-5.2-.779-3.081-2.917-9.682-7.281-21.715-7.458-.475-.007-.667.606-.268.863l9.976 6.424s-4.153-2.674-13.604 2.496c-.404.221-.291.834.167.884l2.716.296c.453.049.582.654.181.871-2.181 1.18-5.884 4.277-6.978 11.949-.055.386.37.665.706.466l3.329-1.973c.357-.212.791.104.694.507-.781 3.261-1.852 13.083 10.426 21.382.304.205.722-.004.738-.37.107-2.44.79-9.784 5.06-16.949.212-.356.753-.275.856.126.48 1.873 1.587 5.668 3.027 7.292.238.269.683.157.787-.187.599-1.984 2.517-7.516 5.492-8.312.092-.025.186-.02.276.008 1.053.325 7.713 2.722 10.224 12.003.114.422.708.462.877.059.726-1.725 1.77-5.292.843-10.206-.058-.308.183-.591.496-.561 2.06.198 8.807 1.526 12.926 10.407.216.465.91.322.896-.191-.095-3.604-1.094-10.779-7.123-15.117-.304-.219-.267-.681.082-.818 1.522-.597 5.184-1.525 9.761.824.426.218.873-.25.617-.658z" fill="#f89422"/><path d="m209.359 91.696c-.288-.557.215-1.189.823-1.037l1.467.367c.503.126.979-.294.903-.807-.412-2.796-2.521-10.705-13.3-18.496-1.958-1.415-3.462-3.368-4.339-5.619-3.551-9.119-14.856-33.192-37.78-41.635-.109.213-.38.34-.645.204-4.578-2.348-8.239-1.421-9.761-.824-.349.137-.386.599-.082.818 6.028 4.339 7.027 11.513 7.123 15.117.014.513-.681.656-.896.191-4.119-8.881-10.866-10.209-12.926-10.407-.313-.03-.554.252-.496.56.927 4.914-.117 8.481-.843 10.206-.17.403-.763.363-.877-.059-2.51-9.282-9.171-11.678-10.224-12.003-.091-.028-.184-.033-.276-.008-2.975.796-4.893 6.328-5.492 8.312-.104.344-.549.455-.787.187-1.44-1.624-2.547-5.419-3.027-7.292-.103-.401-.644-.481-.856-.126-4.271 7.165-4.953 14.509-5.06 16.949-.016.366-.434.576-.738.37-12.278-8.299-11.207-18.121-10.426-21.382.097-.404-.338-.719-.694-.508l-3.329 1.973c-.336.199-.761-.08-.706-.466.036-.255.083-.491.125-.736-21.161 9.242-31.743 31.797-35.155 40.559-.879 2.256-2.39 4.21-4.351 5.628-10.767 7.789-12.874 15.692-13.286 18.487-.076.513.4.932.903.807l1.467-.367c.608-.152 1.111.48.823 1.037-3.208 6.217-3.439 14.074-3.368 17.459.014.646.793.958 1.249.501l2.795-2.795c.44-.44 1.19-.163 1.239.457 2.434 31.174 74.636 34.51 79.443 34.389 4.808.12 77.009-3.216 79.443-34.389.048-.62.799-.897 1.239-.457l2.795 2.795c.457.457 1.236.144 1.249-.501.073-3.384-.158-11.242-3.366-17.459z" fill="#f89422"/><path d="m164.405 96.373c-2.342-.852-4.414-1.732-6.277-2.632.551 1.579.854 3.287.854 5.088 0 8.506-6.896 15.402-15.402 15.402h-1.628c-3.849 5.521-8.962 9.626-13.952 9.626-4.79 0-9.695-3.781-13.484-8.967h-2.097c-8.506 0-15.402-6.896-15.402-15.402 0-2.251.483-4.353 1.323-6.243-2.108 1.074-4.503 2.12-7.273 3.128-17.453 6.347-19.993 24.023-12.557 37.34 21.343 6.976 46.707 8.064 49.49 7.995 2.755.069 27.634-1 48.839-7.787 7.58-13.34 5.111-31.168-12.434-37.548z" fill="#f4dbce"/><path d="m141.151 83.641c.222.424.345.904.345 1.452 0 4.168-6.874 10.03-13.497 10.173v6.449c0 6.913 5.604 12.517 12.517 12.517h3.064c8.506 0 15.402-6.896 15.402-15.402.001-9.662-8.695-16.677-17.831-15.189z" fill="#f4dbce"/><path d="m127.753 95.279c-6.698 0-13.744-5.967-13.744-10.187 0-.323.054-.616.134-.895-8.872-1.024-17.125 5.878-17.125 15.291 0 8.506 6.896 15.402 15.402 15.402h3.064c6.913 0 12.517-5.604 12.517-12.517v-7.108c-.083.003-.166.014-.248.014z" fill="#f4dbce"/><path d="m141.497 85.093c0 4.219-7.046 10.187-13.744 10.187s-13.744-5.967-13.744-10.187 7.046-4.545 13.744-4.545 13.744.326 13.744 4.545z" fill="#f98080"/><path d="m140.517 114.232c-6.913 0-12.517-5.604-12.517-12.517v.659c0 6.913-5.604 12.517-12.517 12.517h-.967c3.789 5.186 8.693 8.967 13.484 8.967 4.99 0 10.103-4.106 13.952-9.626z" fill="#fd605b"/><path d="m178.864 216.871c.949-7.96 11.26-11.158 18.386-7.485 3.947 2.035 6.385 5.746 7.061 9.363 9.056-23.989-10.221-65.56-21.672-86.871-22.185 8.625-51.628 9.906-54.639 9.831-3.011.075-32.454-1.206-54.639-9.831-11.452 21.311-30.728 62.882-21.672 86.871.677-3.617 3.114-7.328 7.061-9.362 7.126-3.673 17.436-.476 18.386 7.485 1.482 12.43 8.216 21.981 9.267 28.809 20.26 7.977 38.322 7.82 41.597 7.82s21.338.157 41.597-7.82c1.051-6.829 7.785-16.38 9.267-28.81z" fill="#f4dbce"/><path d="m182.639 131.878c-5.739 2.231-11.962 3.967-18.088 5.319 3.239 3.964 6.201 8.456 8.857 13.372-4.729 2.991-14.225 10.241-19.562 22.866 0 0 5.845 1.725 7.928 9.081 0 0 10.532.525 21.103-7.791 2.792 10.356 4.457 21.648 4.706 33.514 3.171-.707 6.694-.386 9.667 1.147 3.947 2.034 6.385 5.745 7.061 9.363 9.056-23.99-10.221-65.56-21.672-86.871z" fill="#52565b"/><path d="m82.592 150.568c2.656-4.915 5.619-9.407 8.857-13.372-6.127-1.352-12.35-3.088-18.088-5.319-11.452 21.311-30.728 62.882-21.672 86.871.677-3.617 3.114-7.328 7.061-9.362 2.973-1.533 6.496-1.854 9.667-1.147.249-11.866 1.914-23.158 4.706-33.514 10.571 8.317 21.103 7.791 21.103 7.791 2.083-7.357 7.928-9.081 7.928-9.081-5.337-12.625-14.833-19.875-19.562-22.867z" fill="#52565b"/><g fill="#ffc097"><path d="m197.25 209.386c-7.126-3.673-17.436-.476-18.386 7.485-2.121 17.788-15.014 29.689-6.584 36.135 5.816 4.447 32.231-22.314 32.231-32.231 0-4.182-2.569-8.97-7.261-11.389z"/><path d="m58.75 209.386c7.126-3.673 17.436-.476 18.386 7.485 2.121 17.788 15.014 29.689 6.584 36.135-5.816 4.447-32.231-22.314-32.231-32.231 0-4.182 2.569-8.97 7.261-11.389z"/><path d="m153.846 173.435s-11.958-1.939-15.974 7.097c-3.129 7.039 3.492 7.985 6.571 8.06.735.018 1.275.68 1.174 1.408-.287 2.056-.262 5.592 3.299 5.592 5.02 0 10.85-2.031 12.858-13.075-2.083-7.358-7.928-9.082-7.928-9.082z"/><path d="m102.154 173.435s11.958-1.939 15.974 7.097c3.129 7.039-3.492 7.985-6.571 8.06-.735.018-1.275.68-1.174 1.408.287 2.056.262 5.592-3.299 5.592-5.02 0-10.85-2.031-12.858-13.075 2.083-7.358 7.928-9.082 7.928-9.082z"/></g><path d="m114.143 84.198c-.001 0-.001 0 0 0 .956-3.365 7.425-3.65 13.61-3.65 5.828 0 11.915.249 13.399 3.093 1.388-.226 2.762-.234 4.101-.088-4.738-6.832-4.241-13.739-9.338-18.837-3.89-3.89-5.159-9.789-6.12-14.668-.194-.984-1.055-1.688-2.058-1.688s-1.864.704-2.058 1.688c-.961 4.879-2.23 10.778-6.12 14.668-5.299 5.299-4.546 12.554-9.921 19.648 1.457-.269 2.97-.343 4.505-.166z" fill="#f4dbce"/><path d="m143.581 116.731h-3.064c-8.28 0-15.017-6.736-15.017-15.017v-6.449c0-1.359 1.086-2.47 2.446-2.5 5.708-.124 11.051-5.352 11.051-7.674 0-.155-.031-.236-.062-.294-.372-.711-.379-1.559-.02-2.276.359-.718 1.041-1.22 1.834-1.349 5.164-.844 10.436.635 14.455 4.054 3.989 3.393 6.277 8.35 6.277 13.602.001 9.873-8.029 17.903-17.9 17.903zm-13.081-19.23v4.214c0 5.523 4.493 10.017 10.017 10.017h3.064c7.114 0 12.901-5.788 12.901-12.902 0-3.838-1.604-7.316-4.517-9.793-2.28-1.938-5.112-3.013-8.026-3.089-.662 5.012-6.97 10.317-13.439 11.553z"/><path d="m115.483 117.391h-3.064c-9.872 0-17.902-8.031-17.902-17.902 0-5.168 2.118-9.902 5.963-13.329 3.823-3.408 8.907-5.029 13.949-4.445.729.084 1.383.483 1.791 1.093.408.609.527 1.367.328 2.072-.035.124-.039.182-.039.214 0 2.395 5.406 7.657 11.195 7.687.095-.007.174-.011.252-.013.657-.018 1.318.246 1.796.716.479.47.748 1.112.748 1.783v7.108c0 8.279-6.736 15.016-15.017 15.016zm-3.793-30.773c-2.886.163-5.674 1.305-7.884 3.274-2.766 2.465-4.29 5.874-4.29 9.597 0 7.114 5.788 12.902 12.902 12.902h3.064c5.523 0 10.017-4.494 10.017-10.017v-4.782c-6.295-1.023-12.664-6.06-13.809-10.974z"/><path d="m127.753 97.779c-7.591 0-16.244-6.758-16.244-12.687 0-7.044 10.168-7.044 16.244-7.044 6.075 0 16.244 0 16.244 7.044 0 5.929-8.653 12.687-16.244 12.687zm0-14.731c-9.293 0-11.244 1.112-11.244 2.044 0 2.401 5.436 7.687 11.244 7.687s11.244-5.285 11.244-7.687c0-.932-1.951-2.044-11.244-2.044z"/><path d="m149.537 74.831c-1.377 0-2.495-1.114-2.5-2.492-.019-5.981 4.832-10.863 10.813-10.882 2.872-.023 5.626 1.11 7.681 3.153 2.055 2.042 3.192 4.763 3.201 7.66.004 1.38-1.111 2.503-2.492 2.508-.003 0-.005 0-.008 0-1.377 0-2.496-1.114-2.5-2.492-.005-1.562-.618-3.028-1.726-4.129-1.104-1.096-2.566-1.699-4.121-1.699-.007 0-.013 0-.02 0-3.225.011-5.84 2.642-5.829 5.867.004 1.38-1.111 2.503-2.492 2.508-.002-.002-.004-.002-.007-.002z"/><path d="m106.463 74.804c-1.381 0-2.5-1.119-2.5-2.5 0-3.225-2.623-5.848-5.848-5.848s-5.848 2.623-5.848 5.848c0 1.381-1.119 2.5-2.5 2.5s-2.5-1.119-2.5-2.5c0-5.981 4.866-10.848 10.848-10.848 5.981 0 10.848 4.866 10.848 10.848 0 1.381-1.119 2.5-2.5 2.5z"/><path d="m173.905 255.999c-1.216 0-2.266-.335-3.144-1.007-6.504-4.974-3.369-12.322-.051-20.103 2.269-5.32 4.841-11.35 5.671-18.314.476-3.992 2.833-7.303 6.637-9.323 4.653-2.47 10.688-2.505 15.377-.088 5.153 2.657 8.615 8.127 8.615 13.611 0 5.838-6.481 14.173-10.345 18.621-6.021 6.933-12.844 12.763-17.804 15.214-1.871.925-3.528 1.389-4.956 1.389zm-.1-4.981c.131.001 1.872.189 6.66-3.252 10.068-7.235 21.546-21.613 21.546-26.99 0-3.047-1.826-7.063-5.906-9.167-3.227-1.663-7.542-1.639-10.741.06-1.637.869-3.662 2.529-4.017 5.499-.915 7.676-3.755 14.334-6.037 19.684-3.576 8.386-4.634 11.78-1.512 14.169-.001-.003.001-.003.007-.003z"/><path d="m82.095 255.999c-1.428 0-3.084-.463-4.957-1.389-4.96-2.451-11.782-8.281-17.804-15.214-3.863-4.448-10.345-12.783-10.345-18.621 0-5.484 3.462-10.955 8.616-13.611 4.689-2.416 10.724-2.382 15.376.088 3.804 2.02 6.162 5.33 6.638 9.322.831 6.965 3.402 12.995 5.671 18.315 3.318 7.78 6.453 15.129-.051 20.103-.878.671-1.928 1.007-3.144 1.007zm-22.199-44.391c-4.08 2.104-5.907 6.12-5.907 9.167 0 5.376 11.478 19.754 21.546 26.99 5.056 3.634 6.719 3.221 6.734 3.216 3.056-2.349 1.999-5.744-1.578-14.13-2.282-5.35-5.122-12.008-6.037-19.684-.354-2.97-2.38-4.629-4.018-5.499-3.199-1.699-7.516-1.722-10.74-.06z"/><path d="m128.267 256c-.027 0-.055 0-.083 0h-.369c-.027 0-.056 0-.083 0-14.153 0-29.151-2.837-42.247-7.994-.828-.326-1.419-1.067-1.555-1.946-.384-2.497-1.711-5.609-3.247-9.213-2.279-5.349-5.116-12.006-6.032-19.681-.354-2.97-2.38-4.629-4.018-5.499-3.198-1.699-7.516-1.722-10.74-.06-2.954 1.523-5.157 4.435-5.75 7.601-.207 1.102-1.121 1.932-2.238 2.03-1.124.107-2.163-.559-2.559-1.607-9.327-24.71 9.661-66.328 21.809-88.937.597-1.112 1.929-1.606 3.108-1.147 21.311 8.285 50.305 9.736 53.671 9.662.042-.001.083-.001.125 0 3.371.068 32.358-1.377 53.67-9.662 1.179-.459 2.51.035 3.108 1.146 12.149 22.608 31.138 64.226 21.81 88.937-.396 1.049-1.436 1.714-2.559 1.607-1.117-.099-2.031-.928-2.237-2.03-.593-3.166-2.796-6.078-5.75-7.601-3.227-1.663-7.542-1.639-10.741.06-1.637.869-3.662 2.529-4.017 5.499-.915 7.675-3.752 14.332-6.031 19.681-1.536 3.604-2.862 6.716-3.247 9.213-.135.879-.728 1.62-1.555 1.946-13.091 5.157-28.091 7.995-42.243 7.995zm-.267-5h.188.079c13.086 0 26.925-2.535 39.146-7.156.642-2.713 1.891-5.644 3.302-8.957 2.268-5.319 4.836-11.348 5.667-18.312.476-3.992 2.833-7.303 6.637-9.323 4.653-2.47 10.688-2.505 15.377-.088 2.05 1.057 3.828 2.536 5.229 4.297 3.684-23.541-13.167-59.434-22.161-76.472-21.979 7.964-49.628 9.306-53.463 9.22-3.833.082-31.486-1.256-53.464-9.22-8.994 17.039-25.843 52.932-22.16 76.472 1.4-1.761 3.179-3.241 5.229-4.297 4.689-2.416 10.724-2.381 15.376.088 3.804 2.02 6.162 5.33 6.638 9.322.831 6.965 3.4 12.994 5.667 18.313 1.412 3.313 2.661 6.244 3.302 8.957 12.22 4.622 26.061 7.156 39.146 7.156h.079zm50.864-34.129h.01z"/><path d="m128 126.358c-5.211 0-10.862-3.642-15.502-9.992-.555-.76-.637-1.768-.21-2.607s1.288-1.368 2.229-1.368h.967c5.523 0 10.017-4.494 10.017-10.017v-.659c0-1.381 1.119-2.5 2.5-2.5s2.5 1.119 2.5 2.5c0 5.523 4.493 10.017 10.017 10.017h1.436c.932 0 1.785.518 2.217 1.343.431.826.366 1.822-.166 2.586-4.74 6.798-10.573 10.697-16.005 10.697zm-8.539-9.502c2.875 2.87 5.911 4.501 8.539 4.501 2.809 0 6.035-1.826 9.056-5.029-3.631-.859-6.755-3.041-8.837-6.005-1.975 3.153-5.087 5.524-8.758 6.533z"/><path d="m109.637 86.865c-.856 0-1.667-.441-2.127-1.188-.542-.878-.488-2 .135-2.822 2.332-3.078 3.42-6.278 4.472-9.373 1.23-3.62 2.502-7.362 5.674-10.533 3.219-3.219 4.408-8.167 5.436-13.383.421-2.146 2.318-3.705 4.51-3.705 2.191 0 4.089 1.559 4.511 3.706 1.027 5.215 2.216 10.163 5.435 13.382 3.172 3.171 4.445 6.915 5.678 10.535.971 2.852 1.975 5.8 3.947 8.646.558.805.595 1.861.094 2.703s-1.451 1.314-2.42 1.207c-1.193-.131-2.346-.107-3.427.07-1.063.171-2.12-.355-2.619-1.311-.605-1.161-4.367-1.749-11.182-1.749-9.297 0-11.011 1.148-11.206 1.833-.334 1.178-1.477 1.938-2.691 1.8-1.224-.14-2.491-.093-3.764.142-.153.026-.305.04-.456.04zm18.099-34.373c-.923 4.392-2.467 10.049-6.411 13.992-2.348 2.347-3.333 5.248-4.475 8.607-.503 1.479-1.036 3.046-1.723 4.659 3.465-1.702 8.721-1.702 12.625-1.702 4.879 0 9.496.165 12.573 1.646-.678-1.596-1.205-3.145-1.7-4.601-1.144-3.36-2.131-6.262-4.479-8.61-3.943-3.942-5.487-9.6-6.41-13.991z"/><path d="m127.714 144.211c-4.319 0-28.967-1.254-49.981-8.122-.597-.195-1.1-.609-1.406-1.158-4.514-8.083-5.479-17.554-2.583-25.333 2.701-7.253 8.396-12.64 16.469-15.576 2.565-.932 4.853-1.916 6.993-3.005.944-.48 2.087-.314 2.854.414.768.729.994 1.862.564 2.829-.735 1.654-1.108 3.414-1.108 5.228 0 7.114 5.788 12.902 12.902 12.902h2.097c.798 0 1.548.381 2.019 1.025 3.634 4.973 7.92 7.942 11.465 7.942 3.718 0 8.167-3.199 11.901-8.556.468-.67 1.233-1.07 2.051-1.07h1.629c7.114 0 12.901-5.788 12.901-12.902 0-1.47-.24-2.905-.715-4.266-.333-.955-.059-2.016.696-2.689.754-.673 1.841-.826 2.752-.385 1.864.901 3.897 1.753 6.044 2.534 8.108 2.949 13.813 8.364 16.498 15.661 2.887 7.843 1.86 17.366-2.745 25.472-.311.546-.814.955-1.412 1.146-21.425 6.857-46.307 7.961-49.601 7.907-.081.001-.176.002-.284.002zm-47.479-12.569c20.507 6.495 44.897 7.633 47.703 7.567.042-.001.083-.001.125 0 2.738.062 26.669-1.042 47.065-7.37 3.493-6.645 4.225-14.214 1.938-20.428-2.161-5.872-6.835-10.259-13.516-12.688-.708-.258-1.405-.523-2.091-.795.015.3.022.6.022.902 0 9.871-8.03 17.902-17.901 17.902h-.351c-4.592 6.135-10.091 9.626-15.23 9.626-4.924 0-10.241-3.251-14.726-8.967h-.854c-9.872 0-17.902-8.031-17.902-17.902 0-.604.03-1.204.089-1.798-.866.353-1.759.696-2.685 1.032-6.653 2.419-11.319 6.784-13.492 12.621-2.292 6.157-1.609 13.678 1.806 20.298z"/><path d="m190.282 58.59c-.046 0-.092-.001-.138-.004-.872-.048-1.654-.547-2.066-1.316-5.596-10.455-15.547-24.182-31.183-30.207-.773-.298-1.349-.959-1.536-1.765-.188-.806.035-1.653.597-2.262 3.657-3.969 22.61-23.703 36.718-22.406 4.336.399 7.809 2.627 10.32 6.623 10.295 16.374-4.02 40.598-10.651 50.252-.468.682-1.24 1.085-2.061 1.085zm-28.189-34.739c13.41 6.314 22.559 17.665 28.353 27.437 5.884-9.362 16.137-28.934 8.316-41.374-1.663-2.645-3.804-4.053-6.546-4.305-8.78-.809-22.077 10.109-30.123 18.242z"/><path d="m65.717 58.589c-.82 0-1.592-.403-2.06-1.084-6.632-9.654-20.946-33.877-10.651-50.252 2.513-3.996 5.985-6.224 10.321-6.623 14.108-1.298 33.066 18.443 36.726 22.413.561.609.784 1.456.596 2.262-.188.807-.763 1.467-1.536 1.765-15.643 6.026-25.596 19.749-31.19 30.199-.412.77-1.195 1.269-2.066 1.316-.048.003-.094.004-.14.004zm-.989-53.023c-.32 0-.634.014-.943.042-2.742.252-4.883 1.661-6.546 4.305-7.821 12.441 2.433 32.012 8.317 41.374 5.793-9.768 14.943-21.115 28.359-27.43-7.766-7.849-20.421-18.291-29.187-18.291z"/><path d="m204.312 221.249c-.073 0-.146-.003-.221-.01-1.117-.099-2.031-.928-2.237-2.03-.593-3.166-2.796-6.078-5.75-7.601-2.33-1.201-5.237-1.539-7.978-.929-.73.165-1.497-.01-2.087-.473-.59-.462-.94-1.165-.956-1.915-.212-10.095-1.465-19.97-3.728-29.407-10.066 6.523-19.281 6.149-19.707 6.129-1.07-.054-1.988-.784-2.28-1.816-1.655-5.846-6.067-7.313-6.255-7.373-.67-.213-1.231-.703-1.525-1.341-.294-.639-.318-1.375-.045-2.023 4.902-11.598 13.078-18.861 18.559-22.694-2.309-4.036-4.821-7.724-7.488-10.989-.549-.672-.71-1.582-.425-2.402s.975-1.434 1.822-1.621c6.636-1.464 12.599-3.216 17.722-5.208 1.174-.459 2.509.035 3.107 1.146 12.149 22.608 31.138 64.226 21.81 88.937-.37.982-1.305 1.62-2.338 1.62zm-13.494-15.864c2.666 0 5.302.606 7.577 1.778 2.05 1.057 3.828 2.536 5.229 4.297 3.684-23.541-13.167-59.434-22.161-76.472-3.814 1.381-8.018 2.639-12.552 3.757 2.386 3.247 4.63 6.81 6.696 10.634.625 1.156.248 2.599-.863 3.301-4.498 2.845-12.511 9.051-17.617 19.571 2.019 1.232 4.752 3.564 6.415 7.707 3.179-.25 10.501-1.466 17.789-7.199.662-.52 1.539-.672 2.333-.408.797.264 1.408.911 1.627 1.722 2.701 10.019 4.281 20.545 4.707 31.331.273-.012.547-.019.82-.019z"/><path d="m51.687 221.249c-1.032 0-1.968-.638-2.338-1.617-9.327-24.71 9.661-66.328 21.809-88.937.598-1.112 1.93-1.604 3.108-1.147 5.123 1.991 11.085 3.743 17.721 5.208.848.187 1.538.801 1.823 1.621s.124 1.729-.425 2.402c-2.667 3.265-5.18 6.954-7.488 10.989 5.48 3.833 13.656 11.097 18.559 22.694.277.656.262 1.399-.043 2.043s-.869 1.127-1.552 1.329c-.162.052-4.574 1.519-6.229 7.365-.292 1.032-1.209 1.762-2.281 1.816-.426.021-9.645.391-19.707-6.129-2.263 9.439-3.516 19.314-3.727 29.407-.016.75-.367 1.452-.956 1.915s-1.355.638-2.087.473c-2.74-.609-5.648-.272-7.978.929-2.954 1.523-5.157 4.435-5.75 7.601-.207 1.102-1.121 1.932-2.238 2.03-.074.005-.148.008-.221.008zm22.85-86.26c-8.994 17.039-25.844 52.933-22.161 76.472 1.4-1.761 3.179-3.241 5.229-4.297 2.507-1.293 5.455-1.899 8.397-1.759.425-10.784 2.006-21.31 4.708-31.331.218-.811.829-1.458 1.626-1.722.798-.265 1.673-.112 2.333.408 7.284 5.731 14.605 6.948 17.79 7.199 1.663-4.142 4.396-6.474 6.414-7.706-5.106-10.52-13.119-16.726-17.617-19.571-1.111-.703-1.488-2.145-.863-3.301 2.066-3.824 4.311-7.387 6.696-10.634-4.535-1.12-8.737-2.377-12.552-3.758z"/><path d="m148.916 198.091c-2.294 0-3.65-1.005-4.384-1.848-1.086-1.247-1.601-3.038-1.515-5.23-2.742-.252-5.872-1.147-7.492-3.708-1.325-2.094-1.304-4.714.062-7.789 1.992-4.482 5.908-7.38 11.324-8.38 3.871-.716 7.193-.193 7.335-.169.104.017.206.04.308.07.292.086 7.194 2.214 9.625 10.798.104.367.123.753.055 1.128-1.826 10.038-6.979 15.128-15.318 15.128zm2.126-22.346c-3.19 0-8.654.783-10.886 5.802-.363.817-.898 2.305-.405 3.084.525.831 2.391 1.404 4.753 1.46 1.056.026 2.053.503 2.736 1.308.689.812 1.001 1.886.853 2.945-.209 1.501.012 2.387.211 2.616.084.097.371.131.612.131 3.829 0 8.431-1.202 10.287-10.438-1.604-4.897-5.166-6.483-5.943-6.776-.361-.047-1.165-.132-2.218-.132z"/><path d="m162.197 185.024c-.304 0-.491-.008-.549-.011-1.07-.054-1.987-.784-2.279-1.815-1.655-5.846-6.067-7.313-6.255-7.373-.67-.213-1.231-.703-1.525-1.341-.294-.639-.318-1.375-.045-2.023 7.585-17.942 22.976-25.467 23.628-25.778 1.243-.598 2.738-.069 3.334 1.177.595 1.245.069 2.736-1.175 3.333-.214.104-13.111 6.497-20.202 21.061 2.018 1.233 4.75 3.565 6.413 7.706 3.665-.29 12.85-1.868 21.17-10.201.976-.977 2.559-.979 3.536-.002.977.976.979 2.559.003 3.536-11.059 11.073-23.306 11.731-26.054 11.731z"/><path d="m107.084 198.091c-8.339 0-13.493-5.09-15.317-15.127-.068-.375-.05-.761.054-1.128 2.431-8.584 9.332-10.712 9.625-10.798.101-.03.204-.053.308-.07.139-.023 3.462-.546 7.335.169 5.416 1 9.332 3.897 11.324 8.38 1.366 3.074 1.388 5.695.062 7.789-1.62 2.56-4.749 3.456-7.492 3.708.086 2.192-.428 3.983-1.514 5.23-.734.841-2.091 1.847-4.385 1.847zm-10.287-15.438c1.855 9.236 6.458 10.438 10.287 10.438.241 0 .529-.034.613-.131.199-.229.419-1.114.21-2.616-.147-1.059.163-2.132.853-2.945.684-.805 1.681-1.281 2.735-1.307 2.363-.057 4.229-.63 4.754-1.461.493-.779-.043-2.267-.407-3.084-2.966-6.675-11.648-5.856-13.103-5.67-.776.293-4.338 1.878-5.942 6.776z"/><path d="m93.804 185.024c-2.748 0-14.995-.658-26.054-11.732-.976-.977-.975-2.56.002-3.536.979-.975 2.561-.974 3.536.002 8.377 8.39 17.513 9.937 21.168 10.209 1.662-4.147 4.396-6.481 6.416-7.715-7.112-14.608-20.068-20.996-20.204-21.062-1.242-.599-1.766-2.092-1.169-3.335s2.086-1.77 3.33-1.174c.651.312 16.043 7.836 23.628 25.778.277.656.262 1.399-.043 2.043s-.869 1.127-1.552 1.329c-.162.052-4.574 1.519-6.229 7.365-.292 1.031-1.208 1.762-2.279 1.815-.059.005-.247.013-.55.013z"/><path d="m196.06 222.07c-.518 0-1.039-.16-1.486-.491-1.109-.822-1.343-2.388-.521-3.497l5.142-6.939c.822-1.11 2.39-1.342 3.497-.521 1.109.822 1.343 2.388.521 3.497l-5.142 6.939c-.491.662-1.247 1.012-2.011 1.012z"/><path d="m187.622 219.169c-.209 0-.42-.026-.632-.081-1.336-.348-2.138-1.713-1.789-3.049l2.284-8.778c.347-1.337 1.711-2.137 3.049-1.79 1.336.348 2.138 1.713 1.789 3.049l-2.284 8.778c-.292 1.126-1.307 1.871-2.417 1.871z"/><path d="m59.805 222.07c-.765 0-1.521-.35-2.011-1.012l-5.141-6.939c-.822-1.109-.589-2.675.521-3.497 1.111-.822 2.675-.589 3.497.521l5.141 6.939c.822 1.109.589 2.675-.521 3.497-.448.331-.969.491-1.486.491z"/><path d="m68.243 219.169c-1.111 0-2.125-.746-2.418-1.871l-2.284-8.778c-.348-1.336.454-2.701 1.79-3.049 1.34-.344 2.701.454 3.049 1.79l2.284 8.778c.348 1.336-.454 2.701-1.79 3.049-.211.055-.423.081-.631.081z"/><path d="m111.534 49.243c-.584 0-1.165-.171-1.665-.509-10.006-6.764-11.932-14.674-11.935-19.746-.962.493-2.096.429-3.003-.178-.958-.64-1.452-1.744-1.29-2.882.762-5.342 2.709-8.776 4.691-10.958-.5-.422-.858-1.01-.993-1.69-.254-1.281.346-2.563 1.492-3.19 2.426-1.327 4.567-2.187 6.431-2.721l-2.957-1.904c-1.125-.723-1.622-2.07-1.235-3.35.388-1.284 1.553-2.165 2.893-2.114 13.081.192 20.274 5.184 23.398 8.143.639.606 1.584.753 2.35.365 9.568-4.854 18.191-1.501 21.456.165 1.03.526 1.662 1.611 1.609 2.764-.053 1.162-.787 2.194-1.871 2.629-.527.211-1.038.526-1.513.886 5.44 1.637 8.592 5.764 9.831 7.735.72 1.145.592 2.582-.319 3.576-.903.985-2.366 1.247-3.559.634-1.458-.748-2.79-1.086-3.936-1.194 3.953 4.71 4.766 10.556 4.856 14.016.038 1.418-.899 2.636-2.278 2.959-1.395.325-2.783-.353-3.385-1.651-2.445-5.271-5.876-7.455-8.327-8.359.232 4.05-.698 7.053-1.366 8.637-.492 1.166-1.683 1.888-2.935 1.803-1.264-.087-2.333-.965-2.66-2.185-1.831-6.768-6.135-9.257-7.866-10.005-.872.696-2.243 2.814-3.318 6.379-.312 1.031-1.158 1.814-2.21 2.045-1.042.229-2.133-.124-2.84-.921-.771-.869-1.439-2.116-2.005-3.477-2.116 5.21-2.5 9.892-2.569 11.459-.047 1.073-.674 2.04-1.635 2.523-.422.212-.88.316-1.337.316zm-11.141-27.036c.62 0 1.238.195 1.76.58.961.708 1.402 1.916 1.124 3.078-.693 2.896-1.267 9.908 6.599 16.612.552-3.731 1.877-9.095 5.046-14.412.615-1.031 1.784-1.588 2.971-1.416 1.191.172 2.154 1.035 2.454 2.199.229.896.479 1.745.735 2.517 1.291-2.599 3.079-4.868 5.503-5.517.544-.144 1.117-.133 1.658.034 1.119.345 5.659 2.02 9.053 7.24-.038-.787-.133-1.631-.303-2.531-.172-.922.101-1.879.729-2.566.623-.682 1.548-1.035 2.465-.946 1.433.137 5.01.766 8.641 3.607-.876-1.465-2.057-2.849-3.643-3.991-.892-.644-1.359-1.715-1.223-2.798.136-1.071.846-1.981 1.852-2.376.838-.328 2.365-.796 4.359-.852-1.388-.767-3.056-1.314-5.032-1.398-1.115-.046-2.104-.701-2.576-1.708-.471-1.001-.346-2.171.326-3.053.556-.731 1.423-1.765 2.528-2.751-3.36-.972-8.233-1.436-13.446 1.208-2.644 1.342-5.879.862-8.05-1.194-1.859-1.761-5.494-4.389-11.593-5.8l2.655 1.709c.001.001.002.001.003.002 1.161.748 1.496 2.295.749 3.456-.73 1.134-2.222 1.48-3.374.799-.166-.078-2.312-1.005-6.873.6.133.252.231.527.289.819.251 1.278-.35 2.553-1.494 3.173-1.279.692-3.279 2.278-4.61 5.763.236-.058.477-.087.718-.087zm39.749 17.407c.001.002.001.005.002.008-.001-.002-.001-.005-.002-.008zm-.434-7.557h.003c-.001 0-.002 0-.003 0zm15.282-6.712c.001.001.002.003.003.005 0-.002-.003-.003-.003-.005z"/><path d="m128.047 144.208c-.022 0-.072 0-.095 0-.007 0-.012 0-.015 0v-.001c-3.442-.068-73.833-2.58-81.304-33.125l-.343.342c-.918.918-2.288 1.199-3.491.715-1.203-.483-1.998-1.634-2.025-2.931-.075-3.573.178-9.947 2.39-15.82-.425-.139-.822-.367-1.165-.677-.798-.724-1.182-1.792-1.024-2.856.487-3.301 2.854-11.872 14.295-20.147 1.576-1.14 2.782-2.699 3.487-4.51 3.669-9.423 14.57-32.372 36.484-41.943.753-.329 1.614-.265 2.305.158l1.331-.789c1.028-.611 2.315-.547 3.277.162.961.708 1.402 1.916 1.124 3.078-.693 2.896-1.267 9.908 6.599 16.612.552-3.731 1.877-9.095 5.046-14.412.615-1.031 1.784-1.588 2.971-1.416 1.191.172 2.154 1.035 2.454 2.199.229.896.479 1.745.735 2.517 1.291-2.599 3.079-4.868 5.503-5.517.544-.144 1.117-.133 1.658.034 1.119.345 5.659 2.02 9.053 7.24-.038-.787-.133-1.632-.303-2.531-.172-.922.101-1.879.729-2.566.623-.682 1.548-1.035 2.465-.946 1.433.137 5.01.766 8.641 3.607-.876-1.465-2.057-2.849-3.643-3.991-.892-.644-1.359-1.715-1.223-2.798.136-1.071.846-1.981 1.852-2.376 1.608-.631 5.765-1.78 10.89.485.42-.075.865-.041 1.294.117 23.676 8.72 35.333 33.028 39.245 43.074.706 1.812 1.907 3.368 3.474 4.5 11.449 8.275 13.821 16.853 14.31 20.156.156 1.067-.228 2.135-1.025 2.857-.343.31-.74.538-1.165.677 2.212 5.874 2.465 12.247 2.39 15.82-.027 1.297-.822 2.448-2.026 2.931-1.205.484-2.573.202-3.49-.716l-.342-.342c-7.471 30.542-77.854 33.057-81.305 33.125v.001c-.006.003-.011.003-.018.003zm-.047-5c.021 0 .042 0 .062.001 9.232.211 74.765-4.886 76.889-32.085.099-1.254.923-2.343 2.101-2.777 1.036-.382 2.192-.201 3.06.453-.257-3.529-.999-8.13-2.975-11.958 0 0 0-.001-.001-.001-.579-1.124-.446-2.49.338-3.48.508-.642 1.231-1.053 2.012-1.181-1.095-3.293-4.002-8.868-11.698-14.43-2.348-1.698-4.146-4.028-5.202-6.738-3.613-9.276-14.228-31.509-35.358-39.832-.617.11-1.276.027-1.878-.282-1.459-.749-2.792-1.086-3.937-1.195 3.952 4.711 4.765 10.556 4.855 14.016.038 1.418-.899 2.636-2.278 2.959-1.395.325-2.783-.353-3.385-1.651-2.445-5.271-5.876-7.455-8.327-8.359.232 4.05-.698 7.053-1.366 8.637-.492 1.166-1.683 1.888-2.935 1.803-1.264-.087-2.333-.964-2.66-2.185-1.831-6.768-6.135-9.257-7.866-10.005-.872.696-2.243 2.814-3.318 6.379-.312 1.031-1.158 1.814-2.21 2.045-1.045.229-2.133-.124-2.841-.921-.771-.869-1.439-2.116-2.005-3.477-2.116 5.21-2.5 9.892-2.569 11.459-.047 1.072-.673 2.039-1.634 2.522s-2.11.411-3-.19c-10.01-6.765-11.937-14.675-11.94-19.747-.929.477-2.017.433-2.906-.115-18.731 9.368-28.298 29.627-31.612 38.139-1.055 2.709-2.859 5.042-5.216 6.747-7.687 5.56-10.591 11.13-11.685 14.421.781.128 1.504.54 2.012 1.181.784.991.917 2.357.336 3.481-1.975 3.827-2.717 8.428-2.975 11.957.868-.653 2.026-.834 3.061-.452 1.178.435 2.002 1.524 2.1 2.777 2.124 27.199 67.636 32.322 76.888 32.085.021 0 .042-.001.063-.001zm83.581-48.657c0 .001.001.003.002.004-.001-.001-.002-.002-.002-.004zm-71.439-50.937c.001.002.001.005.002.008-.001-.002-.001-.005-.002-.008zm14.771-16.293c-.001.001-.001.002-.002.004.001-.002.001-.003.002-.004z"/><path d="m174.591 37.843c-.617 0-1.224-.229-1.691-.659-4.915-4.518-10.3-7.923-16.005-10.121-.772-.298-1.348-.959-1.535-1.765-.188-.807.035-1.654.597-2.262 3.64-3.947 22.522-23.582 36.582-22.41 4.292.356 7.748 2.494 10.273 6.355.504.77.544 1.753.105 2.561-.438.806-1.28 1.308-2.197 1.308-.019.001-.036 0-.054 0-5.604 0-13.556 2.509-19.708 14.415-2.007 3.885-3.323 7.432-3.91 10.543-.169.893-.808 1.623-1.67 1.909-.258.085-.524.126-.787.126zm-12.498-13.991c3.868 1.823 7.578 4.159 11.086 6.979.797-2.476 1.913-5.106 3.338-7.863 2.825-5.469 8.738-14.097 18.71-16.487-.938-.49-1.968-.779-3.102-.873-8.77-.719-22.021 10.147-30.032 18.244z"/><path d="m81.409 37.845c-.264 0-.529-.042-.787-.127-.862-.286-1.5-1.017-1.669-1.909-.587-3.11-1.903-6.658-3.912-10.544-6.151-11.906-14.102-14.415-19.707-14.415-.018 0-.037 0-.054 0-.917 0-1.76-.502-2.197-1.308-.438-.808-.398-1.791.105-2.56 2.525-3.862 5.982-6 10.274-6.356 14.078-1.175 32.951 18.469 36.59 22.417.561.609.784 1.456.596 2.262-.188.807-.763 1.467-1.536 1.765-5.714 2.201-11.102 5.604-16.011 10.115-.468.431-1.075.66-1.692.66zm-1.925-14.876c1.425 2.758 2.541 5.389 3.338 7.865 3.507-2.818 7.218-5.152 11.092-6.976-8.013-8.099-21.26-18.973-30.04-18.25-1.133.094-2.164.383-3.102.874 9.974 2.389 15.886 11.018 18.712 16.487z"/></svg>