<svg enable-background="new 0 0 256 256" height="512" viewBox="0 0 256 256" width="512" xmlns="http://www.w3.org/2000/svg"><g fill="#eaa250"><path d="m200.342 237.517c-1.088-.014-1.809-1.135-1.386-2.138l11.67-27.648c15.488-43.468-2.486-52.659-20.935-52.48 1.851 22.297-1.088 48.777-16.049 75.125-1.786 3.145-.929 7.031 1.979 9.303 1.823 1.425 3.803 3.223 5.418 5.304 2.428 3.128.533 7.397-3.148 8.326l.189.19h37.796c3.348-14.28-9.99-15.908-15.534-15.982z"/><path d="m66.309 155.252c-18.45-.179-36.423 9.011-20.935 52.48l11.67 27.648c.423 1.003-.297 2.123-1.386 2.138-5.544.074-18.882 1.702-15.533 15.982h37.795l.189-.19c-3.681-.929-5.576-5.198-3.148-8.326 1.615-2.081 3.595-3.879 5.418-5.304 2.907-2.272 3.764-6.158 1.979-9.303-14.961-26.348-17.9-52.828-16.049-75.125z"/><path d="m189.085 149.353c-1.634-13.227-7.477-25.551-16.469-35.335-3.274 2.834-6.994 5.356-11.082 7.492-.297.568-.621 1.127-.998 1.662-2.74 3.892-6.957 6.163-11.393 6.514.683-.049 1.362-.14 2.032-.278-4.02 8.62-12.758 14.596-22.897 14.596-10.149 0-18.893-5.99-22.907-14.623-3.675-.789-7.058-2.912-9.378-6.209-.377-.536-.702-1.094-.999-1.663 0 0 0 .001.001.002-4.209-2.2-8.028-4.808-11.372-7.746-9.127 9.825-15.06 22.248-16.707 35.592-2.894 23.437-.862 52.307 15.442 81.021 1.785 3.145.928 7.031-1.979 9.303-1.823 1.425-3.803 3.223-5.418 5.304-2.738 3.527.017 8.516 4.637 8.516h26.778c3.089 0 5.515-2.307 5.678-5.097 4.96 1.781 10.326 2.778 15.945 2.778s10.985-.997 15.946-2.778c0-.004 0-.008 0-.011.157 2.796 2.584 5.109 5.678 5.109h26.778c4.621 0 7.375-4.988 4.637-8.516-1.615-2.081-3.595-3.879-5.418-5.304-2.907-2.272-3.764-6.158-1.979-9.303 16.308-28.72 18.339-57.59 15.444-81.026z"/><path d="m175.621 239.679c-2.907-2.272-3.764-6.158-1.979-9.303 16.306-28.717 18.338-57.588 15.443-81.023-1.634-13.227-7.477-25.551-16.469-35.335-3.274 2.834-6.994 5.356-11.082 7.492-.297.568-.621 1.127-.998 1.662-2.459 3.494-6.111 5.667-10.04 6.333l-.023.023c.235-.037.469-.072.702-.12-4.103 8.799-13.011 14.596-22.897 14.596-9.836 0-18.788-5.763-22.907-14.623-3.675-.789-7.058-2.912-9.378-6.209-.377-.536-.702-1.094-.999-1.663 0 0 0 .001.001.002-4.209-2.2-8.028-4.808-11.372-7.746-9.127 9.825-15.06 22.249-16.708 35.592-2.894 23.437-.862 52.307 15.443 81.021 1.786 3.145.928 7.031-1.979 9.303-1.823 1.425-3.803 3.223-5.418 5.304-2.738 3.527.017 8.516 4.637 8.516h26.778c2.996 0 5.349-2.175 5.638-4.851.009-.083.035-.162.04-.246.632.227 1.27.44 1.915.641.202.063.405.116.607.176.445.132.889.265 1.339.385.227.06.457.11.685.167.427.106.854.215 1.286.31.244.054.49.097.735.146.417.085.833.172 1.254.246.273.048.548.084.822.127.393.062.785.127 1.182.179.337.044.676.075 1.014.112.334.036.665.079 1.001.108.499.044.998.072 1.497.099.178.01.354.027.533.034 1.38.061 2.763.061 4.143 0 .198-.009.393-.027.591-.038.481-.027.962-.054 1.442-.096.329-.029.653-.07.98-.105.345-.038.691-.069 1.036-.115.386-.051.768-.115 1.151-.174.285-.044.57-.083.854-.132.411-.072.818-.157 1.225-.24.255-.052.51-.097.764-.152.426-.094.847-.201 1.269-.306.234-.058.469-.11.702-.172.451-.12.895-.253 1.34-.385.202-.06.406-.113.607-.176.645-.201 1.284-.415 1.917-.641.02.101.032.167.04.239.285 2.68 2.639 4.859 5.638 4.859h26.778c4.621 0 7.375-4.989 4.637-8.516-1.615-2.082-3.594-3.88-5.417-5.305z"/><path d="m185.492 71.365c-1.398-3.895-2.338-7.938-2.579-12.069-.347-5.929-1.634-11.605-3.713-16.882-.186-.472-.126-1.005.156-1.427 12.871-19.238 6.989-32.053 3.85-36.684-.883-1.304-2.424-1.97-3.986-1.767-8.709 1.135-15.84 8.012-19.889 12.887-.594.715-1.609.863-2.4.374-8.339-5.154-18.155-8.132-28.667-8.132-10.655 0-20.592 3.064-29.002 8.347-.795.499-1.822.35-2.418-.374-4.014-4.885-11.225-11.95-20.065-13.102-1.562-.204-3.103.463-3.986 1.767-3.165 4.67-9.112 17.665 4.188 37.174.285.418.35.948.169 1.42-1.96 5.116-3.185 10.597-3.529 16.316-.25 4.158-1.176 8.229-2.583 12.149-1.398 3.894-2.146 7.996-2.146 12.233 0 15.775 10.352 29.684 26.102 37.915-2.741-5.249-2.115-11.752 1.47-16.617 4.356-5.911 12.078-8.132 18.846-5.585-1.011.69-1.62 1.614-1.62 2.874 0 4.474 7.472 10.801 14.574 10.801s14.573-6.327 14.573-10.801c0-1.261-.609-2.185-1.62-2.874 6.768-2.547 14.49-.326 18.846 5.585 3.585 4.865 4.211 11.369 1.47 16.617 15.751-8.231 26.103-22.14 26.103-37.915.001-4.236-.747-8.337-2.144-12.23z"/><path d="m243.586 126.861c-10.337-33.292-43.196-29.18-54.503-1.041-1.352 3.363-2.309 6.841-3.114 10.362.128.362.263.72.384 1.084.26.781.505 1.569.734 2.361.918 3.168 1.59 6.419 1.998 9.725.24 1.94.442 3.92.609 5.932-.001-.011-.002-.022-.003-.033 2.527-.025 5.042.135 7.466.527.197-.784.39-1.572.568-2.377 2.609-11.822 4.145-31.602 17.784-34.886 7.002-1.686 11.524 5.293 13.331 11.113 1.21 3.896 4.444 6.75 8.756 5.989 3.634-.641 7.188-4.894 5.99-8.756z"/></g><path d="m243.586 126.861c-2.289-7.372-5.685-12.902-9.704-16.751-4.244 1.254-10.046 3.818-13.06 8.84 4.013 1.735 6.72 6.497 8.018 10.678 1.21 3.896 4.444 6.75 8.756 5.989 3.634-.641 7.188-4.894 5.99-8.756z" fill="#52565b"/><path d="m144.713 167.023c5.976 4.985 8.928 12.778 7.574 20.442-.081.46-.165.878-.251 1.243-3.105 13.176-4.402 26.714-4.402 40.252-.187 2.504.738 6.568-1.996 12.577-.841 1.849-1.631 4.648-1.653 7.104-.008-.072-.019-.137-.04-.239-10.328 3.708-21.579 3.702-31.891 0-.005.084-.031.163-.04.246-.023-2.587-.863-5.375-1.653-7.112-2.73-5.999-1.808-10.049-1.996-12.577 0-13.537-1.297-27.075-4.402-40.252-.043-.181-.085-.375-.126-.58-1.604-7.944 1.512-16.107 7.841-21.169l.336-.269c9.594-7.675 23.264-7.535 32.699.334z" fill="#ffc097"/><path d="m142.838 102.182c0 4.474-7.472 10.801-14.573 10.801s-14.573-6.327-14.573-10.801 7.472-4.819 14.573-4.819 14.573.345 14.573 4.819z" fill="#7d3d1a"/><path d="m160.064 104.893c-4.356-5.911-12.078-8.132-18.846-5.585 1.011.69 1.62 1.614 1.62 2.874 0 4.474-7.472 10.801-14.573 10.801s-14.573-6.327-14.573-10.801c0-1.261.609-2.185 1.62-2.874-6.768-2.547-14.49-.326-18.846 5.585-3.973 5.391-4.326 12.802-.472 18.279 3.987 5.665 11.103 7.894 17.467 5.773l14.804-4.935 14.804 4.935c6.364 2.121 13.48-.108 17.467-5.772 3.855-5.478 3.501-12.888-.472-18.28z" fill="#ffc097"/><path d="m143.221 128.944-14.804-4.935-14.804 4.935c-2.717.906-5.569 1.012-8.258.403 4.007 8.652 12.762 14.657 22.924 14.657 10.138 0 18.877-5.977 22.897-14.596-2.601.533-5.34.408-7.955-.464z" fill="#ffc097"/><path d="m184.72 6.915-.19-.018s-12.53 6.263-17.803 21.37c-.199.571.279 1.157.881 1.09l6.667-.741c.532-.059.98.395.914.927l-.712 5.696c-.074.594.487 1.069 1.06.896l7.961-2.388c5.986-12.611 3.726-21.773 1.222-26.832z" fill="#ffc097"/><path d="m81.523 35.238-.712-5.696c-.066-.532.381-.986.914-.927l6.667.741c.601.067 1.08-.519.881-1.09-5.272-15.106-17.803-21.369-17.803-21.369l-.189.018c-2.503 5.06-4.754 14.224 1.232 26.835l7.949 2.385c.574.172 1.135-.303 1.061-.897z" fill="#ffc097"/><path d="m215.875 255.999h-37.795c-.667 0-1.305-.266-1.774-.739l-.189-.19c-.633-.638-.875-1.564-.634-2.43s.926-1.535 1.797-1.755c1.029-.26 1.874-1.016 2.203-1.972.202-.587.293-1.479-.418-2.396-1.275-1.643-2.951-3.28-4.982-4.868-3.899-3.046-4.999-8.306-2.613-12.506 12.649-22.276 17.941-47.067 15.731-73.684-.058-.692.175-1.378.644-1.891.468-.514 1.128-.81 1.823-.816 11.531-.137 19.835 3.265 24.662 10.037 6.62 9.29 6.167 24.693-1.347 45.781-.016.045-.033.09-.052.133l-11.127 26.362c4.334.238 10.844 1.428 14.492 6.095 2.574 3.292 3.252 7.636 2.015 12.909-.267 1.131-1.275 1.93-2.436 1.93zm-31.839-5h29.756c.352-2.818-.129-5.086-1.437-6.76-2.896-3.705-9.39-4.188-12.047-4.223-1.341-.019-2.58-.7-3.314-1.824-.738-1.128-.865-2.544-.341-3.786l11.642-27.581c6.911-19.423 7.571-33.263 1.961-41.135-3.465-4.862-9.469-7.512-17.87-7.894 1.717 26.598-3.853 51.417-16.57 73.814-1.169 2.059-.616 4.565 1.344 6.098 2.356 1.842 4.326 3.773 5.854 5.741 1.602 2.063 2.038 4.647 1.196 7.091-.054.156-.111.309-.174.459z"/><path d="m77.92 255.999h-37.795c-1.161 0-2.169-.799-2.434-1.93-1.237-5.273-.559-9.617 2.015-12.909 3.648-4.667 10.158-5.856 14.492-6.095l-11.127-26.362c-.019-.043-.036-.088-.052-.133-7.514-21.088-7.967-36.491-1.347-45.781 4.826-6.772 13.114-10.142 24.662-10.037.695.007 1.355.303 1.823.816s.701 1.198.644 1.891c-2.21 26.616 3.083 51.407 15.731 73.684 2.385 4.2 1.286 9.46-2.613 12.506-2.031 1.587-3.707 3.225-4.982 4.868-.712.917-.621 1.81-.419 2.396.33.956 1.174 1.712 2.203 1.972.872.22 1.558.89 1.798 1.756s-.003 1.794-.637 2.432l-.189.19c-.47.47-1.108.736-1.773.736zm-35.712-5h29.756c-.062-.15-.12-.303-.173-.458-.842-2.443-.406-5.027 1.196-7.091 1.528-1.969 3.497-3.9 5.853-5.741 1.96-1.532 2.513-4.039 1.344-6.098-12.717-22.397-18.287-47.217-16.57-73.814-8.402.381-14.405 3.03-17.87 7.894-5.61 7.872-4.95 21.712 1.961 41.135l11.642 27.582c.524 1.242.397 2.657-.341 3.786-.734 1.123-1.974 1.805-3.314 1.823-2.658.035-9.151.518-12.047 4.223-1.309 1.673-1.79 3.941-1.437 6.759z"/><path d="m128.265 126.414c-1.381 0-2.5-1.119-2.5-2.5v-9.185c0-1.381 1.119-2.5 2.5-2.5s2.5 1.119 2.5 2.5v9.185c0 1.381-1.119 2.5-2.5 2.5z"/><path d="m117.867 99.61c-.396 0-.798-.095-1.173-.294-1.219-.648-1.681-2.163-1.032-3.382 3.064-5.756 3.992-12.198 2.759-19.148-.241-1.359.665-2.657 2.025-2.898 1.356-.235 2.657.666 2.898 2.025 1.413 7.964.283 15.699-3.268 22.371-.45.845-1.315 1.326-2.209 1.326z"/><path d="m138.663 99.61c-.894 0-1.759-.481-2.209-1.326-3.551-6.672-4.681-14.407-3.268-22.371.241-1.359 1.538-2.262 2.898-2.025 1.36.241 2.266 1.539 2.025 2.898-1.233 6.95-.305 13.393 2.759 19.148.648 1.219.187 2.733-1.032 3.382-.375.2-.777.294-1.173.294z"/><path d="m95.163 72.6c-1.377 0-2.496-1.114-2.5-2.492-.007-2.321.89-4.508 2.526-6.154 1.637-1.647 3.817-2.56 6.139-2.566h.028c4.78 0 8.677 3.881 8.693 8.665.004 1.38-1.111 2.503-2.492 2.508-.003 0-.006 0-.008 0-1.377 0-2.496-1.114-2.5-2.492-.007-2.032-1.663-3.681-3.693-3.681-.004 0-.008 0-.012 0-.986.003-1.912.391-2.607 1.09-.695.7-1.076 1.629-1.073 2.615.004 1.381-1.111 2.504-2.492 2.508-.004-.001-.007-.001-.009-.001z"/><path d="m148.981 72.6c-1.377 0-2.496-1.114-2.5-2.492-.007-2.321.89-4.508 2.526-6.154 1.636-1.647 3.816-2.56 6.139-2.566h.028c4.78 0 8.677 3.881 8.692 8.665.004 1.38-1.111 2.503-2.492 2.508-.003 0-.006 0-.008 0-1.377 0-2.496-1.114-2.5-2.492-.007-2.032-1.662-3.681-3.693-3.681-.004 0-.008 0-.012 0-.986.003-1.912.391-2.607 1.09-.695.7-1.076 1.629-1.073 2.615.004 1.381-1.111 2.504-2.492 2.508-.002-.001-.005-.001-.008-.001z"/><path d="m149.872 111.49c-1.046 0-2.022-.663-2.371-1.71-.437-1.311.271-2.726 1.581-3.163l10.332-3.444c1.307-.435 2.725.271 3.162 1.581.437 1.311-.271 2.726-1.581 3.163l-10.332 3.444c-.263.087-.529.129-.791.129z"/><path d="m161.355 121.821c-.092 0-.185-.005-.279-.016l-10.332-1.147c-1.373-.152-2.361-1.388-2.209-2.761.152-1.372 1.39-2.365 2.761-2.208l10.332 1.147c1.373.152 2.361 1.388 2.209 2.761-.142 1.279-1.225 2.224-2.482 2.224z"/><path d="m107.396 111.49c-.262 0-.529-.042-.791-.129l-10.332-3.444c-1.31-.438-2.018-1.853-1.581-3.163.437-1.309 1.854-2.013 3.162-1.581l10.332 3.444c1.31.438 2.018 1.853 1.581 3.163-.349 1.047-1.325 1.71-2.371 1.71z"/><path d="m95.913 121.821c-1.257 0-2.34-.945-2.482-2.224-.152-1.373.836-2.608 2.209-2.761l10.332-1.147c1.374-.158 2.608.836 2.761 2.208.152 1.373-.836 2.608-2.209 2.761l-10.332 1.147c-.094.011-.188.016-.279.016z"/><path d="m176.401 255.999h-26.778c-3.213 0-6.012-1.791-7.35-4.415-9.265 2.783-19.283 2.783-28.547 0-1.338 2.624-4.139 4.415-7.349 4.415h-26.778c-3.211 0-6.062-1.745-7.437-4.555-1.303-2.661-.995-5.649.825-7.994 1.528-1.969 3.497-3.9 5.853-5.741 1.96-1.532 2.513-4.039 1.344-6.098-14.141-24.902-19.439-52.681-15.75-82.562 1.705-13.809 7.707-26.599 17.357-36.986.921-.991 2.465-1.071 3.482-.177 3.191 2.805 6.827 5.284 10.807 7.37.471.227.873.602 1.131 1.096.279.535.549.987.828 1.384 1.879 2.669 4.67 4.517 7.857 5.201.767.165 1.412.68 1.742 1.391 3.722 8.005 11.824 13.177 20.64 13.177 7.664 0 14.791-3.91 18.967-10.19-.335-.391-.554-.888-.596-1.44-.103-1.373.923-2.571 2.296-2.68 3.838-.304 7.317-2.294 9.546-5.46.275-.392.546-.844.827-1.381.236-.453.605-.822 1.058-1.059 3.893-2.033 7.46-4.444 10.603-7.166 1.021-.887 2.562-.799 3.478.198 9.503 10.34 15.419 23.038 17.109 36.721 3.691 29.881-1.608 57.66-15.75 82.564-1.169 2.059-.616 4.565 1.344 6.098 2.356 1.841 4.326 3.772 5.854 5.741 1.819 2.345 2.128 5.333.825 7.994-1.376 2.809-4.226 4.554-7.438 4.554zm-32.454-10.103c1.321 0 2.42 1.027 2.495 2.355.086 1.541 1.484 2.748 3.182 2.748h26.778c1.54 0 2.531-.906 2.947-1.754.265-.541.58-1.615-.284-2.729-1.275-1.644-2.952-3.281-4.983-4.868-3.899-3.046-4.998-8.306-2.613-12.506 13.599-23.95 18.691-50.691 15.136-79.482-1.466-11.871-6.382-22.946-14.256-32.176-2.755 2.183-5.764 4.154-8.98 5.883-.257.449-.518.86-.787 1.243-2.379 3.379-5.788 5.792-9.664 6.915-4.749 9.138-14.293 14.979-24.639 14.979-10.349 0-19.89-5.842-24.639-14.981-3.915-1.128-7.323-3.55-9.69-6.911-.271-.387-.531-.797-.787-1.244-3.339-1.795-6.453-3.851-9.292-6.132-8.003 9.278-12.993 20.44-14.473 32.427-3.555 28.792 1.537 55.532 15.135 79.48 2.385 4.2 1.286 9.46-2.613 12.506-2.031 1.587-3.707 3.225-4.982 4.868-.865 1.113-.549 2.188-.285 2.729.416.848 1.407 1.754 2.947 1.754h26.778c1.695 0 3.092-1.205 3.182-2.743.046-.787.46-1.506 1.117-1.94.658-.436 1.481-.533 2.223-.267 9.677 3.474 20.375 3.492 30.059.051.282-.122.592-.193.917-.202.023-.003.047-.003.071-.003z"/><path d="m176.401 255.999h-26.778c-3.211 0-6.008-1.781-7.34-4.427l-.311.091c-.416.123-.831.246-1.25.357-.159.042-.316.079-.474.117l-.489.119c-.369.092-.738.184-1.112.266-.178.039-.355.074-.533.108l-.536.106c-.34.069-.68.139-1.024.198-.202.035-.395.063-.588.093l-.596.092c-.31.05-.621.099-.934.139-.249.033-.508.061-.767.087l-.63.069c-.241.027-.481.055-.724.076-.474.041-.952.068-1.431.096l-.308.02c-.132.01-.265.019-.398.024-1.449.064-2.917.063-4.363.001-.125-.006-.249-.015-.373-.024l-.188-.013c-.525-.028-1.05-.059-1.575-.104-.25-.022-.496-.05-.741-.078l-.626-.069c-.252-.026-.505-.053-.756-.085-.331-.044-.659-.096-.986-.147l-.532-.082c-.198-.029-.396-.06-.594-.094-.355-.062-.709-.134-1.063-.206l-.519-.104c-.171-.032-.343-.065-.513-.104-.396-.088-.785-.185-1.174-.281l-.427-.104c-.155-.037-.311-.074-.466-.114-.451-.121-.886-.249-1.321-.378-.002-.001-.1-.03-.103-.031l-.143-.041c-1.333 2.646-4.131 4.427-7.339 4.427h-26.777c-3.211 0-6.061-1.745-7.437-4.555-1.303-2.661-.995-5.65.825-7.995 1.529-1.969 3.498-3.899 5.854-5.74 1.96-1.532 2.513-4.039 1.344-6.098-14.141-24.904-19.439-52.682-15.75-82.562 1.705-13.809 7.707-26.599 17.357-36.986.921-.991 2.465-1.071 3.482-.177 3.191 2.805 6.827 5.284 10.807 7.37.471.227.873.602 1.131 1.096.279.535.549.987.827 1.383 1.88 2.67 4.671 4.518 7.858 5.202.767.165 1.412.68 1.742 1.391 3.722 8.005 11.824 13.177 20.64 13.177 8.188 0 15.762-4.462 19.781-11.51-.165-.789.044-1.619.628-2.216.369-.377.872-.651 1.392-.739 3.424-.58 6.412-2.464 8.413-5.307.275-.391.546-.843.827-1.38.236-.453.605-.822 1.058-1.059 3.893-2.033 7.46-4.444 10.603-7.166 1.021-.887 2.562-.799 3.478.198 9.503 10.34 15.419 23.038 17.109 36.721 3.691 29.881-1.608 57.66-15.75 82.564-1.169 2.059-.616 4.565 1.344 6.098 2.355 1.841 4.324 3.771 5.853 5.74 1.82 2.346 2.128 5.334.825 7.995-1.378 2.81-4.227 4.555-7.439 4.555zm-32.456-10.098c.426 0 .849.108 1.229.322.632.357 1.078.971 1.222 1.683.041.204.061.335.076.478.158 1.487 1.513 2.615 3.151 2.615h26.778c1.539 0 2.531-.906 2.947-1.754.265-.541.581-1.615-.284-2.73-1.275-1.642-2.952-3.279-4.983-4.866-3.899-3.046-4.998-8.306-2.613-12.506 13.599-23.95 18.691-50.691 15.136-79.482-1.466-11.871-6.382-22.946-14.256-32.176-2.755 2.183-5.764 4.154-8.98 5.883-.257.449-.518.86-.787 1.243-2.375 3.374-5.753 5.774-9.656 6.9-4.746 9.146-14.295 14.993-24.647 14.993-10.349 0-19.89-5.842-24.639-14.981-3.916-1.128-7.323-3.55-9.69-6.911-.271-.386-.531-.797-.787-1.244-3.339-1.795-6.453-3.851-9.292-6.132-8.003 9.278-12.993 20.44-14.473 32.427-3.555 28.79 1.537 55.531 15.135 79.48 2.385 4.2 1.286 9.46-2.613 12.506-2.03 1.587-3.707 3.225-4.982 4.867-.864 1.114-.549 2.188-.284 2.729.415.848 1.407 1.754 2.946 1.754h26.778c1.636 0 2.992-1.126 3.152-2.619.01-.097.026-.194.045-.293.091-.72.491-1.368 1.101-1.771.658-.436 1.483-.532 2.223-.269.598.215 1.202.417 1.812.606l.673.196c.391.116.781.231 1.177.338l.826.201c.346.087.691.173 1.041.251.124.027.252.051.38.076l.571.113c.307.062.615.126.925.18.159.027.316.051.473.074l.578.09c.282.044.563.089.848.126.209.027.419.049.628.071l.681.074c.2.023.399.047.6.064.47.04.943.066 1.417.093l.506.033c1.302.059 2.623.059 3.924 0l.564-.036c.506-.029.933-.053 1.36-.09.199-.018.393-.04.586-.062l.684-.074c.211-.022.423-.044.634-.072.275-.035.537-.077.799-.119l.646-.1c.155-.022.311-.046.466-.072.29-.051.586-.111.882-.172l.588-.117c.136-.026.271-.052.407-.082.327-.071.651-.152.975-.233l.894-.219c.37-.099.737-.208 1.105-.316l.738-.215c.607-.189 1.214-.393 1.813-.607.276-.097.562-.146.846-.146zm-34.386 2.352v.003c0-.001 0-.002 0-.003zm.001-.004c-.001 0-.001 0 0 0z"/><path d="m161.535 124.01c-.648 0-1.288-.252-1.769-.732-.772-.771-.954-1.956-.448-2.925 2.275-4.357 1.778-9.844-1.267-13.976-3.001-4.074-7.978-6.11-12.854-5.497.103.465.14.907.14 1.303 0 6.215-9.095 13.301-17.073 13.301-7.979 0-17.074-7.086-17.074-13.301 0-.396.037-.838.14-1.303-4.871-.617-9.851 1.421-12.853 5.496-3.045 4.133-3.542 9.619-1.267 13.977.506.968.324 2.152-.448 2.925s-1.956.955-2.925.448c-17.185-8.979-27.445-23.982-27.445-40.131 0-4.44.771-8.841 2.293-13.078 1.396-3.889 2.218-7.742 2.441-11.454.341-5.68 1.522-11.258 3.511-16.589-13.795-20.547-7.347-34.505-3.913-39.574 1.411-2.082 3.857-3.168 6.378-2.844 9.17 1.196 16.588 7.924 21.302 13.547 8.981-5.521 19.294-8.437 29.86-8.437 10.428 0 20.62 2.841 29.514 8.22 4.683-5.528 12.045-12.146 21.119-13.329 2.532-.323 4.968.762 6.379 2.844 3.392 5.006 9.788 18.788-3.569 39.064 2.11 5.497 3.355 11.276 3.7 17.186.213 3.633 1.033 7.458 2.437 11.369 1.521 4.237 2.292 8.637 2.292 13.075 0 16.148-10.26 31.15-27.445 40.131-.365.191-.762.284-1.156.284zm-14.628-28.236c5.855 0 11.561 2.737 15.17 7.635 2.766 3.754 3.986 8.344 3.575 12.771 12.305-8.184 19.485-20.032 19.485-32.585 0-3.861-.672-7.692-1.998-11.386-1.566-4.361-2.482-8.656-2.722-12.767-.325-5.548-1.517-10.968-3.543-16.112-.485-1.233-.334-2.63.404-3.733 12.028-17.977 6.706-29.69 3.859-33.892-.344-.508-.951-.776-1.594-.689-8.115 1.057-14.941 7.976-18.288 12.006-1.396 1.679-3.765 2.06-5.637.903-8.213-5.076-17.671-7.759-27.353-7.759-9.81 0-19.379 2.754-27.672 7.964-1.857 1.167-4.299.777-5.68-.906-3.37-4.1-10.251-11.14-18.456-12.208-.64-.087-1.25.182-1.593.689-2.884 4.257-8.249 16.126 4.184 34.364.748 1.096.912 2.488.437 3.725-1.913 4.993-3.046 10.232-3.367 15.569-.252 4.186-1.169 8.507-2.726 12.843-1.327 3.694-1.999 7.525-1.999 11.389 0 12.553 7.181 24.402 19.485 32.585-.412-4.427.809-9.016 3.574-12.77 4.966-6.743 13.907-9.389 21.739-6.442.873.328 1.49 1.115 1.602 2.041s-.302 1.837-1.072 2.363c-.53.361-.53.601-.53.811 0 2.903 6.206 8.301 12.074 8.301 5.867 0 12.073-5.397 12.073-8.301 0-.21 0-.449-.53-.811-.77-.526-1.183-1.438-1.072-2.363s.729-1.713 1.602-2.041c2.141-.806 4.366-1.194 6.569-1.194z"/><path d="m169.582 104.476c-.855 0-1.689-.439-2.155-1.229-.702-1.188-.307-2.722.882-3.424 2.325-1.372 4.521-2.936 6.528-4.647 1.051-.896 2.628-.771 3.524.28.896 1.05.771 2.628-.279 3.524-2.226 1.898-4.658 3.631-7.231 5.149-.399.235-.837.347-1.269.347z"/><path d="m140.878 65.568c-.15 0-.301-.013-.454-.041-1.358-.249-2.257-1.552-2.008-2.91.638-3.479 2.326-6.164 3.815-8.533 2.555-4.064 3.613-5.747-.001-9.332-4.896-4.856-2.826-10.812-1.047-13.281.808-1.122 2.37-1.374 3.49-.567 1.116.803 1.373 2.356.578 3.476-.439.633-2.448 3.897.501 6.824 6.457 6.404 3.271 11.471.712 15.542-1.311 2.085-2.666 4.241-3.13 6.774-.221 1.205-1.272 2.048-2.456 2.048z"/><path d="m116.122 65.568c-1.184 0-2.235-.844-2.456-2.049-.464-2.533-1.82-4.689-3.13-6.774-2.559-4.071-5.744-9.138.712-15.542 2.954-2.931.935-6.201.5-6.827-.783-1.127-.518-2.684.603-3.477 1.121-.791 2.665-.543 3.466.571 1.779 2.47 3.849 8.425-1.047 13.281-3.614 3.585-2.556 5.268-.001 9.332 1.49 2.369 3.178 5.055 3.815 8.533.249 1.358-.65 2.661-2.008 2.91-.153.03-.305.042-.454.042z"/><path d="m163.502 96c-.833 0-1.648-.416-2.123-1.175-.731-1.171-.375-2.714.795-3.445 6.939-4.337 8.848-14.232 8.866-14.332.252-1.355 1.558-2.255 2.91-2.004 1.356.249 2.255 1.547 2.008 2.903-.089.493-2.299 12.15-11.134 17.673-.411.258-.869.38-1.322.38z"/><path d="m86.418 104.476c-.432 0-.87-.111-1.269-.347-2.573-1.519-5.005-3.251-7.231-5.149-1.05-.896-1.175-2.475-.279-3.524.896-1.051 2.475-1.175 3.524-.28 2.006 1.712 4.203 3.275 6.528 4.647 1.189.702 1.584 2.235.882 3.424-.466.789-1.3 1.229-2.155 1.229z"/><path d="m92.498 96c-.453 0-.911-.122-1.323-.38-8.835-5.522-11.045-17.18-11.134-17.673-.247-1.358.654-2.66 2.012-2.907 1.361-.242 2.657.653 2.906 2.008.019.1 1.927 9.995 8.866 14.332 1.17.731 1.526 2.274.795 3.445-.474.759-1.289 1.175-2.122 1.175z"/><path d="m197.16 158.278c-.132 0-.266-.01-.4-.032-2.069-.333-4.326-.527-6.646-.496-.067.011-.135.02-.205.025-1.371.128-2.581-.892-2.706-2.264-.001-.009-.001-.017-.002-.024-.165-1.993-.366-3.954-.598-5.827-.388-3.141-1.033-6.282-1.918-9.337-.22-.761-.456-1.517-.705-2.267-.072-.218-.15-.432-.229-.646l-.141-.393c-.159-.446-.187-.93-.081-1.392.977-4.268 2.003-7.68 3.232-10.737 6.093-15.162 18.583-24.587 31.785-24.078 12.408.503 22.661 9.965 27.425 25.31.708 2.278.336 4.78-1.045 7.045-1.558 2.556-4.201 4.438-6.897 4.914-5.206.921-9.86-2.178-11.578-7.71-.352-1.135-3.632-11.043-10.358-9.423-10.093 2.43-12.707 16.251-14.808 27.356-.378 2-.735 3.889-1.121 5.638-.183.829-.381 1.641-.584 2.447-.281 1.127-1.293 1.891-2.42 1.891zm-5.182-5.498c1.117.039 2.209.114 3.274.226.011-.048.021-.096.032-.143.37-1.676.72-3.528 1.091-5.489 2.243-11.86 5.315-28.103 18.549-31.289 8.467-2.04 14.074 5.621 16.304 12.802.756 2.437 2.714 4.84 5.934 4.269 1.285-.227 2.69-1.269 3.498-2.593.36-.592.91-1.763.538-2.96-4.17-13.432-12.5-21.376-22.853-21.796-11.053-.445-21.649 7.773-26.943 20.946-1.061 2.641-1.966 5.604-2.833 9.277.053.149.105.299.155.448.27.812.524 1.631.763 2.454.958 3.309 1.658 6.711 2.078 10.114.151 1.216.289 2.465.413 3.734z"/><path d="m236.227 138.239c-4.454.001-8.258-2.986-9.774-7.87-1.085-3.496-3.395-7.729-6.623-9.124-.662-.286-1.167-.844-1.388-1.529-.221-.687-.134-1.435.236-2.052 3.418-5.695 9.769-8.555 14.495-9.951.859-.256 1.79-.028 2.438.592 4.562 4.37 8.049 10.364 10.362 17.815.708 2.278.336 4.78-1.045 7.045-1.558 2.556-4.201 4.438-6.897 4.914-.61.108-1.213.16-1.804.16zm-11.765-20c4.188 3.267 6.189 8.791 6.766 10.647.756 2.437 2.714 4.84 5.934 4.269 1.285-.227 2.69-1.269 3.498-2.593.36-.592.91-1.763.538-2.96-1.876-6.043-4.569-10.961-8.016-14.645-2.95 1.018-6.328 2.666-8.72 5.282z"/><path d="m128 253.67c-5.308 0-10.615-.846-15.7-2.538-.134.014-.27.02-.406.013-1.323-.063-2.367-1.149-2.379-2.475-.02-2.229-.782-4.678-1.428-6.099-2.35-5.164-2.264-9.107-2.207-11.717.015-.675.027-1.259-.006-1.709-.004-.062-.007-.124-.007-.186 0-14.12-1.459-27.471-4.335-39.679-.048-.201-.096-.423-.144-.657-1.783-8.834 1.562-17.883 8.729-23.617l.335-.269c10.477-8.382 25.559-8.229 35.862.364 6.7 5.589 9.932 14.324 8.435 22.797-.09.512-.184.978-.28 1.384-2.876 12.203-4.334 25.553-4.334 39.677 0 .062-.002.124-.007.187-.033.443-.021 1.022-.005 1.693.058 2.611.146 6.558-2.208 11.731-.698 1.533-1.41 4.011-1.428 6.091-.012 1.326-1.058 2.413-2.383 2.475-.129.006-.258.002-.384-.011-5.093 1.697-10.406 2.545-15.72 2.545zm-13.639-7.125c8.852 2.833 18.425 2.833 27.278 0 .31-2.314 1.038-4.537 1.724-6.044 1.881-4.135 1.814-7.138 1.761-9.55-.017-.73-.032-1.422.011-2.078.006-14.478 1.509-28.184 4.469-40.738.077-.326.15-.698.222-1.104 1.186-6.714-1.387-13.645-6.714-18.088-8.484-7.078-20.906-7.204-29.534-.301l-.335.269c-5.7 4.561-8.364 11.734-6.953 18.723.035.175.071.342.108.497 2.96 12.562 4.464 26.27 4.47 40.743.043.661.028 1.356.012 2.091-.053 2.411-.118 5.411 1.759 9.537.684 1.505 1.411 3.727 1.722 6.043z"/><path d="m128.265 115.483c-7.979 0-17.074-7.086-17.074-13.301 0-7.319 10.688-7.319 17.074-7.319s17.073 0 17.073 7.319c0 6.215-9.095 13.301-17.073 13.301zm0-15.62c-8.012 0-12.074.78-12.074 2.319 0 2.903 6.206 8.301 12.074 8.301 5.867 0 12.073-5.397 12.073-8.301 0-1.538-4.062-2.319-12.073-2.319z"/><path d="m147.982 132.248c-1.896 0-3.819-.304-5.704-.932l-14.014-4.672-14.014 4.672c-7.548 2.515-15.708-.18-20.302-6.705-4.417-6.277-4.215-14.798.503-21.202 4.967-6.74 13.908-9.387 21.739-6.441.873.328 1.491 1.115 1.602 2.042.111.926-.302 1.837-1.072 2.362-.53.362-.53.601-.53.811 0 2.903 6.206 8.301 12.074 8.301 5.867 0 12.073-5.397 12.073-8.301 0-.21 0-.449-.53-.811-.77-.526-1.183-1.438-1.072-2.363s.729-1.713 1.602-2.041c7.832-2.946 16.772-.299 21.739 6.441v.001c4.719 6.404 4.921 14.924.503 21.2-3.446 4.898-8.9 7.638-14.597 7.638zm-19.717-10.739c.267 0 .534.043.791.128l14.804 4.936c5.442 1.815 11.319-.131 14.632-4.84 3.178-4.515 3.001-10.686-.44-15.355-3.001-4.074-7.978-6.11-12.854-5.497.103.465.14.907.14 1.303 0 6.215-9.095 13.301-17.073 13.301-7.979 0-17.074-7.086-17.074-13.301 0-.396.037-.838.14-1.303-4.876-.614-9.852 1.421-12.853 5.496-3.441 4.67-3.618 10.842-.44 15.357 3.313 4.706 9.194 6.65 14.632 4.839l14.804-4.936c.256-.085.524-.128.791-.128z"/><path d="m128.278 146.504c-10.772 0-20.661-6.322-25.193-16.106-.4-.864-.274-1.882.325-2.623.599-.74 1.565-1.074 2.497-.866 2.299.521 4.692.406 6.915-.336l14.804-4.936c.513-.17 1.068-.17 1.581 0l14.804 4.936c2.131.709 4.435.844 6.661.386.928-.19 1.879.157 2.465.899.585.741.703 1.75.304 2.606-4.545 9.744-14.421 16.04-25.163 16.04zm-18.353-14.313c4.239 5.767 11.048 9.312 18.353 9.312 7.309 0 14.13-3.557 18.369-9.335-1.433-.112-2.85-.397-4.217-.853l-14.014-4.672-14.014 4.672c-1.453.486-2.959.778-4.477.876z"/><path d="m175.295 38.671c-.776 0-1.536-.272-2.146-.789-.863-.73-1.293-1.835-1.152-2.956l.449-3.591-4.562.506c-1.144.13-2.256-.335-2.976-1.237-.717-.898-.918-2.08-.541-3.162 5.543-15.881 18.496-22.507 19.045-22.781.42-.21.894-.298 1.361-.252l.19.019c.859.084 1.614.605 1.998 1.38 2.926 5.913 5.093 15.746-1.204 29.012-.303.639-.863 1.119-1.54 1.322l-7.961 2.389c-.317.093-.64.14-.961.14zm-.921-12.561c.884 0 1.729.351 2.361.99.721.73 1.062 1.733.935 2.752l-.394 3.15 4.423-1.327c4.125-9.258 3.521-16.364 1.804-21.226-3.3 2.239-9.635 7.412-13.427 16.117l3.923-.436c.126-.013.251-.02.375-.02zm-7.042.762c-.001 0-.002 0-.003 0z"/><path d="m80.705 38.671c-.32 0-.644-.047-.959-.142l-7.95-2.385c-.677-.203-1.237-.684-1.54-1.322-6.302-13.273-4.139-23.105-1.215-29.016.383-.773 1.137-1.295 1.997-1.38l.189-.019c.466-.044.94.041 1.362.252.549.274 13.502 6.9 19.046 22.782.377 1.082.175 2.265-.542 3.162-.72.902-1.831 1.372-2.978 1.236l-4.559-.506.449 3.593c.14 1.121-.291 2.226-1.154 2.955-.611.517-1.371.79-2.146.79zm-1.662-3.122h.01zm-4.731-3.869 4.412 1.323-.394-3.149c-.128-1.018.212-2.021.933-2.752.72-.729 1.716-1.091 2.739-.97l3.922.436c-3.791-8.702-10.124-13.875-13.426-16.116-1.713 4.86-2.315 11.964 1.814 21.228zm14.354-4.809.003.001c-.002 0-.002-.001-.003-.001z"/></svg>