<svg enable-background="new 0 0 256 256" height="512" viewBox="0 0 256 256" width="512" xmlns="http://www.w3.org/2000/svg"><g fill="#7ccc4e"><path d="m194.36 92.148c-3.373-3.756-9.409-4.836-13.826-2.39-9.516 5.271-16.318 28.4-28.909 40.803 2.765-1.51 9.071-4.053 13.157 1.312 28.771-22.898 28.896-22.742 30.724-25.657 2.682-4.277 2.228-10.311-1.146-14.068z"/><path d="m211.235 113.761c-1.819-4.71-7.078-7.863-12.075-7.145-1.778.256-3.661.996-5.637 2.081-2.459 2.387-8.536 7.098-28.74 23.177.169.222.334.456.495.705 2.264 3.509 1.587 6.673.121 9.115 39.122-12.511 39.063-12.22 41.911-14.374 4.025-3.047 5.744-8.85 3.925-13.559z"/><path d="m171.566 76.143c-4.374-2.24-10.236-1.121-13.399 2.641-5.638 6.704-5.334 23.872-9.096 38.469 3.981 2.253 4.824 10.685 1.173 14.149 0 0 .574-.408 1.513-.912l.576-.649c3.428-3.546 6.428-7.865 9.173-12.367.79-1.338 1.528-2.588 2.239-3.791 3.569-6.203 6.768-12.406 10.049-17.087 3.141-5.466 3.356-6.256 3.712-8.064.948-4.822-1.566-10.149-5.94-12.389z"/><path d="m149.062 117.248c2.89-11.209 3.394-23.926 6.019-32.266.03-1.091-.074-1.724-.233-2.583-.895-4.832-5.195-8.858-10.087-9.328-4.892-.471-9.929 2.731-11.483 7.393-2.905 8.714 4.508 25.719 5.964 41.29 4.151-5.015 7.512-5.806 9.82-4.506z"/><path d="m132.209 126.156c.568.421 1.121.844 1.666 1.27 1.703-1.497 3.409-3.25 5.07-5.32.1-.124.196-.227.294-.347-1.053-11.279-5.227-23.308-6.348-32.398-.512-1.771-.88-2.413-1.467-3.379-2.555-4.198-8.006-6.432-12.745-5.132s-8.309 6.083-8.104 10.993c.339 8.107 10.5 19.395 17.622 31.592 1.351.85 2.692 1.744 4.012 2.721z"/><path d="m211.406 129.006c-2.23-.475-4.89-.274-7.857.342-2.886 1.114-8.52 2.902-21.553 7.051-1.888.642-3.794 1.256-5.706 1.817-3.246 1.034-6.861 2.187-10.892 3.476-1.227 2.045-3.004 3.583-4.074 4.394l.15.354c2.218-.513 7.371-1.169 10.015 2.929.237.367.437.73.618 1.091 36.528 1.591 36.511 1.788 39.797.789 4.831-1.468 8.447-6.32 8.366-11.368-.08-5.048-3.926-9.823-8.864-10.875z"/><path d="m218.952 63.997c-4.498-5.008-12.545-6.448-18.434-3.186-7.524 4.167-13.776 16.71-21.119 29.678.375-.268.752-.518 1.134-.73 4.417-2.446 10.452-1.366 13.826 2.39 2.641 2.941 3.484 7.277 2.442 11.074 21.22-16.857 21.68-17.282 23.678-20.469 3.577-5.703 2.971-13.749-1.527-18.757z"/><path d="m241.451 92.812c-2.426-6.279-9.436-10.483-16.1-9.526-2.371.34-4.881 1.327-7.516 2.774-2.435 2.363-7.541 6.444-21.032 17.161-.289 1.053-.714 2.066-1.296 2.995-.546.871-.941 1.468-1.991 2.486.002-.002.005-.005.007-.007 1.976-1.085 3.859-1.825 5.637-2.081 4.998-.718 10.256 2.435 12.075 7.145.771 1.997.901 4.19.494 6.286 20.995-6.695 21.693-7.043 24.488-9.158 5.368-4.059 7.659-11.796 5.234-18.075z"/><path d="m171.566 76.143c4.374 2.24 6.888 7.567 5.94 12.389-.356 1.808-.571 2.598-3.712 8.064 1.815-2.589 3.656-4.71 5.6-6.103 4.257-7.516 8.154-14.883 12.137-20.567 4.188-7.287 4.475-8.341 4.949-10.751 1.265-6.429-2.087-13.531-7.919-16.518s-13.648-1.494-17.865 3.522c-4.788 5.693-6.36 17.05-8.166 29.572 2.9-1.094 6.265-1.027 9.036.392z"/><path d="m144.761 73.071c4.892.471 9.192 4.496 10.087 9.328.159.859.263 1.491.233 2.583.793-2.519 1.777-4.644 3.085-6.199 1.161-1.38 2.686-2.401 4.367-3.035 1.149-7.958 2.203-15.445 4.049-21.306.04-1.455-.099-2.298-.311-3.443-1.193-6.443-6.927-11.81-13.449-12.438-6.522-.627-13.238 3.641-15.31 9.858-2.027 6.079-.284 15.188 2.114 25.461 1.621-.669 3.386-.977 5.135-.809z"/><path d="m118.679 80.851c4.739-1.3 10.19.933 12.745 5.132.587.965.954 1.608 1.467 3.378-.427-3.458-.413-6.494.388-8.896.999-2.996 3.438-5.382 6.35-6.584-1.134-4.859-2.122-9.459-2.632-13.599-.683-2.361-1.173-3.218-1.956-4.505-3.406-5.598-10.674-8.575-16.993-6.842-6.319 1.732-11.078 8.11-10.804 14.657.223 5.346 3.657 11.733 8.214 18.788.978-.684 2.064-1.212 3.221-1.529z"/><path d="m241.679 113.139c-2.974-.634-6.52-.365-10.476.457-3.08 1.188-8.522 2.958-19.475 6.451-.553 2.848-2.1 5.518-4.42 7.272-1.004.76-1.648 1.215-3.774 2.035.004-.002.009-.004.013-.005 2.967-.616 5.627-.818 7.857-.342 4.938 1.052 8.784 5.827 8.865 10.875.017 1.09-.147 2.169-.449 3.209 18.495.797 19.363.665 22.522-.295 6.441-1.957 11.263-8.426 11.155-15.157-.107-6.731-5.234-13.098-11.818-14.5z"/></g><circle cx="143.794" cy="86.135" fill="#f9bd55" r="4.213"/><circle cx="122.42" cy="93.405" fill="#f9bd55" r="4.213"/><circle cx="165.852" cy="87.931" fill="#f9bd55" r="4.213"/><circle cx="184.547" cy="101.358" fill="#f9bd55" r="4.328"/><circle cx="198.79" cy="118.884" fill="#f9bd55" r="4.328"/><circle cx="206.822" cy="140.392" fill="#f9bd55" r="4.328"/><circle cx="151.533" cy="55.98" fill="#f9bd55" r="5.617"/><circle cx="123.035" cy="65.672" fill="#f9bd55" r="5.617"/><circle cx="180.943" cy="58.374" fill="#f9bd55" r="5.617"/><circle cx="205.869" cy="76.276" fill="#f9bd55" r="5.77"/><circle cx="224.858" cy="99.644" fill="#f9bd55" r="5.77"/><circle cx="235.568" cy="128.32" fill="#f9bd55" r="5.77"/><path d="m171.489 149.369c-3.426-5.31-11.082-2.638-11.082-2.638s10.009-6.189 4.87-14.154c-5.264-8.159-15.033-1.176-15.033-1.176 5.818-5.521.229-23.667-11.299-9.296-1.661 2.07-3.367 3.822-5.07 5.32 16.413 12.802 22.762 27.637 25.218 37.203 9.954-1.344 17.32-7.626 12.396-15.259z" fill="#46baf9"/><path d="m86.65 239.966s-5.92 2.829-7.275 8.749c-.368 1.609 1.473 2.802 2.796 1.815 3.015-2.252 7.756-5.535 11.395-6.861-2.08-4.809-6.916-3.703-6.916-3.703z" fill="#e3e4e5"/><path d="m86.65 239.966c-2.079-4.809-6.889-2.73-6.889-2.73s-5.267 2.431-7.025 7.727c-.323.973.601 1.909 1.589 1.633l6.891-1.926c2.233-3.166 5.434-4.704 5.434-4.704z" fill="#e3e4e5"/><path d="m79.761 237.236c-1.08-3.864-4.944-2.784-4.944-2.784s-3.885 1.415-6.269 5.169c-.731 1.15.196 2.635 1.548 2.462l4.488-.574c2.223-2.909 5.177-4.273 5.177-4.273z" fill="#e3e4e5"/><path d="m116.736 230.27c-1.985-1.465-4.999-2.706-8.983-1.593 0 0 7.266-10.961 6.581-22.533-.659 1.903-1.134 3.164-1.288 5.318-1.491-1.269-3.489-2.511-4.981-3.781-1.289 2.05-2.353 3.897-4.148 5.523-.803-1.006-1.342-1.905-1.936-2.825-.024 5.546-1.123 13.315-4.956 17.056-1.057 1.032-2.557 1.482-4.013 1.232l-2.792-.479s-10.726-.678-15.401 6.265c0 0 3.864-1.08 4.943 2.784 0 0 4.81-2.08 6.889 2.73 0 0 4.836-1.107 6.916 3.703 0 0 2.843 2.199 7.877-5.848.524-.837 1.347-1.464 2.305-1.706 2.046-.518 5.695-1.043 8.911.575 1.429.719 3.148.494 4.247-.668l.297-.314c1.5-1.589 1.291-4.14-.468-5.439z" fill="#f9bd55"/><path d="m68.549 239.621c.631-.993 1.367-1.819 2.108-2.502-2.295-2.099-5.324-1.416-5.324-1.416s-5.92 2.829-7.275 8.749c-.368 1.609 1.473 2.802 2.796 1.815 2.043-1.526 4.877-3.514 7.625-5.057-.24-.476-.264-1.064.07-1.589z" fill="#e3e4e5"/><path d="m65.333 235.703c-2.079-4.809-6.889-2.73-6.889-2.73s-5.267 2.431-7.025 7.727c-.323.973.601 1.909 1.589 1.633l6.891-1.926c2.233-3.167 5.434-4.704 5.434-4.704z" fill="#e3e4e5"/><path d="m58.444 232.973c-1.08-3.864-4.944-2.784-4.944-2.784s-3.885 1.415-6.269 5.169c-.731 1.15.196 2.635 1.548 2.462l4.488-.574c2.223-2.909 5.177-4.273 5.177-4.273z" fill="#e3e4e5"/><path d="m74.817 234.452s.054-.014.141-.033c-.087.019-.141.033-.141.033 4.675-6.943 15.401-6.265 15.401-6.265l2.792.479c1.304.223 2.64-.118 3.665-.931-.229-.665-.642-1.275-1.257-1.729-1.985-1.465-4.999-2.706-8.983-1.593 0 0 7.266-10.961 6.581-22.533-.659 1.903-1.134 3.164-1.288 5.318-1.491-1.269-3.489-2.511-4.981-3.781-1.289 2.05-2.353 3.897-4.148 5.523-.803-1.006-1.343-1.905-1.936-2.825-.024 5.546-1.123 13.315-4.956 17.056-1.057 1.032-2.557 1.482-4.013 1.232l-2.792-.479s-10.726-.678-15.401 6.265c0 0 3.864-1.08 4.943 2.784 0 0 4.81-2.08 6.889 2.73 0 0 3.029-.682 5.324 1.416 2.06-1.897 4.16-2.667 4.16-2.667z" fill="#f9bd55"/><path d="m90.105 194.827c-7.042-.231-14.095-1.393-20.983-3.434.729 1.716 1.567 3.384 2.516 4.99 2.027 3.428 4.573 6.678 5.459 10.561.505-1 1.735-1.702 2.24-2.702 1.329 1.665 1.934 3.034 3.263 4.699 1.795-1.626 2.859-3.472 4.148-5.523 1.491 1.27 3.489 2.512 4.981 3.781.173-2.415.75-3.713 1.536-6.046-1.223-2.02-2.255-4.071-3.16-6.326z" fill="#46baf9"/><path d="m159.897 168.225c-1.767-9.348-7.708-27.268-27.688-42.068-26.517-19.642-59.977-12.51-72.167-8.924-2.896.852-6.014-.665-7.028-3.508-4.918-13.789-.42-29.24-.42-29.24 6.902-18.735 5.916-47.329-15.776-49.3-14.759-1.342-19.603 10.473-20.528 13.23.989-.056 2.903.255 4.319 3.086 1.989 3.978 3.978 4.972 3.978 4.972l-4.342 8.684c-.153.305-.428.502-.73.567.209.229.445.436.725.587 3.021 1.631 10.526 6.99 5.732 18.175 0 0-31.509 80.734 39.015 105.582 8.185 2.883 16.664 4.484 25.125 4.761.806 2.005 1.744 3.958 2.844 5.818 2.027 3.428 4.573 6.678 5.459 10.561.505-1 1.735-1.703 2.24-2.702 1.329 1.666 1.933 3.034 3.263 4.699 1.795-1.626 2.859-3.472 4.148-5.523 1.491 1.269 3.489 2.512 4.981 3.781.178-2.488.783-3.781 1.606-6.251 1.137 1.023 3.406 1.46 4.543 2.483-1.7-2.388-1.39-5.649-.628-8.479 0 0 .71-3.828.58-8.929 4.494-1.628 8.868-3.689 13.062-6.205 11.375-6.825 18.757-9.043 23.142-9.639 3.014-.412 5.11-3.228 4.545-6.218z" fill="#46baf9"/><path d="m114.238 164.526s2.173-13.093-11.519-13.093c0 0 2.106-13.691-9.479-13.691-2.137 0-4.02-.073-5.675-.189l-.031.116s6.36 4.072 4.821 12.315c-.136.731.257 1.453.942 1.741 2.706 1.139 8.893 4.684 8.811 13.286-.007.689.438 1.302 1.095 1.506 2.408.745 7.856 3.475 8.994 13.043.014.01.02.014.033.024 5.741-1.466 11.466-3.821 16.948-7.268.001-.002-5.743-7.926-14.94-7.79z" fill="#7ccc4e"/><path d="m55.83 55.743c-1.692-10.762-7.364-19.5-19.012-20.559-14.759-1.342-19.603 10.473-20.528 13.23.989-.056 2.903.255 4.319 3.086 1.989 3.978 3.978 4.972 3.978 4.972l-4.342 8.684c-.153.305-.428.502-.73.567.209.229.445.436.725.587 2.254 1.217 7 4.509 7.277 10.746 1.741.423 3.559.653 5.43.653 12.335.001 22.389-9.751 22.883-21.966z" fill="#7ed5fc"/><path d="m15.637 48.518s2.983-.994 4.972 2.983 3.978 4.972 3.978 4.972-12.057-.446-20.935 5.431c-.567.375-1.292-.134-1.128-.793.79-3.175 3.552-9.652 13.113-12.593z" fill="#f9bd55"/><path d="m6.348 60.35c.009.001 7.26.961 12.265 5.153.526.441 1.325.269 1.632-.345l4.342-8.684c0-.001-9.802-.362-18.239 3.876z" fill="#f9bd55"/><path d="m3.237 64.533c-.652 0-1.304-.199-1.867-.597-1.098-.775-1.598-2.121-1.273-3.429.797-3.198 3.83-10.995 14.784-14.373 1.759-.572 5.639-.4 7.964 4.248 1.511 3.021 2.925 3.889 2.939 3.896 1.052.527 1.555 1.695 1.264 2.835s-1.388 1.896-2.554 1.857c-.106 0-11.383-.33-19.462 5.018-.55.365-1.173.545-1.795.545zm13.255-13.648c-.041 0-.063.004-.064.005-.019.006-.037.012-.055.018-4.897 1.506-7.751 4.003-9.414 6.399 4.402-1.894 8.923-2.723 12.3-3.08-.294-.485-.591-1.02-.885-1.607-.806-1.61-1.646-1.735-1.882-1.735zm-.855-2.367h.01z"/><path d="m19.283 68.249c-.826 0-1.628-.288-2.277-.831-4.367-3.658-10.922-4.581-10.988-4.59-1.086-.147-1.953-.985-2.133-2.066s.361-2.154 1.341-2.646c8.908-4.474 19.024-4.161 19.453-4.14.849.031 1.625.492 2.058 1.223.434.731.466 1.633.085 2.394l-4.342 8.684c-.493.984-1.392 1.676-2.468 1.898-.242.05-.487.074-.729.074zm.934-4.665s.001.001.001.002c0-.001-.001-.001-.001-.002zm-5.765-3.473c1.433.62 2.922 1.401 4.331 2.38l1.673-3.347c-1.688.155-3.775.441-6.004.967z"/><path d="m31.404 53.678c-1.377 0-2.496-1.114-2.5-2.492-.013-3.985 3.22-7.238 7.206-7.252h.025c1.922 0 3.73.745 5.094 2.102 1.37 1.36 2.127 3.174 2.133 5.104.004 1.381-1.111 2.503-2.492 2.508-.002 0-.005 0-.008 0-1.377 0-2.496-1.114-2.5-2.492-.002-.595-.235-1.154-.658-1.574-.421-.418-.978-.647-1.57-.647-.002 0-.005 0-.008 0-1.229.004-2.226 1.007-2.222 2.236.004 1.381-1.111 2.503-2.492 2.508-.002-.001-.005-.001-.008-.001z"/><path d="m27.334 38.87c-1.18 0-2.229-.838-2.455-2.04-1.871-9.995-8.131-14.32-8.194-14.363-1.145-.772-1.446-2.326-.674-3.471s2.326-1.446 3.471-.674c.328.222 8.061 5.56 10.312 17.588.254 1.357-.64 2.663-1.998 2.917-.154.029-.309.043-.462.043z"/><path d="m32.629 37.579c-.044 0-.089-.001-.135-.004-1.379-.073-2.437-1.25-2.364-2.629.674-12.672-6.959-21.701-7.036-21.791-.899-1.045-.785-2.622.258-3.523s2.617-.791 3.52.249c.37.425 9.035 10.581 8.251 25.331-.07 1.333-1.174 2.367-2.494 2.367z"/><path d="m38.448 37.894c-.184 0-.37-.021-.556-.062-1.347-.306-2.19-1.646-1.885-2.992 3.823-16.845-1.857-28.488-1.915-28.605-.616-1.232-.121-2.734 1.11-3.354 1.229-.623 2.729-.131 3.352 1.099.271.533 6.572 13.269 2.329 31.966-.263 1.16-1.294 1.948-2.435 1.948z"/><path d="m43.604 39.418c-.578 0-1.158-.199-1.63-.605-1.046-.9-1.165-2.479-.264-3.525 7.387-8.583 4.993-23.698 4.967-23.85-.225-1.361.695-2.648 2.057-2.875 1.351-.229 2.647.69 2.875 2.052.119.712 2.818 17.562-6.109 27.935-.495.573-1.194.868-1.896.868z"/><path d="m159.09 167.129c-1.126 0-2.133-.761-2.419-1.879-2.471-9.624-8.698-23.657-24.333-35.853-.587-.458-.939-1.154-.961-1.898s.289-1.459.848-1.951c1.699-1.493 3.304-3.178 4.77-5.006 3.89-4.85 7.688-6.947 11.295-6.222 2.908.582 5.173 2.989 6.216 6.604.479 1.66.679 3.658.464 5.639 1.681-.423 3.561-.614 5.45-.251 2.868.547 5.209 2.199 6.958 4.909 1.706 2.644 2.249 5.41 1.614 8.223-.364 1.612-1.092 3.059-1.953 4.306 2.37.415 4.819 1.58 6.551 4.264 2.773 4.298 2.121 7.879 1.085 10.126-2.125 4.612-7.825 7.964-15.248 8.967-.113.015-.225.022-.337.022zm-21.417-39.849c13.994 11.703 20.346 24.762 23.223 34.49 4.535-1.012 8.054-3.155 9.237-5.723.754-1.637.51-3.378-.745-5.323-2.333-3.614-8.1-1.654-8.158-1.633-1.205.419-2.532-.134-3.081-1.284-.549-1.151-.143-2.531.942-3.202 1.168-.732 4.362-3.297 5.026-6.278.327-1.469.019-2.906-.941-4.395-.989-1.532-2.192-2.418-3.678-2.706-3.009-.59-6.654 1.399-7.807 2.213-1.07.757-2.547.56-3.377-.455-.832-1.014-.742-2.494.208-3.396 1.467-1.393 1.974-4.521 1.179-7.277-.386-1.339-1.217-2.852-2.394-3.088-1.535-.295-3.933 1.354-6.413 4.447-1.016 1.268-2.094 2.476-3.221 3.61z"/><path d="m97.221 184.011c-18.728.001-35.379-8.22-42.484-18.284-13.569-19.224-3.799-38.193-3.377-38.991.646-1.219 2.16-1.687 3.379-1.039 1.219.645 1.685 2.155 1.042 3.375-.374.716-8.709 17.126 3.041 33.772 9.561 13.544 40.371 23.411 66.436 8.889-2.155-2.015-6.063-4.794-10.983-4.707-.758.024-1.449-.308-1.932-.869s-.692-1.31-.571-2.04c.005-.036.696-4.652-1.8-7.571-1.482-1.733-3.922-2.612-7.252-2.612-.729 0-1.422-.318-1.897-.872s-.685-1.287-.573-2.008c.235-1.586.366-6.276-1.833-8.826-1.152-1.336-2.845-1.985-5.174-1.985-11.833 0-16.431-2.128-16.916-2.37-1.235-.618-1.735-2.119-1.118-3.354.617-1.234 2.12-1.736 3.354-1.118.01.004 4.064 1.843 14.68 1.843 3.828 0 6.849 1.259 8.979 3.741 2.656 3.097 3.148 7.36 3.146 10.109 3.6.453 6.431 1.874 8.437 4.24 2.425 2.861 2.991 6.427 3.052 8.847 8.8 1.149 14.106 8.334 14.349 8.669.406.56.562 1.263.43 1.941-.131.68-.538 1.273-1.124 1.642-10.822 6.801-22.407 9.578-33.291 9.578z"/><path d="m112.231 182.082c-.516 0-1.025-.16-1.453-.466-.573-.409-.98-1.063-1.063-1.763-.97-8.159-5.394-10.376-7.25-10.95-1.698-.524-2.873-2.136-2.857-3.918.066-6.841-4.533-9.802-7.28-10.957-1.786-.754-2.783-2.605-2.429-4.504 1.197-6.412-3.526-9.628-3.728-9.762-.896-.594-1.329-1.706-1.05-2.744l.031-.116c.311-1.156 1.384-1.928 2.591-1.845 1.717.122 3.567.184 5.499.184 3.828 0 6.849 1.259 8.979 3.741 2.656 3.097 3.148 7.36 3.146 10.109 3.6.453 6.431 1.874 8.437 4.24 2.425 2.861 2.991 6.427 3.052 8.847 8.8 1.149 14.106 8.333 14.348 8.668.406.56.562 1.263.431 1.941-.131.68-.538 1.273-1.124 1.642-5.445 3.425-11.387 5.973-17.66 7.574-.205.054-.413.079-.62.079zm-7.628-17.73c2.76 1.03 7.747 3.979 9.594 12.084 3.855-1.178 7.558-2.752 11.062-4.704-2.156-2.014-6.025-4.74-10.983-4.706-.758.024-1.449-.308-1.932-.869-.481-.56-.691-1.303-.573-2.03.013-.085.687-4.675-1.799-7.581-1.482-1.733-3.922-2.612-7.252-2.612-.729 0-1.422-.318-1.897-.872s-.685-1.287-.573-2.008c.235-1.586.366-6.276-1.833-8.826-1.163-1.348-2.897-1.973-5.239-1.985 1.341 2.3 2.336 5.453 1.757 9.475 3.311 1.553 9.456 5.645 9.668 14.634z"/><path d="m99.188 169.033c-6.767 0-11.629-1.424-11.932-1.515-1.322-.396-2.073-1.79-1.676-3.113.396-1.321 1.79-2.077 3.113-1.676.096.028 10.032 2.903 20.741-.018 1.581-.432 3.185-.663 4.767-.687 1.386-.024 2.516 1.082 2.537 2.463s-1.082 2.517-2.462 2.537c-1.162.017-2.348.188-3.524.511-4.117 1.123-8.091 1.498-11.564 1.498z"/><path d="m102.72 153.933c-13.781 0-19.223-1.058-19.448-1.103-1.354-.271-2.231-1.588-1.96-2.941s1.586-2.232 2.942-1.961c.045.009 5.302 1.005 18.466 1.005 1.381 0 2.5 1.119 2.5 2.5s-1.119 2.5-2.5 2.5z"/><path d="m164.783 134.373c-.103 0-.206-.006-.309-.02-.667-.083-1.273-.431-1.68-.966-2.704-3.549-6.914-2.304-9.97-.632-1.096.594-2.462.297-3.206-.703-.744-1.001-.636-2.397.252-3.272 5.809-5.722 10.523-14.17 14.683-21.624 4.943-8.857 9.212-16.507 14.77-19.585 5.44-3.014 12.703-1.764 16.897 2.905v.001c4.131 4.6 4.721 11.777 1.404 17.067-1.785 2.846-1.785 2.846-20.277 17.534-3.105 2.466-6.742 5.354-11.008 8.75-.444.356-.994.545-1.556.545zm-6.067-8.239c2.365.085 4.507.88 6.29 2.367 3.51-2.792 6.567-5.221 9.232-7.338 17.488-13.891 17.846-14.194 19.15-16.274 2.122-3.385 1.741-8.144-.888-11.071v.001c-2.634-2.934-7.359-3.756-10.754-1.874-4.31 2.388-8.447 9.801-12.827 17.648-3.023 5.418-6.328 11.34-10.203 16.541z"/><path d="m165.398 144.192c-.75 0-1.478-.338-1.96-.948-.646-.815-.719-1.946-.184-2.838 1.347-2.245 1.322-4.303-.078-6.474-.123-.189-.251-.372-.382-.544-.825-1.082-.633-2.625.432-3.472 4.271-3.399 7.912-6.291 11.02-8.76 11.414-9.066 15.685-12.459 17.535-14.255.161-.156.342-.29.538-.397 2.378-1.306 4.5-2.079 6.486-2.363 6.157-.88 12.5 2.863 14.762 8.719v-.001c2.228 5.768.23 12.688-4.75 16.453-2.679 2.026-2.679 2.026-25.173 9.186-4.733 1.507-10.481 3.336-17.484 5.575-.251.08-.508.119-.762.119zm2.681-11.748c.889 1.767 1.274 3.58 1.155 5.397 4.977-1.589 9.237-2.944 12.893-4.108 21.272-6.77 21.714-6.927 23.673-8.408 3.187-2.41 4.52-6.994 3.102-10.663v-.001c-1.42-3.677-5.543-6.133-9.387-5.57-1.311.188-2.788.727-4.507 1.644-2.109 1.991-6.253 5.283-17.652 14.338-2.677 2.125-5.748 4.565-9.277 7.371z"/><path d="m150.248 133.898c-.727 0-1.444-.315-1.936-.916-.83-1.013-.739-2.493.21-3.395 1.189-1.129 1.768-3.413 1.472-5.82-.25-2.036-1.096-3.739-2.155-4.339-.984-.557-1.472-1.705-1.189-2.8 1.37-5.315 2.188-10.987 2.979-16.472 1.412-9.784 2.63-18.234 6.624-22.982 3.913-4.655 10.987-6.056 16.452-3.258 5.381 2.757 8.432 9.106 7.253 15.098-.447 2.27-.898 3.433-3.998 8.826-.037.065-.077.129-.12.189-2.275 3.246-4.544 7.31-6.947 11.612-.971 1.739-1.961 3.513-2.982 5.287l-2.254 3.815c-3.346 5.488-6.357 9.547-9.491 12.795l-.542.609c-.195.22-.428.403-.687.543-.768.412-1.247.747-1.251.75-.435.309-.939.458-1.438.458zm1.636-17.609c1.561 1.554 2.65 3.881 3.035 6.578 1.435-1.944 2.903-4.154 4.452-6.695l2.222-3.761c.996-1.73 1.976-3.485 2.936-5.206 2.445-4.378 4.755-8.515 7.153-11.951 2.972-5.178 3.09-5.774 3.371-7.205.745-3.786-1.244-7.949-4.626-9.681-3.388-1.738-7.934-.847-10.346 2.025-3.075 3.656-4.254 11.827-5.502 20.478-.735 5.086-1.491 10.33-2.695 15.418z"/><path d="m139.242 124.255c-.245 0-.493-.036-.736-.111-.967-.298-1.659-1.148-1.753-2.156-.569-6.089-2.076-12.404-3.533-18.511-2.294-9.614-4.275-17.918-2.313-23.803 1.923-5.771 7.982-9.673 14.094-9.091 6.019.579 11.194 5.357 12.306 11.361.184.993.311 1.796.274 3.107-.006.231-.045.461-.114.682-1.29 4.095-2.067 9.461-2.891 15.143-.813 5.613-1.655 11.419-3.093 16.996-.194.752-.727 1.371-1.441 1.676s-1.53.259-2.207-.121c-1.46-.824-3.953.644-6.667 3.922-.483.584-1.193.906-1.926.906zm4.541-48.731c-3.545 0-7.024 2.403-8.133 5.73-1.511 4.531.405 12.561 2.434 21.062 1.105 4.633 2.238 9.382 2.998 14.143 2.401-1.816 4.477-2.33 6.145-2.266 1.033-4.592 1.727-9.381 2.401-14.035.831-5.731 1.616-11.153 2.959-15.57-.002-.647-.074-1.068-.197-1.734-.703-3.794-4.085-6.93-7.868-7.294-.246-.024-.493-.036-.739-.036z"/><path d="m133.875 129.926c-.541 0-1.083-.175-1.536-.527-.53-.413-1.068-.825-1.619-1.234-1.141-.845-2.401-1.699-3.854-2.612-.341-.214-.625-.508-.828-.855-2.259-3.869-4.839-7.658-7.334-11.323-5.563-8.17-10.368-15.227-10.626-21.425-.254-6.077 4.019-11.885 9.94-13.509 5.828-1.601 12.366 1.026 15.542 6.243.689 1.133 1.149 1.966 1.733 3.983.037.128.063.258.08.39.481 3.899 1.564 8.444 2.711 13.257 1.496 6.278 3.043 12.77 3.645 19.214.061.656-.139 1.31-.557 1.819l-.281.33c-1.643 2.049-3.449 3.944-5.364 5.628-.472.412-1.062.621-1.652.621zm-3.83-8.279c1.348.861 2.547 1.682 3.651 2.5l.001.001c.007.005.013.01.02.015 1.021-.999 2-2.067 2.928-3.193-.633-5.775-2.052-11.729-3.427-17.498-1.161-4.871-2.258-9.476-2.784-13.6-.41-1.377-.678-1.817-1.147-2.591-2.006-3.296-6.285-5.021-9.948-4.02-3.671 1.007-6.424 4.73-6.267 8.478.199 4.772 4.845 11.596 9.764 18.82 2.433 3.572 4.943 7.259 7.209 11.088z"/><path d="m207.047 154.365c-3.316 0-9.207-.262-21.201-.796-3.913-.174-8.487-.377-13.849-.61-.906-.04-1.72-.567-2.126-1.378-.164-.326-.317-.598-.484-.856-1.734-2.688-5.349-2.312-7.35-1.849-1.181.279-2.394-.343-2.867-1.462l-.15-.354c-.445-1.054-.119-2.275.793-2.967.841-.637 2.405-1.962 3.44-3.687.312-.521.804-.91 1.382-1.095 4.031-1.29 7.647-2.443 10.894-3.478 1.813-.533 3.647-1.116 5.659-1.801l1.062-.339c12.124-3.859 17.657-5.62 20.396-6.678.127-.049.258-.088.392-.116 3.569-.741 6.476-.853 8.886-.34 6.082 1.296 10.743 7.005 10.843 13.281.1 6.181-4.165 11.984-10.139 13.799-1.575.482-2.379.726-5.581.726zm-33.451-6.342c4.773.209 8.899.392 12.473.551 22.291.992 22.759.996 25.108.283 3.822-1.162 6.657-5.003 6.594-8.936-.063-3.94-3.087-7.661-6.886-8.471-1.678-.359-3.85-.258-6.634.306-2.92 1.111-8.176 2.785-20.483 6.702l-1.015.322c-2.034.693-3.934 1.298-5.761 1.834-2.931.935-6.221 1.983-9.862 3.147 2.747.521 4.983 1.964 6.458 4.251.004.005.006.009.008.011z"/><path d="m196.802 105.723c-.479 0-.958-.137-1.377-.414-.902-.596-1.319-1.705-1.033-2.748.847-3.087.105-6.519-1.892-8.743-2.634-2.932-7.357-3.756-10.754-1.873-.257.143-.548.331-.889.575-.954.686-2.255.612-3.128-.172s-1.083-2.07-.504-3.091c.919-1.624 1.821-3.24 2.71-4.834 6.53-11.703 12.169-21.81 19.372-25.799 6.922-3.833 16.167-2.242 21.505 3.701v.001c5.179 5.767 5.947 15.12 1.787 21.756-2.256 3.599-2.709 3.993-24.241 21.098-.454.36-1.004.543-1.556.543zm-11-19.788c3.875 0 7.763 1.585 10.418 4.542 1.823 2.031 2.975 4.605 3.37 7.336 16.953-13.484 17.16-13.814 18.772-16.387 3.02-4.815 2.473-11.591-1.27-15.76v.001c-3.76-4.187-10.508-5.357-15.362-2.67-5.788 3.206-11.215 12.731-16.933 22.973.334-.024.67-.035 1.005-.035z"/><path d="m211.729 122.547c-.604 0-1.197-.219-1.662-.632-.66-.587-.961-1.478-.793-2.345.333-1.718.205-3.416-.372-4.908-1.42-3.678-5.543-6.134-9.387-5.571-1.358.194-2.895.766-4.696 1.745-1.021.625-2.367.44-3.18-.479-.88-.999-.823-2.513.129-3.442.006-.006.013-.012.019-.018.838-.815 1.112-1.229 1.601-2.008.43-.687.768-1.47 1.003-2.329.141-.512.44-.965.855-1.295 13.064-10.379 18.46-14.683 20.846-16.998.161-.156.341-.289.538-.397 3.078-1.69 5.814-2.691 8.364-3.058 7.824-1.125 15.908 3.646 18.788 11.1v.001c2.792 7.229.188 16.246-6.058 20.972-3.133 2.369-4.03 2.782-25.236 9.545-.249.078-.505.117-.759.117zm-11.111-18.534c5.547 0 10.909 3.566 12.949 8.848.455 1.178.737 2.425.842 3.706 17.609-5.635 18.062-5.978 20.3-7.671 4.533-3.429 6.429-9.956 4.411-15.183v.001c-2.028-5.248-7.916-8.747-13.413-7.953-1.871.269-3.962 1.034-6.382 2.336-2.558 2.426-7.765 6.594-19.531 15.942.274-.018.549-.026.824-.026z"/><path d="m173.792 99.096c-.46 0-.924-.126-1.339-.391-1.128-.718-1.493-2.195-.826-3.354 3.026-5.267 3.143-5.862 3.426-7.302.745-3.786-1.244-7.949-4.626-9.681-2.059-1.055-4.681-1.157-7.015-.278-.83.312-1.759.163-2.448-.39-.689-.554-1.035-1.431-.909-2.306l.087-.604c1.862-12.918 3.47-24.074 8.64-30.222 4.976-5.919 13.968-7.697 20.918-4.137 6.741 3.451 10.71 11.717 9.233 19.225-.547 2.778-.926 4.016-5.235 11.515-.037.065-.077.129-.12.189-3.064 4.371-6.108 9.822-9.332 15.594-.879 1.573-1.77 3.168-2.677 4.771-.179.315-.424.589-.72.8-1.554 1.113-3.192 2.914-5.008 5.505-.485.693-1.26 1.066-2.049 1.066zm-7.137-26.592c2.124 0 4.217.475 6.05 1.413 3.951 2.024 6.646 5.984 7.332 10.318 3.208-5.742 6.245-11.162 9.381-15.65 4.05-7.053 4.214-7.888 4.608-9.893 1.063-5.4-1.777-11.337-6.606-13.81-4.848-2.484-11.355-1.208-14.812 2.904-3.89 4.626-5.549 14.234-7.09 24.762.38-.029.759-.044 1.137-.044z"/><path d="m155.083 87.482c-.138 0-.276-.011-.416-.034-1.23-.207-2.12-1.288-2.085-2.535.023-.846-.05-1.288-.192-2.06-.703-3.794-4.085-6.93-7.868-7.294-1.283-.125-2.644.094-3.94.632-.677.28-1.445.249-2.098-.087s-1.125-.94-1.292-1.655c-2.386-10.221-4.337-19.963-2.051-26.82 2.445-7.335 10.148-12.309 17.921-11.556 7.539.726 14.274 6.946 15.667 14.471.235 1.27.398 2.297.352 3.968-.006.231-.045.461-.114.682-1.738 5.521-2.775 12.708-3.873 20.316l-.086.597c-.13.901-.74 1.66-1.592 1.981-1.34.506-2.493 1.303-3.336 2.305-1.003 1.193-1.858 2.939-2.614 5.341-.332 1.054-1.308 1.748-2.383 1.748zm-11.261-16.956c.395 0 .788.019 1.178.057 4.532.436 8.585 3.253 10.787 7.181.152-.204.308-.4.466-.589 1.08-1.285 2.446-2.356 4.003-3.149 1.065-7.376 2.1-14.332 3.833-19.984.006-1.008-.1-1.634-.276-2.586-1.002-5.412-5.83-9.885-11.23-10.405-5.418-.52-11 3.063-12.699 8.161-1.696 5.088-.278 13.259 1.586 21.532.784-.144 1.572-.218 2.352-.218z"/><path d="m132.889 91.86c-1.091 0-2.085-.718-2.399-1.805-.441-1.523-.711-1.968-1.202-2.774-2.006-3.296-6.285-5.021-9.948-4.02-.851.233-1.676.626-2.454 1.168-.556.389-1.247.531-1.912.402-.666-.131-1.249-.527-1.617-1.097-4.317-6.684-8.349-13.737-8.612-20.04-.323-7.725 5.111-15.107 12.641-17.172 7.305-2.005 15.812 1.417 19.79 7.953.882 1.45 1.472 2.518 2.222 5.11.037.127.063.257.08.389.52 4.207 1.55 8.896 2.586 13.336.278 1.192-.348 2.411-1.48 2.879-2.356.974-4.2 2.867-4.933 5.064-.609 1.828-.7 4.379-.278 7.799.16 1.294-.702 2.494-1.979 2.756-.17.036-.339.052-.505.052zm-11.379-13.886c3.244 0 6.459 1.159 8.987 3.214.112-.526.249-1.03.41-1.514.97-2.91 3.091-5.468 5.846-7.134-.895-3.927-1.736-7.979-2.213-11.75-.588-1.993-.987-2.648-1.636-3.714-2.861-4.702-8.962-7.165-14.196-5.73-5.253 1.44-9.192 6.772-8.967 12.141.189 4.549 3.253 10.276 6.56 15.562.561-.246 1.134-.449 1.717-.609l.661 2.411-.661-2.411c1.147-.315 2.321-.466 3.492-.466z"/><path d="m235.665 146.111c-3.129 0-7.91-.177-15.951-.522-.767-.033-1.476-.417-1.924-1.04-.447-.624-.583-1.419-.37-2.155.246-.844.363-1.676.351-2.472-.063-3.941-3.088-7.662-6.886-8.471-1.7-.363-3.907-.254-6.745.328-.021.005-.042.01-.062.015-1.283.278-2.558-.466-2.936-1.718-.378-1.253.273-2.585 1.494-3.056 1.88-.725 2.336-1.069 3.164-1.695 1.756-1.328 3.022-3.426 3.475-5.755.174-.897.824-1.628 1.694-1.905 10.938-3.488 16.325-5.24 19.334-6.401.127-.05.258-.088.392-.116 4.645-.965 8.409-1.115 11.505-.454 7.739 1.648 13.67 8.916 13.798 16.905.125 7.75-5.433 15.312-12.928 17.589-2.04.62-3.302.923-7.405.923zm-12.912-5.398c15.689.654 16.326.462 18.863-.309 5.438-1.652 9.472-7.123 9.382-12.726-.09-5.626-4.413-10.938-9.841-12.095-2.364-.504-5.393-.366-9.251.419-3.026 1.155-8.158 2.831-18.092 6.002-.493 1.624-1.256 3.148-2.236 4.486.117.021.233.045.348.069 6.082 1.296 10.744 7.005 10.844 13.281.005.291 0 .581-.017.873z"/><path d="m81.11 253.391c-.808 0-1.618-.232-2.338-.702-1.518-.988-2.238-2.767-1.834-4.531 1.606-7.017 8.348-10.311 8.634-10.447.167-.079.341-.14.521-.182 2.371-.541 7.47-.166 9.769 5.148.273.632.273 1.349.001 1.981s-.793 1.124-1.44 1.359c-2.559.933-6.378 3.246-10.754 6.515-.767.572-1.662.859-2.559.859zm6.359-11.03c-.829.467-3.376 2.061-4.826 4.729 2.137-1.517 4.591-3.125 6.938-4.356-.844-.441-1.695-.424-2.112-.373z"/><path d="m73.974 249.145c-1.027 0-2.025-.417-2.757-1.185-.965-1.013-1.292-2.463-.854-3.784 2.074-6.253 8.094-9.092 8.35-9.209 2.91-1.26 7.977-1.204 10.231 4.007.531 1.229 0 2.657-1.203 3.241-.059.029-2.687 1.351-4.482 3.896-.332.47-.815.812-1.37.966l-6.891 1.927c-.339.095-.683.141-1.024.141zm6.802-9.623c-.355.179-2.833 1.485-4.517 3.938l3.468-.97c1.033-1.296 2.178-2.321 3.178-3.084-.758-.294-1.568-.103-2.129.116z"/><path d="m69.881 244.598c-1.395 0-2.681-.699-3.445-1.902-.864-1.36-.863-3.053.003-4.415 2.807-4.42 7.332-6.107 7.523-6.177.06-.022.121-.042.183-.059.256-.073 1.613-.414 3.215-.104 2.398.464 4.106 2.106 4.809 4.623.329 1.179-.243 2.421-1.35 2.938-.064.03-2.47 1.198-4.247 3.525-.405.531-1.007.877-1.669.962l-4.488.574c-.18.024-.358.035-.534.035zm5.68-7.75c-.439.188-2.092.956-3.592 2.477l1.314-.168c.825-.941 1.696-1.717 2.493-2.334-.09.006-.165.017-.215.025z"/><path d="m103.917 215.704c-.067 0-.134-.003-.201-.008-.688-.056-1.322-.394-1.752-.933-.613-.767-1.077-1.462-1.506-2.128-.536.736-1.443 1.151-2.36 1.026-1.035-.138-1.888-.881-2.12-1.899-.582-2.552-2.071-4.898-3.648-7.384-.519-.817-1.037-1.634-1.525-2.461-.855-1.447-1.653-3.009-2.381-4.659-8.208-.426-16.363-2.05-24.266-4.834-19.693-6.938-33.507-18.805-41.058-35.27-15.048-32.808-.1-71.928.543-73.578 3.815-8.905-1.241-13.257-4.591-15.065-.504-.272-.956-.633-1.384-1.102-.604-.662-.808-1.597-.534-2.449.19-.592.589-1.082 1.109-1.389l3.219-6.439c-.912-.937-2.017-2.368-3.089-4.513-.331-.661-1.042-1.741-1.942-1.708-.832.046-1.625-.32-2.128-.979s-.646-1.525-.382-2.312c.925-2.759 6.387-16.447 23.125-14.925 7.241.657 13.059 4.156 16.827 10.118 5.254 8.314 7.627 24.654 1.104 42.441-.309 1.127-4.019 15.257.394 27.63.565 1.581 2.305 2.44 3.967 1.949 39.917-11.74 65.301 2.602 74.361 9.313 20.653 15.299 26.819 33.892 28.656 43.613.397 2.104-.075 4.221-1.329 5.96-1.255 1.742-3.201 2.907-5.337 3.198-3.943.536-10.994 2.586-22.192 9.306-3.747 2.248-7.721 4.191-11.835 5.788-.039 4.385-.608 7.511-.636 7.658-.012.065-.027.13-.044.194-.782 2.901-.698 5.048.25 6.379.739 1.038.579 2.467-.372 3.315-.95.848-2.388.846-3.336-.006-.242-.218-.888-.503-1.45-.745-.276.898-.454 1.713-.534 2.833-.067.94-.658 1.763-1.527 2.127-.869.365-1.87.21-2.587-.402-.669-.569-1.478-1.151-2.333-1.768-.125-.091-.251-.181-.377-.271-.862 1.299-1.81 2.544-3.119 3.729-.464.421-1.062.65-1.68.65zm-3.262-9.677c.753 0 1.479.323 1.953.918.632.791 1.106 1.505 1.547 2.19.474-.672.923-1.392 1.402-2.158l.392-.627c.386-.614 1.02-1.03 1.737-1.14.718-.11 1.447.097 2 .566.499.424 1.074.855 1.69 1.303.149-.466.312-.934.484-1.43.132-.381.273-.786.421-1.23.267-.8.918-1.411 1.733-1.626.486-.128.991-.106 1.453.054.044-1.29.263-2.682.657-4.172.096-.567.636-3.977.525-8.326-.027-1.075.636-2.048 1.647-2.414 4.405-1.596 8.653-3.613 12.628-5.998 11.927-7.156 19.684-9.373 24.091-9.974.796-.108 1.491-.522 1.955-1.166.445-.617.612-1.366.472-2.109-1.701-9.003-7.435-26.238-26.72-40.523-25.394-18.811-57.394-12.235-69.973-8.534-4.202 1.236-8.633-.989-10.088-5.066-5.131-14.386-.659-30.115-.466-30.778.016-.056.035-.11.055-.165 4.167-11.312 5.756-28.072-.604-38.137-2.947-4.663-7.338-7.291-13.052-7.811-10.169-.909-14.916 5.137-16.916 9.113 1.102.646 2.244 1.745 3.169 3.596 1.51 3.021 2.924 3.888 2.938 3.896.593.297 1.005.796 1.214 1.425.21.629.122 1.294-.175 1.888l-3.76 7.52c3.799 2.599 10.104 8.934 5.207 20.359-.118.309-14.785 38.766-.616 69.625 6.967 15.174 19.807 26.146 38.163 32.613 7.936 2.797 16.137 4.352 24.376 4.621.99.033 1.868.647 2.237 1.566.794 1.974 1.694 3.816 2.676 5.478.462.782.953 1.554 1.443 2.327.963 1.518 1.944 3.064 2.759 4.72.33-.21.707-.345 1.103-.381.081-.009.162-.013.243-.013z"/><path d="m94.595 246.444c-1.399 0-2.286-.587-2.559-.798-.334-.259-.597-.598-.765-.985-1.24-2.867-3.949-2.286-4.064-2.258-1.172.261-2.374-.339-2.853-1.445-.604-1.399-1.384-1.626-2.068-1.664-.79-.056-1.527.234-1.534.237-.663.285-1.417.272-2.068-.038-.652-.312-1.137-.889-1.332-1.584-.117-.421-.39-1.406-1.9-1.039-1.004.243-2.075-.148-2.665-.995s-.621-1.963-.044-2.819c5.414-8.039 17.133-7.395 17.632-7.363.089.006.178.016.265.031l2.792.479c.677.119 1.368-.092 1.844-.558 3.063-2.989 4.18-9.852 4.203-15.277.005-1.106.736-2.078 1.798-2.389 1.062-.314 2.202.114 2.802 1.044l.072.113c.475-.672.924-1.392 1.403-2.159l.392-.627c.386-.614 1.02-1.03 1.737-1.14.718-.11 1.447.097 2 .566.499.425 1.075.855 1.69 1.303.149-.466.312-.935.484-1.431l.112-.323c.391-1.127 1.524-1.815 2.704-1.658 1.182.163 2.083 1.139 2.154 2.329.466 7.872-2.417 15.355-4.625 19.832 2.557.302 4.581 1.37 6.016 2.429 1.409 1.04 2.305 2.639 2.461 4.386.156 1.757-.45 3.501-1.663 4.783l-.298.314c-1.837 1.943-4.726 2.42-7.186 1.183-2.533-1.274-5.582-.787-7.174-.384-.317.079-.607.301-.799.607-2.738 4.377-5.363 6.736-8.024 7.212-.334.061-.648.086-.94.086zm-6.553-9.096c2.25.05 5.18.937 7.072 3.912.711-.368 2.148-1.471 4.208-4.765.884-1.411 2.238-2.406 3.813-2.803 2.265-.573 6.663-1.238 10.646.765.393.198.949.227 1.308-.152l.298-.314c.313-.331.331-.709.313-.904-.017-.189-.098-.545-.45-.805-2.026-1.494-4.323-1.897-6.825-1.196-1.006.28-2.08-.092-2.695-.937-.614-.844-.639-1.981-.062-2.852.051-.079 4.108-6.309 5.636-14.031-.644-.537-1.407-1.086-2.211-1.665-.126-.091-.253-.182-.38-.274-.862 1.3-1.81 2.545-3.119 3.73-.401.364-.906.585-1.438.636-.537 4.519-1.921 10.148-5.387 13.531-1.618 1.579-3.929 2.295-6.181 1.907l-2.64-.453c-.83-.024-6.085-.096-10.068 2.358.463.349.891.781 1.263 1.309.438-.049.916-.072 1.42-.043 2.281.126 4.176 1.192 5.479 3.046z"/><path d="m59.793 249.128c-.808 0-1.618-.233-2.338-.702-1.518-.988-2.238-2.768-1.834-4.532 1.606-7.016 8.348-10.31 8.634-10.446.169-.08.346-.142.528-.183 1.599-.362 4.989-.343 7.561 2.01.517.473.812 1.141.813 1.841s-.292 1.369-.807 1.844c-.554.51-1.04 1.06-1.447 1.639.271 1.072-.197 2.229-1.201 2.791-2.727 1.531-5.503 3.499-7.353 4.881-.764.57-1.659.857-2.556.857zm6.338-11.018c-.839.475-3.366 2.065-4.806 4.722 1.351-.957 2.912-2.009 4.52-2.98.085-.548.283-1.082.594-1.571.04-.062.08-.125.121-.188-.167 0-.316.007-.429.017zm4.529 2.85s.006-.009-.001.003c0-.001 0-.002.001-.003zm-2.111-1.339h.01z"/><path d="m52.658 244.881c-1.027 0-2.026-.417-2.757-1.185-.965-1.013-1.292-2.463-.854-3.784 2.075-6.252 8.094-9.092 8.349-9.209 2.911-1.261 7.978-1.205 10.232 4.008.531 1.229 0 2.658-1.204 3.241-.068.034-2.689 1.354-4.482 3.896-.332.471-.815.812-1.37.968l-6.891 1.926c-.338.093-.682.139-1.023.139zm6.801-9.622c-.356.179-2.833 1.486-4.517 3.938l3.468-.969c1.033-1.296 2.178-2.321 3.178-3.085-.756-.29-1.566-.103-2.129.116z"/><path d="m48.562 240.334c-1.393 0-2.678-.698-3.442-1.899-.865-1.361-.865-3.054.001-4.417 2.807-4.421 7.332-6.108 7.523-6.178.06-.022.121-.042.183-.06 2.521-.706 6.738-.082 8.023 4.52.329 1.179-.243 2.421-1.35 2.938-.064.03-2.47 1.198-4.247 3.525-.405.531-1.007.877-1.669.962l-4.488.574c-.178.024-.357.035-.534.035zm5.69-7.754c-.426.181-2.091.95-3.6 2.48l1.314-.168c.833-.949 1.711-1.73 2.513-2.35-.071.009-.147.021-.227.038z"/><path d="m70.657 239.619c-.605 0-1.209-.219-1.688-.655-1.274-1.164-3.069-.824-3.086-.822-1.174.268-2.367-.343-2.845-1.446-.923-2.136-2.669-1.805-3.628-1.417-.661.268-1.416.245-2.055-.068-.638-.314-1.127-.879-1.319-1.564-.117-.421-.392-1.405-1.9-1.039-1.005.244-2.075-.148-2.665-.995s-.621-1.963-.044-2.819c5.414-8.038 17.131-7.396 17.632-7.363.089.006.178.016.265.031l2.792.479c.679.119 1.368-.092 1.844-.558 3.063-2.988 4.18-9.852 4.203-15.277.005-1.106.737-2.079 1.799-2.389 1.066-.313 2.203.114 2.802 1.045l.072.112c.476-.674.926-1.396 1.406-2.165l.388-.62c.386-.615 1.021-1.031 1.738-1.141s1.447.097 2 .567c.499.424 1.074.855 1.689 1.302.149-.467.312-.936.485-1.434l.111-.32c.391-1.127 1.527-1.813 2.704-1.658 1.182.163 2.083 1.139 2.154 2.329.466 7.872-2.417 15.356-4.626 19.833 2.559.302 4.583 1.37 6.017 2.429.988.729 1.727 1.74 2.136 2.925.346 1.003.021 2.114-.809 2.773-1.582 1.256-3.637 1.783-5.64 1.438l-2.64-.453c-1.028-.035-8.876-.133-12.647 4.608-.276.745-.902 1.345-1.724 1.555-.405.172-1.836.835-3.228 2.117-.478.439-1.086.66-1.693.66zm-3.921-6.521c1.137.032 2.48.274 3.774.92 1.071-.774 2.039-1.287 2.679-1.586 3.033-4.008 7.697-5.659 11.404-6.327-.063-.069-.124-.143-.18-.22-.614-.845-.639-1.981-.062-2.852.051-.079 4.108-6.309 5.636-14.031-.643-.536-1.404-1.084-2.208-1.662-.127-.092-.255-.184-.384-.276-.862 1.299-1.81 2.544-3.118 3.729-.401.364-.907.585-1.439.636-.537 4.52-1.921 10.149-5.387 13.531-1.618 1.579-3.928 2.294-6.181 1.907l-2.64-.453c-.827-.022-6.084-.096-10.068 2.358.458.346.883.772 1.251 1.294 2.34-.258 5.094.411 6.923 3.032z"/><path d="m82.6 211.44c-.067 0-.134-.003-.201-.008-.688-.056-1.322-.393-1.753-.933-.613-.767-1.078-1.462-1.506-2.128-.537.735-1.443 1.139-2.36 1.025-1.035-.138-1.887-.88-2.12-1.897-.583-2.553-2.072-4.9-3.649-7.386-.518-.816-1.036-1.633-1.524-2.459-.991-1.677-1.888-3.455-2.665-5.285-.378-.891-.209-1.92.436-2.643.645-.721 1.649-1.009 2.576-.731 6.709 1.988 13.558 3.11 20.354 3.332.991.033 1.87.647 2.239 1.568.836 2.083 1.81 4.033 2.978 5.962.381.63.465 1.396.23 2.094-.127.378-.249.729-.365 1.062-.577 1.66-.925 2.662-1.047 4.364-.067.94-.658 1.763-1.527 2.127-.87.364-1.869.21-2.587-.402-.668-.568-1.476-1.149-2.33-1.765-.126-.091-.253-.183-.38-.274-.862 1.299-1.81 2.544-3.118 3.729-.464.419-1.063.648-1.681.648zm-3.262-9.675c.753 0 1.479.323 1.953.917.632.791 1.107 1.505 1.547 2.19.476-.673.926-1.395 1.405-2.164l.388-.62c.386-.614 1.021-1.031 1.738-1.141s1.447.097 2 .567c.498.424 1.074.855 1.689 1.302.145-.452.302-.907.469-1.388-.779-1.363-1.477-2.743-2.108-4.171-4.86-.254-9.735-.938-14.564-2.041.443.744.911 1.481 1.379 2.219.963 1.518 1.945 3.064 2.76 4.722.33-.21.706-.345 1.102-.381.079-.007.161-.011.242-.011z"/><path d="m32.947 80.21c-2.021 0-4.047-.244-6.021-.725-1.08-.263-1.857-1.207-1.906-2.317-.215-4.847-3.831-7.505-5.967-8.657-.504-.272-.956-.633-1.384-1.102-.604-.662-.808-1.597-.534-2.449.19-.592.589-1.082 1.109-1.389l3.219-6.439c-.912-.937-2.017-2.368-3.089-4.513-.331-.661-1.042-1.741-1.942-1.708-.832.046-1.625-.32-2.128-.979s-.646-1.525-.382-2.312c.925-2.759 6.387-16.447 23.125-14.925 11.574 1.052 19.123 9.099 21.255 22.659.025.162.035.326.028.489-.555 13.664-11.703 24.367-25.383 24.367zm-3.154-5.246c1.045.163 2.101.246 3.154.246 10.906 0 19.809-8.469 20.374-19.325-1.275-7.789-5.223-17.165-16.729-18.211-10.169-.909-14.916 5.137-16.916 9.113 1.102.646 2.244 1.745 3.169 3.596 1.51 3.021 2.924 3.887 2.938 3.896.593.297 1.005.796 1.214 1.425.21.629.122 1.294-.175 1.888l-3.759 7.519c2.451 1.671 5.817 4.82 6.73 9.853zm-10.799-11.686c-.001 0-.002.001-.003.001.001 0 .002-.001.003-.001z"/><path d="m143.794 92.848c-3.702 0-6.713-3.011-6.713-6.712s3.011-6.713 6.713-6.713c3.701 0 6.712 3.012 6.712 6.713s-3.011 6.712-6.712 6.712zm0-8.425c-.944 0-1.713.769-1.713 1.713s.769 1.712 1.713 1.712 1.712-.768 1.712-1.712-.768-1.713-1.712-1.713z"/><path d="m122.428 100.118c-2.708 0-5.264-1.649-6.282-4.326-1.316-3.46.428-7.345 3.887-8.661 1.676-.638 3.5-.584 5.135.15 1.636.733 2.888 2.061 3.525 3.736 1.317 3.459-.426 7.344-3.886 8.661-.782.299-1.587.44-2.379.44zm-.008-8.427c-.206 0-.412.038-.61.113-.427.162-.766.481-.953.899-.188.417-.201.883-.038 1.311.335.882 1.327 1.325 2.21.991.882-.336 1.327-1.327.991-2.209v-.001c-.163-.428-.482-.766-.899-.953-.224-.1-.462-.151-.701-.151z"/><path d="m165.844 94.644c-.822 0-1.657-.152-2.466-.473-3.441-1.364-5.13-5.273-3.767-8.714.661-1.667 1.932-2.978 3.578-3.688s3.47-.737 5.137-.078c3.441 1.364 5.13 5.273 3.767 8.714v.001c-1.045 2.63-3.577 4.238-6.249 4.238zm.007-8.427c-.23 0-.461.048-.679.142-.42.182-.744.516-.912.94-.348.878.083 1.876.961 2.224.88.35 1.875-.082 2.224-.961.168-.425.161-.891-.021-1.311-.181-.42-.516-.744-.941-.912-.205-.081-.419-.122-.632-.122zm3.917 3.266h.01z"/><path d="m184.54 108.186c-1.714 0-3.343-.633-4.612-1.8-2.772-2.549-2.955-6.876-.408-9.647 1.233-1.343 2.917-2.126 4.739-2.202 1.821-.09 3.565.561 4.908 1.794 1.343 1.234 2.125 2.917 2.202 4.739s-.56 3.565-1.794 4.908-2.917 2.125-4.739 2.202c-.099.004-.198.006-.296.006zm.009-8.657c-.026 0-.053.001-.079.002-.487.021-.938.23-1.268.59-.682.742-.633 1.901.109 2.584.358.329.824.501 1.313.479.488-.021.938-.23 1.269-.59s.501-.826.48-1.314c-.021-.487-.23-.938-.589-1.269-.34-.312-.776-.482-1.235-.482z"/><path d="m198.801 125.712c-2.504 0-4.919-1.382-6.116-3.769-1.686-3.366-.32-7.477 3.045-9.163 3.369-1.689 7.478-.32 9.164 3.045s.32 7.477-3.046 9.164c-.978.49-2.02.723-3.047.723zm1.928-2.958h.01zm-1.942-5.697c-.275 0-.554.062-.816.193-.9.451-1.267 1.553-.815 2.453.451.901 1.55 1.269 2.453.815.901-.452 1.267-1.553.815-2.453-.32-.638-.966-1.008-1.637-1.008z"/><path d="m206.81 147.222c-1.541 0-3.024-.518-4.246-1.492-1.426-1.138-2.323-2.763-2.526-4.576-.42-3.739 2.281-7.125 6.022-7.547 1.814-.207 3.598.312 5.022 1.448 1.426 1.138 2.323 2.763 2.526 4.576.42 3.739-2.281 7.125-6.022 7.547 0 0 0 0-.001 0-.26.029-.519.044-.775.044zm.496-2.529h.01zm-.481-6.13c-.069 0-.138.004-.208.012-1.001.112-1.725 1.02-1.612 2.021.055.486.294.921.676 1.226s.859.441 1.345.388c1.001-.113 1.725-1.02 1.612-2.021-.055-.486-.294-.921-.676-1.226-.327-.261-.724-.4-1.137-.4z"/><path d="m151.533 64.097c-4.476 0-8.117-3.641-8.117-8.116s3.641-8.117 8.117-8.117 8.117 3.642 8.117 8.117-3.642 8.116-8.117 8.116zm0-11.234c-1.719 0-3.117 1.398-3.117 3.117s1.398 3.116 3.117 3.116 3.117-1.397 3.117-3.116-1.399-3.117-3.117-3.117z"/><path d="m123.043 73.79c-3.272 0-6.363-1.994-7.595-5.23-1.591-4.184.517-8.881 4.7-10.474 2.026-.77 4.233-.708 6.21.182 1.978.888 3.492 2.492 4.263 4.518v.001c.771 2.026.707 4.231-.181 6.21-.888 1.978-2.493 3.492-4.52 4.263-.946.359-1.919.53-2.877.53zm-.007-11.236c-.374 0-.749.068-1.109.206-1.606.611-2.416 2.415-1.805 4.021.296.777.878 1.395 1.637 1.735.76.341 1.607.366 2.384.068.778-.296 1.395-.877 1.735-1.637.341-.759.366-1.606.07-2.384-.296-.778-.877-1.395-1.637-1.735-.408-.182-.841-.274-1.275-.274z"/><path d="m180.944 66.495c-1.012 0-2.024-.192-2.993-.576-2.015-.799-3.599-2.335-4.459-4.325s-.894-4.195-.095-6.211 2.335-3.6 4.325-4.46c1.99-.859 4.196-.894 6.212-.095 2.015.799 3.599 2.335 4.459 4.325s.894 4.195.095 6.211-2.335 3.6-4.325 4.46c-1.034.447-2.125.671-3.219.671zm-.003-11.24c-.419 0-.838.086-1.235.258-.764.33-1.354.938-1.661 1.712s-.294 1.621.036 2.386c.33.764.938 1.354 1.712 1.66s1.621.295 2.386-.036c.764-.33 1.354-.938 1.661-1.712s.294-1.621-.036-2.386c-.33-.764-.938-1.354-1.712-1.66-.373-.148-.762-.222-1.151-.222z"/><path d="m205.865 84.542c-2.001 0-4.007-.72-5.593-2.177-3.358-3.086-3.579-8.328-.494-11.686 1.495-1.627 3.534-2.574 5.741-2.667 2.21-.1 4.318.68 5.945 2.174 1.627 1.495 2.574 3.533 2.667 5.74.093 2.208-.679 4.319-2.174 5.945-1.627 1.773-3.856 2.671-6.092 2.671zm4.252-4.361h.01zm-4.246-7.175c-.047 0-.094.001-.141.003-.873.036-1.679.411-2.27 1.054-1.22 1.328-1.133 3.401.195 4.621 1.327 1.22 3.4 1.132 4.621-.194.591-.644.896-1.479.86-2.352-.037-.872-.412-1.679-1.055-2.27-.608-.559-1.389-.862-2.21-.862z"/><path d="m224.866 107.918c-.878 0-1.759-.141-2.617-.426-2.096-.697-3.796-2.169-4.786-4.144-2.042-4.078-.387-9.057 3.689-11.1 1.975-.989 4.217-1.151 6.314-.454 2.096.697 3.796 2.169 4.786 4.144 2.042 4.078.387 9.057-3.689 11.1-1.167.585-2.428.88-3.697.88zm-.011-11.547c-.502 0-1 .117-1.462.349-1.612.808-2.267 2.776-1.459 4.39.391.78 1.063 1.362 1.892 1.638s1.716.211 2.497-.18c1.612-.808 2.267-2.776 1.459-4.39-.391-.78-1.063-1.362-1.892-1.638-.339-.113-.688-.169-1.035-.169z"/><path d="m235.551 136.591c-1.865 0-3.663-.626-5.142-1.807-1.727-1.378-2.813-3.346-3.06-5.541-.509-4.531 2.763-8.633 7.294-9.143 2.199-.246 4.356.378 6.083 1.755 1.727 1.378 2.813 3.346 3.06 5.541s-.376 4.355-1.754 6.082c-1.377 1.727-3.346 2.813-5.541 3.06-.315.035-.629.053-.94.053zm.018-11.542c-.121 0-.244.007-.367.021-1.792.201-3.085 1.823-2.884 3.615.098.868.527 1.646 1.21 2.191s1.538.792 2.404.693c.869-.098 1.646-.527 2.191-1.21.544-.683.791-1.536.693-2.404-.186-1.669-1.605-2.906-3.247-2.906z"/></svg>