<svg enable-background="new 0 0 256 256" height="512" viewBox="0 0 256 256" width="512" xmlns="http://www.w3.org/2000/svg"><path d="m194.683 237.518c-1.088-.014-1.809-1.135-1.386-2.138l11.67-27.648c15.488-43.468-2.486-52.659-20.935-52.48 1.851 22.297-1.088 48.777-16.049 75.125-1.786 3.145-.929 7.031 1.979 9.303 1.823 1.425 3.803 3.223 5.418 5.304 2.428 3.128.533 7.397-3.148 8.326l.189.19h37.796c3.347-14.279-9.991-15.908-15.534-15.982z" fill="#52565b"/><path d="m60.65 155.253c-18.45-.179-36.423 9.011-20.935 52.48l11.67 27.648c.423 1.003-.297 2.123-1.386 2.138-5.544.074-18.882 1.702-15.533 15.982h37.794l.189-.19c-3.681-.929-5.576-5.198-3.148-8.326 1.615-2.081 3.595-3.879 5.418-5.304 2.907-2.272 3.764-6.158 1.979-9.303-14.96-26.347-17.9-52.828-16.048-75.125z" fill="#52565b"/><path d="m169.961 239.68c-2.907-2.272-3.764-6.158-1.979-9.303 16.306-28.717 18.338-57.588 15.443-81.023-1.634-13.227-7.477-25.551-16.469-35.335-3.274 2.834-6.994 5.356-11.082 7.492-.297.568-.621 1.127-.998 1.662-2.459 3.494-6.111 5.667-10.04 6.333l-.023.023c.235-.037.469-.072.702-.12-4.103 8.799-13.011 14.596-22.897 14.596-9.836 0-18.788-5.763-22.907-14.623-3.675-.789-7.058-2.912-9.378-6.209-.377-.536-.702-1.094-.999-1.663l.001.002c-4.209-2.2-8.028-4.808-11.372-7.746-9.127 9.825-15.06 22.249-16.708 35.592-2.894 23.437-.862 52.307 15.443 81.021 1.786 3.145.928 7.031-1.979 9.303-1.823 1.425-3.803 3.223-5.418 5.304-2.738 3.527.017 8.516 4.637 8.516h26.778c2.996 0 5.349-2.175 5.638-4.851.009-.083.035-.162.04-.246 10.23 3.673 21.576 3.702 31.891 0 .02.101.032.167.04.239.285 2.68 2.639 4.859 5.638 4.859h26.778c4.621 0 7.375-4.989 4.637-8.516-1.614-2.084-3.594-3.882-5.417-5.307z" fill="#52565b"/><path d="m139.053 167.024c5.976 4.985 8.928 12.778 7.574 20.442-.081.46-.165.878-.251 1.243-3.105 13.176-4.402 26.714-4.402 40.252-.187 2.504.738 6.568-1.996 12.577-.841 1.849-1.631 4.648-1.653 7.104-.008-.072-.019-.137-.04-.239-10.328 3.708-21.579 3.702-31.891 0-.005.084-.031.163-.04.246-.023-2.587-.863-5.375-1.653-7.112-2.73-5.999-1.808-10.049-1.996-12.577 0-13.537-1.297-27.075-4.402-40.252-.043-.181-.085-.375-.126-.58-1.604-7.944 1.512-16.107 7.841-21.17l.336-.269c9.594-7.673 23.265-7.534 32.699.335z" fill="#828487"/><g fill="#e3e4e5"><path d="m100.34 243.501c-3.157 0-5.787 2.252-6.375 5.236v.001c-.587-2.985-3.217-5.238-6.375-5.238-3.086 0-5.665 2.153-6.329 5.038-.466-3.132-3.159-5.538-6.421-5.538-3.504 0-6.353 2.775-6.487 6.246.552 2.314 2.706 4.252 5.586 4.252h26.778c2.996 0 5.35-2.175 5.638-4.851.009-.083.035-.162.04-.246.087.031.175.057.261.087-.682-2.858-3.247-4.987-6.316-4.987z"/><path d="m176.435 248.6c-.641-2.916-3.236-5.099-6.344-5.099-3.157 0-5.787 2.252-6.375 5.236v.001c-.587-2.985-3.217-5.238-6.375-5.238-3.086 0-5.665 2.153-6.329 5.038-.466-3.132-3.159-5.538-6.421-5.538-3.226 0-5.896 2.353-6.405 5.435.033-.012.067-.022.101-.034.02.102.032.167.04.238.285 2.68 2.639 4.859 5.638 4.859h26.778c3.144.002 5.419-2.31 5.692-4.898z"/><path d="m210.244 245.742c-1.191-1.371-2.944-2.24-4.903-2.24-3.086 0-5.665 2.153-6.329 5.038-.466-3.132-3.159-5.538-6.421-5.538-3.59 0-6.5 2.91-6.5 6.5 0 1.51.519 2.896 1.383 3.999h22.743c.742-3.171.66-5.715.027-7.759z"/><path d="m58.59 250.001c0-3.59-2.91-6.5-6.5-6.5-3.157 0-5.787 2.252-6.375 5.236v.001c-.587-2.985-3.217-5.238-6.375-5.238-1.965 0-3.719.878-4.909 2.257-.629 2.042-.708 4.581.033 7.742h23.098c.648-1.009 1.028-2.208 1.028-3.498z"/></g><path d="m179.832 71.366c-1.398-3.895-2.338-7.938-2.579-12.069-.347-5.929-1.634-11.605-3.713-16.882-.186-.472-.126-1.005.156-1.427 12.871-19.238 6.989-32.053 3.85-36.684-.883-1.304-2.424-1.97-3.986-1.767-8.709 1.135-15.84 8.012-19.889 12.887-.594.715-1.609.863-2.4.374-8.339-5.154-18.155-8.132-28.667-8.132-10.655 0-20.592 3.064-29.002 8.347-.795.499-1.822.35-2.418-.374-4.014-4.885-11.224-11.95-20.064-13.102-1.562-.204-3.103.463-3.986 1.767-3.165 4.67-9.112 17.665 4.188 37.174.285.418.35.948.169 1.42-1.96 5.116-3.185 10.597-3.529 16.316-.25 4.158-1.176 8.229-2.583 12.149-1.398 3.894-2.146 7.996-2.146 12.233 0 15.775 10.352 29.684 26.102 37.915-2.741-5.249-2.115-11.752 1.47-16.617 4.356-5.911 12.078-8.132 18.846-5.585-1.011.69-1.62 1.614-1.62 2.874 0 4.474 7.472 10.801 14.574 10.801s14.573-6.327 14.573-10.801c0-1.261-.609-2.185-1.62-2.874 6.768-2.547 14.49-.326 18.846 5.585 3.585 4.865 4.211 11.369 1.47 16.617 15.751-8.231 26.103-22.14 26.103-37.915 0-4.236-.747-8.337-2.145-12.23z" fill="#52565b"/><path d="m237.926 126.863c-10.337-33.292-43.196-29.18-54.503-1.041-1.352 3.363-2.309 6.841-3.114 10.362.128.362.263.72.384 1.084.26.781.505 1.569.734 2.361.918 3.168 1.59 6.419 1.998 9.725.24 1.94.442 3.92.609 5.932-.001-.011-.002-.022-.003-.033 2.527-.025 5.042.135 7.466.527.197-.784.39-1.572.568-2.377 2.609-11.822 4.145-31.602 17.784-34.886 7.002-1.686 11.524 5.293 13.331 11.113 1.21 3.896 4.444 6.75 8.756 5.989 3.634-.642 7.189-4.895 5.99-8.756z" fill="#52565b"/><path d="m137.178 102.184c0 4.474-7.472 10.801-14.573 10.801-7.102 0-14.573-6.327-14.573-10.801s7.472-4.819 14.573-4.819c7.102 0 14.573.344 14.573 4.819z" fill="#fd605b"/><path d="m154.405 104.894c-4.356-5.911-12.078-8.132-18.846-5.585 1.011.69 1.62 1.614 1.62 2.874 0 4.474-7.472 10.801-14.573 10.801-7.102 0-14.573-6.327-14.573-10.801 0-1.261.609-2.185 1.62-2.874-6.768-2.547-14.49-.326-18.846 5.585-3.973 5.391-4.326 12.802-.472 18.279 3.987 5.665 11.103 7.894 17.467 5.773l14.804-4.935 14.804 4.935c6.364 2.121 13.48-.108 17.467-5.772 3.854-5.478 3.5-12.888-.472-18.28z" fill="#828487"/><path d="m137.561 128.945-14.804-4.935-14.804 4.935c-2.717.906-5.569 1.012-8.258.403 4.007 8.652 12.762 14.657 22.924 14.657 10.138 0 18.877-5.977 22.897-14.596-2.6.534-5.34.408-7.955-.464z" fill="#828487"/><path d="m179.06 6.916-.19-.018s-12.53 6.263-17.803 21.37c-.199.571.279 1.157.881 1.09l6.667-.741c.532-.059.98.395.914.927l-.712 5.696c-.074.594.487 1.069 1.06.896l7.961-2.388c5.986-12.61 3.726-21.772 1.222-26.832z" fill="#f98080"/><path d="m75.864 35.239-.712-5.696c-.066-.532.381-.986.914-.927l6.667.741c.601.067 1.08-.519.881-1.09-5.273-15.107-17.803-21.37-17.803-21.37l-.189.018c-2.502 5.06-4.754 14.224 1.232 26.835l7.949 2.385c.574.173 1.135-.301 1.061-.896z" fill="#f98080"/><path d="m210.216 256h-37.795c-.665 0-1.303-.266-1.772-.736l-.189-.19c-.634-.638-.877-1.565-.637-2.432.24-.866.927-1.536 1.798-1.756 1.029-.26 1.873-1.016 2.202-1.972.202-.587.294-1.479-.418-2.396-1.276-1.645-2.952-3.281-4.982-4.866-3.898-3.048-4.998-8.308-2.613-12.508 12.648-22.276 17.941-47.066 15.731-73.684-.058-.692.176-1.378.644-1.892.468-.513 1.129-.809 1.823-.815.185-.002.369-.003.553-.003 11.252 0 19.361 3.377 24.109 10.041 6.62 9.29 6.167 24.693-1.348 45.781-.016.045-.033.09-.051.134l-11.128 26.361c4.334.237 10.843 1.426 14.491 6.093 2.575 3.292 3.253 7.636 2.016 12.91-.265 1.131-1.273 1.93-2.434 1.93zm-31.839-5h29.756c.352-2.818-.129-5.087-1.438-6.76-2.897-3.705-9.389-4.187-12.046-4.222-1.341-.019-2.58-.699-3.314-1.823-.737-1.128-.865-2.543-.342-3.786l11.643-27.582c6.91-19.423 7.57-33.263 1.961-41.135-3.464-4.862-9.47-7.513-17.871-7.894 1.718 26.598-3.852 51.417-16.569 73.813-1.169 2.059-.616 4.566 1.345 6.099 2.354 1.839 4.323 3.771 5.853 5.74 1.603 2.064 2.038 4.649 1.196 7.092-.054.156-.113.308-.174.458z"/><path d="m72.26 256h-37.795c-1.161 0-2.169-.799-2.434-1.93-1.237-5.274-.559-9.617 2.016-12.91 3.649-4.667 10.157-5.855 14.492-6.093l-11.127-26.362c-.019-.043-.036-.088-.052-.133-7.514-21.088-7.967-36.491-1.347-45.781 4.826-6.772 13.096-10.154 24.662-10.038.694.007 1.355.303 1.823.815.468.514.701 1.199.644 1.892-2.21 26.616 3.083 51.407 15.731 73.684 2.385 4.199 1.286 9.459-2.613 12.507-2.031 1.586-3.707 3.223-4.982 4.867-.712.918-.621 1.81-.419 2.396.33.956 1.174 1.712 2.203 1.972.872.22 1.558.89 1.798 1.756s-.003 1.794-.637 2.432l-.189.19c-.471.47-1.109.736-1.774.736zm-35.712-5h29.756c-.062-.15-.12-.303-.173-.457-.842-2.442-.406-5.027 1.196-7.092 1.529-1.97 3.499-3.901 5.854-5.741 1.959-1.531 2.512-4.039 1.343-6.098-12.717-22.397-18.287-47.217-16.57-73.813-8.401.381-14.405 3.03-17.87 7.894-5.61 7.872-4.95 21.712 1.961 41.135l11.642 27.582c.524 1.242.397 2.657-.341 3.786-.734 1.123-1.974 1.805-3.314 1.823-2.658.035-9.15.517-12.047 4.222-1.308 1.672-1.789 3.941-1.437 6.759z"/><path d="m122.605 126.415c-1.381 0-2.5-1.119-2.5-2.5v-9.185c0-1.381 1.119-2.5 2.5-2.5s2.5 1.119 2.5 2.5v9.185c0 1.381-1.119 2.5-2.5 2.5z"/><path d="m112.207 99.611c-.396 0-.798-.095-1.173-.294-1.219-.648-1.681-2.163-1.032-3.382 3.064-5.756 3.992-12.198 2.759-19.148-.241-1.359.665-2.657 2.025-2.898 1.358-.23 2.657.666 2.898 2.025 1.413 7.964.283 15.7-3.268 22.371-.45.845-1.315 1.326-2.209 1.326z"/><path d="m133.003 99.611c-.895 0-1.759-.481-2.209-1.326-3.551-6.671-4.681-14.407-3.268-22.371.241-1.359 1.536-2.262 2.898-2.025 1.359.241 2.267 1.539 2.025 2.898-1.233 6.95-.305 13.393 2.759 19.148.648 1.219.187 2.733-1.032 3.382-.374.2-.777.294-1.173.294z"/><path d="m89.503 72.601c-1.377 0-2.496-1.114-2.5-2.492-.015-4.792 3.872-8.704 8.664-8.721h.028c4.781 0 8.678 3.881 8.693 8.665.004 1.38-1.111 2.503-2.492 2.508-.003 0-.006 0-.008 0-1.377 0-2.496-1.114-2.5-2.492-.006-2.036-1.65-3.696-3.705-3.681-2.036.007-3.687 1.669-3.681 3.705.004 1.381-1.111 2.504-2.492 2.508-.002 0-.005 0-.007 0z"/><path d="m143.322 72.601c-1.377 0-2.495-1.113-2.5-2.491-.017-4.793 3.87-8.705 8.663-8.722h.028c4.781 0 8.679 3.881 8.693 8.665.004 1.381-1.111 2.504-2.492 2.508-.003 0-.006 0-.008 0-1.377 0-2.496-1.114-2.5-2.492-.007-2.032-1.662-3.681-3.693-3.681-.004 0-.008 0-.012 0-.985.003-1.912.391-2.607 1.091-.694.699-1.075 1.628-1.072 2.613.005 1.381-1.11 2.504-2.491 2.509-.003 0-.006 0-.009 0z"/><path d="m144.213 111.491c-1.047 0-2.022-.663-2.372-1.711-.437-1.31.271-2.726 1.582-3.162l10.332-3.443c1.309-.438 2.725.271 3.162 1.582.437 1.31-.271 2.726-1.582 3.162l-10.332 3.443c-.262.087-.528.129-.79.129z"/><path d="m155.695 121.823c-.092 0-.186-.005-.279-.016l-10.332-1.148c-1.372-.152-2.361-1.389-2.208-2.761.151-1.372 1.379-2.368 2.761-2.208l10.332 1.148c1.372.152 2.361 1.389 2.208 2.761-.142 1.279-1.225 2.224-2.482 2.224z"/><path d="m101.736 111.491c-.262 0-.529-.042-.791-.129l-10.332-3.443c-1.31-.437-2.018-1.853-1.581-3.162.437-1.31 1.854-2.015 3.162-1.582l10.332 3.443c1.31.437 2.018 1.853 1.581 3.162-.349 1.048-1.324 1.711-2.371 1.711z"/><path d="m90.253 121.823c-1.257 0-2.34-.945-2.482-2.224-.152-1.372.836-2.608 2.208-2.761l10.332-1.148c1.368-.159 2.609.836 2.761 2.208s-.836 2.608-2.208 2.761l-10.332 1.148c-.094.011-.187.016-.279.016z"/><path d="m170.742 256h-26.778c-3.214 0-6.013-1.791-7.35-4.415-9.265 2.784-19.283 2.784-28.548 0-1.338 2.624-4.139 4.415-7.349 4.415h-26.778c-3.212 0-6.062-1.745-7.438-4.556-1.303-2.661-.995-5.648.825-7.993 1.529-1.97 3.499-3.901 5.854-5.741 1.959-1.531 2.512-4.039 1.343-6.098-14.141-24.903-19.439-52.682-15.75-82.562 1.705-13.809 7.707-26.599 17.357-36.986.921-.992 2.465-1.07 3.482-.177 3.191 2.805 6.829 5.285 10.812 7.374.466.225.866.597 1.125 1.09.282.54.553.992.829 1.385 1.879 2.67 4.67 4.518 7.858 5.202.767.165 1.412.68 1.742 1.391 3.722 8.005 11.823 13.177 20.64 13.177 7.664 0 14.791-3.909 18.967-10.19-.336-.391-.554-.888-.596-1.44-.104-1.373.923-2.571 2.296-2.68 3.838-.305 7.317-2.295 9.547-5.461.275-.393.546-.845.826-1.38.236-.453.605-.822 1.058-1.059 3.894-2.034 7.461-4.445 10.603-7.165 1.023-.888 2.562-.798 3.478.198 9.503 10.34 15.42 23.038 17.11 36.72 3.69 29.881-1.609 57.659-15.751 82.564-1.169 2.059-.616 4.566 1.345 6.099 2.354 1.839 4.323 3.771 5.853 5.74 1.82 2.345 2.129 5.333.825 7.994-1.376 2.809-4.226 4.554-7.437 4.554zm-32.454-10.104c1.321 0 2.42 1.028 2.494 2.355.086 1.541 1.483 2.748 3.182 2.748h26.778c1.539 0 2.531-.906 2.946-1.754.265-.541.58-1.615-.284-2.729-1.276-1.645-2.952-3.281-4.982-4.866-3.898-3.048-4.998-8.308-2.613-12.508 13.6-23.95 18.692-50.692 15.136-79.482-1.466-11.87-6.382-22.945-14.257-32.175-2.753 2.181-5.763 4.152-8.979 5.883-.257.448-.517.858-.785 1.241-2.38 3.38-5.79 5.793-9.665 6.916-4.749 9.137-14.293 14.979-24.639 14.979-10.349 0-19.89-5.842-24.639-14.981-3.917-1.128-7.325-3.55-9.691-6.912-.269-.382-.529-.793-.786-1.242-3.34-1.796-6.454-3.852-9.293-6.133-8.002 9.278-12.993 20.44-14.473 32.427-3.555 28.791 1.537 55.532 15.135 79.48 2.385 4.199 1.286 9.459-2.613 12.507-2.031 1.586-3.707 3.223-4.982 4.867-.865 1.113-.549 2.188-.285 2.729.415.848 1.407 1.754 2.946 1.754h26.778c1.695 0 3.092-1.205 3.182-2.743.046-.787.46-1.506 1.117-1.94.658-.435 1.481-.534 2.223-.267 9.676 3.474 20.373 3.492 30.059.051.283-.122.592-.193.918-.202.024-.002.048-.003.072-.003z"/><path d="m170.742 256h-26.778c-3.208 0-6.004-1.778-7.337-4.421-9.304 2.79-19.273 2.789-28.573 0-1.335 2.644-4.131 4.421-7.336 4.421h-26.779c-3.212 0-6.062-1.745-7.438-4.556-1.303-2.661-.995-5.648.825-7.993 1.529-1.97 3.499-3.901 5.854-5.741 1.959-1.531 2.512-4.039 1.343-6.098-14.141-24.903-19.439-52.682-15.75-82.562 1.705-13.809 7.707-26.599 17.357-36.986.921-.992 2.465-1.07 3.482-.177 3.21 2.821 6.871 5.314 10.879 7.408.453.236.822.605 1.058 1.059.281.537.551.988.827 1.382 1.879 2.67 4.67 4.518 7.858 5.202.767.165 1.412.68 1.742 1.391 3.722 8.005 11.823 13.177 20.64 13.177 8.188 0 15.763-4.463 19.782-11.512-.166-.798.049-1.636.646-2.232.366-.367.861-.633 1.372-.72 3.426-.58 6.414-2.466 8.415-5.308.275-.393.546-.845.826-1.38.236-.453.605-.822 1.058-1.059 3.894-2.034 7.461-4.445 10.603-7.165 1.023-.888 2.562-.798 3.478.198 9.503 10.339 15.42 23.037 17.11 36.72 3.69 29.881-1.609 57.659-15.751 82.564-1.168 2.059-.616 4.565 1.344 6.098 2.354 1.84 4.324 3.771 5.854 5.741 1.82 2.345 2.129 5.333.825 7.994-1.375 2.81-4.225 4.555-7.436 4.555zm-32.456-10.098c.43 0 .856.11 1.238.328.634.361 1.079.982 1.217 1.7.036.188.055.309.069.442.16 1.499 1.515 2.627 3.153 2.627h26.778c1.539 0 2.531-.906 2.946-1.754.265-.541.58-1.615-.284-2.729-1.276-1.645-2.952-3.281-4.982-4.866 0 0 0-.001-.001-.001-3.897-3.047-4.997-8.307-2.612-12.507 13.6-23.95 18.692-50.692 15.136-79.482-1.466-11.871-6.382-22.946-14.257-32.175-2.753 2.181-5.763 4.152-8.979 5.882-.256.448-.516.858-.785 1.242-2.376 3.374-5.755 5.775-9.657 6.901-4.747 9.146-14.296 14.993-24.647 14.993-10.349 0-19.89-5.842-24.639-14.981-3.917-1.128-7.325-3.55-9.691-6.912-.27-.383-.53-.794-.787-1.243-3.338-1.795-6.452-3.85-9.292-6.132-8.002 9.278-12.993 20.44-14.473 32.427-3.555 28.791 1.537 55.532 15.135 79.48 2.385 4.199 1.286 9.459-2.613 12.507-2.031 1.586-3.707 3.223-4.982 4.867-.865 1.113-.549 2.188-.285 2.729.416.849 1.408 1.755 2.947 1.755h26.778c1.636 0 2.992-1.126 3.152-2.619.01-.097.026-.194.045-.293.091-.72.491-1.367 1.101-1.771.658-.436 1.482-.534 2.224-.268 9.736 3.494 20.462 3.496 30.202 0 .275-.098.56-.147.845-.147zm-34.387 2.353v.003s0-.002 0-.003zm0-.004v.002z"/><path d="m89.334 124.011c-.394 0-.791-.093-1.157-.284-17.185-8.98-27.445-23.982-27.445-40.131 0-4.439.771-8.84 2.293-13.077 1.397-3.891 2.218-7.744 2.441-11.453.341-5.682 1.522-11.26 3.512-16.59-13.799-20.549-7.348-34.505-3.913-39.574 1.411-2.082 3.856-3.172 6.377-2.845 9.172 1.196 16.589 7.925 21.302 13.546 8.982-5.521 19.294-8.437 29.861-8.437 10.427 0 20.62 2.84 29.514 8.219 4.683-5.527 12.044-12.146 21.118-13.328 2.529-.327 4.968.762 6.379 2.845 3.392 5.005 9.789 18.786-3.568 39.063 2.109 5.498 3.354 11.276 3.701 17.185.212 3.633 1.031 7.458 2.436 11.371 1.521 4.235 2.292 8.635 2.292 13.074 0 16.148-10.26 31.151-27.444 40.131-.97.508-2.153.324-2.926-.448s-.954-1.957-.448-2.925c2.276-4.357 1.779-9.844-1.267-13.976-3.001-4.072-7.976-6.11-12.853-5.497.103.466.14.907.14 1.303 0 6.215-9.096 13.301-17.074 13.301-7.979 0-17.074-7.086-17.074-13.301 0-.396.037-.837.14-1.302-4.871-.621-9.852 1.422-12.853 5.496-3.045 4.132-3.542 9.618-1.267 13.976.506.969.324 2.153-.448 2.925-.48.481-1.12.733-1.769.733zm-18.768-119.01c-.551 0-1.06.259-1.362.706-2.885 4.256-8.251 16.124 4.184 34.363.748 1.097.911 2.488.438 3.723-1.914 4.995-3.047 10.233-3.368 15.572-.251 4.184-1.168 8.505-2.726 12.843-1.327 3.694-1.999 7.525-1.999 11.388 0 12.553 7.181 24.401 19.485 32.585-.412-4.427.809-9.016 3.574-12.77 4.967-6.74 13.906-9.388 21.74-6.441.873.329 1.49 1.116 1.602 2.043.111.926-.303 1.837-1.074 2.362-.528.36-.528.599-.528.809 0 2.903 6.206 8.301 12.074 8.301s12.074-5.397 12.074-8.301c0-.21 0-.448-.529-.809-.771-.525-1.184-1.437-1.073-2.363s.729-1.713 1.602-2.042c7.834-2.947 16.771-.298 21.739 6.441 2.766 3.754 3.986 8.342 3.574 12.769 12.305-8.183 19.485-20.031 19.485-32.584 0-3.862-.672-7.692-1.997-11.385-1.566-4.363-2.482-8.659-2.723-12.769-.325-5.546-1.517-10.967-3.543-16.111-.486-1.235-.334-2.632.406-3.735 12.026-17.976 6.704-29.688 3.857-33.889-.346-.509-.954-.782-1.595-.69-8.114 1.057-14.94 7.976-18.288 12.006-1.395 1.679-3.767 2.059-5.637.903-8.213-5.076-17.672-7.759-27.353-7.759-9.81 0-19.379 2.754-27.672 7.964-1.854 1.165-4.296.777-5.679-.902-3.371-4.103-10.25-11.143-18.458-12.212-.076-.011-.153-.016-.23-.016z"/><path d="m191.5 158.279c-.132 0-.266-.01-.399-.032-2.069-.334-4.295-.481-6.646-.496-.067.011-.136.02-.204.025-1.387.127-2.582-.893-2.706-2.264-.001-.009-.002-.019-.003-.027-.165-1.992-.366-3.952-.598-5.825-.389-3.146-1.034-6.287-1.918-9.336-.22-.76-.455-1.515-.705-2.265-.075-.225-.155-.444-.234-.665l-.135-.376c-.158-.446-.187-.929-.081-1.391.975-4.264 2.001-7.676 3.232-10.738 6.093-15.162 18.564-24.591 31.785-24.078 12.408.504 22.66 9.965 27.425 25.31.707 2.278.337 4.78-1.045 7.046-1.558 2.555-4.201 4.438-6.898 4.913-5.194.928-9.859-2.178-11.577-7.709-.353-1.135-3.633-11.047-10.358-9.424-10.092 2.43-12.706 16.251-14.807 27.356-.378 1.999-.735 3.888-1.121 5.638-.183.828-.382 1.64-.584 2.445-.282 1.128-1.295 1.893-2.423 1.893zm-5.182-5.498c1.116.039 2.209.114 3.274.226.011-.048.021-.096.031-.143.37-1.676.721-3.528 1.091-5.49 2.243-11.859 5.315-28.102 18.55-31.288 8.47-2.041 14.074 5.623 16.304 12.803.757 2.437 2.718 4.842 5.934 4.268 1.285-.227 2.69-1.269 3.498-2.593.36-.592.91-1.763.538-2.96-4.17-13.432-12.5-21.376-22.852-21.796-11.08-.441-21.65 7.774-26.944 20.947-1.062 2.644-1.968 5.607-2.832 9.277.053.148.104.298.154.447.271.811.525 1.63.765 2.454.957 3.302 1.656 6.705 2.078 10.114.15 1.216.287 2.465.411 3.734z"/><path d="m122.34 253.671c-5.308 0-10.613-.846-15.697-2.538-.133.015-.269.021-.407.014-1.324-.062-2.369-1.148-2.381-2.475-.02-2.229-.782-4.679-1.428-6.1-2.35-5.164-2.264-9.107-2.207-11.717.015-.676.027-1.259-.006-1.709-.004-.062-.007-.124-.007-.186 0-14.122-1.458-27.472-4.335-39.679-.049-.206-.097-.426-.144-.66-1.783-8.831 1.562-17.88 8.729-23.614l.335-.269c10.476-8.381 25.558-8.229 35.862.364 6.699 5.588 9.931 14.323 8.435 22.797-.09.511-.184.976-.279 1.381-2.877 12.206-4.335 25.556-4.335 39.68 0 .062-.002.125-.007.187-.033.444-.021 1.023-.006 1.694.059 2.611.146 6.558-2.208 11.73-.697 1.532-1.41 4.01-1.429 6.092-.013 1.324-1.055 2.409-2.377 2.475-.133.007-.264.003-.393-.012-5.087 1.696-10.403 2.545-15.715 2.545zm-13.639-7.125c8.853 2.835 18.426 2.833 27.278 0 .31-2.316 1.038-4.538 1.724-6.045 1.881-4.133 1.814-7.136 1.761-9.548-.017-.73-.032-1.423.011-2.079.006-14.478 1.509-28.185 4.468-40.738.076-.324.15-.695.223-1.104 1.186-6.715-1.387-13.646-6.714-18.089-8.486-7.077-20.907-7.203-29.534-.301l-.335.269c-5.7 4.561-8.364 11.734-6.953 18.723.036.18.072.347.109.503 2.959 12.556 4.463 26.263 4.469 40.737.043.661.028 1.356.012 2.09-.052 2.411-.118 5.412 1.759 9.538.685 1.506 1.412 3.727 1.722 6.044z"/><path d="m122.605 115.485c-7.978 0-17.073-7.086-17.073-13.302 0-7.319 10.688-7.319 17.073-7.319s17.074 0 17.074 7.319c0 6.216-9.096 13.302-17.074 13.302zm0-15.621c-8.011 0-12.073.78-12.073 2.319 0 2.903 6.206 8.302 12.073 8.302 5.868 0 12.074-5.398 12.074-8.302 0-1.538-4.063-2.319-12.074-2.319z"/><path d="m102.888 132.249c-5.698 0-11.151-2.74-14.599-7.637-4.418-6.277-4.215-14.798.503-21.201 4.967-6.74 13.906-9.388 21.74-6.441.873.329 1.491 1.116 1.602 2.043.111.926-.303 1.837-1.074 2.362-.528.36-.528.599-.528.809 0 2.903 6.206 8.302 12.074 8.302s12.074-5.398 12.074-8.302c0-.21 0-.448-.529-.809-.771-.525-1.184-1.437-1.073-2.363s.729-1.713 1.602-2.042c7.834-2.947 16.771-.298 21.739 6.441 4.719 6.405 4.922 14.925.504 21.2-4.595 6.528-12.755 9.221-20.302 6.706l-14.014-4.672-14.014 4.672c-1.886.628-3.81.931-5.705.932zm1.063-31.476c-4.297 0-8.484 2.009-11.133 5.604-3.441 4.669-3.618 10.841-.44 15.356 3.313 4.705 9.192 6.651 14.632 4.839l14.804-4.935c.513-.17 1.068-.17 1.581 0l14.805 4.935c5.437 1.813 11.319-.132 14.633-4.84 3.177-4.515 3-10.686-.441-15.355-3.001-4.072-7.976-6.11-12.853-5.497.103.466.14.907.14 1.303 0 6.216-9.096 13.302-17.074 13.302-7.979 0-17.074-7.086-17.074-13.302 0-.396.037-.837.14-1.302-.573-.072-1.148-.108-1.72-.108z"/><path d="m122.619 146.505c-10.772 0-20.661-6.322-25.192-16.105-.4-.864-.274-1.882.324-2.622s1.567-1.072 2.496-.867c2.301.522 4.692.405 6.917-.337l14.804-4.935c.513-.17 1.068-.17 1.581 0l14.804 4.935c2.133.71 4.435.845 6.661.386.922-.191 1.879.158 2.465.899.586.742.703 1.75.304 2.606-4.547 9.744-14.424 16.04-25.164 16.04zm-18.353-14.313c4.239 5.766 11.049 9.312 18.353 9.312 7.309 0 14.13-3.557 18.37-9.335-1.433-.112-2.85-.397-4.217-.853h-.001l-14.013-4.672-14.014 4.672c-1.454.486-2.96.778-4.478.876z"/><path d="m169.636 38.672c-.776 0-1.536-.272-2.146-.788-.862-.729-1.293-1.834-1.153-2.954l.449-3.594-4.562.507c-1.155.124-2.259-.337-2.978-1.239-.715-.897-.917-2.079-.54-3.159 5.543-15.883 18.497-22.508 19.045-22.782.417-.208.886-.29 1.348-.253l.19.018c.865.08 1.626.603 2.011 1.381 2.927 5.913 5.094 15.746-1.203 29.013-.304.639-.863 1.119-1.541 1.322l-7.961 2.388c-.316.093-.639.14-.959.14zm-.925-12.56c.889 0 1.735.352 2.367.992.719.729 1.059 1.731.932 2.749l-.394 3.15 4.424-1.326c4.125-9.259 3.521-16.365 1.804-21.227-3.3 2.238-9.636 7.412-13.428 16.117l3.923-.436c.125-.012.249-.019.372-.019z"/><path d="m75.045 38.672c-.32 0-.643-.047-.959-.142l-7.95-2.385c-.677-.203-1.237-.684-1.54-1.322-6.301-13.272-4.139-23.104-1.215-29.016.385-.777 1.145-1.301 2.009-1.381l.189-.018c.464-.04.931.044 1.349.253.549.274 13.502 6.899 19.046 22.781.377 1.081.175 2.263-.541 3.16-.719.904-1.831 1.366-2.975 1.24l-4.563-.508.449 3.593v.001c.14 1.121-.292 2.225-1.154 2.954-.609.517-1.369.79-2.145.79zm-6.392-6.991 4.412 1.323-.394-3.149c-.127-1.019.212-2.021.932-2.75.72-.73 1.72-1.081 2.735-.973l3.928.437c-3.803-8.751-10.126-13.899-13.424-16.124-1.716 4.86-2.321 11.968 1.811 21.236z"/><path d="m100.717 256h-26.778c-3.854 0-7.151-2.538-8.018-6.173-.053-.222-.075-.449-.066-.677.188-4.851 4.135-8.649 8.985-8.649 2.572 0 4.943 1.117 6.603 2.913 1.618-1.514 3.787-2.413 6.147-2.413 2.46 0 4.73 1.004 6.375 2.653 1.646-1.649 3.916-2.653 6.375-2.653 4.181 0 7.778 2.841 8.748 6.909.176.738.006 1.507-.445 2.098-.89 3.484-4.118 5.992-7.926 5.992zm-5.684-5h5.684c1.636 0 2.992-1.126 3.152-2.619.007-.066.017-.134.029-.202-.669-1.317-2.025-2.178-3.558-2.178-1.885 0-3.52 1.325-3.91 3.16-.136.791-.649 1.486-1.397 1.839zm-13.329 0h11.195c-.492-.232-.91-.624-1.168-1.143-.103-.206-.177-.425-.22-.65-.373-1.858-2.019-3.206-3.919-3.206-1.872 0-3.472 1.274-3.892 3.099-.23.991-1.029 1.726-1.996 1.9zm-10.823-2.018c.383 1.023 1.439 2.018 3.058 2.018h6.881c-1.043-.187-1.872-1.02-2.031-2.093-.289-1.941-1.987-3.406-3.949-3.406-2.031 0-3.705 1.502-3.959 3.481zm33.018-.729v.004zm.001-.005v.005zm0-.004v.003s0-.002 0-.003zm0-.004v.003z"/><path d="m170.742 256h-26.778c-3.998 0-7.355-2.763-8.041-6.516-.21-.446-.287-.952-.204-1.455.721-4.362 4.451-7.528 8.872-7.528 2.572 0 4.942 1.117 6.603 2.913 1.618-1.514 3.787-2.413 6.147-2.413 2.46 0 4.729 1.004 6.375 2.654 1.646-1.65 3.915-2.654 6.375-2.654 4.191 0 7.887 2.971 8.785 7.063.058.262.073.531.045.798-.429 4.07-3.944 7.138-8.179 7.138zm-5.963-5h5.963c1.712 0 2.831-1.113 3.136-2.277-.54-1.6-2.07-2.722-3.787-2.722-1.905 0-3.555 1.354-3.922 3.22-.158.8-.689 1.449-1.39 1.779zm-13.326 0h11.199c-.701-.33-1.231-.979-1.39-1.779-.367-1.865-2.017-3.22-3.922-3.22-1.872 0-3.473 1.274-3.893 3.099-.227.992-1.025 1.726-1.994 1.9zm-10.657-2.748c.006.039.01.077.015.116.16 1.504 1.515 2.632 3.153 2.632h6.606c-1.043-.187-1.872-1.02-2.031-2.093-.289-1.942-1.986-3.406-3.948-3.406-1.756 0-3.268 1.126-3.795 2.751z"/><path d="m210.216 256h-22.743c-.769 0-1.495-.354-1.969-.96-1.252-1.6-1.913-3.515-1.913-5.539 0-4.963 4.037-9 9-9 2.572 0 4.942 1.117 6.603 2.913 1.618-1.514 3.787-2.413 6.147-2.413 2.604 0 5.079 1.13 6.79 3.102.228.262.397.567.5.898.811 2.614.816 5.666.019 9.069-.265 1.131-1.273 1.93-2.434 1.93zm-10.763-5h8.68c.186-1.481.142-2.813-.132-3.979-.729-.653-1.674-1.02-2.66-1.02-1.872 0-3.473 1.274-3.893 3.099-.228.992-1.026 1.726-1.995 1.9zm-10.57 0h9.688c-1.043-.187-1.872-1.02-2.031-2.093-.289-1.942-1.986-3.406-3.948-3.406-2.206 0-4 1.794-4 4-.001.521.098 1.027.291 1.499z"/><path d="m57.562 256h-23.097c-1.161 0-2.169-.799-2.434-1.93-.796-3.395-.792-6.438.012-9.049.102-.33.271-.636.497-.897 1.713-1.984 4.192-3.123 6.801-3.123 2.46 0 4.73 1.004 6.375 2.653 1.646-1.649 3.916-2.653 6.375-2.653 4.962 0 9 4.037 9 9 0 1.72-.492 3.396-1.423 4.849-.46.716-1.254 1.15-2.106 1.15zm-10.779-5h9.179c.084-.325.128-.66.128-.999 0-2.206-1.794-4-4-4-1.885 0-3.52 1.325-3.91 3.161-.136.79-.649 1.485-1.397 1.838zm-10.235 0h8.101c-.492-.232-.91-.624-1.168-1.143-.103-.206-.177-.425-.22-.649-.373-1.859-2.019-3.207-3.919-3.207-.987 0-1.934.37-2.664 1.03-.272 1.163-.315 2.491-.13 3.969z"/></svg>