<svg enable-background="new 0 0 256 256" height="512" viewBox="0 0 256 256" width="512" xmlns="http://www.w3.org/2000/svg"><path d="m236.609 206.235h7.417c-8.477-8.477-12.161-30.09-24.371-40.265-6.358-5.298-6.358-11.656-6.358-11.656l5.298-1.06c-5.298-16.954-19.073-26.49-19.073-26.49h7.417c-3.528-5.488-9.085-10.395-14.689-14.401-6.443-4.606-13.714-7.821-21.357-9.548-1.7 2.526-3.82 5.086-6.487 7.63 0 0 0 15.533-18.745 24.404-5.008 2.37-11.072 5.702-14.982 9.697-.684.698-1.642 1.087-2.644 1.087h-.035-.037c-1.002 0-1.96-.388-2.644-1.087-3.91-3.995-9.974-7.327-14.982-9.697-18.745-8.872-18.745-24.404-18.745-24.404-2.667-2.544-4.787-5.104-6.487-7.63-7.643 1.727-14.914 4.942-21.357 9.548-5.603 4.006-11.161 8.913-14.688 14.401h7.417s-13.775 9.537-19.073 26.49l5.298 1.06s0 6.358-6.358 11.656c-12.21 10.175-15.894 31.788-24.371 40.265h7.417s3.179 4.239 0 11.656 9.536-2.119 9.536-2.119l2.119 9.536 2.345-.902c.31-2.038 1.749-3.444 3.054-4.315 1.037-.692 1.309-2.072.699-3.16-2.092-3.731-.578-7.517-.578-7.517.384-1.153 1.273-1.739 2.521-1.913 9.064-1.267 37.488 19.705 35.625 10.39-1.191-5.956-2.127-10.634 3.312-12.075 2.046-.542 4.173.572 5.032 2.506l5.654 12.723c.804 1.81 2.422 4.598 3.507 6.255 2.484 3.792 2.769 8.433 1.526 12.75 3.846.005 7.756-.286 11.5-1.039 2.999-.603 6.087-.544 9.031.287 4.411 1.245 9.004 1.905 13.724 1.905 4.719 0 9.313-.659 13.724-1.905 2.943-.831 6.032-.89 9.03-.287 3.744.753 7.655 1.044 11.5 1.039-1.243-4.316-.958-8.957 1.526-12.75 1.085-1.657 2.703-4.446 3.507-6.255l5.654-12.723c.859-1.934 2.987-3.048 5.032-2.506 5.439 1.441 4.503 6.119 3.312 12.075-1.863 9.314 26.561-11.657 35.625-10.39 1.247.174 2.136.76 2.521 1.913 0 0 1.514 3.785-.577 7.517-.609 1.087-.338 2.469.699 3.161 1.305.871 2.744 2.277 3.054 4.315l2.345.902 2.119-9.536s12.715 9.536 9.536 2.119.005-11.657.005-11.657z" fill="#9e512b"/><path d="m179.942 76.184c0-17.594-11.651-33.336-11.651-33.336l4.854.926c-4.499-8.582-12.334-12.398-19.64-23.967l7.921 1.743c-7.766-12.963-16.504-14.815-16.504-14.815l5.825-1.852c-20.388-6.482-31.23 2.315-31.23 2.315l1.133-4.167c-9.281 3.098-14.346 8.521-17.105 13.339-3.754 6.555-8.209 12.719-13.543 18.187-2.78 2.85-5.258 5.613-7.147 9.217l4.854-.926s-11.651 15.742-11.651 33.336l4.854-3.704s-8.738 19.446 10.68 37.966c0 0 0 15.533 18.745 24.404 5.008 2.37 11.072 5.702 14.982 9.696.684.699 1.642 1.087 2.644 1.087h.037.037c1.002 0 1.96-.388 2.644-1.087 3.91-3.995 9.974-7.327 14.982-9.696 18.745-8.871 18.745-24.404 18.745-24.404 19.418-18.52 10.68-37.966 10.68-37.966z" fill="#9e512b"/><g fill="#828487"><path d="m221.295 229.431c3.032-4.934.446-7.88-1.739-9.339-1.029-.687-1.343-2.034-.73-3.108 2.136-3.748.607-7.57.607-7.57-3.179-9.536-40.265 19.073-38.146 8.477 1.186-5.932 2.119-10.596-3.247-12.058-2.217-.604-4.459 1.051-5.392 3.15l-5.36 12.061c-.738 1.66-2.111 4.292-3.172 5.767-8.858 12.305 6.659 34.467 22.469 23.927 16.209-10.806 25.43-8.477 31.788-11.656 4.54-2.27 3.677-5.621 2.812-7.352-.368-.734-.32-1.598.11-2.299z"/><path d="m34.705 229.431c-3.032-4.934-.446-7.88 1.739-9.339 1.029-.687 1.343-2.034.73-3.108-2.136-3.748-.607-7.57-.607-7.57 3.179-9.536 40.265 19.073 38.146 8.477-1.186-5.932-2.119-10.596 3.247-12.058 2.217-.604 4.459 1.051 5.392 3.15l5.36 12.061c.738 1.66 2.111 4.292 3.172 5.767 8.858 12.305-6.659 34.467-22.469 23.927-16.209-10.806-25.43-8.477-31.788-11.656-4.54-2.27-3.677-5.621-2.812-7.352.368-.734.32-1.598-.11-2.299z"/><path d="m236.609 206.235s-3.179 4.238 0 11.656c3.179 7.417-9.536-2.119-9.536-2.119l-2.119 9.536-2.345-.902c.209 1.375-.091 3.036-1.313 5.025-.431.701-.478 1.565-.11 2.3.865 1.73 1.729 5.081-2.812 7.352-1.252.626-2.617 1.037-4.123 1.379 2.74-.05 6.011-1.223 8.567-2.373 1.19-.535 2.393.724 1.799 1.885-1.882 3.682-3.559 8.816.338 10.765 4.238 2.119 19.073 0 22.252-15.894 3.177-15.895-10.598-28.61-10.598-28.61z"/><path d="m33.183 238.088c2.556 1.15 5.827 2.323 8.567 2.373-1.506-.341-2.871-.753-4.123-1.379-4.54-2.27-3.677-5.621-2.812-7.352.368-.736.32-1.599-.11-2.3-1.222-1.989-1.522-3.65-1.313-5.025l-2.345.902-2.119-9.536s-12.715 9.536-9.536 2.119 0-11.656 0-11.656-13.776 12.716-10.597 28.61 18.013 18.013 22.252 15.894c3.897-1.949 2.22-7.083.338-10.765-.594-1.161.609-2.42 1.798-1.885z"/><path d="m140.463 72.187c3.196.569 6.316 1.351 9.345 2.332 1.361.441 2.881-.139 3.502-1.376 1.858-3.699 2.902-7.865 2.902-12.27 0-10.018-5.4-18.791-13.491-23.668-2.167-1.306-4.005-3.038-5.357-5.115-.986-1.514-1.886-2.715-2.425-3.406-.253-.324-.763-.308-.998.028l-1.156 1.653c-.148.212-.474.212-.622 0l-2.908-4.161c-.27-.387-.869-.328-1.068.096-.582 1.245-1.514 2.476-2.629 3.648-2.117 2.225-4.785 3.922-7.713 5.033-10.563 4.01-18.058 14.088-18.058 25.892 0 4.362 1.024 8.488 2.847 12.16.636 1.281 2.152 1.94 3.559 1.484 3.028-.981 6.147-1.763 9.343-2.331-9.329 4.678-15.749 14.438-15.749 25.726 0 15.836 12.631 28.674 28.212 28.674s28.212-12.838 28.212-28.674c.001-11.287-6.42-21.047-15.748-25.725z"/><path d="m143.864 135.724c-4.601 2.288-9.731 5.295-13.184 8.823-.684.698-1.642 1.087-2.644 1.087h-.036-.037c-1.002 0-1.96-.388-2.644-1.087-3.452-3.527-8.582-6.535-13.183-8.823-12.125 7.643-20.484 23.77-20.484 42.432 0 26.042 16.273 47.152 36.347 47.152s36.347-21.111 36.347-47.152c.001-18.663-8.357-34.79-20.482-42.432z"/></g><path d="m178.12 256.018c-5.15 0-9.668-2.551-12.801-5.798-5.867-6.082-8.994-16.865-3.232-24.869.899-1.249 2.189-3.687 2.917-5.322l5.36-12.06c1.311-2.948 4.684-5.541 8.332-4.547 7.318 1.994 6.289 8.663 5.179 14.273 2.608-.562 8.347-3.396 12.33-5.363 10.838-5.351 18.271-8.72 22.66-6.89 1.412.589 2.422 1.672 2.923 3.134.26.705 1.715 5.118-.72 9.521 4.45 3.045 5.343 7.739 2.389 12.59.817 1.666 1.097 3.381.809 4.965-.3 1.646-1.371 3.965-4.774 5.667-2.461 1.231-5.133 1.714-8.227 2.273-5.779 1.045-12.973 2.346-23.293 9.226-3.404 2.269-6.743 3.199-9.852 3.2zm-1.006-47.808c-.766 0-1.726.763-2.182 1.789l-5.36 12.061c-.679 1.528-2.152 4.442-3.428 6.212-4.177 5.803-1.688 13.851 2.773 18.476 1.759 1.822 8.126 7.346 16.28 1.91 11.183-7.455 19.271-8.918 25.177-9.986 2.827-.511 5.06-.915 6.88-1.825 1.249-.625 1.953-1.328 2.092-2.09.129-.709-.194-1.499-.398-1.907-.755-1.513-.673-3.279.217-4.728 1.614-2.627 1.316-4.407-.997-5.951-2.102-1.403-2.767-4.225-1.515-6.425 1.498-2.627.469-5.376.458-5.403-.018-.045-.035-.092-.051-.138-.027-.083-.05-.112-.05-.112-.008-.006-1.06-.753-6.058 1.038-3.732 1.338-8.207 3.547-12.534 5.684-10.226 5.049-15.273 7.377-18.227 5.109-.732-.562-1.882-1.897-1.356-4.524 1.413-7.065 1.195-8.434-1.453-9.155-.085-.023-.175-.035-.268-.035zm44.181 21.221h.01z"/><path d="m77.88 256.018c-3.109 0-6.448-.93-9.852-3.199-10.32-6.88-17.514-8.181-23.293-9.226-3.094-.56-5.766-1.042-8.227-2.273-3.403-1.702-4.475-4.021-4.774-5.667-.288-1.583-.009-3.298.809-4.965-2.954-4.852-2.062-9.545 2.389-12.59-2.435-4.402-.979-8.815-.72-9.521.501-1.462 1.511-2.545 2.923-3.134 4.389-1.832 11.821 1.539 22.66 6.89 3.983 1.967 9.722 4.8 12.33 5.363-1.11-5.61-2.14-12.28 5.178-14.273 3.647-.997 7.022 1.599 8.333 4.547l5.36 12.062c.726 1.631 2.014 4.068 2.916 5.321 5.763 8.005 2.636 18.788-3.231 24.87-3.133 3.243-7.652 5.794-12.801 5.795zm-41.045-27.896c.89 1.448.972 3.215.218 4.726-.205.41-.528 1.2-.399 1.909.139.762.843 1.465 2.092 2.09 1.82.91 4.053 1.313 6.88 1.825 5.905 1.068 13.994 2.531 25.177 9.986 8.151 5.434 14.522-.088 16.28-1.91 4.462-4.625 6.95-12.673 2.772-18.477-1.278-1.776-2.75-4.688-3.428-6.212l-5.359-12.061c-.512-1.15-1.649-1.971-2.451-1.753-2.647.722-2.865 2.09-1.452 9.155.525 2.626-.624 3.962-1.356 4.524-2.953 2.268-7.999-.06-18.227-5.109-4.327-2.137-8.802-4.346-12.534-5.684-4.992-1.79-6.045-1.047-6.059-1.037s-.021.029-.049.11c-.016.046-.033.093-.051.138-.035.092-1.028 2.796.457 5.403 1.253 2.2.588 5.022-1.514 6.425-2.313 1.545-2.611 3.325-.997 5.952z"/><path d="m128 243.702c-4.85 0-9.685-.669-14.37-1.989-2.49-.702-5.221-.789-7.892-.251-3.617.727-7.641 1.065-11.996 1.088-.785-.001-1.523-.371-1.995-.998s-.621-1.439-.404-2.194c1.196-4.153.667-8.091-1.488-11.086-1.278-1.776-2.75-4.688-3.428-6.212l-5.359-12.061c-.512-1.15-1.649-1.971-2.451-1.753-2.647.722-2.865 2.09-1.452 9.155.525 2.627-.624 3.962-1.356 4.524-2.953 2.267-7.999-.06-18.225-5.105-6.597-3.256-14.781-7.31-18.149-6.843-1.236.17-2.426-.604-2.757-1.817-1.614-5.901-1.655-12.146-.122-18.56 1.573-6.585 4.708-10.911 9.317-12.855 5.087-2.146 11.663-1.252 19.595 2.651-.594-4.271-.894-8.59-.894-12.896 0-1.381 1.119-2.5 2.5-2.5s2.5 1.119 2.5 2.5c0 5.72.559 11.463 1.66 17.07.19.968-.207 1.958-1.014 2.526-.808.569-1.873.608-2.72.103-5.891-3.513-14.088-7.208-19.685-4.847-3.062 1.292-5.214 4.458-6.397 9.41-1.176 4.92-1.295 9.702-.358 14.243 4.855.479 11.628 3.822 18.736 7.33 3.983 1.966 9.722 4.798 12.329 5.36-1.11-5.611-2.141-12.281 5.178-14.275 3.647-.997 7.022 1.599 8.333 4.547l5.36 12.062c.726 1.631 2.014 4.068 2.916 5.321 2.477 3.441 3.473 7.662 2.91 12.134 2.84-.126 5.497-.436 7.93-.925 3.447-.691 6.984-.574 10.233.341 8.49 2.391 17.539 2.391 26.029 0 3.249-.917 6.788-1.033 10.232-.341 2.434.489 5.091.799 7.931.925-.562-4.473.434-8.693 2.909-12.134.899-1.249 2.189-3.687 2.917-5.322l5.36-12.06c1.311-2.948 4.684-5.541 8.332-4.547 7.319 1.994 6.289 8.664 5.179 14.275 2.607-.562 8.345-3.394 12.328-5.36 7.108-3.509 13.882-6.851 18.737-7.331.937-4.542.817-9.323-.358-14.243-1.184-4.953-3.336-8.119-6.397-9.41-5.594-2.359-13.793 1.333-19.686 4.847-.847.505-1.912.466-2.72-.103-.807-.568-1.204-1.558-1.014-2.526 1.103-5.61 1.661-11.353 1.661-17.07 0-1.381 1.119-2.5 2.5-2.5s2.5 1.119 2.5 2.5c0 4.305-.3 8.624-.895 12.896 7.934-3.903 14.509-4.798 19.597-2.651 4.608 1.944 7.743 6.269 9.316 12.854 1.533 6.414 1.492 12.659-.122 18.56-.331 1.213-1.524 1.986-2.757 1.817-3.345-.467-11.553 3.586-18.15 6.843-10.227 5.048-15.274 7.37-18.224 5.105-.732-.562-1.882-1.897-1.356-4.524 1.413-7.065 1.195-8.434-1.453-9.155-.797-.217-1.938.604-2.45 1.754l-5.36 12.061c-.679 1.528-2.152 4.442-3.428 6.212-2.154 2.995-2.684 6.932-1.487 11.085.217.754.067 1.567-.404 2.194-.491.653-1.276.998-2.092.998-4.306 0-8.308-.366-11.899-1.088-2.668-.538-5.399-.451-7.892.251-4.684 1.321-9.519 1.99-14.369 1.99z"/><path d="m228.691 253.912c-1.975 0-3.673-.346-4.856-.938-1.651-.826-2.817-2.153-3.371-3.838-.68-2.069-.428-4.646.746-7.686-2.619.967-4.937 1.475-6.914 1.511-1.285.054-2.373-.926-2.527-2.199-.154-1.272.679-2.456 1.929-2.739 1.524-.346 2.622-.708 3.558-1.176 1.249-.625 1.953-1.328 2.092-2.09.129-.709-.194-1.499-.398-1.907-.755-1.513-.673-3.279.217-4.728.787-1.28 1.114-2.404.972-3.341-.134-.88.211-1.766.905-2.324.594-.477 1.369-.651 2.094-.496l1.497-6.733c.185-.829.776-1.507 1.573-1.802.794-.296 1.687-.165 2.367.344 1.705 1.278 3.572 2.491 5.063 3.327-2.508-7.587.819-12.158.973-12.363.425-.566 1.068-.925 1.773-.99.701-.062 1.402.173 1.922.653.604.558 14.767 13.863 11.352 30.936-1.508 7.54-5.781 13.377-12.034 16.435-3.091 1.512-6.265 2.144-8.933 2.144zm-4.41-18.351c.712.169 1.377.545 1.916 1.111 1.151 1.209 1.404 2.952.644 4.438-2.061 4.032-1.824 5.864-1.627 6.465.098.295.274.635.857.927 1.181.59 5.138.838 9.354-1.225 3.41-1.668 7.797-5.264 9.329-12.924 1.987-9.94-3.49-18.711-7.053-23.171-.056 1.469.204 3.386 1.206 5.723 1.099 2.565.918 4.446-.539 5.591-.837.657-2.661 2.092-9.67-2.517l-1.305 5.871c-.158.71-.617 1.316-1.259 1.661-.421.226-.892.325-1.359.291-.285.948-.725 1.912-1.318 2.885.802 1.634 1.086 3.316.824 4.874zm10.339-15.759h.011z"/><path d="m128 243.702c-4.861 0-9.707-.672-14.403-1.999-2.499-.705-5.143-.788-7.858-.242-3.591.722-7.598 1.088-11.909 1.088-.806.007-1.593-.347-2.082-.998-.472-.627-.621-1.44-.404-2.194 1.14-3.957.708-7.752-1.215-10.688-1.152-1.759-2.841-4.673-3.701-6.61l-5.653-12.722c-.377-.848-1.282-1.322-2.107-1.105-2.694.714-2.919 2.085-1.502 9.168.525 2.627-.624 3.962-1.356 4.524-2.95 2.268-7.998-.058-18.224-5.105-6.598-3.256-14.802-7.312-18.15-6.843-.349.048-.453.131-.454.131-.001.003-.02.034-.04.096-.016.047-.032.093-.051.139-.034.091-1.019 2.77.437 5.366 1.25 2.23.595 5.068-1.491 6.461-.8.533-1.79 1.419-1.971 2.611-.135.888-.735 1.635-1.574 1.958l-2.345.902c-.678.262-1.439.213-2.079-.13-.642-.344-1.101-.95-1.259-1.661l-1.306-5.874c-7.027 4.601-8.902 3.121-9.669 2.52-1.457-1.145-1.638-3.026-.539-5.591 1.716-4.004 1.255-6.776.762-8.171h-5.881c-1.011 0-1.923-.609-2.31-1.543s-.173-2.009.542-2.724c3.394-3.395 6.118-9.482 9.003-15.927 3.861-8.629 8.239-18.41 15.535-24.491 3.293-2.744 4.601-5.809 5.119-7.753l-2.949-.59c-.695-.139-1.299-.567-1.66-1.176-.361-.61-.447-1.345-.235-2.021 3.378-10.812 9.961-18.689 14.663-23.245h-.624c-.914 0-1.756-.5-2.194-1.302s-.403-1.78.092-2.55c3.249-5.054 8.409-10.129 15.337-15.083 6.683-4.777 14.172-8.125 22.26-9.953 1.009-.229 2.048.187 2.625 1.042 1.698 2.523 3.764 4.952 6.139 7.216.494.472.774 1.125.774 1.809.006.56.339 14.11 17.315 22.145 7.056 3.339 12.338 6.774 15.699 10.208.208.213.521.335.856.335.41 0 .723-.123.932-.336 3.358-3.433 8.641-6.867 15.698-10.208 17.117-8.101 17.315-22.005 17.315-22.145 0-.684.28-1.337.774-1.809 2.375-2.265 4.44-4.693 6.139-7.216.577-.855 1.615-1.271 2.625-1.042 8.088 1.827 15.577 5.176 22.26 9.953 6.925 4.951 12.085 10.025 15.337 15.083.495.769.53 1.747.092 2.55s-1.279 1.302-2.194 1.302h-.622c4.702 4.556 11.285 12.433 14.663 23.245.212.676.126 1.411-.235 2.021-.361.609-.965 1.037-1.66 1.176l-2.962.592c.508 1.936 1.809 4.981 5.132 7.751 7.296 6.081 11.674 15.861 15.535 24.491 2.885 6.445 5.609 12.532 9.003 15.927.715.715.929 1.79.542 2.724-.387.935-1.299 1.543-2.31 1.543h-5.881c-.493 1.395-.954 4.167.762 8.171 1.099 2.564.918 4.446-.539 5.591-.766.601-2.646 2.08-9.669-2.52l-1.306 5.874c-.158.71-.617 1.316-1.259 1.661-.641.344-1.401.393-2.079.13l-2.345-.902c-.839-.322-1.439-1.07-1.574-1.958-.181-1.192-1.171-2.078-1.97-2.61-2.087-1.394-2.742-4.232-1.492-6.462 1.467-2.617.447-5.339.437-5.366-.019-.046-.035-.092-.051-.139-.021-.062-.038-.092-.044-.099-.001 0-.108-.08-.45-.128-3.341-.46-11.551 3.586-18.15 6.843-10.227 5.048-15.274 7.37-18.224 5.105-.732-.562-1.882-1.897-1.356-4.524 1.417-7.083 1.192-8.455-1.502-9.168-.826-.22-1.73.256-2.107 1.105l-5.654 12.723c-.86 1.938-2.548 4.852-3.699 6.61-1.924 2.936-2.355 6.731-1.216 10.688.217.754.067 1.567-.404 2.194-.489.65-1.304.996-2.082.998-4.312 0-8.318-.366-11.91-1.088-2.672-.538-5.391-.455-7.857.242-4.7 1.327-9.546 1.999-14.406 1.999zm-18.78-7.59c1.963 0 3.898.26 5.736.779 8.507 2.402 17.577 2.403 26.088 0 3.228-.911 6.756-1.025 10.203-.333 2.432.489 5.09.799 7.933.925-.524-4.214.332-8.229 2.511-11.555 1.058-1.616 2.587-4.265 3.312-5.9l5.655-12.723c1.362-3.069 4.781-4.751 7.957-3.908 7.408 1.963 6.375 8.662 5.26 14.296 2.607-.562 8.345-3.394 12.328-5.359 8.326-4.109 16.197-7.984 21.055-7.312 2.247.314 3.854 1.575 4.531 3.553.26.707 1.712 5.118-.722 9.52.976.667 1.788 1.426 2.425 2.259l1.14-5.127c.185-.829.776-1.507 1.572-1.802.797-.296 1.688-.165 2.368.344 1.705 1.278 3.572 2.492 5.064 3.328-2.508-7.587.819-12.159.973-12.364.472-.629 1.213-1 2-1h2.267c-2.431-3.728-4.498-8.346-6.648-13.152-3.818-8.531-7.767-17.353-14.173-22.692-7.175-5.979-7.257-13.269-7.257-13.576 0-1.192.841-2.218 2.01-2.452l2.485-.497c-5.493-14.316-17.069-22.46-17.192-22.545-.899-.623-1.289-1.757-.964-2.801.326-1.043 1.293-1.754 2.387-1.754h2.418c-2.814-3.275-6.545-6.58-11.144-9.867-5.688-4.067-12.019-7.007-18.834-8.753-1.503 2.054-3.218 4.037-5.118 5.918-.369 3.972-2.896 17.398-20.114 25.546-6.521 3.086-11.319 6.176-14.264 9.186-1.145 1.168-2.759 1.838-4.431 1.838-1.746 0-3.36-.67-4.504-1.838-2.946-3.01-7.745-6.101-14.265-9.186-17.218-8.148-19.745-21.575-20.114-25.546-1.9-1.882-3.615-3.865-5.118-5.918-6.815 1.746-13.146 4.686-18.834 8.753-4.6 3.289-8.33 6.593-11.144 9.867h2.418c1.094 0 2.061.711 2.387 1.754.325 1.044-.064 2.179-.964 2.801-.121.084-11.712 8.283-17.191 22.546l2.484.497c1.169.234 2.01 1.26 2.01 2.452 0 .308-.082 7.598-7.257 13.576-6.406 5.339-10.354 14.161-14.173 22.692-2.15 4.806-4.218 9.424-6.648 13.152h2.267c.787 0 1.528.371 2 1 .153.205 3.48 4.776.973 12.363 1.491-.836 3.358-2.049 5.063-3.327.681-.509 1.572-.64 2.367-.344.797.294 1.389.973 1.573 1.802l1.14 5.127c.638-.833 1.449-1.592 2.425-2.26-2.432-4.403-.98-8.812-.721-9.519.677-1.978 2.284-3.239 4.531-3.553 4.861-.675 12.729 3.201 21.055 7.312 3.983 1.966 9.721 4.798 12.328 5.36-1.115-5.635-2.148-12.334 5.26-14.297 3.18-.842 6.594.84 7.957 3.908l5.654 12.723c.727 1.635 2.256 4.284 3.314 5.9 2.178 3.325 3.034 7.339 2.51 11.555 2.842-.126 5.5-.436 7.932-.925 1.484-.298 2.984-.447 4.468-.447zm125.4-16.31h.011z"/><path d="m27.309 253.912c-2.668 0-5.841-.632-8.931-2.143-6.253-3.058-10.526-8.895-12.034-16.435-3.415-17.073 10.747-30.378 11.352-30.936.519-.479 1.221-.714 1.922-.653.705.064 1.349.424 1.773.99.153.205 3.48 4.776.973 12.364 1.492-.836 3.359-2.05 5.063-3.328.681-.509 1.572-.639 2.367-.345.797.294 1.389.973 1.573 1.802l1.497 6.733c.727-.155 1.5.019 2.094.496.694.558 1.039 1.443.905 2.324-.143.937.185 2.061.972 3.341.89 1.448.972 3.215.218 4.726-.205.41-.528 1.2-.399 1.909.139.762.843 1.465 2.092 2.09.936.468 2.033.831 3.558 1.176 1.25.283 2.083 1.466 1.929 2.739s-1.269 2.223-2.527 2.199c-1.979-.036-4.295-.543-6.914-1.511 1.174 3.039 1.426 5.616.746 7.686-.554 1.686-1.72 3.013-3.371 3.838-1.186.592-2.884.938-4.858.938zm-9.01-42.729c-3.562 4.458-9.041 13.23-7.053 23.171 1.532 7.66 5.919 11.256 9.329 12.924 4.215 2.062 8.173 1.813 9.354 1.225.583-.292.76-.632.857-.927.197-.601.434-2.433-1.628-6.465-.76-1.486-.507-3.229.645-4.438.538-.566 1.204-.942 1.916-1.112-.262-1.558.022-3.239.824-4.874-.594-.974-1.033-1.937-1.318-2.886-.468.035-.938-.064-1.359-.291-.642-.344-1.101-.95-1.259-1.661l-1.305-5.871c-7.009 4.608-8.833 3.175-9.67 2.517-1.457-1.145-1.638-3.026-.539-5.591 1.002-2.335 1.261-4.253 1.206-5.721zm13.859 29.185s.001.001.002.001c-.001 0-.002 0-.002-.001z"/><path d="m77.247 193.901c-.584 0-1.171-.204-1.646-.619l-8.477-7.417c-1.039-.909-1.145-2.489-.235-3.528.91-1.038 2.487-1.146 3.528-.235l8.477 7.417c1.039.909 1.145 2.489.235 3.528-.494.565-1.186.854-1.882.854z"/><path d="m178.971 193.901c-.696 0-1.389-.289-1.883-.854-.909-1.039-.804-2.618.235-3.527l8.478-7.417c1.041-.91 2.62-.803 3.528.235.909 1.039.804 2.618-.235 3.527l-8.478 7.417c-.474.415-1.061.619-1.645.619z"/><path d="m183.375 153.555c-.922 0-1.809-.512-2.244-1.394-2.345-4.752-4.473-8.339-4.494-8.375-.375-.63-.454-1.394-.217-2.087s.768-1.249 1.45-1.517l2.77-1.09-10.328-14.47c-.802-1.124-.541-2.685.583-3.487s2.685-.542 3.487.583l12.188 17.076c.447.626.58 1.424.362 2.162-.219.738-.766 1.334-1.482 1.616l-3.063 1.206c.855 1.546 2.009 3.696 3.229 6.17.61 1.238.103 2.737-1.136 3.348-.356.176-.734.259-1.105.259z"/><path d="m70.725 153.555c-.371 0-.749-.083-1.104-.259-1.238-.611-1.746-2.11-1.136-3.348 1.222-2.474 2.374-4.624 3.23-6.17l-3.064-1.206c-.717-.282-1.264-.878-1.482-1.617-.218-.738-.085-1.536.362-2.162l12.188-17.076c.803-1.125 2.363-1.385 3.487-.583s1.385 2.363.583 3.487l-10.327 14.47 2.77 1.09c.683.269 1.213.823 1.45 1.517s.158 1.458-.217 2.087c-.021.036-2.155 3.635-4.495 8.375-.437.883-1.324 1.395-2.245 1.395z"/><path d="m128.037 148.133c-1.746 0-3.36-.67-4.504-1.838-2.947-3.01-7.746-6.101-14.265-9.186-17.217-8.147-19.744-21.573-20.114-25.546-10.041-9.932-12.45-20.107-12.683-26.961-.075-2.235.068-4.266.312-6.026-.601.183-1.257.135-1.835-.151-.853-.422-1.392-1.29-1.392-2.241 0-12.392 5.394-23.734 8.996-29.928-.671-.082-1.292-.433-1.707-.993-.571-.771-.651-1.8-.206-2.65 2.134-4.07 4.91-7.074 7.572-9.802 4.878-5.001 9.307-10.951 13.162-17.684 3.843-6.711 10.234-11.715 18.483-14.469.876-.291 1.838-.079 2.509.554.356.336.599.762.711 1.221 5.405-2.192 14.994-4.203 28.427.066 1.037.33 1.742 1.293 1.742 2.382 0 1.036-.638 1.958-1.593 2.33 3.44 2.275 7.835 6.239 11.917 13.054.513.856.468 1.935-.115 2.745s-1.595 1.197-2.566.981l-1.598-.352c2.336 2.934 4.672 5.296 6.957 7.606 3.449 3.489 6.708 6.783 9.11 11.367.445.85.365 1.879-.206 2.65-.415.56-1.036.911-1.707.993 3.603 6.194 8.996 17.536 8.996 29.928 0 .951-.539 1.819-1.392 2.241-.577.287-1.234.334-1.835.151.244 1.761.388 3.791.312 6.026-.232 6.854-2.642 17.029-12.683 26.961-.37 3.973-2.897 17.398-20.114 25.546-6.52 3.086-11.319 6.176-14.264 9.186-1.141 1.169-2.755 1.839-4.427 1.839zm-47.125-78.153c.55 0 1.099.181 1.554.542.896.711 1.195 1.939.727 2.983-.319.725-7.7 18.131 10.125 35.132.494.472.774 1.125.774 1.809.006.56.339 14.11 17.315 22.144 7.056 3.339 12.337 6.773 15.698 10.208.209.213.521.335.857.335.41 0 .723-.123.932-.336 3.359-3.433 8.642-6.868 15.698-10.208 16.977-8.034 17.31-21.584 17.315-22.157.007-.674.286-1.331.774-1.796 17.825-17.001 10.444-34.408 10.121-35.14-.46-1.044-.157-2.271.739-2.977s2.153-.72 3.062-.027l.474.361c-1.911-14.323-10.698-26.385-10.798-26.52-.61-.828-.652-1.946-.104-2.817.392-.622 1.026-1.027 1.726-1.138-1.541-1.909-3.3-3.687-5.208-5.617-3.501-3.541-7.47-7.554-11.301-13.62-.539-.853-.513-1.946.067-2.771.579-.826 1.601-1.224 2.583-1.005l1.688.371c-5.855-7.199-11.264-8.543-11.328-8.557-1.11-.235-1.922-1.189-1.979-2.322-.023-.479.091-.94.312-1.338-14.163-2.268-21.56 3.55-21.645 3.619-.843.685-2.031.746-2.939.153-.716-.466-1.131-1.254-1.136-2.079-4.957 2.452-8.748 5.936-11.303 10.399-4.065 7.099-8.75 13.387-13.923 18.691-1.399 1.434-2.619 2.75-3.691 4.076.698.111 1.332.517 1.724 1.138.548.871.506 1.989-.104 2.817-.1.135-8.887 12.197-10.798 26.52l.474-.361c.45-.342.984-.512 1.518-.512z"/><path d="m134.849 62.807c-1.377 0-2.495-1.114-2.5-2.492-.014-4.067 3.284-7.387 7.352-7.4h.024c4.057 0 7.362 3.293 7.376 7.352.005 1.381-1.111 2.504-2.492 2.508-.002 0-.005 0-.008 0-1.377 0-2.495-1.114-2.5-2.492-.004-1.308-1.069-2.369-2.377-2.369-.002 0-.005 0-.008 0-1.31.004-2.371 1.073-2.367 2.383.005 1.381-1.111 2.504-2.492 2.508-.003.002-.005.002-.008.002z"/><path d="m121.124 62.791c-1.381 0-2.5-1.119-2.5-2.5 0-1.31-1.065-2.376-2.376-2.376s-2.376 1.066-2.376 2.376c0 1.381-1.119 2.5-2.5 2.5s-2.5-1.119-2.5-2.5c0-4.067 3.309-7.376 7.376-7.376s7.376 3.309 7.376 7.376c0 1.381-1.119 2.5-2.5 2.5z"/><path d="m128 129.088c-16.935 0-30.712-13.985-30.712-31.174 0-7.848 2.83-15.162 7.767-20.759-1.938-.087-3.762-1.203-4.658-3.009-2.062-4.153-3.108-8.619-3.108-13.271 0-12.418 7.905-23.763 19.67-28.229 2.648-1.004 4.995-2.532 6.789-4.418 1.019-1.07 1.751-2.075 2.178-2.986.468-1.002 1.448-1.686 2.558-1.782 1.112-.096 2.188.408 2.822 1.314l1.264 1.809c.513-.385 1.142-.611 1.799-.629.027 0 .056-.001.084-.001.957 0 1.871.443 2.458 1.196.604.774 1.536 2.023 2.549 3.58 1.134 1.741 2.666 3.2 4.554 4.338 9.205 5.548 14.7 15.197 14.7 25.809 0 4.699-1.066 9.205-3.168 13.391-.877 1.747-2.675 2.819-4.593 2.896 4.933 5.597 7.761 12.909 7.761 20.753-.002 17.187-13.779 31.172-30.714 31.172zm-12.461-59.401c1.06 0 2.026.677 2.371 1.713.391 1.179-.143 2.466-1.253 3.022-8.863 4.444-14.369 13.445-14.369 23.491 0 14.433 11.534 26.174 25.712 26.174s25.712-11.742 25.712-26.174c0-10.045-5.506-19.046-14.37-23.491-1.109-.557-1.643-1.844-1.252-3.022.393-1.179 1.588-1.892 2.811-1.674 3.272.582 6.528 1.395 9.678 2.415.236.078.455-.034.497-.119 1.75-3.484 2.637-7.234 2.637-11.147 0-8.844-4.592-16.891-12.282-21.527-2.539-1.531-4.612-3.513-6.161-5.892-.282-.433-.556-.838-.816-1.213-.528.497-1.234.783-1.978.783-.942 0-1.824-.459-2.361-1.229l-1.278-1.829c-.434.565-.922 1.134-1.465 1.705-2.307 2.426-5.294 4.378-8.638 5.647-9.836 3.734-16.444 13.2-16.444 23.555 0 3.874.87 7.591 2.587 11.048.081.165.314.29.55.218 3.148-1.02 6.403-1.832 9.675-2.414.145-.027.292-.04.437-.04zm20.454-39.545-.004.005c.001-.001.002-.003.004-.005zm-5.256-1.21c-.001.001-.002.002-.003.004zm-.284-1.573c0 .001-.001.003-.002.005.001-.001.002-.003.002-.005z"/><path d="m128 107.445c-9.298 0-17.94-2.009-23.711-5.511-1.181-.716-1.557-2.254-.84-3.435.717-1.18 2.255-1.556 3.434-.84 4.938 2.997 12.832 4.786 21.117 4.786s16.18-1.789 21.117-4.786c1.179-.717 2.717-.341 3.434.84s.341 2.718-.84 3.435c-5.771 3.503-14.413 5.511-23.711 5.511z"/><path d="m133.443 82.389c-1.109 0-2.122-.744-2.416-1.867l-.971-3.704c-.351-1.335.448-2.702 1.784-3.052 1.332-.352 2.702.449 3.052 1.785l.971 3.704c.351 1.335-.448 2.702-1.784 3.052-.212.055-.426.082-.636.082z"/><path d="m122.282 82.389c-.21 0-.423-.026-.636-.082-1.336-.35-2.135-1.717-1.784-3.052l.971-3.704c.35-1.335 1.714-2.136 3.052-1.785 1.336.35 2.135 1.717 1.784 3.052l-.971 3.704c-.294 1.123-1.307 1.867-2.416 1.867z"/><path d="m128 227.808c-21.421 0-38.848-22.274-38.848-49.652 0-19.06 8.296-36.129 21.65-44.547.737-.465 1.665-.512 2.445-.124 6.129 3.046 10.791 6.179 13.858 9.313.208.213.521.335.856.335.41 0 .723-.123.932-.336 3.064-3.132 7.728-6.265 13.856-9.312.78-.389 1.709-.341 2.446.124 13.354 8.418 21.65 25.487 21.65 44.547.003 27.378-17.424 49.652-38.845 49.652zm-15.697-89.197c-11.067 7.688-18.15 23.024-18.15 39.545 0 24.622 15.184 44.652 33.848 44.652s33.848-20.031 33.848-44.652c0-16.521-7.083-31.857-18.149-39.545-4.99 2.582-8.764 5.164-11.23 7.684-1.145 1.168-2.759 1.838-4.431 1.838-1.746 0-3.36-.67-4.504-1.838-2.47-2.522-6.244-5.103-11.232-7.684z"/></svg>