<svg enable-background="new 0 0 256 256" height="512" viewBox="0 0 256 256" width="512" xmlns="http://www.w3.org/2000/svg"><path d="m137.72 86.977c-13.92-17.051-29.447-23.251-41.314-25.235-11.687-1.954-23.283 4.113-28.228 14.881-5.91 12.871-10.632 32.234 1.357 50.291 19.769 29.772 69.397 58.262 122.416 64.765 3.09.379 5.644-2.402 4.988-5.477-8.009-37.53-32.101-66.007-59.219-99.225z" fill="#c16a44"/><path d="m160.516 185.22c-40.377-11.598-75.197-34.537-90.98-58.306-11.99-18.057-7.268-37.42-1.357-50.291.413-.899.888-1.752 1.389-2.583-3.552-.802-5.126-1.906-5.126-1.906l.142 5.168c-7.235.199-13.635-6.864-13.635-6.864l-3.935 7.348c-5.31-5.025-6.514-11.198-6.514-11.198l-7.064 6.4c-.022-.811.014-1.609.085-2.39-6.825 11.922-11.215 36.32 10.035 69.339 13.45 20.9 35.666 35.612 57.263 45.567 1.85 4.324 3.522 8.871 4.333 12.723 2.38 11.312 7.633 14.27 7.633 14.27l1.896-6.258s3.214 4.049 8.439 5.973l.92-4.163 4.191 1.953s.153-7.881 1.218-13.603c7.325 2.253 13.924 3.903 19.239 5.015 6.846 1.432 13.181-4.134 12.577-11.102-.136-1.557-.377-3.258-.749-5.092z" fill="#7d3d1a"/><path d="m239.61 206.869c-6.437-3.036-12.653-6.539-18.583-10.475-10.111-6.709-18.005-15.284-27.058-21.474 1.147 3.677 2.148 7.43 2.97 11.282.656 3.076-1.898 5.856-4.988 5.477-10.691-1.311-21.237-3.53-31.435-6.459.372 1.834.612 3.535.748 5.095.604 6.968-5.73 12.534-12.577 11.102-5.315-1.112-11.914-2.762-19.239-5.015-.157.842-.292 1.732-.411 2.635 7.488 11.87 16.879 21.806 16.879 21.806l4.132-7.302c5.395 8.126 10.677 12.117 15.226 15.471.485-3.785.349-8.712.367-11.681 6.843 7.649 18.51 9.933 28.773 10.064-2.507-2.711-4.464-7.653-5.387-11.228 11.109 4.168 23.014 6.798 31.321 3.637-3.512-3.382-8.261-6.939-10.442-11.016 10.767.928 19.124.282 29.704-1.919z" fill="#c16a44"/><path d="m100.819 185.507c-8.884-4.095-17.863-9.011-26.304-14.816.304 2.545.953 5.051 1.99 7.432 1.985 4.559 3.815 9.436 4.676 13.527 2.38 11.312 7.633 14.27 7.633 14.27l1.896-6.258s3.214 4.049 8.439 5.973l.92-4.163 4.191 1.953s.065-3.322.4-7.215c-.899-3.373-2.305-7.112-3.841-10.703z" fill="#7d3d1a"/><path d="m64.441 72.135s1.574 1.104 5.126 1.906c3.717-6.16 9.757-10.414 16.592-11.981-.485-.866-.954-1.825-1.39-2.896l10.307-1.318s-8.382-3.906-11.682-11.055c0 0 5.168-.142 9.245-2.323 0 0-7.32-2.901-11.625-8.988 0 0 6.201-.171 9.245-2.323 0 0-9.415-3.878-11.653-10.022 4.134-.114 7.121-4.333 7.121-4.333s-3.101.085-8.496-8.04c-5.395-8.126-19.362-8.258-19.362-8.258-15.095.416-20.2 8.503-21.753 12.221-.405.968-.04 2.08.868 2.606 1.859 1.078 4.986 3.309 6.483 6.773 1.385 3.203 5.149 4.309 7.767 4.688 1.447.21 2.248 1.762 1.614 3.079-1.491 3.099-4.727 7.711-11.026 8.699-1.089.171-1.806 1.217-1.677 2.311.385 3.272.539 9.866-2.943 16.561 0 0-3.963 6.315-3.764 13.549l7.064-6.4s1.204 6.173 6.514 11.198l3.935-7.348s6.4 7.064 13.635 6.864z" fill="#e3e4e5"/><g fill="#f4dbce"><path d="m97.047 241.894s-6.29 3.006-7.73 9.296c-.391 1.71 1.566 2.977 2.971 1.928 3.204-2.393 8.242-5.881 12.108-7.29-2.21-5.11-7.349-3.934-7.349-3.934z"/><path d="m97.047 241.894c-2.209-5.111-7.32-2.901-7.32-2.901s-5.597 2.583-7.464 8.21c-.343 1.034.639 2.029 1.688 1.736l7.322-2.047c2.373-3.365 5.774-4.998 5.774-4.998z"/><path d="m89.727 238.993c-1.147-4.106-5.253-2.958-5.253-2.958s-4.128 1.504-6.661 5.492c-.776 1.222.209 2.8 1.645 2.617l4.769-.61c2.361-3.092 5.5-4.541 5.5-4.541z"/><path d="m80.177 238.757c-2.32-4.521-7.101-3.442-7.101-3.442s-6.29 3.006-7.73 9.296c-.391 1.71 1.566 2.977 2.971 1.928 2.866-2.141 7.193-5.146 10.843-6.767.334-.369.675-.707 1.017-1.015z"/><path d="m73.077 235.314c-2.209-5.111-7.32-2.901-7.32-2.901s-5.597 2.583-7.464 8.21c-.343 1.034.639 2.029 1.688 1.736l7.322-2.047c2.373-3.364 5.774-4.998 5.774-4.998z"/><path d="m65.757 232.413c-1.147-4.106-5.253-2.958-5.253-2.958s-4.128 1.504-6.661 5.492c-.776 1.222.209 2.8 1.645 2.617l4.769-.61c2.361-3.091 5.5-4.541 5.5-4.541z"/></g><path d="m51.232 28.79c-2.617-.379-6.382-1.485-7.767-4.688-1.498-3.464-4.624-5.694-6.483-6.773-.659-.382-1.026-1.073-1.027-1.792-4.791.355-18.893 2.715-19.564 18.217-.035.801.82 1.345 1.523.959 2.208-1.213 6.807-3.043 13.88-2.532 7.098.513 15.138.027 21.115-2.034-.264-.689-.861-1.239-1.677-1.357z" fill="#f9bd55"/><path d="m52.846 31.869c.277-.575.267-1.19.063-1.723-5.977 2.062-14.017 2.547-21.115 2.035-4.415-.319-7.858.276-10.365 1.062.081.02 11.237 2.873 18.789 8.78.214-.737.807-1.331 1.602-1.455 6.299-.988 9.535-5.601 11.026-8.699z" fill="#f9bd55"/><path d="m129.016 231.591c-2.109-1.556-5.312-2.876-9.545-1.692 0 0 8.301-7.986 6.881-20.769l-2.312-1.077-.92 4.163c-5.224-1.925-8.439-5.973-8.439-5.973l-1.501 4.954c.531 5.406-.046 12.441-5.11 17.382-1.123 1.097-2.717 1.574-4.264 1.309l-2.967-.509s-11.397-.72-16.365 6.657c0 0 4.106-1.147 5.253 2.958 0 0 5.111-2.209 7.32 2.901 0 0 5.139-1.176 7.348 3.935 0 0 3.021 2.337 8.369-6.213.557-.89 1.431-1.556 2.449-1.813 2.175-.55 6.051-1.108 9.469.611 1.519.764 3.345.524 4.513-.71l.315-.333c1.597-1.69 1.375-4.402-.494-5.781z" fill="#f9bd55"/><path d="m80.177 238.757c2.148-1.933 4.296-2.722 4.296-2.722 4.968-7.377 16.365-6.657 16.365-6.657l2.967.509c.83.142 1.671.064 2.448-.202.711-1.605.293-3.565-1.208-4.673-2.109-1.556-5.312-2.876-9.545-1.692 0 0 8.301-7.986 6.881-20.769l-2.312-1.077-.92 4.163c-5.224-1.925-8.439-5.973-8.439-5.973l-1.501 4.954c.531 5.406-.046 12.44-5.11 17.382-1.123 1.097-2.717 1.574-4.264 1.309l-2.967-.509s-11.397-.72-16.365 6.657c0 0 4.106-1.147 5.253 2.958 0 0 5.111-2.209 7.32 2.901.001-.002 4.782-1.08 7.101 3.441z" fill="#f9bd55"/><path d="m53.047 21.658c-1.377 0-2.496-1.114-2.5-2.492-.006-1.889.724-3.667 2.056-5.008 1.332-1.34 3.105-2.081 4.995-2.087h.025c1.879 0 3.648.729 4.982 2.055 1.34 1.332 2.082 3.105 2.087 4.995.004 1.381-1.111 2.504-2.492 2.508-.003 0-.005 0-.008 0-1.377 0-2.496-1.114-2.5-2.492-.001-.554-.219-1.073-.612-1.464-.391-.388-.909-.602-1.459-.602-.002 0-.005 0-.007 0-.555.002-1.074.219-1.465.611-.39.393-.604.914-.602 1.468.004 1.38-1.111 2.503-2.492 2.508-.003 0-.006 0-.008 0z"/><path d="m17.426 37.337c-.647 0-1.294-.178-1.862-.531-1.085-.674-1.725-1.885-1.67-3.16.193-4.467 2.342-19.153 21.877-20.603.701-.048 1.376.188 1.886.66.449.417.727.981.787 1.585 2.07 1.232 5.579 3.8 7.317 7.821.948 2.192 4.06 2.95 5.83 3.206 1.651.239 3.051 1.365 3.653 2.937.243.633.218 1.337-.069 1.951s-.81 1.086-1.451 1.307c-5.73 1.976-13.79 2.767-22.11 2.164-6.485-.471-10.614 1.194-12.495 2.229-.528.29-1.111.434-1.693.434zm16.904-19.112c-5.148.73-13.568 3.428-15.188 13.171 2.808-1.091 7.105-2.12 12.833-1.708 4.622.333 9.122.215 13.087-.319-1.807-1.061-3.123-2.498-3.891-4.274-1.228-2.84-3.937-4.729-5.442-5.602-.558-.325-1.031-.76-1.399-1.268zm16.543 13.039s.001 0 .001.001c0-.001 0-.001-.001-.001z"/><path d="m40.218 44.523c-.551 0-1.095-.183-1.541-.531-7.07-5.53-17.756-8.299-17.863-8.326-1.083-.275-1.853-1.237-1.883-2.354s.683-2.119 1.75-2.454c3.418-1.071 7.219-1.466 11.293-1.17 7.672.556 15.005-.141 20.12-1.904 1.271-.44 2.666.209 3.149 1.468.469 1.221.417 2.536-.145 3.702-1.545 3.211-5.22 8.739-12.573 10.031-.279.671-.84 1.192-1.54 1.418-.251.08-.509.12-.767.12zm-7.399-9.771c2.331 1.078 4.774 2.382 7.038 3.919.479-.286 1.011-.484 1.575-.573 3.341-.523 5.663-2.289 7.256-4.265-4.676.911-10.188 1.238-15.869.919zm17.775-3.967s0 0 0 0z"/><path d="m192.499 194.213c-.283 0-.567-.017-.852-.052-50.756-6.227-102.987-33.926-124.194-65.864-12.583-18.951-7.787-39.128-1.547-52.717 5.391-11.741 18.105-18.444 30.912-16.304 11.367 1.9 28.026 7.976 42.838 26.119l2.827 3.46c26.316 32.202 49.044 60.013 56.901 96.826.477 2.232-.157 4.568-1.693 6.247-1.339 1.464-3.233 2.285-5.192 2.285zm-100.443-130.332c-9.171 0-17.708 5.298-21.605 13.785-5.709 12.435-10.142 30.832 1.168 47.865 20.47 30.827 71.205 57.604 120.637 63.667.657.082 1.297-.153 1.747-.646.454-.497.633-1.163.492-1.828-7.604-35.629-29.977-63.006-55.883-94.705l-2.829-3.462c-13.828-16.938-29.27-22.591-39.789-24.35-1.318-.22-2.635-.326-3.938-.326z"/><path d="m47.014 80.287c-.634 0-1.25-.241-1.718-.685-3.062-2.898-4.894-6.135-5.949-8.595l-4.231 3.834c-.724.654-1.763.83-2.66.446-.898-.383-1.491-1.254-1.518-2.229-.207-7.482 3.536-13.943 4.084-14.849 3.121-6.054 2.994-12.017 2.638-15.039-.29-2.468 1.368-4.695 3.773-5.073 4.812-.754 7.51-4.086 8.96-6.908-4.649-.78-7.832-2.881-9.222-6.096-1.229-2.843-3.937-4.729-5.441-5.602-1.982-1.148-2.809-3.614-1.921-5.734 1.664-3.982 7.334-13.296 23.991-13.755.717.005 15.454.248 21.513 9.374 3.95 5.948 6.316 6.839 6.618 6.932.84.068 1.597.558 2 1.312.446.835.383 1.851-.164 2.623-.28.396-2.242 3.054-5.348 4.484 2.5 3.029 6.933 5.349 8.792 6.114.843.347 1.43 1.125 1.533 2.03.102.906-.296 1.796-1.041 2.322-1.574 1.113-3.693 1.782-5.63 2.184 3.542 3.173 7.437 4.742 7.487 4.763.905.358 1.52 1.21 1.575 2.182s-.458 1.888-1.316 2.347c-2.074 1.109-4.362 1.751-6.259 2.12 3.405 4.32 8.515 6.761 8.577 6.79 1.006.474 1.581 1.555 1.408 2.652-.173 1.099-1.048 1.951-2.15 2.092l-6.884.881c.219.603.2 1.272-.064 1.868-.319.72-.959 1.247-1.727 1.423-6.249 1.433-11.719 5.382-15.01 10.836-.556.922-1.64 1.387-2.69 1.146-.726-.163-1.382-.34-1.97-.521l.035 1.275c.019.663-.228 1.306-.683 1.788-.456.481-1.084.762-1.747.78-5.411.121-10.227-3.012-13.03-5.326l-2.405 4.491c-.368.688-1.035 1.163-1.804 1.288-.135.024-.269.035-.402.035zm3.935-12.349c.701 0 1.375.295 1.853.821.046.051 4.241 4.587 9.205 5.769l-.064-2.324c-.026-.945.483-1.824 1.315-2.271.822-.441 1.823-.388 2.593.138.059.037.89.559 2.609 1.091 3.455-4.939 8.444-8.695 14.15-10.679-.053-.125-.105-.251-.156-.377-.292-.719-.235-1.533.157-2.203.391-.67 1.072-1.12 1.841-1.219l3.532-.452c-2.511-2.028-5.217-4.837-6.86-8.394-.352-.763-.297-1.651.146-2.366.443-.714 1.215-1.157 2.056-1.181.022-.001 1.335-.047 3.083-.371-2.441-1.615-5.267-3.931-7.436-6.998-.532-.753-.607-1.737-.195-2.562.413-.825 1.245-1.355 2.167-1.381.829-.024 1.95-.126 3.112-.315-3.004-1.956-6.42-4.885-7.801-8.676-.275-.755-.17-1.597.282-2.261.452-.665 1.195-1.071 1.999-1.094 1.091-.03 2.122-.544 2.969-1.156-1.714-1.318-3.851-3.559-6.359-7.335-4.587-6.909-17.179-7.14-17.306-7.141-13.185.365-17.816 7.117-19.278 10.357 2.085 1.259 5.491 3.804 7.198 7.75.947 2.191 4.06 2.949 5.831 3.207 1.478.214 2.727 1.092 3.427 2.407.696 1.308.726 2.89.08 4.23-1.535 3.189-5.173 8.668-12.432 10.005.388 3.709.404 10.609-3.249 17.635-.031.06-.065.118-.101.176-.021.033-1.469 2.393-2.465 5.751l1.969-1.784c.668-.605 1.611-.805 2.467-.52.856.284 1.493 1.008 1.665 1.894.008.036.771 3.647 3.543 7.348l2.248-4.199c.384-.717 1.092-1.202 1.899-1.302.103-.012.205-.018.306-.018zm34.717-51.637c-.003 0-.005 0-.008 0zm.003 0c-.001 0-.002 0-.003 0zm.003 0s0 0 0 0z"/><path d="m112.785 215c-.425 0-.848-.108-1.227-.321-.639-.36-6.313-3.862-8.853-15.934-.639-3.033-1.92-6.857-3.813-11.376-26.346-12.289-45.668-27.788-57.438-46.077-9.738-15.131-15.101-29.862-15.939-43.783-.851-14.136 3.292-23.705 5.837-28.151.584-1.021 1.8-1.495 2.921-1.143.169.054.329.124.479.208l4.069-3.687c.668-.605 1.611-.805 2.467-.52.856.284 1.493 1.008 1.665 1.894.008.036.771 3.647 3.543 7.348l2.248-4.199c.384-.717 1.092-1.202 1.899-1.302.81-.105 1.612.2 2.158.803.046.051 4.241 4.587 9.205 5.769l-.064-2.324c-.026-.945.483-1.824 1.315-2.271.831-.447 1.845-.388 2.62.155.001 0 1.341.859 4.241 1.514.784.177 1.435.719 1.75 1.457.315.739.256 1.584-.158 2.271-.533.884-.932 1.626-1.258 2.336-5.71 12.435-10.143 30.832 1.167 47.865 15.727 23.685 50.892 46.171 89.588 57.287.896.257 1.575.992 1.76 1.906.374 1.846.64 3.654.789 5.375.355 4.102-1.212 8.024-4.301 10.765-3.107 2.756-7.219 3.85-11.278 3-5.231-1.094-10.952-2.548-16.696-4.239-.636 4.961-.749 10.365-.75 10.43-.017.845-.459 1.625-1.177 2.072-.717.449-1.613.504-2.379.145l-1.366-.636-.248 1.118c-.155.705-.608 1.309-1.242 1.654-.634.347-1.386.404-2.063.152-2.611-.962-4.769-2.386-6.368-3.68l-.71 2.344c-.22.726-.757 1.312-1.461 1.596-.3.119-.616.179-.932.179zm1.896-11.258c.754 0 1.479.342 1.958.945.018.022 1.791 2.197 4.717 3.925l.243-1.099c.164-.74.654-1.367 1.334-1.702.68-.338 1.475-.346 2.163-.024l.79.368c.162-2.867.482-6.86 1.105-10.21.13-.701.554-1.312 1.164-1.682s1.35-.461 2.029-.251c8.233 2.532 14.885 4.094 19.016 4.957 2.497.522 5.025-.151 6.937-1.847 1.894-1.68 2.855-4.082 2.638-6.592-.093-1.075-.238-2.194-.433-3.34-39.764-11.727-74.495-34.207-90.887-58.895-11.337-17.074-8.567-35.142-3.343-48.491-5.173-.066-9.779-3.093-12.487-5.33l-2.405 4.491c-.368.688-1.035 1.163-1.804 1.288-.77.125-1.552-.116-2.118-.652-3.062-2.898-4.894-6.135-5.949-8.595l-4.231 3.834c-.342.31-.754.512-1.188.599-4.006 9.519-8.668 31.447 11.731 63.146 11.378 17.679 30.289 32.701 56.208 44.649.562.26 1.008.718 1.251 1.287 2.227 5.205 3.734 9.644 4.481 13.192 1.042 4.95 2.66 8.11 4.015 10.031l.676-2.229c.27-.891 1.011-1.557 1.924-1.731.153-.027.31-.042.465-.042z"/><path d="m105.488 248.621c-1.437 0-2.343-.6-2.622-.815-.334-.259-.598-.598-.766-.985-1.369-3.166-4.37-2.52-4.496-2.489-1.173.264-2.374-.339-2.853-1.445-1.035-2.396-2.986-2.021-4.058-1.589-.66.268-1.417.247-2.056-.066s-1.128-.88-1.32-1.565c-.278-.994-.726-1.16-1.124-1.237-.52-.099-1.043.014-1.048.015-1.008.281-2.086-.096-2.7-.944-.613-.85-.632-1.991-.047-2.86 5.704-8.469 18.075-7.785 18.597-7.755.089.006.177.016.265.031l2.967.509c.773.132 1.554-.105 2.096-.635 4.432-4.324 4.821-10.733 4.368-15.349-.032-.326 0-.655.095-.969l1.501-4.953c.27-.891 1.011-1.557 1.924-1.731.916-.17 1.848.174 2.426.901.018.022 1.791 2.197 4.717 3.925l.243-1.099c.164-.74.654-1.367 1.334-1.702.68-.338 1.475-.346 2.163-.024l2.312 1.077c.791.368 1.332 1.122 1.429 1.989.894 8.041-1.698 14.325-4.101 18.252 2.426.396 4.364 1.439 5.765 2.474 1.46 1.078 2.39 2.735 2.551 4.547.162 1.823-.466 3.631-1.724 4.962l-.317.334c-1.907 2.016-4.901 2.506-7.451 1.225-2.736-1.376-6.02-.854-7.733-.421-.373.095-.717.355-.941.715-2.885 4.612-5.64 7.096-8.422 7.593-.347.058-.672.084-.974.084zm-7.043-9.355c2.388.033 5.543.968 7.538 4.207.75-.341 2.337-1.467 4.662-5.184.914-1.462 2.319-2.496 3.955-2.911 2.389-.604 7.021-1.304 11.206.802.469.235 1.137.267 1.575-.195l.316-.333c.375-.396.396-.849.375-1.082-.02-.228-.117-.654-.54-.967-2.193-1.617-4.678-2.052-7.388-1.297-1.106.309-2.275-.172-2.844-1.166-.568-.995-.388-2.249.437-3.043.248-.242 5.257-5.234 6.146-13.501-.526.17-1.099.161-1.626-.035-2.611-.962-4.769-2.386-6.368-3.68l-.173.572c.673 7.954-1.361 14.486-5.898 18.913-1.684 1.644-4.093 2.388-6.432 1.984l-2.815-.482c-.87-.031-6.685-.115-10.996 2.654.568.395 1.091.904 1.534 1.548 2.466-.297 5.405.392 7.336 3.196z"/><path d="m112.785 215c-.424 0-.848-.108-1.227-.321-.639-.36-6.313-3.862-8.853-15.934-.719-3.415-2.241-7.804-4.522-13.045-2.578-5.919-3.102-12.651-1.475-18.958.345-1.337 1.709-2.136 3.045-1.796 1.337.345 2.141 1.709 1.796 3.046-1.35 5.23-.917 10.811 1.217 15.712 2.417 5.551 4.042 10.265 4.831 14.012 1.041 4.947 2.663 8.111 4.015 10.031l.676-2.229c.27-.891 1.011-1.557 1.924-1.731.916-.17 1.848.174 2.426.901.018.022 1.791 2.197 4.717 3.925l.243-1.099c.164-.74.654-1.367 1.334-1.702.68-.338 1.475-.346 2.163-.024l.789.367c.196-3.5.629-8.677 1.564-12.328.58-2.263.645-5.037.194-8.248-.192-1.367.761-2.631 2.128-2.823 1.373-.194 2.631.762 2.823 2.128.542 3.86.44 7.286-.302 10.184-1.363 5.322-1.56 14.891-1.562 14.987-.016.846-.458 1.625-1.176 2.073-.717.447-1.613.504-2.379.145l-1.366-.636-.248 1.118c-.155.705-.608 1.309-1.242 1.654-.634.347-1.386.404-2.063.152-2.611-.962-4.769-2.386-6.368-3.68l-.71 2.344c-.22.726-.757 1.312-1.461 1.596-.299.119-.615.179-.931.179z"/><path d="m189.025 218.668c-.354 0-.713-.076-1.055-.235-8.553-3.985-15.585-9.558-15.881-9.793-1.08-.86-1.257-2.433-.397-3.513.86-1.078 2.433-1.257 3.513-.398.068.055 6.881 5.445 14.877 9.173 1.251.583 1.793 2.07 1.21 3.321-.423.91-1.325 1.445-2.267 1.445z"/><path d="m209.907 211.289c-.24 0-.484-.035-.726-.108-9.726-2.946-16.278-8.054-16.552-8.27-1.085-.854-1.271-2.426-.417-3.511.854-1.084 2.424-1.271 3.509-.419.086.067 6.148 4.76 14.911 7.414 1.321.4 2.068 1.796 1.667 3.117-.328 1.081-1.32 1.777-2.392 1.777z"/><path d="m165.274 231.513c-.526 0-1.047-.166-1.484-.488-3.675-2.71-8.526-6.287-13.502-12.831l-2.196 3.882c-.391.69-1.086 1.154-1.874 1.25-.792.096-1.574-.188-2.119-.765-.39-.412-9.645-10.251-17.176-22.189-.312-.494-.441-1.083-.364-1.662.138-1.038.279-1.942.432-2.765.13-.7.554-1.312 1.163-1.681.61-.369 1.35-.461 2.029-.251 8.233 2.532 14.885 4.094 19.016 4.957 2.497.522 5.025-.151 6.937-1.847 1.894-1.68 2.855-4.082 2.638-6.592-.133-1.532-.371-3.152-.708-4.814-.173-.855.112-1.74.754-2.333.642-.592 1.547-.806 2.386-.565 10.366 2.978 20.812 5.124 31.049 6.38.658.085 1.297-.154 1.747-.646.455-.497.634-1.163.492-1.829-.775-3.63-1.755-7.351-2.912-11.06-.317-1.016.044-2.121.9-2.754s2.019-.655 2.897-.054c4.394 3.004 8.399 6.449 12.639 10.097 4.518 3.887 9.189 7.906 14.39 11.357 5.813 3.857 11.959 7.322 18.267 10.297.972.458 1.542 1.486 1.417 2.555-.126 1.067-.921 1.935-1.974 2.153-9.212 1.918-16.616 2.638-24.894 2.313 1.234 1.271 2.628 2.521 4 3.752.959.86 1.952 1.75 2.857 2.622.617.594.886 1.462.715 2.301s-.76 1.532-1.56 1.837c-6.806 2.591-16.281 1.94-28.207-1.923.899 2.146 2.016 4.18 3.219 5.48.678.733.855 1.801.449 2.714-.406.911-1.317 1.491-2.316 1.483-8.011-.104-18.445-1.5-26.25-7.029-.03 2.152-.121 4.456-.378 6.464-.113.879-.682 1.633-1.497 1.981-.315.136-.649.203-.982.203zm.366-16.682c.698 0 1.38.293 1.864.833 5.46 6.104 14.315 8.335 22.083 8.998-1.347-2.596-2.365-5.486-2.981-7.87-.233-.903.056-1.86.75-2.484.693-.623 1.675-.812 2.55-.481 10.339 3.879 18.96 5.458 25.296 4.662-2.896-2.605-5.789-5.322-7.5-8.521-.433-.81-.388-1.79.117-2.556.504-.766 1.387-1.19 2.302-1.115 7.724.668 14.274.521 21.67-.564-4.162-2.228-8.227-4.655-12.146-7.256-5.46-3.623-10.252-7.746-14.887-11.732-2.165-1.863-4.268-3.672-6.378-5.382.364 1.448.699 2.89 1.004 4.318.477 2.233-.157 4.569-1.694 6.248-1.532 1.675-3.792 2.514-6.043 2.232-9.252-1.135-18.667-2.979-28.041-5.488.058.481.107.957.148 1.427.355 4.102-1.212 8.024-4.301 10.765-3.107 2.756-7.217 3.85-11.278 3-4.888-1.022-10.203-2.358-15.566-3.91 4.725 7.116 9.933 13.331 12.839 16.64l2.424-4.284c.428-.756 1.218-1.236 2.087-1.267.859-.038 1.69.391 2.171 1.115 3.824 5.759 7.599 9.353 10.973 12.063.049-1.713.043-3.439.038-4.97-.002-.704-.004-1.356-.001-1.937.006-1.033.648-1.956 1.615-2.322.289-.109.588-.162.885-.162z"/><path d="m91.16 256.002c-.829 0-1.66-.238-2.399-.72-1.558-1.015-2.296-2.84-1.881-4.65 1.69-7.383 8.788-10.85 9.09-10.994.166-.079.34-.14.52-.182 2.48-.563 7.8-.172 10.201 5.38.273.632.273 1.349.001 1.981s-.793 1.124-1.44 1.359c-2.731.995-6.804 3.461-11.467 6.944-.786.587-1.704.882-2.625.882zm6.699-11.71c-.932.522-3.998 2.432-5.493 5.668 2.458-1.768 5.373-3.701 8.124-5.119-1.005-.632-2.081-.618-2.631-.549z"/><path d="m83.578 251.49c-1.049 0-2.069-.427-2.816-1.211-.986-1.035-1.32-2.516-.872-3.864 2.183-6.579 8.52-9.568 8.789-9.692 3.032-1.313 8.314-1.254 10.663 4.179.531 1.229 0 2.658-1.205 3.242-.071.035-2.892 1.453-4.822 4.189-.332.47-.816.812-1.37.966l-7.322 2.047c-.345.096-.697.144-1.045.144zm7.117-10.193c.005 0-3.126 1.52-5.049 4.572l4.136-1.157c1.173-1.479 2.485-2.627 3.598-3.453-.942-.497-1.996-.241-2.685.038z"/><path d="m79.227 246.658c-1.427 0-2.744-.715-3.526-1.946-.886-1.395-.886-3.129.001-4.524 2.955-4.654 7.714-6.429 7.916-6.502.061-.022.121-.042.183-.06 2.616-.73 6.998-.087 8.333 4.693.329 1.178-.243 2.421-1.35 2.938-.061.028-2.655 1.284-4.571 3.793-.406.531-1.007.877-1.669.962l-4.769.61c-.184.024-.367.036-.548.036zm6.001-8.233c-.47.198-2.483 1.119-4.196 2.997l1.89-.242c1.022-1.174 2.114-2.105 3.068-2.808-.216-.023-.469-.01-.762.053z"/><path d="m80.177 241.257c-.15 0-.302-.014-.452-.041-.763-.141-1.418-.627-1.772-1.317-1.419-2.765-4.209-2.171-4.327-2.146-1.173.271-2.368-.342-2.845-1.446-1.129-2.613-3.372-1.885-4.033-1.599-.662.285-1.417.271-2.068-.038-.651-.312-1.137-.889-1.331-1.584-.278-.994-.726-1.16-1.124-1.237-.519-.099-1.043.014-1.048.015-1.007.281-2.086-.096-2.7-.944-.613-.85-.632-1.991-.047-2.86 5.704-8.468 18.075-7.786 18.596-7.755.089.006.177.016.265.031l2.967.509c.77.129 1.554-.105 2.096-.635 4.432-4.324 4.821-10.733 4.368-15.349-.032-.326 0-.655.095-.969l1.5-4.954c.27-.89 1.011-1.557 1.924-1.731.917-.172 1.848.174 2.426.901.018.022 1.791 2.198 4.717 3.926l.243-1.1c.164-.741.654-1.367 1.334-1.702.679-.337 1.475-.346 2.163-.024l2.312 1.077c.791.368 1.332 1.122 1.429 1.989.893 8.042-1.698 14.326-4.102 18.253 2.426.396 4.364 1.439 5.766 2.474 2.405 1.775 3.231 4.94 2.009 7.697-.282.637-.816 1.126-1.474 1.352-1.187.408-2.46.512-3.683.302l-2.813-.482c-1.101-.035-10.165-.165-14.022 5.562-.294.437-.718.769-1.212.95-.005.002-1.756.678-3.485 2.234-.462.415-1.059.641-1.672.641zm-5.696-8.561c1.891.036 4.288.64 6.194 2.531.87-.57 1.635-.966 2.17-1.215 5.876-7.81 17.643-7.162 18.151-7.13.089.006.177.016.265.031l2.623.449c-.081-.124-.187-.24-.322-.34-2.192-1.617-4.677-2.052-7.388-1.297-1.106.309-2.275-.172-2.844-1.166-.568-.995-.388-2.249.437-3.043.248-.242 5.257-5.233 6.145-13.501-.526.17-1.099.16-1.626-.035-2.611-.962-4.769-2.386-6.368-3.68l-.173.572c.673 7.954-1.361 14.486-5.898 18.913-1.684 1.644-4.088 2.389-6.432 1.984l-2.815-.482c-.872-.032-6.686-.116-10.998 2.655.594.413 1.107.932 1.532 1.547 2.474-.293 5.416.395 7.347 3.207z"/><path d="m67.19 249.423c-.829 0-1.661-.239-2.4-.721-1.557-1.014-2.295-2.839-1.881-4.648 1.69-7.384 8.788-10.851 9.089-10.995.169-.08.346-.142.528-.183 2.306-.521 7.34-.199 9.875 4.739.518 1.01.292 2.24-.551 3-.29.261-.571.541-.837.835-.234.258-.52.465-.838.606-2.671 1.186-6.351 3.489-10.362 6.485-.785.587-1.702.882-2.623.882zm6.703-11.712c-.915.512-3.996 2.422-5.496 5.67 2.407-1.73 5.339-3.68 8.118-5.109-1.028-.65-2.123-.621-2.622-.561z"/><path d="m59.607 244.911c-1.049 0-2.069-.427-2.816-1.211-.986-1.035-1.32-2.516-.872-3.864 2.183-6.579 8.521-9.568 8.789-9.692 3.032-1.312 8.313-1.255 10.663 4.179.531 1.229 0 2.658-1.205 3.242-.071.035-2.892 1.453-4.821 4.189-.332.47-.815.812-1.37.966l-7.322 2.047c-.345.096-.697.144-1.046.144zm7.142-10.203c.003 0-3.144 1.521-5.073 4.582l4.136-1.156c1.172-1.479 2.483-2.626 3.596-3.452-1.055-.557-2.215-.165-2.659.026z"/><path d="m55.257 240.079c-1.427 0-2.744-.715-3.526-1.946-.886-1.395-.886-3.129.001-4.525 2.955-4.653 7.714-6.428 7.916-6.501.06-.022.121-.042.183-.06.266-.074 1.679-.429 3.344-.106 2.487.48 4.259 2.186 4.99 4.8.329 1.178-.243 2.421-1.35 2.938-.061.028-2.655 1.284-4.571 3.793-.406.531-1.007.877-1.669.962l-4.769.61c-.185.023-.368.035-.549.035zm6.001-8.233c-.47.198-2.483 1.12-4.196 2.997l1.891-.242c1.022-1.174 2.114-2.105 3.068-2.808-.217-.023-.469-.011-.763.053z"/><path d="m88.815 208.421c-.425 0-.848-.108-1.227-.321-.639-.36-6.313-3.862-8.853-15.934-.719-3.415-2.24-7.804-4.522-13.045-1.105-2.536-1.839-5.273-2.181-8.133-.117-.976.349-1.929 1.189-2.437.839-.506 1.9-.477 2.709.08 7.753 5.332 16.479 10.245 25.934 14.604.562.26 1.008.718 1.252 1.287 1.787 4.18 3.119 7.895 3.958 11.043.075.28.1.57.075.858-.323 3.759-.391 7.018-.391 7.05-.017.846-.459 1.625-1.177 2.072-.717.449-1.611.504-2.379.145l-1.366-.637-.248 1.12c-.156.705-.608 1.309-1.242 1.654-.633.347-1.386.403-2.063.152-2.611-.962-4.769-2.386-6.368-3.68l-.71 2.344c-.22.726-.757 1.312-1.461 1.596-.297.122-.614.182-.929.182zm1.896-11.259c.754 0 1.479.342 1.958.945.018.022 1.791 2.198 4.717 3.926l.243-1.1c.164-.741.654-1.367 1.334-1.702.679-.337 1.475-.346 2.163-.024l.791.368c.053-.942.123-2.008.215-3.134-.722-2.61-1.81-5.656-3.24-9.072-7.272-3.395-14.124-7.114-20.446-11.099.111.288.229.572.351.854 2.417 5.552 4.042 10.266 4.831 14.012 1.041 4.946 2.663 8.11 4.015 10.031l.676-2.23c.27-.89 1.011-1.557 1.924-1.731.156-.029.313-.044.468-.044z"/><path d="m32.02 25.5c-1.381 0-2.505-1.119-2.505-2.5s1.114-2.5 2.495-2.5h.01c1.381 0 2.5 1.119 2.5 2.5s-1.119 2.5-2.5 2.5z"/><path d="m195.373 182.228c-.08 0-.161-.004-.242-.012-49.113-4.716-89.411-43.629-91.103-45.283-.987-.965-1.004-2.547-.04-3.534.965-.986 2.548-1.004 3.535-.041.402.394 40.759 39.338 88.084 43.882 1.375.132 2.382 1.353 2.25 2.728-.123 1.292-1.211 2.26-2.484 2.26z"/><path d="m191.35 169.834c-.26 0-.523-.041-.783-.127-37.087-12.226-64.394-38.655-65.539-39.774-.987-.965-1.004-2.547-.04-3.534.965-.986 2.548-1.005 3.535-.041.272.267 27.656 26.75 63.608 38.602 1.311.432 2.024 1.846 1.592 3.156-.346 1.051-1.323 1.718-2.373 1.718z"/><path d="m182.955 151.626c-.413 0-.832-.103-1.218-.318-22.437-12.547-37.096-26.775-37.709-27.375-.987-.965-1.004-2.547-.04-3.534.965-.986 2.548-1.005 3.535-.041.146.143 14.829 14.381 36.654 26.587 1.205.674 1.636 2.197.962 3.402-.457.818-1.308 1.279-2.184 1.279z"/></svg>