<svg enable-background="new 0 0 256 256" height="512" viewBox="0 0 256 256" width="512" xmlns="http://www.w3.org/2000/svg"><path d="m173.251 105.5h8s-8.192-14.15-10-25c-1.02-6.122-2.489-11.337-4.323-15.785-.407-.986-.446-2.082-.164-3.11 4.107-15.005 6.637-31.222.754-37.105-8.228-8.228-25.859 4.7-36.129 13.641-.991.862-2.278 1.274-3.589 1.184-5.058-.346-10.151-.325-15.049-.325s-9.991-.021-15.048.325c-1.311.09-2.598-.322-3.589-1.184-10.27-8.941-27.901-21.869-36.129-13.641-5.883 5.883-3.353 22.099.754 37.105.281 1.029.242 2.124-.164 3.11-1.834 4.448-3.303 9.663-4.324 15.785-1.808 10.85-10 25-10 25h8l-6 15h10l-2 5c11 0 25 8 36 21 9.908 11.71 20.218 11.655 22.168 11.529-5.184-.255-10.514-6.388-10.514-10.763 0-4.468 5.561-4.813 10.846-4.813s10.846.344 10.846 4.813c0 4.375-5.33 10.508-10.513 10.763 1.949.126 12.259.181 22.167-11.529 11-13 25-21 36-21l-2-5h10z" fill="#e3e4e5"/><path d="m140.515 47.908 26.248 13.696c2.119-7.743 3.815-15.805 4.155-22.607-7.088-24.307-30.403 8.911-30.403 8.911z" fill="#f98080"/><path d="m54.584 38.998c.34 6.802 2.036 14.864 4.155 22.607l26.248-13.696c0-.001-23.315-33.219-30.403-8.911z" fill="#f98080"/><g fill="#e3e4e5"><path d="m169.637 238.338c-1.919-.496-3.952-.654-5.869-.629-.274.004-.545.011-.814.022-1.343.053-2.609.188-3.717.349-.216.031-.426.034-.627.01-1.407-.161-2.369-1.559-1.777-2.866.014-.031.028-.062.042-.094v.001c9.927-21.939 17.67-45.566 10.369-52.333-1.738-1.611-3.545-2.407-5.339-2.64-.314-11.93-2.767-23.068-6.798-32.724.553.107 1.02.23 1.376.341.392.123.767-.237.692-.658-.993-5.552-2.366-11.384-3.735-16.094-.092.053-.183.103-.275.156.014.057.032.112.045.169-6.129 3.616-12.245 8.779-17.638 15.153-2.59 3.061-5.206 5.312-7.694 6.974-1.63 7.902-7.759 13.796-15.127 13.796-7.448 0-13.637-6.02-15.186-14.051-2.374-1.635-4.856-3.815-7.314-6.719-5.534-6.541-11.828-11.812-18.118-15.439-1.372 4.696-2.747 10.496-3.741 16.055-.075.421.3.781.692.658.41-.128.973-.27 1.641-.386-4.102 9.815-6.558 21.177-6.81 33.332-1.791.235-3.594 1.031-5.329 2.639-7.301 6.767.443 30.394 10.37 52.333v-.001c.014.031.028.062.042.094.592 1.307-.371 2.705-1.777 2.867-.201.023-.411.021-.627-.01-1.107-.161-2.374-.296-3.717-.349-.268-.011-.54-.018-.814-.022-1.917-.025-3.95.133-5.869.629-5.208 1.345-9.574 5.18-8.504 14.601h27.266 23.963c.387 0 .764-.037 1.128-.107.728-.14 1.403-.412 1.995-.789.296-.188.571-.403.822-.639.275-.26.513-.552.724-.861 3.021.826 6.137 1.273 9.328 1.273 3.267 0 6.458-.464 9.546-1.329 1.005 1.427 2.62 2.451 4.451 2.451h23.963 27.266c1.07-9.423-3.297-13.818-8.505-15.163z"/><path d="m241.839 142.456-1.861-1.089c-.926-.543-1.216-1.735-.637-2.639 3.597-5.612 14.85-24.995 14.125-46.863-.081-2.434-2.428-4.16-4.784-3.545-1.408.367-2.684-.916-2.295-2.318 2.135-7.678 6.561-27.708-.474-42.162-7.111-14.61-9.925-32.983-10.762-39.702-.16-1.282-1.531-2.011-2.693-1.445l-15.83 7.705s-35.431 13.143-38.59 67.096c-.098 1.679-2.182 2.401-3.29 1.135l-.338-.386c-1.05-1.2-3.015-.649-3.28.922-.019.113-.037.238-.055.355.058.327.12.647.175.98 1.808 10.85 10 25 10 25h-8l6 15h-7.937c.066.104.125.207.194.312 5.08 7.798 3.756 17.172 2.725 21.515-.294 1.24-1.691 1.84-2.79 1.196-1.207-.707-2.737.088-2.83 1.484-.324 4.84-1.779 14.468-7.889 22.415.66 4.118 1.067 8.371 1.182 12.735.003 0 .006.001.01.002.263.034.526.085.788.144.126.029.252.061.379.095.282.077.563.164.844.272.079.031.158.069.238.103.254.107.508.228.761.362.081.043.162.083.243.129.306.174.61.37.914.587.069.05.138.103.207.155.32.241.64.498.956.792.228.212.442.44.641.684.031.038.056.083.087.121.164.21.324.426.469.658.043.069.077.147.118.218.123.212.246.425.354.654.049.103.086.217.132.324.089.209.181.415.259.636.046.132.081.276.123.412.065.209.134.414.189.634.037.148.063.308.096.46.048.221.1.437.139.667.029.169.046.349.07.523.031.227.068.448.091.683.019.19.027.391.041.586.017.231.038.457.048.695.009.222.007.455.01.683.003.223.012.44.01.668s-.015.466-.023.699c-.008.241-.011.477-.024.723-.013.231-.036.472-.053.708-.019.259-.034.512-.059.776-.025.263-.06.537-.09.806-.028.247-.051.489-.084.741-.035.268-.079.546-.119.819-.038.263-.072.521-.115.788-.044.275-.098.559-.147.839-.048.273-.092.542-.144.82-.056.294-.12.597-.181.896-.055.272-.106.54-.166.816-.065.3-.137.607-.207.911-.064.283-.125.563-.193.849-.079.33-.166.667-.25 1.001-.037.148-.073.295-.111.444 10.426-2.273 26.244-6.651 39.026-14.214 1.222-.723 1.184-2.512-.041-3.229l-2.154-1.261s16.893-4.414 23.694-12.956c.714-.897.451-2.226-.538-2.805l-1.039-.609c-1.042-.61-1.259-2.018-.436-2.901 3.862-4.138 13.495-14.917 16.004-22.039.302-.862-.047-1.809-.833-2.27z"/><path d="m112.751 158s-6.936.901-15.187-4.783c1.548 8.032 7.738 14.054 15.187 14.054s13.639-6.021 15.187-14.054c-8.251 5.684-15.187 4.783-15.187 4.783z"/></g><path d="m142.708 123c-18.938-1.536-18.5-8.5-18.5-8.5s.5-30.5-11.5-30.5-11.5 30.5-11.5 30.5.438 6.964-18.5 8.5c-6.392.518-9.32 3.843-10.417 7.971v.179c6.237 3.624 12.471 8.864 17.96 15.35 9.908 11.71 20.218 11.655 22.168 11.529-5.184-.255-10.514-6.388-10.514-10.763 0-4.468 5.561-4.813 10.846-4.813s10.846.344 10.846 4.813c0 4.375-5.33 10.508-10.513 10.763 1.949.126 12.259.181 22.167-11.529 5.475-6.47 11.693-11.699 17.914-15.323-1.055-4.221-3.961-7.65-10.457-8.177z" fill="#fff"/><path d="m123.597 147.265c0 4.468-5.561 10.787-10.846 10.787s-10.846-6.319-10.846-10.787 5.561-4.813 10.846-4.813c5.285.001 10.846.345 10.846 4.813z" fill="#7d3d1a"/><path d="m178.142 256h-27.266c-1.381 0-2.5-1.119-2.5-2.5s1.119-2.5 2.5-2.5c.22-.04.588-.577.562-.833-.523-4.262-5.511-5.91-9.603-6.542-2.9-.448-4.954-1.682-6.104-3.667-2.547-4.394.05-11.148 3.644-20.497 3.707-9.644 8.32-21.646 8.954-35.004.032-.692.351-1.339.879-1.787 7.259-6.166 14.27-6.774 19.736-1.706 7.049 6.533 3.85 24.89-9.506 54.565 3.854-.486 12.099-.819 17.208 4.133 3.337 3.235 4.676 7.986 3.979 14.12-.143 1.263-1.212 2.218-2.483 2.218zm-21.769-5h19.429c.042-3.408-.841-6.007-2.636-7.748-3.886-3.767-11.366-3.018-13.568-2.699-.001 0-.001 0-.001 0-1.758.252-3.49-.45-4.533-1.838-.999-1.328-1.188-3.02-.507-4.524 17.682-39.049 12.882-47.807 10.989-49.561-1.247-1.154-4.949-4.588-12.284 1.181-.861 13.699-5.485 25.728-9.22 35.443-2.742 7.133-5.332 13.871-3.984 16.196.132.228.534.923 2.542 1.233 11.056 1.708 13.393 7.545 13.802 10.873.058.475.046.961-.029 1.444zm2.506-15.395.359 2.474z"/><path d="m150.876 256h-23.964c-2.076 0-4.065-.863-5.602-2.43-1.583-1.616-2.467-3.767-2.424-5.901.58-28.791 3.883-48.269 3.916-48.462.235-1.36 1.529-2.271 2.888-2.04 1.36.234 2.273 1.527 2.04 2.888-.033.19-3.273 19.33-3.846 47.714-.016.788.357 1.648.997 2.301.34.347 1.057.93 2.03.93h23.964c.22-.04.588-.578.562-.834-.523-4.26-5.511-5.908-9.603-6.541-2.9-.448-4.954-1.682-6.104-3.667-2.546-4.394.051-11.147 3.646-20.494 4.648-12.089 11.016-28.645 8.429-46.54-.197-1.366.751-2.634 2.117-2.832 1.364-.199 2.634.75 2.832 2.117 2.772 19.186-3.865 36.447-8.711 49.05-2.743 7.132-5.333 13.868-3.986 16.192.132.228.534.922 2.542 1.232 11.056 1.708 13.393 7.546 13.802 10.873.191 1.564-.37 3.262-1.503 4.542-1.069 1.209-2.535 1.902-4.022 1.902z"/><path d="m74.955 256h-27.267c-1.271 0-2.341-.955-2.484-2.218-.685-6.031.605-10.676 3.834-13.806 4.595-4.454 11.86-4.608 17.354-3.888-13.356-29.676-16.554-48.03-9.505-54.564 5.467-5.067 12.477-4.461 19.735 1.706.528.448.847 1.095.879 1.787.634 13.359 5.248 25.36 8.955 35.004 3.594 9.349 6.19 16.104 3.644 20.498-1.15 1.985-3.204 3.219-6.104 3.667-4.092.632-9.079 2.28-9.603 6.542.016.064.215.271.562.271 1.381 0 2.5 1.119 2.5 2.5s-1.119 2.501-2.5 2.501zm-24.927-5h19.372c-.016-.293-.007-.588.029-.882.409-3.328 2.746-9.165 13.802-10.873 2.008-.31 2.41-1.005 2.542-1.233 1.348-2.325-1.242-9.063-3.984-16.197-3.735-9.715-8.358-21.744-9.221-35.443-7.333-5.769-11.036-2.336-12.283-1.181-1.893 1.754-6.692 10.513 10.989 49.562.682 1.504.492 3.195-.507 4.524-1.044 1.387-2.783 2.089-4.533 1.837h-.001c-3.632-.527-10.247-.911-13.716 2.452-1.695 1.644-2.529 4.139-2.489 7.434z"/><path d="m98.918 256h-23.963c-1.646 0-3.2-.69-4.265-1.893-.977-1.105-1.437-2.559-1.261-3.989.409-3.328 2.746-9.165 13.802-10.873 2.008-.31 2.41-1.004 2.542-1.233 1.347-2.324-1.243-9.061-3.986-16.193-4.903-12.752-11.618-30.215-8.623-49.634.211-1.365 1.493-2.298 2.852-2.089 1.365.21 2.301 1.487 2.09 2.852-2.793 18.103 3.646 34.849 8.349 47.076 3.595 9.348 6.191 16.102 3.646 20.495-1.15 1.985-3.204 3.219-6.104 3.667-4.092.632-9.079 2.28-9.603 6.542.016.064.215.271.562.271h23.963c.888 0 1.729-.339 2.308-.929.478-.487.733-1.105.721-1.74-.572-28.384-3.812-47.524-3.846-47.714-.233-1.36.68-2.653 2.04-2.888 1.367-.232 2.653.679 2.888 2.04.033.193 3.336 19.671 3.916 48.462.04 1.99-.723 3.886-2.148 5.34-1.515 1.544-3.657 2.43-5.88 2.43z"/><path d="m112.784 198.098c-.788 0-1.576-.157-2.326-.472-10.502-4.406-16.081-13.154-18.691-18.713-.478.699-1.227 1.177-2.082 1.3-1.104.159-2.203-.301-2.869-1.2-5.71-7.705-7.124-16.7-7.422-19.273-.158-1.372.824-2.612 2.196-2.771 1.373-.162 2.611.825 2.771 2.196.227 1.959 1.187 8.149 4.671 14.13.182-.275.378-.551.59-.824.688-.886 1.799-1.32 2.899-1.136 1.108.187 2.021.969 2.384 2.04 1.139 3.362 5.769 14.724 17.487 19.64.253.105.53.106.783 0 11.72-4.916 16.35-16.277 17.489-19.643.365-1.073 1.279-1.853 2.387-2.038 1.101-.183 2.211.251 2.896 1.136.212.273.408.549.59.825 3.484-5.98 4.444-12.171 4.671-14.13.158-1.372 1.392-2.357 2.771-2.196 1.372.159 2.354 1.399 2.196 2.771-.298 2.574-1.712 11.57-7.422 19.274-.667.899-1.767 1.364-2.872 1.199-.855-.124-1.604-.603-2.079-1.3-2.609 5.559-8.188 14.307-18.691 18.713-.751.314-1.539.472-2.327.472zm25.362-21.588c.001.001.002.003.002.005-.001-.001-.002-.003-.002-.005zm-47.979-1.533c.001.001.001.002.002.004-.001-.002-.001-.002-.002-.004z"/><path d="m135.007 112.616c-1.377 0-2.496-1.114-2.5-2.492-.017-5.416 4.375-9.835 9.79-9.853h.031c5.401 0 9.805 4.385 9.821 9.79.004 1.381-1.111 2.503-2.492 2.508-.003 0-.006 0-.008 0-1.377 0-2.496-1.114-2.5-2.492-.009-2.653-2.17-4.806-4.821-4.806-.006 0-.011 0-.016 0-2.658.009-4.814 2.179-4.806 4.837.004 1.381-1.111 2.503-2.492 2.508-.002 0-.004 0-.007 0z"/><path d="m90.495 112.592c-1.381 0-2.5-1.119-2.5-2.5 0-2.659-2.163-4.822-4.821-4.822s-4.821 2.163-4.821 4.822c0 1.381-1.119 2.5-2.5 2.5s-2.5-1.119-2.5-2.5c0-5.416 4.406-9.822 9.821-9.822s9.821 4.406 9.821 9.822c0 1.381-1.119 2.5-2.5 2.5z"/><path d="m166.766 64.105c-.219 0-.441-.029-.662-.089-1.331-.364-2.115-1.739-1.751-3.071 2.35-8.584 3.71-15.863 4.047-21.646-1.245-4.042-2.982-6.274-5.166-6.636-5.833-.965-15.783 9.718-20.672 16.682-.792 1.131-2.35 1.404-3.482.61-1.13-.793-1.403-2.353-.609-3.482.143-.204 3.562-5.052 8.24-9.775 6.688-6.75 12.523-9.764 17.34-8.968 4.313.714 7.433 4.271 9.27 10.569.078.268.11.546.097.825-.312 6.211-1.738 13.997-4.241 23.142-.306 1.109-1.314 1.839-2.411 1.839z"/><path d="m58.738 64.105c-1.099 0-2.106-.729-2.41-1.84-2.504-9.144-3.931-16.929-4.241-23.142-.014-.278.019-.557.097-.824 1.837-6.299 4.955-9.854 9.269-10.569 4.826-.803 10.654 2.219 17.34 8.968 4.679 4.723 8.098 9.571 8.24 9.775.793 1.13.521 2.688-.609 3.481-1.128.794-2.689.521-3.482-.608-4.895-6.966-14.835-17.646-20.674-16.684-2.183.362-3.919 2.594-5.164 6.636.336 5.784 1.697 13.063 4.047 21.646.365 1.332-.419 2.707-1.751 3.071-.221.061-.444.09-.662.09z"/><path d="m178.142 256h-51.229c-1.943 0-3.832-.782-5.305-2.149-5.665 1.342-11.445 1.367-17.154.049-.331.299-.69.573-1.07.814-.869.553-1.833.935-2.863 1.134-.522.101-1.062.152-1.602.152h-51.23c-1.271 0-2.341-.955-2.484-2.218-1.404-12.364 5.89-16.148 10.363-17.304 1.938-.5 4.142-.731 6.526-.708.3.004.595.012.886.024 1.104.043 2.25.143 3.411.295-13.355-29.676-16.553-48.032-9.505-54.564 1.413-1.31 2.95-2.245 4.588-2.795.406-10.119 2.343-20.048 5.655-29.025-.07-.052-.139-.107-.205-.167-.804-.709-1.184-1.808-.992-2.867.967-5.406 2.353-11.353 3.802-16.312.215-.736.756-1.333 1.468-1.619.711-.285 1.516-.229 2.181.155 6.704 3.867 13.197 9.396 18.776 15.99 2.12 2.505 4.416 4.617 6.824 6.276.539.372.912.941 1.036 1.585 1.344 6.967 6.698 12.024 12.731 12.024 6.031 0 11.245-4.853 12.679-11.801.133-.644.514-1.209 1.06-1.574 2.543-1.698 4.957-3.889 7.175-6.51 5.217-6.167 11.262-11.421 17.527-15.242.191-.246.431-.459.711-.623l.293-.167c.664-.382 1.468-.438 2.18-.151s1.252.885 1.466 1.621c1.439 4.951 2.822 10.911 3.796 16.352.189 1.06-.192 2.157-.996 2.865-.004.004-.008.007-.012.011 3.295 8.868 5.25 18.658 5.706 28.61 1.646.549 3.19 1.487 4.609 2.803 7.048 6.533 3.85 24.89-9.507 54.566 1.155-.154 2.307-.254 3.419-.298.289-.012.583-.02.881-.023 2.383-.027 4.587.207 6.525.708 3.62.935 11.876 4.547 10.363 17.865-.143 1.263-1.212 2.218-2.483 2.218zm-55.68-7.452c.8 0 1.568.384 2.044 1.061.613.871 1.513 1.391 2.406 1.391h48.891c.075-5.546-2.246-9.068-6.79-10.242-1.509-.39-3.254-.578-5.212-.549-.252.003-.501.01-.745.02-1.114.044-2.277.153-3.458.325-.42.061-.848.068-1.27.021-1.511-.173-2.852-1.052-3.589-2.353-.709-1.25-.775-2.719-.183-4.029l.056-.124c17.619-38.941 12.823-47.686 10.934-49.438-1.25-1.159-2.546-1.811-3.962-1.995-1.222-.158-2.146-1.182-2.178-2.414-.294-11.173-2.578-22.178-6.605-31.827-.355-.85-.214-1.826.367-2.541.29-.356.667-.619 1.083-.771-.657-3.351-1.446-6.805-2.286-10.008-5.159 3.421-10.122 7.883-14.484 13.039-2.28 2.695-4.76 5.001-7.384 6.866-2.215 8.759-9.222 14.79-17.346 14.79-8.256 0-15.296-6.148-17.426-15.075-2.47-1.81-4.815-4.02-6.982-6.581-4.434-5.239-9.464-9.747-14.69-13.182-.851 3.211-1.648 6.675-2.311 10.032.519.132.991.43 1.337.863.57.714.706 1.682.354 2.524-4.093 9.792-6.381 21.002-6.618 32.42-.025 1.235-.949 2.267-2.175 2.427-1.412.185-2.706.837-3.954 1.994-1.89 1.751-6.686 10.495 10.948 49.468l-2.236 1.124 2.277-1.031c.593 1.31.526 2.779-.183 4.029-.737 1.3-2.078 2.179-3.588 2.352-.42.048-.846.041-1.27-.02-1.181-.172-2.344-.281-3.456-.325-.253-.011-.501-.017-.752-.021-1.935-.021-3.699.16-5.208.549-3.037.785-6.89 2.655-6.792 9.681h48.892c.223 0 .443-.021.655-.062.409-.079.788-.228 1.126-.443.162-.104.312-.22.446-.347.127-.119.25-.268.376-.453.602-.881 1.693-1.284 2.725-1.002 5.834 1.595 11.765 1.566 17.541-.052.224-.06.45-.091.675-.091zm36.651-12.298c-.001.001-.002.003-.002.004.001-.001.001-.002.002-.004zm-88.259-88.7c0 .002-.001.003-.001.005.001-.001.001-.003.001-.005zm86.368-2.165c.002 0 .004.001.006.002-.002-.001-.004-.001-.006-.002z"/><path d="m168.155 207.239c-.671 0-1.322-.27-1.799-.763-.602-.624-.838-1.515-.624-2.354l1.499-7.349c.026-.179.054-.357.076-.531.022-.172.039-.329.056-.487l.057-.501c.019-.162.038-.324.054-.482.014-.147.023-.3.034-.453l.039-.521c.012-.137.022-.274.03-.408.008-.146.012-.287.015-.427l.017-.494c.006-.134.011-.267.013-.397.001-.11-.002-.228-.005-.345l-.008-.513c-.001-.122-.001-.244-.006-.362-.006-.132-.017-.263-.026-.395l-.053-.742c-.012-.12-.03-.24-.048-.36l-.061-.452c-.01-.075-.018-.15-.03-.222-.021-.123-.049-.244-.075-.364l-.119-.569c-.029-.116-.066-.23-.103-.345l-.146-.491c-.041-.118-.092-.232-.142-.346l-.139-.338c-.088-.196-.177-.344-.264-.493-.04-.069-.077-.139-.113-.209-.063-.1-.173-.244-.283-.385-.023-.031-.064-.086-.099-.135-.104-.124-.226-.252-.355-.372-.252-.234-.506-.438-.76-.628l-.177-.133c-.213-.151-.445-.302-.679-.435l-.188-.099c-.175-.092-.362-.182-.551-.261l-.147-.064c-.22-.087-.421-.148-.623-.203-.092-.025-.18-.048-.267-.068-.19-.043-.377-.08-.563-.104-.057-.007-.115-.017-.172-.028-1.144-.226-1.984-1.215-2.015-2.387-.108-4.137-.496-8.311-1.151-12.405-.108-.679.067-1.374.487-1.919 5.687-7.396 7.062-16.368 7.377-21.058.102-1.522.967-2.855 2.313-3.568 1.107-.587 2.381-.67 3.533-.253.966-4.51 1.692-12.326-2.553-18.842l-.209-.336c-.489-.77-.52-1.745-.081-2.544.439-.8 1.279-1.296 2.191-1.296h4.244l-4.629-11.571c-.308-.771-.214-1.644.251-2.33.465-.687 1.241-1.099 2.07-1.099h3.801c-2.616-5.05-6.965-14.28-8.267-22.089l-.171-.958c-.047-.266-.051-.537-.011-.804l.061-.388c.287-1.699 1.484-3.035 3.128-3.5 1.349-.383 2.755-.107 3.839.718 3.65-52.772 37.295-66.829 40.006-67.876l15.729-7.656c1.272-.619 2.775-.588 4.017.084 1.235.669 2.077 1.902 2.251 3.298.87 6.986 3.638 24.76 10.529 38.918 7.108 14.606 3.215 34.263.893 42.977 1.558-.147 3.105.28 4.382 1.233 1.543 1.151 2.465 2.91 2.529 4.826.727 21.942-10.232 41.475-14.173 47.75l1.309.766c.001 0 .001.001.002.001 1.812 1.063 2.623 3.273 1.926 5.254-2.471 7.016-10.857 16.781-16.001 22.341l.378.222c1.102.645 1.869 1.737 2.104 2.996.233 1.249-.086 2.534-.875 3.524-5.012 6.295-14.735 10.407-20.479 12.404.273.577.421 1.218.423 1.888.003 1.558-.791 2.959-2.124 3.748-12.908 7.638-28.75 12.104-39.767 14.506-.176.034-.355.053-.532.053zm1.825-25.127c.208.269.404.539.584.828.059.093.114.196.168.3.148.258.306.535.445.832.05.107.101.231.148.356l.066.16c.096.223.19.446.272.682.044.126.083.259.12.392l.073.242c.063.203.126.406.181.62.035.143.064.287.093.431l.057.269c.046.204.091.409.127.623.025.149.044.301.062.453l.045.329c.028.195.057.391.076.594.015.151.025.302.034.454l.027.387c.016.193.029.386.038.585.007.173.009.348.01.523l.007.44c.004.168.007.337.006.512-.002.185-.01.364-.017.544l-.014.425c-.005.188-.011.377-.021.571-.01.174-.023.354-.038.535l-.035.466c-.014.19-.026.38-.045.575-.02.203-.043.401-.066.599l-.05.445c-.021.199-.043.396-.069.6-.025.199-.058.414-.09.629l-.074.51c-.025.178-.051.355-.08.537l-.193 1.11c-.035.205-.07.41-.11.619-.041.214-.086.435-.131.656l-.095.464c9.989-2.401 22.754-6.349 33.475-12.489l-1.244-.729c-.872-.511-1.351-1.497-1.213-2.498s.866-1.821 1.844-2.078c.157-.042 15.421-4.111 21.911-11.544l-.427-.25c-1.158-.678-1.935-1.828-2.128-3.153-.193-1.319.219-2.635 1.13-3.61 2.953-3.165 12.621-13.84 15.3-20.699l-1.424-.833c-1.028-.604-1.775-1.61-2.052-2.764-.28-1.167-.076-2.369.573-3.382 3.398-5.303 14.433-24.25 13.73-45.431-.018-.531-.334-.845-.521-.984-.328-.245-.736-.328-1.132-.224-1.541.401-3.127-.035-4.24-1.166-1.11-1.128-1.52-2.713-1.096-4.24 2.115-7.607 6.319-26.772-.312-40.398-6.945-14.27-9.869-31.864-10.884-39.618l-15.059 7.33c-.073.036-.147.067-.225.096-1.379.52-33.945 13.358-36.964 64.898-.104 1.784-1.264 3.312-2.955 3.892-1.246.427-2.583.27-3.667-.382 2.048 10.142 9.425 22.964 9.502 23.097.447.773.448 1.727.002 2.501s-1.272 1.251-2.166 1.251h-4.308l4.629 11.571c.308.771.214 1.644-.251 2.33-.465.687-1.241 1.099-2.07 1.099h-3.741c3.259 7.522 2.206 15.477 1.156 19.904-.325 1.371-1.253 2.475-2.545 3.027-.997.427-2.078.47-3.082.139-.45 5.249-2.071 14.214-7.685 22.004.497 3.338.826 6.72.98 10.089.163.053.327.111.491.174.092.036.177.073.262.111.366.155.687.307 1.007.476l.305.164c.376.213.757.458 1.135.728l.223.166c.474.356.841.66 1.188.982.303.281.599.595.875.932.044.05.115.145.162.214z"/><path d="m113.837 160.551c-.39 0-.697-.013-.914-.027-.058-.003-.115-.009-.172-.017-.056.007-.113.013-.171.017-2.174.142-13.565.204-24.237-12.409-10.34-12.219-23.722-20.115-34.092-20.115-.829 0-1.605-.412-2.07-1.099s-.559-1.56-.251-2.33l.629-1.571h-6.308c-.829 0-1.605-.412-2.07-1.099s-.559-1.56-.251-2.33l4.629-11.571h-4.308c-.894 0-1.719-.477-2.165-1.251-.447-.774-.446-1.728.001-2.501.08-.138 7.986-13.892 9.698-24.159 1.015-6.089 2.522-11.583 4.479-16.327.184-.445.206-.977.064-1.498-5.733-20.942-5.77-33.873-.111-39.531 9.231-9.231 26.598 2.257 39.539 13.522.479.417 1.107.621 1.777.576 4.869-.333 9.73-.328 14.424-.331h1.588c4.703.003 9.555-.003 14.426.331.656.039 1.298-.159 1.777-.577 12.938-11.264 30.302-22.757 39.537-13.522 5.658 5.659 5.622 18.59-.11 39.532-.143.521-.12 1.051.063 1.496 1.957 4.748 3.464 10.241 4.479 16.329 1.712 10.268 9.618 24.021 9.698 24.159.447.773.448 1.727.001 2.501-.446.774-1.271 1.251-2.165 1.251h-4.308l4.629 11.571c.308.771.214 1.644-.251 2.33-.465.687-1.241 1.099-2.07 1.099h-6.308l.629 1.571c.308.771.214 1.644-.251 2.33-.465.687-1.241 1.099-2.07 1.099-10.37 0-23.752 7.896-34.092 20.115-9.607 11.355-19.799 12.436-23.322 12.436zm-1.086-15.598c-5.928 0-8.346.67-8.346 2.312 0 3.106 4.364 8.081 8.137 8.267.07.003.141.01.209.019.069-.009.14-.016.21-.019 3.772-.186 8.136-5.161 8.136-8.267 0-1.642-2.418-2.312-8.346-2.312zm0-5c4.332 0 13.346 0 13.346 7.312 0 1.611-.534 3.385-1.455 5.098 2.735-1.59 5.723-3.958 8.701-7.478 10.299-12.172 23.122-20.187 34.312-21.645l-.725-1.812c-.308-.771-.214-1.644.251-2.33.465-.687 1.241-1.099 2.07-1.099h6.308l-4.629-11.571c-.308-.771-.214-1.644.251-2.33.465-.687 1.241-1.099 2.07-1.099h3.801c-2.616-5.05-6.965-14.28-8.267-22.089-.953-5.717-2.355-10.845-4.169-15.244-.604-1.462-.698-3.141-.264-4.724 6.745-24.641 3.771-32.302 1.397-34.676-5.002-5.002-16.93.012-32.72 13.759-1.486 1.292-3.41 1.93-5.4 1.793-4.699-.322-9.473-.318-14.084-.319h-1.59c-4.632-.002-9.384-.002-14.082.319-2.005.139-3.917-.5-5.401-1.793-22.426-19.521-30.351-16.122-32.72-13.757-2.373 2.374-5.347 10.035 1.398 34.677.433 1.583.339 3.26-.264 4.723-1.813 4.397-3.217 9.526-4.17 15.244-1.301 7.808-5.65 17.038-8.266 22.088h3.801c.829 0 1.605.412 2.07 1.099s.559 1.56.251 2.33l-4.629 11.571h6.308c.829 0 1.605.412 2.07 1.099s.559 1.56.251 2.33l-.725 1.812c11.189 1.458 24.013 9.473 34.312 21.645 2.979 3.519 5.966 5.888 8.701 7.478-.921-1.712-1.455-3.487-1.455-5.098 0-7.313 9.014-7.313 13.346-7.313z"/><path d="m112.751 169.771c-8.562 0-15.816-6.613-17.642-16.081-.191-.997.237-2.01 1.087-2.566.85-.555 1.952-.542 2.786.034 7.26 5.001 13.391 4.372 13.446 4.363.21-.027.421-.028.629-.002.281.03 6.215.631 13.462-4.361.834-.576 1.937-.589 2.786-.034.85.556 1.278 1.569 1.087 2.566-1.825 9.468-9.079 16.081-17.641 16.081zm-10.395-11.142c2.424 3.754 6.249 6.142 10.395 6.142s7.971-2.388 10.395-6.142c-5.21 2.085-9.243 1.972-10.395 1.882-1.15.09-5.184.204-10.395-1.882zm10.395-.629h.01z"/><path d="m113.837 160.551c-.39 0-.697-.013-.914-.027-.058-.003-.115-.009-.171-.017-.057.007-.114.013-.172.017-2.174.142-13.565.204-24.237-12.409-5.17-6.109-11.155-11.229-17.308-14.803-.771-.447-1.244-1.271-1.244-2.162v-.179c0-.217.028-.433.084-.643 1.091-4.101 4.167-9.134 12.631-9.82 15.002-1.217 16.21-5.806 16.207-5.851-.002-.039-.004-.078-.005-.116-.037-2.287-.152-22.562 7.256-30.093 1.925-1.956 4.193-2.948 6.744-2.948s4.819.992 6.744 2.948c3.25 3.304 5.454 9.434 6.55 18.219.762 6.103.714 11.312.706 11.838.176 1.345 3.395 4.965 16.202 6.004 8.576.695 11.629 5.856 12.681 10.063.27 1.079-.206 2.207-1.168 2.766-6.14 3.576-12.109 8.685-17.264 14.777-9.607 11.355-19.799 12.436-23.322 12.436zm-1.086-15.598c-5.928 0-8.346.67-8.346 2.312 0 3.106 4.364 8.081 8.137 8.267.07.003.141.01.21.019.068-.009.139-.016.209-.019 3.772-.186 8.136-5.161 8.136-8.267 0-1.642-2.418-2.312-8.346-2.312zm0-5c4.332 0 13.346 0 13.346 7.312 0 1.611-.534 3.385-1.455 5.098 2.735-1.59 5.723-3.958 8.701-7.478 5.03-5.946 10.811-11.031 16.812-14.807-1.267-2.799-3.739-4.269-7.649-4.586-8.39-.68-14.37-2.503-17.775-5.418-2.888-2.472-3.04-4.951-3.021-5.632.087-5.652-.788-21.373-5.822-26.488-.977-.991-1.986-1.453-3.179-1.453s-2.202.462-3.179 1.453c-5.034 5.115-5.909 20.835-5.822 26.487.019.681-.134 3.16-3.021 5.633-3.404 2.915-9.385 4.738-17.775 5.418-3.898.316-6.367 1.77-7.641 4.537 6.028 3.78 11.835 8.883 16.89 14.856 2.979 3.519 5.966 5.888 8.701 7.478-.921-1.712-1.455-3.487-1.455-5.098-.002-7.312 9.012-7.312 13.344-7.312zm13.968-25.361s-.001.004-.004.016c.003-.004.005-.016.004-.016zm-.011-.079v.028c-.001.03 0 .048.001.058.001-.023.001-.051-.001-.086z"/><path d="m112.751 160.553c-6.747 0-13.346-7.608-13.346-13.288 0-7.312 9.014-7.312 13.346-7.312s13.346 0 13.346 7.312c0 5.679-6.599 13.288-13.346 13.288zm0-15.6c-5.928 0-8.346.67-8.346 2.312 0 3.197 4.557 8.288 8.346 8.288s8.346-5.09 8.346-8.288c0-1.642-2.418-2.312-8.346-2.312z"/></svg>