<svg enable-background="new 0 0 256 256" height="512" viewBox="0 0 256 256" width="512" xmlns="http://www.w3.org/2000/svg"><path d="m89.622 244.414c0-3.856 1.339-7.393 3.566-10.189-11.43-.858-25.558.856-24.649 14.835.162 2.498 1.992 4.441 4.203 4.441h26.491v-.184c-5.662-.484-9.611-2.268-9.611-8.903z" fill="#52565b"/><path d="m162.812 234.225c2.227 2.796 3.566 6.333 3.566 10.189 0 6.635-3.948 8.419-9.611 8.902v.184h26.491c2.21 0 4.04-1.943 4.203-4.441.909-13.978-13.219-15.692-24.649-14.834z" fill="#52565b"/><path d="m74.28 54.898c.327-.436.648-.861.982-1.311.225-.302.448-.604.676-.912.816-1.106 1.646-2.238 2.503-3.427 6.788-9.407 14.098-15.083 20.965-18.447-8.061-5.561-22.352-16.043-31.291-26.215-10.476-11.922-21.391 30.266 6.165 50.312z" fill="#a8aeb2"/><path d="m166.378 244.414c0 9.033-7.305 9.086-16.315 9.086s-16.315-.053-16.315-9.086 7.305-16.355 16.315-16.355 16.315 7.322 16.315 16.355z" fill="#52565b"/><path d="m122.253 244.414c0 9.033-7.305 9.086-16.315 9.086s-16.315-.053-16.315-9.086 7.305-16.355 16.315-16.355 16.315 7.322 16.315 16.355z" fill="#52565b"/><path d="m182.114 175.048c-2.124 17.178-9.506 32.214-16.506 43.103-.006.009-.012.018-.018.028-2.578 4.008-5.411 7.93-8.352 11.565 2.175 1.071 4.078 2.603 5.575 4.484 5.146-.386 10.836-.253 15.459 1.29 10.185-7.098 35.05-29.285 3.842-60.47z" fill="#a8aeb2"/><path d="m98.762 229.743c-3.223-3.983-6.429-8.447-9.402-13.224-.005-.008-.01-.017-.016-.025-6.675-10.734-13.441-25.124-15.459-41.446-31.209 31.185-6.343 53.373 3.842 60.469 4.623-1.543 10.313-1.675 15.459-1.29 1.498-1.881 3.402-3.413 5.576-4.484z" fill="#a8aeb2"/><path d="m83.825 127.029c-25.681 44.445 2.044 86.781 14.937 102.714 10.846-5.342 23.491 2.599 23.491 14.671 0 .993-.103 1.861-.272 2.649 3.823.565 7.979.6 12.037 0-.169-.788-.272-1.656-.272-2.649 0-9.033 7.305-16.355 16.315-16.355 2.579 0 5.008.616 7.176 1.684 12.894-15.933 40.619-58.269 14.938-102.714-25.165 12.621-63.146 12.64-88.35 0z" fill="#a8aeb2"/><path d="m205.762 81.44c-3.652-2.58-12.372-10.252-28.203-32.191-22.027-30.524-49.559-21.862-49.559-21.862s-27.532-8.662-49.558 21.861c-15.832 21.939-24.551 29.612-28.203 32.192-1.197.846-1.592 2.476-.957 3.824 2.125 4.51 7.256 13.848 15.393 19.218l-4.13 2.907s16.519 29.07 67.454 29.07 67.454-29.07 67.454-29.07l-4.13-2.907c8.138-5.37 13.269-14.708 15.393-19.218.637-1.348.242-2.979-.954-3.824z" fill="#e3e4e5"/><path d="m177.558 49.249c.858 1.188 1.687 2.321 2.503 3.427.228.309.452.61.676.912.318.428.623.832.935 1.247 27.446-20.072 16.543-62.158 6.078-50.249-8.918 10.148-23.163 20.604-31.234 26.175 6.89 3.36 14.229 9.045 21.042 18.488z" fill="#a8aeb2"/><path d="m239.275 149.353c-11.36-23.431-4.656-41.491.641-50.488 1.616-2.745-.714-6.15-3.854-5.611-29.012 4.978-40.756 35.887-36.025 63.327 3.251 18.856-3.323 26.653-8.639 29.845 5.289 8.389 6.582 15.95 5.626 22.533 33.496 14.296 57.126-28.927 42.251-59.606z" fill="#a8aeb2"/><path d="m177.558 49.249c-22.026-30.524-49.558-21.862-49.558-21.862s-27.532-8.662-49.558 21.861c-7.639 10.586-13.619 17.846-18.176 22.819 15.647-2.883 20.092-17.079 38.137-24.546 13.81-5.715 22.418 3.515 27.573 9.679 1.065 1.274 2.983 1.274 4.048 0 5.155-6.164 13.763-15.394 27.573-9.679 18.045 7.467 22.49 21.663 38.137 24.546-4.556-4.972-10.536-12.232-18.176-22.818z" fill="#a8aeb2"/><path d="m74.279 54.9c.327-.437.649-.862.983-1.312.225-.302.448-.604.676-.912.816-1.106 1.646-2.238 2.503-3.427 3.193-4.425 6.502-8.004 9.825-10.927-8.698-6.452-15.488-12.939-19.513-17.444-1.397-1.564-3.83-1.314-4.656.638-1.45 3.427-3.223 8.823-3.805 15.592 2.698 6.518 7.166 12.832 13.987 17.792z" fill="#e3e4e5"/><path d="m177.558 49.249c.858 1.188 1.687 2.321 2.503 3.427.228.309.452.61.676.912.318.428.623.832.935 1.247 6.772-4.951 11.214-11.237 13.899-17.728-.581-6.769-2.354-12.165-3.805-15.592-.825-1.951-3.258-2.201-4.655-.638-4.014 4.492-10.775 10.955-19.439 17.39 3.344 2.933 6.674 6.53 9.886 10.982z" fill="#e3e4e5"/><path d="m134.216 96.783c0 3.029-3.187 7.313-6.216 7.313s-6.216-4.284-6.216-7.313 3.187-3.262 6.216-3.262 6.216.233 6.216 3.262z" fill="#52565b"/><path d="m128 104.128c0 4.718-3.41 8.173-7.411 8.958.701 6.096 3.749 10.688 7.411 10.688s6.71-4.592 7.411-10.688c-4.001-.785-7.411-4.241-7.411-8.958z" fill="#fd605b"/><g fill="#52565b"><path d="m191.325 104.482c3.44-2.27 6.343-5.25 8.709-8.274-18.981-21.983-32.503-31.398-40.767-35.414-17.759-8.629-32.919 16.459-16.382 24.671 16.41 8.149 29.867 23.323 38.888 35.781 9.787-7.034 13.682-13.856 13.682-13.856z"/><path d="m95.763 60.794c-8.19 3.98-21.54 13.255-40.253 34.816 2.446 3.226 5.499 6.452 9.165 8.872l-4.13 2.907s3.721 6.53 13.047 13.4c9.018-12.37 22.34-27.274 38.552-35.324 16.538-8.212 1.378-33.3-16.381-24.671z"/><path d="m215.534 211.235c4.267-21.014-10.123-29.792-17.095-32.741 1.524-3.235 2.516-7.511 2.446-13.124 11.052.004 31.713 3.492 36.626 28.618-4.984 8.796-12.644 15.367-21.977 17.247z"/><path d="m199.294 150.756c-.616-7.091-.152-14.268 1.4-21.053 17.78-6.578 28.681-2.336 32.695-.082.665 6.016 2.442 12.625 5.887 19.732.589 1.214 1.11 2.45 1.58 3.699-18.404-11.664-36.617-4.618-41.562-2.296z"/><path d="m212.228 106.391c5.925-6.648 13.858-11.425 23.834-13.137 3.14-.539 5.47 2.865 3.854 5.611-2.13 3.617-4.484 8.702-5.804 15.009-2.371-2.842-9.032-8.89-21.884-7.483z"/></g><path d="m150.032 134.425c-13.916 2.717-30.141 2.719-44.065 0-1.107 6.82-1.449 12.558-1.449 12.558h4.12c-1.648 11.203 0 23.34 0 23.34l3.296-.934c0 21.185 11.806 33.947 14.947 40.41.539.892 1.7.892 2.239 0 3.148-6.479 14.947-19.212 14.947-40.41l3.295.934s1.648-12.137 0-23.34h4.12c-.001 0-.343-5.738-1.45-12.558z" fill="#e3e4e5"/><path d="m150.062 256c-8.819 0-18.815 0-18.815-11.586 0-10.396 8.44-18.855 18.815-18.855s18.815 8.458 18.815 18.855c.001 11.586-9.995 11.586-18.815 11.586zm0-25.441c-7.618 0-13.815 6.215-13.815 13.855 0 6.046 3.581 6.586 13.815 6.586s13.815-.54 13.815-6.586c.001-7.64-6.196-13.855-13.815-13.855z"/><path d="m105.937 256c-8.819 0-18.815 0-18.815-11.586 0-10.396 8.44-18.855 18.815-18.855s18.816 8.458 18.816 18.855c.001 11.586-9.996 11.586-18.816 11.586zm0-25.441c-7.618 0-13.815 6.215-13.815 13.855 0 6.046 3.581 6.586 13.815 6.586 10.235 0 13.816-.54 13.816-6.586.001-7.64-6.197-13.855-13.816-13.855z"/><path d="m178.271 238.016c-.266 0-.533-.042-.791-.128-3.66-1.221-8.532-1.615-14.481-1.168-.83.057-1.627-.289-2.143-.936-1.261-1.583-2.894-2.897-4.724-3.798-.682-.336-1.173-.964-1.336-1.706s.02-1.518.498-2.109c2.899-3.584 5.655-7.401 8.192-11.345 6.189-9.628 13.999-24.719 16.146-42.084.117-.948.765-1.747 1.668-2.057.903-.312 1.903-.08 2.581.595 11.497 11.489 16.819 23.046 15.818 34.351-1.312 14.839-13.094 25.126-20 29.937-.423.295-.923.448-1.428.448zm-10.783-6.473c3.935 0 7.393.409 10.334 1.224 6.263-4.558 15.821-13.417 16.897-25.578.762-8.607-2.907-17.569-10.916-26.694-2.399 13.009-7.8 26.106-16.094 39.007-2.125 3.304-4.386 6.506-6.749 9.563 1.064.759 2.05 1.627 2.933 2.583 1.239-.069 2.438-.105 3.595-.105z"/><path d="m77.729 238.016c-.505 0-1.005-.153-1.429-.449-6.906-4.811-18.687-15.098-20-29.937-1-11.305 4.322-22.862 15.819-34.352.677-.676 1.677-.906 2.581-.595.903.311 1.551 1.109 1.668 2.057 1.652 13.375 6.733 26.978 15.1 40.433.018.027.034.054.048.078 2.781 4.469 5.884 8.833 9.189 12.919.479.591.662 1.367.499 2.11-.163.742-.655 1.37-1.337 1.706-1.829.901-3.463 2.214-4.724 3.798-.516.647-1.311.993-2.143.936-5.949-.445-10.823-.053-14.481 1.168-.257.086-.525.128-.79.128zm-5.531-57.521c-8.01 9.125-11.68 18.088-10.918 26.695 1.076 12.161 10.635 21.019 16.897 25.577 3.807-1.054 8.481-1.429 13.929-1.118.883-.957 1.869-1.825 2.933-2.583-2.771-3.583-5.389-7.349-7.802-11.227-.005-.009-.011-.017-.016-.025-7.69-12.367-12.731-24.896-15.023-37.319z"/><path d="m99.234 256h-26.492c-3.509 0-6.45-2.978-6.697-6.778-.326-5.018 1.043-9.081 4.068-12.076 4.46-4.416 12.285-6.238 23.263-5.414.923.069 1.733.644 2.104 1.493s.241 1.833-.335 2.558c-1.978 2.482-3.022 5.467-3.022 8.632 0 4.381 1.78 5.938 7.324 6.412 1.294.11 2.288 1.192 2.288 2.491v.184c-.001 1.379-1.12 2.498-2.501 2.498zm-10.752-19.46c-6.991 0-12.08 1.415-14.852 4.159-1.979 1.958-2.827 4.641-2.596 8.199.075 1.159.841 2.103 1.707 2.103h16.052c-1.033-1.6-1.672-3.733-1.672-6.586 0-2.764.585-5.427 1.715-7.873-.117-.002-.235-.002-.354-.002z"/><path d="m128 250c-2.148 0-4.296-.155-6.385-.463-.683-.101-1.294-.48-1.688-1.048s-.534-1.273-.39-1.949c.146-.681.217-1.376.217-2.125 0-4.821-2.443-9.219-6.535-11.765-4.067-2.531-9.06-2.778-13.353-.664-1.05.516-2.314.237-3.048-.67-13.356-16.505-41.57-59.828-15.159-105.537.663-1.145 2.102-1.576 3.286-.984 24.544 12.31 61.565 12.31 86.109 0 1.185-.592 2.623-.161 3.286.984 26.412 45.71-1.803 89.033-15.159 105.538-.733.907-1.999 1.187-3.048.67-1.922-.946-3.965-1.426-6.071-1.426-7.618 0-13.816 6.215-13.816 13.855 0 .749.071 1.444.217 2.125.145.675.004 1.381-.39 1.949-.395.568-1.006.947-1.689 1.048-2.088.307-4.237.462-6.384.462zm-3.252-5.134c2.152.178 4.348.179 6.504 0-.004-.149-.006-.3-.006-.452 0-10.396 8.441-18.855 18.816-18.855 2.201 0 4.349.382 6.406 1.137 12.879-16.417 36.868-55.392 14.673-96.396-25.066 11.567-61.217 11.566-86.283 0-22.194 41.003 1.795 79.979 14.674 96.396 5.394-1.975 11.366-1.381 16.328 1.707 5.568 3.465 8.894 9.45 8.894 16.01 0 .153-.002.303-.006.453z"/><path d="m119.893 237.927c-1.265 0-2.35-.956-2.483-2.241-2.023-19.436-9.993-38.006-10.073-38.191-.549-1.267.033-2.739 1.3-3.288s2.737.031 3.288 1.299c.34.784 8.353 19.439 10.458 39.663.144 1.373-.854 2.603-2.228 2.745-.089.008-.176.013-.262.013z"/><path d="m136.107 237.927c-.087 0-.174-.004-.262-.014-1.373-.143-2.371-1.372-2.228-2.745 2.105-20.224 10.118-38.878 10.458-39.663.55-1.267 2.022-1.848 3.288-1.299 1.267.549 1.849 2.021 1.3 3.288-.08.185-8.05 18.755-10.073 38.191-.133 1.286-1.218 2.242-2.483 2.242z"/><path d="m128 138.959c-51.794 0-68.924-29.096-69.628-30.334-.636-1.12-.318-2.539.734-3.28l1.305-.918c-6.851-5.658-11.254-13.56-13.391-18.098-1.163-2.466-.417-5.381 1.774-6.931 2.949-2.083 11.542-9.333 27.619-31.612 11.872-16.453 25.393-21.794 34.645-23.378 8.407-1.438 14.847-.142 16.96.393 4.775-1.145 30.819-5.766 51.567 22.985 16.077 22.28 24.67 29.529 27.618 31.612h.001c2.191 1.55 2.938 4.465 1.773 6.932-2.136 4.537-6.539 12.438-13.39 18.097l1.305.918c1.053.741 1.37 2.16.734 3.28-.702 1.238-17.832 30.334-69.626 30.334zm-63.997-30.946c4.684 6.228 22.775 25.946 63.997 25.946 41.385 0 59.357-19.705 64.006-25.94l-2.121-1.493c-.676-.476-1.072-1.255-1.061-2.082.013-.827.433-1.594 1.123-2.049 7.777-5.133 12.737-14.436 14.509-18.197.121-.257.06-.579-.138-.718-3.917-2.768-12.865-10.704-28.787-32.77-20.729-28.726-46.522-21.02-46.781-20.939-.488.153-1.012.153-1.5 0-1.053-.325-26.145-7.66-46.781 20.939-15.923 22.067-24.871 30.003-28.788 32.77-.196.139-.258.46-.138.716 1.772 3.763 6.732 13.065 14.51 18.198.69.455 1.11 1.222 1.123 2.049.012.827-.385 1.606-1.061 2.082z"/><path d="m181.675 57.335c-.761 0-1.512-.346-2.002-1l-1.623-2.175c-.821-1.112-1.655-2.252-2.519-3.448-5.834-8.084-12.601-14.041-20.11-17.703-.799-.389-1.33-1.173-1.397-2.059-.066-.886.342-1.741 1.073-2.246 7.719-5.328 21.981-15.761 30.775-25.768 2.896-3.296 5.746-3.12 7.191-2.72 3.701 1.025 6.539 5.531 7.787 12.362 2.512 13.757-1.987 32.783-17.702 44.275-.444.325-.961.482-1.473.482zm-20.412-26.847c6.798 4.046 12.948 9.849 18.323 17.298.852 1.181 1.676 2.306 2.487 3.405l.077.105c14.124-11.708 15.376-29.086 13.781-37.82-1.027-5.624-3.076-8.129-4.203-8.441-.728-.202-1.63.667-2.101 1.202-7.981 9.083-20.141 18.397-28.364 24.251z"/><path d="m74.278 57.398c-.511 0-1.025-.156-1.469-.479-15.759-11.463-20.297-30.502-17.804-44.284 1.241-6.86 4.081-11.386 7.792-12.417 1.442-.399 4.296-.582 7.196 2.719 8.808 10.022 23.098 20.471 30.833 25.808.73.504 1.139 1.358 1.073 2.243s-.597 1.669-1.394 2.06c-7.481 3.665-14.224 9.608-20.037 17.665-.863 1.196-1.697 2.335-2.519 3.449l-1.67 2.239c-.49.652-1.24.997-2.001.997zm-9.915-52.393c-.077 0-.153.009-.228.03-1.132.314-3.188 2.835-4.211 8.49-1.583 8.751-.298 26.155 13.873 37.839l.129-.173c.812-1.1 1.636-2.225 2.487-3.406 5.355-7.421 11.481-13.209 18.251-17.253-8.239-5.861-20.43-15.193-28.428-24.295-.422-.482-1.191-1.232-1.873-1.232z"/><path d="m147.972 81.946c-1.377 0-2.495-1.114-2.5-2.492-.007-2.103.806-4.083 2.287-5.575 1.482-1.492 3.457-2.317 5.561-2.324h.026c4.329 0 7.858 3.515 7.873 7.848.005 1.381-1.111 2.504-2.492 2.508-.002 0-.005 0-.008 0-1.377 0-2.495-1.114-2.5-2.492-.005-1.582-1.294-2.864-2.874-2.864-.003 0-.006 0-.01 0-.768.002-1.487.304-2.028.848s-.838 1.267-.835 2.035c.005 1.381-1.111 2.504-2.492 2.508-.002 0-.005 0-.008 0z"/><path d="m108.028 81.929c-1.381 0-2.5-1.119-2.5-2.5 0-1.584-1.289-2.874-2.873-2.874-1.585 0-2.874 1.289-2.874 2.874 0 1.381-1.119 2.5-2.5 2.5s-2.5-1.119-2.5-2.5c0-4.341 3.532-7.874 7.874-7.874 4.341 0 7.873 3.532 7.873 7.874 0 1.381-1.119 2.5-2.5 2.5z"/><path d="m118.885 115.751c-2.528 0-5.023-.846-7.098-2.495-1.08-.859-1.26-2.432-.4-3.513.86-1.08 2.431-1.26 3.514-.4 1.982 1.576 4.542 1.854 6.843.744 2.353-1.134 3.757-3.362 3.757-5.959 0-1.381 1.119-2.5 2.5-2.5s2.5 1.119 2.5 2.5v.617c0 .179-.019.353-.055.521-.387 4.025-2.814 7.533-6.529 9.325-1.614.778-3.331 1.16-5.032 1.16z"/><path d="m137.115 115.751c-1.701 0-3.417-.382-5.031-1.161-3.715-1.792-6.143-5.299-6.529-9.325-.036-.168-.055-.342-.055-.521v-.617c0-1.381 1.119-2.5 2.5-2.5s2.5 1.119 2.5 2.5c0 2.597 1.404 4.825 3.757 5.959 2.302 1.11 4.86.833 6.843-.744 1.081-.86 2.653-.68 3.514.4.859 1.081.68 2.653-.4 3.513-2.075 1.651-4.57 2.496-7.099 2.496z"/><path d="m210.029 214.261c-4.562 0-9.271-.991-13.985-3.003-1.043-.445-1.655-1.536-1.492-2.658.977-6.735-.796-13.747-5.268-20.84-.359-.569-.474-1.258-.317-1.913.155-.654.568-1.218 1.145-1.564 5.029-3.02 10.406-10.204 7.462-27.277-2.502-14.516-.464-29.693 5.593-41.642 6.902-13.616 18.131-22.113 32.474-24.574 2.419-.417 4.787.584 6.184 2.607 1.402 2.032 1.497 4.612.247 6.736-4.891 8.307-11.465 25.606-.545 48.129 8.747 18.042 5.326 41.386-8.133 55.509-6.605 6.928-14.719 10.49-23.365 10.49zm-10.308-6.919c14.976 5.541 25.2-1.93 30.052-7.021 11.879-12.463 14.997-33.906 7.253-49.877-11.936-24.62-4.662-43.678.736-52.848.367-.624.085-1.157-.053-1.357-.136-.197-.531-.642-1.224-.521-16.072 2.758-24.565 13.436-28.859 21.907-5.581 11.009-7.448 25.053-5.125 38.531 3.057 17.723-2.086 26.581-7.754 31 3.829 6.77 5.498 13.542 4.974 20.186z"/><path d="m195.735 74.568c-.15 0-.303-.014-.454-.042-8.987-1.656-14.504-6.693-20.345-12.026-5.02-4.583-10.209-9.322-18.295-12.668-11.226-4.643-18.506 1.566-24.699 8.973-.984 1.177-2.421 1.852-3.942 1.852s-2.958-.675-3.942-1.852c-6.193-7.407-13.47-13.62-24.699-8.973-8.086 3.346-13.275 8.085-18.295 12.668-5.841 5.333-11.357 10.37-20.345 12.026-1.054.194-2.119-.307-2.641-1.248-.521-.94-.382-2.107.345-2.9 5.275-5.758 11.328-13.359 17.991-22.593 20.774-28.787 46.858-24.118 51.586-22.98 4.729-1.138 30.812-5.806 51.586 22.981 6.663 9.234 12.716 16.835 17.991 22.593.727.792.865 1.96.345 2.9-.446.805-1.29 1.289-2.187 1.289zm-46.525-31.339c2.848 0 5.96.583 9.344 1.983 8.897 3.682 14.665 8.949 19.754 13.596 3.026 2.763 5.827 5.32 8.986 7.298-3.669-4.481-7.603-9.629-11.763-15.394-20.638-28.6-45.729-21.263-46.788-20.938-.482.15-1.009.15-1.493-.002-1.053-.325-26.145-7.66-46.781 20.939-4.16 5.765-8.094 10.913-11.763 15.394 3.159-1.978 5.96-4.535 8.986-7.298 5.089-4.647 10.856-9.914 19.754-13.596 16.169-6.692 26.174 5.276 30.447 10.386.068.082.145.083.213 0 3.379-4.04 10.344-12.368 21.104-12.368z"/><path d="m74.276 57.4c-.51 0-1.024-.155-1.469-.478-6.665-4.848-11.653-11.193-14.824-18.859-.152-.37-.215-.771-.181-1.169.616-7.171 2.512-12.851 3.993-16.353.704-1.662 2.162-2.825 3.902-3.114 1.813-.301 3.653.367 4.92 1.785 2.314 2.59 8.813 9.442 19.138 17.102.606.45.978 1.149 1.009 1.904s-.28 1.482-.847 1.981c-3.383 2.976-6.562 6.513-9.449 10.513-.863 1.196-1.697 2.335-2.519 3.449l-1.674 2.242c-.489.652-1.239.997-1.999.997zm-11.435-20.688c2.493 5.787 6.171 10.704 10.956 14.653l.13-.174c.812-1.1 1.636-2.225 2.487-3.406 2.466-3.416 5.136-6.524 7.964-9.272-9.312-7.191-15.257-13.473-17.488-15.97-.141-.158-.28-.198-.374-.183-.027.004-.064.011-.115.13-1.298 3.069-2.95 7.993-3.56 14.222z"/><path d="m181.675 57.335c-.761 0-1.512-.346-2.002-1l-1.623-2.176c-.821-1.112-1.655-2.252-2.519-3.448-2.903-4.024-6.103-7.579-9.508-10.564-.567-.499-.88-1.227-.85-1.981s.401-1.455 1.008-1.905c10.284-7.638 16.759-14.467 19.065-17.048 1.268-1.419 3.11-2.085 4.922-1.785 1.739.289 3.197 1.453 3.9 3.114 1.48 3.5 3.376 9.177 3.993 16.352.034.399-.028.8-.181 1.17-3.155 7.627-8.111 13.949-14.733 18.791-.443.324-.96.48-1.472.48zm-10.113-18.879c2.851 2.762 5.541 5.89 8.023 9.33.852 1.181 1.676 2.306 2.487 3.405l.077.105c4.746-3.938 8.396-8.833 10.874-14.583-.611-6.233-2.262-11.155-3.561-14.223-.05-.119-.087-.125-.114-.129-.029-.005-.192-.021-.374.183-2.221 2.486-8.141 8.744-17.412 15.912z"/><path d="m128 106.596c-4.489 0-8.716-5.528-8.716-9.812 0-5.763 6.332-5.763 8.716-5.763s8.716 0 8.716 5.763c0 4.284-4.227 9.812-8.716 9.812zm0-10.575c-2.911 0-3.554.354-3.695.507.003.002-.021.089-.021.256 0 1.844 2.292 4.812 3.716 4.812s3.716-2.968 3.716-4.812c0-.167-.023-.254-.032-.273-.13-.136-.773-.49-3.684-.49z"/><path d="m128 126.274c-4.952 0-9.021-5.306-9.895-12.902-.149-1.295.723-2.488 2.002-2.739 2.598-.51 5.393-2.763 5.393-6.505 0-1.381 1.119-2.5 2.5-2.5s2.5 1.119 2.5 2.5c0 3.742 2.795 5.995 5.393 6.505 1.279.251 2.151 1.443 2.002 2.739-.874 7.596-4.943 12.902-9.895 12.902zm-4.585-11.445c.911 4.03 2.943 6.445 4.585 6.445s3.674-2.416 4.585-6.445c-1.832-.767-3.396-1.962-4.585-3.457-1.189 1.495-2.753 2.69-4.585 3.457z"/><path d="m181.774 123.745c-.774 0-1.538-.359-2.026-1.034-8.332-11.505-21.684-26.918-37.976-35.008-9.232-4.584-9.941-13.79-6.693-20.402 4.043-8.234 14.276-14.104 25.28-8.756 8.22 3.995 22.104 13.488 41.566 36.029.78.904.812 2.233.076 3.174-2.023 2.587-4.172 4.823-6.414 6.678l1.306.919c1.054.742 1.371 2.164.731 3.284-.17.298-4.28 7.378-14.394 14.647-.44.317-.95.469-1.456.469zm-29.863-62.21c-5.515 0-10.156 3.516-12.345 7.971-2.199 4.477-2.19 10.432 4.43 13.719 16.241 8.065 29.568 22.819 38.297 34.508 5.038-3.928 8.142-7.595 9.716-9.712l-2.124-1.495c-.676-.476-1.072-1.255-1.061-2.082.013-.827.433-1.594 1.123-2.049 2.363-1.56 4.649-3.62 6.815-6.139-18.174-20.755-30.982-29.518-38.589-33.214-2.152-1.045-4.264-1.507-6.262-1.507z"/><path d="m73.592 123.289c-.53 0-1.051-.169-1.482-.487-9.642-7.103-13.573-13.89-13.735-14.175-.638-1.12-.32-2.541.732-3.282l1.306-.919c-2.419-2.002-4.729-4.448-6.895-7.305-.714-.942-.671-2.256.104-3.149 19.2-22.125 32.92-31.477 41.048-35.426 11.004-5.347 21.235.522 25.28 8.756 3.248 6.612 2.539 15.818-6.693 20.402-16.13 8.009-29.374 23.214-37.645 34.558-.393.538-.982.897-1.64.998-.126.019-.253.029-.38.029zm-9.597-15.271c1.519 2.038 4.448 5.511 9.102 9.239 8.665-11.522 21.874-26.056 37.936-34.032 6.62-3.287 6.629-9.242 4.43-13.72-2.98-6.068-10.514-10.395-18.606-6.463-7.52 3.654-20.17 12.282-38.094 32.646 2.308 2.782 4.755 5.033 7.291 6.707.69.455 1.11 1.222 1.123 2.049.012.827-.385 1.606-1.061 2.082z"/><path d="m215.533 213.734c-.657 0-1.296-.259-1.77-.734-.592-.593-.848-1.443-.681-2.264 3.798-18.698-8.155-26.785-15.618-29.94-.627-.265-1.118-.774-1.361-1.41-.243-.635-.217-1.343.073-1.958 1.524-3.236 2.268-7.282 2.208-12.027-.008-.668.252-1.312.722-1.788s1.11-.743 1.778-.743h.001c9.949.004 33.674 2.998 39.079 30.639.115.586.017 1.193-.278 1.712-5.65 9.972-14.054 16.529-23.66 18.464-.164.033-.329.049-.493.049zm-13.881-36.506c7.253 3.647 18.911 12.417 16.948 30.562 6.444-2.315 12.112-7.251 16.271-14.231-4.481-20.684-20.681-25.09-31.528-25.627-.157 3.424-.723 6.536-1.691 9.296z"/><path d="m240.855 155.552c-.464 0-.928-.128-1.338-.388-17.269-10.944-34.34-4.408-39.161-2.145-.738.347-1.6.312-2.311-.097-.708-.408-1.172-1.136-1.242-1.95-.647-7.44-.158-14.784 1.452-21.827.188-.822.778-1.494 1.57-1.787 18.847-6.973 30.604-2.265 34.786.083.702.395 1.172 1.104 1.26 1.905.69 6.24 2.592 12.604 5.652 18.916.593 1.221 1.154 2.537 1.671 3.91.379 1.006.071 2.141-.763 2.819-.455.372-1.014.561-1.576.561zm-22.322-11.541c5.26 0 11.113.91 17.146 3.489-2.334-5.417-3.881-10.872-4.611-16.268-4.193-2.005-13.558-4.729-28.226.356-1.037 5.037-1.463 10.236-1.27 15.512 3.904-1.446 9.896-3.089 16.961-3.089z"/><path d="m234.112 116.374c-.731 0-1.438-.321-1.92-.898-2.012-2.412-7.955-7.887-19.691-6.599-1.028.108-2.021-.42-2.494-1.34-.475-.92-.333-2.037.355-2.809 6.702-7.52 15.207-12.209 25.277-13.937 2.42-.42 4.785.583 6.184 2.606 1.402 2.032 1.497 4.613.247 6.736-2.604 4.421-4.457 9.216-5.511 14.252-.196.938-.912 1.682-1.842 1.914-.2.051-.404.075-.605.075zm-15.577-12.591c6.595.521 11.226 2.989 14.207 5.325 1.201-4.025 2.882-7.882 5.02-11.511.367-.624.085-1.158-.053-1.358-.136-.197-.531-.64-1.224-.521-6.831 1.172-12.845 3.877-17.95 8.065z"/><path d="m128 212.969c-1.332 0-2.551-.702-3.26-1.878-.039-.064-.075-.13-.108-.198-.604-1.244-1.641-2.867-2.841-4.746-4.325-6.772-11.379-17.816-12.265-33.477l-.206.058c-.695.197-1.444.083-2.052-.314-.605-.397-1.01-1.037-1.107-1.755-.063-.467-1.419-10.68-.351-21.177h-1.292c-.688 0-1.348-.284-1.819-.786-.473-.501-.717-1.175-.676-1.863.014-.24.361-5.944 1.477-12.811.108-.668.483-1.264 1.039-1.65.555-.387 1.246-.532 1.908-.402 13.698 2.675 29.411 2.674 43.105 0 .662-.129 1.353.015 1.908.402.556.387.931.982 1.039 1.65 1.115 6.866 1.463 12.571 1.477 12.811.041.688-.203 1.361-.676 1.863-.472.501-1.131.786-1.819.786h-1.292c1.068 10.497-.287 20.709-.351 21.177-.098.718-.502 1.358-1.107 1.755-.607.397-1.354.511-2.052.314l-.205-.058c-.886 15.665-7.936 26.698-12.259 33.465-1.202 1.882-2.241 3.508-2.848 4.757-.033.068-.069.134-.108.198-.708 1.177-1.927 1.879-3.259 1.879zm-16.066-46.079c.538 0 1.068.174 1.508.506.625.473.992 1.21.992 1.994 0 15.95 6.964 26.852 11.571 34.066.735 1.15 1.413 2.211 1.995 3.19.584-.983 1.265-2.047 2.003-3.203 4.604-7.207 11.563-18.099 11.563-34.054 0-.784.367-1.521.992-1.994.625-.474 1.435-.625 2.189-.411l.438.124c.366-4.178.808-12.244-.299-19.762-.105-.719.106-1.448.582-1.998.475-.55 1.165-.866 1.892-.866h1.414c-.161-1.772-.425-4.295-.828-7.137-12.815 2.17-27.075 2.17-39.895 0-.403 2.842-.667 5.365-.828 7.137h1.414c.727 0 1.417.316 1.892.866.476.55.688 1.279.582 1.998-1.106 7.518-.665 15.584-.299 19.762l.438-.124c.227-.063.456-.094.684-.094z"/><path d="m183.258 256h-26.491c-1.381 0-2.5-1.119-2.5-2.5v-.184c0-1.298.994-2.381 2.287-2.491 5.545-.473 7.324-2.031 7.324-6.412 0-3.165-1.045-6.149-3.022-8.632-.576-.725-.706-1.709-.335-2.558.37-.849 1.181-1.423 2.104-1.493 10.979-.826 18.803.998 23.263 5.414 3.025 2.996 4.395 7.059 4.068 12.076-.248 3.802-3.189 6.78-6.698 6.78zm-26.491-2.684h.01zm10.44-2.316h16.051c.866 0 1.632-.943 1.707-2.103.231-3.558-.617-6.24-2.596-8.199-2.771-2.744-7.861-4.159-14.852-4.159-.118 0-.236 0-.354.001 1.13 2.446 1.715 5.109 1.715 7.873 0 2.854-.639 4.987-1.671 6.587z"/></svg>