<svg enable-background="new 0 0 256 256" height="512" viewBox="0 0 256 256" width="512" xmlns="http://www.w3.org/2000/svg"><path d="m104.442 75.696c-1.777-3.538-2.787-7.411-3.464-11.325-3.606-20.845-22.876-36.76-46.114-36.76s-42.509 15.915-46.114 36.76c-.677 3.914-1.687 7.786-3.464 11.325-1.558 3.103-2.4 6.405-2.4 9.832 0 13.988 13.991 25.921 33.657 30.578 2.833.671 5.593 1.716 8.009 3.342 3.026 2.036 6.636 3.223 10.52 3.223 3.733 0 7.215-1.095 10.167-2.987 2.559-1.64 5.318-2.947 8.272-3.661 19.494-4.71 33.333-16.584 33.333-30.494-.001-3.428-.843-6.731-2.402-9.833z" fill="#7d3d1a"/><path d="m66.103 78.762c.186.356.29.758.29 1.218 0 3.496-5.766 8.413-11.322 8.534v5.41c0 5.799 4.701 10.499 10.499 10.499h2.57c7.135 0 12.92-5.784 12.92-12.92.001-8.105-7.294-13.989-14.957-12.741z" fill="#ffc097"/><path d="m54.864 88.525c-5.618 0-11.529-5.005-11.529-8.545 0-.271.046-.517.112-.751-7.442-.859-14.365 4.931-14.365 12.826 0 7.135 5.784 12.92 12.92 12.92h2.57c5.799 0 10.499-4.701 10.499-10.499v-5.963c-.069.002-.138.012-.207.012z" fill="#ffc097"/><path d="m91.014 86.174c-3.756 0-7.246 1.112-10.177 3.014.134.749.224 1.517.224 2.314 0 7.135-5.784 12.92-12.92 12.92h-2.57c-.346 0-.687-.019-1.024-.052-2.184 3.401-5.991 6.361-9.683 6.361-3.49 0-7.09-2.643-9.319-5.806-.321.03-.644.049-.973.049h-2.57c-7.135 0-12.92-5.784-12.92-12.92 0-.973.107-1.914.306-2.815-2.948-1.934-6.468-3.066-10.259-3.066-5.983 0-11.302 2.804-14.745 7.159 4.098 10.503 16.275 19.011 32.158 22.772 2.833.671 5.593 1.716 8.009 3.342 3.026 2.036 6.636 3.223 10.52 3.223 3.733 0 7.215-1.095 10.167-2.987 2.559-1.64 5.318-2.947 8.272-3.661 15.904-3.843 28.04-12.454 31.972-23.049-3.448-4.152-8.648-6.798-14.468-6.798z" fill="#ffc097"/><path d="m55.071 93.923v.553c0 5.47-4.185 9.959-9.526 10.45 2.229 3.162 5.829 5.806 9.319 5.806 3.692 0 7.499-2.96 9.683-6.361-5.318-.515-9.476-4.995-9.476-10.448z" fill="#fd605b"/><path d="m43.447 79.229c.802-2.823 6.229-3.062 11.417-3.062 4.888 0 9.994.209 11.239 2.594 1.627-.265 3.232-.191 4.759.14-3.695-6.202-9.944-11.507-15.999-11.507-6.301 0-12.817 5.747-16.446 12.271 1.597-.462 3.297-.636 5.03-.436z" fill="#fff"/><path d="m66.393 79.98c0 3.539-5.911 8.545-11.529 8.545s-11.529-5.005-11.529-8.545 5.911-3.812 11.529-3.812 11.529.272 11.529 3.812z" fill="#52565b"/><path d="m94.74 48.609c3.04-.113 6.27-1.486 8.841-4.058 4.751-4.751 5.451-11.753 1.564-15.64s-10.889-3.187-15.64 1.564c-2.307 2.307-3.65 5.144-3.985 7.899 3.602 2.942 6.716 6.394 9.22 10.235z" fill="#9e512b"/><path d="m15.017 48.588c2.588-3.965 5.824-7.515 9.577-10.516-.394-2.659-1.718-5.374-3.941-7.597-4.751-4.751-11.753-5.451-15.64-1.564s-3.187 10.889 1.564 15.64c2.459 2.459 5.519 3.823 8.44 4.037z" fill="#9e512b"/><path d="m43.447 79.229c.802-2.823 6.229-3.062 11.417-3.062 4.888 0 9.994.209 11.239 2.594 1.627-.265 3.232-.191 4.759.14-3.695-6.202-9.944-11.507-15.999-11.507-6.301 0-12.817 5.747-16.446 12.271 1.597-.462 3.297-.636 5.03-.436z" fill="#9e512b"/><path d="m107.63 34.731c-.121-2.208-.93-4.265-2.485-5.82-6.2-6.199-18.446-.231-19.625 9.463 2.168 1.77 4.133 3.745 5.921 5.859 2.05-7.157 9.994-11.783 16.189-9.502z" fill="#7d3d1a"/><path d="m24.55 38.11c-.932-6.441-6.966-11.672-13.12-11.71-4.925-.01-8.623 3.355-8.901 8.319 6.002-2.174 13.804 2.096 16.035 9.208 1.809-2.102 3.797-4.062 5.986-5.817z" fill="#7d3d1a"/><path d="m151.656 185.494c-1.028-2.922-1.542-5.399-1.789-7.12-.209-1.455-1.489-2.503-2.956-2.424-19.299 1.041-43.56-4.683-52.439-6.998-1.774-.463-3.51.846-3.564 2.678l-.492 16.74c13.98 2.25 31.538 2.689 53.509.558 2.441-1.36 5.02-2.537 7.731-3.434z" fill="#ffc097"/><path d="m41.94 117.992c-.291-.139-.58-.28-.877-.406-2.842 8.807-11.428 43.177 20.423 61.342-3.46-9.775-6.968-16.443-6.968-16.443-14.275-14.276-13.436-36.45-12.578-44.493z" fill="#ffc097"/><path d="m60.844 177.147c.211.573.423 1.177.634 1.775.003.002.005.003.008.005-.214-.605-.428-1.199-.642-1.78z" fill="#7d3d1a"/><path d="m67.35 201.996c-1.194-8.391-3.522-16.439-5.872-23.073-1.68-.959-3.224-1.971-4.685-3.013l-6.699 24.177s-1.791 6.665-3.778 7.196c-6.176 1.651-8.294 5.626-9.249 11.714-.266 1.694 1.097 3.209 2.812 3.209h21.013c-1.715 0-3.077-1.514-2.812-3.209.955-6.088 4.506-9.792 7.037-11.714 1.638-1.245 2.522-3.251 2.233-5.287z" fill="#7d3d1a"/><path d="m250.268 161.378c-11.059-27.648-39.814-36.496-39.814-36.496l2.212-2.212c-10.326-6.074-19.644-5.473-25.953-3.7 5.044 2.424 9.547 5.999 13.077 10.578 5.494 7.127 8.121 15.923 7.567 24.624 14.388 18.123-5.089 37.797-35.61 30.43-23.317-5.628-41.373 13.295-49.494 24.045-1.548 2.049.495 4.838 2.92 3.994 32.883-11.453 46.051.277 59.52 9.942 23.659 16.976 57.109 1.466 58.957-27.595l5.743 5.684c4.854-12.699 5.728-27.162.875-39.294z" fill="#9e512b"/><g fill="#7d3d1a"><path d="m146.916 175.95c1.464-.079 2.741.966 2.949 2.417.247 1.72.764 4.203 1.792 7.126 6.094-2.015 12.837-2.642 20.09-.891 8.032 1.939 15.288 1.991 21.374.705.759-1.761 1.731-3.442 2.92-4.993 2.721-3.55 5.811-8.373 8.297-13.902 1.767-3.929 2.753-8.074 3.018-12.24.542-8.502-1.99-17.388-7.567-24.624-3.351-4.348-7.866-8.074-13.077-10.578-6.033-2.9-12.843-4.149-19.722-3.426-5.685.598-12.464 1.528-20.681 2.702-38.708 5.53-45.927-16.945-45.927-16.945-5.885 6.689-15.392 11.944-26.862 14.718-2.958.715-5.721 2.022-8.284 3.664-2.952 1.892-6.434 2.987-10.167 2.987-3.884 0-7.494-1.188-10.52-3.223-.83-.558-1.711-1.026-2.611-1.456-.857 8.053-1.691 30.223 12.578 44.492 0 0 9.882 18.775 12.832 39.512.29 2.036-.594 4.042-2.232 5.286-2.531 1.922-6.082 5.626-7.037 11.714-.266 1.694 1.097 3.209 2.812 3.209h22.7c1.303 0 2.545-.563 3.37-1.572 1.996-2.442 5.095-7.575 3.163-14.318-.133-.463-.209-.937-.195-1.418.121-4.119.73-24.811.978-33.27.054-1.831 1.79-3.136 3.563-2.673 8.88 2.315 33.146 8.04 52.446 6.997z"/><path d="m159.331 208.955c-5.007 1.156-10.666 3.497-13.015 8.265-1.13 2.294.489 4.984 3.046 4.984h34.614c.06 0 .117-.009.177-.01-7.242-5.226-14.483-10.943-24.822-13.239z"/><path d="m146.316 217.22c2.349-4.768 8.008-7.11 13.015-8.265-3.6-.8-7.58-1.18-12.065-.982-.123.047-.252.088-.394.103-5.426.587-15.004 2.553-18.251 9.144-1.13 2.294.489 4.984 3.046 4.984h17.695c-2.556 0-4.175-2.69-3.046-4.984z"/></g><path d="m68.141 106.922h-2.57c-7.167 0-12.999-5.832-12.999-13v-5.41c0-1.36 1.086-2.47 2.446-2.5 4.42-.096 8.875-4.197 8.875-6.034-.371-.711-.38-1.589-.021-2.307s1.038-1.25 1.83-1.379c4.453-.726 8.989.548 12.451 3.491 3.437 2.922 5.408 7.193 5.408 11.717 0 8.505-6.918 15.422-15.42 15.422zm-10.57-16.208v3.208c0 4.411 3.588 8 7.999 8h2.57c5.746 0 10.42-4.674 10.42-10.42 0-3.1-1.295-5.908-3.647-7.908-1.751-1.489-3.905-2.346-6.134-2.481-.815 4.16-5.906 8.447-11.208 9.601z"/><path d="m44.572 107.475h-2.57c-8.502 0-15.42-6.917-15.42-15.419 0-4.452 1.824-8.53 5.137-11.482 3.293-2.935 7.669-4.333 12.015-3.828.729.084 1.383.484 1.792 1.093.408.61.527 1.368.327 2.073-.017 1.961 4.483 6.083 8.964 6.113.104-.006.206-.012.255-.011.653 0 1.281.256 1.749.714.48.47.751 1.114.751 1.786v5.963c-.001 7.167-5.832 12.998-13 12.998zm-3.493-25.789c-2.211.197-4.334 1.106-6.034 2.621-2.233 1.99-3.463 4.742-3.463 7.749 0 5.746 4.674 10.42 10.42 10.42h2.57c4.411 0 8-3.588 8-7.999v-3.667c-5.245-.96-10.337-4.994-11.493-9.124z"/><path d="m54.864 113.232c-4.81 0-9.023-3.546-11.363-6.865-.514-.729-.601-1.678-.227-2.488.375-.811 1.152-1.36 2.041-1.441 4.136-.381 7.256-3.803 7.256-7.961v-.553c0-1.381 1.119-2.5 2.5-2.5s2.5 1.119 2.5 2.5c0 4.14 3.103 7.561 7.216 7.959.867.084 1.628.613 2.008 1.397s.325 1.709-.146 2.442c-2.224 3.464-6.646 7.51-11.785 7.51zm-4.718-6.999c1.553 1.253 3.247 1.999 4.717 1.999 1.657 0 3.59-.948 5.278-2.484-1.93-.879-3.594-2.211-4.867-3.858-1.284 1.859-3.047 3.365-5.128 4.343z"/><path d="m55.071 125.17c-4.247 0-8.367-1.262-11.916-3.649-1.95-1.312-4.369-2.315-7.19-2.983-21.614-5.118-35.581-18.075-35.581-33.01 0-3.747.897-7.432 2.667-10.954 1.454-2.894 2.481-6.271 3.235-10.628 3.893-22.502 24.322-38.834 48.578-38.834s44.685 16.332 48.578 38.833c.753 4.357 1.781 7.735 3.235 10.629 1.77 3.523 2.667 7.208 2.667 10.954 0 14.828-13.835 27.751-35.246 32.924-2.454.593-4.981 1.715-7.51 3.336-3.455 2.213-7.437 3.382-11.517 3.382zm-.207-95.059c-21.816 0-40.174 14.587-43.651 34.686-.839 4.855-2.013 8.675-3.694 12.021-1.416 2.819-2.134 5.75-2.134 8.71 0 12.34 12.752 23.651 31.733 28.145 3.408.807 6.379 2.052 8.829 3.7 2.721 1.83 5.876 2.797 9.125 2.797 3.122 0 6.171-.896 8.818-2.592 2.998-1.921 6.038-3.262 9.033-3.986 18.793-4.541 31.42-15.819 31.42-28.064 0-2.959-.718-5.89-2.134-8.71-1.681-3.346-2.854-7.166-3.694-12.021-3.477-20.098-21.835-34.686-43.651-34.686z"/><path d="m55.071 125.17c-4.247 0-8.367-1.262-11.916-3.649-1.95-1.312-4.369-2.315-7.19-2.983-16.854-3.991-29.532-13.073-33.911-24.296-.323-.827-.183-1.763.368-2.459 4.074-5.153 10.164-8.108 16.706-8.108 4.142 0 8.163 1.202 11.63 3.476.868.569 1.293 1.614 1.07 2.627-.164.746-.247 1.512-.247 2.278 0 5.746 4.674 10.42 10.42 10.42h2.57c.252 0 .5-.016.745-.039.89-.081 1.756.319 2.271 1.049 2.001 2.839 4.925 4.746 7.276 4.746 2.492 0 5.608-2.144 7.58-5.212.506-.789 1.411-1.228 2.345-1.137.257.025.518.04.782.04h2.57c5.746 0 10.42-4.674 10.42-10.42 0-.566-.061-1.179-.185-1.873-.177-.99.256-1.991 1.1-2.538 3.446-2.235 7.436-3.417 11.538-3.417 6.353 0 12.327 2.807 16.392 7.702.571.688.731 1.629.42 2.467-4.202 11.321-16.811 20.521-33.729 24.609-2.454.593-4.981 1.715-7.51 3.336-3.453 2.212-7.435 3.381-11.515 3.381zm-47.775-31.388c4.277 9.074 15.283 16.449 29.821 19.891 3.408.807 6.379 2.052 8.829 3.7 2.721 1.83 5.876 2.797 9.125 2.797 3.122 0 6.171-.896 8.818-2.592 2.999-1.921 6.038-3.262 9.033-3.986 14.572-3.521 25.512-10.976 29.648-20.109-3.052-3.072-7.188-4.808-11.557-4.808-2.621 0-5.182.631-7.49 1.837.024.337.037.667.037.991 0 8.502-6.917 15.42-15.42 15.42h-2.335c-2.398 3.134-6.389 6.31-10.942 6.31-4.275 0-8.081-2.803-10.516-5.757h-2.346c-8.502 0-15.42-6.917-15.42-15.419 0-.509.025-1.019.075-1.526-2.318-1.218-4.891-1.855-7.528-1.855-4.518-.002-8.754 1.843-11.832 5.106z"/><path d="m94.74 51.109c-.843 0-1.631-.425-2.094-1.135-2.362-3.623-5.291-6.875-8.707-9.665-.664-.542-1.004-1.387-.9-2.238.417-3.426 2.085-6.751 4.699-9.365 5.718-5.718 14.321-6.419 19.175-1.564 2.42 2.42 3.549 5.798 3.177 9.513-.353 3.527-2.036 6.958-4.741 9.663-2.902 2.903-6.735 4.648-10.516 4.788-.031.003-.062.003-.093.003zm-6.494-13.707c2.935 2.55 5.524 5.421 7.723 8.561 2.101-.391 4.175-1.509 5.845-3.179 1.891-1.891 3.063-4.244 3.302-6.625.219-2.194-.397-4.14-1.737-5.48-2.906-2.905-8.336-2.205-12.105 1.564-1.492 1.491-2.54 3.287-3.028 5.159z"/><path d="m15.017 51.088c-.061 0-.123-.002-.184-.007-3.662-.27-7.222-1.96-10.024-4.763-5.718-5.716-6.419-14.318-1.564-19.174 4.857-4.855 13.458-4.153 19.176 1.564 2.507 2.507 4.157 5.702 4.646 8.997.13.88-.217 1.764-.912 2.32-3.559 2.846-6.602 6.187-9.045 9.93-.464.71-1.253 1.133-2.093 1.133zm-3.604-22.202c-1.78 0-3.424.584-4.632 1.793-2.906 2.906-2.204 8.336 1.564 12.104 1.564 1.564 3.506 2.654 5.483 3.104 2.273-3.232 4.955-6.173 8.001-8.773-.52-1.771-1.537-3.465-2.943-4.872-2.202-2.2-4.972-3.356-7.473-3.356z"/><path d="m72.764 90.334c-1.137 0-2.166-.78-2.433-1.936-.312-1.345.525-2.688 1.87-3l7.15-1.659c1.346-.312 2.689.525 3 1.87.312 1.345-.525 2.688-1.87 3l-7.15 1.659c-.19.045-.38.066-.567.066z"/><path d="m78.849 100.84c-.262 0-.529-.042-.791-.129l-6.636-2.211c-1.31-.437-2.018-1.853-1.581-3.162s1.855-2.017 3.162-1.581l6.636 2.212c1.31.437 2.018 1.853 1.581 3.162-.349 1.047-1.324 1.709-2.371 1.709z"/><path d="m37.34 90.334c-.188 0-.377-.021-.567-.065l-6.882-1.597c-1.345-.312-2.183-1.656-1.871-3 .312-1.345 1.66-2.181 3-1.871l6.882 1.597c1.345.312 2.183 1.656 1.871 3-.268 1.155-1.296 1.936-2.433 1.936z"/><path d="m30.976 101.233c-1.011 0-1.963-.617-2.34-1.619-.487-1.292.166-2.734 1.458-3.221l6.915-2.604c1.293-.488 2.735.167 3.221 1.458.487 1.292-.166 2.734-1.458 3.221l-6.915 2.604c-.291.109-.588.161-.881.161z"/><path d="m71.753 71.011c-1.377 0-2.496-1.114-2.5-2.492-.008-2.437.934-4.731 2.652-6.46s4.006-2.685 6.443-2.693h.031c5.017 0 9.106 4.073 9.123 9.094.004 1.381-1.111 2.504-2.492 2.508-.003 0-.006 0-.008 0-1.377 0-2.496-1.114-2.5-2.492-.004-1.102-.436-2.136-1.218-2.913-.778-.773-1.809-1.198-2.905-1.198-.005 0-.009 0-.014 0-1.102.003-2.136.436-2.913 1.217s-1.202 1.818-1.199 2.92c.004 1.38-1.111 2.503-2.492 2.508-.002.001-.005.001-.008.001z"/><path d="m37.64 70.99c-1.381 0-2.5-1.119-2.5-2.5 0-2.274-1.85-4.124-4.124-4.124s-4.124 1.85-4.124 4.124c0 1.381-1.119 2.5-2.5 2.5s-2.5-1.119-2.5-2.5c0-5.031 4.093-9.124 9.124-9.124s9.124 4.093 9.124 9.124c0 1.381-1.119 2.5-2.5 2.5z"/><path d="m38.418 82.166c-.749 0-1.473-.337-1.955-.942-.631-.792-.722-1.888-.23-2.773 3.753-6.748 10.969-13.556 18.631-13.556 7.796 0 14.648 6.856 18.146 12.727.51.855.463 1.931-.118 2.739-.582.808-1.585 1.195-2.56.984-1.29-.279-2.577-.319-3.828-.115-1.061.171-2.119-.355-2.618-1.311-.282-.466-1.831-1.251-9.023-1.251-7.189 0-8.735.786-9.017 1.255-.335 1.179-1.473 1.927-2.688 1.79-1.341-.156-2.702-.036-4.044.354-.229.067-.464.099-.696.099zm16.446-12.271c-3.02 0-6.461 1.789-9.495 4.727 2.893-.954 6.62-.954 9.495-.954 3.53 0 6.902.104 9.468.928-3.031-2.938-6.452-4.701-9.468-4.701z"/><path d="m117.243 192.807c-9.973 0-19.073-.656-27.226-1.968-1.239-.2-2.138-1.287-2.102-2.542l.493-16.74c.048-1.641.828-3.146 2.14-4.129 1.309-.981 2.969-1.309 4.553-.894 9.275 2.418 32.887 7.934 51.674 6.921 2.766-.157 5.17 1.813 5.566 4.565.209 1.458.669 3.793 1.673 6.645.223.633.182 1.33-.114 1.932s-.822 1.061-1.459 1.271c-2.41.797-4.866 1.888-7.3 3.245-.301.167-.633.271-.976.304-9.554.926-18.546 1.39-26.922 1.39zm-24.264-6.576c14.036 2.011 30.905 2.098 50.192.258 1.783-.97 3.581-1.814 5.371-2.522-.631-2.178-.97-3.986-1.149-5.237-.025-.174-.184-.29-.347-.283-19.504 1.043-43.703-4.599-53.205-7.076-.107-.028-.205-.009-.292.057-.09.067-.138.16-.141.275z"/><path d="m61.486 181.427c-.425 0-.852-.108-1.238-.328-14.283-8.146-22.514-20.273-24.464-36.045-1.553-12.558 1.511-23.93 2.9-28.236.216-.669.703-1.216 1.342-1.507.64-.291 1.373-.3 2.018-.024.297.126.588.265.879.405l.095.045c.956.457 1.52 1.467 1.407 2.521-2.662 24.956 7.407 38.006 11.86 42.459.178.178.328.381.445.604.147.279 3.632 6.941 7.113 16.773.348.984.048 2.082-.753 2.752-.461.384-1.03.581-1.604.581zm-21.362-42.821c.239 17.078 9.056 27.786 16.111 33.632-1.8-4.327-3.283-7.321-3.765-8.27-7.308-7.452-10.8-16.778-12.346-25.362z"/><path d="m61.486 181.427c-.482 0-.966-.139-1.387-.42-.449-.299-.798-.742-.978-1.251l-.104-.293c-.173-.491-.347-.982-.52-1.452-.477-1.295.187-2.732 1.482-3.209 1.295-.476 2.732.187 3.209 1.482l.003.009c.216.587.433 1.188.65 1.801.359 1.015.028 2.145-.821 2.806-.448.35-.99.527-1.534.527z"/><path d="m60.892 224.704h-21.013c-1.571 0-3.057-.685-4.079-1.878-1.001-1.17-1.439-2.708-1.203-4.217.862-5.5 2.825-11.411 10.792-13.665.619-.694 1.674-3.215 2.29-5.507l6.704-24.195c.218-.786.806-1.417 1.574-1.689.77-.272 1.623-.153 2.287.321 1.531 1.092 2.994 2.033 4.473 2.876.521.297.917.771 1.117 1.337 2.927 8.265 4.942 16.19 5.99 23.556.412 2.896-.812 5.819-3.195 7.629-2.327 1.768-5.271 4.957-6.08 10.111-.004.027-.016.1.063.192.041.048.132.129.279.129 1.381 0 2.5 1.119 2.5 2.5s-1.118 2.5-2.499 2.5zm-2.615-44.787-5.773 20.836c-1.431 5.329-3.297 8.344-5.542 8.944-4.551 1.217-6.494 3.752-7.425 9.686-.004.027-.016.101.063.192.041.048.132.129.279.129h15.677c-.021-.363-.003-.73.055-1.096 1.066-6.798 4.936-10.994 7.995-13.317.94-.714 1.426-1.842 1.27-2.943-.965-6.783-2.798-14.089-5.451-21.729-.383-.228-.766-.462-1.148-.702z"/><path d="m206.364 232.152c-8.132 0-16.165-2.541-23.128-7.538-.777-.558-1.553-1.122-2.333-1.689-12.363-8.991-25.148-18.289-54.907-7.923-2.14.744-4.467.019-5.796-1.806-1.326-1.82-1.302-4.253.059-6.056 20.866-27.625 41.583-27.503 52.075-24.969 17.864 4.309 30.558-1.114 35.213-8.404 3.449-5.401 2.667-11.977-2.148-18.041-.385-.485-.576-1.096-.537-1.713.523-8.214-1.981-16.361-7.052-22.939-3.202-4.154-7.414-7.561-12.18-9.851-.938-.451-1.498-1.435-1.408-2.471.091-1.036.813-1.908 1.814-2.189 6.538-1.838 16.685-2.644 27.897 3.952.667.392 1.114 1.071 1.212 1.838.066.522-.034 1.046-.278 1.5 8.361 3.443 28.622 13.848 37.721 36.596 4.827 12.067 4.513 27.053-.861 41.114-.302.789-.982 1.373-1.808 1.551-.825.178-1.686-.072-2.286-.667l-2.152-2.13c-2.373 12.203-10.276 22.408-21.854 27.893-5.566 2.639-11.44 3.942-17.263 3.942zm-56.806-26.717c15.798 0 25.448 7.02 34.286 13.448.771.56 1.538 1.119 2.307 1.67 10.45 7.499 23.661 8.672 35.337 3.141 11.513-5.455 18.865-16.245 19.667-28.864.062-.978.69-1.83 1.606-2.178.916-.35 1.952-.129 2.647.56l2.924 2.893c3.676-11.783 3.568-23.915-.385-33.798-10.466-26.164-37.954-34.949-38.23-35.035-.836-.259-1.478-.938-1.688-1.788-.19-.769-.004-1.578.491-2.184-5.426-2.565-10.465-3.219-14.704-2.988 3.006 2.182 5.698 4.785 7.954 7.711 5.616 7.286 8.485 16.256 8.131 25.357 5.689 7.637 6.378 16.003 1.86 23.079-7.787 12.195-26.004 14.096-40.6 10.574-21.674-5.227-38.694 12.242-46.912 23.122-.03.075.013.132.041.143 9.957-3.467 18.225-4.863 25.268-4.863z"/><path d="m83.592 224.704h-22.7c-1.571 0-3.058-.685-4.079-1.879-1.001-1.17-1.439-2.707-1.203-4.217 1.066-6.798 4.936-10.994 7.995-13.317.94-.714 1.426-1.842 1.27-2.943-2.645-18.593-11.116-35.836-12.405-38.38-14.597-14.888-13.971-37.27-13.016-46.242.086-.807.558-1.522 1.267-1.918.708-.396 1.566-.423 2.297-.073 1.166.557 2.097 1.078 2.928 1.637 2.721 1.83 5.876 2.797 9.125 2.797 3.122 0 6.171-.896 8.818-2.592 2.995-1.92 6.038-3.262 9.044-3.989 10.902-2.636 19.984-7.586 25.573-13.939.594-.675 1.504-.981 2.387-.796.881.183 1.595.826 1.871 1.683.274.82 7.253 20.37 43.193 15.235 8.411-1.201 15.163-2.123 20.772-2.713 7.226-.759 14.508.506 21.067 3.659 5.466 2.627 10.298 6.536 13.974 11.306 5.812 7.54 8.682 16.883 8.082 26.309-.292 4.576-1.379 8.985-3.233 13.106-2.868 6.376-6.256 11.349-8.593 14.397-1.038 1.354-1.916 2.856-2.609 4.462-.321.745-.985 1.288-1.779 1.456-6.8 1.437-14.573 1.188-22.477-.721-6.213-1.5-12.511-1.219-18.719.834-1.293.426-2.691-.259-3.143-1.544-1.14-3.244-1.667-5.923-1.908-7.6-.024-.169-.161-.297-.34-.276-19.499 1.048-43.708-4.598-53.212-7.076-.108-.028-.207-.008-.294.057-.089.067-.135.158-.139.271l-.979 33.271c-.006.188.027.403.099.655 2.243 7.828-1.312 13.754-3.63 16.59-1.293 1.583-3.227 2.49-5.304 2.49zm-39.484-102.577c-1.288 22.449 7.963 34.374 12.178 38.589.178.177.328.381.445.603.412.782 10.118 19.399 13.094 40.324.412 2.896-.812 5.819-3.195 7.629-2.327 1.768-5.271 4.957-6.08 10.111-.004.027-.016.1.063.192.041.048.132.129.279.129h22.7c.572 0 1.095-.238 1.435-.654 1.699-2.079 4.31-6.41 2.695-12.047-.213-.744-.312-1.478-.291-2.18l.979-33.271c.048-1.639.828-3.143 2.138-4.125 1.31-.981 2.969-1.307 4.554-.894 9.277 2.419 32.88 7.939 51.681 6.92 2.773-.154 5.164 1.81 5.559 4.559.151 1.049.432 2.555.954 4.387 6.323-1.675 12.715-1.753 19.039-.227 6.71 1.62 13.269 1.934 19.056.923.753-1.528 1.647-2.971 2.667-4.302 3.076-4.012 5.918-8.773 8.002-13.406 1.606-3.572 2.549-7.399 2.803-11.374.523-8.213-1.981-16.36-7.052-22.938-3.202-4.154-7.413-7.561-12.18-9.851-5.723-2.751-12.078-3.857-18.378-3.193-5.533.582-12.232 1.497-20.588 2.69-4.406.629-8.431.911-12.098.911-22.298.001-31.514-10.389-34.878-16.04-6.269 5.837-15.203 10.347-25.58 12.856-2.464.596-4.995 1.719-7.521 3.339-3.454 2.213-7.437 3.382-11.516 3.382-3.873.001-7.639-1.047-10.964-3.042zm102.809 53.823h.01z"/><path d="m183.977 224.704h-34.614c-2.054 0-3.927-1.04-5.01-2.781-1.098-1.764-1.202-3.935-.279-5.808 2.288-4.645 7.232-7.874 14.695-9.597.363-.084.74-.085 1.104-.004 10.02 2.225 17.132 7.396 24.011 12.396l1.732 1.256c.874.63 1.245 1.749.922 2.776-.323 1.028-1.268 1.733-2.344 1.75-.021.007-.118.012-.217.012zm-24.635-13.182c-3.988.988-8.888 2.955-10.783 6.802-.222.451-.046.82.04.958.12.192.35.422.764.422h27.032c-4.997-3.45-10.387-6.599-17.053-8.182z"/><path d="m149.363 224.704h-17.695c-2.053 0-3.926-1.04-5.009-2.781-1.098-1.764-1.202-3.935-.279-5.808 3.745-7.604 14.132-9.849 20.088-10.51.219-.07.467-.121.688-.13 4.508-.197 8.67.141 12.717 1.039 1.14.253 1.953 1.262 1.958 2.43s-.8 2.184-1.938 2.446c-4.076.941-9.351 2.908-11.334 6.934-.222.45-.046.819.04.957.12.192.35.422.764.422 1.381 0 2.5 1.119 2.5 2.5s-1.119 2.501-2.5 2.501zm-1.658-14.247c-.166.044-.356.083-.568.105-3.95.428-13.454 2.041-16.272 7.763-.222.451-.046.82.04.958.12.192.349.422.764.422h11.855c-.191-1.201-.01-2.45.551-3.588 1.097-2.227 2.804-4.128 5.105-5.694-.488.003-.979.015-1.475.034zm-1.389 6.763h.01zm.287-11.629c-.001 0-.003 0-.005 0z"/><path d="m207.134 208.116c-1.2 0-2.259-.867-2.463-2.089-.227-1.362.693-2.65 2.055-2.877 18.062-3.01 23.364-24.439 23.416-24.656.177-.742.683-1.363 1.375-1.686.692-.324 1.493-.313 2.176.029l1.261.63c1.255-15.778-8.171-22.841-8.273-22.915-1.117-.812-1.364-2.376-.552-3.492.812-1.118 2.377-1.363 3.492-.552.548.398 13.375 10 9.843 31.188-.13.782-.625 1.457-1.332 1.817-.706.36-1.542.364-2.252.008l-1.779-.889c-.838 2.416-2.314 6.024-4.657 9.789-5.455 8.767-13.026 14.183-21.895 15.661-.14.022-.279.034-.415.034z"/><path d="m54.864 91.024c-6.687 0-14.029-5.78-14.029-11.044 0-6.312 8.782-6.312 14.029-6.312s14.029 0 14.029 6.312c0 5.264-7.343 11.044-14.029 11.044zm0-12.357c-7.193 0-8.744.783-9.028 1.25-.001 1.962 4.531 6.106 9.028 6.106s9.029-4.145 9.029-6.044c0-.052-.006-.073-.006-.074-.28-.454-1.83-1.238-9.023-1.238z"/><path d="m91.441 46.733c-.727 0-1.428-.317-1.909-.886-1.758-2.078-3.64-3.941-5.593-5.537-.664-.542-1.004-1.387-.9-2.238.725-5.96 5.191-11.337 11.113-13.38 4.8-1.656 9.572-.739 12.762 2.451 1.941 1.941 3.053 4.518 3.213 7.451.046.84-.333 1.647-1.01 2.147s-1.561.625-2.35.335c-2.044-.753-4.562-.502-6.907.687-2.905 1.474-5.153 4.149-6.015 7.157-.254.887-.976 1.562-1.878 1.756-.176.039-.352.057-.526.057zm-3.201-9.333c.839.735 1.664 1.512 2.47 2.328 1.625-2.697 4.035-4.976 6.887-6.423 2.15-1.091 4.383-1.65 6.551-1.667-.211-.331-.465-.654-.771-.96-2.605-2.604-6.179-1.748-7.596-1.26-3.137 1.083-6.513 3.923-7.541 7.982z"/><path d="m18.563 46.426c-.168 0-.337-.017-.505-.052-.889-.183-1.608-.834-1.88-1.7-.939-2.994-3.129-5.529-6.007-6.954-2.306-1.141-4.781-1.379-6.791-.651-.788.286-1.669.157-2.344-.345-.674-.501-1.051-1.308-1.004-2.146.348-6.191 5.13-10.678 11.376-10.678h.027c7.501.046 14.489 6.26 15.588 13.852.127.876-.219 1.755-.91 2.309-1.977 1.585-3.88 3.435-5.656 5.498-.479.556-1.174.867-1.894.867zm-12.546-14.782c2.109.024 4.28.56 6.373 1.595 2.857 1.415 5.24 3.606 6.875 6.259.824-.823 1.668-1.606 2.527-2.346-1.307-4.563-5.779-8.224-10.377-8.252-.005 0-.011 0-.017 0-2.368 0-4.285 1.029-5.381 2.744z"/></svg>