<svg enable-background="new 0 0 256 256" height="512" viewBox="0 0 256 256" width="512" xmlns="http://www.w3.org/2000/svg"><path d="m247.676 116.95c-.255-.565.154-1.203.774-1.203h3.816c.597 0 1.017-.604.797-1.159-3.219-8.123-8.371-14.046-10.891-16.629-.525-.538-.137-1.438.614-1.438h3.788c.679 0 1.095-.766.709-1.324-5.716-8.271-13.405-13.105-16.718-14.927-.628-.346-.565-1.264.101-1.531l1.94-.776c.667-.267.724-1.197.092-1.539-12.988-7.02-23.269-9.082-26.907-9.63-.636-.096-.931-.835-.545-1.349l1.521-2.029c.374-.5.099-1.226-.513-1.348-11.42-2.279-21.384-2.113-25.002-1.949-.648.029-1.081-.65-.791-1.23l.961-1.922c.257-.513-.055-1.139-.622-1.225-9.712-1.467-21.16.421-24.562 1.06-.523.098-1.001-.304-1.001-.837v-2.235c0-.525-.474-.93-.992-.845-11.035 1.823-21.212 5.557-24.558 6.859-.558.217-1.153-.196-1.153-.795v-2.009c0-.526-.482-.931-1.001-.843-15.808 2.668-26.25 8.526-29.746 10.727-.565.356-1.296-.056-1.296-.724v-1.55c0-.569-.552-.989-1.095-.821-8.6 2.659-15.899 8.561-18.858 11.19-.548.487-1.409.093-1.409-.64v-2.109c0-.623-.646-1.036-1.212-.776-6.71 3.085-13.762 10.766-16.123 13.479-.397.457-1.127.359-1.398-.183l-1.071-2.142c-.248-.497-.909-.631-1.326-.264-12.399 10.915-12.958 25-12.063 32.848.57-1.134 1.184-2.248 1.892-3.309 0-1.454 2.037-1.784 2.497-.405l3.678 11.033c.359 1.077 1.668 1.486 2.577.805l5.791-4.343c1.097-.823 2.663-.04 2.663 1.331v10.459c0 .919.745 1.664 1.664 1.664h4.031c1.05 0 1.838.961 1.632 1.99l-1.779 8.895c-.206 1.03.582 1.99 1.632 1.99h.345c7.639-6.628 20.878-4.727 23.66 3.617 2.712 8.136 10.779 13.211 13.194 14.579.387.219.875.098 1.121-.271l3.28-4.919c.293-.44.904-.501 1.289-.138 7.071 6.653 17.224 10.566 20.579 11.737.553.193 1.123-.22 1.123-.806v-5.505c0-.701.801-1.107 1.356-.679 6.591 5.079 21.542 9.28 25.46 10.322.503.134 1.006-.211 1.063-.728l.774-6.969c.075-.675.872-.997 1.387-.553 7.688 6.638 21.038 9.728 24.604 10.46.486.1.948-.236 1.01-.729l.752-6.011c.084-.67.872-.978 1.386-.54 3.39 2.889 7.987 5.002 12.768 6.547 2.505-.154 5.079.185 6.594 1.785 6.757 1.521 12.929 2.073 15.533 2.252.618.042 1.065-.568.847-1.148l-1.677-4.472c-.291-.775.57-1.444 1.271-1.003 7.219 4.537 19.349 3.843 22.518 3.57.443-.038.777-.405.773-.849-.075-9.831-1.55-21.585-2.002-24.973-.068-.51.329-.956.844-.956h4.575c.473 0 .859-.393.855-.865-.134-16.897-4.267-27.61-5.82-31.047z" fill="#7d3d1a"/><path d="m97.668 103.407c-4.819-5.17-14.443-4.032-21.494 2.541-2.866 2.672-4.859 5.829-5.897 8.984-.434 1.32.135 2.744 1.335 3.445 3.98 2.325 7.207 5.798 9.223 9.967.607 1.254 1.988 1.933 3.34 1.597 3.244-.805 6.563-2.578 9.452-5.271 7.051-6.573 8.86-16.093 4.041-21.263z" fill="#9e512b"/><path d="m96.825 109.817c-3.27-3.508-10.821-1.785-16.865 3.85-2.314 2.157-4.071 4.575-5.176 6.935 2.524 2.106 4.594 4.737 6.043 7.726.619 1.277 2.024 1.946 3.399 1.598 2.919-.738 5.897-2.264 8.567-4.533 5.288-5.488 7.116-12.267 4.032-15.576z" fill="#f98080"/><ellipse cx="12.647" cy="170.22" fill="#52565b" rx="10.147" ry="8.545"/><path d="m72.998 147.523c.437-1.093-.368-2.282-1.545-2.282h-3.238c-1.05 0-1.838-.961-1.632-1.99l1.779-8.895c.206-1.03-.582-1.99-1.632-1.99h-4.03c-.919 0-1.664-.745-1.664-1.664v-10.459c0-1.371-1.566-2.154-2.663-1.331l-5.791 4.343c-.909.681-2.218.272-2.577-.805l-3.42-10.259c-.407-1.221-2.041-1.44-2.755-.369-2.096 3.144-3.593 6.633-4.47 10.308-2.288 9.589-8.663 29.964-23.126 40.105 3.83 1.222 6.559 4.331 6.559 7.985 0 3.064-1.922 5.744-4.799 7.252 8.669 1.977 32.823 5.968 53.199-4.939 1.174-.629 1.115-2.342-.077-2.938l-.868-.434c-.822-.411-1.155-1.41-.744-2.232l3.202-6.404c.553-1.106-.252-2.408-1.488-2.408-1.177 0-1.982-1.189-1.545-2.282z" fill="#f4dbce"/><path d="m154.853 188.675c-.268-.535.205-1.139.788-1.005 4.488 1.033 18.905 3.882 38.492 3.114 1.16-3.004 1.724-6.877 1.988-9.9.274-3.144 2.679-5.688 5.808-6.095.471-.061.954-.107 1.439-.137-4.783-1.545-9.382-3.659-12.772-6.55-.512-.436-1.298-.123-1.382.544l-.752 6.011c-.062.492-.524.829-1.01.729-3.566-.732-16.916-3.822-24.604-10.46-.514-.444-1.312-.122-1.387.553l-.774 6.969c-.057.517-.56.862-1.063.728-3.918-1.042-18.869-5.243-25.46-10.322-.555-.428-1.356-.022-1.356.679v5.505c0 .586-.57.999-1.123.806-3.355-1.171-13.508-5.083-20.579-11.737-.385-.362-.996-.302-1.289.138l-3.28 4.919c-.246.37-.735.49-1.121.271-2.415-1.368-10.483-6.443-13.194-14.579-2.781-8.344-16.021-10.244-23.66-3.617h2.892c1.177 0 1.982 1.189 1.545 2.282l-3.325 8.311c-.437 1.093.368 2.282 1.545 2.282 1.237 0 2.042 1.302 1.488 2.408l-3.202 6.404c-.411.822-.078 1.822.744 2.233l.867.434c1.202.601 1.24 2.32.053 2.951-.241.128-.486.246-.728.371 7.955 5.613 18.957 11.828 31.693 14.832.555-2.321.88-4.793 1.061-6.865.274-3.144 2.679-5.688 5.808-6.095 4.252-.553 9.385-.054 9.385 5.579 0 2.286-.551 4.692-1.379 7.033 7.988 2.061 20.334 4.095 38.14 4.179.527.002.879-.554.643-1.026z" fill="#f4dbce"/><path d="m109.004 174.788c-3.129.407-5.534 2.951-5.808 6.095-.325 3.73-1.091 8.776-2.894 11.855-.542.926-1.563 1.456-2.636 1.448-2.94-.022-9.183.507-9.183 5.407 0 5.302 13.889 3.293 18.687 2.441 1.055-.187 1.99-.772 2.628-1.632 2.475-3.338 8.592-12.366 8.592-20.035-.001-5.632-5.135-6.131-9.386-5.579z" fill="#ffc097"/><path d="m201.928 174.788c-3.129.407-5.534 2.951-5.808 6.095-.325 3.73-1.091 8.776-2.894 11.855-.542.926-1.563 1.456-2.636 1.448-2.94-.022-9.183.507-9.183 5.407 0 5.302 13.889 3.293 18.687 2.441 1.055-.187 1.99-.772 2.628-1.632 2.475-3.338 8.592-12.366 8.592-20.035-.001-5.632-5.134-6.131-9.386-5.579z" fill="#ffc097"/><path d="m12.646 181.265c-6.973 0-12.646-4.954-12.646-11.045s5.673-11.045 12.646-11.045 12.647 4.955 12.647 11.045-5.673 11.045-12.647 11.045zm0-17.09c-4.216 0-7.646 2.712-7.646 6.045s3.431 6.045 7.646 6.045c4.217 0 7.647-2.712 7.647-6.045s-3.43-6.045-7.647-6.045z"/><path d="m39.134 182.354c-9.277 0-17.164-1.411-21.694-2.444-1.021-.233-1.788-1.077-1.924-2.115-.135-1.038.392-2.05 1.318-2.537 2.167-1.136 3.46-3.019 3.46-5.038 0-2.432-1.937-4.684-4.818-5.603-.905-.289-1.568-1.065-1.712-2.005-.143-.939.259-1.878 1.036-2.424 13.995-9.813 20.138-30.29 22.129-38.638.957-4.013 2.58-7.753 4.822-11.115.863-1.296 2.361-1.97 3.903-1.766 1.545.207 2.811 1.253 3.304 2.731l3.053 9.159 4.862-3.647c1.272-.952 2.941-1.102 4.362-.393 1.419.71 2.301 2.137 2.301 3.724v9.623h3.195c1.252 0 2.425.555 3.219 1.522.794.968 1.109 2.228.865 3.456l-1.58 7.896h2.218c1.384 0 2.673.684 3.448 1.83s.932 2.597.418 3.881l-2.932 7.33c.976.283 1.821.917 2.374 1.811.764 1.237.832 2.751.181 4.051l-2.827 5.655.119.06c1.401.7 2.286 2.112 2.309 3.684.021 1.551-.81 2.967-2.17 3.695-10.995 5.887-22.969 7.617-33.239 7.617zm-15.697-6.35c10.565 1.804 28.935 3.107 45.145-4.937-1.646-1.168-2.242-3.398-1.312-5.257l2.693-5.387c-.883-.279-1.659-.849-2.192-1.637-.775-1.146-.932-2.597-.418-3.881l2.866-7.165h-2.003c-1.253 0-2.427-.556-3.221-1.524-.794-.969-1.108-2.229-.862-3.457l1.579-7.894h-3.012c-2.296 0-4.164-1.868-4.164-4.164v-8.787l-4.453 3.34c-1.068.801-2.47 1.042-3.742.643-1.274-.398-2.286-1.393-2.707-2.659l-2.775-8.326c-1.377 2.413-2.405 5.027-3.066 7.797-2.441 10.238-8.315 28.231-20.953 39.104 2.765 2.061 4.455 5.119 4.455 8.406-.001 2.095-.658 4.082-1.858 5.785zm47.782-15.387h.01z"/><path d="m45.665 151.856c-1.377 0-2.495-1.114-2.5-2.492-.016-4.641 3.748-8.429 8.39-8.444h.026c2.238 0 4.344.868 5.932 2.446 1.596 1.584 2.478 3.695 2.484 5.944.004 1.38-1.112 2.503-2.492 2.507-.003 0-.006 0-.008 0-1.377 0-2.496-1.114-2.5-2.493-.003-.912-.36-1.769-1.008-2.412-.645-.641-1.5-.993-2.408-.993-.003 0-.007 0-.011 0-1.884.006-3.411 1.543-3.405 3.427.005 1.381-1.111 2.504-2.492 2.508-.002.002-.005.002-.008.002z"/><path d="m225.556 181.191c-.077 0-.153-.002-.231-.008-2.447-.167-8.895-.728-15.911-2.307-.484-.109-.926-.36-1.267-.72-.746-.788-2.388-1.146-4.626-1.009-.312.021-.624-.02-.922-.116-4.482-1.448-8.256-3.204-11.26-5.234l-.396 3.171c-.115.925-.615 1.767-1.372 2.309-.754.542-1.71.746-2.62.558-3.619-.743-15.176-3.454-23.329-9.153l-.449 4.042c-.107.972-.632 1.845-1.438 2.396s-1.81.723-2.752.472c-3.927-1.045-16.138-4.506-23.673-8.971v2.417c0 1.086-.527 2.109-1.411 2.736-.883.626-2.017.786-3.037.43-3.766-1.314-12.893-4.908-20.023-10.983l-2.221 3.331c-.968 1.454-2.917 1.918-4.432 1.061-2.607-1.476-11.343-6.987-14.336-15.964-1.165-3.496-4.517-4.887-6.41-5.406-4.582-1.254-9.774-.12-13.239 2.886-.455.395-1.037.612-1.639.612h-.345c-1.253 0-2.427-.556-3.221-1.524-.794-.969-1.108-2.229-.862-3.457l1.579-7.894h-3.013c-2.296 0-4.164-1.868-4.164-4.164v-8.787l-4.453 3.34c-1.067.801-2.468 1.042-3.74.644-1.273-.398-2.286-1.391-2.709-2.657l-2.769-8.305c-.226.408-.455.844-.693 1.318-.497.988-1.579 1.529-2.672 1.338-1.088-.194-1.92-1.08-2.045-2.178-.917-8.028-.46-23.252 12.894-35.008.783-.689 1.814-.97 2.851-.771 1.022.199 1.878.842 2.351 1.767 3.398-3.684 9.4-9.557 15.325-12.281 1.04-.48 2.243-.397 3.211.223.604.387 1.057.945 1.312 1.589 3.787-3.021 10.094-7.377 17.262-9.594 1.008-.312 2.117-.122 2.968.506.518.382.909.903 1.138 1.491 5.026-2.833 14.762-7.411 28.354-9.705.978-.163 1.968.108 2.726.748.663.56 1.078 1.345 1.171 2.194 4.784-1.751 13.454-4.605 22.823-6.153.974-.158 1.96.113 2.713.751.754.64 1.187 1.572 1.187 2.56v.272c4.818-.788 14.775-2.041 23.436-.732 1.05.158 1.971.818 2.462 1.764.403.778.483 1.682.237 2.509 4.887-.066 13.383.18 22.872 2.073 1.134.226 2.059 1.007 2.472 2.09.397 1.039.26 2.186-.366 3.095 5.055 1.028 14.127 3.526 25.037 9.423 1.153.623 1.824 1.825 1.749 3.137-.054.928-.471 1.759-1.141 2.339 3.98 2.543 10.08 7.179 14.845 14.073.706 1.024.785 2.344.206 3.447-.583 1.109-1.722 1.799-2.972 1.799h-.068c2.825 3.345 6.388 8.357 8.88 14.646.408 1.025.28 2.188-.343 3.106-.627.923-1.665 1.474-2.778 1.474h-1.342c1.986 5.142 4.958 15.226 5.076 29.725.008.901-.339 1.751-.976 2.393-.635.641-1.48.993-2.38.993h-2.699c.6 4.794 1.717 14.824 1.782 23.41.016 1.733-1.328 3.21-3.058 3.359-3.115.268-12.63.775-20.214-2.068l.227.604c.403 1.072.235 2.262-.448 3.181-.637.854-1.627 1.347-2.681 1.347zm-14.393-7.048c4.674 1.014 9.028 1.557 11.923 1.837l-.762-2.032c-.505-1.345-.099-2.856 1.011-3.762 1.122-.914 2.7-1.009 3.932-.237 5.715 3.592 15.343 3.52 19.438 3.302-.203-9.333-1.534-19.944-1.956-23.106-.128-.954.162-1.917.796-2.643.637-.727 1.557-1.144 2.525-1.144h2.903c-.386-15.702-4.338-25.64-5.574-28.379-.472-1.042-.383-2.238.236-3.199s1.672-1.534 2.815-1.534h1.315c-2.992-6.449-7.072-11.173-9.383-13.542-.941-.965-1.211-2.391-.688-3.633.524-1.246 1.738-2.051 3.091-2.051h.488c-5.165-6.335-11.302-10.125-13.913-11.561-1.144-.629-1.805-1.829-1.726-3.133.053-.856.416-1.629 1.002-2.198-11.188-5.602-19.843-7.354-23.218-7.862-1.175-.177-2.145-.939-2.595-2.038-.437-1.066-.304-2.249.353-3.188-9.991-1.712-18.457-1.577-21.812-1.423-1.165.054-2.31-.528-2.954-1.517-.611-.942-.707-2.138-.263-3.164-8.805-.839-18.501.771-21.449 1.324-.979.184-1.983-.075-2.75-.711-.771-.639-1.212-1.58-1.212-2.583v-.276c-10.198 1.905-19.434 5.33-22.144 6.385-1.029.401-2.188.268-3.099-.355-.914-.625-1.46-1.661-1.46-2.77v-.045c-14.151 2.692-23.473 7.866-26.915 10.034-1.03.648-2.331.685-3.396.098-.852-.47-1.445-1.28-1.652-2.208-7.311 2.78-13.438 7.796-15.873 9.958-.979.874-2.389 1.089-3.59.552-1.014-.456-1.726-1.381-1.924-2.451-5.649 3.437-11.259 9.62-13.005 11.626-.734.844-1.832 1.263-2.943 1.122s-2.074-.824-2.576-1.828l-.087-.174c-7.317 7.265-9.502 15.803-9.858 22.514.096-.023.192-.042.291-.059 1.832-.298 3.603.769 4.191 2.538l3.312 9.932 4.862-3.647c1.27-.952 2.941-1.104 4.361-.394s2.302 2.137 2.302 3.725v9.623h3.195c1.252 0 2.425.555 3.219 1.522.794.968 1.109 2.228.865 3.456l-1.334 6.665c4.472-2.656 10.172-3.487 15.276-2.089 4.862 1.331 8.446 4.483 9.835 8.647 2.062 6.189 7.724 10.481 10.737 12.4l2.405-3.608c.548-.821 1.422-1.355 2.398-1.466.985-.114 1.961.213 2.685.894 5.558 5.23 13.286 8.729 17.49 10.379v-3.133c0-1.288.718-2.441 1.873-3.01 1.149-.567 2.491-.432 3.508.349 4.551 3.506 14.394 7.047 22.727 9.382l.562-5.052c.136-1.238.941-2.292 2.103-2.749 1.155-.455 2.459-.234 3.401.578 6.303 5.442 17.105 8.433 21.725 9.518l.527-4.214c.153-1.225.962-2.262 2.11-2.707 1.147-.445 2.442-.225 3.378.574 2.706 2.306 6.568 4.3 11.483 5.929 3.211-.117 5.713.555 7.462 2.012z"/><path d="m155.153 194.08c-.005 0-.011 0-.016 0-15.043-.072-28.081-1.505-38.753-4.259-.679-.175-1.253-.627-1.582-1.247-.329-.619-.384-1.347-.149-2.008.819-2.318 1.235-4.403 1.235-6.199 0-1.64-.602-2.168-.799-2.342-.949-.834-3.048-1.111-5.764-.758-1.969.256-3.466 1.833-3.641 3.833-.159 1.827-.482 4.565-1.119 7.229-.321 1.34-1.659 2.166-3.006 1.852-10.951-2.583-21.906-7.705-32.561-15.223-.714-.503-1.113-1.343-1.053-2.215.043-.616.31-1.184.737-1.606-1.722-1.146-2.363-3.43-1.417-5.326l2.695-5.389c-.883-.279-1.659-.849-2.192-1.637-.775-1.146-.932-2.597-.418-3.881l2.866-7.165h-1.658c-1.043 0-1.978-.648-2.342-1.625-.365-.978-.085-2.079.703-2.763 4.691-4.071 11.694-5.614 17.836-3.933 4.862 1.331 8.446 4.483 9.835 8.647 2.062 6.189 7.724 10.481 10.737 12.4l2.405-3.608c.549-.821 1.423-1.355 2.399-1.466.992-.114 1.96.214 2.684.894 5.559 5.231 13.286 8.73 17.49 10.379v-3.133c0-1.288.718-2.441 1.873-3.01 1.149-.567 2.491-.432 3.508.349 4.551 3.506 14.394 7.047 22.727 9.382l.562-5.052c.136-1.238.941-2.292 2.103-2.749 1.155-.455 2.459-.234 3.401.578 6.304 5.442 17.105 8.433 21.725 9.518l.527-4.215c.152-1.223.96-2.261 2.109-2.708 1.146-.445 2.438-.226 3.374.571 2.785 2.375 6.795 4.419 11.919 6.074 1.144.369 1.862 1.5 1.712 2.692s-1.128 2.108-2.327 2.182c-.427.026-.853.066-1.269.121-1.97.256-3.467 1.833-3.642 3.833-.258 2.962-.84 7.203-2.146 10.583-.359.93-1.237 1.558-2.234 1.597-16.349.639-29.066-1.167-35.862-2.483.013.61-.15 1.221-.486 1.762-.589.957-1.608 1.524-2.726 1.524zm-1.597-2.409h.01zm-33.382-6.076c6.879 1.568 17.447 3.203 32.177 3.454-.209-.926.004-1.9.612-2.674.774-.984 2.008-1.423 3.237-1.142 3.835.883 17.521 3.642 36.116 3.111.745-2.555 1.123-5.493 1.313-7.678.207-2.373 1.272-4.471 2.896-5.982-1.924-.888-3.655-1.852-5.188-2.888l-.396 3.172c-.115.925-.615 1.767-1.372 2.309-.754.542-1.71.746-2.62.558-3.619-.743-15.175-3.454-23.329-9.153l-.449 4.042c-.107.971-.632 1.844-1.437 2.395-.806.551-1.81.725-2.752.474-3.929-1.045-16.14-4.506-23.675-8.971v2.417c0 1.085-.527 2.108-1.411 2.736-.881.626-2.016.787-3.036.43-3.766-1.314-12.892-4.907-20.024-10.983l-2.221 3.331c-.967 1.454-2.914 1.92-4.432 1.061-2.607-1.476-11.343-6.987-14.336-15.964-1.165-3.496-4.517-4.887-6.41-5.406-2.811-.769-5.85-.639-8.578.268.014.02.027.04.041.06.775 1.146.932 2.597.418 3.881l-2.932 7.329c.976.283 1.821.917 2.374 1.811.764 1.237.832 2.751.181 4.051l-2.827 5.655.119.06c1.401.7 2.285 2.11 2.305 3.68.007.516-.081 1.017-.251 1.483 6.453 4.292 15.502 9.291 25.915 12.154.252-1.512.408-2.932.502-4.009.38-4.36 3.66-7.796 7.977-8.357 4.32-.563 7.588.097 9.708 1.959 1.14 1.001 2.499 2.873 2.499 6.099.001 1.618-.24 3.368-.714 5.227z"/><path d="m210.559 187.901c-.669 0-1.319-.269-1.796-.761-.615-.635-.849-1.547-.615-2.399.441-1.615.666-3.086.666-4.374 0-1.014-.219-1.737-.668-2.212-.756-.799-.9-1.998-.356-2.954s1.648-1.443 2.722-1.203c4.918 1.107 9.546 1.688 12.575 1.981l-.762-2.032c-.507-1.35-.094-2.872 1.03-3.786 1.111-.905 2.672-.998 3.877-.235 1.95 1.235 4.576 2.153 7.807 2.73.997.178 1.788.94 2.004 1.93.215.99-.188 2.012-1.022 2.587-9.062 6.263-19.478 9.366-24.879 10.658-.195.048-.39.07-.583.07zm3.238-8.146c.011.201.017.405.017.612 0 .524-.024 1.057-.074 1.603 1.414-.413 2.978-.911 4.634-1.504-1.415-.19-2.957-.424-4.577-.711z"/><path d="m83.499 132.524c-2.044 0-3.988-1.176-4.915-3.091-1.803-3.727-4.649-6.803-8.233-8.897-2.248-1.312-3.255-3.938-2.449-6.385 1.214-3.688 3.485-7.157 6.568-10.03 8.047-7.503 19.276-8.587 25.026-2.418h.001c5.751 6.17 3.883 17.293-4.165 24.796-3.107 2.896-6.757 4.926-10.555 5.869-.424.105-.853.156-1.278.156zm6.042-29.888c-3.728 0-8.057 1.779-11.662 5.141-2.469 2.301-4.276 5.045-5.228 7.936-.062.186.029.393.221.504 4.445 2.597 7.977 6.414 10.214 11.038.096.2.297.305.487.259 2.975-.739 5.862-2.354 8.349-4.673 6.032-5.623 7.789-13.577 3.917-17.73-1.557-1.669-3.791-2.475-6.298-2.475z"/><path d="m96.593 205.643c-4.136 0-7.068-.711-8.765-2.133-1.207-1.012-1.846-2.367-1.846-3.917 0-1.938.696-3.654 2.013-4.961 2.495-2.478 6.629-2.975 9.689-2.945h.005c.198 0 .381-.084.455-.211 1.226-2.094 2.135-5.932 2.561-10.809.38-4.36 3.66-7.796 7.977-8.357 4.32-.563 7.588.097 9.708 1.959 1.14 1.001 2.499 2.873 2.499 6.099 0 8.366-6.353 17.839-9.083 21.523-1.023 1.381-2.515 2.306-4.2 2.605-4.307.765-7.983 1.147-11.013 1.147zm.891-8.957c-2.798 0-5.021.555-5.967 1.495-.249.248-.535.631-.535 1.412.508.791 5.195 1.854 15.749-.02.422-.075.797-.309 1.057-.659 1.9-2.564 8.101-11.478 8.101-18.546 0-1.64-.602-2.168-.799-2.342-.949-.834-3.048-1.111-5.764-.758-1.969.256-3.466 1.833-3.641 3.833-.502 5.762-1.588 10.103-3.227 12.901-.971 1.659-2.796 2.685-4.771 2.685-.061.001-.134-.001-.203-.001zm11.52-21.897h.01z"/><path d="m189.518 205.643c-4.136 0-7.069-.711-8.766-2.133-1.207-1.012-1.846-2.367-1.846-3.917 0-1.938.696-3.654 2.013-4.96 2.497-2.477 6.667-2.976 9.69-2.946h.005c.198 0 .381-.085.456-.212 1.225-2.092 2.134-5.931 2.56-10.808.38-4.36 3.66-7.796 7.977-8.357 4.321-.563 7.588.097 9.708 1.959 1.14 1.001 2.499 2.873 2.499 6.099 0 8.366-6.353 17.839-9.083 21.523-1.025 1.382-2.517 2.307-4.2 2.605-4.307.765-7.983 1.147-11.013 1.147zm.891-8.957c-2.798 0-5.021.555-5.968 1.495-.249.247-.535.631-.535 1.412.507.791 5.195 1.854 15.75-.02.422-.075.797-.309 1.058-.661 1.899-2.562 8.1-11.476 8.1-18.545 0-1.64-.602-2.168-.799-2.342-.948-.834-3.049-1.111-5.764-.758-1.969.256-3.466 1.833-3.641 3.833-.502 5.762-1.588 10.103-3.227 12.901-.973 1.659-2.798 2.685-4.771 2.685-.063.002-.134 0-.203 0zm11.52-21.897h.01z"/><path d="m236.424 128.787c-.972 0-1.896-.569-2.301-1.52-2.125-4.98-4.684-9.616-7.604-13.778-.793-1.13-.52-2.689.611-3.482 1.13-.792 2.688-.52 3.482.61 3.12 4.447 5.849 9.389 8.11 14.688.541 1.27-.049 2.738-1.318 3.28-.32.138-.653.202-.98.202z"/><path d="m218.02 102.666c-.593 0-1.188-.21-1.665-.636-4.195-3.751-8.952-7.022-14.14-9.724-1.225-.638-1.701-2.147-1.063-3.372.639-1.224 2.149-1.702 3.372-1.062 5.557 2.894 10.658 6.403 15.163 10.431 1.029.92 1.118 2.501.197 3.53-.493.551-1.178.833-1.864.833z"/><path d="m189.367 86.884c-.244 0-.492-.036-.738-.112-5.448-1.681-11.354-2.929-17.553-3.709-1.369-.172-2.341-1.423-2.168-2.792s1.408-2.339 2.793-2.168c6.485.816 12.677 2.126 18.402 3.893 1.319.407 2.059 1.806 1.651 3.125-.33 1.074-1.319 1.763-2.387 1.763z"/><path d="m135.962 83.088c-1.26 0-2.343-.949-2.482-2.229-.149-1.373.842-2.607 2.215-2.756 6.208-.676 12.332-1.028 18.2-1.045h.008c1.378 0 2.496 1.114 2.5 2.493.004 1.381-1.112 2.503-2.492 2.507-5.693.017-11.64.358-17.675 1.016-.092.009-.184.014-.274.014z"/><path d="m103.97 89.409c-1.059 0-2.041-.677-2.381-1.739-.421-1.315.304-2.722 1.619-3.142.231-.074 5.77-1.834 14.682-3.645 1.353-.271 2.673.599 2.948 1.953.274 1.353-.6 2.673-1.952 2.948-8.621 1.75-14.101 3.489-14.154 3.507-.253.079-.51.118-.762.118z"/><path d="m224.014 146.098c-.813 0-1.612-.397-2.093-1.129-3.135-4.779-6.974-9.176-11.41-13.068-1.038-.911-1.142-2.49-.23-3.528.911-1.039 2.489-1.142 3.527-.231 4.775 4.189 8.912 8.928 12.295 14.084.757 1.154.435 2.704-.72 3.461-.423.278-.899.411-1.369.411z"/><path d="m196.362 121.82c-.39 0-.785-.091-1.154-.284-5.283-2.757-11.162-5.144-17.475-7.094-1.318-.408-2.058-1.807-1.65-3.126.408-1.32 1.809-2.055 3.127-1.651 6.6 2.039 12.761 4.542 18.311 7.438 1.225.639 1.699 2.149 1.06 3.373-.446.855-1.317 1.344-2.219 1.344z"/><path d="m161.54 110.496c-.146 0-.292-.013-.44-.039-6.187-1.099-12.727-1.874-19.436-2.302-1.378-.088-2.424-1.277-2.336-2.655.088-1.376 1.256-2.423 2.654-2.335 6.896.441 13.622 1.238 19.992 2.37 1.359.241 2.266 1.539 2.024 2.898-.215 1.211-1.269 2.063-2.458 2.063z"/><path d="m112.849 108.483c-1.254 0-2.336-.941-2.481-2.217-.156-1.372.829-2.611 2.201-2.767.217-.025 5.405-.607 13.675-.724h.036c1.364 0 2.479 1.096 2.499 2.464.02 1.381-1.084 2.516-2.465 2.535-8.022.114-13.128.687-13.179.693-.096.011-.192.016-.286.016z"/><path d="m201.964 157.023c-.449 0-.904-.121-1.314-.375-4.047-2.506-8.449-4.908-13.085-7.14-1.244-.599-1.768-2.093-1.169-3.337.6-1.243 2.093-1.768 3.337-1.168 4.795 2.308 9.354 4.795 13.55 7.394 1.174.727 1.536 2.268.81 3.441-.475.765-1.292 1.185-2.129 1.185z"/><path d="m170.636 142.285c-.278 0-.562-.046-.839-.146-5.961-2.123-12.28-4.059-18.783-5.752-1.336-.348-2.137-1.714-1.788-3.05.348-1.336 1.711-2.134 3.05-1.789 6.642 1.731 13.102 3.709 19.199 5.881 1.301.463 1.979 1.893 1.517 3.194-.366 1.023-1.329 1.662-2.356 1.662z"/><path d="m134.212 132.579c-.152 0-.306-.014-.461-.043-8.794-1.639-14.477-2.198-14.533-2.204-1.374-.133-2.38-1.355-2.247-2.729s1.356-2.378 2.729-2.247c.239.023 5.959.586 14.967 2.265 1.357.253 2.253 1.558 2 2.916-.225 1.202-1.274 2.042-2.455 2.042z"/><path d="m83.474 132.521c-2.054 0-3.955-1.16-4.896-3.102-1.275-2.631-3.141-5.016-5.395-6.897-.872-.728-1.144-1.951-.663-2.979 1.281-2.737 3.265-5.401 5.736-7.704 3.24-3.021 7.012-5.138 10.62-5.962 4.089-.934 7.562-.14 9.777 2.236 4.063 4.36 2.356 12.356-4.061 19.015-.058.06-.117.116-.181.17-2.883 2.45-6.193 4.197-9.573 5.052-.456.114-.914.171-1.364.171zm-5.567-12.461c2.116 2.076 3.884 4.526 5.169 7.178.105.217.317.317.536.264 2.607-.66 5.187-2.019 7.467-3.935 4.585-4.809 5.732-10.099 3.917-12.045-.001 0-.001 0-.001 0-.935-1.004-2.762-1.282-5.006-.771-2.723.622-5.757 2.351-8.324 4.745-1.51 1.406-2.786 2.96-3.758 4.564zm14.886 5.332h.01z"/></svg>