<svg enable-background="new 0 0 256 256" height="512" viewBox="0 0 256 256" width="512" xmlns="http://www.w3.org/2000/svg"><path d="m26.792 194.557c2.64-1.416 5.984-1.167 8.404.89 2.108 1.793 2.971 4.5 2.516 7.041-2.64 1.416-5.984 1.167-8.404-.89-2.108-1.793-2.971-4.5-2.516-7.041z" fill="#7ccc4e"/><path d="m61.485 208.155c2.113 2.123 2.835 5.398 1.557 8.306-1.113 2.534-3.459 4.137-6.024 4.43-2.113-2.123-2.835-5.398-1.557-8.306 1.113-2.534 3.459-4.137 6.024-4.43z" fill="#7ccc4e"/><path d="m174.111 241.55c2.994-.101 5.883 1.602 7.142 4.518 1.097 2.541.672 5.351-.86 7.428-2.994.101-5.883-1.602-7.142-4.518-1.097-2.541-.673-5.351.86-7.428z" fill="#7ccc4e"/><g fill="#9e512b"><path d="m116.822 230.228c.1-2.318.015-4.948-.276-7.736.538-.018 1.056-.032 1.6-.052 5.042-.183 10.251-.272 15.556-.284-.331 3.07-.412 5.954-.273 8.448-5.476-.217-11.021-.348-16.607-.376z"/><path d="m159.735 222.64c47.377 1.743 93.763 7.579 93.763 7.579v17.632s-40.936-10.871-93.672-15.541c.284-2.718.27-6.059-.091-9.67z"/><path d="m40.238 217.776s13.968 4.504 50.252 5.012c-.225 2.259-.312 4.406-.276 6.367-20.664-1.873-37.115-6.075-49.976-11.379z"/><path d="m58.606 140.18c2.782-18.993 11.944-34.869 23.873-44.078 4.739 2.799 10.023 4.372 15.6 4.372.007 0 .014-.001.021-.001 7.712 12.123 11.275 28.933 8.665 46.761-3.068 20.95-13.888 38.136-27.636 46.732-2.48 1.551-5.517 1.106-7.448-1.091-10.706-12.178-16.143-31.745-13.075-52.695z"/><path d="m151.67 100.473c5.577 0 10.861-1.572 15.601-4.372 11.929 9.21 21.091 25.086 23.873 44.078 3.068 20.95-2.37 40.517-13.075 52.694-1.931 2.197-4.968 2.642-7.448 1.091-13.747-8.596-24.567-25.782-27.636-46.732-2.611-17.828.952-34.638 8.665-46.76.006 0 .013.001.02.001z"/><path d="m106.764 147.233c2.611-17.828-.953-34.638-8.665-46.761 5.206-.004 10.148-1.395 14.636-3.86l5.65 6.703c3.391 4.023 9.588 4.023 12.979 0l6.035-7.159-.391.464c4.489 2.465 9.435 3.849 14.642 3.853-7.712 12.123-11.275 28.933-8.665 46.76 2.868 19.585 12.513 35.877 24.989 44.94-10.47 14.048-25.89 22.941-43.099 22.941-17.21 0-32.629-8.893-43.099-22.941 12.475-9.063 22.12-25.355 24.988-44.94z"/><path d="m94.105 24.131c-7.27 0-12.772-1.924-16.937-4.729.007-.005.014-.011.021-.016 9.701-8.509 27.423-14.208 47.686-14.208s37.986 5.699 47.687 14.209c.007.005.013.01.02.015-4.166 2.806-9.667 4.729-16.937 4.729-25.989 0-30.476 23.026-30.77 24.711-.294-1.685-4.781-24.711-30.77-24.711z"/><path d="m137.398 96.156c2.712-3.217 3.195-7.743 1.111-11.38-1.416-2.471-3.712-5.185-7.423-7.502-2.637-15.417.317-33.712 28.335-39.655 10.102-2.143 16.545-6.286 20.608-11.119 5.315 6.821 8.523 16.066 8.523 27.384 0 25.73-16.513 46.589-36.883 46.589-5.215 0-10.168-1.385-14.663-3.853z"/><path d="m69.72 26.5c4.063 4.832 10.507 8.976 20.609 11.119 28.016 5.943 30.972 24.238 28.336 39.654-3.712 2.317-6.008 5.032-7.424 7.503-2.084 3.636-1.601 8.162 1.111 11.38l.385.457c-4.494 2.468-9.443 3.861-14.657 3.861-20.37 0-36.882-20.858-36.882-46.589-.002-11.319 3.207-20.564 8.522-27.385z"/></g><path d="m63.399 3.569c.122-1.293 1.929-1.465 2.324-.227 2.474 7.765 9.447 20.79 28.382 20.79 25.989 0 30.476 23.026 30.77 24.711.294-1.684 4.781-24.711 30.77-24.711 18.935 0 25.908-13.025 28.382-20.79.395-1.238 2.201-1.066 2.324.227.917 9.693-.864 28.521-26.929 34.05-28.017 5.943-30.973 24.238-28.336 39.654-.017-.011-.035-.022-.052-.033-3.753-2.33-8.563-2.33-12.316 0l-.052.033c2.637-15.417-.32-33.712-28.336-39.654-26.067-5.529-27.848-24.357-26.931-34.05z" fill="#828487"/><path d="m98.1 100.472c5.206-.004 10.148-1.395 14.636-3.86l5.65 6.703c3.391 4.023 9.588 4.023 12.979 0l6.035-7.159-.391.464c4.489 2.465 9.435 3.849 14.642 3.853-7.712 12.123-11.275 28.933-8.665 46.76 1.688 11.524 5.734 21.892 11.311 30.334-7.79 10.268-17.997 16.507-29.182 16.507-11.307 0-21.617-6.371-29.438-16.839 5.463-8.381 9.424-18.629 11.089-30.001 2.609-17.829-.954-34.639-8.666-46.762z" fill="#ffc097"/><path d="m159.421 37.619c.864-.183 1.696-.383 2.508-.595 6.692 3.665 11.231 10.77 11.231 18.938 0 11.918-9.662 21.58-21.58 21.58-9.772 0-18.016-6.499-20.673-15.407 1.986-10.693 9.437-20.47 28.514-24.516z" fill="#ffc097"/><path d="m87.214 36.853c1.002.274 2.03.535 3.114.766 18.89 4.007 26.382 13.631 28.456 24.201-2.726 8.794-10.924 15.182-20.615 15.182-11.918 0-21.58-9.662-21.58-21.58 0-7.914 4.273-14.813 10.625-18.569z" fill="#ffc097"/><path d="m95.764 205.795c5.841 4.052 12.353 6.921 19.297 8.327.582 2.227 1.064 4.739 1.386 7.427 1.135 9.467-.104 17.4-2.767 17.719-1.636.196-3.427-2.528-4.829-6.853-.235-.725-1.278-.687-1.435.059-.885 4.197-2.293 6.917-3.882 6.917s-2.998-2.719-3.882-6.917c-.157-.746-1.2-.784-1.435-.059-1.402 4.324-3.194 7.049-4.829 6.853-2.662-.319-3.901-8.252-2.767-17.719.892-7.454 2.991-13.617 5.143-15.754z" fill="#f9bd55"/><path d="m135.162 214.014c6.907-1.469 13.383-4.373 19.183-8.463 2.193 2.023 4.352 8.285 5.262 15.875 1.135 9.467-.104 17.4-2.767 17.719-1.636.196-3.427-2.528-4.829-6.853-.235-.725-1.278-.687-1.435.059-.885 4.197-2.293 6.917-3.882 6.917s-2.998-2.719-3.882-6.917c-.157-.746-1.2-.784-1.435-.059-1.402 4.324-3.194 7.049-4.829 6.853-2.662-.319-3.901-8.252-2.767-17.719.32-2.682.802-5.188 1.381-7.412z" fill="#f9bd55"/><path d="m111.24 84.776c1.411-2.461 3.69-5.164 7.375-7.475 3.812-2.39 8.707-2.39 12.519 0 3.685 2.311 5.965 5.014 7.375 7.475 2.084 3.636 1.601 8.162-1.111 11.38l-6.035 7.159c-3.391 4.023-9.588 4.023-12.979 0l-6.035-7.159c-2.71-3.218-3.193-7.744-1.109-11.38z" fill="#f9bd55"/><path d="m40.236 220.277c-.317 0-.64-.061-.952-.189-26.585-10.964-36.143-25.523-39.019-31.274-.617-1.235-.117-2.737 1.118-3.354 1.235-.616 2.737-.117 3.354 1.118 2.624 5.248 11.428 18.568 36.452 28.889 1.276.526 1.884 1.988 1.358 3.264-.396.963-1.328 1.546-2.311 1.546z"/><path d="m133.43 233.104c-.033 0-.066 0-.099-.002-5.572-.221-11.131-.347-16.521-.375-.68-.003-1.328-.283-1.797-.775s-.717-1.153-.688-1.832c.096-2.24.004-4.788-.265-7.369-.072-.69.146-1.379.601-1.902s1.108-.833 1.801-.856l1.595-.051c4.858-.177 10.121-.273 15.64-.286h.006c.709 0 1.384.301 1.858.828.476.528.703 1.234.627 1.94-.307 2.842-.397 5.623-.263 8.042.039.703-.221 1.39-.714 1.893-.471.477-1.112.745-1.781.745zm-14.07-5.356c3.784.041 7.636.127 11.506.26.004-1.081.042-2.2.113-3.338-4.093.031-8.022.109-11.724.234.06.968.095 1.917.105 2.844z"/><path d="m253.498 250.351c-.215 0-.43-.027-.642-.083-.407-.108-41.356-10.873-93.251-15.467-.667-.059-1.283-.383-1.709-.9s-.626-1.184-.557-1.85c.275-2.634.243-5.802-.093-9.161-.072-.719.17-1.434.665-1.96.494-.526 1.188-.808 1.914-.787 46.945 1.728 93.519 7.539 93.984 7.597 1.25.157 2.188 1.22 2.188 2.48v17.632c0 .776-.36 1.508-.976 1.981-.441.339-.978.518-1.523.518zm-91.009-20.309c42.966 3.987 78.098 12.053 88.509 14.603v-12.21c-9.515-1.133-48.569-5.58-88.556-7.188.09 1.67.106 3.281.047 4.795z"/><path d="m90.213 231.655c-.075 0-.15-.003-.226-.01-19.286-1.748-36.344-5.636-50.703-11.557-1.241-.512-1.856-1.912-1.394-3.172.462-1.259 1.832-1.928 3.11-1.52.138.044 14.207 4.398 49.524 4.893.7.01 1.363.312 1.83.834s.692 1.216.623 1.913c-.21 2.115-.299 4.158-.265 6.074.013.71-.277 1.392-.797 1.876-.464.431-1.073.669-1.702.669zm-14.577-6.832c3.92.629 7.955 1.157 12.103 1.582.014-.384.031-.772.053-1.162-4.388-.087-8.434-.232-12.156-.42z"/><path d="m164.002 250.273c-.64 0-1.279-.244-1.768-.732-.977-.976-.977-2.559 0-3.535 11.561-11.561 29.487-12.37 30.245-12.398 1.372-.06 2.541 1.023 2.593 2.403.053 1.378-1.022 2.539-2.4 2.593-.166.007-16.751.786-26.902 10.938-.489.487-1.128.731-1.768.731z"/><path d="m48 222.273c-.404 0-.814-.098-1.195-.306-12.418-6.774-9.403-25.799-9.269-26.606.227-1.361 1.51-2.287 2.877-2.055 1.361.227 2.281 1.513 2.055 2.874-.03.184-2.557 16.331 6.731 21.397 1.212.661 1.659 2.18.998 3.392-.454.833-1.312 1.304-2.197 1.304z"/><path d="m34.147 205.893c-2.314 0-4.602-.811-6.459-2.39-2.697-2.293-3.983-5.89-3.357-9.387.135-.752.606-1.401 1.279-1.762 3.653-1.959 8.051-1.493 11.205 1.188 2.697 2.294 3.983 5.891 3.357 9.387-.135.752-.606 1.401-1.279 1.762-1.501.807-3.13 1.202-4.746 1.202zm-4.956-9.598c.108 1.304.723 2.537 1.736 3.399 1.237 1.052 2.861 1.422 4.384 1.056-.108-1.304-.722-2.537-1.736-3.399-1.237-1.052-2.859-1.421-4.384-1.056z"/><path d="m57.019 223.391c-.661 0-1.3-.262-1.772-.736-2.925-2.938-3.739-7.286-2.075-11.075 1.424-3.242 4.5-5.505 8.029-5.909.758-.086 1.517.179 2.055.72 2.925 2.938 3.74 7.285 2.075 11.075-1.424 3.242-4.501 5.506-8.029 5.909-.094.011-.189.016-.283.016zm3.489-12.439c-1.218.478-2.223 1.42-2.758 2.638-.653 1.487-.542 3.147.246 4.503 1.218-.478 2.223-1.42 2.758-2.638.653-1.487.541-3.146-.246-4.503z"/><path d="m180.128 256c-4.003 0-7.578-2.337-9.172-6.031-1.403-3.251-.965-7.046 1.144-9.903.454-.614 1.163-.988 1.927-1.014 4.16-.141 7.882 2.225 9.521 6.025 1.403 3.25.965 7.044-1.144 9.902-.453.615-1.163.989-1.927 1.015-.117.004-.233.006-.349.006zm-4.635-11.829c-.479 1.216-.475 2.594.053 3.816.645 1.491 1.936 2.54 3.464 2.887.48-1.217.475-2.594-.052-3.816-.645-1.491-1.936-2.539-3.465-2.887z"/><path d="m76.002 197.387c-2.297 0-4.545-.981-6.199-2.863-11.638-13.237-16.749-33.688-13.671-54.707 2.785-19.013 11.831-35.668 24.819-45.695.809-.625 1.917-.694 2.799-.174 4.508 2.663 9.313 4.016 14.284 4.024.023 0 .045-.001.066-.001.855 0 1.65.437 2.109 1.158 8.331 13.095 11.622 30.76 9.029 48.465-3.079 21.018-13.839 39.144-28.784 48.489-1.401.877-2.937 1.304-4.452 1.304zm-14.923-56.845c-2.868 19.585 1.797 38.531 12.479 50.681 1.129 1.284 2.794 1.529 4.246.623 13.717-8.577 23.619-25.39 26.487-44.975 2.347-16.027-.423-31.947-7.604-43.927-4.839-.207-9.523-1.495-13.961-3.84-11.287 9.337-19.142 24.334-21.647 41.438z"/><path d="m70.818 193.002c-.589 0-1.18-.207-1.656-.628-1.034-.915-1.13-2.495-.215-3.529 8.507-9.613 15.191-26.32 17.882-44.69.2-1.366 1.46-2.316 2.836-2.111 1.366.2 2.312 1.47 2.111 2.836-2.825 19.292-9.96 36.967-19.085 47.279-.493.558-1.181.843-1.873.843z"/><path d="m64.307 181.205c-.472 0-.95-.134-1.374-.413-1.153-.76-1.471-2.311-.711-3.463 3.661-5.552 6.753-15.062 8.273-25.44.2-1.366 1.467-2.312 2.836-2.111 1.366.2 2.312 1.47 2.111 2.836-1.645 11.231-4.942 21.243-9.046 27.467-.48.728-1.277 1.124-2.089 1.124z"/><path d="m179.903 193.002c-.691 0-1.379-.285-1.873-.843-9.125-10.312-16.26-27.986-19.085-47.279-.2-1.366.745-2.636 2.111-2.836 1.369-.206 2.637.746 2.836 2.111 2.69 18.37 9.375 35.077 17.882 44.69.915 1.034.818 2.614-.216 3.529-.475.421-1.066.628-1.655.628z"/><path d="m186.414 181.205c-.812 0-1.608-.396-2.089-1.125-4.104-6.225-7.4-16.237-9.046-27.467-.2-1.366.745-2.636 2.111-2.836 1.37-.205 2.635.746 2.836 2.111 1.52 10.377 4.612 19.887 8.272 25.44.761 1.153.441 2.704-.711 3.463-.423.28-.9.414-1.373.414z"/><path d="m173.746 197.387c-1.515 0-3.05-.427-4.451-1.303-14.945-9.345-25.706-27.472-28.784-48.489-2.593-17.706.698-35.371 9.029-48.464.459-.721 1.255-1.158 2.109-1.158h.021c4.986 0 9.808-1.354 14.329-4.024.88-.519 1.989-.452 2.799.174 12.988 10.027 22.034 26.683 24.818 45.695 3.078 21.018-2.032 41.469-13.67 54.707-1.655 1.881-3.903 2.862-6.2 2.862zm-20.684-94.444c-7.181 11.979-9.95 27.899-7.604 43.927 2.868 19.584 12.771 36.397 26.487 44.975 1.452.908 3.117.662 4.245-.622 10.683-12.15 15.347-31.096 12.479-50.681-2.505-17.104-10.359-32.101-21.646-41.438-4.439 2.345-9.122 3.633-13.961 3.839z"/><path d="m124.875 217.614c-17.322 0-33.761-8.729-45.104-23.947-.399-.536-.568-1.209-.467-1.87s.461-1.254 1.002-1.646c12.365-8.983 21.331-25.162 23.985-43.28 2.421-16.536-.604-32.958-8.301-45.057-.49-.77-.521-1.745-.083-2.544.438-.8 1.278-1.297 2.19-1.298 4.63-.003 9.15-1.198 13.434-3.551 1.044-.573 2.348-.33 3.115.58l5.65 6.703c1.14 1.353 2.809 2.129 4.578 2.129s3.438-.776 4.579-2.129l5.61-6.657c.011-.013.022-.026.033-.04l.392-.464c.89-1.054 2.466-1.188 3.522-.298.316.267.55.596.698.955 3.829 1.838 7.839 2.771 11.942 2.773.912 0 1.751.498 2.19 1.298.438.799.406 1.774-.083 2.544-7.696 12.097-10.722 28.52-8.301 45.056 2.653 18.117 11.619 34.296 23.985 43.28.54.393.901.986 1.002 1.646s-.067 1.334-.467 1.87c-11.341 15.218-27.781 23.947-45.101 23.947zm-39.583-24.988c10.303 12.734 24.604 19.988 39.583 19.988 14.978 0 29.279-7.253 39.583-19.988-12.368-9.99-21.249-26.611-23.946-45.031-2.364-16.146.164-32.258 6.945-44.9-3.361-.447-6.646-1.431-9.818-2.944l-4.362 5.175c-2.092 2.482-5.154 3.906-8.401 3.906-3.247 0-6.309-1.424-8.4-3.907l-4.368-5.182c-3.174 1.515-6.457 2.5-9.813 2.949 6.781 12.644 9.311 28.756 6.946 44.902-2.701 18.422-11.581 35.042-23.949 45.032zm21.473-45.393h.01z"/><path d="m103.534 241.891c-2.005 0-3.631-1.38-4.858-4.114-1.603 2.893-3.465 4.226-5.586 3.974-2.573-.308-4.249-2.84-4.98-7.526-.557-3.566-.547-8.174.028-12.973.75-6.26 2.685-14.074 5.865-17.231.855-.849 2.195-.968 3.186-.28 5.69 3.947 11.87 6.616 18.368 7.931.936.189 1.682.895 1.923 1.818.638 2.441 1.125 5.053 1.45 7.761.575 4.799.585 9.407.028 12.973-.731 4.686-2.407 7.218-4.979 7.526-2.112.25-3.983-1.082-5.587-3.974-1.227 2.735-2.853 4.115-4.858 4.115zm-9.376-4.919h.01zm4.775-7.579c.057 0 .114.002.172.005 1.483.078 2.686 1.108 2.992 2.562.481 2.282 1.031 3.643 1.437 4.376.405-.733.955-2.095 1.436-4.376.307-1.454 1.509-2.483 2.992-2.562 1.47-.077 2.814.847 3.268 2.248.806 2.486 1.579 3.896 2.1 4.612.778-1.891 1.53-6.946.635-14.41-.232-1.942-.555-3.824-.962-5.615-5.818-1.364-11.385-3.716-16.595-7.012-1.281 2.467-2.626 6.963-3.304 12.626-.895 7.464-.144 12.519.635 14.41.521-.716 1.294-2.125 2.1-4.612.434-1.346 1.692-2.252 3.094-2.252z"/><path d="m146.693 241.769c-2.005 0-3.631-1.38-4.857-4.115-1.604 2.893-3.475 4.229-5.586 3.975-7.1-.852-5.192-18.491-4.952-20.499.323-2.7.81-5.306 1.445-7.745.238-.916.974-1.619 1.899-1.815 6.49-1.38 12.635-4.092 18.262-8.061.962-.681 2.27-.594 3.136.206 3.284 3.03 5.278 10.983 6.049 17.416.24 2.008 2.147 19.647-4.95 20.499-2.126.252-3.984-1.081-5.588-3.974-1.227 2.733-2.852 4.113-4.858 4.113zm-9.375-4.919h.01zm4.775-7.58c.057 0 .113.001.17.004 1.484.078 2.688 1.107 2.994 2.562.481 2.282 1.031 3.643 1.437 4.377.405-.734.956-2.095 1.437-4.376.307-1.455 1.51-2.484 2.993-2.562 1.493-.075 2.813.849 3.267 2.25.806 2.485 1.578 3.893 2.1 4.609.778-1.891 1.529-6.946.635-14.41-.688-5.744-2.08-10.326-3.371-12.759-5.168 3.327-10.711 5.723-16.527 7.143-.408 1.793-.73 3.676-.963 5.617-.895 7.464-.144 12.519.635 14.41.521-.717 1.294-2.126 2.101-4.612.432-1.346 1.689-2.253 3.092-2.253zm7.54 3.794c0 .001.001.003.001.004 0-.002-.001-.003-.001-.004zm-5.878-.002c0 .001-.001.002-.001.004 0-.002.001-.004.001-.004z"/><path d="m124.875 51.342c-1.215 0-2.254-.874-2.463-2.071-.404-2.317-4.627-22.64-28.307-22.64-7.086 0-13.254-1.735-18.334-5.156-.68-.458-1.092-1.22-1.104-2.04-.01-.768.333-1.495.925-1.976 10.594-9.258 29.009-14.782 49.282-14.782 20.275 0 38.694 5.527 49.288 14.787.589.48.93 1.205.919 1.971-.012.819-.424 1.582-1.104 2.039-5.079 3.421-11.247 5.156-18.333 5.156-23.673 0-27.903 20.323-28.307 22.64-.209 1.198-1.248 2.072-2.462 2.072zm-43.247-32.275c3.612 1.704 7.793 2.564 12.477 2.564 18.762 0 27.178 11.337 30.771 19.269 3.593-7.931 12.01-19.269 30.769-19.269 4.684 0 8.864-.861 12.477-2.564-9.971-7.083-26.112-11.389-43.247-11.389s-33.276 4.306-43.247 11.389z"/><path d="m151.67 102.973c-5.498 0-10.837-1.4-15.866-4.162-.657-.361-1.118-.998-1.255-1.734-.137-.737.064-1.497.548-2.07l.39-.462c2.044-2.424 2.387-5.85.854-8.525-1.492-2.602-3.706-4.831-6.579-6.625-.604-.378-1.02-.996-1.14-1.699-3.898-22.789 6.573-37.493 30.281-42.522 8.535-1.811 14.999-5.27 19.214-10.282.485-.578 1.21-.92 1.96-.891.754.014 1.462.368 1.925.963 5.922 7.601 9.052 17.601 9.052 28.921-.001 27.067-17.668 49.088-39.384 49.088zm-10.927-7.301c3.521 1.528 7.186 2.301 10.927 2.301 18.959 0 34.383-19.778 34.383-44.089 0-9.026-2.167-17.066-6.293-23.451-4.847 4.631-11.498 7.865-19.82 9.631-20.846 4.422-29.544 16.112-26.562 35.72 3.116 2.126 5.568 4.729 7.301 7.748 2.152 3.758 2.118 8.375.064 12.14z"/><path d="m98.079 102.973c-21.715 0-39.382-22.021-39.382-49.089 0-11.32 3.13-21.32 9.051-28.921.464-.595 1.171-.949 1.925-.963.756-.034 1.475.313 1.96.891 4.215 5.012 10.68 8.472 19.214 10.282 23.708 5.029 34.179 19.733 30.281 42.522-.121.703-.536 1.322-1.141 1.699-2.874 1.794-5.087 4.023-6.579 6.625-1.533 2.675-1.19 6.101.854 8.525l.385.457c.483.573.683 1.333.546 2.069-.137.737-.597 1.373-1.254 1.734-5.037 2.766-10.374 4.169-15.86 4.169zm-28.09-72.539c-4.126 6.384-6.293 14.425-6.293 23.451 0 24.311 15.424 44.089 34.382 44.089 3.734 0 7.397-.775 10.923-2.309-2.05-3.764-2.082-8.377.069-12.131 1.731-3.02 4.184-5.623 7.302-7.749 2.981-19.608-5.717-31.298-26.562-35.72-8.323-1.766-14.973-5-19.821-9.631z"/><path d="m124.875 108.833c-3.247 0-6.309-1.424-8.401-3.907l-6.035-7.159c-3.391-4.025-3.941-9.745-1.368-14.234 1.899-3.312 4.663-6.122 8.216-8.351 4.609-2.89 10.565-2.89 15.175 0 3.553 2.228 6.316 5.037 8.217 8.35 2.572 4.491 2.022 10.211-1.368 14.234l-6.035 7.159c-2.092 2.484-5.155 3.908-8.401 3.908zm-11.466-22.813c-1.533 2.674-1.189 6.101.854 8.525l6.035 7.159c1.14 1.353 2.809 2.129 4.578 2.129s3.438-.776 4.579-2.129l6.034-7.159c2.043-2.424 2.386-5.85.854-8.525-1.487-2.593-3.686-4.813-6.535-6.6-2.995-1.878-6.866-1.879-9.862 0-2.853 1.786-5.051 4.007-6.537 6.6z"/><path d="m151.58 80.042c-10.564 0-20.05-7.07-23.069-17.193-.113-.38-.134-.781-.062-1.171 2.571-13.846 12.816-22.764 30.453-26.505.824-.175 1.62-.365 2.395-.568.615-.162 1.272-.081 1.833.226 7.729 4.233 12.53 12.33 12.53 21.13 0 13.278-10.803 24.081-24.08 24.081zm-18.097-18.051c2.571 7.713 9.927 13.05 18.097 13.05 10.521 0 19.08-8.559 19.08-19.08 0-6.654-3.465-12.801-9.105-16.265-.528.128-1.065.251-1.615.368-15.202 3.225-24.099 10.6-26.457 21.927z"/><path d="m98.169 79.502c-13.278 0-24.08-10.802-24.08-24.08 0-8.458 4.542-16.398 11.853-20.721.583-.345 1.281-.438 1.933-.259 1.113.305 2.058.537 2.973.731 17.488 3.709 27.712 12.513 30.39 26.166.08.406.057.826-.065 1.221-3.143 10.133-12.387 16.942-23.004 16.942zm-10.547-39.954c-5.288 3.523-8.532 9.515-8.532 15.874 0 10.521 8.559 19.08 19.08 19.08 8.203 0 15.372-5.128 18.031-12.826-2.453-11.147-11.329-18.417-26.391-21.611-.702-.149-1.414-.317-2.188-.517z"/><path d="m105.496 63.004c-.002 0-.005 0-.008 0-1.38-.004-2.496-1.127-2.492-2.508.007-2.083-1.683-3.784-3.767-3.791-1 .021-1.96.387-2.675 1.098-.716.711-1.112 1.659-1.115 2.668-.004 1.378-1.123 2.492-2.5 2.492-.002 0-.005 0-.008 0-1.38-.004-2.496-1.127-2.492-2.508.016-4.831 3.951-8.75 8.778-8.75h.029c2.345.008 4.546.928 6.199 2.591 1.653 1.664 2.559 3.871 2.551 6.216-.004 1.379-1.123 2.492-2.5 2.492z"/><path d="m156.228 62.984c-1.381 0-2.5-1.119-2.5-2.5 0-2.083-1.695-3.779-3.779-3.779-2.083 0-3.778 1.695-3.778 3.779 0 1.381-1.119 2.5-2.5 2.5s-2.5-1.119-2.5-2.5c0-4.841 3.938-8.779 8.778-8.779s8.779 3.938 8.779 8.779c0 1.381-1.12 2.5-2.5 2.5z"/><path d="m131.085 79.773c-.468 0-.936-.131-1.346-.393-2.966-1.841-6.764-1.841-9.704-.016-.835.519-1.924.515-2.741-.033-.816-.549-1.261-1.51-1.095-2.479 3.464-20.253-5.168-32.286-26.39-36.788-12.138-2.575-20.637-8.199-25.262-16.716-3.894-7.171-4.127-14.842-3.638-20.015.167-1.761 1.511-3.123 3.268-3.312 1.776-.188 3.386.864 3.926 2.562 2.267 7.114 8.659 19.048 26 19.048 18.762 0 27.178 11.337 30.771 19.269 3.593-7.931 12.01-19.269 30.769-19.269 16.472 0 23.23-10.359 26-19.049.541-1.698 2.145-2.754 3.927-2.561 1.758.189 3.101 1.551 3.268 3.312.489 5.172.255 12.843-3.639 20.014-4.624 8.518-13.123 14.142-25.261 16.716-21.223 4.501-29.854 16.535-26.391 36.788.167.975-.257 1.958-1.082 2.504-.416.279-.899.418-1.38.418zm-65.282-69.699c1.307 17.326 15.85 23.149 25.044 25.099 22.169 4.703 32.764 17.866 30.858 38.189 2.088-.474 4.259-.475 6.337-.006-1.904-20.321 8.691-33.48 30.86-38.183 9.193-1.95 23.734-7.774 25.043-25.098-4.037 7.823-12.161 16.556-28.301 16.556-23.673 0-27.903 20.323-28.307 22.64-.209 1.197-1.248 2.07-2.463 2.07-1.215 0-2.254-.874-2.462-2.071-.404-2.317-4.627-22.64-28.307-22.64-16.142.001-24.265-8.733-28.302-16.556zm.085-6.27c0 .002 0 .001 0 0z"/><path d="m125.113 196.573c-11.679 0-22.844-6.337-31.441-17.843-.627-.84-.664-1.982-.091-2.861 5.454-8.366 9.157-18.394 10.71-28.998 2.421-16.536-.604-32.958-8.301-45.057-.49-.77-.521-1.745-.083-2.544.438-.8 1.278-1.297 2.19-1.298 4.63-.003 9.15-1.198 13.434-3.551 1.044-.573 2.348-.33 3.115.58l5.65 6.703c1.14 1.353 2.809 2.129 4.578 2.129s3.438-.776 4.579-2.129l5.61-6.657c.011-.013.022-.026.033-.04l.392-.464c.89-1.054 2.466-1.188 3.522-.298.316.267.55.596.698.955 3.829 1.838 7.839 2.771 11.942 2.773.912 0 1.751.498 2.19 1.298.438.799.406 1.774-.083 2.544-7.696 12.097-10.722 28.52-8.301 45.056 1.573 10.743 5.351 20.881 10.923 29.318.585.885.547 2.043-.094 2.889-8.557 11.282-19.628 17.495-31.172 17.495zm-26.389-19.481c7.463 9.353 16.781 14.481 26.389 14.481 9.48 0 18.701-5.01 26.118-14.151-5.438-8.728-9.135-19-10.721-29.827-2.364-16.146.164-32.258 6.945-44.9-3.361-.447-6.646-1.431-9.818-2.944l-4.362 5.175c-2.092 2.482-5.154 3.906-8.401 3.906-3.247 0-6.309-1.424-8.4-3.907l-4.368-5.182c-3.174 1.515-6.457 2.5-9.813 2.949 6.781 12.644 9.311 28.756 6.946 44.902-1.566 10.689-5.191 20.847-10.515 29.498z"/></svg>