<svg enable-background="new 0 0 256 256" height="512" viewBox="0 0 256 256" width="512" xmlns="http://www.w3.org/2000/svg"><path d="m89.622 244.414c0-3.856 1.339-7.393 3.566-10.189-11.43-.858-25.558.856-24.649 14.835.162 2.498 1.992 4.441 4.203 4.441h26.491v-.184c-5.662-.484-9.611-2.269-9.611-8.903z" fill="#52565b"/><path d="m162.812 234.225c2.227 2.796 3.566 6.333 3.566 10.189 0 6.634-3.948 8.419-9.611 8.902v.184h26.491c2.21 0 4.04-1.943 4.203-4.441.909-13.978-13.219-15.692-24.649-14.834z" fill="#52565b"/><path d="m152.69 138.457c-3.957.956-7.653 2.708-11.081 4.904-3.955 2.534-8.619 4.001-13.62 4.001-5.203 0-10.04-1.591-14.093-4.318-3.236-2.177-6.934-3.577-10.729-4.476-7.867-1.863-15.048-4.6-21.262-8.015-22.295 43.143 4.305 83.678 16.858 99.189 10.846-5.342 23.491 2.599 23.491 14.671 0 .993-.103 1.861-.272 2.649 3.823.566 7.979.6 12.037 0-.169-.788-.272-1.656-.272-2.649 0-9.033 7.305-16.355 16.315-16.355 2.579 0 5.008.616 7.176 1.684 12.577-15.541 39.256-56.205 16.726-99.442-6.202 3.467-13.389 6.252-21.274 8.157z" fill="#52565b"/><path d="m128 164.5c-7.439 0-14.104 6.158-18.597 15.878-3.141 6.796-1.327 12.112 1.095 18.243 2.16 5.469 7.727 20.747 9.398 36.805v.507c1.481 2.434 2.358 5.313 2.358 8.481 0 .993-.103 1.861-.272 2.649 3.823.566 7.979.6 12.037 0-.169-.788-.272-1.656-.272-2.649 0-3.169.914-6.117 2.47-8.623l-.112-.365c1.643-15.781 7.047-30.808 9.283-36.512 2.668-6.808 4.282-11.938 1.15-18.664-4.492-9.646-11.131-15.75-18.538-15.75z" fill="#e3e4e5"/><g fill="#52565b"><path d="m166.378 244.414c0 9.033-7.305 9.086-16.315 9.086s-16.315-.053-16.315-9.086 7.305-16.355 16.315-16.355 16.315 7.322 16.315 16.355z"/><path d="m122.253 244.414c0 9.033-7.305 9.086-16.315 9.086s-16.315-.053-16.315-9.086 7.305-16.355 16.315-16.355 16.315 7.322 16.315 16.355z"/><path d="m182.114 175.048c-2.124 17.178-9.506 32.214-16.506 43.103-.006.009-.012.018-.018.028-2.578 4.008-5.411 7.93-8.352 11.565 2.175 1.071 4.078 2.603 5.575 4.484 5.146-.386 10.836-.253 15.459 1.29 10.185-7.098 35.05-29.285 3.842-60.47z"/><path d="m98.762 229.743c-3.223-3.983-6.429-8.447-9.402-13.224-.005-.008-.01-.017-.016-.025-6.675-10.734-13.441-25.124-15.459-41.446-31.209 31.185-6.343 53.373 3.842 60.469 4.623-1.543 10.313-1.675 15.459-1.29 1.498-1.881 3.402-3.413 5.576-4.484z"/><path d="m248.606 83.591c-36.144-.773-53.29 34.087-49.932 66.028 2.127 20.23-5.229 28.247-11.145 31.425 8.247 10.226 10.515 19.36 9.6 27.158 32.549 10.863 57.54-31.201 44.401-63.584-12.893-31.777 2.554-53.049 7.918-59.127.646-.732.134-1.879-.842-1.9z"/></g><path d="m248.925 83.645c-5.188 1.38-43.892 13.385-36.425 62.855 4.212 27.901-7.097 39.448-18.752 44.13 1.666 3.39 2.69 6.632 3.19 9.712 14.486-1.407 39.811-9.149 32.562-46.842-7.624-39.646-5.021-57.786 19.577-69.788-.05-.023-.097-.051-.152-.067z" fill="#e3e4e5"/><path d="m194.127 84.435c-2.381-4.74-3.734-9.927-4.641-15.17-3.677-21.26-19.525-38.68-40.615-45.789-3.941-3.24-4.766-9.321-4.906-12.621-.038-.907-1.136-1.371-1.783-.735-3.226 3.169-4.675 7.092-5.287 10.539-.173-.024-1.682-.056-1.856-.078-3.368-5.343-2.876-12.241-3.053-16.408-.063-1.474-1.847-2.229-2.899-1.195-5.342 5.248-7.698 11.774-8.659 17.452l-1.228.132c-2.632-3.375-3.247-8.227-3.367-11.046-.038-.907-1.136-1.371-1.783-.735-4.421 4.343-5.509 10.094-5.664 14.097-22.004 6.695-38.666 24.513-42.45 46.387-.907 5.243-2.26 10.431-4.641 15.17-2.088 4.157-3.216 8.581-3.216 13.171 0 18.739 18.742 34.725 45.087 40.962 3.796.899 7.493 2.299 10.729 4.476 4.054 2.727 8.89 4.318 14.093 4.318 5.001 0 9.665-1.467 13.62-4.001 3.428-2.197 7.124-3.949 11.081-4.904 26.115-6.31 44.653-22.216 44.653-40.851.001-4.59-1.127-9.014-3.215-13.171z" fill="#e3e4e5"/><path d="m189.486 69.265c-3.217-18.597-15.748-34.254-32.95-42.645-7.563 3.584-23.308 15.912-20.898 56.112 4.263 1.456 7.948 4.136 10.649 7.628 12.965.179 35.248 3.577 46.199 23.316 3.129-4.975 4.857-10.394 4.857-16.069 0-4.59-1.128-9.015-3.216-13.171-2.381-4.741-3.734-9.928-4.641-15.171z" fill="#52565b"/><path d="m98.98 26.574c-17.25 8.381-29.821 24.06-33.043 42.69-.907 5.243-2.26 10.431-4.641 15.17-2.088 4.157-3.216 8.581-3.216 13.171 0 5.739 1.765 11.218 4.962 16.24 11.192-20.381 34.411-23.47 47.242-23.496 2.493-3.219 5.82-5.747 9.668-7.262 2.534-40.652-13.426-52.977-20.972-56.513z" fill="#52565b"/><path d="m181.13 48.15c4.072-.151 8.399-1.991 11.844-5.436 6.364-6.364 7.302-15.745 2.095-20.952s-14.588-4.269-20.952 2.095c-3.091 3.091-4.89 6.892-5.339 10.581 4.827 3.942 8.998 8.566 12.352 13.712z" fill="#f98080"/><path d="m74.332 48.122c3.467-5.311 7.802-10.067 12.83-14.088-.528-3.562-2.301-7.199-5.279-10.176-6.364-6.364-15.745-7.302-20.952-2.095s-4.269 14.588 2.095 20.952c3.293 3.293 7.393 5.12 11.306 5.407z" fill="#f98080"/><path d="m198.398 29.558c-.162-2.958-1.245-5.713-3.328-7.796-8.305-8.305-24.71-.31-26.29 12.677 2.904 2.372 5.537 5.017 7.931 7.849 2.746-9.588 13.387-15.785 21.687-12.73z" fill="#52565b"/><path d="m87.102 34.085c-1.249-8.629-9.332-15.636-17.575-15.687-6.598-.014-11.552 4.494-11.924 11.144 8.04-2.913 18.492 2.808 21.48 12.335 2.424-2.816 5.088-5.441 8.019-7.792z" fill="#52565b"/><path d="m136.327 100.3c0 4.058-4.269 9.796-8.327 9.796s-8.327-5.738-8.327-9.796 4.269-4.37 8.327-4.37 8.327.313 8.327 4.37z" fill="#f98080"/><path d="m128 110.14c0 6.32-4.568 10.949-9.928 12.001.939 8.167 5.023 14.318 9.928 14.318s8.989-6.151 9.928-14.318c-5.36-1.053-9.928-5.682-9.928-12.001z" fill="#f98080"/><path d="m181.131 50.65c-.843 0-1.632-.425-2.094-1.135-3.215-4.929-7.197-9.35-11.839-13.14-.664-.543-1.004-1.388-.9-2.238.535-4.401 2.685-8.68 6.052-12.048 7.328-7.326 18.313-8.269 24.487-2.095 6.174 6.173 5.233 17.158-2.095 24.487-3.739 3.738-8.666 5.986-13.519 6.166-.031.002-.062.003-.092.003zm-9.648-17.209c4.175 3.57 7.833 7.627 10.901 12.089 3.166-.456 6.32-2.082 8.822-4.583 5.379-5.38 6.318-13.193 2.095-17.417-4.225-4.225-12.038-3.283-17.417 2.095-2.239 2.241-3.773 4.977-4.401 7.816z"/><path d="m74.333 50.622c-.061 0-.122-.002-.184-.007-4.703-.345-9.28-2.522-12.891-6.133-7.329-7.33-8.269-18.314-2.095-24.487 6.173-6.174 17.158-5.234 24.487 2.095 3.231 3.23 5.356 7.343 5.985 11.577.13.881-.217 1.764-.912 2.319-4.837 3.868-8.974 8.41-12.298 13.502-.463.711-1.253 1.134-2.092 1.134zm-4.832-29.735c-2.604 0-5.022.863-6.803 2.644-4.224 4.224-3.284 12.037 2.096 17.417 2.355 2.354 5.326 3.95 8.322 4.501 3.171-4.596 6.964-8.757 11.303-12.398-.681-2.703-2.178-5.299-4.304-7.425-3.112-3.112-7.039-4.739-10.614-4.739z"/><path d="m115.791 124.86c-3.2 0-6.357-1.07-8.981-3.156-1.081-.859-1.26-2.433-.4-3.513.859-1.082 2.432-1.26 3.513-.401 2.917 2.32 6.679 2.732 10.066 1.097 3.4-1.64 5.512-4.991 5.512-8.747 0-1.381 1.119-2.5 2.5-2.5s2.5 1.119 2.5 2.5v.826c0 .194-.022.384-.064.565-.475 5.118-3.554 9.582-8.275 11.859-2.044.986-4.217 1.47-6.371 1.47z"/><path d="m140.209 124.86c-2.153 0-4.326-.484-6.369-1.47-4.721-2.277-7.801-6.74-8.275-11.859-.042-.182-.064-.371-.064-.565v-.826c0-1.381 1.119-2.5 2.5-2.5s2.5 1.119 2.5 2.5c0 3.756 2.112 7.107 5.512 8.748 3.385 1.633 7.147 1.224 10.066-1.098 1.081-.859 2.653-.68 3.513.401.859 1.08.68 2.653-.401 3.513-2.625 2.086-5.782 3.156-8.982 3.156z"/><path d="m107.083 98.428c-.305 0-.615-.057-.916-.175-1.285-.506-1.916-1.958-1.41-3.242 3.832-9.729 13.065-16.017 23.524-16.017 10.18 0 19.321 6.059 23.287 15.436.538 1.271-.058 2.738-1.329 3.276-1.269.533-2.739-.057-3.276-1.329-3.182-7.522-10.515-12.383-18.681-12.383-8.39 0-15.798 5.043-18.872 12.849-.388.984-1.329 1.585-2.327 1.585z"/><path d="m127.989 149.863c-5.519 0-10.875-1.641-15.489-4.744-2.696-1.813-6.031-3.199-9.909-4.117-28.119-6.658-47.011-24.098-47.011-43.396 0-4.886 1.171-9.694 3.481-14.293 1.985-3.952 3.387-8.552 4.412-14.475 3.838-22.189 20.067-40.375 42.537-47.829.425-4.304 1.93-9.73 6.289-14.013.994-.976 2.473-1.273 3.772-.76 1.313.52 2.201 1.765 2.26 3.172.058 1.37.252 3.423.842 5.465 1.654-5.385 4.388-9.971 8.164-13.68 1.19-1.169 2.896-1.513 4.459-.897 1.562.617 2.618 2.097 2.689 3.771.028.665.04 1.397.053 2.182.047 2.94.103 6.404 1.08 9.584 1.083-2.904 2.693-5.414 4.812-7.496.992-.976 2.474-1.273 3.771-.76 1.314.519 2.202 1.765 2.262 3.173.096 2.263.648 7.703 3.679 10.518 22.042 7.61 38.04 25.797 41.808 47.571 1.024 5.924 2.427 10.523 4.411 14.475 2.31 4.599 3.481 9.408 3.481 14.293 0 19.457-18.278 36.446-46.566 43.28-3.38.817-6.852 2.357-10.319 4.579-4.488 2.877-9.664 4.397-14.968 4.397zm-14.302-136.679c-2.08 3.273-2.693 6.982-2.802 9.79-.041 1.063-.751 1.985-1.771 2.295-21.505 6.543-37.106 23.565-40.714 44.421-1.111 6.422-2.659 11.464-4.871 15.867-1.957 3.896-2.949 7.949-2.949 12.049 0 16.933 17.346 32.417 43.163 38.53 4.465 1.057 8.351 2.684 11.548 4.834 3.787 2.547 8.178 3.893 12.699 3.893 4.346 0 8.589-1.247 12.271-3.606 3.937-2.523 7.921-4.282 11.843-5.229 25.564-6.177 42.74-21.617 42.74-38.421 0-4.099-.992-8.152-2.95-12.049-2.211-4.402-3.759-9.444-4.87-15.867-3.48-20.119-18.405-36.92-38.95-43.846-.287-.097-.555-.245-.789-.438-3.436-2.825-4.873-7.256-5.459-10.894-1.196 1.878-2.022 4.08-2.466 6.582-.23 1.295-1.411 2.179-2.719 2.051-.149-.01-.471-.02-.787-.029-.519-.018-1.027-.043-1.134-.057-.738-.097-1.396-.517-1.793-1.146-3.22-5.108-3.316-11.163-3.388-15.585-.001-.062-.002-.125-.003-.187-3.416 3.896-5.647 8.833-6.641 14.704-.187 1.104-1.085 1.949-2.198 2.068l-1.229.132c-.861.092-1.706-.266-2.238-.948-2.062-2.642-3.071-5.936-3.543-8.914z"/><path d="m95.326 75.969c-1.377 0-2.496-1.114-2.5-2.492-.008-2.449.938-4.756 2.665-6.494 1.727-1.737 4.027-2.699 6.477-2.707h.029c5.043 0 9.155 4.095 9.171 9.143.004 1.38-1.111 2.503-2.492 2.508-.003 0-.006 0-.008 0-1.377 0-2.496-1.114-2.5-2.492-.008-2.295-1.878-4.158-4.171-4.158-.005 0-.009 0-.014 0-1.114.004-2.16.44-2.945 1.231-.786.79-1.216 1.84-1.212 2.954.004 1.38-1.111 2.503-2.492 2.508-.002-.001-.005-.001-.008-.001z"/><path d="m147.331 75.969c-1.377 0-2.496-1.114-2.5-2.492-.008-2.449.938-4.756 2.666-6.494 1.727-1.737 4.026-2.699 6.477-2.707h.03c2.438 0 4.732.946 6.463 2.666 1.738 1.727 2.699 4.026 2.707 6.477.004 1.381-1.111 2.503-2.492 2.508-.003 0-.005 0-.008 0-1.377 0-2.495-1.114-2.5-2.492-.004-1.114-.44-2.16-1.231-2.946-.787-.781-1.83-1.212-2.939-1.212-.005 0-.009 0-.014 0-2.3.007-4.166 1.885-4.158 4.186.004 1.381-1.111 2.503-2.492 2.508-.004-.002-.006-.002-.009-.002z"/><path d="m150.062 256c-8.819 0-18.815 0-18.815-11.586 0-10.396 8.44-18.854 18.815-18.854s18.815 8.458 18.815 18.854c.001 11.586-9.995 11.586-18.815 11.586zm0-25.44c-7.618 0-13.815 6.215-13.815 13.854 0 6.047 3.581 6.586 13.815 6.586s13.815-.539 13.815-6.586c.001-7.64-6.196-13.854-13.815-13.854z"/><path d="m105.938 256c-8.819 0-18.815 0-18.815-11.586 0-10.396 8.44-18.854 18.815-18.854s18.815 8.458 18.815 18.854c0 11.586-9.996 11.586-18.815 11.586zm0-25.44c-7.618 0-13.815 6.215-13.815 13.854 0 6.047 3.581 6.586 13.815 6.586s13.815-.539 13.815-6.586c0-7.64-6.197-13.854-13.815-13.854z"/><path d="m178.271 238.016c-.266 0-.533-.042-.791-.129-3.658-1.221-8.529-1.613-14.481-1.167-.835.064-1.627-.289-2.143-.936-1.262-1.585-2.895-2.898-4.723-3.798-.682-.336-1.174-.964-1.337-1.706s.02-1.519.498-2.109c2.899-3.586 5.656-7.403 8.192-11.346 6.189-9.629 13.999-24.719 16.146-42.084.117-.948.765-1.746 1.668-2.058.903-.308 1.904-.081 2.581.596 11.497 11.489 16.819 23.047 15.818 34.352-1.313 14.839-13.094 25.125-20 29.937-.423.294-.923.448-1.428.448zm-10.783-6.473c3.935 0 7.393.409 10.334 1.224 6.263-4.558 15.821-13.416 16.897-25.576.762-8.607-2.907-17.569-10.916-26.694-2.399 13.008-7.8 26.105-16.094 39.006-2.124 3.303-4.385 6.505-6.749 9.563 1.063.759 2.05 1.627 2.933 2.584 1.239-.071 2.438-.107 3.595-.107z"/><path d="m77.728 238.016c-.505 0-1.004-.153-1.429-.449-6.905-4.811-18.686-15.098-19.999-29.937-1-11.305 4.322-22.862 15.819-34.351.675-.675 1.677-.904 2.581-.596.903.312 1.55 1.109 1.667 2.058 1.653 13.375 6.734 26.979 15.101 40.432.009.015.019.03.027.045 2.812 4.517 5.91 8.875 9.21 12.953.479.591.662 1.367.498 2.109-.163.742-.655 1.37-1.337 1.706-1.829.899-3.462 2.213-4.723 3.797-.515.647-1.316 1.002-2.143.937-5.949-.446-10.822-.054-14.481 1.167-.258.087-.525.129-.791.129zm-5.531-57.521c-8.009 9.125-11.679 18.087-10.917 26.694 1.076 12.16 10.634 21.02 16.897 25.577 3.807-1.054 8.481-1.427 13.929-1.117.883-.957 1.869-1.825 2.933-2.584-2.771-3.583-5.389-7.349-7.801-11.227-.009-.015-.019-.03-.028-.045-7.684-12.358-12.721-24.881-15.013-37.298z"/><path d="m127.998 249.999c-2.148 0-4.295-.154-6.383-.464-.684-.101-1.295-.48-1.688-1.049-.394-.567-.535-1.272-.39-1.948.146-.679.216-1.373.216-2.124 0-4.821-2.443-9.22-6.535-11.766-4.066-2.529-9.058-2.777-13.352-.662-1.046.514-2.313.238-3.048-.671-12.808-15.827-40.115-57.439-17.135-101.909.31-.6.848-1.048 1.493-1.244.644-.196 1.341-.124 1.933.2 6.125 3.366 13.068 5.982 20.634 7.774 4.465 1.057 8.351 2.684 11.548 4.834 3.786 2.547 8.177 3.893 12.698 3.893 4.346 0 8.589-1.247 12.271-3.606 3.937-2.523 7.921-4.282 11.843-5.229l.587 2.43-.587-2.43c7.588-1.834 14.532-4.494 20.642-7.909.589-.33 1.288-.408 1.936-.213.647.193 1.189.641 1.501 1.24 23.221 44.562-4.152 86.296-16.999 102.17-.735.908-2 1.187-3.049.67-1.92-.946-3.962-1.426-6.07-1.426-7.618 0-13.816 6.215-13.816 13.854 0 .749.071 1.444.217 2.124.145.676.004 1.381-.39 1.949-.394.567-1.005.947-1.688 1.048-2.092.31-4.241.464-6.389.464zm-3.25-5.133c2.154.178 4.349.178 6.504 0-.004-.149-.006-.301-.006-.452 0-10.396 8.441-18.854 18.816-18.854 2.202 0 4.35.382 6.406 1.137 12.388-15.794 35.572-53.179 16.412-92.979-5.926 3.047-12.508 5.455-19.604 7.169-3.38.817-6.852 2.357-10.319 4.579-4.488 2.877-9.664 4.397-14.968 4.397-5.519 0-10.875-1.641-15.489-4.744-2.696-1.813-6.031-3.199-9.909-4.117-7.077-1.676-13.653-4.041-19.587-7.043-18.953 39.712 4.177 76.987 16.529 92.739 5.396-1.975 11.368-1.382 16.328 1.705 5.569 3.465 8.894 9.45 8.894 16.011-.002.152-.004.303-.007.452z"/><path d="m207.491 212.432c-3.68 0-7.423-.612-11.154-1.858-1.124-.375-1.83-1.486-1.692-2.662.956-8.146-2.093-16.656-9.062-25.298-.467-.579-.651-1.336-.504-2.064.147-.729.611-1.355 1.267-1.707 5.564-2.99 11.789-10.441 9.842-28.961-2.152-20.478 3.725-40.488 15.722-53.529 9.471-10.294 22.179-15.591 36.751-15.26h.001c1.439.031 2.692.869 3.269 2.187.574 1.312.342 2.794-.607 3.867-4.887 5.536-19.872 25.979-7.476 56.533 7.63 18.802 3.355 42.166-10.395 56.816-7.359 7.839-16.447 11.936-25.962 11.936zm-7.707-6.038c10.962 2.962 21.56-.306 30.021-9.32 12.46-13.275 16.328-34.459 9.407-51.515-12.146-29.938.033-51.109 6.486-59.449-11.897.417-22.262 5.095-30.111 13.628-10.875 11.82-16.403 30.834-14.429 49.62 1.972 18.757-3.833 27.892-9.972 32.338 6.099 8.276 8.985 16.565 8.598 24.698zm48.763-120.304h.004c-.001 0-.003 0-.004 0z"/><path d="m176.71 44.787c-.727 0-1.428-.317-1.909-.886-2.389-2.824-4.947-5.356-7.603-7.525-.664-.543-1.004-1.388-.9-2.238.933-7.67 6.688-14.592 14.321-17.225 6.116-2.109 12.179-.957 16.218 3.082 2.45 2.449 3.853 5.709 4.058 9.426.047.841-.333 1.647-1.01 2.148-.677.5-1.562.626-2.35.335-3.006-1.105-6.532-.765-9.932.961-4.098 2.079-7.272 5.858-8.49 10.11-.254.887-.977 1.562-1.879 1.756-.173.038-.35.056-.524.056zm-5.231-11.347c1.516 1.304 2.996 2.713 4.43 4.216 2.079-3.899 5.416-7.213 9.432-9.25 3.234-1.641 6.607-2.344 9.814-2.09-.438-1.055-1.061-1.993-1.854-2.786-2.694-2.694-6.721-3.384-11.053-1.89-4.559 1.573-9.475 5.781-10.769 11.8z"/><path d="m79.083 44.377c-.168 0-.337-.017-.505-.052-.889-.184-1.608-.834-1.88-1.7-1.327-4.231-4.418-7.812-8.481-9.823-3.295-1.632-6.854-1.962-9.763-.909-.789.288-1.669.156-2.344-.345-.674-.501-1.051-1.308-1.004-2.146.446-7.956 6.362-13.504 14.39-13.504h.036c9.643.06 18.63 8.058 20.044 17.828.127.877-.219 1.755-.91 2.309-2.688 2.155-5.275 4.67-7.689 7.473-.48.557-1.174.869-1.894.869zm-17.005-18.106c2.758 0 5.608.688 8.357 2.05 4.018 1.988 7.307 5.168 9.414 9.011 1.461-1.509 2.971-2.923 4.517-4.231-1.652-6.7-8.158-12.161-14.854-12.202-.008 0-.017 0-.025 0-4.081 0-7.254 2.077-8.642 5.42.408-.032.82-.048 1.233-.048z"/><path d="m192.486 116.175c-.022 0-.046 0-.068-.001-.884-.024-1.688-.514-2.118-1.286-10.42-18.782-32.069-21.863-44.047-22.028-.762-.011-1.477-.368-1.943-.97-2.444-3.16-5.723-5.509-9.48-6.792-.96-.328-1.626-1.204-1.687-2.217-1.075-17.927 1.281-32.433 7.001-43.116 4.828-9.019 10.997-13.355 15.322-15.404.686-.326 1.482-.322 2.166.012 18.209 8.883 31.038 25.506 34.318 44.467 1.024 5.924 2.427 10.523 4.411 14.475 2.31 4.599 3.481 9.408 3.481 14.293 0 6.017-1.763 11.871-5.24 17.399-.457.727-1.258 1.168-2.116 1.168zm-44.99-28.291c12.403.349 32.988 3.724 44.848 20.83 1.66-3.607 2.499-7.329 2.499-11.107 0-4.099-.992-8.152-2.95-12.049-2.211-4.402-3.759-9.444-4.87-15.867-2.94-17-14.299-31.973-30.484-40.275-18.108 9.634-19.115 38.013-18.49 51.56 3.643 1.526 6.869 3.883 9.447 6.908z"/><path d="m63.041 116.347c-.853 0-1.648-.436-2.108-1.157-3.552-5.58-5.353-11.496-5.353-17.583 0-4.886 1.171-9.694 3.481-14.293 1.985-3.952 3.387-8.552 4.412-14.475 3.286-19 16.151-35.641 34.415-44.514.679-.329 1.469-.335 2.153-.015 4.349 2.037 10.551 6.367 15.408 15.42 5.773 10.761 8.127 25.4 6.998 43.514-.061.969-.676 1.815-1.58 2.171-3.387 1.333-6.363 3.569-8.607 6.466-.472.61-1.2.968-1.971.97-12.289.025-34.482 2.943-45.056 22.199-.425.774-1.228 1.267-2.11 1.296-.028.001-.055.001-.082.001zm35.935-86.978c-16.238 8.295-27.629 23.283-30.576 40.321-1.111 6.422-2.659 11.464-4.871 15.867-1.957 3.896-2.949 7.949-2.949 12.049 0 3.842.865 7.622 2.578 11.282 12.05-17.579 33.194-20.82 45.929-21.027 2.336-2.731 5.22-4.933 8.456-6.455 1.873-36.26-11.554-48.269-18.567-52.037z"/><path d="m119.893 237.927c-1.265 0-2.35-.956-2.483-2.241-1.628-15.64-7.002-30.488-9.237-36.146-2.71-6.86-4.507-12.706-1.039-20.21 5.091-11.014 12.696-17.33 20.866-17.33 8.133 0 15.716 6.268 20.805 17.195 3.526 7.572 1.772 13.327-1.09 20.631-2.207 5.631-7.515 20.397-9.124 35.859-.144 1.373-1.379 2.381-2.745 2.228-1.373-.143-2.371-1.372-2.228-2.745 1.673-16.071 7.16-31.346 9.442-37.166 2.555-6.521 3.911-10.897 1.211-16.695-4.233-9.092-10.164-14.307-16.271-14.307-6.138 0-12.089 5.259-16.328 14.427-2.648 5.729-1.264 10.164 1.15 16.276 2.311 5.849 7.868 21.21 9.56 37.465.143 1.373-.854 2.603-2.228 2.745-.088.01-.175.014-.261.014z"/><path d="m128 112.597c-5.577 0-10.827-6.927-10.827-12.296 0-6.871 7.587-6.871 10.827-6.871 3.239 0 10.826 0 10.826 6.871 0 5.369-5.25 12.296-10.826 12.296zm0-14.167c-5.827 0-5.827 1.037-5.827 1.871 0 3 3.431 7.296 5.827 7.296s5.826-4.296 5.826-7.296c0-.834 0-1.871-5.826-1.871z"/><path d="m128 138.958c-6.188 0-11.292-6.798-12.411-16.532-.149-1.295.722-2.487 2.001-2.738 3.81-.748 7.91-4.056 7.91-9.548 0-1.381 1.119-2.5 2.5-2.5s2.5 1.119 2.5 2.5c0 5.492 4.101 8.8 7.909 9.548 1.279.251 2.151 1.443 2.002 2.739-1.119 9.733-6.224 16.531-12.411 16.531zm-7.118-15.013c1.144 5.757 4.081 10.013 7.118 10.013 3.036 0 5.974-4.256 7.117-10.013-2.967-1.086-5.428-3.039-7.117-5.54-1.689 2.501-4.15 4.454-7.118 5.54z"/><path d="m196.935 202.842c-1.213 0-2.268-.88-2.465-2.101-.478-2.944-1.475-5.975-2.966-9.009-.307-.624-.339-1.348-.09-1.997s.757-1.166 1.402-1.426c14.681-5.896 20.472-19.838 17.212-41.437-7.824-51.834 33.515-64.384 38.254-65.645.451-.119.923-.109 1.369.023.182.056.35.127.515.211.848.428 1.398 1.309 1.393 2.258-.007.949-.532 1.822-1.385 2.239-22.066 10.766-26.153 25.809-18.219 67.068 2.864 14.893 1.061 26.799-5.36 35.387-7.7 10.301-20.247 13.524-29.415 14.415-.082.01-.164.014-.245.014zm.131-10.947c.794 1.903 1.419 3.808 1.868 5.697 7.866-1.076 17.635-4.116 23.656-12.17 5.543-7.415 7.042-17.996 4.454-31.45-4.9-25.481-6.022-43.16 1.589-56.038-.302.285-.604.577-.902.876-11.479 11.438-15.772 27.357-12.76 47.317 4.244 28.108-6.844 40.404-17.905 45.768z"/><path d="m183.258 256h-26.491c-1.381 0-2.5-1.119-2.5-2.5v-.184c0-1.298.994-2.381 2.287-2.491 5.545-.473 7.324-2.031 7.324-6.411 0-3.165-1.045-6.149-3.022-8.632-.576-.725-.706-1.709-.335-2.558.37-.85 1.181-1.424 2.104-1.493 10.986-.821 18.805.998 23.264 5.414 3.025 2.996 4.394 7.059 4.067 12.076-.248 3.801-3.189 6.779-6.698 6.779zm-26.491-2.684h.01zm10.439-2.316h16.052c.866 0 1.632-.943 1.707-2.103.232-3.559-.617-6.24-2.595-8.198-2.818-2.791-8.065-4.239-15.207-4.158 1.13 2.445 1.715 5.108 1.715 7.873 0 2.853-.639 4.986-1.672 6.586z"/><path d="m99.234 256h-26.492c-3.508 0-6.45-2.978-6.697-6.778-.327-5.018 1.042-9.081 4.067-12.076 4.46-4.416 12.283-6.236 23.263-5.414.924.069 1.733.644 2.104 1.493s.242 1.833-.335 2.558c-1.977 2.482-3.021 5.467-3.021 8.632 0 4.38 1.78 5.938 7.324 6.411 1.294.11 2.288 1.193 2.288 2.491v.184c-.001 1.38-1.12 2.499-2.501 2.499zm-10.752-19.46c-6.993 0-12.081 1.414-14.852 4.158-1.979 1.959-2.828 4.641-2.596 8.199.076 1.159.842 2.103 1.708 2.103h16.052c-1.033-1.6-1.672-3.733-1.672-6.586 0-2.765.585-5.428 1.715-7.873-.118-.001-.237-.001-.355-.001z"/></svg>