<svg enable-background="new 0 0 256 256" height="512" viewBox="0 0 256 256" width="512" xmlns="http://www.w3.org/2000/svg"><path d="m175.685 143.418c-2.771-10.155-7.755-24.649-16.494-29.489-2.42-1.34-4.811-2.735-7.129-4.239-6.825 2.898-14.837 4.567-23.406 4.567-8.967 0-17.316-1.834-24.341-4.985-2.516 1.695-5.109 3.28-7.741 4.8-8.612 4.976-13.513 19.28-16.26 29.346-.549 2.011-.674 4.117-.296 6.167 1.291 6.994 3.971 13.632 7.848 19.538-.345 3.636-1.235 7.206-2.569 10.628-2.34 6.004-3.723 13.421-3.723 21.453 0 20.001 8.572 36.214 19.146 36.214 5.287 0 10.073-4.053 13.538-10.606 4.285 2.602 8.913 4.021 13.741 4.021s9.456-1.42 13.741-4.021c3.465 6.553 8.251 10.606 13.538 10.606 10.574 0 19.146-16.214 19.146-36.214 0-8.031-1.383-15.449-3.723-21.453-1.542-3.959-2.246-7.292-2.539-10.673 3.862-5.895 6.531-12.518 7.818-19.494.379-2.05.254-4.156-.295-6.166z" fill="#52565b"/><path d="m150.872 196.97c-2.812.803-5.316-.076-7.262-1.347-2.252-1.471-2.526-4.578-.766-6.612.011-.012.021-.025.032-.037 5.644-6.584-1.881-2.822-2.822-6.584-.793-3.172 7.104-4.338 9.603-4.626-.185-.449-.281-.939-.25-1.447.212-3.495.955-9.477 3.46-14.939-3.87-15.511-13.417-26.49-24.59-26.49-11.37 0-21.061 11.366-24.794 27.311 2.216 5.233 2.907 10.797 3.108 14.118.031.508-.065.998-.25 1.447 2.499.288 10.396 1.454 9.603 4.626-.941 3.763-8.466 0-2.822 6.584.011.012.021.025.032.037 1.76 2.034 1.486 5.141-.766 6.612-1.945 1.27-4.448 2.149-7.258 1.348 4.505 12.897 13.18 21.634 23.147 21.634 10.028 0 18.752-8.842 23.233-21.87-.211.08-.415.171-.638.235z" fill="#828487"/><path d="m169.357 69.068c-.881-1.28-1.335-2.795-1.286-4.349.013-.41.02-.821.02-1.234 0-22.868-17.656-41.406-39.435-41.406s-39.434 18.538-39.434 41.406c0 .413.007.824.02 1.234.049 1.553-.405 3.068-1.286 4.349-2.842 4.129-4.44 8.754-4.44 13.642 0 17.423 20.21 31.548 45.141 31.548s45.141-14.124 45.141-31.548c-.001-4.888-1.599-9.513-4.441-13.642z" fill="#52565b"/><path d="m128.122 91.92v7.81c0 .961.779 1.739 1.739 1.739h3.702c.844 0 1.566-.606 1.713-1.437l1.201-8.807c-4.534.695-8.355.695-8.355.695z" fill="#e3e4e5"/><path d="m120.967 100.032c.147.831.869 1.437 1.713 1.437h3.702c.961 0 1.739-.779 1.739-1.739v-7.81s-3.822 0-8.356-.695z" fill="#e3e4e5"/><path d="m136.758 65.759c.044.224.074.451.074.683 0 2.995-3.752 5.422-8.38 5.422s-8.38-2.428-8.38-5.422c0-.349.056-.69.153-1.021-7.226 3.179-15.196 8.849-15.196 16.176 0 10.323 23.093 10.323 23.093 10.323s23.093 0 23.093-10.323c-.001-7.077-7.437-12.604-14.457-15.838z" fill="#828487"/><g fill="#f98080"><ellipse cx="128.122" cy="66.443" rx="8.38" ry="5.422"/><path d="m177.675 8.529c-1.151-3.613-4.522-6.147-8.311-6.024-11.895.385-19.301 17.567-21.844 24.612 7.63 4.373 13.725 11.318 17.244 19.723 20.733-5.859 16.026-28.529 12.911-38.311z"/><path d="m108.713 27.769c-2.299-6.566-9.796-24.867-22.076-25.264-3.79-.123-7.161 2.412-8.311 6.024-3.173 9.963-7.997 33.297 14.09 38.619 3.332-8.14 9.081-14.927 16.297-19.379z"/><path d="m173.519 236.477c-4.948 0-7.637-1.925-9.025-3.527-2.734 2.846-5.874 4.468-9.216 4.468-1.267 0-2.504-.239-3.702-.683-1.042 3.02-2.135 7.649-.633 11.03 3.763 8.466 33.6 5.146 46.077 4.842 2.628-.064 4.718-2.213 4.718-4.842 0-14.11-19.753-11.288-28.219-11.288z"/><path d="m100.722 237.417c-3.341 0-6.482-1.622-9.216-4.468-1.388 1.602-4.077 3.527-9.025 3.527-8.466 0-28.219-2.822-28.219 11.288 0 2.629 2.09 4.778 4.718 4.842 12.477.304 42.314 3.624 46.077-4.842 1.502-3.38.409-8.01-.633-11.03-1.199.445-2.436.683-3.702.683z"/><path d="m106.342 177.764c-.363.881-1.092 1.592-2.046 1.887-1.154.357-2.15.966-2.957 1.607-1.133.9-2.657.944-3.814.231-.721 4.839 1.243 13.664 7.603 15.482 2.812.803 5.316-.076 7.262-1.347 2.252-1.471 2.526-4.578.766-6.612-.011-.012-.021-.025-.032-.037-5.644-6.584 1.881-2.822 2.822-6.584.792-3.173-7.105-4.339-9.604-4.627z"/><path d="m149.658 177.764c.363.881 1.092 1.592 2.046 1.887 1.154.357 2.15.966 2.957 1.607 1.133.9 2.657.944 3.814.231.721 4.839-1.243 13.664-7.603 15.482-2.812.803-5.316-.076-7.262-1.347-2.252-1.471-2.526-4.578-.766-6.612.011-.012.021-.025.032-.037 5.644-6.584-1.881-2.822-2.822-6.584-.792-3.173 7.105-4.339 9.604-4.627z"/><path d="m208.732 101.586c-7.413 2.727-21.227 10.964-17.37 33.912 4.462 26.547 3.031 55.308-16.993 63.113.032.857.056 1.719.056 2.592 0 3.451-.261 6.786-.737 9.948 14.829-2.866 38.369-16.443 26.674-75.712 0 0-6.229-19.992 9.132-32.522.678-.554.059-1.633-.762-1.331z"/></g><path d="m145.212 63.687c-1.377 0-2.495-1.113-2.5-2.491-.008-2.17.831-4.212 2.36-5.751s3.565-2.391 5.735-2.397h.027c4.465 0 8.105 3.626 8.121 8.095.005 1.381-1.11 2.504-2.491 2.509-.003 0-.006 0-.009 0-1.377 0-2.495-1.113-2.5-2.491-.006-1.719-1.405-3.113-3.122-3.113-.003 0-.007 0-.011 0-.834.002-1.616.33-2.204.921-.588.592-.91 1.376-.907 2.21.005 1.381-1.11 2.504-2.491 2.509-.002-.001-.005-.001-.008-.001z"/><path d="m111.031 63.668c-1.381 0-2.5-1.119-2.5-2.5 0-1.722-1.4-3.122-3.122-3.122s-3.122 1.4-3.122 3.122c0 1.381-1.119 2.5-2.5 2.5s-2.5-1.119-2.5-2.5c0-4.479 3.644-8.122 8.122-8.122s8.122 3.644 8.122 8.122c0 1.381-1.119 2.5-2.5 2.5z"/><path d="m128.121 74.365c-6.101 0-10.88-3.479-10.88-7.922s4.779-7.922 10.88-7.922 10.88 3.48 10.88 7.922-4.779 7.922-10.88 7.922zm0-10.844c-3.589 0-5.88 1.731-5.88 2.922s2.291 2.922 5.88 2.922 5.88-1.73 5.88-2.922-2.291-2.922-5.88-2.922z"/><path d="m128.121 94.42c-2.619 0-25.593-.36-25.593-12.823 0-10.038 11.672-16.256 16.689-18.464.888-.39 1.924-.232 2.655.41.73.641 1.023 1.647.751 2.58-.035.121-.053.229-.053.32 0 1.191 2.291 2.922 5.88 2.922s5.88-1.73 5.88-2.922c0-.069-.014-.137-.026-.204-.181-.921.17-1.865.908-2.445.737-.581 1.74-.697 2.591-.305 10.111 4.658 15.911 11.258 15.911 18.108 0 3.857-2.343 8.979-13.502 11.473-5.973 1.335-11.844 1.35-12.091 1.35zm-9.903-25.233c-4.333 2.336-10.689 6.734-10.689 12.411 0 5.911 13.874 7.823 20.593 7.823 6.719-.006 20.594-1.927 20.594-7.823 0-5.49-6.067-9.821-10.18-12.125-1.603 2.897-5.465 4.893-10.084 4.893-4.771-.001-8.733-2.128-10.234-5.179z"/><path d="m133.563 103.969h-3.702c-2.338 0-4.24-1.902-4.24-4.24v-7.809c0-1.38 1.119-2.499 2.499-2.5.036 0 3.704-.011 7.979-.667.785-.12 1.57.136 2.132.689s.831 1.339.725 2.12l-1.201 8.807c-.374 2.127-2.13 3.6-4.192 3.6zm-2.942-5h2.279l.661-4.86c-1.109.11-2.109.182-2.94.228z"/><path d="m126.382 103.969h-3.702c-2.062 0-3.817-1.473-4.175-3.503-.006-.032-.011-.064-.016-.096l-1.201-8.807c-.106-.781.162-1.567.725-2.12.562-.553 1.35-.808 2.132-.689 4.296.658 7.94.667 7.977.667 1.381 0 2.5 1.12 2.5 2.5v7.809c-.001 2.337-1.902 4.239-4.24 4.239zm-3.037-5h2.276v-4.632c-.83-.046-1.83-.117-2.938-.227z"/><path d="m176.962 79.788c-.346 0-.697-.072-1.032-.225-15.262-6.938-28.24-4.441-28.37-4.416-1.344.275-2.67-.6-2.945-1.952-.274-1.351.593-2.669 1.943-2.947.589-.121 14.624-2.882 31.44 4.762 1.257.571 1.813 2.053 1.242 3.311-.419.922-1.327 1.467-2.278 1.467z"/><path d="m174.994 94.575c-.75 0-1.491-.335-1.983-.976-9.031-11.74-22.117-12.248-22.248-12.252-1.381-.04-2.467-1.19-2.428-2.571.039-1.355 1.15-2.428 2.498-2.428.023 0 .048 0 .072.001.633.018 15.605.601 26.068 14.201.842 1.094.638 2.664-.457 3.506-.454.35-.99.519-1.522.519z"/><path d="m79.038 79.788c-.951 0-1.859-.544-2.278-1.466-.571-1.257-.015-2.739 1.242-3.311 16.815-7.644 30.85-4.884 31.44-4.762 1.353.278 2.223 1.6 1.944 2.953-.277 1.351-1.598 2.22-2.948 1.946-.199-.04-13.148-2.503-28.368 4.416-.335.151-.686.224-1.032.224z"/><path d="m81.006 94.575c-.532 0-1.068-.169-1.522-.519-1.095-.842-1.299-2.412-.457-3.506 10.463-13.601 25.436-14.183 26.068-14.201 1.403-.043 2.531 1.048 2.57 2.427.039 1.378-1.044 2.528-2.421 2.571-.181.006-13.3.611-22.255 12.252-.492.641-1.233.976-1.983.976z"/><path d="m128.656 116.757c-26.27 0-47.642-15.274-47.642-34.048 0-5.287 1.643-10.353 4.881-15.059.586-.851.879-1.838.847-2.853-.014-.437-.021-.874-.021-1.312 0-24.21 18.812-43.906 41.935-43.906s41.935 19.696 41.935 43.906c0 .438-.007.876-.021 1.312-.032 1.016.261 2.002.847 2.854 3.238 4.706 4.881 9.772 4.881 15.059 0 18.773-21.372 34.047-47.642 34.047zm0-92.178c-20.366 0-36.935 17.453-36.935 38.906 0 .387.007.772.019 1.156.065 2.086-.531 4.107-1.726 5.843-2.654 3.856-4 7.969-4 12.225 0 16.017 19.129 29.048 42.642 29.048s42.642-13.031 42.642-29.048c0-4.255-1.346-8.368-4-12.224-1.194-1.736-1.791-3.757-1.726-5.844.012-.383.019-.769.019-1.155 0-21.454-16.569-38.907-36.935-38.907z"/><path d="m164.764 49.34c-.985 0-1.907-.586-2.305-1.535-3.286-7.846-9.032-14.423-16.183-18.52-1.053-.604-1.521-1.876-1.108-3.018 2.798-7.752 10.75-25.83 24.114-26.262 4.844-.159 9.27 3.036 10.774 7.765 2.258 7.09 5.239 20.482-.16 30.521-2.893 5.376-7.755 9.062-14.452 10.955-.226.064-.455.094-.68.094zm-14.172-23.28c6.615 4.266 12.032 10.441 15.53 17.706 4.292-1.62 7.438-4.252 9.371-7.844 4.526-8.415 1.817-20.299-.2-26.634-.83-2.606-3.256-4.373-5.849-4.284-9.543.308-16.222 14.391-18.852 21.056z"/><path d="m92.416 49.648c-.194 0-.391-.023-.587-.07-7.195-1.734-12.418-5.407-15.521-10.918-5.672-10.069-2.663-23.676-.364-30.891 1.505-4.728 5.903-7.925 10.774-7.764 13.621.441 21.569 18.984 24.354 26.937.389 1.108-.047 2.337-1.047 2.954-6.77 4.177-12.202 10.64-15.297 18.199-.391.956-1.317 1.553-2.312 1.553zm-6.04-44.648c-2.544 0-4.857 1.74-5.669 4.287-2.052 6.44-4.785 18.501-.043 26.92 2.109 3.745 5.581 6.413 10.336 7.949 3.301-7.018 8.421-13.085 14.682-17.395-2.594-6.797-9.315-21.441-19.126-21.759-.06-.001-.12-.002-.18-.002z"/><path d="m156.679 36.502c-.059 0-.117-.002-.176-.006-1.378-.096-2.417-1.29-2.321-2.667 1.254-18.039 13.344-23.215 13.858-23.427 1.274-.526 2.737.084 3.263 1.36.524 1.272-.079 2.728-1.347 3.258-.438.188-9.76 4.377-10.786 19.155-.092 1.319-1.19 2.327-2.491 2.327z"/><path d="m161.815 41.072c-.789 0-1.628-.133-2.505-.443-1.302-.46-1.983-1.889-1.522-3.19.459-1.302 1.884-1.987 3.19-1.523 1.692.601 2.939-.896 3.076-1.068.851-1.072 2.415-1.274 3.497-.438s1.303 2.373.48 3.466c-1.013 1.351-3.272 3.196-6.216 3.196z"/><path d="m99.399 38.033c-1.346 0-2.456-1.069-2.498-2.422-.497-15.973-10.437-20.411-10.86-20.592-1.263-.541-1.86-2.003-1.329-3.27.532-1.267 1.978-1.871 3.248-1.348.545.224 13.337 5.708 13.939 25.054.043 1.38-1.041 2.534-2.421 2.577-.026 0-.053.001-.079.001z"/><path d="m94.224 41.065c-.186 0-.372-.007-.56-.021-3.419-.262-5.474-2.871-5.696-3.168-.83-1.104-.607-2.671.496-3.5 1.098-.824 2.65-.61 3.483.475.049.059.941 1.135 2.127 1.21.89.064 1.841-.442 2.899-1.476.988-.963 2.57-.945 3.535.042.964.988.945 2.571-.043 3.536-1.974 1.928-4.071 2.902-6.241 2.902z"/><path d="m155.278 239.917c-5.475 0-10.55-3.431-14.478-9.724-8.238 4.17-17.363 4.17-25.602 0-3.928 6.293-9.003 9.724-14.478 9.724-12.139 0-21.646-17.005-21.646-38.714 0-8.091 1.347-15.823 3.895-22.36 1.174-3.014 1.952-6.074 2.317-9.107-3.831-6.041-6.429-12.663-7.727-19.697-.434-2.35-.316-4.867.342-7.278 4.532-16.606 10.23-26.698 17.421-30.853 2.858-1.651 5.343-3.191 7.595-4.709.719-.483 1.633-.56 2.421-.208 6.952 3.118 15.016 4.767 23.317 4.767 7.944 0 15.7-1.51 22.429-4.368.767-.323 1.641-.249 2.338.204 2.037 1.321 4.255 2.64 6.979 4.149 7.316 4.052 13.104 14.198 17.695 31.018.657 2.409.776 4.925.343 7.276-1.295 7.02-3.886 13.63-7.705 19.664.34 3.114 1.06 5.969 2.295 9.143 2.548 6.537 3.895 14.269 3.895 22.36.001 21.708-9.507 38.713-21.646 38.713zm-13.538-15.605c.223 0 .446.03.665.09.664.183 1.223.632 1.545 1.241 3.162 5.98 7.186 9.274 11.328 9.274 9.023 0 16.646-15.439 16.646-33.714 0-7.476-1.229-14.581-3.553-20.545-1.527-3.919-2.359-7.424-2.7-11.365-.048-.559.093-1.117.4-1.585 3.717-5.675 6.224-11.925 7.45-18.579.299-1.617.213-3.364-.249-5.052-4.157-15.235-9.303-24.643-15.293-27.96-2.348-1.3-4.339-2.468-6.17-3.621-7.047 2.791-15.021 4.261-23.154 4.261-8.502 0-16.797-1.605-24.088-4.652-2.039 1.337-4.258 2.696-6.744 4.132-5.909 3.414-10.988 12.78-15.098 27.839-.462 1.69-.548 3.438-.249 5.054 1.231 6.672 3.747 12.937 7.479 18.621.312.475.453 1.042.398 1.609-.358 3.771-1.275 7.572-2.728 11.298-2.324 5.965-3.553 13.069-3.553 20.545 0 18.275 7.623 33.714 16.646 33.714 4.143 0 8.166-3.293 11.328-9.274.322-.609.881-1.058 1.545-1.241.662-.185 1.372-.085 1.963.273 7.994 4.854 16.891 4.854 24.885 0 .399-.24.848-.363 1.301-.363z"/><path d="m128 233.333c-7.48 0-14.826-3.159-21.244-9.136-1.01-.941-1.066-2.523-.125-3.534.94-1.009 2.522-1.066 3.533-.125 5.476 5.1 11.643 7.795 17.836 7.795s12.36-2.695 17.836-7.795c1.011-.941 2.593-.883 3.533.125.941 1.011.885 2.592-.125 3.534-6.418 5.977-13.764 9.136-21.244 9.136z"/><path d="m173.3 255.982c-12.629 0-22.106-1.5-24.641-7.203-1.807-4.065-.695-9.237.555-12.86.22-.636.687-1.157 1.295-1.445.606-.288 1.307-.319 1.938-.083 3.515 1.305 7.021.18 10.244-3.173.487-.506 1.167-.788 1.867-.767.702.018 1.364.331 1.824.861 1.054 1.216 3.147 2.665 7.137 2.665 1.049 0 2.332-.047 3.691-.097 7.535-.279 17.851-.656 23.418 4.71 2.395 2.309 3.609 5.396 3.609 9.174 0 4.019-3.144 7.244-7.157 7.341-2.06.05-4.569.183-7.477.335-5.772.305-11.286.542-16.303.542zm-20.024-16.225c-.744 2.936-.769 5.372-.049 6.992 2.433 5.472 25.183 4.273 36.114 3.699 2.944-.155 5.487-.289 7.618-.341 1.277-.031 2.278-1.061 2.278-2.343 0-2.402-.681-4.225-2.08-5.574-4.038-3.893-13.505-3.544-19.764-3.314-1.406.052-2.734.101-3.875.101-4.189 0-7.07-1.213-9.009-2.636-3.439 2.832-7.345 4.037-11.233 3.416z"/><path d="m82.699 255.982c-5.018 0-10.529-.237-16.304-.541-2.907-.153-5.417-.285-7.477-.335-4.014-.098-7.157-3.322-7.157-7.341 0-3.779 1.215-6.865 3.609-9.174 5.567-5.367 15.885-4.988 23.418-4.71 1.359.05 2.643.097 3.691.097 3.989 0 6.083-1.449 7.137-2.665.46-.531 1.122-.843 1.824-.861.707-.021 1.381.261 1.867.767 3.223 3.354 6.73 4.479 10.244 3.173.631-.235 1.331-.204 1.938.083.608.288 1.075.809 1.295 1.445 1.25 3.623 2.361 8.795.555 12.86-2.532 5.701-12.012 7.201-24.64 7.202zm-9.442-17.233c-5.443 0-11.421.555-14.415 3.441-1.399 1.349-2.08 3.172-2.08 5.574 0 1.283 1.001 2.312 2.278 2.343 2.131.052 4.674.186 7.618.341 10.932.574 33.681 1.773 36.114-3.699.72-1.62.695-4.056-.049-6.992-3.89.62-7.794-.584-11.234-3.417-1.938 1.422-4.819 2.636-9.009 2.636-1.141 0-2.469-.049-3.875-.101-1.618-.059-3.451-.126-5.348-.126z"/><path d="m156.734 184.489c-1.312 0-2.579-.441-3.628-1.274-.703-.558-1.424-.954-2.142-1.176-2.549-.789-4.215-3.204-4.052-5.874.383-6.329 2.165-17.487 9.633-24.182-.566-1.045-1.332-2.483-2.206-4.204-.626-1.23-.135-2.735 1.096-3.361 1.233-.625 2.737-.134 3.361 1.096 1.771 3.486 3.11 5.83 3.124 5.853.636 1.112.329 2.524-.711 3.272-7.536 5.417-9.019 17.071-9.307 21.83-.021.357.205.691.54.794 1.312.406 2.581 1.092 3.772 2.037.247.197.507.199.632.182.151-.019.367-.087.536-.308l4.82-6.299c.026-.035.054-.068.081-.101 5.755-6.765 9.645-14.958 11.247-23.695.249-1.358 1.55-2.256 2.91-2.008 1.358.249 2.257 1.552 2.008 2.91-1.757 9.577-6.015 18.56-12.314 25.982l-4.781 6.249c-.954 1.247-2.336 2.039-3.893 2.231-.241.031-.484.046-.726.046z"/><path d="m99.266 184.489c-.241 0-.484-.015-.728-.045-1.557-.192-2.938-.985-3.893-2.231l-4.781-6.249c-6.3-7.422-10.558-16.406-12.314-25.982-.432-2.351-.312-4.783.354-7.227.364-1.333 1.742-2.117 3.07-1.754 1.332.364 2.117 1.738 1.754 3.07-.468 1.716-.556 3.401-.261 5.009 1.603 8.737 5.492 16.93 11.247 23.695.027.033.055.066.081.101l4.82 6.299c.169.22.385.289.536.308.126.017.384.015.632-.182 1.191-.946 2.46-1.631 3.772-2.038.335-.104.562-.437.54-.793-.288-4.76-1.771-16.414-9.307-21.831-1.04-.747-1.347-2.16-.711-3.271.014-.023 1.353-2.368 3.125-5.854.626-1.23 2.131-1.72 3.361-1.096 1.231.626 1.722 2.131 1.096 3.361-.875 1.721-1.64 3.159-2.207 4.204 7.468 6.695 9.251 17.854 9.633 24.184.163 2.668-1.503 5.084-4.052 5.873-.718.222-1.438.618-2.142 1.177-1.046.831-2.313 1.272-3.625 1.272z"/><path d="m128.278 221.104c-10.712 0-20.485-8.932-25.508-23.31-.308-.881-.099-1.861.542-2.54.642-.679 1.605-.944 2.504-.688 1.693.482 3.397.145 5.207-1.036.537-.352.71-.85.76-1.205.083-.59-.106-1.201-.519-1.678-2.073-2.418-3.201-4.271-2.541-6.175.653-1.885 2.538-2.256 3.663-2.479.148-.029.334-.066.518-.107-1.131-.56-3.467-1.249-6.85-1.64-.777-.09-1.469-.539-1.866-1.213-.397-.675-.457-1.497-.159-2.221.051-.123.073-.238.067-.342-.17-2.797-.773-8.24-2.914-13.296-.207-.488-.253-1.029-.133-1.545 4.096-17.49 15.037-29.242 27.229-29.242 12.109 0 22.713 11.142 27.016 28.385.138.55.083 1.131-.153 1.647-2.394 5.22-3.056 11.042-3.237 14.047-.006.107.017.222.067.345.298.725.238 1.546-.159 2.221-.397.674-1.089 1.124-1.866 1.213-3.383.391-5.719 1.08-6.85 1.64.184.042.369.078.518.107 1.125.222 3.01.594 3.663 2.479.66 1.904-.468 3.756-2.501 6.129-.452.522-.642 1.134-.559 1.724.05.355.223.854.761 1.206 1.809 1.181 3.513 1.52 5.207 1.035h.002c.078-.022.149-.055.223-.084l.219-.085c.905-.343 1.931-.13 2.625.544.695.675.938 1.691.623 2.607-4.999 14.531-14.808 23.557-25.599 23.557zm-19.409-21.449c4.501 10.239 11.729 16.45 19.409 16.45 7.679 0 14.883-6.179 19.384-16.382-1.832-.186-3.661-.858-5.418-2.006-1.623-1.06-2.709-2.772-2.979-4.697-.284-2.019.332-4.076 1.688-5.644.233-.271.431-.512.6-.723-1.451-.397-3.327-1.268-3.924-3.656-.302-1.204-.071-2.438.646-3.475 1.265-1.826 4.177-3.134 8.673-3.9.273-3.87 1.076-9.288 3.282-14.461-3.793-14.256-12.545-23.773-21.952-23.773-9.653 0-18.5 9.857-22.174 24.613 2.049 5.189 2.725 10.533 2.946 13.621 4.497.766 7.409 2.074 8.674 3.9.718 1.037.947 2.271.646 3.474-.599 2.389-2.475 3.26-3.926 3.656.163.205.354.435.576.695 1.381 1.596 1.997 3.653 1.713 5.672-.27 1.925-1.355 3.637-2.978 4.696-1.585 1.038-3.232 1.687-4.886 1.94z"/><path d="m107.291 199.776c-.956 0-1.909-.133-2.851-.402-7.577-2.165-10.321-11.992-9.389-18.253.124-.831.656-1.544 1.419-1.899.761-.353 1.65-.302 2.365.139.229.14.611.207.948-.06 1.191-.946 2.46-1.631 3.772-2.038.298-.092.43-.345.473-.45.426-1.035 1.483-1.663 2.6-1.533 5.884.679 9.617 2.107 11.096 4.242.717 1.037.947 2.271.646 3.474-.599 2.389-2.475 3.26-3.926 3.656.163.205.354.435.576.695 1.381 1.596 1.997 3.653 1.713 5.672-.27 1.925-1.355 3.637-2.978 4.696-2.091 1.368-4.285 2.061-6.464 2.061zm-7.368-15.335c.255 3.893 1.999 9.013 5.892 10.125 1.695.485 3.398.146 5.209-1.036.537-.352.71-.85.76-1.205.083-.59-.106-1.201-.519-1.678-2.073-2.418-3.201-4.271-2.541-6.175.653-1.885 2.538-2.256 3.663-2.479.148-.029.334-.066.518-.107-.956-.473-2.771-1.039-5.353-1.438-.678.736-1.54 1.288-2.517 1.59-.718.222-1.438.618-2.142 1.177-.873.695-1.907 1.106-2.97 1.226z"/><path d="m148.709 199.776c-2.179 0-4.373-.693-6.465-2.059-1.623-1.06-2.709-2.772-2.979-4.697-.284-2.019.332-4.076 1.688-5.644.233-.271.431-.512.6-.723-1.451-.397-3.327-1.268-3.924-3.656-.302-1.204-.071-2.438.646-3.475 1.479-2.135 5.212-3.563 11.096-4.242 1.122-.132 2.175.498 2.6 1.533.043.104.175.357.473.45 1.312.406 2.581 1.092 3.772 2.037.337.268.722.2.948.061.716-.442 1.604-.493 2.365-.139.763.354 1.295 1.068 1.419 1.899.933 6.262-1.812 16.089-9.39 18.253-.94.269-1.893.402-2.849.402zm-5.613-17.889c.184.042.369.078.518.107 1.125.222 3.01.594 3.663 2.479.66 1.904-.468 3.756-2.501 6.129-.452.522-.642 1.134-.559 1.724.05.355.223.854.761 1.206 1.809 1.181 3.513 1.52 5.207 1.035 3.894-1.112 5.638-6.232 5.893-10.125-1.063-.12-2.097-.531-2.971-1.226-.703-.558-1.424-.954-2.142-1.176-.977-.302-1.839-.854-2.517-1.59-2.581.398-4.396.964-5.352 1.437zm.266 5.175h.01z"/><path d="m173.688 213.65c-.639 0-1.261-.245-1.73-.696-.586-.562-.862-1.374-.741-2.176.471-3.124.709-6.345.709-9.575 0-.841-.022-1.671-.054-2.498-.04-1.064.598-2.037 1.59-2.423 8.967-3.494 22.895-15.984 15.435-60.369-4.241-25.239 11.856-34.054 18.974-36.672 1.509-.557 3.182.057 3.979 1.452.796 1.396.472 3.146-.772 4.161-13.893 11.332-8.385 29.658-8.327 29.842.026.085.049.172.066.26 5.62 28.482 3.824 49.824-5.338 63.434-6.851 10.175-16.46 13.891-23.314 15.216-.161.029-.319.044-.477.044zm3.228-13.407c.006.319.009.639.009.96 0 2.23-.105 4.457-.315 6.656 5.434-1.639 11.887-5.083 16.72-12.262 8.38-12.449 9.929-32.485 4.604-59.554-.485-1.644-4.091-15.005 2.948-26.946-5.187 4.685-9.3 12.623-7.054 25.987 3.372 20.072 5.532 54.774-16.912 65.159zm31.816-98.657h.01z"/></svg>