<svg enable-background="new 0 0 256 256" height="512" viewBox="0 0 256 256" width="512" xmlns="http://www.w3.org/2000/svg"><g fill="#52565b"><path d="m128.509 131.747c9.883 0 18.359 7.531 21.961 18.254 1.19-3.544 1.849-7.435 1.849-11.519 0-16.444-10.66-29.774-23.81-29.774s-23.81 13.33-23.81 29.774c0 4.084.659 7.976 1.849 11.519 3.602-10.723 12.078-18.254 21.961-18.254z"/><path d="m128.509 108.707c9.883 0 18.359 7.531 21.961 18.254 1.19-3.544 1.849-7.435 1.849-11.52 0-16.444-10.66-29.774-23.81-29.774s-23.81 13.33-23.81 29.774c0 4.085.659 7.976 1.849 11.52 3.602-10.723 12.078-18.254 21.961-18.254z"/><path d="m128.509 85.667c8.147 0 15.336 5.12 19.628 12.925.932-2.977 1.45-6.215 1.45-9.605 0-14.557-9.437-26.359-21.078-26.359s-21.078 11.801-21.078 26.359c0 3.39.518 6.628 1.45 9.605 4.293-7.805 11.481-12.925 19.628-12.925z"/><path d="m128.509 62.628c5.363 0 10.256 2.509 13.976 6.635.238-1.76.375-3.583.375-5.463 0-13.587-6.556-24.602-14.644-24.602s-14.644 11.014-14.644 24.602c0 2.087.171 4.101.462 6.036 3.777-4.465 8.869-7.208 14.475-7.208z"/><path d="m128.217 39.198c3.123 0 6.012 1.655 8.389 4.454 1.7-2.162 3.185-4.837 4.251-7.885 3.208-9.18 1.433-18.152-3.965-20.039-5.398-1.886-12.375 4.027-15.583 13.207-1.809 5.176-2.032 10.284-.917 14.095 2.264-2.414 4.943-3.832 7.825-3.832z"/><path d="m161.185 5.663c-2.541-4.401-11.156-4.183-19.243.486-4.684 2.705-8.151 6.308-9.756 9.718 1.613-.568 3.219-.658 4.705-.139 3.263 1.14 5.191 4.877 5.506 9.676 2.772-.51 5.793-1.614 8.746-3.319 8.086-4.669 12.583-12.021 10.042-16.422z"/><path d="m170.201 4.861c-4.036-1.411-7.994-1.771-11.109-1.22.89.506 1.606 1.177 2.094 2.022 1.704 2.952.231 7.229-3.356 11.136 1.899 1.442 4.25 2.718 6.923 3.652 7.912 2.765 15.546 1.516 17.05-2.789s-3.69-10.037-11.602-12.801z"/><path d="m189.099 15.63c-3.115-2.542-6.481-4.183-9.463-4.824 2.022 2.283 2.906 4.741 2.167 6.856-.96 2.749-4.423 4.244-8.858 4.252 1.314 2.239 3.257 4.508 5.712 6.511 6.493 5.299 14.095 6.73 16.979 3.197 2.883-3.532-.044-10.692-6.537-15.992z"/></g><path d="m208.929 31.681c-2.555-4.58-7.625-7-12.672-6.357.788 2.49.646 4.746-.622 6.299-1.787 2.19-5.387 2.469-9.411 1.106-1.152 2.543-1.475 5.467-.705 8.35 1.295 4.852 4.46 8.523 8.917 11.595 4.906 3.38 5.596 8.578 5.457 11.884-.046 1.095 1.258 1.683 2.057.932 14.113-13.272 11.421-25.847 6.979-33.809z" fill="#828487"/><path d="m135.918 174.122c0-6.767 5.485-12.252 12.252-12.252 1.451 0 2.836.265 4.128.728.01-.358.022-.716.022-1.077 0-16.444-10.66-29.774-23.81-29.774s-23.81 13.33-23.81 29.774c0 .293.011.583.018.875 1.123-.339 2.312-.526 3.546-.526 6.766 0 12.252 5.485 12.252 12.252 0 4.74-2.697 8.844-6.636 10.88 4.037 3.94 9.112 6.293 14.63 6.293 5.43 0 10.432-2.277 14.437-6.104-4.151-1.961-7.029-6.174-7.029-11.069z" fill="#52565b"/><path d="m184.017 221.687c6.374 12.483 2.051 22.9-1.674 28.586-1.128 1.723.08 3.724 1.893 3.116 12.504-4.19 22.4-12.878 28.587-24.875 5.935-11.508 5.109-29.8-5.246-33.912-11.098-4.407-33.271 8.065-23.56 27.085z" fill="#828487"/><path d="m184.017 221.687c-2.731-5.349-2.94-10.179-1.584-14.263-6.164 6.364-10.371 14.431-12.196 23.699-.345 1.749 1.448 2.694 2.793 1.483 2.833-2.553 7.269-5.499 12.985-6.054-.496-1.582-1.15-3.205-1.998-4.865z" fill="#52565b"/><path d="m207.577 194.602c.535.212 1.038.472 1.523.756-.048-.329-.1-.665-.162-1.019-4.232-24.337-21.471-33.801-25.605-35.745.189.219.306.48.306.808 0 2.201-2.098 5.688-5.633 8.992 1.905 5.435 10.465 18.028 18.163 26.389 4.036-1.309 8.188-1.46 11.408-.181z" fill="#52565b"/><path d="m71.983 221.687c-6.374 12.483-2.051 22.9 1.674 28.586 1.128 1.723-.08 3.724-1.893 3.116-12.504-4.19-22.4-12.878-28.587-24.875-5.935-11.508-5.109-29.8 5.246-33.912 11.098-4.407 33.271 8.065 23.56 27.085z" fill="#828487"/><path d="m71.983 221.687c2.731-5.349 2.94-10.179 1.584-14.263 6.164 6.364 10.371 14.431 12.196 23.699.345 1.749-1.448 2.694-2.793 1.483-2.833-2.553-7.269-5.499-12.985-6.054.496-1.582 1.15-3.205 1.998-4.865z" fill="#52565b"/><path d="m48.423 194.602c-.535.212-1.038.472-1.523.756.048-.329.1-.665.162-1.019 4.232-24.337 21.471-33.801 25.605-35.745-.189.219-.306.48-.306.808 0 2.201 2.098 5.688 5.633 8.992-1.905 5.435-10.465 18.028-18.163 26.389-4.036-1.309-8.188-1.46-11.408-.181z" fill="#52565b"/><path d="m155.696 164.468c2.872 2.242 4.725 5.728 4.725 9.654 0 .983-.128 1.933-.347 2.849 13.399-1.617 23.564-12.716 23.564-17.568.001-4.439-18.303 1.586-27.942 5.065z" fill="#52565b"/><path d="m96.012 174.122c0-3.863 1.792-7.303 4.585-9.549-9.557-3.461-28.235-9.653-28.235-5.17 0 4.906 10.392 16.204 24.012 17.623-.229-.933-.362-1.902-.362-2.904z" fill="#52565b"/><circle cx="148.17" cy="174.122" fill="#e3e4e5" r="12.252"/><circle cx="108.264" cy="174.122" fill="#e3e4e5" r="12.252"/><path d="m150.47 152.501c-1.074 0-2.028-.687-2.37-1.704-3.376-10.055-11.065-16.551-19.59-16.551s-16.214 6.497-19.591 16.551c-.342 1.019-1.296 1.704-2.37 1.704s-2.028-.686-2.37-1.704c-1.312-3.909-1.979-8.053-1.979-12.315 0-17.796 11.803-32.274 26.31-32.274s26.31 14.479 26.31 32.274c0 4.262-.666 8.404-1.979 12.315-.343 1.018-1.297 1.704-2.371 1.704zm-21.96-23.255c8.478 0 16.229 4.91 21.111 12.972.132-1.229.198-2.477.198-3.736 0-15.039-9.56-27.274-21.31-27.274s-21.31 12.235-21.31 27.274c0 1.26.066 2.507.198 3.736 4.884-8.062 12.635-12.972 21.113-12.972z"/><path d="m150.47 129.462c-1.074 0-2.028-.686-2.37-1.704-3.377-10.054-11.066-16.551-19.59-16.551s-16.214 6.497-19.591 16.551c-.342 1.019-1.296 1.704-2.37 1.704s-2.028-.686-2.37-1.704c-1.312-3.909-1.979-8.053-1.979-12.316 0-17.796 11.803-32.274 26.31-32.274s26.31 14.479 26.31 32.274c0 4.262-.666 8.405-1.979 12.316-.343 1.018-1.297 1.704-2.371 1.704zm-21.96-23.255c8.478 0 16.229 4.91 21.111 12.973.132-1.23.198-2.479.198-3.738 0-15.039-9.56-27.274-21.31-27.274s-21.31 12.235-21.31 27.274c0 1.26.066 2.507.198 3.737 4.883-8.063 12.635-12.972 21.113-12.972z"/><path d="m108.882 101.092c-.083 0-.166-.004-.25-.013-.997-.1-1.838-.785-2.137-1.741-1.037-3.314-1.563-6.798-1.563-10.352 0-15.912 10.577-28.858 23.578-28.858s23.578 12.946 23.578 28.858c0 3.556-.526 7.038-1.564 10.353-.3.956-1.141 1.641-2.137 1.74-.999.096-1.957-.404-2.439-1.282-4.005-7.282-10.523-11.63-17.438-11.63s-13.433 4.348-17.438 11.63c-.443.804-1.286 1.295-2.19 1.295zm19.628-17.925c6.956 0 13.529 3.348 18.394 9.181.123-1.108.185-2.23.185-3.361 0-13.155-8.334-23.858-18.578-23.858s-18.578 10.703-18.578 23.858c0 1.131.062 2.252.185 3.36 4.863-5.832 11.436-9.18 18.392-9.18z"/><path d="m114.035 72.335c-.228 0-.457-.031-.683-.095-.943-.268-1.644-1.063-1.79-2.033-.324-2.16-.489-4.316-.489-6.408 0-15.197 7.53-27.102 17.144-27.102s17.144 11.904 17.144 27.102c0 1.899-.134 3.851-.397 5.8-.131.964-.81 1.766-1.739 2.053-.932.286-1.943.008-2.595-.715-3.378-3.745-7.682-5.809-12.119-5.809-4.654 0-9.117 2.245-12.566 6.321-.483.571-1.186.886-1.91.886zm14.182-30.638c-6.582 0-12.144 10.121-12.144 22.102 0 .215.002.432.006.648 3.698-2.812 7.978-4.319 12.431-4.319 4.204 0 8.281 1.358 11.85 3.896.001-.075.001-.15.001-.226-.001-11.98-5.562-22.101-12.144-22.101z"/><path d="m136.605 46.151c-.733 0-1.43-.321-1.905-.882-1.385-1.63-3.634-3.572-6.483-3.572-2.602 0-4.7 1.655-6.003 3.044-.614.654-1.528.929-2.404.721-.872-.208-1.566-.868-1.818-1.729-1.304-4.456-.956-10.15.956-15.621 1.696-4.855 4.437-9.059 7.714-11.837 3.646-3.09 7.574-4.122 11.055-2.906 3.481 1.217 5.909 4.469 6.838 9.158.834 4.216.358 9.211-1.338 14.065-1.11 3.178-2.717 6.153-4.646 8.605-.464.59-1.168.939-1.918.954-.016 0-.032 0-.048 0zm-8.388-9.454c2.85 0 5.58 1.055 8.024 3.078.892-1.486 1.656-3.121 2.254-4.833 1.407-4.026 1.817-8.091 1.153-11.445-.562-2.838-1.867-4.81-3.582-5.408-1.716-.6-3.966.131-6.172 2-2.608 2.211-4.82 5.646-6.227 9.671-1.031 2.95-1.524 5.932-1.457 8.613 1.901-1.104 3.93-1.676 6.007-1.676z"/><path d="m142.396 27.904c-.552 0-1.094-.183-1.536-.527-.562-.438-.912-1.097-.958-1.809-.259-3.935-1.693-6.731-3.836-7.479-.887-.312-1.913-.265-3.049.137-.954.333-2.01.065-2.686-.683-.676-.747-.837-1.828-.407-2.74 1.889-4.015 5.813-7.957 10.768-10.818 9.425-5.441 19.376-5.254 22.658.429 3.28 5.683-1.533 14.396-10.958 19.837-3.089 1.783-6.39 3.033-9.544 3.613-.15.027-.301.04-.452.04zm-5.338-14.736c.222.059.441.125.658.201 3.398 1.187 5.823 4.441 6.777 8.941 1.807-.564 3.637-1.373 5.399-2.391 7.141-4.123 10.709-10.267 9.128-13.007-1.581-2.74-8.689-2.722-15.828 1.401-2.385 1.379-4.504 3.069-6.134 4.855z"/><path d="m172.828 24.409c-2.761 0-5.805-.516-8.901-1.598-2.803-.979-5.435-2.37-7.609-4.021-.561-.426-.916-1.067-.979-1.769-.062-.7.173-1.396.648-1.913 2.852-3.104 4.069-6.398 3.033-8.196-.253-.437-.634-.796-1.163-1.097-.916-.52-1.408-1.559-1.229-2.598s.99-1.854 2.027-2.038c3.676-.649 8.068-.183 12.369 1.32 4.215 1.473 7.895 3.783 10.361 6.505 2.835 3.128 3.821 6.496 2.777 9.483-1.331 3.811-5.753 5.922-11.334 5.922zm-11.322-8.171c1.259.724 2.634 1.351 4.07 1.853 6.851 2.395 12.971 1.312 13.866-1.253.406-1.16-.236-2.792-1.762-4.476-1.888-2.083-4.915-3.958-8.305-5.142-1.784-.623-3.603-1.033-5.332-1.216.931 3.022.029 6.644-2.537 10.234z"/><path d="m190.797 36.064c-.874 0-1.796-.09-2.76-.271-3.61-.68-7.503-2.608-10.962-5.432-2.603-2.125-4.776-4.609-6.286-7.184-.453-.772-.459-1.728-.015-2.505s1.271-1.258 2.166-1.26c3.405-.006 5.957-1.018 6.502-2.576.395-1.129-.217-2.724-1.678-4.374-.717-.809-.832-1.985-.287-2.918.545-.932 1.622-1.406 2.684-1.184 3.488.75 7.225 2.643 10.518 5.331h.001c7.679 6.268 10.706 14.838 6.892 19.511-1.536 1.884-3.888 2.862-6.775 2.862zm-13.312-12.191c.822.916 1.746 1.795 2.752 2.616 2.781 2.27 5.962 3.87 8.725 4.391 2.231.421 3.959.115 4.735-.837 1.719-2.106-.559-7.889-6.18-12.477-.963-.786-1.964-1.487-2.978-2.09.085 1.031-.039 2.042-.377 3.011-.921 2.635-3.31 4.517-6.677 5.386z"/><path d="m201.111 68.328c-.523 0-1.052-.111-1.551-.34-1.379-.63-2.229-2.018-2.166-3.534.125-2.973-.533-7.072-4.378-9.721-5.312-3.662-8.555-7.917-9.913-13.009-.885-3.312-.585-6.873.843-10.026.53-1.171 1.863-1.75 3.079-1.337 3.051 1.033 5.672.908 6.673-.319.897-1.099.495-2.954.176-3.962-.225-.707-.123-1.477.276-2.102.398-.625 1.055-1.04 1.79-1.134 6.192-.799 12.148 2.201 15.171 7.619h.001c9.502 17.029-.589 30.396-7.45 36.848-.709.668-1.623 1.017-2.551 1.017zm-13.277-32.58c-.346 1.544-.314 3.134.1 4.688 1.054 3.947 3.57 7.183 7.921 10.181 3.684 2.538 5.908 6.377 6.434 11.001 8.521-9.095 10.022-18.744 4.458-28.718-.001 0-.001 0-.001 0-1.584-2.84-4.377-4.683-7.511-5.093.083 2.091-.479 3.946-1.663 5.397-2.026 2.483-5.567 3.375-9.738 2.544z"/><path d="m139.93 203.952c-.376 0-.757-.085-1.116-.265-1.234-.617-1.735-2.119-1.118-3.354l1.644-3.288-4.313-5.625c-.84-1.096-.633-2.665.463-3.506 1.097-.84 2.664-.632 3.506.463l5.265 6.866c.581.76.68 1.784.252 2.64l-2.343 4.687c-.441.875-1.323 1.382-2.24 1.382z"/><path d="m115.925 203.952c-.917 0-1.8-.507-2.238-1.383l-2.343-4.687c-.428-.855-.329-1.88.252-2.64l5.265-6.866c.84-1.095 2.409-1.303 3.506-.463 1.096.841 1.303 2.41.463 3.506l-4.313 5.625 1.644 3.288c.617 1.235.116 2.737-1.118 3.354-.361.18-.742.266-1.118.266z"/><path d="m143.688 178.024c-1.377 0-2.496-1.114-2.5-2.492-.006-1.864.715-3.62 2.029-4.943 1.314-1.322 3.065-2.055 4.931-2.061h.022c3.84 0 6.97 3.117 6.981 6.96.004 1.381-1.111 2.504-2.492 2.508-.003 0-.006 0-.008 0-1.377 0-2.496-1.114-2.5-2.492-.004-1.091-.892-1.976-1.981-1.976-.003 0-.005 0-.007 0-.529.002-1.026.209-1.399.585s-.578.874-.576 1.403c.004 1.381-1.111 2.504-2.492 2.508-.004 0-.006 0-.008 0z"/><path d="m148.17 188.874c-8.134 0-14.752-6.618-14.752-14.752s6.618-14.752 14.752-14.752 14.752 6.618 14.752 14.752-6.618 14.752-14.752 14.752zm0-24.504c-5.377 0-9.752 4.375-9.752 9.752s4.375 9.752 9.752 9.752 9.752-4.375 9.752-9.752-4.375-9.752-9.752-9.752z"/><path d="m103.781 178.024c-1.377 0-2.496-1.114-2.5-2.492-.006-1.864.715-3.62 2.029-4.943 1.314-1.322 3.065-2.055 4.931-2.061h.022c3.839 0 6.969 3.117 6.982 6.959.005 1.381-1.11 2.504-2.491 2.509-.003 0-.006 0-.009 0-1.377 0-2.495-1.113-2.5-2.491-.004-1.091-.893-1.977-1.982-1.977-.003 0-.005 0-.007 0-.529.002-1.026.209-1.399.585s-.578.874-.576 1.403c.004 1.381-1.111 2.504-2.492 2.508-.003 0-.005 0-.008 0z"/><path d="m108.264 188.874c-8.134 0-14.752-6.618-14.752-14.752s6.618-14.752 14.752-14.752 14.752 6.618 14.752 14.752-6.619 14.752-14.752 14.752zm0-24.504c-5.377 0-9.752 4.375-9.752 9.752s4.375 9.752 9.752 9.752 9.752-4.375 9.752-9.752-4.375-9.752-9.752-9.752z"/><path d="m128.51 193.796c-6.018 0-11.681-2.422-16.376-7.004-.574-.561-.845-1.363-.727-2.157.118-.795.611-1.483 1.324-1.853 3.26-1.686 5.284-5.004 5.284-8.66 0-5.377-4.375-9.752-9.752-9.752-.953 0-1.902.141-2.823.419-.748.223-1.557.088-2.189-.369-.633-.458-1.015-1.186-1.032-1.966l-.006-.223c-.007-.236-.013-.473-.013-.711 0-17.796 11.803-32.274 26.31-32.274s26.31 14.479 26.31 32.274c0 .334-.009.666-.019.997l-.004.148c-.021.801-.426 1.543-1.087 1.995-.662.451-1.501.559-2.254.291-1.079-.387-2.185-.582-3.286-.582-5.377 0-9.752 4.375-9.752 9.752 0 3.744 2.197 7.202 5.598 8.811.744.352 1.267 1.048 1.398 1.86s-.146 1.639-.741 2.207c-4.653 4.447-10.242 6.797-16.163 6.797zm-10.53-8.579c3.2 2.351 6.791 3.579 10.529 3.579 3.616 0 7.1-1.151 10.223-3.357-3.308-2.768-5.314-6.91-5.314-11.316 0-8.134 6.618-14.752 14.752-14.752.53 0 1.061.029 1.589.088-.826-14.079-10.041-25.212-21.249-25.212-11.193 0-20.399 11.104-21.246 25.158.333-.022.666-.034 1-.034 8.134 0 14.752 6.618 14.752 14.752 0 4.321-1.869 8.332-5.036 11.094z"/><path d="m183.597 255.997c-1.277 0-2.478-.565-3.277-1.603-1.186-1.536-1.213-3.743-.068-5.491 3.809-5.814 7.168-15.058 1.54-26.08-4.279-8.381-3.347-16.91 2.559-23.4 6.273-6.893 16.878-10.036 24.15-7.145 3.95 1.568 6.979 4.91 8.759 9.664 2.992 7.991 2.082 19.39-2.214 27.718-6.543 12.688-16.922 21.713-30.015 26.099-.478.16-.962.238-1.434.238zm18.952-59.787c-4.926 0-10.811 2.524-14.501 6.579-3.178 3.491-6.069 9.406-1.804 17.761 6.584 12.895 2.558 23.815-1.024 29.834 10.997-4.167 19.747-12.091 25.382-23.015 3.639-7.056 4.469-17.012 1.975-23.674-.887-2.367-2.634-5.464-5.922-6.771-1.224-.485-2.622-.714-4.106-.714z"/><path d="m171.722 235.655c-.687 0-1.368-.173-1.992-.527-1.546-.877-2.31-2.639-1.945-4.489 1.891-9.597 6.335-18.226 12.854-24.954.812-.838 2.096-1.004 3.093-.398.997.604 1.443 1.819 1.075 2.926-1.271 3.828-.787 7.979 1.438 12.338.875 1.714 1.601 3.481 2.156 5.253.225.719.114 1.5-.302 2.128-.415.629-1.093 1.035-1.842 1.108-5.131.499-9.114 3.225-11.553 5.423-.873.786-1.933 1.192-2.982 1.192zm7.603-20.385c-2.766 4.182-4.828 8.882-6.095 13.923 2.39-1.824 5.556-3.657 9.395-4.595-.257-.596-.535-1.188-.834-1.774-1.287-2.521-2.111-5.058-2.466-7.554z"/><path d="m209.1 197.858c-.438 0-.876-.114-1.269-.346-.421-.248-.806-.439-1.176-.588-2.569-1.019-6.109-.933-9.714.238-.929.298-1.95.034-2.611-.685-7.717-8.382-16.621-21.373-18.683-27.256-.328-.936-.072-1.977.652-2.653 3.202-2.994 4.579-5.619 4.805-6.84-.427-.839-.353-1.869.237-2.646.714-.94 1.985-1.252 3.055-.751 5.229 2.459 22.631 12.434 27.004 37.579.065.378.122.736.173 1.088.139.951-.281 1.898-1.079 2.435-.421.283-.907.425-1.394.425zm-28.145-28.859c2.385 5.189 9.153 15.241 16.019 22.949 3.112-.799 6.139-.946 8.831-.442-3.987-16.786-14.671-25.398-20.385-28.922-.835 2.021-2.372 4.241-4.465 6.415z"/><path d="m72.403 255.997c-.473 0-.956-.078-1.434-.238-13.093-4.386-23.472-13.411-30.015-26.099-4.296-8.328-5.206-19.727-2.214-27.718 1.78-4.754 4.809-8.096 8.759-9.664 7.267-2.885 17.877.251 24.15 7.145 5.905 6.49 6.838 15.02 2.559 23.4-5.628 11.022-2.269 20.266 1.539 26.079 1.146 1.749 1.118 3.956-.067 5.492-.799 1.038-1.999 1.603-3.277 1.603zm-.805-4.294h.011zm-18.147-55.493c-1.484 0-2.882.229-4.105.715-3.288 1.307-5.035 4.403-5.922 6.771-2.494 6.662-1.664 16.618 1.975 23.674 5.634 10.923 14.382 18.846 25.377 23.013-3.6-6.077-7.585-16.973-1.02-29.832 4.266-8.354 1.374-14.27-1.804-17.761-3.689-4.056-9.575-6.58-14.501-6.58z"/><path d="m84.278 235.655c-1.051 0-2.109-.406-2.982-1.192-2.438-2.199-6.422-4.925-11.553-5.424-.749-.073-1.427-.479-1.842-1.108-.416-.628-.526-1.409-.302-2.128.556-1.771 1.281-3.539 2.156-5.253 2.226-4.359 2.71-8.51 1.438-12.338-.368-1.106.078-2.321 1.075-2.926.998-.605 2.28-.439 3.093.398 6.519 6.729 10.963 15.357 12.854 24.954.364 1.851-.399 3.612-1.945 4.489-.624.355-1.306.528-1.992.528zm-10.903-11.057c3.839.938 7.005 2.771 9.395 4.595-1.267-5.042-3.329-9.741-6.095-13.923-.354 2.496-1.179 5.033-2.466 7.554-.299.585-.577 1.178-.834 1.774z"/><path d="m46.9 197.858c-.487 0-.974-.143-1.395-.425-.798-.536-1.218-1.483-1.079-2.435.051-.352.107-.71.173-1.088 4.373-25.146 21.774-35.12 27.004-37.579 1.069-.501 2.342-.189 3.055.751.59.777.664 1.808.237 2.646.226 1.221 1.603 3.846 4.805 6.84.725.677.98 1.718.652 2.653-2.062 5.883-10.966 18.874-18.683 27.256-.662.719-1.684.982-2.611.685-3.604-1.171-7.144-1.257-9.714-.238-.37.148-.755.34-1.176.588-.392.232-.83.346-1.268.346zm6.555-6.645c1.786 0 3.663.245 5.571.735 6.865-7.708 13.634-17.76 16.019-22.949-2.093-2.174-3.63-4.394-4.465-6.415-5.714 3.523-16.397 12.137-20.385 28.922 1.041-.195 2.133-.293 3.26-.293z"/><path d="m160.075 179.472c-.708 0-1.388-.301-1.865-.835-.544-.61-.756-1.448-.567-2.243.188-.789.279-1.532.279-2.271 0-3.016-1.372-5.816-3.764-7.684-.718-.561-1.074-1.466-.931-2.364.144-.899.764-1.649 1.62-1.958 25.066-9.047 28.3-6.777 29.682-5.807 1.038.729 1.609 1.827 1.609 3.094 0 6.689-11.542 18.334-25.764 20.051-.1.011-.199.017-.299.017zm.091-13.933c1.741 2.419 2.713 5.32 2.755 8.379 10-2.438 16.885-10.094 18.044-13.604-2.182-.105-8.31.911-20.799 5.225z"/><path d="m96.372 179.526c-.086 0-.173-.005-.259-.014-14.238-1.483-26.252-13.407-26.252-20.109 0-1.267.572-2.366 1.611-3.095 1.392-.977 4.646-3.259 29.976 5.914.849.308 1.466 1.049 1.614 1.94s-.195 1.792-.899 2.358c-2.32 1.866-3.651 4.637-3.651 7.601 0 .744.098 1.522.29 2.314.191.789-.013 1.623-.547 2.234-.478.549-1.165.857-1.883.857zm-21.331-19.213c1.208 3.539 8.396 11.389 18.471 13.706.021-3.039.964-5.937 2.67-8.36-12.698-4.41-18.873-5.453-21.141-5.346z"/><path d="m206.709 155.919c-.822 0-1.627-.405-2.104-1.148l-10.04-15.616-18.172-5.345-23.211 9.671c-1.278.529-2.738-.072-3.27-1.346-.531-1.274.071-2.738 1.346-3.27l24.028-10.012c.53-.221 1.118-.252 1.667-.091l19.916 5.857c.577.17 1.073.541 1.397 1.047l10.543 16.4c.747 1.161.411 2.708-.751 3.454-.417.271-.886.399-1.349.399z"/><path d="m206.026 122.718c-.646 0-1.291-.249-1.78-.745l-13.035-13.22-18.882-1.496-18.687 12.832c-1.137.781-2.693.495-3.476-.646-.782-1.138-.493-2.694.646-3.476l19.416-13.334c.473-.324 1.044-.477 1.612-.432l20.693 1.64c.6.048 1.161.309 1.583.737l13.689 13.884c.97.982.958 2.565-.025 3.535-.485.482-1.12.721-1.754.721z"/><path d="m191.838 92.661c-.554 0-1.111-.184-1.574-.56l-12.622-10.255-16.48.514-9.912 8.552c-1.043.903-2.623.787-3.525-.26-.902-1.045-.786-2.624.26-3.525l10.582-9.131c.434-.374.982-.589 1.555-.606l18.297-.569c.623-.023 1.188.181 1.654.559l13.345 10.842c1.072.871 1.234 2.445.364 3.517-.496.607-1.217.922-1.944.922z"/><path d="m50.827 155.919c-.464 0-.932-.128-1.35-.397-1.162-.746-1.498-2.293-.751-3.454l10.543-16.4c.324-.506.82-.877 1.397-1.047l19.916-5.857c.549-.161 1.137-.13 1.667.091l23.41 9.754c1.274.531 1.877 1.994 1.346 3.27-.531 1.273-1.994 1.875-3.27 1.346l-22.593-9.413-18.172 5.345-10.04 15.616c-.476.741-1.281 1.146-2.103 1.146z"/><path d="m51.51 122.718c-.634 0-1.269-.239-1.755-.72-.983-.97-.995-2.553-.025-3.535l13.689-13.884c.422-.429.983-.689 1.583-.737l20.694-1.64c.571-.045 1.14.107 1.612.432l18.877 12.965c1.139.781 1.428 2.338.646 3.476-.781 1.14-2.337 1.427-3.476.646l-18.147-12.463-18.883 1.496-13.035 13.22c-.489.495-1.135.744-1.78.744z"/><path d="m65.699 92.661c-.728 0-1.448-.315-1.942-.924-.87-1.071-.708-2.646.364-3.517l13.344-10.842c.466-.378 1.038-.584 1.654-.559l18.297.569c.572.018 1.121.232 1.555.606l10.093 8.709c1.046.901 1.162 2.48.26 3.525-.901 1.048-2.481 1.163-3.525.26l-9.423-8.13-16.48-.514-12.623 10.258c-.462.376-1.02.559-1.574.559z"/></svg>