<svg enable-background="new 0 0 256 256" height="512" viewBox="0 0 256 256" width="512" xmlns="http://www.w3.org/2000/svg"><path d="m79.674 241.149c0-.001 0-.001 0-.002-.089-.306-.166-.617-.231-.935-.003-.016-.007-.033-.01-.049-.059-.295-.107-.595-.144-.9 0-.001 0-.001 0-.002-.005-.044-.012-.089-.017-.133-.031-.284-.051-.572-.063-.865-.003-.069-.009-.137-.011-.207v-.001c-.008-.341-.005-.686.015-1.039 0-.003 0-.005 0-.008-.006-.012-21.648-40-23.641-78.039-8.669 8.825-17.286 17.316-17.527 32.956-2.685-.464-5.318-.317-7.772.541-10.83 3.787-14.06 19.879-7.216 35.943s21.172 26.016 32.002 22.229c.908-.317 1.76-.724 2.558-1.21 1.198-.729 2.435-1.392 3.758-1.857z" fill="#52565b"/><path d="m225.727 192.463c-2.453-.858-5.087-1.004-7.772-.541-.249-16.126-8.265-24.651-17.49-33.75-1.729 38.275-23.671 78.821-23.678 78.832v.008c.019.353.022.698.015 1.039v.001c-.002.073-.008.143-.011.215v.001c-.011.28-.03.557-.059.829-.006.055-.014.109-.021.163-.036.296-.082.587-.138.873v.001c-.005.025-.01.05-.015.075-.065.318-.142.629-.231.935v.001l18.299 6.421c1.323.464 2.56 1.128 3.758 1.857.798.485 1.651.892 2.558 1.21 10.83 3.787 25.157-6.165 32.002-22.229 6.844-16.061 3.613-32.154-7.217-35.941z" fill="#52565b"/><path d="m232.943 228.407c2.595-6.091 3.739-12.185 3.572-17.612-.937-4.577-3.145-8.056-6.559-9.564-7.998-3.532-19.529 5.033-25.754 19.131-1.112 2.518-1.979 5.042-2.608 7.51 0 0-3.169 13.285 3.683 23.556 10.061.326 21.703-9.026 27.666-23.021z" fill="#e3e4e5"/><path d="m23.053 228.407c-2.595-6.091-3.739-12.185-3.572-17.612.937-4.577 3.145-8.056 6.559-9.564 7.998-3.532 19.529 5.033 25.754 19.131 1.112 2.518 1.979 5.042 2.608 7.51 0 0 3.169 13.285-3.683 23.556-10.06.326-21.702-9.026-27.666-23.021z" fill="#e3e4e5"/><path d="m139.1 231.906c3.053-1.903 4.938-5.212 5.171-8.802.838-12.936 3.016-12.035 6.536-37.551 2.534-18.37-4.66-26.663-11.672-30.406-6.919-3.694-15.349-3.694-22.269 0-7.012 3.744-14.206 12.036-11.672 30.406 3.519 25.516 5.698 24.615 6.536 37.551.233 3.59 2.118 6.899 5.171 8.802 1.808 1.127 3.796 2.65 5.33 4.569 1.891.337 3.814.531 5.77.531s3.879-.194 5.77-.531c1.532-1.919 3.521-3.442 5.329-4.569z" fill="#e3e4e5"/><path d="m197.597 131.46c-4.643-15.358-13.299-17.965-18.143-21.657-1.06 1.077-2.19 2.122-3.407 3.124-2.656 2.188-5.175 4.529-7.47 7.093-8.859 9.895-23.724 16.389-40.578 16.389s-31.719-6.494-40.578-16.389c-2.296-2.564-4.814-4.905-7.47-7.093-1.216-1.002-2.347-2.048-3.407-3.124-4.844 3.693-13.5 6.299-18.143 21.657-13.018 43.06 20.81 105.546 20.81 105.546-1.155 20.785 45.612 20.785 45.612 6.351 0-5.389-4.322-9.206-7.924-11.451-3.053-1.903-4.938-5.212-5.171-8.802-.838-12.936-3.016-12.035-6.536-37.551-2.534-18.37 4.66-26.663 11.672-30.406 3.46-1.847 7.297-2.771 11.134-2.771s7.675.924 11.134 2.771c7.012 3.744 14.206 12.036 11.672 30.406-3.519 25.516-5.698 24.615-6.536 37.551-.233 3.59-2.118 6.899-5.171 8.802-3.602 2.245-7.924 6.062-7.924 11.451 0 14.434 46.767 14.434 45.612-6.351.003 0 33.83-62.486 20.812-105.546z" fill="#52565b"/><path d="m185.406 76.824c-3.104-5.754-5.187-11.976-6.513-18.377-5.223-25.215-26.019-44.058-50.893-44.058s-45.67 18.843-50.893 44.058c-1.326 6.402-3.409 12.624-6.513 18.377-2.12 3.929-3.272 8.143-3.272 12.53 0 8.878 4.715 17.052 12.63 23.573 2.656 2.188 5.175 4.529 7.47 7.093 8.859 9.895 23.724 16.389 40.578 16.389s31.719-6.494 40.578-16.389c2.296-2.564 4.814-4.905 7.47-7.093 7.915-6.521 12.63-14.695 12.63-23.573 0-4.387-1.153-8.601-3.272-12.53z" fill="#e3e4e5"/><path d="m173.412 43.069c4.773-.372 9.384-2.403 12.866-6.12 7.563-8.073 6.946-20.94-1.378-28.739-8.324-7.799-21.204-7.576-28.767.497-3.047 3.253-4.743 7.285-5.166 11.449 9.443 5.023 17.28 13.038 22.445 22.913z" fill="#52565b"/><path d="m82.588 43.069c5.166-9.875 13.002-17.89 22.445-22.913-.423-4.164-2.119-8.197-5.166-11.449-7.563-8.073-20.443-8.296-28.767-.497s-8.941 20.666-1.378 28.739c3.482 3.717 8.093 5.748 12.866 6.12z" fill="#52565b"/><path d="m171.771 40.159c1.623-.671 3.128-1.679 4.399-3.036 4.906-5.237 4.506-13.583-.894-18.641-5.4-5.059-13.754-4.914-18.66.322-.947 1.011-1.691 2.139-2.245 3.336 7.016 4.462 12.98 10.645 17.4 18.019z" fill="#e3e4e5"/><path d="m84.229 40.159c4.42-7.374 10.384-13.557 17.4-18.019-.554-1.197-1.298-2.325-2.245-3.336-4.906-5.237-13.26-5.381-18.66-.322s-5.8 13.405-.894 18.641c1.271 1.357 2.776 2.365 4.399 3.036z" fill="#e3e4e5"/><path d="m172.443 67.342c3.934 11.801-5.234 22.946-15.734 22.946s-20.323-10.997-20.323-22.946 3.267-20.979 13.768-20.979 18.511 9.644 22.289 20.979z" fill="#6e7175"/><path d="m83.557 67.342c-3.934 11.801 5.234 22.946 15.734 22.946s20.323-10.997 20.323-22.946-3.267-20.979-13.768-20.979-18.511 9.644-22.289 20.979z" fill="#6e7175"/><g fill="#52565b"><path d="m119.6 66.531c-2.498-4.683-7.428-7.873-13.106-7.873-8.201 0-14.849 6.648-14.849 14.849s6.648 14.849 14.849 14.849c.168 0 .331-.02.498-.025 7.145-3.679 12.622-12.068 12.622-20.989.001-.275-.01-.539-.014-.811z"/><path d="m136.4 66.531c2.498-4.683 7.428-7.873 13.106-7.873 8.201 0 14.849 6.648 14.849 14.849s-6.648 14.849-14.849 14.849c-.168 0-.331-.02-.498-.025-7.145-3.679-12.622-12.068-12.622-20.989-.001-.275.01-.539.014-.811z"/><path d="m134.224 90.768c0 3.033-3.191 7.323-6.224 7.323s-6.224-4.29-6.224-7.323 3.191-3.267 6.224-3.267 6.224.234 6.224 3.267z"/></g><path d="m207.183 198.516c-.806 0-1.597-.389-2.08-1.109-.769-1.147-.461-2.7.686-3.468 6.25-4.186 11.812-4.501 12.045-4.512 1.357-.071 2.551.997 2.618 2.376.067 1.375-.991 2.544-2.364 2.618-.104.007-4.519.325-9.518 3.673-.426.284-.909.422-1.387.422z"/><path d="m201.596 230.372c-.205 0-.412-.025-.62-.078-1.338-.341-2.146-1.702-1.805-3.04.675-2.65 1.598-5.308 2.743-7.901 3.183-7.208 7.803-13.307 13.009-17.174 5.617-4.173 11.316-5.322 16.042-3.234 4.023 1.777 6.863 5.807 7.999 11.349.277 1.353-.595 2.673-1.948 2.951-1.354.278-2.673-.595-2.951-1.948-.567-2.767-1.915-6.363-5.12-7.778-3.009-1.328-6.93-.38-11.042 2.674-4.523 3.36-8.577 8.75-11.416 15.18-1.033 2.34-1.865 4.735-2.473 7.117-.285 1.13-1.302 1.882-2.418 1.882z"/><path d="m48.818 198.516c-.478 0-.961-.137-1.389-.423-5.033-3.371-9.475-3.67-9.52-3.673-1.373-.082-2.429-1.258-2.354-2.631.074-1.374 1.245-2.421 2.61-2.363.234.011 5.795.326 12.046 4.512 1.147.768 1.455 2.321.686 3.468-.481.72-1.273 1.11-2.079 1.11z"/><path d="m54.404 230.374c-1.116 0-2.132-.752-2.42-1.883-.607-2.381-1.439-4.776-2.473-7.118-2.839-6.429-6.893-11.82-11.416-15.18-4.111-3.054-8.032-4.003-11.042-2.674-3.205 1.415-4.553 5.011-5.12 7.778-.277 1.353-1.598 2.224-2.951 1.948-1.353-.277-2.225-1.598-1.948-2.951 1.135-5.542 3.976-9.572 7.999-11.349 4.728-2.086 10.425-.939 16.042 3.234 5.206 3.867 9.826 9.966 13.009 17.174 1.146 2.595 2.069 5.254 2.744 7.903.341 1.338-.467 2.699-1.805 3.04-.207.053-.414.078-.619.078z"/><path d="m205.875 253.958c-1.968 0-3.899-.312-5.759-.962-1.054-.369-2.075-.851-3.032-1.434-1.291-.785-2.304-1.289-3.287-1.634l-18.299-6.42c-.677-.238-1.22-.755-1.489-1.42-.204-.502-.237-1.051-.103-1.566.006-.025.014-.05.021-.076.07-.239.13-.482.18-.73.058-.289.094-.519.122-.751l2.503.136-2.486-.263c.023-.218.038-.44.047-.666.001-.019.006-.12.008-.139.008-.31.006-.59-.009-.875-.001-.023-.002-.046-.003-.068-.014-.44.088-.879.299-1.27.885-1.641 21.702-40.616 23.379-77.757.044-.986.666-1.854 1.585-2.215s1.964-.146 2.667.548c7.979 7.871 16.968 16.736 18.118 32.778 2.173-.064 4.251.246 6.214.932 4.51 1.577 8.032 4.99 10.188 9.871 3.517 7.964 2.957 18.96-1.497 29.413-6.327 14.851-18.387 24.568-29.367 24.568zm-26.674-14.45 16.252 5.703c1.718.603 3.237 1.476 4.23 2.08.659.4 1.36.732 2.084.985 9.599 3.355 22.549-5.998 28.877-20.849 3.921-9.203 4.491-18.711 1.522-25.433-1.582-3.582-4.093-6.062-7.264-7.17-1.986-.695-4.18-.841-6.521-.437-.72.124-1.459-.072-2.021-.539s-.893-1.156-.904-1.886c-.194-12.567-5.3-20.151-12.879-28.097-3.176 34.387-20.595 68.638-23.271 73.729.001.173 0 .345-.004.516-.001.076-.006.157-.011.237-.015.359-.038.689-.072 1.015-.003.019-.013.105-.018.146z"/><path d="m50.125 253.958c-10.98 0-23.039-9.715-29.368-24.571-4.454-10.453-5.014-21.448-1.497-29.413 2.155-4.88 5.678-8.293 10.188-9.871 1.967-.688 4.057-.996 6.222-.932 1.136-14.678 9.528-23.215 17.658-31.488l.46-.469c.695-.707 1.743-.938 2.669-.586.927.351 1.56 1.217 1.611 2.207 1.935 36.928 22.47 75.363 23.343 76.98.181.335.283.708.299 1.088.003.081.002.162-.002.244-.016.288-.018.569-.011.847 0 .01.008.131.008.142.01.258.026.489.051.715 0 .001.014.111.014.111.029.24.066.476.113.708.004.019.017.087.021.106.039.184.099.428.169.668.009.032.019.065.026.097.313 1.253-.379 2.538-1.598 2.965l-18.299 6.42c-.982.345-1.996.849-3.287 1.634-.958.583-1.978 1.065-3.032 1.434-1.858.652-3.791.964-5.758.964zm-15.023-59.794c-1.408 0-2.748.22-4.004.66-3.17 1.108-5.682 3.588-7.264 7.17-2.968 6.722-2.399 16.23 1.522 25.433 6.328 14.852 19.28 24.205 28.877 20.849.724-.253 1.425-.585 2.084-.985.993-.604 2.512-1.478 4.23-2.08l16.252-5.703c-.005-.044-.013-.103-.013-.107-.038-.341-.062-.688-.076-1.039l-.012-.255c-.004-.17-.005-.342-.004-.516-2.575-4.935-19.814-39.017-23.193-72.914-6.921 7.275-12.767 14.905-12.958 27.285-.011.73-.341 1.42-.904 1.886s-1.299.663-2.021.539c-.859-.149-1.699-.223-2.516-.223z"/><path d="m151.413 255.992c-6.363 0-12.419-1.261-16.479-3.506-5.172-2.86-6.258-6.543-6.258-9.129 0-5.168 3.147-9.861 9.102-13.573 2.319-1.446 3.814-4.004 3.999-6.843.418-6.468 1.174-9.641 2.219-14.032 1.069-4.492 2.534-10.645 4.334-23.699 1.903-13.795-1.587-23.168-10.373-27.859-6.067-3.24-13.847-3.24-19.914 0-8.786 4.69-12.276 14.064-10.373 27.859 1.801 13.055 3.265 19.207 4.334 23.699 1.045 4.391 1.801 7.563 2.219 14.032.184 2.839 1.679 5.397 3.999 6.843 5.954 3.711 9.102 8.405 9.102 13.573 0 2.586-1.086 6.269-6.258 9.129-8.544 4.724-25.928 5.094-36.405-1.484-5.289-3.32-8.032-7.946-7.97-13.415-1.625-3.107-9.072-17.762-15.144-36.434-9.225-28.37-11.088-52.062-5.539-70.417 4.052-13.401 11.052-17.803 16.163-21.017 1.053-.662 2.048-1.288 2.857-1.905 1.001-.764 2.415-.662 3.297.234 1.038 1.054 2.12 2.046 3.215 2.948 2.97 2.447 5.502 4.853 7.744 7.356 8.721 9.741 23.194 15.557 38.715 15.557s29.994-5.815 38.715-15.557c2.241-2.503 4.774-4.909 7.743-7.356 1.096-.902 2.177-1.894 3.215-2.948.883-.896 2.296-.998 3.297-.234.81.617 1.804 1.243 2.857 1.905 5.111 3.214 12.111 7.616 16.163 21.017 5.549 18.356 3.686 42.048-5.539 70.417-6.071 18.672-13.519 33.326-15.144 36.434.062 5.469-2.681 10.095-7.97 13.415-5.496 3.452-12.897 4.99-19.923 4.99zm-23.413-106.117c4.299 0 8.556 1.06 12.312 3.065 7.442 3.974 15.734 12.917 12.971 32.954-1.833 13.294-3.331 19.582-4.424 24.173-1.025 4.307-1.702 7.151-2.094 13.197-.288 4.443-2.659 8.466-6.343 10.763-3.078 1.918-6.747 5.094-6.747 9.33 0 1.805 1.237 3.404 3.678 4.753 7.029 3.886 22.57 4.154 31.327-1.343 3.941-2.474 5.829-5.711 5.612-9.623-.026-.462.077-.922.297-1.329.333-.616 33.178-62.079 20.615-103.633-3.51-11.611-9.348-15.282-14.038-18.231-.495-.312-.978-.615-1.447-.92-.684.636-1.38 1.247-2.082 1.825-2.772 2.284-5.126 4.519-7.197 6.832-9.655 10.784-25.52 17.222-42.44 17.222s-32.786-6.438-42.44-17.222c-2.071-2.313-4.425-4.548-7.197-6.832-.702-.578-1.397-1.188-2.082-1.825-.469.305-.952.609-1.447.92-4.69 2.949-10.528 6.62-14.038 18.231-12.563 41.555 20.282 103.018 20.615 103.634.22.407.323.867.297 1.329-.217 3.911 1.671 7.149 5.612 9.623 8.757 5.498 24.296 5.229 31.327 1.343 2.44-1.35 3.678-2.949 3.678-4.753 0-4.235-3.669-7.411-6.747-9.33-3.684-2.296-6.055-6.32-6.343-10.763-.392-6.046-1.069-8.891-2.094-13.197-1.093-4.591-2.59-10.879-4.424-24.173-2.764-20.037 5.528-28.979 12.971-32.954 3.756-2.005 8.013-3.066 12.312-3.066z"/><path d="m128 239.506c-1.999 0-4.087-.191-6.208-.569-.598-.106-1.136-.427-1.515-.901-1.14-1.426-2.721-2.775-4.699-4.008-3.684-2.296-6.055-6.32-6.342-10.763-.392-6.045-1.069-8.89-2.094-13.196-1.093-4.591-2.59-10.879-4.424-24.174-2.764-20.037 5.528-28.979 12.971-32.954 7.709-4.116 16.914-4.116 24.624 0 7.442 3.974 15.734 12.916 12.971 32.953-1.834 13.295-3.331 19.583-4.424 24.174-1.025 4.306-1.703 7.151-2.094 13.196-.288 4.443-2.659 8.466-6.342 10.763-1.979 1.233-3.56 2.582-4.699 4.008-.379.474-.917.794-1.515.901-2.123.378-4.211.57-6.21.57zm5.77-3.031h.01zm-10.226-2.316c3.07.467 5.841.467 8.911 0 1.41-1.581 3.196-3.049 5.321-4.375 2.32-1.446 3.814-4.004 3.999-6.843.419-6.468 1.174-9.64 2.219-14.031 1.069-4.492 2.534-10.645 4.335-23.7 1.903-13.795-1.587-23.168-10.373-27.859-6.142-3.279-13.772-3.279-19.914 0-8.786 4.691-12.276 14.064-10.373 27.859 1.801 13.056 3.266 19.208 4.335 23.7 1.045 4.391 1.8 7.563 2.219 14.031.184 2.839 1.679 5.396 3.999 6.843 2.127 1.325 3.912 2.794 5.322 4.375z"/><path d="m128 138.91c-16.92 0-32.786-6.438-42.44-17.222-2.069-2.312-4.423-4.546-7.197-6.832-8.858-7.298-13.54-16.117-13.54-25.502 0-4.709 1.202-9.325 3.572-13.717 2.8-5.189 4.908-11.144 6.265-17.698 5.527-26.683 27.96-46.05 53.341-46.05s47.813 19.367 53.341 46.05c1.357 6.555 3.465 12.509 6.265 17.698 2.37 4.392 3.572 9.007 3.572 13.717 0 9.386-4.682 18.204-13.54 25.502-2.774 2.285-5.128 4.52-7.197 6.832-9.656 10.784-25.522 17.222-42.442 17.222zm0-122.021c-23.022 0-43.396 17.69-48.444 42.064-1.457 7.03-3.731 13.441-6.761 19.058-1.972 3.655-2.972 7.471-2.972 11.343 0 7.842 4.053 15.327 11.72 21.643 2.971 2.448 5.503 4.854 7.743 7.356 8.721 9.741 23.194 15.557 38.715 15.557s29.994-5.815 38.715-15.557c2.24-2.502 4.772-4.908 7.743-7.356 7.667-6.316 11.72-13.801 11.72-21.643 0-3.872-1-7.688-2.972-11.343-3.03-5.616-5.305-12.028-6.761-19.058-5.05-24.373-25.424-42.064-48.446-42.064z"/><path d="m173.412 45.569c-.925 0-1.781-.513-2.215-1.341-4.968-9.498-12.37-17.059-21.404-21.865-.897-.477-1.416-1.449-1.313-2.459.498-4.904 2.513-9.367 5.829-12.906 8.494-9.066 22.984-9.34 32.301-.611 4.503 4.218 7.144 9.89 7.435 15.971.293 6.11-1.817 11.899-5.942 16.301-3.763 4.016-8.911 6.468-14.496 6.904-.066.004-.131.006-.195.006zm-19.723-26.763c8.743 5.023 15.991 12.432 21.111 21.577 3.72-.628 7.104-2.42 9.654-5.143 3.191-3.407 4.824-7.896 4.596-12.643-.229-4.775-2.31-9.237-5.859-12.562-7.305-6.843-18.625-6.673-25.234.381-2.195 2.344-3.653 5.219-4.268 8.39z"/><path d="m82.588 45.569c-.064 0-.129-.002-.195-.007-5.585-.436-10.733-2.888-14.496-6.904-4.125-4.402-6.235-10.191-5.942-16.301.292-6.081 2.932-11.752 7.435-15.971 9.317-8.729 23.808-8.454 32.301.611 3.316 3.539 5.332 8.002 5.829 12.906.103 1.011-.417 1.982-1.313 2.459-9.034 4.806-16.436 12.367-21.404 21.865-.433.83-1.29 1.342-2.215 1.342zm2.827-40.557c-4.482 0-9.025 1.669-12.606 5.023-3.549 3.325-5.63 7.787-5.859 12.562-.228 4.747 1.405 9.236 4.596 12.643 2.55 2.723 5.934 4.515 9.654 5.143 5.12-9.145 12.368-16.553 21.111-21.577-.614-3.171-2.072-6.046-4.268-8.389-3.37-3.598-7.966-5.405-12.628-5.405z"/><path d="m119.685 116.322c-2.356 0-4.68-.788-6.611-2.324-1.081-.859-1.26-2.432-.4-3.513s2.432-1.26 3.513-.4c1.741 1.384 3.988 1.629 6.011.653 2.068-.998 3.303-2.956 3.303-5.239v-7.003c0-1.381 1.119-2.5 2.5-2.5s2.5 1.119 2.5 2.5v7.003c0 4.185-2.349 7.918-6.13 9.742-1.504.725-3.102 1.081-4.686 1.081z"/><path d="m136.315 116.322c-1.584 0-3.182-.356-4.685-1.081-3.781-1.824-6.13-5.557-6.13-9.742v-7.003c0-1.381 1.119-2.5 2.5-2.5s2.5 1.119 2.5 2.5v7.003c0 2.283 1.235 4.241 3.303 5.239 2.023.977 4.271.731 6.011-.653 1.081-.858 2.654-.68 3.513.4.859 1.081.68 2.653-.4 3.513-1.932 1.536-4.257 2.324-6.612 2.324z"/><path d="m100.978 76.704c-1.377 0-2.496-1.114-2.5-2.492-.014-4.377 3.536-7.95 7.913-7.964h.025c4.367 0 7.925 3.544 7.939 7.913.004 1.381-1.111 2.503-2.492 2.508-.003 0-.005 0-.008 0-1.377 0-2.496-1.114-2.5-2.492-.002-.785-.311-1.521-.867-2.075-.555-.551-1.29-.854-2.071-.854-.003 0-.006 0-.009 0-1.62.005-2.934 1.328-2.929 2.948.004 1.381-1.112 2.503-2.492 2.508-.004 0-.007 0-.009 0z"/><path d="m144.146 76.704c-1.377 0-2.496-1.114-2.5-2.492-.014-4.377 3.535-7.95 7.912-7.964h.025c4.366 0 7.925 3.544 7.939 7.913.004 1.381-1.111 2.504-2.492 2.508-.003 0-.006 0-.008 0-1.377 0-2.496-1.114-2.5-2.492-.005-1.617-1.323-2.929-2.939-2.929-.003 0-.006 0-.009 0-.785.002-1.521.311-2.074.867-.553.557-.856 1.296-.854 2.081.004 1.381-1.111 2.504-2.492 2.508-.003 0-.006 0-.008 0z"/><path d="m171.772 42.66c-.856 0-1.682-.441-2.145-1.215-4.209-7.021-9.949-12.967-16.597-17.194-1.057-.672-1.454-2.023-.928-3.16.682-1.473 1.586-2.817 2.689-3.995 2.84-3.031 6.721-4.74 10.927-4.813 4.167-.074 8.179 1.482 11.268 4.375 6.396 5.993 6.849 15.94 1.009 22.174-1.479 1.579-3.252 2.802-5.268 3.637-.311.129-.635.191-.955.191zm-14.05-21.287c5.818 4.08 10.92 9.372 14.932 15.488.615-.417 1.181-.9 1.693-1.447 3.955-4.222 3.606-10.999-.779-15.107-2.135-2-4.886-3.065-7.762-3.024-2.842.049-5.458 1.197-7.364 3.231-.257.273-.497.56-.72.859z"/><path d="m84.228 42.66c-.32 0-.644-.062-.955-.19-2.016-.834-3.789-2.058-5.268-3.636-5.84-6.234-5.388-16.182 1.009-22.175 3.089-2.894 7.111-4.443 11.268-4.375 4.207.073 8.087 1.782 10.926 4.812 1.104 1.179 2.008 2.523 2.69 3.996.526 1.137.129 2.487-.928 3.16-6.648 4.227-12.388 10.173-16.597 17.194-.464.772-1.29 1.214-2.145 1.214zm5.777-25.38c-2.803 0-5.485 1.071-7.572 3.026-4.385 4.108-4.734 10.885-.779 15.108.512.547 1.078 1.03 1.693 1.447 4.011-6.116 9.113-11.408 14.932-15.488-.224-.3-.464-.587-.72-.86-1.906-2.034-4.521-3.182-7.363-3.23-.065-.002-.128-.003-.191-.003z"/><path d="m156.709 92.788c-11.945 0-22.824-12.128-22.824-25.446 0-10.711 2.822-23.479 16.268-23.479 12.607 0 21.006 11.72 24.662 22.688 2.067 6.201 1.071 12.782-2.731 18.058-3.691 5.122-9.438 8.179-15.375 8.179zm-6.556-43.925c-4.837 0-11.268 1.916-11.268 18.479 0 10.51 8.662 20.446 17.824 20.446 4.333 0 8.565-2.281 11.319-6.102 2.851-3.957 3.596-8.896 2.044-13.554-3.106-9.315-9.969-19.269-19.919-19.269z"/><path d="m99.291 92.788c-5.937 0-11.684-3.057-15.375-8.178-3.802-5.276-4.798-11.857-2.731-18.058 3.656-10.968 12.055-22.688 24.662-22.688 13.445 0 16.268 12.768 16.268 23.479 0 13.317-10.879 25.445-22.824 25.445zm-13.363-24.655c-1.552 4.657-.807 9.597 2.044 13.554 2.754 3.82 6.985 6.102 11.319 6.102 9.162 0 17.824-9.936 17.824-20.446 0-16.563-6.431-18.479-11.268-18.479-9.95-.001-16.813 9.953-19.919 19.269z"/><path d="m106.494 90.856c-9.566 0-17.35-7.783-17.35-17.349s7.783-17.35 17.35-17.35c6.419 0 12.286 3.524 15.312 9.196.188.353.289.746.294 1.146l.006.302c.004.179.009.357.009.541 0 9.429-5.748 18.974-13.978 23.212-.33.17-.693.264-1.064.276l-.119.007c-.153.011-.305.019-.46.019zm0-29.698c-6.81 0-12.35 5.54-12.35 12.35 0 6.752 5.447 12.256 12.178 12.348 6.379-3.533 10.792-11.063 10.792-18.513 0-.044 0-.089-.001-.133-2.223-3.748-6.241-6.052-10.619-6.052z"/><path d="m149.506 90.856c-.155 0-.308-.008-.46-.019l-.119-.007c-.371-.012-.734-.106-1.064-.276-8.23-4.238-13.978-13.783-13.978-23.212 0-.183.004-.362.009-.541l.006-.301c.005-.4.106-.792.294-1.146 3.025-5.672 8.893-9.196 15.312-9.196 9.566 0 17.349 7.783 17.349 17.35s-7.782 17.348-17.349 17.348zm-10.62-23.647c0 .044-.001.089-.001.133 0 7.45 4.414 14.98 10.792 18.513 6.729-.09 12.178-5.595 12.178-12.348 0-6.81-5.54-12.35-12.349-12.35-4.378.001-8.396 2.305-10.62 6.052z"/><path d="m128 100.591c-4.494 0-8.725-5.534-8.725-9.823 0-5.767 6.338-5.767 8.725-5.767s8.725 0 8.725 5.767c0 4.29-4.231 9.823-8.725 9.823zm0-10.59c-2.919 0-3.562.355-3.703.509.001.003-.022.091-.022.258 0 1.848 2.297 4.823 3.725 4.823s3.725-2.975 3.725-4.823c0-.167-.023-.255-.033-.275-.13-.136-.773-.492-3.692-.492z"/></svg>