<svg enable-background="new 0 0 256 256" height="512" viewBox="0 0 256 256" width="512" xmlns="http://www.w3.org/2000/svg"><path d="m15.601 34.798s-3.277-7.021 7.021-8.894 10.298-7.489 13.106-7.489c2.809 0 3.745 7.489 14.043 8.426 0 0-5.149 7.021-16.851 5.617-11.307-1.358-17.319 2.34-17.319 2.34z" fill="#7ed5fc"/><path d="m32.921 32.457c-5.059-.607-9.049-.201-11.923.432.086.026 9.784 2.937 14.732 5.186.051.023.103.047.155.069 5.989 2.623 12.797-1.489 13.519-7.988l.368-3.315c0-.001-5.149 7.021-16.851 5.616z" fill="#7ed5fc"/><path d="m192.115 189.308c-1.459-3.646-3.833-8.323-6.405-13.023-1.405-.189-2.797-.471-4.16-.859-.651-.185-1.329.252-1.368.928-.035.607-.002 1.219.097 1.819.121.728-.461 1.392-1.189 1.269-3.765-.632-7.441-1.792-10.888-3.436-.564-.269-1.222-.002-1.451.579-.228.576-.4 1.17-.547 1.771 7.486 10.06 16.966 16.934 16.966 16.934-2.458 5.285-5.115 24.953-6.152 31.177-.731 4.387-3.067 11.589-4.12 14.722-.286.849-1.198 1.307-2.056 1.049-8.716-2.621-11.237-.652-15.258 3.342-1.188 1.18-2.214 3.508-1.628 5.448.546 1.809 2.078 2.814 4.295 2.113 2.781-.879 6.736-1.812 9.477-1.127 3.338.835 6.676.47 8.29.198.622-.104 1.258-.018 1.829.25 1.299.609 4.007 1.536 7.299.714 2.304-.576 4.037-.295 5.198.135.84.31 1.727-.44 1.547-1.317-1.19-5.786-6.744-5.786-6.744-5.786-4.645-4.645 9.29-46.449 9.29-46.449 3.484-8.128-2.322-10.451-2.322-10.451z" fill="#828487"/><path d="m153.979 248.481c.003-.012.007-.023.01-.035.057-.213.121-.422.199-.627.012-.033.027-.064.039-.097.073-.183.148-.363.234-.536.031-.062.065-.119.097-.179.076-.142.151-.283.234-.415.061-.097.126-.185.191-.276.063-.089.122-.183.188-.266.134-.171.273-.329.415-.47.325-.323.638-.627.948-.922.075-.071.151-.143.225-.212.643-.603 1.269-1.14 1.908-1.6.053-.038.108-.076.161-.113.322-.224.648-.433.984-.615.001 0 .001-.001.002-.001-1.564-9.524 10.09-44.491 10.09-44.491 3.484-8.128-2.322-10.451-2.322-10.451-.868-2.169-2.064-4.707-3.429-7.394-1.835-1.839-3.601-3.871-5.284-6.037-.622-.133-1.241-.279-1.852-.453-.651-.185-1.329.252-1.368.928-.035.607-.002 1.219.097 1.819.121.728-.461 1.392-1.189 1.269-3.765-.632-7.442-1.792-10.888-3.436-.564-.269-1.222-.002-1.451.579-.227.576-.4 1.17-.547 1.771 7.486 10.06 16.966 16.934 16.966 16.934-2.458 5.285-5.115 24.953-6.152 31.177-.731 4.387-3.067 11.589-4.12 14.722-.286.849-1.198 1.307-2.056 1.049-8.716-2.622-11.237-.652-15.258 3.342-1.188 1.18-2.214 3.508-1.628 5.448.546 1.809 2.078 2.814 4.295 2.113 2.781-.879 6.736-1.812 9.477-1.126 3.338.834 6.676.47 8.29.198.622-.104 1.258-.018 1.829.25.162.077.347.157.552.24-.118-.687-.065-1.399.113-2.087z" fill="#828487"/><g fill="#c16a44"><path d="m240.379 168.816c-18.313-15.336-21.082-40.807-28.141-61.987-7.467-22.401-21.334-27.734-21.334-27.734l6.4-1.067c-21.334-21.334-51.201-17.067-51.201-17.067l3.2-3.2c-33.068 2.133-44.801 25.601-59.735 29.868-8.437 2.41-13.467-2.668-16.249-7.544-.252.458-.883.671-1.367.267l-2.14-1.783c-.446-.371-1.118-.241-1.383.276-1.214 2.362-3.978 8.583-2.753 14.23.153.706-.578 1.285-1.242 1-1.745-.751-4.402-2.196-5.952-4.503-.388-.577-1.266-.492-1.555.141-1.061 2.32-2.677 6.988-1.624 12.27.156.783-.742 1.357-1.4.904-1.46-1.005-3.42-2.615-4.727-4.717-.393-.632-1.344-.517-1.604.18-.642 1.721-1.411 4.635-1.242 8.437.025.565-.425.958-.906.96 2.09 7.388 7.332 16.447 20.145 22.018l-1.069-5.335s8.534 7.467 32.001 12.8l-2.133-6.4s19.201 7.467 34.134 17.067 40.535 7.467 40.535 7.467l-5.333-4.267s14.934 0 25.601 6.4v-5.333s8.534 11.734 22.401 18.134v-5.333s13.867 7.467 27.734 6.4c1.345-.001 1.972-1.685.939-2.549z"/><path d="m186.396 168.21c-.242-3.112.198-6.236.199-9.357 0-.959-.056-1.917-.14-2.872-10.288-4.88-22.752-4.883-22.752-4.883l5.333 4.267s-9.821.816-20.844-.842c3.596 9.837 9.42 18.725 16.015 25.318.598.597 1.645.296 1.786-.537.157-.929.412-1.842.758-2.718.23-.581.888-.847 1.451-.579 3.446 1.643 7.123 2.803 10.888 3.436.728.122 1.31-.541 1.189-1.269-.1-.6-.133-1.212-.097-1.819.039-.676.717-1.113 1.368-.928 1.961.558 3.98.913 6.014 1.056.866.061 1.454-.927.96-1.641-1.315-1.899-1.946-4.297-2.128-6.632z"/><path d="m148.193 154.522c-6.775-1.018-14.004-2.969-19.691-6.625-2.115-1.359-4.316-2.675-6.536-3.933 3.248 11.978 9.947 25.986 17.707 33.743.598.597 1.645.296 1.786-.537.157-.929.412-1.842.758-2.718.23-.581.888-.847 1.451-.579 3.446 1.643 7.123 2.803 10.888 3.436.728.122 1.31-.541 1.189-1.269-.1-.6-.133-1.212-.097-1.819.039-.676.717-1.113 1.368-.928.613.174 1.232.321 1.855.456-4.346-5.591-8.093-12.155-10.678-19.227z"/></g><path d="m79.729 22.16c-1.872-12.171-11.234-15.915-11.234-15.915l1.872-1.872c-13.106-4.682-20.595.936-20.595.936v-2.809c-10.152 3.904-13.137 13.015-13.848 15.931 2.662.338 3.793 7.495 13.848 8.409l-.368 3.315c-.22 1.979-1.009 3.732-2.163 5.145 25.109 8.204-4.569 36.44-8.235 56.603-1.491 8.201 3.212 13.424 5.841 15.635.609.513 1.516.04 1.481-.755-.169-3.802.601-6.715 1.242-8.437.26-.697 1.211-.813 1.604-.18 1.307 2.102 3.267 3.713 4.727 4.717.658.453 1.556-.12 1.4-.904-1.053-5.281.563-9.95 1.624-12.27.289-.632 1.167-.717 1.555-.141 1.55 2.307 4.207 3.752 5.952 4.503.664.285 1.396-.294 1.242-1-1.225-5.648 1.539-11.868 2.753-14.23.265-.516.938-.647 1.383-.276l2.14 1.783c.689.574 1.691-.087 1.446-.95-1.805-6.356-1.969-16.723 1.183-27.753 3.745-13.107 2.34-29.489 2.34-29.489h2.81z" fill="#828487"/><path d="m52.154 20.89c-1.377 0-2.496-1.114-2.5-2.492-.013-4.181 3.377-7.593 7.557-7.605h.027c2.014 0 3.91.781 5.341 2.203 1.437 1.428 2.231 3.328 2.237 5.354.004 1.381-1.111 2.504-2.492 2.508-.002 0-.005 0-.008 0-1.377 0-2.496-1.114-2.5-2.492-.002-.689-.272-1.337-.762-1.822-.487-.484-1.132-.75-1.818-.75-.003 0-.006 0-.009 0-1.424.005-2.578 1.166-2.574 2.59.004 1.381-1.111 2.504-2.492 2.508-.002-.002-.005-.002-.007-.002z"/><path d="m15.604 37.291c-.246 0-.492-.036-.731-.109-.674-.208-1.238-.687-1.537-1.326-.172-.37-1.636-3.714.126-7.122 1.403-2.713 4.334-4.493 8.713-5.289 5.704-1.036 7.667-3.273 9.1-4.906 1.079-1.229 2.302-2.623 4.454-2.623 2.175 0 3.456 1.57 4.695 3.089 1.758 2.154 3.945 4.835 9.574 5.348.897.081 1.682.64 2.052 1.462.371.821.27 1.779-.263 2.506-.246.336-6.165 8.179-19.165 6.62-10.169-1.225-15.673 1.965-15.728 1.998-.392.232-.84.352-1.29.352zm20.068-16.161c-.199.206-.441.481-.639.706-1.7 1.938-4.546 5.18-11.963 6.528-2.711.492-4.492 1.403-5.15 2.634-.027.052-.053.104-.076.155 3.147-1.015 8.333-2.024 15.375-1.179 5.058.609 8.68-.526 11.042-1.822-4.101-1.562-6.263-4.214-7.71-5.987-.274-.334-.613-.75-.879-1.035z"/><path d="m39.692 41.449c-1.629 0-3.261-.337-4.811-1.016l-.184-.082c-4.553-2.069-13.407-4.763-14.402-5.063-1.089-.328-1.83-1.354-1.786-2.492.044-1.137.839-2.104 1.95-2.349 3.906-.859 8.201-1.018 12.758-.473 9.988 1.204 14.369-4.391 14.551-4.63.682-.895 1.881-1.234 2.925-.815 1.043.418 1.687 1.471 1.562 2.588l-.369 3.315c-.434 3.899-2.726 7.402-6.133 9.369-1.894 1.095-3.974 1.648-6.061 1.648zm-4.473-6.315c.549.226 1.067.447 1.545.665l.116.052c2.07.905 4.391.769 6.375-.379 1.097-.633 1.988-1.505 2.622-2.537-2.62 1.295-6.147 2.311-10.658 2.199z"/><path d="m45.425 110.251c-.784 0-1.561-.271-2.186-.797-2.6-2.187-8.454-8.316-6.693-17.997 1.28-7.039 5.447-14.806 9.477-22.316 5.173-9.642 10.522-19.61 8.115-25.615-1.037-2.587-3.547-4.5-7.673-5.849-.784-.256-1.391-.882-1.623-1.673s-.059-1.646.462-2.284c.9-1.103 1.458-2.431 1.615-3.84l.103-.923c-5.949-1.249-8.728-4.654-10.471-6.789-.377-.462-.882-1.08-1.145-1.291-.624-.132-1.176-.498-1.54-1.027-.404-.587-.539-1.318-.37-2.01.742-3.044 4.044-13.314 15.379-17.673.77-.298 1.634-.193 2.313.272.364.25.65.588.836.976 3.803-1.393 10.372-2.543 19.185.603.807.288 1.41.97 1.598 1.807.144.638.03 1.299-.302 1.846 3.327 2.316 8.323 7.188 9.696 16.109.111.721-.098 1.454-.573 2.008s-1.168.872-1.897.872h-.153c.237 5.3.357 17.354-2.592 27.677-3.208 11.227-2.713 20.989-1.182 26.384.412 1.449-.158 2.975-1.419 3.795-1.258.815-2.878.718-4.033-.242l-.552-.461c-1.097 2.586-2.507 6.926-1.682 10.73.269 1.239-.174 2.513-1.157 3.322-.991.817-2.338 1.011-3.515.505-1.544-.664-3.49-1.707-5.154-3.233-.677 2.193-1.176 5.157-.538 8.354.271 1.355-.304 2.724-1.463 3.487-1.167.766-2.661.754-3.807-.036-.986-.679-2.207-1.629-3.359-2.825-.235 1.283-.376 2.812-.299 4.555.061 1.36-.686 2.628-1.903 3.229-.476.235-.988.35-1.498.35zm5.489-76.197c3.924 1.813 6.563 4.365 7.865 7.611 3.275 8.172-2.372 18.696-8.35 29.84-3.847 7.169-7.824 14.583-8.963 20.847-.851 4.679.67 8.219 2.485 10.636.251-2.329.787-4.197 1.277-5.513.459-1.23 1.556-2.074 2.862-2.205 1.292-.121 2.523.477 3.209 1.579.339.545.737 1.054 1.163 1.521.021-4.207 1.288-7.723 2.191-9.698.511-1.118 1.592-1.876 2.82-1.977 1.227-.107 2.403.469 3.083 1.482.598.889 1.451 1.629 2.319 2.219-.083-5.366 2.197-10.491 3.33-12.695.476-.924 1.33-1.57 2.345-1.776.533-.109 1.073-.088 1.581.052-.932-6.27-.761-15.188 2.046-25.014 3.577-12.521 2.267-28.431 2.253-28.59-.06-.698.175-1.389.649-1.904.406-.442.956-.722 1.546-.792-2.46-8.378-8.986-11.082-9.059-11.111-.78-.312-1.352-.995-1.521-1.818-.072-.353-.066-.709.01-1.049-9.361-2.191-14.56 1.449-14.802 1.624-.761.548-1.775.634-2.611.205-.501-.257-.895-.666-1.129-1.155-5.249 3.166-7.632 8.006-8.641 10.905.561.518 1.059 1.128 1.55 1.729 1.758 2.153 3.946 4.833 9.576 5.346.669.061 1.285.388 1.71.908s.623 1.189.548 1.857l-.369 3.314c-.138 1.258-.469 2.477-.973 3.622zm-3.862 65.434s.001.003.002.004c-.001-.001-.002-.002-.002-.004z"/><path d="m236.653 173.97c-9.125 0-17.741-3.048-22.448-5.066v1.395c0 .853-.435 1.646-1.153 2.105s-1.621.521-2.395.164c-8.581-3.96-15.152-9.809-19.113-13.959-.218.439-.565.813-1.008 1.064-.783.442-1.745.433-2.518-.032-5.298-3.179-11.8-4.686-16.748-5.399.283.562.349 1.225.158 1.852-.299.979-1.164 1.678-2.184 1.763-1.08.091-26.624 2.09-42.094-7.855-9.977-6.413-22.033-11.919-28.68-14.767l.402 1.207c.286.856.087 1.8-.519 2.469s-1.526.959-2.407.759c-14.037-3.19-22.896-7.149-27.88-9.928.007.756-.329 1.484-.93 1.969-.723.585-1.711.719-2.567.348-14.012-6.093-19.455-16.214-21.554-23.631-.212-.752-.062-1.561.409-2.185.112-.149.24-.284.379-.402-.016-3.68.747-6.549 1.423-8.364.459-1.23 1.556-2.074 2.862-2.205 1.292-.121 2.523.477 3.209 1.579.339.545.737 1.054 1.163 1.521.021-4.207 1.288-7.723 2.191-9.698.511-1.118 1.592-1.876 2.82-1.977 1.227-.107 2.403.469 3.083 1.482.598.889 1.451 1.629 2.319 2.219-.083-5.366 2.197-10.491 3.33-12.695.476-.924 1.33-1.57 2.345-1.776 1.018-.211 2.061.056 2.861.722l1.236 1.03c.21-.059.429-.09.653-.092h.02c.897 0 1.726.48 2.171 1.261 3.369 5.904 7.749 7.995 13.391 6.379 4.893-1.397 9.654-5.264 15.167-9.74 10.316-8.377 23.154-18.803 45.094-20.219 1.041-.061 2.01.517 2.439 1.465.198.437.261.909.2 1.363 10.124-.143 30.955 1.83 47.292 18.167.663.662.899 1.639.613 2.53-.271.847-.97 1.481-1.83 1.676 5.037 3.949 12.102 11.614 16.754 25.571 1.644 4.932 3.08 10.171 4.467 15.237 4.623 16.869 9.403 34.314 22.907 45.624 1.282 1.073 1.742 2.784 1.17 4.358-.562 1.547-1.966 2.559-3.599 2.604-.969.073-1.939.106-2.901.107zm2.122-3.236h.01zm-27.07-8.269c.407 0 .813.099 1.183.297.124.066 11.717 6.206 23.792 6.206h.095c-13.17-12.25-17.92-29.584-22.52-46.371-1.434-5.232-2.788-10.174-4.388-14.978-7.013-21.037-19.732-26.142-19.86-26.191-1.052-.404-1.704-1.464-1.59-2.585.114-1.122.964-2.028 2.076-2.214l1.318-.22c-19.78-16.335-45.087-13.012-45.358-12.973-1.064.154-2.107-.398-2.586-1.36-.187-.375-.273-.781-.262-1.182-16.893 2.627-27.616 11.334-36.404 18.471-5.939 4.823-11.069 8.988-16.945 10.668-7.238 2.06-13.575-.409-18.033-6.981-.678-.061-1.331-.328-1.872-.78l-.55-.458c-1.097 2.586-2.507 6.926-1.682 10.73.269 1.239-.174 2.513-1.157 3.322-.991.817-2.338 1.011-3.515.505-1.544-.664-3.49-1.707-5.154-3.233-.677 2.193-1.176 5.157-.538 8.354.271 1.355-.304 2.724-1.463 3.487-1.167.768-2.661.754-3.807-.036-.986-.679-2.207-1.629-3.359-2.825-.235 1.283-.376 2.812-.299 4.555.032.706-.147 1.384-.51 1.964 2.382 7.037 7.008 12.594 13.792 16.578l-.059-.295c-.21-1.051.272-2.117 1.199-2.654.928-.537 2.092-.423 2.899.282.069.06 7.422 6.229 26.554 11.188l-.705-2.115c-.307-.919-.054-1.933.648-2.601.702-.669 1.725-.871 2.63-.52.793.309 19.606 7.669 34.58 17.295 9.526 6.123 23.927 7.207 32.298 7.264l-.011-.009c-.829-.663-1.149-1.777-.797-2.779.351-1.002 1.297-1.673 2.359-1.673.568 0 12.61.062 23.101 4.786v-1.22c0-1.083.697-2.043 1.727-2.378 1.03-.333 2.158.032 2.795.907.073.101 6.873 9.3 17.878 15.515v-1.244c0-.879.463-1.693 1.217-2.145.394-.236.838-.354 1.283-.354z"/><path d="m164.959 182.654c-.931 0-1.838-.365-2.519-1.047-7.121-7.118-13.015-16.433-16.596-26.227-.303-.829-.146-1.756.412-2.439.558-.685 1.437-1.023 2.308-.892 5.078.764 9.917.987 13.59 1.011l-.013-.011c-.829-.663-1.149-1.778-.797-2.78.352-1.001 1.297-1.672 2.359-1.672.532 0 13.149.062 23.823 5.124.802.38 1.342 1.157 1.419 2.041.102 1.171.149 2.153.149 3.092 0 1.292-.071 2.572-.14 3.81-.103 1.865-.201 3.627-.066 5.353.118 1.521.508 3.692 1.691 5.4.777 1.121.836 2.562.155 3.758-.688 1.209-1.975 1.891-3.348 1.801-1.543-.109-3.081-.331-4.591-.66.013.974-.365 1.922-1.059 2.615-.801.8-1.943 1.168-3.062.976-3.459-.58-6.835-1.576-10.054-2.966-.063.258-.117.519-.162.78-.221 1.302-1.142 2.359-2.405 2.763-.36.114-.729.17-1.094.17zm12.854-4.073v.002zm-10.071-5.179c.526 0 1.052.116 1.536.347 2.682 1.278 5.497 2.242 8.393 2.873.002-.138.008-.275.016-.413.062-1.069.6-2.04 1.477-2.663.894-.635 2.012-.827 3.072-.524.935.267 1.888.482 2.851.646-.632-1.572-1.034-3.351-1.183-5.264v-.001c-.16-2.057-.048-4.069.06-6.016.068-1.224.132-2.38.132-3.534 0-.385-.009-.782-.03-1.207-4.348-1.849-9.02-2.854-12.792-3.399.28.562.345 1.221.154 1.847-.298.979-1.164 1.677-2.184 1.762-.36.029-7.844.628-17.149-.323 3.013 6.877 7.206 13.353 12.12 18.702.067-.19.138-.381.212-.568.363-.921 1.098-1.657 2.015-2.018.417-.165.858-.247 1.3-.247zm18.728 2.863h.01z"/><path d="m182.52 256.001c-2.542 0-4.573-.731-5.733-1.275-.112-.054-.231-.069-.353-.048-1.866.314-5.558.702-9.311-.239-1.665-.412-4.621-.02-8.117 1.086-2.145.678-3.729.222-4.682-.281-1.309-.69-2.29-1.932-2.761-3.494-.91-3.011.534-6.228 2.26-7.942 4.351-4.323 7.711-6.792 16.964-4.188 1.08-3.255 3.115-9.657 3.766-13.562.187-1.124.428-2.688.71-4.529 1.543-10.043 3.183-20.154 4.907-25.385-3.051-2.414-10.066-8.357-15.971-16.293-.445-.597-.6-1.362-.423-2.086.198-.808.404-1.474.651-2.098.363-.92 1.098-1.656 2.015-2.017.913-.359 1.947-.323 2.835.101 2.682 1.278 5.497 2.242 8.393 2.873.002-.138.008-.275.016-.413.062-1.069.6-2.04 1.477-2.663.894-.635 2.012-.827 3.072-.524 1.214.346 2.496.61 3.808.786.788.105 1.479.58 1.861 1.277 2.755 5.036 4.834 9.222 6.19 12.461.988.631 2.421 1.841 3.273 3.897 1.083 2.615.885 5.711-.59 9.201-7.443 22.354-10.826 39.121-10.004 43.235 2.766.554 6.528 2.555 7.568 7.609.265 1.292-.196 2.632-1.204 3.498-1.012.87-2.412 1.127-3.656.669-.728-.269-1.962-.496-3.728-.056-1.142.285-2.228.4-3.233.4zm6.923-3.505h.01zm-12.902-2.828c.817 0 1.623.18 2.372.531 1.016.477 3.101 1.185 5.629.55 1.364-.34 2.706-.464 3.975-.362-1.282-1.653-3.26-1.679-3.369-1.679-.663 0-1.299-.264-1.768-.732-2.035-2.035-3.17-6.76 2.254-27.37 2.89-10.982 6.397-21.532 6.433-21.638.022-.065.046-.13.074-.193 2.296-5.358-.428-6.907-.998-7.163-.635-.254-1.094-.739-1.348-1.374-1.176-2.939-3.087-6.861-5.688-11.67-.441-.076-.878-.162-1.311-.255.014.975-.364 1.925-1.059 2.618-.802.799-1.946 1.167-3.062.976-2.822-.474-5.587-1.224-8.258-2.237 6.702 8.092 14.141 13.538 14.224 13.598.967.703 1.302 1.993.798 3.078-1.861 4.001-4.054 18.273-5.232 25.941-.287 1.865-.531 3.452-.721 4.592-.739 4.434-2.959 11.368-4.216 15.107-.719 2.135-2.979 3.295-5.145 2.647-7.704-2.32-9.293-.74-12.776 2.721-.686.682-1.257 2.088-.997 2.951.079.261.197.458.309.518.109.059.396.076.839-.065 4.544-1.437 8.19-1.831 10.837-1.169 2.873.719 5.788.409 7.27.158.31-.053.622-.079.934-.079zm1.272-71.087v.002z"/><path d="m140.425 180.521c-.932 0-1.838-.365-2.519-1.047-9.013-9.01-15.52-24.408-18.353-34.856-.264-.974.083-2.011.88-2.63.797-.617 1.888-.696 2.766-.199 2.383 1.352 4.623 2.699 6.654 4.005 4.642 2.984 10.937 5.089 18.71 6.256.905.137 1.663.755 1.977 1.614 2.391 6.539 5.953 12.954 10.303 18.55.646.83.703 1.976.143 2.865-.561.891-1.62 1.335-2.645 1.112-.027-.006-.054-.012-.081-.018.015.977-.362 1.928-1.058 2.622-.8.8-1.943 1.169-3.06.979-3.465-.583-6.841-1.579-10.057-2.967-.063.258-.117.519-.162.78-.22 1.301-1.142 2.359-2.405 2.762-.359.116-.728.172-1.093.172zm2.783-9.251c.526 0 1.053.116 1.536.347 2.679 1.277 5.494 2.24 8.392 2.873.002-.139.008-.276.016-.414.053-.919.458-1.765 1.127-2.38-3.199-4.674-5.892-9.752-7.913-14.933-7.821-1.316-14.28-3.589-19.216-6.763-.277-.178-.558-.356-.842-.535 3.037 8.599 7.786 18.152 13.386 24.597.063-.178.129-.354.199-.529.364-.922 1.099-1.656 2.016-2.018.416-.163.858-.245 1.299-.245z"/><path d="m132.369 253.732c-1.104 0-1.97-.302-2.578-.622-1.309-.691-2.289-1.932-2.761-3.493-.909-3.013.534-6.23 2.26-7.944 4.35-4.322 7.71-6.789 16.964-4.188 1.08-3.254 3.114-9.656 3.765-13.562.187-1.123.427-2.687.71-4.525 1.543-10.045 3.183-20.157 4.908-25.389-3.051-2.414-10.065-8.357-15.971-16.294-.444-.597-.599-1.361-.423-2.085.196-.806.403-1.472.65-2.097.365-.923 1.1-1.657 2.016-2.019.913-.358 1.947-.322 2.835.102 2.679 1.277 5.494 2.24 8.393 2.873.002-.139.008-.276.016-.414.061-1.066.598-2.037 1.473-2.66.894-.636 2.013-.829 3.072-.528.559.159 1.125.292 1.692.414.576.122 1.09.445 1.451.91 1.67 2.147 3.379 4.101 5.08 5.804.186.187.34.4.459.635 1.307 2.573 2.374 4.843 3.179 6.763.988.631 2.421 1.841 3.273 3.896 1.084 2.616.885 5.712-.59 9.203-3.208 9.643-11.16 35.914-9.963 43.199.173 1.051-.341 2.097-1.276 2.604-.257.14-.504.3-.75.471l-.133.093c-.496.357-1.023.801-1.653 1.391l-.208.196c-.299.284-.6.577-.912.888-.075.074-.144.155-.211.241l-.178.257c-.1.15-.143.234-.188.318-.007.014-.06.109-.067.123-.061.12-.107.233-.153.35-.005.013-.036.087-.041.1-.03.083-.07.212-.105.344l-1.76-.438-.002.007 1.756.456c-.097.374-.121.73-.069 1.031.154.893-.187 1.799-.891 2.369s-1.661.717-2.503.377c-.257-.103-.489-.204-.693-.301-.1-.047-.222-.063-.347-.043-1.858.313-5.547.702-9.307-.237-1.662-.417-4.622-.021-8.118 1.084-.774.244-1.476.34-2.101.34zm7.377-12.327c-3.092 0-4.581 1.479-6.933 3.814-.686.682-1.257 2.088-.997 2.952.079.26.196.457.308.517.111.059.396.076.84-.065 4.545-1.437 8.19-1.826 10.837-1.168 2.985.747 6.077.359 7.268.158.191-.032.383-.054.575-.066.061-.207.128-.409.203-.608.011-.03.044-.112.057-.142.098-.247.203-.493.321-.729.031-.064.071-.139.113-.212.125-.232.227-.419.338-.596.066-.106.14-.211.214-.315l.087-.125c.073-.106.147-.212.224-.31.205-.261.413-.496.625-.707.334-.332.661-.648.982-.956l.243-.229c.782-.732 1.463-1.303 2.139-1.79-.396-11.397 9.191-40.541 10.341-43.992.022-.066.046-.131.074-.194 2.296-5.359-.428-6.908-.998-7.164-.635-.254-1.094-.738-1.348-1.374-.747-1.866-1.81-4.166-3.161-6.842-1.308-1.329-2.614-2.786-3.902-4.353-.134.708-.476 1.369-.995 1.887-.8.8-1.943 1.169-3.06.979-2.826-.476-5.591-1.226-8.26-2.238 6.701 8.091 14.14 13.538 14.223 13.598.967.703 1.302 1.993.798 3.078-1.861 4.001-4.055 18.276-5.233 25.945-.287 1.864-.53 3.449-.72 4.588-.739 4.434-2.959 11.368-4.216 15.107-.719 2.136-2.981 3.295-5.145 2.646-2.499-.752-4.356-1.094-5.842-1.094z"/></svg>