<svg enable-background="new 0 0 256 256" height="512" viewBox="0 0 256 256" width="512" xmlns="http://www.w3.org/2000/svg"><path d="m156.646 16.228c2.518-2.2 4.705-3.95 4.705-3.95-12.167-8.517-19.467-4.867-19.467-4.867l2.433-3.65c-17.034-4.867-25.551 4.867-25.551 4.867l1.217-4.867c-6.845 1.141-12.085 5.491-15.721 9.915-19.577 9-33.177 28.769-33.177 51.727 0 31.434 25.482 50.14 56.916 50.14s56.916-18.707 56.916-50.14c-.001-20.986-11.367-39.306-28.271-49.175z" fill="#828487"/><path d="m173.449 68.659c-5.672 5.501-15.07 9.934-26.13 6.493-12.464-3.878-12.699-12.357-11.776-16.972.35-1.751 1.992-2.922 3.761-2.677 5.419.748 17.927 1.751 30.752-2.316.016-.005.032-.01.048-.015 2.313-.716 3.372-3.319 2.096-5.377-3.898-6.281-10.308-10.92-17.955-12.257-8.964-1.568-17.273 1.33-23.136 6.818-1.762 1.649-4.454 1.649-6.216 0-5.863-5.488-14.172-8.385-23.136-6.818-7.647 1.337-14.058 5.976-17.955 12.257-1.277 2.057-.217 4.661 2.096 5.377l.048.015c12.824 4.067 25.331 3.064 30.75 2.316 1.78-.246 3.418.941 3.768 2.704.917 4.62.66 13.075-11.781 16.945-11.068 3.443-20.471-.999-26.142-6.505-.989-.96-2.643-.179-2.493 1.191 2.65 24.142 23.098 42.927 47.946 42.927 24.829 0 45.288-18.762 47.947-42.915.151-1.368-1.503-2.151-2.492-1.191z" fill="#e3e4e5"/><path d="m143.248 90.462-6.258-9.672c-.529-.859-1.433-1.418-2.438-1.507l-6.552-.578-6.552.578c-1.005.089-1.909.647-2.438 1.507l-6.257 9.672c-1.075 1.661-.976 3.815.226 5.386 2.567 3.355 6.041 5.595 9.002 7.027 3.798 1.837 8.242 1.837 12.04 0 2.961-1.432 6.435-3.672 9.002-7.027 1.201-1.571 1.299-3.725.225-5.386z" fill="#52565b"/><path d="m216 164.286h4c-8-13.781-35.989-3.703-35.989-3.703-.13-2.213-.366-4.436-.68-6.647 7.314-5.566 10.972-11.381 10.972-11.381l5 2.12 1-10.601 6 4.24s1.5-9.01-4.5-21.731h5c-5.787-11.326-17.446-20.234-28.177-26.632-9.445 16.365-28.562 25.593-50.626 25.593s-41.181-9.227-50.626-25.593c-10.731 6.399-22.39 15.306-28.177 26.632h5c-6 12.721-4.5 21.731-4.5 21.731l6-4.24 1 10.601 5-2.12s3.658 5.815 10.972 11.381c-.314 2.211-.549 4.434-.68 6.647 0 0-27.989-10.078-35.989 3.703h4s-8 6.36-4 24.381l4-2.12s-4 20.141 13 38.162 25 16.961 32 9.541c1.75-1.855 2.875-3.909 3.578-5.946 0 0 15.422 5.946 39.422 5.946s39.422-5.946 39.422-5.946c.703 2.037 1.828 4.091 3.578 5.946 7 7.42 15 8.48 32-9.541s13-38.162 13-38.162l4 2.12c4-18.021-4-24.381-4-24.381z" fill="#828487"/><path d="m154.71 157.258c-2.754-4.98-1.417-11.367 3.067-14.643.958-.7 1.958-1.434 2.971-2.18-2.725-11.461-8.457-21.017-15.911-26.828-5.323 1.265-10.97 1.937-16.836 1.937s-11.513-.671-16.836-1.937c-7.454 5.812-13.186 15.367-15.911 26.828 1.012.746 2.012 1.48 2.971 2.18 4.484 3.276 5.821 9.663 3.067 14.643-1.621 2.931-4.379 4.839-7.412 5.33 2.46 23.148 16.797 40.912 34.12 40.912s31.66-17.764 34.123-40.913c-3.034-.49-5.792-2.398-7.413-5.329z" fill="#a8aeb2"/><g fill="#e3e4e5"><path d="m171 234.249c-1.393-1.476-2.384-3.078-3.088-4.698-3.089 5.156-8.571 12.378-17.907 19.731-1.449 1.142-.842 3.582.953 3.792 9.557 1.116 30.231 1.309 37.623-16.171-7.854 4.383-12.939 2.267-17.581-2.654z"/><path d="m85 234.249c1.393-1.476 2.384-3.078 3.088-4.698 3.089 5.156 8.571 12.378 17.907 19.731 1.449 1.142.842 3.582-.953 3.792-9.557 1.116-30.231 1.309-37.623-16.171 7.854 4.383 12.939 2.267 17.581-2.654z"/><path d="m122.276 152.679c-9.609-1.14-16.445-3.862-20.796-6.21 1.663 3.284 1.701 7.368-.19 10.789-2.032 3.674-5.851 5.75-9.761 5.425 11.908 6.604 25.457-1.994 31.576-6.797 1.23-.965.692-3.027-.829-3.207z"/><path d="m133.724 152.679c9.609-1.14 16.445-3.862 20.796-6.21-1.663 3.284-1.701 7.368.19 10.789 2.032 3.674 5.851 5.75 9.761 5.425-11.908 6.604-25.457-1.994-31.576-6.797-1.23-.965-.692-3.027.829-3.207z"/></g><path d="m175.498 192.757c-.425 0-.855-.108-1.249-.336-1.195-.691-1.604-2.221-.913-3.416 5.929-10.252 8.681-19.765 8.18-28.274-.082-1.379.97-2.562 2.349-2.644 1.367-.087 2.562.97 2.643 2.349.561 9.505-2.415 19.959-8.843 31.073-.464.801-1.304 1.248-2.167 1.248z"/><path d="m167.422 230.804c-1.037 0-2.006-.65-2.363-1.686-2.338-6.774-.542-13.296-.464-13.57.376-1.329 1.756-2.104 3.086-1.725 1.329.376 2.101 1.758 1.725 3.086-.013.045-1.434 5.325.379 10.578.45 1.305-.243 2.729-1.548 3.179-.27.093-.545.138-.815.138z"/><path d="m158.041 255.988c-2.87 0-5.412-.202-7.373-.431-1.799-.211-3.287-1.5-3.791-3.283-.521-1.844.1-3.789 1.581-4.956 9.227-7.268 14.505-14.372 17.309-19.052.481-.804 1.377-1.26 2.307-1.21.935.062 1.757.64 2.131 1.499.646 1.486 1.525 2.824 2.613 3.978 3.931 4.167 7.734 5.989 14.544 2.187.933-.517 2.093-.39 2.887.322.795.713 1.049 1.852.634 2.835-6.437 15.223-21.983 18.111-32.842 18.111zm-5.802-5.288c17.096 1.76 25.986-3.546 30.59-9.092-6.398.938-10.724-2.546-13.647-5.644-.493-.522-.954-1.071-1.382-1.646-3.216 4.616-8.174 10.451-15.561 16.382z"/><path d="m149.491 254.645c-1.118 0-2.137-.756-2.422-1.891-.337-1.338.475-2.697 1.813-3.034 4.729-1.192 16.628-4.888 24.948-13.44.964-.989 2.546-1.011 3.535-.049.99.963 1.012 2.546.049 3.535-8.88 9.129-20.923 13.192-27.311 14.802-.205.051-.41.077-.612.077z"/><path d="m80.502 192.757c-.8 0-1.586-.383-2.07-1.095-6.396-9.414-9.571-20.504-8.939-31.227.081-1.378 1.287-2.436 2.643-2.349 1.378.082 2.43 1.265 2.349 2.644-.766 12.989 4.736 23.194 8.083 28.121.776 1.143.479 2.697-.663 3.473-.43.293-.919.433-1.403.433z"/><path d="m88.578 230.804c-.271 0-.545-.045-.815-.138-1.305-.45-1.998-1.874-1.548-3.179 1.833-5.309.395-10.526.379-10.578-.376-1.328.396-2.71 1.725-3.086 1.327-.378 2.709.396 3.086 1.725.077.274 1.874 6.796-.464 13.57-.357 1.035-1.326 1.686-2.363 1.686z"/><path d="m97.959 255.988c-10.86 0-26.404-2.888-32.843-18.111-.416-.983-.161-2.122.634-2.835.794-.713 1.955-.842 2.887-.322 6.81 3.8 10.613 1.98 14.544-2.187 1.088-1.153 1.967-2.491 2.613-3.978.374-.859 1.196-1.438 2.131-1.499.93-.051 1.825.406 2.307 1.21 2.804 4.68 8.082 11.784 17.309 19.052 1.481 1.167 2.102 3.112 1.582 4.956-.504 1.784-1.992 3.072-3.791 3.283-1.96.229-4.504.431-7.373.431zm-24.787-14.38c4.604 5.546 13.503 10.854 30.588 9.092-7.386-5.932-12.345-11.767-15.561-16.381-.428.574-.889 1.123-1.382 1.646-2.922 3.098-7.253 6.583-13.645 5.643z"/><path d="m106.509 254.645c-.202 0-.408-.025-.613-.077-6.388-1.609-18.43-5.672-27.311-14.802-.963-.989-.941-2.572.049-3.535.989-.963 2.572-.94 3.535.049 8.321 8.554 20.219 12.248 24.948 13.44 1.339.337 2.151 1.696 1.813 3.034-.284 1.135-1.303 1.891-2.421 1.891z"/><path d="m127.994 115.267c-25.924 0-47.605-19.412-50.431-45.155-.185-1.677.676-3.24 2.191-3.98 1.527-.746 3.306-.463 4.527.723 3.113 3.022 11.648 9.646 23.658 5.912 10.014-3.116 11.004-9.372 10.071-14.072-.093-.47-.514-.779-.974-.714-6.308.87-18.833 1.718-31.848-2.409-1.911-.592-3.376-1.964-4.052-3.772-.659-1.766-.462-3.704.541-5.32 4.408-7.104 11.569-11.988 19.648-13.401 9.271-1.621 18.482 1.097 25.275 7.455.798.746 2.001.746 2.799 0 6.793-6.358 16.007-9.076 25.274-7.455 8.079 1.413 15.241 6.297 19.649 13.401 1.002 1.615 1.2 3.554.541 5.319-.675 1.81-2.141 3.182-4.02 3.764-13.048 4.139-25.574 3.29-31.882 2.419-.461-.064-.876.233-.968.692-.941 4.707.041 10.974 10.067 14.094 12.001 3.731 20.535-2.884 23.647-5.902 1.223-1.186 3.001-1.468 4.528-.72 1.515.741 2.374 2.305 2.189 3.981-2.832 25.733-24.513 45.14-50.43 45.14zm-45.075-42.944c3.732 21.817 22.641 37.943 45.075 37.943 22.43 0 41.339-16.121 45.075-37.934-7.566 6.12-17.275 8.076-26.493 5.206-14.831-4.614-14.371-15.418-13.485-19.849.609-3.039 3.488-5.089 6.555-4.664 4.743.655 17.125 1.752 29.654-2.222.453-.141.75-.409.88-.757.082-.218.129-.557-.105-.934-3.658-5.895-9.585-9.945-16.262-11.112-7.707-1.346-15.361.905-20.997 6.18-2.701 2.527-6.932 2.527-9.632 0-5.636-5.275-13.29-7.532-20.997-6.18-6.677 1.167-12.604 5.218-16.261 11.112-.234.377-.187.716-.105.934.13.348.428.616.817.737 12.591 3.991 24.974 2.897 29.715 2.241 3.084-.424 5.957 1.64 6.562 4.694.878 4.423 1.321 15.21-13.49 19.818-9.22 2.874-18.938.915-26.506-5.213z"/><path d="m149.017 69.18c-1.377 0-2.496-1.114-2.5-2.492-.005-1.684.645-3.269 1.832-4.463 1.187-1.195 2.768-1.855 4.452-1.861h.021c3.467 0 6.293 2.814 6.304 6.284.004 1.381-1.111 2.503-2.492 2.508-.003 0-.006 0-.008 0-1.377 0-2.496-1.114-2.5-2.492-.002-.718-.587-1.3-1.305-1.3-.001 0-.002 0-.004 0-.349.001-.676.138-.922.385s-.38.575-.379.924c.004 1.381-1.111 2.503-2.492 2.508-.002-.001-.004-.001-.007-.001z"/><path d="m100.655 69.18c-1.377 0-2.496-1.114-2.5-2.492-.005-1.684.645-3.269 1.832-4.463 1.187-1.195 2.768-1.855 4.452-1.861h.021c3.467 0 6.293 2.814 6.304 6.284.004 1.381-1.111 2.503-2.492 2.508-.003 0-.006 0-.008 0-1.377 0-2.496-1.114-2.5-2.492-.002-.718-.587-1.3-1.305-1.3-.001 0-.002 0-.004 0-.349.001-.676.138-.922.385s-.38.575-.379.924c.004 1.381-1.111 2.503-2.492 2.508-.001-.001-.004-.001-.007-.001z"/><path d="m132.518 91.16c-1.381 0-2.5-1.119-2.5-2.5v-.934c0-1.381 1.119-2.5 2.5-2.5s2.5 1.119 2.5 2.5v.934c0 1.381-1.119 2.5-2.5 2.5z"/><path d="m123.179 91.16c-1.381 0-2.5-1.119-2.5-2.5v-.934c0-1.381 1.119-2.5 2.5-2.5s2.5 1.119 2.5 2.5v.934c0 1.381-1.119 2.5-2.5 2.5z"/><path d="m128 118.043c-34.983 0-59.416-21.646-59.416-52.641 0-22.939 13.372-43.977 34.115-53.757 4.86-5.744 10.684-9.319 16.872-10.351.831-.143 1.676.15 2.248.77.234.254.409.549.521.864 4.625-2.448 12.181-4.568 22.664-1.571.768.219 1.384.792 1.66 1.541.15.408.189.842.122 1.259 3.814.097 9.289 1.375 16 6.072.645.451 1.04 1.181 1.065 1.968s-.322 1.54-.937 2.032c-.013.011-.842.675-2.05 1.685 16.463 10.962 26.553 29.615 26.553 49.488-.001 30.994-24.434 52.641-59.417 52.641zm-11.483-110.727c-4.556 1.818-8.038 5.164-10.324 7.946-.24.293-.543.526-.887.685-19.27 8.859-31.722 28.271-31.722 49.455 0 14.236 5.455 26.318 15.773 34.939 9.802 8.19 23.526 12.701 38.643 12.701s28.84-4.511 38.643-12.701c10.319-8.621 15.773-20.703 15.773-34.939 0-19.267-10.357-37.281-27.031-47.016-.695-.406-1.152-1.121-1.229-1.923-.076-.801.238-1.59.844-2.119.752-.657 1.472-1.272 2.115-1.814-8.929-5.181-14.06-2.91-14.114-2.883-1.015.505-2.242.269-2.992-.582-.75-.85-.835-2.098-.206-3.041l.436-.653c-12.91-2.333-19.314 4.595-19.602 4.915-.768.854-2.024 1.082-3.039.543s-1.537-1.693-1.258-2.808z"/><path d="m180.745 241.792c-.001 0 0 0 0 0-5.437 0-9.203-3.326-11.563-5.827-1.275-1.352-2.333-2.872-3.16-4.54-5.21 1.657-18.896 5.324-38.022 5.324s-32.812-3.667-38.022-5.324c-.827 1.668-1.884 3.188-3.16 4.54-2.36 2.501-6.126 5.827-11.563 5.827-6.533.001-14.183-4.883-24.074-15.367-12.771-13.539-14.297-28.122-14.094-35.507-.672.325-1.456.333-2.136.019-.708-.327-1.224-.966-1.393-1.728-2.513-11.321-.535-18.5 1.611-22.565-.556-.195-1.034-.585-1.337-1.111-.446-.774-.444-1.729.004-2.502 7.328-12.624 28.003-8.079 35.911-5.783.073-.732.157-1.475.252-2.225-4.562-3.666-7.615-7.302-9.182-9.38l-3.146 1.334c-.734.311-1.572.252-2.257-.154-.685-.409-1.133-1.119-1.208-1.913l-.595-6.302-2.474 1.749c-.704.497-1.612.595-2.406.266-.794-.332-1.362-1.048-1.503-1.897-.061-.362-1.294-8.256 3.166-19.642h-1.2c-.87 0-1.678-.452-2.132-1.195-.455-.742-.49-1.667-.094-2.442 5.011-9.807 14.81-19.106 29.123-27.643.574-.342 1.261-.442 1.911-.271.647.168 1.2.59 1.535 1.169 8.797 15.243 26.914 24.343 48.461 24.343s39.664-9.1 48.461-24.343c.334-.579.887-1.001 1.535-1.169.647-.17 1.336-.07 1.911.271 14.313 8.536 24.112 17.836 29.123 27.643.396.775.361 1.7-.094 2.442-.454.743-1.262 1.195-2.132 1.195h-1.2c4.46 11.386 3.226 19.279 3.166 19.642-.141.85-.709 1.565-1.503 1.897-.793.33-1.702.231-2.406-.266l-2.474-1.749-.595 6.302c-.075.794-.523 1.504-1.208 1.913-.685.406-1.524.465-2.257.154l-3.146-1.334c-1.567 2.078-4.621 5.714-9.182 9.38.095.75.179 1.492.252 2.226 7.906-2.297 28.583-6.842 35.911 5.782.449.773.451 1.728.004 2.502-.303.526-.781.916-1.337 1.111 2.146 4.065 4.124 11.244 1.611 22.565-.169.762-.684 1.4-1.393 1.728-.68.315-1.464.308-2.136-.019.203 7.385-1.322 21.968-14.094 35.507-9.887 10.483-17.537 15.367-24.07 15.367zm-13.323-15.989c.36 0 .72.078 1.054.233.615.286 1.087.81 1.309 1.451.662 1.916 1.682 3.614 3.033 5.046 2.778 2.945 5.223 4.259 7.926 4.259 4.992.001 11.677-4.513 20.437-13.799 15.851-16.804 12.515-35.19 12.365-35.966-.183-.944.192-1.914.966-2.486.774-.573 1.806-.653 2.658-.203l1.001.53c2.065-13.548-3.5-18.433-3.755-18.648-.802-.677-1.11-1.795-.75-2.781.19-.52.536-.95.975-1.242-7.91-5.217-23.566-1.501-29.783.739-.744.266-1.566.167-2.224-.266-.658-.435-1.073-1.153-1.119-1.939-.121-2.043-.342-4.211-.659-6.443-.127-.896.24-1.792.961-2.341 6.824-5.193 10.338-10.672 10.373-10.727.654-1.033 1.961-1.445 3.09-.967l1.856.787.679-7.2c.083-.889.634-1.665 1.445-2.037.81-.372 1.758-.285 2.487.229l2.148 1.519c-.239-3.607-1.199-9.216-4.352-15.901-.365-.774-.309-1.682.15-2.405.458-.723 1.255-1.161 2.111-1.161h.651c-4.72-7.186-12.432-14.129-23.002-20.703-10.106 15.493-29.125 24.663-51.453 24.663s-41.346-9.17-51.453-24.663c-10.57 6.574-18.282 13.518-23.002 20.703h.651c.856 0 1.653.438 2.111 1.161.458.724.515 1.631.15 2.405-3.179 6.74-4.138 12.327-4.37 15.914l2.166-1.531c.729-.515 1.677-.602 2.487-.229.811.372 1.361 1.148 1.445 2.037l.679 7.2 1.856-.787c1.129-.477 2.439-.067 3.092.971.032.051 3.546 5.529 10.37 10.723.721.549 1.088 1.444.961 2.341-.317 2.232-.539 4.4-.659 6.443-.046.786-.461 1.504-1.119 1.938-.657.434-1.481.533-2.223.267-6.216-2.23-21.865-5.936-29.774-.742.451.295.805.734.991 1.268.351 1.004.028 2.119-.805 2.781-.23.195-5.793 5.078-3.728 18.626l1.001-.53c.853-.453 1.888-.373 2.664.203.774.576 1.147 1.547.959 2.493-.148.769-3.485 19.155 12.366 35.959 8.76 9.286 15.445 13.8 20.437 13.799 2.703 0 5.148-1.313 7.926-4.259 1.351-1.432 2.372-3.13 3.033-5.046.222-.642.694-1.165 1.309-1.451s1.321-.31 1.954-.066c.148.058 15.334 5.779 38.522 5.779 23.266 0 38.373-5.721 38.522-5.779.293-.114.598-.169.903-.169z"/><path d="m128 206c-18.553 0-33.949-18.146-36.609-43.147-.141-1.32.776-2.521 2.087-2.732 2.354-.381 4.403-1.864 5.624-4.072 2.142-3.872 1.108-8.886-2.353-11.414-.961-.702-1.964-1.438-2.979-2.187-.807-.596-1.181-1.615-.949-2.591 2.846-11.969 8.814-21.991 16.807-28.222.599-.467 1.377-.634 2.115-.461 5.215 1.24 10.685 1.869 16.258 1.869s11.042-.629 16.258-1.869c.736-.174 1.517-.006 2.115.461 7.992 6.23 13.961 16.253 16.807 28.222.232.976-.142 1.995-.949 2.591-1.015.748-2.018 1.484-2.979 2.187-3.461 2.528-4.495 7.542-2.354 11.414 1.221 2.208 3.27 3.691 5.624 4.072 1.311.212 2.228 1.412 2.087 2.732-2.661 25.001-18.057 43.147-36.61 43.147zm-31.375-41.562c2.963 20.99 16.19 36.562 31.375 36.562s28.412-15.572 31.375-36.562c-2.868-1.061-5.294-3.152-6.853-5.971-3.338-6.035-1.678-13.885 3.779-17.871.525-.385 1.064-.779 1.61-1.18-2.589-9.694-7.401-17.809-13.704-23.103-10.455 2.295-21.962 2.295-32.417 0-6.303 5.294-11.115 13.408-13.704 23.103.546.401 1.085.796 1.611 1.18 5.457 3.986 7.117 11.836 3.779 17.871-1.557 2.819-3.983 4.911-6.851 5.971z"/><path d="m92.299 165.213c-1.019 0-2.048-.129-3.065-.395-19.513-5.106-29.249-20.289-29.654-20.933-.735-1.169-.383-2.712.785-3.447 1.17-.734 2.712-.383 3.447.785.087.138 9.147 14.168 26.687 18.757 3.357.88 6.815-.702 8.602-3.933 2.142-3.872 1.108-8.886-2.353-11.414-9.667-7.063-15.343-11.466-16.87-13.084-.948-1.004-.902-2.586.102-3.534s2.586-.902 3.534.103c.598.633 3.37 3.115 16.184 12.479 5.457 3.986 7.117 11.836 3.779 17.871-2.337 4.227-6.666 6.744-11.178 6.745z"/><path d="m163.702 165.213c-4.513 0-8.841-2.517-11.179-6.745-3.337-6.035-1.677-13.885 3.78-17.871 12.815-9.364 15.586-11.846 16.183-12.479.948-1.005 2.53-1.051 3.534-.103 1.004.947 1.05 2.53.103 3.534-1.526 1.617-7.202 6.02-16.87 13.084-3.461 2.528-4.495 7.542-2.354 11.414 1.787 3.231 5.247 4.812 8.603 3.933 17.619-4.61 26.598-18.616 26.687-18.757.735-1.168 2.277-1.52 3.447-.785 1.168.735 1.521 2.278.785 3.447-.405.644-10.141 15.826-29.653 20.933-1.018.266-2.047.395-3.066.395z"/><path d="m100.875 167.563c-3.503 0-7.084-.768-10.558-2.693-1.03-.571-1.522-1.785-1.18-2.912s1.422-1.866 2.599-1.766c2.949.235 5.839-1.383 7.366-4.145 1.425-2.577 1.482-5.814.148-8.45-.494-.975-.297-2.157.486-2.92.784-.762 1.972-.926 2.932-.409 3.866 2.086 10.457 4.807 19.904 5.928 1.687.2 3.079 1.408 3.548 3.079.479 1.704-.099 3.501-1.47 4.577-4.338 3.405-13.734 9.711-23.775 9.711zm-.869-5.027c7.932.379 15.831-4.38 20.222-7.604-6.182-.884-11.184-2.405-15.018-3.96.131 2.574-.448 5.172-1.733 7.495-.893 1.616-2.083 2.99-3.471 4.069zm21.973-7.375h.002c-.001 0-.001 0-.002 0z"/><path d="m108.062 159.626c-2.231 0-4.539-.167-6.859-.569-1.36-.235-2.272-1.529-2.037-2.89.235-1.36 1.526-2.275 2.89-2.036 8.395 1.452 16.75-.609 20.983-1.969 1.313-.422 2.723.301 3.145 1.615s-.301 2.723-1.616 3.145c-3.523 1.132-9.651 2.704-16.506 2.704z"/><path d="m155.125 167.563c-10.042 0-19.438-6.307-23.774-9.71-1.372-1.077-1.949-2.874-1.471-4.578.469-1.671 1.861-2.879 3.548-3.079 9.447-1.121 16.038-3.842 19.904-5.928.959-.518 2.148-.354 2.932.409.783.763.979 1.945.486 2.92-1.334 2.636-1.277 5.873.147 8.45 1.527 2.762 4.417 4.378 7.367 4.145 1.178-.102 2.257.639 2.599 1.766s-.15 2.341-1.18 2.912c-3.472 1.926-7.055 2.693-10.558 2.693zm-19.353-12.63c4.39 3.224 12.285 7.978 20.222 7.604-1.388-1.079-2.578-2.454-3.471-4.068-1.285-2.323-1.864-4.921-1.732-7.495-3.835 1.553-8.837 3.075-15.019 3.959zm-1.753.228h.002s-.001 0-.002 0z"/><path d="m147.938 159.626c-6.855 0-12.983-1.572-16.507-2.704-1.314-.422-2.038-1.83-1.616-3.145s1.83-2.039 3.145-1.615c4.233 1.358 12.588 3.423 20.983 1.969 1.361-.236 2.654.676 2.89 2.036s-.676 2.654-2.037 2.89c-2.318.402-4.627.569-6.858.569z"/><path d="m128 106.765c-2.425 0-4.85-.546-7.108-1.638-4.175-2.021-7.505-4.631-9.899-7.759-1.843-2.41-1.979-5.73-.34-8.265l6.257-9.672c.909-1.477 2.534-2.481 4.317-2.639l6.552-.578c.146-.014.293-.014.439 0l6.552.578c1.784.157 3.409 1.162 4.347 2.686l6.228 9.625c1.639 2.534 1.503 5.854-.339 8.264-2.394 3.129-5.724 5.739-9.898 7.759-2.258 1.093-4.683 1.639-7.108 1.639zm0-25.55-6.332.559c-.217.02-.415.142-.53.328l-6.287 9.719c-.495.765-.45 1.773.113 2.51 1.914 2.501 4.641 4.619 8.104 6.296 3.087 1.492 6.774 1.493 9.863-.001 3.463-1.676 6.19-3.794 8.104-6.296.562-.735.607-1.744.112-2.509l-6.257-9.672c-.144-.233-.342-.355-.56-.375z"/><path d="m128 106.765c-2.425 0-4.85-.547-7.108-1.639-4.174-2.019-7.504-4.629-9.898-7.758-.586-.767-1.008-1.647-1.254-2.619-.214-.845.028-1.74.638-2.363s1.498-.881 2.351-.686c.359.085.874.026 1.468-.04.821-.092 1.751-.196 2.791.002 6.896 1.308 15.13 1.308 22.026 0 1.04-.198 1.97-.093 2.791-.002.594.067 1.108.125 1.468.04.851-.195 1.74.062 2.351.686.61.623.853 1.519.638 2.363-.246.972-.667 1.853-1.254 2.618-2.394 3.13-5.725 5.74-9.898 7.759-2.26 1.092-4.685 1.639-7.11 1.639zm-10.761-9.979c1.614 1.458 3.564 2.743 5.829 3.838 3.088 1.494 6.775 1.494 9.863 0 2.265-1.095 4.215-2.38 5.829-3.838-6.905 1.158-14.615 1.158-21.521 0z"/></svg>