<svg enable-background="new 0 0 256 256" height="512" viewBox="0 0 256 256" width="512" xmlns="http://www.w3.org/2000/svg"><path d="m128 128.841c-7.671 0-14.536-1.613-19.176-4.156 1.832 8.913 9.721 15.616 19.176 15.616s17.344-6.703 19.176-15.616c-4.64 2.543-11.505 4.156-19.176 4.156z" fill="#7d3d1a"/><path d="m179.467 117.72c-1.131.652-2.444 1.035-3.875 1.035h-13.244c-4.689 0-9.163 1.686-12.915 4.499-.675.506-1.437.983-2.261 1.434.001-.001.002-.001.003-.002-1.832 8.913-9.721 15.616-19.176 15.616v93.932c0 7.771 7.854 12.996 14.965 9.991 26.626-11.253 75.884-44.244 36.503-126.505z" fill="#c16a44"/><path d="m108.824 124.686c.001 0 .002.001.003.002-.824-.451-1.586-.928-2.261-1.434-3.752-2.813-8.226-4.499-12.915-4.499h-13.243c-1.431 0-2.744-.383-3.875-1.035-39.381 82.262 9.878 115.252 36.502 126.505 7.111 3.005 14.965-2.22 14.965-9.991v-93.932c-9.455 0-17.344-6.703-19.176-15.616z" fill="#c16a44"/><circle cx="147.056" cy="44.915" fill="#f9bd55" r="11.701"/><circle cx="108.944" cy="44.915" fill="#f9bd55" r="11.701"/><g fill="#52565b"><path d="m182.963 107.674-11.748-30.638c-3.025-7.889-10.454-13.077-18.726-13.078-16.325 0-32.653 0-48.978 0-8.272 0-15.702 5.189-18.726 13.078l-11.748 30.638c-2.041 5.323 1.789 11.081 7.371 11.081h13.244c4.689 0 9.163 1.686 12.915 4.499 4.479 3.357 12.403 5.588 21.434 5.588s16.955-2.231 21.434-5.588c3.752-2.813 8.226-4.499 12.915-4.499h13.244c5.58 0 9.41-5.758 7.369-11.081z"/><path d="m147.056 56.616c-6.34 0-11.49-5.046-11.683-11.339h-14.746c-.193 6.294-5.342 11.339-11.683 11.339-1.442 0-2.818-.273-4.094-.751-.003.105-.016.207-.016.312v7.78h46.331v-7.78c0-.105-.013-.208-.016-.312-1.275.477-2.651.751-4.093.751z"/><path d="m213.107 41.105c-1.945-1.945-5.109-1.835-6.947.212-3.948 4.397-9.585 13.507-10.605 29.48-.091 1.433-.252 2.804-.466 4.123 1.125-1.086 2.727-1.625 4.361-1.298 1.953.391 3.398 1.884 3.832 3.686.509-2.792.822-5.518 1.003-8.052.7-9.8 6.304-17.808 9.338-22.019 1.361-1.887 1.129-4.486-.516-6.132z"/><path d="m236.768 184.837c-1.148 2.5-4.152 3.496-6.587 2.216-5.231-2.751-13.683-9.332-20.192-23.955-.584-1.312-1.212-2.542-1.871-3.704 1.433.627 3.122.575 4.54-.299 1.695-1.045 2.532-2.947 2.311-4.788 1.448 2.441 2.689 4.888 3.739 7.201 4.063 8.946 12.102 14.506 16.411 17.4 1.933 1.297 2.619 3.814 1.649 5.929z"/><path d="m205.898 252.894c-2.401 1.342-5.415.375-6.626-2.095-2.602-5.306-5.546-15.606-2.178-31.254.302-1.404.521-2.767.674-4.094.787 1.352 2.182 2.306 3.843 2.436 1.985.156 3.783-.887 4.691-2.503-.27 2.825-.712 5.534-1.227 8.021-1.995 9.621 1.217 18.852 2.991 23.73.793 2.185-.138 4.623-2.168 5.759z"/><path d="m42.893 41.105c1.945-1.945 5.109-1.835 6.947.212 3.948 4.397 9.585 13.507 10.605 29.48.091 1.433.252 2.804.466 4.123-1.125-1.086-2.727-1.625-4.361-1.298-1.953.391-3.398 1.884-3.832 3.686-.509-2.792-.822-5.518-1.003-8.052-.7-9.8-6.304-17.808-9.338-22.019-1.361-1.887-1.129-4.486.516-6.132z"/><path d="m19.232 184.837c1.148 2.5 4.152 3.496 6.587 2.216 5.231-2.751 13.683-9.332 20.192-23.955.584-1.312 1.212-2.542 1.871-3.704-1.433.627-3.122.575-4.541-.299-1.695-1.045-2.532-2.947-2.311-4.788-1.448 2.441-2.689 4.888-3.739 7.201-4.063 8.946-12.102 14.506-16.411 17.4-1.932 1.297-2.618 3.814-1.648 5.929z"/><path d="m50.102 252.894c2.401 1.342 5.415.375 6.626-2.095 2.602-5.306 5.546-15.606 2.178-31.254-.302-1.404-.521-2.767-.674-4.094-.787 1.352-2.182 2.306-3.843 2.436-1.985.156-3.783-.887-4.691-2.503.27 2.825.712 5.534 1.227 8.021 1.995 9.621-1.217 18.852-2.991 23.73-.793 2.185.138 4.623 2.168 5.759z"/><path d="m199.451 73.623c-2.506-.501-4.958 1.008-5.687 3.457-3.07 10.324-9.259 17.043-14.442 21.099l3.26 8.503c11.902-5.588 17.797-16.27 20.672-26.985.734-2.736-1.026-5.519-3.803-6.074z"/><path d="m76.677 98.179c-5.183-4.056-11.372-10.775-14.442-21.099-.728-2.449-3.181-3.959-5.687-3.457-2.777.556-4.537 3.338-3.803 6.073 2.875 10.715 8.77 21.397 20.672 26.985z"/><path d="m214.114 152.078c-6.252-8.809-15.174-16.599-27.734-18.021 1.357 3.707 2.52 7.301 3.501 10.783 5.333 2.4 11.281 6.38 16.245 12.989 1.534 2.043 4.359 2.606 6.534 1.265 2.41-1.485 3.093-4.706 1.454-7.016z"/><path d="m193.832 181.013c-.394 4.273-1.12 8.294-2.129 12.075 2.856 5.066 5.268 11.737 5.377 19.924.034 2.555 1.983 4.675 4.53 4.875 2.823.222 5.275-1.976 5.313-4.809.154-11.296-2.71-23.413-13.091-32.065z"/><path d="m69.62 134.058c-12.56 1.422-21.483 9.211-27.734 18.021-1.639 2.31-.956 5.53 1.455 7.017 2.175 1.341 4.999.778 6.534-1.265 4.964-6.609 10.912-10.59 16.245-12.989.98-3.483 2.143-7.077 3.5-10.784z"/><path d="m62.168 181.013c-10.381 8.652-13.245 20.77-13.091 32.065.039 2.832 2.49 5.03 5.313 4.809 2.547-.2 4.496-2.32 4.53-4.875.109-8.188 2.521-14.858 5.377-19.924-1.009-3.781-1.736-7.803-2.129-12.075z"/></g><path d="m128 131.342c-9.274 0-17.847-2.275-22.933-6.087-3.489-2.617-7.437-4-11.416-4h-13.243c-3.396 0-6.586-1.69-8.533-4.523-2.005-2.916-2.443-6.637-1.172-9.952l11.747-30.64c3.42-8.919 11.687-14.682 21.061-14.682h48.979c9.373 0 17.641 5.763 21.061 14.682l11.747 30.64c1.271 3.315.834 7.036-1.172 9.953-1.947 2.832-5.137 4.522-8.532 4.522h-13.244c-3.979 0-7.926 1.383-11.415 3.999-5.088 3.812-13.662 6.088-22.935 6.088zm-24.489-64.884c-7.286 0-13.72 4.503-16.392 11.473l-11.748 30.639c-.682 1.777-.449 3.771.624 5.33 1.029 1.497 2.638 2.355 4.413 2.355h13.244c5.069 0 10.054 1.729 14.415 4.999 4.187 3.138 11.826 5.088 19.934 5.088s15.746-1.95 19.935-5.089c4.36-3.27 9.345-4.998 14.414-4.998h13.244c1.774 0 3.383-.858 4.412-2.355 1.072-1.56 1.306-3.553.624-5.331l-11.748-30.639c-2.673-6.969-9.107-11.472-16.393-11.472z"/><path d="m128 142.802c-10.433 0-19.527-7.407-21.625-17.613-.196-.954.18-1.935.963-2.514.784-.578 1.832-.65 2.687-.182 4.465 2.445 11.017 3.849 17.975 3.849 6.957 0 13.51-1.403 17.976-3.849.854-.467 1.904-.397 2.687.182s1.159 1.56.964 2.514c-2.099 10.206-11.194 17.613-21.627 17.613zm-14.825-13.601c2.982 5.188 8.595 8.601 14.825 8.601s11.844-3.414 14.826-8.601c-4.379 1.383-9.522 2.141-14.826 2.141s-10.447-.758-14.825-2.141z"/><path d="m138.77 247.578c-2.562 0-5.105-.746-7.311-2.208-3.731-2.474-5.959-6.637-5.959-11.136v-93.933c0-1.381 1.119-2.5 2.5-2.5 8.071 0 15.105-5.728 16.727-13.619.148-.719.602-1.335 1.245-1.688.756-.414 1.416-.832 1.962-1.241 4.361-3.271 9.346-4.999 14.415-4.999h13.244c.936 0 1.818-.235 2.625-.701.604-.348 1.324-.429 1.989-.222.665.206 1.214.68 1.515 1.309 15.557 32.494 18.992 60.718 10.213 83.887-9.589 25.306-31.393 38.982-47.995 46-1.666.704-3.422 1.051-5.17 1.051zm-8.27-104.919v91.575c0 2.86 1.356 5.4 3.722 6.969 2.343 1.554 5.176 1.817 7.771.719 15.704-6.638 36.305-19.514 45.268-43.166 8.089-21.347 5.044-47.524-9.05-77.84-.851.224-1.73.339-2.617.339h-13.244c-3.979 0-7.926 1.383-11.415 3.999-.474.354-.999.708-1.57 1.056-2.301 8.815-9.884 15.32-18.865 16.349z"/><path d="m117.231 247.578c-1.748 0-3.505-.347-5.169-1.051-16.603-7.018-38.407-20.694-47.996-46-8.78-23.169-5.344-51.393 10.212-83.887.301-.628.85-1.103 1.515-1.309.665-.207 1.386-.126 1.989.222.806.466 1.69.701 2.626.701h13.244c5.069 0 10.054 1.729 14.415 4.999.547.41 1.207.828 1.962 1.241.644.353 1.097.968 1.244 1.688 1.622 7.892 8.657 13.619 16.728 13.619 1.381 0 2.5 1.119 2.5 2.5v93.933c0 4.499-2.228 8.662-5.959 11.136-2.206 1.462-4.749 2.208-7.311 2.208zm-39.442-126.663c-14.093 30.316-17.137 56.494-9.048 77.841 8.962 23.652 29.563 36.528 45.267 43.166 2.595 1.098 5.427.835 7.771-.719 2.365-1.568 3.722-4.108 3.722-6.969v-91.575c-8.98-1.029-16.563-7.535-18.864-16.35-.571-.348-1.096-.7-1.569-1.056-3.489-2.616-7.437-3.999-11.416-3.999h-13.244c-.887.001-1.768-.114-2.619-.339z"/><path d="m142.775 48.755c-1.377 0-2.495-1.114-2.5-2.492-.006-1.811.693-3.516 1.97-4.801s2.978-1.996 4.789-2.002h.02c3.73 0 6.771 3.028 6.783 6.76.005 1.38-1.111 2.503-2.492 2.508-.002 0-.005 0-.008 0-1.377 0-2.495-1.114-2.5-2.492-.003-.979-.803-1.775-1.782-1.775-.002 0-.004 0-.006 0-.475.002-.921.188-1.256.525-.335.338-.52.785-.518 1.262.005 1.38-1.111 2.503-2.492 2.508-.002-.001-.005-.001-.008-.001z"/><path d="m147.056 59.116c-7.83 0-14.201-6.371-14.201-14.201s6.371-14.201 14.201-14.201 14.201 6.371 14.201 14.201-6.371 14.201-14.201 14.201zm0-23.402c-5.073 0-9.201 4.128-9.201 9.201s4.128 9.201 9.201 9.201 9.201-4.128 9.201-9.201-4.128-9.201-9.201-9.201z"/><path d="m104.664 48.755c-1.377 0-2.496-1.114-2.5-2.492-.012-3.738 3.02-6.79 6.758-6.803h.02c3.731 0 6.771 3.028 6.783 6.76.004 1.381-1.111 2.504-2.492 2.508-.002 0-.005 0-.008 0-1.377 0-2.496-1.114-2.5-2.492-.003-.98-.802-1.775-1.782-1.775-.002 0-.004 0-.005 0-.981.003-1.777.805-1.774 1.787.004 1.38-1.111 2.503-2.492 2.508-.003-.001-.006-.001-.008-.001z"/><path d="m108.944 59.116c-7.831 0-14.201-6.371-14.201-14.201s6.371-14.201 14.201-14.201 14.201 6.371 14.201 14.201-6.371 14.201-14.201 14.201zm0-23.402c-5.074 0-9.201 4.128-9.201 9.201s4.127 9.201 9.201 9.201c5.073 0 9.201-4.128 9.201-9.201s-4.127-9.201-9.201-9.201z"/><path d="m151.165 66.458h-46.331c-1.381 0-2.5-1.119-2.5-2.5v-7.78c0-.119.006-.237.015-.354.022-.807.435-1.567 1.104-2.019.67-.45 1.518-.563 2.273-.281 1.048.393 2.131.592 3.217.592 4.997 0 9.031-3.916 9.184-8.915.042-1.351 1.148-2.424 2.499-2.424h14.746c1.351 0 2.458 1.073 2.499 2.424.152 4.999 4.187 8.915 9.184 8.915 1.087 0 2.169-.199 3.217-.591.754-.283 1.603-.185 2.272.267s1.081 1.197 1.104 2.004c.011.149.017.265.017.383v7.78c0 1.38-1.119 2.499-2.5 2.499zm-43.83-5h41.33v-2.436c-.534.062-1.071.093-1.609.093-6.888 0-12.59-4.816-13.903-11.339h-10.305c-1.314 6.522-7.017 11.339-13.903 11.339-.538 0-1.075-.031-1.608-.093z"/><path d="m149.643 35.714c-.428 0-.861-.109-1.258-.341-1.192-.695-1.596-2.226-.899-3.419l6.695-11.48c1.861-3.193 1.479-7.212-.954-9.997-3.175-3.634-6.502-5.477-9.89-5.477-1.381 0-2.5-1.119-2.5-2.5s1.119-2.5 2.5-2.5c4.826 0 9.548 2.485 13.655 7.188 3.846 4.403 4.451 10.755 1.508 15.805l-6.696 11.481c-.464.796-1.302 1.24-2.161 1.24z"/><path d="m106.508 35.972c-.86 0-1.697-.444-2.162-1.24l-6.845-11.738c-2.945-5.05-2.34-11.402 1.507-15.806 4.106-4.703 8.828-7.188 13.655-7.188 1.381 0 2.5 1.119 2.5 2.5s-1.119 2.5-2.5 2.5c-3.388 0-6.715 1.843-9.889 5.477-2.433 2.786-2.816 6.804-.953 9.997l6.845 11.738c.695 1.193.292 2.724-.9 3.419-.397.231-.83.341-1.258.341z"/><path d="m203.282 79.809c-1.151 0-2.159-.789-2.43-1.915-.221-.92-.964-1.634-1.892-1.819-.771-.152-1.55.08-2.134.645-.774.748-1.94.918-2.896.418-.954-.499-1.481-1.553-1.31-2.616.21-1.294.357-2.6.438-3.881 1.104-17.304 7.517-26.845 11.24-30.992 1.34-1.492 3.254-2.379 5.25-2.433 2.015-.046 3.901.699 5.324 2.123h.001c2.532 2.534 2.858 6.471.776 9.361-2.663 3.696-8.206 11.388-8.872 20.735-.207 2.879-.556 5.679-1.037 8.322-.212 1.162-1.209 2.018-2.391 2.051-.02.001-.043.001-.067.001zm-4.774-8.78c.478 0 .958.047 1.435.143.564.113 1.106.29 1.618.523.092-.862.169-1.735.232-2.617.768-10.763 7.099-19.55 9.803-23.303.642-.891.534-2.111-.256-2.902-.444-.442-1.059-.691-1.654-.66-.64.017-1.231.292-1.664.774-3.291 3.666-8.963 12.174-9.971 27.97-.002.029-.004.058-.006.087.153-.01.309-.015.463-.015z"/><path d="m232.439 190.107c-1.181 0-2.359-.283-3.422-.842-4.934-2.595-14.263-9.312-21.312-25.15-.521-1.172-1.114-2.346-1.762-3.488-.53-.937-.401-2.107.319-2.907.722-.799 1.871-1.048 2.858-.615.743.325 1.556.277 2.226-.138.806-.497 1.254-1.425 1.142-2.364-.14-1.173.561-2.284 1.679-2.663 1.118-.382 2.35.074 2.954 1.092 1.37 2.311 2.671 4.814 3.865 7.442 3.878 8.538 11.746 13.819 15.528 16.357 2.958 1.989 4.02 5.794 2.525 9.049-.84 1.829-2.351 3.193-4.254 3.841-.758.258-1.552.386-2.346.386zm-20.202-28.105c.012.026.024.054.036.08 6.437 14.459 14.711 20.465 19.071 22.758.573.303 1.224.355 1.83.148.591-.201 1.06-.626 1.32-1.194.467-1.017.144-2.198-.769-2.812-3.838-2.576-12.828-8.61-17.293-18.44-.365-.805-.741-1.597-1.126-2.373-.399.396-.847.752-1.337 1.054-.545.338-1.128.597-1.732.779z"/><path d="m203.59 256.004c-.727 0-1.458-.111-2.175-.335-1.906-.596-3.506-1.97-4.389-3.771-2.453-5.004-6.025-15.931-2.377-32.88.271-1.262.485-2.559.635-3.855.123-1.069.918-1.939 1.972-2.16 1.052-.218 2.13.259 2.672 1.189.409.702 1.094 1.141 1.878 1.202.934.069 1.853-.411 2.315-1.235.579-1.029 1.802-1.511 2.927-1.161 1.128.354 1.854 1.448 1.741 2.624-.257 2.685-.683 5.474-1.267 8.29-1.903 9.178 1.335 18.086 2.892 22.367 1.218 3.35-.169 7.049-3.297 8.797-1.101.615-2.307.928-3.527.928zm-4.034-36.019c-.006.028-.012.057-.018.085-3.331 15.475-.19 25.204 1.979 29.627.285.582.778 1.008 1.389 1.199.596.185 1.225.119 1.772-.186.977-.545 1.412-1.69 1.037-2.723-1.58-4.347-5.28-14.523-3.089-25.092.18-.864.343-1.726.49-2.581-.557.085-1.124.111-1.701.063-.641-.048-1.265-.182-1.859-.392z"/><path d="m52.718 79.809c-.023 0-.046 0-.07-.001-1.181-.033-2.178-.888-2.39-2.051-.482-2.645-.832-5.444-1.037-8.321-.668-9.35-6.21-17.041-8.873-20.736-2.083-2.892-1.756-6.828.777-9.361 1.423-1.425 3.322-2.196 5.324-2.123 1.997.054 3.911.94 5.25 2.433 3.723 4.146 10.135 13.688 11.239 30.991.082 1.282.23 2.589.439 3.883.172 1.063-.356 2.116-1.31 2.615s-2.121.329-2.895-.418c-.583-.563-1.36-.8-2.133-.645-.928.186-1.67.899-1.892 1.819-.27 1.126-1.277 1.915-2.429 1.915zm-8.057-36.936c-.791.791-.898 2.012-.256 2.903 2.704 3.752 9.035 12.538 9.804 23.303.063.881.14 1.754.231 2.616.512-.233 1.054-.411 1.619-.523.63-.127 1.267-.168 1.896-.128-.002-.028-.004-.058-.006-.086-1.008-15.798-6.679-24.306-9.97-27.971-.433-.482-1.024-.758-1.664-.774-.614-.029-1.211.218-1.654.66z"/><path d="m23.56 190.107c-.793 0-1.586-.128-2.346-.386-1.904-.648-3.415-2.013-4.254-3.842-1.494-3.256-.432-7.061 2.525-9.048 3.782-2.539 11.651-7.821 15.528-16.358 1.19-2.62 2.491-5.124 3.865-7.442.603-1.016 1.834-1.473 2.954-1.092 1.119.38 1.819 1.491 1.679 2.664-.112.939.335 1.866 1.141 2.363.67.412 1.481.462 2.227.138.983-.434 2.137-.185 2.859.616.721.8.849 1.971.317 2.907-.645 1.137-1.237 2.311-1.761 3.487-7.05 15.838-16.379 22.556-21.312 25.15-1.061.56-2.241.843-3.422.843zm-2.056-6.313c.261.568.73.993 1.322 1.194.606.207 1.256.152 1.83-.148 4.36-2.293 12.635-8.299 19.071-22.758.012-.027.024-.054.036-.08-.604-.182-1.187-.441-1.734-.779-.49-.303-.937-.657-1.335-1.054-.386.777-.762 1.568-1.126 2.373-4.465 9.829-13.455 15.864-17.293 18.441-.914.612-1.237 1.794-.771 2.811z"/><path d="m52.41 256.004c-1.219 0-2.425-.312-3.526-.928-3.127-1.748-4.514-5.447-3.297-8.796 1.557-4.282 4.795-13.19 2.893-22.368-.585-2.822-1.012-5.611-1.269-8.29-.112-1.176.614-2.271 1.741-2.624 1.127-.354 2.348.13 2.927 1.16.463.824 1.362 1.301 2.317 1.236.784-.062 1.468-.5 1.878-1.202.542-.93 1.619-1.404 2.672-1.189 1.054.221 1.848 1.091 1.972 2.16.15 1.301.364 2.599.634 3.855 3.648 16.95.077 27.876-2.377 32.88-.883 1.801-2.482 3.175-4.389 3.771-.718.224-1.449.335-2.176.335zm-1.088-5.293c.547.306 1.177.371 1.772.186.611-.191 1.104-.617 1.39-1.199 2.168-4.422 5.309-14.151 1.979-29.626-.006-.029-.012-.058-.019-.086-.594.21-1.219.344-1.86.394-.574.045-1.144.021-1.7-.063.147.854.311 1.716.49 2.581 2.191 10.568-1.509 20.745-3.089 25.092-.375 1.031.061 2.176 1.037 2.721z"/><path d="m182.583 109.181c-.316 0-.634-.061-.934-.181-.645-.26-1.152-.775-1.4-1.424l-3.261-8.502c-.394-1.025-.071-2.188.794-2.864 4.569-3.575 10.635-9.92 13.586-19.843 1.107-3.719 4.794-5.953 8.573-5.195 2.011.402 3.784 1.632 4.866 3.374 1.072 1.728 1.387 3.841.862 5.798-3.72 13.862-11.13 23.484-22.024 28.6-.335.158-.699.237-1.062.237zm-.279-10.209 1.61 4.199c8.205-4.717 13.893-12.817 16.926-24.122.171-.637.071-1.299-.28-1.865-.36-.581-.929-.975-1.599-1.109h-.001c-1.227-.247-2.435.492-2.799 1.719-3.024 10.168-8.942 16.997-13.857 21.178z"/><path d="m73.417 109.181c-.363 0-.727-.079-1.062-.237-10.895-5.114-18.305-14.737-22.024-28.6-.525-1.956-.211-4.069.862-5.798 1.082-1.742 2.855-2.972 4.865-3.374 3.783-.759 7.468 1.477 8.574 5.196 2.95 9.921 9.017 16.266 13.586 19.842.865.677 1.187 1.839.794 2.863l-3.26 8.502c-.249.649-.756 1.165-1.4 1.425-.301.12-.618.181-.935.181zm-15.902-33.154c-.157 0-.315.015-.475.047-.671.135-1.239.528-1.6 1.109-.352.566-.451 1.229-.28 1.865 3.033 11.305 8.721 19.406 16.926 24.122l1.61-4.199c-4.915-4.182-10.833-11.011-13.857-21.179-.318-1.067-1.271-1.765-2.324-1.765z"/><path d="m210.083 162.332c-2.265 0-4.488-1.046-5.956-3.001-4.019-5.351-9.157-9.459-15.271-12.21-.675-.304-1.181-.891-1.381-1.603-.97-3.444-2.128-7.011-3.442-10.602-.298-.813-.153-1.724.383-2.404.534-.682 1.38-1.044 2.246-.939 11.521 1.305 21.443 7.717 29.492 19.058v.001c1.173 1.653 1.612 3.744 1.207 5.737-.409 2.009-1.645 3.778-3.39 4.854-1.214.749-2.558 1.109-3.888 1.109zm-18.112-19.276c6.427 3.091 11.857 7.552 16.154 13.273.768 1.021 2.15 1.297 3.223.638.581-.358.977-.925 1.113-1.595.133-.653-.004-1.309-.386-1.847-6.204-8.743-13.563-14.197-21.92-16.259.656 1.952 1.262 3.887 1.816 5.79z"/><path d="m201.991 220.401c-.191 0-.384-.007-.576-.022-3.845-.302-6.783-3.455-6.835-7.334-.089-6.635-1.789-12.937-5.055-18.729-.321-.569-.406-1.241-.237-1.872.993-3.727 1.685-7.649 2.055-11.66.085-.925.676-1.726 1.534-2.081.857-.354 1.843-.204 2.556.391 9.482 7.903 14.19 19.35 13.991 34.02-.028 2.026-.906 3.975-2.409 5.346-1.372 1.249-3.177 1.941-5.024 1.941zm-7.619-27.647c3.361 6.284 5.112 13.083 5.208 20.225.017 1.278.974 2.317 2.227 2.416.676.045 1.334-.172 1.839-.632.493-.449.77-1.06.778-1.719.151-11.111-2.783-20.092-8.731-26.768-.349 2.203-.79 4.368-1.321 6.478z"/><path d="m45.917 162.332c-1.33 0-2.674-.36-3.888-1.109-1.746-1.076-2.981-2.846-3.39-4.854-.405-1.993.035-4.084 1.208-5.736 8.049-11.342 17.972-17.754 29.492-19.059.859-.097 1.71.258 2.247.939.536.681.68 1.591.382 2.404-1.314 3.591-2.473 7.157-3.442 10.602-.2.712-.706 1.299-1.38 1.603-6.115 2.751-11.253 6.859-15.271 12.21-1.469 1.954-3.693 3-5.958 3zm19.927-25.065c-8.356 2.062-15.715 7.516-21.92 16.259-.381.537-.518 1.192-.385 1.846.136.67.532 1.236 1.114 1.596 1.069.657 2.454.384 3.223-.638 4.296-5.721 9.727-10.182 16.154-13.273.553-1.904 1.159-3.839 1.814-5.79z"/><path d="m54.009 220.401c-1.847 0-3.651-.692-5.024-1.944-1.502-1.37-2.38-3.318-2.408-5.345-.2-14.67 4.507-26.115 13.991-34.02.713-.596 1.697-.745 2.556-.391.858.355 1.449 1.156 1.534 2.081.37 4.009 1.061 7.933 2.056 11.66.168.631.083 1.303-.238 1.872-3.266 5.793-4.966 12.095-5.055 18.729-.052 3.879-2.99 7.032-6.834 7.334-.194.018-.386.024-.578.024zm6.298-34.125c-5.949 6.677-8.882 15.656-8.731 26.768.009.659.285 1.27.778 1.719.505.46 1.157.679 1.84.632 1.252-.099 2.209-1.138 2.226-2.416.096-7.142 1.847-13.94 5.208-20.225-.531-2.111-.972-4.276-1.321-6.478z"/></svg>