<svg enable-background="new 0 0 256 256" height="512" viewBox="0 0 256 256" width="512" xmlns="http://www.w3.org/2000/svg"><path d="m192.007 178.044c12.552-4.032 16.736-21.169 16.736-21.169-7.322 2.016-14.644 1.008-14.644 1.008l5.753-5.544c-34.518 5.04-26.15-14.113-57.529-31.249-15.595-8.517-21.37-22.255-23.236-33.925-1.117-6.987.94-14.096 5.622-19.539 3.394-3.944 7.049-8.453 9.928-14.819 8.414-18.598-3.633-30.621-3.633-30.621 3.009-.549 4.811-6.565 4.811-6.565-3.009.549-6.622-1.637-6.622-1.637 4.81-6.564.593-11.484.593-11.484-1.801 6.016-11.433 4.928-38.516 9.866-22.155 4.039-21.741 24.898-20.857 32.355.156 1.317 1.282 2.386 2.728 2.553 2.869.332 4.144 2.457 4.64 3.655.2.483.674.801 1.241.831 8.615.461 16.242 7.075 7.232 17.534-.511.593-.356 1.401.289 1.875 8.578 6.301 6.544 17.898 4.396 24.612-2.573 5.527-6.887 12.121-8.761 15.733-9.414 18.145-13.598 60.482 28.242 84.675 3.023 1.748 6.078 3.149 9.146 4.263 1.576 2.737 3.094 5.514 4.531 8.34.529 1.041 1.068 2.114 1.909 2.876s2.07 1.149 3.055.626c.398-.212.737-.558 1.165-.685 1.89-.559 3.208 3.342 5.022 2.541.403-.178.695-.569 1.079-.794 1.062-.621 2.32.197 3.335.905 1.015.707 2.474 1.283 3.316.346.305-.339.445-.809.571-1.263.882-3.168 1.541-6.408 1.977-9.682 29.725-2.553 54.85-23.602 54.85-23.602z" fill="#e3e4e5"/><g fill="#f9bd55"><path d="m88.291 55.568c-3.127-3.122-7.385-3.707-9.269-3.808-.567-.03-1.04-.348-1.241-.831-.496-1.197-1.771-3.323-4.64-3.655-.715-.083-1.348-.388-1.828-.832-2.265 2.145-9.872 8.659-20.879 10.909-3.508.717-4.365 5.035-1.279 6.713 7.634 4.149 21.208 6.78 40.022-7.425-.253-.364-.537-.723-.886-1.071z"/><path d="m86.254 69.294c1.994-2.314 6.123-8.042 2.923-12.656-4.125 3.114-7.981 5.379-11.595 7.037-3.694 3.699-5.833 7.405-6.093 9.825-.238 2.219 2.718 3.542 4.574 2.084 3.34-2.624 7.048-4.1 10.043-4.948-.22-.432-.203-.935.148-1.342z"/><path d="m142.289 233.537c-.972-1.305-1.306-2.939-1.615-4.518-.376-1.921.333-8.314.859-13.954-.643-.086-1.323-.421-1.874-.805-1.015-.707-2.273-1.526-3.335-.905-.384.224-.675.615-1.079.794-1.814.802-3.132-3.1-5.022-2.541-.427.126-.767.473-1.165.685-.326.173-.679.239-1.036.232.969 4.455 2.188 9.61 2.203 10.899.025 2.184-.353 4.486-1.771 6.189-1.368 1.643-3.499 2.495-5.581 3.137-5.936 1.831-12.262 2.479-18.465 1.893-.658-.063-1.341-.136-1.967.069-.627.205-1.178.782-1.099 1.415.127 1.021 1.583 1.304 2.162 2.169.593.886.051 2.125-.818 2.766s-1.975.88-2.991 1.273-2.044 1.056-2.306 2.08c-.101.392-.072.827.147 1.172.378.596 1.181.769 1.9.856 2.649.321 5.438.238 7.835 1.37.258.122.524.273.646.523.358.739-.726 1.299-1.525 1.568-.77.259-1.494.642-2.134 1.129-.39.297-.775.684-.796 1.163-.025.545.454 1.016.991 1.189.537.172 1.121.114 1.684.052 11.873-1.294 24.045-3.138 34.301-9.045 1.418-.817 2.832-1.747 3.71-3.095 1.074-1.649 1.168-3.898.069-5.531-.546-.811-1.341-1.442-1.928-2.229z"/><path d="m104.259 251.035c.64-.487 1.364-.87 2.134-1.129.799-.268 1.883-.828 1.525-1.568-.121-.251-.388-.401-.646-.523-2.397-1.132-5.186-1.049-7.835-1.37-.719-.087-1.523-.261-1.9-.856-.219-.345-.248-.78-.147-1.172.262-1.024 1.291-1.687 2.306-2.08s2.122-.632 2.991-1.273 1.412-1.88.818-2.766c-.579-.865-2.035-1.148-2.162-2.169-.079-.633.472-1.21 1.099-1.415.626-.205 1.309-.132 1.967-.069 6.203.586 12.529-.063 18.465-1.893.327-.101.654-.21.981-.323-.495-1.065-.737-2.252-.964-3.409-.455-2.324.678-11.192 1.154-17.353-.853.796-2.237.251-3.214-.43-1.015-.707-2.273-1.526-3.335-.905-.384.224-.675.616-1.079.794-1.814.802-3.132-3.1-5.022-2.541-.427.126-.767.473-1.165.685-.201.107-.414.167-.63.203.948 4.78 2.825 12.351 2.844 13.953.025 2.184-.353 4.486-1.771 6.189-1.368 1.643-3.499 2.495-5.581 3.137-5.936 1.831-12.262 2.479-18.465 1.893-.658-.063-1.341-.136-1.967.069-.627.205-1.178.782-1.099 1.415.127 1.021 1.583 1.304 2.162 2.169.593.886.051 2.125-.818 2.766s-1.975.88-2.991 1.273-2.044 1.056-2.306 2.08c-.101.392-.072.827.147 1.172.378.596 1.181.769 1.9.856 2.649.321 5.438.238 7.835 1.37.258.122.524.273.646.523.358.739-.726 1.299-1.525 1.568-.77.259-1.494.642-2.134 1.129-.39.297-.775.684-.796 1.163-.025.545.454 1.016.991 1.189.537.172 1.121.114 1.684.052 5.296-.577 10.65-1.266 15.868-2.374.012-.01.023-.021.035-.03z"/></g><path d="m62.308 69.9c-5.824 0-10.621-1.615-14.347-3.641-2.277-1.237-3.509-3.644-3.139-6.13.392-2.621 2.397-4.673 5.11-5.228 10.424-2.132 17.685-8.404 19.662-10.275.957-.905 2.453-.913 3.418-.019.106.099.255.164.417.183 2.78.322 5.062 1.955 6.357 4.518 2.617.228 6.916 1.143 10.27 4.489.419.418.803.881 1.174 1.415.766 1.103.523 2.612-.547 3.421-11.179 8.441-20.674 11.267-28.375 11.267zm9.354-20.408c-3.589 3.092-10.817 8.282-20.728 10.309-.767.156-1.104.653-1.167 1.066-.062.42.133.757.58 1 7.032 3.82 18.704 5.811 34.985-5.527-2.388-1.677-5.213-2.017-6.444-2.083-1.536-.082-2.846-.99-3.417-2.371-.527-1.271-1.407-1.988-2.617-2.128-.411-.048-.809-.137-1.192-.266z"/><path d="m74.264 78.702c-.922 0-1.854-.232-2.703-.704-1.787-.99-2.768-2.816-2.558-4.765.339-3.161 2.885-7.395 6.811-11.325.21-.211.456-.382.727-.506 3.682-1.688 7.427-3.963 11.131-6.759.543-.411 1.229-.578 1.901-.474.672.107 1.271.484 1.658 1.044 2.871 4.138 1.904 9.645-2.637 15.182.041.419-.024.846-.197 1.241-.299.685-.89 1.2-1.608 1.404-3.575 1.014-6.663 2.531-9.181 4.51-.973.763-2.151 1.152-3.344 1.152zm-.272-5.072c.124.063.359.121.526-.012 2.608-2.05 5.689-3.679 9.178-4.853.15-.393.372-.766.663-1.104 1.174-1.362 3.378-4.271 3.486-6.986-2.928 2.003-5.876 3.704-8.802 5.076-3.173 3.262-4.806 6.253-5.051 7.879zm12.262-4.336h.01z"/><path d="m105.281 256c-.487 0-1.032-.054-1.593-.234-1.675-.535-2.796-2.049-2.723-3.681.048-1.073.565-2.03 1.539-2.848-.415-.041-.838-.076-1.266-.111-.704-.058-1.407-.115-2.102-.2-.723-.087-2.646-.319-3.711-1.999-.571-.899-.737-2.042-.458-3.133.3-1.168 1.207-2.774 3.825-3.789.316-.122.64-.231.962-.341.371-.125.729-.245 1.021-.376-.728-.505-1.728-1.355-1.913-2.851-.222-1.771.957-3.496 2.802-4.1 1.104-.361 2.154-.262 2.922-.188 5.91.558 11.958-.063 17.551-1.788 1.624-.501 3.416-1.171 4.396-2.348.814-.979 1.216-2.513 1.192-4.562-.021-.804-.873-4.643-1.495-7.446-.219-.985-.44-1.984-.651-2.95-.162-.747.026-1.527.512-2.118.466-.566 1.155-.899 1.885-.913.028-.02.058-.041.087-.062.317-.223.796-.559 1.454-.753 2.362-.697 4.072 1.034 4.989 1.967.068.07.147.15.229.231.099-.07.206-.142.322-.21 2.498-1.458 4.973.273 6.031 1.011.354.247.662.362.771.377 1.332.176 2.287 1.373 2.162 2.711l-.237 2.486c-.384 3.996-.91 9.469-.658 10.754.253 1.295.515 2.632 1.165 3.505.179.239.433.505.7.786.414.435.884.927 1.299 1.543 1.626 2.418 1.606 5.75-.049 8.291-1.166 1.79-2.88 2.931-4.558 3.897-10.904 6.28-23.927 8.126-35.277 9.363-.308.037-.694.079-1.125.079zm-3.264-11.826c2.009.167 4.244.397 6.323 1.38.36.171 1.31.62 1.83 1.698.4.828.426 1.748.071 2.59-.097.229-.218.445-.364.65 9.814-1.205 20.47-3.171 29.313-8.265 1.139-.655 2.272-1.387 2.863-2.293.557-.855.595-2.021.09-2.771-.178-.264-.465-.564-.769-.884-.343-.358-.73-.766-1.09-1.248-1.331-1.785-1.737-3.862-2.063-5.532-.374-1.902-.021-5.873.588-12.193l.057-.592c-.237-.136-.451-.273-.636-.402-.165-.115-.583-.406-.896-.57-.259.219-.613.489-1.081.696-2.37 1.044-4.199-.632-5.159-1.6.006.028.013.057.019.085 1.021 4.601 1.601 7.262 1.614 8.474.036 3.271-.754 5.9-2.351 7.817-1.817 2.183-4.439 3.209-6.765 3.926-5.699 1.758-11.822 2.485-17.816 2.119 1.111 2.082.1 4.544-1.624 5.816-.711.526-1.454.846-2.154 1.099z"/><path d="m87.499 256c-.487 0-1.032-.054-1.593-.234-1.675-.536-2.796-2.05-2.723-3.681.048-1.072.565-2.029 1.539-2.848-.415-.041-.837-.075-1.266-.11-.704-.059-1.407-.116-2.102-.201-.723-.087-2.646-.319-3.711-1.999-.57-.899-.737-2.041-.457-3.133.299-1.166 1.204-2.772 3.823-3.789.318-.123.641-.232.963-.341.371-.125.729-.245 1.021-.376-.727-.505-1.726-1.354-1.913-2.849-.222-1.772.957-3.497 2.801-4.102 1.104-.362 2.155-.262 2.924-.188 5.907.558 11.957-.063 17.55-1.788 1.625-.501 3.417-1.171 4.397-2.348.814-.979 1.216-2.513 1.191-4.561-.021-.808-.877-4.665-1.503-7.482-.462-2.08-.939-4.231-1.293-6.014-.132-.665.012-1.355.398-1.912.373-.537.94-.906 1.581-1.029.033-.023.069-.05.105-.075.317-.224.797-.561 1.456-.755 2.364-.695 4.072 1.035 4.989 1.968.069.069.148.15.229.23.101-.071.21-.144.329-.213 2.48-1.452 4.962.275 6.022 1.013.224.156.412.253.548.31.703-.402 1.569-.442 2.322-.081.929.447 1.488 1.418 1.408 2.445-.14 1.815-.337 3.864-.534 5.912-.384 4.001-.911 9.481-.659 10.769.223 1.138.422 2.068.778 2.835.298.642.311 1.379.034 2.03-.276.65-.815 1.154-1.483 1.386-.354.123-.709.241-1.062.35-5.699 1.758-11.822 2.485-17.816 2.119 1.111 2.082.1 4.544-1.624 5.816-.712.525-1.455.846-2.155 1.099 2.009.167 4.244.397 6.323 1.38.36.171 1.31.62 1.83 1.698.4.828.426 1.748.071 2.59-.46 1.091-1.488 1.91-3.056 2.435-.498.167-.964.411-1.382.725-.307.247-.678.428-1.062.509-5.609 1.191-11.295 1.889-16.116 2.414-.306.034-.691.076-1.122.076zm16.76-4.965h.01zm-20.025-6.861c2.009.167 4.244.397 6.324 1.38.36.171 1.31.62 1.83 1.698.399.827.426 1.748.071 2.589-.097.229-.218.445-.363.65 2.901-.357 5.988-.795 9.079-1.37-.683-.056-1.365-.113-2.038-.195-.723-.087-2.646-.319-3.711-1.999-.571-.899-.737-2.042-.458-3.133.3-1.168 1.207-2.774 3.825-3.789.316-.122.64-.231.962-.341.371-.125.729-.245 1.021-.376-.678-.471-1.592-1.24-1.864-2.552-3.6.565-7.273.744-10.899.522 1.111 2.083.101 4.544-1.623 5.816-.712.527-1.455.847-2.156 1.1zm28.513-31.898c.188.859.384 1.741.576 2.611 1.026 4.62 1.607 7.293 1.622 8.508.038 3.271-.753 5.9-2.35 7.818-.321.386-.667.735-1.032 1.054 3.101-.186 6.176-.686 9.141-1.49-.103-.449-.188-.88-.265-1.277-.373-1.905-.02-5.88.589-12.208.098-1.017.195-2.034.286-3.022-.633-.212-1.276-.539-1.912-.982-.165-.114-.583-.406-.896-.57-.257.218-.609.488-1.075.695-2.028.891-3.654-.197-4.684-1.137z"/><path d="m124.096 208.792c-1.436-2.826-2.955-5.603-4.531-8.34-3.068-1.114-6.123-2.515-9.146-4.263-3.399-1.966-6.49-4.053-9.304-6.235 1.571 5.142 1.739 11.066 4.152 15.814.529 1.041 1.068 2.114 1.909 2.876s2.07 1.149 3.055.626c.398-.212.737-.558 1.165-.685 1.89-.559 3.208 3.342 5.022 2.541.403-.178.695-.569 1.079-.794 1.062-.621 2.32.197 3.335.905 1.015.707 2.474 1.283 3.316.346.305-.339.445-.809.571-1.263.023-.082.042-.166.064-.248-.242-.418-.468-.85-.687-1.28z" fill="#e3e4e5"/><path d="m71.704 60.265c-.811 0-1.606-.394-2.087-1.121-.762-1.152-.445-2.703.706-3.464l2.481-1.641c1.151-.764 2.703-.447 3.464.706.762 1.152.445 2.703-.706 3.464l-2.481 1.641c-.425.281-.903.415-1.377.415z"/><path d="m141.849 217.586c-1.144 0-2.396-.424-3.617-1.273-.166-.116-.584-.407-.896-.571-.259.219-.613.489-1.081.696-2.5 1.103-4.398-.826-5.312-1.754-.11-.112-.246-.25-.377-.377-.108.069-.22.135-.332.194-1.849.982-4.166.597-5.907-.98-1.173-1.063-1.846-2.391-2.439-3.561-3.189-6.274-6.747-12.363-10.595-18.134-.766-1.148-.455-2.701.693-3.467 1.148-.765 2.702-.455 3.467.693 3.956 5.934 7.614 12.193 10.873 18.605.457.9.87 1.714 1.359 2.158.115.104.233.166.312.196.022-.017.045-.033.067-.049.316-.222.794-.558 1.449-.752 2.367-.7 4.077 1.033 4.993 1.966.069.07.148.15.229.231.099-.07.206-.142.322-.21 2.498-1.458 4.973.273 6.031 1.011.052.036.102.069.149.1 1.618-5.942 2.432-12.098 2.418-18.298-.003-1.381 1.113-2.503 2.494-2.506h.006c1.378 0 2.497 1.115 2.5 2.494.016 6.783-.894 13.517-2.701 20.014-.155.557-.414 1.48-1.124 2.268-.779.87-1.823 1.306-2.981 1.306z"/><path d="m141.849 217.586c-1.144 0-2.396-.424-3.617-1.273-.166-.116-.584-.407-.896-.571-.259.219-.613.489-1.081.696-2.502 1.102-4.398-.826-5.312-1.753-.11-.113-.246-.251-.377-.378-.109.069-.22.135-.332.194-1.849.982-4.166.597-5.907-.98-1.172-1.062-1.844-2.387-2.438-3.556-1.247-2.454-2.568-4.901-4.043-7.485-2.995-1.141-5.91-2.526-8.678-4.127-23.923-13.833-31.99-32.815-34.545-46.304-3.213-16.96.65-32.654 5.337-41.687.742-1.432 1.801-3.225 3.026-5.301 1.913-3.242 4.079-6.911 5.62-10.193 1.85-5.856 3.776-16.308-3.543-21.685-.894-.657-1.473-1.637-1.592-2.688-.115-1.028.2-2.034.889-2.833 2.104-2.443 4.348-5.98 3.08-8.953-1.043-2.444-4.48-4.234-8.553-4.452-1.535-.082-2.845-.99-3.416-2.371-.527-1.271-1.407-1.988-2.617-2.128-2.604-.301-4.629-2.251-4.924-4.742-.842-7.104-1.68-30.63 22.892-35.108 8.172-1.49 14.739-2.432 20.017-3.188 11.702-1.676 15.788-2.386 16.553-4.937.262-.875.981-1.538 1.876-1.728.899-.193 1.822.125 2.417.818 1.644 1.918 3.621 6.581 1.09 11.974.867.276 1.818.453 2.592.314.855-.155 1.73.145 2.311.791.58.648.782 1.552.533 2.385-.264.879-1.372 4.241-3.501 6.434 3.333 4.636 9.114 15.796 2.206 31.065-3.024 6.686-6.908 11.465-10.311 15.42-4.207 4.89-6.047 11.272-5.049 17.513 2.339 14.635 9.729 25.444 21.965 32.126 12.717 6.945 19.123 14.231 24.271 20.087 7.537 8.572 12.086 13.746 31.699 10.883 1.07-.157 2.128.397 2.605 1.373.479.975.272 2.147-.51 2.9l-1.524 1.47c2.356-.076 5.201-.368 8.019-1.144.851-.236 1.769-.002 2.405.617.636.617.896 1.525.687 2.386-.153.627-3.271 12.981-12.168 19.69l1.956.471c.918.222 1.633.94 1.849 1.859s-.104 1.881-.828 2.487c-1.027.861-24.991 20.688-54.267 23.981-.437 2.724-1.026 5.426-1.758 8.057-.155.557-.414 1.48-1.124 2.268-.782.87-1.826 1.306-2.984 1.306zm-4.731-6.953c1.71 0 3.209 1.046 3.972 1.577.052.036.102.069.149.1.796-2.924 1.403-5.943 1.807-8.978.155-1.162 1.097-2.061 2.265-2.161 21.735-1.866 41.161-14.07 49.347-19.917l-3.235-.779c-1.09-.263-1.872-1.218-1.913-2.338-.042-1.119.667-2.13 1.733-2.473 7.592-2.439 11.835-10.546 13.769-15.47-5.99.866-10.995.2-11.253.165-.948-.131-1.739-.791-2.036-1.702-.297-.91-.047-1.91.643-2.574l.532-.514c-16.404.884-21.765-5.216-28.86-13.286-4.888-5.559-10.971-12.478-22.912-18.999-13.473-7.357-21.946-19.711-24.506-35.726-1.23-7.695 1.027-15.556 6.195-21.562 3.321-3.861 6.795-8.139 9.547-14.22 7.611-16.826-3.015-27.712-3.122-27.82-.658-.657-.897-1.625-.621-2.513.276-.889 1.023-1.55 1.938-1.716.373-.068.992-.802 1.595-1.862-2.218-.546-3.965-1.568-4.252-1.742-.601-.362-1.021-.961-1.157-1.648-.138-.688.021-1.402.435-1.968 1.412-1.927 1.83-3.627 1.814-4.983-3.223 2.108-8.752 2.901-17.442 4.146-5.235.75-11.751 1.683-19.829 3.155-19.731 3.598-19.739 21.9-18.825 29.602.016.128.209.327.533.364 2.781.322 5.063 1.954 6.357 4.517 5.825.484 10.487 3.3 12.253 7.44 1.189 2.789 1.562 7.284-3.055 13.162 6.537 5.518 8.084 14.915 4.336 26.632-.031.1-.07.198-.114.293-1.648 3.54-3.914 7.38-5.914 10.768-1.188 2.014-2.214 3.752-2.895 5.062-6.791 13.089-16.357 56.131 27.273 81.359 2.78 1.607 5.723 2.979 8.747 4.077.555.201 1.02.591 1.314 1.103 1.699 2.951 3.202 5.718 4.593 8.455.458.901.87 1.714 1.359 2.157.115.104.233.166.312.196.021-.017.044-.032.067-.049.317-.223.796-.559 1.454-.753 2.362-.697 4.072 1.034 4.989 1.967.068.07.147.15.229.231.099-.07.206-.142.322-.21.701-.407 1.398-.565 2.062-.565z"/><path d="m123.019 214.562c-1.143 0-2.396-.425-3.615-1.273-.165-.115-.584-.406-.897-.571-.257.218-.609.488-1.075.695-2.507 1.106-4.403-.823-5.315-1.752-.11-.112-.247-.251-.378-.378-.107.068-.217.134-.329.193-1.851.983-4.169.599-5.91-.98-1.169-1.06-1.841-2.381-2.434-3.547-1.668-3.281-2.347-6.869-3.003-10.339-.396-2.094-.77-4.072-1.336-5.926-.318-1.042.074-2.17.972-2.788.896-.62 2.092-.585 2.951.082 2.784 2.16 5.82 4.194 9.023 6.047 2.779 1.607 5.722 2.979 8.746 4.077.555.201 1.02.591 1.314 1.103 1.699 2.951 3.202 5.718 4.593 8.455v.001c.197.388.399.776.618 1.151.338.578.429 1.267.254 1.913l-.066.255c-.155.559-.41 1.479-1.121 2.272-.785.872-1.832 1.31-2.992 1.31zm-4.73-6.954c1.062 0 2.043.404 2.817.837-1.01-1.938-2.086-3.907-3.261-5.966-2.995-1.141-5.91-2.526-8.678-4.127-1.424-.823-2.817-1.682-4.174-2.569.611 3.231 1.197 6.281 2.503 8.852.46.904.871 1.714 1.359 2.156.116.105.233.167.312.197.021-.016.043-.031.065-.047.317-.224.797-.561 1.456-.755 2.364-.695 4.072 1.035 4.989 1.968.069.069.148.15.229.23.101-.071.21-.144.329-.213.698-.405 1.391-.563 2.054-.563z"/><path d="m86.498 40.976c-1.377 0-2.495-1.114-2.5-2.492-.014-4.444 3.59-8.072 8.034-8.086h.026c4.431 0 8.044 3.599 8.06 8.033.005 1.381-1.11 2.504-2.491 2.509-.003 0-.006 0-.009 0-1.377 0-2.495-1.113-2.5-2.491-.006-1.685-1.378-3.051-3.061-3.051-.003 0-.006 0-.01 0-1.687.005-3.056 1.383-3.05 3.07.004 1.381-1.111 2.503-2.492 2.508-.002 0-.004 0-.007 0z"/><path d="m127.779 109.532c-10.83-5.796-24.654-3.347-32.566 5.838-4.045 4.696-7.281 11.642-7.281 21.848 0 26.014 37.267 52.949 84.401 47.358 2.948-.35 4.096-3.894 1.87-5.789-2.872-2.445-7.017-5.316-12.344-7.319 0 0 .642-12.391-11.99-15.768 0 0 3.437-13.945-11.206-15.961-.001-.001 5.333-21.528-10.884-30.207z" fill="#e3e4e5"/><path d="m127.779 109.532c-10.83-5.796-24.654-3.347-32.566 5.838-4.045 4.696-7.281 11.642-7.281 21.848 0 26.014 37.267 52.949 84.401 47.358 2.948-.35 4.096-3.894 1.87-5.789-2.872-2.445-7.017-5.316-12.344-7.319 0 0 .642-12.391-11.99-15.768 0 0 3.437-13.945-11.206-15.961-.001-.001 5.333-21.528-10.884-30.207z" fill="#e3e4e5"/><path d="m159.872 187.815c-22.716 0-44.024-7.238-58.716-20.29-10.141-9.009-15.725-19.772-15.725-30.308 0-9.506 2.653-17.405 7.886-23.479 8.707-10.108 23.694-12.802 35.641-6.41 14.202 7.6 13.471 24.061 12.589 30.427 3.847.981 6.764 2.91 8.692 5.752 2.479 3.655 2.621 7.896 2.405 10.463 8.575 3.265 11.319 10.847 11.685 15.792 4.124 1.741 7.984 4.132 11.495 7.121 1.776 1.513 2.465 3.827 1.796 6.039-.686 2.268-2.599 3.853-4.993 4.137-4.277.507-8.541.756-12.755.756zm-44.731-78.944c-6.796 0-13.466 2.828-18.034 8.131-4.43 5.141-6.675 11.942-6.675 20.216 0 9.087 4.988 18.522 14.045 26.569 16.366 14.54 41.626 21.379 67.561 18.307.571-.068.747-.455.797-.618.091-.302.007-.566-.252-.786-3.517-2.994-7.421-5.31-11.604-6.883-1.02-.383-1.673-1.382-1.617-2.47.018-.413.32-10.427-10.139-13.223-1.315-.352-2.107-1.691-1.782-3.014.01-.041 1.177-5.111-1.357-8.813-1.506-2.2-4.117-3.57-7.763-4.072-.703-.097-1.331-.487-1.729-1.074s-.528-1.315-.357-2.004c.012-.047 1.234-5.146.566-11.119-.854-7.638-4.287-13.115-10.202-16.281-3.611-1.932-7.556-2.866-11.458-2.866z"/><path d="m161.858 173.968c-.293 0-.59-.052-.879-.161-4.125-1.549-8.467-2.335-12.904-2.335-1.381 0-2.5-1.119-2.5-2.5s1.119-2.5 2.5-2.5c5.04 0 9.974.894 14.662 2.655 1.293.485 1.947 1.927 1.461 3.219-.376 1.003-1.329 1.622-2.34 1.622z"/><path d="m149.87 158.2c-.214 0-.431-.028-.647-.086-1.875-.501-4.021-.755-6.377-.755-1.381 0-2.5-1.119-2.5-2.5s1.119-2.5 2.5-2.5c2.792 0 5.371.312 7.668.925 1.334.356 2.126 1.727 1.77 3.061-.3 1.117-1.309 1.855-2.414 1.855z"/></svg>