<svg enable-background="new 0 0 256 256" height="512" viewBox="0 0 256 256" width="512" xmlns="http://www.w3.org/2000/svg"><path d="m157.268 61.581c-1.334-.875-2.01-2.471-1.613-4.016.553-2.151.858-4.454.858-6.854 0-11.831-7.219-21.421-16.124-21.421-4.146 0-7.925 2.082-10.781 5.499-.712.852-1.985.852-2.697 0-2.856-3.417-6.635-5.499-10.781-5.499-8.906 0-16.125 9.591-16.125 21.421 0 2.401.306 4.703.859 6.854.397 1.546-.278 3.141-1.613 4.016-6.944 4.554-11.217 10.737-11.217 17.552 0 13.999 18.009 25.347 40.225 25.347s40.225-11.348 40.225-25.347c.001-6.815-4.272-12.998-11.216-17.552z" fill="#52565b"/><path d="m140.751 80.953c-3.831.817-8.046 1.281-12.492 1.281s-8.661-.464-12.492-1.281c-.611-.13-1.129.451-.923 1.041 2.079 5.957 7.296 10.186 13.415 10.186s11.335-4.229 13.415-10.186c.206-.59-.312-1.172-.923-1.041z" fill="#fd605b"/><path d="m155.997 19.792c3.45 3.43 6.371 8.042 11.13 9.052-1.431.853-2.861 1.706-4.291 2.559 1.681 2.124 3.135 4.425 4.343 6.849 1.059-.444 2.103-1.007 3.108-1.695 6.426-4.397 8.808-12.093 5.321-17.189-3.487-5.097-11.523-5.664-17.949-1.267-.673.461-1.296.961-1.878 1.487.071.07.146.135.216.204z" fill="#a8aeb2"/><path d="m85.713 36.558c1.005.688 2.049 1.251 3.108 1.695 1.207-2.424 2.662-4.726 4.343-6.849-1.43-.853-2.861-1.706-4.291-2.559 4.758-1.01 7.679-5.622 11.129-9.052.07-.07.146-.134.217-.203-.582-.526-1.205-1.026-1.878-1.487-6.426-4.397-14.462-3.83-17.95 1.267-3.487 5.095-1.104 12.791 5.322 17.188z" fill="#a8aeb2"/><path d="m167.127 28.845c-1.431.853-2.861 1.706-4.291 2.559 1.625 2.053 3.042 4.271 4.226 6.606 1.096-.275 2.196-.748 3.225-1.452 3.78-2.586 5.181-7.113 3.13-10.111s-6.779-3.332-10.559-.745c-.241.165-.467.341-.688.521 1.462 1.242 3.063 2.219 4.957 2.622z" fill="#fd605b"/><path d="m85.713 36.558c1.03.705 2.129 1.177 3.225 1.453 1.184-2.336 2.6-4.554 4.226-6.607-1.43-.853-2.861-1.706-4.291-2.559 1.894-.402 3.495-1.38 4.956-2.622-.221-.18-.447-.356-.688-.521-3.78-2.587-8.507-2.253-10.559.745-2.05 2.998-.649 7.525 3.131 10.111z" fill="#fd605b"/><path d="m218.654 176.732c7.048-15.119-1.548-23.687-17.591-21.326-1.491.22-2.973.503-4.445.825-4.826 30.186-17.416 51.037-15.645 62.55.363 2.359.33 4.23.029 5.72 2.567 1.301 5.503 2.022 8.402 2.582.855.165 1.678-.409 1.813-1.269l.352-2.247c.151-.965 1.154-1.545 2.066-1.194l1.58.608c1.092.42 2.233-.488 2.069-1.647l-.095-.668c-.141-.991.69-1.841 1.685-1.731.489.054.98.094 1.471.118 1.262.063 2.008-1.333 1.316-2.391-2.03-3.104-2.823-7.026-2.041-10.659 1.795-8.337 10.697-11.389 19.034-29.271z" fill="#a8aeb2"/><path d="m75.028 218.782c1.771-11.514-10.819-32.365-15.645-62.55-1.473-.323-2.955-.606-4.445-.825-16.043-2.361-24.639 6.206-17.591 21.326 8.337 17.882 17.239 20.934 19.033 29.272.782 3.633-.011 7.555-2.041 10.659-.692 1.058.054 2.454 1.316 2.391.492-.024.982-.064 1.471-.118.995-.11 1.826.739 1.685 1.731l-.095.668c-.164 1.159.977 2.067 2.069 1.647l1.58-.608c.912-.35 1.914.229 2.066 1.194l.352 2.247c.135.86.957 1.434 1.813 1.269 2.899-.56 5.835-1.281 8.402-2.582-.3-1.491-.333-3.362.03-5.721z" fill="#a8aeb2"/><path d="m203.065 118.682c-1.889-7.5-5.505-14.155-6.838-16.457-.245-.424.002-.958.482-1.054l3.382-.677c.51-.102.749-.704.446-1.125-4.363-6.066-9.478-10.88-13.81-14.354-2.594-2.081-5.024-4.359-7.249-6.831-2.438-2.708-5.023-5.054-7.692-7.036-.089 4.137-1.531 8.174-3.739 11.712.076-.324.141-.651.197-.979-2.175 12.706-19.244 22.599-39.986 22.599-19.426 0-35.634-8.677-39.399-20.216-2.723-3.85-4.545-8.428-4.641-13.121-2.671 1.983-5.258 4.33-7.698 7.04-2.225 2.471-4.655 4.75-7.249 6.831-4.332 3.475-9.447 8.289-13.81 14.354-.303.422-.064 1.024.446 1.125l3.382.677c.48.096.728.631.482 1.054-1.333 2.302-4.949 8.957-6.838 16.457-.137.545.392 1.025.925.847l3.794-1.265c.505-.168 1.003.248.927.775-.666 4.62-1.029 9.474-1.029 14.55 0 42.596 19.66 70.994 17.475 85.193-1.853 12.044 6.51 11.514 9.091 11.076.453-.077.821-.402.967-.837l.709-2.128c.073-.219.34-.281.512-.127 2.214 1.972 5.23 2.621 6.975 2.835.749.092 1.406-.49 1.406-1.245v-1.078c0-.282.329-.415.535-.223 1.586 1.48 4.546 1.754 6.7 1.731 1.4-.015 2.474-1.242 2.317-2.634l-2.946-21.725s8.236-3.354 26.706-4.075c18.471.72 26.706 4.075 26.706 4.075l-2.946 21.725c-.157 1.391.917 2.619 2.317 2.634 2.154.023 5.114-.251 6.7-1.731.206-.192.535-.059.535.223v1.078c0 .754.656 1.337 1.406 1.245 1.745-.214 4.76-.862 6.975-2.835.172-.153.439-.091.512.127l.709 2.128c.145.436.513.761.967.837 2.581.438 10.944.968 9.091-11.076-2.184-14.199 17.475-42.596 17.475-85.193 0-5.076-.363-9.93-1.029-14.55-.076-.527.423-.943.927-.775l3.794 1.265c.537.178 1.066-.302.929-.846z" fill="#a8aeb2"/><path d="m165.949 54.415c2.034.234 4.138-.189 5.924-1.189-3.402-2.724-5.944-6.507-7.18-10.686 1.416-.064 2.831-.128 4.246-.193-1.43-3.944-3.5-7.655-6.104-10.944 1.43-.853 2.86-1.707 4.291-2.56-4.759-1.01-7.679-5.622-11.13-9.052-2.886-2.869-6.432-5.07-10.284-6.384 1.234-.13 2.468-.259 3.701-.389-4.131-3.637-9.406-5.905-14.867-6.553-2.038-1.346-4.872-2.83-8.579-3.909-1.178-.342-2.198.9-1.628 1.986.271.517.542 1.102.795 1.726-6.726-.115-13.493 2.299-18.549 6.75 1.233.13 2.467.259 3.701.389-3.852 1.313-7.398 3.514-10.284 6.384-3.45 3.43-6.371 8.042-11.129 9.052 1.43.853 2.86 1.706 4.291 2.56-2.604 3.289-4.674 7-6.104 10.944 1.416.064 2.831.128 4.247.193-1.237 4.179-3.778 7.962-7.18 10.686 1.786 1 3.89 1.422 5.924 1.189-4.845 4.748-8.622 10.582-10.971 16.946 1.708-.438 3.417-.875 5.126-1.313-.195 5.074 1.72 10.066 4.655 14.216-.541-1.657-.826-3.374-.826-5.132 0-6.814 4.273-12.997 11.217-17.552 1.334-.875 2.01-2.471 1.613-4.016-.553-2.151-.859-4.454-.859-6.854 0-11.831 7.219-21.421 16.125-21.421 4.146 0 7.925 2.082 10.781 5.499.712.852 1.985.852 2.697 0 2.856-3.417 6.635-5.499 10.781-5.499 8.906 0 16.125 9.591 16.125 21.421 0 2.401-.305 4.703-.858 6.854-.397 1.545.278 3.141 1.613 4.016 6.944 4.554 11.217 10.737 11.217 17.552 0 1.267-.152 2.511-.437 3.728 2.403-3.851 3.92-8.293 3.747-12.812 1.708.438 3.417.875 5.125 1.313-2.351-6.364-6.127-12.197-10.973-16.946z" fill="#a8aeb2"/><g fill="#52565b"><path d="m153.161 111.417h-15.943c-3.805 0-7.179 1.918-9.218 4.83-2.039-2.912-5.413-4.83-9.218-4.83h-15.943c-6.19 0-11.254 5.064-11.254 11.254v11.254c0 6.19 5.064 11.254 11.254 11.254h.674c-2.165 4.579-3.397 9.832-3.397 15.418 0 17.789 12.484 32.211 27.884 32.211s27.884-14.421 27.884-32.211c0-5.586-1.232-10.839-3.397-15.418h.674c6.19 0 11.254-5.064 11.254-11.254v-11.255c0-6.189-5.065-11.253-11.254-11.253z"/><path d="m180.796 225.322c-1.57 5.254-6.938 4.871-8.915 4.536-.453-.077-.821-.402-.966-.838l-.709-2.128c-.073-.219-.34-.281-.512-.127-2.214 1.972-5.23 2.621-6.975 2.835-.749.092-1.405-.49-1.405-1.245v-1.078c0-.282-.329-.415-.535-.223-1.586 1.48-4.546 1.754-6.7 1.731-.602-.006-1.135-.246-1.545-.617-1.784 1.99-3.886 3.785-5.175 6.122-.981 1.778-1.301 4.316.279 5.591.971.783 2.473.914 3.112 1.985.241.403.315.886.32 1.356.024 2.278-1.373 4.832.001 6.649.439.58 1.094.952 1.747 1.271 3.976 1.945 8.607 2.521 12.939 1.609 1.765-.371 3.518-.985 5.319-.879 1.665.098 3.228.803 4.853 1.179 2.842.657 6.173.127 8.034-2.118 1.152-1.39 1.592-3.225 1.887-5.005.316-1.914.503-3.857.401-5.794-.281-5.32-2.682-10.194-5.455-14.812z"/><path d="m222.987 229.079c-1.591-3.327-5.516-4.784-9.142-5.456-3.626-.673-7.511-.946-10.527-3.069-.747-.526-1.388-1.152-1.972-1.83-.266.214-.603.349-1.001.329-.491-.024-.982-.064-1.471-.118-.995-.11-1.826.739-1.685 1.731l.095.668c.164 1.158-.977 2.067-2.069 1.647l-1.58-.608c-.912-.35-1.914.229-2.066 1.194l-.353 2.247c-.135.86-.957 1.434-1.812 1.269-2.899-.56-5.835-1.28-8.402-2.582-.058.288-.127.561-.205.821 2.131 3.551 4.033 7.255 4.931 11.195 1.816 1.263 3.923 2.066 6.01 2.825 1.43.52 2.941 1.048 4.44.79.999-.172 1.964-.69 2.969-.558.634.084 1.201.419 1.765.72 4.086 2.177 8.984 2.785 13.479 1.671 2.872-.712 5.647-2.171 7.439-4.527 1.79-2.355 2.434-5.689 1.157-8.359z"/><path d="m75.204 225.322c1.57 5.254 6.938 4.871 8.915 4.536.453-.077.821-.402.966-.838l.709-2.128c.073-.219.34-.281.512-.127 2.214 1.972 5.23 2.621 6.975 2.835.749.092 1.405-.49 1.405-1.245v-1.078c0-.282.329-.415.535-.223 1.586 1.48 4.546 1.754 6.7 1.731.602-.006 1.135-.246 1.545-.617 1.784 1.99 3.886 3.785 5.175 6.122.981 1.778 1.301 4.316-.279 5.591-.971.783-2.473.914-3.112 1.985-.241.403-.315.886-.32 1.356-.024 2.278 1.373 4.832-.001 6.649-.439.58-1.094.952-1.747 1.271-3.976 1.945-8.607 2.521-12.939 1.609-1.765-.371-3.518-.985-5.319-.879-1.665.098-3.228.803-4.853 1.179-2.842.657-6.173.127-8.034-2.118-1.152-1.39-1.592-3.225-1.887-5.005-.316-1.914-.503-3.857-.401-5.794.281-5.32 2.682-10.194 5.455-14.812z"/><path d="m33.013 229.079c1.591-3.327 5.516-4.784 9.142-5.456 3.626-.673 7.511-.946 10.527-3.069.747-.526 1.388-1.152 1.972-1.83.266.214.603.349 1.001.329.491-.024.982-.064 1.471-.118.995-.11 1.826.739 1.685 1.731l-.095.668c-.164 1.158.977 2.067 2.069 1.647l1.58-.608c.912-.35 1.914.229 2.065 1.194l.353 2.247c.135.86.957 1.434 1.812 1.269 2.899-.56 5.835-1.28 8.402-2.582.058.288.127.561.205.821-2.132 3.551-4.033 7.255-4.931 11.195-1.816 1.263-3.923 2.066-6.01 2.825-1.43.52-2.941 1.048-4.44.79-.999-.172-1.964-.69-2.969-.558-.634.084-1.201.419-1.765.72-4.086 2.177-8.985 2.785-13.479 1.671-2.872-.712-5.647-2.171-7.439-4.527-1.789-2.355-2.433-5.689-1.156-8.359z"/></g><path d="m128 195.307c-16.754 0-30.384-15.571-30.384-34.711 0-4.546.785-9.058 2.288-13.233-6.18-1.348-10.819-6.861-10.819-13.438v-11.255c0-7.583 6.17-13.753 13.754-13.753h15.943c3.431 0 6.71 1.299 9.218 3.573 2.508-2.274 5.787-3.573 9.218-3.573h15.943c7.584 0 13.754 6.17 13.754 13.753v11.254c0 6.577-4.64 12.091-10.819 13.438 1.503 4.176 2.288 8.688 2.288 13.233 0 19.14-13.63 34.712-30.384 34.712zm-25.161-81.39c-4.827 0-8.754 3.927-8.754 8.753v11.254c0 4.827 3.927 8.754 8.754 8.754h.675c.856 0 1.653.438 2.112 1.162.458.725.514 1.632.147 2.406-2.065 4.368-3.157 9.33-3.157 14.35 0 16.383 11.387 29.711 25.384 29.711s25.384-13.328 25.384-29.711c0-5.02-1.092-9.981-3.157-14.35-.366-.774-.311-1.682.147-2.406.459-.724 1.256-1.162 2.112-1.162h.675c4.827 0 8.754-3.927 8.754-8.754v-11.254c0-4.826-3.927-8.753-8.754-8.753h-15.943c-2.839 0-5.52 1.407-7.17 3.764-.468.669-1.232 1.066-2.048 1.066s-1.58-.397-2.048-1.066c-1.65-2.356-4.331-3.764-7.17-3.764z"/><path d="m154.709 206.927c-.083 0-.166-.004-.25-.013-1.374-.136-2.377-1.36-2.24-2.734l1.615-16.284c.136-1.374 1.372-2.375 2.734-2.24 1.374.136 2.377 1.36 2.24 2.734l-1.615 16.284c-.128 1.29-1.214 2.253-2.484 2.253z"/><path d="m178.204 255.813c-.932 0-1.885-.106-2.838-.327-.661-.152-1.28-.343-1.878-.526-.917-.281-1.782-.548-2.56-.593-.976-.061-2.078.213-3.248.501-.47.115-.939.229-1.409.328-4.894 1.031-10.062.388-14.552-1.809-.887-.436-1.89-1.013-2.644-2.01-1.577-2.086-1.109-4.486-.768-6.239.137-.702.267-1.366.261-1.892 0-.024-.001-.046-.002-.065-.16-.088-.415-.2-.6-.281-.558-.245-1.252-.551-1.901-1.074-2.72-2.197-2.371-6.073-.896-8.745 1.096-1.986 2.598-3.54 4.05-5.044.491-.509.983-1.017 1.451-1.538.444-.495 1.067-.793 1.731-.828.646-.031 1.286.188 1.775.615 2.348-.026 4.163-.379 4.895-1.061.823-.769 2.021-.976 3.052-.529.904.393 1.526 1.226 1.661 2.186 1.336-.296 2.994-.871 4.244-1.984.719-.637 1.693-.87 2.615-.621.914.246 1.637.931 1.935 1.831l.462 1.387c2.142.222 4.557-.2 5.36-2.889.284-.948 1.102-1.641 2.084-1.764.984-.119 1.946.346 2.455 1.194 2.692 4.485 5.487 9.89 5.807 15.965.1 1.897-.041 3.969-.431 6.332-.334 2.019-.884 4.331-2.429 6.194-1.748 2.112-4.592 3.286-7.682 3.286zm-7.542-6.454c.185 0 .371.005.56.016 1.378.081 2.63.466 3.734.806.51.156 1.019.314 1.536.435 1.872.431 4.316.206 5.546-1.278.782-.944 1.109-2.394 1.345-3.818.335-2.03.453-3.701.372-5.255-.188-3.554-1.496-6.975-3.094-10.081-2.484 2.238-6.062 2.672-9.199 2.14-1.155-.194-2.137-.918-2.676-1.941-2.015 1.039-4.131 1.5-5.766 1.699-1.07.131-2.139-.202-2.942-.914-.206-.182-.39-.385-.548-.603-1.506.501-3.334.741-5.479.722-.311-.004-.618-.038-.92-.101-.104.109-.21.219-.315.327-1.282 1.327-2.493 2.58-3.269 3.985-.591 1.07-.613 2.218-.339 2.438.13.105.472.256.772.389.896.394 2.124.934 2.915 2.26.437.729.663 1.608.674 2.61.011 1.034-.183 2.026-.353 2.901-.171.874-.383 1.962-.152 2.267.092.122.38.302.854.535 3.493 1.707 7.513 2.209 11.323 1.406.417-.088.832-.19 1.248-.292 1.257-.308 2.662-.653 4.173-.653zm-8.179-20.478c-.001.001-.002.003-.004.004.002-.001.003-.003.004-.004zm10.802-.654.002.003c-.001-.001-.001-.002-.002-.003zm-5.452-.544c.002.004.003.008.004.012zm4.462-.291c.002.001.003.001.004.001-.001 0-.002 0-.004-.001z"/><path d="m209.891 245.008c-3.523 0-7.052-.854-10.154-2.508l-.183-.098c-.242-.131-.606-.327-.738-.351-.131.016-.591.124-.891.212-.389.115-.828.246-1.32.331-2.192.382-4.232-.363-5.721-.903-2.313-.841-4.557-1.713-6.584-3.123-.512-.355-.871-.889-1.01-1.496-.891-3.91-2.946-7.646-4.637-10.464-.36-.601-.452-1.326-.253-1.998.056-.189.106-.388.148-.598.153-.768.656-1.418 1.359-1.76.701-.343 1.524-.337 2.224.019 2.106 1.068 4.543 1.701 6.77 2.162l.197-1.254c.189-1.21.906-2.255 1.967-2.868 1.061-.611 2.324-.712 3.466-.271l.155.06c.078-.913.466-1.774 1.121-2.45.873-.899 2.087-1.344 3.341-1.198.326.035.655.064.984.086 1.018-.565 2.322-.356 3.108.556.513.597 1.009 1.061 1.517 1.418 2 1.407 4.673 1.844 7.502 2.306.685.112 1.367.224 2.04.349 5.589 1.036 9.27 3.336 10.943 6.836 1.618 3.387 1.06 7.685-1.424 10.95-2.517 3.31-6.188 4.785-8.826 5.44-1.665.411-3.383.615-5.101.615zm-11.086-7.956c.216 0 .439.014.669.044 1.024.136 1.849.58 2.451.904l.163.088c3.541 1.888 7.806 2.419 11.701 1.45 2.625-.651 4.773-1.935 6.05-3.613 1.341-1.763 1.699-4.08.893-5.768-.944-1.976-3.415-3.348-7.343-4.076-.639-.118-1.286-.224-1.935-.33-3.11-.508-6.636-1.084-9.574-3.151-.441-.312-.868-.658-1.285-1.048-.124.004-.247.005-.373-.001-.141-.007-.281-.016-.422-.024.011 1.233-.536 2.394-1.523 3.179-1.13.901-2.608 1.129-3.96.608l-.464-.178-.167 1.066c-.168 1.074-.775 2.049-1.666 2.675-.892.626-2.016.866-3.09.661-1.072-.207-2.213-.445-3.377-.745.924 1.899 1.772 3.976 2.36 6.157 1.369.81 2.942 1.411 4.679 2.042 1.066.388 2.273.831 3.162.676.25-.043.498-.123.747-.197.643-.191 1.411-.419 2.304-.419z"/><path d="m101.291 206.927c-1.27 0-2.356-.963-2.485-2.253l-1.608-16.228c-.137-1.374.866-2.599 2.24-2.735 1.387-.129 2.598.868 2.735 2.241l1.608 16.228c.137 1.374-.866 2.599-2.24 2.734-.084.009-.168.013-.25.013z"/><path d="m77.796 255.813c-3.09 0-5.934-1.175-7.684-3.287-1.545-1.862-2.095-4.175-2.429-6.191-.39-2.365-.53-4.437-.431-6.333.319-6.076 3.114-11.48 5.807-15.966.509-.849 1.472-1.313 2.455-1.194.982.123 1.8.815 2.084 1.764.805 2.69 3.225 3.111 5.36 2.889l.464-1.394c.296-.894 1.019-1.578 1.933-1.824.919-.248 1.896-.017 2.611.618 1.253 1.115 2.912 1.691 4.248 1.987.135-.96.757-1.793 1.661-2.186 1.028-.446 2.229-.239 3.053.53.716.667 2.486 1.06 4.76 1.06h.134c.488-.427 1.107-.646 1.775-.614.664.034 1.287.332 1.731.827.468.521.96 1.029 1.451 1.538 1.452 1.504 2.954 3.058 4.05 5.044 1.475 2.672 1.823 6.548-.896 8.745-.65.523-1.345.829-1.902 1.074-.185.081-.439.193-.6.281-.001.02-.002.041-.002.065-.006.525.124 1.189.261 1.892.342 1.753.81 4.153-.768 6.239-.754.997-1.757 1.574-2.64 2.008-4.495 2.197-9.665 2.839-14.556 1.811-.47-.099-.939-.213-1.409-.328-1.17-.288-2.276-.562-3.248-.501-.777.045-1.643.312-2.56.593-.598.184-1.217.374-1.877.526-.95.221-1.904.327-2.836.327zm-2.457-25.63c-1.598 3.106-2.906 6.527-3.094 10.082-.081 1.553.037 3.224.372 5.256.235 1.423.562 2.872 1.345 3.815 1.229 1.484 3.672 1.711 5.547 1.279.517-.12 1.025-.278 1.535-.435 1.104-.34 2.356-.725 3.734-.806 1.73-.096 3.322.292 4.731.637.416.102.831.204 1.248.292 3.81.801 7.83.302 11.327-1.408.471-.231.759-.411.851-.533.23-.305.019-1.393-.152-2.267-.17-.875-.363-1.867-.353-2.901.011-1.002.237-1.881.675-2.612.79-1.324 2.018-1.864 2.914-2.258.301-.133.643-.283.773-.389.273-.221.251-1.368-.34-2.438-.775-1.405-1.986-2.658-3.269-3.985-.105-.108-.211-.218-.315-.327-.301.063-.608.097-.918.101-2.139.017-3.977-.22-5.481-.722-.159.219-.342.421-.548.603-.803.712-1.875 1.042-2.943.914-1.634-.199-3.749-.66-5.765-1.699-.537 1.022-1.521 1.747-2.681 1.942-3.128.53-6.709.099-9.193-2.141zm18.179-1.301.004.004c-.001-.001-.002-.002-.004-.004zm-10.805-.652c0 .001 0 .002-.001.003zm5.456-.554-.004.012c.001-.004.002-.008.004-.012zm-4.469-.283c-.001 0-.002.001-.003.001.001 0 .002-.001.003-.001z"/><path d="m46.109 245.008c-1.719 0-3.436-.203-5.102-.616-2.639-.655-6.311-2.131-8.827-5.441-2.483-3.265-3.042-7.562-1.424-10.949 1.674-3.5 5.354-5.8 10.942-6.836.674-.125 1.356-.236 2.041-.349 2.829-.462 5.502-.898 7.503-2.307.507-.356 1.003-.82 1.516-1.417.787-.911 2.091-1.12 3.108-.556.329-.021.658-.051.987-.087 1.243-.137 2.464.299 3.338 1.199.655.676 1.043 1.537 1.121 2.45l.155-.061c1.144-.439 2.407-.34 3.466.272 1.061.613 1.777 1.658 1.967 2.869l.197 1.253c2.227-.461 4.663-1.094 6.77-2.162.698-.355 1.521-.361 2.224-.019s1.206.992 1.359 1.76c.042.21.093.408.148.598.199.672.107 1.397-.253 1.998-1.69 2.818-3.746 6.554-4.637 10.464-.139.607-.498 1.141-1.01 1.496-2.027 1.41-4.271 2.282-6.583 3.123-1.488.54-3.521 1.28-5.719.904-.495-.086-.935-.217-1.323-.332-.3-.09-.778-.211-.896-.211-.126.022-.49.219-.732.35l-.183.098c-3.101 1.655-6.63 2.509-10.153 2.509zm-10.84-14.851c-.807 1.688-.448 4.005.893 5.767 1.276 1.68 3.425 2.963 6.051 3.614 3.893.969 8.158.438 11.7-1.45l.162-.088c.603-.324 1.427-.769 2.45-.904 1.184-.156 2.176.139 2.974.375.249.074.497.154.75.198.885.151 2.093-.289 3.16-.677 1.735-.631 3.309-1.232 4.678-2.042.588-2.182 1.437-4.258 2.36-6.157-1.164.3-2.305.538-3.377.745-1.073.205-2.198-.035-3.09-.661-.891-.626-1.498-1.601-1.666-2.676l-.167-1.065-.464.179c-1.352.517-2.831.29-3.96-.609-.987-.785-1.534-1.945-1.523-3.179-.14.009-.28.018-.421.024-.124.006-.25.006-.374.001-.417.389-.843.736-1.284 1.047-2.939 2.068-6.465 2.645-9.575 3.152-.648.106-1.296.212-1.936.33-3.926.729-6.397 2.101-7.341 4.076z"/><path d="m189.689 229.61c-.254 0-.508-.024-.76-.072-2.812-.543-6.088-1.301-9.059-2.806-1.003-.509-1.544-1.624-1.32-2.727.262-1.295.246-2.925-.049-4.845-.99-6.432 1.911-14.998 5.583-25.845 3.437-10.15 7.714-22.782 10.063-37.479.162-1.015.929-1.827 1.933-2.047 1.643-.361 3.153-.642 4.617-.857 9.34-1.374 16.561.654 20.329 5.712 3.497 4.693 3.459 11.492-.108 19.144-4.605 9.879-9.493 15.511-13.062 19.622-2.957 3.406-5.093 5.867-5.793 9.119-.627 2.912.004 6.188 1.688 8.765.847 1.296.898 2.928.135 4.259-.751 1.307-2.158 2.06-3.667 1.998-.141-.007-.28-.016-.421-.024.011 1.233-.537 2.394-1.523 3.179-1.13.901-2.608 1.129-3.96.608l-.464-.178-.167 1.066c-.168 1.074-.775 2.049-1.666 2.675-.681.479-1.5.733-2.329.733zm-5.983-6.637c1.695.662 3.506 1.111 5.195 1.461l.197-1.254c.189-1.209.906-2.255 1.966-2.867 1.059-.613 2.322-.713 3.466-.273l.156.061c.078-.913.466-1.774 1.121-2.45.755-.777 1.767-1.21 2.834-1.224-1.718-3.389-2.254-7.288-1.466-10.949.971-4.507 3.59-7.524 6.905-11.344 3.563-4.105 7.997-9.214 12.307-18.458 2.753-5.905 2.978-10.894.63-14.043-2.58-3.463-8.257-4.832-15.591-3.752-.848.125-1.716.273-2.623.451-2.462 14.377-6.618 26.651-9.982 36.589-3.454 10.2-6.182 18.257-5.378 23.481.254 1.653.342 3.182.263 4.571zm15.862-4.944h.01z"/><path d="m66.311 229.61c-.828 0-1.647-.254-2.33-.733-.891-.626-1.498-1.601-1.666-2.676l-.167-1.065-.464.179c-1.352.517-2.829.29-3.96-.609-.987-.785-1.534-1.945-1.523-3.179-.14.009-.28.018-.421.024-1.496.06-2.916-.69-3.667-1.998-.764-1.331-.712-2.963.134-4.258 1.686-2.577 2.316-5.854 1.689-8.766-.7-3.252-2.836-5.713-5.793-9.119-3.568-4.111-8.456-9.743-13.062-19.622-3.567-7.651-3.605-14.45-.108-19.144 3.769-5.058 10.986-7.086 20.329-5.712 1.464.216 2.975.496 4.617.857 1.004.22 1.771 1.032 1.933 2.047 2.35 14.697 6.627 27.329 10.063 37.479 3.672 10.846 6.572 19.413 5.583 25.845-.295 1.92-.311 3.55-.049 4.845.224 1.103-.317 2.218-1.32 2.727-2.971 1.505-6.246 2.263-9.059 2.806-.252.048-.506.072-.759.072zm-3.391-9.841c.698 0 1.393.184 2.016.544 1.06.612 1.776 1.658 1.966 2.868l.197 1.253c1.689-.35 3.5-.799 5.195-1.461-.079-1.388.009-2.918.263-4.571.804-5.225-1.924-13.281-5.378-23.481-3.364-9.938-7.521-22.212-9.982-36.589-.907-.178-1.775-.326-2.623-.451-7.333-1.082-13.012.289-15.591 3.752-2.348 3.149-2.123 8.138.63 14.043 4.31 9.244 8.743 14.353 12.307 18.458 3.315 3.819 5.935 6.837 6.905 11.344.788 3.661.252 7.56-1.466 10.949 1.068.014 2.079.446 2.834 1.224.655.676 1.043 1.537 1.121 2.45l.155-.061c.47-.182.962-.271 1.451-.271z"/><path d="m128.296 142.634c-1.381 0-2.5-1.119-2.5-2.5v-16.086c0-1.381 1.119-2.5 2.5-2.5s2.5 1.119 2.5 2.5v16.086c0 1.381-1.119 2.5-2.5 2.5z"/><path d="m151 138.17c-.65 0-1.3-.271-1.76-.73-.471-.46-.73-1.109-.73-1.77s.26-1.3.73-1.771c.579-.58 1.439-.85 2.25-.68.159.03.319.08.47.14.149.07.3.141.43.23.141.09.271.2.38.31.471.471.74 1.11.74 1.771s-.27 1.3-.74 1.77c-.46.459-1.11.73-1.77.73z"/><path d="m103.689 138.17c-.659 0-1.3-.271-1.76-.73-.47-.46-.74-1.109-.74-1.77s.271-1.3.73-1.771c.12-.109.25-.22.38-.31.14-.09.29-.16.44-.23.149-.06.31-.109.46-.14.33-.07.659-.07.979 0 .16.03.32.08.47.14.15.07.301.141.431.23.14.09.27.2.38.31.47.471.729 1.11.729 1.771s-.26 1.3-.729 1.77c-.11.11-.24.221-.38.311-.141.09-.28.17-.431.229-.149.061-.31.11-.47.141-.158.039-.319.049-.489.049z"/><path d="m82.121 232.525c-2.128 0-4.912-.484-7.031-2.57-2.484-2.446-3.337-6.333-2.533-11.554.804-5.225-1.924-13.28-5.378-23.479-5.117-15.112-12.126-35.81-12.126-61.334 0-4.057.229-8.098.685-12.05l-1.087.362c-1.121.371-2.347.104-3.209-.696-.859-.798-1.216-1.997-.932-3.132 1.537-6.101 4.138-11.612 5.897-14.93l-.989-.198c-1.08-.217-1.963-.958-2.365-1.982-.402-1.023-.26-2.166.381-3.056 3.831-5.325 8.634-10.319 14.274-14.844 2.521-2.021 4.86-4.226 6.956-6.553 2.496-2.774 5.21-5.256 8.064-7.375.751-.557 1.751-.648 2.591-.237.84.412 1.38 1.259 1.398 2.193.103 4.951 2.331 9.11 4.184 11.728.145.205.258.431.336.669 3.495 10.715 19.065 18.491 37.022 18.491 18.966 0 35.37-8.914 37.487-20.33.012-.062.022-.124.033-.187 0-.002 0-.002.001-.004 0-.001 0-.002 0-.003.128-.741.57-1.35 1.166-1.712 1.476-2.862 2.279-5.819 2.341-8.65.02-.935.56-1.78 1.399-2.191.838-.412 1.839-.32 2.59.238 2.853 2.118 5.564 4.599 8.06 7.37 2.095 2.327 4.435 4.531 6.955 6.553 5.641 4.524 10.443 9.519 14.274 14.845.641.889.783 2.031.381 3.055s-1.285 1.766-2.362 1.982l-.992.198c1.76 3.316 4.36 8.828 5.896 14.928.001 0 .001.001.001.002.284 1.135-.072 2.334-.932 3.132-.862.8-2.092 1.064-3.206.697l-1.09-.363c.455 3.952.685 7.993.685 12.05 0 25.524-7.009 46.222-12.126 61.334-3.454 10.198-6.182 18.254-5.378 23.479.804 5.221-.049 9.107-2.533 11.554-3.107 3.057-7.643 2.675-9.448 2.367-1.154-.194-2.137-.918-2.676-1.941-2.017 1.039-4.132 1.5-5.766 1.699-1.07.131-2.139-.202-2.942-.914-.206-.182-.389-.384-.548-.603-1.505.501-3.329.743-5.479.722-1.369-.015-2.676-.611-3.583-1.639-.912-1.031-1.346-2.407-1.191-3.776l2.673-19.719c-3.274-.956-11.058-2.787-23.949-3.298-12.887.511-20.67 2.341-23.949 3.298l2.666 19.664c.161 1.424-.272 2.8-1.185 3.831-.907 1.027-2.214 1.624-3.583 1.639-2.158.03-3.976-.221-5.479-.722-.159.219-.342.421-.548.603-.803.712-1.875 1.042-2.943.914-1.634-.199-3.749-.66-5.765-1.699-.54 1.024-1.522 1.747-2.681 1.942-.572.097-1.421.202-2.412.202zm2.524-3.893c.001.002.003.003.005.004-.003-.001-.004-.002-.005-.004zm86.712-.002c-.002.002-.003.003-.005.005.002-.002.003-.003.005-.005zm-3.524-.948c.001.003.002.006.003.01zm-79.664-.006-.004.01c.002-.003.003-.007.004-.01zm-30.28-111.951c.738 0 1.461.257 2.049.748.861.719 1.278 1.812 1.118 2.925-.666 4.614-1.003 9.39-1.003 14.191 0 24.7 6.855 44.946 11.862 59.729 3.672 10.846 6.573 19.411 5.583 25.843-.537 3.493-.157 5.993 1.1 7.23 1.188 1.17 3.18 1.206 4.364 1.096l.461-1.386c.296-.896 1.021-1.581 1.937-1.826.922-.245 1.897-.013 2.611.624 1.25 1.112 2.909 1.687 4.244 1.983.135-.96.757-1.793 1.661-2.186 1.031-.448 2.229-.24 3.053.529.715.667 2.486 1.06 4.759 1.06h.048l-2.919-21.523c-.153-1.13.479-2.221 1.534-2.651.354-.144 8.857-3.528 27.552-4.258.064-.002.131-.002.195 0 18.694.729 27.198 4.114 27.552 4.258 1.056.431 1.688 1.521 1.534 2.651l-2.918 21.523h.047c2.273 0 4.044-.393 4.76-1.061.822-.768 2.021-.977 3.052-.528.903.393 1.526 1.226 1.661 2.185 1.336-.296 2.995-.871 4.246-1.984.713-.636 1.688-.866 2.609-.622.916.245 1.641.931 1.938 1.832l.459 1.38c1.187.105 3.176.074 4.364-1.096 1.257-1.237 1.637-3.737 1.1-7.23-.99-6.432 1.911-14.997 5.583-25.843 5.007-14.783 11.862-35.029 11.862-59.729 0-4.802-.337-9.577-1.003-14.193-.16-1.111.257-2.204 1.118-2.923.86-.72 2.01-.937 3.077-.579l.576.192c-1.865-5.762-4.484-10.592-5.652-12.607-.518-.895-.572-1.988-.148-2.928.426-.942 1.285-1.627 2.301-1.832l.609-.121c-3.262-4.131-7.175-8.035-11.662-11.634-2.729-2.189-5.268-4.581-7.542-7.107-1.261-1.4-2.58-2.718-3.945-3.94-.632 2.683-1.742 5.361-3.296 7.925-3.427 13.296-21.13 23.139-42.12 23.139-20.191 0-37.238-8.854-41.654-21.578-2.087-3.023-3.534-6.235-4.287-9.48-1.363 1.222-2.681 2.537-3.938 3.935-2.275 2.527-4.813 4.919-7.543 7.108-4.487 3.599-8.4 7.504-11.662 11.634l.606.121c1.019.205 1.878.89 2.304 1.832.424.939.369 2.033-.147 2.926-1.169 2.017-3.788 6.848-5.653 12.609l.578-.193c.336-.115.682-.17 1.025-.17zm142.752 3.564c0 .001 0 .001 0 0z"/><path d="m88.861 86.764c-.789 0-1.56-.374-2.042-1.057-2.771-3.919-4.487-8.248-4.979-12.472l-2.14.548c-.9.231-1.854-.058-2.477-.747-.622-.69-.811-1.669-.489-2.54 1.895-5.134 4.688-9.964 8.188-14.189-.697-.238-1.373-.539-2.017-.898-.726-.406-1.201-1.147-1.27-1.976-.068-.829.279-1.638.929-2.157 2.147-1.721 3.913-3.928 5.143-6.395l-.759-.035c-.794-.035-1.524-.446-1.966-1.108-.442-.661-.543-1.493-.272-2.24 1.203-3.319 2.815-6.457 4.807-9.357l-1.923-1.147c-.885-.526-1.355-1.541-1.188-2.556.169-1.016.941-1.824 1.948-2.037 2.824-.6 5.034-3.068 7.374-5.682.805-.899 1.637-1.828 2.512-2.698 1.758-1.748 3.746-3.272 5.891-4.527-.166-.862.133-1.759.804-2.35 4.602-4.051 10.562-6.596 16.746-7.225-.005-.885.294-1.765.879-2.481.991-1.214 2.601-1.713 4.105-1.28 3.198.932 6.144 2.243 8.765 3.903 5.817.808 11.351 3.31 15.637 7.084.67.59.969 1.486.803 2.349 2.145 1.255 4.133 2.778 5.892 4.526.875.87 1.706 1.8 2.511 2.698 2.34 2.614 4.55 5.083 7.374 5.683 1.007.213 1.779 1.021 1.948 2.036.168 1.016-.303 2.029-1.187 2.557l-1.924 1.147c1.99 2.899 3.603 6.035 4.808 9.356.271.748.17 1.58-.271 2.241-.442.661-1.173 1.073-1.967 1.108l-.76.035c1.229 2.467 2.995 4.675 5.144 6.394.649.521.997 1.329.929 2.158-.068.828-.544 1.569-1.27 1.976-.644.36-1.319.66-2.017.898 3.498 4.226 6.292 9.056 8.188 14.188.321.872.133 1.851-.489 2.541-.623.689-1.576.979-2.477.747l-2.138-.548c-.426 3.67-1.78 7.4-3.994 10.948-.648 1.037-1.951 1.455-3.081.985s-1.753-1.688-1.474-2.879c.245-1.05.37-2.111.37-3.157 0-5.704-3.583-11.195-10.088-15.461-2.248-1.475-3.318-4.18-2.662-6.729.517-2.014.779-4.11.779-6.232 0-10.433-6.112-18.921-13.625-18.921-3.233 0-6.381 1.635-8.862 4.603-.816.977-2.007 1.536-3.267 1.536-.001 0-.001 0-.002 0-1.26-.001-2.45-.561-3.266-1.537-2.48-2.967-5.628-4.602-8.862-4.602-7.513 0-13.625 8.488-13.625 18.921 0 2.122.263 4.219.779 6.232.657 2.55-.412 5.255-2.663 6.729-6.504 4.266-10.087 9.757-10.087 15.461 0 1.461.236 2.927.703 4.355.384 1.175-.149 2.454-1.255 3.01-.358.181-.741.267-1.121.267zm-4.656-19.216c.565 0 1.12.191 1.57.555.614.495.958 1.252.928 2.041-.028.735-.004 1.482.071 2.237 1.822-4.851 5.612-9.288 11.105-12.891.46-.301.686-.824.562-1.302-.622-2.422-.938-4.938-.938-7.479 0-13.19 8.355-23.921 18.625-23.921 4.485 0 8.763 2.032 12.13 5.742 3.367-3.71 7.645-5.742 12.129-5.742 10.27 0 18.625 10.73 18.625 23.921 0 2.541-.315 5.057-.938 7.477-.123.479.104 1.003.562 1.304 5.079 3.331 8.703 7.377 10.66 11.803.014-.386.013-.769-.002-1.149-.03-.788.313-1.545.928-2.041s1.427-.672 2.191-.477l.17.044c-2.149-4.244-4.998-8.148-8.387-11.47-.763-.747-.967-1.897-.507-2.861.461-.964 1.485-1.536 2.543-1.407.263.03.527.046.792.047-2.154-2.545-3.787-5.538-4.731-8.729-.218-.736-.085-1.533.361-2.159.445-.626 1.154-1.013 1.923-1.047l.682-.031c-1.188-2.508-2.655-4.871-4.386-7.057-.447-.564-.629-1.295-.499-2.003.13-.709.56-1.327 1.178-1.695l.25-.149c-2.021-1.44-3.701-3.317-5.259-5.057-.792-.885-1.539-1.72-2.311-2.487-2.615-2.599-5.841-4.601-9.329-5.789-1.11-.378-1.809-1.479-1.678-2.646.047-.418.196-.805.422-1.134-2.86-1.6-6.077-2.652-9.397-3.047-.387-.046-.758-.182-1.083-.396-1.697-1.121-3.571-2.068-5.596-2.828.15.671.019 1.382-.378 1.959-.475.692-1.253 1.072-2.104 1.086-4.456-.081-8.908 1.071-12.746 3.223.228.33.378.718.425 1.138.131 1.167-.567 2.268-1.678 2.646-3.489 1.189-6.715 3.191-9.328 5.789-.771.768-1.521 1.604-2.312 2.488-1.557 1.739-3.236 3.615-5.258 5.056l.25.149c.618.368 1.048.986 1.178 1.695.13.708-.052 1.438-.499 2.003-1.73 2.187-3.198 4.55-4.385 7.057l.681.031c.769.034 1.478.421 1.923 1.047.446.626.579 1.423.361 2.159-.944 3.19-2.577 6.184-4.731 8.729.265-.001.529-.017.792-.047 1.062-.13 2.082.443 2.543 1.407.46.964.256 2.114-.507 2.861-3.389 3.321-6.237 7.226-8.387 11.47l.169-.044c.209-.054.417-.079.625-.079z"/><path d="m167.181 40.753c-.922.001-1.804-.512-2.238-1.385-1.14-2.287-2.508-4.444-4.065-6.412-.447-.564-.629-1.295-.499-2.003s.56-1.326 1.178-1.695l.25-.149c-2.022-1.439-3.702-3.316-5.259-5.056-.79-.882-1.535-1.715-2.305-2.48l-.205-.191c-.495-.481-.769-1.146-.757-1.837.013-.691.311-1.346.823-1.81.691-.625 1.413-1.196 2.145-1.696 7.555-5.167 17.164-4.306 21.424 1.919 2.126 3.107 2.617 7.017 1.382 11.008-1.171 3.783-3.783 7.213-7.354 9.657-1.12.766-2.315 1.417-3.553 1.937-.317.13-.644.193-.967.193zm-.699-8.612c.615.898 1.197 1.825 1.743 2.775.22-.135.437-.275.649-.421 2.645-1.81 4.563-4.299 5.402-7.009.774-2.502.515-4.884-.732-6.705-2.626-3.84-8.838-4.208-14.032-.908.256.283.509.565.759.845 2.34 2.613 4.55 5.082 7.374 5.682 1.007.213 1.779 1.021 1.948 2.037.168 1.015-.303 2.029-1.188 2.556z"/><path d="m88.82 40.754c-.323 0-.65-.063-.966-.195-1.239-.52-2.435-1.171-3.554-1.937-3.571-2.444-6.183-5.874-7.354-9.657-1.235-3.991-.744-7.9 1.382-11.008 4.26-6.225 13.87-7.086 21.425-1.919.73.5 1.452 1.071 2.144 1.696.513.464.811 1.118.823 1.81.012.69-.262 1.355-.757 1.837l-.157.147c-.812.804-1.561 1.64-2.353 2.524-1.557 1.739-3.236 3.615-5.258 5.056l.25.149c.618.368 1.048.986 1.178 1.695.13.708-.052 1.438-.499 2.004-1.559 1.967-2.927 4.124-4.064 6.41-.436.875-1.318 1.388-2.24 1.388zm-1.695-6.259c.213.146.43.286.649.421.546-.95 1.128-1.876 1.744-2.775l-1.925-1.148c-.885-.526-1.355-1.541-1.188-2.556.169-1.016.941-1.824 1.948-2.037 2.824-.6 5.034-3.068 7.374-5.682.25-.279.503-.562.759-.845-5.194-3.3-11.406-2.933-14.032.908-1.247 1.821-1.507 4.203-.732 6.705.84 2.71 2.758 5.2 5.403 7.009z"/><path d="m128.26 106.979c-23.559 0-42.726-12.492-42.726-27.847 0-7.445 4.385-14.421 12.346-19.643.46-.301.686-.825.562-1.305-.622-2.417-.938-4.933-.938-7.475 0-13.19 8.355-23.922 18.625-23.922 4.484 0 8.763 2.032 12.13 5.742 3.366-3.71 7.644-5.742 12.13-5.742 10.27 0 18.624 10.731 18.624 23.922 0 2.54-.315 5.056-.938 7.476-.123.479.104 1.003.562 1.304 7.961 5.221 12.346 12.196 12.346 19.643.001 15.355-19.165 27.847-42.723 27.847zm-12.13-75.19c-7.513 0-13.625 8.488-13.625 18.922 0 2.122.263 4.218.78 6.23.655 2.553-.416 5.257-2.664 6.73-6.504 4.266-10.087 9.757-10.087 15.461 0 12.598 16.924 22.847 37.726 22.847s37.725-10.249 37.725-22.847c0-5.704-3.583-11.195-10.088-15.461-2.248-1.475-3.318-4.18-2.662-6.729.517-2.014.779-4.11.779-6.231 0-10.434-6.111-18.922-13.624-18.922-3.235 0-6.383 1.635-8.863 4.603-.816.977-2.007 1.536-3.267 1.536-.001 0-.001 0-.002 0-1.26-.001-2.45-.561-3.266-1.537-2.48-2.967-5.628-4.602-8.862-4.602z"/><path d="m116.11 72.176c-.771 0-1.531-.355-2.021-1.025-1.125-1.542-1.72-3.349-1.72-5.226 0-5.078 4.375-9.21 9.753-9.21 2.274 0 4.427.739 6.138 2.053 1.71-1.313 3.861-2.053 6.137-2.053 5.378 0 9.753 4.132 9.753 9.21 0 1.798-.548 3.539-1.584 5.036-.788 1.134-2.345 1.415-3.479.632-1.135-.786-1.418-2.344-.632-3.479.455-.656.695-1.413.695-2.188 0-2.321-2.132-4.21-4.753-4.21-1.675 0-3.196.767-4.069 2.051-.465.685-1.239 1.095-2.067 1.095-.828 0-1.602-.409-2.067-1.094-.874-1.285-2.396-2.052-4.07-2.052-2.621 0-4.753 1.889-4.753 4.21 0 .81.263 1.598.759 2.276.813 1.115.569 2.68-.545 3.494-.447.324-.963.48-1.475.48z"/><path d="m122.979 70.02c-.66 0-1.3-.27-1.77-.739-.46-.461-.73-1.11-.73-1.761 0-.17.011-.33.051-.489.029-.16.079-.32.14-.471.06-.149.14-.3.229-.43.091-.14.19-.271.311-.38.109-.12.24-.22.38-.311.14-.09.28-.17.43-.229.15-.07.311-.11.471-.15.81-.16 1.68.11 2.26.69.109.109.22.24.31.38.09.13.16.28.23.43.06.15.109.311.14.471.03.159.05.319.05.489 0 .65-.27 1.3-.739 1.761-.11.119-.24.22-.37.31-.141.09-.28.17-.44.229-.149.07-.3.11-.46.15-.162.03-.332.05-.493.05z"/><path d="m133.54 70.02c-.66 0-1.3-.27-1.771-.739-.46-.461-.729-1.11-.729-1.761 0-.17.02-.33.05-.489.03-.16.08-.32.14-.471.061-.149.141-.3.23-.43.09-.14.2-.271.31-.38.12-.12.24-.22.38-.311.141-.09.28-.17.431-.229.149-.07.31-.11.47-.15.81-.16 1.68.11 2.26.69.11.109.221.24.311.38.09.13.16.28.229.43.061.15.11.311.141.471.029.159.05.319.05.489 0 .65-.271 1.3-.73 1.761-.12.119-.25.22-.38.31-.14.09-.28.17-.43.229-.15.07-.311.11-.47.15-.162.03-.332.05-.492.05z"/><path d="m112.608 52.687c-1.377 0-2.495-1.114-2.5-2.492-.006-1.841.705-3.574 2.003-4.88 1.298-1.307 3.026-2.029 4.868-2.035h.022c3.79 0 6.879 3.077 6.892 6.871.005 1.381-1.111 2.503-2.492 2.508-.003 0-.005 0-.008 0-1.377 0-2.495-1.114-2.5-2.492-.002-.506-.2-.98-.559-1.337-.357-.354-.83-.55-1.333-.55-.002 0-.005 0-.007 0-.506.002-.98.2-1.337.559-.356.359-.552.835-.55 1.341.005 1.381-1.111 2.503-2.492 2.508-.002-.001-.004-.001-.007-.001z"/><path d="m135.125 52.687c-1.377 0-2.495-1.114-2.5-2.492-.006-1.841.705-3.574 2.003-4.88 1.298-1.307 3.027-2.029 4.868-2.035h.022c3.791 0 6.88 3.077 6.893 6.871.005 1.381-1.111 2.503-2.492 2.508-.003 0-.005 0-.008 0-1.377 0-2.495-1.114-2.5-2.492-.002-.505-.2-.979-.559-1.336-.357-.355-.831-.551-1.334-.551-.002 0-.005 0-.007 0-.505.002-.979.2-1.336.559s-.553.835-.551 1.341c.005 1.381-1.111 2.503-2.492 2.508-.002-.001-.004-.001-.007-.001z"/><path d="m128.26 94.681c-6.959 0-13.299-4.768-15.775-11.862-.393-1.123-.147-2.375.64-3.267.786-.895 1.997-1.296 3.168-1.043 3.812.812 7.84 1.225 11.968 1.225 4.127 0 8.154-.412 11.97-1.226 1.167-.25 2.378.149 3.166 1.044.786.892 1.031 2.144.639 3.267-2.478 7.094-8.817 11.862-15.776 11.862zm-9.706-10.677c2.189 3.524 5.764 5.677 9.706 5.677s7.516-2.153 9.706-5.677c-6.299.969-13.115.969-19.412 0zm-3.308-.606c.002 0 .003 0 .005.001-.002-.001-.003-.001-.005-.001zm25.505-2.445h.01z"/><path d="m167.062 40.511c-.925 0-1.797-.515-2.23-1.37-1.109-2.189-2.44-4.271-3.955-6.185-.447-.564-.629-1.295-.499-2.003s.56-1.326 1.178-1.695l.251-.15c-.419-.298-.837-.625-1.255-.98-.566-.48-.889-1.188-.881-1.931s.346-1.443.922-1.912c.274-.224.557-.442.855-.646 2.29-1.567 4.963-2.336 7.514-2.151 2.731.192 5.108 1.486 6.52 3.55 2.826 4.13 1.129 10.225-3.782 13.586-1.229.841-2.584 1.45-4.027 1.813-.204.049-.409.074-.611.074zm-.579-8.371c.613.896 1.192 1.815 1.735 2.758.225-.123.444-.257.657-.402 2.591-1.773 3.727-4.812 2.479-6.636-.745-1.09-2.039-1.336-2.744-1.386-.231-.018-.467-.018-.702-.004.877.288 1.532 1.042 1.686 1.967.168 1.015-.304 2.029-1.188 2.556z"/><path d="m88.938 40.511c-.201 0-.406-.024-.608-.075-1.444-.362-2.8-.973-4.028-1.813-.001 0-.001 0-.001 0-2.292-1.568-3.971-3.779-4.729-6.227-.81-2.615-.464-5.298.948-7.36 1.41-2.062 3.786-3.356 6.518-3.549 2.551-.184 5.223.584 7.516 2.152.297.203.579.422.854.646.576.469.914 1.169.922 1.912.008.742-.314 1.45-.881 1.931-.418.355-.836.683-1.255.98l.252.15c.618.368 1.048.986 1.178 1.695s-.052 1.438-.499 2.004c-1.517 1.913-2.847 3.994-3.955 6.183-.434.855-1.306 1.371-2.232 1.371zm-1.813-6.016c.213.146.432.28.656.402.543-.942 1.122-1.862 1.736-2.758l-1.924-1.147c-.884-.526-1.355-1.541-1.188-2.556.153-.925.809-1.679 1.686-1.967-.239-.014-.473-.014-.702.004-.705.05-1.998.296-2.743 1.385s-.506 2.384-.297 3.06c.42 1.353 1.43 2.657 2.776 3.577z"/></svg>