<svg enable-background="new 0 0 256 256" height="512" viewBox="0 0 256 256" width="512" xmlns="http://www.w3.org/2000/svg"><circle cx="147.235" cy="46.349" fill="#f9bd55" r="11.811"/><circle cx="108.765" cy="46.349" fill="#f9bd55" r="11.811"/><path d="m170.014 85.763c-2.485-1.617-5.377-2.497-8.342-2.497h-10.349c-6.347 6.657-14.845 9.952-23.323 9.892v111.71c0 17.88 18.891 29.758 34.804 21.606 26.217-13.431 44.173-40.83 44.173-72.447 0-28.627-14.721-53.79-36.963-68.264z" fill="#fd605b"/><path d="m105.133 83.266h-10.805c-2.965 0-5.857.88-8.342 2.497-22.242 14.474-36.963 39.637-36.963 68.263 0 31.618 17.956 59.016 44.173 72.447 15.913 8.153 34.804-3.726 34.804-21.606v-111.709c-8.325-.059-16.633-3.353-22.867-9.892z" fill="#fd605b"/><circle cx="159.499" cy="186.895" fill="#52565b" r="15.978"/><path d="m128 204.868c0 11.676-8.058 20.789-18.08 23.439 5.142 3.536 11.368 5.609 18.08 5.609s12.938-2.073 18.08-5.609c-10.022-2.65-18.08-11.763-18.08-23.439z" fill="#52565b"/><path d="m150.826 73.223h-45.651c-5.719 0-10.442 4.443-10.91 10.046h67.471c-.468-5.604-5.192-10.046-10.91-10.046z" fill="#828487"/><g fill="#52565b"><path d="m155.854 54.405c-2.155 2.305-5.215 3.755-8.62 3.755-6.523 0-11.811-5.288-11.811-11.811 0-2.693.911-5.167 2.429-7.154-3.101-1.021-6.41-1.581-9.853-1.581-3.442 0-6.752.56-9.853 1.581 1.517 1.987 2.429 4.461 2.429 7.154 0 6.523-5.288 11.811-11.811 11.811-3.405 0-6.464-1.45-8.62-3.755-2.324 4.391-3.645 9.395-3.645 14.709 0 2.551.311 5.027.883 7.402 1.989-2.025 4.744-3.293 7.791-3.293h45.651c3.046 0 5.802 1.268 7.791 3.293.572-2.375.883-4.851.883-7.402.002-5.314-1.32-10.317-3.644-14.709z"/><path d="m230.287 53.32c-2.334-1.525-5.461-.869-6.986 1.463l-11.325 17.326-21.894 9.912c-.651.295-1.231.724-1.704 1.259l-8.7 9.863c2.521 2.242 4.904 4.638 7.13 7.177l8.424-9.551 22.246-10.072c.875-.396 1.618-1.033 2.143-1.836l12.129-18.556c1.525-2.333.869-5.46-1.463-6.985z"/><path d="m248.774 161.583-17.679-1.998-16.095-12.998c-.556-.449-1.2-.775-1.891-.955l-6.764-1.774c.414 3.332.632 6.724.632 10.168 0 .144-.007.287-.008.431l2.531.664 16.397 13.241c.747.603 1.65.981 2.604 1.089l19.139 2.164c.193.022.383.031.573.031 2.533 0 4.717-1.903 5.008-4.48.314-2.77-1.677-5.269-4.447-5.583z"/><path d="m230.659 244.263-19.38-13.023-10.855-24.815c-.286-.655-.708-1.24-1.238-1.719l-5.93-5.367c-1.883 2.814-3.944 5.496-6.153 8.045l4.507 4.079 11.01 25.169c.385.879 1.012 1.63 1.809 2.167l20.6 13.843c.864.581 1.843.859 2.811.859 1.624 0 3.219-.784 4.193-2.233 1.554-2.314.939-5.45-1.374-7.005z"/><path d="m62.744 199.339-5.93 5.367c-.529.479-.951 1.064-1.238 1.719l-10.855 24.815-19.38 13.023c-2.313 1.555-2.929 4.691-1.374 7.004.974 1.449 2.569 2.233 4.193 2.233.968 0 1.947-.278 2.811-.859l20.6-13.843c.797-.537 1.424-1.288 1.809-2.167l11.009-25.169 4.507-4.079c-2.208-2.548-4.269-5.231-6.152-8.044z"/><path d="m49.023 154.026c0-3.444.218-6.837.632-10.168l-6.764 1.774c-.691.181-1.335.507-1.891.955l-16.096 12.999-17.679 1.998c-2.77.314-4.761 2.812-4.448 5.582.291 2.577 2.475 4.48 5.008 4.48.19 0 .38-.01.573-.031l19.139-2.164c.954-.108 1.857-.486 2.604-1.089l16.399-13.242 2.531-.664c-.001-.144-.008-.286-.008-.43z"/><path d="m69.192 100.321c2.226-2.539 4.609-4.935 7.13-7.177l-8.7-9.863c-.473-.536-1.053-.964-1.704-1.259l-21.894-9.912-11.325-17.327c-1.524-2.332-4.652-2.988-6.986-1.463-2.333 1.525-2.988 4.652-1.463 6.986l12.129 18.556c.525.803 1.268 1.441 2.143 1.836l22.246 10.072z"/><circle cx="159.499" cy="116.592" r="14.152"/><circle cx="178.673" cy="150.374" r="11.413"/><circle cx="96.5" cy="116.592" r="14.152"/><circle cx="77.327" cy="150.374" r="11.413"/><circle cx="96.5" cy="186.895" r="15.978"/><path d="m151.323 83.266c-13.222 0-32.596 0-46.19 0 6.234 6.539 14.541 9.833 22.867 9.892 8.479.06 16.977-3.234 23.323-9.892z"/></g><path d="m133.475 40.592c-.155 0-.313-.014-.471-.044-1.356-.259-2.247-1.567-1.988-2.924 4.019-21.089 21.621-34.676 36.931-37.198 9.932-1.635 18.235 1.575 22.206 8.593 2.926 5.171 2.341 11.882-1.39 15.957-4.36 4.762-14.154 6.964-19.366 2.751-1.074-.868-1.24-2.442-.372-3.517.868-1.073 2.442-1.24 3.516-.372 2.989 2.417 9.812.734 12.535-2.239 2.273-2.482 2.585-6.832.726-10.117-2.938-5.191-9.148-7.422-17.042-6.122-13.599 2.24-29.243 14.364-32.833 33.2-.227 1.198-1.276 2.032-2.452 2.032z"/><path d="m122.525 40.592c-1.176 0-2.225-.834-2.453-2.032-3.589-18.836-19.234-30.96-32.833-33.2-7.892-1.299-14.104.932-17.042 6.122-1.859 3.285-1.547 7.635.726 10.117 2.723 2.974 9.548 4.658 12.535 2.239 1.073-.868 2.648-.701 3.516.372.868 1.074.702 2.648-.372 3.517-5.213 4.215-15.006 2.01-19.366-2.751-3.731-4.075-4.316-10.786-1.39-15.957 3.97-7.019 12.272-10.228 22.206-8.593 15.311 2.522 32.913 16.109 36.931 37.198.259 1.356-.631 2.665-1.988 2.924-.157.03-.315.044-.47.044z"/><path d="m128 236.416c-7 0-13.741-2.092-19.497-6.05-.805-.553-1.214-1.524-1.046-2.487.167-.963.879-1.739 1.824-1.989 9.55-2.524 16.219-11.169 16.219-21.022 0-1.381 1.119-2.5 2.5-2.5s2.5 1.119 2.5 2.5c0 9.854 6.669 18.498 16.219 21.022.944.25 1.657 1.026 1.824 1.989s-.241 1.935-1.046 2.487c-5.756 3.958-12.497 6.05-19.497 6.05zm-12.245-7.66c3.818 1.75 7.975 2.66 12.245 2.66s8.426-.91 12.245-2.66c-5.428-2.73-9.722-7.212-12.245-12.617-2.523 5.405-6.817 9.886-12.245 12.617z"/><path d="m152.051 231.585c-4.746 0-9.485-1.308-13.733-3.904-8.026-4.905-12.818-13.435-12.818-22.813v-111.71c0-.666.266-1.305.738-1.774.473-.469 1.124-.714 1.779-.726 8.166.07 15.836-3.18 21.496-9.116.472-.495 1.126-.775 1.81-.775h10.349c3.432 0 6.788 1.003 9.705 2.9 23.857 15.525 38.1 41.828 38.1 70.359 0 31.671-17.447 60.283-45.533 74.671-3.764 1.929-7.832 2.888-11.893 2.888zm-21.551-135.998v109.28c0 7.624 3.897 14.558 10.426 18.548 6.386 3.903 14.139 4.213 20.738.833 26.408-13.529 42.813-40.437 42.813-70.222 0-26.833-13.393-51.569-35.827-66.168-2.104-1.368-4.517-2.092-6.979-2.092h-9.301c-5.938 5.862-13.595 9.291-21.87 9.821z"/><path d="m103.949 231.585c-4.062 0-8.128-.958-11.894-2.888-28.085-14.388-45.533-43-45.533-74.671 0-28.531 14.243-54.834 38.099-70.359 2.918-1.897 6.274-2.9 9.706-2.9h10.805c.684 0 1.338.28 1.81.775 5.55 5.821 13.034 9.059 21.075 9.116 1.374.01 2.482 1.126 2.482 2.5v111.709c0 9.379-4.792 17.908-12.818 22.813-4.246 2.597-8.986 3.905-13.732 3.905zm-9.621-145.818c-2.462 0-4.875.724-6.979 2.092-22.433 14.599-35.826 39.335-35.826 66.168 0 29.785 16.405 56.692 42.812 70.222 6.601 3.381 14.353 3.069 20.739-.833 6.528-3.99 10.426-10.924 10.426-18.548v-109.314c-8.101-.629-15.596-4.046-21.415-9.787z"/><path d="m161.736 85.769h-67.472c-.699 0-1.366-.293-1.84-.808-.473-.515-.709-1.203-.651-1.9.578-6.918 6.464-12.338 13.401-12.338h45.651c6.938 0 12.824 5.42 13.401 12.338.058.697-.178 1.386-.651 1.9-.473.515-1.14.808-1.839.808zm-64.285-5h61.098c-1.327-2.975-4.324-5.046-7.723-5.046h-45.651c-3.4 0-6.397 2.071-7.724 5.046z"/><path d="m142.914 50.201c-1.377 0-2.496-1.114-2.5-2.492-.006-1.821.698-3.536 1.982-4.829 1.284-1.292 2.994-2.007 4.816-2.013h.023c1.813 0 3.52.703 4.807 1.981 1.292 1.284 2.007 2.995 2.013 4.817.004 1.38-1.111 2.503-2.492 2.508-.003 0-.006 0-.008 0-1.377 0-2.496-1.114-2.5-2.492-.001-.486-.192-.943-.538-1.285-.345-.343-.815-.546-1.289-.529-.486.002-.943.192-1.286.537s-.53.803-.529 1.289c.004 1.38-1.111 2.503-2.492 2.508-.002 0-.004 0-.007 0z"/><path d="m147.234 60.66c-7.891 0-14.311-6.42-14.311-14.311 0-7.892 6.42-14.312 14.311-14.312s14.311 6.42 14.311 14.312c0 7.891-6.42 14.311-14.311 14.311zm0-23.622c-5.134 0-9.311 4.177-9.311 9.312 0 5.134 4.177 9.311 9.311 9.311s9.311-4.177 9.311-9.311c0-5.135-4.176-9.312-9.311-9.312z"/><path d="m104.445 50.201c-1.377 0-2.496-1.114-2.5-2.492-.006-1.821.698-3.536 1.982-4.829 1.284-1.292 2.994-2.007 4.816-2.013h.023c1.813 0 3.52.703 4.807 1.981 1.292 1.284 2.008 2.995 2.013 4.817.004 1.381-1.112 2.504-2.492 2.508-.003 0-.005 0-.008 0-1.377 0-2.496-1.114-2.5-2.492-.001-.486-.192-.943-.537-1.285-.343-.342-.799-.529-1.283-.529-.002 0-.004 0-.006 0-.486.002-.943.192-1.286.537s-.53.803-.529 1.289c.004 1.38-1.111 2.503-2.492 2.508-.003 0-.006 0-.008 0z"/><path d="m108.766 60.66c-7.891 0-14.311-6.42-14.311-14.311 0-7.892 6.42-14.312 14.311-14.312s14.311 6.42 14.311 14.312c-.001 7.891-6.421 14.311-14.311 14.311zm0-23.622c-5.134 0-9.311 4.177-9.311 9.312 0 5.134 4.177 9.311 9.311 9.311s9.311-4.177 9.311-9.311c-.001-5.135-4.178-9.312-9.311-9.312z"/><path d="m158.616 79.016c-.662 0-1.307-.263-1.784-.748-1.612-1.642-3.745-2.545-6.007-2.545h-45.651c-2.262 0-4.395.903-6.007 2.545-.637.649-1.575.9-2.451.657-.875-.242-1.551-.94-1.764-1.823-.631-2.624-.952-5.312-.952-7.988 0-5.522 1.361-11.013 3.935-15.878.378-.715 1.078-1.202 1.879-1.31.802-.104 1.604.181 2.157.771 1.786 1.91 4.199 2.962 6.794 2.962 5.134 0 9.311-4.177 9.311-9.312 0-2.046-.663-3.995-1.916-5.636-.491-.644-.641-1.484-.401-2.257.239-.773.838-1.383 1.606-1.636 6.881-2.264 14.388-2.264 21.269 0 .769.253 1.367.862 1.606 1.636.239.772.09 1.613-.401 2.257-1.253 1.641-1.916 3.59-1.916 5.636 0 5.135 4.177 9.312 9.311 9.312 2.595 0 5.008-1.052 6.794-2.962.552-.591 1.357-.873 2.157-.771.801.107 1.501.595 1.879 1.31 2.575 4.866 3.936 10.356 3.936 15.878 0 2.676-.321 5.363-.953 7.987-.213.883-.888 1.581-1.764 1.823-.22.062-.445.092-.667.092zm-53.442-8.293h45.651c2.12 0 4.167.494 6.013 1.428.107-1.011.161-2.024.161-3.036 0-3.731-.688-7.327-2.05-10.728-2.289 1.468-4.97 2.273-7.715 2.273-7.891 0-14.311-6.42-14.311-14.312 0-1.949.389-3.839 1.14-5.593-3.981-.854-8.146-.854-12.128 0 .751 1.754 1.14 3.644 1.14 5.593 0 7.892-6.42 14.312-14.311 14.312-2.745 0-5.426-.806-7.715-2.273-1.362 3.4-2.05 6.996-2.05 10.728 0 1.012.054 2.025.161 3.036 1.848-.934 3.894-1.428 6.014-1.428z"/><path d="m186.808 102.82c-.001 0-.002 0-.003 0-.719-.001-1.402-.312-1.876-.852-2.143-2.444-4.468-4.785-6.911-6.956-1.029-.914-1.125-2.489-.214-3.521l8.7-9.863c.71-.806 1.566-1.439 2.546-1.883l21.232-9.613 10.926-16.717c2.277-3.482 6.963-4.464 10.446-2.188h.001c3.482 2.277 4.464 6.964 2.188 10.447l-12.13 18.556c-.788 1.204-1.896 2.154-3.206 2.746l-21.756 9.849-8.069 9.148c-.474.539-1.157.847-1.874.847zm-3.632-9.862c1.238 1.168 2.442 2.375 3.605 3.613l6.576-7.455c.234-.266.521-.479.844-.624l22.246-10.071c.442-.2.816-.521 1.082-.927l12.128-18.557c.768-1.175.438-2.757-.737-3.525-1.176-.77-2.758-.437-3.526.739l-11.325 17.326c-.26.397-.628.713-1.062.909l-21.895 9.912c-.331.149-.62.364-.859.636z"/><path d="m248.214 174.146c-.281 0-.564-.015-.85-.047l-19.143-2.164c-1.429-.162-2.774-.725-3.893-1.627l-15.981-12.905-2.012-.528c-1.105-.29-1.874-1.292-1.866-2.435l.008-.414c0-3.267-.206-6.584-.613-9.86-.102-.822.21-1.643.834-2.189.625-.546 1.48-.747 2.281-.536l6.764 1.774c1.036.27 1.989.751 2.828 1.429l15.529 12.54 16.955 1.916h.001c4.134.47 7.117 4.215 6.65 8.348-.431 3.818-3.653 6.698-7.492 6.698zm-38.751-21.621.671.177c.342.09.661.251.937.473l16.397 13.241c.377.305.833.495 1.315.55l19.138 2.164c.096.011.194.016.292.016 1.293 0 2.379-.972 2.524-2.261.158-1.395-.85-2.659-2.246-2.817l-17.677-1.998c-.473-.054-.92-.24-1.29-.539l-16.096-12.998c-.279-.226-.607-.392-.95-.481l-3.28-.86c.145 1.779.234 3.561.265 5.333z"/><path d="m227.839 256c-1.5 0-2.954-.443-4.204-1.282l-20.602-13.845c-1.194-.804-2.128-1.924-2.704-3.238l-10.795-24.679-4.109-3.719c-1.008-.912-1.102-2.463-.211-3.491 2.173-2.507 4.18-5.131 5.964-7.798.404-.604 1.051-1.002 1.771-1.091s1.445.14 1.984.628l5.93 5.367c.796.72 1.418 1.584 1.85 2.569l10.563 24.148 18.776 12.617v.001c3.454 2.322 4.375 7.021 2.053 10.474-1.403 2.091-3.746 3.339-6.266 3.339zm-37.27-48.851 2.719 2.46c.262.237.471.527.613.852l11.01 25.169c.194.443.51.822.914 1.094l20.599 13.843c1.135.762 2.779.43 3.535-.693.783-1.165.472-2.751-.693-3.535l-19.38-13.023c-.395-.266-.706-.638-.896-1.073l-10.854-24.814c-.145-.332-.355-.623-.624-.866l-3.824-3.461c-.992 1.367-2.033 2.72-3.119 4.047z"/><path d="m28.161 256c-2.519 0-4.862-1.247-6.268-3.337-2.321-3.454-1.4-8.152 2.053-10.475l18.776-12.618 10.563-24.147c.432-.986 1.055-1.851 1.852-2.571l5.929-5.366c.539-.487 1.261-.718 1.983-.628.721.089 1.368.487 1.772 1.091 1.788 2.67 3.794 5.294 5.964 7.798.891 1.028.796 2.579-.211 3.491l-4.109 3.719-10.794 24.678c-.576 1.315-1.511 2.436-2.703 3.238l-20.602 13.845c-1.251.839-2.705 1.282-4.205 1.282zm34.154-52.9-3.823 3.46c-.27.244-.48.535-.625.868l-10.854 24.813c-.19.436-.501.808-.896 1.073l-19.38 13.023c-1.166.783-1.477 2.37-.693 3.535.754 1.122 2.398 1.456 3.536.692l20.599-13.843c.402-.271.718-.649.913-1.094l11.008-25.166c.142-.324.351-.614.613-.852l2.719-2.461c-1.086-1.326-2.127-2.678-3.117-4.048z"/><path d="m7.786 174.146c-3.839 0-7.061-2.88-7.493-6.698-.467-4.134 2.517-7.879 6.65-8.349l16.957-1.916 15.53-12.541c.838-.678 1.792-1.158 2.832-1.43l6.759-1.772c.8-.211 1.656-.011 2.281.536.624.547.937 1.367.834 2.189-.407 3.276-.613 6.594-.613 9.86l.008.414c.008 1.143-.76 2.145-1.866 2.435l-2.012.528-15.979 12.904c-1.12.903-2.465 1.466-3.893 1.628l-19.141 2.165c-.29.032-.573.047-.854.047zm39.015-26.956-3.275.859c-.352.092-.671.253-.953.481l-16.098 13c-.37.299-.817.485-1.29.539l-17.679 1.998c-1.395.158-2.402 1.423-2.245 2.818.157 1.386 1.41 2.393 2.821 2.244l19.135-2.164c.481-.055.937-.245 1.315-.551l16.396-13.24c.275-.222.594-.383.937-.473l.671-.177c.032-1.771.121-3.553.265-5.334z"/><path d="m69.192 102.82c-.717 0-1.4-.309-1.875-.847l-8.069-9.148-21.757-9.85c-1.308-.591-2.417-1.541-3.204-2.745l-12.129-18.556c-2.276-3.483-1.295-8.17 2.188-10.447 3.484-2.275 8.17-1.294 10.447 2.188l10.926 16.717 21.231 9.612c.981.444 1.837 1.078 2.548 1.884l8.7 9.863c.911 1.032.815 2.607-.214 3.521-2.442 2.171-4.768 4.512-6.911 6.956-.474.54-1.158.851-1.876.852-.002 0-.004 0-.005 0zm-40.722-47.822c-.478 0-.96.134-1.39.414-1.175.769-1.506 2.35-.737 3.525l12.129 18.557c.266.406.639.727 1.08.926l22.248 10.072c.322.146.61.358.844.624l6.576 7.455c1.163-1.238 2.367-2.445 3.605-3.613l-7.077-8.023c-.24-.271-.529-.486-.861-.637l-21.894-9.911c-.433-.196-.801-.512-1.062-.909l-11.325-17.327c-.487-.747-1.304-1.153-2.136-1.153z"/><path d="m159.5 133.244c-9.182 0-16.652-7.47-16.652-16.652s7.47-16.652 16.652-16.652 16.652 7.47 16.652 16.652-7.471 16.652-16.652 16.652zm0-28.305c-6.425 0-11.652 5.228-11.652 11.652s5.227 11.652 11.652 11.652 11.652-5.228 11.652-11.652-5.228-11.652-11.652-11.652z"/><path d="m178.673 164.287c-7.671 0-13.913-6.241-13.913-13.913s6.241-13.913 13.913-13.913 13.913 6.241 13.913 13.913-6.241 13.913-13.913 13.913zm0-22.826c-4.915 0-8.913 3.998-8.913 8.913s3.998 8.913 8.913 8.913 8.913-3.998 8.913-8.913-3.999-8.913-8.913-8.913z"/><path d="m159.5 205.373c-10.189 0-18.478-8.289-18.478-18.479 0-10.188 8.289-18.478 18.478-18.478s18.478 8.289 18.478 18.478c0 10.19-8.29 18.479-18.478 18.479zm0-31.956c-7.432 0-13.478 6.046-13.478 13.478s6.046 13.479 13.478 13.479 13.478-6.047 13.478-13.479-6.047-13.478-13.478-13.478z"/><path d="m96.5 133.244c-9.182 0-16.652-7.47-16.652-16.652s7.47-16.652 16.652-16.652 16.652 7.47 16.652 16.652-7.47 16.652-16.652 16.652zm0-28.305c-6.425 0-11.652 5.228-11.652 11.652s5.227 11.652 11.652 11.652 11.652-5.228 11.652-11.652-5.227-11.652-11.652-11.652z"/><path d="m77.327 164.287c-7.671 0-13.913-6.241-13.913-13.913s6.241-13.913 13.913-13.913 13.913 6.241 13.913 13.913-6.241 13.913-13.913 13.913zm0-22.826c-4.915 0-8.913 3.998-8.913 8.913s3.998 8.913 8.913 8.913 8.913-3.998 8.913-8.913-3.999-8.913-8.913-8.913z"/><path d="m96.5 205.373c-10.189 0-18.478-8.289-18.478-18.479 0-10.188 8.289-18.478 18.478-18.478s18.478 8.289 18.478 18.478c.001 10.19-8.289 18.479-18.478 18.479zm0-31.956c-7.432 0-13.478 6.046-13.478 13.478s6.046 13.479 13.478 13.479 13.478-6.047 13.478-13.479-6.046-13.478-13.478-13.478z"/><path d="m128.234 95.659c-.084 0-.167 0-.252-.001-9.408-.067-18.166-3.855-24.659-10.667-.69-.724-.882-1.789-.489-2.709.394-.919 1.298-1.516 2.298-1.516h46.19c1 0 1.904.597 2.298 1.516.394.92.201 1.985-.489 2.709-6.562 6.885-15.396 10.668-24.897 10.668zm-16.271-9.892c4.713 3.145 10.238 4.85 16.055 4.892.071.001.144.001.215.001 5.897 0 11.494-1.705 16.265-4.893z"/></svg>