<svg enable-background="new 0 0 256 256" height="512" viewBox="0 0 256 256" width="512" xmlns="http://www.w3.org/2000/svg"><path d="m251.523 105.921c-.684-3.043-4.238-4.466-6.779-2.657-3.658 2.605-10.168 5.968-21.699 9.331-24.277 7.081-43.495-8.092-43.495-8.092-49.855-34.747-97.449-32.826-123.835-22.044-2.883-2.036-6.394-3.244-10.192-3.244-9.776 0-17.702 7.925-17.702 17.702 0 2.388.479 4.661 1.336 6.74-12.617 10.468-27.454 12.05-26.624 17.031 1.012 6.069 8.519 8.759 8.519 8.759-3.227.95-4.991 3.056-5.941 4.859-.77 1.461-.204 3.254 1.238 4.058 3.55 1.978 9.656 8.927 22.483 24.808 21.242 26.3 73.611 36.53 110.256 18.207 16.184-8.092 28.323-24.277 53.611-39.449 19.103-11.462 39.937 4.205 48.986 12.556 2.33 2.15 6.075 1.167 7.092-1.835 6.813-20.116 4.849-37.372 2.746-46.73z" fill="#f4dbce"/><path d="m251.523 105.921c-.684-3.043-4.238-4.466-6.779-2.657-6.219 4.429-17.916 8.59-24.749 10.1 8.576 7.066 7.984 20.331-1.142 26.628 9.626 3.354 17.947 9.986 22.832 14.493 2.33 2.15 6.075 1.167 7.092-1.835 6.813-20.115 4.849-37.371 2.746-46.729z" fill="#f89422"/><path d="m155.137 90.188c4.549-5.275 9.099-10.551 13.648-15.826 2.822-3.273 3.031-6.182-1.103-7.297-16.466-4.442-34.588-.14-48.183 11.05 11.327 2.261 23.307 6.135 35.638 12.073z" fill="#f76e23"/><path d="m175.783 153.47c-7.951 6.082-14.475 11.956-20.692 17.026 4.905.309 9.818.493 14.732.527 9.623.066 12.717-4.135 8.266-12.973-.769-1.527-1.538-3.054-2.306-4.58z" fill="#f76e23"/><path d="m219.995 113.364c.002 0 .003-.001.005-.001-22.817 5.045-40.45-8.859-40.45-8.859-49.855-34.748-97.449-32.827-123.835-22.045-2.883-2.036-6.394-3.244-10.192-3.244-9.776 0-17.702 7.925-17.702 17.702 0 2.388.479 4.661 1.336 6.74-12.617 10.468-27.454 12.05-26.624 17.031 1.012 6.069 8.519 8.759 8.519 8.759-3.227.95-4.991 3.056-5.941 4.859-.77 1.461-.204 3.254 1.238 4.058 1.111.619 2.474 1.727 4.214 3.442 12.939-6.724 30.282-4.413 44.357.362 2.589.878 5.625 2.347 9.208 3.784l.096-.101c1.858-1.761 3.021-4.248 3.021-7.009 0-1.918-.574-3.695-1.538-5.198 9.587-3.164 12.309-2.788 27.354-4.975.031-.004.063-.009.094-.014 4.205-.614 7.552 3.555 5.935 7.485-1.713 4.163-3.614 6.381-6.498 9.7-1.484 1.707-2.731 3.039-4.023 4.027 3.656-.366 7.599-1.173 11.856-2.578 11.016-3.636 20.947-10.566 32.386-12.502 12.167-2.059 24.671 1.78 36.928.354 17.32-2.015 39.004-17.494 56.23-7.236.527-5.281-1.415-10.786-5.974-14.541z" fill="#f89422"/><path d="m93.157 128.654c-.031.004-.063.009-.094.014-15.045 2.187-17.767 1.811-27.354 4.975.964 1.503 1.538 3.28 1.538 5.198 0 2.762-1.163 5.248-3.021 7.009 4.654 3.801 10.569 6.036 16.577 6.203 5.667.158 7.923-1.764 11.791-6.215 2.884-3.319 4.785-5.537 6.498-9.7 1.617-3.929-1.73-8.098-5.935-7.484z" fill="#f76e23"/><path d="m244.624 158.141c-1.696 0-3.35-.633-4.634-1.817-5.02-4.633-12.903-10.816-21.959-13.972-.89-.31-1.529-1.093-1.655-2.025s.282-1.857 1.058-2.393c3.705-2.557 5.94-6.599 6.132-11.089.19-4.482-1.69-8.692-5.16-11.552-.738-.608-1.064-1.584-.841-2.514s.958-1.65 1.892-1.857c7.129-1.575 18.271-5.729 23.838-9.694 1.861-1.323 4.25-1.624 6.387-.806 2.172.831 3.772 2.682 4.282 4.951 2.006 8.927 4.307 27.044-2.817 48.078-.753 2.225-2.557 3.898-4.824 4.477-.564.142-1.135.213-1.699.213zm-21.048-18.963c8.188 3.642 15.159 9.183 19.805 13.471.667.615 1.415.509 1.705.434.298-.076 1.023-.348 1.323-1.234 6.732-19.877 4.565-36.963 2.675-45.379-.204-.91-.9-1.267-1.19-1.378-.343-.131-1.017-.278-1.7.21-5.521 3.932-14.69 7.456-21.455 9.416 2.65 3.505 4.015 7.82 3.822 12.341-.196 4.587-1.969 8.829-4.985 12.119z"/><path d="m59.874 150.731c-1.126 0-2.149-.767-2.427-1.91-.327-1.341.496-2.693 1.838-3.02 3.215-.783 5.461-3.646 5.461-6.961 0-2.439-1.225-4.689-3.276-6.018-1.159-.75-1.49-2.298-.74-3.457.751-1.159 2.3-1.489 3.457-.74 3.481 2.254 5.56 6.072 5.56 10.215 0 5.629-3.815 10.489-9.279 11.818-.199.05-.399.073-.594.073z"/><path d="m30.824 109.281c-.804 0-1.594-.388-2.076-1.105-2.242-3.334-3.427-7.227-3.427-11.259 0-11.14 9.062-20.202 20.202-20.202 6.467 0 12.591 3.133 16.382 8.38.809 1.119.557 2.682-.562 3.49-1.119.81-2.681.557-3.49-.562-2.854-3.949-7.463-6.308-12.329-6.308-8.383 0-15.202 6.819-15.202 15.202 0 3.034.891 5.963 2.575 8.47.771 1.146.467 2.699-.68 3.469-.428.288-.912.425-1.393.425z"/><path d="m97.015 193.135c-27.669.001-55.427-10.193-70.127-28.393-11.229-13.903-18.39-22.319-21.755-24.195-2.659-1.481-3.641-4.735-2.233-7.406.607-1.152 1.538-2.501 2.936-3.688-2.44-1.721-5.115-4.443-5.768-8.354-.743-4.46 4.056-6.612 10.132-9.338 4.725-2.12 10.517-4.718 16.004-8.943-.586-1.91-.882-3.888-.882-5.9 0-11.14 9.062-20.202 20.202-20.202 3.719 0 7.312 1.013 10.474 2.939 28.843-11.243 76.408-11.058 124.982 22.798.041.028.08.058.119.089.181.141 18.557 14.272 41.246 7.654 11.7-3.412 17.85-6.76 20.949-8.968 1.859-1.323 4.247-1.625 6.387-.806 2.172.831 3.772 2.682 4.282 4.951 2.006 8.927 4.307 27.044-2.817 48.078-.753 2.225-2.557 3.898-4.824 4.477-2.251.573-4.619-.025-6.331-1.604-7.869-7.262-28.104-22.987-46.005-12.25-12.804 7.683-22.227 15.657-30.539 22.693-8.099 6.854-15.093 12.774-23.239 16.849-12.934 6.465-28.051 9.519-43.193 9.519zm-51.492-111.42c-8.383 0-15.202 6.819-15.202 15.202 0 1.992.386 3.939 1.147 5.787.417 1.012.127 2.177-.715 2.876-6.402 5.312-13.399 8.45-18.508 10.742-2.9 1.302-6.873 3.083-7.259 4.049.762 4.401 6.848 6.701 6.909 6.723 1.019.365 1.687 1.344 1.655 2.426s-.755 2.021-1.794 2.326c-1.981.583-3.475 1.803-4.435 3.626-.131.247-.024.559.243.708 3.732 2.08 9.155 8.02 23.211 25.42 9.911 12.271 27.347 21.362 47.838 24.946 20.978 3.667 42.61.97 59.355-7.403 7.61-3.805 14.393-9.545 22.245-16.192 8.458-7.159 18.045-15.272 31.197-23.164 9.018-5.412 19.275-5.859 30.486-1.326 8.98 3.63 16.639 9.72 21.481 14.188.667.615 1.415.509 1.705.434.298-.076 1.023-.348 1.323-1.234 6.732-19.877 4.565-36.963 2.675-45.379-.204-.91-.9-1.267-1.19-1.378-.343-.131-1.017-.278-1.7.21-4.963 3.536-12.517 6.798-22.448 9.695-24.764 7.22-44.2-7.331-45.681-8.481-47.603-33.157-93.919-32.973-121.401-21.743-.79.321-1.689.22-2.388-.272-2.58-1.822-5.605-2.786-8.749-2.786z"/><path d="m40.498 99.976c-1.377 0-2.495-1.114-2.5-2.492-.014-4.444 3.59-8.072 8.034-8.086h.026c4.431 0 8.044 3.599 8.06 8.033.005 1.381-1.11 2.504-2.491 2.509-.003 0-.006 0-.009 0-1.377 0-2.495-1.113-2.5-2.491-.006-1.685-1.378-3.051-3.061-3.051-.003 0-.006 0-.01 0-1.687.005-3.056 1.383-3.05 3.07.004 1.381-1.111 2.503-2.492 2.508-.002 0-.004 0-.007 0z"/><path d="m155.136 92.688c-.367 0-.737-.08-1.084-.248-11.482-5.529-23.273-9.524-35.043-11.874-.947-.188-1.7-.906-1.936-1.843s.091-1.925.836-2.539c14.402-11.854 33.249-16.166 50.423-11.534 3.219.869 4.385 2.647 4.796 3.986.679 2.209-.146 4.686-2.45 7.358l-13.648 15.827c-.487.565-1.184.867-1.894.867zm-29.759-15.838c9.789 2.355 19.551 5.796 29.11 10.264l12.403-14.384c1.367-1.585 1.497-2.475 1.458-2.626-.002 0-.236-.333-1.319-.625-13.964-3.771-29.18-1.005-41.652 7.371z"/><path d="m170.045 173.523c-.08 0-.159 0-.239-.001-4.779-.032-9.783-.211-14.872-.531-1.026-.064-1.908-.752-2.223-1.73-.314-.979.003-2.052.8-2.702 2.171-1.771 4.367-3.63 6.693-5.598 4.355-3.686 8.859-7.497 14.061-11.476.59-.452 1.352-.62 2.078-.451.725.166 1.338.647 1.673 1.312l2.307 4.579c2.571 5.106 2.945 9.195 1.109 12.152-1.857 2.99-5.583 4.446-11.387 4.446zm-8.444-5.195c2.803.111 5.557.177 8.238.194.067.001.135.001.2.001 3.776 0 6.31-.737 7.145-2.084.83-1.337.358-3.918-1.327-7.266l-.94-1.866c-4.13 3.248-7.857 6.402-11.482 9.47-.621.525-1.231 1.041-1.834 1.551z"/><path d="m234.675 120.658c-1.167 0-2.211-.821-2.448-2.01-.271-1.354.607-2.671 1.961-2.941.049-.01 4.942-.993 7.791-1.943 1.313-.435 2.727.272 3.163 1.581.437 1.31-.271 2.726-1.581 3.163-3.146 1.049-8.18 2.06-8.393 2.102-.166.033-.33.048-.493.048z"/><path d="m242.77 141.901c-.262 0-.528-.042-.791-.129-2.849-.95-7.742-1.934-7.791-1.943-1.354-.271-2.231-1.587-1.961-2.941s1.587-2.229 2.941-1.961c.213.042 5.246 1.053 8.393 2.102 1.31.438 2.018 1.854 1.581 3.163-.35 1.046-1.326 1.709-2.372 1.709z"/><path d="m243.275 130.268h-8.092c-1.381 0-2.5-1.119-2.5-2.5s1.119-2.5 2.5-2.5h8.092c1.381 0 2.5 1.119 2.5 2.5s-1.119 2.5-2.5 2.5z"/><path d="m79.597 120.825c-.159 0-.321-.015-.483-.047-1.354-.265-2.238-1.578-1.973-2.934.253-1.291.514-2.626.335-3.736-.125-.781-.548-1.472-1.005-1.641-1.158-.426-3.6 1.619-5.381 3.112-.405.341-.808.679-1.206 1.002-1.071.871-2.646.706-3.517-.366s-.706-2.646.366-3.517c.377-.306.758-.626 1.142-.948 2.869-2.408 6.437-5.406 10.327-3.974 2.178.805 3.791 2.927 4.211 5.538.319 1.989-.045 3.85-.366 5.49-.234 1.194-1.279 2.021-2.45 2.021z"/><path d="m109.108 117.018c-.159 0-.321-.015-.483-.047-1.354-.265-2.238-1.578-1.973-2.934.252-1.291.514-2.627.335-3.736-.125-.782-.548-1.472-1.004-1.64-1.165-.423-3.603 1.617-5.384 3.112-.405.341-.808.678-1.205 1.001-1.071.871-2.646.707-3.517-.366-.87-1.071-.706-2.646.366-3.517.376-.306.757-.625 1.141-.947 2.871-2.41 6.442-5.407 10.328-3.975 2.178.803 3.791 2.925 4.212 5.538.319 1.988-.045 3.849-.366 5.49-.233 1.193-1.279 2.021-2.45 2.021z"/><path d="m135.765 125.585c-.159 0-.321-.015-.483-.047-1.354-.265-2.238-1.578-1.973-2.934.253-1.291.514-2.626.335-3.736-.125-.781-.548-1.472-1.006-1.64-1.156-.438-3.6 1.618-5.381 3.111-.405.341-.808.679-1.206 1.002-1.071.872-2.646.707-3.517-.366-.87-1.072-.706-2.646.366-3.517.377-.306.758-.626 1.142-.948 2.869-2.408 6.437-5.405 10.327-3.974 2.178.804 3.791 2.926 4.212 5.538.319 1.989-.045 3.85-.366 5.49-.234 1.194-1.279 2.021-2.45 2.021z"/><path d="m157.062 116.736c-.159 0-.321-.015-.483-.047-1.355-.265-2.238-1.579-1.973-2.934.232-1.187.473-2.414.312-3.416-.106-.66-.46-1.259-.824-1.393-.996-.369-3.306 1.579-4.838 2.866-.38.317-.756.633-1.127.935-1.071.871-2.646.706-3.517-.366s-.706-2.646.366-3.517c.351-.284.705-.582 1.062-.882 2.705-2.271 6.071-5.098 9.782-3.728 2.086.769 3.631 2.796 4.031 5.291.303 1.881-.055 3.704-.342 5.17-.232 1.194-1.278 2.021-2.449 2.021z"/><path d="m179.071 126.145c-.159 0-.32-.015-.482-.047-1.355-.265-2.239-1.577-1.974-2.933.187-.958.38-1.949.257-2.716-.081-.506-.342-.813-.427-.845-.608-.24-2.734 1.563-3.644 2.327-.318.268-.634.532-.946.786-1.071.871-2.646.706-3.517-.366-.87-1.071-.706-2.646.366-3.517.291-.236.585-.483.882-.732 2.344-1.968 5.264-4.413 8.589-3.189 1.883.695 3.275 2.513 3.634 4.743.264 1.646-.042 3.21-.288 4.468-.232 1.193-1.278 2.021-2.45 2.021z"/><path d="m52.631 129.18c-.159 0-.32-.015-.482-.047-1.355-.265-2.239-1.577-1.974-2.933.187-.959.381-1.951.258-2.714-.082-.509-.343-.816-.428-.848-.605-.213-2.733 1.564-3.643 2.328-.318.268-.634.532-.946.785-1.071.871-2.646.706-3.517-.366s-.706-2.646.366-3.517c.291-.235.585-.483.882-.732 2.345-1.967 5.264-4.412 8.588-3.189 1.883.695 3.275 2.513 3.634 4.744.265 1.642-.042 3.209-.288 4.468-.232 1.194-1.278 2.021-2.45 2.021z"/><path d="m129.041 104.522c-.159 0-.321-.015-.483-.047-1.354-.265-2.238-1.578-1.973-2.934.253-1.291.514-2.626.335-3.736-.125-.781-.548-1.472-1.006-1.64-1.16-.439-3.598 1.616-5.379 3.11-.406.342-.81.68-1.208 1.003-1.071.871-2.646.707-3.517-.366-.87-1.072-.706-2.646.366-3.517.377-.306.759-.627 1.145-.95 2.869-2.407 6.445-5.402 10.324-3.972 2.178.805 3.792 2.926 4.212 5.538.319 1.989-.045 3.85-.366 5.49-.233 1.194-1.279 2.021-2.45 2.021z"/><path d="m91.973 99.882c-.159 0-.321-.015-.483-.047-1.354-.265-2.238-1.578-1.973-2.934.252-1.291.514-2.627.335-3.736-.125-.782-.548-1.472-1.004-1.64-1.169-.422-3.603 1.618-5.384 3.112-.405.341-.808.678-1.205 1.001-1.071.871-2.646.707-3.517-.366-.87-1.071-.706-2.646.366-3.517.376-.306.757-.625 1.141-.947 2.871-2.41 6.443-5.406 10.328-3.975 2.178.803 3.791 2.925 4.212 5.538.319 1.988-.045 3.849-.366 5.49-.234 1.194-1.279 2.021-2.45 2.021z"/><path d="m20.903 133.542c-5.498 0-10.287-1.602-10.661-1.729-1.307-.448-2.002-1.87-1.555-3.176.448-1.306 1.865-2 3.173-1.556.141.047 14.016 4.66 18.938-2.723.765-1.15 2.318-1.46 3.467-.693 1.148.766 1.459 2.318.693 3.467-3.374 5.063-9.013 6.41-14.055 6.41z"/><path d="m88.568 152.366c-1.018 0-1.944-.62-2.324-1.581-.411-1.04-.081-2.227.807-2.905 1.127-.861 2.276-2.095 3.655-3.681 2.704-3.111 4.491-5.167 6.073-9.011.581-1.413-.092-2.509-.408-2.914-.686-.878-1.754-1.308-2.854-1.146-4.198.61-7.439 1.023-10.044 1.355-6.025.768-9.239 1.178-14.302 2.688.379 1.184.574 2.419.574 3.669 0 3.347-1.334 6.463-3.757 8.782l-.058.061c-.707.734-1.785.968-2.733.588-1.462-.586-2.834-1.178-4.123-1.733-1.88-.81-3.504-1.51-4.957-2.003-9.803-3.325-28.347-7.816-42.401-.511-.961.5-2.137.322-2.907-.438-1.531-1.51-2.769-2.532-3.678-3.039-2.658-1.481-3.64-4.735-2.232-7.406.607-1.152 1.538-2.501 2.936-3.688-2.44-1.721-5.115-4.443-5.768-8.354-.743-4.46 4.056-6.612 10.132-9.338 4.725-2.12 10.517-4.718 16.004-8.943-.586-1.91-.882-3.888-.882-5.9 0-11.14 9.062-20.202 20.202-20.202 3.719 0 7.312 1.013 10.474 2.939 28.843-11.243 76.408-11.058 124.982 22.798.04.028.08.058.118.088.165.129 17.011 13.082 38.325 8.39.043-.011.086-.02.13-.027.804-.146 1.591.107 2.153.633 4.862 4.073 7.384 10.273 6.75 16.618-.085.851-.599 1.6-1.361 1.984-.766.384-1.671.352-2.405-.085-10.53-6.271-23.396-1.837-35.836 2.452-6.597 2.273-12.827 4.421-18.825 5.119-6.033.702-12.095.185-17.957-.317-6.547-.56-12.731-1.089-18.843-.055-6.526 1.104-12.524 3.912-18.874 6.886-4.227 1.979-8.596 4.024-13.146 5.525-4.188 1.382-8.356 2.287-12.391 2.69-.083.008-.166.012-.249.012zm5.398-26.264c2.51 0 4.798 1.112 6.347 3.097 1.779 2.279 2.187 5.23 1.09 7.894-1.609 3.913-3.455 6.345-5.699 8.972 1.307-.33 2.621-.714 3.939-1.148 4.266-1.408 8.498-3.39 12.592-5.306 6.373-2.984 12.963-6.069 20.16-7.287 6.739-1.141 13.533-.56 20.103.002 5.873.502 11.422.977 16.953.333 5.46-.635 11.44-2.696 17.773-4.88 11.576-3.99 24.54-8.457 36.13-3.927-.498-2.946-1.914-5.676-4.083-7.784-22.618 4.391-39.835-8.488-41.205-9.551-47.607-33.158-93.924-32.974-121.406-21.744-.79.321-1.689.22-2.388-.272-2.58-1.822-5.605-2.786-8.749-2.786-8.383 0-15.202 6.819-15.202 15.202 0 1.992.386 3.939 1.147 5.787.417 1.012.127 2.177-.715 2.876-6.402 5.312-13.399 8.45-18.508 10.742-2.9 1.302-6.873 3.083-7.259 4.049.762 4.401 6.848 6.701 6.909 6.723 1.019.365 1.687 1.344 1.655 2.426s-.755 2.021-1.793 2.326c-1.982.583-3.476 1.803-4.436 3.626-.131.247-.024.559.243.708 1.022.57 2.144 1.417 3.463 2.619 15.437-7.045 34.497-2.459 44.695 1.002 1.642.557 3.434 1.329 5.33 2.146.764.329 1.558.671 2.383 1.018.852-1.198 1.309-2.622 1.309-4.124 0-1.353-.395-2.684-1.142-3.85-.417-.65-.51-1.457-.252-2.185.259-.729.839-1.296 1.573-1.538 7.215-2.381 10.791-2.837 17.915-3.745 2.586-.329 5.803-.739 9.862-1.329.428-.062.851-.092 1.266-.092z"/><path d="m81.404 154.562c-.22 0-.443-.003-.672-.01-6.546-.182-12.97-2.585-18.088-6.766-.557-.455-.891-1.127-.917-1.845s.257-1.412.778-1.906c1.444-1.369 2.24-3.215 2.24-5.195 0-1.353-.395-2.684-1.142-3.85-.417-.65-.51-1.457-.252-2.185.259-.729.839-1.296 1.573-1.538 7.215-2.381 10.791-2.837 17.915-3.745 2.586-.329 5.803-.739 9.862-1.329l.453 2.46-.361-2.474c2.895-.423 5.712.704 7.518 3.018 1.779 2.279 2.187 5.23 1.09 7.894-1.894 4.602-4.113 7.155-6.923 10.388-3.804 4.379-6.632 7.083-13.074 7.083zm-13.577-9.161c3.878 2.565 8.427 4.025 13.044 4.153 4.645.13 6.225-1.203 9.835-5.355 2.704-3.111 4.491-5.167 6.073-9.011.581-1.413-.092-2.509-.408-2.914-.686-.878-1.754-1.308-2.854-1.146-.022.003-.052.008-.061.009-4.138.602-7.379 1.015-9.983 1.347-6.025.768-9.239 1.178-14.302 2.688.379 1.184.574 2.42.574 3.669.001 2.369-.668 4.623-1.918 6.56z"/></svg>