<svg enable-background="new 0 0 256 256" height="512" viewBox="0 0 256 256" width="512" xmlns="http://www.w3.org/2000/svg"><g fill="#7ed5fc"><path d="m221.163 83.55c-4.772-3.561-11.506-2.774-15.364 1.76-16.086 18.909-33.369 34.606-46.225 45.302 6.098 8.711 10.078 20.603 10.931 35.29 1.76.31 3.613.62 5.551.923 22.677-1.626 38.78-4.652 48.826-7.107 8.467-2.069 15.201-8.647 17.245-17.12 7.675-31.817-9.496-50.49-20.964-59.048z"/><path d="m221.195 177.534c-.224-4.162-3.665-7.431-7.832-7.474-16.289-.166-31.529-2.161-42.859-4.157.113 1.947.191 3.926.191 5.971 0 10.698-1.585 20.351-4.394 28.688 6.398 5.963 11.682 10.214 15.598 13.108 4.908 3.626 11.463 4.299 16.936 1.602 20.551-10.132 22.898-27.735 22.36-37.738z"/><path d="m85.305 171.875c0-2.045.078-4.024.191-5.971-11.33 1.996-26.57 3.991-42.859 4.157-4.168.043-7.609 3.312-7.832 7.474-.538 10.003 1.809 27.606 22.36 37.738 5.473 2.698 12.028 2.025 16.936-1.602 3.917-2.894 9.2-7.145 15.598-13.108-2.809-8.337-4.394-17.991-4.394-28.688z"/><path d="m96.426 130.612c-12.856-10.696-30.138-26.392-46.224-45.301-3.858-4.534-10.592-5.321-15.364-1.76-11.468 8.557-28.64 27.231-20.964 59.048 2.044 8.473 8.778 15.051 17.245 17.12 10.046 2.455 26.15 5.481 48.826 7.107 1.938-.303 3.791-.613 5.551-.923.852-14.688 4.832-26.58 10.93-35.291z"/></g><path d="m128 233.774c-3.025 0-5.974-.412-8.821-1.198l7.002 19.641c.61 1.71 3.028 1.71 3.637 0l7.002-19.641c-2.846.786-5.795 1.198-8.82 1.198z" fill="#52565b"/><path d="m152.045 122.295c-6.849 3.39-15.055 5.403-24.034 5.403-8.882 0-17.125-2.008-24.035-5.421-11.27 9.497-18.671 26.434-18.671 49.598 0 37.231 19.115 61.9 42.695 61.9s42.695-24.669 42.695-61.9c0-23.149-7.393-40.08-18.65-49.58z" fill="#f9bd55"/><path d="m92.636 137.006c-2.028 4.029-3.682 8.548-4.904 13.531 12.07 3.968 25.749 6.123 40.265 6.123 14.511 0 28.2-2.138 40.27-6.101-1.223-4.993-2.879-9.52-4.91-13.555-10.826 2.12-22.779 3.261-35.36 3.261s-24.537-1.137-35.361-3.259z" fill="#52565b"/><path d="m85.504 165.766c-.118 1.991-.199 4.015-.199 6.109 0 4.008.234 7.86.659 11.561 12.82 3.735 27.046 5.741 42.036 5.741s29.215-2.006 42.036-5.74c.425-3.701.659-7.554.659-11.562 0-2.09-.081-4.111-.199-6.098-12.938 2.69-27.33 4.13-42.496 4.13-15.17 0-29.556-1.449-42.496-4.141z" fill="#52565b"/><path d="m88.392 196.24c1.77 6.51 4.248 12.315 7.295 17.303 9.687 4.036 20.663 6.232 32.314 6.232 11.641 0 22.617-2.178 32.298-6.205 3.054-4.992 5.537-10.804 7.31-17.324-11.3 4.418-24.925 6.86-39.608 6.86-14.686-.001-28.31-2.444-39.609-6.866z" fill="#52565b"/><path d="m169.88 83.578c-2.251-5.086-1.986-8.897-1.986-12.059 0-18.363-18.061-33.248-40.341-33.248s-40.342 14.886-40.342 33.248c0 3.101 1.011 6.923-1.394 12.824-8.996 22.082 13.24 43.354 42.194 43.354 30.007.001 51.5-22.36 41.869-44.119z" fill="#f9bd55"/><circle cx="168.586" cy="8.003" fill="#f89422" r="5.503"/><circle cx="87.414" cy="8.462" fill="#f89422" r="5.503"/><path d="m145.62 41.793c3.349-15.232 12.102-26.49 17.654-32.373-.121-.453-.191-.926-.191-1.417 0-.415.05-.818.137-1.206-16.012 8.167-23.494 29.15-24.673 32.734 2.461.574 4.827 1.333 7.073 2.262z" fill="#f89422"/><path d="m110.208 41.495c2.239-.88 4.592-1.594 7.036-2.125-1.697-4.919-9.21-24.334-24.464-32.114.087.388.137.791.137 1.206 0 .491-.07.964-.191 1.417 5.46 5.785 14.015 16.768 17.482 31.616z" fill="#f89422"/><path d="m126.407 57.022c.799 1.074 2.386 1.074 3.185 0 6.784-9.117 18.933-11.808 28.703-7.019-16.598-16.093-46.849-15.542-62.583 1.112 10.207-6.321 23.53-3.724 30.695 5.907z" fill="#52565b"/><ellipse cx="128" cy="97.889" fill="#f89422" rx="9.172" ry="6.42"/><path d="m128 106.81c-6.545 0-11.672-3.919-11.672-8.921s5.127-8.92 11.672-8.92 11.672 3.918 11.672 8.92-5.127 8.921-11.672 8.921zm0-12.841c-3.932 0-6.672 2.065-6.672 3.92s2.74 3.921 6.672 3.921 6.672-2.066 6.672-3.921-2.74-3.92-6.672-3.92z"/><path d="m128.011 130.197c-17.532 0-33.452-7.479-41.546-19.517-5.652-8.406-6.705-18.095-2.962-27.28 1.674-4.11 1.48-7.037 1.31-9.62-.052-.78-.101-1.517-.101-2.261 0-19.712 19.219-35.749 42.841-35.749s42.841 16.037 42.841 35.749l-.005.92c-.021 2.815-.046 6.007 1.777 10.127 4.085 9.23 3.231 19.083-2.406 27.742-7.986 12.268-23.983 19.889-41.749 19.889zm-.459-89.426c-20.866 0-37.841 13.794-37.841 30.749 0 .578.043 1.235.089 1.93.187 2.811.441 6.66-1.667 11.838-3.966 9.734-.84 17.665 2.481 22.604 7.178 10.675 21.507 17.307 37.397 17.307 16.094 0 30.486-6.75 37.559-17.616 4.683-7.194 5.402-15.359 2.024-22.991-2.259-5.104-2.229-9.033-2.205-12.188l.004-.882c.001-16.958-16.975-30.751-37.841-30.751z"/><path d="m128 60.327c-1.429 0-2.741-.661-3.599-1.813-6.453-8.673-18.221-10.94-27.373-5.273-1.067.662-2.459.43-3.254-.545-.793-.974-.742-2.384.12-3.297 7.91-8.373 19.768-13.335 32.533-13.615 12.924-.269 25.172 4.246 33.608 12.425.883.856 1.012 2.227.305 3.233s-2.04 1.349-3.146.807c-8.889-4.358-19.653-1.721-25.596 6.266-.857 1.151-2.169 1.812-3.598 1.812zm-19.849-15.204c7.52.079 14.863 3.508 19.849 9.865 4.753-6.052 11.794-9.486 19.084-9.805-6.11-3.009-13.193-4.566-20.547-4.401-6.588.145-12.889 1.663-18.386 4.341z"/><path d="m128.011 130.197c-17.532 0-33.452-7.479-41.546-19.517-5.652-8.406-6.705-18.095-2.962-27.28 1.674-4.11 1.48-7.037 1.31-9.62-.052-.78-.101-1.517-.101-2.261 0-19.712 19.219-35.749 42.841-35.749s42.841 16.037 42.841 35.749l-.005.92c-.021 2.815-.046 6.007 1.777 10.127 4.085 9.23 3.231 19.083-2.406 27.742-7.986 12.268-23.983 19.889-41.749 19.889zm-.459-89.426c-20.866 0-37.841 13.794-37.841 30.749 0 .578.043 1.235.089 1.93.187 2.811.441 6.66-1.667 11.838-3.966 9.734-.84 17.665 2.481 22.604 7.178 10.675 21.507 17.307 37.397 17.307 16.094 0 30.486-6.75 37.559-17.616 4.683-7.194 5.402-15.359 2.024-22.991-2.259-5.104-2.229-9.033-2.205-12.188l.004-.882c.001-16.958-16.975-30.751-37.841-30.751z"/><path d="m128 60.327c-1.429 0-2.741-.661-3.599-1.813-6.453-8.673-18.221-10.94-27.373-5.273-1.067.662-2.459.43-3.254-.545-.793-.974-.742-2.384.12-3.297 7.91-8.373 19.768-13.335 32.533-13.615 12.924-.269 25.172 4.246 33.608 12.425.883.856 1.012 2.227.305 3.233s-2.04 1.349-3.146.807c-8.889-4.358-19.653-1.721-25.596 6.266-.857 1.151-2.169 1.812-3.598 1.812zm-19.849-15.204c7.52.079 14.863 3.508 19.849 9.865 4.753-6.052 11.794-9.486 19.084-9.805-6.11-3.009-13.193-4.566-20.547-4.401-6.588.145-12.889 1.663-18.386 4.341z"/><path d="m103.839 85.452c-1.377 0-2.496-1.114-2.5-2.492-.008-2.637 1.01-5.12 2.869-6.991s4.335-2.906 6.973-2.914h.034c2.625 0 5.094 1.018 6.957 2.869 1.871 1.858 2.905 4.335 2.914 6.973.004 1.381-1.111 2.503-2.492 2.508-.003 0-.006 0-.008 0-1.377 0-2.496-1.114-2.5-2.492-.004-1.302-.515-2.523-1.438-3.441-.923-.917-2.138-1.426-3.451-1.416-1.302.004-2.524.515-3.441 1.438-.918.924-1.421 2.149-1.417 3.451.004 1.381-1.111 2.503-2.492 2.508-.003-.001-.006-.001-.008-.001z"/><path d="m137.414 85.452c-1.377 0-2.496-1.114-2.5-2.492-.008-2.637 1.01-5.12 2.869-6.991s4.335-2.906 6.973-2.914h.034c2.624 0 5.094 1.018 6.957 2.869 1.871 1.858 2.906 4.335 2.915 6.973.004 1.381-1.111 2.503-2.492 2.508-.003 0-.006 0-.008 0-1.377 0-2.496-1.114-2.5-2.492-.004-1.302-.515-2.523-1.438-3.441-.919-.913-2.139-1.416-3.434-1.416-.006 0-.011 0-.017 0-1.302.004-2.524.515-3.441 1.438-.918.924-1.421 2.149-1.417 3.451.004 1.381-1.111 2.503-2.492 2.508-.004-.001-.006-.001-.009-.001z"/><path d="m128 116.478c-6.411 0-12.549-2.735-16.839-7.505-.924-1.026-.84-2.607.187-3.53s2.608-.839 3.53.187c3.344 3.717 8.126 5.849 13.122 5.849s9.778-2.132 13.122-5.849c.923-1.026 2.504-1.11 3.53-.187s1.11 2.504.187 3.53c-4.29 4.769-10.428 7.505-16.839 7.505z"/><path d="m168.586 16.007c-4.413 0-8.003-3.591-8.003-8.004s3.59-8.003 8.003-8.003 8.003 3.59 8.003 8.003-3.59 8.004-8.003 8.004zm0-11.007c-1.656 0-3.003 1.347-3.003 3.003s1.347 3.004 3.003 3.004 3.003-1.348 3.003-3.004-1.347-3.003-3.003-3.003z"/><path d="m87.414 16.465c-4.413 0-8.003-3.59-8.003-8.003s3.59-8.003 8.003-8.003 8.003 3.59 8.003 8.003-3.59 8.003-8.003 8.003zm0-11.006c-1.656 0-3.003 1.347-3.003 3.003s1.347 3.003 3.003 3.003 3.003-1.347 3.003-3.003-1.347-3.003-3.003-3.003z"/><path d="m145.62 44.293c-.324 0-.649-.062-.955-.189-2.133-.882-4.382-1.602-6.685-2.138-.684-.159-1.269-.598-1.612-1.21-.344-.611-.415-1.34-.196-2.006 1.384-4.206 9.138-25.623 25.912-34.18.864-.442 1.904-.343 2.669.252.766.594 1.119 1.577.906 2.523-.05.224-.076.444-.076.657 0 .251.035.505.107.775.223.836-.003 1.729-.598 2.358-4.953 5.247-13.751 16.276-17.03 31.193-.159.722-.629 1.337-1.285 1.679-.362.191-.759.286-1.157.286zm-3.795-6.482c.686.201 1.365.418 2.037.648 2.142-7.951 5.665-14.767 9.237-20.182-5.981 7.051-9.654 15.341-11.274 19.534z"/><path d="m110.208 43.995c-.4 0-.799-.096-1.162-.286-.643-.338-1.107-.938-1.272-1.646-3.401-14.566-12.027-25.342-16.866-30.469-.594-.63-.82-1.522-.598-2.358.072-.271.107-.523.107-.774 0-.216-.025-.431-.076-.657-.213-.946.14-1.93.906-2.523.766-.594 1.806-.692 2.669-.252 15.906 8.113 23.686 27.712 25.691 33.525.233.676.166 1.418-.184 2.041-.35.622-.95 1.065-1.648 1.218-2.289.497-4.527 1.173-6.653 2.009-.294.115-.604.172-.914.172zm-7.326-25.285c3.472 5.258 6.903 11.843 9.062 19.508.653-.213 1.313-.413 1.979-.599-1.708-4.305-5.315-12.171-11.041-18.909z"/><path d="m128 236.274c-26.188 0-45.195-27.084-45.195-64.399 0-22.587 6.946-40.881 19.56-51.511.76-.64 1.828-.77 2.718-.329 6.837 3.377 14.765 5.162 22.927 5.162 8.2 0 16.127-1.778 22.925-5.143.893-.443 1.96-.311 2.721.329 12.599 10.632 19.538 28.919 19.538 51.491.001 37.316-19.007 64.4-45.194 64.4zm-23.608-111.035c-10.709 9.813-16.586 26.293-16.586 46.636 0 34.418 16.904 59.399 40.195 59.399s40.195-24.981 40.195-59.399c0-20.328-5.87-36.801-16.566-46.616-7.128 3.235-15.255 4.938-23.618 4.938-8.331 0-16.459-1.71-23.62-4.958z"/><path d="m128 256c-1.898 0-3.536-1.155-4.173-2.942l-7.002-19.642c-.313-.879-.111-1.858.524-2.542s1.598-.955 2.497-.708c5.324 1.471 10.986 1.471 16.311 0 .899-.247 1.862.026 2.497.708.635.684.837 1.663.524 2.542l-7.002 19.642c-.64 1.787-2.278 2.942-4.176 2.942zm-4.973-20.076 4.973 13.951 4.973-13.951c-3.295.467-6.651.467-9.946 0z"/><path d="m176.056 169.326c-.129 0-.259-.01-.387-.03-1.955-.307-3.824-.618-5.599-.932-1.141-.201-1.994-1.16-2.061-2.317-.788-13.571-4.412-25.328-10.483-34.001-.745-1.065-.55-2.523.449-3.355 11.925-9.921 29.571-25.782 45.92-45 4.712-5.538 12.955-6.479 18.764-2.144 11.637 8.684 29.957 28.237 21.899 61.638-2.261 9.373-9.573 16.639-19.082 18.963-9.621 2.351-25.974 5.504-49.241 7.172-.06.004-.12.006-.179.006zm-3.192-5.553c1.068.181 2.168.36 3.297.539 22.769-1.649 38.732-4.727 48.127-7.022 7.684-1.878 13.588-7.731 15.409-15.277 7.384-30.611-9.38-48.512-20.029-56.458-3.702-2.764-8.958-2.159-11.965 1.376-15.808 18.581-32.792 34.053-44.806 44.161 5.548 8.749 8.969 19.961 9.967 32.681z"/><path d="m191.71 219.436c-3.973 0-7.934-1.271-11.297-3.755-4.981-3.681-10.303-8.151-15.816-13.289-.718-.669-.979-1.697-.665-2.628 2.829-8.394 4.263-17.777 4.263-27.889 0-1.785-.06-3.637-.187-5.826-.044-.764.263-1.505.833-2.013.571-.509 1.34-.731 2.096-.595 14.746 2.597 29.029 3.982 42.451 4.119 5.484.056 10.01 4.377 10.304 9.84.555 10.334-1.792 29.288-23.751 40.113-2.611 1.288-5.424 1.922-8.231 1.923zm-22.537-19.622c4.958 4.556 9.733 8.536 14.211 11.845 4.228 3.124 9.725 3.649 14.346 1.37 19.385-9.557 21.458-26.257 20.969-35.361-.152-2.835-2.507-5.079-5.361-5.107-12.758-.13-26.265-1.364-40.193-3.67.034 1.036.05 2.018.05 2.984 0 10.043-1.353 19.433-4.022 27.939z"/><path d="m64.29 219.436c-2.807 0-5.62-.634-8.231-1.922-21.959-10.826-24.306-29.78-23.751-40.114.293-5.463 4.82-9.784 10.304-9.84 13.422-.137 27.705-1.522 42.451-4.119.753-.136 1.525.086 2.096.595.571.508.878 1.249.833 2.013-.127 2.189-.187 4.041-.187 5.826 0 10.111 1.435 19.495 4.263 27.889.313.931.053 1.959-.665 2.628-5.514 5.138-10.835 9.608-15.817 13.289-3.361 2.484-7.323 3.755-11.296 3.755zm18.565-50.545c-13.928 2.306-27.435 3.54-40.193 3.67-2.854.028-5.209 2.272-5.361 5.107-.49 9.104 1.584 25.805 20.969 35.361 4.622 2.28 10.119 1.755 14.345-1.37 4.479-3.309 9.254-7.289 14.212-11.845-2.669-8.507-4.022-17.896-4.022-27.939 0-.967.016-1.948.05-2.984z"/><path d="m79.944 169.326c-.06 0-.119-.002-.179-.007-23.268-1.668-39.62-4.821-49.241-7.172-9.509-2.324-16.821-9.59-19.083-18.963-8.057-33.4 10.262-52.954 21.899-61.638 5.81-4.336 14.052-3.396 18.763 2.144 16.353 19.222 33.997 35.081 45.92 45 1 .832 1.194 2.29.449 3.355-6.07 8.672-9.694 20.429-10.482 34.001-.067 1.157-.92 2.116-2.061 2.317-1.775.313-3.645.625-5.599.932-.127.021-.256.031-.386.031zm-38.383-85.504c-1.829 0-3.667.566-5.229 1.732-10.649 7.946-27.413 25.847-20.029 56.458 1.821 7.546 7.725 13.399 15.409 15.277 9.396 2.296 25.359 5.373 48.127 7.022 1.129-.179 2.229-.358 3.297-.539.998-12.721 4.42-23.935 9.967-32.682-12.012-10.106-28.996-25.576-44.806-44.161-1.739-2.042-4.23-3.107-6.736-3.107z"/><path d="m127.998 159.16c-14.625 0-28.434-2.103-41.046-6.248-1.241-.408-1.958-1.702-1.647-2.971 1.248-5.086 2.963-9.816 5.099-14.06.504-1.003 1.613-1.552 2.714-1.329 10.871 2.131 22.607 3.212 34.88 3.212 12.259 0 23.994-1.081 34.879-3.214 1.095-.222 2.209.326 2.713 1.329 2.14 4.251 3.858 8.989 5.105 14.084.311 1.269-.407 2.562-1.648 2.97-12.583 4.132-26.394 6.227-41.049 6.227zm-37.243-10.288c11.499 3.51 24.014 5.288 37.243 5.288 13.256 0 25.774-1.771 37.248-5.268-.903-3.216-2.01-6.255-3.308-9.075-10.66 1.956-22.068 2.947-33.94 2.947-11.885 0-23.293-.99-33.942-2.944-1.294 2.813-2.399 5.843-3.301 9.052z"/><path d="m128 191.677c-15.055 0-29.433-1.965-42.735-5.841-.966-.282-1.67-1.115-1.785-2.115-.448-3.902-.675-7.888-.675-11.846 0-1.929.065-3.917.204-6.257.043-.725.399-1.396.976-1.837s1.316-.608 2.029-.462c13.039 2.712 27.166 4.087 41.986 4.087 14.844 0 28.971-1.372 41.987-4.077.713-.147 1.452.021 2.028.462.577.441.933 1.112.976 1.837.139 2.332.203 4.317.203 6.247 0 3.958-.227 7.944-.675 11.847-.115 1-.818 1.834-1.785 2.115-13.303 3.875-27.681 5.84-42.734 5.84zm-39.728-10.184c12.397 3.44 25.753 5.184 39.728 5.184 13.974 0 27.329-1.743 39.728-5.183.31-3.182.467-6.409.467-9.619 0-.993-.018-2.005-.056-3.079-12.546 2.396-26.034 3.61-40.139 3.61-14.085 0-27.572-1.217-40.138-3.62-.038 1.079-.057 2.094-.057 3.089 0 3.209.157 6.437.467 9.618z"/><path d="m128.001 222.274c-11.848 0-23.043-2.161-33.276-6.424-.487-.203-.897-.555-1.172-1.004-3.222-5.273-5.77-11.312-7.574-17.95-.248-.912.04-1.886.742-2.517.704-.63 1.703-.81 2.582-.468 11.191 4.379 24.573 6.693 38.698 6.693s27.506-2.312 38.697-6.688c.88-.343 1.878-.162 2.581.468.703.632.99 1.604.742 2.517-1.808 6.648-4.361 12.695-7.59 17.972-.275.45-.685.801-1.172 1.004-10.203 4.245-21.393 6.397-33.258 6.397zm-30.599-10.729c9.416 3.803 19.706 5.729 30.599 5.729 10.91 0 21.195-1.919 30.583-5.704 2.028-3.43 3.758-7.21 5.168-11.29-10.705 3.492-22.953 5.325-35.751 5.325s-25.047-1.834-35.753-5.33c1.406 4.072 3.132 7.845 5.154 11.27z"/></svg>