<svg enable-background="new 0 0 256 256" height="512" viewBox="0 0 256 256" width="512" xmlns="http://www.w3.org/2000/svg"><path d="m39.827 178.916c-.092.62-.155 1.25-.187 1.888-.69 13.523-6.899 27.183-15.592 27.183-13.04 0-12.356 11.426-12.356 11.426-1.321.562-2.655 1.246-3.944 2.08-7.917 5.123-11.177 10.246 22.354 10.246 25.817 0 40.305-11.326 45.821-27.8-19.031-4.123-30.063-13.645-36.096-25.023z" fill="#828487"/><path d="m238.192 173.113c-1.259-1.271-6.359-5.188-13.263-14.581-15.205-20.688-46.308-32.34-73.437-34.806-26.121-2.375-35.983-19.62-39.668-33.604-3.536 5.855-10.699 9.87-18.98 9.87-8.224 0-15.35-3.958-18.911-9.749-3.561 5.791-10.687 9.749-18.911 9.749-5.49 0-10.48-1.776-14.261-4.67.648 6.711.362 15.646-2.887 25.856-6.852 21.534-16.507 85.366 61.318 84.946 7.136 15.385 22.563 25.613 48.223 25.613 36.684 0 33.117-5.604 24.456-11.209-1.41-.912-2.869-1.661-4.314-2.275 0 0 .748-12.5-13.518-12.5-3.005 0-5.738-1.496-8.096-4.003 34.363-5.371 46.259-12.626 57.473-12.035 3.91.206 5.894 3.148 5.794 3.064 9.445 12.593-31.461 33.22-8.807 37.939 24.456 5.095 47.383-3.566 52.478-25.984 3.234-14.228-6.873-25.374-14.689-31.621z" fill="#828487"/><path d="m94.429 183.846c-.002-.098-.001-.19-.002-.287-29.297-14.505-21.238-46.446-33.927-54.059-8.98-5.388-17.748-3.458-24.948.565-5.592 26.403-5.289 76.431 63.641 76.06-3.066-6.609-4.611-14.164-4.764-22.279z" fill="#a8aeb2"/><path d="m139.615 190.257c1.548 4.652 3.704 8.702 6.328 11.494 34.363-5.371 46.259-12.626 57.473-12.035 2.343.124 3.988 1.227 4.914 2.075-6.107-25.504-30.503-4.763-68.715-1.534z" fill="#a8aeb2"/><path d="m55.022 63.751h8.678c-.097.145-.178.301-.249.464 1.128-2.588 5.694-2.816 10.068-2.816 4.373 0 8.94.228 10.068 2.816-.071-.163-.152-.319-.249-.464h9.506c6.573 0 12.446 2.528 16.36 6.498v-11.229c0-19.335-15.82-35.155-35.155-35.155-19.335 0-35.155 15.82-35.155 35.155v11.012c3.912-3.841 9.679-6.281 16.128-6.281z" fill="#828487"/><path d="m92.844 63.751h-9.506c.332.493.517 1.089.517 1.809 0 3.863-5.299 9.326-10.336 9.326s-10.336-5.463-10.336-9.326c0-.72.185-1.315.517-1.809h-8.678c-11.783 0-21.335 8.113-21.335 18.121s9.552 18.121 21.335 18.121c8.224 0 15.35-3.958 18.911-9.749 3.561 5.79 10.686 9.749 18.911 9.749 11.783 0 21.335-8.113 21.335-18.121s-9.552-18.121-21.335-18.121z" fill="#828487"/><path d="m83.855 65.56c0 3.863-5.299 9.326-10.336 9.326s-10.336-5.463-10.336-9.326 5.299-4.161 10.336-4.161 10.336.298 10.336 4.161z" fill="#52565b"/><path d="m74 112.286c6.988 0 12.823-5.438 14.291-12.709-6.251-1.156-11.474-4.643-14.358-9.333-2.865 4.658-8.037 8.125-14.231 9.305 1.459 7.286 7.301 12.737 14.298 12.737z" fill="#828487"/><path d="m74 101.429c3.108 0 5.87-1.617 7.66-4.129-3.263-1.714-5.943-4.155-7.727-7.056-1.766 2.872-4.411 5.291-7.629 7.002 1.788 2.542 4.567 4.183 7.696 4.183z" fill="#f98080"/><path d="m208.047 233.729c-.772 0-1.534-.356-2.023-1.029-.812-1.117-.565-2.681.551-3.492 20.827-15.147 15.401-38.935 15.345-39.174-.322-1.342.505-2.691 1.848-3.014 1.334-.325 2.691.505 3.014 1.848.065.271 6.231 27.295-17.265 44.383-.446.322-.96.478-1.47.478z"/><path d="m238.354 228.112c-.255 0-.514-.039-.769-.122-1.314-.424-2.036-1.833-1.611-3.146 6.929-21.469-4.877-38.357-4.997-38.525-.803-1.124-.542-2.685.581-3.487 1.124-.802 2.685-.543 3.487.581.55.77 13.38 19.13 5.687 42.967-.342 1.058-1.324 1.732-2.378 1.732z"/><path d="m167.556 220.755c-.326 0-.658-.064-.978-.2-6.097-2.593-11.957-2.62-12.026-2.62-.001 0-.001 0-.001 0s-.001 0-.002 0c-1.38 0-2.499-1.118-2.5-2.498s1.117-2.501 2.498-2.502h.003c.326 0 6.979.039 13.985 3.019 1.271.54 1.862 2.009 1.322 3.279-.404.951-1.329 1.522-2.301 1.522z"/><path d="m147.416 234.238c-18.098 0-32.171-4.896-41.826-14.552-8.658-8.658-13.382-21.035-13.661-35.794-.077-4.071.223-7.86.891-11.261.267-1.354 1.589-2.235 2.935-1.972 1.355.267 2.238 1.58 1.972 2.935-.6 3.054-.868 6.486-.797 10.203.253 13.44 4.471 24.627 12.196 32.353 8.685 8.685 21.567 13.088 38.291 13.088 22.061 0 26.659-2.111 27.6-2.878-.272-.456-1.222-1.609-4.503-3.732-1.196-.774-2.52-1.472-3.935-2.073-.973-.414-1.58-1.395-1.517-2.45.001-.026.164-4.107-2.521-6.926-1.85-1.94-4.71-2.925-8.501-2.925-5.376 0-10.354-3.78-14.019-10.645-3.121-5.847-5.139-13.672-5.537-21.468-.07-1.379.991-2.554 2.37-2.624 1.36-.053 2.553.99 2.624 2.37.757 14.834 7.425 27.366 14.562 27.366 5.246 0 9.341 1.524 12.172 4.529 2.816 2.99 3.587 6.682 3.786 8.834 1.139.552 2.221 1.158 3.232 1.813 3.924 2.539 7.789 5.629 6.706 9.297-1.155 3.91-7.126 6.512-32.52 6.512z"/><path d="m11.692 221.914c-.973 0-1.897-.571-2.302-1.522-.54-1.271.052-2.739 1.322-3.279 6.446-2.74 12.568-2.776 12.867-2.776h.003c1.381.001 2.499 1.121 2.498 2.502-.001 1.38-1.12 2.498-2.5 2.498-.001 0-.001 0-.002 0-.049 0-5.416.042-10.909 2.378-.318.135-.65.199-.977.199z"/><path d="m30.102 234.238c-23.423 0-28.817-2.336-29.931-6.105-1.169-3.959 3.821-7.188 6.219-8.738.901-.584 1.862-1.125 2.87-1.618.203-2.016.943-5.361 3.505-8.081 2.63-2.792 6.426-4.208 11.282-4.208 6.412 0 12.409-11.361 13.096-24.811.036-.704.107-1.421.212-2.127.158-1.068.984-1.915 2.049-2.098 1.067-.186 2.127.338 2.633 1.293 6.477 12.215 18.057 20.205 34.416 23.75.694.15 1.292.59 1.644 1.207.352.618.424 1.356.198 2.03-6.373 19.028-23.487 29.506-48.193 29.506zm-24.93-7.471c1.133.737 5.832 2.472 24.93 2.472 21.537 0 36.163-8.116 42.491-23.515-13.575-3.447-23.969-9.944-31.014-19.372-.813 5.264-2.39 10.283-4.529 14.293-3.389 6.347-8.006 9.843-13.003 9.843-3.402 0-5.963.876-7.611 2.604-2.392 2.506-2.249 6.152-2.248 6.188.049 1.045-.556 2.025-1.519 2.435-1.278.544-2.478 1.176-3.562 1.878-2.632 1.702-3.59 2.703-3.935 3.174z"/><path d="m213.69 234.64c-4.412 0-9.032-.479-13.797-1.473-4.83-1.006-7.642-2.854-8.594-5.647-1.629-4.776 2.816-9.967 7.964-15.977 6.312-7.368 10.904-13.318 7.946-17.263-.047-.063-.091-.128-.132-.193-.242-.299-1.533-1.755-3.794-1.874-5.021-.266-10.376 1.223-18.472 3.476-7.607 2.117-17.67 4.918-31.988 7.451.403.077.809.115 1.215.115 5.246 0 9.342 1.524 12.173 4.529 2.815 2.989 3.586 6.682 3.785 8.834 1.136.55 2.218 1.156 3.231 1.812 3.925 2.54 7.79 5.63 6.707 9.298-1.154 3.908-7.126 6.511-32.52 6.511-30.14 0-43.697-13.596-49.789-25.613-26.431-.15-45.357-7.747-56.272-22.591-17.764-24.155-7.999-58.895-5.862-65.613 2.639-8.29 3.574-16.653 2.781-24.858-.096-.99.404-1.942 1.274-2.426.868-.483 1.941-.405 2.733.2 3.501 2.68 8.026 4.155 12.741 4.155 7.104 0 13.535-3.279 16.781-8.558.455-.74 1.262-1.19 2.13-1.19.868 0 1.675.451 2.13 1.19 3.246 5.278 9.676 8.558 16.78 8.558 7.16 0 13.612-3.319 16.84-8.662.519-.858 1.502-1.328 2.495-1.182.994.143 1.806.866 2.062 1.838 3.492 13.247 12.828 29.51 37.479 31.751 24.173 2.196 58.379 12.895 75.225 35.814 5.554 7.555 9.858 11.426 11.928 13.286.417.375.747.674.985.905 12.653 10.155 18.145 22.242 15.462 34.046-4.166 18.337-20.488 29.35-41.627 29.351zm-2.48-43.36c5.599 7.465-2.023 16.364-8.148 23.516-3.266 3.812-7.737 9.034-7.029 11.11.31.909 2.135 1.794 4.881 2.366 29.057 6.05 45.813-7.738 49.53-24.091 2.873-12.644-5.926-22.812-13.812-29.115-.076-.061-.148-.126-.217-.195-.194-.196-.494-.463-.886-.815-2.193-1.972-6.756-6.074-12.614-14.043-15.861-21.58-48.51-31.693-71.648-33.797-24.705-2.246-35.639-17.097-40.44-30.812-4.465 4.456-10.973 7.088-17.981 7.088-7.499 0-14.445-3.024-18.91-8.07-4.466 5.046-11.412 8.07-18.911 8.07-4.044 0-7.99-.894-11.489-2.564.149 7.31-.947 14.691-3.276 22.009-2.008 6.313-11.202 38.933 5.125 61.136 10.031 13.641 27.879 20.555 53.049 20.555.255 0 .556.005.762-.002.973 0 1.858.564 2.268 1.448 7.333 15.809 23.225 24.165 45.956 24.165 22.061 0 26.659-2.111 27.6-2.878-.272-.456-1.222-1.609-4.503-3.732-1.199-.775-2.523-1.474-3.935-2.073-.973-.414-1.58-1.395-1.517-2.45.001-.026.164-4.107-2.521-6.925-1.849-1.94-4.709-2.925-8.501-2.925-3.541 0-6.971-1.657-9.917-4.792-.635-.675-.845-1.646-.543-2.523.301-.877 1.062-1.516 1.979-1.658 17.559-2.745 29.323-6.019 37.914-8.409 8.262-2.3 14.232-3.963 20.076-3.651 3.91.206 6.621 2.54 7.652 4.066zm-4.473 1.871c.043.306.141.593.283.836-.145-.263-.24-.547-.283-.836z"/><path d="m73.934 93.109c-1.381 0-2.5-1.119-2.5-2.5v-15.285c0-1.381 1.119-2.5 2.5-2.5s2.5 1.119 2.5 2.5v15.285c0 1.381-1.12 2.5-2.5 2.5z"/><path d="m52.39 56.527c-1.377 0-2.496-1.114-2.5-2.492-.006-2.073.795-4.024 2.256-5.494 1.461-1.471 3.407-2.284 5.479-2.29h.027c2.062 0 4.002.8 5.466 2.255 1.471 1.46 2.284 3.406 2.291 5.479.005 1.381-1.111 2.504-2.491 2.509-.003 0-.006 0-.009 0-1.377 0-2.495-1.113-2.5-2.491-.003-.737-.292-1.43-.814-1.949-.521-.518-1.211-.802-1.944-.802-.003 0-.006 0-.009 0-.738.002-1.431.291-1.95.814-.52.522-.804 1.217-.802 1.954.004 1.381-1.111 2.504-2.492 2.508-.003-.001-.006-.001-.008-.001z"/><path d="m83.833 56.527c-1.377 0-2.495-1.113-2.5-2.491-.007-2.073.794-4.024 2.255-5.495s3.407-2.284 5.479-2.29c2.054-.037 4.024.794 5.494 2.255 1.471 1.46 2.284 3.406 2.29 5.479.004 1.381-1.111 2.504-2.492 2.508-.003 0-.006 0-.008 0-1.377 0-2.496-1.114-2.5-2.492-.002-.737-.291-1.43-.814-1.948-.52-.518-1.21-.802-1.944-.802-.003 0-.006 0-.009 0-.738.002-1.43.291-1.949.814-.52.522-.805 1.217-.802 1.953.005 1.381-1.111 2.504-2.491 2.509-.003 0-.006 0-.009 0z"/><path d="m134.906 80.276c-.07 0-.141-.003-.212-.009l-35.38-2.962c-1.375-.115-2.397-1.324-2.282-2.7s1.325-2.407 2.7-2.282l35.38 2.962c1.375.115 2.397 1.324 2.282 2.7-.109 1.305-1.202 2.291-2.488 2.291z"/><path d="m134.896 93.614c-.166 0-.334-.017-.503-.052l-35.36-7.218c-1.353-.275-2.226-1.597-1.949-2.949.275-1.354 1.598-2.231 2.949-1.949l35.36 7.218c1.353.275 2.226 1.597 1.949 2.949-.24 1.185-1.282 2.001-2.446 2.001z"/><path d="m132.183 107.521c-.289 0-.583-.051-.869-.157l-34.015-12.613c-1.295-.479-1.955-1.918-1.475-3.213.479-1.295 1.922-1.957 3.213-1.475l34.015 12.612c1.295.479 1.955 1.918 1.475 3.213-.374 1.008-1.329 1.633-2.344 1.633z"/><path d="m12.855 80.276c-1.286 0-2.379-.986-2.488-2.291-.115-1.376.907-2.585 2.282-2.7l35.38-2.962c1.374-.125 2.585.906 2.7 2.282s-.907 2.585-2.282 2.7l-35.38 2.962c-.071.006-.141.009-.212.009z"/><path d="m12.865 93.614c-1.163 0-2.205-.816-2.446-2.001-.276-1.353.597-2.674 1.949-2.949l35.36-7.218c1.354-.282 2.674.595 2.949 1.949.276 1.353-.597 2.674-1.949 2.949l-35.36 7.218c-.169.036-.337.052-.503.052z"/><path d="m15.579 107.521c-1.016 0-1.971-.624-2.344-1.632-.48-1.295.18-2.733 1.475-3.213l34.014-12.612c1.292-.481 2.733.18 3.213 1.475s-.18 2.733-1.475 3.213l-34.014 12.612c-.286.106-.58.157-.869.157z"/><path d="m98.434 208.627c-25.711 0-44.434-6.981-55.658-20.756-15.208-18.663-12.586-44.553-9.669-58.323.149-.706.596-1.313 1.226-1.665 9.736-5.438 18.973-5.616 27.454-.526 5.858 3.515 7.78 10.793 10.005 19.221 3.272 12.395 6.98 26.442 23.745 34.742.844.418 1.381 1.273 1.391 2.215l.001.263.001.003c.149 7.956 1.675 15.113 4.531 21.273.358.771.299 1.673-.157 2.392s-1.246 1.155-2.097 1.16c-.26 0-.518.001-.773.001zm-60.67-76.913c-5.901 29.337 3 45.772 8.888 52.999 9.801 12.026 26.2 18.37 48.783 18.881-2.068-5.585-3.233-11.783-3.473-18.489-17.65-9.389-21.719-24.804-25.005-37.251-1.947-7.373-3.628-13.74-7.743-16.21-6.553-3.932-13.764-3.907-21.45.07z"/><path d="m145.943 204.251c-.685 0-1.346-.281-1.821-.788-2.782-2.96-5.161-7.254-6.879-12.417-.242-.727-.137-1.524.284-2.165.422-.64 1.114-1.051 1.877-1.115 12.789-1.08 23.854-4.117 33.617-6.796 12.798-3.515 22.906-6.289 29.941-2.127 3.792 2.241 6.343 6.287 7.799 12.367.256 1.068-.217 2.179-1.164 2.736-.947.559-2.147.43-2.957-.312-.657-.603-1.773-1.338-3.355-1.422-5.031-.267-10.377 1.223-18.473 3.476-8.709 2.424-20.637 5.743-38.483 8.532-.129.021-.258.031-.386.031zm-2.847-11.824c1.104 2.628 2.396 4.876 3.822 6.639 16.809-2.699 28.188-5.865 36.554-8.193 8.262-2.3 14.232-3.963 20.076-3.651.182.009.36.023.536.041-.981-1.886-2.197-3.247-3.666-4.115-5.211-3.081-14.418-.555-26.073 2.645-8.691 2.383-19.328 5.303-31.249 6.634z"/><path d="m109.205 72.748c-.657 0-1.302-.259-1.781-.744-3.605-3.656-8.92-5.753-14.58-5.753h-7.806c-.139.099-.289.185-.451.255-1.265.553-2.737-.025-3.291-1.29-.034-.051-.067-.104-.098-.156-.463-.562-2.233-1.161-7.68-1.161-5.864 0-7.467.694-7.763 1.288-.565 1.24-2.035 1.833-3.29 1.287-.145-.063-.28-.138-.406-.223h-7.037c-5.535 0-10.775 2.028-14.378 5.565-.718.704-1.787.911-2.719.521-.928-.39-1.532-1.299-1.532-2.306v-11.01c0-20.764 16.892-37.655 37.655-37.655 20.764 0 37.655 16.892 37.655 37.655v11.228c0 1.015-.613 1.928-1.552 2.313-.305.125-.628.186-.946.186zm-24.767-11.497h8.405c5.025 0 9.855 1.364 13.86 3.842v-6.072c0-18.006-14.649-32.655-32.655-32.655s-32.654 14.649-32.654 32.655v5.943c3.965-2.395 8.715-3.713 13.629-3.713h7.576c2.682-2.353 7.512-2.353 10.92-2.353s8.238 0 10.919 2.353z"/><path d="m92.844 102.492c-7.5 0-14.446-3.024-18.91-8.071-4.466 5.047-11.412 8.071-18.911 8.071-13.144 0-23.836-9.25-23.836-20.62s10.692-20.621 23.836-20.621h8.677c.924 0 1.772.51 2.207 1.325.434.815.383 1.805-.133 2.571-.025.037-.092.136-.092.412 0 2.387 4.027 6.826 7.836 6.826s7.836-4.439 7.836-6.826c0-.278-.065-.376-.091-.412-.516-.767-.566-1.756-.133-2.571.435-.815 1.283-1.325 2.207-1.325h9.506c13.144 0 23.836 9.251 23.836 20.621s-10.692 20.62-23.835 20.62zm-18.91-14.749c.868 0 1.675.451 2.13 1.19 3.245 5.279 9.676 8.559 16.78 8.559 10.386 0 18.836-7.007 18.836-15.62s-8.45-15.621-18.836-15.621h-6.525c-.514 5.047-6.48 11.135-12.8 11.135s-12.286-6.088-12.8-11.135h-5.696c-10.386 0-18.836 7.008-18.836 15.621s8.45 15.62 18.836 15.62c7.104 0 13.535-3.279 16.781-8.559.455-.74 1.261-1.19 2.13-1.19z"/><path d="m73.519 77.386c-6.611 0-12.836-6.662-12.836-11.826 0-6.661 8.35-6.661 12.836-6.661s12.836 0 12.836 6.661c-.001 5.164-6.225 11.826-12.836 11.826zm0-13.488c-1.938 0-7.836 0-7.836 1.661 0 2.388 4.027 6.826 7.836 6.826s7.836-4.438 7.836-6.826c-.001-1.661-5.898-1.661-7.836-1.661z"/><path d="m74 114.786c-7.994 0-15.038-6.202-16.749-14.746-.131-.654.005-1.334.377-1.888.373-.553.951-.935 1.606-1.06 5.436-1.035 10.017-4.009 12.57-8.158.454-.74 1.261-1.19 2.129-1.19.868 0 1.675.451 2.13 1.19 2.573 4.186 7.196 7.168 12.683 8.184.658.122 1.241.503 1.616 1.058.375.556.512 1.238.379 1.895-1.72 8.527-8.762 14.715-16.741 14.715zm-11.188-13.425c1.876 4.997 6.29 8.425 11.188 8.425 4.883 0 9.288-3.411 11.173-8.386-4.472-1.311-8.376-3.739-11.24-6.979-2.838 3.207-6.701 5.622-11.121 6.94z"/><path d="m74 103.929c-3.847 0-7.396-1.911-9.741-5.244-.412-.587-.554-1.322-.387-2.02s.625-1.29 1.258-1.626c2.837-1.509 5.145-3.619 6.675-6.105.455-.739 1.261-1.189 2.129-1.189.868 0 1.675.45 2.129 1.19 1.548 2.515 3.885 4.643 6.76 6.152.64.335 1.103.931 1.27 1.633.168.703.023 1.443-.396 2.031-2.346 3.29-5.881 5.178-9.697 5.178zm-3.744-6.201c2.212 1.54 5.19 1.562 7.418.048-1.39-.994-2.645-2.12-3.741-3.358-1.079 1.217-2.313 2.327-3.677 3.31z"/></svg>