<svg enable-background="new 0 0 256 256" height="512" viewBox="0 0 256 256" width="512" xmlns="http://www.w3.org/2000/svg"><path d="m129.868 185.956c-39.373-6.084-74.775-23.821-76.758-54.134-2.346-35.865 22.887-45.772 36.999-48.444 3.728-.706 7.557.445 10.323 3.116-1.924-6.1-3.291-12.792-3.866-20.119-4.189-53.403-15.707-63.875-34.556-63.875-13.434 0-19.418 6.913-21.749 10.886 2.123 1.158 3.328 4.1 3.939 6.197.141.483.066.986-.146 1.407l.586.367c.901.563 1.141 1.77.523 2.635l-3.672 5.141c-.132.184-.296.34-.482.463 4.088 1.281 14.567 6.192 6.865 21.597 0 0-22.718 52.163-14.136 82.201 10.141 35.495 31.808 47.939 44.201 52.237 7.094 2.461 12.723 7.995 15.065 15.129 3.255 9.918 4.942 20.661 5.47 24.429.105.752.838 1.237 1.574 1.053l1.927-.482c.524-.131 1.074.081 1.373.531l2.74 4.109c.474.711 1.498.766 2.045.109l3.044-3.653c.547-.656 1.571-.602 2.045.109l2.358 3.536c.502.753 1.595.757 2.116.017 1.451-2.059 4.181-7.322 8.19-20.685 3.119-10.398 9.335-15.114 14.805-17.23-3.971-2.236-7.569-4.473-10.823-6.647z" fill="#46baf9"/><path d="m186.765 186.669c-17.644 2.453-37.733 2.254-56.888-.706 13.079 8.733 31.881 18.535 56.743 24.919 69.2 17.767 47.37 5.469.145-24.213z" fill="#a8aeb2"/><path d="m207.251 182.241c-6.249 1.931-13.163 3.41-20.503 4.43.006-.001.012-.002.018-.002 8.338 5.24 15.878 9.936 22.271 14.023 39.893 9.162 29.131 1.049-1.786-18.451z" fill="#52565b"/><path d="m100.048 226.242c-.736.184-1.469-.301-1.574-1.053-.529-3.768-2.215-14.511-5.47-24.429-2.342-7.134-7.971-12.669-15.065-15.129-3.302-1.145-7.262-2.871-11.487-5.457 3.215 2.774 6.766 18.192 8.124 22.331 3.255 9.918 3.474 18.917 4.002 22.685.105.752.838 1.237 1.574 1.053l1.927-.482c.524-.131 1.074.081 1.373.531l2.74 4.109c.474.711 1.498.766 2.045.109l3.044-3.653c.547-.656 1.571-.602 2.045.109l2.358 3.536c.502.753 1.595.757 2.116.017.577-.819 1.36-2.159 2.343-4.301z" fill="#46baf9"/><path d="m212.03 172.643c-23.592-11.856-88.816-47.05-109.421-83.343-2.627-4.627-7.652-6.839-12.501-5.921-14.112 2.672-39.345 12.578-36.999 48.444 3.444 52.648 107.692 67.379 158.477 48.973 3.659-1.326 3.921-6.406.444-8.153z" fill="#7ed5fc"/><path d="m212.03 172.643c-6.468-3.25-16.069-8.258-27.019-14.559-.422.911-1.161 1.697-2.233 2.162-27.823 12.055-73.097 14.715-108.641 5.474 33.813 24.222 100.093 28.615 137.449 15.076 3.659-1.326 3.921-6.406.444-8.153z" fill="#52565b"/><path d="m44.64 21.357-.587-.367c-.318.631-.953 1.073-1.697.947-3.128-.529-5.08-1.491-6.289-2.549-.338-.296-.598-.63-.791-.986-3.471 1.853-9.633 5.956-14.03 13.444-.472.804.237 1.796 1.152 1.613l17.954-3.591c.459-.092.866-.355 1.139-.736l3.672-5.141c.618-.864.379-2.071-.523-2.634z" fill="#f9bd55"/><path d="m38.808 12.913c-3.46-.402-5.36 4.181-2.739 6.476 1.209 1.058 3.16 2.019 6.289 2.549 1.241.21 2.195-1.146 1.843-2.354-.739-2.537-2.342-6.316-5.393-6.671z" fill="#e3e4e5"/><g fill="#f98080"><path d="m111.358 242.67c-1.614-.188-2.528-1.932-1.74-3.352 1.6-2.881 3.705-7.067 4.701-10.707l-1.097-1.645c-.474-.711-1.498-.766-2.045-.109l-3.044 3.653c-.547.656-1.571.602-2.045-.109l-2.74-4.109c-.3-.449-.849-.662-1.373-.531l-.692.173c-.047 2.92-.695 12.167-6.811 17.41-4.889 4.19-14.666.235-22.812.24-2.162.001-3.89 1.812-3.89 3.974 0 2.215 1.811 3.974 4.027 3.97 1.526-.003 3.036.191 4.351.717 4.799 1.92 20.597 1.64 25.617-.84 1.37-.677 2.873-1.023 4.394-1.168 3.003-.287 7.532-.442 11.347.58 1.819.487 3.213-1.664 2.067-3.158-1.797-2.339-4.454-4.551-8.215-4.989z"/><path d="m94.353 243.427c-.884-.363-1.84-.635-2.89-.757-1.614-.188-2.528-1.932-1.74-3.352 1.6-2.881 3.705-7.067 4.701-10.707l-1.097-1.645c-.474-.711-1.498-.766-2.045-.109l-3.044 3.653c-.547.656-1.571.602-2.045-.109l-2.74-4.109c-.3-.449-.849-.662-1.373-.531l-.692.173c-.047 2.92-.695 12.167-6.811 17.41-.153.132-.325.232-.488.348 7.517.583 15.823 3.374 20.264-.265z"/><path d="m76.147 252.244c-1.315-.526-2.825-.72-4.351-.717-2.215.004-4.027-1.755-4.027-3.97 0-.854.277-1.647.736-2.301-4.984.125-11.234-1.676-16.742-1.673-2.162.001-3.89 1.812-3.89 3.974 0 2.215 1.811 3.974 4.027 3.97 1.526-.003 3.036.191 4.351.717 3.8 1.52 14.492 1.659 21.273.421-.522-.127-.989-.266-1.377-.421z"/></g><path d="m42.606 24.458c-.221 0-.444-.019-.667-.056-3.241-.548-5.771-1.602-7.519-3.132-2.033-1.78-2.643-4.681-1.517-7.219 1.112-2.507 3.544-3.925 6.191-3.621 3.414.397 6.009 3.321 7.504 8.455.421 1.449.056 3.054-.955 4.188-.792.892-1.893 1.385-3.037 1.385zm-4.21-9.069c-.531 0-.802.423-.92.689-.092.206-.345.918.24 1.43.817.716 2.094 1.292 3.733 1.693-.816-2.257-1.899-3.685-2.93-3.805-.043-.005-.084-.007-.123-.007z"/><path d="m22.189 35.98c-1.145 0-2.243-.552-2.924-1.509-.818-1.149-.887-2.677-.174-3.891 4.74-8.073 11.438-12.477 15.008-14.384 1.21-.648 2.716-.196 3.373 1.009.062.113.141.211.243.301.933.817 2.461 1.452 4.444 1.851.318-.37.741-.642 1.22-.775.676-.189 1.401-.085 1.998.286l.587.366c.001 0 .001.001.002.001 1.012.633 1.726 1.667 1.958 2.838.232 1.17-.032 2.399-.726 3.37l-3.672 5.142c-.645.902-1.598 1.518-2.683 1.734l-17.954 3.591c-.233.048-.468.07-.7.07zm12.593-14.411c-2.704 1.664-6.396 4.473-9.557 8.775l14.383-2.876 2.206-3.088c-2.966-.516-5.328-1.461-7.032-2.811z"/><path d="m57.618 22.643c-1.377 0-2.496-1.114-2.5-2.492-.014-4.302 3.476-7.814 7.778-7.829 2.109.003 4.047.799 5.526 2.268s2.296 3.426 2.303 5.511c.004 1.38-1.111 2.503-2.492 2.508-.002 0-.005 0-.008 0-1.377 0-2.496-1.114-2.5-2.492-.002-.749-.296-1.452-.828-1.979s-1.208-.84-1.985-.815c-1.545.005-2.799 1.267-2.794 2.813.004 1.38-1.111 2.503-2.492 2.508-.002-.001-.005-.001-.008-.001z"/><path d="m87.027 255.992c-4.875 0-9.458-.487-11.809-1.427-.901-.36-2.02-.543-3.417-.539-.004 0-.009 0-.013 0-1.751 0-3.394-.677-4.626-1.907-1.22-1.218-1.893-2.839-1.893-4.563 0-3.568 2.866-6.472 6.389-6.474h.017c2.904 0 5.914.457 8.824.897 5.122.777 9.959 1.51 12.346-.535 5.351-4.586 5.898-13.063 5.938-15.552.018-1.132.794-2.11 1.893-2.385l.692-.173c1.545-.386 3.177.245 4.061 1.57l1.832 2.748 1.997-2.396c.76-.911 1.93-1.416 3.103-1.354 1.184.063 2.284.689 2.942 1.676l1.097 1.647c.401.602.522 1.348.331 2.046-1.029 3.76-3.121 7.98-4.759 10.958 3.706.522 7.013 2.559 9.583 5.908 1.192 1.553 1.255 3.614.161 5.252-1.082 1.62-2.989 2.345-4.858 1.842-3.423-.917-7.578-.781-10.462-.506-1.386.132-2.539.433-3.524.92-3.213 1.587-9.757 2.347-15.845 2.347zm-15.192-6.966c1.99 0 3.753.301 5.24.896 4.088 1.635 19.108 1.449 23.581-.76 1.54-.761 3.262-1.224 5.265-1.415 2.894-.276 6.948-.419 10.699.303-1.617-1.684-3.479-2.656-5.55-2.897-1.595-.186-2.983-1.146-3.713-2.569-.725-1.414-.696-3.088.077-4.48 1.051-1.893 2.333-4.376 3.335-6.853l-.715.858c-.759.912-1.918 1.42-3.104 1.354-1.185-.063-2.284-.691-2.942-1.678l-.647-.972c-.711 4.51-2.562 10.398-7.261 14.426-4.126 3.537-10.34 2.594-16.35 1.683-2.732-.414-5.558-.864-8.088-.841-.754 0-1.391.675-1.391 1.474 0 .387.151.751.425 1.024.288.288.676.446 1.093.446.016-.002.03.001.046.001zm45.753.155h.01zm-5.941-8.994h.001c0 .001 0 0-.001 0z"/><path d="m116.639 233.57c-.016 0-.033 0-.049 0-1.244-.016-2.399-.645-3.09-1.681l-1.45-2.175-1.997 2.396c-.759.911-1.923 1.414-3.104 1.354-1.185-.063-2.284-.691-2.942-1.678l-2.261-3.392-1.092.273c-1.04.26-2.146.066-3.033-.531-.883-.596-1.475-1.543-1.623-2.599-.563-4.011-2.213-14.377-5.371-23.997-2.055-6.262-7.105-11.326-13.508-13.547-12.595-4.369-35.292-17.182-45.786-53.912-3.687-12.904-2.394-30.976 3.843-53.713 4.601-16.774 10.348-30.041 10.406-30.173.018-.041.036-.081.056-.12 2.53-5.06 3.137-9.215 1.804-12.352-1.489-3.503-5.138-5.101-7.181-5.741-.92-.289-1.593-1.081-1.728-2.036-.129-.913.255-1.82.993-2.362l3.197-4.476c-1.031-.648-1.437-1.937-.99-3.048-.693-2.275-1.684-3.941-2.669-4.479-.594-.324-1.031-.875-1.212-1.527s-.089-1.35.253-1.933c2.656-4.527 9.293-12.121 23.905-12.121 23.521 0 33.216 17.318 37.048 66.181.53 6.756 1.794 13.337 3.758 19.562.344 1.091-.096 2.276-1.068 2.877-.973.603-2.229.467-3.052-.327-2.167-2.092-5.203-3.013-8.122-2.458-14.007 2.652-37.174 12.132-34.97 45.824 1.667 25.487 29.572 44.861 74.646 51.827.36.056.704.189 1.006.392 3.447 2.302 7.034 4.505 10.662 6.549.843.475 1.336 1.393 1.267 2.358-.07.965-.689 1.803-1.592 2.152-6.476 2.506-10.955 7.76-13.312 15.617-3.173 10.578-6.126 17.98-8.54 21.406-.714 1.011-1.87 1.61-3.102 1.61zm-14.358-10.348c1.244 0 2.438.617 3.148 1.682l1.832 2.748 1.997-2.396c.76-.911 1.93-1.416 3.103-1.354 1.184.063 2.284.689 2.942 1.676l1.3 1.95c1.419-2.586 3.719-7.843 6.889-18.412 2.643-8.811 7.416-13.821 11.957-16.669-2.205-1.322-4.381-2.695-6.508-4.105-47.233-7.426-76.5-28.471-78.325-56.357-2.548-38.935 26.444-48.68 39.027-51.063 2.273-.43 4.589-.285 6.753.375-1.15-4.776-1.929-9.707-2.322-14.726-4.46-56.862-17.712-61.571-32.064-61.571-10.33 0-15.747 4.392-18.431 7.92 1.534 1.739 2.469 4.066 3.021 5.964.095.328.151.663.167.999.584.599.991 1.361 1.156 2.191.232 1.17-.032 2.399-.726 3.37l-2.207 3.089c2.595 1.334 5.496 3.571 7.052 7.233 1.926 4.532 1.286 10.076-1.901 16.479-.849 1.977-22.113 52.066-14.001 80.459 9.874 34.556 30.939 46.512 42.617 50.562 7.869 2.729 14.082 8.977 16.621 16.711 2.971 9.051 4.651 18.688 5.375 23.508l.615-.154c.303-.072.61-.109.913-.109z"/><path d="m227.2 221.629c-5.633 0-17.059-2.127-41.201-8.326-21.215-5.447-40.564-13.946-57.51-25.261-.975-.651-1.367-1.893-.942-2.985.426-1.093 1.557-1.743 2.712-1.564 18.693 2.889 38.639 3.138 56.162.701.582-.083 1.176.046 1.675.359l7.067 4.435c33.393 20.935 39.765 25.44 37.78 30.062-.635 1.478-1.691 2.579-5.743 2.579zm-86.276-31.763c14.051 8.059 29.583 14.298 46.318 18.594 25.862 6.64 36.264 8.27 40.056 8.212-4.09-4.203-19.669-13.97-34.791-23.449l-6.303-3.955c-14.216 1.895-29.921 2.086-45.28.598z"/><path d="m231.182 206.935c-4.121 0-11.012-1.122-22.706-3.807-.279-.064-.545-.176-.787-.33-4.54-2.902-9.739-6.162-15.244-9.614l-6.816-4.277c-.701-.352-1.226-1.026-1.353-1.859-.207-1.352.711-2.619 2.06-2.843.021-.003.044-.007.067-.01.018-.002.035-.005.052-.007.037-.006.074-.011.11-.016 7.242-1.014 13.953-2.467 19.947-4.32.697-.216 1.454-.116 2.072.274 25.453 16.054 30.256 20.128 28.553 24.222-.667 1.604-2.096 2.587-5.955 2.587zm-21.165-8.583c13.253 3.029 18.969 3.672 21.424 3.631-3.825-3.876-17.046-12.278-24.559-17.019-4.105 1.22-8.51 2.263-13.163 3.117l1.381.866c5.369 3.366 10.447 6.55 14.917 9.405z"/><path d="m96.744 233.57c-.016 0-.032 0-.048 0-1.244-.016-2.399-.645-3.091-1.681l-1.45-2.175-1.997 2.396c-.759.912-1.912 1.42-3.104 1.354-1.184-.063-2.284-.691-2.941-1.678l-2.261-3.392-1.092.273c-1.04.26-2.146.065-3.033-.532-.883-.595-1.475-1.542-1.623-2.599-.121-.863-.224-1.951-.343-3.211-.433-4.585-1.088-11.514-3.559-19.042-.327-.997-.743-2.499-1.27-4.401-1.257-4.539-4.201-15.168-6.112-16.817-.986-.85-1.154-2.315-.386-3.367.767-1.052 2.212-1.338 3.324-.658 3.529 2.161 7.231 3.919 11.001 5.227 7.869 2.729 14.082 8.977 16.621 16.711 3.038 9.254 4.726 19.121 5.421 23.826.486.132.931.411 1.265.814.615.739.751 1.766.35 2.64-.915 1.996-1.78 3.577-2.572 4.7-.712 1.012-1.868 1.612-3.1 1.612zm-14.36-10.348c1.244 0 2.438.616 3.148 1.681l1.833 2.749 1.997-2.396c.76-.911 1.92-1.416 3.104-1.354 1.184.063 2.284.69 2.941 1.677l1.297 1.946c.028-.051.056-.104.084-.157-.418-.523-.695-1.155-.79-1.831-.563-4.011-2.213-14.377-5.371-23.997-2.055-6.262-7.105-11.326-13.508-13.547-1.632-.566-3.252-1.209-4.852-1.926 1.165 3.259 2.3 7.22 3.481 11.482.489 1.767.912 3.292 1.202 4.177 2.645 8.059 3.359 15.615 3.786 20.13.055.585.107 1.131.157 1.624l.578-.145c.304-.076.61-.113.913-.113z"/><path d="m87.856 247.757c-2.607 0-5.389-.419-8.127-.832-1.94-.292-3.947-.595-5.835-.742-1.05-.082-1.936-.812-2.216-1.826-.28-1.015.104-2.096.963-2.706l.33-.225c5.331-4.569 5.877-13.045 5.917-15.534.018-1.132.794-2.11 1.893-2.385l.692-.173c1.544-.384 3.176.244 4.06 1.568l1.833 2.749 1.997-2.396c.76-.911 1.92-1.416 3.104-1.354 1.184.063 2.284.69 2.941 1.677l1.097 1.646c.401.602.522 1.349.331 2.046-1.028 3.759-3.121 7.979-4.759 10.958 1.098.155 2.157.446 3.228.886.814.335 1.392 1.073 1.522 1.943s-.208 1.745-.888 2.303c-2.228 1.825-5.037 2.397-8.083 2.397zm-8.554-5.952c.393.059.784.117 1.173.176 2.515.379 4.962.749 7.083.784-.034-.059-.066-.119-.097-.18-.726-1.413-.697-3.088.075-4.48 1.051-1.894 2.334-4.377 3.336-6.853l-.715.858c-.759.912-1.912 1.42-3.104 1.354-1.184-.063-2.284-.691-2.941-1.678l-.647-.972c-.528 3.346-1.683 7.451-4.163 10.991z"/><path d="m66.956 255.996c-4.67 0-9.163-.443-11.633-1.431-.894-.357-2.032-.539-3.383-.539-.015 0-.031 0-.047 0-1.751 0-3.394-.677-4.626-1.907-1.22-1.218-1.893-2.839-1.893-4.563 0-3.568 2.866-6.472 6.389-6.474h.017c2.903 0 5.911.454 8.819.894 2.85.431 5.542.84 7.844.78.942-.026 1.819.486 2.266 1.317.446.832.386 1.844-.156 2.617-.129.184-.283.484-.283.866 0 .387.151.751.425 1.024.288.288.676.446 1.093.446.017-.003.032 0 .048 0 1.99 0 3.753.301 5.24.896.257.103.606.208 1.04.314 1.146.279 1.941 1.322 1.907 2.502-.035 1.179-.889 2.174-2.05 2.386-3.075.562-7.108.872-11.017.872zm-15.016-6.97c1.99 0 3.753.301 5.24.896 1.564.626 5.083 1.025 9.082 1.074-.633-1-.978-2.158-.991-3.369-1.783-.159-3.619-.436-5.417-.708-2.731-.412-5.552-.863-8.087-.837-.754 0-1.391.675-1.391 1.474 0 .387.151.751.425 1.024.288.288.676.446 1.093.446.012-.003.03 0 .046 0z"/><path d="m160.953 190.842c-30.275 0-63.14-6.575-85.462-21.164-15.315-10.01-23.917-23.044-24.876-37.692-2.547-38.936 26.445-48.681 39.028-51.064 5.99-1.133 12.07 1.738 15.14 7.144 5.196 9.153 28.368 42.141 108.37 82.344 2.526 1.27 3.992 3.814 3.825 6.642-.166 2.805-1.905 5.14-4.539 6.095-13.811 5.004-32.119 7.695-51.486 7.695zm-68.642-105.171c-.574 0-1.155.054-1.737.164-14.007 2.652-37.174 12.132-34.97 45.824.864 13.204 8.475 24.587 22.622 33.833 15.897 10.39 39.167 17.357 65.522 19.617 24.975 2.143 49.39-.286 66.986-6.665 1.062-.385 1.229-1.309 1.252-1.688.018-.305-.007-1.34-1.079-1.879-26.331-13.232-89.805-47.938-110.473-84.343-1.742-3.07-4.812-4.863-8.123-4.863z"/><path d="m161.286 190.798c-31.982 0-66.678-7.338-88.605-23.046-.979-.702-1.319-2.001-.808-3.093.511-1.091 1.728-1.662 2.893-1.359 34.284 8.914 79.292 6.665 107.019-5.348.442-.192.765-.5.958-.918.295-.637.844-1.12 1.512-1.332.667-.212 1.394-.134 2.003.216 11.077 6.374 20.739 11.399 26.894 14.492 2.526 1.27 3.992 3.814 3.825 6.642-.166 2.805-1.905 5.14-4.539 6.095-13.872 5.026-32.027 7.651-51.152 7.651zm-72.833-19.552c35.646 17.261 90.518 18.711 122.282 7.199 1.062-.385 1.229-1.309 1.252-1.688.018-.305-.007-1.34-1.079-1.879-5.859-2.944-14.865-7.623-25.247-13.541-.548.492-1.181.897-1.888 1.203-24.742 10.72-62.716 13.937-95.32 8.706z"/></svg>