<svg enable-background="new 0 0 256 256" height="512" viewBox="0 0 256 256" width="512" xmlns="http://www.w3.org/2000/svg"><path d="m233.912 169.971c-1.336-.895-3.023-1.087-4.525-.515l-.712.271c-8.129 3.097-14.211 9.999-16.26 18.453-.408 1.685-.683 3.415-.617 5.148.594 15.743-32.243 33.047-11.394 37.39 24.456 5.095 47.383-3.566 52.478-25.984 3.878-17.065-11.437-29.702-18.97-34.763z" fill="#7d3d1a"/><g fill="#c16a44"><path d="m39.827 178.916c-.092.62-.155 1.25-.187 1.888-.69 13.523-6.899 27.183-15.592 27.183-13.04 0-12.356 11.426-12.356 11.426-1.321.562-2.655 1.246-3.944 2.08-7.917 5.123-11.177 10.246 22.354 10.246 25.817 0 40.305-11.326 45.821-27.8-19.031-4.123-30.063-13.645-36.096-25.023z"/><path d="m230.463 168.052c-7.133-17.323-34.136-40.25-78.971-44.326-26.121-2.375-35.983-19.619-39.668-33.603-3.536 5.855-10.699 9.87-18.98 9.87-8.224 0-15.35-3.958-18.911-9.749-3.561 5.79-10.687 9.749-18.911 9.749-5.49 0-10.48-1.776-14.261-4.67.648 6.711.362 15.646-2.887 25.856-6.852 21.534-16.507 85.366 61.318 84.947 7.136 15.385 22.563 25.613 48.223 25.613 36.683 0 33.117-5.604 24.456-11.209-1.41-.912-2.869-1.661-4.314-2.276 0 0 .748-12.5-13.518-12.5-3.005 0-5.738-1.495-8.096-4.003 42.768-6.685 50.732-16.299 65.896-10.059.088-1.182.295-2.357.575-3.511 2.049-8.454 8.131-15.356 16.26-18.453l.712-.271c.5-.191 1.02-.289 1.541-.312-.282-.696-.464-1.093-.464-1.093z"/><path d="m55.022 63.751h8.678c-.097.145-.178.301-.249.464 1.128-2.588 5.694-2.816 10.068-2.816s8.94.228 10.068 2.816c-.071-.163-.152-.319-.249-.464h9.506c6.573 0 12.446 2.528 16.36 6.498v-11.229c0-19.335-15.82-35.155-35.155-35.155-19.335 0-35.155 15.82-35.155 35.155v11.012c3.912-3.841 9.679-6.281 16.128-6.281z"/></g><path d="m92.844 63.751h-9.506c.332.493.517 1.089.517 1.809 0 3.863-5.299 9.326-10.336 9.326s-10.336-5.463-10.336-9.326c0-.72.185-1.315.517-1.809h-8.678c-11.783 0-21.335 8.113-21.335 18.121s9.552 18.121 21.335 18.121c8.224 0 15.35-3.958 18.911-9.749 3.561 5.79 10.686 9.749 18.911 9.749 11.783 0 21.335-8.113 21.335-18.121s-9.552-18.121-21.335-18.121z" fill="#ffc097"/><path d="m83.855 65.56c0 3.863-5.299 9.326-10.336 9.326s-10.336-5.463-10.336-9.326 5.299-4.161 10.336-4.161 10.336.298 10.336 4.161z" fill="#7d3d1a"/><path d="m60.81 99.313c2.861 3.977 7.861 7.441 12.709 7.441 4.923 0 10.005-3.572 12.843-7.626-5.388-1.462-9.847-4.687-12.428-8.885-2.693 4.378-7.424 7.705-13.124 9.07z" fill="#7d3d1a"/><path d="m92.844 99.992c-1.314 0-2.595-.111-3.842-.305 1.7 7.169 5.409 27.849-2.372 47.774 0 0 16.991-19.02 12.4-48.249-1.959.504-4.034.78-6.186.78z" fill="#f4dbce"/><path d="m58.725 99.709c-1.204.179-2.438.284-3.703.284-2.199 0-4.32-.284-6.316-.809-4.606 29.245 12.396 48.278 12.396 48.278-7.774-19.907-4.078-40.566-2.377-47.753z" fill="#f4dbce"/><path d="m213.69 234.64c-4.412 0-9.031-.479-13.796-1.473-4.822-1.004-7.631-2.833-8.588-5.589-1.621-4.666 2.734-9.871 7.776-15.897 4.891-5.846 10.436-12.472 10.217-18.258-.067-1.77.151-3.622.686-5.83 2.244-9.258 8.898-16.81 17.8-20.201l.712-.271c2.256-.861 4.801-.569 6.808.775l.001.001c7.437 4.996 24.274 18.642 20.013 37.393-4.168 18.336-20.49 29.35-41.629 29.35zm17.46-63.008c-.294 0-.591.053-.873.16l-.712.271c-7.362 2.806-12.865 9.051-14.721 16.707-.423 1.748-.598 3.166-.549 4.464.291 7.708-5.909 15.117-11.378 21.654-3.377 4.036-7.58 9.059-6.888 11.049.116.333.81 1.485 4.885 2.335 29.056 6.052 45.813-7.738 49.53-24.091 3.576-15.732-11.344-27.714-17.925-32.135-.41-.274-.888-.414-1.369-.414z"/><path d="m208.047 233.729c-.772 0-1.535-.356-2.024-1.029-.812-1.117-.565-2.681.552-3.492 20.827-15.146 15.4-38.935 15.343-39.174-.322-1.342.505-2.691 1.848-3.014 1.347-.321 2.692.506 3.015 1.848.065.271 6.232 27.295-17.265 44.383-.444.322-.959.478-1.469.478z"/><path d="m238.353 228.112c-.254 0-.513-.039-.769-.122-1.314-.424-2.035-1.833-1.611-3.146 6.929-21.469-4.876-38.357-4.997-38.525-.803-1.124-.542-2.685.581-3.487s2.685-.544 3.487.581c.55.77 13.38 19.13 5.686 42.967-.34 1.058-1.322 1.732-2.377 1.732z"/><path d="m167.556 220.755c-.327 0-.658-.064-.978-.2-6.097-2.593-11.958-2.62-12.027-2.62-.001 0-.002 0-.002 0-1.38 0-2.499-1.118-2.5-2.498s1.117-2.501 2.498-2.502h.003c.326 0 6.978.039 13.986 3.019 1.271.54 1.862 2.009 1.322 3.279-.405.951-1.33 1.522-2.302 1.522z"/><path d="m147.416 234.238c-18.098 0-32.171-4.896-41.827-14.552-8.658-8.658-13.382-21.035-13.66-35.794-.077-4.077.223-7.866.891-11.262.267-1.355 1.584-2.239 2.936-1.971 1.355.267 2.237 1.581 1.971 2.936-.6 3.048-.868 6.48-.798 10.203.253 13.439 4.471 24.626 12.196 32.352 8.685 8.685 21.568 13.088 38.292 13.088 22.061 0 26.659-2.111 27.6-2.878-.272-.456-1.222-1.609-4.502-3.732-1.196-.773-2.52-1.472-3.935-2.073-.973-.414-1.58-1.396-1.517-2.45.001-.026.165-4.107-2.521-6.926-1.85-1.94-4.71-2.925-8.501-2.925-5.375 0-10.354-3.78-14.018-10.645-3.121-5.847-5.14-13.672-5.537-21.468-.07-1.379.99-2.554 2.369-2.624 1.384-.066 2.554.99 2.624 2.37.757 14.834 7.426 27.366 14.562 27.366 5.246 0 9.342 1.524 12.173 4.529 2.816 2.99 3.586 6.683 3.786 8.835 1.138.551 2.22 1.157 3.232 1.812 3.924 2.539 7.789 5.629 6.706 9.297-1.157 3.91-7.128 6.512-32.522 6.512z"/><path d="m11.692 221.914c-.973 0-1.897-.571-2.302-1.522-.54-1.271.052-2.739 1.323-3.279 6.466-2.749 12.594-2.768 12.87-2.776 1.381.001 2.499 1.121 2.498 2.502-.001 1.38-1.12 2.498-2.5 2.498h-.001c-.05 0-5.417.042-10.911 2.378-.318.135-.65.199-.977.199z"/><path d="m30.102 234.238c-23.422 0-28.818-2.336-29.931-6.105-1.169-3.959 3.821-7.188 6.219-8.738.902-.584 1.863-1.126 2.87-1.618.204-2.016.943-5.361 3.505-8.081 2.63-2.792 6.426-4.208 11.283-4.208 6.412 0 12.409-11.361 13.096-24.81.036-.712.107-1.427.211-2.128.158-1.068.985-1.915 2.049-2.098 1.065-.185 2.126.338 2.632 1.293 6.477 12.215 18.057 20.205 34.416 23.75.695.15 1.292.59 1.644 1.207.352.618.423 1.356.198 2.03-6.372 19.028-23.486 29.506-48.192 29.506zm-24.931-7.471c1.133.737 5.831 2.472 24.93 2.472 21.537 0 36.163-8.116 42.491-23.515-13.575-3.447-23.968-9.943-31.013-19.372-.813 5.264-2.389 10.283-4.529 14.293-3.389 6.347-8.006 9.843-13.003 9.843-3.424 0-5.995.887-7.643 2.636-2.364 2.511-2.219 6.105-2.217 6.141.063 1.056-.545 2.037-1.518 2.45-1.277.543-2.476 1.175-3.563 1.878-2.632 1.702-3.59 2.703-3.935 3.174z"/><path d="m147.416 234.238c-30.141 0-43.697-13.596-49.789-25.613-26.43-.15-45.357-7.747-56.273-22.591-17.763-24.155-7.999-58.895-5.861-65.613 2.638-8.29 3.573-16.653 2.781-24.858-.096-.99.405-1.942 1.274-2.426.87-.484 1.943-.404 2.733.2 3.501 2.68 8.026 4.155 12.741 4.155 7.104 0 13.535-3.279 16.781-8.559.455-.739 1.261-1.19 2.129-1.19s1.675.45 2.129 1.19c3.247 5.279 9.677 8.559 16.782 8.559 7.16 0 13.612-3.319 16.839-8.662.52-.859 1.505-1.321 2.496-1.182.994.143 1.806.866 2.062 1.838 3.491 13.247 12.826 29.509 37.477 31.75 44.347 4.031 73.086 26.57 81.041 45.823.059.13.235.529.485 1.141.307.752.229 1.607-.208 2.292s-1.182 1.113-1.994 1.149c-.278.013-.535.063-.764.15l-.712.271c-7.362 2.806-12.865 9.051-14.721 16.707-.272 1.123-.439 2.14-.511 3.107-.06.799-.498 1.521-1.18 1.941-.683.421-1.525.49-2.265.185-8.091-3.329-13.724-1.761-26.064 1.678-7.608 2.119-17.673 4.923-31.997 7.458.402.076.807.114 1.212.114 5.246 0 9.342 1.524 12.173 4.529 2.816 2.99 3.586 6.683 3.786 8.835 1.138.551 2.22 1.157 3.232 1.812 3.924 2.539 7.789 5.629 6.706 9.297-1.155 3.911-7.126 6.513-32.52 6.513zm-48.224-30.613c.973 0 1.858.564 2.268 1.448 7.333 15.809 23.224 24.165 45.956 24.165 22.061 0 26.659-2.111 27.6-2.878-.272-.456-1.222-1.609-4.502-3.732-1.196-.773-2.52-1.472-3.935-2.073-.973-.414-1.58-1.396-1.517-2.45.001-.026.165-4.107-2.521-6.926-1.85-1.94-4.71-2.925-8.501-2.925-3.541 0-6.97-1.656-9.917-4.79-.635-.676-.844-1.647-.543-2.524s1.062-1.516 1.979-1.658c17.566-2.746 29.333-6.023 37.925-8.416 11.328-3.155 18.102-5.041 26.337-2.55.051-.237.106-.479.166-.723 2.219-9.156 8.752-16.643 17.507-20.088-8.239-17.567-35.098-37.551-76.227-41.29-24.706-2.245-35.638-17.096-40.439-30.81-4.465 4.455-10.973 7.087-17.981 7.087-7.499 0-14.446-3.024-18.911-8.071-4.465 5.047-11.411 8.071-18.911 8.071-4.045 0-7.991-.893-11.489-2.564.149 7.31-.948 14.691-3.276 22.009-2.009 6.313-11.202 38.933 5.125 61.136 10.031 13.641 27.879 20.555 53.048 20.555.253-.001.528.006.759-.003z"/><path d="m73.933 93.109c-1.381 0-2.5-1.119-2.5-2.5v-15.285c0-1.381 1.119-2.5 2.5-2.5s2.5 1.119 2.5 2.5v15.285c0 1.381-1.119 2.5-2.5 2.5z"/><path d="m109.205 72.748c-.656 0-1.301-.259-1.78-.744-3.605-3.656-8.92-5.753-14.58-5.753h-7.806c-.139.099-.29.185-.451.255-1.264.556-2.739-.024-3.291-1.29-.035-.051-.068-.104-.098-.157-.463-.562-2.234-1.16-7.679-1.16-5.953 0-7.515.716-7.776 1.315-.551 1.265-2.021 1.845-3.289 1.293-.163-.07-.314-.157-.454-.256h-6.977c-5.534 0-10.774 2.028-14.377 5.565-.719.705-1.792.909-2.719.521-.929-.39-1.533-1.299-1.533-2.306v-11.01c0-20.764 16.892-37.655 37.655-37.655s37.655 16.892 37.655 37.655v11.228c0 1.015-.613 1.928-1.551 2.313-.308.125-.63.186-.949.186zm-24.766-11.497h8.405c5.025 0 9.855 1.364 13.86 3.842v-6.072c0-18.006-14.649-32.655-32.655-32.655s-32.655 14.649-32.655 32.655v5.943c3.965-2.395 8.715-3.713 13.628-3.713h7.577c2.682-2.353 7.512-2.353 10.92-2.353s8.238 0 10.92 2.353z"/><path d="m52.39 56.527c-1.377 0-2.496-1.114-2.5-2.492-.007-2.072.794-4.024 2.255-5.494 1.461-1.471 3.407-2.284 5.48-2.29h.026c2.062 0 4.003.8 5.467 2.255 1.471 1.46 2.284 3.406 2.291 5.479.004 1.381-1.111 2.503-2.492 2.508-.002 0-.005 0-.008 0-1.377 0-2.496-1.114-2.5-2.492-.002-.737-.292-1.429-.814-1.948-.521-.518-1.21-.802-1.944-.802-.003 0-.006 0-.01 0-.737.002-1.429.291-1.949.814-.52.522-.804 1.217-.802 1.954.004 1.381-1.111 2.503-2.492 2.508-.002 0-.005 0-.008 0z"/><path d="m83.833 56.527c-1.377 0-2.496-1.114-2.5-2.492-.007-2.072.794-4.024 2.255-5.494 1.461-1.471 3.407-2.284 5.48-2.29h.026c2.062 0 4.002.8 5.467 2.255 1.47 1.46 2.283 3.406 2.29 5.479.004 1.381-1.111 2.503-2.492 2.508-.002 0-.005 0-.008 0-1.377 0-2.496-1.114-2.5-2.492-.002-.737-.292-1.429-.814-1.948-.521-.518-1.21-.802-1.943-.802-.003 0-.006 0-.01 0-.738.002-1.43.291-1.949.814-.52.522-.804 1.217-.802 1.954.004 1.381-1.111 2.503-2.492 2.508-.003 0-.006 0-.008 0z"/><path d="m99.521 77.314c-1.269 0-2.356-.962-2.485-2.251-.137-1.374.865-2.6 2.239-2.736l20.38-2.038c1.371-.142 2.599.864 2.736 2.238s-.865 2.6-2.239 2.736l-20.38 2.038c-.084.01-.168.013-.251.013z"/><path d="m119.897 88.613c-.09 0-.182-.005-.273-.015l-20.361-2.218c-1.373-.149-2.364-1.384-2.215-2.756.15-1.373 1.386-2.357 2.756-2.215l20.361 2.218c1.373.149 2.364 1.384 2.215 2.756-.14 1.282-1.224 2.23-2.483 2.23z"/><path d="m117.182 102.521c-.309 0-.624-.058-.928-.18l-19.014-7.612c-1.282-.514-1.905-1.969-1.392-3.25.512-1.282 1.966-1.907 3.25-1.393l19.014 7.612c1.282.514 1.905 1.969 1.392 3.25-.392.978-1.33 1.573-2.322 1.573z"/><path d="m48.241 77.314c-.083 0-.167-.004-.251-.013l-20.38-2.038c-1.374-.137-2.376-1.362-2.239-2.736.137-1.373 1.356-2.391 2.736-2.238l20.38 2.038c1.374.137 2.376 1.362 2.239 2.736-.129 1.29-1.216 2.251-2.485 2.251z"/><path d="m27.865 88.613c-1.26 0-2.343-.948-2.482-2.229-.149-1.372.842-2.606 2.215-2.756l20.361-2.218c1.372-.146 2.606.841 2.756 2.215.149 1.372-.842 2.606-2.215 2.756l-20.361 2.218c-.093.009-.184.014-.274.014z"/><path d="m30.58 102.521c-.992 0-1.931-.595-2.322-1.572-.513-1.281.11-2.736 1.392-3.25l19.014-7.612c1.283-.514 2.737.11 3.25 1.393.513 1.281-.11 2.736-1.392 3.25l-19.014 7.612c-.304.121-.619.179-.928.179z"/><path d="m92.844 102.492c-7.499 0-14.446-3.024-18.911-8.071-4.465 5.047-11.411 8.071-18.911 8.071-13.143 0-23.835-9.25-23.835-20.62s10.692-20.621 23.835-20.621h8.678c.924 0 1.773.51 2.207 1.325s.383 1.805-.133 2.571c-.025.036-.09.134-.09.412 0 2.387 4.028 6.826 7.836 6.826s7.836-4.439 7.836-6.826c0-.277-.066-.375-.091-.412-.516-.767-.567-1.756-.133-2.571s1.283-1.325 2.207-1.325h9.506c13.143 0 23.835 9.251 23.835 20.621s-10.693 20.62-23.836 20.62zm-18.911-14.749c.868 0 1.675.45 2.129 1.19 3.247 5.279 9.677 8.559 16.782 8.559 10.386 0 18.835-7.007 18.835-15.62s-8.449-15.621-18.835-15.621h-6.525c-.515 5.047-6.48 11.135-12.8 11.135s-12.286-6.088-12.8-11.135h-5.696c-10.386 0-18.835 7.008-18.835 15.621s8.45 15.62 18.835 15.62c7.104 0 13.535-3.279 16.781-8.559.454-.739 1.26-1.19 2.129-1.19z"/><path d="m73.519 77.386c-6.611 0-12.836-6.662-12.836-11.826 0-6.661 8.35-6.661 12.836-6.661s12.836 0 12.836 6.661c0 5.164-6.225 11.826-12.836 11.826zm0-13.488c-1.938 0-7.836 0-7.836 1.661 0 2.388 4.028 6.826 7.836 6.826s7.836-4.438 7.836-6.826c0-1.661-5.898-1.661-7.836-1.661z"/><path d="m73.519 109.254c-6.375 0-11.923-4.568-14.739-8.481-.487-.676-.604-1.551-.314-2.331.291-.781.951-1.366 1.761-1.561 4.984-1.192 9.204-4.089 11.576-7.947.455-.739 1.261-1.19 2.129-1.19s1.674.45 2.129 1.19c2.257 3.669 6.249 6.505 10.954 7.781.786.214 1.418.796 1.696 1.562s.165 1.618-.302 2.285c-3.027 4.326-8.805 8.692-14.89 8.692zm-8.298-8.746c2.534 2.293 5.641 3.746 8.298 3.746 3.101 0 6.232-1.799 8.56-3.996-3.172-1.397-5.97-3.406-8.144-5.847-2.305 2.597-5.302 4.694-8.714 6.097z"/><path d="m86.628 149.962c-.449 0-.902-.121-1.307-.369-1.031-.634-1.46-1.914-1.021-3.04 7.437-19.042 4.064-38.715 2.269-46.289-.192-.81.032-1.661.597-2.272.564-.611 1.399-.898 2.219-.774 3.159.489 6.135.316 9.023-.426.684-.171 1.407-.054 1.996.333.588.388.986 1.005 1.096 1.701 4.72 30.053-12.28 49.489-13.006 50.302-.489.547-1.173.834-1.866.834zm5.531-47.479c1.241 6.392 2.518 16.666 1.161 28.117 2.798-7.336 4.894-17.027 3.591-28.411-1.567.235-3.145.336-4.752.294z"/><path d="m61.104 149.962c-.692 0-1.376-.287-1.865-.835-.727-.812-17.738-20.263-13.001-50.332.11-.698.511-1.317 1.103-1.704.592-.388 1.321-.503 2.003-.325 1.831.482 3.742.727 5.68.727 1.083 0 2.175-.084 3.336-.256.821-.124 1.648.171 2.208.781.561.611.783 1.46.591 2.268-1.792 7.571-5.159 27.236 2.273 46.268.44 1.126.01 2.406-1.021 3.04-.406.247-.858.368-1.307.368zm-10.282-47.789c-1.317 11.458.791 21.181 3.601 28.52-1.374-11.49-.093-21.803 1.15-28.206-1.615.032-3.192-.075-4.751-.314z"/></svg>