<svg enable-background="new 0 0 256 256" height="512" viewBox="0 0 256 256" width="512" xmlns="http://www.w3.org/2000/svg"><circle cx="145.032" cy="88.672" fill="#a8aeb2" r="10.458"/><circle cx="110.968" cy="88.672" fill="#a8aeb2" r="10.458"/><path d="m170.272 171.29c0 28.231-18.926 62.83-42.272 62.83s-42.272-34.6-42.272-62.83 18.926-51.116 42.272-51.116 42.272 22.885 42.272 51.116z" fill="#52565b"/><path d="m121.426 88.672c0 1.105-.174 2.17-.492 3.17 2.242-.617 4.611-.954 7.066-.954s4.824.337 7.066.954c-.318-1-.492-2.065-.492-3.17 0-4.784 3.216-8.81 7.602-10.053-3.14-4.168-8.313-6.899-14.176-6.899s-11.036 2.73-14.176 6.899c4.386 1.243 7.602 5.268 7.602 10.053z" fill="#52565b"/><path d="m128 120.174c6.931 0 13.467 2.03 19.239 5.605 2.745-3.611 4.365-8.024 4.365-12.794 0-5.287-1.986-10.138-5.294-13.941-.42.051-.844.086-1.278.086-4.647 0-8.581-3.034-9.943-7.226-2.238-.659-4.619-1.016-7.089-1.016s-4.851.357-7.089 1.016c-1.362 4.193-5.296 7.226-9.943 7.226-.433 0-.858-.035-1.278-.086-3.308 3.803-5.294 8.654-5.294 13.941 0 4.77 1.62 9.183 4.365 12.794 5.772-3.575 12.308-5.605 19.239-5.605z" fill="#52565b"/><g fill="#a8aeb2"><path d="m178.485 68.525-25.36 13.525c1.477 1.803 2.365 4.108 2.365 6.621 0 .279-.02.552-.042.826l28.362-15.647 9.584-27.688z"/><path d="m180.223 96.706-31.55 1.76c-.752.28-1.543.478-2.365.579h.002c1.79 2.058 3.175 4.429 4.085 7.003l32.418-2.27 20.344-21.085z"/><path d="m185.369 118.501-33.777-5.245c-.035 2.658-.577 5.198-1.531 7.55l32.133 4.523 21.675 15.893z"/><path d="m189.506 165.681-23.885-17.69c1.591 3.749 2.809 7.763 3.597 11.978l14.303 10.282 11.804 24.146z"/><path d="m100.51 88.672c0-2.513.888-4.818 2.365-6.621l-25.36-13.525-14.909-22.364 9.584 27.688 28.361 15.648c-.021-.274-.041-.547-.041-.826z"/><path d="m109.69 99.044h.002c-.822-.1-1.612-.299-2.365-.579l-31.55-1.76-22.935-14.013 20.344 21.085 32.418 2.27c.911-2.574 2.296-4.945 4.086-7.003z"/><path d="m104.408 113.256-33.777 5.245-18.5 22.721 21.675-15.893 32.133-4.523c-.954-2.352-1.497-4.892-1.531-7.55z"/><path d="m90.378 147.991-23.885 17.69-5.819 28.716 11.804-24.146 14.303-10.282c.789-4.215 2.007-8.229 3.597-11.978z"/></g><path d="m141.206 92.369c-1.377 0-2.495-1.114-2.5-2.492-.012-3.487 2.817-6.334 6.306-6.346h.021c3.479 0 6.314 2.824 6.326 6.306.005 1.381-1.111 2.503-2.492 2.508-.002 0-.005 0-.008 0-1.377 0-2.495-1.114-2.5-2.492-.002-.729-.597-1.321-1.326-1.321-.002 0-.003 0-.005 0-.354.001-.687.14-.937.392-.249.251-.386.584-.385.938.005 1.381-1.111 2.503-2.492 2.508-.002-.001-.005-.001-.008-.001z"/><path d="m145.032 101.63c-7.146 0-12.958-5.812-12.958-12.958s5.812-12.958 12.958-12.958 12.958 5.812 12.958 12.958-5.812 12.958-12.958 12.958zm0-20.916c-4.388 0-7.958 3.57-7.958 7.958s3.57 7.958 7.958 7.958 7.958-3.57 7.958-7.958-3.57-7.958-7.958-7.958z"/><path d="m107.142 92.369c-1.377 0-2.495-1.114-2.5-2.492-.012-3.487 2.817-6.334 6.307-6.346 1.669.037 3.279.648 4.479 1.838 1.198 1.191 1.861 2.777 1.867 4.468.005 1.381-1.111 2.503-2.492 2.508-.002 0-.005 0-.008 0-1.377 0-2.495-1.114-2.5-2.492-.001-.354-.14-.687-.392-.937-.25-.248-.581-.385-.934-.385-.002 0-.003 0-.005 0-.731.002-1.324.599-1.322 1.33.005 1.381-1.111 2.503-2.492 2.508-.003 0-.005 0-.008 0z"/><path d="m110.968 101.63c-7.146 0-12.958-5.812-12.958-12.958s5.812-12.958 12.958-12.958 12.958 5.812 12.958 12.958-5.813 12.958-12.958 12.958zm0-20.916c-4.388 0-7.958 3.57-7.958 7.958s3.57 7.958 7.958 7.958 7.958-3.57 7.958-7.958-3.571-7.958-7.958-7.958z"/><path d="m128 236.62c-24.801 0-44.772-35.739-44.772-65.33 0-29.564 20.085-53.616 44.772-53.616s44.772 24.052 44.772 53.616c0 29.591-19.971 65.33-44.772 65.33zm0-113.946c-21.931 0-39.772 21.81-39.772 48.616 0 27.157 18.353 60.33 39.772 60.33s39.772-33.173 39.772-60.33c0-26.807-17.841-48.616-39.772-48.616z"/><path d="m135.066 94.342c-.221 0-.443-.029-.662-.09-4.172-1.145-8.637-1.145-12.809 0-.884.244-1.831-.018-2.465-.678-.635-.661-.857-1.617-.579-2.491.248-.78.374-1.591.374-2.411 0-3.537-2.378-6.683-5.784-7.648-.793-.226-1.424-.827-1.688-1.608-.263-.782-.123-1.643.373-2.302 3.725-4.942 9.771-7.894 16.173-7.894s12.448 2.951 16.173 7.894c.496.659.636 1.52.373 2.302-.264.781-.895 1.383-1.688 1.608-3.406.966-5.784 4.111-5.784 7.648 0 .82.126 1.631.374 2.411.278.874.056 1.83-.579 2.491-.476.497-1.131.768-1.802.768zm-7.066-5.953c1.364 0 2.726.096 4.074.286 0-.001 0-.002 0-.003 0-4.448 2.308-8.515 5.911-10.862-2.709-2.284-6.262-3.59-9.985-3.59s-7.276 1.306-9.985 3.59c3.604 2.348 5.911 6.414 5.911 10.862v.003c1.348-.191 2.71-.286 4.074-.286z"/><path d="m137.271 76.74c-.69 0-1.378-.284-1.872-.842-.916-1.034-.82-2.614.213-3.529l3.622-3.209c1.077-.953 1.571-2.371 1.324-3.793-.249-1.432-1.169-2.563-2.523-3.105l-1.167-.467c-1.281-.513-1.905-1.968-1.393-3.25.512-1.281 1.967-1.906 3.25-1.393l1.167.467c2.957 1.183 5.048 3.759 5.592 6.892.547 3.144-.55 6.281-2.935 8.393l-3.621 3.208c-.477.421-1.069.628-1.657.628z"/><path d="m118.729 76.74c-.589 0-1.181-.207-1.657-.629l-3.622-3.209c-2.384-2.11-3.48-5.248-2.934-8.392.544-3.133 2.635-5.709 5.592-6.892l1.167-.467c1.284-.516 2.737.11 3.25 1.393s-.111 2.737-1.393 3.25l-1.167.467c-1.354.542-2.274 1.674-2.523 3.105-.247 1.422.247 2.84 1.323 3.792l3.623 3.21c1.033.915 1.129 2.495.213 3.529-.494.559-1.181.843-1.872.843z"/><path d="m147.237 128.279c-.45 0-.906-.122-1.314-.375-5.604-3.471-11.634-5.23-17.923-5.23s-12.318 1.76-17.923 5.23c-1.095.679-2.526.414-3.307-.612-3.188-4.194-4.874-9.142-4.874-14.307 0-5.669 2.098-11.202 5.907-15.582.546-.628 1.363-.943 2.193-.841.365.046.683.067.971.067 3.457 0 6.497-2.21 7.565-5.498.255-.784.881-1.393 1.672-1.626 5.035-1.482 10.555-1.482 15.59 0 .791.233 1.417.842 1.672 1.626 1.068 3.288 4.108 5.498 7.565 5.498.288 0 .605-.021.971-.067.828-.102 1.647.214 2.193.841 3.81 4.38 5.907 9.913 5.907 15.582 0 5.165-1.686 10.112-4.874 14.307-.488.644-1.233.987-1.991.987zm-19.237-10.605c6.458 0 12.663 1.604 18.479 4.772 1.723-2.888 2.624-6.12 2.624-9.461 0-4.13-1.347-8.031-3.907-11.356-5.203.083-9.882-2.967-11.978-7.635-3.398-.805-7.039-.805-10.438 0-2.095 4.668-6.779 7.726-11.978 7.635-2.561 3.325-3.907 7.227-3.907 11.356 0 3.341.901 6.573 2.624 9.461 5.818-3.169 12.023-4.772 18.481-4.772z"/><path d="m155.448 91.997c-.472 0-.943-.134-1.354-.398-.772-.498-1.21-1.381-1.138-2.298.017-.208.034-.417.034-.629 0-1.859-.622-3.601-1.799-5.036-.475-.579-.665-1.341-.518-2.074.146-.734.614-1.364 1.274-1.717l24.806-13.229 14.561-21.84c.697-1.046 2.062-1.414 3.191-.853 1.127.559 1.663 1.868 1.251 3.057l-9.585 27.688c-.202.585-.613 1.073-1.154 1.371l-28.361 15.647c-.377.208-.793.311-1.208.311zm1.228-9.007c.386.791.69 1.62.909 2.473l24.176-13.339 2.885-8.332-4.08 6.12c-.229.344-.539.625-.903.819zm21.809-14.465h.01z"/><path d="m193.391 48.662c-1.271 0-2.359-.966-2.485-2.257l-2.44-25.019c-.134-1.375.871-2.598 2.245-2.731 1.39-.129 2.598.872 2.731 2.245l2.44 25.019c.134 1.375-.871 2.598-2.245 2.731-.083.008-.165.012-.246.012z"/><path d="m190.954 23.645c-.218 0-.44-.029-.661-.09-1.332-.364-2.115-1.739-1.751-3.071l5.104-18.644c.364-1.33 1.739-2.116 3.071-1.751 1.332.364 2.115 1.739 1.751 3.071l-5.104 18.644c-.303 1.11-1.311 1.841-2.41 1.841z"/><path d="m150.395 108.547c-1.052 0-2.001-.662-2.355-1.666-.809-2.282-2.024-4.367-3.615-6.196-.607-.698-.779-1.674-.447-2.538.332-.863 1.113-1.473 2.032-1.584.601-.073 1.204-.222 1.794-.44.234-.087.48-.139.73-.152l30.924-1.725 22.396-13.687c1.074-.658 2.466-.412 3.254.568.787.981.723 2.396-.151 3.301l-20.344 21.085c-.429.444-1.008.715-1.624.758l-32.418 2.271c-.059.003-.118.005-.176.005zm.309-7.691c.495.827.941 1.685 1.335 2.569l29.642-2.076 6.123-6.346-6.276 3.835c-.353.216-.752.34-1.164.363zm29.52-4.15h.01z"/><path d="m203.157 85.192c-.274 0-.553-.046-.826-.142-1.304-.457-1.99-1.883-1.533-3.187l14.506-41.4c.121-.348.318-.663.575-.926l12.471-12.699c.97-.983 2.551-.998 3.536-.032.984.968.999 2.551.032 3.536l-12.08 12.301-14.321 40.874c-.361 1.031-1.328 1.675-2.36 1.675z"/><path d="m203.868 143.722c-.516 0-1.034-.159-1.478-.484l-21.167-15.521-31.511-4.436c-.763-.107-1.433-.561-1.817-1.228s-.44-1.475-.15-2.188c.864-2.131 1.317-4.366 1.348-6.644.01-.724.333-1.408.886-1.876.555-.467 1.282-.67 1.998-.562l33.776 5.245c.61.095 1.165.413 1.555.893l18.5 22.721c.794.975.74 2.389-.127 3.301-.488.514-1.148.779-1.813.779zm-50.501-24.976 29.176 4.107c.408.058.797.216 1.13.459l5.933 4.351-5.568-6.839-30.158-4.684c-.121.878-.292 1.748-.513 2.606z"/><path d="m208.836 207.868c-.235 0-.475-.034-.711-.104-1.324-.393-2.079-1.784-1.688-3.107l8.28-27.942-13.185-34.604c-.492-1.29.155-2.734 1.446-3.226 1.285-.494 2.734.154 3.226 1.446l13.485 35.393c.195.512.217 1.074.062 1.6l-8.52 28.753c-.321 1.087-1.316 1.791-2.395 1.791z"/><path d="m195.325 196.896c-.932 0-1.816-.523-2.246-1.402l-11.527-23.581-13.792-9.914c-.522-.376-.88-.938-.998-1.57-.744-3.979-1.902-7.835-3.441-11.461-.44-1.038-.131-2.242.755-2.94.886-.697 2.129-.717 3.035-.045l23.884 17.689c.496.367.839.906.962 1.513l5.819 28.716c.25 1.232-.455 2.459-1.646 2.863-.267.09-.537.132-.805.132zm-23.843-38.379 13.498 9.703c.335.241.605.562.787.933l3.23 6.607-1.752-8.642-16.645-12.328c.333 1.229.627 2.472.882 3.727z"/><path d="m169.907 256c-.628 0-1.257-.235-1.743-.708-.989-.962-1.012-2.545-.049-3.535l20.317-20.892 4.41-36.767c.165-1.37 1.41-2.344 2.78-2.185 1.371.165 2.349 1.409 2.185 2.78l-4.511 37.605c-.065.544-.308 1.052-.69 1.445l-20.907 21.498c-.49.506-1.14.759-1.792.759z"/><path d="m100.552 91.997c-.415 0-.831-.104-1.208-.312l-28.362-15.647c-.541-.298-.952-.786-1.154-1.371l-9.584-27.688c-.412-1.188.124-2.498 1.251-3.057 1.125-.559 2.493-.195 3.191.853l14.56 21.84 24.806 13.229c.66.353 1.128.982 1.274 1.717.147.733-.043 1.495-.518 2.074-1.177 1.436-1.799 3.177-1.799 5.036 0 .212.018.421.034.629.072.917-.365 1.8-1.138 2.298-.41.265-.882.399-1.353.399zm-26.313-19.873 24.176 13.339c.219-.853.523-1.682.909-2.473l-22.986-12.259c-.364-.194-.675-.476-.903-.819l-4.08-6.12z"/><path d="m62.609 48.662c-.081 0-.163-.004-.246-.012-1.374-.134-2.379-1.356-2.245-2.731l2.44-25.019c.134-1.373 1.341-2.376 2.731-2.245 1.374.134 2.379 1.356 2.245 2.731l-2.44 25.019c-.125 1.291-1.213 2.257-2.485 2.257z"/><path d="m65.046 23.645c-1.1 0-2.106-.73-2.41-1.841l-5.104-18.644c-.364-1.332.419-2.707 1.751-3.071 1.336-.365 2.708.421 3.071 1.751l5.104 18.644c.364 1.332-.419 2.707-1.751 3.071-.221.06-.443.09-.661.09z"/><path d="m105.605 108.547c-.059 0-.117-.002-.176-.006l-32.418-2.271c-.616-.043-1.195-.313-1.624-.758l-20.343-21.084c-.874-.905-.938-2.319-.151-3.301.786-.98 2.179-1.227 3.254-.568l22.396 13.687 30.924 1.725c.25.014.496.065.73.152.59.22 1.193.367 1.795.44.919.111 1.7.721 2.032 1.584s.159 1.84-.448 2.538c-1.591 1.829-2.807 3.914-3.615 6.196-.355 1.004-1.304 1.666-2.356 1.666zm-31.286-7.197 29.642 2.076c.394-.885.84-1.741 1.335-2.569l-29.659-1.654c-.412-.023-.812-.147-1.164-.363l-6.276-3.835z"/><path d="m52.843 85.192c-1.032 0-1.999-.645-2.359-1.675l-14.322-40.873-12.08-12.301c-.967-.985-.952-2.568.032-3.536.986-.967 2.567-.951 3.536.032l12.471 12.699c.257.263.454.578.575.926l14.506 41.4c.457 1.304-.229 2.729-1.533 3.187-.273.095-.552.141-.826.141z"/><path d="m52.132 143.722c-.665 0-1.325-.264-1.812-.777-.867-.912-.921-2.326-.127-3.301l18.5-22.721c.39-.479.944-.798 1.555-.893l33.777-5.245c.714-.108 1.444.095 1.998.562.553.468.876 1.152.886 1.877.029 2.276.482 4.511 1.347 6.643.29.713.234 1.521-.15 2.188s-1.055 1.12-1.817 1.228l-31.511 4.436-21.167 15.521c-.445.322-.964.482-1.479.482zm19.831-22.898-5.568 6.839 5.933-4.351c.333-.243.722-.401 1.13-.459l29.176-4.107c-.221-.858-.392-1.729-.512-2.605z"/><path d="m47.164 207.868c-1.079 0-2.074-.704-2.396-1.791l-8.52-28.753c-.155-.525-.134-1.088.062-1.6l13.485-35.393c.492-1.292 1.94-1.939 3.226-1.446 1.291.491 1.938 1.936 1.446 3.226l-13.185 34.604 8.28 27.942c.392 1.323-.363 2.715-1.688 3.107-.235.07-.475.104-.71.104z"/><path d="m60.675 196.896c-.268 0-.538-.043-.804-.133-1.191-.404-1.896-1.631-1.646-2.863l5.819-28.716c.123-.606.466-1.146.962-1.513l23.884-17.689c.905-.672 2.149-.652 3.035.045.886.698 1.195 1.902.755 2.94-1.539 3.626-2.697 7.481-3.441 11.461-.118.632-.476 1.194-.998 1.57l-13.792 9.914-11.527 23.581c-.431.88-1.316 1.403-2.247 1.403zm8.079-29.778-1.752 8.642 3.23-6.607c.182-.371.452-.691.787-.933l13.498-9.703c.256-1.255.55-2.498.881-3.727z"/><path d="m86.093 256c-.651 0-1.302-.253-1.792-.757l-20.907-21.498c-.383-.394-.625-.901-.69-1.445l-4.511-37.605c-.164-1.371.813-2.615 2.185-2.78 1.388-.166 2.616.815 2.78 2.185l4.41 36.767 20.317 20.892c.963.99.94 2.573-.049 3.535-.486.471-1.115.706-1.743.706z"/></svg>