<svg enable-background="new 0 0 256 256" height="512" viewBox="0 0 256 256" width="512" xmlns="http://www.w3.org/2000/svg"><path d="m186.217 101.834s-4.457-4.457-11.142-16.713c-2.197-4.028-3.465-11.941-7.183-20 1.37-3.677 3.476-7.77 6.563-12.311 14.472-21.283 10.081-39.964 7.204-47.594-.798-2.117-3.139-3.228-5.277-2.486-27.965 9.699-36.339 29.476-38.803 39.058-11.947-2.59-21.329-.893-23.227-.677-1.898-.216-11.28-1.914-23.227.677-2.463-9.582-10.838-29.359-38.802-39.058-2.137-.741-4.478.37-5.277 2.486-2.878 7.63-7.269 26.311 7.204 47.594 3.088 4.541 5.193 8.635 6.563 12.311-3.718 8.058-4.986 15.972-7.183 20-6.685 12.256-11.142 16.713-11.142 16.713h10.028c-4.457 4.457-5.571 15.598-5.571 15.598 6.685-3.343 15.598-3.343 15.598-3.343v6.685s23.398 2.228 28.968 18.941c3.679 11.037 12.458 14.055 17.998 14.832 1.523.98 3.196 1.593 4.843 1.593 1.646 0 3.319-.614 4.843-1.593 5.54-.778 14.319-3.795 17.998-14.832 5.571-16.713 28.968-18.941 28.968-18.941v-6.685s8.913 0 15.598 3.343c0 0-1.114-11.142-5.571-15.598z" fill="#f89422"/><path d="m182.856 8.894c-3.367-.926-8.984 1.109-18.366 10.49l-7.799 8.913h5.571l-8.913 7.799 10.028 2.228s-7.492 2.247-12.646 9.814l17.32 16.579c1.372-3.573 3.429-7.531 6.405-11.909 12.519-18.409 10.921-34.866 8.4-43.914z" fill="#f4dbce"/><path d="m65.329 38.326 10.028-2.228-8.913-7.799h5.571l-7.799-8.913c-9.381-9.381-14.999-11.416-18.365-10.49-2.522 9.047-4.119 25.505 8.4 43.916 2.977 4.378 5.033 8.335 6.405 11.909l17.321-16.577c-5.155-7.57-12.648-9.818-12.648-9.818z" fill="#f4dbce"/><path d="m166.927 238.338c-1.778-.496-3.663-.654-5.44-.629-.254.004-.506.011-.754.022-1.244.053-2.419.188-3.445.349-.2.031-.395.034-.581.01-1.304-.161-2.196-1.559-1.647-2.866.013-.031.026-.063.039-.094v.001c9.201-21.939 16.378-45.566 9.611-52.333-1.611-1.611-3.286-2.407-4.949-2.64-.306-12.542-2.783-24.23-6.87-34.219-1.413-.314-3.538-.511-6.116.116-.287.07-.456.41-.362.724.523 1.744 1.93 7.218 1.26 13.747-.051.499-.612.69-.888.296-.732-1.043-2.004-2.577-3.7-3.548-.312-.179-.686.044-.728.435-.269 2.513-1.483 10.699-6.322 17.745-.237.346-.721.26-.859-.149-.286-.845-.81-2.121-1.664-3.31-.244-.339-.725-.242-.854.169-1.071 3.411-5.594 15.513-17.19 20.761-.792.359-1.681.359-2.473 0-11.596-5.249-16.12-17.351-17.19-20.761-.129-.412-.61-.509-.854-.169-.854 1.189-1.378 2.465-1.664 3.31-.138.409-.622.495-.859.149-4.839-7.045-6.053-15.232-6.322-17.745-.042-.392-.416-.614-.728-.435-1.696.971-2.968 2.505-3.7 3.548-.276.394-.837.203-.888-.296-.67-6.529.737-12.004 1.26-13.747.094-.314-.074-.654-.362-.724-2.421-.589-4.436-.448-5.845-.169-4.161 10.15-6.661 22.056-6.906 34.835-1.66.235-3.331 1.031-4.94 2.639-6.767 6.767.411 30.394 9.611 52.333v-.001c.013.031.026.063.039.094.549 1.307-.344 2.705-1.647 2.867-.186.023-.381.021-.581-.01-1.026-.161-2.201-.296-3.445-.349-.249-.011-.501-.018-.754-.022-1.777-.025-3.661.133-5.44.629-4.827 1.345-8.874 5.18-7.883 14.601h25.272 22.211c.358 0 .708-.037 1.046-.107.675-.14 1.301-.412 1.849-.789.274-.188.529-.403.762-.639.255-.26.475-.552.671-.861 2.8.826 5.689 1.273 8.646 1.273 3.028 0 5.986-.464 8.848-1.329.932 1.427 2.428 2.451 4.125 2.451h22.211 25.272c.992-9.422-3.056-13.818-7.883-15.163z" fill="#f89422"/><g fill="#7d3d1a"><path d="m157.288 238.079c-1.601.25-2.856-1.362-2.229-2.856.013-.031.026-.062.039-.094-.449.889-3.162 5.673-9.893 6.954 2.564.894 4.254 2.127 5.336 3.45.682.834 1.129 1.7 1.415 2.535.143.417.245.826.317 1.219.036.196.064.389.085.576.188 1.65-1.16 3.638-2.821 3.638h25.272c1.671-15.869-10.952-16.45-17.521-15.422z"/><path d="m123.05 227.127c-.388 6.079-.704 12.995-.846 20.593-.053 2.867 2.255 5.781 5.123 5.781h22.211c1.661 0 3.009-1.987 2.821-3.638-.341-2.995-2.373-7.295-10.846-8.707-5.906-.984-5.383-6.067-2.812-14.028h-15.651z"/><path d="m71.417 238.641c1.601.25 2.856-1.362 2.229-2.856-.013-.031-.026-.062-.039-.094.449.889 3.162 5.673 9.893 6.954-2.564.894-4.254 2.127-5.336 3.45-.682.834-1.129 1.7-1.415 2.535-.143.417-.245.826-.317 1.219-.036.196-.064.389-.085.576-.188 1.65 1.16 3.076 2.821 3.076h-25.273c-1.67-15.869 10.953-15.889 17.522-14.86z"/><path d="m105.656 227.688c.388 6.079.704 12.995.846 20.593.053 2.867-2.255 5.219-5.123 5.219h-22.211c-1.661 0-3.009-1.426-2.821-3.076.341-2.995 2.373-7.295 10.846-8.707 5.906-.984 5.383-6.067 2.812-14.028h15.651z"/></g><path d="m146.413 146.778c-.094-.315.074-.654.362-.724 3.38-.822 5.99-.227 7.225.189.357.12.698-.233.63-.646-1.751-10.56-4.798-16.184-6.609-18.744-4.625 2.83-8.85 6.931-10.827 12.862-1.051 3.154-2.739 6.182-5.106 8.611.006-.011.01-.023.016-.034-1.296 1.332-2.712 2.342-2.272 2.011-.918 8.154-7.492 14.481-15.478 14.481s-14.561-6.327-15.478-14.481c.446.334-.966-.669-2.272-2.011.006.011.01.023.016.034-2.363-2.424-4.053-5.451-5.106-8.611-2.002-6.005-6.307-10.132-10.999-12.966-1.802 2.511-4.908 8.149-6.681 18.847-.069.413.273.766.629.646 1.234-.417 3.844-1.011 7.225-.189.287.07.456.41.362.724-.523 1.744-1.93 7.218-1.26 13.747.051.499.612.69.888.296.732-1.043 2.004-2.577 3.7-3.548.312-.179.686.044.728.435.269 2.513 1.483 10.699 6.322 17.745.237.346.721.26.859-.149.286-.845.81-2.121 1.664-3.31.244-.339.725-.242.854.169 1.071 3.411 5.594 15.513 17.19 20.761.792.359 1.681.359 2.473 0 11.596-5.249 16.12-17.351 17.19-20.761.129-.412.61-.509.854-.169.854 1.189 1.378 2.465 1.664 3.31.138.409.622.495.859.149 4.839-7.045 6.053-15.232 6.322-17.745.042-.392.416-.614.728-.435 1.696.971 2.968 2.505 3.7 3.548.276.394.837.203.888-.296.67-6.528-.737-12.002-1.26-13.746z" fill="#f4dbce"/><path d="m119.211 154.538c-1.528.985-3.207 1.603-4.859 1.603s-3.331-.617-4.859-1.603c-3.03-.429-7.018-1.524-10.62-4.236.918 8.154 7.492 14.482 15.478 14.482s14.561-6.327 15.478-14.482c-3.599 2.712-7.588 3.807-10.618 4.236z" fill="#f89422"/><path d="m250.761 81.851c-8.777-40.381-5.796-63.041-2.871-73.602.939-3.39-2.172-6.559-5.546-5.563-31.249 9.226-58.844 41.294-68.025 80.799.045.108.088.222.134.327.046.106.091.214.138.316.158.35.318.685.485.992 6.685 12.256 11.142 16.713 11.142 16.713h-10.028c4.457 4.457 5.571 15.599 5.571 15.599-3.464-1.732-7.518-2.563-10.629-2.965.106 4.342.417 8.718 1.007 13.119 2.988 22.299-3.811 37.463-12.627 47.534.119 1.663.208 3.34.249 5.037 1.663.233 3.338 1.029 4.949 2.64 4.259 4.259 2.992 15.2-.825 28.193 71.228 2.422 98.963-73.528 86.876-129.139z" fill="#f89422"/><path d="m125.199 145.354c0 4.468-5.561 10.787-10.846 10.787s-10.846-6.319-10.846-10.787 5.561-4.813 10.846-4.813 10.846.344 10.846 4.813z" fill="#7d3d1a"/><path d="m175.075 85.121c-1.477-2.708-2.536-7.178-4.198-12.263-29.267-10.106-39.574 2.749-43.122 14.786-2.128 7.219-1.992 14.917.031 22.166l6.079 21.781c1.639 5.874.821 11.796-1.777 16.734 2.065-2.115 3.873-4.911 5.106-8.611 5.571-16.713 28.968-18.941 28.968-18.941v-6.685s8.913 0 15.598 3.343c0 0-1.114-11.142-5.571-15.598h10.028c0 .001-4.457-4.456-11.142-16.712z" fill="#f4dbce"/><path d="m53.63 85.121c1.477-2.708 2.536-7.178 4.198-12.263 29.267-10.106 39.574 2.749 43.122 14.786 2.128 7.219 1.992 14.917-.031 22.166l-6.079 21.781c-1.639 5.874-.821 11.796 1.777 16.734-2.065-2.115-3.873-4.911-5.106-8.611-5.571-16.713-28.968-18.941-28.968-18.941v-6.685s-8.913 0-15.598 3.343c0 0 1.114-11.142 5.571-15.598h-10.027c0 .001 4.456-4.456 11.141-16.712z" fill="#f4dbce"/><path d="m247.89 8.249c.939-3.39-2.172-6.559-5.546-5.563-27.337 8.071-51.878 33.625-63.741 66.345 5.386-3.393 9.911-7.233 14.708-11.472.646-.57 1.669-.143 1.696.718.196 6.243 1.718 12.486 2.862 18.623 2.92-4.846 7.712-9.691 11.047-14.537.492-.714 1.584-.531 1.824.302 1.593 5.53 2.374 10.916 4.795 16.098.355.76 1.42.786 1.83.054 3.343-5.966 7.363-11.255 10.74-17.186.502-.883 1.797-.809 2.216.116 2.974 6.565 5.38 11.122 8.744 16.814.511.864 1.824.562 1.895-.439.423-6.009 2.484-12.975 5.73-19.353-3.454-26.25-1.112-42.17 1.2-50.52z" fill="#f4dbce"/><path d="m174.81 256h-25.272c-1.381 0-2.5-1.119-2.5-2.5 0-1.352 1.073-2.453 2.414-2.499.197-.127.453-.593.424-.855-.486-4.266-5.039-5.903-8.773-6.525-2.655-.442-4.562-1.622-5.671-3.505-2.543-4.324-.111-11.15 3.255-20.597 3.439-9.653 7.721-21.667 8.309-35.053.029-.662.32-1.286.809-1.733 6.756-6.192 13.562-6.814 18.675-1.703 6.513 6.512 3.543 24.836-8.825 54.474 3.572-.457 10.811-.693 15.546 3.81 3.39 3.222 4.768 8.083 4.098 14.449-.137 1.271-1.21 2.237-2.489 2.237zm-19.995-5h17.644c.042-3.606-.864-6.313-2.706-8.064-3.487-3.315-9.609-2.773-12.078-2.387h-.001c-1.63.255-3.28-.396-4.301-1.7-1.022-1.306-1.26-3.066-.619-4.594 16.427-39.134 11.951-47.928 10.188-49.691-1.11-1.11-4.41-4.406-11.007 1.188-.79 13.693-5.078 25.727-8.54 35.444-2.578 7.237-5.014 14.073-3.654 16.384.119.204.484.825 2.183 1.108 10.358 1.726 12.54 7.564 12.919 10.891.053.469.043.947-.028 1.421zm2.473-12.92h.01z"/><path d="m149.537 256h-22.211c-1.898 0-3.733-.804-5.166-2.264-1.579-1.609-2.497-3.876-2.456-6.064.538-28.777 3.597-48.242 3.628-48.435.217-1.363 1.5-2.29 2.862-2.075 1.363.217 2.292 1.499 2.075 2.862-.03.19-3.036 19.341-3.566 47.741-.016.861.377 1.807 1.026 2.468.281.286.862.766 1.597.766h22.127c.197-.129.451-.592.422-.854-.485-4.266-5.039-5.903-8.773-6.525-2.655-.442-4.562-1.622-5.67-3.504-2.544-4.324-.111-11.149 3.256-20.594 4.314-12.105 10.223-28.684 7.82-46.623-.184-1.369.777-2.626 2.146-2.81 1.364-.187 2.627.778 2.81 2.146 2.564 19.141-3.58 36.379-8.066 48.966-2.578 7.235-5.015 14.07-3.655 16.38.12.204.484.825 2.183 1.108 10.358 1.727 12.54 7.564 12.919 10.891.185 1.615-.393 3.35-1.544 4.64-1.027 1.148-2.363 1.78-3.764 1.78z"/><path d="m79.167 256h-25.271c-1.279 0-2.353-.966-2.486-2.238-.658-6.254.668-11.003 3.942-14.117 4.293-4.083 10.763-4.252 15.699-3.584-12.366-29.635-15.334-47.959-8.823-54.47 5.11-5.112 11.918-4.491 18.674 1.702.489.448.779 1.071.809 1.733.588 13.386 4.869 25.399 8.309 35.053 3.366 9.447 5.798 16.273 3.254 20.598-1.107 1.883-3.016 3.062-5.67 3.505-3.734.623-8.287 2.259-8.773 6.524-.003.024-.01.089.063.171.033.037.125.123.274.123 1.381 0 2.5 1.119 2.5 2.5s-1.12 2.5-2.501 2.5zm-22.921-5h17.591c-.015-.285-.007-.573.026-.86.379-3.326 2.562-9.163 12.918-10.889 1.698-.283 2.063-.904 2.183-1.108 1.359-2.311-1.076-9.147-3.655-16.385-3.462-9.717-7.75-21.75-8.54-35.443-6.598-5.595-9.896-2.299-11.007-1.188-1.763 1.763-6.238 10.557 10.188 49.691.641 1.527.404 3.288-.619 4.594-1.02 1.303-2.667 1.957-4.302 1.699-3.196-.501-9.033-.885-12.233 2.158-1.735 1.65-2.59 4.246-2.55 7.731zm15.555-14.83h.003c-.001 0-.002 0-.003 0z"/><path d="m101.379 256h-22.212c-1.527 0-2.986-.653-4.003-1.793-.995-1.114-1.469-2.596-1.301-4.066.379-3.327 2.562-9.164 12.919-10.89 1.698-.283 2.062-.904 2.183-1.108 1.359-2.311-1.077-9.145-3.656-16.381-4.539-12.735-10.755-30.176-7.985-49.548.195-1.367 1.455-2.326 2.829-2.121 1.367.195 2.316 1.461 2.121 2.829-2.595 18.149 3.382 34.917 7.746 47.162 3.367 9.446 5.799 16.271 3.256 20.594-1.108 1.883-3.016 3.062-5.67 3.505-3.734.623-8.287 2.259-8.773 6.524-.003.024-.01.088.063.171.033.037.125.123.273.123h22.211c.71 0 1.375-.279 1.873-.786.497-.507.764-1.177.75-1.887-.531-28.432-3.536-47.551-3.566-47.741-.218-1.363.711-2.645 2.075-2.863s2.646.711 2.863 2.075c.031.193 3.09 19.658 3.628 48.435.039 2.063-.736 4.01-2.181 5.483s-3.38 2.283-5.443 2.283z"/><path d="m168.049 67.219c-.298 0-.601-.053-.896-.167-1.289-.495-1.933-1.941-1.438-3.23 1.525-3.974 3.771-8.151 6.672-12.418 11.378-16.732 10.461-31.805 8.484-40.187-2.213.199-6.631 1.965-14.556 9.876l-4.116 4.705h.062c1.042 0 1.974.646 2.34 1.621.367.975.09 2.075-.693 2.761l-5.198 4.548 5.208 1.157c1.111.247 1.915 1.212 1.956 2.35.042 1.137-.689 2.158-1.779 2.485-.059.018-6.743 2.14-11.298 8.827-.778 1.142-2.333 1.436-3.474.658-1.142-.777-1.437-2.333-.659-3.474 2.301-3.376 5.02-5.786 7.447-7.459l-3.305-.734c-.92-.205-1.647-.909-1.88-1.822s.066-1.879.775-2.5l4.095-3.583c-.603-.231-1.105-.692-1.382-1.301-.405-.894-.251-1.941.395-2.679l7.799-8.914c.037-.042.075-.083.114-.122 8.894-8.894 15.696-12.535 20.796-11.133.847.233 1.51.894 1.745 1.739 2.446 8.778 4.564 26.426-8.741 45.993-2.686 3.949-4.751 7.785-6.139 11.399-.381.994-1.329 1.604-2.334 1.604z"/><path d="m60.655 67.219c-1.005 0-1.953-.61-2.334-1.604-1.388-3.614-3.453-7.45-6.139-11.399-13.306-19.568-11.187-37.215-8.741-45.993.236-.846.898-1.506 1.745-1.739 5.102-1.399 11.902 2.239 20.796 11.133.04.039.077.08.114.121l7.799 8.914c.646.738.801 1.786.395 2.68-.276.61-.779 1.07-1.382 1.302l4.095 3.583c.709.621 1.009 1.587.776 2.5s-.96 1.617-1.88 1.822l-3.305.734c2.428 1.674 5.148 4.084 7.449 7.462.777 1.141.482 2.696-.659 3.474s-2.696.482-3.474-.659c-4.602-6.757-11.232-8.809-11.299-8.829-1.09-.327-1.821-1.349-1.78-2.485.042-1.137.846-2.103 1.956-2.35l5.208-1.157-5.198-4.548c-.784-.686-1.06-1.786-.694-2.761s1.299-1.621 2.34-1.621h.062l-4.116-4.704c-7.925-7.912-12.343-9.679-14.555-9.877-1.977 8.381-2.895 23.454 8.483 40.187 2.901 4.267 5.146 8.445 6.672 12.418.495 1.289-.149 2.735-1.438 3.23-.295.113-.598.166-.896.166z"/><path d="m179.062 143.044c-.05 0-.101-.001-.151-.004l-46.164-2.772c-1.379-.083-2.429-1.267-2.346-2.646.082-1.378 1.252-2.425 2.645-2.346l46.164 2.772c1.379.083 2.429 1.267 2.346 2.646-.08 1.327-1.182 2.35-2.494 2.35z"/><path d="m170.464 157.814c-.207 0-.418-.026-.628-.08l-38.368-9.924c-1.337-.346-2.14-1.71-1.794-3.046.345-1.337 1.706-2.142 3.046-1.794l38.368 9.924c1.337.346 2.14 1.71 1.794 3.046-.291 1.127-1.306 1.874-2.418 1.874z"/><path d="m49.643 143.044c-1.312 0-2.414-1.023-2.493-2.35-.083-1.378.967-2.562 2.346-2.646l46.164-2.772c1.374-.072 2.563.968 2.646 2.346s-.967 2.562-2.346 2.646l-46.164 2.772c-.051.003-.103.004-.153.004z"/><path d="m58.241 157.814c-1.112 0-2.127-.748-2.418-1.875-.346-1.336.458-2.701 1.794-3.046l38.368-9.924c1.334-.346 2.7.458 3.046 1.794s-.458 2.701-1.794 3.046l-38.368 9.924c-.21.056-.42.081-.628.081z"/><path d="m174.81 256h-47.483c-1.838 0-3.617-.768-5.009-2.115-5.192 1.297-10.488 1.321-15.718.048-.285.267-.59.513-.912.733-.835.573-1.763.969-2.755 1.175-.505.105-1.028.159-1.553.159h-47.484c-1.279 0-2.353-.966-2.486-2.238-.556-5.286-.036-14.558 9.697-17.271 1.828-.51 3.896-.757 6.146-.72.281.004.555.012.827.024.962.041 1.958.13 2.971.267-12.365-29.634-15.334-47.959-8.823-54.47 1.309-1.309 2.736-2.251 4.261-2.816.44-11.988 2.863-23.65 7.04-33.839.318-.776 1.004-1.341 1.828-1.504 2.241-.443 4.57-.379 6.921.193.789.192 1.476.711 1.886 1.426.422.737.524 1.628.279 2.445-.321 1.071-1.154 4.204-1.307 8.253.317-.229.649-.445.998-.645.869-.499 1.922-.525 2.815-.069.916.467 1.53 1.367 1.641 2.408.202 1.885 1.043 7.749 4.045 13.505.091-.138.186-.275.284-.412.667-.927 1.771-1.388 2.882-1.209 1.125.182 2.04.981 2.388 2.088 1.036 3.3 5.24 14.438 15.836 19.234.137.062.274.061.412 0 10.595-4.795 14.8-15.934 15.837-19.233.346-1.106 1.262-1.907 2.389-2.088 1.105-.178 2.216.284 2.881 1.21.098.136.192.273.283.411 3.001-5.755 3.844-11.62 4.046-13.505.111-1.041.725-1.941 1.641-2.408.895-.455 1.946-.429 2.816.071.348.199.68.416.996.644-.151-4.053-.985-7.182-1.307-8.252-.245-.822-.142-1.712.281-2.449.41-.714 1.098-1.232 1.887-1.424 3.082-.75 5.641-.482 7.245-.127.801.178 1.463.736 1.772 1.494 4.094 10.004 6.5 21.449 6.993 33.215 1.532.564 2.966 1.509 4.28 2.824 6.511 6.51 3.542 24.835-8.823 54.47 1.011-.136 2.008-.226 2.973-.267.27-.012.545-.02.822-.023 2.245-.035 4.321.21 6.148.72 3.382.942 11.096 4.566 9.698 17.833-.133 1.268-1.206 2.234-2.485 2.234zm-51.609-7.452c.828 0 1.623.413 2.093 1.133.539.826 1.299 1.318 2.032 1.318h45.135c.076-5.569-2.045-9.095-6.205-10.254-1.367-.381-2.947-.563-4.733-.537-.228.003-.456.009-.681.019-1.018.043-2.082.152-3.167.321-.425.065-.852.073-1.273.022-1.405-.174-2.672-1.016-3.389-2.253-.724-1.249-.817-2.729-.259-4.062l2.345.874-2.306-.967c16.38-39.058 11.909-47.837 10.149-49.598-1.126-1.125-2.28-1.757-3.528-1.932-1.212-.17-2.123-1.192-2.152-2.415-.277-11.315-2.405-22.355-6.166-32.032-.513-.045-1.095-.061-1.735-.015.644 2.819 1.336 7.378.8 12.61-.13 1.271-1.032 2.339-2.247 2.656-1.206.315-2.451-.148-3.175-1.18-.124-.178-.282-.392-.469-.625-.788 3.932-2.506 9.898-6.174 15.238-.645.938-1.742 1.427-2.853 1.272-.72-.1-1.36-.452-1.826-.979-2.45 5.479-7.53 13.792-16.919 18.042-1.44.651-3.093.651-4.535 0-9.39-4.25-14.469-12.563-16.919-18.042-.465.527-1.105.879-1.824.979-1.121.153-2.211-.333-2.855-1.272-3.668-5.34-5.386-11.306-6.174-15.237-.187.233-.344.448-.468.625-.722 1.031-1.966 1.494-3.173 1.18-1.214-.316-2.118-1.383-2.249-2.656-.536-5.227.156-9.789.8-12.612-.5-.036-.993-.037-1.479-.003-3.831 9.847-5.967 21.084-6.188 32.602-.023 1.228-.935 2.256-2.15 2.428-1.246.176-2.397.808-3.521 1.931-1.76 1.76-6.231 10.54 10.149 49.598.598 1.425.503 2.906-.22 4.155-.717 1.237-1.983 2.079-3.388 2.252-.422.051-.85.045-1.273-.021-1.086-.17-2.151-.278-3.165-.321-.228-.01-.457-.016-.687-.02-1.763-.022-3.362.156-4.73.537-1.618.451-6.276 1.75-6.201 9.693h45.131c.183 0 .363-.018.536-.054.341-.071.658-.206.944-.402.143-.098.274-.208.393-.329.112-.115.228-.265.342-.445.597-.945 1.75-1.377 2.82-1.062 5.344 1.576 10.771 1.548 16.064-.051.238-.074.482-.109.723-.109z"/><path d="m136.252 107.616c-1.377 0-2.496-1.114-2.5-2.492-.017-5.416 4.375-9.835 9.79-9.853h.031c2.611 0 5.068 1.013 6.922 2.854 1.861 1.849 2.892 4.312 2.899 6.936.004 1.381-1.111 2.503-2.492 2.508-.003 0-.006 0-.008 0-1.377 0-2.496-1.114-2.5-2.492-.004-1.288-.51-2.497-1.423-3.404s-2.105-1.432-3.414-1.401c-2.658.009-4.814 2.179-4.806 4.837.004 1.381-1.111 2.503-2.492 2.508-.002-.001-.004-.001-.007-.001z"/><path d="m91.74 107.592c-1.381 0-2.5-1.119-2.5-2.5 0-2.659-2.163-4.822-4.821-4.822s-4.822 2.163-4.822 4.822c0 1.381-1.119 2.5-2.5 2.5s-2.5-1.119-2.5-2.5c0-5.416 4.406-9.822 9.822-9.822s9.821 4.406 9.821 9.822c0 1.381-1.119 2.5-2.5 2.5z"/><path d="m174.81 256h-25.272c-1.381 0-2.5-1.119-2.5-2.5 0-1.352 1.073-2.453 2.414-2.499.197-.127.453-.593.424-.855-.016-.132-.035-.268-.061-.407-.054-.298-.129-.587-.224-.864-.217-.635-.548-1.227-.983-1.758-.911-1.114-2.332-2.013-4.225-2.673-1.068-.373-1.753-1.417-1.67-2.545s.914-2.06 2.025-2.271c5.686-1.082 7.896-5.164 8.129-5.625.605-1.197 2.049-1.703 3.267-1.148 1.041.474 1.605 1.576 1.436 2.66 3.541-.464 10.856-.739 15.629 3.799 3.39 3.222 4.768 8.083 4.098 14.449-.135 1.271-1.208 2.237-2.487 2.237zm-19.995-5h17.644c.042-3.606-.864-6.313-2.706-8.064-3.487-3.315-9.609-2.773-12.078-2.387h-.001c-1.087.171-2.182-.062-3.093-.622-.903.896-2.045 1.822-3.461 2.63.499.434.952.897 1.356 1.392.813.993 1.436 2.107 1.846 3.309.176.513.313 1.045.411 1.582.046.247.081.495.108.737.055.469.045.948-.026 1.423zm2.473-12.92h.01zm.088-1.916c-.001.001-.001.001-.001.001s0 0 .001-.001z"/><path d="m149.537 256h-22.211c-1.898 0-3.733-.804-5.166-2.264-1.579-1.609-2.497-3.876-2.456-6.064.129-6.915.415-13.881.851-20.705.084-1.316 1.176-2.341 2.495-2.341h15.65c.8 0 1.551.382 2.021 1.029s.604 1.479.357 2.24c-.686 2.123-2.508 7.764-1.324 9.708.121.199.49.806 2.169 1.085 10.358 1.726 12.54 7.564 12.919 10.891.185 1.615-.393 3.35-1.544 4.64-1.024 1.149-2.36 1.781-3.761 1.781zm-24.136-26.374c-.351 5.997-.585 12.088-.698 18.139-.016.861.377 1.807 1.026 2.468.281.286.862.766 1.597.766h22.127c.197-.129.451-.592.422-.854-.486-4.266-5.039-5.903-8.773-6.525-2.612-.435-4.503-1.585-5.618-3.418-1.594-2.621-1.321-6.158-.138-10.576z"/><path d="m79.167 256h-25.271c-1.279 0-2.353-.966-2.486-2.238-.658-6.254.668-11.003 3.942-14.117 4.326-4.113 10.862-4.251 15.809-3.569-.13-1.06.411-2.143 1.417-2.607 1.222-.563 2.652-.107 3.26 1.094.234.462 2.449 4.545 8.129 5.626 1.111.211 1.942 1.143 2.026 2.271s-.602 2.172-1.669 2.545c-1.893.66-3.314 1.56-4.225 2.673-.435.531-.766 1.124-.984 1.761-.094.275-.169.563-.222.856-.025.139-.045.274-.061.407-.003.029-.011.094.062.176.033.037.125.123.274.123 1.381 0 2.5 1.119 2.5 2.5s-1.12 2.499-2.501 2.499zm-22.921-5h17.591c-.015-.285-.007-.573.026-.86.026-.237.063-.485.109-.739.098-.538.236-1.069.411-1.581.412-1.204 1.033-2.317 1.847-3.31.404-.494.857-.958 1.356-1.392-1.416-.807-2.558-1.734-3.46-2.63-.912.56-2.007.792-3.095.622-3.196-.501-9.033-.885-12.233 2.158-1.737 1.651-2.592 4.247-2.552 7.732z"/><path d="m101.379 256h-22.212c-1.527 0-2.986-.653-4.003-1.793-.995-1.114-1.469-2.596-1.301-4.066.379-3.327 2.562-9.164 12.919-10.89 1.678-.28 2.047-.886 2.168-1.086 1.183-1.944-.639-7.584-1.325-9.708-.246-.761-.113-1.593.357-2.24.471-.646 1.222-1.029 2.021-1.029h15.651c1.319 0 2.411 1.024 2.495 2.341.435 6.828.721 13.794.85 20.705.039 2.063-.736 4.01-2.181 5.482s-3.376 2.284-5.439 2.284zm-8.02-25.812c1.184 4.417 1.457 7.956-.138 10.576-1.115 1.833-3.005 2.983-5.618 3.418-3.734.623-8.287 2.259-8.773 6.524-.003.024-.01.088.063.171.033.037.125.123.273.123h22.211c.71 0 1.375-.279 1.873-.786.497-.507.764-1.177.75-1.887-.113-6.048-.347-12.139-.698-18.139z"/><path d="m114.23 195.692c-.773 0-1.547-.163-2.267-.489-9.39-4.25-14.469-12.563-16.919-18.042-.465.527-1.105.879-1.824.979-1.121.153-2.211-.333-2.855-1.272-3.668-5.34-5.386-11.306-6.174-15.237-.187.233-.344.448-.468.625-.722 1.031-1.966 1.494-3.173 1.18-1.214-.316-2.118-1.383-2.249-2.656-.537-5.227.156-9.789.8-12.612-1.764-.125-3.102.194-3.84.443-.986.336-2.056.128-2.856-.552-.819-.696-1.217-1.795-1.04-2.87 1.778-10.724 4.852-16.739 7.117-19.896.76-1.06 2.206-1.357 3.324-.683 6.07 3.666 10.133 8.482 12.078 14.315.968 2.903 2.466 5.479 4.341 7.465.059.05.115.103.169.159.749.769 1.581 1.448 1.914 1.707.022.016.043.031.065.047 1.071.802 1.126 1.823 1.069 2.346 1.04 6.677 6.488 11.637 12.911 11.637 6.425 0 11.875-4.963 12.912-11.645-.056-.525.004-1.537 1.063-2.334.024-.018.049-.036.073-.053.336-.26 1.165-.938 1.91-1.704.055-.056.111-.109.17-.159 1.875-1.986 3.373-4.561 4.341-7.465 1.924-5.772 5.926-10.552 11.895-14.204 1.122-.686 2.585-.387 3.346.688 2.237 3.162 5.273 9.159 7.034 19.779.178 1.076-.221 2.176-1.04 2.872-.8.679-1.868.885-2.856.551-.737-.248-2.07-.569-3.839-.442.644 2.821 1.336 7.38.8 12.612-.13 1.271-1.032 2.339-2.247 2.656-1.206.315-2.451-.148-3.175-1.18-.124-.178-.282-.392-.469-.625-.788 3.932-2.506 9.898-6.174 15.238-.645.939-1.75 1.425-2.853 1.272-.72-.1-1.36-.452-1.826-.979-2.45 5.479-7.53 13.792-16.919 18.042-.722.323-1.495.486-2.269.486zm-18.902-26.403c.157 0 .315.013.473.038 1.125.182 2.04.981 2.388 2.088 1.036 3.3 5.24 14.438 15.836 19.233.137.062.275.062.412 0 10.595-4.795 14.799-15.934 15.836-19.233.346-1.106 1.262-1.907 2.389-2.088 1.105-.178 2.216.284 2.881 1.21.098.136.192.273.283.411 3.001-5.755 3.844-11.62 4.046-13.505.111-1.041.725-1.941 1.641-2.408.895-.455 1.946-.429 2.816.071.348.199.68.416.996.644-.151-4.053-.985-7.182-1.307-8.252 0-.001-.001-.003-.001-.004-.244-.817-.141-1.708.282-2.444.41-.713 1.098-1.232 1.887-1.424 2.094-.509 3.95-.554 5.46-.409-1.277-6.235-2.996-10.328-4.383-12.848-3.799 2.79-6.383 6.191-7.698 10.139-1.237 3.709-3.204 7.017-5.688 9.565-.062.063-.126.123-.192.178-.583.59-1.085 1.057-1.522 1.422-1.516 8.975-8.994 15.613-17.81 15.613s-16.294-6.639-17.81-15.613c-.437-.365-.938-.832-1.522-1.422-.066-.055-.131-.115-.192-.178-2.484-2.548-4.451-5.856-5.688-9.565-1.336-4.008-3.98-7.452-7.874-10.266-1.406 2.522-3.156 6.646-4.453 12.975 1.512-.144 3.369-.1 5.463.409.789.192 1.476.711 1.886 1.426.422.737.524 1.628.279 2.445-.321 1.071-1.154 4.204-1.307 8.253.317-.229.649-.445.998-.645.869-.499 1.921-.525 2.815-.069.916.467 1.53 1.367 1.641 2.408.202 1.885 1.043 7.749 4.045 13.505.091-.138.186-.275.284-.412.573-.795 1.466-1.248 2.41-1.248zm36.005-16.991.002.002c.008-.007.017-.014.025-.02-.009.006-.018.012-.027.018z"/><path d="m114.353 167.284c-9.168 0-16.891-7.18-17.963-16.702-.112-.992.378-1.956 1.245-2.451.867-.496 1.946-.427 2.743.174 3.267 2.46 6.951 3.401 9.466 3.758.358.05.701.178 1.004.374 1.221.788 2.433 1.204 3.504 1.204s2.283-.416 3.504-1.204c.304-.196.646-.324 1.004-.374 2.515-.356 6.2-1.298 9.466-3.758.799-.601 1.878-.667 2.743-.174.867.495 1.356 1.459 1.245 2.451-1.071 9.522-8.793 16.702-17.961 16.702zm-11.268-11.835c2.294 4.119 6.514 6.835 11.267 6.835s8.973-2.716 11.267-6.835c-1.744.675-3.6 1.175-5.529 1.485-1.888 1.119-3.861 1.707-5.738 1.707s-3.85-.588-5.738-1.707c-1.929-.31-3.784-.81-5.529-1.485z"/><path d="m114.353 158.641c-1.869 0-3.836-.585-5.719-1.697-5.769-.922-15.449-4.306-19.493-16.438-4.982-14.947-26.619-17.222-26.837-17.243-1.281-.125-2.26-1.202-2.26-2.488v-4.056c-2.952.243-7.966.942-11.98 2.949-.814.408-1.786.34-2.537-.177-.75-.517-1.16-1.401-1.069-2.307.094-.943.833-7.574 3.391-12.85h-5.36c-1.011 0-1.923-.609-2.31-1.543s-.173-2.009.542-2.724c.037-.038 4.342-4.459 10.714-16.142.9-1.651 1.693-4.275 2.611-7.314 1.06-3.509 2.25-7.452 4.058-11.561-1.38-3.44-3.37-7.079-5.922-10.833-15.262-22.445-10.312-42.362-7.475-49.883 1.268-3.36 5.049-5.14 8.436-3.966 26.698 9.26 36.312 27.24 39.764 38.52 10.213-1.825 18.299-.725 21.086-.345.133.018.253.035.36.049.107-.014.227-.031.36-.049 2.787-.379 10.873-1.479 21.086.345 3.452-11.28 13.067-29.261 39.765-38.52 3.386-1.174 7.168.605 8.435 3.966 2.837 7.521 7.787 27.436-7.475 49.881-2.553 3.753-4.542 7.393-5.922 10.833 1.807 4.108 2.997 8.05 4.057 11.559.918 3.04 1.711 5.666 2.611 7.317 6.373 11.683 10.678 16.104 10.721 16.147.708.717.919 1.793.53 2.724-.389.93-1.296 1.539-2.304 1.539h-5.36c2.559 5.276 3.297 11.907 3.391 12.85.091.906-.318 1.79-1.068 2.307s-1.722.585-2.537.177c-4.029-2.015-9.034-2.711-11.98-2.952v4.058c0 1.289-.979 2.367-2.263 2.489-.216.021-21.852 2.295-26.833 17.243-4.045 12.133-13.726 15.517-19.494 16.438-1.885 1.112-3.851 1.697-5.72 1.697zm-49.31-40.042c6.32 1.058 23.833 5.304 28.84 20.326 3.152 9.455 10.426 12.369 15.974 13.147.358.05.701.177 1.004.373 1.217.783 2.424 1.196 3.491 1.196s2.273-.414 3.491-1.196c.304-.195.646-.322 1.004-.373 5.547-.779 12.821-3.692 15.974-13.147 5.008-15.022 22.52-19.269 28.84-20.326v-4.509c0-1.381 1.119-2.5 2.5-2.5.313 0 6.359.027 12.429 1.909-.741-3.485-2.075-7.805-4.168-9.897-.715-.715-.929-1.79-.542-2.724.387-.935 1.299-1.543 2.31-1.543h4.787c-2.01-2.75-4.794-6.961-8.096-13.015-1.148-2.105-2.011-4.96-3.01-8.266-1.096-3.629-2.338-7.742-4.249-11.884-.278-.605-.305-1.296-.072-1.92 1.525-4.092 3.826-8.413 6.839-12.844 13.944-20.507 9.492-38.515 6.932-45.306-.32-.85-1.272-1.301-2.118-1.007-26.372 9.145-34.629 27.306-37.203 37.318-.335 1.301-1.646 2.104-2.95 1.821-10.432-2.262-18.885-1.112-21.663-.734-.314.042-.566.077-.751.098-.188.021-.378.021-.566 0-.186-.021-.437-.055-.751-.098-2.778-.378-11.229-1.528-21.662.734-1.314.286-2.616-.52-2.951-1.821-2.576-10.012-10.831-28.173-37.203-37.319-.845-.291-1.797.158-2.118 1.007-2.561 6.791-7.013 24.799 6.932 45.306 3.013 4.431 5.314 8.752 6.839 12.844.232.625.207 1.315-.073 1.92-1.912 4.143-3.154 8.256-4.25 11.886-.998 3.305-1.86 6.159-3.008 8.264-3.303 6.054-6.087 10.266-8.097 13.015h4.788c1.011 0 1.923.609 2.31 1.543s.173 2.009-.542 2.724c-2.1 2.1-3.434 6.417-4.172 9.898 6.07-1.884 12.119-1.91 12.432-1.91 1.381 0 2.5 1.119 2.5 2.5v4.51z"/><path d="m167.154 213.546c-1.112 0-2.229-.02-3.354-.058-.772-.026-1.489-.408-1.941-1.035-.453-.626-.59-1.427-.372-2.168 5.368-18.276 3.217-23.959 1.456-25.72-1.126-1.125-2.28-1.757-3.528-1.932-1.212-.17-2.123-1.192-2.152-2.416-.038-1.546-.117-3.155-.243-4.919-.048-.666.173-1.323.612-1.825 10.435-11.922 14.482-27.249 12.029-45.555-.577-4.314-.913-8.694-1.027-13.39-.018-.729.284-1.43.826-1.918.541-.488 1.273-.713 1.993-.622 2.601.336 4.987.841 7.137 1.507-.74-3.484-2.075-7.802-4.167-9.894-.715-.715-.929-1.79-.542-2.724.387-.935 1.299-1.543 2.31-1.543h4.787c-2.01-2.75-4.794-6.961-8.096-13.015-.197-.361-.387-.754-.571-1.164l-.301-.712c-.2-.482-.244-1.015-.126-1.523 9.26-39.839 37.291-73.046 69.753-82.631 2.446-.721 4.988-.082 6.81 1.71 1.828 1.797 2.538 4.447 1.854 6.917-2.686 9.696-5.88 31.994 2.904 72.404 7.943 36.546-.942 76.96-22.639 102.962-16.011 19.188-37.882 29.263-63.412 29.264zm-4.959-35.34c1.534.564 2.968 1.509 4.282 2.824 4.276 4.276 4.508 13.293.692 27.516 23.999-.009 44.535-9.464 59.557-27.467 20.426-24.479 29.103-64.142 21.591-98.696-9.012-41.46-5.645-64.662-2.836-74.801.202-.731 0-1.485-.541-2.018-.245-.24-.922-.768-1.889-.48-30.576 9.028-57.063 40.389-66.111 78.175.109.239.218.46.33.667 6.371 11.682 10.677 16.103 10.72 16.146.708.717.919 1.793.53 2.724-.389.93-1.296 1.539-2.304 1.539h-5.36c2.559 5.276 3.297 11.907 3.391 12.85.091.907-.318 1.791-1.068 2.308s-1.722.585-2.537.177c-1.892-.946-4.242-1.707-6.903-2.242.16 3.392.449 6.631.877 9.828 2.601 19.399-1.618 35.784-12.54 48.718.048.766.088 1.507.119 2.232z"/><path d="m114.353 158.641c-6.748 0-13.346-7.608-13.346-13.288 0-7.312 9.014-7.312 13.346-7.312s13.346 0 13.346 7.312c0 5.68-6.599 13.288-13.346 13.288zm0-15.6c-5.928 0-8.346.67-8.346 2.312 0 3.197 4.557 8.288 8.346 8.288s8.346-5.09 8.346-8.288c0-1.642-2.418-2.312-8.346-2.312z"/><path d="m132.086 150.826c-.513 0-1.028-.157-1.47-.479-1.004-.73-1.32-2.087-.742-3.186 2.419-4.596 2.98-9.887 1.581-14.898l-6.078-21.782c-2.214-7.935-2.221-16.077-.021-23.544 2.404-8.158 6.846-13.954 13.199-17.229 8.218-4.233 19.366-3.969 33.138.786.739.255 1.316.843 1.56 1.586.514 1.572.971 3.085 1.4 4.508.92 3.048 1.714 5.68 2.616 7.334 6.373 11.683 10.678 16.104 10.721 16.147.708.717.919 1.793.53 2.724-.389.93-1.296 1.539-2.304 1.539h-5.36c2.559 5.276 3.297 11.907 3.391 12.85.091.906-.318 1.79-1.068 2.307s-1.722.585-2.537.177c-4.014-2.007-9.028-2.706-11.98-2.949v4.056c0 1.289-.979 2.367-2.263 2.489-.216.021-21.852 2.295-26.833 17.243-1.257 3.768-3.171 6.986-5.689 9.567-.487.498-1.137.754-1.791.754zm20.006-79.116c-4.326 0-8.082.814-11.245 2.444-5.093 2.625-8.691 7.401-10.694 14.197-1.936 6.567-1.921 13.755.041 20.787l6.078 21.781c.306 1.096.536 2.203.692 3.313 6.68-11.25 21.091-14.697 26.697-15.635v-4.509c0-1.381 1.119-2.5 2.5-2.5.313 0 6.359.027 12.429 1.909-.741-3.485-2.075-7.805-4.168-9.897-.715-.715-.929-1.79-.542-2.724.387-.935 1.299-1.543 2.31-1.543h4.787c-2.01-2.75-4.794-6.961-8.096-13.015-1.15-2.109-2.015-4.971-3.015-8.285-.31-1.026-.634-2.1-.984-3.21-6.297-2.074-11.906-3.113-16.79-3.113z"/><path d="m96.619 150.826c-.654 0-1.304-.256-1.79-.753-2.519-2.581-4.433-5.8-5.688-9.567-4.982-14.947-26.619-17.222-26.837-17.243-1.281-.125-2.26-1.202-2.26-2.488v-4.056c-2.952.243-7.966.942-11.98 2.949-.814.408-1.786.34-2.537-.177-.75-.517-1.16-1.401-1.069-2.307.094-.943.833-7.574 3.391-12.85h-5.36c-1.011 0-1.923-.609-2.31-1.543s-.173-2.009.542-2.724c.037-.038 4.342-4.459 10.714-16.142.902-1.654 1.696-4.285 2.615-7.331.43-1.424.887-2.939 1.402-4.512.243-.744.82-1.331 1.56-1.586 13.771-4.755 24.919-5.019 33.136-.786 6.354 3.275 10.795 9.071 13.2 17.228 2.201 7.467 2.194 15.609-.021 23.545l-6.079 21.781c-1.398 5.011-.837 10.302 1.581 14.898.578 1.099.262 2.456-.742 3.186-.44.321-.955.478-1.468.478zm-31.576-32.227c5.606.938 20.018 4.384 26.697 15.634.156-1.111.387-2.217.692-3.313l6.079-21.781c1.963-7.032 1.977-14.22.041-20.787-2.003-6.796-5.602-11.573-10.694-14.197-6.734-3.47-16.16-3.245-28.035.669-.351 1.111-.676 2.188-.986 3.214-1 3.312-1.863 6.172-3.012 8.28-3.303 6.054-6.087 10.266-8.097 13.015h4.788c1.011 0 1.923.609 2.31 1.543s.173 2.009-.542 2.724c-2.093 2.093-3.428 6.413-4.168 9.897 6.069-1.882 12.115-1.909 12.428-1.909 1.381 0 2.5 1.119 2.5 2.5v4.511zm-11.413-33.478h.01z"/><path d="m216.462 81.851c-.045 0-.09-.001-.134-.002-1.325-.049-2.497-.826-3.058-2.027-1.763-3.774-2.706-7.643-3.618-11.384-.172-.702-.345-1.414-.525-2.129-1.04 1.352-2.138 2.691-3.213 4.002-2.141 2.611-4.354 5.311-5.902 7.881-.537.889-1.566 1.354-2.587 1.17-1.021-.185-1.822-.981-2.013-2.001-.24-1.29-.497-2.584-.756-3.882-.781-3.933-1.584-7.972-1.956-12.057-3.848 3.338-8.009 6.73-12.765 9.727-.904.568-2.07.501-2.901-.168-.832-.67-1.146-1.795-.782-2.799 12.168-33.562 37.222-59.576 65.384-67.891 2.446-.721 4.988-.082 6.81 1.71 1.828 1.797 2.538 4.447 1.854 6.917-2.366 8.539-4.482 24.062-1.131 49.526.066.501-.021 1.01-.25 1.46-3.075 6.042-5.066 12.747-5.464 18.395-.108 1.545-1.192 2.821-2.698 3.176-1.509.355-3.054-.303-3.844-1.641-3.148-5.327-5.391-9.554-7.866-14.87-1.332 2.203-2.729 4.33-4.091 6.403-1.837 2.798-3.737 5.691-5.409 8.674-.631 1.125-1.804 1.81-3.085 1.81zm-6.719-22.431c.19 0 .383.015.576.046 1.359.221 2.441 1.182 2.824 2.508.516 1.791.948 3.564 1.366 5.279.655 2.687 1.283 5.264 2.185 7.758 1.33-2.198 2.723-4.319 4.082-6.39 1.746-2.658 3.551-5.407 5.156-8.227.699-1.226 2.021-1.937 3.419-1.881 1.418.066 2.663.91 3.248 2.203 2.181 4.814 4.073 8.594 6.427 12.779.88-4.944 2.628-10.177 5.086-15.163-3.318-25.849-1.097-41.853 1.369-50.751.202-.731 0-1.485-.541-2.018-.245-.24-.922-.768-1.889-.48-24.465 7.224-46.514 28.721-58.974 57.005 2.624-2.06 5.099-4.212 7.578-6.402 1.036-.916 2.468-1.143 3.735-.595 1.261.544 2.071 1.736 2.115 3.108.129 4.107.881 8.336 1.691 12.474.93-1.191 1.896-2.371 2.85-3.533 1.677-2.045 3.41-4.159 4.81-6.193.669-.971 1.74-1.527 2.887-1.527zm38.148-51.171h.01z"/></svg>