<svg enable-background="new 0 0 256 256" height="512" viewBox="0 0 256 256" width="512" xmlns="http://www.w3.org/2000/svg"><path d="m157.822 135.145c-1.776 5.634-5.238 10.108-10.197 12.385-3.631 1.667-7.632 1.96-11.646 1.086-1.143 6.259-3.399 25.249 7.804 39.253 12.196 15.245 43.534 19.551 53.953 31.723 1.258 1.469 3.63.928 4.023-.965 3.676-17.696 10.444-72.613-43.937-83.482z" fill="#fd605b"/><path d="m91.208 94.992c-1.553-3.069-4.425-3.145-6.545-2.678-1.522.335-2.603 1.664-2.736 3.217-.478 5.563-2.548 11.02-3.869 14.03-.422.962.54 1.933 1.522 1.558 8.911-3.402 11.3-11.034 11.896-13.909.154-.748.077-1.537-.268-2.218z" fill="#f98080"/><path d="m134.152 73.989c0 20.62-25.843 25.923-43.939 27.11.701-1.583 1.074-2.977 1.263-3.889.155-.748.077-1.537-.267-2.218-1.553-3.069-4.425-3.145-6.545-2.678-1.522.335-2.603 1.664-2.736 3.217-.173 2.01-.557 4.001-1.034 5.873-4.878-.042-10.304-3.121-10.478-8.004-.852-23.943 3.272-41.3 17.163-48.297.828-.153 5.951-2.628 13.501-2.868 8.439-.269 16.757 2.639 23.031 8.289 4.957 4.464 10.041 11.802 10.041 23.465z" fill="#fd605b"/><path d="m99.496 42.322c.516-.039 1.042-.07 1.584-.087 1.112-.035 2.222-.012 3.326.062-.723-11.581-4.819-25.889-17.766-38.732-1.357-1.346-3.582-1.315-5.295-.466-3.147 1.56-3.828 5.771-1.304 8.214 5.939 5.745 15.074 16.449 19.455 31.009z" fill="#f98080"/><path d="m87.579 45.103c.301-.056 1.178-.42 2.528-.871-5.91-9.653-15.793-19.899-32.283-25.38-1.814-.603-3.793.413-4.951 1.935-2.126 2.796-.865 6.871 2.482 7.938 7.535 2.401 19.715 7.568 29.861 17.737.757-.488 1.54-.945 2.363-1.359z" fill="#f98080"/><path d="m155.262 108.49c-5.699-12.413-16.113-20.473-25.915-21.167-4.092 4.815-10.393 8.02-17.337 10.131-4.06 7.978-3.989 19.485 1.03 30.419 7.441 16.209 22.925 25.01 34.584 19.658 11.66-5.354 15.08-22.832 7.638-39.041z" fill="#fd605b"/><g fill="#f98080"><path d="m139.379 180.826c31.112-2.384 41.669-23.701 44.955-33.955-3.226-2.603-6.944-4.926-11.223-6.883-4.638 10.198-15.037 24.261-37.57 27.778.601 4.255 1.768 8.744 3.838 13.06z"/><path d="m193.357 156.475c-1.439 6.579-9.354 33.49-42.837 37.639 5.599 4.051 12.597 7.235 19.593 10.211 20.438-6.456 28.308-22.484 31.132-31.122-1.677-5.831-4.205-11.535-7.888-16.728z"/><path d="m187.032 211.857c4.415 2.295 8.178 4.782 10.705 7.734 1.258 1.469 3.63.928 4.023-.965.996-4.796 2.217-12.329 2.388-20.975-3.852 5.243-9.353 10.458-17.116 14.206z"/></g><path d="m199.527 222.933c-1.397 0-2.741-.608-3.689-1.716-4.486-5.24-13.625-9.084-23.3-13.154-11.708-4.925-23.814-10.018-30.707-18.633-11.643-14.553-9.69-33.705-8.311-41.264.121-.666.509-1.255 1.072-1.631.564-.377 1.255-.509 1.919-.362 3.637.79 7.024.483 10.069-.915 4.155-1.907 7.218-5.664 8.856-10.864.384-1.219 1.624-1.951 2.875-1.7 17.092 3.416 29.891 11.396 38.041 23.718 14.343 21.685 10.271 51.087 7.854 62.723-.373 1.794-1.702 3.191-3.468 3.645-.401.103-.807.153-1.211.153zm-61.468-71.456c-.978 7.252-1.719 23.085 7.677 34.83 6.099 7.622 17.609 12.465 28.741 17.147 10.084 4.241 19.618 8.252 24.923 14.239 2.297-11.296 5.923-38.66-7.216-58.523-7.057-10.668-18.067-17.768-32.752-21.124-2.218 5.431-5.98 9.561-10.764 11.756-3.244 1.49-6.867 2.055-10.609 1.675z"/><path d="m93.163 71.748c-1.377 0-2.496-1.114-2.5-2.492-.009-2.867 1.099-5.566 3.12-7.601 2.021-2.034 4.713-3.16 7.581-3.169h.036c2.854 0 5.54 1.107 7.566 3.12 2.034 2.021 3.159 4.713 3.168 7.581.004 1.381-1.111 2.503-2.492 2.508-.002 0-.005 0-.008 0-1.377 0-2.496-1.114-2.5-2.492-.005-1.532-.606-2.971-1.693-4.05-1.082-1.075-2.517-1.667-4.042-1.667-.006 0-.012 0-.019 0-1.532.005-2.97.606-4.049 1.693-1.08 1.086-1.672 2.528-1.667 4.061.004 1.381-1.111 2.503-2.492 2.508-.004 0-.006 0-.009 0z"/><path d="m78.062 146.176c-.7 0-1.369-.294-1.843-.811l-12.464-13.597c-.933-1.018-.864-2.6.153-3.532 1.018-.934 2.6-.865 3.532.153l11.705 12.768 31.851-.521 12.379-27.448c.567-1.26 2.049-1.819 3.307-1.252 1.259.568 1.819 2.049 1.251 3.307l-13.031 28.895c-.398.883-1.27 1.456-2.238 1.473l-34.561.566c-.014-.001-.027-.001-.041-.001z"/><path d="m84.861 167.705c-.329 0-.656-.064-.961-.192l-13.597-5.665c-1.274-.531-1.877-1.994-1.346-3.27.531-1.274 1.993-1.875 3.269-1.346l12.934 5.389 38.467-6.411 8.667-34.67c.335-1.341 1.689-2.151 3.032-1.819 1.34.335 2.153 1.692 1.819 3.032l-9.066 36.26c-.241.966-1.033 1.696-2.014 1.859l-40.792 6.799c-.138.022-.275.034-.412.034z"/><path d="m160.952 256h-15.469c-1.381 0-2.5-1.119-2.5-2.5s1.119-2.5 2.5-2.5h11.602l-19.547-43.409c-.434-.963-.216-2.096.546-2.828l26.405-25.406c.995-.956 2.577-.926 3.535.068.957.995.927 2.577-.068 3.535l-25.136 24.185 20.411 45.329c.349.773.281 1.671-.18 2.384-.46.711-1.25 1.142-2.099 1.142z"/><path d="m130.357 256h-15.469c-1.381 0-2.5-1.119-2.5-2.5s1.119-2.5 2.5-2.5h12.319l-10.221-43.868c-.19-.814.04-1.67.612-2.279l35.126-37.394c.945-1.007 2.528-1.056 3.534-.11s1.056 2.527.11 3.534l-34.21 36.418 10.632 45.632c.173.743-.002 1.524-.477 2.122-.472.596-1.193.945-1.956.945z"/><path d="m79.145 113.7c-.995 0-1.965-.401-2.677-1.15-1.02-1.071-1.294-2.64-.699-3.994 1.175-2.675 3.213-7.951 3.667-13.239.231-2.69 2.116-4.878 4.69-5.444 4.17-.916 7.564.537 9.312 3.991.587 1.16.759 2.528.485 3.854-.717 3.462-3.464 11.925-13.452 15.738-.432.164-.882.244-1.326.244zm7.353-19.101c-.372 0-.801.047-1.297.156-.419.093-.741.499-.783.989-.366 4.265-1.61 8.455-2.766 11.586 5.287-3.256 6.904-8.352 7.375-10.627.045-.218.027-.43-.05-.581v-.001c-.267-.527-.77-1.522-2.479-1.522z"/><path d="m80.893 103.903c-.007 0-.014 0-.021 0-6.054-.052-12.729-4.049-12.955-10.416-.983-27.668 4.907-43.752 18.539-50.617.186-.094.383-.164.587-.209.146-.044.364-.127.65-.23 2.046-.745 6.839-2.489 13.309-2.695 9.265-.292 18.062 2.877 24.784 8.931 7.109 6.403 10.867 15.16 10.867 25.323 0 17.134-16.434 27.647-46.275 29.604-.873.041-1.713-.347-2.213-1.063-.501-.718-.59-1.645-.236-2.444.621-1.4.941-2.612 1.101-3.383.045-.218.027-.43-.05-.581-.326-.644-1.002-1.983-3.776-1.367-.419.093-.741.499-.783.989-.168 1.957-.539 4.068-1.103 6.277-.285 1.107-1.283 1.881-2.425 1.881zm7.587-56.454c-11.519 5.957-16.467 20.541-15.566 45.861.097 2.733 2.926 4.748 6.033 5.383.234-1.179.398-2.309.49-3.376.231-2.69 2.116-4.878 4.69-5.444 4.17-.916 7.564.537 9.312 3.991.586 1.159.759 2.527.485 3.854-.038.18-.082.378-.133.593 31.173-2.882 37.86-14.709 37.86-24.32 0-8.832-3.1-16.102-9.213-21.608-5.674-5.11-13.433-7.911-21.278-7.647-5.67.18-9.937 1.732-11.758 2.396-.392.139-.676.243-.922.317zm-1.353-4.805c-.017.003-.036.007-.056.012.018-.005.037-.009.056-.012z"/><path d="m99.495 44.822c-1.095 0-2.073-.717-2.393-1.779-4.338-14.417-13.641-24.942-18.799-29.934-1.762-1.706-2.588-4.173-2.209-6.6.38-2.442 1.929-4.555 4.142-5.651 2.881-1.428 6.162-1.055 8.165.931 11.304 11.214 17.528 24.79 18.5 40.352.045.719-.222 1.421-.731 1.928-.51.508-1.222.771-1.931.723-1.044-.069-2.081-.089-3.08-.058-.503.016-.993.045-1.474.082-.063.004-.127.006-.19.006zm-15.659-39.82c-.436 0-.928.112-1.38.336-.771.383-1.29 1.09-1.422 1.941-.13.836.142 1.651.746 2.237 5.283 5.111 14.643 15.677 19.514 30.211.128-.003.256-.005.385-.007-1.417-13.164-7.06-24.72-16.799-34.382-.227-.224-.607-.336-1.044-.336z"/><path d="m85.218 48.961c-.647 0-1.288-.25-1.771-.734-10.09-10.112-22.407-15.067-28.851-17.121-2.335-.744-4.171-2.587-4.912-4.929-.745-2.356-.296-4.938 1.2-6.904 1.948-2.561 5.054-3.68 7.729-2.793 14.524 4.828 25.838 13.726 33.626 26.446.397.65.478 1.445.217 2.162-.261.716-.834 1.273-1.557 1.515-.597.199-1.098.382-1.493.524-.394.144-.68.247-.926.322-.627.325-1.255.691-1.912 1.114-.413.267-.883.398-1.35.398zm-28.487-27.783c-.589 0-1.35.442-1.867 1.122-.521.685-.671 1.549-.412 2.37.255.807.861 1.416 1.662 1.672 8.022 2.557 19.487 7.558 29.469 16.988.238-.132.476-.259.715-.381-7.067-10.314-16.897-17.615-29.262-21.726-.094-.031-.197-.045-.305-.045z"/><path d="m140.403 151.576c-11.171 0-23.257-8.771-29.634-22.661-5.142-11.199-5.52-23.689-.986-32.596.309-.606.851-1.061 1.501-1.258 7.342-2.231 12.778-5.38 16.159-9.358.515-.604 1.283-.926 2.082-.875 11.067.784 22.062 9.662 28.011 22.618 3.815 8.312 5.067 17.23 3.524 25.114-1.601 8.185-6.002 14.308-12.392 17.241-2.621 1.204-5.414 1.775-8.265 1.775zm-26.608-52.062c-3.374 7.517-2.82 17.866 1.518 27.315 6.854 14.931 20.881 23.199 31.269 18.428 4.888-2.243 8.287-7.093 9.571-13.656 1.343-6.863.22-14.701-3.163-22.068-4.896-10.665-13.871-18.38-22.635-19.592-3.831 4.043-9.392 7.259-16.56 9.573z"/><path d="m139.378 183.326c-.955 0-1.835-.547-2.253-1.419-1.985-4.14-3.352-8.78-4.059-13.792-.19-1.354.74-2.609 2.09-2.819 21.084-3.291 31.04-16.142 35.68-26.343.274-.604.778-1.074 1.4-1.307.621-.232 1.311-.207 1.915.068 4.312 1.972 8.267 4.398 11.753 7.21.805.649 1.127 1.726.812 2.709-3.169 9.887-14.107 33.153-47.146 35.686-.064.005-.129.007-.192.007zm-.964-13.527c.574 2.98 1.415 5.785 2.513 8.379 26.255-2.688 36.531-19.449 40.469-30.424-2.195-1.64-4.58-3.12-7.122-4.425-5.348 10.451-15.767 22.534-35.86 26.47z"/><path d="m170.113 206.824c-.334 0-.667-.066-.979-.199-6.562-2.792-14.065-6.135-20.08-10.486-.832-.603-1.211-1.652-.955-2.647.255-.995 1.094-1.732 2.113-1.859 31.372-3.888 39.085-28.302 40.702-35.691.212-.967.974-1.719 1.944-1.916.97-.195 1.964.196 2.537 1.004 3.597 5.071 6.372 10.953 8.251 17.482.139.481.13.992-.026 1.469-3.048 9.321-11.356 25.97-32.755 32.729-.244.076-.498.114-.752.114zm-12.817-11.364c4.173 2.36 8.723 4.395 12.936 6.196 18.09-6.078 25.501-20.113 28.393-28.503-1.149-3.814-2.632-7.372-4.428-10.635-3.451 9.711-12.909 27.424-36.901 32.942z"/><path d="m199.527 222.933c-1.397 0-2.741-.608-3.689-1.716-2.067-2.415-5.231-4.684-9.959-7.142-.839-.436-1.36-1.309-1.347-2.255.015-.945.561-1.803 1.413-2.214 6.498-3.139 11.944-7.659 16.188-13.437.646-.878 1.789-1.235 2.817-.888 1.032.351 1.719 1.328 1.696 2.418-.176 8.851-1.424 16.54-2.439 21.434-.373 1.794-1.702 3.191-3.468 3.645-.402.105-.808.155-1.212.155zm-7.326-11.033c3.076 1.893 5.416 3.78 7.198 5.793.662-3.256 1.408-7.701 1.858-12.857-2.718 2.706-5.743 5.065-9.056 7.064z"/></svg>