<svg enable-background="new 0 0 256 256" height="512" viewBox="0 0 256 256" width="512" xmlns="http://www.w3.org/2000/svg"><path d="m134.077 137.596c-20.787 0-29.661-5.451-34.389-12.559.953-6.427.628-12.916-1.3-15.447-1.489-1.956-3.317-1.832-5.198-.608-1.604-4.451-3.653-8.557-7.728-11.545-9.212-6.756-18.063-1.024-23.863 4.965-5.78 5.968-15.665-1.61-11.279-8.551 2.161-3.42 4.895-7.039 8.259-10.286-49.04 15.452-56.079 56.673-56.079 56.673l11.097 5.813-6.341 6.341s34.876 28.535 95.116 28.535c41.272 0 71.131-20.833 85.845-33.955-11.373-6.481-27.939-9.376-54.14-9.376z" fill="#46baf9"/><path d="m98.388 109.59c-5.634-7.398-16.097 14.796-16.097 14.796v8.455c13.683 25.363 21.731-15.853 16.097-23.251z" fill="#f9bd55"/><path d="m222.933 130.649c-5.015-2.7-5.598-9.664-1.102-13.161l28.498-22.165c-17.966 11.625-53.899 20.08-53.899 20.08-44.387-38.046-91.417-37.518-91.417-37.518-18.613-.538-33.895 1.729-46.433 5.679-3.365 3.247-6.098 6.866-8.26 10.286-4.386 6.941 5.498 14.519 11.279 8.551 5.8-5.989 14.651-11.721 23.863-4.965 4.075 2.988 6.123 7.094 7.728 11.545 1.882-1.224 3.709-1.347 5.198.608 1.927 2.531 2.253 9.02 1.3 15.447 4.728 7.108 13.602 12.559 34.389 12.559 26.201 0 42.767 2.895 54.139 9.376 6.762-6.03 10.328-10.433 10.328-10.433 23.251 0 54.956 10.568 54.956 10.568z" fill="#52565b"/><path d="m221.831 117.488c-4.496 3.497-3.912 10.461 1.102 13.161l30.567 16.459c-9.512-25.364-3.171-51.785-3.171-51.785z" fill="#f9bd55"/><path d="m117.679 94.866c-7.534-.72-12.75 7.534-8.742 13.953 4.113 6.588 12.027 12.925 27.253 12.925 28.917-.001 23.548-22.857-18.511-26.878z" fill="#46baf9"/><path d="m72.851 178.551c8.66 10.298 31.143 34.898 22.928 2.249-8.156-.285-15.803-1.087-22.928-2.249z" fill="#f9bd55"/><path d="m188.216 146.972c-14.714 13.121-44.573 33.955-85.845 33.955 0 0 60.983 32.585 93.806-41.714-1.734 1.867-4.399 4.583-7.961 7.759z" fill="#46baf9"/><path d="m58.579 83.564c12.539-3.951 27.821-6.218 46.434-5.68 0 0 45.087-.501 88.635 35.193-20.543-48.229-83.187-56.706-111.356-53.687-19.275 2.065-27.336 16.681-30.616 26.625 2.204-.873 4.501-1.694 6.903-2.451z" fill="#46baf9"/><path d="m32.854 126.471c-1.377 0-2.496-1.114-2.5-2.492-.019-5.753 4.647-10.448 10.4-10.468h.033c5.739 0 10.416 4.658 10.435 10.4.004 1.381-1.111 2.503-2.492 2.508-.003 0-.006 0-.008 0-1.377 0-2.496-1.114-2.5-2.492-.01-2.99-2.446-5.416-5.435-5.416-.006 0-.011 0-.017 0-2.996.01-5.426 2.456-5.416 5.452.004 1.381-1.111 2.503-2.492 2.508-.003 0-.006 0-.008 0z"/><path d="m56.92 161.509c-.596 0-1.195-.212-1.673-.643-1.025-.925-1.107-2.506-.183-3.531 6.064-6.729 9.403-15.428 9.403-24.495 0-4.941-.967-9.735-2.875-14.247-.538-1.271.057-2.738 1.329-3.276 1.272-.535 2.739.058 3.276 1.329 2.17 5.131 3.27 10.58 3.27 16.194 0 10.306-3.796 20.194-10.689 27.843-.494.547-1.174.826-1.858.826z"/><path d="m67.389 164.053c-.46 0-.926-.127-1.343-.393-1.164-.743-1.505-2.289-.762-3.453 2.004-3.138 3.512-6.544 4.484-10.123.362-1.332 1.737-2.12 3.067-1.758 1.333.362 2.12 1.735 1.758 3.068-1.104 4.067-2.818 7.938-5.095 11.504-.476.748-1.284 1.155-2.109 1.155z"/><path d="m90.75 143.496c-3.734.001-7.222-3.1-10.658-9.47-.197-.364-.3-.772-.3-1.187v-8.454c0-.368.082-.732.239-1.066 1.875-3.978 8.507-17.013 15.097-17.708 2.019-.205 3.878.663 5.25 2.464 3.894 5.112 2.487 20.468-1.444 28.64-2.651 5.512-5.829 6.729-8.027 6.78-.053.001-.105.001-.157.001zm-5.958-11.297c3.283 5.882 5.386 6.273 5.999 6.297 1.1-.025 2.459-1.502 3.637-3.949 3.559-7.396 4.224-20.485 1.972-23.442-.423-.556-.644-.532-.747-.521-2.513.265-7.569 7.546-10.861 14.367z"/><path d="m253.5 149.607c-.263 0-.529-.041-.791-.128-.308-.103-30.55-10.094-53.016-10.432-1.421 1.633-4.728 5.254-9.813 9.79-.801.714-1.97.838-2.902.306-10.981-6.258-27.297-9.048-52.902-9.048-18.676 0-30.264-4.345-36.47-13.674-.343-.516-.482-1.14-.392-1.751 1.007-6.794.332-12.061-.815-13.566-.403-.529-.625-.82-1.847-.027-.64.415-1.436.517-2.159.274-.724-.243-1.296-.804-1.556-1.522-1.361-3.777-3.134-7.648-6.854-10.378-6.226-4.563-13.153-2.987-20.588 4.688-4.101 4.232-9.558 3.339-12.891.716-3.971-3.123-4.916-8.198-2.297-12.342 2.595-4.106 5.501-7.724 8.637-10.749.278-.269.616-.47.984-.586 13.798-4.348 29.681-6.302 47.209-5.794 2.601-.054 48.087.186 92.04 37.286 6.4-1.592 36.337-9.382 51.894-19.447 1.123-.728 2.62-.44 3.396.65.775 1.092.553 2.6-.503 3.422l-28.499 22.165c-1.463 1.138-2.213 2.851-2.059 4.697s1.179 3.41 2.811 4.289l30.567 16.459c1.143.615 1.625 2.002 1.11 3.192-.404.94-1.321 1.51-2.294 1.51zm-151.202-25.198c6.932 9.45 20.573 10.687 31.778 10.687 25.344 0 42.066 2.733 53.778 8.833 5.669-5.195 8.715-8.925 8.747-8.964.475-.585 1.189-.926 1.942-.926 10.99 0 23.673 2.266 34.166 4.713l-10.961-5.902c-3.102-1.67-5.129-4.764-5.423-8.273-.294-3.512 1.19-6.898 3.971-9.062l10.205-7.937c-16.106 6.128-32.493 10.022-33.497 10.259-.777.182-1.594-.015-2.2-.535-43.095-36.938-89.323-36.945-89.764-36.916-16.848-.487-31.996 1.327-45.142 5.387-2.69 2.665-5.199 5.829-7.464 9.414-1.504 2.38-.314 4.579 1.162 5.74 1.559 1.226 4.12 1.893 6.208-.265 9.183-9.48 18.82-11.343 27.137-5.241 3.926 2.88 6.137 6.655 7.661 10.285 2.203-.435 4.251.367 5.776 2.37 2.54 3.336 2.674 10.441 1.92 16.333z"/><path d="m253.5 149.607c-.405 0-.812-.099-1.185-.299l-30.567-16.459c-3.102-1.67-5.129-4.764-5.423-8.273-.294-3.512 1.19-6.898 3.971-9.062l28.499-22.165c.838-.652 1.995-.701 2.888-.128.893.575 1.325 1.651 1.078 2.684-.061.257-6.037 26.013 3.08 50.325.366.976.088 2.076-.696 2.761-.467.406-1.054.616-1.645.616zm-30.134-30.146c-1.463 1.138-2.214 2.851-2.059 4.697s1.179 3.41 2.811 4.289l25.052 13.489c-4.658-16.347-3.613-32.108-2.435-40.651z"/><path d="m102.372 183.427c-60.438 0-95.247-27.912-96.699-29.101-.547-.447-.879-1.104-.914-1.81s.23-1.394.729-1.893l3.936-3.937-8.084-4.234c-.96-.503-1.487-1.567-1.304-2.636.075-.441 1.939-10.953 10.013-23.477 7.421-11.509 21.735-26.952 47.779-35.159 1.106-.351 2.307.11 2.9 1.107s.422 2.271-.413 3.076c-2.848 2.748-5.5 6.052-7.882 9.822-1.504 2.38-.314 4.579 1.162 5.74 1.559 1.226 4.12 1.893 6.208-.265 9.183-9.48 18.82-11.343 27.137-5.241 3.926 2.88 6.137 6.655 7.661 10.285 2.203-.435 4.251.367 5.776 2.37 2.541 3.337 2.675 10.441 1.921 16.334 6.932 9.45 20.573 10.687 31.778 10.687 26.521 0 43.6 2.993 55.377 9.704.699.398 1.164 1.109 1.249 1.909.084.801-.222 1.593-.822 2.129-14.486 12.919-45.117 34.59-87.508 34.59zm-91.297-31.319c8.542 6.006 41.148 26.318 91.296 26.318 38.222 0 66.546-18.381 81.423-30.93-10.892-5.103-26.479-7.401-49.718-7.401-18.676 0-30.264-4.345-36.47-13.674-.343-.516-.482-1.14-.392-1.751 1.007-6.794.332-12.061-.815-13.566-.403-.529-.625-.82-1.847-.027-.64.415-1.436.517-2.159.274-.724-.243-1.296-.804-1.556-1.522-1.361-3.777-3.134-7.648-6.854-10.378-6.226-4.563-13.153-2.987-20.588 4.688-4.101 4.232-9.558 3.339-12.891.716-3.971-3.123-4.916-8.198-2.297-12.342.714-1.13 1.452-2.223 2.211-3.276-18.955 8.084-29.959 20.25-36.041 29.617-5.725 8.819-8.16 16.684-9.018 20.06l9.397 4.922c.705.369 1.191 1.052 1.311 1.838s-.141 1.582-.704 2.145z"/><path d="m136.19 124.243c-17.001 0-25.357-7.668-29.374-14.101-2.345-3.755-2.344-8.442.001-12.234 2.375-3.839 6.634-5.967 11.1-5.531 27.273 2.607 39.272 12.668 38.879 20.912-.253 5.296-5.798 10.954-20.606 10.954zm-19.425-26.922c-2.335 0-4.429 1.171-5.695 3.217-1.357 2.194-1.361 4.795-.012 6.956 4.868 7.796 13.323 11.749 25.133 11.749 7.376 0 15.408-1.938 15.611-6.192.238-4.982-10.519-13.417-34.36-15.697-.228-.022-.454-.033-.677-.033z"/><path d="m94.535 199.728c-3.176 0-9.605-2.929-23.598-19.567-.673-.801-.777-1.936-.26-2.845s1.543-1.396 2.576-1.232c7.391 1.206 14.999 1.952 22.613 2.219 1.113.038 2.065.809 2.337 1.888 2.85 11.325 2.453 16.981-1.328 18.915-.5.254-1.216.622-2.34.622zm-15.387-17.747c9.924 10.985 14.488 12.93 15.473 12.662-.025 0 1.432-1.614-.829-11.422-4.908-.22-9.807-.636-14.644-1.24z"/><path d="m133.124 190.567c-17.739 0-31.174-7.031-31.93-7.436-1.011-.541-1.525-1.7-1.247-2.812.279-1.112 1.278-1.893 2.425-1.893 40.733 0 70.226-20.877 84.181-33.321 3.557-3.171 6.201-5.88 7.793-7.594.831-.895 2.188-1.059 3.207-.387 1.02.671 1.405 1.981.912 3.098-10.89 24.651-26.017 40.463-44.959 46.994-7.091 2.445-14.014 3.351-20.382 3.351zm-18.636-7.736c9.189 2.591 23.086 4.604 37.44-.359 14.072-4.869 25.938-15.41 35.396-31.411-13.768 11.678-38.933 28.422-72.836 31.77z"/><path d="m193.648 115.577c-.563 0-1.125-.189-1.585-.566-42.354-34.716-86.598-34.641-87.022-34.626-.034 0-.067 0-.1-.001-16.99-.489-32.333 1.381-45.61 5.564l-.751-2.385.75 2.386c-2.271.715-4.537 1.52-6.735 2.39-.904.357-1.93.16-2.636-.506s-.963-1.68-.659-2.602c3.17-9.609 11.638-26.068 32.724-28.327 33.434-3.583 93.921 8.234 113.923 55.193.451 1.059.121 2.289-.8 2.979-.444.335-.972.501-1.499.501zm-88.433-40.193c3.666 0 41.488.71 81.045 28.896-12.008-19.259-31.243-29.541-46.271-34.91-21.668-7.742-43.876-8.947-57.431-7.495-14.635 1.568-22.417 10.834-26.548 19.896.605-.203 1.211-.4 1.818-.592l.751 2.385-.751-2.385c13.799-4.347 29.684-6.297 47.211-5.795z"/></svg>