<svg enable-background="new 0 0 256 256" height="512" viewBox="0 0 256 256" width="512" xmlns="http://www.w3.org/2000/svg"><path d="m212 213.814c-26.547 7.324-97.317 17.549-138.936-64.326-2.526-4.97-8.653-6.877-13.521-4.16-4.616 2.576-6.375 8.353-3.934 13.041 13.47 25.878 61.374 98.847 156.833 56.745.775-.342.375-1.525-.442-1.3z" fill="#c16a44"/><path d="m250.952 118.687c-12.784-45.906-60.363-72.757-106.27-59.973-41.558 11.574-70.605 45.963-77.405 85.846 2.416.773 4.541 2.475 5.788 4.928 39.419 77.549 104.983 72.473 134.36 65.497.301-7.911-4.452-11.282-4.452-11.282 36.726-10.227 58.206-48.29 47.979-85.016z" fill="#7d3d1a"/><circle cx="59.583" cy="26.568" fill="#f9bd55" r="13.403"/><circle cx="22.098" cy="24.069" fill="#f9bd55" r="13.403"/><path d="m207.633 217.15c-92.261 37.6-138.782-33.342-152.024-58.781-1.236-2.375-1.391-5.027-.647-7.403-3.47-13.962-2.334-29.295-.248-41.365 2.116-12.247-6.172-23.866-18.422-25.966-11.617-1.991-22.822 5.29-25.677 16.726-9.392 37.613-21.621 116.887 33.947 140.433 0 0 21.866 10.621 51.854-.625s36.235 4.998 67.473 4.998c28.773 0 28.923-10.601 60.016-5.439 3.074.511 5.104-3.13 3.027-5.454-4.063-4.544-10.406-10.757-19.299-17.124z" fill="#7ccc4e"/><path d="m54.68 29.238c-1.377 0-2.495-1.114-2.5-2.492-.007-1.978.758-3.839 2.151-5.241 1.395-1.403 3.251-2.179 5.229-2.186h.024c1.969 0 3.82.764 5.217 2.151 1.403 1.395 2.179 3.251 2.186 5.229.005 1.381-1.111 2.503-2.492 2.508-.002 0-.005 0-.008 0-1.377 0-2.495-1.114-2.5-2.492-.002-.642-.254-1.244-.709-1.697-.454-.45-1.055-.698-1.693-.698-.003 0-.006 0-.009 0-1.325.004-2.399 1.086-2.396 2.411.005 1.381-1.111 2.503-2.492 2.508-.002-.001-.005-.001-.008-.001z"/><path d="m59.583 42.472c-8.77 0-15.903-7.134-15.903-15.903s7.134-15.903 15.903-15.903 15.902 7.134 15.902 15.903-7.133 15.903-15.902 15.903zm0-26.807c-6.012 0-10.903 4.892-10.903 10.903s4.892 10.903 10.903 10.903 10.902-4.892 10.902-10.903-4.89-10.903-10.902-10.903z"/><path d="m17.194 26.739c-1.377 0-2.495-1.114-2.5-2.492-.014-4.082 3.297-7.413 7.38-7.427h.024c1.969 0 3.82.764 5.217 2.151 1.403 1.395 2.179 3.251 2.186 5.229.005 1.381-1.111 2.503-2.492 2.508-.002 0-.005 0-.008 0-1.377 0-2.495-1.114-2.5-2.492-.002-.642-.254-1.244-.709-1.697-.454-.45-1.055-.698-1.693-.698-.003 0-.006 0-.009 0-1.325.004-2.399 1.086-2.396 2.411.005 1.381-1.111 2.503-2.492 2.508-.002-.001-.005-.001-.008-.001z"/><path d="m22.098 39.973c-8.769 0-15.902-7.134-15.902-15.903s7.133-15.904 15.902-15.904c8.77 0 15.903 7.134 15.903 15.903s-7.134 15.904-15.903 15.904zm0-26.807c-6.012 0-10.902 4.892-10.902 10.903s4.891 10.903 10.902 10.903 10.903-4.892 10.903-10.903-4.892-10.903-10.903-10.903z"/><path d="m40.933 87.452c-.147 0-.296-.013-.446-.04-1.358-.244-2.262-1.544-2.017-2.903 5.146-28.569 16.132-45.442 16.597-46.146.761-1.152 2.311-1.469 3.464-.708 1.151.761 1.469 2.31.709 3.462-.108.165-10.898 16.792-15.85 44.279-.218 1.208-1.271 2.056-2.457 2.056z"/><path d="m24.03 87.453c-1.089 0-2.09-.717-2.403-1.815-6.4-22.449-3.416-46.565-3.285-47.581.175-1.369 1.413-2.329 2.797-2.162 1.369.175 2.337 1.428 2.162 2.797-.03.238-2.977 24.139 3.135 45.575.379 1.328-.391 2.711-1.719 3.09-.23.065-.46.096-.687.096z"/><path d="m29.568 125.065c-5.203 0-10.185-2.22-13.665-6.091-.924-1.026-.84-2.607.187-3.53 1.025-.924 2.607-.84 3.53.187 2.535 2.818 6.161 4.435 9.948 4.435 3.788 0 7.413-1.616 9.946-4.435.924-1.026 2.503-1.108 3.531-.188 1.026.924 1.11 2.504.188 3.531-3.48 3.872-8.461 6.091-13.665 6.091z"/><path d="m157.088 230.48c-19.739 0-38.17-5.379-55.146-16.135-25.982-16.461-41.57-41.414-48.55-54.822-3.082-5.921-.915-13.115 4.934-16.379 2.939-1.641 6.332-2.002 9.552-1.021 3.243.988 5.877 3.201 7.416 6.231 28.075 55.231 69.478 67.815 101.356 67.817 14.074.001 26.287-2.451 34.686-4.769h.002c1.624-.444 3.269.414 3.832 1.999.568 1.597-.17 3.316-1.717 3.999-19.772 8.721-38.599 13.079-56.365 13.08zm-92.801-83.894c-1.22 0-2.426.312-3.525.925-3.47 1.937-4.76 6.199-2.935 9.704 6.747 12.963 21.798 37.073 46.79 52.907 25.449 16.125 54.445 19.529 86.423 10.204-12.436 1.346-27.637 1.281-43.48-2.805-32.623-8.416-58.437-30.925-76.724-66.901-.918-1.807-2.486-3.126-4.417-3.714-.703-.215-1.42-.32-2.132-.32z"/><path d="m188.069 208.254c-9.811 0-19.504-2.525-28.28-7.479-13.428-7.578-23.101-19.932-27.236-34.784-3.345-12.011-1.812-24.605 4.315-35.464s16.117-18.681 28.128-22.025c9.738-2.713 19.949-1.47 28.752 3.499 8.803 4.968 15.144 13.066 17.855 22.804 4.552 16.347-5.044 33.35-21.39 37.901-6.465 1.802-13.241.975-19.085-2.322-5.843-3.298-10.053-8.673-11.853-15.137-1.476-5.3-.8-10.856 1.904-15.647s7.111-8.242 12.411-9.718c4.365-1.219 8.947-.66 12.897 1.569 3.949 2.229 6.794 5.861 8.011 10.229.371 1.33-.407 2.709-1.737 3.079-1.336.369-2.709-.408-3.079-1.737-.858-3.082-2.865-5.646-5.651-7.218-2.785-1.571-6.016-1.964-9.099-1.106-4.014 1.117-7.351 3.73-9.398 7.358s-2.56 7.836-1.442 11.849c2.977 10.688 14.093 16.962 24.779 13.984 13.69-3.812 21.727-18.053 17.915-31.743-2.354-8.451-7.857-15.479-15.497-19.791-7.641-4.312-16.504-5.392-24.952-3.037-10.725 2.987-19.644 9.971-25.115 19.666s-6.84 20.941-3.854 31.665c3.778 13.566 12.613 24.85 24.877 31.771 12.265 6.921 26.49 8.652 40.057 4.874 1.334-.372 2.709.407 3.079 1.737s-.407 2.709-1.737 3.079c-5.144 1.434-10.375 2.144-15.575 2.144z"/><path d="m176.766 221.143c-10.418 0-21.808-1.289-33.479-4.816-30.616-9.253-54.992-31.36-72.451-65.706-.898-1.769-2.434-3.075-4.32-3.68-1.187-.38-1.912-1.573-1.703-2.801 7.152-41.95 38.24-76.427 79.199-87.834 47.16-13.132 96.216 14.55 109.349 61.711 5.126 18.406 2.777 37.706-6.613 54.345-8.749 15.503-22.636 26.967-39.378 32.605 1.397 2.188 2.729 5.51 2.554 10.113-.043 1.122-.828 2.078-1.921 2.338-8.383 1.99-19.156 3.725-31.237 3.725zm-106.675-78.101c2.228 1.182 4.035 3.015 5.202 5.312 16.817 33.083 40.181 54.342 69.441 63.186 23.11 6.984 45.143 4.792 60.151 1.463-.422-5-3.251-7.179-3.385-7.279-.763-.57-1.147-1.535-.972-2.472s.854-1.701 1.772-1.957c17.119-4.767 31.357-15.915 40.091-31.392 8.734-15.476 10.919-33.426 6.151-50.545-12.395-44.505-58.688-70.628-103.19-58.236-38.47 10.715-67.819 42.748-75.261 81.92zm137.334 71.943h.01z"/><path d="m113.123 113.499c-.507 0-1.019-.153-1.461-.473-13.729-9.908-20.035-20.97-20.297-21.437-.676-1.203-.248-2.728.956-3.403 1.201-.677 2.726-.25 3.402.954.089.156 6.111 10.628 18.864 19.831 1.12.808 1.372 2.371.564 3.49-.487.678-1.253 1.038-2.028 1.038z"/><path d="m87.588 128.652c-.507 0-1.019-.153-1.461-.473-7.993-5.769-11.432-11.265-11.574-11.496-.725-1.175-.359-2.715.816-3.439 1.17-.723 2.709-.361 3.437.811.053.084 3.152 4.95 10.247 10.07 1.12.809 1.372 2.371.564 3.49-.489.677-1.254 1.037-2.029 1.037z"/><path d="m68.696 247.864c-14.652.001-24.131-4.302-25.163-4.792-25.053-10.64-39.451-33.174-42.792-66.975-2.723-27.54 2.548-56.717 7.448-76.343 3.152-12.624 15.672-20.794 28.525-18.584 6.612 1.133 12.386 4.774 16.255 10.252 3.846 5.444 5.34 12.051 4.208 18.604-2.633 15.242-2.561 29.19.21 40.336.111.445.097.913-.04 1.351-.578 1.845-.407 3.799.479 5.502 6.582 12.646 21.249 36.228 45.529 52.091 29.797 19.469 64.562 21.329 103.333 5.528.793-.324 1.7-.218 2.398.283 9.349 6.693 15.878 13.206 19.708 17.491 1.659 1.854 1.954 4.464.753 6.646-1.207 2.196-3.576 3.356-6.053 2.938-17.1-2.84-24.397-.798-32.845 1.564-6.551 1.832-13.976 3.908-26.762 3.908-13.135 0-22.003-2.795-29.826-5.261-11.078-3.49-19.829-6.249-36.77.104-10.748 4.034-20.468 5.357-28.595 5.357zm-36.191-162.052c-9.024 0-17.219 6.163-19.464 15.154-4.805 19.243-9.977 47.812-7.324 74.64 3.149 31.866 16.548 53.024 39.821 62.886.039.017.078.034.116.053.206.1 21.35 9.985 49.884-.717 18.556-6.956 28.508-3.82 40.028-.19 7.479 2.357 15.957 5.029 28.323 5.029 12.101 0 18.869-1.893 25.415-3.723 8.647-2.42 16.82-4.702 35.011-1.682.49.074.747-.226.853-.416.123-.225.206-.563-.099-.905-3.511-3.926-9.398-9.814-17.783-15.956-39.864 15.892-75.744 13.709-106.665-6.492-25.233-16.487-40.422-40.89-47.229-53.969-1.389-2.669-1.741-5.696-1.014-8.602-2.823-11.848-2.867-25.889-.128-41.747.905-5.235-.29-10.515-3.364-14.867-3.098-4.386-7.721-7.301-13.016-8.209-1.128-.194-2.253-.287-3.365-.287z"/></svg>