<svg enable-background="new 0 0 256 256" height="512" viewBox="0 0 256 256" width="512" xmlns="http://www.w3.org/2000/svg"><path d="m250.648 94.307c-16.934-.53-61.907-.335-98.718 14.092-1.26.494-2.635-.359-2.718-1.71-.839-13.592-5.348-74.194-20.453-102.337-1.348-2.512-4.967-2.452-6.275.081-7.597 14.71-26.682 57.142-20.325 101.644.213 1.488-1.255 2.654-2.661 2.123-12.496-4.716-59.166-21.31-94.193-20.097-2.475.086-4.072 2.638-3.12 4.924 4 9.612 19.224 32.903 76.502 58.617 1.177.528 1.564 2.013.767 3.028-6.538 8.33-31.405 42.525-42.357 93.559-.665 3.098 2.713 5.475 5.377 3.759 15.732-10.132 54.537-37.269 78.881-72.67.834-1.213 2.641-1.162 3.371.116 6.022 10.532 29.969 48.166 77.541 73.638 2.619 1.402 5.696-.883 5.139-3.801-3.093-16.174-13.276-57.527-41.49-95.407-.827-1.111-.315-2.699 1.012-3.094 11.975-3.558 60.047-19.355 86.336-50.643 1.9-2.26.337-5.73-2.616-5.822z" fill="#fd605b"/><path d="m203.931 255.999c-.97 0-1.944-.238-2.845-.72-46.997-25.164-71.235-62.049-78.122-73.891-24.642 35.48-63.504 62.636-79.138 72.704-2.088 1.345-4.654 1.305-6.693-.106-2.025-1.401-3-3.865-2.481-6.278 10.766-50.162 34.668-84.058 42.421-94.047-56.065-25.278-72.431-48.223-77.197-59.672-.768-1.845-.582-3.947.495-5.624 1.066-1.66 2.878-2.691 4.847-2.76 34.576-1.221 79.953 14.563 94.344 19.948-6.028-44.428 12.438-86.268 20.7-102.267 1.037-2.008 3.085-3.267 5.346-3.285h.05c2.224 0 4.253 1.211 5.304 3.169 14.859 27.686 19.561 84.65 20.701 102.649 36.952-14.281 81.538-14.557 99.064-14.011 2.335.073 4.38 1.446 5.335 3.584.953 2.132.614 4.563-.885 6.347-11.407 13.577-28.008 25.808-49.342 36.353-16.412 8.113-31.213 12.971-37.482 14.864 28.209 38.156 38.421 79.701 41.508 95.849.442 2.312-.464 4.615-2.363 6.013-1.067.783-2.313 1.181-3.567 1.181zm-80.921-80.055c.063 0 .128.002.191.004 1.546.064 2.927.906 3.695 2.25 6.125 10.712 29.748 47.613 76.55 72.673.491.262.894.062 1.089-.083.162-.118.526-.459.414-1.044-3.038-15.892-13.12-56.899-41.039-94.384-.88-1.181-1.128-2.717-.666-4.108.46-1.384 1.57-2.459 2.971-2.875 53.476-15.886 78.682-42.176 85.134-49.854.361-.429.248-.867.148-1.09-.102-.227-.356-.608-.927-.626-17.326-.546-61.516-.271-97.729 13.92-1.339.524-2.863.38-4.071-.393-1.217-.776-1.965-2.049-2.054-3.492-.742-12.027-5.203-73.438-20.161-101.307-.251-.469-.654-.525-.907-.534-.194.002-.676.062-.943.579-8.097 15.678-26.261 56.817-20.072 100.144.227 1.58-.383 3.119-1.629 4.119-1.25 1.001-2.889 1.262-4.391.696-13.188-4.978-58.912-21.116-93.222-19.938-.458.017-.706.299-.813.466-.092.143-.284.526-.086 1.001 3.621 8.699 18.2 31.698 75.218 57.297 1.274.571 2.197 1.676 2.531 3.029.331 1.342.032 2.735-.821 3.822-7.109 9.058-31.141 42.497-41.88 92.54-.138.641.26.994.437 1.117.209.146.637.342 1.143.016 15.475-9.967 54.071-36.933 78.175-71.984.85-1.237 2.228-1.961 3.715-1.961z"/><path d="m124.889 63.541c-.012 0-.022 0-.034 0-1.381-.019-2.484-1.152-2.467-2.533l.062-4.648c.019-1.369 1.134-2.467 2.499-2.467h.034c1.381.019 2.484 1.152 2.467 2.533l-.062 4.648c-.019 1.369-1.134 2.467-2.499 2.467z"/><path d="m125.088 46.085c-.012 0-.023 0-.035 0-1.381-.02-2.484-1.154-2.466-2.534l.569-41.081c.02-1.381 1.113-2.513 2.534-2.466 1.381.02 2.484 1.154 2.466 2.534l-.569 41.081c-.02 1.369-1.135 2.466-2.499 2.466z"/><path d="m57.301 118.364c-.354 0-.712-.075-1.054-.234l-4.215-1.963c-1.251-.583-1.794-2.07-1.211-3.322s2.068-1.796 3.322-1.211l4.215 1.963c1.251.583 1.794 2.07 1.211 3.322-.423.91-1.326 1.445-2.268 1.445z"/><path d="m41.463 111.021c-.354 0-.713-.076-1.056-.235l-37.23-17.376c-1.251-.584-1.792-2.071-1.208-3.323.584-1.25 2.068-1.79 3.323-1.208l37.23 17.375c1.251.584 1.792 2.071 1.208 3.323-.424.909-1.326 1.444-2.267 1.444z"/><path d="m197.701 118.683c-1.047 0-2.022-.663-2.372-1.71-.437-1.31.271-2.726 1.581-3.163l4.41-1.471c1.312-.436 2.726.272 3.163 1.581.437 1.31-.271 2.726-1.581 3.163l-4.41 1.471c-.263.087-.529.129-.791.129z"/><path d="m214.271 113.188c-1.046 0-2.021-.662-2.371-1.708-.438-1.31.269-2.727 1.578-3.164l38.965-13.028c1.31-.438 2.728.27 3.164 1.578.438 1.31-.269 2.727-1.578 3.164l-38.965 13.028c-.262.088-.53.13-.793.13z"/><path d="m173.855 209.886c-.791 0-1.569-.375-2.056-1.074l-2.651-3.818c-.787-1.134-.506-2.691.628-3.479 1.134-.786 2.691-.506 3.479.628l2.651 3.818c.787 1.134.506 2.691-.628 3.479-.433.301-.93.446-1.423.446z"/><path d="m204.591 254.156c-.791 0-1.568-.374-2.055-1.072l-23.456-33.732c-.788-1.134-.508-2.692.625-3.48 1.134-.788 2.69-.509 3.48.625l23.456 33.732c.788 1.134.508 2.692-.625 3.48-.435.303-.932.447-1.425.447z"/><path d="m70.996 207.608c-.492 0-.989-.145-1.424-.446-1.134-.788-1.415-2.346-.628-3.479l2.651-3.818c.788-1.134 2.348-1.414 3.479-.628 1.134.788 1.415 2.346.628 3.479l-2.651 3.818c-.485.699-1.264 1.074-2.055 1.074z"/><path d="m40.261 251.879c-.493 0-.99-.145-1.426-.447-1.133-.788-1.413-2.347-.625-3.48l23.456-33.732c.789-1.134 2.346-1.413 3.48-.625 1.133.788 1.413 2.347.625 3.48l-23.456 33.732c-.486.698-1.263 1.072-2.054 1.072z"/><path d="m125.318 161.538c-4.331 0-8.476-1.848-11.372-5.068-.923-1.027-.839-2.607.188-3.531 1.027-.922 2.606-.839 3.531.188 1.949 2.169 4.738 3.412 7.653 3.412 2.914 0 5.703-1.244 7.654-3.412.923-1.026 2.504-1.109 3.53-.187s1.11 2.504.187 3.53c-2.896 3.22-7.042 5.068-11.371 5.068z"/><path d="m139.294 134.915c-1.377 0-2.495-1.114-2.5-2.492-.008-2.444.937-4.745 2.659-6.479 1.723-1.734 4.018-2.693 6.462-2.701h.03c2.433 0 4.722.943 6.448 2.659 1.734 1.723 2.693 4.018 2.701 6.462.004 1.381-1.111 2.503-2.492 2.508-.003 0-.005 0-.008 0-1.377 0-2.495-1.114-2.5-2.492-.004-1.108-.438-2.149-1.225-2.931-.783-.778-1.822-1.206-2.926-1.206-.005 0-.009 0-.014 0-2.288.007-4.144 1.875-4.137 4.164.004 1.381-1.111 2.503-2.492 2.508-.001 0-.003 0-.006 0z"/><path d="m111.353 134.894c-1.381 0-2.5-1.119-2.5-2.5 0-2.288-1.861-4.15-4.149-4.15s-4.15 1.862-4.15 4.15c0 1.381-1.119 2.5-2.5 2.5s-2.5-1.119-2.5-2.5c0-5.046 4.104-9.15 9.15-9.15 5.045 0 9.149 4.104 9.149 9.15 0 1.38-1.12 2.5-2.5 2.5z"/></svg>