<svg enable-background="new 0 0 256 256" height="512" viewBox="0 0 256 256" width="512" xmlns="http://www.w3.org/2000/svg"><g fill="#7d3d1a"><path d="m173.447 121.365c1.235-14.629 3.629-36.684 7.843-54.743.771-3.303 1.726-6.077 2.812-8.409-5.741-.778-13.659.51-17.254 11.895-2.926 9.266-1.315 29.277 1.092 47.29 1.769 1.273 3.511 2.578 5.507 3.967z"/><path d="m228.6 73.096c-9.098 10.918-29.911 40.239-40.83 55.768 3.153 1.236 4.593 5.015 2.954 8.054-.306.568-.601 1.142-.892 1.72l55.699-47.614s7.968-7.968 7.968-15.936-9.959-19.92-24.899-1.992z"/><path d="m222.624 56.164c-14.505 14.505-32.92 55.737-39.424 70.954 1.353.612 2.732 1.161 4.141 1.588.148.045.288.102.429.158 10.915-15.524 31.729-44.847 40.83-55.768 5.818-6.982 10.876-9.42 14.889-9.339-.453-3.104-4.217-24.241-20.865-7.593z"/><path d="m189.755 86.044-11.531 38.438c1.596.972 3.262 1.861 4.976 2.636 6.504-15.218 24.919-56.449 39.424-70.954 2.144-2.144 4.072-3.655 5.809-4.665l.167-.315s-16.932-39.84-38.845 34.86z"/><path d="m178.071 124.394c.05.031.103.058.153.089l11.531-38.438c5.812-19.815 11.274-31.569 16.163-38.147-6.73-2.094-19.586-2.886-24.629 18.725-4.214 18.059-6.607 40.113-7.843 54.743 1.386.962 2.892 1.965 4.625 3.028z"/></g><path d="m166.847 70.108c-.869 2.752-1.335 6.458-1.502 10.772 3.494-3.8 8.474-5.792 13.904-4.494.628-3.335 1.305-6.612 2.04-9.764.771-3.303 1.726-6.077 2.812-8.409-5.741-.778-13.659.51-17.254 11.895z" fill="#c16a44"/><path d="m181.289 66.622c-.675 2.893-1.298 5.894-1.883 8.945 1.726-1.338 6.985-4.508 13.59.133 4.606-13.709 8.953-22.463 12.921-27.803-6.73-2.093-19.585-2.886-24.628 18.725z" fill="#c16a44"/><path d="m193.487 74.268c3.001-1.184 9.2-2.577 13.01 3.934.094.16.203.308.306.46 5.304-9.244 10.796-17.475 15.82-22.499 2.144-2.144 4.072-3.655 5.809-4.665l.167-.315c.001.001-15.039-35.367-35.112 23.085z" fill="#c16a44"/><path d="m243.489 63.758c-.453-3.104-4.217-24.242-20.865-7.594-5.059 5.059-10.594 13.373-15.933 22.698 2.405-.384 8.628-.617 12.764 5.988 3.589-4.788 6.769-8.902 9.145-11.754 5.818-6.982 10.876-9.42 14.889-9.338z" fill="#c16a44"/><path d="m253.5 75.088c0-7.968-9.96-19.92-24.9-1.992-2.336 2.804-5.448 6.826-8.964 11.512v.44s12.011-1.84 16.454 14.047l9.442-8.071s7.968-7.968 7.968-15.936z" fill="#c16a44"/><path d="m190.724 136.918c1.712-3.175.069-7.166-3.383-8.211-3.249-.984-6.37-2.536-9.27-4.313-12.574-7.71-13.435-12.355-39.919-20.709-14.452-4.558-29.508-8.519-44.562-7.615.042.196.069.395.123.59 1.125 4.063 1.63 9.252-2.485 10.623-7.024 2.342-16.391-3.512-16.391-3.512s3.512 8.196-1.171 12.879-14.049-4.683-14.049-4.683c-.675 5.399-4.852 10.02-8.268 12.966-2.281 1.967-5.853.864-6.532-2.069-.334-1.441-.607-3.132-.722-5.018-.114.321-.225.642-.326.968-3.505 11.273-1.686 30.929 8.638 44.391 12.51 16.314 32.694 21.467 53.145 23.518 1.038 2.803 2.318 5.516 3.84 8.089 2.368 4.004 5.342 7.801 6.377 12.336.589-1.168 2.027-1.989 2.616-3.156 1.553 1.945 2.259 3.544 3.811 5.489 2.096-1.9 3.339-4.056 4.845-6.451 1.742 1.483 4.076 2.934 5.818 4.416.208-2.906.914-4.416 1.876-7.302 1.328 1.195 3.978 1.706 5.307 2.9-1.986-2.789-1.624-6.599-.733-9.905 0 0 .537-2.881.671-7.101 16.043-3.87 30.59-13.912 39.81-27.603 1.176-.365 2.36-.743 3.563-1.143 0 0-.349-1.03-1.313-2.483.43-.744.862-1.487 1.262-2.249 2.668-5.099 4.702-10.598 7.422-15.642z" fill="#52565b"/><path d="m169.752 146.415s-2.4-9.204-11.486-12.68c0 0-4.548-15.914-20.156-13.51.139.061 7.585 3.387 8.942 12.201 0 0 9.089 3.569 9.213 12.707 0 0 10.239 2.672 10.162 16.86 5.317-1.161 10.952-2.71 16.925-4.701-.001.001-2.585-7.752-13.6-10.877z" fill="#a8aeb2"/><path d="m90.867 202.167c.589-1.168 2.027-1.989 2.616-3.156 1.553 1.945 2.259 3.544 3.811 5.489 2.096-1.9 3.339-4.056 4.845-6.451 1.742 1.483 4.076 2.934 5.818 4.416.202-2.821.876-4.337 1.795-7.062-.12-.197-.244-.394-.361-.592-1.522-2.573-2.802-5.286-3.84-8.089-8.493-.852-16.938-2.243-24.809-4.742 1.022 2.718 2.27 5.351 3.749 7.851 2.367 4.005 5.341 7.801 6.376 12.336z" fill="#52565b"/><path d="m102.025 240.741s-6.915 3.305-8.498 10.22c-.43 1.879 1.721 3.273 3.266 2.12 3.522-2.63 9.06-6.465 13.311-8.014-2.43-5.618-8.079-4.326-8.079-4.326z" fill="#f4dbce"/><path d="m102.025 240.741c-2.429-5.618-8.047-3.189-8.047-3.189s-6.153 2.84-8.205 9.026c-.377 1.136.702 2.23 1.856 1.908l8.049-2.25c2.608-3.699 6.347-5.495 6.347-5.495z" fill="#f4dbce"/><path d="m93.978 237.552c-1.261-4.513-5.775-3.252-5.775-3.252s-4.538 1.653-7.322 6.038c-.853 1.344.229 3.078 1.809 2.876l5.242-.671c2.595-3.397 6.046-4.991 6.046-4.991z" fill="#f4dbce"/><path d="m137.168 229.415c-2.319-1.711-5.84-3.161-10.493-1.86 0 0 8.487-12.803 7.687-26.321-.77 2.223-1.325 3.696-1.505 6.212-1.742-1.482-4.076-2.934-5.818-4.416-1.506 2.395-2.749 4.552-4.845 6.451-.938-1.175-1.568-2.225-2.262-3.3-.028 6.478-1.312 15.553-5.79 19.923-1.235 1.206-2.987 1.731-4.688 1.44l-3.262-.56s-12.529-.792-17.99 7.318c0 0 4.513-1.261 5.774 3.252 0 0 5.618-2.429 8.047 3.189 0 0 5.649-1.293 8.078 4.325 0 0 3.321 2.569 9.201-6.831.612-.978 1.573-1.71 2.692-1.993 2.39-.605 6.652-1.218 10.409.672 1.669.839 3.677.577 4.961-.781l.347-.367c1.757-1.855 1.512-4.836-.543-6.353z" fill="#f9bd55"/><path d="m80.881 240.338c.737-1.16 1.597-2.125 2.463-2.922-2.681-2.452-6.219-1.654-6.219-1.654s-6.915 3.305-8.498 10.219c-.43 1.88 1.721 3.273 3.266 2.12 2.387-1.782 5.697-4.105 8.907-5.907-.281-.555-.308-1.243.081-1.856z" fill="#f4dbce"/><path d="m77.125 235.761c-2.429-5.618-8.047-3.189-8.047-3.189s-6.153 2.84-8.205 9.026c-.377 1.136.702 2.23 1.856 1.908l8.049-2.25c2.608-3.699 6.347-5.495 6.347-5.495z" fill="#f4dbce"/><path d="m69.078 232.572c-1.261-4.513-5.775-3.252-5.775-3.252s-4.538 1.653-7.322 6.038c-.853 1.344.229 3.078 1.809 2.876l5.242-.671c2.595-3.397 6.046-4.991 6.046-4.991z" fill="#f4dbce"/><path d="m88.204 234.3s.063-.017.164-.038c-.101.022-.164.038-.164.038 5.461-8.11 17.99-7.318 17.99-7.318l3.262.56c1.523.261 3.084-.138 4.281-1.088-.268-.777-.75-1.49-1.468-2.019-2.319-1.711-5.84-3.161-10.493-1.86 0 0 8.487-12.803 7.687-26.321-.77 2.223-1.325 3.696-1.505 6.212-1.742-1.482-4.076-2.934-5.818-4.416-1.506 2.395-2.749 4.552-4.845 6.451-.938-1.175-1.568-2.225-2.262-3.3-.028 6.478-1.312 15.553-5.79 19.923-1.235 1.206-2.987 1.731-4.688 1.44l-3.262-.56s-12.529-.792-17.99 7.318c0 0 4.513-1.261 5.774 3.252 0 0 5.618-2.429 8.047 3.189 0 0 3.539-.797 6.219 1.654 2.407-2.218 4.861-3.117 4.861-3.117z" fill="#f9bd55"/><path d="m97.667 2.5c-18.732 0-29.269 18.732-29.269 18.732s19.39 9.926 15.998 24.586c1.628.011 3.35-.073 5.176-.322.956-.13 1.799.628 1.776 1.593-.11 4.695-2.863 17.934-27.047 35.607-21.45 15.675-21.39 31.931-19.484 40.166.679 2.933 4.252 4.036 6.532 2.069 3.417-2.946 7.593-7.567 8.268-12.966 0 0 9.366 9.366 14.049 4.683s1.171-12.878 1.171-12.878 9.366 5.854 16.391 3.512c4.115-1.372 3.61-6.56 2.485-10.623-.937-3.385-.046-7.015 2.365-9.568 52.566-55.671 19.848-84.591 1.589-84.591z" fill="#f98080"/><path d="m68.398 21.232s4.683 3.512 4.683 10.537l-3.512 10.537-5.537 7.014c-2.65 3.357-2.621 8.258.376 11.309 2.986 3.041 8.091 3.723 16.284-7.201 14.048-18.732-12.294-32.196-12.294-32.196z" fill="#fd605b"/><path d="m68.398 21.232-25.105 10.83c-.915.395-.583 1.766.411 1.699l29.377-1.992c0-7.025-4.683-10.537-4.683-10.537z" fill="#f9bd55"/><path d="m46.346 33.581s14.442 3.456 23.223 8.724l3.512-10.537z" fill="#f9bd55"/><path d="m43.64 36.263c-1.555 0-2.915-1.058-3.286-2.589-.391-1.607.429-3.251 1.947-3.907l25.107-10.83c.824-.354 1.772-.241 2.49.296.232.174 5.683 4.355 5.683 12.536 0 1.315-1.019 2.405-2.331 2.494l-29.377 1.992c-.078.006-.155.008-.233.008zm24.22-12.075-14.935 6.442 17.442-1.183c-.476-2.519-1.651-4.269-2.507-5.259z"/><path d="m69.569 44.806c-.447 0-.893-.12-1.286-.356-8.354-5.013-22.379-8.403-22.52-8.437-1.201-.288-2.013-1.409-1.909-2.641.104-1.23 1.09-2.202 2.322-2.285l26.735-1.812c.848-.051 1.636.307 2.146.965.51.659.658 1.529.395 2.319l-3.512 10.537c-.24.72-.793 1.292-1.505 1.555-.279.103-.573.155-.866.155zm-9.572-9.645c2.728 1.009 5.56 2.187 8.149 3.507l1.384-4.153z"/><path d="m68.681 65.066c-2.24 0-4.324-.921-6.057-2.686-3.82-3.892-4.059-10.173-.554-14.61l5.266-6.671 3.239-9.72c-.158-5.347-3.547-8.046-3.694-8.16-1.018-.792-1.274-2.235-.582-3.323s2.09-1.477 3.237-.891c.595.305 14.589 7.576 17.32 19.382 1.29 5.57-.112 11.136-4.165 16.54-4.9 6.533-9.303 9.844-13.46 10.12-.184.014-.368.019-.55.019zm6.731-35.749c.108.772.169 1.59.169 2.451 0 .269-.043.535-.128.79l-3.512 10.537c-.092.275-.23.532-.41.759l-5.537 7.014c-1.948 2.468-1.863 5.911.197 8.01 1.126 1.146 2.083 1.223 2.708 1.182 1.451-.097 4.654-1.282 9.792-8.132 3.167-4.224 4.246-8.279 3.298-12.398-.929-4.039-3.692-7.527-6.577-10.213zm-2.331 2.452h.01z"/><path d="m48.712 128.426c-.685 0-1.376-.108-2.052-.33-2.166-.708-3.766-2.453-4.278-4.67-2.057-8.882-2.137-26.246 20.444-42.747 5.866-4.287 24.686-19.041 25.958-32.569-1.429.15-2.878.215-4.405.209-.759-.005-1.475-.354-1.945-.951-.471-.596-.645-1.373-.474-2.112 2.919-12.614-14.524-21.707-14.701-21.797-.604-.311-1.058-.854-1.254-1.504-.196-.651-.119-1.354.215-1.947.459-.819 11.482-20.008 31.447-20.008 9.193 0 21.302 6.499 26.656 18.92 10.79 25.027-11.926 54.529-26.428 69.888-1.794 1.9-2.474 4.653-1.773 7.185 2.712 9.793-1.407 12.764-4.104 13.663-4.571 1.521-9.782.188-13.511-1.3.321 3.171-.1 7.087-3.073 10.061-1.608 1.608-5.283 3.723-11.835-.209-.945-.566-1.83-1.187-2.61-1.778-1.769 4.336-5.146 7.93-8.007 10.396-1.217 1.049-2.726 1.6-4.27 1.6zm41.072-85.445c.993 0 1.956.363 2.706 1.034.891.796 1.385 1.938 1.356 3.132-.122 5.217-3.104 19.321-28.07 37.568-20.261 14.806-20.303 29.901-18.523 37.582.159.688.67.951.961 1.046.249.081.898.216 1.503-.306 3.066-2.644 6.843-6.765 7.42-11.382.118-.948.766-1.745 1.669-2.055.903-.313 1.903-.079 2.579.597 2.383 2.374 8.343 6.852 10.515 4.683 3.391-3.391.668-10.059.64-10.125-.431-1.005-.159-2.173.671-2.884.831-.712 2.025-.801 2.952-.222 2.334 1.45 9.456 4.869 14.275 3.261 2.362-.787 1.557-5.09.866-7.585-1.164-4.207-.031-8.787 2.957-11.951 13.657-14.465 35.128-42.076 25.472-64.476-4.501-10.437-14.507-15.898-22.066-15.898-13.42 0-22.468 10.763-25.736 15.39 5 3.123 15.951 11.315 15.349 22.835.659-.049 1.309-.117 1.955-.206.183-.025.367-.038.549-.038z"/><path d="m89.414 26.429c-1.377 0-2.496-1.114-2.5-2.492-.013-4.23 3.418-7.684 7.648-7.698h.024c4.221 0 7.661 3.426 7.676 7.648.005 1.381-1.11 2.504-2.491 2.509-.003 0-.006 0-.009 0-1.377 0-2.495-1.113-2.5-2.491-.005-1.472-1.204-2.666-2.676-2.666-.003 0-.005 0-.008 0-1.474.005-2.67 1.209-2.665 2.683.004 1.381-1.111 2.504-2.492 2.508-.002-.001-.004-.001-.007-.001z"/><path d="m95.554 256.002c-.864 0-1.731-.249-2.502-.751-1.624-1.058-2.394-2.96-1.961-4.849 1.831-7.999 9.529-11.761 9.856-11.917.166-.079.341-.14.521-.182 2.656-.604 8.356-.182 10.931 5.771.273.632.273 1.349.001 1.981s-.793 1.124-1.44 1.359c-3.025 1.103-7.525 3.826-12.67 7.668-.819.612-1.776.92-2.736.92zm7.294-12.869c-1.059.587-5.008 3.006-6.53 7.19 2.938-2.146 6.591-4.609 9.974-6.309-1.323-1.028-2.841-.959-3.444-.881z"/><path d="m87.219 251.043c-1.085 0-2.142-.441-2.915-1.254-1.021-1.07-1.367-2.603-.904-3.998 2.367-7.132 9.24-10.374 9.531-10.508.255-.111 2.061-.861 4.299-.739 3.198.178 5.717 2.026 7.091 5.205.531 1.229-.001 2.658-1.205 3.242-.06.029-3.228 1.612-5.395 4.686-.332.471-.815.812-1.37.967l-8.049 2.25c-.358.1-.722.149-1.083.149zm7.752-11.195c.003 0-3.892 1.875-6.009 5.67l5.222-1.459c1.398-1.781 2.984-3.124 4.271-4.044-.513-.358-1.04-.453-1.502-.479-1.03-.051-1.974.308-1.982.312z"/><path d="m82.437 245.731c-1.483 0-2.853-.744-3.666-2.023-.923-1.451-.923-3.256-.001-4.709 3.205-5.046 8.361-6.968 8.579-7.048.061-.021.121-.041.183-.058.282-.08 1.787-.455 3.562-.114 2.637.511 4.517 2.321 5.293 5.101.33 1.179-.243 2.423-1.352 2.939-.076.036-2.973 1.437-5.114 4.242-.406.53-1.007.877-1.67.962l-5.243.671c-.193.025-.383.037-.571.037zm6.524-9.042c-.534.224-3.133 1.396-5.153 3.862l2.816-.36c1.288-1.495 2.682-2.633 3.832-3.436-.407-.172-.905-.194-1.495-.066z"/><path d="m122.194 211.98c-.066 0-.134-.003-.201-.008-.688-.056-1.322-.394-1.753-.933-.859-1.077-1.47-2.034-2.06-2.961-.007-.011-.014-.021-.021-.032-.072.087-.129.164-.161.228-.476.939-1.479 1.48-2.535 1.354-1.046-.128-1.899-.897-2.134-1.925-.696-3.053-2.456-5.825-4.318-8.76-.603-.95-1.205-1.899-1.772-2.86-4.411-7.459-6.942-16.014-7.321-24.739-.06-1.38 1.011-2.546 2.39-2.606 1.412-.019 2.547 1.011 2.606 2.39.343 7.907 2.635 15.657 6.629 22.411.541.916 1.116 1.82 1.69 2.727 1.205 1.898 2.435 3.836 3.417 5.924.396-.381.914-.627 1.477-.685.852-.094 1.68.262 2.211.927.859 1.077 1.47 2.034 2.06 2.961.018.027.035.055.053.082.702-.938 1.337-1.957 2.023-3.057l.448-.719c.387-.614 1.021-1.03 1.737-1.141.721-.108 1.448.097 2 .566.722.614 1.571 1.235 2.476 1.887.216-.726.463-1.438.731-2.209.155-.448.321-.925.495-1.448.267-.8.918-1.411 1.732-1.627.691-.182 1.415-.061 2.003.321-.012-1.659.244-3.479.767-5.45.154-.9 1.455-9.015-.161-17.411-.261-1.355.627-2.667 1.982-2.928 1.351-.255 2.667.627 2.928 1.982 1.891 9.824.224 18.973.151 19.356-.012.064-.026.128-.043.191-.947 3.517-.827 6.143.356 7.805.739 1.039.578 2.468-.373 3.316-.953.848-2.39.844-3.337-.008-.356-.321-1.212-.688-1.967-1.012-.088-.038-.177-.076-.267-.114-.412 1.262-.673 2.312-.783 3.848-.066.939-.657 1.762-1.526 2.127-.866.363-1.869.21-2.587-.401-.794-.676-1.744-1.359-2.75-2.084-.265-.19-.532-.383-.799-.577-1.059 1.627-2.2 3.181-3.815 4.644-.461.419-1.06.648-1.678.648z"/><path d="m111.304 247.889c-1.501 0-2.44-.621-2.729-.845-.335-.259-.598-.598-.766-.985-1.584-3.668-5.079-2.916-5.226-2.88-1.176.264-2.374-.339-2.853-1.445-.802-1.855-1.905-2.148-2.778-2.197-1.029-.051-1.973.308-1.981.312-.661.286-1.416.273-2.068-.038-.651-.312-1.137-.889-1.331-1.584-.328-1.172-.88-1.431-1.428-1.537-.632-.123-1.261.019-1.267.02-1.008.282-2.086-.095-2.699-.943-.613-.85-.633-1.991-.047-2.86 6.19-9.195 19.645-8.453 20.221-8.417.088.006.177.016.265.031l3.262.56c.919.154 1.866-.127 2.52-.765 3.671-3.582 5.008-11.721 5.035-18.144.005-1.106.736-2.078 1.798-2.389 1.06-.312 2.201.113 2.803 1.043l.365.57c.017.027.034.054.051.08.703-.938 1.338-1.956 2.024-3.057l.448-.719c.387-.614 1.021-1.03 1.737-1.141.721-.108 1.448.097 2 .566.722.614 1.572 1.234 2.476 1.887.217-.729.465-1.444.734-2.219l.131-.378c.391-1.127 1.53-1.811 2.704-1.658 1.182.163 2.083 1.138 2.154 2.329.559 9.438-3.048 18.398-5.633 23.503 3.188.236 5.689 1.532 7.428 2.814 1.548 1.143 2.534 2.899 2.705 4.82.172 1.934-.495 3.853-1.829 5.263l-.348.367c-2.021 2.137-5.195 2.657-7.9 1.295-3.08-1.55-6.755-.966-8.671-.48-.475.119-.906.445-1.188.896-3.131 5.006-6.104 7.699-9.09 8.231-.368.066-.712.094-1.029.094zm-7.877-9.789c2.613.002 6.145 1.009 8.314 4.68.815-.302 2.686-1.46 5.443-5.869.975-1.556 2.466-2.652 4.2-3.09 2.588-.656 7.612-1.417 12.144.861.718.36 1.53.255 2.021-.265l.348-.367c.479-.507.507-1.084.48-1.383-.026-.291-.15-.84-.693-1.24-2.477-1.826-5.281-2.315-8.336-1.465-1.007.282-2.079-.093-2.694-.937-.614-.845-.64-1.981-.062-2.853.062-.093 4.928-7.56 6.692-16.784-.016-.013-.031-.026-.047-.039-.794-.676-1.744-1.359-2.749-2.083-.266-.191-.533-.384-.8-.578-1.058 1.628-2.2 3.182-3.815 4.645-.485.439-1.131.67-1.772.646-.586 5.268-2.154 11.955-6.211 15.913-1.795 1.753-4.356 2.545-6.857 2.114l-3.108-.533c-.961-.03-7.713-.146-12.568 3.17.808.494 1.489 1.161 2.027 1.982.557-.077 1.185-.119 1.847-.081 2.595.144 4.744 1.39 6.196 3.556z"/><path d="m70.653 251.022c-.864 0-1.731-.25-2.503-.752-1.623-1.058-2.393-2.961-1.96-4.849 1.831-7.998 9.529-11.76 9.856-11.916.169-.08.346-.142.528-.183 1.783-.406 5.578-.384 8.456 2.248.517.473.812 1.14.812 1.84s-.291 1.368-.806 1.843c-.725.669-1.352 1.391-1.867 2.15.374 1.119-.09 2.374-1.147 2.969-3.202 1.798-6.463 4.108-8.635 5.73-.817.613-1.774.92-2.734.92zm7.272-12.856c-1.077.6-4.995 3.016-6.508 7.179 1.862-1.359 4.24-3.008 6.696-4.481.071-.65.29-1.287.656-1.863l.001-.003c.174-.272.356-.542.548-.807-.589-.086-1.096-.06-1.393-.025z"/><path d="m62.318 246.062c-1.086 0-2.142-.441-2.916-1.254-1.021-1.071-1.366-2.604-.901-4 2.365-7.13 9.238-10.372 9.529-10.506 3.239-1.402 8.881-1.338 11.39 4.467.531 1.229-.001 2.659-1.205 3.242-.073.036-3.231 1.619-5.395 4.686-.332.47-.815.812-1.37.966l-8.049 2.25c-.357.101-.721.149-1.083.149zm7.731-11.186c.005 0-3.875 1.875-5.986 5.661l5.221-1.46c1.393-1.772 2.972-3.11 4.254-4.03-1.259-.889-2.759-.469-3.489-.171z"/><path d="m57.536 240.751c-1.483 0-2.853-.744-3.666-2.024-.923-1.451-.922-3.255.001-4.709 3.203-5.044 8.359-6.967 8.577-7.046.06-.022.121-.042.183-.06 2.782-.774 7.436-.091 8.854 4.987.33 1.179-.242 2.422-1.352 2.938-.068.033-2.97 1.435-5.114 4.243-.406.531-1.007.877-1.67.962l-5.242.671c-.191.025-.381.038-.571.038zm6.545-9.05c-.486.201-3.126 1.372-5.173 3.87l2.815-.36c1.287-1.493 2.679-2.63 3.828-3.432-.529-.233-1.103-.167-1.47-.078z"/><path d="m97.295 207c-.066 0-.134-.003-.2-.008-.688-.056-1.322-.393-1.753-.932-.861-1.078-1.472-2.037-2.062-2.964-.007-.01-.013-.021-.02-.03-.072.087-.13.165-.161.229-.476.939-1.489 1.479-2.535 1.354-1.046-.128-1.899-.897-2.134-1.925-.696-3.052-2.455-5.822-4.316-8.756-.604-.951-1.206-1.902-1.775-2.864-1.524-2.578-2.849-5.352-3.937-8.244-.337-.896-.133-1.906.526-2.601s1.657-.952 2.57-.662c6.813 2.164 14.763 3.681 24.302 4.638.95.095 1.764.724 2.096 1.619.998 2.694 2.225 5.28 3.647 7.686l.345.564c.384.631.469 1.398.233 2.099-.149.441-.292.852-.427 1.241-.685 1.97-1.098 3.158-1.244 5.201-.067.94-.657 1.763-1.526 2.127-.868.364-1.869.21-2.588-.402-.792-.675-1.742-1.358-2.747-2.082-.266-.191-.533-.384-.801-.578-1.058 1.627-2.199 3.18-3.814 4.644-.461.417-1.061.646-1.679.646zm-3.812-10.489c.756 0 1.477.343 1.954.94.858 1.076 1.469 2.033 2.059 2.959.018.028.035.056.054.084.701-.938 1.335-1.953 2.021-3.052l.453-.724c.386-.615 1.021-1.031 1.737-1.141.715-.111 1.446.098 2 .567.721.613 1.57 1.234 2.474 1.885.217-.731.467-1.449.736-2.228.013-.036.025-.073.039-.11-1.222-2.108-2.307-4.336-3.238-6.643-6.959-.754-13.106-1.814-18.617-3.216.469.932.966 1.841 1.487 2.725.543.917 1.118 1.823 1.693 2.729 1.204 1.898 2.434 3.835 3.415 5.921.396-.381.914-.627 1.477-.685.085-.007.171-.011.256-.011z"/><path d="m83.344 239.916c-.604 0-1.21-.219-1.688-.655-1.651-1.511-3.912-1.073-4.008-1.055-1.157.238-2.35-.368-2.818-1.452-.802-1.855-1.906-2.149-2.778-2.197-1.042-.061-1.973.307-1.981.311-.662.286-1.416.273-2.068-.038-.651-.312-1.137-.889-1.331-1.584-.531-1.898-2.062-1.695-2.694-1.517-1.009.277-2.086-.096-2.7-.945-.613-.849-.632-1.99-.046-2.859 6.19-9.194 19.65-8.456 20.221-8.416.089.006.178.016.266.031l3.262.56c.927.157 1.866-.126 2.519-.766 3.67-3.581 5.008-11.721 5.036-18.144.005-1.106.736-2.079 1.799-2.389 1.063-.312 2.202.113 2.802 1.045l.36.562c.019.029.037.059.056.087.701-.937 1.335-1.953 2.021-3.052l.453-.724c.386-.615 1.02-1.031 1.737-1.141.715-.111 1.446.098 2 .567.721.614 1.57 1.234 2.475 1.886.216-.728.464-1.441.732-2.216l.132-.38c.391-1.127 1.53-1.814 2.704-1.658 1.182.163 2.083 1.138 2.154 2.329.559 9.437-3.048 18.398-5.633 23.503 3.188.236 5.689 1.532 7.428 2.814 1.087.803 1.898 1.915 2.347 3.216.346 1.002.021 2.113-.81 2.772-1.756 1.395-4.04 1.976-6.257 1.594l-3.109-.533c-1.146-.039-10.645-.193-15.189 5.597-.268.781-.916 1.412-1.773 1.621-.456.191-2.214.989-3.923 2.564-.482.441-1.091.662-1.698.662zm-4.808-6.784c1.383.01 3.072.296 4.676 1.152 1.363-1.013 2.6-1.657 3.364-2.008 3.724-4.989 9.666-6.819 14.068-7.472-.346-.175-.652-.432-.891-.759-.614-.845-.64-1.981-.062-2.852.062-.094 4.928-7.561 6.692-16.785-.016-.014-.031-.026-.048-.04-.792-.675-1.742-1.358-2.747-2.082-.266-.191-.533-.384-.801-.578-1.058 1.627-2.199 3.18-3.814 4.644-.484.438-1.112.658-1.773.646-.587 5.269-2.154 11.956-6.211 15.914-1.796 1.752-4.355 2.543-6.855 2.114l-3.109-.533c-.958-.033-7.712-.146-12.569 3.17.759.464 1.454 1.105 2.019 1.963 2.7-.363 5.962.359 8.061 3.506z"/><path d="m122.194 211.98c-.066 0-.134-.003-.201-.008-.688-.056-1.322-.394-1.753-.933-.859-1.077-1.47-2.034-2.06-2.961-.007-.011-.014-.021-.021-.033-.071.087-.128.164-.159.227-.475.941-1.49 1.49-2.535 1.356-1.046-.127-1.9-.897-2.135-1.925-.696-3.053-2.456-5.825-4.318-8.76-.603-.95-1.205-1.899-1.772-2.86-1.315-2.224-2.479-4.583-3.468-7.033-17.936-1.925-39.763-6.608-53.349-24.325-10.883-14.19-12.78-34.629-9.042-46.655.111-.356.232-.707.356-1.058.395-1.123 1.52-1.819 2.704-1.645 1.178.164 2.076 1.136 2.148 2.323.097 1.575.319 3.125.663 4.606.159.688.67.951.961 1.046.249.081.898.216 1.503-.306 3.066-2.644 6.843-6.765 7.42-11.382.118-.948.766-1.745 1.669-2.055.903-.313 1.903-.079 2.579.597 2.383 2.374 8.343 6.852 10.515 4.683 3.413-3.414.665-10.065.637-10.132-.424-1.005-.148-2.171.681-2.878.831-.709 2.021-.799 2.945-.221 2.334 1.45 9.456 4.866 14.274 3.26 2.363-.787 1.558-5.09.867-7.584-.054-.194-.094-.391-.13-.588l-.028-.146c-.152-.713.014-1.456.454-2.036.441-.58 1.113-.939 1.841-.982 15.481-.93 31.001 3.165 45.463 7.727 19.782 6.239 25.603 10.488 32.342 15.408 2.385 1.741 4.851 3.541 8.132 5.554 3.083 1.889 5.926 3.215 8.688 4.052 2.366.717 4.267 2.447 5.215 4.746.947 2.3.818 4.867-.356 7.044-1.374 2.55-2.607 5.308-3.801 7.976-1.128 2.522-2.295 5.132-3.608 7.641-.187.356-.381.709-.578 1.061.521.962.75 1.611.782 1.708.214.631.168 1.32-.128 1.916-.297.597-.818 1.05-1.45 1.26-.936.312-1.86.608-2.778.897-9.209 13.285-23.29 23.188-38.974 27.439-.204 3.318-.604 5.489-.623 5.596-.013.065-.027.129-.044.193-.948 3.515-.829 6.141.354 7.803.739 1.038.579 2.467-.372 3.315s-2.389.844-3.336-.006c-.356-.321-1.211-.688-1.965-1.011-.089-.038-.179-.077-.27-.116-.412 1.263-.673 2.312-.783 3.848-.066.939-.657 1.762-1.526 2.127-.866.364-1.869.21-2.587-.401-.794-.676-1.744-1.359-2.749-2.083-.266-.191-.533-.384-.8-.578-1.058 1.628-2.2 3.182-3.815 4.645-.462.418-1.061.647-1.679.647zm-3.81-10.489c.756 0 1.477.343 1.954.94.859 1.077 1.47 2.034 2.06 2.961.018.027.035.055.053.082.702-.938 1.337-1.957 2.023-3.057l.448-.719c.387-.614 1.021-1.03 1.737-1.141.721-.108 1.448.097 2 .566.722.614 1.572 1.234 2.476 1.887.216-.727.464-1.439.732-2.212.155-.448.321-.924.495-1.447.267-.8.919-1.411 1.734-1.626.686-.181 1.413-.061 1.999.32-.011-1.658.245-3.478.769-5.449.084-.488.502-3.071.614-6.638.036-1.125.818-2.087 1.913-2.352 15.501-3.739 29.47-13.423 38.323-26.569.317-.473.788-.822 1.332-.991.235-.073.471-.146.708-.221-.323-.725-.286-1.569.119-2.27l.069-.119c.39-.674.78-1.347 1.142-2.037 1.242-2.372 2.377-4.909 3.474-7.362 1.23-2.751 2.502-5.595 3.965-8.308v-.001c.459-.85.508-1.857.134-2.765-.373-.906-1.117-1.586-2.041-1.866-3.177-.963-6.399-2.459-9.853-4.574-3.453-2.118-6.002-3.979-8.467-5.777-6.384-4.661-11.896-8.687-30.897-14.68-13.067-4.121-26.985-7.826-40.709-7.616 1.421 7.847-2.216 10.384-4.673 11.202-4.571 1.522-9.782.188-13.51-1.299.321 3.171-.1 7.087-3.073 10.061-4.384 4.382-10.673.907-14.452-1.97-1.771 4.327-5.144 7.916-8 10.379-1.758 1.515-4.122 1.989-6.322 1.271-.691-.227-1.325-.558-1.884-.977-.854 10.797 2.05 24.699 9.613 34.562 12.809 16.703 34.203 20.826 51.41 22.552.95.095 1.764.724 2.096 1.619.998 2.694 2.225 5.28 3.647 7.686.541.916 1.116 1.82 1.69 2.727 1.205 1.898 2.435 3.836 3.417 5.924.396-.381.914-.627 1.477-.685.087-.007.173-.011.258-.011zm62.6-43.394h.01z"/><path d="m142.344 167.325c-10.649 0-20.243-1.85-28.719-5.553-19.328-8.444-25.703-23.722-27.197-28.203-1.154-3.463-1.669-7.009-1.528-10.537.056-1.381 1.241-2.453 2.598-2.398 1.379.055 2.453 1.218 2.398 2.598-.116 2.922.313 5.869 1.276 8.757 1.328 3.986 7.018 17.584 24.455 25.202 16.665 7.281 38.221 6.824 64.107-1.352-1.518-2.152-4.658-5.314-10.665-7.019-.853-.242-1.513-.917-1.736-1.774-.02-.07-2.241-8.021-9.961-10.976-.735-.281-1.295-.893-1.511-1.649-.019-.064-2.152-7.184-8.117-10.382-3.525-1.89-7.788-2.072-12.674-.547-1.321.417-2.72-.322-3.132-1.64s.322-2.721 1.64-3.132c6.238-1.951 11.813-1.635 16.575.938 6.214 3.354 9.123 9.588 10.111 12.202 7.258 3.265 10.386 9.708 11.451 12.543 11.08 3.669 13.89 11.744 14.008 12.099.209.629.16 1.315-.136 1.909-.297.593-.816 1.044-1.445 1.254-15.32 5.106-29.287 7.66-41.798 7.66z"/><path d="m173.446 123.865c-.502 0-1.002-.151-1.428-.448-1.338-.931-2.563-1.825-3.76-2.697-.597-.436-1.187-.865-1.779-1.292-.559-.402-.927-1.017-1.018-1.698-3.212-24.028-3.547-40.304-.998-48.374 4.302-13.623 14.358-14.377 19.973-13.62.787.107 1.477.582 1.857 1.278.382.697.408 1.534.073 2.255-1.058 2.271-1.947 4.936-2.644 7.922-4.138 17.734-6.518 39.363-7.786 54.385-.075.891-.619 1.673-1.428 2.053-.337.158-.7.236-1.062.236zm-3.17-7.861c.309.225.618.449.93.677.045.032.089.065.135.099 1.358-14.825 3.697-34.365 7.514-50.726.455-1.949.988-3.785 1.594-5.492-5.406.372-9.172 3.824-11.217 10.3-2.258 7.148-1.896 22.744 1.044 45.142z"/><path d="m189.832 141.139c-.544 0-1.089-.177-1.543-.532-.937-.735-1.226-2.028-.69-3.092.302-.599.607-1.194.924-1.782.441-.817.506-1.752.183-2.633-.321-.878-.995-1.573-1.848-1.908-.715-.279-1.261-.872-1.482-1.607-.221-.734-.092-1.53.35-2.157 11.401-16.217 31.884-45.046 40.954-55.931 8.999-10.799 16.144-11.17 20.549-9.57 5.698 2.062 8.772 8.321 8.772 13.162 0 8.902-8.345 17.349-8.7 17.704-.046.046-.094.091-.144.133l-55.7 47.614c-.468.398-1.046.599-1.625.599zm1.466-12.945c.928.872 1.653 1.959 2.103 3.186.088.239.163.48.229.725l50.193-42.907c.687-.714 7.177-7.62 7.177-14.11 0-3.185-2.048-7.221-5.475-8.461-4.1-1.485-9.431 1.381-15.005 8.07-8.579 10.294-27.648 37.063-39.222 53.497zm37.302-55.097h.01z"/><path d="m187.769 131.364c-.308 0-.619-.057-.919-.176-.097-.038-.165-.068-.237-.09-1.384-.419-2.839-.977-4.443-1.703-1.239-.561-1.802-2.009-1.268-3.26 7.133-16.689 25.305-57.09 39.955-71.739 5.881-5.881 11.154-8.102 15.683-6.603 6.969 2.312 8.975 12.527 9.424 15.603.106.728-.113 1.465-.599 2.016-.487.55-1.156.864-1.926.845-.046 0-.094-.001-.141-.001-2.655 0-6.988 1.494-12.777 8.441-8.966 10.759-29.352 39.456-40.706 55.604-.48.682-1.251 1.063-2.046 1.063zm-1.272-5.582c.103.038.204.075.306.112 11.569-16.438 31.076-43.838 39.876-54.398 4.693-5.632 9.335-8.962 13.837-9.938-.882-3.646-2.667-8.062-5.551-9.019-2.539-.846-6.201 1.02-10.573 5.392-13.652 13.653-31.388 52.823-37.895 67.851zm36.127-69.618h.01z"/><path d="m183.2 129.618c-.352 0-.703-.074-1.029-.222-1.756-.793-3.521-1.729-5.247-2.778-.972-.592-1.422-1.765-1.095-2.854l11.53-38.434c9.151-31.192 18.559-46.647 28.757-47.242 9.299-.542 14.564 11.601 14.784 12.118.295.692.261 1.481-.091 2.147l-.168.315c-.219.413-.549.757-.953.991-1.625.945-3.407 2.382-5.297 4.271-14.428 14.428-33.416 57.355-38.893 70.169-.264.618-.766 1.104-1.392 1.348-.291.115-.598.171-.906.171zm-2.014-6.306c.251.139.503.274.755.407 7.737-17.89 24.932-55.338 38.916-69.322 1.573-1.574 3.112-2.895 4.594-3.944-1.701-3.072-5.135-7.606-9.052-7.372-4.347.261-13.276 6.28-24.244 43.668-.001.005-.002.01-.004.015zm8.57-37.268h.01z"/><path d="m178.224 126.982c-.452 0-.902-.123-1.299-.363l-.135-.078c-.009-.006-.018-.011-.026-.017-1.587-.973-3.095-1.96-4.744-3.106-.733-.51-1.14-1.373-1.064-2.263 1.282-15.188 3.693-37.074 7.899-55.102 2.239-9.595 6.247-16.104 11.911-19.348 5.742-3.287 11.814-2.465 15.895-1.195.774.24 1.384.842 1.635 1.612s.113 1.615-.37 2.266c-5.275 7.097-10.581 19.666-15.77 37.358l-11.537 38.454c-.223.741-.775 1.338-1.498 1.615-.291.113-.595.167-.897.167zm-2.162-6.855c.24.162.479.321.716.478l10.584-35.279c4.677-15.944 9.52-27.958 14.422-35.788-2.638-.337-5.686-.12-8.533 1.508-4.41 2.525-7.615 7.958-9.526 16.146-4.007 17.17-6.367 37.994-7.663 52.935z"/><path d="m165.344 83.381c-.32 0-.644-.062-.952-.188-.969-.399-1.586-1.361-1.545-2.408.188-4.838.716-8.576 1.617-11.429 4.302-13.623 14.358-14.377 19.973-13.62.787.107 1.477.582 1.857 1.278.382.697.408 1.534.073 2.255-1.058 2.271-1.947 4.936-2.644 7.922-.686 2.937-1.364 6.187-2.018 9.659-.127.672-.523 1.263-1.098 1.635s-1.275.493-1.941.334c-4.185-1.001-8.368.367-11.481 3.755-.483.525-1.156.807-1.841.807zm15.104-22.819c-5.406.372-9.172 3.824-11.217 10.3-.395 1.25-.711 2.777-.946 4.57 2.766-1.49 5.833-2.144 8.966-1.89.524-2.654 1.062-5.165 1.604-7.488.455-1.95.988-3.785 1.593-5.492zm-13.6 9.546h.01z"/><path d="m192.996 78.2c-.508 0-1.011-.155-1.438-.454-4.967-3.49-8.785-1.626-10.62-.203-.824.638-1.953.699-2.84.155s-1.344-1.58-1.147-2.602c.64-3.337 1.263-6.295 1.903-9.043 2.239-9.595 6.247-16.104 11.911-19.348 5.742-3.287 11.814-2.465 15.895-1.195.774.24 1.384.842 1.635 1.612s.113 1.615-.37 2.266c-4.179 5.623-8.404 14.743-12.559 27.107-.252.748-.841 1.334-1.591 1.579-.254.085-.517.126-.779.126zm-6.977-7.442c1.698 0 3.584.347 5.597 1.267 3.328-9.469 6.735-17.005 10.169-22.487-2.641-.337-5.687-.12-8.534 1.508-4.41 2.525-7.615 7.958-9.526 16.146-.297 1.271-.59 2.59-.883 3.975.961-.25 2.026-.409 3.177-.409z"/><path d="m206.804 81.163c-.826 0-1.602-.408-2.067-1.095l-.07-.102c-.114-.163-.226-.328-.326-.501-2.143-3.662-5.488-4.626-9.935-2.872-.907.357-1.94.155-2.646-.518-.705-.675-.954-1.697-.637-2.619 8.063-23.482 16.316-35.052 25.229-35.37 9.137-.29 14.333 11.61 14.549 12.118.295.693.261 1.482-.091 2.148l-.168.315c-.218.413-.549.757-.953.991-1.625.945-3.407 2.382-5.297 4.271-4.374 4.374-9.562 11.768-15.42 21.976-.429.747-1.212 1.222-2.073 1.254-.032.003-.064.004-.095.004zm-8.465-10.396c3.163 0 5.986 1.158 8.201 3.393 5.316-8.933 10.125-15.571 14.316-19.763 1.573-1.574 3.111-2.895 4.593-3.943-1.682-3.035-5.015-7.51-8.928-7.369-3.464.13-10.41 4.016-19.148 27.718.325-.025.648-.036.966-.036z"/><path d="m219.455 87.35c-.035 0-.069-.001-.104-.002-.823-.035-1.577-.473-2.015-1.171-3.21-5.128-7.803-5.24-10.25-4.847-.954.158-1.905-.256-2.451-1.048-.548-.792-.591-1.828-.113-2.663 6.124-10.694 11.619-18.507 16.335-23.223 5.881-5.881 11.154-8.102 15.683-6.603 6.969 2.312 8.975 12.527 9.424 15.603.106.728-.113 1.465-.599 2.016-.487.55-1.156.864-1.926.845-.046 0-.094-.001-.141-.001-2.655 0-6.988 1.494-12.777 8.441-2.188 2.625-5.237 6.546-9.065 11.651-.474.632-1.216 1.002-2.001 1.002zm-8.424-10.96c2.576.388 5.683 1.514 8.392 4.348 2.973-3.921 5.407-7.021 7.256-9.241 4.693-5.632 9.335-8.962 13.837-9.938-.882-3.646-2.667-8.062-5.551-9.019-2.539-.846-6.201 1.02-10.573 5.392-3.855 3.855-8.341 10.053-13.361 18.458z"/><path d="m236.09 101.596c-.243 0-.488-.035-.728-.108-.816-.248-1.45-.896-1.68-1.718-1.629-5.824-4.479-9.646-8.472-11.357-2.821-1.209-5.172-.895-5.196-.893-.721.111-1.454-.099-2.007-.574-.554-.475-.872-1.167-.872-1.896v-.44c0-.541.176-1.067.5-1.5 3.795-5.058 6.838-8.965 9.043-11.612 8.999-10.799 16.144-11.17 20.549-9.57 5.698 2.062 8.772 8.321 8.772 13.162 0 8.902-8.345 17.349-8.7 17.704-.046.046-.094.091-.144.133l-9.442 8.071c-.457.391-1.035.598-1.623.598zm-12.015-18.716c4.067.869 9.761 3.626 13.185 11.927l6.562-5.609c.688-.714 7.178-7.62 7.178-14.11 0-3.185-2.048-7.221-5.475-8.461-4.1-1.485-9.431 1.381-15.005 8.07-1.662 1.994-3.823 4.739-6.445 8.183zm21.457 8.144h.01z"/><path d="m166.427 164.493c-.567 0-1.124-.193-1.573-.557-.59-.479-.931-1.198-.927-1.957.065-11.944-7.973-14.338-8.314-14.434-1.067-.299-1.832-1.271-1.848-2.379-.1-7.3-7.329-10.293-7.637-10.417-.818-.33-1.413-1.07-1.547-1.942-1.134-7.359-7.225-10.18-7.483-10.296-1.01-.454-1.607-1.522-1.458-2.619.149-1.098.995-1.97 2.089-2.138 13.216-2.034 20.278 7.753 22.561 14.116 7.241 3.269 10.362 9.7 11.427 12.532 11.08 3.669 13.89 11.744 14.008 12.099.209.629.16 1.316-.136 1.909-.297.593-.816 1.044-1.446 1.254-5.885 1.961-11.665 3.565-17.182 4.771-.178.04-.357.058-.534.058zm-7.781-21.147c3.896 1.768 9.177 6.465 10.13 15.544 3.565-.856 7.232-1.878 10.957-3.052-1.518-2.152-4.658-5.313-10.664-7.018-.85-.241-1.509-.913-1.734-1.766-.037-.136-2.271-8.042-9.963-10.984-.734-.281-1.294-.892-1.51-1.648-.129-.438-2.661-8.765-10.219-11.246 1.528 1.903 2.917 4.384 3.627 7.538 2.656 1.395 8.471 5.255 9.376 12.632z"/><path d="m145.995 149.288c-1.146 0-2.18-.793-2.438-1.959-.3-1.348.55-2.683 1.898-2.982 9.733-2.163 18.138-2.277 24.979-.337 1.328.377 2.101 1.759 1.724 3.087s-1.759 2.098-3.087 1.724c-6.035-1.712-13.615-1.573-22.531.407-.184.041-.365.06-.545.06z"/><path d="m141.327 136.447c-1.075 0-2.068-.699-2.394-1.782-.396-1.323.354-2.717 1.676-3.113 7.05-2.114 13.291-2.165 18.55-.151 1.29.494 1.935 1.939 1.441 3.229-.493 1.29-1.938 1.935-3.229 1.441-4.205-1.609-9.362-1.52-15.325.271-.239.071-.481.105-.719.105z"/></svg>