<svg enable-background="new 0 0 256 256" height="512" viewBox="0 0 256 256" width="512" xmlns="http://www.w3.org/2000/svg"><path d="m206.469 249.75c-1.834-10.498-17.098-14.399-29.122-12.655-1.834.267-3.278-1.447-2.558-3.039.015-.033.03-.066.045-.099 10.56-23.34 18.798-48.475 11.031-55.674-1.849-1.714-3.771-2.561-5.68-2.809-.203-7.711-2.926-18.136-5.994-27.435-2.577-7.809-7.203-14.737-13.348-20.088-5.545 2.532-12.8 4.683-22.229 5.622-3.306 1.125-6.881 1.77-10.614 1.77s-7.308-.645-10.614-1.77c-10.194-1.015-17.847-3.447-23.542-6.246-8.121 6.831-13.66 16.35-15.536 26.954-1.361 7.69-2.239 15.587-2.367 21.791-1.906.25-3.824 1.097-5.669 2.807-7.767 7.199.471 32.334 11.032 55.674v-.001l.045.099c.63 1.391-.394 2.878-1.891 3.05-1.351.154-28.767-4.094-29.964 12.526-.127 1.769 1.3 3.271 3.073 3.271h35.119 25.493c.411 0 .813-.039 1.2-.114.775-.149 1.493-.439 2.123-.839.315-.2.608-.428.874-.68.293-.277.546-.587.77-.916 3.214.879 6.529 1.354 9.924 1.354 3.476 0 6.87-.494 10.156-1.414 1.07 1.518 2.787 2.608 4.735 2.608h25.493 34.803c1.991.003 3.556-1.783 3.212-3.747z" fill="#a8aeb2"/><path d="m160.843 127.952c-5.545 2.532-12.8 4.683-22.229 5.622-3.306 1.125-6.881 1.77-10.614 1.77s-7.308-.645-10.614-1.77c-10.194-1.015-17.847-3.447-23.542-6.246-1.058.89-2.071 1.829-3.039 2.807l4.244 23.314c.314 2.722 1.734 11.593 7.391 19.227.278.375.843.281 1.004-.161.334-.915.946-2.298 1.945-3.586.285-.367.847-.263.999.184 1.252 3.696 6.539 16.809 20.096 22.496.926.388 1.965.388 2.891 0 13.556-5.687 18.844-18.8 20.096-22.496.151-.446.713-.551.998-.184.999 1.288 1.611 2.671 1.945 3.586.162.443.727.536 1.005.161 5.657-7.634 7.076-16.504 7.39-19.227l3.984-21.59c-1.238-1.376-2.549-2.687-3.95-3.907z" fill="#e3e4e5"/><path d="m142.958 253.5h25.493c1.906 0 3.454-2.114 3.238-3.87-.392-3.186-2.723-7.761-12.449-9.263-3.703-.572-5.199-2.449-5.318-5.412-3.011 1.882-6.882 4.893-6.882 4.893l-2.731-5.461-6.953 3.793c-.118 2.942-.214 5.998-.278 9.172-.061 3.048 2.589 6.148 5.88 6.148z" fill="#52565b"/><path d="m87.684 253.5h25.493c3.291 0 5.941-2.503 5.88-5.553-.068-3.367-.172-6.601-.3-9.707l-7.067-3.854-2.731 5.461s-3.748-2.914-6.738-4.8c.035 3.256-1.417 5.313-5.327 5.917-9.726 1.502-12.057 6.077-12.449 9.263-.215 1.756 1.332 3.273 3.239 3.273z" fill="#52565b"/><path d="m83.151 53.312c4.392-10.492 12.398-19.132 22.463-24.304-.233-1.337-.133-2.707.28-3.989-3.804-6.846-11.049-11.822-19.758-14.31-11.607-3.317-16.501-6.329-18.636-7.921-.835-.623-2.033-.185-2.297.823-1.116 4.274-2.787 13.466.722 21.363l-5.944-1.189s2.378 9.511 9.511 13.077l-4.755 1.189c0 .001 5.771 11.494 18.414 15.261z" fill="#e3e4e5"/><path d="m196.018 23.786-5.944 1.189c3.51-7.897 1.839-17.09.722-21.363-.263-1.008-1.461-1.446-2.297-.823-2.135 1.591-7.029 4.604-18.636 7.92-9.193 2.627-16.775 8.016-20.377 15.462 3.353 2.743 6.253 4.275 8.233 5.096.918.38.825 1.715-.132 1.983-.404.113-.822.216-1.245.313 6.767 5.167 12.117 12.094 15.387 20.072.17-.042.342-.081.511-.127 13.077-3.567 19.022-15.455 19.022-15.455l-4.755-1.189c7.133-3.567 9.511-13.078 9.511-13.078z" fill="#e3e4e5"/><path d="m167.287 45.241c.303-4.14 1.512-8.124 4.519-10.607 8.648-7.141 7.8-16.801 7.8-16.801-3.569 3.422-2.062 3.65-15.14 11.177-2.67 1.537-4.995 3.42-6.773 5.643 3.693 3.036 6.938 6.599 9.594 10.588z" fill="#828487"/><path d="m84.194 34.634c2.62 2.164 3.877 5.467 4.357 9.021 2.625-3.619 5.749-6.851 9.258-9.616-1.706-1.958-3.852-3.634-6.275-5.029-13.078-7.527-11.571-7.755-15.14-11.177 0 0-.848 9.66 7.8 16.801z" fill="#828487"/><path d="m187.723 96.003c-1.529-5.154-4.305-9.186-7.352-12.279-3.187-3.236-5.079-7.524-5.079-12.066 0-15.491-7.455-29.32-18.948-38.095-4.531 1.047-9.982 1.248-12.767 1.275-.81.008-1.298.89-.883 1.586l1.039 1.742c.416.697-.083 1.576-.894 1.591-7.418.143-15.283-2.038-18.48-3.039-.709-.222-1.418.337-1.363 1.078l.15 2.019c.053.713-.612 1.282-1.303 1.098-6.138-1.641-10.547-4.435-13.637-7.221-1.448-1.305-2.29-2.963-2.59-4.684-15.496 7.962-26.167 24.115-26.167 42.65v1.212c0 4.214-1.477 8.349-4.362 11.421-2.83 3.014-5.37 6.866-6.808 11.712h2.342s-2.342 11.844 4.684 19.739l3.513-1.316s7.665 16.07 38.569 19.148c3.306 1.125 6.881 1.77 10.614 1.77s7.308-.645 10.614-1.77c30.904-3.079 38.569-19.148 38.569-19.148l3.513 1.316c7.026-7.896 4.684-19.739 4.684-19.739z" fill="#e3e4e5"/><path d="m165.369 72.289c0 8.706-5.322 15.764-11.886 15.764s-13.147-7.058-13.147-15.764 6.583-15.764 13.147-15.764 11.886 7.057 11.886 15.764z" fill="#828487"/><path d="m115.664 72.919c0 8.706-6.583 15.764-13.147 15.764s-11.886-7.058-11.886-15.764 5.322-15.764 11.886-15.764 13.147 7.058 13.147 15.764z" fill="#828487"/><path d="m114.799 95.051c1.176-3.051 7.318-3.318 13.201-3.318 5.914 0 12.088.27 13.218 3.367l.229.001c1.883.426 3.655.952 5.295 1.579-.075-.72-.415-1.419-1.065-1.912l-2.934-2.226c-5.015-3.804-9.233-8.488-12.236-13.852-1.099-1.963-3.918-1.958-5.015 0-3.003 5.363-7.221 10.048-12.236 13.852l-2.934 2.226c-.652.494-.992 1.197-1.065 1.92 1.712-.655 3.567-1.201 5.542-1.637z" fill="#52565b"/><path d="m141.447 95.101-.229-.001c.119.327.2.676.2 1.07 0 4.12-6.88 9.945-13.419 9.945s-13.419-5.826-13.419-9.945c0-.413.087-.778.218-1.119-10.242 2.259-17.318 7.435-17.318 15.701 0 11.492 13.664 24.592 30.519 24.592s30.519-13.099 30.519-24.592c.001-8.2-6.96-13.364-17.071-15.651z" fill="#828487"/><path d="m141.419 96.17c0 4.12-6.88 9.945-13.419 9.945s-13.419-5.826-13.419-9.945c0-4.12 6.88-4.437 13.419-4.437s13.419.318 13.419 4.437z" fill="#52565b"/><path d="m157.72 31.267c-2.147-.889-5.369-2.598-9.084-5.799-5.806-5.004-21.178-13.034-38.305-5.401-5.425 2.417-6.537 9.649-2.125 13.626 3.09 2.785 7.499 5.58 13.637 7.221.69.184 1.356-.385 1.303-1.098l-.15-2.019c-.055-.74.655-1.3 1.363-1.078 3.197 1.001 11.062 3.182 18.48 3.039.811-.015 1.31-.894.894-1.591l-1.039-1.742c-.415-.696.074-1.578.883-1.586 3.045-.029 9.28-.264 14.012-1.588.956-.269 1.049-1.604.131-1.984z" fill="#828487"/><path d="m241.383 91.753c6.36-5.473 8.01-14.644 3.767-21.883-4.567-7.791-14.409-10.788-22.48-6.738-58.278 29.246-8.294 89.469-8.294 120.667 0 21.169-16.33 22.665-28.376 20.89-1.103 3.849-2.469 7.912-4.024 12.076 72.954 17.071 67.156-35.457 50.1-76.751-10.248-24.812-.198-40.082 9.307-48.261z" fill="#e3e4e5"/><g fill="#52565b"><path d="m200.46 219.804c6.773.547 12.582.268 17.536-.709 1.551-5.239 1.655-13.329-7.579-20.979-2.663 3.554-6.43 5.494-10.553 6.417 1.424 3.947 2.64 9.731.596 15.271z"/><path d="m213.021 173.59c.846 3.654 1.356 7.08 1.356 10.21 0 .432-.011.85-.024 1.266 5.614-.099 20.039 1.063 26.578 14.757 2.677-8.195 2.538-18.204.64-28.755-6.628-1.919-16.637-2.812-28.55 2.522z"/><path d="m232.077 140.015c-1.334-3.23-2.317-6.294-3.009-9.206-14.526-2.83-24.226 6.16-27.214 9.444 1.771 5.142 3.655 10.191 5.412 15.058 9.84-10.231 22.084-9.693 27.339-8.856-.808-2.168-1.653-4.319-2.528-6.44z"/><path d="m227.974 116.411c.542-5.295 2.156-9.854 4.334-13.736-4.449-6.192-16.089-18.222-35.99-11.243-2.16 7.205-2.3 14.871-1.243 22.685 6.122-2.609 21.833-7.739 32.899 2.294z"/><path d="m245.15 69.87c-4.567-7.791-14.409-10.788-22.48-6.738-1.989.998-3.841 2.036-5.585 3.104 6.906 1.815 21.484 7.692 24.307 25.336.008.051.019.096.028.146 6.328-5.476 7.965-14.624 3.73-21.848z"/></g><path d="m168.452 256h-25.493c-2.166 0-4.243-.901-5.846-2.538-1.655-1.688-2.578-3.935-2.533-6.162.617-30.617 4.129-51.327 4.165-51.532.234-1.36 1.526-2.268 2.888-2.04 1.361.234 2.274 1.527 2.04 2.888-.035.202-3.484 20.574-4.093 50.785-.018.88.396 1.837 1.105 2.562.38.388 1.18 1.038 2.275 1.038h25.493c.054 0 .227-.069.416-.282.262-.296.358-.642.341-.782-.569-4.633-5.942-6.417-10.349-7.098-3.035-.469-5.182-1.755-6.38-3.824-2.67-4.608.081-11.763 3.889-21.666 4.952-12.877 11.733-30.513 8.977-49.591-.198-1.366.75-2.634 2.117-2.832 1.37-.196 2.634.75 2.832 2.117 2.944 20.37-4.108 38.709-9.258 52.1-2.932 7.625-5.701 14.826-4.23 17.364.15.259.607 1.048 2.818 1.389 11.657 1.801 14.119 7.934 14.548 11.429.199 1.618-.384 3.377-1.559 4.706-1.11 1.251-2.626 1.969-4.163 1.969z"/><path d="m113.177 256h-25.493c-1.706 0-3.315-.714-4.416-1.958-1.01-1.142-1.484-2.643-1.303-4.12.43-3.495 2.891-9.628 14.548-11.429 2.211-.341 2.668-1.13 2.818-1.389 1.471-2.539-1.298-9.74-4.23-17.364-5.21-13.549-12.345-32.105-9.165-52.721.211-1.364 1.486-2.301 2.852-2.089 1.364.21 2.3 1.487 2.089 2.852-2.978 19.301 3.882 37.139 8.891 50.164 3.808 9.902 6.559 17.058 3.889 21.665-1.199 2.068-3.346 3.355-6.381 3.824-4.407.681-9.78 2.465-10.349 7.098-.003.021-.011.087.085.196.116.131.353.271.671.271h25.494c.986 0 1.922-.378 2.568-1.037.538-.549.826-1.247.812-1.965-.609-30.245-4.059-50.583-4.093-50.784-.234-1.361.679-2.654 2.04-2.888 1.362-.232 2.654.679 2.888 2.04.035.206 3.548 20.915 4.165 51.532.042 2.073-.753 4.049-2.24 5.565-1.581 1.612-3.818 2.537-6.14 2.537z"/><path d="m127.928 194.401c-.817 0-1.635-.163-2.413-.49-11.296-4.739-17.216-14.221-19.926-20.096-.465.839-1.294 1.422-2.257 1.561-1.122.159-2.229-.304-2.903-1.216-6.051-8.165-7.549-17.699-7.864-20.426-.159-1.372.825-2.612 2.197-2.77 1.366-.156 2.612.825 2.77 2.197.245 2.117 1.291 8.858 5.121 15.318.229-.361.482-.725.761-1.084.693-.895 1.813-1.336 2.929-1.148 1.121.188 2.045.977 2.413 2.06 1.218 3.597 6.165 15.737 18.695 20.994.309.129.648.129.957 0 12.529-5.256 17.477-17.397 18.695-20.993.366-1.083 1.291-1.873 2.411-2.062 1.114-.186 2.236.253 2.93 1.148.278.359.531.723.761 1.084 3.83-6.461 4.876-13.202 5.121-15.318.158-1.372 1.398-2.354 2.77-2.197 1.372.158 2.355 1.398 2.197 2.77-.315 2.728-1.813 12.261-7.865 20.428-.672.909-1.781 1.374-2.902 1.214-.963-.139-1.792-.722-2.257-1.561-2.711 5.875-8.631 15.357-19.926 20.096-.78.328-1.598.491-2.415.491z"/><path d="m203.254 256h-60.296c-2.054 0-4.051-.838-5.598-2.302-6.06 1.45-12.243 1.475-18.342.053-.365.336-.759.639-1.176.904-.914.581-1.921.979-2.995 1.186-.548.105-1.11.158-1.671.158h-60.612c-1.547 0-3.039-.65-4.094-1.784-1.046-1.124-1.583-2.642-1.473-4.166.291-4.038 1.92-7.359 4.844-9.873 7.594-6.531 21.8-5.411 26.467-5.043.2.016.377.031.53.042-14.276-31.655-17.731-51.212-10.268-58.129 1.517-1.406 3.169-2.402 4.932-2.976.25-5.875 1.085-13.117 2.342-20.225 1.964-11.096 7.785-21.193 16.389-28.432.759-.637 1.823-.769 2.712-.331 6.337 3.115 13.971 5.134 22.688 6.002.189.019.376.06.557.121 6.384 2.172 13.234 2.172 19.618 0 .181-.062.368-.102.557-.121 8.145-.812 15.358-2.631 21.438-5.409.892-.408 1.94-.256 2.681.389 6.507 5.667 11.376 12.995 14.08 21.19 2.47 7.486 5.42 17.857 6.021 26.203 1.78.571 3.447 1.572 4.978 2.991 7.463 6.917 4.008 26.474-10.267 58.126 6.608-.902 13.618-.208 19.306 1.913 6.958 2.596 11.336 7.152 12.329 12.831.287 1.646-.169 3.328-1.252 4.617-1.101 1.313-2.714 2.065-4.425 2.065zm-65.03-7.608c.799 0 1.568.384 2.044 1.061.682.969 1.688 1.547 2.691 1.547h60.296c.327 0 .527-.196.598-.28.094-.111.197-.296.154-.54-1.471-8.417-14.786-12.281-26.3-10.611-1.804.262-3.596-.463-4.672-1.892-1.027-1.366-1.223-3.105-.522-4.652l2.322.932-2.278-1.031c12.689-28.044 17.029-47.786 11.609-52.809-1.355-1.256-2.762-1.964-4.302-2.164-1.221-.158-2.146-1.182-2.178-2.413-.211-8.02-3.309-18.956-5.869-26.717-2.259-6.845-6.203-13.015-11.45-17.933-6.171 2.602-13.301 4.33-21.223 5.143-7.253 2.404-15.036 2.404-22.289 0-8.524-.875-16.117-2.806-22.6-5.747-7.052 6.396-11.82 15.011-13.487 24.431-1.358 7.674-2.207 15.477-2.33 21.407-.025 1.235-.95 2.266-2.174 2.427-1.538.202-2.943.909-4.295 2.162-5.42 5.023-1.08 24.765 11.61 52.81l-2.234 1.129 2.277-1.031c.61 1.347.542 2.856-.188 4.142-.759 1.339-2.141 2.245-3.696 2.423-.391.043-.78.014-1.824-.068-11.147-.879-18.822.417-22.815 3.85-1.903 1.636-2.922 3.742-3.116 6.44-.014.187.072.321.146.401.066.071.21.19.434.19h60.613c.247 0 .492-.023.729-.068.452-.087.874-.253 1.252-.494.178-.113.348-.245.501-.39.14-.132.278-.298.417-.503.602-.882 1.697-1.284 2.726-1.004 6.228 1.704 12.569 1.674 18.746-.055.225-.063.453-.093.677-.093zm38.845-13.308"/><path d="m168.4 182.675c-.708 0-1.412-.299-1.906-.881-.894-1.052-.766-2.63.287-3.524 7.653-6.502 15.035-7.149 20.784-1.82 1.013.938 1.073 2.521.134 3.533-.939 1.014-2.521 1.072-3.533.134-3.759-3.482-8.518-2.821-14.148 1.963-.47.4-1.045.595-1.618.595z"/><path d="m87.735 183.272c-.572 0-1.147-.195-1.618-.595-8.488-7.208-12.749-3.261-14.148-1.963-1.013.939-2.594.878-3.533-.134-.938-1.013-.878-2.595.134-3.533 5.749-5.329 13.13-4.683 20.785 1.819 1.052.894 1.181 2.471.287 3.524-.495.583-1.199.882-1.907.882z"/><path d="m168.452 256h-25.493c-2.166 0-4.243-.901-5.846-2.538-1.655-1.688-2.578-3.935-2.533-6.162.061-3.004.155-6.106.28-9.222.035-.878.529-1.673 1.301-2.094l6.954-3.793c.596-.324 1.299-.394 1.945-.19.647.203 1.185.66 1.488 1.267l1.388 2.777c1.371-1.006 3.112-2.242 4.663-3.211.756-.472 1.706-.506 2.493-.09.788.416 1.294 1.22 1.33 2.11.056 1.402.336 2.599 3.202 3.042 11.657 1.801 14.119 7.933 14.548 11.428.199 1.619-.384 3.378-1.559 4.706-1.108 1.252-2.625 1.97-4.161 1.97zm-28.652-16.306c-.097 2.605-.171 5.191-.222 7.707-.018.88.396 1.837 1.105 2.562.38.388 1.18 1.038 2.275 1.038h25.493c.054 0 .227-.069.415-.282.262-.296.359-.642.341-.783-.569-4.632-5.942-6.417-10.349-7.097-3.484-.539-5.399-2.082-6.41-3.882-2.052 1.452-3.847 2.845-3.873 2.865-.592.46-1.357.63-2.088.465-.73-.166-1.348-.65-1.683-1.32l-1.572-3.144z"/><path d="m113.177 256h-25.493c-1.706 0-3.315-.714-4.416-1.958-1.01-1.142-1.484-2.643-1.303-4.12.43-3.495 2.891-9.628 14.548-11.429 2.739-.423 3.229-1.483 3.209-3.419-.01-.916.482-1.763 1.281-2.209s1.778-.421 2.553.068c1.511.953 3.184 2.141 4.509 3.113l1.389-2.778c.304-.607.841-1.064 1.488-1.267s1.349-.134 1.945.19l7.067 3.854c.771.42 1.264 1.214 1.301 2.091.136 3.294.238 6.577.302 9.76.042 2.073-.753 4.05-2.24 5.566-1.58 1.613-3.818 2.538-6.14 2.538zm-9.294-16.808c-1.121 2.295-3.35 3.739-6.606 4.242-4.407.681-9.78 2.465-10.349 7.098-.003.021-.011.087.085.196.116.131.353.271.671.271h25.494c.987 0 1.923-.378 2.568-1.036.538-.549.826-1.247.812-1.966-.054-2.692-.136-5.458-.242-8.241l-3.548-1.935-1.572 3.144c-.335.669-.953 1.154-1.683 1.32-.729.165-1.496-.004-2.087-.464-.026-.018-1.633-1.266-3.543-2.629z"/><path d="m207.011 222.56c-7.486 0-16.027-1.119-25.604-3.36-.699-.164-1.294-.62-1.634-1.253s-.39-1.382-.139-2.055c1.586-4.248 2.919-8.249 3.963-11.89.346-1.205 1.53-1.963 2.768-1.785 6.252.922 14.82 1.057 20.13-3.528 3.571-3.083 5.382-8.093 5.382-14.889 0-8.572-4.153-19.955-8.549-32.006-11.231-30.786-25.21-69.1 18.222-90.896 9.202-4.618 20.517-1.233 25.758 7.708 4.82 8.222 3.015 18.754-4.293 25.042-9.217 7.931-18.195 22.247-8.626 45.413 7.866 19.044 18.735 53.73 3.153 72.062-6.476 7.617-16.701 11.437-30.531 11.437zm-21.71-7.609c23.793 5.128 40.08 2.755 48.43-7.066 14.379-16.917 2.018-52.432-3.965-66.915-10.709-25.928-.48-42.106 9.987-51.112l1.63 1.895-1.63-1.895c5.476-4.711 6.838-12.586 3.24-18.724-3.913-6.674-12.347-9.207-19.202-5.768-39.45 19.798-26.868 54.286-15.767 84.714 4.552 12.478 8.852 24.264 8.852 33.719 0 8.314-2.394 14.597-7.114 18.673-4.963 4.286-12.526 5.991-21.968 4.966-.725 2.387-1.559 4.9-2.493 7.513z"/><path d="m167.287 47.741c-.823 0-1.61-.407-2.081-1.115-2.5-3.756-5.562-7.134-9.1-10.042-1.057-.869-1.22-2.425-.365-3.493 1.912-2.39 4.428-4.492 7.479-6.248 9.925-5.712 11.106-7.016 12.741-8.821.509-.562 1.085-1.198 1.916-1.994.694-.666 1.709-.874 2.609-.536s1.527 1.164 1.611 2.122c.04.448.854 11.06-8.698 18.947-2.097 1.731-3.314 4.713-3.618 8.862-.078 1.065-.824 1.963-1.857 2.235-.213.056-.426.083-.637.083zm-6.015-13.295c1.65 1.502 3.195 3.104 4.626 4.797.917-2.734 2.36-4.921 4.316-6.536 3.056-2.523 4.77-5.392 5.727-7.918-1.953 1.452-4.941 3.346-10.228 6.389-1.7.978-3.186 2.072-4.441 3.268z"/><path d="m83.152 55.812c-.237 0-.477-.034-.714-.104-13.523-4.029-19.679-16.025-19.935-16.534-.34-.679-.354-1.475-.038-2.165.271-.592.761-1.05 1.359-1.285-4.554-4.673-6.184-10.993-6.268-11.332-.208-.832.024-1.711.616-2.332s1.46-.891 2.299-.727l1.706.341c-1.77-7.229-.472-14.566.606-18.696.335-1.285 1.284-2.315 2.538-2.754 1.244-.438 2.618-.228 3.672.559 3.454 2.575 9.62 5.175 17.83 7.521 9.691 2.77 17.24 8.274 21.255 15.5.336.604.407 1.321.195 1.979-.29.903-.358 1.869-.197 2.792.189 1.079-.346 2.154-1.32 2.655-9.574 4.919-17.138 13.104-21.3 23.046-.396.952-1.32 1.536-2.304 1.536zm-14.461-16.171c2.197 3.062 6.521 7.958 13.11 10.562 4.53-9.553 11.954-17.485 21.19-22.626 0-.732.076-1.465.223-2.184-3.485-5.648-9.751-9.989-17.766-12.279-8.022-2.292-14.124-4.789-18.172-7.435-.909 4.11-1.947 11.802.934 18.282.379.854.251 1.848-.333 2.578-.583.729-1.526 1.069-2.442.89l-1.513-.303c1.27 2.619 3.41 5.865 6.688 7.503.936.468 1.481 1.469 1.367 2.509s-.863 1.898-1.878 2.152z"/><path d="m88.551 46.155c-.203 0-.408-.024-.61-.076-.991-.25-1.73-1.077-1.867-2.089-.46-3.407-1.628-5.907-3.472-7.428-9.552-7.887-8.738-18.5-8.698-18.947.084-.958.71-1.783 1.611-2.122s1.915-.129 2.609.536c.831.796 1.407 1.433 1.916 1.994 1.635 1.805 2.816 3.108 12.741 8.82 2.763 1.591 5.089 3.459 6.914 5.554.449.516.667 1.194.604 1.875-.064.682-.404 1.307-.942 1.73-3.356 2.645-6.311 5.713-8.782 9.121-.477.658-1.235 1.032-2.024 1.032zm-2.765-13.448c1.704 1.406 3.02 3.252 3.938 5.514 1.367-1.532 2.831-2.984 4.383-4.35-1.114-.97-2.392-1.872-3.819-2.694-5.298-3.049-8.288-4.945-10.241-6.398.954 2.525 2.671 5.394 5.739 7.928z"/><path d="m153.483 90.552c-8.335 0-15.647-8.535-15.647-18.264s7.312-18.264 15.647-18.264c7.933 0 14.386 8.193 14.386 18.264s-6.453 18.264-14.386 18.264zm0-31.528c-5.026 0-10.647 5.672-10.647 13.264 0 7.591 5.622 13.264 10.647 13.264 5.176 0 9.386-5.95 9.386-13.264 0-7.313-4.21-13.264-9.386-13.264z"/><path d="m102.517 91.183c-7.933 0-14.386-8.193-14.386-18.264s6.454-18.264 14.386-18.264c8.335 0 15.647 8.534 15.647 18.264s-7.311 18.264-15.647 18.264zm0-31.528c-5.176 0-9.386 5.95-9.386 13.264s4.21 13.264 9.386 13.264c5.026 0 10.647-5.672 10.647-13.264.001-7.591-5.621-13.264-10.647-13.264z"/><path d="m128 119.833c-4.946 0-9.681-2.11-12.992-5.791-.923-1.026-.839-2.607.187-3.531 1.027-.924 2.608-.839 3.531.187 2.363 2.627 5.744 4.134 9.274 4.134s6.911-1.507 9.274-4.134c.923-1.026 2.505-1.111 3.531-.187 1.026.923 1.11 2.504.187 3.531-3.311 3.681-8.046 5.791-12.992 5.791z"/><path d="m148.362 75.336c-1.377 0-2.496-1.114-2.5-2.492-.006-1.966.753-3.817 2.139-5.211 1.386-1.395 3.231-2.167 5.197-2.173h.025c1.957 0 3.798.759 5.187 2.139 1.395 1.386 2.167 3.232 2.172 5.198.004 1.381-1.111 2.503-2.492 2.508-.003 0-.005 0-.008 0-1.377 0-2.496-1.114-2.5-2.492-.002-.63-.25-1.222-.696-1.667-.447-.444-1.03-.655-1.671-.686-.63.002-1.223.25-1.667.697s-.688 1.041-.686 1.671c.004 1.381-1.111 2.504-2.492 2.508-.003 0-.006 0-.008 0z"/><path d="m97.917 75.336c-1.377 0-2.496-1.114-2.5-2.492-.006-1.966.753-3.817 2.139-5.211 1.386-1.395 3.232-2.167 5.198-2.173h.024c4.048 0 7.347 3.286 7.36 7.336.004 1.381-1.111 2.504-2.492 2.508-.003 0-.006 0-.008 0-1.377 0-2.496-1.114-2.5-2.492-.002-.63-.25-1.223-.697-1.667-.445-.443-1.036-.686-1.663-.686-.002 0-.005 0-.008 0-.631.002-1.223.25-1.667.697s-.688 1.041-.686 1.671c.004 1.381-1.111 2.504-2.492 2.508-.002.001-.005.001-.008.001z"/><path d="m109.258 99.187c-.542 0-1.077-.176-1.52-.514-.688-.527-1.055-1.374-.968-2.236.148-1.476.874-2.776 2.042-3.662l2.934-2.225c4.892-3.711 8.783-8.112 11.565-13.081.949-1.696 2.747-2.75 4.689-2.75 1.972 0 3.724 1.028 4.688 2.75 2.782 4.969 6.673 9.37 11.565 13.081l2.934 2.226c1.164.883 1.889 2.178 2.041 3.646.089.864-.276 1.712-.965 2.241-.688.529-1.603.663-2.415.352-1.434-.548-3.011-1.024-4.692-1.416-1.026-.025-1.934-.675-2.287-1.642-.235-.644-1.959-1.724-10.87-1.724-8.88 0-10.621 1.076-10.868 1.718-.301.782-.976 1.361-1.794 1.542-1.859.41-3.604.924-5.187 1.529-.289.111-.591.165-.892.165zm5.541-4.136h.01zm13.202-15.332c-.22 0-.3.145-.327.192-1.957 3.495-4.394 6.732-7.282 9.68 2.304-.306 4.915-.358 7.608-.358 2.694 0 5.305.053 7.608.358-2.888-2.947-5.325-6.185-7.282-9.68-.027-.047-.107-.192-.325-.192z"/><path d="m128 137.844c-8.473 0-16.713-3.049-23.203-8.584-6.146-5.244-9.816-12.162-9.816-18.507 0-8.958 6.847-15.4 19.28-18.143.9-.198 1.834.114 2.435.812.6.698.768 1.669.437 2.528-.044.115-.05.174-.05.22 0 2.326 5.279 7.445 10.918 7.445s10.918-5.12 10.918-7.445c0-.04-.006-.096-.048-.212-.281-.768-.168-1.625.302-2.295.468-.667 1.231-1.063 2.046-1.063h.011l.229.001c.182.001.363.021.541.062 12.266 2.774 19.021 9.198 19.021 18.09-.002 12.528-14.425 27.091-33.021 27.091zm-15.593-39.587c-5.584 1.695-12.426 5.252-12.426 12.496 0 10.006 12.498 22.092 28.019 22.092s28.019-12.085 28.019-22.092c0-7.267-6.892-10.82-12.424-12.501-1.604 5.277-8.89 10.364-15.595 10.364-6.703 0-13.987-5.084-15.593-10.359z"/><path d="m128 108.616c-7.587 0-15.918-6.514-15.918-12.445 0-6.938 9.965-6.938 15.918-6.938s15.918 0 15.918 6.938c0 5.931-8.331 12.445-15.918 12.445zm0-14.383c-9.5 0-10.918 1.214-10.918 1.938 0 2.326 5.279 7.445 10.918 7.445s10.918-5.12 10.918-7.445c0-.724-1.418-1.938-10.918-1.938z"/><path d="m122.1 43.446c-.302 0-.605-.039-.903-.118-5.694-1.522-10.628-4.139-14.667-7.779-2.712-2.445-3.99-6.061-3.417-9.673.57-3.592 2.887-6.618 6.199-8.093 17.813-7.938 34.125-.095 40.955 5.791 3.511 3.025 6.51 4.597 8.409 5.383 1.392.576 2.267 1.976 2.177 3.484-.09 1.515-1.132 2.808-2.591 3.216-3.911 1.094-8.693 1.488-12.181 1.621.439 1.005.393 2.176-.147 3.147-.615 1.106-1.783 1.808-3.05 1.831-6.498.126-13.296-1.443-17.242-2.551.059 1.12-.418 2.209-1.284 2.927-.642.532-1.444.814-2.258.814zm2.834-24.032c-4.276 0-8.869.834-13.586 2.937-1.786.796-2.987 2.366-3.295 4.309-.311 1.963.354 3.85 1.826 5.176 2.972 2.679 6.536 4.714 10.618 6.067-.06-1.145.436-2.247 1.337-2.962.923-.732 2.145-.96 3.271-.607 2.612.817 8.885 2.581 15.2 2.886-.401-.991-.338-2.127.193-3.074.619-1.103 1.789-1.795 3.055-1.807 1.823-.018 5.674-.125 9.397-.68-1.753-1.032-3.776-2.426-5.946-4.296-4.134-3.565-12.27-7.949-22.07-7.949zm31.826 14.161c.001 0 .002.001.003.001.001.002 0 0-.003-.001z"/><path d="m128 137.844c-3.772 0-7.52-.609-11.145-1.811-25.559-2.62-35.875-13.897-39.093-18.542l-1.582.593c-.967.361-2.058.092-2.745-.68-5.589-6.281-5.916-14.586-5.622-18.944-.61-.115-1.162-.455-1.54-.961-.472-.632-.618-1.45-.394-2.207 1.396-4.707 3.88-8.984 7.382-12.712 2.376-2.53 3.685-5.979 3.685-9.71v-1.211c0-18.956 10.547-36.15 27.524-44.874.708-.363 1.545-.369 2.256-.015.712.354 1.212 1.025 1.35 1.808.221 1.268.845 2.395 1.802 3.258 2.971 2.678 6.535 4.714 10.617 6.067-.06-1.145.436-2.247 1.337-2.962.923-.732 2.145-.96 3.271-.607 2.612.817 8.885 2.581 15.2 2.886-.401-.991-.338-2.127.193-3.074.619-1.103 1.789-1.795 3.055-1.807 2.724-.026 7.935-.218 12.229-1.211.727-.166 1.488-.003 2.08.449 12.666 9.671 19.931 24.28 19.931 40.083 0 3.794 1.549 7.456 4.361 10.311 3.813 3.872 6.494 8.354 7.967 13.323.224.756.078 1.574-.394 2.207-.378.506-.93.846-1.54.961.294 4.358-.033 12.664-5.622 18.945-.688.771-1.78 1.039-2.745.679l-1.582-.593c-3.218 4.645-13.535 15.922-39.093 18.542-3.623 1.2-7.371 1.809-11.143 1.809zm-49.184-25.918c.938 0 1.831.531 2.257 1.424.011.022 1.878 3.723 7.25 7.73 5.002 3.731 14.148 8.496 29.311 10.006.19.019.377.06.558.121 6.38 2.172 13.237 2.172 19.617 0 .181-.062.368-.102.558-.121 29.165-2.905 36.49-17.588 36.561-17.736.558-1.171 1.918-1.721 3.133-1.265l1.813.68c4.844-6.842 3.074-16.177 3.054-16.277-.145-.734.046-1.494.521-2.072.224-.272.499-.49.806-.645-1.313-3.021-3.211-5.801-5.665-8.293-3.739-3.796-5.798-8.705-5.798-13.82 0-13.854-6.207-26.694-17.069-35.407-3.323.653-6.913.921-9.642 1.026.44 1.005.393 2.176-.147 3.148-.615 1.106-1.783 1.808-3.05 1.831-6.498.126-13.296-1.443-17.242-2.551.059 1.12-.418 2.209-1.284 2.927-.88.73-2.062.99-3.161.696-5.694-1.522-10.628-4.139-14.667-7.779-.942-.85-1.712-1.836-2.291-2.925-13.822 8.211-22.293 22.918-22.293 39.035v1.211c0 5.008-1.79 9.672-5.04 13.133-2.21 2.354-3.939 4.957-5.162 7.769.307.155.582.373.805.645.475.578.666 1.338.521 2.072-.019.095-1.753 9.466 3.055 16.276l1.812-.679c.291-.109.587-.16.879-.16z"/><path d="m171.729 56.135c-.994 0-1.92-.596-2.312-1.553-3.08-7.516-8.125-14.097-14.59-19.033-.77-.588-1.131-1.568-.927-2.515.054-.249.144-.483.265-.698-1.764-.947-3.907-2.305-6.261-4.231-.895-.732-1.171-1.983-.667-3.024 3.805-7.864 11.597-13.822 21.94-16.777 8.21-2.346 14.375-4.946 17.829-7.521 1.055-.787 2.427-.997 3.672-.559 1.253.439 2.202 1.469 2.538 2.754 1.079 4.13 2.376 11.468.606 18.696l1.706-.341c.839-.166 1.708.106 2.299.727.592.62.824 1.5.616 2.332-.084.339-1.714 6.659-6.268 11.332.598.234 1.087.692 1.359 1.283.317.689.304 1.484-.036 2.163-.263.526-6.605 12.932-20.6 16.749-.135.037-.273.071-.412.104l-.152.037c-.201.051-.404.075-.605.075zm-11.211-22.385c5.335 4.676 9.642 10.428 12.622 16.866 7.238-2.485 11.89-7.746 14.185-10.972l-1.424-.356c-1.015-.254-1.765-1.113-1.878-2.152-.114-1.04.431-2.041 1.367-2.509 3.251-1.625 5.395-4.876 6.673-7.5l-1.498.3c-.914.181-1.858-.16-2.442-.89-.584-.729-.712-1.724-.333-2.578 2.88-6.479 1.842-14.172.934-18.282-4.049 2.646-10.15 5.143-18.172 7.435-8.01 2.289-14.399 6.747-17.851 12.388 2.493 1.828 4.576 2.876 5.977 3.457 1.392.576 2.267 1.976 2.177 3.483-.029.464-.147.907-.337 1.31z"/><path d="m207.012 222.578c-2.169 0-4.422-.094-6.754-.282-.78-.063-1.485-.487-1.906-1.146s-.509-1.477-.238-2.211c1.793-4.86.662-10.055-.602-13.556-.244-.675-.186-1.423.16-2.052s.945-1.08 1.646-1.236c3.981-.891 7.042-2.733 9.098-5.476.41-.548 1.027-.903 1.706-.983.682-.08 1.362.121 1.889.557 10.74 8.896 9.861 18.613 8.382 23.613-.264.892-1.001 1.563-1.914 1.743-3.479.685-7.318 1.029-11.467 1.029zm-3.334-5.076c4.489.199 8.606.005 12.29-.584 1.147-5.545-.644-10.662-5.338-15.252-2.059 2.03-4.603 3.562-7.604 4.578.882 3.237 1.416 7.198.652 11.258z"/><path d="m240.93 202.323c-.958 0-1.838-.549-2.255-1.423-5.883-12.319-18.939-13.407-24.278-13.335-.679.029-1.344-.256-1.824-.744-.48-.487-.74-1.15-.718-1.834.012-.39.023-.782.023-1.187 0-2.741-.422-5.896-1.292-9.646-.27-1.165.323-2.358 1.414-2.846 12.788-5.725 23.517-4.595 30.267-2.641.913.265 1.596 1.023 1.765 1.958 2.138 11.878 1.894 21.963-.724 29.975-.317.972-1.194 1.652-2.214 1.718-.056.003-.111.005-.164.005zm-24.076-19.717c6.137.295 16.255 2.202 23.036 10.809.922-5.814.752-12.624-.512-20.342-5.625-1.358-13.798-1.841-23.476 2.012.556 2.764.87 5.248.952 7.521z"/><path d="m207.266 157.812c-.173 0-.347-.018-.521-.055-.845-.18-1.538-.784-1.831-1.596-.51-1.413-1.031-2.842-1.557-4.284-1.281-3.511-2.604-7.142-3.868-10.809-.297-.864-.1-1.821.515-2.497 2.896-3.182 13.584-13.328 29.542-10.215.963.188 1.727.921 1.954 1.875.684 2.875 1.655 5.845 2.888 8.83.884 2.14 1.746 4.334 2.56 6.522.311.833.155 1.769-.409 2.457-.563.688-1.451 1.025-2.327.885-4.519-.718-16.019-1.368-25.144 8.12-.477.495-1.13.767-1.802.767zm-2.55-16.933c1.097 3.14 2.234 6.257 3.338 9.285.092.252.184.504.275.755 7.902-6.518 16.69-7.561 22.493-7.336-.347-.877-.7-1.75-1.057-2.613-1.104-2.674-2.017-5.345-2.721-7.962-10.997-1.512-18.717 4.293-22.328 7.871z"/><path d="m227.974 118.911c-.611 0-1.212-.224-1.68-.648-9.974-9.044-24.47-4.304-30.24-1.847-.717.306-1.536.26-2.215-.126-.678-.385-1.138-1.065-1.242-1.838-1.211-8.956-.777-16.721 1.327-23.737.229-.767.812-1.376 1.567-1.642 21.715-7.612 34.401 5.956 38.847 12.144.567.789.625 1.835.15 2.683-2.208 3.935-3.563 8.23-4.027 12.767-.096.938-.711 1.742-1.592 2.08-.291.11-.594.164-.895.164zm-16.351-10.953c4.811 0 9.889 1.015 14.539 3.945.679-3.13 1.746-6.141 3.191-9-4.97-6.325-14.931-14.58-30.989-9.519-1.368 5.167-1.754 10.84-1.172 17.229 3.753-1.319 8.915-2.655 14.431-2.655z"/><path d="m241.419 94.219c-.285 0-.573-.049-.85-.149-.851-.308-1.469-1.051-1.617-1.944l-.028-.15c-2.531-15.82-15.168-21.401-22.475-23.321-.969-.254-1.692-1.062-1.838-2.053s.313-1.973 1.167-2.497c1.864-1.142 3.805-2.221 5.769-3.207 9.202-4.62 20.517-1.232 25.758 7.708 4.806 8.198 3.018 18.713-4.251 25.003-.46.4-1.043.61-1.635.61zm-18.231-28.546c6.847 2.861 15.911 8.785 19.561 20.681 2.835-4.578 3.051-10.433.244-15.22-3.912-6.673-12.346-9.206-19.202-5.768-.201.102-.402.204-.603.307z"/></svg>