<svg enable-background="new 0 0 256 256" height="512" viewBox="0 0 256 256" width="512" xmlns="http://www.w3.org/2000/svg"><path d="m181.837 169.335c-5.237-3.389-11.803-3.823-17.649-5.997-5.076-1.887-9.637-5.138-13.077-9.321-2.696-3.277-4.739-7.117-7.362-10.418-.875.448-1.741.917-2.582 1.436-8.623 5.311-18.554 8.343-29.13 8.343s-20.507-3.032-29.13-8.343c-.841-.518-1.707-.988-2.582-1.436-2.623 3.302-4.666 7.141-7.362 10.419-3.44 4.183-8.001 7.434-13.077 9.321-5.846 2.174-12.412 2.608-17.649 5.997-1.283.831-2.594 2.303-1.984 3.705.277.635.894 1.055 1.526 1.34 2.55 1.151 6.09.915 7.443 3.364.24.434.385.927.709 1.301.413.476 1.068.69 1.698.695 2.897.021 4.35-3.491 6.788-5.057 1.079-.693 2.356-.992 3.598-1.313 6.221-1.609 12.155-4.061 17.945-6.863-.425 3.078-.65 6.263-.65 9.524 0 8.178 1.405 15.874 3.875 22.608-.722 2.151-1.324 4.33-1.682 6.557-1.367 8.505.791 17.102 1.948 25.632.465 3.425.757 6.975-.366 10.268-.802 2.353-2.481 4.559-4.725 5.822-2.325 1.308-2.531 4.438-.15 5.658.171.088.347.167.525.238 2.072.823 4.42.731 6.672.593 2.594-.159 5.233-.369 7.642-1.269 2.41-.9 4.595-2.603 5.36-4.892.783-2.346-.009-4.855-.248-7.299-.265-2.707.161-5.427.586-8.117.579-3.667 1.159-7.333 1.738-11 3.592 1.983 7.483 3.077 11.549 3.077 4.067 0 7.957-1.093 11.55-3.077.579 3.667 1.159 7.333 1.738 11 .425 2.69.851 5.41.586 8.117-.239 2.444-1.032 4.954-.248 7.299.765 2.289 2.951 3.992 5.36 4.892s5.048 1.11 7.642 1.269c2.252.138 4.6.23 6.672-.593.178-.071.353-.15.525-.238 2.381-1.22 2.175-4.35-.15-5.658-2.244-1.263-3.923-3.469-4.725-5.822-1.122-3.294-.83-6.843-.366-10.268 1.157-8.531 3.315-17.128 1.948-25.632-.358-2.228-.96-4.407-1.682-6.557 2.471-6.734 3.875-14.43 3.875-22.608 0-3.262-.225-6.446-.65-9.524 5.791 2.802 11.725 5.254 17.945 6.863 1.242.321 2.519.62 3.598 1.313 2.438 1.565 3.891 5.078 6.788 5.057.63-.005 1.285-.218 1.698-.695.324-.374.47-.867.709-1.301 1.353-2.449 4.893-2.213 7.443-3.364.632-.285 1.249-.705 1.526-1.34.614-1.403-.696-2.875-1.979-3.706z" fill="#ffc097"/><path d="m112.036 153.378c-3.798 0-7.512-.397-11.113-1.145-4.045 5.51-6.636 13.956-6.636 23.432 0 16.602 7.946 30.061 17.748 30.061s17.749-13.459 17.749-30.061c0-9.476-2.591-17.922-6.636-23.432-3.6.748-7.313 1.145-11.112 1.145z" fill="#f4dbce"/><path d="m165.656 174.683c-1.079-.693-2.356-.992-3.598-1.313-6.221-1.609-12.155-4.062-17.945-6.863.425 3.078.65 6.263.65 9.524 0 4.199-.376 8.268-1.071 12.148 1.643-3.147 3.59-6.1 6.36-8.27 4.549-3.563 10.582-4.463 16.389-4.633-.253-.215-.512-.417-.785-.593z" fill="#f4dbce"/><path d="m79.311 176.032c0-3.262.225-6.446.65-9.524-5.791 2.802-11.724 5.254-17.945 6.863-1.242.321-2.519.62-3.598 1.313-.274.176-.534.379-.786.596 5.785.176 11.788 1.082 16.318 4.631 2.836 2.222 4.81 5.266 6.478 8.498-.723-3.95-1.117-8.095-1.117-12.377z" fill="#f4dbce"/><path d="m139.474 7.477s-4.561 4.495-16.735 1.968c-9.559-1.984-20.726-4.302-28.426 2.441-4.881 4.275-4.674 12.033.497 15.953 3.068 2.326 7.702 4.619 14.688 6.069 19.131 3.971 24.808-10.27 24.808-10.27s-8.023 1.509-13.93-.624c-.001 0 10.992-2.707 19.098-15.537z" fill="#ffc097"/><path d="m177.628 87.196c-3.577-4.69-6.138-10.109-7.425-15.865-4.728-21.14-18.667-38.263-36.845-45.909-2.278 3.688-9.019 11.567-23.862 8.486-6.986-1.45-11.62-3.743-14.688-6.069-1.118-.848-1.99-1.882-2.643-3.015-18.887 7.329-33.442 24.807-38.295 46.507-1.287 5.756-3.848 11.175-7.425 15.865-4.194 5.499-6.686 12.364-6.686 19.815 0 16.195 11.755 29.602 27.116 32.25 5.651.974 11.149 2.766 16.032 5.774 8.623 5.311 18.554 8.343 29.13 8.343 10.577 0 20.507-3.032 29.13-8.343 4.883-3.008 10.382-4.799 16.033-5.774 15.357-2.649 27.115-16.052 27.115-32.25-.001-7.45-2.493-14.316-6.687-19.815z" fill="#ffc097"/><path d="m238.612 140.592c-11.545-8.12-27.934-5.968-39.944 1.446-9.776 6.035-17.298 14.915-24.225 24.173 2.603.741 5.124 1.654 7.395 3.123 1.283.831 2.594 2.303 1.983 3.705-.277.635-.894 1.055-1.526 1.34-2.55 1.151-6.09.915-7.443 3.364-.24.434-.385.927-.709 1.301-.413.476-1.068.69-1.698.695-2.222.016-3.596-2.045-5.215-3.713-3.209 4.243-6.723 8.273-11.304 10.894-3.705 2.12-8.313 3.053-12.432 2.267-.646 3.308-1.515 6.478-2.606 9.452.722 2.151 1.324 4.33 1.682 6.557.38 2.364.481 4.736.413 7.111 10.838 5.744 24.057 8.092 37.038 6.387 14.749-1.937 24.9-13.882 33.415-25.543 5.269-7.214 10.81-14.978 19.149-18.182 5.361-2.06 12.121-1.063 16.5 2.273 1.853 1.412 4.533.13 4.419-2.198-.661-13.439-4.216-26.943-14.892-34.452z" fill="#ffc097"/><path d="m123.198 116.237c0 3.427-5.722 8.273-11.162 8.273s-11.162-4.846-11.162-8.273 5.722-3.691 11.162-3.691 11.162.264 11.162 3.691z" fill="#fd605b"/><path d="m190.839 2.513c-24.916-.679-38.147 25.522-41.432 33.056 8.699 7.674 15.401 17.969 19.158 29.802 21.594-.645 25.896-25.383 22.735-41.188-1.749-8.743-.075-14.064 1.925-17.154 1.235-1.909-.113-4.454-2.386-4.516z" fill="#f98080"/><path d="m55.509 65.371c3.756-11.832 10.463-22.118 19.16-29.794-3.28-7.524-16.511-33.743-41.435-33.063-2.273.062-3.621 2.607-2.386 4.515 2 3.09 3.673 8.411 1.925 17.154-3.162 15.805 1.141 40.545 22.736 41.188z" fill="#f98080"/><g fill="#7d3d1a"><path d="m190.839 2.513c-24.916-.679-38.147 25.522-41.432 33.056 3.041 2.683 5.829 5.693 8.345 8.97 4.016-3.049 9.345-8.972 13.443-20.356 5.561-15.447 16.583-17.219 21.989-17.087.014-.022.027-.046.041-.067 1.235-1.909-.113-4.454-2.386-4.516z"/><path d="m52.878 24.183c4.098 11.382 9.425 17.305 13.441 20.354 2.514-3.277 5.31-6.277 8.35-8.96-3.28-7.524-16.511-33.743-41.435-33.063-2.273.062-3.621 2.607-2.386 4.515.014.021.027.045.041.067 5.406-.133 16.428 1.64 21.989 17.087z"/><path d="m109.497 33.908c-2.844-.59-5.279-1.325-7.397-2.139.231 24.268 4.59 43.619 9.936 43.619 5.194 0 9.455-18.265 9.906-41.557-3.315.889-7.403 1.124-12.445.077z"/><path d="m178.628 88.622c-.327-.48-.649-.964-1-1.425-3.577-4.69-6.138-10.109-7.425-15.865-3.469-15.511-11.909-28.841-23.332-37.87 1.315 6.257 1.025 12.851-.927 18.942-3.065 9.564-9.843 17.425-16.611 24.845-2.198 2.409-4.433 4.831-6.032 7.673-2.674 4.755-3.355 10.247-3.488 15.767-.054 2.231 2.187 3.788 4.239 2.911 5.251-2.245 11.78-1.826 17.707-1.542 6.091.291 12.278.22 18.17-1.353 7.289-1.948 13.878-6.289 18.699-12.083z"/><path d="m100.022 103.599c2.052.877 4.293-.68 4.239-2.911-.133-5.519-.814-11.012-3.488-15.767-1.599-2.842-3.834-5.264-6.032-7.673-6.768-7.42-13.546-15.281-16.611-24.845-1.952-6.091-2.242-12.686-.927-18.943-11.422 9.032-19.864 22.361-23.333 37.871-1.287 5.756-3.848 11.175-7.425 15.865-.352.461-.673.945-1 1.425 4.822 5.795 11.41 10.136 18.7 12.082 5.892 1.573 12.079 1.644 18.17 1.353 5.927-.283 12.455-.701 17.707 1.543z"/><path d="m238.612 140.592c-10.833-7.619-25.929-6.194-37.673.136 4.838.733 9.602 1.955 14.184 3.672-2.571 2.281-4.893 4.842-6.914 7.622 3.794-.008 7.588.689 11.132 2.044-2.789 2.867-5.419 5.889-7.873 9.048 3.891-.352 7.839-.072 11.642.826-3.473 2.827-6.503 6.197-8.945 9.951 5.417-.311 10.887.447 16.031 2.171.773-.401 1.564-.775 2.389-1.092 5.361-2.06 12.121-1.063 16.5 2.273 1.853 1.412 4.533.13 4.419-2.198-.661-13.44-4.216-26.944-14.892-34.453z"/></g><path d="m118.664 137.104c-5.033 0-9.127-4.095-9.127-9.127v-2.922c0-1.381 1.119-2.5 2.5-2.5s2.5 1.119 2.5 2.5v2.922c0 2.275 1.852 4.127 4.127 4.127s4.127-1.852 4.127-4.127c0-1.381 1.119-2.5 2.5-2.5s2.5 1.119 2.5 2.5c.001 5.033-4.094 9.127-9.127 9.127z"/><path d="m105.409 137.104c-5.033 0-9.127-4.095-9.127-9.127 0-1.381 1.119-2.5 2.5-2.5s2.5 1.119 2.5 2.5c0 2.275 1.852 4.127 4.127 4.127s4.127-1.852 4.127-4.127v-2.922c0-1.381 1.119-2.5 2.5-2.5s2.5 1.119 2.5 2.5v2.922c.001 5.033-4.094 9.127-9.127 9.127z"/><path d="m112.037 127.01c-6.512 0-13.662-5.638-13.662-10.772 0-6.191 8.552-6.191 13.662-6.191 5.109 0 13.661 0 13.661 6.191 0 5.134-7.15 10.772-13.661 10.772zm0-11.964c-6.834 0-8.368.736-8.674 1.175.012 1.634 4.13 5.789 8.674 5.789 4.543 0 8.661-4.155 8.661-5.772 0-.036-.003-.052-.003-.052-.291-.404-1.825-1.14-8.658-1.14z"/><path d="m168.565 67.871c-1.086 0-2.052-.703-2.382-1.743-3.585-11.292-9.958-21.211-18.429-28.684-.814-.718-1.072-1.879-.638-2.874 3.614-8.288 17.469-35.3 43.792-34.556 1.956.053 3.74 1.166 4.655 2.904.927 1.761.838 3.805-.239 5.468-1.615 2.494-3.198 7.175-1.572 15.306 3.18 15.898-1.513 28.86-6.498 35.13-4.589 5.772-10.852 8.816-18.614 9.048-.025.001-.05.001-.075.001zm-16.13-32.929c8.008 7.483 14.151 17.03 17.893 27.807 5.375-.568 9.746-2.931 13.012-7.038 6.467-8.134 7.426-21.449 5.508-31.038-1.955-9.777.16-15.73 2.278-19.003.085-.133.089-.274.012-.422-.08-.151-.203-.23-.367-.235-21.713-.577-34.145 20.982-38.336 29.929z"/><path d="m157.754 47.039c-.751 0-1.493-.337-1.985-.978-2.441-3.18-5.138-6.079-8.016-8.617-.814-.718-1.072-1.879-.638-2.874 3.614-8.288 17.469-35.3 43.792-34.556 1.956.053 3.74 1.166 4.655 2.904.927 1.761.838 3.805-.239 5.468-.473.73-1.327 1.267-2.201 1.208-5.207-.124-14.635 1.711-19.576 15.435-4.364 12.122-10.176 18.383-14.284 21.501-.45.343-.981.509-1.508.509zm-5.319-12.096c1.988 1.861 3.886 3.88 5.672 6.033 3.34-3.099 7.435-8.469 10.737-17.641 4.644-12.9 13.005-17.053 19.139-18.277-20.025 1.215-31.541 21.329-35.548 29.885z"/><path d="m55.51 67.871c-.025 0-.05 0-.075-.001-7.762-.231-14.025-3.275-18.615-9.047-4.985-6.27-9.678-19.231-6.499-35.131 1.626-8.131.043-12.811-1.571-15.306-1.077-1.662-1.167-3.706-.239-5.468.915-1.738 2.699-2.852 4.655-2.904.344-.01.69-.014 1.029-.014 25.677 0 39.199 26.395 42.766 34.576.434.994.176 2.155-.637 2.873-8.479 7.484-14.852 17.4-18.431 28.677-.331 1.042-1.297 1.745-2.383 1.745zm-21.332-62.87c-.291 0-.582.004-.876.012-.164.005-.287.084-.367.235-.078.147-.074.289.012.421 2.119 3.274 4.233 9.228 2.278 19.004-1.918 9.589-.958 22.905 5.509 31.038 3.267 4.107 7.638 6.47 13.013 7.038 3.738-10.763 9.882-20.308 17.896-27.8-4.135-8.826-16.26-29.948-37.465-29.948z"/><path d="m66.317 47.037c-.527 0-1.058-.166-1.51-.509-4.107-3.118-9.918-9.378-14.281-21.499-4.941-13.722-14.379-15.566-19.576-15.434-.906.012-1.7-.418-2.17-1.157-.017-.025-.053-.086-.069-.113-1.038-1.6-1.127-3.644-.2-5.405.915-1.738 2.699-2.852 4.655-2.904.344-.01.69-.014 1.029-.014 25.677 0 39.199 26.395 42.766 34.576.434.994.176 2.155-.637 2.873-2.913 2.572-5.612 5.468-8.021 8.608-.492.641-1.235.978-1.986.978zm-30.226-41.978c6.134 1.225 14.495 5.377 19.139 18.277 3.301 9.171 7.396 14.541 10.735 17.639 1.774-2.135 3.673-4.15 5.677-6.025-4.008-8.557-15.527-28.673-35.551-29.891z"/><path d="m115.906 37.105c-2.11 0-4.41-.229-6.917-.749-6.475-1.345-11.754-3.54-15.69-6.525-3.044-2.308-4.868-5.839-5.004-9.688-.137-3.89 1.456-7.584 4.371-10.137 8.638-7.563 20.805-5.037 30.582-3.009 10.453 2.172 14.474-1.304 14.513-1.34.905-.891 2.313-.943 3.303-.146.989.797 1.203 2.229.525 3.302-3.987 6.311-8.634 10.326-12.508 12.827 2.067-.057 3.842-.285 4.763-.458.896-.169 1.813.164 2.392.868.58.704.729 1.668.392 2.515-.058.142-5.205 12.539-20.722 12.54zm-7.944-27.209c-4.489 0-8.679.961-12.003 3.871-1.779 1.558-2.752 3.817-2.667 6.198.083 2.341 1.186 4.484 3.028 5.881 3.34 2.533 7.944 4.422 13.686 5.613 10.427 2.17 16.317-1.575 19.323-4.824-2.938.095-6.606-.115-9.802-1.27-1.036-.374-1.705-1.383-1.647-2.482.058-1.101.829-2.033 1.899-2.297.071-.018 6.24-1.66 12.472-7.979-2.653.248-5.964.127-10.019-.714-4.653-.965-9.622-1.997-14.27-1.997z"/><path d="m112.037 155.878c-10.658 0-21.185-3.014-30.441-8.714-4.229-2.605-9.326-4.436-15.146-5.439-16.914-2.915-29.191-17.515-29.191-34.714 0-7.78 2.489-15.156 7.198-21.33 3.371-4.42 5.782-9.57 6.973-14.896 5.036-22.516 19.926-40.568 39.832-48.292 1.151-.445 2.454.014 3.07 1.083.519.9 1.188 1.664 1.987 2.271 3.34 2.533 7.944 4.422 13.687 5.613 12.869 2.676 18.822-3.459 21.226-7.352.647-1.047 1.963-1.464 3.096-.991 19.115 8.041 33.438 25.86 38.315 47.668 1.19 5.325 3.602 10.476 6.973 14.895v.001c4.709 6.175 7.199 13.551 7.199 21.33 0 17.197-12.276 31.797-29.19 34.714-5.821 1.004-10.917 2.834-15.147 5.439-9.257 5.7-19.783 8.714-30.441 8.714zm-20.77-127.986c-17.443 7.491-30.441 23.79-34.957 43.985-1.348 6.024-4.071 11.847-7.877 16.836-4.039 5.296-6.174 11.623-6.174 18.298 0 14.759 10.531 27.285 25.041 29.786 6.452 1.113 12.144 3.169 16.918 6.109 8.467 5.215 18.087 7.972 27.819 7.972s19.352-2.757 27.819-7.972c4.774-2.94 10.467-4.996 16.919-6.109 14.509-2.502 25.04-15.029 25.04-29.786 0-6.675-2.135-13.002-6.174-18.299v.001c-3.806-4.989-6.529-10.812-7.877-16.836-4.365-19.521-16.828-35.571-33.53-43.335-3.377 4.375-10.959 10.776-25.244 7.814-6.475-1.345-11.754-3.54-15.69-6.525-.752-.568-1.43-1.217-2.033-1.939z"/><path d="m112.037 77.888c-4.036 0-7.085-4.794-9.324-14.655-1.894-8.339-2.999-19.505-3.112-31.44-.008-.828.395-1.605 1.075-2.078.681-.472 1.551-.576 2.323-.278 2.134.822 4.491 1.503 7.006 2.024 4.161.864 7.959.85 11.289-.044.758-.201 1.569-.037 2.188.446.619.484.974 1.231.958 2.017-.086 4.504-1.173 44.008-12.403 44.008zm-7.375-42.615c.61 23.498 4.924 36.641 7.375 37.6 2.332-.924 6.55-13.507 7.323-35.994-3.224.412-6.699.239-10.371-.522-1.492-.31-2.938-.672-4.327-1.084z"/><path d="m122.854 106.347c-1.086 0-2.162-.322-3.094-.953-1.579-1.07-2.494-2.852-2.447-4.766.119-4.943.66-11.335 3.809-16.932 1.7-3.022 3.99-5.532 6.205-7.959l.158-.174c6.833-7.491 13.205-14.958 16.078-23.923 1.808-5.639 2.105-11.748.861-17.665-.216-1.03.236-2.086 1.13-2.64.895-.556 2.042-.488 2.867.164 12.091 9.558 20.693 23.51 24.222 39.285 1.19 5.324 3.602 10.475 6.973 14.896.323.423.624.864.924 1.306l.153.226c.629.923.571 2.15-.143 3.008-5.219 6.272-12.314 10.854-19.977 12.899-6.55 1.748-13.248 1.705-18.934 1.435l-.705-.034c-5.598-.271-11.386-.553-15.901 1.379-.701.299-1.442.448-2.179.448zm27.295-66.66c.176 4.579-.437 9.148-1.825 13.479-3.181 9.924-9.925 17.852-17.145 25.767l-.159.175c-2.119 2.322-4.121 4.516-5.541 7.04-2.607 4.635-3.062 10.238-3.167 14.602-.007.285.156.438.253.505.157.106.326.122.503.047 5.573-2.383 12.232-2.062 18.108-1.775l.701.034c5.301.252 11.517.301 17.406-1.271 6.076-1.623 11.75-5.086 16.162-9.833-3.705-4.933-6.358-10.658-7.683-16.579-2.784-12.455-8.955-23.673-17.613-32.191z"/><path d="m101.218 106.347c-.736 0-1.477-.148-2.179-.448-4.515-1.931-10.303-1.649-15.901-1.379l-.704.034c-5.686.271-12.383.314-18.934-1.435-7.664-2.046-14.759-6.627-19.977-12.899-.714-.857-.772-2.086-.143-3.008l.158-.232c.299-.439.599-.879.921-1.301 3.37-4.418 5.781-9.568 6.972-14.894 3.526-15.771 12.128-29.723 24.22-39.286.826-.652 1.972-.718 2.867-.165.895.555 1.347 1.61 1.131 2.641-1.244 5.918-.946 12.026.861 17.666 2.874 8.966 9.245 16.432 16.078 23.923l.158.174c2.215 2.427 4.505 4.937 6.205 7.959 3.148 5.596 3.689 11.988 3.809 16.932.046 1.914-.869 3.695-2.447 4.766-.933.629-2.009.952-3.095.952zm-.214-5.046c.179.077.346.061.503-.047.098-.066.261-.22.254-.505-.105-4.364-.561-9.968-3.168-14.602-1.42-2.524-3.422-4.718-5.541-7.04l-.159-.175c-7.22-7.915-13.964-15.842-17.145-25.767-1.388-4.331-2-8.899-1.825-13.479-8.658 8.521-14.829 19.739-17.613 32.189-1.325 5.922-3.979 11.647-7.683 16.579 4.411 4.747 10.085 8.21 16.162 9.833 5.887 1.57 12.101 1.522 17.406 1.271l.7-.034c5.876-.284 12.535-.606 18.109 1.777z"/><path d="m79.291 94.889c-1.377 0-2.496-1.114-2.5-2.492-.015-4.772 3.855-8.668 8.627-8.683h.028c4.759 0 8.639 3.864 8.655 8.627.004 1.38-1.111 2.503-2.492 2.508-.003 0-.006 0-.008 0-1.377 0-2.496-1.114-2.5-2.492-.007-2.011-1.645-3.643-3.655-3.643-.004 0-.008 0-.012 0-2.015.007-3.649 1.651-3.643 3.667.004 1.381-1.111 2.504-2.492 2.508-.003 0-.006 0-.008 0z"/><path d="m132.472 94.889c-1.377 0-2.496-1.114-2.5-2.492-.008-2.312.886-4.488 2.515-6.128s3.8-2.548 6.112-2.555c2.308.002 4.488.887 6.128 2.515 1.64 1.63 2.547 3.8 2.555 6.112.004 1.381-1.111 2.504-2.492 2.508-.002 0-.005 0-.008 0-1.377 0-2.496-1.114-2.5-2.492-.003-.976-.386-1.893-1.079-2.58-.69-.686-1.604-1.062-2.576-1.062-.004 0-.008 0-.012 0-.976.003-1.893.386-2.581 1.079-.688.692-1.065 1.611-1.062 2.588.004 1.38-1.111 2.503-2.492 2.508-.002-.001-.005-.001-.008-.001z"/><path d="m112.037 208.228c-11.354 0-20.249-14.303-20.249-32.562 0-9.668 2.595-18.748 7.121-24.912.579-.788 1.564-1.171 2.523-.968 6.979 1.449 14.23 1.449 21.209 0 .959-.204 1.945.179 2.523.968 4.525 6.165 7.121 15.245 7.121 24.912 0 18.259-8.894 32.562-20.248 32.562zm-9.976-53.23c-3.365 5.283-5.272 12.709-5.272 20.668 0 14.939 6.983 27.562 15.249 27.562s15.249-12.622 15.249-27.562c0-7.958-1.908-15.384-5.273-20.668-6.593 1.168-13.362 1.168-19.953 0z"/><path d="m250.802 180.338c-1.139 0-2.27-.373-3.232-1.106-3.772-2.874-9.564-3.669-14.088-1.928-.654.251-1.353.57-2.134.977-.603.312-1.304.367-1.947.151-4.855-1.627-10.076-2.336-15.093-2.045-.944.062-1.833-.427-2.306-1.241-.473-.815-.447-1.828.067-2.618 1.624-2.496 3.479-4.818 5.545-6.941-1.966-.168-3.944-.162-5.92.018-.996.089-1.942-.419-2.419-1.291-.477-.874-.391-1.947.22-2.733 1.677-2.158 3.448-4.269 5.289-6.306-2.145-.504-4.337-.795-6.567-.752-.002 0-.004 0-.005 0-.939 0-1.799-.526-2.227-1.363-.428-.838-.349-1.845.204-2.606 1.302-1.792 2.726-3.499 4.256-5.105-3.208-.984-6.516-1.737-9.878-2.247-1.063-.161-1.905-.984-2.089-2.044s.331-2.118 1.277-2.629c13.849-7.463 29.667-7.455 40.297.021 9.734 6.846 15.101 19.084 15.951 36.375.1 2.021-.948 3.861-2.733 4.801-.785.409-1.629.612-2.468.612zm-12.167-8.952c4.309 0 8.643 1.337 11.965 3.869.143.108.263.085.338.044.07-.037.072-.058.068-.131-.771-15.673-5.424-26.617-13.833-32.531-7.372-5.185-17.809-6.091-27.99-2.749 2.318.614 4.595 1.339 6.816 2.171.821.307 1.421 1.022 1.582 1.884.16.862-.143 1.745-.799 2.327-1.275 1.132-2.487 2.337-3.628 3.607 2.413.354 4.78.974 7.079 1.854.786.301 1.367.976 1.548 1.797s-.063 1.679-.649 2.281c-1.479 1.521-2.92 3.095-4.312 4.711 2.307.123 4.602.452 6.864.987.927.219 1.649.945 1.862 1.874.213.928-.12 1.896-.859 2.498-2.041 1.66-3.909 3.508-5.585 5.521 3.673.214 7.359.878 10.89 1.971.589-.282 1.15-.524 1.696-.734 2.19-.843 4.565-1.251 6.947-1.251z"/><path d="m171.634 221.742c-10.521 0-20.865-2.479-29.823-7.226-.84-.445-1.355-1.329-1.328-2.28.07-2.435-.056-4.607-.382-6.643-.3-1.863-.818-3.878-1.584-6.158-.181-.539-.173-1.123.023-1.657 1.033-2.815 1.874-5.867 2.5-9.07.264-1.351 1.575-2.236 2.922-1.977 3.409.65 7.417-.089 10.722-1.98 4.37-2.5 7.786-6.576 10.551-10.232.44-.582 1.112-.942 1.84-.987.736-.036 1.44.23 1.948.754.312.322.617.657.919.991 1.021 1.127 1.751 1.886 2.38 1.957.01-.022.02-.046.031-.069.098-.213.197-.426.31-.63 1.433-2.593 4.113-3.229 6.267-3.741.873-.207 1.696-.403 2.335-.691l.001-.001c-.166-.19-.425-.432-.789-.667-2.212-1.431-4.754-2.257-6.721-2.817-.791-.226-1.421-.825-1.684-1.604s-.126-1.639.367-2.298c6.806-9.096 14.534-18.396 24.915-24.803 11.832-7.305 29.622-10.56 42.695-1.364 9.734 6.846 15.101 19.084 15.951 36.375.1 2.021-.948 3.861-2.733 4.801-1.844.97-4.026.782-5.697-.491-3.772-2.874-9.564-3.669-14.088-1.928-7.479 2.873-12.674 9.989-17.698 16.872l-.329.45c-9.203 12.602-19.825 24.539-35.108 26.547-2.9.379-5.814.567-8.713.567zm-26.132-10.953c10.237 5.061 22.317 6.984 34.193 5.427 14.087-1.851 23.76-13.637 31.722-24.539l.328-.449c5.198-7.12 11.089-15.189 19.943-18.592 6.152-2.363 13.753-1.312 18.912 2.619.143.108.263.085.338.044.07-.037.072-.058.068-.131-.771-15.673-5.424-26.617-13.833-32.531-11.21-7.884-26.756-4.914-37.193 1.528-8.64 5.334-15.434 12.986-21.426 20.763 1.513.576 3.111 1.319 4.64 2.308 2.787 1.806 3.932 4.476 2.918 6.803-.491 1.127-1.43 2.009-2.792 2.622-1.072.483-2.221.757-3.234.997-1.621.386-2.708.684-3.046 1.296-.052.094-.094.192-.139.289-.178.39-.422.923-.87 1.44-.85.98-2.152 1.548-3.572 1.557-.016 0-.032 0-.048 0-2.186 0-3.75-1.127-5.011-2.37-2.741 3.384-6.054 6.83-10.234 9.222-3.616 2.069-7.761 3.057-11.703 2.849-.538 2.338-1.185 4.593-1.934 6.736.707 2.211 1.202 4.223 1.508 6.124.304 1.887.457 3.858.465 5.988z"/><path d="m83.015 255.999c-1.772 0-3.51-.187-5.202-.859-.255-.103-.501-.214-.742-.337-1.87-.958-3.01-2.748-3.05-4.787-.042-2.148 1.151-4.169 3.114-5.274 1.603-.902 2.943-2.565 3.584-4.449.986-2.893.648-6.228.255-9.127-.25-1.847-.557-3.744-.852-5.579-1.09-6.763-2.217-13.756-1.087-20.785.306-1.902.8-3.914 1.507-6.125-2.443-6.977-3.732-14.785-3.732-22.645 0-1.8.067-3.603.2-5.394-5.192 2.318-9.836 3.979-14.37 5.152l-.251.065c-1.004.258-1.954.502-2.623.932-.626.401-1.26 1.103-1.932 1.845-1.456 1.608-3.265 3.607-6.177 3.607-.016 0-.031 0-.047 0-1.418-.009-2.72-.577-3.57-1.558-.448-.517-.691-1.05-.87-1.439-.044-.098-.086-.195-.138-.288-.338-.613-1.426-.911-3.047-1.297-1.013-.24-2.162-.514-3.237-.999-1.359-.611-2.299-1.493-2.789-2.62-1.014-2.328.131-4.998 2.917-6.802 3.653-2.364 7.764-3.396 11.739-4.392 2.247-.563 4.37-1.096 6.396-1.85 4.687-1.742 8.842-4.704 12.018-8.565 1.325-1.611 2.483-3.369 3.711-5.229 1.132-1.718 2.303-3.494 3.624-5.156.742-.934 2.037-1.214 3.097-.671 1.072.549 1.948 1.036 2.754 1.533 8.467 5.215 18.087 7.972 27.819 7.972s19.352-2.757 27.819-7.972c.804-.495 1.679-.982 2.754-1.533 1.059-.543 2.355-.263 3.097.671 1.321 1.662 2.492 3.438 3.624 5.156 1.228 1.86 2.386 3.618 3.711 5.229 3.176 3.861 7.332 6.823 12.018 8.564 2.027.755 4.15 1.287 6.397 1.851 3.975.996 8.086 2.027 11.739 4.392 2.786 1.805 3.93 4.475 2.917 6.802-.491 1.127-1.43 2.009-2.792 2.622-1.072.483-2.221.757-3.234.997-1.621.386-2.708.684-3.046 1.296-.052.094-.094.192-.139.289-.178.39-.422.923-.87 1.44-.85.98-2.152 1.548-3.572 1.557-.016 0-.032 0-.047 0-2.91 0-4.719-1.999-6.174-3.607-.671-.742-1.306-1.443-1.933-1.846-.669-.429-1.618-.673-2.623-.931l-.251-.065c-4.534-1.173-9.178-2.834-14.369-5.152.133 1.791.2 3.594.2 5.394 0 7.86-1.289 15.669-3.732 22.645.707 2.212 1.202 4.223 1.508 6.124 1.13 7.031.002 14.024-1.088 20.788-.295 1.835-.602 3.731-.852 5.577-.393 2.899-.73 6.235.255 9.127.642 1.884 1.982 3.548 3.584 4.449 1.963 1.105 3.157 3.126 3.115 5.274-.04 2.039-1.181 3.829-3.051 4.787-.24.123-.486.234-.736.335-2.5.993-5.093.93-7.753.767-2.873-.176-5.674-.418-8.364-1.423-3.416-1.274-5.915-3.623-6.856-6.441-.772-2.313-.421-4.572-.111-6.564.092-.592.186-1.184.243-1.771.235-2.402-.173-4.985-.567-7.483l-1.217-7.698c-6.224 2.504-12.98 2.504-19.203 0l-1.217 7.698c-.395 2.497-.803 5.077-.567 7.483.057.587.151 1.179.243 1.771.31 1.992.661 4.251-.112 6.564-.941 2.818-3.44 5.166-6.856 6.441-2.69 1.005-5.491 1.247-8.363 1.423-.857.052-1.707.094-2.548.094zm-3.055-91.992c.52 0 1.036.161 1.471.478.746.543 1.132 1.451 1.006 2.364-.416 3.012-.626 6.102-.626 9.183 0 7.59 1.287 15.109 3.723 21.747.196.534.204 1.119.022 1.657-.766 2.28-1.284 4.294-1.583 6.158-1.002 6.235.013 12.531 1.087 19.196.301 1.865.612 3.795.871 5.703.47 3.465.859 7.489-.477 11.411-1.042 3.062-3.18 5.684-5.865 7.194-.426.239-.573.58-.568.819.002.132.044.288.332.436.103.053.208.1.314.142 1.534.609 3.439.55 5.591.419 2.574-.158 4.872-.352 6.919-1.116 1.966-.734 3.41-1.983 3.864-3.342.388-1.161.157-2.644-.086-4.213-.107-.686-.212-1.371-.279-2.052-.297-3.042.162-5.943.605-8.75l1.738-11c.127-.805.639-1.497 1.371-1.855.731-.356 1.592-.336 2.306.058 6.648 3.667 14.033 3.669 20.683 0 .714-.393 1.575-.413 2.307-.058.732.358 1.244 1.051 1.371 1.855l1.738 11c.444 2.809.902 5.712.605 8.75-.067.681-.172 1.367-.279 2.053-.244 1.569-.475 3.051-.087 4.212.454 1.358 1.898 2.608 3.863 3.342 2.048.765 4.346.958 6.921 1.116 2.149.131 4.057.19 5.595-.421.101-.04.206-.087.308-.14.289-.147.33-.304.333-.436.005-.239-.142-.58-.568-.819-2.684-1.511-4.821-4.133-5.865-7.194-1.336-3.921-.946-7.946-.477-11.411.259-1.908.57-3.836.871-5.701 1.074-6.666 2.089-12.963 1.087-19.198-.3-1.863-.818-3.878-1.584-6.158-.181-.539-.173-1.123.023-1.657 2.435-6.637 3.722-14.157 3.722-21.747 0-3.084-.21-6.173-.626-9.183-.126-.913.261-1.821 1.006-2.364.746-.54 1.728-.632 2.559-.228 6.577 3.182 12.132 5.309 17.482 6.693l.244.062c1.28.329 2.732.702 4.078 1.565 1.187.763 2.118 1.791 2.939 2.699 1.02 1.126 1.75 1.885 2.377 1.956.01-.022.02-.046.031-.069.098-.213.197-.426.31-.63 1.433-2.593 4.113-3.229 6.267-3.741.873-.207 1.696-.403 2.335-.691l.001-.001c-.166-.19-.425-.432-.789-.667-2.957-1.913-6.494-2.801-10.238-3.739-2.28-.571-4.638-1.163-6.923-2.014-5.512-2.048-10.4-5.532-14.136-10.075-1.493-1.814-2.779-3.766-4.024-5.653-.713-1.083-1.402-2.127-2.113-3.127-.195.113-.382.226-.565.338-9.257 5.701-19.783 8.715-30.441 8.715s-21.185-3.014-30.441-8.714c-.183-.112-.371-.226-.565-.339-.711 1-1.4 2.044-2.113 3.127-1.245 1.888-2.531 3.839-4.024 5.653-3.736 4.543-8.624 8.026-14.137 10.076-2.285.85-4.643 1.441-6.923 2.013-3.745.939-7.282 1.826-10.239 3.739-.363.235-.623.477-.789.667.642.29 1.465.485 2.336.692 2.154.512 4.834 1.148 6.268 3.742.112.203.212.416.31.63.009.02.018.039.026.059.665-.096 1.385-.846 2.382-1.946.821-.908 1.752-1.937 2.938-2.698 1.346-.864 2.798-1.237 4.079-1.566l.244-.062c5.35-1.385 10.905-3.511 17.483-6.693.345-.169.717-.251 1.088-.251z"/><path d="m143.691 190.68c-.269 0-.541-.043-.808-.134-1.168-.399-1.871-1.592-1.653-2.807.684-3.821 1.031-7.76 1.031-11.708 0-3.084-.21-6.173-.626-9.183-.126-.913.261-1.821 1.006-2.364.746-.54 1.728-.632 2.559-.228 6.577 3.182 12.132 5.309 17.482 6.693l.244.062c1.28.329 2.732.702 4.078 1.565 0 .001.001.001.002.002.347.223.695.485 1.063.802.782.674 1.071 1.758.726 2.73s-1.252 1.634-2.283 1.664c-6.958.203-11.559 1.469-14.921 4.102-2.096 1.643-3.849 3.943-5.685 7.459-.439.847-1.305 1.345-2.215 1.345zm3.371-20.042c.133 1.791.2 3.594.2 5.394 0 1.012-.021 2.023-.063 3.032.424-.396.86-.769 1.311-1.121 2.309-1.81 4.934-2.982 7.574-3.746-2.87-.967-5.843-2.139-9.022-3.559z"/><path d="m80.427 190.908c-.914 0-1.783-.503-2.222-1.354-1.876-3.638-3.665-6.005-5.798-7.677-3.351-2.625-7.932-3.89-14.852-4.1-1.031-.031-1.938-.693-2.281-1.666-.344-.974-.054-2.058.729-2.729.369-.317.716-.579 1.06-.801 1.351-.867 2.803-1.24 4.083-1.569l.244-.062c5.35-1.385 10.905-3.511 17.483-6.693.831-.403 1.814-.314 2.559.228.746.543 1.132 1.451 1.006 2.364-.416 3.012-.626 6.102-.626 9.183 0 4.011.362 8.024 1.075 11.928.223 1.218-.48 2.416-1.653 2.815-.267.09-.539.133-.807.133zm-12.47-16.701c2.625.764 5.234 1.935 7.533 3.735.488.382.95.782 1.388 1.196-.045-1.035-.067-2.071-.067-3.107 0-1.8.067-3.603.2-5.394-3.192 1.425-6.176 2.602-9.054 3.57z"/></svg>