<svg enable-background="new 0 0 256 256" height="512" viewBox="0 0 256 256" width="512" xmlns="http://www.w3.org/2000/svg"><path d="m205.877 211.4c-1.004-1.569-2.116-3.013-3.362-4.258-5.543-5.543-12.849-13.101-19.148-21.919 0 0-5.47 2.421-14.428 3.627 5.612 7.265 11.678 13.527 16.443 18.293 11.086 11.086 12.093 37.288 12.093 37.288-8.062 0-8.062 9.07-8.062 9.07h16.125c3.286-8.213 1.218-33.145.339-42.101z" fill="#c16a44"/><path d="m116.498 198.758c-1.748-4.868-3.695-8.768-5.691-10.764-2.81-2.81-4.846-5.91-6.318-8.851 0 0-13.207-4.401-21.848-20.161-2.603 8.549 4.715 20.161 4.715 20.161 1.472 2.941 3.508 6.041 6.318 8.851 9.07 9.07 17.132 57.444 10.078 57.444s-7.055 8.062-7.055 8.062h16.125c3.724-19.862 4.007-41.239 3.676-54.742z" fill="#c16a44"/><path d="m239.3 147.178c-11.086 2.016-14.109-6.047-14.109-6.047-18.14-31.242-55.428-15.117-90.701-15.117-4.963 0-9.075-.91-12.498-2.454 1.925 3.932 2.588 8.418 1.596 12.814-.326 1.444-.814 2.848-1.481 4.18-1.881 3.75-3.691 6.164-3.691 6.164l-2.371-5.928s0 8.299-8.299 13.041-9.485 11.856-9.485 11.856c-11.856-5.928-18.969-17.784-18.969-17.784l-.413 2.479c7.775 22.814 25.611 28.761 25.611 28.761 1.472 2.941 3.508 6.041 6.318 8.851 9.07 9.07 17.132 57.444 10.078 57.444-7.055 0-7.055 8.062-7.055 8.062h16.125c6.047-32.249 3.045-68.53 3.045-68.53 28.218 10.078 50.367.252 50.367.252 6.299 8.818 13.605 16.377 19.148 21.919 11.086 11.086 12.093 37.288 12.093 37.288-8.062 0-8.062 9.07-8.062 9.07h16.125c4.031-10.078 0-45.351 0-45.351s-11.086-15.117-6.047-25.195 3.258-24.823 3.258-24.823c7.409 3.603 14.883-1.379 14.883-1.379l-2.519-2.52c5.037.001 7.053-7.053 7.053-7.053z" fill="#c16a44"/><path d="m138.178 57.168c-6.701-5.952-13.448-7.612-21.399-5.548-4.263 1.107-8.033 2.085-9.976 2.59 3.702 4.267 6.082 9.978 6.393 16.308 8.221 1.498 14.999-2.191 17.95-6.199 2.526-3.432 5.071-4.826 6.708-5.391.742-.257.911-1.239.324-1.76z" fill="#f98080"/><path d="m74.161 54.205c-1.949-.506-5.707-1.481-9.954-2.584-7.951-2.064-14.698-.404-21.399 5.548-.587.521-.419 1.503.323 1.759 1.638.566 4.182 1.959 6.708 5.391 2.947 4.004 9.714 7.691 17.923 6.205.312-6.336 2.694-12.05 6.399-16.319z" fill="#f98080"/><path d="m163.205 7.639c-.728-4.309-5.564-6.521-9.27-4.205l-.035.022c-1.937 1.22-3.055 3.42-2.848 5.7 1.123 12.398-4.529 13.019-8.535 14.083-1.49.396-2.972-.675-3.125-2.209l-.555-5.546c-.207-2.065-2.03-3.691-4.091-3.442-1.767.213-3.07 1.607-3.238 3.287l.182 9.044c.023 1.149-.73 2.169-1.835 2.484l-5.567 1.304c-1.408.402-2.81-.655-2.81-2.119v-5.985c0-1.821-1.366-3.434-3.183-3.546-1.927-.118-3.49 1.303-3.654 3.11l-.971 10.68c-.073.802-.588 1.488-1.328 1.806-10.553 4.546-14.261 10.621-15.5 15.001-.8 2.828 1.322 5.635 4.261 5.635 1.8 0 3.389-1.107 4.094-2.763 6.012-14.117 29.491-11.769 29.491-11.769 30.493 2.86 30.745-17.384 28.517-30.572z" fill="#52565b"/><path d="m17.519 7.639c.728-4.309 5.564-6.521 9.27-4.205l.035.022c1.937 1.22 3.055 3.42 2.848 5.7-1.123 12.398 4.529 13.019 8.535 14.083 1.49.396 2.972-.675 3.125-2.209l.555-5.546c.207-2.065 2.03-3.691 4.091-3.442 1.767.213 3.07 1.607 3.238 3.287l-.182 9.044c-.023 1.149.73 2.169 1.835 2.484l5.567 1.304c1.408.402 2.81-.655 2.81-2.119v-5.985c0-1.821 1.366-3.434 3.183-3.546 1.927-.118 3.49 1.303 3.654 3.11l.971 10.68c.073.802.588 1.488 1.328 1.806 10.553 4.546 14.261 10.621 15.5 15.001.8 2.828-1.322 5.635-4.261 5.635-1.8 0-3.389-1.107-4.094-2.763-6.012-14.117-29.491-11.769-29.491-11.769-30.493 2.86-30.746-17.384-28.517-30.572z" fill="#52565b"/><path d="m138.178 57.168c-6.701-5.952-13.448-7.612-21.399-5.548-4.263 1.107-8.033 2.085-9.976 2.59 1.379 1.589 2.574 3.378 3.547 5.326 3.185.8 7.366 1.14 12.183-.182 4.457-1.224 9.674-.106 12.823.841.946-.626 1.806-1.028 2.498-1.267.742-.257.911-1.239.324-1.76z" fill="#c16a44"/><path d="m74.161 54.205c-1.949-.506-5.707-1.481-9.954-2.584-7.951-2.064-14.698-.404-21.399 5.548-.587.521-.419 1.503.323 1.759.692.239 1.552.641 2.498 1.267 3.149-.947 8.366-2.064 12.823-.841 4.803 1.318 8.973.984 12.154.189.975-1.953 2.173-3.746 3.555-5.338z" fill="#c16a44"/><path d="m104.104 51.545c-.801.75-1.856 1.199-3 1.199-2.814 0-4.872-2.574-4.34-5.275-1.997-.641-4.103-.992-6.284-.992-2.261 0-4.443.374-6.505 1.062.483 2.676-1.565 5.205-4.355 5.205-1.089 0-2.096-.41-2.882-1.096-5.474 4.65-9.012 12.007-9.012 20.291 0 6.286 2.037 12.037 5.411 16.478 1.693 2.228 2.848 4.798 3.712 7.459 2.278 7.01 7.518 11.918 13.63 11.918s11.352-4.909 13.63-11.919c.865-2.661 2.02-5.231 3.712-7.458 3.374-4.441 5.411-10.192 5.411-16.478.002-8.343-3.585-15.75-9.128-20.394z" fill="#c16a44"/><path d="m99.036 86.157c.057.226.097.465.097.73 0 3.234-4.436 7.807-8.653 7.807s-8.653-4.573-8.653-7.807c0-.159.019-.304.04-.449-2.68.966-5.163 2.343-7.366 4.065.979 1.691 1.742 3.507 2.349 5.375 2.278 7.01 7.518 11.918 13.63 11.918s11.352-4.909 13.63-11.919c.656-2.019 1.483-3.984 2.581-5.789-2.295-1.702-4.877-3.034-7.655-3.931z" fill="#f4dbce"/><path d="m115.598 113.824c-8.077-10.156-7.776-25.406-7.776-25.406-1.693 2.228-2.848 4.798-3.712 7.459-2.278 7.01-7.518 11.919-13.63 11.919s-11.352-4.909-13.63-11.919c-.865-2.661-2.02-5.231-3.712-7.459 0 0-3.693 12.79-3.253 28.938.23 8.473 3.585 16.624 9.555 22.641.042.042.084.084.126.127l1.008-6.047s6.047 10.078 16.125 15.117c0 0 1.008-6.047 8.062-10.078s7.055-11.086 7.055-11.086l2.016 5.039s1.539-2.052 3.138-5.24c2.268-4.527 1.781-10.041-1.372-14.005z" fill="#f4dbce"/><g fill="#52565b"><path d="m214.609 244.43c-8.062 0-8.062 9.07-8.062 9.07h16.125c.839-2.098 1.325-5.297 1.575-9.034z"/><path d="m197.477 244.43c-8.062 0-8.062 9.07-8.062 9.07h16.125c.84-2.099 1.328-5.295 1.577-9.034z"/><path d="m105.212 244.466c-.387.626-.869.971-1.459.971-7.055 0-7.055 8.062-7.055 8.062h16.125c.56-2.988 1.034-6.01 1.448-9.034h-9.059z"/><path d="m131.411 244.466h-9.067c-.387.626-.869.971-1.459.971-7.055 0-7.055 8.062-7.055 8.062h16.125c.56-2.987 1.041-6.008 1.456-9.033z"/></g><path d="m117.66 117.608c1.134 3.3.919 7.008-.692 10.221-1.599 3.188-3.138 5.24-3.138 5.24l-2.016-5.039s0 7.055-7.054 11.086c-7.055 4.031-8.062 10.078-8.062 10.078-10.078-5.039-16.125-15.117-16.125-15.117l-1.008 6.047c-.042-.042-.084-.085-.126-.127-4.328-4.362-7.273-9.847-8.658-15.761-1.845 7.434-3.864 17.469 7.304 30.785.013-.003.007-.002.02-.005l1.186-7.114s7.113 11.856 18.969 17.784c0 0 1.186-7.113 9.485-11.856 8.299-4.742 8.299-13.041 8.299-13.041l2.371 5.928s1.81-2.414 3.691-6.164c.668-1.332 1.155-2.735 1.481-4.18 1.547-6.847-.903-13.923-5.927-18.765z" fill="#f4dbce"/><path d="m99.132 86.886c0 3.234-4.436 7.807-8.653 7.807s-8.653-4.573-8.653-7.807 4.436-3.483 8.653-3.483 8.653.25 8.653 3.483z" fill="#f98080"/><path d="m96.262 77.326c-1.377 0-2.496-1.114-2.5-2.492-.005-1.678.643-3.258 1.826-4.447 1.182-1.19 2.758-1.849 4.436-1.854 3.458-.022 6.291 2.798 6.302 6.262.004 1.38-1.111 2.503-2.492 2.508-.003 0-.006 0-.008 0-1.377 0-2.496-1.114-2.5-2.492-.001-.342-.135-.664-.378-.905s-.564-.364-.907-.372c-.343.001-.664.136-.906.378-.241.243-.373.565-.372.908.004 1.38-1.111 2.503-2.492 2.508-.003-.002-.006-.002-.009-.002z"/><path d="m77.19 77.326c-1.377 0-2.496-1.114-2.5-2.492-.005-1.678.643-3.258 1.826-4.447 1.182-1.19 2.758-1.849 4.436-1.854 3.492-.022 6.291 2.798 6.302 6.262.004 1.38-1.111 2.503-2.492 2.508-.003 0-.006 0-.008 0-1.377 0-2.496-1.114-2.5-2.492-.001-.342-.135-.664-.378-.905s-.547-.364-.907-.372c-.343.001-.664.136-.906.378-.241.243-.373.565-.372.908.004 1.38-1.111 2.503-2.492 2.508-.003-.002-.006-.002-.009-.002z"/><path d="m183.37 187.722c-.78 0-1.548-.363-2.036-1.047-8.41-11.772-7.642-22.773 2.282-32.698.976-.977 2.56-.977 3.535 0 .977.976.977 2.559 0 3.535-8.16 8.161-8.716 16.504-1.749 26.257.803 1.123.542 2.685-.581 3.487-.441.314-.948.466-1.451.466z"/><path d="m94.436 132.869c-.383 0-.766-.088-1.118-.264-3.579-1.79-7.017-4.405-10.219-7.773-.951-1.001-.911-2.583.089-3.534 1.001-.952 2.583-.912 3.535.089 2.047 2.154 4.186 3.946 6.382 5.352 1.117-2.265 3.275-5.292 7.358-7.625 1.2-.685 2.726-.268 3.411.931s.269 2.726-.93 3.411c-5.184 2.962-6.035 7.282-6.042 7.325-.13.782-.625 1.457-1.332 1.816-.356.181-.745.272-1.134.272z"/><path d="m116.957 73.362c-1.359 0-2.765-.122-4.209-.385-1.143-.209-1.992-1.177-2.049-2.337-.273-5.555-2.328-10.808-5.785-14.792-.567-.654-.755-1.554-.499-2.38.257-.826.922-1.462 1.76-1.679l9.975-2.59c8.88-2.304 16.407-.367 23.688 6.099.94.836 1.371 2.122 1.124 3.358-.247 1.239-1.104 2.223-2.292 2.633-1.34.464-3.385 1.623-5.51 4.51-2.969 4.034-8.893 7.563-16.203 7.563zm-1.438-5.06c6.221.482 11.326-2.356 13.614-5.466 1.942-2.64 3.939-4.251 5.65-5.235-5.415-4.159-10.857-5.256-17.376-3.561l-6.375 1.655c2.403 3.726 3.949 8.056 4.487 12.607z"/><path d="m64.031 73.363c-7.312 0-13.237-3.531-16.205-7.563-2.125-2.887-4.17-4.046-5.512-4.511-1.186-.408-2.043-1.393-2.291-2.632-.247-1.236.184-2.523 1.125-3.358 7.278-6.466 14.806-8.402 23.687-6.099l9.955 2.584c.837.218 1.503.853 1.76 1.679.256.826.067 1.727-.5 2.38-3.461 3.987-5.517 9.244-5.79 14.803-.057 1.162-.908 2.131-2.052 2.338-1.433.259-2.829.379-4.177.379zm-17.828-15.762c1.711.984 3.708 2.597 5.65 5.236 2.284 3.103 7.381 5.94 13.587 5.468.538-4.555 2.084-8.888 4.49-12.616l-6.353-1.648c-6.519-1.695-11.959-.599-17.374 3.56zm-2.257-1.038c.001 0 .002.001.003.001-.001 0-.002-.001-.003-.001z"/><path d="m101.104 55.245c-2.191 0-4.205-1.002-5.526-2.748-1.321-1.747-1.737-3.958-1.141-6.067 1.365-4.824 5.382-11.602 16.762-16.55l.953-10.484c.293-3.215 3.072-5.576 6.297-5.378 3.101.189 5.53 2.844 5.53 6.041v5.608l5.19-1.216-.16-9.07c-.002-.101.002-.2.012-.3.29-2.9 2.521-5.17 5.426-5.521 1.613-.19 3.213.268 4.506 1.304 1.336 1.071 2.201 2.665 2.372 4.372l.555 5.546.76-.156c3.641-.92 6.786-1.716 5.922-11.244-.292-3.221 1.243-6.302 4.006-8.041 2.479-1.549 5.5-1.757 8.118-.58 2.637 1.186 4.5 3.601 4.983 6.461 2.047 12.111.44 20.799-4.91 26.561-5.32 5.729-14.172 8.054-26.303 6.92-.229-.022-21.742-1.988-26.958 10.259-1.108 2.601-3.618 4.283-6.394 4.283zm16.969-36.239c-.562 0-.903.425-.941.843l-.971 10.681c-.155 1.706-1.239 3.192-2.83 3.876-9.691 4.175-13.007 9.584-14.082 13.386-.167.588-.051 1.203.317 1.689s.928.765 1.539.765c.768 0 1.473-.488 1.794-1.243 6.655-15.629 31.006-13.379 32.04-13.276 10.49.984 17.95-.814 22.157-5.346 4.222-4.547 5.414-11.849 3.644-22.324-.208-1.23-.975-2.228-2.104-2.734-1.111-.5-2.341-.416-3.376.233-1.174.738-1.838 2.058-1.718 3.376 1.152 12.716-4.391 15.207-9.676 16.543l-.707.182c-1.406.373-2.899.109-4.101-.722-1.221-.845-2.006-2.177-2.154-3.653l-.555-5.546c-.038-.379-.229-.732-.523-.968-.167-.134-.438-.282-.78-.241-.526.062-.938.445-1.034.945l.178 8.853c.046 2.281-1.454 4.312-3.648 4.939-.038.011-.077.021-.116.03l-5.519 1.292c-1.412.382-2.887.096-4.057-.786-1.189-.897-1.872-2.267-1.872-3.756v-5.984c0-.542-.383-1.022-.836-1.051-.023-.002-.046-.003-.069-.003z"/><path d="m79.62 55.245c-2.776 0-5.286-1.682-6.395-4.284-5.232-12.283-26.725-10.279-26.942-10.261-12.149 1.14-20.998-1.188-26.319-6.918-5.351-5.762-6.957-14.449-4.91-26.561.483-2.86 2.346-5.276 4.984-6.461 2.618-1.178 5.638-.97 8.076.554 2.804 1.766 4.34 4.847 4.048 8.067-.863 9.528 2.281 10.324 5.922 11.244l.765.197.55-5.587c.171-1.707 1.036-3.301 2.372-4.372 1.292-1.035 2.894-1.493 4.506-1.304 2.904.351 5.135 2.62 5.426 5.521.01.1.014.199.012.3l-.183 9.044 5.212 1.241v-5.607c0-3.197 2.429-5.852 5.53-6.041 3.228-.2 6.004 2.164 6.297 5.378l.953 10.484c11.38 4.948 15.397 11.726 16.762 16.55.596 2.109.181 4.32-1.141 6.067-1.321 1.747-3.334 2.749-5.525 2.749zm-29.741-19.688c7.446 0 22.86 1.505 27.946 13.445.321.755 1.026 1.243 1.794 1.243.61 0 1.17-.278 1.538-.765.368-.485.483-1.102.317-1.689-1.075-3.803-4.391-9.211-14.083-13.386-1.589-.684-2.674-2.17-2.829-3.877l-.971-10.68c-.04-.435-.405-.862-1.012-.841-.453.028-.836.509-.836 1.051v5.984c0 1.489-.682 2.858-1.872 3.755-1.17.883-2.645 1.168-4.057.787l-5.519-1.292c-.039-.01-.078-.02-.117-.03-2.194-.627-3.694-2.658-3.648-4.939l.179-8.852c-.097-.501-.508-.884-1.034-.946-.347-.042-.615.107-.781.241-.294.236-.485.589-.523.968l-.555 5.546c-.148 1.477-.933 2.809-2.154 3.653-1.203.833-2.698 1.097-4.102.722l-.706-.182c-5.286-1.336-10.828-3.827-9.676-16.543.12-1.318-.544-2.637-1.691-3.359-1.063-.664-2.293-.75-3.404-.25-1.129.507-1.896 1.504-2.104 2.734-1.77 10.476-.578 17.777 3.644 22.324 4.208 4.53 11.669 6.329 22.173 5.344.245-.023 1.784-.166 4.083-.166zm-32.36-27.918h.01z"/><path d="m98.344 107.302c-.088 0-.177-.005-.266-.014-5.757-.609-10.098-5.439-10.098-11.235v-.776c0-1.381 1.119-2.5 2.5-2.5s2.5 1.119 2.5 2.5v.776c0 3.231 2.418 5.924 5.624 6.263 1.373.146 2.368 1.377 2.223 2.75-.136 1.283-1.221 2.236-2.483 2.236z"/><path d="m82.614 107.302c-1.263 0-2.348-.953-2.483-2.237-.145-1.373.851-2.604 2.224-2.749 3.207-.339 5.625-3.031 5.625-6.263v-.776c0-1.381 1.119-2.5 2.5-2.5s2.5 1.119 2.5 2.5v.776c0 5.797-4.342 10.627-10.1 11.235-.089.009-.178.014-.266.014z"/><path d="m133.003 187.47c-.136 0-.275-.011-.414-.034-1.362-.227-2.282-1.515-2.055-2.877 1.816-10.9-5.499-21.352-5.573-21.456-.8-1.126-.536-2.687.59-3.486 1.125-.798 2.686-.534 3.486.59.351.495 8.581 12.261 6.429 25.175-.203 1.222-1.262 2.088-2.463 2.088z"/><path d="m116.054 62.745c-2.12.001-4.229-.261-6.312-.784-.708-.178-1.302-.655-1.627-1.308-.874-1.75-1.95-3.366-3.199-4.805-.567-.653-.756-1.554-.5-2.38.257-.826.922-1.461 1.76-1.679l9.975-2.59c8.88-2.304 16.407-.367 23.688 6.099.94.836 1.371 2.122 1.124 3.358-.247 1.239-1.104 2.223-2.292 2.633-.418.145-1.094.434-1.934.989-.62.41-1.388.522-2.1.309-2.573-.772-7.48-1.912-11.441-.823-2.384.654-4.77.981-7.142.981zm-4.03-5.395c3.231.638 6.539.502 9.847-.407 4.24-1.163 8.943-.523 12.576.405-5.304-3.948-10.655-4.963-17.041-3.308l-6.373 1.654c.348.539.679 1.091.991 1.656z"/><path d="m64.931 62.745c-2.372 0-4.758-.327-7.14-.98-3.959-1.09-8.868.051-11.441.823-.713.214-1.481.101-2.1-.309-.838-.555-1.515-.845-1.935-.99-1.187-.408-2.044-1.393-2.291-2.632-.247-1.236.184-2.523 1.125-3.358 7.278-6.466 14.806-8.402 23.687-6.099l9.955 2.584c.837.218 1.503.853 1.76 1.679s.067 1.727-.5 2.38c-1.252 1.443-2.331 3.063-3.206 4.816-.326.653-.922 1.132-1.631 1.31-2.075.517-4.173.776-6.283.776zm-10.829-6.431c1.681 0 3.38.181 5.012.628 3.297.906 6.595 1.044 9.819.413.314-.568.647-1.125.997-1.667l-6.352-1.648c-6.385-1.659-11.736-.642-17.04 3.308 2.235-.572 4.876-1.034 7.564-1.034zm-10.156.249c.001 0 .002.001.003.001-.001 0-.002-.001-.003-.001z"/><path d="m90.48 110.295c-7.03 0-13.314-5.356-16.008-13.646-.896-2.755-1.983-4.952-3.325-6.719-3.818-5.024-5.921-11.414-5.921-17.99 0-8.766 3.606-16.856 9.893-22.197.943-.802 2.332-.791 3.264.022.25.219.668.479 1.237.479.783 0 1.259-.431 1.474-.687.369-.441.522-1.016.421-1.574-.221-1.223.49-2.423 1.669-2.816 4.653-1.552 9.666-1.582 14.345-.078 1.208.388 1.933 1.618 1.688 2.862-.111.565.037 1.146.405 1.596.214.26.692.697 1.482.697.472 0 .93-.186 1.29-.523.922-.866 2.346-.906 3.316-.093 6.37 5.338 10.023 13.471 10.023 22.312 0 6.577-2.103 12.966-5.921 17.99-1.342 1.767-2.429 3.964-3.325 6.719-2.693 8.289-8.977 13.646-16.007 13.646zm-13.416-55.55c-4.366 4.363-6.838 10.531-6.838 17.195 0 5.49 1.741 10.805 4.902 14.965 1.687 2.22 3.028 4.902 4.099 8.199 2.012 6.19 6.429 10.19 11.253 10.19s9.241-4 11.253-10.19c1.071-3.297 2.412-5.979 4.099-8.199 3.161-4.159 4.902-9.474 4.902-14.965 0-6.603-2.553-12.923-6.905-17.263-.854.372-1.778.567-2.724.567-2.078 0-4.026-.919-5.344-2.521-.802-.976-1.312-2.129-1.5-3.34-2.579-.56-5.24-.537-7.806.053-.197 1.21-.716 2.359-1.525 3.327-1.317 1.577-3.253 2.481-5.311 2.481-.879.001-1.746-.171-2.555-.499z"/><path d="m90.48 110.295c-7.03 0-13.314-5.356-16.008-13.646-.593-1.824-1.311-3.472-2.135-4.896-.625-1.079-.358-2.454.625-3.222 2.43-1.899 5.141-3.396 8.058-4.446.824-.298 1.745-.141 2.425.412.68.554 1.021 1.423.897 2.291l-.016.123c0 1.819 3.26 5.281 6.153 5.281s6.152-3.462 6.152-5.307c0-.009 0-.036-.02-.116-.224-.881.05-1.814.713-2.437.663-.622 1.611-.834 2.478-.556 3.027.977 5.846 2.424 8.377 4.302 1.038.77 1.318 2.203.646 3.308-.909 1.493-1.674 3.214-2.339 5.262-2.692 8.29-8.976 13.647-16.006 13.647zm-12.76-19.024c.562 1.194 1.066 2.477 1.507 3.833 2.012 6.19 6.429 10.19 11.253 10.19s9.241-4 11.253-10.19c.5-1.538 1.055-2.934 1.678-4.215-.762-.465-1.55-.886-2.362-1.264-1.546 3.812-5.949 7.567-10.569 7.567-4.495 0-8.783-3.555-10.437-7.257-.799.404-1.574.849-2.323 1.336z"/><path d="m205.539 256h-16.125c-1.381 0-2.5-1.119-2.5-2.5 0-3.539 1.728-9.869 7.907-11.284-.542-6.481-2.792-24.892-11.206-33.307-5.083-5.083-11.037-11.259-16.654-18.532-.546-.707-.673-1.651-.334-2.478s1.094-1.409 1.979-1.528c8.444-1.137 13.701-3.414 13.753-3.438 1.083-.476 2.355-.128 3.042.835 5.999 8.397 12.911 15.634 18.882 21.605 1.3 1.3 2.545 2.874 3.7 4.679.212.333.344.711.382 1.104 1.236 12.598 2.815 34.972-.505 43.272-.38.95-1.298 1.572-2.321 1.572zm-13.255-5h11.43c1.84-7.307 1.125-24.312-.265-38.746-.864-1.292-1.771-2.415-2.701-3.344-5.744-5.745-12.348-12.645-18.274-20.666-1.817.644-4.873 1.594-8.919 2.38 4.648 5.648 9.421 10.573 13.597 14.75 11.645 11.645 12.782 37.85 12.824 38.96.026.679-.225 1.34-.697 1.829-.471.49-1.122.767-1.801.767-3.302 0-4.648 2.182-5.194 4.07z"/><path d="m112.822 256h-16.124c-1.381 0-2.5-1.119-2.5-2.5 0-4.138 2.417-10.242 9.028-10.551 2.817-5.166-3.152-45.021-11.319-53.188-2.671-2.671-4.937-5.831-6.734-9.395-.821-1.334-7.715-12.944-4.923-22.113.293-.962 1.134-1.655 2.135-1.758 1.001-.11 1.966.403 2.449 1.284 8.021 14.631 20.329 18.952 20.453 18.994.623.211 1.144.662 1.438 1.25 1.563 3.124 3.532 5.884 5.85 8.202 2.153 2.153 4.264 6.085 6.276 11.688.09.252.14.516.146.783.351 14.295-.009 35.487-3.717 55.265-.222 1.183-1.255 2.039-2.458 2.039zm-13.199-5h11.112c3.25-18.574 3.59-38.224 3.273-51.774-1.67-4.572-3.429-7.925-4.969-9.465-2.478-2.478-4.606-5.376-6.335-8.625-2.751-1.134-10.627-4.958-17.626-13.911 1.243 5.507 4.349 10.514 4.395 10.587.042.068.083.14.119.212 1.565 3.125 3.533 5.885 5.851 8.202 8.914 8.913 16.333 49.078 12.405 58.562-1.135 2.74-3.052 3.149-4.094 3.149-2.485.001-3.617 1.567-4.131 3.063z"/><path d="m96.698 151.693c-.383 0-.766-.088-1.118-.264-5.982-2.991-10.589-7.581-13.516-11.092l-.033.196c-.154.924-.811 1.684-1.703 1.97-.891.284-1.869.049-2.53-.613-.002-.002-.131-.131-.134-.133-6.377-6.428-10.027-15.07-10.279-24.334-.444-16.349 3.195-29.162 3.351-29.699.262-.908 1.014-1.591 1.944-1.765.926-.171 1.877.192 2.449.945 1.688 2.222 3.028 4.903 4.099 8.199 2.012 6.191 6.429 10.191 11.253 10.191s9.241-4 11.253-10.191c1.071-3.297 2.412-5.979 4.1-8.199.654-.862 1.789-1.205 2.812-.849 1.022.355 1.7 1.329 1.678 2.411-.002.141-.169 14.493 7.232 23.801v-.001c3.731 4.691 4.377 11.239 1.648 16.683-1.68 3.349-3.304 5.527-3.373 5.619-.542.723-1.43 1.096-2.328.979-.451-.06-.868-.239-1.213-.51-1.218 2.174-3.167 4.465-6.289 6.248-5.86 3.349-6.829 8.27-6.837 8.318-.13.782-.625 1.457-1.332 1.816-.356.184-.745.274-1.134.274zm-16.124-20.116c.867 0 1.686.451 2.143 1.214.051.083 4.806 7.862 12.617 12.768 1.178-2.497 3.544-5.961 8.187-8.614 5.638-3.221 5.791-8.702 5.794-8.934.02-1.19.876-2.213 2.047-2.429 1.173-.214 2.332.415 2.774 1.52l.172.431c.141-.265.283-.54.425-.824 1.86-3.709 1.432-8.155-1.091-11.327v-.001c-4.416-5.552-6.492-12.406-7.466-17.825-2.847 7.772-8.925 12.741-15.695 12.741-7.03 0-13.313-5.356-16.008-13.646-.118-.363-.24-.717-.365-1.062-.943 5.16-1.962 12.952-1.725 21.699.17 6.257 2.13 12.176 5.604 17.102l.121-.723c.172-1.033.97-1.85 2-2.045.155-.03.311-.045.466-.045z"/><path d="m222.671 256h-16.125c-1.381 0-2.5-1.119-2.5-2.5 0-4.002 2.208-11.57 10.562-11.57h.009l9.637.036c.69.003 1.349.291 1.82.796.47.505.711 1.182.666 1.871-.292 4.381-.865 7.585-1.749 9.796-.378.949-1.297 1.571-2.32 1.571zm-13.254-5h11.423c.241-.967.483-2.277.679-4.044l-6.916-.026c-3.3.003-4.642 2.205-5.186 4.07z"/><path d="m205.539 256h-16.125c-1.381 0-2.5-1.119-2.5-2.5 0-4.002 2.208-11.57 10.562-11.57h.009l9.64.036c.69.003 1.349.29 1.82.796.47.505.711 1.182.666 1.87-.292 4.377-.865 7.581-1.751 9.797-.38.949-1.298 1.571-2.321 1.571zm-13.206-5h11.376c.241-.968.484-2.278.681-4.044l-6.919-.026c-2.326.002-3.84.971-4.764 3.051-.152.34-.274.685-.374 1.019z"/><path d="m112.822 256h-16.124c-1.381 0-2.5-1.119-2.5-2.5 0-4.139 2.417-10.244 9.032-10.551.478-.594 1.221-.983 1.982-.983h9.059c.722 0 1.409.312 1.884.856s.691 1.268.593 1.982c-.454 3.313-.934 6.309-1.468 9.156-.222 1.184-1.255 2.04-2.458 2.04zm-13.201-5h11.113c.226-1.3.443-2.64.653-4.034h-5.044c-.956.821-1.973.972-2.59.972-2.49 0-3.62 1.579-4.132 3.062z"/><path d="m129.955 256h-16.125c-1.381 0-2.5-1.119-2.5-2.5 0-4.139 2.418-10.244 9.032-10.551.478-.594 1.221-.983 1.982-.983h9.066c.722 0 1.409.312 1.884.856s.691 1.268.593 1.982c-.434 3.165-.93 6.246-1.476 9.156-.221 1.184-1.253 2.04-2.456 2.04zm-13.202-5h11.114c.23-1.316.45-2.664.658-4.034h-5.05c-.957.821-1.973.972-2.59.972-2.49 0-3.62 1.579-4.132 3.062z"/><path d="m222.671 256h-16.125c-1.381 0-2.5-1.119-2.5-2.5 0-3.539 1.728-9.869 7.907-11.284-.542-6.481-2.792-24.892-11.206-33.307-5.743-5.743-12.344-12.64-18.27-20.658-5.791 2.073-24 7.242-46.743.26.568 10.171 1.585 39.269-3.324 65.45-.222 1.183-1.254 2.039-2.457 2.039h-16.123c-1.381 0-2.5-1.119-2.5-2.5 0-4.138 2.417-10.242 9.028-10.551 2.817-5.166-3.152-45.021-11.318-53.188-2.477-2.477-4.605-5.374-6.334-8.624-4.042-1.66-19.083-9.086-26.193-29.948-.133-.392-.168-.81-.1-1.218l.413-2.479c.172-1.033.97-1.85 2-2.045 1.025-.195 2.071.271 2.61 1.17.062.102 5.874 9.618 15.412 15.43 1.275-2.891 4-7.153 9.658-10.387 6.866-3.924 7.035-10.604 7.039-10.887.016-1.191.872-2.215 2.044-2.433 1.173-.222 2.334.414 2.777 1.521l.551 1.378c.31-.557.632-1.161.956-1.807.559-1.114.989-2.329 1.278-3.609.839-3.715.354-7.576-1.403-11.165-.463-.946-.283-2.082.45-2.839.734-.756 1.865-.973 2.824-.538 3.285 1.481 7.144 2.233 11.47 2.233 9.04 0 18.325-1.089 27.304-2.143 26.392-3.095 51.32-6.02 65.56 18.504.07.12.13.246.179.377.241.6 2.689 6.037 11.321 4.465.852-.149 1.72.141 2.3.781s.789 1.535.551 2.365c-.639 2.235-2.25 5.521-4.928 7.402.365.495.538 1.111.477 1.731-.074.745-.478 1.419-1.101 1.834-.301.2-6.412 4.195-13.51 2.83.208 5.269-.036 14.921-3.781 22.41-3.574 7.147 2.994 18.736 5.827 22.599.257.351.418.763.468 1.194.167 1.466 4.054 36.021-.163 46.563-.383.952-1.302 1.574-2.325 1.574zm-13.254-5h11.431c2.311-9.104.463-32.421-.589-41.934-2.067-3.001-11.002-16.967-5.87-27.23 4.648-9.298 3.028-23.266 3.011-23.405-.11-.908.286-1.805 1.031-2.336s1.722-.613 2.544-.212c3.493 1.697 7.11 1.019 9.531.146l-.028-.029c-.715-.715-.929-1.79-.542-2.725.387-.934 1.298-1.543 2.31-1.543 1.181 0 2.146-.789 2.885-1.756-7.169-.321-11-4.831-12.195-7.751-12.609-21.511-34.833-18.904-60.559-15.888-9.122 1.07-18.554 2.177-27.886 2.177-3.006 0-5.839-.32-8.47-.956.684 3.106.696 6.312.006 9.366-.378 1.675-.945 3.272-1.685 4.749-1.959 3.906-3.847 6.438-3.926 6.544-.542.724-1.437 1.096-2.328.979-.633-.084-1.199-.404-1.595-.881-1.375 2.643-3.672 5.495-7.507 7.687-7.075 4.042-8.217 9.869-8.262 10.115-.142.773-.641 1.445-1.344 1.796-.704.352-1.533.361-2.236.01-4.259-2.13-7.92-4.954-10.902-7.764 8.012 12.792 18.905 16.566 19.04 16.611.628.21 1.148.66 1.444 1.253 1.565 3.125 3.533 5.885 5.851 8.202 8.914 8.914 16.333 49.078 12.404 58.562-1.135 2.74-3.052 3.149-4.094 3.149-2.484 0-3.616 1.566-4.13 3.062h11.112c5.421-31.023 2.671-65.473 2.642-65.824-.07-.847.295-1.671.969-2.188.673-.518 1.564-.658 2.364-.372 26.864 9.596 48.303.413 48.516.319 1.085-.473 2.357-.129 3.044.834 5.999 8.397 12.911 15.634 18.882 21.605 11.645 11.645 12.781 37.85 12.824 38.96.026.679-.225 1.34-.697 1.829-.471.49-1.122.767-1.801.767-3.307.002-4.65 2.205-5.195 4.072z"/><path d="m98.244 168.182c-.378 0-.755-.086-1.102-.259-7.41-3.705-13.009-9.513-16.373-13.684l-.198 1.188c-.165.991-.908 1.786-1.882 2.02-.021.006-.042.011-.061.015-.913.204-1.858-.119-2.458-.834-12.349-14.726-9.511-26.161-7.815-32.994.277-1.115 1.278-1.897 2.426-1.897h.017c1.155.008 2.154.806 2.417 1.93.912 3.894 2.537 7.526 4.773 10.712l.119-.713c.172-1.033.97-1.85 2-2.045 1.025-.195 2.071.271 2.61 1.17.051.084 4.806 7.863 12.617 12.769 1.178-2.497 3.544-5.961 8.186-8.614 5.728-3.272 5.794-8.858 5.794-8.914 0-1.198.851-2.229 2.027-2.455 1.174-.227 2.349.413 2.794 1.526l.172.431c.141-.265.283-.54.425-.824 1.286-2.564 1.492-5.586.563-8.288-.375-1.093.046-2.3 1.021-2.921.973-.619 2.246-.494 3.079.309 5.774 5.566 8.314 13.658 6.63 21.117-.378 1.675-.945 3.272-1.685 4.749-1.959 3.906-3.847 6.438-3.926 6.544-.542.723-1.437 1.096-2.328.979-.633-.084-1.199-.404-1.595-.881-1.375 2.643-3.672 5.495-7.507 7.687-7.075 4.042-8.217 9.869-8.262 10.115-.142.773-.641 1.445-1.344 1.796-.357.175-.745.266-1.134.266zm-18.952-22.779c.867 0 1.686.451 2.143 1.214.062.102 5.874 9.618 15.412 15.43 1.275-2.891 4-7.153 9.658-10.387 6.867-3.924 7.035-10.604 7.039-10.887.016-1.191.872-2.215 2.044-2.433 1.173-.222 2.334.414 2.777 1.521l.551 1.378c.31-.557.632-1.161.956-1.807.559-1.114.989-2.329 1.278-3.609.736-3.261.416-6.688-.82-9.842-.273 1.021-.648 2.016-1.126 2.968-1.68 3.35-3.304 5.528-3.373 5.62-.542.723-1.43 1.096-2.328.979-.451-.06-.868-.239-1.213-.51-1.218 2.174-3.167 4.465-6.289 6.248-5.86 3.349-6.829 8.27-6.837 8.318-.13.782-.625 1.457-1.332 1.816-.706.361-1.542.364-2.252.009-5.982-2.991-10.589-7.581-13.516-11.093l-.033.197c-.154.924-.811 1.684-1.703 1.97-.894.284-1.869.049-2.531-.613l-.137-.136c-2.297-2.315-4.252-4.946-5.823-7.811.011 4.227 1.1 9.186 4.764 14.885l.223-1.337c.172-1.033.97-1.85 2-2.045.156-.028.313-.043.468-.043z"/><path d="m90.48 97.193c-5.745 0-11.153-5.807-11.153-10.307 0-5.983 7.533-5.983 11.153-5.983s11.152 0 11.152 5.983c0 4.501-5.408 10.307-11.152 10.307zm-6.145-10.427c.001.001-.008.039-.008.121 0 1.845 3.259 5.307 6.153 5.307 2.893 0 6.152-3.462 6.152-5.307 0-.095-.013-.132-.013-.132-.227-.31-1.337-.852-6.14-.852-4.79 0-5.906.539-6.144.863z"/></svg>