<svg enable-background="new 0 0 256 256" height="512" viewBox="0 0 256 256" width="512" xmlns="http://www.w3.org/2000/svg"><path d="m134.867 238.685c-3.147.048-6.183-.04-9.088-.363-2.018-.224-3.829-.841-5.433-1.733 1.198 2.271 1.896 4.878 1.896 7.716 0 1.005-.104 1.883-.275 2.68 3.868.572 8.073.607 12.179 0-.171-.797-.275-1.675-.275-2.68-.001-1.975.362-3.863.996-5.62z" fill="#f76e23"/><path d="m89.226 244.306c0-3.901 1.355-7.48 3.608-10.309-11.565-.868-25.859.866-24.939 15.009.164 2.527 2.016 4.493 4.252 4.493h26.803v-.186c-5.729-.489-9.724-2.294-9.724-9.007z" fill="#52565b"/><path d="m184.784 238.703c-6.655-1.295-13.205-1.662-19.564-1.602 1.055 2.18 1.664 4.618 1.664 7.205 0 6.712-3.995 8.518-9.724 9.007v.186h26.803c2.236 0 4.088-1.966 4.252-4.493.304-4.673-1.06-7.985-3.431-10.303z" fill="#52565b"/><path d="m136.908 201.899c12.783-.73 24.742 2.084 35.254 5.363 10.779-20.911 18.449-50.812.589-81.723-6.499 3.259-13.845 5.683-21.603 7.28-5.834 5.159-14.02 8.373-23.093 8.373-9.072 0-17.258-3.214-23.091-8.372-7.755-1.596-15.101-4.019-21.604-7.28-25.983 44.968 2.068 87.801 15.113 103.922 5.423-2.671 11.289-2.055 15.838.721-5.187-10.372.189-27.004 22.597-28.284z" fill="#f76e23"/><path d="m220.885 190.77c-7.821-7.821-19.935-11.028-33.078-11.164 3.044 3.69 5.316 7.24 6.946 10.641 7.958 3.132 23.719 10.984 16.014 21.77-9.298 13.018-38.447-12.141-73.859-10.118-31.718 1.813-29.341 34.4-11.129 36.424s41.498-5.114 65.765 2.024c34.4 10.117 49.385-29.533 29.341-49.577z" fill="#f89422"/><g fill="#f76e23"><path d="m146.541 201.985c-3.151-.225-6.364-.272-9.632-.086-31.718 1.813-29.341 34.4-11.129 36.424 6.824.758 14.361.23 22.395-.351-12.032-16.14-5.013-30.706-1.634-35.987z"/><path d="m185.268 211.638c-5.822-1.977-12.356-4.315-19.438-6.222-2.058 5.811-5.166 18.133-1.007 31.688 6.202-.076 12.589.255 19.078 1.441-1.339-7.277-2.495-18.811 1.367-26.907z"/><path d="m229.138 219.7c-6.528.558-15.029-.126-19.789-6.152-2.01 1.75-4.647 2.356-7.839 2.184-.117 5.711.752 18.953 10.72 24.457 9.023-3.429 14.917-11.413 16.908-20.489z"/><path d="m226.167 197.855c-1.367-2.532-3.119-4.923-5.282-7.086-2.61-2.61-5.707-4.695-9.152-6.335-.59 3.66-2.469 7.664-7.117 10.749 3.175 2.056 6.003 4.561 7.361 7.449 3.917.31 9.773-.2 14.19-4.777z"/></g><path d="m134.867 238.685c-.634 1.757-.998 3.644-.998 5.621 0 9.139 7.391 9.193 16.507 9.193 9.117 0 16.508-.054 16.508-9.193 0-2.586-.609-5.024-1.664-7.205-10.812.103-21.071 1.442-30.353 1.584z" fill="#52565b"/><path d="m114.315 230.19c-2.503-1.532-5.434-2.431-8.581-2.431-9.117 0-16.507 7.408-16.507 16.547s7.391 9.193 16.507 9.193 16.507-.054 16.507-9.193c0-2.793-.697-5.419-1.915-7.727-2.634-1.469-4.673-3.716-6.011-6.389z" fill="#52565b"/><path d="m196.175 214.917c2.682-6.905 3.119-15.208-1.419-24.669-.001 0-.002-.001-.003-.001-.815-1.7-1.79-3.438-2.943-5.212-.285-.439-.581-.88-.888-1.323-.011-.016-.022-.031-.033-.047-.298-.43-.606-.861-.926-1.295-.021-.028-.042-.056-.063-.084-.313-.424-.635-.849-.969-1.277-.028-.036-.057-.071-.085-.107-.331-.422-.67-.846-1.021-1.272-1.487-1.803-3.151-3.638-5.02-5.506-1.533 12.397-5.776 23.681-10.651 33.137 9.291 2.897 17.444 6.149 24.021 7.656z" fill="#9e512b"/><path d="m98.474 229.462c-3.261-4.03-6.505-8.546-9.512-13.38-.005-.008-.01-.017-.016-.025-6.753-10.861-13.599-25.419-15.641-41.934-31.576 31.552-6.418 54.001 3.887 61.18 4.677-1.561 10.434-1.695 15.641-1.305 1.515-1.902 3.44-3.452 5.641-4.536z" fill="#9e512b"/><path d="m172.161 207.262c7.125-13.825 12.893-31.578 10.823-50.955-14.346-12.479-27.863 1.441-27.863 12.204 0 8.09-3.764 17.528-6.277 22.925-1.571 3.376-3.027 6.869-4.353 10.44 9.937.453 19.266 2.764 27.67 5.386z" fill="#9e512b"/><path d="m115.186 212.784c-2.094-7.377-4.776-14.596-7.919-21.348-2.512-5.397-6.277-14.835-6.277-22.925 0-10.763-13.517-24.683-27.863-12.204-3.494 32.707 15.339 60.79 25.346 73.155 5.236-2.579 11.17-2.139 15.833.712-2.566-5.142-2.531-11.805.88-17.39z" fill="#9e512b"/><path d="m206.732 79.414c-3.695-2.61-12.518-10.373-28.535-32.57-9.791-13.569-20.657-19.482-29.764-21.849-1.756-.456-3.042-1.942-3.256-3.744-.796-6.708-4.223-11.933-5.634-13.84-.23-.311-.715-.221-.816.153-1.15 4.262-5.06 7.899-6.908 9.425-.546.451-1.341.409-1.842-.092l-2.583-2.583c-.261-.261-.695-.126-.784.232-.16.646-.366 1.266-.609 1.862-1.737 4.248-5.896 6.949-10.473 7.284-10.143.744-24.8 5.392-37.615 23.151-16.017 22.197-24.84 29.959-28.535 32.57-1.211.856-1.61 2.505-.968 3.869 2.15 4.563 7.341 14.011 15.575 19.444l-4.178 2.941s11.602 20.366 45.208 27.198c-5.585-4.916-9.028-11.609-9.028-18.991 0-12.759 10.269-23.473 24.15-26.477-.754.702-1.205 1.685-1.205 3.064 0 4.446 4.677 10.733 9.123 10.733s9.123-6.287 9.123-10.733c0-1.379-.452-2.362-1.205-3.064 13.881 3.003 24.15 13.718 24.15 26.477 0 7.382-3.443 14.075-9.028 18.991 33.605-6.831 45.208-27.198 45.208-27.198l-4.178-2.941c8.234-5.433 13.425-14.881 15.575-19.444.642-1.362.243-3.012-.968-3.868z" fill="#f89422"/><path d="m178.197 46.844c1.561 2.163 3.05 4.184 4.476 6.081 16.133-18.507 13.535-41.26 12.176-48.48-.246-1.309-1.553-2.152-2.903-1.901-22 4.101-33.195 15.387-38.696 24.007 7.979 3.068 16.83 9.046 24.947 20.293z" fill="#f89422"/><path d="m77.914 46.844c8.111-11.241 16.959-17.224 24.934-20.295-5.501-8.619-16.697-19.904-38.695-24.005-1.35-.251-2.657.591-2.903 1.901-1.359 7.221-3.958 29.979 12.182 48.487 1.428-1.899 2.92-3.922 4.482-6.088z" fill="#f89422"/><path d="m135.974 87.399c.754.702 1.205 1.685 1.205 3.064 0 4.446-4.677 10.733-9.123 10.733s-9.123-6.287-9.123-10.733c0-1.379.452-2.362 1.205-3.064-13.881 3.003-24.15 13.718-24.15 26.477 0 15.087 14.358 27.318 32.069 27.318s32.069-12.231 32.069-27.318c-.002-12.76-10.271-23.474-24.152-26.477z" fill="#e3e4e5"/><path d="m187.942 115.277c-2.252-8.447-7.239-17.991-18.053-24.063-1.325-.744-2.749.815-1.913 2.084 3.838 5.826 8.798 16.841 5.478 31.863 6.203-3.191 10.963-6.714 14.488-9.884z" fill="#e3e4e5"/><path d="m87.804 93.299c.836-1.269-.589-2.828-1.913-2.084-10.709 6.013-15.707 15.433-17.99 23.819 3.482 3.169 8.204 6.714 14.385 9.937-3.235-14.924 1.697-25.871 5.518-31.672z" fill="#e3e4e5"/><path d="m178.197 46.844c1.443 1.999 2.825 3.878 4.153 5.649 9.17-13.411 7.421-28.455 6.467-33.527-.189-1.006-1.193-1.654-2.231-1.461-12.48 2.327-20.435 7.663-25.449 12.963 5.689 3.521 11.545 8.734 17.06 16.376z" fill="#9e512b"/><path d="m77.914 46.844c5.513-7.64 11.367-12.849 17.055-16.369-5.013-5.301-12.969-10.641-25.454-12.969-1.038-.193-2.042.455-2.231 1.461-.955 5.073-2.704 20.122 6.472 33.535 1.329-1.774 2.713-3.655 4.158-5.658z" fill="#9e512b"/><path d="m137.179 90.463c0 4.446-4.678 10.734-9.123 10.734-4.446 0-9.123-6.288-9.123-10.734s4.678-4.789 9.123-4.789 9.123.343 9.123 4.789z" fill="#9e512b"/><path d="m150.377 255.999c-8.909 0-19.008 0-19.008-11.693 0-2.184.386-4.36 1.146-6.469.353-.978 1.273-1.636 2.313-1.651 4.278-.066 8.762-.389 13.509-.732 5.426-.392 11.036-.797 16.859-.852.938.01 1.854.541 2.274 1.411 1.27 2.625 1.913 5.415 1.913 8.293.002 11.693-10.097 11.693-19.006 11.693zm-13.637-14.856c-.247 1.047-.371 2.105-.371 3.164 0 6.145 3.631 6.693 14.008 6.693s14.008-.548 14.008-6.693c0-1.603-.272-3.17-.812-4.679-5.084.106-10.054.465-14.875.813-4.156.3-8.113.585-11.958.702z"/><path d="m105.733 255.999c-8.909 0-19.007 0-19.007-11.693 0-10.503 8.526-19.047 19.007-19.047 3.478 0 6.896.968 9.887 2.799.398.244.721.595.93 1.012 1.155 2.306 2.882 4.147 4.994 5.325.422.236.767.588.993 1.016 1.441 2.73 2.204 5.806 2.204 8.895 0 11.693-10.098 11.693-19.008 11.693zm0-25.74c-7.724 0-14.007 6.302-14.007 14.047 0 6.145 3.631 6.693 14.007 6.693 10.377 0 14.008-.548 14.008-6.693 0-2.082-.444-4.081-1.322-5.95-2.468-1.538-4.516-3.717-5.981-6.366-2.063-1.135-4.368-1.731-6.705-1.731z"/><path d="m196.176 217.417c-.185 0-.372-.021-.56-.063-4.193-.961-9.031-2.618-14.153-4.372-3.214-1.101-6.538-2.239-10.052-3.335-.705-.22-1.277-.741-1.562-1.422-.285-.682-.254-1.454.085-2.11 5.585-10.833 9.081-21.699 10.392-32.298.117-.948.765-1.747 1.668-2.058.903-.31 1.904-.08 2.581.596 1.867 1.867 3.61 3.779 5.181 5.684.364.44.716.88 1.06 1.318.002.002.088.112.09.114.347.444.682.887 1.007 1.327l.077.104c.321.436.643.886.954 1.334.356.515.666.976.964 1.434 1.162 1.789 2.188 3.604 3.055 5.399.017.032.033.064.049.097 4.344 9.058 4.847 18.026 1.495 26.656-.382.978-1.319 1.595-2.331 1.595zm-20.478-11.651c2.551.83 4.998 1.668 7.385 2.485 4.277 1.465 8.075 2.766 11.477 3.684 1.993-6.629 1.318-13.519-2.015-20.516-.017-.03-.031-.061-.046-.091-.783-1.633-1.721-3.292-2.785-4.932-.271-.418-.556-.839-.848-1.263-.315-.452-.609-.866-.915-1.281-.361-.487-.671-.896-.99-1.306l-.097-.123c-.302-.384-.628-.792-.966-1.201-.453-.549-.922-1.1-1.404-1.65-1.6 8.663-4.549 17.443-8.796 26.194zm19.055-15.519h.01z"/><path d="m77.192 237.803c-.505 0-1.005-.153-1.429-.449-6.983-4.865-18.896-15.266-20.223-30.268-1.012-11.429 4.37-23.114 15.996-34.732.677-.675 1.678-.906 2.581-.595s1.551 1.109 1.668 2.057c1.673 13.535 6.815 27.302 15.282 40.92.018.027.034.054.048.077 2.814 4.522 5.954 8.939 9.301 13.076.479.591.661 1.367.498 2.109s-.655 1.37-1.337 1.706c-1.854.914-3.511 2.246-4.789 3.851-.516.646-1.308.996-2.143.936-6.028-.451-10.958-.054-14.663 1.183-.256.087-.524.129-.79.129zm-5.578-58.233c-8.137 9.254-11.865 18.346-11.093 27.077 1.091 12.322 10.779 21.295 17.119 25.907 3.854-1.069 8.587-1.45 14.11-1.132.901-.978 1.909-1.864 2.998-2.638-2.812-3.633-5.466-7.45-7.911-11.38-.005-.009-.011-.017-.016-.026-7.79-12.53-12.892-25.225-15.207-37.808z"/><path d="m148.262 79.897c-1.377 0-2.495-1.114-2.5-2.492-.015-4.376 3.534-7.948 7.911-7.962h.026c2.11 0 4.096.818 5.594 2.306 1.504 1.495 2.336 3.485 2.342 5.605.004 1.381-1.112 2.503-2.493 2.507-.002 0-.005 0-.007 0-1.378 0-2.496-1.114-2.5-2.493-.002-.784-.31-1.52-.866-2.073-.555-.551-1.289-.854-2.07-.854-.003 0-.006 0-.01 0-1.619.005-2.932 1.327-2.927 2.946.005 1.381-1.111 2.504-2.492 2.508-.002.002-.005.002-.008.002z"/><path d="m107.85 79.88c-1.381 0-2.5-1.119-2.5-2.5 0-1.619-1.317-2.937-2.938-2.937-1.619 0-2.937 1.317-2.937 2.937 0 1.381-1.119 2.5-2.5 2.5s-2.5-1.119-2.5-2.5c0-4.376 3.561-7.937 7.937-7.937 4.377 0 7.938 3.561 7.938 7.937 0 1.381-1.12 2.5-2.5 2.5z"/><path d="m114.311 232.684c-.448 0-.899-.12-1.302-.366-4.104-2.505-9.123-2.734-13.431-.613-1.049.517-2.313.237-3.048-.67-13.51-16.693-42.049-60.512-15.335-106.745.663-1.145 2.104-1.577 3.285-.984 6.166 3.092 13.228 5.469 20.987 7.066.428.088.825.287 1.152.576 5.648 4.995 13.261 7.745 21.436 7.745s15.788-2.751 21.437-7.746c.327-.29.725-.488 1.152-.576 7.763-1.598 14.823-3.975 20.985-7.065 1.186-.593 2.623-.161 3.286.984 18.709 32.379 10.037 63.616-.532 84.119-.556 1.08-1.808 1.603-2.966 1.241-9.104-2.84-21.238-6.004-34.367-5.254-9.431.539-16.51 4.09-19.932 9.999-2.618 4.52-2.837 10.142-.571 14.671.498.997.276 2.204-.545 2.959-.473.434-1.079.659-1.691.659zm-29.917-103.872c-22.495 41.527 1.816 80.997 14.85 97.604 3.578-1.313 7.416-1.504 11.047-.599-.802-4.695.045-9.687 2.502-13.929 4.294-7.413 12.808-11.847 23.974-12.485 12.958-.737 24.862 2.067 34.113 4.851 9.334-18.949 16.404-46.692.839-75.442-5.845 2.702-12.363 4.824-19.423 6.322-6.505 5.525-15.084 8.559-24.239 8.559-9.154 0-17.732-3.034-24.238-8.558-7.059-1.497-13.579-3.62-19.425-6.323z"/><path d="m128.056 249.928c-2.172 0-4.344-.156-6.456-.469-.684-.101-1.295-.481-1.689-1.05-.394-.568-.534-1.274-.388-1.95.147-.684.219-1.388.219-2.153 0-2.326-.54-4.53-1.606-6.549-.517-.979-.328-2.18.462-2.954.791-.774 1.996-.937 2.963-.398 1.394.774 2.906 1.256 4.496 1.433 2.564.285 5.435.399 8.773.348.815-.033 1.596.379 2.073 1.047s.595 1.528.316 2.301c-.563 1.563-.85 3.169-.85 4.773 0 .761.072 1.466.22 2.155.145.676.004 1.381-.39 1.949-.395.567-1.005.947-1.688 1.048-2.112.312-4.283.469-6.455.469zm-3.322-5.138c2.201.185 4.442.185 6.642 0-.005-.16-.007-.321-.007-.484 0-1.045.088-2.089.264-3.124-2.218-.041-4.243-.165-6.13-.375-.371-.042-.74-.095-1.105-.16.229 1.191.344 2.412.344 3.658-.001.164-.003.325-.008.485z"/><path d="m118.834 121.183c-2.553 0-5.07-.854-7.163-2.518-1.081-.859-1.261-2.432-.401-3.513.86-1.08 2.432-1.261 3.513-.4 2.017 1.602 4.617 1.886 6.956.756 2.391-1.153 3.817-3.417 3.817-6.056v-7.47c0-1.381 1.119-2.5 2.5-2.5s2.5 1.119 2.5 2.5v7.47c0 4.536-2.546 8.582-6.645 10.559-1.629.785-3.36 1.172-5.077 1.172z"/><path d="m137.277 121.183c-1.717 0-3.448-.386-5.077-1.172-4.099-1.977-6.645-6.023-6.645-10.559 0-1.381 1.119-2.5 2.5-2.5s2.5 1.119 2.5 2.5c0 2.639 1.427 4.903 3.817 6.056 2.34 1.13 4.939.847 6.956-.756 1.081-.86 2.652-.68 3.513.4.859 1.081.68 2.653-.401 3.513-2.091 1.664-4.61 2.518-7.163 2.518z"/><path d="m182.673 55.425c-.03 0-.061 0-.091-.001-.754-.027-1.454-.394-1.907-.997-1.493-1.986-3.009-4.045-4.505-6.12-6.804-9.428-14.817-15.963-23.817-19.422-.7-.269-1.242-.839-1.478-1.552-.234-.713-.136-1.494.268-2.126 5.815-9.113 17.535-20.868 40.346-25.12 2.708-.501 5.318 1.243 5.817 3.896 1.306 6.938 4.247 31.09-12.748 50.585-.476.546-1.164.857-1.885.857zm-25.63-29.985c8.739 4.024 16.526 10.719 23.182 19.941.844 1.17 1.693 2.334 2.542 3.483 13.224-17.242 10.8-37.634 9.645-43.854-19.034 3.549-29.61 12.612-35.369 20.43z"/><path d="m73.433 55.433c-.721 0-1.408-.312-1.884-.857-17.002-19.496-14.061-43.654-12.755-50.594.498-2.653 3.105-4.4 5.817-3.896 22.809 4.252 34.529 16.007 40.344 25.119.403.632.502 1.413.268 2.125s-.776 1.283-1.477 1.552c-8.993 3.462-17.002 9.998-23.805 19.425-1.521 2.108-3.039 4.17-4.511 6.127-.453.603-1.153.969-1.907.997-.03.001-.06.002-.09.002zm-9.743-50.433c-1.155 6.209-3.589 26.62 9.648 43.873.843-1.142 1.694-2.309 2.548-3.491 6.653-9.22 14.436-15.916 23.169-19.942-5.762-7.823-16.345-16.893-35.36-20.438-.002 0-.004-.001-.005-.002zm14.224 41.845h.01z"/><path d="m202.238 244.472c-3.635 0-7.457-.567-11.399-1.727-14.61-4.298-29.238-3.239-42.143-2.304-8.251.597-16.047 1.161-23.193.367-9.261-1.029-15.789-9.033-15.521-19.031.258-9.63 7.427-21.267 26.783-22.374 17.612-1.008 33.554 4.468 46.371 8.865 13.969 4.794 22.047 7.264 25.597 2.295 1.478-2.069 1.923-3.998 1.361-5.895-1.213-4.098-7.139-8.506-16.258-12.096-.587-.231-1.065-.676-1.339-1.246-1.598-3.334-3.824-6.743-6.62-10.131-.618-.75-.746-1.791-.327-2.668s1.328-1.42 2.282-1.422c15.153.158 27.193 4.271 34.819 11.896 10.712 10.711 12.847 27.988 5.075 41.079-5.566 9.379-14.69 14.392-25.488 14.392zm-35.763-9.875c8.3 0 16.977.763 25.774 3.351 13.329 3.92 24.98.024 31.179-10.419 5.68-9.567 6.022-24.658-4.311-34.991-6.995-6.995-17.298-9.492-26.106-10.2 1.369 1.983 2.56 3.971 3.561 5.944 7.414 3.025 16.253 7.989 18.318 14.967 1.013 3.424.311 6.863-2.088 10.221-5.888 8.243-17.098 4.396-31.288-.472-12.404-4.256-27.845-9.555-44.463-8.603-9.979.57-21.748 5.5-22.07 17.515-.169 6.291 3.581 13.095 11.075 13.928 6.691.744 14.264.195 22.279-.384 5.752-.417 11.838-.857 18.14-.857z"/><path d="m133.319 241.197c-2.678 0-5.299-.109-7.816-.389-9.261-1.029-15.789-9.033-15.521-19.031.258-9.63 7.427-21.267 26.783-22.374 3.213-.184 6.563-.154 9.953.088.88.063 1.661.584 2.057 1.372s.347 1.726-.129 2.469c-3.218 5.031-9.512 18.331 1.531 33.146.546.732.649 1.704.27 2.534-.38.83-1.183 1.388-2.093 1.454-5 .361-10.114.731-15.035.731zm7.669-36.913c-1.332 0-2.646.037-3.938.111-9.979.57-21.748 5.5-22.07 17.515-.169 6.291 3.581 13.095 11.075 13.928 5.415.602 11.533.349 17.647-.058-7.738-13.015-4.619-24.698-1.316-31.482-.468-.009-.934-.014-1.398-.014z"/><path d="m183.902 241.044c-.149 0-.3-.013-.449-.041-5.621-1.026-11.701-1.489-18.599-1.4-.01 0-.021 0-.03 0-1.098 0-2.067-.716-2.39-1.767-4.337-14.132-1.21-26.901 1.04-33.255.436-1.231 1.744-1.92 3.007-1.58 6.046 1.629 11.756 3.586 16.793 5.313l2.798.956c.677.229 1.223.738 1.5 1.396s.26 1.403-.047 2.048c-3.666 7.684-2.303 19.197-1.164 25.376.148.808-.109 1.638-.689 2.219-.474.476-1.112.735-1.77.735zm-17.192-6.45c5.085.01 9.76.318 14.165.933-.997-6.965-1.312-15.41 1.084-22.377l-.306-.104c-4.317-1.48-9.137-3.131-14.19-4.58-1.784 5.908-3.521 15.531-.753 26.128z"/><path d="m212.23 242.688c-.418 0-.834-.104-1.208-.312-11.211-6.188-12.135-20.731-12.011-26.696.014-.677.302-1.32.799-1.781.496-.461 1.161-.705 1.835-.664 2.735.149 4.66-.353 6.062-1.573.516-.449 1.188-.667 1.874-.604.681.063 1.306.403 1.729.94 4.106 5.2 11.847 5.704 17.614 5.21.799-.074 1.568.245 2.093.842.523.597.732 1.408.562 2.185-2.29 10.435-9.191 18.767-18.462 22.289-.286.109-.587.164-.887.164zm-8.2-24.489c.206 5.571 1.642 14.719 8.415 19.199 6.197-2.737 11.002-8.179 13.357-15.041-.08 0-.161.001-.241.001-7.11 0-12.761-1.882-16.596-5.53-1.433.76-3.069 1.215-4.935 1.371z"/><path d="m213.846 205.207c-.722 0-1.413-.031-2.066-.083-.895-.071-1.684-.616-2.065-1.429-1.001-2.13-3.173-4.288-6.457-6.415-.707-.458-1.136-1.242-1.141-2.084-.005-.843.415-1.631 1.117-2.097 3.396-2.253 5.425-5.303 6.032-9.064.125-.777.609-1.45 1.307-1.815.696-.365 1.525-.382 2.235-.043 3.825 1.821 7.138 4.117 9.845 6.825 2.272 2.272 4.194 4.852 5.715 7.666.517.958.354 2.141-.401 2.924-4.333 4.488-9.763 5.615-14.121 5.615zm-.35-5.004c2.903.049 6.474-.519 9.485-2.842-1.104-1.74-2.397-3.357-3.864-4.824-1.652-1.651-3.582-3.13-5.762-4.415-.949 2.633-2.498 4.979-4.596 6.959 2.059 1.644 3.643 3.357 4.737 5.122z"/><path d="m128.056 143.693c-19.062 0-34.568-13.376-34.568-29.817 0-13.7 10.741-25.592 26.121-28.92 1.099-.236 2.223.288 2.744 1.285s.312 2.22-.512 2.987c-.122.114-.409.381-.409 1.235 0 3.386 3.9 8.233 6.624 8.233s6.623-4.848 6.623-8.233c0-.854-.286-1.12-.408-1.234-.824-.767-1.034-1.99-.513-2.987.521-.998 1.645-1.526 2.744-1.286 15.381 3.328 26.122 15.22 26.122 28.92 0 16.441-15.507 29.817-34.568 29.817zm-11.606-52.65c-10.765 3.847-17.963 12.77-17.963 22.832 0 13.685 13.265 24.817 29.568 24.817s29.568-11.133 29.568-24.817c0-10.062-7.199-18.985-17.964-22.832-.356 5.684-5.816 12.653-11.604 12.653s-11.248-6.968-11.605-12.653z"/><path d="m173.454 127.662c-.541 0-1.08-.176-1.526-.52-.768-.592-1.124-1.574-.915-2.52 3.032-13.72-1.113-23.859-5.125-29.948-1.009-1.533-.838-3.542.415-4.886 1.265-1.355 3.196-1.659 4.811-.753 9.555 5.365 16.209 14.217 19.244 25.598.241.908-.046 1.875-.744 2.503-4.351 3.912-9.402 7.36-15.016 10.249-.361.185-.753.277-1.144.277zm-1.18-31.946c2.856 5.554 5.656 14.017 4.489 24.73 3.005-1.827 5.795-3.836 8.341-6.007-2.41-7.961-6.713-14.239-12.83-18.723z"/><path d="m82.286 127.471c-.396 0-.792-.093-1.156-.283-5.577-2.908-10.594-6.375-14.911-10.305-.694-.632-.977-1.6-.729-2.506 3.108-11.416 9.561-19.942 19.178-25.342 1.614-.906 3.548-.602 4.812.754 1.252 1.345 1.422 3.354.413 4.885-3.987 6.052-8.119 16.129-5.162 29.767.205.948-.156 1.929-.927 2.517-.446.34-.981.513-1.518.513zm-11.543-13.259c2.518 2.173 5.278 4.187 8.252 6.02-1.106-10.614 1.675-19.003 4.51-24.516-6.057 4.441-10.338 10.642-12.762 18.496zm14.973-22.289s-.001.001-.001.001.001 0 .001-.001z"/><path d="m151.095 135.367c-.935 0-1.81-.525-2.238-1.388-.504-1.014-.263-2.24.587-2.989 5.275-4.644 8.181-10.722 8.181-17.115 0-10.062-7.199-18.985-17.964-22.832-.356 5.684-5.816 12.653-11.604 12.653s-11.249-6.969-11.605-12.653c-10.765 3.847-17.963 12.77-17.963 22.832 0 6.394 2.905 12.472 8.18 17.115.851.748 1.092 1.975.588 2.989s-1.625 1.563-2.737 1.337c-34.323-6.977-46.386-27.538-46.882-28.41-.638-1.119-.32-2.54.732-3.281l1.351-.951c-6.942-5.722-11.404-13.729-13.569-18.325-1.17-2.483-.419-5.417 1.786-6.976 2.985-2.108 11.682-9.445 27.951-31.991 13.406-18.578 28.858-23.404 39.46-24.182 3.812-.28 7.008-2.479 8.342-5.738.203-.499.37-1.01.496-1.518.26-1.045 1.062-1.872 2.096-2.158 1.024-.284 2.13.008 2.884.762l1.843 1.843c1.722-1.539 4.472-4.383 5.307-7.479.298-1.105 1.182-1.925 2.307-2.138 1.124-.214 2.249.227 2.932 1.148 1.55 2.094 5.244 7.748 6.108 15.034.094.786.644 1.421 1.402 1.619 12.011 3.123 22.495 10.796 31.162 22.806 16.269 22.545 24.965 29.882 27.949 31.99h.001c2.205 1.559 2.956 4.493 1.786 6.976-2.165 4.596-6.628 12.604-13.569 18.325l1.352.951c1.053.742 1.37 2.163.732 3.282-.496.872-12.559 21.433-46.882 28.41-.17.036-.337.052-.502.052zm-15.122-50.468c.176 0 .353.019.529.057 15.381 3.328 26.122 15.22 26.122 28.92 0 5.217-1.55 10.24-4.458 14.668 12.52-3.679 21.084-9.234 26.326-13.584 4.227-3.507 6.927-6.728 8.363-8.661l-2.17-1.527c-.676-.476-1.072-1.255-1.061-2.082.013-.827.433-1.594 1.123-2.049 7.873-5.195 12.896-14.615 14.689-18.423.128-.272.062-.614-.149-.762-3.961-2.799-13.012-10.826-29.118-33.148-7.968-11.042-17.512-18.071-28.365-20.893-2.766-.719-4.771-3.022-5.109-5.869-.457-3.848-1.871-7.172-3.183-9.545-1.809 3.078-4.418 5.526-6.102 6.917-1.544 1.275-3.78 1.168-5.2-.25l-.338-.338c-2.256 4.489-6.821 7.466-12.161 7.858-9.541.7-23.492 5.105-35.771 22.121-16.108 22.323-25.159 30.35-29.12 33.148-.21.148-.276.49-.148.762 1.794 3.809 6.816 13.228 14.689 18.423.69.455 1.11 1.222 1.123 2.049.012.827-.385 1.606-1.061 2.082l-2.169 1.527c1.436 1.932 4.136 5.153 8.363 8.661 5.242 4.35 13.807 9.905 26.325 13.584-2.908-4.428-4.457-9.451-4.457-14.668 0-13.7 10.741-25.592 26.121-28.92 1.099-.236 2.223.288 2.744 1.285s.312 2.22-.512 2.987c-.122.114-.409.381-.409 1.235 0 3.386 3.9 8.233 6.624 8.233s6.623-4.848 6.623-8.233c0-.854-.286-1.12-.408-1.234-.824-.767-1.034-1.99-.513-2.987.44-.839 1.302-1.344 2.218-1.344z"/><path d="m182.35 54.994c-.786 0-1.527-.37-2-1-1.337-1.784-2.728-3.674-4.18-5.686-4.845-6.712-10.345-11.999-16.349-15.711-.64-.396-1.067-1.058-1.165-1.803-.097-.746.146-1.495.663-2.041 6.635-7.014 15.653-11.624 26.808-13.703 2.396-.446 4.705 1.105 5.146 3.458 1.126 5.979 2.712 21.4-6.859 35.398-.455.666-1.203 1.071-2.009 1.088-.019 0-.038 0-.055 0zm-17.248-24.898c5.529 3.897 10.606 9.027 15.123 15.286.656.91 1.301 1.795 1.933 2.656 6.264-11.398 5.074-23.478 4.316-27.965-8.662 1.699-15.834 5.065-21.372 10.023z"/><path d="m73.756 55.002c-.018 0-.036 0-.054 0-.806-.018-1.555-.422-2.01-1.088-9.575-13.996-7.991-29.425-6.866-35.408.442-2.352 2.743-3.906 5.146-3.457 11.157 2.08 20.179 6.692 26.813 13.709.517.546.76 1.296.663 2.041-.098.745-.525 1.407-1.164 1.803-6.007 3.716-11.506 9-16.344 15.706-1.455 2.015-2.848 3.908-4.185 5.693-.471.631-1.213 1.001-1.999 1.001zm-4.13-34.929c-.758 4.489-1.946 16.575 4.321 27.974.635-.864 1.28-1.752 1.939-2.665 4.512-6.252 9.587-11.38 15.118-15.279-5.538-4.962-12.713-8.33-21.378-10.03zm8.288 26.772h.01z"/><path d="m128.056 103.697c-5.987 0-11.624-7.456-11.624-13.234 0-7.289 8.146-7.289 11.624-7.289s11.623 0 11.623 7.289c0 5.778-5.637 13.234-11.623 13.234zm0-15.523c-6.126 0-6.624 1.037-6.624 2.289 0 3.386 3.9 8.234 6.624 8.234s6.623-4.848 6.623-8.234c0-1.252-.498-2.289-6.623-2.289z"/><path d="m172.161 209.762c-.247 0-.498-.037-.744-.114-6.515-2.032-16.404-4.79-27.04-5.274-.798-.037-1.53-.452-1.972-1.117-.44-.666-.536-1.502-.259-2.25 1.349-3.632 2.84-7.207 4.431-10.625 2.257-4.85 6.043-14.14 6.043-21.87 0-7.235 5.114-15.022 11.896-18.111 3.794-1.73 11.453-3.506 20.107 4.021.477.414.778.993.846 1.621 1.812 16.959-1.918 34.578-11.086 52.366-.438.848-1.307 1.353-2.222 1.353zm-24.12-10.153c8.819.773 16.883 2.857 22.837 4.645 7.854-15.915 11.121-31.605 9.72-46.684-4.687-3.76-9.513-4.668-14.008-2.621-5.029 2.292-8.97 8.248-8.97 13.562 0 8.258-3.54 17.598-6.51 23.98-1.075 2.309-2.102 4.693-3.069 7.118z"/><path d="m114.306 232.674c-.448 0-.899-.121-1.303-.367-4.093-2.502-9.111-2.727-13.425-.603-1.049.517-2.313.237-3.048-.67-11.185-13.82-29.42-41.94-25.889-74.994.067-.627.369-1.207.846-1.621 8.652-7.526 16.311-5.75 20.106-4.021 6.782 3.09 11.897 10.876 11.897 18.112 0 7.735 3.786 17.022 6.043 21.87 3.216 6.909 5.927 14.216 8.058 21.72.19.671.092 1.391-.271 1.986-2.801 4.584-3.099 10.321-.777 14.97.498.998.275 2.204-.546 2.958-.474.436-1.08.66-1.691.66zm-38.792-75.104c-2.764 29.713 13.102 55.324 23.729 68.847 3.581-1.314 7.417-1.508 11.043-.608-.765-4.484-.015-9.225 2.206-13.35-2.013-6.896-4.53-13.608-7.49-19.967-2.97-6.379-6.51-15.718-6.51-23.98 0-5.313-3.94-11.27-8.971-13.562-4.492-2.048-9.32-1.141-14.007 2.62z"/><path d="m183.963 255.999h-26.803c-1.381 0-2.5-1.119-2.5-2.5v-.186c0-1.298.994-2.38 2.287-2.491 5.63-.48 7.438-2.064 7.438-6.516 0-2.118-.476-4.176-1.415-6.116-.372-.771-.325-1.679.127-2.407.451-.728 1.244-1.174 2.101-1.182 7.418-.069 14 .468 20.064 1.647.479.093.921.325 1.271.667 3.104 3.035 4.51 7.157 4.178 12.253-.25 3.831-3.214 6.831-6.748 6.831zm-26.803-2.686h.01zm10.507-2.314h16.296c.892 0 1.68-.967 1.757-2.155.217-3.32-.502-5.891-2.193-7.834-4.531-.832-9.385-1.291-14.731-1.393.393 1.527.59 3.094.59 4.689-.001 2.907-.658 5.073-1.719 6.693z"/><path d="m98.951 255.999h-26.804c-3.534 0-6.498-3-6.747-6.831-.329-5.068 1.053-9.171 4.107-12.195 4.506-4.462 12.418-6.301 23.514-5.469.924.069 1.733.644 2.104 1.493s.241 1.833-.336 2.558c-2.003 2.516-3.062 5.542-3.062 8.751 0 4.452 1.808 6.036 7.438 6.516 1.293.11 2.287 1.192 2.287 2.491v.186c-.001 1.381-1.12 2.5-2.501 2.5zm-10.88-19.689c-7.081 0-12.236 1.434-15.046 4.216-2.008 1.988-2.87 4.708-2.635 8.318.077 1.188.865 2.155 1.757 2.155h16.297c-1.061-1.62-1.718-3.786-1.718-6.693 0-2.809.598-5.513 1.751-7.995-.135 0-.271-.001-.406-.001z"/></svg>