<svg enable-background="new 0 0 256 256" height="512" viewBox="0 0 256 256" width="512" xmlns="http://www.w3.org/2000/svg"><path d="m205.101 100.164c-.272-.528.203-1.127.78-.983l1.39.348c.477.119.928-.278.856-.764-.391-2.65-2.389-10.145-12.604-17.528-1.856-1.341-3.281-3.192-4.111-5.325-3.843-9.868-17.266-38.218-45.728-41.887-1.06-.137-1.971-.834-2.405-1.81-2.91-6.542-6.892-10.998-9.234-13.248-.571-.549-1.504-.029-1.353.748.619 3.185.541 5.748.336 7.438-.092.758-1.081.996-1.489.35-3.007-4.765-8.029-7.624-11.049-9.003-.732-.334-1.437.484-1.019 1.172 2.877 4.732 2.591 8.453 2.18 10.219-.128.55-.764.815-1.234.502-4.27-2.837-7.948-2.602-9.741-2.22-.576.123-.811.799-.472 1.281.017.024.034.049.051.073 1.304 1.869.142 4.438-2.102 4.836-26.98 4.783-39.82 31.936-43.565 41.55-.833 2.138-2.265 3.989-4.124 5.334-10.204 7.38-12.201 14.87-12.592 17.519-.072.486.379.884.856.764l1.39-.348c.577-.144 1.053.455.78.983-3.04 5.892-3.259 13.338-3.192 16.545.013.612.751.907 1.184.475l2.649-2.649c.417-.417 1.128-.154 1.174.433 2.307 29.542 70.73 32.704 75.286 32.59 4.556.114 72.979-3.047 75.286-32.59.046-.587.757-.85 1.174-.433l2.649 2.649c.433.433 1.171.137 1.184-.475.068-3.208-.151-10.654-3.191-16.546z" fill="#f4dbce"/><path d="m142.765 121.52h-2.904c-6.551 0-11.861-5.311-11.861-11.862v.625c0 6.551-5.311 11.862-11.862 11.862h-2.904c-.996 0-1.968-.101-2.908-.292 3.138 8.967 10.545 17.789 17.674 17.789 7.309 0 14.915-9.275 17.908-18.471-1.013.223-2.063.349-3.143.349z" fill="#fd605b"/><path d="m128 109.66v18.03c0 1.268 1.037 2.305 2.305 2.305h5.118c1.268 0 2.305-1.037 2.305-2.305v-6.371c-5.53-1.006-9.727-5.838-9.728-11.659z" fill="#e3e4e5"/><path d="m128 109.659v.625c0 5.822-4.197 10.654-9.729 11.66v5.746c0 1.268 1.037 2.305 2.305 2.305h5.118c1.268 0 2.306-1.037 2.306-2.305v-18.03c0-.001 0-.001 0-.001z" fill="#e3e4e5"/><path d="m77.87 53.073c4.014-4.843 8.959-9.473 14.944-13.001-4.1-4.418-9.408-12.08-12.325-24.072-4.5-18.5-38 1-25 22 7.234 11.686 16.013 14.698 22.381 15.073z" fill="#f98080"/><path d="m178.119 53.074c6.368-.373 15.153-3.381 22.392-15.074 13-21-20.5-40.5-25-22-2.918 11.998-8.231 19.662-12.331 24.079 5.984 3.527 10.924 8.155 14.939 12.995z" fill="#f98080"/><g fill="#f89422"><path d="m171.41 46.084c6.896-4.45 11.862-13.758 16.101-23.084 4.195-9.228 13.137 2.553 15.91 6.59 1.491-17.199-24.023-29.568-27.91-13.59-2.917 11.992-8.226 19.655-12.325 24.072 2.996 1.767 5.736 3.804 8.224 6.012z"/><path d="m68.489 23c4.241 9.33 9.208 18.64 16.108 23.088 2.488-2.208 5.221-4.25 8.216-6.016-4.099-4.418-9.407-12.08-12.324-24.072-3.887-15.978-29.401-3.609-27.91 13.59 2.773-4.036 11.715-15.818 15.91-6.59z"/><path d="m205.101 100.164c-.272-.528.203-1.127.78-.983l1.39.348c.476.119.928-.279.856-.764-.391-2.651-2.39-10.15-12.614-17.535-1.854-1.34-3.273-3.193-4.104-5.325-3.472-8.913-14.756-32.853-37.843-40.132-7.159 10.602-26.061 41.737-12.28 56.67 5.754-.602 11.203 2.289 14.039 7.056 21.196 4.558 35.825.307 45.712 23.03 1.249-2.306 2.035-4.82 2.249-7.562.046-.586.758-.848 1.174-.432l2.649 2.649c.433.433 1.171.137 1.184-.475.067-3.207-.152-10.653-3.192-16.545z"/><path d="m114.153 93.015c14.831-14.695-4.472-46.509-11.722-57.246-23.088 7.278-34.368 31.223-37.84 40.136-.83 2.132-2.25 3.985-4.104 5.325-10.224 7.385-12.223 14.885-12.614 17.535-.072.486.38.884.856.764l1.39-.348c.577-.144 1.052.455.78.983-3.04 5.892-3.259 13.338-3.192 16.546.013.612.751.907 1.184.475l2.649-2.649c.416-.416 1.128-.155 1.174.432.214 2.742 1 5.256 2.249 7.562 9.96-22.891 24.73-18.405 46.18-23.129 2.839-4.185 7.762-6.729 13.01-6.386z"/><path d="m176.203 218.788c.9-7.544 10.67-10.574 17.423-7.093 3.74 1.928 6.05 5.445 6.692 8.873 8.582-22.734-9.686-62.129-20.538-82.325-21.024 8.173-48.926 9.388-51.78 9.316-2.853.071-30.755-1.143-51.78-9.316-10.852 20.196-29.12 59.591-20.538 82.324.641-3.428 2.951-6.944 6.692-8.872 6.753-3.481 16.524-.451 17.423 7.093 1.405 11.779 7.786 20.831 8.782 27.302 19.199 7.56 36.316 7.411 39.42 7.411s20.221.149 39.42-7.411c.998-6.471 7.379-15.523 8.784-27.302z"/></g><path d="m140.463 92.53c.21.402.327.857.327 1.376 0 3.95-6.514 9.505-12.79 9.641v6.112c0 6.551 5.311 11.862 11.862 11.862h2.904c8.061 0 14.596-6.535 14.596-14.596-.001-9.157-8.242-15.805-16.899-14.395z" fill="#f4dbce"/><path d="m127.766 103.56c-6.347 0-13.025-5.655-13.025-9.653 0-.306.052-.584.127-.848-8.408-.971-16.229 5.57-16.229 14.49 0 8.061 6.535 14.596 14.596 14.596h2.904c6.551 0 11.862-5.311 11.862-11.862v-6.736c-.079.002-.157.013-.235.013z" fill="#f4dbce"/><path d="m160.006 186.231c-1.974-6.972-7.513-8.606-7.513-8.606 3.488-8.252 8.853-14.081 13.318-17.835-1.597-5.831-3.306-11.332-4.903-16.133-15.997 3.345-30.867 3.953-32.908 3.902-2.042.051-16.912-.558-32.908-3.902-1.597 4.801-3.306 10.302-4.903 16.133 4.464 3.754 9.829 9.583 13.318 17.835 0 0-5.539 1.634-7.513 8.606 0 0-4.779.239-11.04-2.222-2.168 14.789-1.882 28.716 4.136 36.592 16.07 21.032 36.238 20.743 38.911 20.743s22.841.289 38.911-20.743c6.018-7.876 6.304-21.803 4.136-36.592-6.263 2.461-11.042 2.222-11.042 2.222z" fill="#f4dbce"/><path d="m140.79 93.906c0 3.999-6.678 9.653-13.025 9.653s-13.025-5.655-13.025-9.653 6.678-4.307 13.025-4.307c6.348.001 13.025.309 13.025 4.307z" fill="#f98080"/><path d="m152.494 177.625s-11.332-1.838-15.138 6.725c-2.965 6.671 3.31 7.567 6.227 7.638.697.017 1.209.644 1.113 1.334-.272 1.948-.248 5.299 3.126 5.299 4.757 0 10.282-1.925 12.185-12.39-1.974-6.972-7.513-8.606-7.513-8.606z" fill="#ffc097"/><path d="m103.506 177.625s11.332-1.838 15.138 6.725c2.965 6.671-3.31 7.567-6.227 7.638-.697.017-1.209.644-1.113 1.334.272 1.948.248 5.299-3.126 5.299-4.757 0-10.282-1.925-12.185-12.39 1.974-6.972 7.513-8.606 7.513-8.606z" fill="#ffc097"/><path d="m193.626 211.695c-6.753-3.481-16.524-.451-17.423 7.093-2.01 16.857-14.228 28.135-6.24 34.244 5.511 4.215 30.544-21.146 30.544-30.544 0-3.964-2.435-8.501-6.881-10.793z" fill="#ffc097"/><path d="m62.374 211.695c6.753-3.481 16.524-.451 17.423 7.093 2.01 16.857 14.228 28.135 6.24 34.244-5.511 4.215-30.544-21.146-30.544-30.544 0-3.964 2.435-8.501 6.881-10.793z" fill="#ffc097"/><path d="m128.048 150.059c-.021 0-.074 0-.096 0-.007 0-.011 0-.015 0v-.001c-3.338-.067-69.723-2.463-77.116-31.266l-.162.161c-.904.906-2.257 1.184-3.448.707-1.188-.477-1.975-1.613-2.003-2.894-.071-3.374.165-9.367 2.227-14.919-.372-.14-.721-.35-1.024-.626-.789-.716-1.166-1.771-1.01-2.824.463-3.142 2.717-11.306 13.6-19.177 1.473-1.066 2.6-2.523 3.258-4.215 4.408-11.319 17.661-38.177 45.458-43.105.351-.062.492-.32.537-.427.116-.281-.008-.458-.049-.517-.695-.988-.838-2.165-.427-3.212.404-1.032 1.294-1.787 2.378-2.017 1.834-.391 5.233-.657 9.236 1.222-.098-1.548-.601-3.583-2.058-5.979-.764-1.256-.622-2.837.353-3.935.969-1.091 2.514-1.417 3.841-.81 2.255 1.029 5.904 3.004 9.031 6.115-.069-.671-.173-1.389-.32-2.148-.277-1.426.393-2.852 1.669-3.547 1.27-.691 2.824-.484 3.87.519 2.311 2.22 6.654 6.996 9.785 14.035.083.187.257.323.441.347 30.1 3.88 44.148 34.245 47.737 43.459.66 1.693 1.782 3.148 3.247 4.207 10.893 7.873 13.148 16.042 13.612 19.189.155 1.049-.222 2.105-1.011 2.821-.304.276-.652.486-1.024.626 2.061 5.552 2.298 11.545 2.227 14.916-.028 1.284-.814 2.42-2.003 2.896-1.19.477-2.542.2-3.448-.707l-.162-.161c-7.393 28.8-73.771 31.198-77.116 31.266v.001c-.003 0-.008 0-.015 0zm-.048-5c.021 0 .042 0 .062.001 8.734.224 70.727-4.607 72.731-30.286.097-1.237.91-2.314 2.074-2.744.935-.345 1.969-.226 2.796.289-.262-3.292-.973-7.498-2.785-11.009-.573-1.111-.442-2.462.333-3.441.47-.592 1.124-.986 1.837-1.138-1.066-3.12-3.833-8.295-10.99-13.468-2.246-1.624-3.967-3.852-4.976-6.444-13.196-33.879-36.8-39.422-43.719-40.314-1.906-.246-3.58-1.5-4.37-3.273-1.603-3.603-3.558-6.534-5.318-8.749.006 1.181-.07 2.183-.166 2.971-.17 1.394-1.203 2.535-2.57 2.842-1.377.31-2.759-.262-3.514-1.458-1.506-2.386-3.629-4.25-5.657-5.637.934 3.222.661 5.774.316 7.255-.246 1.06-.997 1.933-2.009 2.334-1.006.4-2.143.281-3.043-.316-2.255-1.499-4.266-1.963-5.792-2.023.144.975.023 1.988-.37 2.937-.75 1.809-2.351 3.093-4.282 3.435-26.01 4.612-38.472 31.779-41.672 39.996-1.007 2.589-2.731 4.82-4.986 6.452-7.149 5.171-9.914 10.344-10.979 13.46.712.152 1.367.546 1.836 1.138.776.979.907 2.33.334 3.442-1.812 3.511-2.523 7.716-2.784 11.009.825-.515 1.859-.634 2.795-.289 1.164.43 1.978 1.506 2.074 2.744 2.005 25.678 64.017 30.494 72.731 30.286.021-.001.042-.002.063-.002zm77.275-43.452h.004zm-154.547-.001-.004.001c.001 0 .003 0 .004-.001zm154.925-2.477c0 .001.001.002.001.003 0-.001-.001-.002-.001-.003zm-155.306-.003v.003c0-.001 0-.002 0-.003z"/><path d="m201.037 125.029c-.035 0-.071-.001-.107-.002-.956-.041-1.804-.624-2.185-1.5-7.111-16.345-16.412-17.565-30.491-19.413-4.038-.53-8.614-1.13-13.453-2.17-.68-.146-1.268-.569-1.623-1.166-2.404-4.041-6.957-6.335-11.632-5.849-.785.084-1.562-.211-2.097-.791-14.757-15.99 3.508-47.122 12.045-59.764.621-.917 1.771-1.317 2.824-.985 7.956 2.509 27.726 11.585 39.42 41.609.661 1.698 1.781 3.152 3.239 4.206 10.902 7.875 13.159 16.048 13.623 19.197.155 1.049-.222 2.104-1.011 2.82-.304.275-.652.486-1.024.626 2.061 5.551 2.298 11.544 2.227 14.916-.028 1.284-.814 2.419-2.003 2.896-1.189.478-2.543.198-3.448-.707l-.163-.163c-.437 1.701-1.086 3.351-1.942 4.932-.439.808-1.285 1.308-2.199 1.308zm-44.174-27.762c4.252.868 8.207 1.387 12.041 1.89 13.097 1.718 23.729 3.113 31.726 16.975.073-.449.128-.902.164-1.358.097-1.237.91-2.312 2.073-2.742.935-.345 1.97-.226 2.797.29-.262-3.293-.973-7.499-2.785-11.01-.573-1.111-.442-2.462.333-3.441.47-.592 1.124-.986 1.837-1.138-1.066-3.121-3.835-8.3-11-13.475-2.24-1.62-3.958-3.848-4.97-6.444-10.11-25.957-26.384-35.033-34.499-38.048-6.829 10.425-22.759 37.728-12.206 51.105 5.714-.154 11.22 2.652 14.489 7.396zm48.412 4.34h.004zm.378-2.479c0 .001.001.003.001.004 0-.001-.001-.002-.001-.004z"/><path d="m54.963 125.029c-.915 0-1.76-.5-2.198-1.31-.856-1.582-1.506-3.23-1.941-4.931l-.164.163c-.904.906-2.257 1.184-3.448.707-1.188-.477-1.975-1.613-2.003-2.894-.071-3.374.166-9.368 2.227-14.919-.372-.14-.721-.35-1.024-.626-.789-.716-1.166-1.771-1.01-2.824.463-3.145 2.72-11.318 13.623-19.194 1.457-1.053 2.577-2.507 3.237-4.205 11.698-30.03 31.463-39.105 39.418-41.613 1.057-.332 2.204.069 2.824.985 8.725 12.92 27.302 44.673 11.409 60.42-.508.503-1.201.763-1.923.719-4.24-.273-8.373 1.751-10.778 5.295-.358.529-.906.9-1.53 1.038-5.025 1.106-9.761 1.728-13.938 2.275-14.077 1.846-23.376 3.066-30.487 19.41-.381.876-1.229 1.459-2.185 1.5-.038.003-.074.004-.109.004zm-2.93-13.194c.369 0 .742.064 1.1.196 1.163.43 1.977 1.505 2.073 2.741.036.457.091.91.164 1.359 7.995-13.86 18.627-15.254 31.722-16.972 4.002-.524 8.132-1.066 12.59-2.002 3.211-4.161 8.195-6.635 13.422-6.672 11.562-13.14-4.72-41.09-11.687-51.725-8.114 3.014-24.384 12.091-34.497 38.052-1.011 2.597-2.729 4.825-4.968 6.443-7.167 5.176-9.935 10.356-11.001 13.476.712.152 1.367.546 1.837 1.138.775.979.906 2.331.333 3.441-1.812 3.511-2.523 7.716-2.785 11.009.511-.317 1.101-.484 1.697-.484zm-1.305-10.229-.004.001c.001 0 .003 0 .004-.001zm-.381-2.481v.003s0-.002 0-.003z"/><path d="m135.424 132.495h-5.118c-2.649 0-4.806-2.156-4.806-4.805v-18.03c0-1.381 1.119-2.5 2.5-2.5s2.5 1.119 2.5 2.5c.001 4.522 3.229 8.391 7.676 9.2 1.188.216 2.053 1.251 2.053 2.459v6.371c0 2.649-2.156 4.805-4.805 4.805zm-4.924-5h4.729v-4.248c-1.764-.598-3.361-1.523-4.729-2.698z"/><path d="m125.694 132.495h-5.118c-2.649 0-4.805-2.156-4.805-4.805v-5.746c0-1.208.864-2.244 2.053-2.459 4.447-.809 7.676-4.678 7.676-9.201v-.625c0-1.381 1.119-2.5 2.5-2.5 1.375 0 2.491 1.11 2.5 2.484v.016 18.031c0 2.649-2.156 4.805-4.806 4.805zm-4.923-5h4.729v-6.321c-1.367 1.175-2.965 2.1-4.729 2.698z"/><path d="m142.766 124.02h-2.904c-7.919 0-14.361-6.442-14.361-14.361v-6.112c0-1.36 1.087-2.47 2.446-2.5 5.343-.115 10.344-4.98 10.344-7.141 0-.136-.029-.192-.044-.219-.371-.712-.378-1.558-.019-2.276s1.041-1.219 1.834-1.348c4.931-.805 9.966.607 13.805 3.872 3.81 3.24 5.995 7.974 5.995 12.989-.001 9.427-7.67 17.096-17.096 17.096zm-12.266-18.248v3.887c0 5.162 4.199 9.361 9.361 9.361h2.904c6.67 0 12.096-5.426 12.096-12.096 0-3.598-1.504-6.858-4.234-9.18-2.107-1.792-4.719-2.796-7.409-2.894-.716 4.737-6.628 9.711-12.718 10.922z"/><path d="m116.139 124.645h-2.904c-9.427 0-17.096-7.669-17.096-17.096 0-4.936 2.022-9.457 5.694-12.729 3.65-3.253 8.506-4.804 13.322-4.245.729.084 1.383.484 1.791 1.094.407.609.527 1.367.327 2.073-.032.112-.032.152-.032.165 0 2.228 5.058 7.124 10.475 7.153.085-.006.153-.01.222-.012.66-.023 1.326.239 1.808.709s.755 1.116.755 1.79v6.736c-.001 7.919-6.443 14.362-14.362 14.362zm-3.704-29.156c-2.663.176-5.232 1.243-7.274 3.063-2.594 2.311-4.021 5.506-4.021 8.997 0 6.67 5.426 12.096 12.096 12.096h2.904c5.162 0 9.361-4.2 9.361-9.362v-4.413c-6.025-.985-11.936-5.663-13.066-10.381z"/><path d="m128 142.143c-8.587 0-16.73-10.028-20.033-19.463-.297-.849-.116-1.791.475-2.468.59-.677 1.496-.986 2.38-.809.795.161 1.606.242 2.413.242h2.904c5.162 0 9.361-4.2 9.361-9.362v-.625c0-1.381 1.119-2.5 2.5-2.5s2.5 1.119 2.5 2.5c0 5.162 4.199 9.361 9.361 9.361h2.904c.854 0 1.73-.098 2.606-.29.87-.192 1.786.099 2.389.763.602.665.802 1.6.524 2.453-3.185 9.792-11.378 20.198-20.284 20.198zm-13.803-17.498c3.491 7.149 9.215 12.498 13.803 12.498 4.719 0 10.666-5.717 14.104-13.123h-2.242c-4.788 0-9.037-2.356-11.647-5.969-2.56 3.964-7.017 6.594-12.075 6.594z"/><path d="m127.766 106.06c-7.399 0-15.524-6.361-15.524-12.153 0-6.807 9.718-6.807 15.524-6.807s15.524 0 15.524 6.807c0 5.792-8.125 12.153-15.524 12.153zm0-13.96c-9.499 0-10.524 1.264-10.524 1.807 0 2.234 5.088 7.153 10.524 7.153s10.524-4.919 10.524-7.153c0-.544-1.025-1.807-10.524-1.807z"/><path d="m147.438 84.985c-1.377 0-2.495-1.114-2.5-2.492-.021-6.48 5.234-11.77 11.715-11.791h.037c6.464 0 11.731 5.247 11.753 11.714.005 1.381-1.111 2.504-2.492 2.508-.002 0-.005 0-.008 0-1.377 0-2.495-1.114-2.5-2.492-.012-3.716-3.039-6.731-6.753-6.731-.007 0-.014 0-.021 0-3.724.012-6.742 3.051-6.73 6.774.005 1.381-1.111 2.504-2.492 2.508-.004.002-.007.002-.009.002z"/><path d="m108.562 84.955c-1.381 0-2.5-1.119-2.5-2.5 0-3.723-3.029-6.752-6.753-6.752-3.723 0-6.752 3.029-6.752 6.752 0 1.381-1.119 2.5-2.5 2.5s-2.5-1.119-2.5-2.5c0-6.48 5.271-11.752 11.752-11.752s11.753 5.272 11.753 11.752c0 1.381-1.119 2.5-2.5 2.5z"/><path d="m77.87 55.573c-.049 0-.098-.001-.147-.004-6.77-.399-16.491-3.543-24.359-16.253-4.592-7.417-4.449-15.746.391-22.849 4.854-7.124 13.31-11.395 20.105-10.162 4.618.839 7.835 4.072 9.059 9.104 2.812 11.562 7.931 18.869 11.729 22.963.515.555.75 1.313.641 2.062s-.552 1.408-1.204 1.792c-5.156 3.039-9.964 7.226-14.288 12.442-.479.576-1.185.905-1.927.905zm-6.415-44.48c-4.59 0-10.271 3.349-13.569 8.189-2.161 3.171-5.069 9.649-.271 17.401 6.263 10.117 13.679 13.145 19.181 13.786 3.759-4.366 7.855-8.041 12.222-10.962-3.867-4.766-8.349-12.19-10.957-22.917-.75-3.083-2.464-4.888-5.095-5.366-.487-.088-.991-.131-1.511-.131z"/><path d="m171.41 48.584c-.598 0-1.19-.213-1.661-.63-2.467-2.19-5.103-4.117-7.833-5.727-.652-.384-1.095-1.043-1.204-1.792s.126-1.507.641-2.062c3.799-4.093 8.916-11.399 11.729-22.963 1.644-6.757 7.007-10.244 13.977-9.1 9.742 1.598 19.881 11.64 18.853 23.496-.091 1.052-.832 1.933-1.854 2.202-1.019.269-2.1-.132-2.697-1.002-4.364-6.354-8.089-9.072-9.764-8.946-.785.069-1.418 1.112-1.81 1.976-4.398 9.676-9.505 19.299-17.022 24.15-.415.266-.886.398-1.355.398zm-4.428-9.077c1.562 1.044 3.088 2.181 4.563 3.401 5.715-4.546 10.107-13.063 13.688-20.943 1.709-3.759 4.165-4.732 5.925-4.887 2.59-.23 5.229 1.189 7.681 3.321-2.897-4.994-8.202-8.437-12.59-9.156-3.075-.505-7.013.015-8.311 5.347-2.608 10.728-7.088 18.152-10.956 22.917z"/><path d="m178.119 55.574c-.741 0-1.448-.33-1.924-.904-4.328-5.218-9.134-9.402-14.285-12.438-.652-.384-1.095-1.043-1.204-1.792s.126-1.507.642-2.062c3.8-4.093 8.92-11.4 11.734-22.969 1.224-5.032 4.44-8.265 9.059-9.104 6.79-1.232 15.251 3.038 20.105 10.162 4.84 7.103 4.982 15.431.391 22.849-7.871 12.715-17.598 15.857-24.371 16.254-.049.003-.098.004-.147.004zm-11.142-16.059c4.361 2.918 8.457 6.592 12.217 10.957 5.505-.64 12.926-3.667 19.191-13.788 4.799-7.752 1.891-14.23-.271-17.401-3.671-5.389-10.296-8.927-15.08-8.058-2.631.478-4.345 2.283-5.095 5.366-2.61 10.733-7.093 18.159-10.962 22.924z"/><path d="m84.596 48.588c-.469 0-.939-.131-1.354-.399-7.521-4.85-12.63-14.476-17.029-24.155-.392-.863-1.024-1.906-1.81-1.975-1.674-.131-5.4 2.596-9.764 8.947-.598.87-1.676 1.27-2.698 1.001-1.021-.269-1.762-1.15-1.853-2.202-1.027-11.855 9.111-21.898 18.853-23.495 6.972-1.145 12.333 2.342 13.977 9.1 2.812 11.562 7.931 18.869 11.729 22.963.515.555.75 1.313.641 2.062s-.552 1.408-1.204 1.792c-2.702 1.593-5.335 3.521-7.827 5.732-.471.416-1.065.629-1.661.629zm-20.303-31.533c.183 0 .365.008.548.024 1.76.155 4.216 1.128 5.925 4.887 3.582 7.882 7.977 16.402 13.693 20.948 1.481-1.227 3.005-2.365 4.559-3.405-3.867-4.766-8.348-12.19-10.957-22.917-1.298-5.333-5.234-5.853-8.311-5.347-4.389.72-9.694 4.164-12.591 9.159 2.279-1.986 4.724-3.349 7.134-3.349z"/><path d="m147.821 201.122c-2.224 0-3.54-.977-4.253-1.796-1.031-1.184-1.53-2.869-1.472-4.924-2.601-.257-5.537-1.131-7.076-3.562-1.28-2.023-1.264-4.548.051-7.504 4.535-10.205 17.281-8.264 17.823-8.178.104.017.206.04.308.07.279.083 6.887 2.119 9.21 10.323.104.367.123.753.055 1.128-1.743 9.583-6.671 14.443-14.646 14.443zm2.014-21.177c-2.993 0-8.111.732-10.195 5.42-.567 1.278-.711 2.298-.394 2.8.475.751 2.201 1.271 4.397 1.323 1.037.026 2.017.494 2.688 1.284.678.798.983 1.853.84 2.893-.215 1.537.056 2.249.168 2.377.018.021.166.079.481.079 3.573 0 7.868-1.125 9.613-9.752-1.502-4.538-4.843-6.039-5.525-6.302-.342-.044-1.094-.122-2.073-.122z"/><path d="m108.179 201.122c-7.975 0-12.902-4.859-14.646-14.443-.068-.375-.05-.761.055-1.128 2.323-8.204 8.931-10.24 9.21-10.323.102-.03.204-.053.308-.07.543-.087 13.288-2.029 17.823 8.178 1.314 2.956 1.331 5.48.051 7.504-1.539 2.431-4.475 3.305-7.076 3.562.059 2.055-.44 3.74-1.472 4.924-.713.819-2.03 1.796-4.253 1.796zm-9.614-14.753c1.744 8.628 6.039 9.752 9.613 9.752.315 0 .464-.058.481-.079.112-.128.383-.84.168-2.375-.144-1.042.162-2.097.84-2.895.672-.791 1.651-1.258 2.688-1.284 2.197-.053 3.924-.573 4.398-1.324.317-.501.174-1.522-.394-2.8-2.755-6.197-10.927-5.463-12.269-5.298-.744.287-4.028 1.774-5.525 6.303z"/><path d="m160.402 188.739c-.288 0-.467-.008-.521-.011-1.07-.054-1.987-.784-2.279-1.815-1.556-5.492-5.772-6.877-5.815-6.89-.683-.202-1.247-.685-1.552-1.329s-.32-1.387-.043-2.042c7.206-17.049 21.837-24.201 22.456-24.497 1.244-.598 2.737-.069 3.334 1.177.595 1.245.069 2.736-1.175 3.333-.185.09-12.319 6.101-19.033 19.793 1.906 1.186 4.43 3.381 5.993 7.213 3.514-.292 12.099-1.824 19.886-9.622.974-.977 2.558-.978 3.535-.002s.979 2.559.002 3.536c-10.516 10.53-22.171 11.156-24.788 11.156z"/><path d="m95.598 188.739c-2.615 0-14.271-.625-24.787-11.157-.977-.977-.975-2.56.002-3.536s2.559-.975 3.535.002c7.843 7.853 16.38 9.355 19.882 9.631 1.563-3.837 4.09-6.035 5.997-7.223-6.753-13.792-18.902-19.729-19.03-19.791-1.246-.596-1.772-2.088-1.178-3.334.597-1.246 2.089-1.774 3.334-1.177.619.296 15.25 7.448 22.456 24.497.277.656.262 1.399-.043 2.042s-.869 1.127-1.552 1.329c-.148.048-4.267 1.422-5.815 6.89-.292 1.031-1.209 1.762-2.279 1.815-.056.004-.234.012-.522.012z"/><path d="m128.15 243.844c-.016 0-.03 0-.046 0h-.209c-.015 0-.031 0-.046 0-7.299 0-25.775-2.13-40.747-21.725-5.714-7.479-7.27-20.422-4.623-38.473.11-.754.56-1.417 1.22-1.8.661-.383 1.458-.443 2.169-.164 3.552 1.396 6.595 1.848 8.364 1.991 1.562-3.833 4.088-6.029 5.994-7.216-3.39-6.911-8.121-11.789-11.646-14.753-.747-.628-1.061-1.633-.803-2.574 1.44-5.261 3.104-10.733 4.942-16.262.399-1.205 1.644-1.916 2.884-1.658 15.941 3.333 30.82 3.881 32.334 3.851.043-.001.082-.001.125 0 1.517.04 16.392-.517 32.334-3.851 1.24-.258 2.482.452 2.884 1.658 1.834 5.51 3.496 10.981 4.942 16.262.258.941-.056 1.946-.802 2.574-3.526 2.965-8.259 7.844-11.647 14.754 1.906 1.187 4.432 3.383 5.994 7.216 1.77-.143 4.812-.594 8.364-1.991.709-.279 1.509-.219 2.169.164s1.109 1.046 1.22 1.8c2.646 18.051 1.091 30.995-4.623 38.473-14.97 19.592-33.447 21.724-40.747 21.724zm-.15-5h.11c6.541-.027 23.167-1.901 36.814-19.761 4.568-5.979 5.929-16.642 4.054-31.721-5.188 1.539-8.914 1.373-9.097 1.366-1.071-.054-1.988-.784-2.28-1.816-1.556-5.492-5.772-6.877-5.815-6.889-.683-.202-1.247-.685-1.552-1.329s-.32-1.387-.043-2.042c3.443-8.146 8.644-14.001 12.79-17.715-1.133-4.048-2.392-8.201-3.754-12.389-15.576 3.045-29.304 3.534-31.228 3.512-1.912.025-15.65-.467-31.228-3.512-1.366 4.201-2.624 8.353-3.754 12.389 4.146 3.714 9.347 9.569 12.79 17.715.277.656.262 1.399-.043 2.042s-.869 1.127-1.552 1.329c-.148.048-4.267 1.422-5.815 6.889-.292 1.032-1.209 1.762-2.28 1.816-.183.008-3.91.171-9.097-1.366-1.875 15.08-.515 25.743 4.054 31.722 13.646 17.858 30.275 19.732 36.814 19.761h.112z"/><path d="m171.501 255.999c-1.18 0-2.201-.327-3.057-.981-6.244-4.775-3.255-11.785-.089-19.206 2.146-5.034 4.58-10.739 5.364-17.32.457-3.828 2.715-7.001 6.359-8.935 4.445-2.36 10.212-2.394 14.692-.084 4.926 2.539 8.235 7.77 8.235 13.015 0 5.575-6.162 13.502-9.835 17.731-5.717 6.583-12.197 12.119-16.912 14.45-1.792.886-3.382 1.33-4.757 1.33zm-.088-5.006c.275.023 2.201.042 7.141-3.706 9.454-7.173 19.453-19.92 19.453-24.799 0-2.756-1.729-6.614-5.526-8.571-3.021-1.557-7.062-1.534-10.057.056-1.524.809-3.41 2.353-3.739 5.111-.869 7.292-3.564 13.611-5.73 18.689-3.335 7.817-4.344 11.015-1.542 13.22z"/><path d="m84.499 255.999c-1.375 0-2.965-.443-4.759-1.33-4.715-2.331-11.195-7.867-16.912-14.45-3.673-4.229-9.835-12.156-9.835-17.731 0-5.246 3.31-10.476 8.235-13.015 4.481-2.31 10.248-2.275 14.692.084 3.645 1.934 5.902 5.107 6.359 8.935.784 6.582 3.218 12.287 5.364 17.321 3.166 7.421 6.155 14.431-.089 19.206-.854.653-1.875.98-3.055.98zm-20.979-42.082c-3.797 1.957-5.526 5.815-5.526 8.571 0 4.879 9.999 17.626 19.453 24.799 4.939 3.747 6.868 3.732 7.141 3.706 2.802-2.205 1.793-5.402-1.541-13.219-2.166-5.078-4.861-11.397-5.73-18.69-.329-2.758-2.215-4.302-3.739-5.111-2.996-1.59-7.038-1.614-10.058-.056z"/><path d="m128.253 256c-.026 0-.052 0-.078 0h-.35c-.025 0-.053 0-.078 0-13.428 0-27.658-2.692-40.084-7.584-.827-.326-1.42-1.067-1.555-1.946-.361-2.35-1.615-5.292-3.068-8.7-2.163-5.077-4.855-11.395-5.725-18.686-.329-2.758-2.215-4.302-3.739-5.111-2.994-1.59-7.036-1.613-10.057-.056-2.764 1.424-4.825 4.149-5.38 7.11-.206 1.102-1.121 1.932-2.237 2.03-1.117.104-2.162-.559-2.559-1.607-8.858-23.466 9.151-62.945 20.675-84.391.597-1.112 1.928-1.606 3.108-1.146 20.173 7.842 47.62 9.223 50.811 9.147.041-.001.084-.001.125 0 3.204.081 30.636-1.305 50.811-9.147 1.179-.459 2.511.035 3.108 1.146 11.523 21.445 29.533 60.925 20.675 84.391-.396 1.049-1.433 1.712-2.559 1.607-1.116-.099-2.031-.928-2.237-2.03-.555-2.961-2.616-5.686-5.38-7.11-3.021-1.557-7.063-1.534-10.057.056-1.524.809-3.41 2.353-3.739 5.111-.869 7.292-3.562 13.611-5.726 18.688-1.452 3.407-2.706 6.35-3.068 8.699-.135.879-.728 1.62-1.555 1.946-12.423 4.891-26.655 7.583-40.082 7.583zm-.253-5h.179.075c12.361 0 25.435-2.39 36.984-6.749.615-2.562 1.792-5.323 3.12-8.44 2.146-5.033 4.576-10.737 5.361-17.319.457-3.827 2.715-7 6.359-8.935 4.445-2.36 10.212-2.394 14.692-.084 1.869.963 3.502 2.294 4.811 3.877 3.298-22.223-12.486-55.893-20.979-71.997-20.823 7.517-46.955 8.785-50.603 8.707-3.632.075-29.778-1.188-50.603-8.707-8.493 16.104-24.277 49.774-20.979 71.997 1.309-1.583 2.941-2.914 4.811-3.877 4.48-2.309 10.247-2.275 14.692.084 3.645 1.934 5.902 5.107 6.359 8.935.784 6.582 3.216 12.286 5.36 17.318 1.328 3.118 2.505 5.879 3.12 8.442 11.55 4.358 24.625 6.749 36.985 6.749h.075.181zm39.42-4.911h.01z"/><path d="m192.673 223.311c-.518 0-1.039-.16-1.486-.491-1.109-.822-1.343-2.388-.521-3.497l4.503-6.079c.822-1.109 2.39-1.342 3.497-.521 1.109.822 1.343 2.387.521 3.497l-4.503 6.079c-.491.661-1.246 1.012-2.011 1.012z"/><path d="m185.283 220.77c-.209 0-.42-.026-.632-.081-1.336-.348-2.138-1.712-1.79-3.049l2-7.688c.348-1.337 1.711-2.138 3.05-1.79 1.336.348 2.138 1.712 1.79 3.049l-2 7.688c-.293 1.124-1.307 1.871-2.418 1.871z"/><path d="m63.327 223.311c-.766 0-1.521-.35-2.011-1.012l-4.503-6.079c-.822-1.11-.589-2.675.521-3.497 1.108-.822 2.676-.589 3.497.521l4.503 6.079c.822 1.109.589 2.675-.521 3.497-.447.331-.968.491-1.486.491z"/><path d="m70.717 220.77c-1.11 0-2.125-.746-2.418-1.871l-2-7.688c-.348-1.336.454-2.701 1.79-3.049 1.338-.344 2.702.453 3.05 1.79l2 7.688c.348 1.336-.454 2.701-1.79 3.049-.212.054-.423.081-.632.081z"/></svg>