<svg enable-background="new 0 0 256 256" height="512" viewBox="0 0 256 256" width="512" xmlns="http://www.w3.org/2000/svg"><path d="m174.305 219.978h-149.327c-9.219 0-16.761-7.543-16.761-16.761 0-9.219 7.543-16.761 16.761-16.761h149.327c9.219 0 16.761 7.543 16.761 16.761 0 9.218-7.543 16.761-16.761 16.761z" fill="#7ccc4e"/><path d="m178.571 253.5h-157.859c-9.219 0-16.761-7.543-16.761-16.761 0-9.219 7.543-16.761 16.761-16.761h157.86c9.219 0 16.761 7.543 16.761 16.761-.001 9.218-7.543 16.761-16.762 16.761z" fill="#7ccc4e"/><path d="m170.952 169.694c0-9.219-7.543-16.761-16.761-16.761h-109.1c-9.219 0-16.761 7.543-16.761 16.761 0 9.219 7.543 16.761 16.761 16.761h109.1c9.219 0 16.761-7.542 16.761-16.761z" fill="#7ccc4e"/><path d="m104.075 78.621c-.3-.856-.578-1.789-.831-2.772.004.015.007.031.011.046-4.499 1.969-9.45 3.067-14.652 3.083l-1.99-.046c-4.557-.23-8.9-1.291-12.887-3.036.004-.015.007-.031.011-.046-1.043 4.058-2.481 7.356-4.384 7.147-11.722 39.135 11.901 69.937 11.901 69.937h47.541c-28.925-23.217-28.851-54.26-24.72-74.313z" fill="#7ccc4e"/><path d="m127.365 32.777c0-16.722-17.404-30.277-38.874-30.277s-38.874 13.556-38.874 30.277c0 8.745 6.031 15.358 13.643 20.885.402 7.31 10.831 14.438 25.231 14.438s24.828-7.128 25.231-14.438c7.612-5.527 13.643-12.139 13.643-20.885z" fill="#7ccc4e"/><path d="m250.914 159.048c-15.36-10.107-45.832 7.425-56.415 32.483-1.282 3.034-2.39 6.263-3.607 9.416.102.744.173 1.498.173 2.269 0 9.219-7.542 16.761-16.761 16.761h1.266 3c9.219 0 16.761 7.542 16.761 16.761 0 1.971-.363 3.857-.995 5.618 7.63-4.903 14.032-11.71 18.147-19.799 8.804-17.308 8.959-47.273 30.539-55.188 3.221-1.181 7.373-2.473 8.771-5.173.569-1.097.154-2.468-.879-3.148z" fill="#7ccc4e"/><g fill="#3aa03a"><path d="m206.5 212.988c-2.15.76-4.356 2.503-4.191 4.778.184 2.544 3.476 6.831 6.737 10.509 1.271-1.824 2.427-3.73 3.439-5.717 1.563-3.073 2.852-6.55 4.038-10.228-3.403-.404-6.827-.472-10.023.658z"/><path d="m207.19 189.791c.286-2.543-2.183-7.385-4.724-11.608-3.214 4.086-5.952 8.579-7.966 13.349-.206.489-.403.989-.601 1.487 2.736.732 5.517 1.139 8.296.703 2.252-.355 4.74-1.665 4.995-3.931z"/><path d="m45.092 152.933c-1.686 0-3.314.258-4.852.726 1.331 4.057 3.11 7.909 5.981 11.025 2.225 2.416 5.785 4.347 8.703 2.84 3.215-1.66 6.964-8.275 9.963-14.591z"/><path d="m85.727 152.933c1.356 4.321 3.164 8.451 6.204 11.751 2.226 2.416 5.785 4.347 8.703 2.84 3.215-1.66 6.964-8.275 9.963-14.591z"/><path d="m154.191 152.933h-22.751c1.356 4.321 3.164 8.451 6.204 11.751 2.225 2.416 5.785 4.347 8.703 2.84 3.192-1.648 6.908-8.177 9.896-14.451-.674-.083-1.356-.14-2.052-.14z"/><path d="m54.843 186.455c-1.686 0-3.314.258-4.852.726 1.331 4.057 3.11 7.909 5.981 11.025 2.225 2.416 5.785 4.347 8.703 2.84 3.215-1.66 6.964-8.275 9.963-14.591z"/><path d="m95.479 186.455c1.356 4.321 3.164 8.451 6.204 11.751 2.225 2.416 5.785 4.347 8.703 2.84 3.215-1.66 6.964-8.275 9.963-14.591z"/><path d="m163.943 186.455h-22.752c1.356 4.321 3.164 8.451 6.204 11.751 2.225 2.416 5.785 4.347 8.703 2.84 3.192-1.648 6.908-8.177 9.896-14.451-.673-.083-1.355-.14-2.051-.14z"/><path d="m45.092 219.978c-1.686 0-3.314.258-4.852.726 1.331 4.057 3.11 7.909 5.981 11.025 2.225 2.416 5.785 4.347 8.703 2.84 3.215-1.66 6.964-8.275 9.963-14.591z"/><path d="m85.727 219.978c1.356 4.321 3.164 8.451 6.204 11.751 2.226 2.416 5.785 4.347 8.703 2.84 3.215-1.66 6.964-8.275 9.963-14.591z"/><path d="m154.191 219.978h-22.751c1.356 4.321 3.164 8.451 6.204 11.751 2.225 2.416 5.785 4.347 8.703 2.84 3.192-1.648 6.908-8.177 9.896-14.451-.674-.084-1.356-.14-2.052-.14z"/><path d="m41.514 204.628c-2.918-1.506-6.477.425-8.703 2.84-2.176 2.362-5.585 8.219-7.583 12.509h26.605c-3.055-6.535-6.975-13.621-10.319-15.349z"/><path d="m78.523 207.469c-3.218 3.493-5.055 7.914-6.435 12.509h25.457c-3.055-6.536-6.975-13.622-10.319-15.349-2.918-1.507-6.477.424-8.703 2.84z"/><path d="m124.235 207.469c-3.218 3.493-5.055 7.914-6.435 12.509h25.457c-3.055-6.536-6.975-13.622-10.319-15.349-2.918-1.507-6.477.424-8.703 2.84z"/><path d="m23.059 241.6c-2.971 3.225-4.768 7.24-6.114 11.454 1.213.282 2.471.445 3.767.445h21.084c-3.011-6.361-6.793-13.066-10.034-14.74-2.919-1.505-6.478.426-8.703 2.841z"/><path d="m68.771 241.6c-3.075 3.338-4.889 7.525-6.25 11.899h24.986c-3.011-6.361-6.793-13.066-10.034-14.74-2.917-1.505-6.476.426-8.702 2.841z"/><path d="m114.483 241.6c-3.075 3.338-4.889 7.525-6.25 11.899h24.986c-3.01-6.361-6.793-13.066-10.034-14.74-2.917-1.505-6.476.426-8.702 2.841z"/><path d="m178.323 253.5c-3.011-6.361-6.793-13.066-10.034-14.74-2.918-1.506-6.477.425-8.703 2.84-3.075 3.338-4.889 7.525-6.25 11.899h24.987z"/><path d="m68.771 175.775c-2.788 3.026-4.54 6.751-5.858 10.68h24.009c-2.906-5.976-6.414-11.954-9.448-13.521-2.918-1.506-6.477.425-8.703 2.841z"/><path d="m114.483 175.775c-2.788 3.026-4.54 6.751-5.858 10.68h24.009c-2.906-5.976-6.414-11.954-9.448-13.521-2.918-1.506-6.477.425-8.703 2.841z"/><path d="m93.345 152.933c.086-.219.182-.432.261-.654 1.118-3.162 1.15-7.247-1.632-9.043-2.947-1.903-10.295-1.932-17.249-1.442 3.409 7.056 6.53 11.139 6.53 11.139z"/><path d="m66.64 96.131c-1.013 8.563-.505 16.542.818 23.65 3.921-1.494 7.609-3.402 10.554-6.274 2.402-2.341 4.238-5.991 2.538-8.832-1.715-2.867-7.762-5.976-13.91-8.544z"/><path d="m110.352 131.219c-4.358-8.031-6.677-16.282-7.657-24.216-3.883 2.695-7.402 5.75-9.838 9.592-1.971 3.109-2.975 7.4-.36 9.83 2.692 2.502 10.344 3.949 17.855 4.794z"/></g><path d="m65.645 59.359c.083 10.292.764 23.231 3.66 23.64 3.483.492 5.421-10.761 6.232-17.073-4.361-1.587-7.781-3.914-9.892-6.567z" fill="#f4dbce"/><path d="m101.445 65.926c.811 6.312 2.75 17.565 6.232 17.073 2.896-.409 3.578-13.348 3.66-23.64-2.11 2.653-5.53 4.98-9.892 6.567z" fill="#f4dbce"/><path d="m65.645 59.359c-1.43-1.799-2.277-3.739-2.385-5.696-5.411-3.928-10.009-8.41-12.224-13.811-.009.298-.029.59-.029.892 0 12.549 5.927 23.686 15.081 30.658-.293-3.844-.411-8.132-.443-12.043z" fill="#f9bd55"/><path d="m101.445 65.926c-3.718 1.352-8.102 2.175-12.953 2.175s-9.235-.823-12.953-2.175c-.364 2.832-.956 6.654-1.811 9.969 4.531 1.983 9.521 3.086 14.765 3.086 5.243 0 10.233-1.102 14.765-3.086-.858-3.315-1.45-7.137-1.813-9.969z" fill="#f9bd55"/><path d="m125.946 39.851c-2.215 5.401-6.813 9.883-12.224 13.811-.108 1.958-.955 3.898-2.385 5.696-.031 3.912-.15 8.2-.443 12.043 9.154-6.972 15.081-18.109 15.081-30.658 0-.301-.021-.594-.029-.892z" fill="#f9bd55"/><path d="m174.305 222.478h-149.327c-10.621 0-19.261-8.641-19.261-19.261 0-10.621 8.641-19.262 19.261-19.262h149.327c10.621 0 19.261 8.641 19.261 19.262 0 10.62-8.641 19.261-19.261 19.261zm-149.327-33.523c-7.864 0-14.261 6.397-14.261 14.262 0 7.863 6.397 14.261 14.261 14.261h149.327c7.864 0 14.261-6.397 14.261-14.261s-6.397-14.262-14.261-14.262z"/><path d="m178.571 256h-157.86c-10.621 0-19.261-8.641-19.261-19.261 0-10.621 8.64-19.262 19.261-19.262h157.86c10.621 0 19.261 8.641 19.261 19.261.001 10.621-8.64 19.262-19.261 19.262zm-157.86-33.522c-7.863 0-14.261 6.397-14.261 14.261s6.397 14.262 14.261 14.262h157.86c7.864 0 14.261-6.397 14.261-14.261s-6.397-14.262-14.261-14.262z"/><path d="m154.191 188.955h-109.1c-10.621 0-19.261-8.641-19.261-19.261 0-10.621 8.641-19.262 19.261-19.262h109.1c10.621 0 19.261 8.641 19.261 19.262.001 10.62-8.64 19.261-19.261 19.261zm-109.1-33.522c-7.864 0-14.261 6.397-14.261 14.262 0 7.863 6.397 14.261 14.261 14.261h109.1c7.864 0 14.261-6.397 14.261-14.261s-6.397-14.262-14.261-14.262z"/><path d="m128.795 155.433h-47.54c-.777 0-1.511-.361-1.984-.979-.996-1.299-24.263-32.275-12.312-72.176.307-1.022 1.221-1.723 2.259-1.778.3-.332 1.135-1.526 2.098-5.273.343-1.335 1.7-2.146 3.036-1.801.294.074.563.198.8.36 3.685 1.555 7.581 2.445 11.588 2.647l1.922.045c4.567-.015 9.062-.939 13.301-2.749.204-.124.429-.22.672-.281 1.335-.335 2.687.443 3.03 1.777.241.937.499 1.801.769 2.568.15.428.181.888.089 1.332-4.252 20.64-3.569 49.86 23.836 71.857.827.664 1.146 1.777.793 2.778s-1.296 1.673-2.357 1.673zm-46.252-5h39.569c-23.868-22.505-24.715-50.57-20.724-71.122-4.101 1.426-8.385 2.153-12.777 2.167l-2.056-.048c-3.872-.194-7.614-.934-11.193-2.201-.76 2.242-1.999 4.851-4.009 5.855-9.23 33.057 7.5 59.966 11.19 65.349z"/><path d="m85.726 97.02c-1.097 0-2.104-.729-2.409-1.838-.367-1.331.416-2.707 1.747-3.073 1.293-.363 5.146-1.903 5.792-4.119.429-1.472-.797-3.251-1.901-4.485-7.029-7.857-5.471-13.812-3.917-16.663.661-1.213 2.178-1.66 3.392-.999 1.212.661 1.659 2.18.998 3.392-2.043 3.749.642 8.017 3.254 10.937 2.84 3.175 3.839 6.282 2.97 9.236-1.548 5.261-8.476 7.307-9.26 7.522-.223.06-.446.09-.666.09z"/><path d="m88.491 70.601c-14.118 0-26.101-6.878-27.588-15.569-6.17-4.609-13.786-11.78-13.786-22.254 0-18.074 18.561-32.778 41.374-32.778s41.374 14.704 41.374 32.777c0 10.475-7.616 17.645-13.786 22.254-1.487 8.692-13.47 15.57-27.588 15.57zm0-65.601c-20.056 0-36.374 12.461-36.374 27.777 0 6.62 4.007 12.614 12.612 18.861.609.442.986 1.135 1.027 1.886.392 7.117 12.296 12.076 22.735 12.076s22.343-4.959 22.734-12.076c.041-.751.418-1.443 1.027-1.886 8.604-6.247 12.612-12.24 12.612-18.861.001-15.316-16.316-27.777-36.373-27.777z"/><path d="m69.531 85.516c-.191 0-.383-.014-.576-.041-2.837-.401-5.623-2.746-5.81-26.096-.008-1.067.661-2.021 1.667-2.378 1.004-.354 2.126-.033 2.79.802 1.859 2.337 4.98 4.388 8.79 5.773 1.099.4 1.774 1.508 1.625 2.668-1.974 15.372-4.916 17.615-5.883 18.352-.795.606-1.685.92-2.603.92zm-1.274-20.458c.29 8.866 1.038 12.816 1.565 14.539.829-1.632 1.99-5.267 2.974-12.072-1.655-.719-3.175-1.546-4.539-2.467z"/><path d="m66.088 73.901c-.537 0-1.071-.173-1.515-.511-10.21-7.776-16.066-19.676-16.066-32.647 0-.229.009-.455.019-.68l.011-.286c.035-1.18.891-2.175 2.052-2.386 1.162-.212 2.312.42 2.76 1.512 1.759 4.287 5.481 8.453 11.379 12.735.609.442.986 1.135 1.027 1.886.077 1.395.698 2.834 1.846 4.278.347.437.539.978.543 1.536.037 4.568.183 8.563.435 11.872.075.982-.434 1.916-1.298 2.387-.373.204-.784.304-1.193.304zm-11.549-24.454c1.465 6.043 4.455 11.563 8.732 16.079-.058-1.675-.097-3.452-.118-5.324-1.173-1.655-1.936-3.412-2.246-5.17-2.466-1.85-4.585-3.708-6.368-5.585z"/><path d="m88.491 81.48c-5.466 0-10.771-1.108-15.768-3.296-1.124-.492-1.725-1.727-1.418-2.915.841-3.257 1.417-7.052 1.752-9.662.097-.753.53-1.422 1.179-1.816.648-.396 1.442-.473 2.155-.215 3.692 1.344 7.763 2.024 12.099 2.024 4.335 0 8.406-.681 12.099-2.024.712-.258 1.506-.182 2.155.215.649.395 1.083 1.063 1.179 1.816.335 2.608.911 6.402 1.753 9.662.307 1.188-.294 2.423-1.418 2.915-4.996 2.188-10.3 3.296-15.767 3.296zm-11.838-7.101c3.79 1.396 7.763 2.102 11.838 2.102 4.076 0 8.049-.706 11.838-2.102-.381-1.757-.696-3.55-.947-5.18-3.425.931-7.075 1.401-10.891 1.401s-7.466-.47-10.891-1.401c-.251 1.63-.566 3.423-.947 5.18z"/><path d="m110.894 73.901c-.409 0-.82-.101-1.194-.304-.865-.471-1.374-1.405-1.298-2.387.252-3.308.399-7.302.436-11.872.004-.559.196-1.1.543-1.537 1.147-1.442 1.768-2.881 1.845-4.277.041-.751.418-1.443 1.027-1.886 5.898-4.281 9.621-8.447 11.38-12.736.448-1.092 1.596-1.722 2.76-1.511 1.161.211 2.017 1.206 2.052 2.386l.011.286c.01.225.019.45.019.68 0 12.972-5.856 24.871-16.066 32.647-.445.339-.979.511-1.515.511zm2.935-13.699c-.021 1.872-.06 3.649-.118 5.323 4.277-4.515 7.267-10.035 8.732-16.079-1.784 1.878-3.902 3.735-6.369 5.586-.31 1.758-1.072 3.516-2.245 5.17z"/><path d="m107.451 85.516c-.917 0-1.808-.313-2.603-.92-.967-.736-3.908-2.979-5.883-18.352-.149-1.159.526-2.268 1.625-2.668 3.809-1.386 6.931-3.437 8.791-5.774.665-.834 1.787-1.153 2.79-.8 1.006.355 1.675 1.31 1.667 2.377-.188 23.35-2.973 25.694-5.811 26.096-.193.027-.385.041-.576.041zm-3.265-17.992c.985 6.807 2.146 10.44 2.975 12.072.527-1.723 1.275-5.674 1.565-14.539-1.365.922-2.885 1.749-4.54 2.467z"/><path d="m96.477 99.224c-.872 0-1.719-.456-2.179-1.27l-3.811-6.738c-.68-1.202-.256-2.727.946-3.406 1.2-.683 2.727-.257 3.407.945l3.811 6.738c.68 1.202.256 2.727-.946 3.406-.389.221-.811.325-1.228.325z"/><path d="m97.768 36.22c-1.377 0-2.496-1.114-2.5-2.492-.016-4.864 3.929-8.834 8.793-8.851h.027c4.853 0 8.808 3.938 8.824 8.794.004 1.381-1.111 2.503-2.492 2.508-.002 0-.005 0-.008 0-1.377 0-2.496-1.114-2.5-2.492-.007-2.103-1.721-3.81-3.823-3.81-.004 0-.008 0-.012 0-2.107.007-3.816 1.728-3.81 3.835.004 1.381-1.111 2.503-2.492 2.508-.002 0-.004 0-.007 0z"/><path d="m67.293 36.22c-1.377 0-2.496-1.114-2.5-2.492-.016-4.864 3.929-8.834 8.794-8.851h.027c4.853 0 8.808 3.938 8.823 8.794.004 1.381-1.111 2.503-2.492 2.508-.002 0-.005 0-.008 0-1.377 0-2.496-1.114-2.5-2.492-.007-2.103-1.721-3.81-3.823-3.81-.004 0-.008 0-.012 0-2.107.007-3.817 1.728-3.81 3.835.004 1.381-1.111 2.503-2.492 2.508-.002 0-.005 0-.007 0z"/><path d="m93.445 59.742c-1.381 0-2.5-1.119-2.5-2.5v-1.219c0-1.381 1.119-2.5 2.5-2.5s2.5 1.119 2.5 2.5v1.219c0 1.381-1.119 2.5-2.5 2.5z"/><path d="m82.474 59.742c-1.381 0-2.5-1.119-2.5-2.5v-1.219c0-1.381 1.119-2.5 2.5-2.5s2.5 1.119 2.5 2.5v1.219c0 1.381-1.119 2.5-2.5 2.5z"/><path d="m194.337 244.857c-.553 0-1.104-.183-1.558-.544-.838-.667-1.158-1.794-.795-2.802.562-1.566.848-3.172.848-4.772 0-7.864-6.397-14.262-14.261-14.262h-4.267c-1.381 0-2.5-1.119-2.5-2.5s1.119-2.5 2.5-2.5c7.864 0 14.261-6.397 14.261-14.261 0-.569-.048-1.183-.15-1.93-.057-.419-.007-.846.145-1.24.432-1.118.85-2.245 1.266-3.37.75-2.025 1.525-4.118 2.371-6.118 6.88-16.292 22.211-30.488 38.15-35.325 8.65-2.624 16.236-2.027 21.941 1.726 2.105 1.386 2.863 4.191 1.726 6.388-1.729 3.338-5.924 4.852-9.295 6.067l-.835.303c-13.769 5.05-18.191 20.289-22.467 35.027-2.003 6.903-3.896 13.425-6.704 18.947-4.224 8.304-10.802 15.485-19.024 20.77-.414.266-.883.396-1.352.396zm-8.733-26.05c7.149 2.814 12.225 9.787 12.229 17.924 5.228-4.286 9.468-9.496 12.423-15.307 2.595-5.102 4.423-11.402 6.359-18.073 4.408-15.19 9.403-32.407 25.547-38.327l.859-.312c2.375-.856 5.611-2.024 6.508-3.582-5.587-3.669-12.726-2.632-17.73-1.11-14.369 4.36-28.76 17.719-34.996 32.485-.801 1.896-1.523 3.846-2.288 5.909-.352.949-.704 1.9-1.064 2.846.078.706.115 1.34.115 1.958 0 6.401-3.141 12.085-7.962 15.589zm63.947-57.654h.01z"/><path d="m209.045 230.774c-.713 0-1.395-.305-1.871-.842-6.337-7.147-7.235-10.265-7.36-11.987-.272-3.775 2.981-6.3 5.851-7.313 3.954-1.399 8.036-1.155 11.151-.784.742.088 1.406.504 1.81 1.133s.504 1.406.275 2.117c-1.419 4.399-2.75 7.766-4.189 10.594-1.033 2.029-2.249 4.053-3.616 6.013-.438.629-1.14 1.021-1.905 1.066-.048.002-.097.003-.146.003zm3.448-16.212c-1.7 0-3.486.191-5.159.783v.001c-1.448.512-2.583 1.517-2.531 2.24.024.332.339 2.032 3.972 6.512.532-.887 1.027-1.78 1.482-2.674.977-1.92 1.909-4.142 2.872-6.854-.212-.006-.423-.008-.636-.008zm-5.993-1.574h.01z"/><path d="m199.831 196.401c-2.004 0-4.151-.318-6.578-.968-.689-.185-1.268-.655-1.588-1.293-.32-.639-.353-1.383-.088-2.047l.1-.251c.171-.432.343-.863.522-1.285 2.036-4.822 4.83-9.506 8.303-13.921.508-.646 1.3-.999 2.121-.949.82.052 1.562.502 1.986 1.206 4.945 8.221 5.26 11.457 5.067 13.177v.001c-.424 3.762-4.086 5.647-7.092 6.119-.897.141-1.81.211-2.753.211zm-2.458-5.196c1.636.247 3.083.259 4.435.046 1.517-.238 2.817-1.019 2.898-1.74.036-.324.037-1.977-2.511-6.755-1.894 2.74-3.508 5.567-4.822 8.449zm9.817-1.414h.01z"/><path d="m52.687 170.569c-3.212 0-6.301-2.016-8.306-4.192-2.754-2.989-4.826-6.783-6.517-11.938-.209-.639-.153-1.335.157-1.932s.847-1.043 1.49-1.239c1.818-.554 3.696-.835 5.581-.835h19.794c.857 0 1.655.439 2.113 1.164s.513 1.634.145 2.408c-4.242 8.935-7.864 14.084-11.074 15.741-1.115.575-2.257.823-3.383.823zm-9.118-15.053c1.253 3.127 2.707 5.54 4.489 7.474 1.633 1.773 4.121 3.144 5.717 2.313.861-.444 3.142-2.286 7.081-9.87h-15.765c-.508 0-1.016.027-1.522.083z"/><path d="m98.398 170.569c-3.212 0-6.3-2.016-8.305-4.192-3.761-4.081-5.654-9.2-6.751-12.696-.238-.759-.101-1.586.37-2.228s1.219-1.021 2.015-1.021h24.87c.857 0 1.655.439 2.113 1.164s.513 1.634.145 2.408c-4.242 8.935-7.865 14.084-11.074 15.741-1.114.576-2.256.824-3.383.824zm-9.144-15.136c1.263 3.192 2.707 5.593 4.517 7.557 1.633 1.773 4.12 3.141 5.717 2.313.862-.444 3.142-2.286 7.081-9.87z"/><path d="m144.111 170.569c-3.212 0-6.301-2.016-8.306-4.192-3.762-4.083-5.654-9.201-6.75-12.696-.238-.759-.101-1.586.37-2.228s1.219-1.021 2.015-1.021h22.751c.726 0 1.498.053 2.36.16.797.099 1.498.575 1.883 1.279.386.704.41 1.551.065 2.276-4.213 8.847-7.813 13.948-11.005 15.598-1.115.576-2.256.824-3.383.824zm-9.145-15.136c1.263 3.191 2.706 5.592 4.517 7.557 1.633 1.773 4.121 3.144 5.717 2.313.859-.443 3.14-2.283 7.081-9.87z"/><path d="m62.438 204.092c-3.211 0-6.3-2.016-8.305-4.192-2.754-2.989-4.826-6.783-6.517-11.938-.209-.639-.153-1.335.157-1.932s.847-1.043 1.49-1.239c1.818-.554 3.696-.835 5.581-.835h19.794c.857 0 1.655.439 2.113 1.164s.513 1.634.145 2.408c-4.242 8.936-7.865 14.084-11.075 15.74-1.115.576-2.257.824-3.383.824zm-9.117-15.054c1.253 3.127 2.707 5.54 4.489 7.474 1.633 1.773 4.121 3.136 5.716 2.313.862-.445 3.142-2.286 7.082-9.87h-15.765c-.508 0-1.016.027-1.522.083z"/><path d="m108.15 204.092c-3.211 0-6.3-2.016-8.305-4.192-3.761-4.081-5.654-9.2-6.751-12.696-.238-.759-.101-1.586.37-2.228s1.219-1.021 2.015-1.021h24.87c.857 0 1.655.439 2.113 1.164s.513 1.634.145 2.408c-4.242 8.936-7.865 14.084-11.075 15.74-1.114.577-2.256.825-3.382.825zm-9.144-15.137c1.263 3.192 2.707 5.593 4.517 7.557 1.634 1.774 4.121 3.135 5.717 2.313.862-.445 3.142-2.286 7.082-9.87z"/><path d="m153.862 204.092c-3.211 0-6.3-2.016-8.305-4.192-3.762-4.083-5.654-9.201-6.75-12.696-.238-.759-.101-1.586.37-2.228s1.219-1.021 2.015-1.021h22.751c.731 0 1.479.051 2.357.158.798.099 1.5.574 1.886 1.278.386.705.411 1.553.065 2.278-4.213 8.848-7.813 13.949-11.006 15.598-1.114.577-2.256.825-3.383.825zm-9.144-15.137c1.263 3.191 2.706 5.592 4.517 7.557 1.633 1.774 4.119 3.135 5.717 2.313.86-.444 3.14-2.283 7.081-9.87z"/><path d="m52.686 237.614c-3.211 0-6.3-2.016-8.305-4.192-2.754-2.989-4.826-6.783-6.517-11.938-.209-.639-.153-1.335.157-1.932s.847-1.043 1.49-1.239c1.818-.554 3.696-.835 5.581-.835h19.794c.857 0 1.655.439 2.113 1.164s.513 1.634.145 2.408c-4.242 8.934-7.864 14.082-11.074 15.74-1.115.576-2.258.824-3.384.824zm-9.117-15.053c1.253 3.127 2.707 5.54 4.489 7.474 1.633 1.773 4.119 3.133 5.717 2.313.862-.445 3.142-2.286 7.081-9.87h-15.765c-.508 0-1.016.027-1.522.083z"/><path d="m98.398 237.614c-3.211 0-6.3-2.016-8.305-4.192-3.761-4.081-5.654-9.2-6.751-12.696-.238-.759-.101-1.586.37-2.228s1.219-1.021 2.015-1.021h24.87c.857 0 1.655.439 2.113 1.164s.513 1.634.145 2.408c-4.242 8.934-7.864 14.082-11.074 15.74-1.114.577-2.257.825-3.383.825zm-9.144-15.136c1.263 3.192 2.707 5.593 4.517 7.557 1.633 1.773 4.12 3.133 5.717 2.313.862-.445 3.143-2.286 7.082-9.87z"/><path d="m144.11 237.614c-3.211 0-6.3-2.016-8.305-4.192-3.762-4.083-5.654-9.201-6.75-12.696-.238-.759-.101-1.586.37-2.228s1.219-1.021 2.015-1.021h22.751c.731 0 1.479.051 2.357.158.798.099 1.5.574 1.886 1.278.386.705.411 1.553.065 2.278-4.213 8.848-7.813 13.949-11.006 15.598-1.114.577-2.256.825-3.383.825zm-9.144-15.136c1.263 3.191 2.706 5.592 4.517 7.557 1.632 1.773 4.121 3.133 5.717 2.313.86-.444 3.14-2.283 7.081-9.87z"/><path d="m51.833 222.478h-26.605c-.854 0-1.649-.436-2.108-1.156-.459-.721-.519-1.625-.158-2.399 2.062-4.429 5.623-10.557 8.011-13.147 2.708-2.938 7.393-5.583 11.688-3.368l.001.001c3.299 1.704 7.041 7.105 11.437 16.512.362.774.303 1.68-.156 2.401-.46.719-1.255 1.156-2.11 1.156zm-22.547-5h18.551c-4.169-8.204-6.569-10.163-7.471-10.629-1.593-.82-4.083.541-5.717 2.314-1.327 1.44-3.483 4.822-5.363 8.315z"/><path d="m97.545 222.478h-25.457c-.791 0-1.534-.374-2.006-1.008-.472-.635-.616-1.455-.388-2.212 1.224-4.073 3.125-9.287 6.99-13.483 2.708-2.938 7.395-5.582 11.688-3.368 3.301 1.705 7.042 7.106 11.438 16.513.362.774.303 1.68-.156 2.401-.459.72-1.255 1.157-2.109 1.157zm-21.987-5h17.992c-4.169-8.205-6.569-10.163-7.471-10.629-1.593-.816-4.083.542-5.717 2.314-1.938 2.103-3.469 4.736-4.804 8.315z"/><path d="m143.257 222.478h-25.457c-.791 0-1.534-.374-2.006-1.008-.472-.635-.616-1.455-.388-2.212 1.224-4.073 3.125-9.287 6.991-13.483 2.708-2.938 7.393-5.583 11.688-3.368 3.3 1.705 7.042 7.106 11.438 16.513.362.774.303 1.68-.156 2.401-.46.72-1.255 1.157-2.11 1.157zm-21.987-5h17.992c-4.169-8.204-6.569-10.163-7.471-10.629-1.596-.82-4.083.541-5.717 2.314-1.937 2.103-3.469 4.736-4.804 8.315z"/><path d="m41.795 256h-21.084c-1.414 0-2.872-.172-4.331-.51-.68-.158-1.264-.593-1.609-1.2s-.42-1.331-.208-1.996c1.722-5.392 3.837-9.327 6.657-12.388 2.708-2.938 7.393-5.583 11.688-3.368 3.229 1.668 6.875 6.866 11.147 15.893.367.774.311 1.683-.147 2.406-.459.725-1.256 1.163-2.113 1.163zm-21.47-5.006c.129.004.258.006.386.006h17.062c-3.985-7.705-6.289-9.569-7.159-10.02-1.592-.823-4.083.541-5.717 2.314-1.814 1.97-3.296 4.457-4.572 7.7zm2.734-9.393h.01z"/><path d="m87.508 256h-24.987c-.795 0-1.542-.378-2.013-1.018-.471-.641-.61-1.466-.374-2.225 1.777-5.714 3.874-9.677 6.798-12.852 2.708-2.938 7.395-5.583 11.688-3.368 3.229 1.668 6.875 6.866 11.147 15.893.367.774.311 1.683-.147 2.406-.458.726-1.255 1.164-2.112 1.164zm-21.472-5h17.45c-3.985-7.705-6.289-9.569-7.159-10.02-1.591-.818-4.083.541-5.717 2.314-1.836 1.992-3.296 4.438-4.574 7.706z"/><path d="m133.22 256h-24.986c-.795 0-1.542-.378-2.013-1.018-.471-.641-.61-1.466-.374-2.225 1.103-3.547 3.008-8.736 6.798-12.852 2.708-2.938 7.394-5.584 11.688-3.368 3.23 1.668 6.876 6.866 11.147 15.893.367.774.311 1.683-.147 2.406-.459.726-1.256 1.164-2.113 1.164zm-21.472-5h17.45c-3.984-7.705-6.289-9.569-7.159-10.019-1.594-.822-4.083.54-5.717 2.313-1.836 1.993-3.296 4.438-4.574 7.706z"/><path d="m178.323 256h-24.986c-.795 0-1.542-.378-2.013-1.018-.471-.641-.61-1.466-.374-2.225 1.103-3.546 3.008-8.736 6.798-12.851 2.708-2.939 7.396-5.584 11.688-3.369 3.229 1.668 6.875 6.866 11.147 15.893.367.774.311 1.683-.147 2.406-.459.726-1.256 1.164-2.113 1.164zm-21.472-5h17.45c-3.985-7.705-6.289-9.569-7.159-10.02-1.593-.818-4.083.541-5.717 2.314-1.836 1.993-3.296 4.439-4.574 7.706z"/><path d="m86.922 188.955h-24.009c-.805 0-1.56-.387-2.03-1.04s-.596-1.493-.34-2.256c1.673-4.983 3.704-8.663 6.39-11.579 2.708-2.938 7.395-5.583 11.688-3.367 1.964 1.016 5.195 3.638 10.549 14.648.377.775.328 1.689-.129 2.42s-1.258 1.174-2.119 1.174zm-20.382-5h16.302c-3.605-6.711-5.71-8.384-6.515-8.8-1.594-.823-4.083.54-5.717 2.313-1.588 1.723-2.913 3.828-4.07 6.487z"/><path d="m132.634 188.955h-24.009c-.805 0-1.56-.387-2.03-1.04s-.596-1.492-.34-2.255c1.672-4.983 3.703-8.663 6.39-11.58 2.708-2.938 7.395-5.583 11.688-3.367 1.964 1.016 5.195 3.638 10.549 14.648.377.775.328 1.689-.129 2.42-.456.731-1.257 1.174-2.119 1.174zm-20.383-5h16.302c-3.605-6.711-5.711-8.384-6.515-8.8-1.594-.823-4.083.54-5.716 2.313-1.588 1.724-2.913 3.828-4.071 6.487z"/><path d="m93.345 155.433h-12.09c-.779 0-1.513-.363-1.986-.981-.133-.175-3.315-4.367-6.794-11.569-.361-.747-.328-1.624.088-2.342.416-.717 1.16-1.182 1.987-1.24 12.878-.907 16.887.612 18.781 1.835 4.128 2.665 3.999 8.118 2.633 11.978-.064.183-.136.358-.209.533l-.083.201c-.376.956-1.299 1.585-2.327 1.585zm-10.803-5h9.007c.497-2.065.348-4.271-.932-5.097-.796-.515-3.478-1.559-11.917-1.255 1.624 3.008 3.04 5.184 3.842 6.352z"/><path d="m67.459 122.28c-.423 0-.845-.107-1.223-.319-.646-.363-1.099-.994-1.234-1.723-1.514-8.13-1.798-16.34-.844-24.401.092-.778.545-1.469 1.222-1.865.677-.394 1.501-.451 2.224-.147 11.194 4.675 13.974 7.699 15.092 9.567 2.523 4.214-.005 9.047-2.938 11.905-2.841 2.77-6.466 4.936-11.409 6.819-.287.11-.589.164-.89.164zm1.343-22.48c-.395 5.453-.192 10.965.606 16.453 2.857-1.326 5.077-2.798 6.86-4.536 1.752-1.708 3.049-4.234 2.137-5.758-.468-.782-2.322-2.832-9.603-6.159z"/><path d="m110.353 133.719c-.093 0-.186-.005-.28-.016-13.682-1.539-17.554-3.845-19.277-5.446-3.851-3.578-2.434-9.239-.049-13 2.319-3.66 5.664-6.935 10.523-10.307.719-.501 1.647-.586 2.446-.229s1.353 1.106 1.46 1.976c1.035 8.371 3.515 16.221 7.373 23.329.444.818.396 1.816-.124 2.589-.467.695-1.247 1.104-2.072 1.104zm-9.499-22.206c-2.568 2.11-4.476 4.199-5.884 6.421-1.462 2.308-2.197 5.336-.771 6.661.727.675 3.27 2.233 11.824 3.536-2.382-5.239-4.113-10.802-5.169-16.618z"/></svg>