<svg enable-background="new 0 0 256 256" height="512" viewBox="0 0 256 256" width="512" xmlns="http://www.w3.org/2000/svg"><path d="m229.103 77.534c-17.611 5.786-12.782 38.775-28.942 72.397-2.695 5.606-6.093 10.282-10.068 14.088-.027.064-.049.129-.077.192-1.233 2.807-2.724 4.93-4.363 6.455 2.938 2.798 14.554 14.23 10.606 16.477-4.506 2.564-9.012-3.419-9.012 5.984 0 5.839-2.184.95-6.709-1.334-.132.327-.275.646-.412.97-.059.139-.117.278-.177.416-.266.619-.541 1.231-.824 1.837-.054.115-.108.23-.162.345-.296.623-.601 1.239-.914 1.847-.047.091-.094.182-.142.273-.326.626-.662 1.243-1.007 1.853-.04.071-.081.142-.121.213-.355.622-.719 1.236-1.093 1.842-.036.058-.071.115-.107.173-.383.615-.775 1.222-1.177 1.819-.03.045-.061.09-.091.135-.41.606-.828 1.202-1.257 1.79-.012.017-.023.034-.036.051 30.017-9.511 56.703-33.275 72.007-64.979 20.356-42.164-.772-67.821-15.922-62.844z" fill="#9e512b"/><path d="m156.199 220.945c-3.799 2.365-7.874 4.324-12.171 5.854-1.126 10.436-.489 26.701 14.445 26.701 21.985 0 32.478-7.962 24.483-17.062-7.684-8.747-25.671 5.609-26.757-15.493z" fill="#52565b"/><path d="m85.148 220.945c-1.086 21.102-19.073 6.746-26.758 15.493-7.995 9.1 2.498 17.062 24.483 17.062 14.935 0 15.571-16.265 14.445-26.701-4.296-1.53-8.371-3.489-12.17-5.854z" fill="#52565b"/><path d="m185.654 170.667c1.639-1.525 3.13-3.648 4.363-6.455 5.239-11.927-3.758-27.777-10.115-36.77-1.927-2.726-3.579-5.672-5.041-8.749-1.612-3.395-3.389-6.684-5.305-9.842-4.319 3.625-9.758 6.884-15.994 9.503 1.195 2.299 1.86 4.723.91 7.453v-.001c.645 2.255.696 4.65-.476 7.306-1.874 4.246-5.797 7.64-10.305 10.3-13.924 8.216-31.421 8.216-45.344 0-4.509-2.66-8.432-6.055-10.305-10.3-1.172-2.655-1.121-5.051-.476-7.306-.949-2.73-.285-5.153.91-7.452-6.458-2.712-12.06-6.109-16.451-9.888-2.006 3.274-3.861 6.693-5.539 10.226-1.461 3.078-3.114 6.024-5.041 8.749-6.357 8.993-15.355 24.843-10.116 36.77 1.233 2.807 2.724 4.93 4.363 6.455-2.938 2.798-14.554 14.23-10.607 16.477 4.506 2.564 9.012-3.419 9.012 5.984 0 5.839 2.184.95 6.709-1.334 9.852 24.481 32.946 38.958 59.866 38.958s50.014-14.477 59.866-38.958c4.525 2.284 6.709 7.173 6.709 1.334 0-9.403 4.506-3.419 9.012-5.984 3.949-2.246-7.667-13.679-10.605-16.476z" fill="#9e512b"/><path d="m173.294 75.564c-3.448-3.145-5.367-7.623-5.277-12.29.005-.292.008-.586.008-.879 0-21.73-14.896-39.975-35.032-45.098-1.215-.309-2.175-1.297-2.385-2.532-.272-1.603-.068-3.362 1.066-5.121.475-.737-.247-1.639-1.057-1.303-2.266.938-5.049 2.81-5.338 6.388-.056.696-.617 1.242-1.315 1.205-.039-.002-.078-.004-.117-.006-.461-.023-.87-.293-1.076-.706-1.565-3.139-2.324-7.262.783-11.315.529-.689-.148-1.64-.969-1.355-3.231 1.122-7.961 3.711-8.253 9.293-.135 2.587-1.924 4.832-4.433 5.475-20.097 5.149-34.954 23.373-34.954 45.076v.083c.009 4.77-1.902 9.366-5.512 12.482-5.075 4.381-7.984 9.466-7.984 14.893 0 10.443 10.756 21.686 27.022 28.511 3.463-6.67 11.393-12.287-2.758-21.275-3.414-2.168-3.305-7.262.252-9.188 2.889-1.564 7.64-3.029 15.356-3.95 3.408-.407 6.747-1.477 9.602-3.382 2.378-1.587 6.015-2.602 10.097-2.602 4.083 0 7.72 1.015 10.098 2.602 2.855 1.905 6.194 2.976 9.602 3.382 7.716.921 12.466 2.386 15.356 3.95 3.557 1.926 3.666 7.019.252 9.188-14.151 8.988-6.221 14.604-2.758 21.275 16.266-6.825 27.022-18.068 27.022-28.511-.001-5.179-2.648-10.048-7.298-14.29z" fill="#9e512b"/><path d="m72.547 169.178c-4.804 5.062-11.595 6.382-16.854 1.488-2.938 2.797-14.554 14.23-10.606 16.477 4.506 2.564 9.012-3.419 9.012 5.984s5.659-9.02 17.648.427c9.763 7.693-6.773-12.385 10.889-8.121 10.22 2.469-4.586-11.339-10.089-16.255z" fill="#52565b"/><path d="m168.8 169.178c4.804 5.062 11.595 6.382 16.854 1.488 2.938 2.797 14.554 14.23 10.606 16.477-4.506 2.564-9.012-3.419-9.012 5.984s-5.659-9.02-17.648.427c-9.763 7.693 6.773-12.385-10.889-8.121-10.221 2.469 4.586-11.339 10.089-16.255z" fill="#52565b"/><path d="m162.372 134.759c-2.148-5.891-4.966-11.533-8.318-16.595-.16.069-.325.133-.486.2 1.192 2.296 1.852 4.717.904 7.442v-.001c.645 2.255.696 4.65-.476 7.306-1.874 4.246-5.797 7.64-10.305 10.3-13.924 8.216-31.421 8.216-45.344 0-4.509-2.66-8.432-6.055-10.305-10.3-1.172-2.655-1.121-5.051-.476-7.306-.948-2.725-.288-5.146.904-7.442-.341-.143-.684-.284-1.02-.431-3.42 5.121-6.293 10.844-8.475 16.825-.017 7.249-.141 15.737-.567 20.647-.377 4.351-1.785 8.181-3.803 11.201.198 1.787.478 3.525.837 5.213 6.395 5.957 15.924 15.722 7.193 13.614-.859-.208-1.615-.342-2.319-.44 7.99 14.395 23.064 22.762 40.357 22.762s32.367-8.367 40.357-22.762c-.704.098-1.46.232-2.319.44-8.731 2.108.798-7.657 7.193-13.614.359-1.689.639-3.427.837-5.213-2.018-3.02-3.425-6.85-3.803-11.201-.425-4.908-.549-13.396-.566-20.645z" fill="#ffc097"/><path d="m153.997 126.934c-5.996 11.992-32.977 10.992-32.977 10.992s-26.982.999-32.977-10.992c-.191-.382-.347-.758-.476-1.128-.645 2.255-.696 4.65.476 7.306 1.874 4.246 5.797 7.64 10.305 10.3 13.924 8.216 31.421 8.216 45.344 0 4.509-2.66 8.432-6.055 10.305-10.3 1.172-2.656 1.121-5.051.476-7.306-.129.371-.285.746-.476 1.128z" fill="#52565b"/><path d="m156.074 87.903c-2.889-1.564-7.64-3.029-15.356-3.95-3.408-.407-6.747-1.477-9.602-3.382-2.378-1.587-6.015-2.602-10.098-2.602s-7.72 1.015-10.097 2.602c-2.855 1.906-6.194 2.976-9.602 3.382-7.716.921-12.466 2.386-15.356 3.95-3.557 1.926-3.666 7.019-.252 9.188 19.683 12.501-3.352 18.48 2.33 29.844 5.996 11.992 32.977 10.992 32.977 10.992s26.982.999 32.977-10.992c5.682-11.364-17.353-17.343 2.33-29.844 3.415-2.169 3.306-7.262-.251-9.188z" fill="#828487"/><path d="m156.074 87.903c-2.889-1.564-7.64-3.029-15.356-3.95-3.408-.407-6.747-1.477-9.602-3.382-2.378-1.587-6.015-2.602-10.098-2.602s-7.72 1.015-10.097 2.602c-2.855 1.906-6.194 2.976-9.602 3.382-7.716.921-12.466 2.386-15.356 3.95-3.557 1.926-3.666 7.019-.252 9.188.245.156.478.309.71.463.362-.398.791-.752 1.306-1.031 4.572-2.476 14.042-4.69 33.291-4.69s28.719 2.214 33.291 4.69c.515.279.944.633 1.306 1.031.232-.153.465-.307.71-.463 3.415-2.169 3.306-7.262-.251-9.188z" fill="#52565b"/><path d="m63.06 176.238c-5.792 0-10.929-3.985-14.02-11.021-5.007-11.398 1.496-25.577 7.834-35.464.746-1.162 2.292-1.5 3.453-.756 1.163.745 1.501 2.292.756 3.454-5.678 8.858-11.581 21.384-7.465 30.755 2.562 5.832 6.394 8.649 10.758 7.921 4.997-.825 10.74-6.692 11.542-15.938.828-9.56.49-33.361.486-33.6-.02-1.38 1.083-2.516 2.463-2.536 1.38-.054 2.517 1.082 2.537 2.463.015.987.346 24.293-.506 34.105-.909 10.49-7.515 19.086-15.707 20.439-.717.12-1.43.178-2.131.178z"/><path d="m178.287 176.238c-.702 0-1.413-.059-2.132-.177-8.192-1.353-14.798-9.949-15.707-20.439-.852-9.812-.521-33.118-.506-34.105.021-1.381 1.184-2.506 2.537-2.463 1.38.02 2.482 1.156 2.463 2.536-.004.239-.342 24.04.486 33.6.802 9.246 6.545 15.113 11.542 15.938 4.374.723 8.196-2.091 10.758-7.921 4.115-9.37-1.786-21.894-7.462-30.751-.745-1.163-.407-2.709.756-3.454 1.16-.745 2.709-.406 3.453.756 6.336 9.886 12.837 24.063 7.831 35.46-3.09 7.035-8.228 11.02-14.019 11.02z"/><path d="m112.025 128.436c-1.047 0-2.022-.662-2.371-1.709l-1-2.998c-.438-1.31.271-2.726 1.58-3.163 1.313-.438 2.727.271 3.162 1.581l1 2.998c.438 1.31-.271 2.726-1.58 3.163-.262.086-.529.128-.791.128z"/><path d="m130.013 128.436c-.262 0-.528-.042-.791-.129-1.31-.437-2.018-1.853-1.58-3.163l1-2.998c.436-1.31 1.849-2.019 3.162-1.581 1.31.437 2.018 1.853 1.58 3.163l-1 2.998c-.349 1.047-1.324 1.71-2.371 1.71z"/><path d="m138.46 71.21c-1.377 0-2.495-1.114-2.5-2.492-.008-2.222.851-4.314 2.417-5.891 1.566-1.576 3.652-2.448 5.875-2.456h.027c2.212 0 4.293.858 5.863 2.417 1.576 1.566 2.448 3.653 2.455 5.875.004 1.381-1.111 2.503-2.492 2.508-.003 0-.006 0-.008 0-1.377 0-2.496-1.114-2.5-2.492-.003-.887-.351-1.719-.979-2.343-.626-.623-1.457-.965-2.34-.965-.003 0-.007 0-.011 0-.887.003-1.719.351-2.344.979-.624.629-.967 1.463-.964 2.35.005 1.381-1.111 2.504-2.491 2.508-.002.002-.005.002-.008.002z"/><path d="m103.081 71.191c-1.381 0-2.5-1.119-2.5-2.5 0-1.83-1.489-3.319-3.319-3.319s-3.319 1.489-3.319 3.319c0 1.381-1.119 2.5-2.5 2.5s-2.5-1.119-2.5-2.5c0-4.587 3.732-8.319 8.319-8.319s8.319 3.732 8.319 8.319c0 1.381-1.119 2.5-2.5 2.5z"/><path d="m173.02 207.857c-.799 0-1.568-.384-2.046-1.063-.614-.875-.604-2.042.021-2.904.024-.034.055-.077.074-.103.378-.519.779-1.09 1.172-1.671l.089-.132c.385-.572.761-1.153 1.127-1.743l.112-.18c.35-.566.699-1.155 1.039-1.751l.113-.2c.336-.593.657-1.185.97-1.785l.135-.26c.305-.59.597-1.181.881-1.778l.154-.329c.273-.585.537-1.174.794-1.77l.33-.776c.079-.184.159-.367.234-.554.262-.649.783-1.16 1.438-1.406.656-.248 1.383-.208 2.009.107 1.205.608 2.249 1.358 3.124 2.057.159-2.68.781-4.338 1.995-5.41 1.61-1.421 3.604-1.173 5.062-.991 1.113.139 1.918.211 2.633-.01-.542-1.684-3.579-6.092-10.549-12.729-.499-.476-.78-1.136-.776-1.825s.292-1.346.797-1.816c1.464-1.362 2.734-3.257 3.777-5.631l.066-.169c.133-.31.326-.589.569-.823 3.836-3.673 7.047-8.17 9.544-13.366 6.719-13.979 9.71-27.708 12.35-39.82 3.663-16.811 6.556-30.088 18.064-33.869 6.394-2.104 13.715.416 19.104 6.57 8.94 10.209 13.597 31.264-.148 59.736-15.566 32.25-42.357 56.406-73.503 66.275-.25.081-.504.119-.755.119zm8.632-12.347c-.086.189-.173.377-.261.564l-.17.362c-.307.646-.624 1.286-.951 1.919l-.15.291c-.331.634-.675 1.27-1.031 1.897 1.978-.782 3.934-1.626 5.866-2.529-.792-.388-1.524-1.012-2.214-1.599-.345-.292-.707-.601-1.089-.905zm8.422-5.44c-.119.324-.325 1.16-.325 3.057 0 .734 0 1.709-.234 2.625 22.381-11.769 41.265-31.61 53.261-56.46 12.684-26.276 8.775-45.262.889-54.269-4.104-4.688-9.258-6.601-13.781-5.114-8.792 2.889-11.287 14.338-14.74 30.184-2.563 11.768-5.755 26.413-12.729 40.921-2.676 5.569-6.112 10.428-10.217 14.448-.879 1.949-1.901 3.654-3.057 5.103 7.293 7.206 10.788 12.477 10.396 15.685-.162 1.321-.886 2.41-2.039 3.066-2.369 1.349-4.716 1.057-6.269.862-.356-.043-.852-.105-1.155-.108z"/><path d="m158.474 256c-5.067 0-9.13-1.663-12.073-4.941-5.537-6.167-5.697-16.742-4.857-24.528.103-.954.743-1.765 1.646-2.087 4.121-1.468 8.054-3.359 11.688-5.622.752-.468 1.694-.503 2.479-.093s1.294 1.204 1.34 2.087c.531 10.326 4.831 10.191 11.938 9.962 4.866-.152 10.389-.33 14.2 4.01 4.328 4.926 3.44 9.051 2.526 11.07-2.874 6.351-13.673 10.142-28.887 10.142zm-12.108-27.4c-.741 8.826.577 15.58 3.754 19.119 1.983 2.208 4.716 3.282 8.354 3.282 14.557 0 22.71-3.618 24.333-7.203.741-1.639.16-3.56-1.728-5.709-2.254-2.565-5.973-2.446-10.286-2.312-6.225.201-14.53.461-16.64-10.753-2.498 1.351-5.102 2.547-7.787 3.576z"/><path d="m82.873 256c-15.215 0-26.014-3.791-28.888-10.142-.914-2.02-1.802-6.144 2.526-11.07 3.812-4.339 9.333-4.163 14.2-4.01 7.118.227 11.407.362 11.938-9.962.046-.884.556-1.678 1.34-2.087s1.728-.374 2.479.093c3.635 2.263 7.567 4.154 11.688 5.622.903.322 1.544 1.133 1.646 2.087.84 7.786.68 18.362-4.857 24.528-2.942 3.278-7.005 4.941-12.072 4.941zm-15.063-20.283c-3.129 0-5.782.368-7.542 2.371-1.888 2.149-2.469 4.07-1.728 5.709 1.623 3.585 9.776 7.203 24.333 7.203 3.638 0 6.37-1.073 8.354-3.282 3.177-3.539 4.495-10.292 3.754-19.119-2.685-1.028-5.289-2.225-7.787-3.577-2.109 11.213-10.418 10.953-16.64 10.753-.947-.029-1.865-.058-2.744-.058z"/><path d="m120.673 233.25c-27.23 0-50.32-14.376-60.987-37.734-.378.302-.737.608-1.08.9-1.425 1.213-3.04 2.589-4.964 1.698-2.044-.944-2.044-3.475-2.044-4.987 0-1.897-.206-2.733-.325-3.058-.303.003-.799.065-1.154.109-1.553.194-3.901.485-6.269-.862-1.153-.656-1.877-1.745-2.039-3.066-.393-3.208 3.103-8.479 10.396-15.685-1.207-1.512-2.267-3.302-3.166-5.347-3.035-6.911-3.701-19.324 10.364-39.219 1.731-2.449 3.309-5.19 4.824-8.379 1.696-3.576 3.603-7.095 5.664-10.459.383-.625 1.021-1.05 1.745-1.164.729-.115 1.462.097 2.018.575 4.228 3.639 9.688 6.916 15.788 9.478.645.271 1.146.798 1.384 1.455.237.657.188 1.384-.134 2.003-1.122 2.158-1.352 3.796-.767 5.478.169.486.184 1.013.042 1.508-.567 1.984-.452 3.767.36 5.609 1.455 3.297 4.58 6.378 9.288 9.157 13.201 7.789 29.603 7.788 42.804 0 4.709-2.779 7.834-5.859 9.288-9.156.813-1.842.928-3.624.36-5.61-.142-.495-.127-1.022.042-1.508.585-1.681.355-3.319-.767-5.478-.322-.62-.371-1.346-.134-2.003.238-.657.739-1.185 1.384-1.455 5.89-2.474 11.199-5.625 15.354-9.113.561-.468 1.297-.667 2.015-.552.72.119 1.352.546 1.73 1.17 1.972 3.251 3.797 6.637 5.425 10.065 1.514 3.188 3.091 5.928 4.823 8.379 14.065 19.896 13.399 32.309 10.363 39.219-.898 2.046-1.958 3.835-3.165 5.348 7.293 7.206 10.788 12.477 10.395 15.685-.161 1.321-.885 2.41-2.038 3.066-2.369 1.349-4.716 1.057-6.269.862-.355-.044-.852-.106-1.155-.109-.119.324-.325 1.16-.325 3.058 0 1.512 0 4.044-2.043 4.987-1.929.889-3.539-.484-4.964-1.697-.343-.292-.702-.599-1.08-.901-10.667 23.355-33.758 37.733-60.987 37.733zm-59.865-43.957c.298 0 .597.053.882.161.654.247 1.176.757 1.438 1.406 9.281 23.063 31.332 37.391 57.546 37.391 26.215 0 48.266-14.327 57.547-37.391.262-.649.783-1.16 1.438-1.406.656-.248 1.383-.208 2.009.107 1.204.608 2.248 1.357 3.124 2.056.158-2.68.78-4.337 1.994-5.409 1.61-1.422 3.605-1.172 5.062-.991 1.113.14 1.918.212 2.633-.01-.542-1.684-3.579-6.092-10.549-12.729-.499-.476-.78-1.135-.776-1.825.004-.689.292-1.346.796-1.815 1.465-1.364 2.735-3.258 3.777-5.63 4.801-10.928-4.122-26.194-9.867-34.322-1.9-2.688-3.62-5.671-5.258-9.121-1.151-2.424-2.405-4.826-3.744-7.171-3.527 2.645-7.554 5.007-12.023 7.054.573 1.737.871 3.847.234 6.216.664 2.853.404 5.562-.786 8.258-1.885 4.271-5.693 8.122-11.321 11.443-14.768 8.714-33.116 8.713-47.886 0-5.627-3.321-9.437-7.171-11.321-11.444-1.19-2.697-1.449-5.406-.786-8.258-.637-2.37-.339-4.479.235-6.216-4.633-2.128-8.883-4.649-12.507-7.419-1.415 2.456-2.739 4.98-3.952 7.536-1.64 3.452-3.359 6.435-5.259 9.121-5.745 8.128-14.668 23.395-9.868 34.322 1.042 2.373 2.313 4.267 3.778 5.631.504.47.792 1.126.796 1.815s-.277 1.349-.776 1.825c-6.97 6.637-10.007 11.046-10.549 12.729.718.223 1.522.149 2.633.01 1.456-.181 3.451-.43 5.062.991 1.214 1.072 1.836 2.729 1.995 5.41.875-.699 1.919-1.448 3.124-2.057.351-.178.737-.268 1.125-.268z"/><path d="m153.569 120.865c-.907 0-1.777-.497-2.22-1.348-.549-1.057-1.234-2.104-1.961-3.214-2.062-3.15-4.398-6.72-3.474-11.003.778-3.605 3.661-6.885 9.071-10.321.867-.551 1.364-1.5 1.328-2.539-.017-.479-.189-1.667-1.431-2.34-3.049-1.65-7.914-2.884-14.462-3.666-4.058-.485-7.656-1.758-10.693-3.785-2.046-1.367-5.302-2.182-8.71-2.182-3.407 0-6.663.815-8.708 2.182-3.038 2.027-6.637 3.301-10.694 3.786-6.548.782-11.413 2.015-14.462 3.666-1.241.672-1.414 1.86-1.431 2.34-.036 1.039.461 1.988 1.328 2.539 5.41 3.436 8.293 6.716 9.071 10.321.925 4.283-1.412 7.854-3.474 11.003-.727 1.109-1.412 2.158-1.961 3.214-.6 1.155-1.987 1.656-3.186 1.153-17.347-7.278-28.556-19.374-28.556-30.816 0-5.984 3.061-11.788 8.851-16.786 2.961-2.556 4.654-6.414 4.646-10.585 0-22.497 15.146-42.028 36.834-47.585 1.426-.365 2.478-1.675 2.558-3.184.276-5.304 3.803-9.397 9.929-11.524 1.417-.49 2.959-.007 3.834 1.206.879 1.217.854 2.837-.061 4.031-1.265 1.649-1.792 3.402-1.586 5.302 1.146-2 3.087-3.613 5.709-4.698 1.373-.569 2.929-.188 3.875.945.956 1.144 1.052 2.76.239 4.021-.677 1.049-.906 2.145-.702 3.35.041.24.262.458.537.528 21.734 5.529 36.914 25.07 36.914 47.52 0 .308-.003.615-.008.921-.076 3.957 1.55 7.746 4.462 10.401 5.308 4.841 8.112 10.421 8.112 16.137 0 11.442-11.209 23.538-28.556 30.816-.31.131-.638.194-.962.194zm-32.55-45.397c4.422 0 8.608 1.102 11.486 3.023 2.376 1.586 5.24 2.588 8.511 2.979 7.176.857 12.643 2.281 16.249 4.234 2.437 1.32 3.949 3.773 4.047 6.563.098 2.83-1.265 5.421-3.646 6.933-4.09 2.598-6.399 5.005-6.864 7.155-.483 2.239 1.024 4.542 2.771 7.209.346.529.697 1.066 1.04 1.614 14.13-6.454 23.479-16.461 23.479-25.325 0-4.333-2.181-8.519-6.481-12.442-3.976-3.625-6.196-8.795-6.093-14.185.005-.272.008-.551.008-.831 0-20.161-13.631-37.709-33.147-42.675-2.199-.561-3.86-2.341-4.233-4.537-.076-.452-.123-.899-.139-1.341-.125.345-.203.708-.233 1.087-.165 2.07-1.876 3.611-3.939 3.5l-.112-.006c-1.358-.069-2.58-.869-3.187-2.088-1.569-3.148-2.007-6.228-1.323-9.11-1.306 1.146-2.273 2.688-2.381 4.75-.193 3.67-2.788 6.863-6.311 7.766-19.474 4.989-33.074 22.529-33.074 42.654.011 5.708-2.314 10.949-6.379 14.458-4.657 4.019-7.118 8.515-7.118 13 0 8.863 9.349 18.871 23.479 25.325.343-.548.693-1.085 1.04-1.614 1.745-2.667 3.253-4.97 2.77-7.209-.464-2.15-2.773-4.558-6.864-7.156-2.38-1.512-3.742-4.104-3.645-6.933.098-2.79 1.61-5.243 4.047-6.563 3.606-1.953 9.073-3.377 16.249-4.234 3.271-.391 6.135-1.393 8.512-2.979 2.873-1.92 7.059-3.022 11.481-3.022z"/><path d="m54.886 198.398c-.4 0-.814-.086-1.244-.284-2.043-.943-2.043-3.475-2.043-4.987 0-1.897-.206-2.733-.325-3.057-.303.003-.8.065-1.154.109-1.555.193-3.9.486-6.27-.862-1.153-.656-1.877-1.745-2.039-3.066-.423-3.457 3.668-9.309 12.158-17.394.956-.912 2.457-.921 3.427-.02 4.715 4.388 10.133 1.997 13.338-1.38.931-.98 2.47-1.046 3.479-.143 16.352 14.605 14.905 17.364 14.041 19.012-1.416 2.696-5.018 1.824-6.204 1.539-3.537-.855-5.054-.49-5.36-.178-.566.576.143 3.322.41 4.356.496 1.919 1.059 4.095-.824 5.323-2.041 1.331-4.279-.432-6.075-1.847-5.075-3.998-8.129-2.058-11.596.897-1.107.942-2.327 1.982-3.719 1.982zm-3.623-13.322c1.098 0 2.276.229 3.3 1.132 1.214 1.072 1.836 2.729 1.995 5.409 2.968-2.353 8.254-5.518 15.067-1.211-.32-2.139-.216-4.483 1.5-6.227 2.377-2.417 6.329-2.011 9.36-1.345-1.462-1.955-4.455-5.277-9.914-10.265-5.214 4.282-11.606 4.817-16.708 1.414-5.873 5.8-8.496 9.671-8.996 11.224.714.222 1.52.149 2.633.01.531-.066 1.134-.141 1.763-.141z"/><path d="m186.462 198.398c-1.393 0-2.612-1.04-3.718-1.982-3.467-2.955-6.521-4.896-11.597-.898-1.796 1.417-4.033 3.183-6.075 1.848-1.883-1.229-1.32-3.404-.824-5.323.268-1.034.977-3.781.411-4.356-.309-.312-1.825-.676-5.36.178-1.184.286-4.791 1.156-6.204-1.539-.864-1.648-2.312-4.407 14.04-19.012 1.007-.902 2.548-.837 3.479.143 3.205 3.377 8.623 5.767 13.338 1.38.968-.901 2.469-.892 3.427.02 8.49 8.085 12.581 13.937 12.158 17.394-.162 1.321-.886 2.41-2.039 3.066-2.369 1.349-4.716 1.057-6.269.862-.355-.044-.852-.106-1.154-.109-.119.324-.325 1.16-.325 3.057 0 1.512 0 4.043-2.043 4.987-.431.198-.845.284-1.245.284zm-10.011-10.124c3.591 0 6.439 1.838 8.339 3.343.159-2.68.781-4.337 1.995-5.409 1.61-1.421 3.604-1.173 5.062-.991 1.113.139 1.918.211 2.633-.01-.5-1.553-3.123-5.424-8.996-11.224-5.104 3.406-11.495 2.869-16.708-1.414-5.459 4.987-8.452 8.311-9.914 10.265 3.032-.667 6.982-1.071 9.361 1.345 1.716 1.743 1.819 4.088 1.499 6.227 2.453-1.55 4.709-2.132 6.729-2.132z"/><path d="m120.673 210.256c-18.28 0-34.184-8.99-42.542-24.049-.46-.829-.412-1.846.124-2.627.535-.781 1.467-1.195 2.406-1.062.618.086 1.218.191 1.815.317-1.224-1.647-3.707-4.5-8.738-9.185-.376-.35-.635-.808-.741-1.311-.377-1.773-.671-3.609-.876-5.457-.065-.585.078-1.175.405-1.665 1.896-2.838 3.068-6.306 3.392-10.028.341-3.939.534-11.006.557-20.437.001-.291.052-.578.151-.851 2.273-6.234 5.216-12.074 8.744-17.357.674-1.007 1.971-1.387 3.081-.902.236.104.477.204.717.304l.27.113c.644.271 1.146.798 1.383 1.454.238.657.19 1.383-.132 2.003-1.118 2.154-1.346 3.79-.762 5.469.169.486.184 1.013.042 1.508-.567 1.984-.452 3.767.36 5.609 1.455 3.297 4.58 6.378 9.288 9.157 13.201 7.789 29.603 7.788 42.804 0 4.709-2.779 7.834-5.859 9.288-9.156.813-1.842.928-3.624.36-5.61-.142-.495-.127-1.022.042-1.509.584-1.678.356-3.313-.762-5.468-.322-.62-.37-1.347-.132-2.004.239-.657.741-1.184 1.386-1.454l.464-.191c1.107-.477 2.403-.091 3.07.917 3.454 5.215 6.342 10.975 8.583 17.119.1.272.15.56.151.851.022 9.431.216 16.498.557 20.437.323 3.723 1.495 7.19 3.392 10.028.327.49.471 1.079.405 1.665-.205 1.848-.499 3.684-.876 5.457-.106.502-.365.96-.741 1.311-5.031 4.686-7.515 7.538-8.738 9.185.598-.126 1.197-.231 1.815-.317.94-.134 1.871.281 2.406 1.062.536.781.584 1.799.124 2.627-8.358 15.057-24.262 24.047-42.542 24.047zm-35.343-22.068c7.937 10.775 20.79 17.068 35.343 17.068 14.554 0 27.407-6.293 35.343-17.068-1.128-.129-2.246-.605-2.906-1.832-1.564-2.909 1.19-7.079 10.505-15.818.214-1.094.395-2.212.539-3.34-2.062-3.374-3.34-7.355-3.705-11.577-.354-4.071-.547-10.938-.575-20.414-.745-2.011-1.564-3.977-2.454-5.891-.057 1.625-.435 3.217-1.136 4.806-1.885 4.271-5.693 8.122-11.321 11.443-14.768 8.714-33.116 8.713-47.886 0-5.627-3.321-9.437-7.171-11.321-11.444-.92-2.084-1.283-4.176-1.095-6.335-1.177 2.392-2.241 4.871-3.187 7.421-.028 9.477-.222 16.344-.575 20.415-.365 4.222-1.643 8.203-3.705 11.577.145 1.127.325 2.246.539 3.34 9.314 8.739 12.069 12.909 10.505 15.818-.661 1.226-1.779 1.702-2.908 1.831z"/><path d="m121.019 152.102c-8.279 0-16.558-2.179-23.942-6.536-5.628-3.322-9.437-7.172-11.321-11.444-1.293-2.93-1.487-5.875-.593-9.002.299-1.048 1.243-1.781 2.333-1.812 1.059-.015 2.072.647 2.432 1.678.1.286.214.557.351.829 4.328 8.658 23.59 9.877 30.649 9.615.062-.003.123-.003.185 0 7.062.26 26.329-.973 30.648-9.612.001-.001.001-.002.001-.002.137-.272.251-.543.351-.83.358-1.031 1.366-1.692 2.432-1.678 1.09.031 2.034.764 2.333 1.812.895 3.129.7 6.074-.593 9.003-1.885 4.272-5.694 8.123-11.321 11.443-7.386 4.357-15.666 6.536-23.945 6.536zm-29.496-17.867c1.704 2.498 4.415 4.853 8.094 7.024 13.201 7.79 29.603 7.789 42.804 0 3.679-2.17 6.391-4.525 8.095-7.024-3.619 2.388-8.579 4.114-14.845 5.158-7.271 1.212-13.769 1.062-14.651 1.035-.881.027-7.38.178-14.651-1.035-6.266-1.044-11.227-2.77-14.846-5.158z"/><path d="m122.646 140.451c-.822 0-1.387-.015-1.628-.022-2.098.068-28.698.655-35.213-12.376-2.955-5.909.158-10.666 2.66-14.488 1.746-2.667 3.253-4.97 2.77-7.208-.464-2.15-2.773-4.557-6.863-7.155-2.381-1.512-3.743-4.104-3.646-6.934.098-2.79 1.61-5.243 4.047-6.562 3.606-1.953 9.073-3.377 16.249-4.234 3.271-.391 6.135-1.393 8.512-2.98 2.877-1.921 7.063-3.022 11.484-3.022 4.422 0 8.608 1.102 11.485 3.023 2.377 1.586 5.241 2.589 8.512 2.979 7.176.857 12.643 2.281 16.249 4.234 2.437 1.32 3.949 3.773 4.047 6.562.098 2.83-1.265 5.422-3.645 6.934-4.091 2.598-6.4 5.005-6.864 7.155-.483 2.239 1.023 4.542 2.77 7.208 2.502 3.822 5.615 8.579 2.66 14.488-5.765 11.531-27.263 12.398-33.586 12.398zm-1.627-5.024c.03 0 .062 0 .092.001 7.059.259 26.331-.972 30.649-9.612 1.59-3.179.135-5.686-2.371-9.514-2.062-3.149-4.398-6.719-3.474-11.002.778-3.605 3.661-6.884 9.071-10.32.867-.551 1.364-1.5 1.328-2.54-.017-.479-.189-1.667-1.431-2.34-3.049-1.65-7.914-2.884-14.462-3.666-4.059-.485-7.656-1.759-10.693-3.786-2.046-1.366-5.302-2.182-8.71-2.182-3.407 0-6.663.815-8.709 2.181-3.037 2.027-6.635 3.301-10.693 3.786-6.548.782-11.413 2.015-14.462 3.666-1.241.672-1.414 1.86-1.431 2.34-.036 1.039.461 1.988 1.329 2.54 5.409 3.436 8.292 6.715 9.07 10.32.925 4.283-1.412 7.853-3.474 11.002-2.506 3.828-3.961 6.335-2.371 9.514 4.318 8.64 23.59 9.872 30.648 9.612z"/><path d="m155.617 100.053c-.684 0-1.359-.279-1.849-.816-.2-.22-.412-.389-.648-.517-3.697-2.001-12.268-4.388-32.102-4.388-19.833 0-28.403 2.386-32.101 4.388-.236.128-.448.297-.648.517-.83.911-2.198 1.081-3.229.4-.218-.144-.437-.289-.667-.435-2.383-1.514-3.745-4.105-3.647-6.936.098-2.79 1.61-5.243 4.047-6.562 3.606-1.953 9.073-3.377 16.249-4.234 3.271-.391 6.135-1.393 8.512-2.98 2.877-1.921 7.063-3.022 11.484-3.022 4.422 0 8.608 1.102 11.485 3.023 2.377 1.586 5.241 2.589 8.512 2.979 7.176.857 12.643 2.281 16.249 4.234 2.437 1.32 3.949 3.773 4.047 6.562.098 2.83-1.265 5.422-3.645 6.934-.233.147-.452.292-.67.436-.422.281-.902.417-1.379.417zm-34.598-10.72c16.764 0 28.365 1.679 34.482 4.991.049.026.097.053.146.081.451-.536.693-1.227.668-1.964-.017-.479-.189-1.667-1.431-2.34-3.049-1.65-7.914-2.884-14.462-3.666-4.059-.485-7.656-1.759-10.693-3.786-2.046-1.366-5.302-2.182-8.71-2.182-3.407 0-6.663.815-8.709 2.181-3.037 2.027-6.635 3.301-10.693 3.786-6.548.782-11.413 2.015-14.462 3.666-1.241.672-1.414 1.86-1.431 2.34-.025.736.217 1.427.669 1.964.048-.027.096-.054.145-.081 6.116-3.311 17.717-4.99 34.481-4.99z"/></svg>