<svg enable-background="new 0 0 256 256" height="512" viewBox="0 0 256 256" width="512" xmlns="http://www.w3.org/2000/svg"><path d="m39.937 141.269c-3.786 10.379-.53 22.061 5.862 30.72 1.446-6.2 4.692-10.27 8.906-12.849-.091-.18-.184-.357-.266-.543-5.671-13.018 3.064-18.661 8.829-24.345 15.375-15.16 12.799-32.184-2.002-43.107-1.994-1.472-3.929-3.028-5.624-4.836-1.455-1.552-3.313-2.929-5.495-3.972-6.976-3.333-12.697-1.395-15.078 3.589-2.381 4.983-.52 11.124 6.457 14.457 2.268 1.084 4.599 1.671 6.796 1.801 4.017.238 7.76 2.385 9.798 5.854 1.635 2.783 2.019 6.029.193 9.719-3.549 7.176-13.947 11.369-18.376 23.512z" fill="#f9bd55"/><path d="m205.816 237.518c-1.088-.014-1.809-1.135-1.386-2.138l11.67-27.648c15.488-43.468-2.486-52.659-20.935-52.48 1.851 22.297-1.088 48.777-16.049 75.125-1.786 3.145-.929 7.031 1.979 9.303 1.823 1.425 3.803 3.223 5.418 5.304 2.428 3.128.533 7.397-3.148 8.326l.189.19h37.796c3.348-14.28-9.99-15.909-15.534-15.982z" fill="#f9bd55"/><path d="m71.783 155.253c-18.45-.179-36.423 9.011-20.935 52.48l11.67 27.648c.423 1.003-.297 2.123-1.386 2.138-5.544.074-18.882 1.702-15.533 15.982h37.796l.189-.19c-3.681-.929-5.576-5.198-3.148-8.326 1.615-2.081 3.595-3.879 5.418-5.304 2.907-2.272 3.764-6.158 1.979-9.303-14.961-26.348-17.901-52.829-16.05-75.125z" fill="#f9bd55"/><path d="m194.559 149.354c-1.634-13.227-7.477-25.551-16.469-35.335-3.274 2.834-6.994 5.356-11.082 7.492-.297.568-.621 1.127-.998 1.662-2.74 3.892-6.957 6.163-11.393 6.514.683-.049 1.362-.14 2.032-.278-4.02 8.62-12.758 14.596-22.897 14.596-10.149 0-18.893-5.99-22.907-14.623-3.675-.789-7.058-2.912-9.378-6.209-.377-.536-.702-1.094-.999-1.663 0 0 0 .001.001.002-4.209-2.2-8.028-4.808-11.372-7.746-9.127 9.825-15.06 22.248-16.707 35.592-2.894 23.437-.862 52.307 15.442 81.021 1.785 3.145.928 7.031-1.979 9.303-1.823 1.425-3.803 3.223-5.418 5.304-2.738 3.527.017 8.516 4.637 8.516h26.778c3.089 0 5.515-2.307 5.678-5.097 4.96 1.781 10.326 2.778 15.945 2.778s10.985-.997 15.946-2.778c0-.004 0-.008 0-.011.157 2.796 2.584 5.109 5.678 5.109h26.778c4.621 0 7.375-4.988 4.637-8.516-1.615-2.081-3.595-3.879-5.418-5.304-2.907-2.272-3.764-6.158-1.979-9.303 16.308-28.72 18.339-57.591 15.444-81.026z" fill="#f9bd55"/><path d="m190.966 71.366c-1.354-3.771-2.352-7.675-2.558-11.676-1.489-28.969-25.399-52.023-54.669-52.023-29.274 0-53.18 23.058-54.669 52.023-.206 4.001-1.204 7.905-2.558 11.676-1.397 3.893-2.145 7.994-2.145 12.23 0 15.775 10.352 29.684 26.102 37.915-2.741-5.248-2.115-11.752 1.47-16.617 4.356-5.911 12.078-8.132 18.846-5.585-1.011.69-1.62 1.614-1.62 2.874 0 4.474 7.472 10.801 14.574 10.801s14.573-6.327 14.573-10.801c0-1.261-.609-2.185-1.62-2.874 6.768-2.547 14.49-.326 18.846 5.585 3.585 4.865 4.211 11.368 1.47 16.617 15.751-8.231 26.103-22.14 26.103-37.915 0-4.236-.748-8.337-2.145-12.23z" fill="#f9bd55"/><g fill="#eaa250"><path d="m50.148 82.338c2.182 1.042 4.04 2.42 5.495 3.972 1.695 1.808 3.63 3.364 5.624 4.836 1.494 1.103 2.857 2.271 4.097 3.49-3.807-.533-8.415-.603-6.816 2.595 1.968 3.935 3.436 7.375-1.929 8.828-2.127-2.288-5.118-3.686-8.296-3.874-2.196-.13-4.528-.718-6.796-1.801-6.976-3.333-8.837-9.474-6.457-14.457 2.38-4.984 8.101-6.922 15.078-3.589z"/><path d="m45.104 132.312c-2.022 2.483-3.858 5.367-5.167 8.956-.436 1.196-.764 2.411-1.02 3.634 1.138.779 2.514 1.236 3.997 1.236 3.914 0 7.088-3.173 7.088-7.088 0-3.148-2.056-5.814-4.898-6.738z"/><path d="m180.738 85.882c0 4.475 3.628 8.102 8.102 8.102 1.019 0 1.99-.196 2.889-.54.903-3.173 1.382-6.468 1.382-9.849 0-1.616-.11-3.213-.323-4.785-1.169-.654-2.513-1.03-3.948-1.03-4.475 0-8.102 3.628-8.102 8.102z"/><circle cx="154.405" cy="38.787" r="5.064"/><path d="m145.797 13.974c0 3.636 2.947 6.583 6.583 6.583s6.583-2.947 6.583-6.583c0-.048-.006-.095-.007-.142-3.571-1.863-7.376-3.335-11.354-4.377-1.117 1.179-1.805 2.767-1.805 4.519z"/><path d="m170.12 21.563c-2.72 1.447-4.574 4.307-4.574 7.603 0 4.754 3.854 8.609 8.609 8.609 2.7 0 5.106-1.245 6.685-3.189-2.89-4.881-6.517-9.269-10.72-13.023z"/><circle cx="173.648" cy="167.412" r="5.064"/><circle cx="169.597" cy="216.026" r="5.064"/><circle cx="97.689" cy="216.026" r="5.064"/><circle cx="185.295" cy="189.187" r="6.583"/><circle cx="180.231" cy="133.484" r="6.583"/><path d="m183.776 153.739c0 5.314 4.308 9.622 9.622 9.622.761 0 1.499-.098 2.209-.265-.134-4.748-.504-9.341-1.048-13.742-.217-1.758-.514-3.499-.878-5.222-.095-.003-.188-.014-.284-.014-5.313 0-9.621 4.308-9.621 9.621z"/><circle cx="93.638" cy="167.412" r="5.064"/><circle cx="81.991" cy="189.187" r="6.583"/><path d="m72.374 120.405c-1.191-1.692-3.156-2.801-5.383-2.801-3.636 0-6.583 2.947-6.583 6.583 0 3.46 2.671 6.291 6.063 6.557 2.807-3.414 4.755-6.888 5.903-10.339z"/><path d="m218.543 165.446c-.275-.035-.553-.059-.838-.059-3.636 0-6.583 2.947-6.583 6.583s2.947 6.583 6.583 6.583c1.581 0 3.031-.558 4.166-1.487-.328-4.794-1.51-8.613-3.328-11.62z"/><circle cx="206.564" cy="187.668" r="5.064"/><path d="m216.692 198.809c-4.754 0-8.609 3.854-8.609 8.609 0 3.416 1.995 6.359 4.879 7.75l3.138-7.435c1.087-3.051 1.992-5.915 2.761-8.637-.694-.181-1.418-.287-2.169-.287z"/><path d="m49.075 178.553c3.636 0 6.583-2.947 6.583-6.583s-2.947-6.583-6.583-6.583c-.221 0-.439.012-.654.033-1.842 3.036-3.033 6.904-3.35 11.767 1.11.853 2.495 1.366 4.004 1.366z"/><circle cx="60.216" cy="187.668" r="5.064"/><path d="m48.076 199.055c.771 2.734 1.68 5.611 2.772 8.678l3.11 7.367c2.808-1.418 4.739-4.321 4.739-7.682 0-4.754-3.854-8.609-8.609-8.609-.694 0-1.366.091-2.012.246z"/><circle cx="87.055" cy="133.484" r="6.583"/><path d="m73.888 163.361c5.314 0 9.622-4.308 9.622-9.622s-4.308-9.622-9.622-9.622c-.211 0-.418.018-.625.032-.362 1.717-.657 3.453-.873 5.207-.54 4.374-.908 8.938-1.044 13.654.811.222 1.661.351 2.542.351z"/><circle cx="177.7" cy="58.031" r="4.051"/><path d="m86.74 85.882c0 4.475-3.628 8.102-8.102 8.102-1.019 0-1.99-.196-2.889-.54-.903-3.173-1.382-6.468-1.382-9.849 0-1.616.11-3.213.323-4.785 1.169-.654 2.513-1.03 3.948-1.03 4.474 0 8.102 3.628 8.102 8.102z"/><circle cx="113.072" cy="38.787" r="5.064"/><path d="m121.681 13.974c0 3.636-2.947 6.583-6.583 6.583s-6.583-2.947-6.583-6.583c0-.048.006-.095.007-.142 3.571-1.863 7.376-3.335 11.354-4.377 1.116 1.179 1.805 2.767 1.805 4.519z"/><path d="m97.358 21.563c2.72 1.447 4.574 4.307 4.574 7.603 0 4.754-3.854 8.609-8.609 8.609-2.7 0-5.106-1.245-6.685-3.189 2.89-4.881 6.516-9.269 10.72-13.023z"/><circle cx="89.778" cy="58.031" r="4.051"/></g><path d="m133.753 144.004c-7.73 0-14.639-3.48-19.271-8.952-7.793 15.2-9.025 36.764-5.044 53.656 3.105 13.176 4.402 26.714 4.402 40.252.188 2.527-.734 6.578 1.996 12.577.79 1.736 1.629 4.525 1.653 7.112.009-.083.035-.162.04-.246 10.311 3.702 21.563 3.708 31.891 0 .02.102.032.167.04.239.022-2.456.812-5.255 1.653-7.104 2.734-6.009 1.809-10.072 1.996-12.577 0-13.537 1.297-27.075 4.402-40.252 3.958-16.791 2.737-38.106-4.843-53.239-4.627 5.231-11.383 8.534-18.915 8.534z" fill="#f4dbce"/><path d="m186.513 244.984c-1.615-2.081-3.595-3.879-5.418-5.304-1.868-1.46-2.884-3.587-2.902-5.755-1.335.014-2.988.353-4.97 1.344-5.396 2.698-9.999-4.976-20.181-1.057-.156 2.026-.622 4.45-1.93 7.324-.841 1.849-1.631 4.647-1.653 7.104.285 2.68 2.639 4.859 5.638 4.859h26.778c4.621 0 7.376-4.988 4.638-8.515z" fill="#f4dbce"/><path d="m115.837 241.537c-1.301-2.858-1.768-5.269-1.926-7.289-10.246-4.001-14.861 3.727-20.273 1.021-1.937-.969-3.563-1.316-4.882-1.345-.017 2.168-1.033 4.296-2.902 5.756-1.823 1.425-3.803 3.223-5.418 5.304-2.738 3.527.017 8.516 4.637 8.516h26.778c2.996 0 5.35-2.174 5.638-4.851-.023-2.587-.862-5.376-1.652-7.112z" fill="#f4dbce"/><path d="m205.816 237.518c-.484-.006-.888-.238-1.158-.575-6.811 3.22-13.69 2.481-17.844-1.673-3.311-3.311-6.612-3.156-8.508-2.653-.472 2.594.543 5.31 2.788 7.064 1.823 1.425 3.803 3.223 5.418 5.304 2.428 3.128.533 7.397-3.148 8.326l.189.19h37.796c3.349-14.281-9.989-15.91-15.533-15.983z" fill="#f4dbce"/><path d="m85.853 239.68c2.181-1.704 3.208-4.316 2.832-6.842-1.676-.615-5.45-1.345-9.227 2.432-4.058 4.058-10.718 4.854-17.374 1.887-.255.215-.58.357-.953.362-5.544.074-18.882 1.702-15.533 15.982h37.796l.189-.19c-3.681-.929-5.576-5.198-3.148-8.326 1.616-2.082 3.595-3.881 5.418-5.305z" fill="#f4dbce"/><path d="m182.226 2.501c-8.885 0-16.407 5.787-19.035 13.792 9.642 6.186 17.217 15.319 21.474 26.129 9.916-1.205 17.604-9.638 17.604-19.879-.001-11.069-8.974-20.042-20.043-20.042z" fill="#f9bd55"/><path d="m103.858 16.566c-2.543-8.15-10.148-14.065-19.135-14.065-11.069 0-20.042 8.973-20.042 20.042 0 10.416 7.947 18.971 18.108 19.945 4.189-10.678 11.61-19.729 21.069-25.922z" fill="#f9bd55"/><path d="m165.539 104.894c-4.356-5.911-12.078-8.132-18.846-5.585 1.011.69 1.62 1.614 1.62 2.874 0 4.474-7.472 10.801-14.573 10.801-7.102 0-14.573-6.327-14.573-10.801 0-1.261.609-2.185 1.62-2.874-6.768-2.547-14.49-.326-18.846 5.585-3.973 5.391-4.326 12.802-.472 18.279 3.987 5.665 11.103 7.894 17.467 5.773l14.804-4.935 14.804 4.935c6.364 2.121 13.48-.108 17.467-5.772 3.854-5.478 3.5-12.889-.472-18.28z" fill="#f4dbce"/><path d="m148.695 128.945-14.804-4.935-14.804 4.935c-2.717.906-5.569 1.012-8.258.403 4.007 8.652 12.762 14.657 22.924 14.657 10.138 0 18.877-5.977 22.897-14.596-2.6.533-5.34.407-7.955-.464z" fill="#f4dbce"/><path d="m148.312 102.183c0 4.474-7.472 10.801-14.573 10.801-7.102 0-14.573-6.327-14.573-10.801s7.472-4.819 14.573-4.819c7.102 0 14.573.345 14.573 4.819z" fill="#7d3d1a"/><path d="m182.226 16.584c-4.637 0-8.739 2.251-11.305 5.71 5.971 5.547 10.704 12.409 13.744 20.13 3.227-.393 6.221-1.539 8.787-3.277 1.786-2.36 2.857-5.291 2.857-8.479 0-7.778-6.305-14.084-14.083-14.084z" fill="#f98080"/><path d="m96.242 22.581c-2.548-3.623-6.753-5.997-11.519-5.997-7.778 0-14.084 6.305-14.084 14.084 0 3.188 1.072 6.118 2.857 8.479 2.7 1.829 5.873 3.007 9.295 3.335 2.986-7.609 7.612-14.391 13.451-19.901z" fill="#f98080"/><path d="m45.798 174.489c-.784 0-1.534-.369-2.012-1.015-7.65-10.366-9.968-22.726-6.198-33.062 2.818-7.729 7.958-12.543 12.087-16.411 2.761-2.586 5.145-4.819 6.397-7.352 1.294-2.616 1.259-5.018-.107-7.345-1.588-2.701-4.5-4.43-7.791-4.625-2.577-.152-5.249-.857-7.726-2.041-7.734-3.695-10.874-11.011-7.635-17.791 3.155-6.605 10.552-8.521 18.412-4.767 2.377 1.136 4.535 2.699 6.24 4.518 1.707 1.821 3.721 3.38 5.285 4.534 8.012 5.913 12.747 13.691 13.333 21.903.615 8.611-3.21 17.254-11.062 24.996-.702.693-1.447 1.385-2.206 2.089-5.336 4.953-10.375 9.631-6.086 19.477.041.093.092.189.141.287l.067.134c.583 1.161.179 2.575-.93 3.253-4.037 2.471-6.581 6.163-7.776 11.285-.222.949-.975 1.683-1.93 1.88-.166.037-.336.053-.503.053zm-3.512-32.364c-2.664 7.305-1.555 16.221 2.827 24.172 1.518-3.253 3.685-5.95 6.481-8.061-4.625-12.226 2.539-18.876 7.82-23.779.722-.669 1.431-1.327 2.099-1.985 6.777-6.683 10.092-13.972 9.584-21.079-.487-6.827-4.4-13.133-11.315-18.236-1.734-1.281-3.979-3.022-5.964-5.138-1.284-1.371-2.926-2.555-4.748-3.426-5.319-2.542-9.82-1.618-11.744 2.411-1.666 3.486-.68 8.278 5.278 11.124 1.898.907 3.927 1.447 5.865 1.561 4.959.293 9.373 2.941 11.807 7.083 2.224 3.786 2.32 7.967.279 12.094-1.655 3.346-4.476 5.987-7.462 8.784-4.128 3.868-8.397 7.867-10.807 14.475z"/><path d="m56.619 108.559c-.685 0-1.352-.282-1.831-.798-1.682-1.809-4.092-2.932-6.613-3.081-2.577-.152-5.249-.857-7.726-2.041-3.872-1.85-6.63-4.592-7.979-7.93-1.29-3.195-1.168-6.698.344-9.861 1.509-3.159 4.147-5.379 7.429-6.251 3.312-.878 7.108-.367 10.982 1.484h.001c2.377 1.136 4.535 2.698 6.241 4.518 1.709 1.824 3.722 3.381 5.283 4.534 1.555 1.147 3.023 2.399 4.365 3.72.77.756.966 1.921.489 2.888s-1.524 1.519-2.589 1.37c-1.918-.269-3.123-.282-3.851-.229 1.183 2.412 2.363 5.26 1.189 7.879-.801 1.787-2.464 3.001-5.083 3.71-.214.059-.434.088-.651.088zm-13.077-25.381c-.707 0-1.381.083-2.015.252-1.869.497-3.321 1.732-4.201 3.574-.899 1.884-.978 3.956-.219 5.834.872 2.16 2.772 3.989 5.497 5.29 1.898.907 3.927 1.447 5.865 1.561 3.217.19 6.322 1.443 8.746 3.491.361-.19.53-.361.576-.463.333-.742-.938-3.283-1.48-4.368-1.11-2.22-.407-3.761.11-4.482.514-.714 1.241-1.233 2.223-1.565-1.515-1.162-3.251-2.603-4.825-4.283-1.285-1.371-2.927-2.556-4.749-3.426-1.965-.938-3.841-1.415-5.528-1.415z"/><path d="m42.915 148.639c-1.94 0-3.811-.579-5.409-1.673-.833-.57-1.241-1.585-1.035-2.573.299-1.438.665-2.741 1.118-3.982 1.258-3.448 3.082-6.614 5.577-9.677.651-.801 1.729-1.118 2.711-.799 3.963 1.287 6.625 4.951 6.625 9.117 0 5.286-4.301 9.587-9.587 9.587zm-1.081-5.128c.352.085.714.128 1.081.128 2.529 0 4.587-2.058 4.587-4.588 0-1.412-.64-2.704-1.687-3.555-1.52 2.12-2.681 4.304-3.529 6.629-.163.448-.314.908-.452 1.386z"/><path d="m221.35 256h-37.796c-.665 0-1.303-.265-1.772-.737l-.189-.19c-.634-.637-.877-1.565-.637-2.431s.927-1.536 1.798-1.756c1.029-.26 1.874-1.016 2.203-1.972.202-.587.294-1.479-.418-2.397-1.274-1.642-2.951-3.279-4.982-4.867-3.899-3.046-4.999-8.307-2.613-12.507 12.647-22.275 17.94-47.066 15.731-73.684-.058-.692.176-1.377.644-1.891s1.129-.809 1.823-.816c11.571-.102 19.836 3.265 24.661 10.037 6.62 9.291 6.167 24.693-1.348 45.782-.016.045-.033.089-.051.133l-11.128 26.362c4.334.238 10.844 1.427 14.492 6.093 2.574 3.292 3.253 7.636 2.016 12.911-.265 1.13-1.273 1.93-2.434 1.93zm-31.839-5h29.756c.352-2.818-.13-5.087-1.438-6.76-2.897-3.705-9.39-4.187-12.047-4.222-1.341-.018-2.579-.7-3.314-1.823-.737-1.128-.865-2.543-.342-3.786l11.643-27.583c6.911-19.423 7.57-33.263 1.961-41.135-3.465-4.862-9.47-7.512-17.87-7.893 1.716 26.598-3.853 51.418-16.569 73.813-1.169 2.059-.616 4.566 1.344 6.098 2.356 1.842 4.326 3.773 5.854 5.741 1.603 2.064 2.038 4.649 1.196 7.092-.055.155-.112.308-.174.458zm16.338-15.982h.003c-.001 0-.002 0-.003 0z"/><path d="m83.394 256h-37.796c-1.161 0-2.169-.799-2.434-1.929-1.237-5.274-.559-9.618 2.016-12.911 3.648-4.667 10.158-5.855 14.492-6.093l-11.128-26.362c-.018-.044-.035-.088-.051-.133-7.515-21.088-7.968-36.491-1.348-45.782 4.826-6.772 13.112-10.129 24.662-10.037.694.007 1.355.302 1.823.816s.701 1.199.644 1.891c-2.21 26.617 3.083 51.408 15.731 73.683 2.385 4.202 1.285 9.461-2.614 12.507-2.031 1.587-3.708 3.225-4.982 4.867-.712.917-.62 1.81-.418 2.397.329.956 1.174 1.712 2.203 1.972.871.22 1.558.89 1.798 1.756s-.003 1.794-.637 2.431l-.189.19c-.469.471-1.107.737-1.772.737zm-35.713-5h29.756c-.062-.15-.119-.302-.173-.457-.842-2.443-.406-5.028 1.196-7.092 1.527-1.968 3.497-3.899 5.854-5.741 1.961-1.532 2.514-4.04 1.345-6.099-12.718-22.396-18.287-47.215-16.569-73.813-8.401.381-14.406 3.031-17.871 7.894-5.609 7.872-4.949 21.712 1.961 41.135l11.643 27.582c.523 1.243.396 2.658-.342 3.787-.735 1.124-1.974 1.805-3.314 1.823-2.657.035-9.149.517-12.047 4.222-1.309 1.672-1.79 3.94-1.439 6.759z"/><path d="m133.739 115.484c-7.979 0-17.073-7.086-17.073-13.301 0-7.319 10.688-7.319 17.073-7.319 6.386 0 17.073 0 17.073 7.319 0 6.215-9.095 13.301-17.073 13.301zm0-15.62c-8.011 0-12.073.78-12.073 2.319 0 2.903 6.206 8.301 12.073 8.301s12.073-5.398 12.073-8.301c0-1.539-4.062-2.319-12.073-2.319z"/><path d="m114.021 132.248c-5.698 0-11.151-2.74-14.599-7.637-4.417-6.276-4.215-14.796.504-21.2 4.967-6.741 13.906-9.391 21.739-6.442.873.329 1.49 1.116 1.602 2.042.111.926-.303 1.837-1.073 2.363-.528.361-.528.599-.528.81 0 2.903 6.206 8.301 12.073 8.301s12.073-5.398 12.073-8.301c0-.21 0-.449-.528-.809-.771-.525-1.185-1.437-1.074-2.363s.729-1.714 1.602-2.042c7.837-2.948 16.773-.298 21.74 6.442l-2.013 1.483 2.013-1.482c4.719 6.404 4.921 14.923.503 21.2-4.593 6.526-12.754 9.221-20.302 6.705l-14.014-4.671-14.014 4.671c-1.885.627-3.808.93-5.704.93zm1.064-31.476c-4.297 0-8.484 2.009-11.133 5.604-3.441 4.67-3.618 10.841-.44 15.356 3.313 4.708 9.188 6.653 14.633 4.84l14.804-4.935c.514-.171 1.068-.171 1.582 0l14.804 4.935c5.438 1.812 11.319-.133 14.633-4.84 3.178-4.515 3.001-10.687-.44-15.356-3.001-4.073-7.974-6.113-12.854-5.496.103.465.14.907.14 1.302 0 6.215-9.095 13.301-17.073 13.301s-17.073-7.086-17.073-13.301c0-.396.037-.837.14-1.302-.576-.072-1.151-.108-1.723-.108z"/><path d="m133.739 126.414c-1.381 0-2.5-1.119-2.5-2.5v-9.184c0-1.381 1.119-2.5 2.5-2.5s2.5 1.119 2.5 2.5v9.184c0 1.381-1.119 2.5-2.5 2.5z"/><path d="m133.753 146.504c-10.772 0-20.661-6.322-25.192-16.106-.4-.865-.274-1.882.324-2.623.599-.741 1.567-1.077 2.496-.867 2.302.521 4.693.404 6.916-.336l14.804-4.935c.514-.171 1.068-.171 1.582 0l14.804 4.935h-.001c2.132.709 4.435.843 6.661.386.927-.193 1.879.158 2.465.899s.703 1.75.304 2.606c-4.545 9.745-14.421 16.041-25.163 16.041zm-18.353-14.312c4.238 5.766 11.048 9.312 18.353 9.312 7.31 0 14.131-3.556 18.369-9.334-1.434-.112-2.85-.397-4.217-.854h-.001l-14.013-4.671-14.014 4.671c-1.454.485-2.959.778-4.477.876z"/><path d="m123.341 99.61c-.396 0-.798-.094-1.173-.293-1.219-.649-1.681-2.163-1.032-3.381 3.063-5.757 3.991-12.199 2.758-19.148-.241-1.359.666-2.657 2.025-2.898 1.359-.244 2.656.666 2.898 2.024 1.413 7.963.283 15.699-3.268 22.371-.448.844-1.313 1.325-2.208 1.325z"/><path d="m144.136 99.61c-.895 0-1.76-.481-2.209-1.326-3.55-6.671-4.681-14.407-3.269-22.371.241-1.359 1.537-2.268 2.898-2.025 1.359.241 2.267 1.539 2.025 2.898-1.232 6.95-.305 13.393 2.759 19.149.648 1.219.187 2.732-1.032 3.381-.373.2-.775.294-1.172.294z"/><path d="m100.637 72.6c-1.377 0-2.495-1.114-2.5-2.491-.008-2.322.889-4.508 2.525-6.155 1.637-1.647 3.816-2.559 6.139-2.566h.029c2.311 0 4.485.896 6.125 2.526 1.647 1.637 2.56 3.817 2.566 6.139.004 1.381-1.111 2.503-2.492 2.508-.003 0-.005 0-.008 0-1.377 0-2.496-1.114-2.5-2.492-.003-.986-.391-1.912-1.09-2.607-.697-.692-1.621-1.073-2.603-1.073-.004 0-.008 0-.013 0-.986.003-1.912.39-2.607 1.09-.694.7-1.075 1.628-1.072 2.614.005 1.381-1.11 2.504-2.491 2.509-.002-.002-.005-.002-.008-.002z"/><path d="m154.456 72.6c-1.377 0-2.496-1.114-2.5-2.492-.007-2.322.89-4.507 2.526-6.154 1.637-1.647 3.816-2.559 6.139-2.566h.029c2.311 0 4.485.896 6.125 2.526 1.647 1.637 2.559 3.817 2.565 6.139.004 1.381-1.111 2.503-2.492 2.508-.003 0-.005 0-.008 0-1.377 0-2.496-1.114-2.5-2.492-.003-.986-.39-1.912-1.09-2.607-.696-.692-1.62-1.073-2.602-1.073-.004 0-.008 0-.013 0-2.036.006-3.688 1.668-3.681 3.705.004 1.381-1.111 2.503-2.492 2.508-.001-.002-.004-.002-.006-.002z"/><path d="m155.346 111.491c-1.047 0-2.022-.662-2.372-1.71-.437-1.31.271-2.726 1.581-3.162l10.332-3.444c1.312-.438 2.726.271 3.163 1.581s-.271 2.726-1.581 3.162l-10.332 3.444c-.262.087-.529.129-.791.129z"/><path d="m166.83 121.822c-.092 0-.186-.005-.279-.015l-10.333-1.148c-1.372-.153-2.36-1.389-2.208-2.761s1.386-2.362 2.761-2.209l10.333 1.148c1.372.153 2.36 1.389 2.208 2.761-.142 1.279-1.225 2.224-2.482 2.224z"/><path d="m112.87 111.491c-.262 0-.528-.042-.791-.129l-10.332-3.444c-1.31-.437-2.018-1.853-1.581-3.162s1.849-2.019 3.163-1.581l10.332 3.444c1.31.437 2.018 1.853 1.581 3.162-.35 1.047-1.325 1.71-2.372 1.71z"/><path d="m101.386 121.822c-1.257 0-2.34-.945-2.481-2.224-.152-1.372.836-2.608 2.208-2.761l10.332-1.148c1.369-.152 2.608.837 2.761 2.209s-.836 2.608-2.208 2.761l-10.332 1.148c-.094.01-.188.015-.28.015z"/><path d="m167.009 124.011c-.648 0-1.288-.251-1.769-.732-.772-.772-.954-1.957-.448-2.925 2.275-4.357 1.778-9.844-1.267-13.977-3.001-4.073-7.974-6.113-12.854-5.496.103.465.14.907.14 1.302 0 6.215-9.095 13.301-17.073 13.301s-17.073-7.086-17.073-13.301c0-.396.037-.837.14-1.302-4.877-.617-9.853 1.422-12.854 5.496-3.045 4.133-3.542 9.62-1.267 13.977.506.968.324 2.153-.448 2.925-.771.772-1.956.955-2.926.448-17.185-8.98-27.444-23.982-27.444-40.131 0-4.44.771-8.839 2.292-13.075 1.453-4.047 2.243-7.632 2.414-10.96 1.568-30.501 26.679-54.395 57.166-54.395s55.598 23.893 57.166 54.395c.171 3.328.961 6.913 2.414 10.959 1.521 4.235 2.292 8.634 2.292 13.074 0 16.148-10.26 31.15-27.444 40.131-.366.193-.763.286-1.157.286zm-14.629-28.236c5.856 0 11.562 2.738 15.171 7.636 2.766 3.754 3.986 8.343 3.574 12.77 12.305-8.183 19.485-20.032 19.485-32.584 0-3.862-.672-7.692-1.997-11.384-1.622-4.515-2.506-8.568-2.703-12.393-1.431-27.842-24.348-49.652-52.172-49.652s-50.741 21.81-52.172 49.651c-.197 3.825-1.081 7.878-2.703 12.393-1.325 3.692-1.997 7.522-1.997 11.385 0 12.552 7.181 24.401 19.485 32.584-.412-4.427.809-9.016 3.574-12.77 4.967-6.741 13.906-9.391 21.739-6.442.873.329 1.49 1.116 1.602 2.042.111.926-.303 1.837-1.073 2.363-.528.361-.528.599-.528.81 0 2.903 6.206 8.301 12.073 8.301s12.073-5.398 12.073-8.301c0-.21 0-.449-.528-.809-.771-.525-1.185-1.437-1.074-2.363s.729-1.714 1.602-2.042c2.142-.807 4.366-1.195 6.569-1.195z"/><path d="m184.664 44.922c-1.017 0-1.945-.62-2.325-1.584-4.006-10.172-11.285-19.03-20.497-24.941-.959-.615-1.381-1.801-1.025-2.883 3.043-9.279 11.647-15.514 21.409-15.514 12.43 0 22.542 10.112 22.542 22.542 0 11.375-8.513 20.989-19.802 22.361-.101.014-.203.019-.302.019zm-18.42-29.596c8.723 6.057 15.717 14.568 19.963 24.291 7.849-1.816 13.562-8.854 13.562-17.073-.001-9.674-7.87-17.544-17.543-17.544-6.966 0-13.174 4.08-15.982 10.326z"/><path d="m82.79 44.987c-.079 0-.159-.004-.239-.011-11.613-1.113-20.37-10.757-20.37-22.433-.001-12.43 10.112-22.543 22.542-22.543 9.92 0 18.568 6.358 21.521 15.821.333 1.066-.083 2.224-1.018 2.836-9.157 5.997-16.112 14.553-20.11 24.743-.378.964-1.307 1.587-2.326 1.587zm1.933-39.987c-9.673 0-17.543 7.87-17.543 17.543 0 8.469 5.92 15.564 14.04 17.189 4.21-9.742 10.942-18.024 19.618-24.137-2.745-6.406-9.01-10.595-16.115-10.595z"/><path d="m181.876 256h-26.778c-3.214 0-6.013-1.791-7.35-4.416-9.267 2.783-19.284 2.783-28.547 0-1.339 2.625-4.139 4.416-7.35 4.416h-26.778c-3.211 0-6.061-1.745-7.437-4.554-1.304-2.661-.996-5.65.823-7.995 1.528-1.968 3.498-3.899 5.854-5.741 1.96-1.532 2.513-4.04 1.345-6.099-14.142-24.903-19.44-52.681-15.75-82.562 1.705-13.809 7.707-26.599 17.356-36.987.921-.991 2.463-1.07 3.482-.176 3.19 2.803 6.823 5.282 10.802 7.368.393.188.741.48.999.868.05.074.095.151.137.23.279.535.55.987.827 1.381 1.88 2.671 4.671 4.52 7.857 5.204.767.165 1.412.679 1.742 1.39 3.723 8.005 11.824 13.177 20.641 13.177 7.664 0 14.791-3.91 18.968-10.19-.336-.391-.554-.888-.596-1.441-.103-1.373.924-2.571 2.296-2.679 3.837-.304 7.316-2.294 9.546-5.461.274-.389.544-.84.826-1.38.236-.453.605-.822 1.059-1.059 3.892-2.033 7.459-4.444 10.604-7.166 1.021-.886 2.562-.796 3.477.198 9.503 10.34 15.419 23.038 17.109 36.721 3.69 29.88-1.608 57.659-15.75 82.564-1.169 2.059-.616 4.566 1.344 6.098 2.359 1.845 4.328 3.776 5.854 5.741 1.82 2.345 2.128 5.334.824 7.995-1.376 2.809-4.225 4.555-7.436 4.555zm-32.455-10.104c1.321 0 2.42 1.027 2.494 2.355.086 1.542 1.483 2.749 3.182 2.749h26.778c1.539 0 2.531-.906 2.946-1.753.266-.542.581-1.616-.284-2.73-1.272-1.639-2.948-3.277-4.982-4.867-3.898-3.046-4.998-8.306-2.612-12.506 13.599-23.95 18.691-50.692 15.135-79.482-1.466-11.871-6.382-22.947-14.256-32.175-2.755 2.182-5.765 4.154-8.98 5.883-.258.451-.519.862-.787 1.243-2.379 3.379-5.788 5.792-9.662 6.915-4.749 9.137-14.293 14.978-24.64 14.978-10.349 0-19.89-5.842-24.64-14.982-3.916-1.128-7.323-3.549-9.689-6.912-.271-.384-.531-.794-.787-1.243-3.339-1.795-6.453-3.851-9.292-6.132-8.003 9.278-12.993 20.44-14.473 32.426-3.556 28.791 1.536 55.532 15.135 79.48 2.385 4.201 1.285 9.46-2.614 12.507-2.031 1.587-3.708 3.225-4.982 4.867-.864 1.114-.549 2.188-.283 2.729.415.848 1.407 1.753 2.946 1.753h26.778c1.695 0 3.093-1.205 3.182-2.743.046-.787.46-1.506 1.118-1.94s1.481-.534 2.223-.268c9.673 3.474 20.37 3.493 30.057.052.282-.123.593-.194.92-.203.022-.001.045-.001.069-.001z"/><path d="m181.876 256h-26.778c-3.214 0-6.013-1.791-7.35-4.416-9.267 2.783-19.284 2.783-28.547 0-1.339 2.625-4.139 4.416-7.35 4.416h-26.778c-3.211 0-6.061-1.745-7.437-4.554-1.304-2.661-.996-5.65.823-7.995 1.528-1.968 3.498-3.899 5.854-5.741 1.96-1.532 2.513-4.04 1.345-6.099-14.142-24.903-19.44-52.681-15.75-82.562 1.705-13.809 7.707-26.599 17.356-36.987.921-.991 2.463-1.07 3.482-.176 3.19 2.803 6.823 5.282 10.802 7.368.393.188.741.48.999.868.05.074.095.151.137.23.279.535.55.987.827 1.381 1.88 2.671 4.671 4.52 7.857 5.204.767.165 1.412.679 1.742 1.39 3.723 8.005 11.824 13.177 20.641 13.177 7.664 0 14.791-3.91 18.968-10.19-.336-.391-.554-.888-.596-1.441-.103-1.373.924-2.571 2.296-2.679 3.837-.304 7.316-2.294 9.546-5.461.274-.389.544-.84.826-1.38.236-.453.605-.822 1.059-1.059 3.892-2.033 7.459-4.444 10.604-7.166 1.021-.886 2.562-.796 3.477.198 9.503 10.34 15.419 23.038 17.109 36.721 3.69 29.88-1.608 57.659-15.75 82.564-1.169 2.059-.616 4.566 1.344 6.098 2.359 1.845 4.328 3.776 5.854 5.741 1.82 2.345 2.128 5.334.824 7.995-1.376 2.809-4.225 4.555-7.436 4.555zm-32.455-10.104c1.321 0 2.42 1.027 2.494 2.355.086 1.542 1.483 2.749 3.182 2.749h26.778c1.539 0 2.531-.906 2.946-1.753.266-.542.581-1.616-.284-2.73-1.272-1.639-2.948-3.277-4.982-4.867-3.898-3.046-4.998-8.306-2.612-12.506 13.599-23.95 18.691-50.692 15.135-79.482-1.466-11.871-6.382-22.947-14.256-32.175-2.755 2.182-5.765 4.154-8.98 5.883-.258.451-.519.862-.787 1.243-2.379 3.379-5.788 5.792-9.662 6.915-4.749 9.137-14.293 14.978-24.64 14.978-10.349 0-19.89-5.842-24.64-14.982-3.916-1.128-7.323-3.549-9.689-6.912-.271-.384-.531-.794-.787-1.243-3.339-1.795-6.453-3.851-9.292-6.132-8.003 9.278-12.993 20.44-14.473 32.426-3.556 28.791 1.536 55.532 15.135 79.48 2.385 4.201 1.285 9.46-2.614 12.507-2.031 1.587-3.708 3.225-4.982 4.867-.864 1.114-.549 2.188-.283 2.729.415.848 1.407 1.753 2.946 1.753h26.778c1.695 0 3.093-1.205 3.182-2.743.046-.787.46-1.506 1.118-1.94s1.481-.534 2.223-.268c9.673 3.474 20.37 3.493 30.057.052.282-.123.593-.194.92-.203.022-.001.045-.001.069-.001z"/><path d="m133.474 253.67c-5.307 0-10.614-.846-15.698-2.538-.139.016-.28.021-.422.013-1.318-.071-2.354-1.155-2.365-2.475-.02-2.227-.781-4.677-1.428-6.098-2.35-5.164-2.264-9.106-2.207-11.716.015-.675.027-1.259-.007-1.709-.005-.062-.007-.124-.007-.186 0-14.122-1.459-27.472-4.336-39.678-4.426-18.781-2.363-40.515 5.253-55.37.381-.744 1.109-1.248 1.939-1.343.831-.096 1.654.231 2.193.869 4.339 5.126 10.667 8.067 17.362 8.067 6.508 0 12.72-2.803 17.041-7.691.55-.622 1.38-.929 2.196-.823.824.107 1.54.617 1.912 1.359 7.432 14.833 9.41 36.396 5.042 54.932-2.877 12.207-4.336 25.557-4.336 39.679 0 .062-.002.124-.007.186-.033.444-.021 1.022-.005 1.692.058 2.612.146 6.558-2.209 11.734-.697 1.534-1.409 4.012-1.428 6.09-.012 1.324-1.054 2.41-2.376 2.475-.132.006-.264.002-.393-.011-5.087 1.694-10.4 2.542-15.714 2.542zm-13.639-7.125c8.854 2.835 18.427 2.834 27.278 0 .31-2.313 1.037-4.536 1.724-6.043 1.882-4.136 1.814-7.139 1.761-9.552-.017-.729-.032-1.421.011-2.076.006-14.476 1.51-28.182 4.469-40.739 3.812-16.176 2.528-34.729-3.195-48.382-5.011 4.327-11.44 6.752-18.129 6.752-6.896 0-13.474-2.556-18.538-7.114-5.763 13.57-7.14 32.634-3.343 48.745 2.959 12.557 4.463 26.263 4.469 40.738.043.661.028 1.357.012 2.091-.052 2.411-.117 5.412 1.76 9.537.683 1.506 1.411 3.727 1.721 6.043z"/><path d="m188.84 96.485c-5.847 0-10.603-4.756-10.603-10.603s4.756-10.603 10.603-10.603c1.805 0 3.592.466 5.168 1.349.686.384 1.151 1.068 1.257 1.846.229 1.695.346 3.418.346 5.121 0 3.543-.497 7.087-1.478 10.534-.215.757-.775 1.369-1.511 1.651-1.222.468-2.494.705-3.782.705zm0-16.205c-3.089 0-5.603 2.513-5.603 5.603s2.514 5.603 5.603 5.603c.279 0 .559-.021.836-.065.62-2.575.935-5.202.935-7.825 0-1.021-.048-2.05-.144-3.075-.522-.161-1.066-.241-1.627-.241z"/><path d="m154.405 46.352c-4.171 0-7.563-3.393-7.563-7.564s3.393-7.564 7.563-7.564 7.564 3.393 7.564 7.564-3.393 7.564-7.564 7.564zm0-10.128c-1.413 0-2.563 1.15-2.563 2.564s1.15 2.564 2.563 2.564c1.414 0 2.564-1.15 2.564-2.564s-1.15-2.564-2.564-2.564z"/><path d="m152.379 23.057c-5.009 0-9.083-4.075-9.083-9.083 0-2.326.884-4.542 2.488-6.238.628-.664 1.564-.931 2.45-.7 4.13 1.082 8.126 2.622 11.877 4.579.81.422 1.324 1.253 1.343 2.166.004.028.008.11.008.193 0 5.008-4.074 9.083-9.083 9.083zm-3.74-10.716c-.225.51-.343 1.064-.343 1.633 0 2.251 1.832 4.083 4.083 4.083 1.798 0 3.327-1.167 3.871-2.784-2.445-1.171-4.994-2.153-7.611-2.932z"/><path d="m174.155 40.275c-6.125 0-11.108-4.983-11.108-11.109 0-4.115 2.261-7.874 5.899-9.81.925-.492 2.059-.354 2.839.342 4.43 3.957 8.2 8.537 11.206 13.614.533.9.449 2.037-.21 2.849-2.122 2.614-5.266 4.114-8.626 4.114zm-4.246-15.499c-1.175 1.135-1.862 2.708-1.862 4.39 0 3.369 2.74 6.109 6.108 6.109 1.268 0 2.479-.389 3.493-1.099-2.201-3.416-4.795-6.566-7.739-9.4z"/><path d="m166.564 50.4c-.17 0-.33-.01-.49-.05-.16-.03-.319-.08-.47-.14s-.3-.14-.43-.23c-.141-.09-.271-.19-.381-.31-.119-.11-.22-.24-.31-.38-.1-.14-.17-.28-.24-.43-.06-.15-.109-.31-.14-.47-.03-.16-.05-.32-.05-.49 0-.16.02-.33.05-.49s.08-.31.14-.46c.07-.16.141-.3.24-.44.09-.13.19-.26.31-.37.11-.12.24-.22.381-.31.13-.1.279-.17.43-.24.15-.06.31-.11.47-.14.811-.16 1.67.1 2.25.69.47.46.74 1.11.74 1.76 0 .17-.021.33-.05.49-.04.16-.08.32-.15.47-.06.15-.14.29-.229.43-.091.14-.19.27-.311.38-.46.47-1.11.73-1.76.73z"/><path d="m173.648 174.976c-4.171 0-7.563-3.393-7.563-7.564s3.393-7.564 7.563-7.564 7.564 3.393 7.564 7.564-3.393 7.564-7.564 7.564zm0-10.128c-1.413 0-2.563 1.15-2.563 2.564s1.15 2.564 2.563 2.564c1.414 0 2.564-1.15 2.564-2.564s-1.15-2.564-2.564-2.564z"/><path d="m169.597 223.59c-4.171 0-7.564-3.393-7.564-7.564s3.394-7.564 7.564-7.564 7.563 3.393 7.563 7.564-3.392 7.564-7.563 7.564zm0-10.128c-1.414 0-2.564 1.15-2.564 2.564s1.15 2.564 2.564 2.564c1.413 0 2.563-1.15 2.563-2.564s-1.15-2.564-2.563-2.564z"/><path d="m97.689 223.59c-4.171 0-7.564-3.393-7.564-7.564s3.394-7.564 7.564-7.564 7.563 3.393 7.563 7.564-3.392 7.564-7.563 7.564zm0-10.128c-1.414 0-2.564 1.15-2.564 2.564s1.15 2.564 2.564 2.564c1.413 0 2.563-1.15 2.563-2.564s-1.15-2.564-2.563-2.564z"/><path d="m185.295 198.271c-5.009 0-9.083-4.075-9.083-9.083s4.074-9.083 9.083-9.083 9.083 4.075 9.083 9.083-4.074 9.083-9.083 9.083zm0-13.167c-2.251 0-4.083 1.832-4.083 4.083s1.832 4.083 4.083 4.083 4.083-1.832 4.083-4.083-1.832-4.083-4.083-4.083z"/><path d="m180.231 142.567c-5.009 0-9.083-4.075-9.083-9.083s4.074-9.083 9.083-9.083 9.084 4.075 9.084 9.083-4.075 9.083-9.084 9.083zm0-13.167c-2.251 0-4.083 1.832-4.083 4.083s1.832 4.083 4.083 4.083c2.252 0 4.084-1.832 4.084-4.083s-1.832-4.083-4.084-4.083z"/><path d="m193.398 165.861c-6.685 0-12.122-5.438-12.122-12.122s5.438-12.122 12.122-12.122c.114 0 .228.006.34.014 1.152.036 2.15.856 2.39 1.983.387 1.832.694 3.66.913 5.433.576 4.662.935 9.365 1.065 13.978.033 1.187-.771 2.233-1.928 2.504-.934.221-1.87.332-2.78.332zm-1.742-19.029c-3.083.775-5.38 3.578-5.38 6.908 0 3.801 2.993 6.916 6.747 7.112-.167-3.708-.484-7.462-.945-11.19-.115-.93-.255-1.876-.422-2.83z"/><path d="m185.804 177c-.16 0-.33-.02-.49-.05s-.32-.08-.47-.14-.29-.14-.431-.23c-.14-.09-.26-.2-.38-.31-.12-.12-.22-.24-.31-.38s-.17-.28-.23-.43-.109-.31-.14-.47c-.04-.16-.05-.32-.05-.49 0-.16.01-.33.05-.49.03-.16.08-.31.14-.46.061-.16.141-.3.23-.44.09-.13.189-.26.31-.38.12-.11.24-.22.38-.31.141-.09.28-.16.431-.23.149-.06.31-.11.47-.14.32-.06.65-.06.979 0 .16.03.311.08.461.14.149.07.3.14.43.23.14.09.27.2.38.31.12.12.22.25.32.38.09.14.159.28.229.44.061.15.11.3.141.46.029.16.05.33.05.49 0 .17-.021.33-.05.49-.03.16-.08.32-.141.47-.07.15-.14.29-.229.43-.101.14-.2.26-.32.38-.11.11-.24.22-.38.31-.13.09-.28.17-.43.23s-.301.11-.461.14c-.159.03-.329.05-.489.05z"/><path d="m93.637 174.976c-4.171 0-7.563-3.393-7.563-7.564s3.393-7.564 7.563-7.564 7.564 3.393 7.564 7.564-3.393 7.564-7.564 7.564zm0-10.128c-1.413 0-2.563 1.15-2.563 2.564s1.15 2.564 2.563 2.564c1.414 0 2.564-1.15 2.564-2.564s-1.15-2.564-2.564-2.564z"/><path d="m81.991 198.271c-5.009 0-9.083-4.075-9.083-9.083s4.074-9.083 9.083-9.083 9.083 4.075 9.083 9.083-4.074 9.083-9.083 9.083zm0-13.167c-2.251 0-4.083 1.832-4.083 4.083s1.832 4.083 4.083 4.083 4.083-1.832 4.083-4.083-1.832-4.083-4.083-4.083z"/><path d="m66.47 133.244c-.064 0-.13-.002-.195-.008-4.692-.368-8.367-4.343-8.367-9.049 0-5.008 4.074-9.083 9.083-9.083 2.948 0 5.725 1.444 7.427 3.862.457.648.579 1.476.328 2.229-1.27 3.815-3.404 7.562-6.345 11.137-.477.58-1.187.912-1.931.912zm.521-13.14c-2.251 0-4.083 1.832-4.083 4.083 0 1.694 1.061 3.178 2.566 3.785 1.735-2.291 3.085-4.635 4.029-6.997-.71-.557-1.593-.871-2.512-.871z"/><path d="m217.705 181.053c-5.009 0-9.083-4.075-9.083-9.083s4.074-9.083 9.083-9.083c.359 0 .737.026 1.154.079.757.097 1.428.534 1.823 1.187 2.103 3.478 3.342 7.765 3.683 12.743.056.808-.284 1.593-.911 2.105-1.617 1.323-3.659 2.052-5.749 2.052zm-.642-13.116c-1.948.309-3.441 2-3.441 4.033 0 2.251 1.832 4.083 4.083 4.083.537 0 1.056-.101 1.537-.298-.339-2.98-1.07-5.599-2.179-7.818z"/><path d="m206.564 195.232c-4.171 0-7.563-3.393-7.563-7.564s3.393-7.564 7.563-7.564 7.564 3.393 7.564 7.564-3.393 7.564-7.564 7.564zm0-10.128c-1.413 0-2.563 1.15-2.563 2.564s1.15 2.564 2.563 2.564c1.414 0 2.564-1.15 2.564-2.564s-1.15-2.564-2.564-2.564z"/><path d="m212.962 217.667c-.372 0-.744-.083-1.086-.248-3.823-1.844-6.293-5.77-6.293-10.001 0-6.125 4.983-11.109 11.108-11.109.921 0 1.863.124 2.8.367.65.169 1.205.593 1.539 1.176s.42 1.276.236 1.923c-.831 2.941-1.751 5.818-2.812 8.796-.017.045-.033.089-.052.133l-3.138 7.435c-.267.631-.78 1.125-1.421 1.367-.283.107-.582.161-.881.161zm2.608-16.255c-2.834.528-4.986 3.02-4.986 6.005 0 1.42.48 2.749 1.329 3.807l1.856-4.397c.651-1.831 1.247-3.622 1.801-5.415z"/><path d="m49.075 181.053c-2.012 0-3.923-.651-5.527-1.883-.661-.508-1.025-1.312-.972-2.145.329-5.048 1.576-9.389 3.707-12.902.409-.673 1.111-1.115 1.896-1.191.296-.029.594-.044.896-.044 5.009 0 9.083 4.075 9.083 9.083s-4.074 9.082-9.083 9.082zm-1.374-5.24c.438.158.899.239 1.374.239 2.251 0 4.083-1.832 4.083-4.083 0-1.979-1.415-3.634-3.287-4.005-1.109 2.228-1.835 4.857-2.17 7.849z"/><path d="m60.215 195.232c-4.171 0-7.563-3.393-7.563-7.564s3.393-7.564 7.563-7.564 7.564 3.393 7.564 7.564-3.393 7.564-7.564 7.564zm0-10.128c-1.413 0-2.563 1.15-2.563 2.564s1.15 2.564 2.563 2.564c1.414 0 2.564-1.15 2.564-2.564s-1.15-2.564-2.564-2.564z"/><path d="m53.958 217.6c-.291 0-.583-.051-.861-.153-.65-.239-1.173-.736-1.442-1.375l-3.109-7.367c-.018-.044-.035-.088-.051-.133-1.065-2.99-1.989-5.88-2.824-8.838-.185-.655-.095-1.357.25-1.944.344-.587.912-1.008 1.574-1.167.872-.209 1.745-.315 2.594-.315 6.126 0 11.109 4.983 11.109 11.109 0 4.211-2.342 8.01-6.112 9.914-.355.179-.741.269-1.128.269zm-.779-10.773 1.796 4.255c.781-1.036 1.222-2.312 1.222-3.664 0-2.922-2.062-5.371-4.807-5.969.551 1.781 1.143 3.56 1.789 5.378z"/><path d="m87.054 142.567c-5.009 0-9.083-4.075-9.083-9.083s4.074-9.083 9.083-9.083 9.083 4.075 9.083 9.083-4.074 9.083-9.083 9.083zm0-13.167c-2.251 0-4.083 1.832-4.083 4.083s1.832 4.083 4.083 4.083 4.083-1.832 4.083-4.083-1.832-4.083-4.083-4.083z"/><path d="m73.888 165.861c-1.061 0-2.139-.148-3.203-.439-1.112-.304-1.872-1.331-1.839-2.483.133-4.59.49-9.263 1.062-13.889.219-1.771.523-3.593.908-5.416.231-1.098 1.167-1.908 2.287-1.979l.124-.008c.219-.015.438-.028.66-.028 6.684 0 12.121 5.438 12.121 12.122s-5.436 12.12-12.12 12.12zm1.417-19.102c-.171.979-.316 1.949-.434 2.902-.461 3.727-.778 7.484-.945 11.199 3.909-.021 7.083-3.208 7.083-7.122 0-3.441-2.454-6.32-5.704-6.979z"/><path d="m81.484 177c-.66 0-1.3-.26-1.77-.73-.46-.47-.73-1.11-.73-1.77s.271-1.3.73-1.77c.119-.11.239-.22.38-.31.14-.09.279-.16.43-.23.15-.06.31-.11.47-.14.811-.16 1.681.1 2.261.68.109.12.22.25.31.38.09.14.17.28.229.43.061.16.11.31.141.47.03.16.05.33.05.49s-.02.33-.05.49-.08.32-.141.47c-.06.15-.14.29-.229.43-.09.14-.2.26-.31.38-.471.47-1.111.73-1.771.73z"/><path d="m177.7 64.582c-3.612 0-6.552-2.938-6.552-6.551s2.939-6.551 6.552-6.551 6.551 2.939 6.551 6.551-2.939 6.551-6.551 6.551zm0-8.103c-.855 0-1.552.696-1.552 1.551s.696 1.551 1.552 1.551 1.551-.696 1.551-1.551-.696-1.551-1.551-1.551z"/><path d="m78.637 96.485c-1.287 0-2.56-.237-3.782-.705-.735-.281-1.295-.893-1.511-1.65-.98-3.443-1.478-6.987-1.478-10.534 0-1.699.116-3.422.345-5.119.104-.779.57-1.464 1.257-1.848 1.577-.882 3.364-1.348 5.169-1.348 5.847 0 10.603 4.756 10.603 10.603s-4.756 10.601-10.603 10.601zm-.837-5.065c.278.043.558.065.837.065 3.089 0 5.603-2.513 5.603-5.603s-2.514-5.603-5.603-5.603c-.56 0-1.104.081-1.627.241-.096 1.026-.144 2.055-.144 3.075.001 2.626.314 5.252.934 7.825z"/><path d="m113.072 46.352c-4.171 0-7.563-3.393-7.563-7.564s3.393-7.564 7.563-7.564 7.564 3.393 7.564 7.564-3.393 7.564-7.564 7.564zm0-10.128c-1.413 0-2.563 1.15-2.563 2.564s1.15 2.564 2.563 2.564c1.414 0 2.564-1.15 2.564-2.564s-1.15-2.564-2.564-2.564z"/><path d="m115.098 23.057c-5.009 0-9.084-4.075-9.084-9.083 0-.065.007-.207.012-.271.019-.913.53-1.666 1.34-2.088 3.751-1.957 7.747-3.497 11.877-4.579.883-.231 1.822.037 2.45.701 1.604 1.697 2.488 3.912 2.488 6.237 0 5.008-4.074 9.083-9.083 9.083zm-3.872-7.783c.544 1.616 2.074 2.783 3.872 2.783 2.251 0 4.083-1.832 4.083-4.083 0-.568-.118-1.123-.344-1.633-2.617.779-5.166 1.761-7.611 2.933z"/><path d="m93.323 40.275c-3.36 0-6.504-1.5-8.626-4.113-.659-.812-.743-1.949-.21-2.849 3.007-5.079 6.777-9.659 11.206-13.614.781-.697 1.915-.835 2.839-.342 3.639 1.936 5.899 5.694 5.899 9.81 0 6.125-4.983 11.108-11.108 11.108zm-3.493-6.099c1.014.709 2.226 1.099 3.493 1.099 3.368 0 6.108-2.74 6.108-6.109 0-1.681-.688-3.255-1.862-4.39-2.944 2.833-5.538 5.983-7.739 9.4z"/><path d="m100.914 50.4c-.159 0-.319-.01-.489-.05-.15-.03-.311-.08-.46-.14-.15-.06-.301-.14-.431-.23-.14-.09-.27-.19-.38-.31-.12-.11-.22-.24-.31-.38-.09-.13-.17-.28-.23-.43-.07-.15-.12-.31-.149-.47-.03-.16-.051-.32-.051-.49 0-.16.021-.32.051-.49.029-.16.079-.31.149-.46.061-.15.141-.3.23-.44.09-.13.189-.26.31-.38.11-.11.24-.22.38-.31.13-.09.28-.16.431-.23.149-.06.31-.11.46-.14.819-.16 1.68.1 2.26.68.12.12.22.25.31.38.09.14.17.29.23.44s.109.3.149.46c.03.17.04.33.04.49 0 .17-.01.33-.04.49-.04.16-.09.32-.149.47-.061.15-.141.3-.23.43-.09.14-.189.27-.31.38-.461.47-1.111.73-1.771.73z"/><path d="m89.778 64.582c-3.612 0-6.551-2.938-6.551-6.551s2.938-6.551 6.551-6.551 6.551 2.939 6.551 6.551-2.939 6.551-6.551 6.551zm0-8.103c-.855 0-1.551.696-1.551 1.551s.695 1.551 1.551 1.551 1.551-.696 1.551-1.551-.696-1.551-1.551-1.551z"/><path d="m184.664 44.924c-1.017 0-1.945-.62-2.325-1.584-2.854-7.249-7.391-13.893-13.119-19.215-.934-.867-1.065-2.298-.307-3.321 3.123-4.208 8.1-6.72 13.313-6.72 9.144 0 16.583 7.439 16.583 16.583 0 3.625-1.163 7.079-3.362 9.987-.165.219-.365.409-.592.562-2.928 1.983-6.347 3.258-9.889 3.689-.101.013-.203.019-.302.019zm-10.288-22.761c4.967 5.03 9.011 10.995 11.831 17.455 1.953-.453 3.82-1.236 5.493-2.31 1.382-1.961 2.109-4.249 2.109-6.64 0-6.387-5.196-11.583-11.583-11.583-2.962-.001-5.727 1.102-7.85 3.078zm19.077 16.984h.01z"/><path d="m82.792 44.982c-.079 0-.159-.004-.239-.011-3.745-.359-7.361-1.657-10.458-3.754-.228-.153-.428-.343-.593-.562-2.199-2.908-3.362-6.362-3.362-9.987 0-9.144 7.439-16.583 16.584-16.583 5.385 0 10.455 2.639 13.563 7.059.715 1.016.574 2.403-.329 3.256-5.595 5.28-10.034 11.848-12.84 18.996-.378.963-1.307 1.586-2.326 1.586zm-7.543-7.674c1.816 1.167 3.851 1.987 5.977 2.417 2.774-6.392 6.744-12.307 11.615-17.305-2.149-2.117-5.062-3.336-8.118-3.336-6.388 0-11.584 5.196-11.584 11.583 0 2.393.728 4.68 2.11 6.641z"/><path d="m181.876 256h-26.778c-4.202 0-7.694-3.05-8.124-7.095-.01-.095-.015-.19-.014-.286.026-3 .986-6.16 1.877-8.117.997-2.192 1.541-4.251 1.714-6.482.073-.961.694-1.794 1.594-2.141 6.592-2.538 11.313-.805 14.758.459 2.498.917 3.863 1.364 5.203.694 2.091-1.046 4.13-1.586 6.061-1.608.647-.015 1.305.25 1.778.715.474.465.743 1.1.749 1.764.012 1.463.72 2.85 1.941 3.805 2.359 1.845 4.328 3.776 5.854 5.741h.001c1.819 2.345 2.127 5.333.823 7.995-1.377 2.81-4.226 4.556-7.437 4.556zm-29.914-7.496c.22 1.431 1.544 2.495 3.135 2.495h26.778c1.539 0 2.531-.906 2.946-1.753.266-.542.581-1.616-.284-2.73-1.272-1.64-2.949-3.277-4.982-4.867-1.643-1.283-2.818-2.982-3.415-4.875-.578.177-1.179.421-1.799.731-3.333 1.667-6.296.579-9.162-.472-2.831-1.039-5.752-2.111-9.833-.957-.33 2.197-.977 4.336-1.959 6.496-.679 1.495-1.374 3.888-1.425 5.932z"/><path d="m111.851 256h-26.778c-3.211 0-6.061-1.745-7.437-4.554-1.304-2.661-.996-5.65.823-7.995 1.528-1.968 3.498-3.899 5.854-5.741 1.222-.955 1.93-2.342 1.941-3.806.006-.669.279-1.308.759-1.774s1.142-.721 1.796-.706c1.894.042 3.895.583 5.945 1.609 1.341.67 2.706.222 5.204-.694 3.467-1.272 8.214-3.015 14.86-.419.894.349 1.509 1.178 1.583 2.135.173 2.216.716 4.265 1.709 6.447.891 1.956 1.851 5.118 1.877 8.125.001.096-.004.193-.015.289-.432 4.038-3.925 7.084-8.121 7.084zm-21.051-19.202c-.599 1.883-1.771 3.574-3.408 4.852-2.031 1.587-3.708 3.225-4.982 4.867-.864 1.114-.549 2.188-.283 2.729.415.848 1.407 1.753 2.946 1.753h26.778c1.589 0 2.913-1.062 3.135-2.49-.053-2.184-.794-4.55-1.425-5.938-.979-2.152-1.624-4.283-1.954-6.47-4.131-1.198-7.072-.117-9.925.931-2.865 1.052-5.826 2.14-9.163.472-.592-.295-1.166-.531-1.719-.706z"/><path d="m221.35 256h-37.796c-.665 0-1.303-.265-1.772-.737l-.189-.19c-.634-.637-.877-1.565-.637-2.431s.927-1.536 1.798-1.756c1.029-.26 1.874-1.016 2.203-1.972.202-.587.294-1.479-.418-2.397-1.274-1.642-2.951-3.279-4.982-4.867-2.936-2.293-4.356-5.926-3.709-9.482.174-.953.883-1.72 1.819-1.968 2.246-.595 6.653-.958 10.916 3.302 3.467 3.467 9.217 3.919 15.008 1.181.896-.422 1.938-.273 2.674.344 4.269.108 11.559 1.087 15.504 6.134 2.574 3.292 3.253 7.636 2.016 12.911-.266 1.128-1.274 1.928-2.435 1.928zm-31.839-5h29.756c.352-2.818-.13-5.087-1.438-6.76-2.896-3.704-9.389-4.187-12.047-4.222-.464-.006-.916-.093-1.34-.251-7.252 2.939-14.745 1.922-19.396-2.729-1.346-1.345-2.768-2.076-4.246-2.186.24 1.095.877 2.112 1.833 2.858 2.356 1.842 4.326 3.773 5.854 5.741 1.603 2.064 2.038 4.649 1.196 7.092-.053.154-.11.307-.172.457zm16.338-15.982h.003c-.001 0-.002 0-.003 0z"/><path d="m83.394 256h-37.796c-1.161 0-2.169-.799-2.434-1.929-1.237-5.274-.559-9.618 2.016-12.911 3.976-5.084 11.345-6.04 15.599-6.136.696-.426 1.564-.489 2.324-.151 5.638 2.514 11.227 1.989 14.588-1.371 4.86-4.86 9.91-3.725 11.855-3.011.858.315 1.477 1.074 1.611 1.979.513 3.447-.93 6.965-3.766 9.18-2.031 1.588-3.708 3.225-4.982 4.867-.712.917-.62 1.81-.418 2.397.329.956 1.174 1.712 2.203 1.972.871.22 1.558.89 1.798 1.756s-.003 1.794-.637 2.431l-.189.19c-.469.471-1.107.737-1.772.737zm-35.713-5h29.756c-.062-.15-.119-.302-.173-.457-.842-2.443-.406-5.028 1.196-7.092 1.527-1.968 3.497-3.899 5.854-5.741.972-.759 1.611-1.772 1.847-2.871-1.412-.069-3.138.401-4.935 2.198-4.631 4.631-11.866 5.685-19.093 2.85-.312.083-.637.127-.968.131-2.657.035-9.149.517-12.047 4.222-1.307 1.673-1.788 3.941-1.437 6.76z"/></svg>