<svg enable-background="new 0 0 256 256" height="512" viewBox="0 0 256 256" width="512" xmlns="http://www.w3.org/2000/svg"><g fill="#d9f3ff"><path d="m75.921 92.53c-.24-.191-.53-.293-.831-.309 1.786 9.924 2.983 29.65-9.656 48.812-2.036 3.087-3.611 6.102-4.791 9.058l.754-1.561c17.665-17.665 22.54-39.664 23.829-52.402-3.559-.361-6.9-1.68-9.305-3.598z"/><path d="m113.1 97.272c1.12 10.738.386 27.454-10.37 43.761-2.036 3.087-3.61 6.102-4.791 9.058l.754-1.56c18.151-18.151 22.802-40.886 23.931-53.44-2.931 1.43-6.243 2.122-9.524 2.181z"/><path d="m158.553 92.923c-.547-.418-1.304-.408-1.825.042-1.694 1.466-3.934 2.585-6.44 3.321 1.266 10.682.829 27.933-10.261 44.747-2.036 3.087-3.61 6.102-4.791 9.058l.754-1.56c18.745-18.745 23.089-42.368 24.028-54.628-.501-.298-.993-.618-1.465-.98z"/><path d="m187.009 92.385c1.77 9.976 2.885 29.59-9.685 48.648-2.036 3.087-3.61 6.102-4.791 9.058l.754-1.56c23.787-23.787 24.392-55.435 24.262-61.731-2.771 3.057-6.358 5.041-10.54 5.585z"/></g><path d="m101.494 141.722c.03.347.102.679.173 1.011.345-.565.688-1.13 1.064-1.699 10.759-16.311 11.49-33.031 10.369-43.769-1.448.029-2.889-.051-4.286-.261-.771 1.397-1.153 3.028-1.008 4.738.127 1.495.645 2.86 1.438 4.014-3.558 1.202-5.979 4.702-5.647 8.612.218 2.568 1.577 4.763 3.535 6.134-2.354 1.652-3.796 4.471-3.535 7.543.184 2.163 1.183 4.056 2.661 5.421-3.066 1.445-5.069 4.679-4.764 8.256z" fill="#46baf9"/><path d="m134.943 203.22c-3.841-.859-6.555-4.436-6.213-8.467.065-.767.242-1.496.504-2.18-2.919-1.39-4.821-4.475-4.531-7.887.209-2.46 1.512-4.562 3.388-5.874-1.01-1.47-1.538-3.284-1.375-5.2.153-1.804.901-3.41 2.025-4.659-3.755-.922-6.39-4.454-6.052-8.428.25-2.942 2.067-5.369 4.557-6.546-1.746-1.616-2.761-3.987-2.544-6.541.238-2.799 1.894-5.133 4.198-6.368-2.731-1.46-4.477-4.445-4.198-7.726.147-1.726.837-3.272 1.881-4.497-4.207-.556-7.278-4.318-6.915-8.59.238-2.799 1.894-5.133 4.198-6.368-1.705-.912-3.025-2.418-3.709-4.219-2.985 11.963-9.084 26.479-21.466 38.861l-.754 1.56c.692-1.734 1.539-3.49 2.516-5.267-3.353 1.313-5.595 4.7-5.274 8.471.113 1.325.537 2.546 1.182 3.612-4.535.451-7.882 4.458-7.495 9.014.311 3.661 2.942 6.562 6.321 7.397-1.485 1.655-2.316 3.891-2.113 6.281.391 4.597 4.434 8.006 9.031 7.616.006-.001.012-.002.019-.003-.513 1.211-.751 2.559-.632 3.96.321 3.771 3.1 6.738 6.625 7.469-.282.964-.403 1.992-.312 3.052.367 4.319 3.96 7.589 8.205 7.644-1.348 1.627-2.086 3.762-1.893 6.034.391 4.597 4.434 8.006 9.031 7.616 4.597-.391 8.006-4.434 7.616-9.031-.068-.801-.253-1.563-.527-2.279 3.05-1.453 5.039-4.677 4.736-8.243-.005-.072-.022-.142-.03-.214z" fill="#46baf9"/><path d="m161.648 140.167c.618-1.019 1.023-2.188 1.131-3.456.357-4.193-2.595-7.898-6.682-8.558.339-.779.566-1.622.642-2.515.206-2.416-.704-4.654-2.279-6.257-3.565 9.617-9.289 19.97-18.469 29.15l-.754 1.56c1.181-2.956 2.755-5.971 4.791-9.058 11.093-16.818 11.527-34.075 10.26-44.756-6.886 2.029-15.827 1.086-21.344-4.138-.558-.528-1.424-.528-1.982 0-1.189 1.126-2.545 2.031-3.991 2.773.47 1.659 1.459 3.116 2.805 4.157-1.524.364-2.878 1.18-3.933 2.292-.405 2.57-.947 5.357-1.684 8.309.684 1.801 2.005 3.307 3.709 4.219-2.304 1.235-3.96 3.569-4.198 6.368-.363 4.272 2.708 8.034 6.915 8.59-1.044 1.225-1.734 2.771-1.881 4.497-.279 3.281 1.467 6.266 4.198 7.726-2.304 1.235-3.96 3.569-4.198 6.368-.217 2.555.798 4.925 2.544 6.541-2.49 1.177-4.307 3.604-4.557 6.546-.338 3.974 2.297 7.506 6.052 8.428-1.124 1.249-1.872 2.855-2.025 4.659-.163 1.915.365 3.73 1.375 5.2-1.876 1.312-3.179 3.415-3.388 5.874-.29 3.412 1.613 6.496 4.531 7.887-.262.684-.439 1.414-.504 2.18-.374 4.398 2.889 8.267 7.287 8.641s8.267-2.888 8.641-7.287c.185-2.174-.521-4.216-1.811-5.773 4.063-.053 7.5-3.181 7.851-7.314.086-1.015-.029-1.998-.299-2.921 3.373-.699 6.033-3.539 6.339-7.146.114-1.341-.114-2.631-.605-3.79.006.001.012.002.018.002 4.398.374 8.267-2.888 8.641-7.287.194-2.287-.601-4.426-2.021-6.01 3.233-.799 5.751-3.574 6.048-7.077.369-4.358-2.834-8.192-7.173-8.624z" fill="#8cd8f9"/><path d="m100.455 144.824c.381-.694.783-1.39 1.211-2.091-.071-.332-.143-.664-.173-1.011-.304-3.577 1.698-6.81 4.766-8.257-1.478-1.365-2.477-3.258-2.661-5.421-.261-3.072 1.181-5.891 3.535-7.543-1.957-1.371-3.316-3.567-3.535-6.134-.332-3.909 2.089-7.41 5.647-8.612-.793-1.154-1.311-2.519-1.438-4.014-.145-1.709.236-3.341 1.008-4.738-3.796-.572-7.258-1.979-9.637-4.038-.122-.106-.259-.182-.401-.24-.141-.054-.289-.085-.438-.095-.344-.023-.694.069-.986.292-1.797 1.375-3.794 2.27-5.852 2.783.492.452 1.032.856 1.628 1.175-2.304 1.235-3.96 3.569-4.198 6.368-.217 2.555.798 4.925 2.544 6.541-2.49 1.177-4.307 3.604-4.557 6.546-.338 3.974 2.297 7.506 6.052 8.428-1.124 1.249-1.872 2.855-2.025 4.659-.163 1.915.365 3.73 1.375 5.2-1.876 1.312-3.179 3.415-3.388 5.874-.29 3.412 1.613 6.496 4.531 7.887-.262.684-.439 1.414-.504 2.18-.215 2.527.775 4.875 2.486 6.49.3-.064.606-.116.918-.147-.645-1.065-1.069-2.286-1.182-3.612-.321-3.77 1.922-7.157 5.274-8.47z" fill="#1aa7e5"/><path d="m143.573 5.119c-10.132-3.491-21.109-3.491-31.241 0-76.276 26.282-69.3 92.577-37.579 87.12.414-.071.839.028 1.167.291 5.185 4.135 14.7 5.545 21.431.393.547-.418 1.304-.408 1.825.042 6.3 5.453 20.199 6.358 27.785-.826.558-.528 1.424-.528 1.982 0 7.521 7.123 21.435 6.32 27.785.826.52-.45 1.278-.461 1.825-.042 6.629 5.073 16.246 3.742 21.431-.393.329-.262.753-.362 1.167-.291 30.993 5.331 39.971-60.399-37.578-87.12z" fill="#ace7fc"/><path d="m112.645 99.747c-5.497 0-10.845-1.583-14.441-4.351-7.45 5.174-17.547 3.823-23.466-.621-11.448 1.757-20.823-4.917-23.954-17.123-3.009-11.728.432-26.331 9.201-39.064 7.446-10.812 22.432-25.805 51.533-35.833 10.599-3.652 22.271-3.651 32.87 0 53.883 18.566 65.891 54.743 60.815 74.529-3.187 12.424-12.585 19.254-24.036 17.491-5.917 4.445-16.014 5.797-23.465.622-7.193 5.53-21.375 6.334-29.75-.788-4.184 3.558-9.819 5.138-15.307 5.138zm45.722-4.893c-.001 0-.002.001-.003.002.001-.001.002-.002.003-.002zm-60.125-4.73c.922 0 1.84.319 2.571.952 5.559 4.811 17.925 5.41 24.43-.751 1.521-1.439 3.901-1.438 5.42 0 6.505 6.16 18.87 5.561 24.43.75 1.399-1.214 3.495-1.272 4.979-.137 5.642 4.317 13.919 3.173 18.353-.362.882-.702 2.034-.99 3.15-.8 9.013 1.551 16.214-3.711 18.785-13.734 4.614-17.99-6.918-51.095-57.602-68.559-9.548-3.29-20.064-3.29-29.612 0-50.335 17.344-61.995 51.482-57.52 68.927 2.513 9.797 9.688 14.917 18.704 13.366 1.122-.191 2.271.099 3.148.799 4.435 3.537 12.713 4.681 18.354.363.711-.544 1.562-.814 2.41-.814z"/><path d="m112.645 99.747c-5.496 0-10.845-1.584-14.441-4.351-7.459 5.181-17.569 3.82-23.486-.637-.748.043-1.452-.295-1.959-.896-1.725-2.045-3.179-4.679-4.321-7.829-1.927-5.312-2.671-11.528-2.154-17.977.111-1.376 1.312-2.397 2.692-2.292 1.376.11 2.402 1.316 2.292 2.692-.461 5.741.187 11.229 1.87 15.873.788 2.172 1.729 4.015 2.804 5.493.551.134 1.081.388 1.538.753 4.435 3.537 12.713 4.681 18.354.363 1.481-1.135 3.575-1.078 4.98.138 5.559 4.811 17.925 5.41 24.43-.751 1.521-1.439 3.901-1.438 5.42 0 6.505 6.16 18.87 5.561 24.43.75 1.399-1.214 3.495-1.272 4.979-.137 5.642 4.318 13.919 3.174 18.353-.362.453-.361.979-.614 1.533-.748 1.077-1.476 2.02-3.321 2.81-5.499 1.685-4.643 2.331-10.131 1.87-15.872-.11-1.376.916-2.582 2.292-2.692 1.377-.104 2.581.916 2.692 2.292.518 6.449-.227 12.666-2.153 17.977-1.145 3.154-2.601 5.789-4.326 7.831-.486.576-1.167.888-1.943.886-5.911 4.463-16.033 5.831-23.497.646-7.193 5.53-21.375 6.334-29.75-.788-4.186 3.557-9.821 5.137-15.309 5.137zm45.722-4.893c-.001 0-.002.001-.003.002.001-.001.002-.002.003-.002zm22.388-.146c.012.002.023.004.035.005-.014-.002-.026-.004-.035-.005z"/><path d="m128.236 94.297c-1.381 0-2.5-1.119-2.5-2.5v-7.297c0-1.381 1.119-2.5 2.5-2.5s2.5 1.119 2.5 2.5v7.297c0 1.381-1.119 2.5-2.5 2.5z"/><path d="m128.241 63.84c-3.572 0-6.993-1.524-9.384-4.182-.924-1.026-.84-2.607.187-3.53 1.025-.924 2.607-.84 3.53.187 1.444 1.605 3.51 2.526 5.667 2.526s4.222-.92 5.665-2.525c.924-1.027 2.505-1.111 3.531-.188s1.11 2.504.188 3.53c-2.391 2.657-5.811 4.182-9.384 4.182z"/><path d="m139.297 42.779c-1.377 0-2.495-1.114-2.5-2.492-.007-2.073.794-4.024 2.255-5.495 1.461-1.47 3.407-2.284 5.48-2.291h.025c4.268 0 7.746 3.465 7.761 7.735.005 1.38-1.111 2.503-2.491 2.508-1.373.02-2.505-1.111-2.509-2.492-.005-1.519-1.243-2.752-2.762-2.752-.003 0-.006 0-.009 0-.737.002-1.43.292-1.949.815-.52.523-.805 1.217-.802 1.954.005 1.38-1.111 2.503-2.491 2.508-.002.002-.005.002-.008.002z"/><path d="m117.193 42.763c-1.381 0-2.5-1.119-2.5-2.5 0-1.522-1.238-2.761-2.761-2.761s-2.761 1.238-2.761 2.761c0 1.381-1.119 2.5-2.5 2.5s-2.5-1.119-2.5-2.5c0-4.279 3.481-7.761 7.761-7.761s7.761 3.481 7.761 7.761c0 1.381-1.119 2.5-2.5 2.5z"/><path d="m101.668 145.205c-.134 0-.27-.011-.404-.034-1.008-.171-1.827-.913-2.042-1.913-.082-.383-.175-.816-.219-1.319 0-.002-.001-.004-.001-.006-.292-3.445 1.103-6.785 3.611-9.022-.846-1.406-1.365-2.994-1.507-4.655-.239-2.818.649-5.596 2.394-7.75-1.362-1.672-2.206-3.728-2.394-5.927-.342-4.021 1.554-7.792 4.788-9.943-.306-.864-.501-1.766-.579-2.684-.183-2.144.271-4.273 1.309-6.157.506-.916 1.539-1.416 2.562-1.265 1.209.183 2.517.262 3.865.234 1.312-.042 2.4.948 2.535 2.24 1.196 11.453.298 28.627-10.769 45.405-.348.527-.666 1.049-.984 1.571-.461.757-1.295 1.225-2.165 1.225zm6.848-22.621c-1.671 1.201-2.601 3.206-2.427 5.248.033.388.104.768.212 1.136.881-2.15 1.613-4.283 2.215-6.384zm2.409-14.979c-.251.229-.55.406-.88.518-2.558.864-4.185 3.344-3.956 6.032.147 1.731 1.051 3.298 2.478 4.298.335.234.602.542.784.895.946-4.119 1.417-8.076 1.574-11.743zm-.494-7.91c-.141.596-.186 1.214-.133 1.834.068.812.299 1.579.684 2.285-.018-1.424-.08-2.791-.175-4.094-.126-.008-.251-.016-.376-.025z"/><path d="m122.424 225.518c-2.555 0-5.003-.891-6.979-2.557-2.216-1.869-3.571-4.489-3.817-7.377-.131-1.538.063-3.056.557-4.476-3.763-1.455-6.507-4.946-6.869-9.202-.045-.527-.051-1.054-.018-1.58-3.484-1.609-5.961-5.017-6.296-8.941-.054-.634-.051-1.272.008-1.905-4.49-1.016-8.015-4.843-8.425-9.668-.156-1.842.171-3.689.92-5.357-2.881-1.77-4.831-4.827-5.128-8.321-.405-4.765 2.394-9.123 6.598-10.911-.141-.56-.235-1.132-.285-1.715-.402-4.744 2.416-9.271 6.854-11.01.468-.184.967-.217 1.434-.118 7.925-9.291 13.552-20.47 16.757-33.314.265-1.06 1.188-1.826 2.278-1.89 1.085-.07 2.097.586 2.484 1.608.473 1.244 1.378 2.274 2.552 2.901.812.435 1.32 1.282 1.32 2.204s-.507 1.769-1.319 2.205c-1.65.884-2.729 2.52-2.888 4.376-.249 2.923 1.838 5.515 4.751 5.899.908.12 1.678.727 2.007 1.582.328.855.163 1.821-.431 2.519-.749.879-1.196 1.946-1.293 3.087-.187 2.189.946 4.273 2.885 5.311.813.435 1.321 1.282 1.321 2.204s-.507 1.769-1.319 2.205c-1.65.884-2.729 2.52-2.887 4.375-.145 1.694.493 3.332 1.75 4.495.61.564.899 1.394.773 2.215s-.651 1.525-1.402 1.88c-1.769.836-2.971 2.56-3.135 4.498-.23 2.706 1.518 5.141 4.156 5.789.854.209 1.535.852 1.794 1.692s.057 1.754-.531 2.408c-.81.9-1.291 2.006-1.393 3.199-.108 1.279.218 2.515.944 3.572.777 1.131.497 2.678-.628 3.464-1.342.938-2.191 2.41-2.329 4.037-.192 2.261 1.06 4.439 3.114 5.418 1.177.561 1.726 1.932 1.26 3.149-.188.492-.305.997-.348 1.5-.231 2.719 1.604 5.219 4.268 5.815 1.029.23 1.803 1.082 1.935 2.126.02.118.033.222.042.328.318 3.747-1.374 7.382-4.327 9.596.053.304.092.608.118.914.507 5.963-3.933 11.227-9.896 11.734-.313.023-.626.037-.937.037zm-20.298-40.807c.804 0 1.562.387 2.034 1.046.506.708.607 1.628.268 2.43-.376.885-.524 1.818-.443 2.772.218 2.56 2.127 4.712 4.643 5.233.684.142 1.277.563 1.636 1.162s.452 1.321.255 1.991c-.207.704-.281 1.422-.22 2.134.256 3.016 2.727 5.318 5.746 5.357.963.013 1.833.577 2.237 1.451.403.874.27 1.902-.345 2.644-.985 1.191-1.457 2.692-1.326 4.227.132 1.558.863 2.971 2.059 3.979 1.194 1.007 2.703 1.492 4.269 1.357 3.216-.273 5.61-3.112 5.337-6.328-.045-.535-.171-1.072-.371-1.598-.466-1.218.083-2.589 1.26-3.149 1.771-.844 2.982-2.523 3.272-4.409-4.002-1.783-6.579-5.969-6.196-10.47.023-.273.058-.546.104-.818-2.823-2.145-4.437-5.64-4.13-9.249.2-2.353 1.177-4.535 2.75-6.233-.619-1.523-.877-3.185-.737-4.84.099-1.159.383-2.274.841-3.315-3.261-2.032-5.21-5.745-4.867-9.773.227-2.668 1.479-5.124 3.422-6.884-1.094-1.849-1.596-4-1.408-6.203.198-2.331 1.154-4.479 2.681-6.157-1.924-2.121-2.933-4.979-2.681-7.937.084-.988.305-1.946.652-2.855-2.354-1.196-4.164-3.241-5.074-5.695-4.14 9.636-9.837 18.147-17.029 25.416l-.571 1.182c-.475.981-1.509 1.52-2.539 1.396-.001.169.006.339.021.509.075.895.354 1.745.828 2.527.445.734.482 1.645.099 2.413-.384.768-1.135 1.285-1.988 1.37-3.165.315-5.521 3.148-5.251 6.314.212 2.497 1.992 4.579 4.43 5.181.853.211 1.531.853 1.79 1.692.258.839.058 1.752-.529 2.405-1.094 1.219-1.62 2.781-1.482 4.4.271 3.201 3.088 5.593 6.282 5.34.034-.004.067-.007.099-.009.054-.004.113-.006.172-.006z"/><path d="m112.645 99.747c-5.708 0-11.257-1.708-14.85-4.676-.726-.161-1.35-.64-1.69-1.316-1.031-2.05-1.896-4.767-2.567-8.076-.61-3.008-1.004-6.3-1.169-9.786-.065-1.379.999-2.55 2.379-2.616 1.353-.067 2.55.999 2.615 2.378.153 3.232.515 6.27 1.075 9.028.485 2.391 1.063 4.381 1.724 5.935.23.128.449.28.651.456 5.561 4.811 17.926 5.41 24.431-.751 1.521-1.439 3.901-1.438 5.42 0 6.505 6.16 18.87 5.561 24.43.75.199-.173.415-.323.643-.451.666-1.558 1.247-3.55 1.732-5.94.405-1.997.708-4.157.901-6.42.117-1.376 1.33-2.4 2.704-2.278 1.376.117 2.396 1.328 2.278 2.704-.21 2.453-.541 4.804-.983 6.988-.671 3.305-1.539 6.024-2.579 8.083-.34.671-.958 1.147-1.679 1.31-7.049 5.821-21.621 6.797-30.158-.462-4.185 3.56-9.82 5.14-15.308 5.14zm-14.473-4.622h.01z"/><path d="m136.701 205.923c-.296 0-.595-.013-.896-.038-2.793-.238-5.325-1.548-7.133-3.691-1.807-2.143-2.671-4.86-2.434-7.653.023-.273.058-.546.104-.818-2.823-2.145-4.437-5.64-4.13-9.249.2-2.353 1.177-4.535 2.75-6.233-.619-1.523-.877-3.185-.737-4.84.099-1.159.383-2.274.841-3.315-3.261-2.032-5.21-5.745-4.867-9.773.227-2.668 1.479-5.124 3.422-6.884-1.094-1.849-1.596-4-1.408-6.203.198-2.331 1.154-4.479 2.681-6.157-1.924-2.121-2.933-4.979-2.681-7.937.084-.988.305-1.946.652-2.855-3.703-1.882-6.058-5.862-5.687-10.231.198-2.332 1.156-4.48 2.683-6.159-.875-.965-1.57-2.091-2.039-3.329-.182-.477-.212-.998-.089-1.492.656-2.629 1.208-5.353 1.64-8.093.079-.5.308-.964.656-1.332.514-.542 1.076-1.023 1.677-1.44-.494-.811-.881-1.689-1.141-2.607-.324-1.146.204-2.361 1.264-2.905 1.347-.692 2.464-1.465 3.414-2.365 1.521-1.44 3.899-1.438 5.42 0 5.051 4.785 13.349 5.195 18.917 3.555.706-.208 1.469-.095 2.083.311.615.405 1.02 1.061 1.106 1.792.761 6.412.889 14.582-1.014 23.48.121-.316.241-.633.359-.951.297-.802.983-1.396 1.82-1.576.837-.181 1.706.082 2.306.691 2.157 2.193 3.247 5.19 2.988 8.222-.019.214-.043.428-.074.641 3.935 1.799 6.496 5.947 6.114 10.433-.045.533-.13 1.056-.254 1.568 4.018 1.75 6.684 5.936 6.295 10.512-.285 3.346-2.138 6.277-4.878 7.995.696 1.589.999 3.343.851 5.092-.237 2.793-1.548 5.326-3.69 7.133-1.283 1.082-2.773 1.826-4.361 2.198.048.58.047 1.164-.002 1.744-.32 3.769-2.686 7.044-6.019 8.613.026.483.02.968-.021 1.453-.347 4.079-2.957 7.431-6.545 8.86.452 1.343.628 2.777.505 4.228-.464 5.464-5.061 9.605-10.448 9.605zm-13.91-96.492c.511.953 1.294 1.739 2.257 2.254.812.435 1.32 1.282 1.32 2.204s-.507 1.769-1.319 2.205c-1.65.884-2.729 2.52-2.888 4.376-.249 2.923 1.838 5.515 4.751 5.899.908.12 1.678.727 2.007 1.582.328.855.163 1.821-.431 2.519-.749.879-1.196 1.946-1.293 3.087-.187 2.189.946 4.273 2.885 5.311.813.435 1.321 1.282 1.321 2.204s-.507 1.769-1.319 2.205c-1.65.884-2.729 2.52-2.887 4.375-.145 1.694.493 3.332 1.75 4.495.61.564.899 1.394.773 2.215s-.651 1.525-1.402 1.88c-1.769.836-2.971 2.56-3.135 4.498-.23 2.706 1.518 5.141 4.156 5.789.854.209 1.535.852 1.794 1.692s.057 1.754-.531 2.408c-.81.9-1.291 2.006-1.393 3.199-.108 1.279.218 2.515.944 3.572.777 1.131.497 2.678-.628 3.464-1.342.938-2.191 2.41-2.329 4.037-.192 2.262 1.06 4.439 3.114 5.418 1.177.561 1.726 1.932 1.26 3.149-.188.492-.305.997-.348 1.5-.125 1.461.328 2.884 1.273 4.005.946 1.122 2.272 1.808 3.734 1.932 3.013.264 5.681-1.99 5.938-5.008.122-1.44-.32-2.849-1.245-3.966-.614-.741-.748-1.77-.345-2.644.404-.874 1.274-1.438 2.237-1.451 2.834-.037 5.152-2.197 5.393-5.026.057-.669-.013-1.344-.207-2.005-.196-.67-.104-1.392.256-1.99s.952-1.02 1.636-1.161c2.36-.489 4.151-2.509 4.355-4.911.076-.896-.063-1.772-.415-2.602-.356-.839-.226-1.807.339-2.523.536-.68 1.386-1.032 2.234-.938 1.451.117 2.855-.341 3.964-1.277 1.121-.946 1.808-2.272 1.932-3.734.129-1.519-.365-2.985-1.391-4.128-.587-.653-.787-1.566-.529-2.405.259-.839.938-1.481 1.79-1.692 2.287-.565 3.958-2.519 4.157-4.862.253-2.972-1.958-5.63-4.928-5.925-.854-.085-1.605-.603-1.989-1.371s-.347-1.679.099-2.414c.444-.733.706-1.531.777-2.371.242-2.842-1.773-5.424-4.59-5.879-.762-.123-1.425-.592-1.795-1.27-.269-.492-.361-1.054-.273-1.596-4.004 8.367-9.221 15.823-15.57 22.241l-.57 1.182c-.587 1.213-2.025 1.744-3.26 1.202-1.232-.543-1.813-1.965-1.313-3.215 1.269-3.176 2.959-6.375 5.025-9.507 9.633-14.604 10.98-29.542 10.138-40.308-6.502 1.118-14.479.076-20.128-4.742-.549.463-1.137.903-1.763 1.318.313.441.689.836 1.116 1.167.762.588 1.118 1.562.916 2.503s-.927 1.682-1.863 1.906c-.793.189-1.536.564-2.182 1.097-.382 2.305-.846 4.597-1.382 6.831z"/><path d="m60.642 152.592c-.337 0-.68-.068-1.007-.213-1.232-.543-1.813-1.964-1.313-3.215 1.268-3.176 2.959-6.375 5.025-9.507 12.129-18.388 11.021-37.335 9.283-46.993-.136-.75.079-1.521.583-2.094.503-.573 1.248-.875 2.003-.846.838.042 1.621.337 2.266.853 2.058 1.64 4.973 2.757 7.997 3.064 1.373.14 2.373 1.366 2.234 2.739-1.229 12.138-6.013 35.184-24.248 53.616l-.571 1.183c-.43.891-1.322 1.413-2.252 1.413zm17.632-55.746c.646 6.046.726 13.915-1.113 22.555 3.085-8.042 4.585-15.532 5.309-21.182-1.467-.32-2.878-.782-4.196-1.373z"/><path d="m70.623 256c-.358 0-.723-.077-1.068-.241-1.248-.591-1.78-2.082-1.189-3.33 9.621-20.311 2.56-37.443-4.27-54.012-6.354-15.415-12.923-31.354-5.774-49.253.512-1.282 1.967-1.907 3.248-1.395 1.282.512 1.907 1.967 1.395 3.249-6.396 16.015-.494 30.334 5.754 45.493 7.244 17.575 14.734 35.748 4.167 58.058-.429.903-1.326 1.431-2.263 1.431z"/><path d="m97.938 152.591c-.338 0-.68-.068-1.008-.213-1.231-.543-1.812-1.964-1.312-3.215 1.269-3.176 2.959-6.375 5.025-9.506 10.251-15.542 11.08-31.487 9.971-42.125-.073-.696.15-1.392.614-1.916s1.127-.83 1.827-.843c3.067-.055 5.998-.722 8.474-1.929.81-.395 1.771-.322 2.514.189.742.512 1.151 1.384 1.071 2.283-1.113 12.38-5.76 35.887-24.353 54.681l-.571 1.182c-.43.89-1.321 1.412-2.252 1.412zm17.873-52.996c.395 5.685.21 12.507-1.358 19.855 2.954-7.688 4.467-14.913 5.234-20.601-1.251.342-2.549.592-3.876.746z"/><path d="m107.919 256c-.358 0-.723-.078-1.068-.241-1.248-.591-1.78-2.082-1.189-3.33 9.621-20.311 2.56-37.443-4.27-54.012-6.354-15.415-12.923-31.354-5.773-49.253.512-1.282 1.964-1.908 3.249-1.395 1.282.512 1.906 1.967 1.394 3.249-6.396 16.015-.494 30.334 5.754 45.494 7.243 17.575 14.733 35.748 4.166 58.058-.429.902-1.327 1.43-2.263 1.43z"/><path d="m135.235 152.592c-.337 0-.679-.068-1.007-.212-1.232-.543-1.813-1.965-1.313-3.215 1.269-3.176 2.959-6.375 5.025-9.507 10.488-15.901 11.153-32.202 9.865-43.077-.144-1.21.607-2.349 1.777-2.692 2.237-.658 4.143-1.631 5.51-2.813 1.403-1.215 3.497-1.271 4.979-.137.354.271.753.538 1.223.817.817.486 1.288 1.392 1.216 2.34-.969 12.653-5.438 36.684-24.453 55.902l-.569 1.182c-.43.889-1.322 1.412-2.253 1.412zm17.746-54.586c.555 6.079.481 13.492-1.234 21.496 3.502-9.102 4.993-17.612 5.607-23.846-1.262.918-2.74 1.711-4.373 2.35z"/><path d="m145.216 256c-.358 0-.723-.078-1.068-.241-1.248-.591-1.78-2.082-1.189-3.33 9.621-20.311 2.56-37.443-4.27-54.012-6.354-15.415-12.923-31.354-5.773-49.253.512-1.282 1.963-1.908 3.249-1.395 1.282.512 1.906 1.967 1.394 3.249-6.396 16.016-.494 30.334 5.754 45.494 7.243 17.575 14.733 35.748 4.166 58.058-.429.902-1.327 1.43-2.263 1.43z"/><path d="m172.531 152.591c-.338 0-.68-.068-1.008-.213-1.231-.543-1.812-1.964-1.312-3.215 1.269-3.176 2.959-6.375 5.025-9.506 12.082-18.318 11.02-37.207 9.311-46.835-.119-.673.042-1.365.446-1.916.403-.551 1.016-.913 1.692-1 3.468-.452 6.583-2.106 9.011-4.785.688-.759 1.765-1.022 2.729-.663.959.359 1.603 1.267 1.623 2.291.129 6.284-.463 38.757-24.693 63.249l-.571 1.182c-.431.889-1.322 1.411-2.253 1.411zm17.324-58.224c.893 6.3 1.302 15.242-.844 25.207 4.25-11.017 5.549-21.148 5.915-27.375-1.578.964-3.278 1.691-5.071 2.168z"/><path d="m182.513 256c-.358 0-.723-.077-1.068-.241-1.248-.591-1.78-2.082-1.189-3.33 9.621-20.31 2.56-37.443-4.271-54.012-6.353-15.415-12.923-31.354-5.773-49.253.512-1.282 1.963-1.908 3.249-1.395 1.282.512 1.906 1.967 1.394 3.249-6.396 16.015-.494 30.334 5.754 45.494 7.244 17.575 14.734 35.748 4.167 58.058-.429.902-1.327 1.43-2.263 1.43z"/><path d="m95.444 159.553c-.632 0-1.247-.239-1.716-.681-2.345-2.212-3.534-5.318-3.262-8.521.023-.273.058-.546.104-.818-2.823-2.145-4.437-5.64-4.13-9.249.2-2.353 1.177-4.535 2.75-6.233-.619-1.523-.877-3.185-.737-4.839.099-1.159.383-2.274.841-3.315-3.26-2.032-5.209-5.745-4.867-9.773.227-2.668 1.479-5.124 3.421-6.884-1.093-1.849-1.595-4.001-1.407-6.204.202-2.387 1.201-4.583 2.793-6.278-.238-.513-.3-1.102-.155-1.669.228-.892.926-1.586 1.818-1.809 1.846-.46 3.507-1.248 4.937-2.342.757-.58 1.701-.866 2.672-.801.401.026.797.113 1.17.257.446.18.816.404 1.137.681 1.981 1.715 4.955 2.942 8.374 3.457.809.122 1.507.632 1.869 1.365s.343 1.598-.052 2.314c-.56 1.015-.804 2.162-.705 3.318.086 1.018.425 1.963 1.007 2.81.443.646.559 1.462.312 2.206-.248.744-.829 1.328-1.571 1.579-2.558.864-4.185 3.344-3.956 6.032.147 1.731 1.051 3.298 2.478 4.298.668.468 1.066 1.231 1.066 2.046s-.396 1.58-1.063 2.048c-1.705 1.196-2.656 3.222-2.48 5.286.123 1.451.786 2.799 1.866 3.796.61.564.901 1.395.774 2.217-.126.822-.652 1.527-1.405 1.881-2.203 1.039-3.546 3.363-3.34 5.784.021.236.076.466.126.698.135.626.023 1.281-.311 1.828-.408.668-.79 1.333-1.154 1.994-.282.512-.734.909-1.278 1.122-2.393.937-3.912 3.376-3.695 5.932.075.895.354 1.745.828 2.527.445.734.482 1.645.099 2.413s-1.134 1.285-1.987 1.371c-.222.022-.438.06-.65.105-.176.034-.349.051-.521.051zm.185-62.672c0 .922-.507 1.769-1.319 2.204-1.65.884-2.729 2.52-2.887 4.375-.145 1.694.493 3.332 1.75 4.496.609.564.898 1.394.772 2.214-.126.821-.651 1.525-1.402 1.88-1.769.837-2.97 2.56-3.134 4.498-.23 2.706 1.518 5.14 4.157 5.789.854.209 1.534.852 1.793 1.692s.057 1.754-.531 2.408c-.81.9-1.291 2.006-1.393 3.199-.108 1.279.218 2.515.944 3.572.777 1.131.497 2.678-.628 3.464-1.342.938-2.191 2.41-2.329 4.038-.192 2.261 1.06 4.438 3.114 5.418.067.032.133.067.196.104 1.013-1.397 2.355-2.56 3.944-3.351.118-.208.238-.415.36-.623-.014-.103-.026-.209-.035-.318-.293-3.45 1.102-6.79 3.61-9.028-.846-1.406-1.365-2.994-1.507-4.656-.239-2.818.649-5.596 2.394-7.75-1.362-1.672-2.206-3.728-2.394-5.927-.342-4.021 1.554-7.792 4.788-9.943-.306-.864-.501-1.766-.579-2.684-.089-1.042-.027-2.082.179-3.09-2.81-.754-5.317-1.942-7.292-3.466-.81.564-1.67 1.06-2.571 1.485zm4.826 47.943h.01zm-1.581-49.917c-.001 0-.002.001-.003.002.001-.001.002-.002.003-.002z"/></svg>