<svg enable-background="new 0 0 256 256" height="512" viewBox="0 0 256 256" width="512" xmlns="http://www.w3.org/2000/svg"><path d="m91.184 126.785c.246 4.356 1.207 9.059 3.174 14.06 7.622 19.381 27.806 31.746 49.034 28.59 9.208-1.369 19.22-5.678 28.733-15.403 0 0-5.805 1.388-13.003.688 0 0 14.432-7.562 21.738-18.277 0 0-7.884 3.726-20.96 1.935 0 0 15.487-2.835 21.517-19.823 0 0-9.607 6.574-22.855.634-6.867-3.079-16.681-9.921-26.841-15.762-18.337-10.543-41.701 2.788-40.537 23.358z" fill="#e3e4e5"/><path d="m152.481 191.862c55.044-9.583 61.955-62.918 61.955-62.918-6.628 2.741-11.95-.237-11.95-.237 11.353-11.827 10.056-28.095 10.056-28.095-5.681 9.139-15.918 10.73-15.918 10.73 1.204-6.653.767-12.558.767-12.558s-7.539 17.768-39.916 19.896c.368.177.733.352 1.085.51 13.248 5.94 22.855-.634 22.855-.634-6.03 16.988-21.517 19.822-21.517 19.822 13.075 1.792 20.96-1.935 20.96-1.935-7.306 10.716-21.738 18.277-21.738 18.277 7.198.699 13.003-.688 13.003-.688-9.513 9.726-19.526 14.034-28.733 15.403-21.228 3.156-41.411-9.208-49.034-28.59-1.967-5.001-2.927-9.704-3.174-14.06-.806-14.24 10.145-25.004 23.044-26.786-3.469-6.501-4.439-14.078-2.719-21.323 6.452-27.185 5.787-56.172-18.274-60.319-22.567-3.889-29.111 13.626-30.471 18.443.274.037.535.151.73.353 1.156 1.196 3.701 4.551 3.701 10.908l-1.52 5.867c-.032.123-.087.231-.152.333 13.354 5.039 9.254 25.85 1.198 60.061-8.014 34.036 11.28 70.433 52.844 77.704 1.034 2.866 2.345 5.638 3.945 8.25 2.242 3.659 5.058 7.129 6.038 11.274.558-1.067 1.919-1.818 2.477-2.885 1.47 1.778 2.138 3.239 3.609 5.017 1.985-1.736 3.162-3.707 4.587-5.896 1.65 1.355 3.86 2.681 5.509 4.036.197-2.656.866-4.036 1.777-6.673 1.258 1.092 3.767 1.559 5.025 2.651-1.881-2.549-1.538-6.031-.694-9.052.002-.001.542-2.819.645-6.886z" fill="#e3e4e5"/><path d="m125.514 203.385c-.678-1.035-1.364-2.065-2.004-3.11-1.601-2.613-2.911-5.385-3.945-8.25-10.974-1.92-20.379-5.885-28.155-11.286.621 6.866 2.814 13.602 6.45 19.536 2.242 3.659 5.058 7.129 6.038 11.274.558-1.067 1.919-1.818 2.477-2.885 1.47 1.778 2.138 3.239 3.609 5.017 1.985-1.736 3.162-3.707 4.587-5.896 1.65 1.355 3.86 2.681 5.509 4.036.197-2.656.866-4.036 1.777-6.673 1.258 1.092 3.767 1.559 5.025 2.651-.954-1.292-1.333-2.824-1.368-4.414z" fill="#e3e4e5"/><path d="m71.124 78.391c.888-.265 1.814-.65 2.775-1.171 1.112-12.339-.884-20.133-8.377-22.96-.32.501-.993.72-1.575.442-.087-.042-.191-.09-.286-.135.548 2.621.788 7.124-2.024 12.136-3.517 6.268 2.429 13.791 9.487 11.688z" fill="#fd605b"/><path d="m93.234 18.357c10.071 1.736 16.032 7.833 19.099 16.318 6.801-13.782-1.841-18.337-5.394-19.574-.796-.278-1.346-.976-1.384-1.792-.132-2.826-1.258-9.085-8.533-10.489-7.739-1.494-11.58 2.615-13.204 5.265-.588.959-1.882 1.267-2.857.67-2.761-1.69-8.268-3.747-14.239 1.377-7.505 6.439-2.507 16.1-.629 19.146 3.958-6.4 11.885-13.551 27.141-10.921z" fill="#fd605b"/><g fill="#f9bd55"><path d="m63.493 37.152c-.316-.327-.8-.454-1.245-.328-11.722 3.302-17.908 9.191-20.511 12.329-.488.589.136 1.407.868 1.143 11.738-4.236 24.59-2.236 24.59-2.236-.001-6.357-2.546-9.712-3.702-10.908z"/><path d="m46.576 49.098c6.795.808 14.352 4.157 17.371 5.603.699.335 1.538-.043 1.727-.774l1.52-5.867s-10.131-1.573-20.618 1.038z"/><path d="m150.49 216.379c-1.081-2.702-1.266-6.469-1.6-10.397-.525-.245-1.011-.511-1.382-.833-.911 2.637-1.58 4.017-1.777 6.673-1.65-1.355-3.86-2.681-5.509-4.036-1.36 2.088-2.501 3.975-4.326 5.651 2.914 5.265 4.965 8.696 4.965 8.696-2.365 5.083-1.842 4.507-2.84 10.494-.703 4.219-2.95 6.017-3.963 9.03-.275.817-1.152 1.257-1.977 1.009-8.384-2.521-10.808-.627-14.676 3.214-1.142 1.135-2.129 3.374-1.566 5.24.525 1.74 1.999 2.706 4.131 2.032 2.675-.846 6.479-1.743 9.116-1.084 3.211.803 6.422.452 7.974.19.599-.1 1.21-.018 1.759.24 1.249.586 3.855 1.477 7.021.686 2.216-.554 3.883-.284 5 .13.808.299 1.661-.423 1.488-1.267-1.145-5.565-6.487-5.565-6.487-5.565-4.468-4.468 5.857-20.053 5.857-20.053 2.245-5.764-1.208-10.05-1.208-10.05z"/><path d="m119.057 253.338c-1.637.169-2.772-.739-3.218-2.217-.564-1.866.424-4.106 1.566-5.24.607-.603 1.177-1.15 1.741-1.647-.909-6.01 6.901-17.802 6.901-17.802 2.245-5.766-1.208-10.052-1.208-10.052-1.081-2.702-1.266-6.469-1.6-10.397-.525-.245-1.011-.511-1.382-.833-.911 2.637-1.58 4.017-1.777 6.673-1.65-1.355-3.86-2.681-5.509-4.036-1.36 2.088-2.501 3.975-4.326 5.651 2.914 5.265 4.965 8.696 4.965 8.696-2.365 5.083-1.842 4.507-2.84 10.494-.703 4.219-2.95 6.017-3.963 9.03-.275.817-1.152 1.257-1.977 1.009-8.384-2.521-10.808-.627-14.676 3.214-1.142 1.135-2.129 3.374-1.566 5.24.525 1.74 1.999 2.706 4.131 2.032 2.675-.846 6.479-1.743 9.116-1.084 3.211.803 6.422.452 7.974.19.599-.1 1.21-.018 1.759.24 1.097.515 3.239 1.263 5.889.903z"/></g><path d="m42.334 52.843c-1.048.001-2.061-.499-2.684-1.386-.843-1.2-.778-2.768.162-3.9 2.834-3.416 9.428-9.666 21.757-13.139 1.333-.379 2.761.004 3.72.996v.001c1.324 1.37 4.404 5.344 4.404 12.645 0 .73-.319 1.424-.874 1.898-.554.475-1.288.685-2.01.572-.121-.021-12.388-1.842-23.357 2.117-.366.132-.744.196-1.118.196zm19.845-13.397c-6.036 1.797-10.442 4.291-13.558 6.639 6.438-1.231 12.41-1.088 15.874-.826-.443-2.963-1.531-4.816-2.316-5.813z"/><path d="m64.488 57.325c-.554 0-1.107-.123-1.621-.37-2.841-1.36-10.146-4.609-16.586-5.375-1.199-.143-2.125-1.121-2.2-2.325-.076-1.205.72-2.292 1.891-2.583 10.851-2.703 21.17-1.151 21.606-1.083.698.108 1.317.507 1.705 1.098.388.59.508 1.316.331 2l-1.52 5.867c-.276 1.067-1.013 1.95-2.022 2.42-.504.234-1.044.351-1.584.351zm-4.877-7.23c1.559.611 2.936 1.208 4.031 1.706l.402-1.552c-1.185-.086-2.709-.153-4.433-.154z"/><path d="m195.761 117.636c-.223 0-.45-.03-.676-.094-1.33-.373-2.105-1.753-1.732-3.082.314-1.122.588-2.321.812-3.562.245-1.358 1.541-2.265 2.904-2.016 1.358.245 2.262 1.546 2.016 2.904-.252 1.396-.561 2.75-.918 4.023-.31 1.104-1.313 1.827-2.406 1.827z"/><path d="m199.292 134.13c-.733 0-1.459-.32-1.953-.937-.863-1.078-.689-2.651.388-3.515 1.044-.836 2.038-1.745 2.955-2.701.957-.998 2.538-1.031 3.534-.075.997.955 1.03 2.538.075 3.534-1.067 1.114-2.225 2.172-3.438 3.145-.461.369-1.013.549-1.561.549z"/><path d="m68.686 81.253c-3.165 0-6.152-1.415-8.234-4.02-2.751-3.439-3.132-7.943-.994-11.754 2.367-4.22 2.262-7.986 1.757-10.402-.195-.934.158-1.896.909-2.482.599-.467 1.369-.633 2.092-.467.642-.394 1.447-.489 2.19-.208 10.53 3.975 10.867 15.729 9.984 25.524-.075.834-.562 1.574-1.298 1.974-1.087.589-2.182 1.05-3.252 1.368-1.054.315-2.114.467-3.154.467zm-2.18-23.734c.068 2.936-.522 6.546-2.688 10.406-1.34 2.39-.601 4.762.539 6.186 1.491 1.865 3.753 2.566 6.054 1.885.364-.108.736-.243 1.113-.402.713-9.828-.819-15.431-5.018-18.075zm-1.485-5.076.009.004c-.003-.001-.006-.002-.009-.004z"/><path d="m112.333 37.175c-.046 0-.093-.001-.14-.004-1.001-.056-1.871-.704-2.212-1.646-3.046-8.428-8.664-13.237-17.173-14.704-11.119-1.914-19.394 1.372-24.592 9.772-.456.736-1.26 1.185-2.126 1.185-.001 0-.001 0-.002 0-.867-.001-1.671-.45-2.126-1.188-7.999-12.98-1.157-20.393 1.13-22.355 7.14-6.125 13.915-3.493 16.824-1.819 1.761-2.681 6.42-7.814 15.579-6.05 6.183 1.194 10.101 5.844 10.537 12.473 2.441.896 6.516 3.021 8.384 7.584 1.727 4.218 1.107 9.386-1.841 15.36-.423.855-1.294 1.392-2.242 1.392zm-25.401-21.886c2.084 0 4.322.189 6.726.604 8.219 1.417 14.386 5.551 18.4 12.314.494-2.272.405-4.243-.27-5.892-1.196-2.921-4.067-4.295-5.672-4.854-1.773-.618-2.974-2.202-3.059-4.037-.148-3.174-1.397-7.164-6.51-8.15-5.967-1.154-9.057 1.603-10.598 4.117-1.315 2.143-4.139 2.816-6.293 1.495-2.656-1.624-6.774-2.745-11.307 1.143-4.265 3.659-3.416 8.765-1.897 12.479 4.075-4.873 10.506-9.219 20.48-9.219z"/><path d="m80.272 43.676c-1.377 0-2.496-1.113-2.5-2.491-.007-2.239.884-4.343 2.51-5.923 1.603-1.557 3.73-2.417 5.992-2.424h.029c4.689 0 8.513 3.714 8.528 8.292.004 1.381-1.111 2.504-2.492 2.509-.003 0-.006 0-.008 0-1.377 0-2.496-1.113-2.5-2.491-.006-1.827-1.588-3.31-3.529-3.31-.004 0-.008 0-.012 0-.96.003-1.856.361-2.524 1.011-.644.626-.997 1.449-.994 2.318.004 1.381-1.111 2.504-2.492 2.509-.002 0-.005 0-.008 0z"/><path d="m159.124 157.22c-.081 0-.162-.004-.244-.012-4.109-.399-7.896-1.366-11.256-2.873-1.26-.565-1.822-2.045-1.258-3.305.566-1.261 2.047-1.82 3.305-1.258 2.863 1.285 6.124 2.112 9.691 2.459 1.375.134 2.381 1.355 2.247 2.729-.126 1.294-1.213 2.26-2.485 2.26z"/><path d="m159.902 140.878c-.113 0-.228-.008-.343-.023-3.271-.449-6.616-1.199-9.944-2.229-1.319-.409-2.058-1.809-1.649-3.128s1.812-2.057 3.128-1.649c3.067.95 6.145 1.641 9.146 2.053 1.368.188 2.325 1.448 2.137 2.816-.173 1.253-1.245 2.16-2.475 2.16z"/><path d="m136.927 172.412c-19.399 0-37.601-12.104-44.896-30.652-1.94-4.935-3.065-9.925-3.343-14.833-.579-10.231 4.426-19.64 13.389-25.169 9.451-5.829 21.287-6.021 30.891-.498 3.959 2.276 7.811 4.668 11.536 6.981 5.666 3.521 11.019 6.845 15.081 8.666 11.715 5.253 20.082-.189 20.431-.423.896-.6 2.081-.561 2.931.101.851.662 1.188 1.79.827 2.806-2.987 8.416-8.095 13.611-12.781 16.776 5.576-.529 8.762-1.967 8.81-1.989 1.018-.473 2.235-.207 2.962.651.727.857.796 2.093.162 3.021-4.065 5.964-10.119 10.934-14.947 14.307 2.18-.236 3.542-.552 3.568-.559 1.085-.255 2.206.235 2.753 1.203.548.969.391 2.183-.388 2.978-8.844 9.042-18.988 14.468-30.153 16.128-2.283.34-4.569.505-6.833.505zm-43.247-45.768c.248 4.377 1.258 8.848 3.004 13.286 7.303 18.569 26.785 29.936 46.339 27.032 7.771-1.155 15.021-4.364 21.635-9.564-1.754.049-3.71.012-5.779-.189-1.1-.106-1.998-.924-2.211-2.008-.212-1.085.313-2.181 1.292-2.694.11-.058 8.855-4.697 15.887-11.64-3.677.545-8.506.782-14.286-.012-1.218-.166-2.133-1.192-2.16-2.421-.028-1.228.841-2.294 2.049-2.515.49-.094 10.694-2.156 16.978-12.594-4.524 1.185-11.143 1.617-18.888-1.855-4.37-1.959-9.861-5.37-15.675-8.98-3.689-2.292-7.504-4.661-11.39-6.896-8.01-4.604-17.887-4.444-25.773.42-7.376 4.549-11.496 12.261-11.022 20.63z"/><path d="m135.635 216.182c-.066 0-.134-.003-.201-.008-.673-.055-1.295-.379-1.726-.898-.791-.957-1.359-1.81-1.903-2.633-.018.024-.032.047-.042.066-.484.925-1.48 1.452-2.527 1.32-1.035-.13-1.88-.89-2.121-1.905-.648-2.743-2.301-5.258-4.052-7.92-.573-.872-1.145-1.742-1.685-2.624-4.2-6.854-6.61-14.718-6.97-22.739-.062-1.38 1.006-2.548 2.386-2.609 1.374-.073 2.547 1.006 2.609 2.385.322 7.179 2.479 14.217 6.238 20.353.512.836 1.056 1.662 1.599 2.488 1.116 1.697 2.254 3.429 3.178 5.293.376-.316.843-.519 1.346-.571.837-.086 1.654.249 2.187.893.805.973 1.38 1.837 1.931 2.673.626-.819 1.198-1.705 1.815-2.66l.43-.663c.388-.596 1.012-.998 1.714-1.106.702-.106 1.418.087 1.968.539.65.535 1.415 1.076 2.229 1.644.191-.606.408-1.206.641-1.853.146-.406.303-.839.466-1.312.271-.785.915-1.384 1.717-1.599.608-.163 1.254-.088 1.804.199.021-1.457.266-3.039.733-4.744.152-.863 1.358-8.203-.155-15.792-.27-1.354.609-2.671 1.963-2.941s2.671.608 2.941 1.963c1.802 9.035.213 17.45.145 17.805-.013.065-.028.132-.046.197-.873 3.124-.772 5.444.298 6.895.757 1.025.621 2.456-.315 3.32-.937.867-2.373.889-3.335.052-.322-.279-1.158-.625-1.829-.903-.055-.022-.11-.045-.165-.067-.354 1.065-.578 1.984-.675 3.291-.068.931-.65 1.746-1.509 2.113-.856.368-1.849.228-2.571-.366-.747-.613-1.644-1.236-2.593-1.896-.229-.159-.46-.32-.691-.481-.991 1.464-2.067 2.862-3.579 4.187-.46.395-1.045.614-1.648.614z"/><path d="m135.635 216.182c-.066 0-.134-.003-.201-.008-.673-.055-1.295-.379-1.726-.898-.791-.957-1.359-1.81-1.903-2.633-.018.024-.032.047-.042.066-.484.925-1.48 1.452-2.527 1.32-1.035-.13-1.88-.89-2.121-1.905-.648-2.744-2.302-5.26-4.054-7.924-.572-.87-1.143-1.739-1.683-2.619-1.407-2.297-2.633-4.765-3.654-7.354-19.023-3.674-34.83-13.81-44.621-28.65-9.845-14.923-13.059-33.814-8.817-51.83 7.708-32.732 11.578-52.913.353-57.148-.705-.266-1.253-.836-1.49-1.551-.214-.645-.156-1.345.154-1.941l1.388-5.356c-.07-4.827-1.781-7.475-2.749-8.589-.517-.18-.966-.525-1.271-.991-.397-.605-.512-1.354-.315-2.05.688-2.437 2.838-8.639 7.947-13.601 6.291-6.109 15.058-8.399 25.355-6.627 7.72 1.331 13.684 5.108 17.724 11.229 9.078 13.749 6.402 35.938 2.559 52.131-1.579 6.651-.694 13.601 2.492 19.568.385.722.393 1.585.021 2.313-.371.729-1.075 1.229-1.885 1.341-10.706 1.48-21.666 10.454-20.89 24.169.248 4.376 1.258 8.847 3.004 13.286 7.303 18.569 26.794 29.936 46.338 27.032 7.771-1.155 15.022-4.364 21.636-9.564-1.754.049-3.71.012-5.779-.189-1.1-.106-1.998-.924-2.211-2.008-.212-1.085.313-2.181 1.292-2.694.11-.058 8.856-4.697 15.888-11.641-3.677.548-8.507.781-14.288-.012-1.217-.166-2.132-1.192-2.159-2.421-.028-1.228.841-2.294 2.049-2.515.49-.094 10.694-2.155 16.978-12.593-4.524 1.185-11.143 1.617-18.889-1.855-.369-.165-.758-.351-1.149-.54-1.022-.493-1.584-1.614-1.367-2.729s1.157-1.942 2.29-2.017c30.489-2.003 37.71-18.214 37.779-18.378.451-1.062 1.572-1.673 2.709-1.49 1.139.188 2.001 1.132 2.086 2.282.016.204.294 4.154-.245 9.275 3.128-1.193 7.73-3.679 10.779-8.583.569-.917 1.66-1.368 2.713-1.109 1.05.255 1.816 1.155 1.902 2.231.052.655 1.07 15.027-8.194 27.061 1.734.263 4.06.229 6.641-.84.822-.341 1.767-.218 2.476.326.708.542 1.073 1.421.959 2.306-.073.565-1.896 14.015-10.665 28.818-7.938 13.399-23.252 30.338-51.359 35.874-.192 3.109-.579 5.157-.599 5.26-.013.067-.028.135-.047.202-.873 3.124-.772 5.444.298 6.895.757 1.025.621 2.455-.314 3.32-.937.867-2.373.888-3.335.053-.322-.279-1.158-.625-1.829-.903-.056-.022-.11-.045-.166-.068-.354 1.065-.578 1.984-.675 3.29-.068.931-.65 1.746-1.509 2.113-.856.368-1.849.227-2.57-.365-.747-.613-1.644-1.236-2.593-1.896-.229-.159-.461-.319-.692-.481-.991 1.464-2.066 2.862-3.579 4.187-.46.399-1.045.618-1.648.618zm-3.61-10.018c.741 0 1.449.329 1.927.906.805.974 1.379 1.838 1.931 2.674.624-.818 1.196-1.703 1.812-2.656l.432-.666c.388-.596 1.012-.998 1.714-1.106.702-.107 1.418.087 1.968.539.65.534 1.415 1.076 2.229 1.643.191-.604.407-1.204.64-1.849.146-.407.303-.841.467-1.316.271-.784.914-1.384 1.717-1.599.608-.163 1.254-.088 1.804.199.021-1.456.266-3.039.733-4.743.086-.489.497-2.989.584-6.391.03-1.191.896-2.195 2.07-2.399 22.006-3.831 38.761-15.17 49.799-33.7 5.604-9.408 8.24-18.396 9.366-23.282-5.627.837-9.742-1.411-9.952-1.528-.676-.378-1.138-1.048-1.252-1.813s.133-1.541.669-2.1c5.947-6.195 8.16-13.812 8.962-19.227-5.809 4.941-12.281 6.008-12.636 6.063-.798.12-1.608-.146-2.174-.725-.564-.579-.814-1.396-.67-2.191.266-1.465.446-2.897.568-4.232-4.141 4.284-11.335 9.505-23.252 12.438 5.236-.421 8.471-2.575 8.522-2.611.895-.611 2.079-.577 2.937.082.858.66 1.193 1.798.832 2.817-2.987 8.416-8.095 13.611-12.781 16.776 5.576-.529 8.762-1.967 8.81-1.989 1.018-.473 2.235-.207 2.961.651.728.857.797 2.093.163 3.021-4.067 5.967-10.124 10.938-14.953 14.312 2.186-.237 3.544-.556 3.571-.562 1.081-.259 2.208.23 2.756 1.199.55.969.392 2.185-.388 2.98-8.844 9.042-18.988 14.468-30.152 16.128-2.282.34-4.567.505-6.832.505-19.399.002-37.601-12.104-44.896-30.652-1.94-4.936-3.065-9.926-3.343-14.833-.769-13.584 8.471-25.433 21.916-28.773-2.577-6.31-3.127-13.315-1.527-20.056 5.111-21.533 4.448-38.658-1.866-48.222-3.295-4.991-8.006-7.953-14.401-9.056-4.979-.859-21.278-2.214-27.131 15.017 1.455 1.671 4.017 5.562 4.017 12.223 0 .212-.027.422-.08.627l-1.089 4.203c12.81 7.009 8.525 28.467.629 62.004-3.928 16.682-.967 34.151 8.123 47.93 9.4 14.248 24.172 23.494 42.718 26.738.883.155 1.616.771 1.921 1.614.999 2.766 2.252 5.388 3.726 7.793.511.834 1.054 1.659 1.597 2.484 1.117 1.699 2.255 3.431 3.179 5.296.377-.315.844-.519 1.347-.571.085-.009.172-.014.258-.014zm19.813-7.417h.01zm-88.584-145.447s0 .002-.001.003zm.162-.387s0 .001-.001.002c.001-.001.001-.001.001-.002zm-.992-13.638c.001.001.002.001.003.001 0 0-.002 0-.003-.001z"/><path d="m143.315 255.999c-2.463 0-4.433-.708-5.558-1.235-.09-.042-.183-.055-.283-.038-1.8.303-5.363.677-8.995-.23-1.583-.396-4.409-.018-7.756 1.042-2.093.66-3.644.215-4.576-.277-1.281-.677-2.241-1.89-2.702-3.416-.887-2.935.518-6.068 2.198-7.736 4.2-4.174 7.45-6.56 16.354-4.068.446-1.076.992-1.996 1.523-2.892.867-1.463 1.688-2.846 2.035-4.932.209-1.255.351-2.218.466-3.003.422-2.87.586-3.758 2.022-6.937-.841-1.438-2.408-4.147-4.335-7.63-.559-1.01-.354-2.271.496-3.051 1.411-1.297 2.391-2.81 3.524-4.562l.397-.612c.388-.596 1.011-.998 1.714-1.106.702-.107 1.418.087 1.968.539.65.534 1.415 1.076 2.229 1.643.191-.604.407-1.204.64-1.849.146-.407.303-.841.467-1.316.271-.785.915-1.384 1.717-1.599.803-.215 1.657-.017 2.286.527.093.081.307.226.799.455.812.379 1.358 1.162 1.435 2.054l.117 1.43c.248 3.064.482 5.966 1.212 7.983.92 1.339 3.678 6.093 1.318 12.155-.064.166-.147.325-.245.474-4.369 6.604-7.198 13.858-6.496 16.314 2.699.5 6.462 2.426 7.489 7.42.263 1.278-.194 2.603-1.191 3.459-1.002.859-2.386 1.109-3.612.656-.687-.254-1.854-.469-3.524-.05-1.106.277-2.158.388-3.133.388zm-5.753-6.281c.799 0 1.588.175 2.32.52.968.452 2.949 1.125 5.354.523 1.241-.311 2.468-.435 3.631-.367-1.203-1.388-2.927-1.409-3.025-1.409-.663 0-1.299-.264-1.768-.732-5.383-5.383 2.544-18.632 5.383-22.961 1.49-4.161-.827-7.232-.928-7.363-.142-.183-.273-.405-.359-.62-.426-1.065-.728-2.232-.954-3.474-.152.112-.319.208-.499.285-.856.368-1.849.227-2.57-.365-.747-.613-1.644-1.236-2.593-1.896-.23-.159-.462-.32-.694-.483-.573.846-1.177 1.669-1.875 2.469 2.377 4.249 4.006 6.976 4.023 7.006.425.711.471 1.587.121 2.338-1.707 3.67-1.75 3.961-2.159 6.752-.119.811-.266 1.804-.481 3.099-.501 3.01-1.651 4.949-2.666 6.66-.577.973-1.076 1.813-1.394 2.756-.705 2.103-2.932 3.247-5.066 2.606-7.355-2.213-8.871-.707-12.194 2.594-.627.623-1.172 1.957-.935 2.743.087.29.198.413.25.44.067.036.307.066.735-.068 4.389-1.389 7.913-1.765 10.476-1.126 2.852.713 5.812.343 6.953.151.302-.053.609-.078.914-.078zm14.136-23.286h.01z"/><path d="m109.983 216.182c-.067 0-.134-.003-.201-.008-.673-.055-1.295-.379-1.726-.899-.791-.956-1.359-1.809-1.903-2.631-.018.023-.031.046-.042.064-.484.925-1.489 1.453-2.526 1.321-1.036-.13-1.881-.89-2.122-1.905-.648-2.743-2.302-5.258-4.053-7.921-.573-.871-1.145-1.742-1.684-2.623-3.793-6.191-6.148-13.32-6.808-20.616-.087-.968.393-1.898 1.232-2.387.84-.488 1.885-.447 2.684.107 7.822 5.434 16.959 9.093 27.159 10.877.883.155 1.616.771 1.921 1.614.999 2.766 2.252 5.388 3.726 7.793.523.854 1.077 1.697 1.631 2.54l.332.506c.257.392.398.847.409 1.314.027 1.244.315 2.221.879 2.985.756 1.025.621 2.456-.315 3.32-.936.866-2.373.887-3.335.053-.322-.279-1.158-.625-1.829-.903-.055-.022-.11-.045-.166-.068-.354 1.065-.579 1.984-.675 3.29-.069.931-.651 1.746-1.509 2.113s-1.85.227-2.571-.366c-.748-.613-1.645-1.236-2.595-1.896-.229-.159-.458-.318-.688-.479-.992 1.464-2.067 2.862-3.581 4.187-.455.399-1.041.618-1.644.618zm-3.608-10.018c.741 0 1.449.329 1.926.907.804.973 1.378 1.838 1.93 2.673.625-.819 1.199-1.706 1.816-2.661l.429-.661c.388-.596 1.011-.998 1.713-1.106.703-.105 1.418.088 1.968.538.651.535 1.416 1.076 2.23 1.644.191-.604.407-1.202.638-1.846.147-.408.304-.843.468-1.318.271-.785.914-1.385 1.716-1.6.279-.074.563-.099.844-.077-.229-.357-.455-.717-.675-1.077-1.406-2.295-2.632-4.763-3.653-7.351-8.389-1.616-16.102-4.445-23.012-8.438 1.018 4.662 2.807 9.143 5.279 13.177.512.837 1.055 1.662 1.599 2.488 1.116 1.698 2.254 3.429 3.178 5.293.376-.315.843-.519 1.346-.571.086-.009.173-.014.26-.014z"/><path d="m117.672 255.997c-2.508 0-4.499-.733-5.565-1.233-.089-.042-.184-.056-.283-.038-1.799.303-5.365.677-8.995-.23-1.583-.396-4.409-.018-7.756 1.042-2.091.66-3.644.216-4.576-.277-1.282-.677-2.241-1.89-2.702-3.416-.886-2.935.518-6.067 2.197-7.736 4.202-4.173 7.45-6.559 16.355-4.068.446-1.076.992-1.996 1.523-2.893.868-1.463 1.688-2.845 2.035-4.931.209-1.256.351-2.219.466-3.004.421-2.87.586-3.758 2.022-6.936-.841-1.438-2.408-4.147-4.335-7.629-.559-1.01-.354-2.271.496-3.052 1.411-1.296 2.39-2.809 3.523-4.56l.399-.615c.388-.595 1.011-.997 1.714-1.105.702-.111 1.418.088 1.967.538.651.535 1.416 1.076 2.23 1.644.191-.604.407-1.202.638-1.846.147-.408.304-.843.468-1.318.271-.785.914-1.384 1.716-1.6.802-.212 1.658-.018 2.286.526.093.081.309.227.801.456.811.379 1.358 1.162 1.434 2.054l.119 1.441c.247 3.06.481 5.956 1.209 7.972.921 1.339 3.678 6.094 1.318 12.156-.064.165-.147.324-.245.473-2.813 4.254-7.07 12.372-6.514 16.048.127.841-.181 1.688-.819 2.25-.47.414-.988.904-1.63 1.544-.629.624-1.174 1.958-.937 2.744.149.497.288.479.568.454.703-.082 1.406.156 1.931.63.526.475.826 1.148.826 1.856v.065c0 1.251-.924 2.31-2.164 2.478-.594.081-1.169.116-1.72.116zm-17.542-11.981c-2.951 0-4.37 1.41-6.614 3.639-.627.623-1.172 1.958-.935 2.744.087.289.198.412.25.439.067.036.308.066.735-.068 4.389-1.389 7.913-1.765 10.476-1.126 2.852.713 5.812.343 6.953.151.732-.124 1.469-.099 2.178.071.028-2.284 1.167-4.463 2.471-5.759.336-.335.645-.636.935-.91.035-6.505 5.956-15.952 7.226-17.904 1.493-4.162-.826-7.233-.927-7.365-.142-.183-.273-.405-.359-.62-.426-1.065-.728-2.233-.954-3.474-.153.112-.32.209-.499.285-.858.367-1.85.227-2.571-.366-.748-.613-1.645-1.236-2.595-1.896-.229-.159-.46-.319-.691-.481-.574.846-1.177 1.668-1.875 2.469 2.377 4.249 4.005 6.976 4.023 7.006.425.711.471 1.587.121 2.338-1.707 3.669-1.75 3.961-2.159 6.751-.119.811-.265 1.804-.481 3.1-.501 3.009-1.651 4.948-2.667 6.659-.577.974-1.076 1.813-1.393 2.757-.708 2.104-2.936 3.247-5.067 2.606-2.389-.72-4.162-1.046-5.581-1.046z"/></svg>