<svg enable-background="new 0 0 256 256" height="512" viewBox="0 0 256 256" width="512" xmlns="http://www.w3.org/2000/svg"><path d="m239.675 136.319-3.343-8.118c-1.23-2.988-4.444-4.636-7.589-3.892-21.582 5.109-100.728 29.655-143.081-5.748-1.806-1.51-4.53-.139-4.364 2.209.657 9.264 5.091 26.381 28.141 32.329 30.627 7.904 96.938-.156 127.529-10.792 2.455-.854 3.697-3.584 2.707-5.988z" fill="#9e512b"/><g fill="#7d3d1a"><path d="m172.472 135.869-3.688-28.496c-.438-3.383-3.319-5.916-6.731-5.916h-14.481c-3.411 0-6.293 2.533-6.731 5.916l-3.825 29.559c11.883.878 23.994.28 35.456-1.063z"/><path d="m168.785 107.374 3.686 28.484c12.225-1.432 23.715-3.692 33.39-5.905l-10.064-28.245c-1.145-3.214-4.498-5.078-7.832-4.355l-14.152 3.069c-2.858.62-4.935 2.977-5.289 5.779.119.377.208.768.261 1.173z"/><path d="m208.42 88.996-9.359 4.57c-2.707 1.322-4.173 4.237-3.728 7.127.178.322.337.658.464 1.015l10.064 28.245c9.905-2.265 17.919-4.469 22.883-5.643.731-.173 1.464-.205 2.177-.132-4.342-10.584-11.466-24.025-22.501-35.182z"/><path d="m140.842 107.374c.063-.49.183-.959.344-1.408-.438-2.697-2.477-4.941-5.255-5.544l-14.152-3.069c-3.334-.723-6.687 1.141-7.832 4.355l-9.927 27.862c10.254 4.282 21.518 6.502 32.999 7.351z"/><path d="m113.947 101.707c.127-.357.285-.693.464-1.015.445-2.89-1.021-5.805-3.728-7.127l-7.445-3.635c-8.639 9.121-14.458 19.52-18.236 28.223.228.101.451.233.66.408 5.556 4.644 11.752 8.241 18.361 11z"/><path d="m187.965 97.352c2.964-.643 5.939.762 7.368 3.34-.445-2.89 1.021-5.805 3.728-7.127l9.357-4.569c-9.446-9.537-18.369-13.964-22.718-15.722-5.298-2.141-13.613-2.23-13.613 3.436 0 5.061 1.401 14.617 3.665 23.291z"/><path d="m127.91 72.796c-10.058 4.136-18.165 10.271-24.67 17.135l7.443 3.634c2.707 1.322 4.173 4.237 3.728 7.127 1.429-2.578 4.404-3.983 7.368-3.34l11.615 2.519c2.244-8.639 3.63-18.125 3.63-23.161-.001-4.316-5.043-5.588-9.114-3.914z"/><path d="m137.023 76.71c0 5.036-1.386 14.522-3.63 23.161l2.537.55c2.778.602 4.817 2.846 5.255 5.544.945-2.653 3.47-4.508 6.387-4.508h14.481c3.004 0 5.594 1.964 6.47 4.742.354-2.801 2.432-5.159 5.289-5.779l1.939-.421c-2.264-8.674-3.665-18.23-3.665-23.291 0-1.996 1.044-3.266 2.612-3.995-16.782-10.5-32.613-4-39.842.205 1.299.753 2.167 2.008 2.167 3.792z"/></g><path d="m193.302 152.172c.005-.001.009-.001.014-.002-29.953 4.481-63.935 5.966-83.572 1-2.087 1.496-3.964 3.42-5.118 5.849 5.037 9.25 15.999 13.109 25.512 9.561 2.547-.95 5.458-.428 7.537 1.323 7.719 6.498 18.964 6.499 26.684 0 2.08-1.751 4.99-2.273 7.537-1.323 8.066 3.009 17.297.739 23.045-5.975-2.498-3.208-3.815-6.77-1.639-10.433z" fill="#f9bd55"/><path d="m134.74 156.156-1.596 11.969c1.639.085 3.244.695 4.53 1.778 7.719 6.498 18.964 6.499 26.684 0 1.184-.997 2.64-1.58 4.143-1.735l-2.084-12.921c-11.015.871-21.855 1.227-31.677.909z" fill="#f9bd55"/><path d="m90.112 142.179c-6.593-7.179-8.413-15.755-8.814-21.41-.012-.166-.006-.326.01-.482-1.875-.404-3.802-1.032-5.652-2.01 0 0-6.237-3.118-9.403-13.232-3.342-10.677-14.089-16.695-22.137-17.73-.854-.11-1.668-.408-2.393-.873-4.11-2.645-9.446-2.443-13.373.539-.604.459-1.299.793-2.039.962-8.736 1.986-18.4 7.865-23.757 24.54-.245.761.347 1.538 1.145 1.473 1.556-.126 4.692.019 5.958.593 0 0 5.801 14.039 17.84 16.838 12.04 2.799 22.239-2.082 33.279 5.017 0 0 6.591 8.021 21.453 11.489 1.892-1.968 4.459-3.893 7.883-5.714z" fill="#3aa03a"/><path d="m109.743 153.17c-.099-.025-.206-.046-.304-.071-8.98-2.318-15.126-6.333-19.332-10.917-20.718 11.017-10.254 25.892-6.049 30.676.606.69.242 1.754-.646 1.989-6.761 1.791-9.137 6.505-9.955 9.995-.494 2.107 1.12 4.118 3.284 4.118h22.304s10.394-3.118 5.197-19.749c-2.442-7.812 1.08-12.871 5.501-16.041z" fill="#3aa03a"/><path d="m222.451 146.52c-8.7 2.153-18.672 4.085-29.149 5.652-5.032 8.474 8.608 16.406 12.37 20.686.606.69.242 1.754-.646 1.989-6.761 1.791-9.137 6.505-9.955 9.995-.494 2.107 1.12 4.118 3.284 4.118h22.304s11.954-11.434 3.638-21.828c-7.614-9.518-5.143-16.494-1.846-20.612z" fill="#3aa03a"/><path d="m251.547 152.858c-6.916-3.127-12.389-7.263-15.75-10.161-3.949 1.327-8.441 2.609-13.346 3.823-1.377 1.72-2.606 3.939-3.02 6.632 9.551 6.352 21.975 6.566 30.982 5.533 3.475-.399 4.243-4.421 1.134-5.827z" fill="#3aa03a"/><path d="m73.456 184.842c.818-3.49 3.194-8.205 9.955-9.995.888-.235 1.252-1.299.646-1.989-3.52-4.005-11.415-15.082-1.74-25.047-.001-.001-.002-.001-.003-.002-.027.028-.058.056-.085.084-4.019-.938-7.413-2.211-10.256-3.566-15.83 10.723-6.407 24.052-2.47 28.531.606.69.242 1.754-.646 1.989-6.761 1.791-9.137 6.505-9.955 9.995-.494 2.107 1.12 4.118 3.284 4.118h14.552c-2.162 0-3.776-2.011-3.282-4.118z" fill="#3aa03a"/><path d="m195.071 184.842c.818-3.49 3.194-8.205 9.955-9.995.888-.235 1.252-1.299.646-1.989-2.136-2.43-7.452-6.037-10.732-10.252-2.369 2.767-5.335 4.766-8.562 5.965 1.931 1.661 3.709 3.112 4.741 4.287.606.69.242 1.754-.646 1.989-6.761 1.791-9.137 6.505-9.955 9.995-.494 2.107 1.12 4.118 3.284 4.118h14.552c-2.163 0-3.777-2.011-3.283-4.118z" fill="#3aa03a"/><path d="m28.455 122.735c-2.447 0-5.164-.438-7.767-1.772-5.591-2.863-11.418-3.943-11.477-3.953-1.358-.247-2.26-1.548-2.013-2.907s1.547-2.258 2.907-2.013c.267.049 6.621 1.226 12.863 4.423 5.289 2.71 11.842.042 11.906.016 1.268-.542 2.739.046 3.282 1.315s-.045 2.739-1.315 3.282c-.23.098-3.842 1.609-8.386 1.609z"/><path d="m13.58 107.99c-.835 0-1.651-.418-2.125-1.179-.73-1.172-.372-2.714.801-3.443l2.12-1.32c1.171-.731 2.713-.373 3.443.801.73 1.172.372 2.714-.801 3.443l-2.12 1.32c-.411.256-.867.378-1.318.378z"/><path d="m39.75 103.779c-.185 0-.373-.021-.561-.063-1.346-.309-2.187-1.649-1.879-2.995.318-1.387-.552-2.773-1.938-3.09-1.387-.318-2.773.551-3.091 1.938-.309 1.347-1.651 2.186-2.995 1.879-1.346-.309-2.187-1.649-1.879-2.995.934-4.074 5.008-6.628 9.081-5.696 4.074.934 6.629 5.007 5.696 9.081-.266 1.157-1.295 1.941-2.434 1.941z"/><path d="m141.898 158.784c-11.586 0-23.553-.805-33.084-3.264-24.425-6.303-29.286-24.367-30.009-34.573-.149-2.098.918-3.993 2.785-4.948 1.85-.945 4.077-.693 5.675.644 37.745 31.551 105.274 14.3 134.11 6.933 2.648-.676 4.933-1.26 6.792-1.7 4.365-1.035 8.769 1.227 10.476 5.373l3.343 8.118c.741 1.8.709 3.769-.089 5.543-.79 1.755-2.288 3.125-4.109 3.759-15.318 5.326-39.968 10.105-64.33 12.475-8.04.782-19.597 1.64-31.56 1.64zm-57.948-38.357c-.023 0-.051.007-.083.023-.082.042-.079.08-.074.143.628 8.866 4.877 24.564 26.271 30.085 28.921 7.463 94.596.216 126.083-10.732.537-.187.96-.573 1.191-1.087.229-.508.238-1.072.025-1.588l-3.342-8.118c-.766-1.859-2.742-2.872-4.701-2.411-1.836.435-4.091 1.011-6.707 1.679-29.578 7.556-98.846 25.25-138.555-7.942-.031-.025-.062-.052-.108-.052z"/><path d="m82.23 150.393c-.189 0-.379-.021-.568-.065-13.965-3.258-21.044-10.363-22.528-12.004-5.973-3.722-11.616-3.619-18.14-3.5-4.449.08-9.049.165-14.062-1-11.181-2.599-17.327-13.584-19.07-17.188-1.029-.175-2.734-.286-3.96-.186-1.203.095-2.365-.409-3.114-1.354-.756-.953-.985-2.215-.612-3.375 4.691-14.602 13.298-23.421 25.583-26.213.377-.085.75-.263 1.08-.514 4.733-3.595 11.258-3.856 16.239-.652.415.267.872.434 1.359.497 9.089 1.168 20.54 7.757 24.204 19.462 2.771 8.853 8.082 11.717 8.135 11.743 1.525.806 3.21 1.403 5.061 1.802 1.247.269 2.091 1.433 1.96 2.701.382 5.491 2.112 13.36 8.158 19.944.523.57.753 1.35.623 2.113s-.607 1.422-1.291 1.785c-3.011 1.601-5.451 3.363-7.252 5.238-.478.495-1.132.766-1.805.766zm-38.019-20.61c5.786 0 11.743.548 17.918 4.518.219.141.415.315.58.516.053.064 5.936 6.961 18.769 10.315 1.378-1.275 2.985-2.488 4.806-3.629-5.014-6.548-6.809-13.762-7.366-19.242-1.586-.461-3.071-1.055-4.43-1.773-.243-.121-7.176-3.694-10.62-14.696-2.873-9.177-12.271-14.994-20.07-15.997-1.23-.158-2.384-.579-3.427-1.251-3.22-2.073-7.443-1.9-10.508.428-.891.678-1.928 1.165-2.996 1.408-10.082 2.292-17.068 9.183-21.313 21.045 1.701.042 3.835.257 5.137.847.578.262 1.035.735 1.278 1.322.052.125 5.484 12.89 16.096 15.357 4.409 1.025 8.691.945 12.839.872 1.096-.019 2.199-.04 3.307-.04z"/><path d="m99.044 191.46h-22.303c-1.806 0-3.485-.812-4.606-2.226-1.116-1.408-1.521-3.216-1.112-4.962 1.263-5.387 4.752-9.326 9.914-11.258-3.073-3.909-6.815-10.37-5.505-17.546 1.114-6.108 5.657-11.32 13.502-15.492 1.006-.535 2.246-.322 3.016.517 4.398 4.792 10.493 8.219 18.115 10.186l.29.067c.944.237 1.665 1.001 1.847 1.958s-.208 1.932-1 2.499c-4.792 3.435-6.288 7.773-4.572 13.263 2.168 6.938 2.095 12.664-.216 17.016-2.382 4.485-6.219 5.745-6.649 5.874-.235.068-.477.104-.721.104zm-9.39-46.158c-5.424 3.215-8.551 6.931-9.305 11.063-1.158 6.343 3.521 12.493 5.586 14.842.851.969 1.135 2.283.76 3.515-.382 1.254-1.37 2.204-2.644 2.541-4.422 1.171-7.168 3.913-8.161 8.149-.081.343.067.595.162.715.099.124.319.333.688.333h21.85c1.359-.604 7.176-3.989 3.265-16.504-1.88-6.017-.875-11.352 2.898-15.654-6.006-2.07-11.066-5.084-15.099-9z"/><path d="m220.659 191.46h-22.304c-1.806 0-3.485-.812-4.606-2.227-1.116-1.408-1.521-3.216-1.112-4.962 1.246-5.314 4.66-9.22 9.708-11.179-.603-.541-1.293-1.129-2.003-1.735-5.298-4.518-14.167-12.08-9.189-20.461.383-.646 1.037-1.085 1.78-1.196 10.36-1.549 20.36-3.488 28.918-5.606 1.04-.257 2.129.177 2.707 1.08.578.902.516 2.073-.154 2.91-4.03 5.034-3.409 10.917 1.847 17.488 7.708 9.635.844 20.695-3.862 25.196-.467.443-1.086.692-1.73.692zm-25.675-37.014c-1.423 4.097 3.057 8.378 8.602 13.107 1.609 1.373 3 2.558 3.964 3.655.851.969 1.135 2.283.76 3.515-.382 1.254-1.37 2.204-2.644 2.541-4.422 1.171-7.167 3.913-8.161 8.149-.081.343.067.595.162.715.098.124.318.333.688.333h21.241c2.185-2.401 8.561-10.501 2.749-17.767-6.106-7.632-6.277-13.936-4.76-18.46-6.99 1.564-14.682 2.999-22.601 4.212z"/><path d="m242.493 161.651c-7.924 0-16.957-1.436-24.448-6.417-.811-.539-1.234-1.5-1.086-2.462.429-2.787 1.62-5.416 3.54-7.814.343-.429.818-.733 1.351-.865 4.89-1.21 9.314-2.477 13.15-3.766.839-.283 1.761-.101 2.429.476 3.258 2.809 8.53 6.784 15.147 9.776 2.426 1.097 3.745 3.396 3.359 5.856-.394 2.516-2.499 4.418-5.239 4.732-2.491.288-5.272.484-8.203.484zm-20.225-9.678c8.8 5.095 19.9 5.143 27.859 4.228.59-.067.837-.332.869-.538.04-.252-.284-.439-.479-.528-6.463-2.922-11.722-6.696-15.265-9.626-3.405 1.103-7.208 2.184-11.34 3.223-.739 1.04-1.288 2.124-1.644 3.241z"/><path d="m151.016 177.286c-5.31 0-10.62-1.824-14.952-5.47-1.389-1.169-3.372-1.521-5.053-.893-10.779 4.022-23.067-.582-28.582-10.708-.382-.702-.406-1.545-.062-2.268 1.226-2.581 3.217-4.872 5.919-6.809.6-.428 1.356-.573 2.069-.392 20.705 5.235 56.212 2.894 82.554-1.044.012-.002.024-.003.037-.005.04-.006.082-.011.12-.015 1.35-.129 2.562.832 2.729 2.178.08.645-.093 1.264-.442 1.756-.845 1.513-1.341 3.726 1.56 7.454.729.938.698 2.259-.074 3.161-6.334 7.4-16.71 10.09-25.817 6.691-1.683-.627-3.664-.276-5.053.893-4.332 3.647-9.643 5.471-14.953 5.471zm-18.256-11.678c2.346 0 4.668.82 6.524 2.382 6.797 5.722 16.666 5.722 23.465 0 2.787-2.347 6.627-3.018 10.021-1.752 6.549 2.443 13.935.875 18.955-3.874-1.527-2.458-2.195-4.848-2.003-7.151-25.842 3.583-58.909 5.465-79.409.668-1.166.954-2.105 1.989-2.809 3.093 4.602 7.145 13.714 10.264 21.76 7.264 1.133-.423 2.318-.63 3.496-.63z"/><path d="m119.865 157.525c-.106 0-.212-.007-.319-.021-4.026-.519-7.637-1.187-10.731-1.985-6.488-1.674-12.062-4.344-16.567-7.936-.568-.453-.911-1.131-.939-1.858-.405-10.408 4.426-16.726 7.342-19.566.75-.731 1.877-.916 2.822-.464 6.066 2.899 12.908 5.139 20.338 6.657.709.145 1.32.59 1.676 1.22s.421 1.384.179 2.066c-2.73 7.693-2.242 14.517-1.351 18.887.161.791-.069 1.611-.619 2.202-.476.513-1.141.798-1.831.798zm-23.581-13.145c3.79 2.798 8.419 4.915 13.779 6.298 2.029.524 4.309.989 6.806 1.39-.474-4.185-.414-9.518 1.23-15.406-6.135-1.419-11.874-3.324-17.116-5.681-2.124 2.507-4.665 6.868-4.699 13.399z"/><path d="m147.927 158.704c-.952 0-1.824-.542-2.245-1.4-4.371-8.92-3.434-16.224-1.877-20.781.35-1.024 1.345-1.734 2.401-1.691 7.191.097 14.933-.275 23.002-1.118.698-.076 1.393.15 1.918.615.524.465.83 1.129.841 1.83.101 6.096 1.697 11.851 4.745 17.103.427.735.451 1.636.064 2.392s-1.131 1.265-1.976 1.35c-9.332.94-18.355 1.512-26.818 1.699-.018.001-.037.001-.055.001zm.115-18.857c-.81 3.396-.953 8.13 1.47 13.817 6.734-.187 13.816-.617 21.12-1.282-1.939-4.229-3.137-8.785-3.528-13.436-6.622.616-13.007.933-19.062.901z"/><path d="m201.053 153.432c-.75 0-1.468-.337-1.947-.932-6.496-8.07-7.27-15.57-6.774-20.441.111-1.094.924-1.987 2.003-2.2 8.306-1.641 15.604-3.408 20.37-4.594 1.306-.326 2.627.437 3.003 1.723 2.358 8.055 6.802 13.587 10.115 16.81.645.627.903 1.554.675 2.425s-.906 1.552-1.776 1.783c-7.508 1.996-16.002 3.81-25.248 5.391-.14.023-.281.035-.421.035zm-3.843-19.05c-.017 3.623.985 8.494 4.903 13.83 6.908-1.211 13.368-2.553 19.275-4.003-2.771-3.298-5.712-7.786-7.743-13.532-4.302 1.054-10.02 2.401-16.435 3.705z"/><path d="m148.54 139.843c-4.036 0-7.943-.139-11.708-.417-.685-.05-1.319-.381-1.753-.913s-.63-1.22-.542-1.901l3.826-29.559c.597-4.615 4.556-8.095 9.21-8.095h14.481c4.653 0 8.613 3.48 9.21 8.095l3.688 28.496c.085.663-.098 1.332-.509 1.859s-1.016.867-1.68.945c-8.474.992-16.58 1.49-24.223 1.49zm-8.702-5.234c9.164.506 19.175.189 29.828-.942l-3.361-25.973c-.275-2.13-2.104-3.737-4.251-3.737h-14.481c-2.148 0-3.976 1.606-4.251 3.737z"/><path d="m172.468 138.357c-1.24 0-2.313-.92-2.477-2.179l-3.686-28.484c-.032-.245-.088-.496-.166-.745-.108-.343-.141-.706-.095-1.063.493-3.897 3.402-7.075 7.239-7.908l14.152-3.069c4.549-.988 9.154 1.576 10.716 5.959l10.064 28.246c.24.672.18 1.416-.163 2.042-.344.626-.938 1.075-1.634 1.234-12.118 2.771-23.127 4.718-33.657 5.951-.098.011-.197.016-.293.016zm-1.385-32.28c.078.324.139.649.181.974v.002l3.367 26.022c8.804-1.117 17.989-2.742 27.927-4.942l-9.117-25.587c-.721-2.023-2.846-3.209-4.947-2.75l-14.152 3.069c-1.622.352-2.886 1.616-3.259 3.212z"/><path d="m205.859 132.453c-1.036 0-1.993-.648-2.354-1.662l-10.063-28.245c-.074-.207-.17-.416-.294-.641-.144-.258-.24-.54-.285-.832-.623-4.041 1.428-7.96 5.102-9.754l9.358-4.57c.965-.47 2.121-.273 2.875.489 11.684 11.813 18.976 26.092 23.035 35.99.333.813.216 1.741-.31 2.445s-1.386 1.077-2.257.991c-.473-.049-.925-.022-1.346.078-1.835.435-4.089 1.01-6.703 1.678-4.432 1.132-9.948 2.54-16.199 3.97-.187.042-.375.063-.559.063zm-8.095-32.506c.149.306.278.611.388.921l9.316 26.146c5.306-1.242 10.027-2.447 13.912-3.439 2.254-.576 4.244-1.083 5.932-1.493-3.895-8.827-10.145-20.239-19.425-30.043l-7.728 3.773c-1.585.773-2.515 2.404-2.395 4.135z"/><path d="m137.021 139.419c-.062 0-.124-.002-.187-.007-12.682-.937-24.046-3.473-33.778-7.537-1.227-.512-1.837-1.895-1.392-3.146l9.927-27.862c1.562-4.384 6.17-6.944 10.716-5.959l14.152 3.069c3.753.814 6.577 3.792 7.193 7.586.067.417.029.843-.113 1.24-.11.308-.182.599-.219.888v.001l-3.824 29.546c-.161 1.257-1.23 2.181-2.475 2.181zm-29.838-11.277c8.123 3.109 17.408 5.153 27.663 6.09l3.517-27.177c.051-.398.131-.8.24-1.202-.434-1.503-1.645-2.65-3.203-2.988l-14.152-3.069c-2.102-.459-4.227.727-4.947 2.751zm33.659-20.768h.01z"/><path d="m104.022 132.061c-.327 0-.655-.064-.963-.193-7.126-2.976-13.519-6.807-19.001-11.389-1.259-.554-1.898-2.06-1.35-3.322 4.888-11.257 11.184-20.996 18.714-28.946.751-.793 1.93-1.006 2.912-.527l7.444 3.635c3.674 1.794 5.724 5.714 5.102 9.754-.045.292-.141.574-.285.832-.125.225-.221.434-.294.641l-9.924 27.854c-.23.646-.716 1.17-1.344 1.447-.321.143-.666.214-1.011.214zm-15.919-14.73c4.271 3.443 9.124 6.417 14.464 8.865l9.024-25.328c.11-.31.239-.615.388-.921.12-1.731-.81-3.362-2.395-4.135l-5.775-2.82c-6.183 6.834-11.456 15.006-15.706 24.339zm25.844-15.624h.01z"/><path d="m195.334 103.193c-.888 0-1.736-.475-2.187-1.288-.909-1.639-2.822-2.505-4.652-2.109l-12.213 2.649c-1.312.284-2.61-.516-2.949-1.812-2.206-8.45-3.746-18.287-3.746-23.922 0-2.366 1.046-4.374 2.945-5.655 3.695-2.492 9.902-1.797 14.104-.099 4.628 1.871 13.843 6.473 23.558 16.281.567.572.823 1.383.688 2.177s-.644 1.475-1.368 1.829l-9.357 4.569c-1.696.828-2.642 2.636-2.354 4.5.185 1.197-.516 2.354-1.662 2.746-.265.09-.538.134-.807.134zm-16.481-28.775c-1.475 0-2.746.257-3.524.782-.526.355-.741.792-.741 1.51 0 4.056 1.028 12.098 3.002 20.334l9.846-2.136c2.165-.47 4.337-.157 6.194.793.876-1.863 2.375-3.426 4.335-4.383l6.152-3.004c-8.113-7.504-15.48-11.158-19.354-12.723-1.915-.774-4.072-1.173-5.91-1.173z"/><path d="m114.41 103.193c-.269 0-.542-.044-.809-.135-1.146-.392-1.846-1.549-1.662-2.746.287-1.864-.659-3.672-2.354-4.5l-7.443-3.634c-.715-.349-1.221-1.018-1.363-1.801s.098-1.587.646-2.165c7.447-7.858 16.038-13.823 25.534-17.728 3.31-1.361 7.068-1.156 9.573.523 1.929 1.292 2.991 3.318 2.991 5.703 0 5.597-1.526 15.379-3.71 23.79-.337 1.298-1.637 2.1-2.95 1.815l-11.615-2.519c-1.834-.398-3.744.471-4.652 2.109-.45.812-1.298 1.288-2.186 1.288zm5.899-8.5c.661 0 1.33.07 2 .215l9.245 2.005c1.953-8.191 2.97-16.179 2.97-20.204 0-.713-.239-1.191-.774-1.55-1.123-.751-3.133-.773-4.889-.052-7.833 3.221-15.015 7.959-21.391 14.106l4.31 2.104c1.96.957 3.458 2.52 4.335 4.383 1.282-.654 2.716-1.007 4.194-1.007z"/><path d="m168.522 108.7c-1.082 0-2.052-.7-2.383-1.748-.565-1.791-2.207-2.995-4.086-2.995h-14.481c-1.805 0-3.425 1.144-4.032 2.847-.383 1.075-1.447 1.753-2.582 1.65-1.136-.104-2.058-.963-2.241-2.089-.284-1.752-1.586-3.126-3.317-3.501l-2.537-.55c-.665-.145-1.243-.554-1.6-1.133-.356-.58-.461-1.28-.291-1.938 2.331-8.972 3.55-18.126 3.55-22.533 0-.768-.274-1.254-.918-1.626-.771-.447-1.247-1.27-1.248-2.161-.001-.892.473-1.716 1.243-2.164 6.652-3.869 24.099-11.628 42.425-.164.777.486 1.226 1.359 1.169 2.274s-.609 1.726-1.441 2.112c-.971.452-1.166.997-1.166 1.729 0 4.438 1.231 13.646 3.584 22.66.172.659.068 1.36-.289 1.94-.356.581-.935.99-1.6 1.135l-1.939.42c-1.77.384-3.111 1.851-3.339 3.649-.147 1.165-1.086 2.071-2.256 2.176-.075.007-.15.01-.225.01zm-20.949-9.742h14.481c2.274 0 4.388.813 6.024 2.208 1.178-1.437 2.781-2.516 4.629-3.043-1.865-7.821-3.12-16.328-3.12-21.413 0-1.312.312-2.496.909-3.508-12.634-6.451-24.379-3.166-31.669.425.455.927.696 1.97.696 3.083 0 5.044-1.239 13.489-3.083 21.264l.021.004c2.086.453 3.885 1.574 5.177 3.132 1.633-1.358 3.719-2.152 5.935-2.152z"/><path d="m76.741 191.46h-14.553c-1.806 0-3.485-.812-4.607-2.227-1.116-1.408-1.521-3.216-1.111-4.962 1.262-5.386 4.752-9.325 9.914-11.258-2.923-3.722-6.512-9.841-5.636-16.691.688-5.383 3.994-10.115 9.824-14.065.735-.498 1.679-.567 2.478-.187 2.85 1.358 5.914 2.446 9.117 3.237.423-.024.861.063 1.266.266.713.356 1.214 1.032 1.348 1.818.133.786-.114 1.589-.67 2.161-3.374 3.475-7.623 10.908 1.824 21.655.851.969 1.135 2.283.76 3.515-.382 1.254-1.37 2.204-2.644 2.541-4.422 1.171-7.167 3.913-8.161 8.148-.081.343.067.595.162.715.099.124.319.333.688.333 1.381 0 2.5 1.119 2.5 2.5s-1.118 2.501-2.499 2.501zm-4.494-44.259c-3.885 2.913-6.083 6.19-6.539 9.755-.785 6.142 3.707 12.012 5.675 14.251.851.969 1.135 2.283.76 3.515-.382 1.254-1.37 2.204-2.644 2.541-4.422 1.171-7.168 3.913-8.161 8.148-.081.343.067.596.162.715.099.124.319.333.688.333h8.74c-.106-.718-.077-1.458.094-2.188 1.264-5.388 4.756-9.329 9.921-11.26-3.476-4.473-9.226-14.195-3.033-23.699-1.948-.602-3.841-1.307-5.663-2.111z"/><path d="m198.355 191.46h-14.552c-1.806 0-3.485-.812-4.606-2.227-1.116-1.408-1.521-3.216-1.112-4.962 1.246-5.314 4.66-9.22 9.708-11.179-.605-.543-1.299-1.135-2.013-1.743l-1.032-.882c-.671-.577-.986-1.466-.831-2.336.156-.871.761-1.595 1.59-1.903 2.917-1.083 5.522-2.898 7.533-5.247.488-.57 1.208-.904 1.958-.874.75.018 1.454.372 1.915.964 1.825 2.345 4.401 4.543 6.674 6.482 1.609 1.373 2.999 2.558 3.962 3.655.851.969 1.135 2.283.76 3.515-.382 1.254-1.37 2.204-2.644 2.541-4.422 1.171-7.167 3.913-8.161 8.149-.081.343.067.595.162.715.098.124.318.333.688.333 1.381 0 2.5 1.119 2.5 2.5s-1.118 2.499-2.499 2.499zm-7.44-22.284c.812.721 1.52 1.391 2.082 2.031.852.969 1.136 2.283.761 3.515-.382 1.254-1.37 2.204-2.644 2.541-4.422 1.171-7.167 3.913-8.161 8.149-.081.343.067.595.162.715.098.124.318.333.688.333h8.74c-.106-.718-.077-1.459.094-2.189 1.246-5.314 4.66-9.22 9.708-11.179-.603-.541-1.292-1.129-2.002-1.735-1.705-1.455-3.715-3.169-5.508-5.059-1.202 1.092-2.517 2.057-3.92 2.878zm4.156 15.666h.01z"/><path d="m151.017 177.286c-5.311 0-10.621-1.823-14.952-5.47-.845-.711-1.928-1.135-3.05-1.194-.697-.036-1.347-.362-1.793-.899s-.647-1.236-.555-1.928l1.596-11.969c.169-1.272 1.245-2.215 2.559-2.168 9.404.303 19.969 0 31.4-.903 1.295-.103 2.458.809 2.665 2.094l2.084 12.921c.109.679-.066 1.373-.484 1.919s-1.043.896-1.728.966c-1.052.108-2.016.51-2.789 1.16-4.333 3.647-9.643 5.471-14.953 5.471zm-15.084-11.158c1.224.403 2.368 1.034 3.352 1.863 6.798 5.723 16.666 5.722 23.464 0 .871-.733 1.855-1.307 2.917-1.706l-1.35-8.371c-9.841.716-19.035.985-27.395.802z"/></svg>