<svg enable-background="new 0 0 256 256" height="512" viewBox="0 0 256 256" width="512" xmlns="http://www.w3.org/2000/svg"><path d="m144.135 193.322c-2.193-5.483-6.596-13.451-10.426-20.011-2.102-.085-4.155-.209-6.121-.401-1.342.305-2.711.586-4.136.817-3.049.494-5.96.777-8.766.907 6.592 13.804 21.065 24.296 21.065 24.296-2.305 4.954-4.795 23.392-5.768 29.228-.685 4.112-2.875 10.864-3.863 13.801-.268.796-1.123 1.225-1.927.983-8.171-2.457-10.534-.611-14.304 3.133-1.113 1.106-2.075 3.289-1.526 5.108.512 1.696 1.948 2.638 4.026 1.981 2.607-.824 6.315-1.699 8.885-1.056 3.129.782 6.259.44 7.772.186.583-.098 1.179-.017 1.714.234 1.218.571 3.757 1.44 6.843.669 2.16-.54 3.784-.276 4.873.127.787.291 1.619-.412 1.45-1.234-1.116-5.424-6.323-5.424-6.323-5.424-4.354-4.354 8.709-43.544 8.709-43.544 3.266-7.623-2.177-9.8-2.177-9.8z" fill="#f98080"/><path d="m125.629 193.322c-.838-2.096-2.001-4.556-3.329-7.16-2.85-3.394-5.581-7.31-7.594-11.528-7.251.339-13.711-.452-19.428-2.019 6.057 14.788 21.967 26.316 21.967 26.316-2.305 4.954-4.795 23.392-5.768 29.228-.685 4.112-2.875 10.864-3.863 13.801-.268.796-1.123 1.225-1.927.983-8.171-2.457-10.534-.611-14.304 3.133-1.113 1.106-2.075 3.289-1.526 5.108.512 1.696 1.948 2.638 4.026 1.981 2.607-.824 6.315-1.699 8.885-1.056 2.33.583 4.657.541 6.32.377-.318-.352-.569-.787-.724-1.302-.549-1.819.413-4.001 1.526-5.108 2.644-2.626 4.603-4.311 8.352-4.24.54-11.634 9.564-38.716 9.564-38.716 3.266-7.621-2.177-9.798-2.177-9.798z" fill="#f98080"/><path d="m55.219 111.992c.526.216 1.086-.224 1.002-.787-.599-3.988-.849-7.136 2.02-10.069.706-.722 1.538-1.336 2.431-1.83-4.214-13.066 5.227-32.406 11.143-44.686 4.572-8.986 5.627-16.211 5.07-21.81-.137-1.38.073-2.768.536-4.076.671-1.893 1.112-4.631 1.193-7.408.252-1.105.397-2.249.397-3.431-.001-8.502-6.893-15.395-15.396-15.395-6.451 0-11.967 3.972-14.257 9.6-.26.606-.378.987-.378.987l.003.037c-.004.012-.006.023-.01.035-.038.44-.125 3.052 2.983 4.606 3.401 1.701 1.701 4.252 1.701 4.252 0 4.252-3.512 6.463-3.512 6.463 7.34 2.55 11.687 11.329 8.172 18.259-5.618 11.074-11.7 22.791-14.414 34.999-2.632 11.841-1.441 21.907 3.495 30.067 2.132-1.072 4.872-1.027 7.821.187z" fill="#f98080"/><g fill="#f9bd55"><path d="m51.957 17.765c-3.401-1.701-2.976-4.677-2.976-4.677s-12.345.374-16.683 10.246c-.347.79.442 1.608 1.243 1.288l2.259-.904c7.653-3.401 17.858-1.701 17.858-1.701s1.7-2.551-1.701-4.252z"/><path d="m35.8 23.717-.843.337s10.936.173 15.188 4.425c0 0 3.512-2.211 3.512-6.463 0 .001-10.204-1.7-17.857 1.701z"/><path d="m51.957 17.765c-3.401-1.701-2.976-4.677-2.976-4.677s-12.345.374-16.683 10.246c-.347.79.442 1.608 1.243 1.288l2.259-.904c7.653-3.401 17.858-1.701 17.858-1.701s1.7-2.551-1.701-4.252z"/><path d="m35.8 23.717-.843.337s10.936.173 15.188 4.425c0 0 3.512-2.211 3.512-6.463 0 .001-10.204-1.7-17.857 1.701z"/></g><path d="m173.527 117.12c0-13.063-8.709-5.443-8.709-5.443-2.462-7.387-6.162-1.779-7.834 1.428-.464.889-1.639 1.074-2.367.384-27.659-26.263-58.107-17.159-67.734-13.266-1.68.679-3.555.864-5.277.298-3.48-1.143-7.367.112-9.528 3.056-.38.518-1.182.361-1.306-.269-.427-2.18-1.691-4.245-3.879-4.894-3.047-.904-6.431.451-8.654 2.723-2.87 2.933-2.62 6.081-2.02 10.069.084.562-.476 1.003-1.002.787-4.289-1.765-8.169-1.117-10.315 1.955-2.712 3.883-.738 8.163 2.291 9.543.566.258.561 1.044.005 1.324-5.699 2.865-3.919 7.732.237 8.735.971.234 1.966.251 2.96.152.706-.07 1.048.822.515 1.29-.496.434-.871.947-.953 1.667-.125 1.1.59 2.117 1.592 2.589 1.083.51 2.202.477 3.305.237 1.203-.262 2.429.3 2.972 1.405 4.128 8.403 22.618 39.813 65.623 32.839 1.425-.231 2.794-.512 4.136-.817 4.947.482 10.315.64 16.14.407.001 0 .003-.001.004-.001 1.206-.048 2.436-.117 3.681-.2.237-.015.476-.032.715-.049 1.24-.088 2.492-.187 3.771-.309.001-.001.002-.001.002-.001 1.267-.121 2.559-.265 3.865-.42.3-.036.601-.073.904-.111 1.309-.163 2.63-.338 3.979-.537 0 0-.452-3.056-3.224-6.528-1.21-1.515-2.883-3.104-5.132-4.557 13.371-11.709 17.219-26.913 17.865-29.899.074-.341.27-.647.544-.863 13.486-10.593 2.828-12.724 2.828-12.724z" fill="#52565b"/><path d="m149.522 159.033s-.736-9.175-8.809-14.018c0 0-1.652-15.931-16.93-16.27.122.082 6.657 4.506 6.465 13.133 0 0 8.059 4.932 6.638 13.661 0 0 9.307 4.271 6.842 17.778 5.262-.211 10.893-.737 16.919-1.628.001.001-1.156-7.822-11.125-12.656z" fill="#e3e4e5"/><path d="m223.341 113.433c-1.499-3.78-5.323-5.189-5.5-7.803-.071-1.053.481-2.05.57-3.101.335-3.951-4.724-5.608-6.809-6.607-.667-.319-1.357-.707-1.702-1.361-.753-1.426-.004-3.17.466-4.712.922-3.027-2.418-5.253-6.697-5.684-1.724-.174-3.447.022-5.142.382-1.758.374-1.923-.158-3.367-1.106-5.024-3.298-9.477-2.184-14.386.493-7.932 4.327-14.589 14.361-18.858 24.106 1.025.061 2.039 1.051 2.901 3.637 0 0 8.709-7.62 8.709 5.443 0 0 6.385 1.282 3.004 6.778 1.45-.525 2.907-1.029 4.361-1.53 10.136-3.495 21.165-7.011 31.354-3.674 2.247.736 7.698 3.387 10.527.041 1.207-1.425 1.257-3.566.569-5.302z" fill="#e3e4e5"/><path d="m60.909 20.419c-1.377 0-2.495-1.114-2.5-2.492-.006-1.819.697-3.532 1.98-4.823 1.282-1.291 2.99-2.005 4.811-2.011h.022c1.812 0 3.516.702 4.801 1.979 1.292 1.283 2.006 2.992 2.011 4.812.004 1.38-1.112 2.503-2.493 2.507-.002 0-.005 0-.007 0-1.378 0-2.496-1.114-2.5-2.493-.001-.483-.191-.938-.534-1.279-.343-.34-.796-.526-1.277-.526-.002 0-.004 0-.007 0-.999.003-1.81.818-1.807 1.818.005 1.38-1.111 2.503-2.492 2.508-.002 0-.005 0-.008 0z"/><path d="m138.325 175.941c-18.193.001-33.242-3.899-44.919-11.665-17.022-11.321-20.53-26.982-21.199-31.513-.519-3.506-.41-6.98.32-10.327.294-1.348 1.621-2.205 2.976-1.909 1.349.294 2.204 1.627 1.909 2.976-.602 2.755-.688 5.624-.259 8.53.593 4.014 3.718 17.901 19.021 28.08 14.615 9.721 35.178 12.915 61.15 9.516-1.102-2.295-3.557-5.758-8.895-8.346-.797-.387-1.33-1.167-1.401-2.05-.006-.069-.781-7.982-7.603-12.075-.675-.405-1.12-1.104-1.201-1.888-.007-.063-.837-7.174-5.955-11.205-3.022-2.379-7.031-3.266-11.925-2.64-1.36.167-2.622-.791-2.798-2.161-.176-1.369.791-2.622 2.161-2.798 6.295-.81 11.575.437 15.697 3.704 5.353 4.241 7.088 10.657 7.6 13.346 6.34 4.331 8.249 10.968 8.799 13.878 9.943 5.383 11.263 13.57 11.315 13.93.098.655-.07 1.323-.466 1.855-.395.532-.985.886-1.642.982-8.026 1.189-15.596 1.78-22.685 1.78z"/><path d="m143.729 175.817c-.723 0-1.411-.312-1.888-.86-.497-.573-.708-1.342-.571-2.088 2.091-11.464-5.352-15.023-5.427-15.058-1.022-.47-1.605-1.563-1.425-2.674 1.139-6.99-5.409-11.087-5.475-11.128-.76-.464-1.215-1.298-1.194-2.188.158-7.156-5.139-10.851-5.364-11.005-.914-.623-1.315-1.777-.978-2.832.339-1.054 1.328-1.782 2.432-1.739 12.972.287 18.072 10.81 19.19 17.286 6.322 4.331 8.227 10.955 8.775 13.862 9.943 5.383 11.263 13.57 11.315 13.93.098.655-.07 1.323-.466 1.855-.395.532-.985.886-1.642.982-5.938.878-11.72 1.435-17.184 1.653-.032.003-.065.004-.098.004zm-4.19-21.62c3.414 2.358 7.623 7.713 7.038 16.472 3.478-.214 7.073-.562 10.747-1.041-1.101-2.295-3.556-5.757-8.894-8.345-.794-.386-1.326-1.161-1.4-2.041-.009-.102-.792-7.997-7.604-12.084-.675-.404-1.119-1.104-1.2-1.886-.048-.433-1.032-8.571-7.576-12.251 1.081 2.035 1.932 4.556 2.079 7.558 2.315 1.8 7.169 6.455 6.81 13.618z"/><path d="m149.52 161.534c-.366 0-.737-.081-1.089-.252-5.446-2.641-12.681-3.79-21.498-3.399-1.371.062-2.547-1.009-2.607-2.389s1.01-2.547 2.389-2.607c9.661-.415 17.696.89 23.898 3.897 1.242.602 1.761 2.098 1.158 3.34-.432.891-1.324 1.41-2.251 1.41z"/><path d="m140.711 147.515c-.438 0-.882-.114-1.284-.356-3.72-2.233-8.628-3.014-14.599-2.312-1.356.149-2.612-.821-2.773-2.193-.16-1.371.821-2.612 2.193-2.773 7.086-.827 13.062.178 17.751 2.992 1.185.711 1.568 2.246.857 3.43-.468.779-1.296 1.212-2.145 1.212z"/><path d="m111.26 177.246c-35.358 0-51.329-26.407-55.675-35.255-.031-.066-.119-.081-.193-.065-1.848.402-3.452.267-4.904-.418-2.041-.958-3.251-3.021-3.012-5.132.011-.088.022-.175.037-.262-.224-.038-.444-.083-.662-.136-3.151-.76-5.399-3.087-5.727-5.928-.132-1.147-.054-3.706 2.622-5.962-1.088-1.078-1.904-2.453-2.318-3.971-.704-2.578-.197-5.278 1.427-7.604 2.302-3.296 6.191-4.61 10.542-3.698-.256-3.027.069-6.375 3.058-9.429 3.078-3.145 7.457-4.472 11.151-3.371 1.964.582 3.572 1.971 4.602 3.897 2.847-2.18 6.696-2.914 10.18-1.769 1.055.344 2.317.261 3.56-.24 9.094-3.68 40.751-13.503 69.453 12.893 2.155-3.722 4.358-5.447 6.75-5.251 1.47.116 2.708.941 3.703 2.459 1.71-.866 3.988-1.523 6.125-.554 3.147 1.428 3.849 5.306 4.005 7.872 1.479.674 3.327 1.966 3.89 4.319.821 3.444-1.584 7.354-7.352 11.946-.82 3.578-4.602 17.33-16.313 28.794 1.193.995 2.254 2.071 3.17 3.219 3.104 3.886 3.688 7.341 3.744 7.722.201 1.365-.741 2.636-2.106 2.838-1.368.203-2.709.38-4.036.545l-.914.113c-1.329.157-2.64.304-3.927.426-1.3.125-2.572.226-3.833.315l-.726.05c-1.248.083-2.479.153-3.688.201-.021.001-.042.002-.062.003-5.602.222-11.007.096-16.081-.379-1.423.317-2.67.56-3.896.759-4.449.723-8.643 1.053-12.594 1.053zm-55.81-40.327c1.939 0 3.746 1.082 4.623 2.867 4.448 9.058 22.144 38.092 62.978 31.474 1.232-.2 2.498-.45 3.983-.787.261-.061.532-.078.796-.051 4.946.482 10.241.617 15.741.399.054-.003.107-.005.161-.005 1.087-.044 2.295-.113 3.518-.193l.694-.049c1.228-.087 2.459-.184 3.718-.304 1.248-.12 2.521-.262 3.809-.415l.885-.109c.316-.039.634-.079.951-.12-.408-.848-.997-1.853-1.837-2.903-1.188-1.489-2.715-2.841-4.536-4.019-.658-.426-1.079-1.136-1.136-1.918-.058-.782.256-1.546.846-2.062 12.795-11.204 16.464-25.745 17.069-28.547.194-.903.706-1.722 1.441-2.3 6.279-4.932 5.874-6.988 5.854-7.073-.136-.569-1.373-1.112-1.971-1.232-1.169-.233-2.01-1.26-2.01-2.451 0-3.78-.806-4.975-1.116-5.115-.581-.259-2.412.648-3.446 1.554-.631.551-1.491.75-2.302.531-.808-.22-1.452-.829-1.717-1.623-.312-.934-.591-1.46-.778-1.742-.48.405-1.363 1.419-2.467 3.536-.584 1.122-1.634 1.885-2.879 2.093-1.249.213-2.5-.174-3.425-1.051-26.782-25.431-56.581-16.196-65.076-12.763-2.333.944-4.819 1.069-6.995.355-2.441-.801-5.208.085-6.731 2.16-.765 1.04-2.066 1.531-3.325 1.253-1.243-.278-2.205-1.269-2.45-2.522-.113-.583-.605-2.522-2.136-2.977-2.204-.651-4.683.569-6.155 2.074-1.978 2.021-1.919 4.07-1.335 7.949.172 1.152-.29 2.312-1.206 3.027s-2.151.885-3.222.441c-1.53-.629-5.311-1.788-7.312 1.076-.974 1.393-.92 2.63-.703 3.423.291 1.064 1.05 1.99 1.981 2.415 1.139.52 1.861 1.617 1.885 2.866.024 1.261-.663 2.396-1.794 2.965-1.465.736-2.319 1.668-2.231 2.433.066.581.7 1.342 1.933 1.639.603.146 1.299.176 2.126.096 1.399-.139 2.697.629 3.253 1.911.565 1.304.227 2.809-.844 3.746-.02.017-.036.031-.051.045.028.023.063.048.106.067.292.138.749.267 1.71.058.376-.083.753-.122 1.125-.122zm117.151-5.689-.001.003zm3.426-14.11h.01z"/><path d="m176.532 126.398c-.737 0-1.455-.326-1.939-.921-.671-.824-.748-1.983-.19-2.889.505-.822.719-1.521.57-1.87-.219-.515-1.296-1.008-1.956-1.151-1.149-.25-1.989-1.271-1.989-2.447 0-3.78-.806-4.975-1.116-5.115-.581-.259-2.412.648-3.446 1.554-.631.551-1.494.753-2.302.53-.808-.219-1.452-.828-1.717-1.622-.427-1.28-.794-1.792-.944-1.962-.709-.119-1.337-.54-1.717-1.16-.427-.697-.485-1.559-.157-2.308 2.494-5.694 9.43-19.559 19.95-25.297 4.737-2.584 10.456-4.654 16.955-.389.326.214.596.409.833.582.116.084.214.162.311.226.069-.008.177-.024.331-.058 2.19-.465 4.124-.604 5.913-.424 3.71.374 6.673 1.844 8.129 4.031.97 1.456 1.221 3.186.708 4.869-.066.217-.138.438-.21.661-.197.612-.556 1.723-.457 2.1.072.056.234.157.594.33.232.111.508.232.811.365 2.549 1.123 7.852 3.459 7.407 8.706-.059.686-.223 1.271-.367 1.789-.095.337-.212.758-.2.932.026.382.882 1.227 1.569 1.906 1.26 1.245 2.828 2.794 3.761 5.144 1.111 2.805.735 5.809-.982 7.84-3.604 4.258-9.479 2.088-12.302 1.047-.345-.128-.652-.242-.913-.327-9.08-2.975-18.851-.1-29.762 3.661-1.44.497-2.886.996-4.322 1.518-.282.101-.57.149-.854.149zm-.55-11.068c1.266.581 2.802 1.617 3.573 3.389.164.377.307.822.389 1.332.044-.016.088-.031.133-.046 9.087-3.132 21.531-7.422 32.947-3.687.311.102.678.236 1.088.388 2.62.967 5.517 1.876 6.752.416.501-.593.563-1.73.152-2.768-.545-1.374-1.556-2.373-2.626-3.431-1.354-1.338-2.89-2.854-3.044-5.124-.07-1.032.176-1.911.373-2.617.094-.335.182-.651.2-.866.132-1.557-2.121-2.685-4.44-3.706-.356-.157-.681-.301-.957-.433-1.021-.49-2.154-1.164-2.832-2.448-1.146-2.171-.426-4.399.1-6.026.063-.196.127-.391.185-.582.08-.263.059-.425-.087-.642-.473-.711-2.073-1.585-4.469-1.827-1.284-.132-2.673-.021-4.37.34-2.312.493-3.418-.139-4.623-1.015-.181-.132-.386-.282-.636-.445-3.547-2.326-6.748-2.165-11.817.597-6.061 3.307-12.139 10.871-16.861 20.922.261.28.508.599.742.955 1.71-.868 3.987-1.523 6.124-.554 3.149 1.429 3.849 5.312 4.004 7.878z"/><path d="m174.614 106.557c-.421 0-.847-.105-1.238-.329-1.199-.686-1.615-2.213-.931-3.411 9.109-15.94 24.771-20.569 25.434-20.758 1.325-.384 2.711.389 3.09 1.717.379 1.325-.387 2.708-1.712 3.089-.143.042-14.402 4.314-22.47 18.433-.462.806-1.306 1.259-2.173 1.259z"/><path d="m181.691 111.455c-.64 0-1.279-.244-1.768-.732-.977-.977-.977-2.56 0-3.535 14.833-14.832 33.113-12.969 33.885-12.881 1.372.154 2.359 1.392 2.205 2.764-.154 1.37-1.386 2.354-2.758 2.206-.165-.018-16.718-1.632-29.797 11.446-.487.488-1.127.732-1.767.732z"/><path d="m135.142 256c-2.413 0-4.342-.693-5.442-1.21-.076-.036-.156-.047-.241-.032-1.757.296-5.239.661-8.79-.226-1.529-.385-4.272-.015-7.524 1.015-2.062.652-3.589.212-4.509-.274-1.265-.667-2.211-1.863-2.665-3.367-.871-2.888.509-5.966 2.158-7.604 4.095-4.068 7.264-6.405 15.912-4.006 1.021-3.088 2.879-8.957 3.478-12.549.176-1.053.4-2.519.665-4.242 1.438-9.353 2.964-18.769 4.573-23.72-3.999-3.168-14.749-12.396-20.326-24.073-.361-.756-.319-1.643.111-2.361.43-.719 1.192-1.175 2.029-1.213 2.895-.134 5.669-.421 8.48-.877 1.232-.2 2.498-.45 3.983-.787.261-.061.529-.078.797-.051 1.757.172 3.713.3 5.979.392.853.034 1.628.501 2.059 1.237 4.865 8.333 8.31 14.892 10.248 19.515.944.612 2.286 1.764 3.087 3.697 1.032 2.491.847 5.433-.551 8.742-6.899 20.721-10.085 36.364-9.387 40.347 2.628.558 6.132 2.479 7.109 7.232.261 1.265-.19 2.579-1.18 3.43-.992.854-2.364 1.104-3.586.653-.659-.245-1.782-.452-3.399-.046-1.084.27-2.114.378-3.068.378zm6.336-3.406h.01zm-11.945-2.843c.789 0 1.566.173 2.289.512.937.439 2.853 1.091 5.175.507 1.163-.291 2.313-.407 3.405-.367-1.052-1.116-2.458-1.229-2.829-1.238-.641-.017-1.284-.279-1.737-.732-1.941-1.94-3.033-6.411 2.071-25.81 2.711-10.301 6.001-20.194 6.033-20.294.022-.065.047-.13.074-.193.873-2.036 1.069-3.751.569-4.958-.451-1.09-1.368-1.529-1.378-1.533-.635-.254-1.139-.758-1.393-1.393-1.664-4.161-4.969-10.542-9.58-18.503-1.634-.081-3.114-.185-4.485-.312-1.423.317-2.671.56-3.896.759-1.718.278-3.423.498-5.146.661 6.767 11.451 18.385 19.957 18.513 20.049.969.703 1.304 1.994.799 3.079-1.735 3.73-3.789 17.098-4.893 24.279-.269 1.749-.498 3.236-.676 4.305-.694 4.163-2.778 10.675-3.958 14.187-.702 2.082-2.902 3.22-5.019 2.58-7.132-2.144-8.603-.685-11.821 2.514-.599.595-1.12 1.865-.895 2.612.081.27.183.375.212.39.045.024.256.058.667-.071 4.29-1.355 7.737-1.724 10.245-1.099 2.771.694 5.644.333 6.75.146.303-.052.604-.077.904-.077z"/><path d="m92.618 255.875c-1.065 0-1.901-.292-2.489-.603-1.265-.667-2.211-1.863-2.665-3.367-.872-2.886.508-5.965 2.158-7.604 4.095-4.068 7.26-6.405 15.912-4.006 1.021-3.087 2.877-8.949 3.477-12.548.175-1.053.4-2.518.665-4.24 1.438-9.354 2.964-18.77 4.573-23.722-4.246-3.36-16.088-13.536-21.285-26.224-.361-.881-.189-1.892.442-2.604.631-.714 1.614-1.004 2.532-.754 5.799 1.591 12.073 2.236 18.649 1.934 1.017-.051 1.94.512 2.373 1.42 1.733 3.63 4.174 7.33 7.253 10.998.122.145.228.303.313.472 1.271 2.494 2.307 4.688 3.083 6.539.944.611 2.286 1.764 3.087 3.697 1.031 2.491.847 5.431-.551 8.74-.579 1.752-8.904 27.127-9.407 37.948-.062 1.353-1.17 2.383-2.545 2.384-2.661-.056-3.989.977-6.543 3.514-.599.595-1.12 1.865-.895 2.612.043.142.104.257.187.348.633.701.816 1.698.476 2.578s-1.147 1.493-2.087 1.586c-1.773.173-4.456.237-7.171-.441-1.529-.384-4.273-.013-7.523 1.016-.743.234-1.417.327-2.019.327zm6.937-11.553c-2.859 0-4.235 1.367-6.409 3.526-.599.595-1.12 1.865-.895 2.61.081.271.183.377.212.392.045.024.256.058.667-.071 4.291-1.355 7.737-1.724 10.245-1.099.782.196 1.572.308 2.326.363 0-1.733.655-3.41 1.54-4.68-.719.199-1.502.204-2.275-.029-2.316-.695-4.035-1.012-5.411-1.012zm.257-68.123c6.696 11.775 18.762 20.607 18.898 20.706.97.702 1.305 1.993.8 3.078-1.735 3.732-3.789 17.101-4.894 24.283-.269 1.748-.497 3.234-.675 4.302-.676 4.062-2.668 10.334-3.862 13.899 1.696-1.461 3.479-2.559 5.842-2.964 1.368-12.628 9.161-36.121 9.512-37.175.022-.066.047-.131.074-.195.873-2.036 1.07-3.75.57-4.957-.451-1.09-1.368-1.529-1.378-1.533-.635-.254-1.139-.758-1.393-1.394-.725-1.813-1.771-4.066-3.107-6.701-2.856-3.43-5.21-6.906-7.013-10.359-4.606.107-9.085-.219-13.374-.99z"/><path d="m33.18 27.191c-.92 0-1.819-.368-2.487-1.06-.984-1.017-1.253-2.51-.685-3.804 4.918-11.188 18.328-11.722 18.896-11.739.745-.028 1.448.283 1.939.833.492.55.716 1.289.611 2.021-.013.23.039 1.296 1.619 2.086h.001c2.242 1.122 3.056 2.648 3.343 3.731.564 2.126-.468 3.825-.681 4.144-.546.818-1.513 1.243-2.491 1.079-.092-.016-9.576-1.528-16.431 1.52l-2.346.94c-.418.168-.856.249-1.288.249zm13.73-11.338c-2.494.445-6.656 1.617-9.703 4.663 4.284-1.356 8.889-1.521 12.202-1.395-1.299-.977-2.072-2.147-2.499-3.268z"/><path d="m50.146 30.979c-.646 0-1.286-.25-1.769-.732-2.887-2.886-10.885-3.652-13.459-3.692-1.191-.02-2.204-.876-2.42-2.047s.425-2.332 1.531-2.774l.8-.32c8.238-3.635 18.792-1.936 19.239-1.862 1.205.2 2.089 1.244 2.089 2.466 0 5.568-4.49 8.458-4.681 8.579-.41.257-.872.382-1.33.382zm-2.22-6.883c.732.327 1.436.696 2.088 1.112.224-.284.444-.619.633-1.003-.783-.057-1.706-.101-2.721-.109z"/><path d="m33.18 27.191c-.92 0-1.819-.368-2.487-1.06-.984-1.017-1.253-2.51-.685-3.804 4.918-11.188 18.328-11.722 18.896-11.739.745-.028 1.448.283 1.939.833.492.55.716 1.289.611 2.021-.013.23.039 1.296 1.619 2.086h.001c2.242 1.122 3.056 2.648 3.343 3.731.564 2.126-.468 3.825-.681 4.144-.546.818-1.513 1.243-2.491 1.079-.092-.016-9.576-1.528-16.431 1.52l-2.346.94c-.418.168-.856.249-1.288.249zm13.73-11.338c-2.494.445-6.656 1.617-9.703 4.663 4.284-1.356 8.889-1.521 12.202-1.395-1.299-.977-2.072-2.147-2.499-3.268z"/><path d="m50.146 30.979c-.646 0-1.286-.25-1.769-.732-2.887-2.886-10.885-3.652-13.459-3.692-1.191-.02-2.204-.876-2.42-2.047s.425-2.332 1.531-2.774l.8-.32c8.238-3.635 18.792-1.936 19.239-1.862 1.205.2 2.089 1.244 2.089 2.466 0 5.568-4.49 8.458-4.681 8.579-.41.257-.872.382-1.33.382zm-2.22-6.883c.732.327 1.436.696 2.088 1.112.224-.284.444-.619.633-1.003-.783-.057-1.706-.101-2.721-.109z"/><path d="m55.495 114.546c-.415 0-.832-.08-1.228-.243-2.226-.915-4.266-1.009-5.747-.265-1.165.586-2.587.176-3.261-.939-5.284-8.734-6.562-19.469-3.797-31.904 2.683-12.065 8.437-23.398 14.001-34.359l.623-1.228c1.231-2.427 1.294-5.287.178-8.054-1.263-3.132-3.857-5.642-6.94-6.713-.908-.315-1.555-1.123-1.663-2.078-.109-.954.339-1.887 1.151-2.399.075-.05 2.345-1.58 2.345-4.347 0-.566.066-.944.42-1.387-.02.036.006-.064.006-.102 0 0 0 0-.001 0-.006 0-.142-.227-.743-.527-3.515-1.758-4.543-4.9-4.355-7.058.004-.056.011-.111.02-.166.018-.146.047-.291.088-.425.026-.085.172-.545.471-1.239 2.738-6.733 9.243-11.113 16.552-11.113 9.867 0 17.896 8.028 17.896 17.896 0 1.229-.137 2.486-.406 3.744-.107 2.965-.588 5.843-1.327 7.929-.364 1.027-.501 2.034-.405 2.993.702 7.06-1.091 14.862-5.329 23.192l-.185.383c-5.84 12.121-14.665 30.439-10.808 42.402.367 1.139-.123 2.377-1.17 2.956-.713.394-1.336.861-1.853 1.389-1.978 2.021-1.919 4.07-1.335 7.949.172 1.152-.29 2.312-1.206 3.027-.577.452-1.281.686-1.992.686zm.677-4.865h.011zm-5.373-1.136c.844 0 1.713.092 2.598.274-.256-3.027.068-6.377 3.058-9.432.408-.418.852-.81 1.327-1.173-3.146-13.7 5.659-31.974 11.573-44.248l.208-.432c3.821-7.513 5.44-14.387 4.835-20.479-.17-1.696.055-3.433.667-5.159.584-1.646.977-4.131 1.05-6.645.005-.162.025-.324.062-.482.223-.975.335-1.941.335-2.875-.001-7.109-5.786-12.894-12.897-12.894-5.266 0-9.953 3.157-11.941 8.043-.091.213-.16.386-.209.517.028.431.268 1.298 1.61 1.969 2.242 1.122 3.056 2.648 3.343 3.731.375 1.412.046 2.635-.28 3.392-.133 2.126-.919 3.831-1.809 5.108 2.906 1.864 5.256 4.658 6.573 7.924 1.664 4.125 1.537 8.453-.356 12.186l-.624 1.229c-5.424 10.683-11.033 21.731-13.578 33.181-2.291 10.303-1.543 19.203 2.221 26.493.718-.152 1.465-.228 2.234-.228z"/></svg>