<svg enable-background="new 0 0 256 256" height="512" viewBox="0 0 256 256" width="512" xmlns="http://www.w3.org/2000/svg"><g fill="#fd605b"><path d="m117.925 219.796c1.453 5.228 3.55 10.111 6.566 13.908 2.056 2.589 4.963 2.589 7.019 0 3.015-3.797 5.113-8.68 6.566-13.908-6.634 2.402-13.518 2.402-20.151 0z"/><path d="m114.842 207.607c-.018 2.72.047 5.102.129 6.959.111 2.508 1.234 4.6 2.765 5.165 6.754 2.493 13.775 2.493 20.529 0 1.531-.565 2.654-2.657 2.765-5.165.082-1.857.146-4.239.129-6.959-8.67 3.054-17.648 3.054-26.317 0z"/><path d="m145.475 195.154c-11.499 4.245-23.451 4.245-34.95 0-.049-.018-.095-.043-.143-.063.03 2.024.088 3.843.156 5.387.148 3.361 1.654 6.165 3.706 6.922 9.052 3.342 18.461 3.342 27.514 0 2.052-.757 3.557-3.562 3.706-6.922.068-1.543.126-3.363.156-5.387-.05.02-.096.045-.145.063z"/><path d="m149.188 182.973c-13.942 5.147-28.434 5.147-42.376 0-.392-.145-.77-.338-1.133-.575.038 1.432.086 2.767.138 3.962.189 4.269 2.101 7.831 4.707 8.793 11.499 4.245 23.451 4.245 34.95 0 2.607-.962 4.519-4.524 4.707-8.793.053-1.195.1-2.53.138-3.962-.361.237-.74.43-1.131.575z"/><path d="m153.763 171.747c-16.952 3.912-34.573 3.912-51.526 0-.403-.093-.791-.218-1.17-.361.013.308.024.63.037.926.229 5.177 2.547 9.495 5.708 10.662 13.942 5.147 28.434 5.147 42.376 0 3.161-1.167 5.479-5.485 5.708-10.662.013-.295.025-.618.037-.926-.379.143-.767.268-1.17.361z"/></g><path d="m149.494 235.427c-6.917-2.882-11.621-6.125-14.133-8.105-1.079 2.335-2.352 4.493-3.852 6.382-2.056 2.589-4.963 2.589-7.019 0-1.5-1.889-2.772-4.047-3.852-6.382-2.511 1.979-7.216 5.223-14.133 8.105-10.164 4.235 1.075 11.641 7.009 10.347.526-.114 1.01.299.995.837-.036 1.296.229 3.383 1.952 5.107 2.197 2.196 8.541 2.616 10.883-.18.352-.42.961-.42 1.312 0 2.342 2.796 8.686 2.376 10.883.18 1.723-1.724 1.988-3.811 1.952-5.107-.015-.538.469-.951.995-.837 5.933 1.293 17.171-6.113 7.008-10.347z" fill="#f98080"/><circle cx="147.061" cy="97.633" fill="#f9bd55" r="11.704"/><circle cx="108.939" cy="97.633" fill="#f9bd55" r="11.704"/><path d="m151.267 108.532c-1.317.513-2.744.805-4.242.805-6.464 0-11.704-5.24-11.704-11.704 0-2.361.705-4.555 1.908-6.394-.143-.115-.276-.238-.421-.351-5.16-4.061-12.457-4.061-17.616 0-.161.127-.309.263-.468.391 1.187 1.831 1.884 4.01 1.884 6.354 0 6.464-5.24 11.704-11.704 11.704-1.475 0-2.881-.285-4.181-.783-10.362 19.589-10.233 43.646-9.425 55.089.278 3.934 3.097 7.217 6.94 8.103 16.952 3.912 34.573 3.912 51.526 0 3.843-.887 6.662-4.169 6.94-8.103.807-11.447.936-35.518-9.437-55.111z" fill="#fd605b"/><path d="m75.356 37.288c-16.739-9.945-18.552-23.576-17.82-31.771.222-2.483-2.697-3.974-4.559-2.316-12.845 11.435-19.265 26.281-18.703 42.648.54 15.7 14.335 34.98 30.259 33.692 17.066-1.381 36.328-27.1 10.823-42.253z" fill="#f98080"/><path d="m75.356 37.288c7.173 4.261 10.805 9.358 11.941 14.515 3.336-10.275 3.016-21.306-1.145-32.316-.785-2.078-3.704-2.107-4.555-.056-1.792 4.321-5.332 9.953-12.151 13.713 1.727 1.432 3.683 2.821 5.91 4.144z" fill="#fd605b"/><path d="m64.533 79.541c-1.973.159-3.913.002-5.8-.424.031 4.85 3.742 8.975 8.672 9.419 5.242.473 9.875-3.393 10.348-8.635.169-1.869-.223-3.657-1.023-5.211-3.742 2.727-8.034 4.514-12.197 4.851z" fill="#fd605b"/><path d="m180.644 37.288c16.739-9.945 18.552-23.576 17.82-31.771-.222-2.483 2.697-3.974 4.559-2.316 12.844 11.435 19.265 26.282 18.702 42.649-.54 15.7-14.335 34.98-30.259 33.692-17.065-1.382-36.327-27.101-10.822-42.254z" fill="#f98080"/><path d="m180.644 37.288c-7.173 4.261-10.805 9.358-11.941 14.515-3.336-10.275-3.016-21.306 1.145-32.316.785-2.078 3.704-2.107 4.555-.056 1.792 4.321 5.332 9.953 12.151 13.713-1.727 1.432-3.683 2.821-5.91 4.144z" fill="#fd605b"/><path d="m191.467 79.541c1.973.159 3.913.002 5.8-.424-.031 4.85-3.742 8.975-8.672 9.419-5.242.473-9.875-3.393-10.348-8.635-.169-1.869.223-3.657 1.023-5.211 3.742 2.727 8.034 4.514 12.197 4.851z" fill="#fd605b"/><path d="m188.594 88.536c-3.809.344-7.287-1.609-9.091-4.71-4.293 9.456-12.23 20.931-26.628 27.971 1.711 3.705 3.081 7.529 4.172 11.368 18.591-8.649 28.509-23.278 33.721-35.093-.691.231-1.415.396-2.174.464z" fill="#f98080"/><path d="m103.125 111.798c-14.398-7.04-22.335-18.516-26.629-27.971-1.804 3.101-5.282 5.054-9.091 4.71-.758-.068-1.483-.233-2.174-.464 5.211 11.815 15.129 26.445 33.721 35.094 1.092-3.84 2.462-7.665 4.173-11.369z" fill="#f98080"/><path d="m128 238.146c-2.047 0-3.989-1.025-5.467-2.887-2.966-3.734-5.327-8.712-7.017-14.793-.25-.901.023-1.867.709-2.503s1.669-.836 2.55-.517c6.121 2.215 12.328 2.215 18.449 0 .881-.319 1.863-.119 2.55.517.686.636.96 1.602.709 2.503-1.69 6.081-4.051 11.059-7.017 14.793-1.477 1.861-3.419 2.887-5.466 2.887zm-6.265-14.688c1.304 3.473 2.881 6.386 4.713 8.691 1.021 1.285 2.083 1.285 3.103 0 1.832-2.306 3.41-5.219 4.713-8.691-4.152.84-8.376.84-12.529 0z"/><path d="m128 224.092c-3.745 0-7.49-.672-11.131-2.016-2.513-.927-4.239-3.831-4.397-7.4-.102-2.314-.146-4.698-.131-7.086.005-.808.401-1.563 1.062-2.028.663-.465 1.507-.582 2.269-.312 8.18 2.881 16.475 2.881 24.654 0 .761-.27 1.607-.152 2.269.312.661.465 1.057 1.221 1.062 2.028.015 2.388-.029 4.771-.131 7.086-.158 3.569-1.884 6.474-4.398 7.4-3.638 1.344-7.383 2.016-11.128 2.016zm-10.639-13.097c.021 1.165.057 2.321.107 3.46.081 1.819.832 2.819 1.132 2.93 6.237 2.302 12.562 2.304 18.799 0 .301-.11 1.053-1.11 1.133-2.93.05-1.139.086-2.295.107-3.46-7.017 1.852-14.261 1.852-21.278 0z"/><path d="m128 212.395c-4.92 0-9.839-.883-14.623-2.648-3.047-1.125-5.142-4.72-5.338-9.158-.077-1.759-.13-3.596-.158-5.46-.013-.846.403-1.64 1.104-2.111.702-.473 1.594-.558 2.372-.228.016.007.057.025.089.04 10.844 3.984 22.285 3.981 33.109-.001.034-.016.074-.033.086-.039.778-.329 1.67-.245 2.372.228.701.472 1.117 1.266 1.104 2.111-.027 1.864-.081 3.701-.158 5.46-.196 4.438-2.291 8.033-5.337 9.157-4.782 1.766-9.702 2.649-14.622 2.649zm-15.034-13.792c.02.597.043 1.186.068 1.766.122 2.749 1.286 4.396 2.075 4.687 8.433 3.114 17.349 3.116 25.782 0 .788-.291 1.953-1.938 2.074-4.688.025-.58.048-1.169.068-1.765-9.897 2.959-20.169 2.959-30.067 0zm-1.594-5.802c.012.005.023.009.035.014-.011-.005-.024-.009-.035-.014z"/><path d="m128 200.821c-6.171.001-12.341-1.107-18.341-3.322-3.614-1.334-6.102-5.663-6.339-11.028-.053-1.209-.101-2.559-.14-4.006-.025-.929.467-1.794 1.278-2.248.812-.453 1.807-.42 2.584.086.212.138.426.247.636.325 13.293 4.906 27.348 4.908 40.644-.001l-.001.001c.21-.078.424-.188.636-.325.779-.506 1.773-.54 2.584-.086s1.303 1.319 1.278 2.248c-.039 1.447-.086 2.797-.14 4.006-.237 5.365-2.725 9.694-6.34 11.028-5.997 2.215-12.169 3.322-18.339 3.322zm-19.69-14.68c.001.037.003.073.005.109.158 3.581 1.703 6.052 3.075 6.558 10.867 4.013 22.354 4.013 33.219 0 1.374-.506 2.918-2.977 3.076-6.558.001-.036.003-.072.005-.109-12.933 4.23-26.447 4.23-39.38 0z"/><path d="m128 189.312c-7.421.001-14.839-1.331-22.054-3.994-4.116-1.52-7.066-6.702-7.339-12.896l-.038-.933c-.035-.84.354-1.64 1.036-2.131s1.564-.605 2.348-.311c.309.117.585.203.846.263 16.487 3.805 33.916 3.806 50.402.001 0-.001 0-.001.001-.001.26-.06.537-.146.846-.263.786-.295 1.668-.181 2.348.311.681.491 1.07 1.291 1.036 2.131l-.038.93c-.273 6.197-3.223 11.38-7.34 12.899-7.213 2.663-14.635 3.994-22.054 3.994zm-24.099-14.638c.663 3.246 2.262 5.395 3.776 5.953 13.296 4.908 27.35 4.91 40.645 0 1.514-.559 3.113-2.706 3.776-5.953-15.815 3.32-32.381 3.32-48.197 0z"/><path d="m122.019 256c-2.423 0-5.462-.653-7.325-2.516-1.374-1.373-2.254-3.13-2.563-5.069-.017 0-.034 0-.052 0-4.664 0-10.59-2.943-11.904-7.119-.497-1.579-.967-5.536 5.37-8.177 6.488-2.703 10.948-5.712 13.547-7.761.601-.473 1.385-.645 2.13-.468.744.179 1.366.688 1.687 1.383 1.041 2.252 2.231 4.229 3.54 5.876 1.021 1.285 2.083 1.285 3.103 0 1.309-1.647 2.5-3.624 3.54-5.876.321-.694.943-1.204 1.687-1.383.741-.178 1.529-.006 2.13.468 2.599 2.049 7.059 5.058 13.547 7.761 6.337 2.641 5.867 6.598 5.37 8.177-1.313 4.176-7.24 7.119-11.904 7.119-.017 0-.034 0-.051 0-.309 1.938-1.189 3.695-2.563 5.069-2.014 2.014-5.407 2.61-7.901 2.503-2.141-.095-4.003-.682-5.405-1.685-1.401 1.003-3.263 1.59-5.405 1.685-.189.008-.382.013-.578.013zm-8.323-12.746c.765 0 1.507.265 2.11.766.793.659 1.231 1.63 1.202 2.663-.025.906.166 2.211 1.221 3.267.577.577 2.281 1.112 4.146 1.043 1.387-.062 2.556-.468 3.053-1.061.645-.769 1.582-1.21 2.573-1.21s1.928.441 2.572 1.209c.497.594 1.667 1 3.053 1.062 1.856.071 3.568-.466 4.146-1.043 1.055-1.056 1.246-2.359 1.22-3.269-.029-1.033.41-2.004 1.203-2.662.791-.656 1.819-.903 2.822-.688 2.798.612 7.461-1.697 8.039-3.534.194-.617-1.127-1.479-2.523-2.062-5.307-2.211-9.383-4.631-12.285-6.649-.857 1.526-1.787 2.924-2.78 4.174-1.478 1.861-3.419 2.887-5.467 2.887s-3.989-1.025-5.467-2.887c-.993-1.25-1.923-2.647-2.78-4.174-2.902 2.019-6.978 4.438-12.285 6.649-1.396.582-2.717 1.444-2.523 2.062.577 1.836 5.238 4.144 8.037 3.535.237-.053.476-.078.713-.078zm-1.686 3.287v.004c0-.001 0-.003 0-.004z"/><path d="m128 244.593c-1.381 0-2.5-1.119-2.5-2.5v-6.019c0-1.381 1.119-2.5 2.5-2.5s2.5 1.119 2.5 2.5v6.019c0 1.381-1.119 2.5-2.5 2.5z"/><path d="m136.07 240.654c-.85 0-1.679-.434-2.147-1.216l-3.093-5.164c-.709-1.184-.325-2.72.86-3.429 1.184-.712 2.72-.324 3.429.86l3.093 5.164c.709 1.184.325 2.72-.86 3.429-.402.242-.845.356-1.282.356z"/><path d="m119.93 240.654c-.437 0-.88-.114-1.282-.355-1.185-.709-1.569-2.245-.86-3.429l3.093-5.164c.709-1.185 2.243-1.572 3.429-.86 1.185.709 1.569 2.245.86 3.429l-3.093 5.164c-.468.782-1.297 1.215-2.147 1.215z"/><path d="m142.779 100.281c-1.377 0-2.496-1.114-2.5-2.492-.006-1.811.694-3.516 1.971-4.801 1.276-1.285 2.977-1.996 4.789-2.002h.023c1.803 0 3.5.699 4.779 1.971 1.285 1.277 1.996 2.978 2.001 4.789.004 1.381-1.111 2.504-2.492 2.508-.002 0-.005 0-.008 0-1.377 0-2.496-1.114-2.5-2.492-.001-.476-.188-.922-.526-1.258-.337-.336-.826-.493-1.261-.518-.476.002-.923.188-1.258.526-.335.337-.519.785-.518 1.261.004 1.38-1.111 2.503-2.492 2.508-.002 0-.005 0-.008 0z"/><path d="m147.061 111.837c-7.832 0-14.204-6.372-14.204-14.204s6.372-14.204 14.204-14.204 14.204 6.372 14.204 14.204-6.372 14.204-14.204 14.204zm0-23.408c-5.075 0-9.204 4.129-9.204 9.204s4.129 9.204 9.204 9.204 9.204-4.129 9.204-9.204-4.129-9.204-9.204-9.204z"/><path d="m104.658 100.281c-1.377 0-2.496-1.114-2.5-2.492-.006-1.811.694-3.516 1.971-4.801s2.978-1.996 4.789-2.002h.023c3.729 0 6.769 3.027 6.781 6.76.004 1.38-1.111 2.503-2.492 2.508-.003 0-.006 0-.008 0-1.377 0-2.496-1.114-2.5-2.492-.003-.979-.802-1.775-1.782-1.775-.002 0-.004 0-.006 0-.476.002-.923.188-1.258.526-.335.337-.519.785-.518 1.261.004 1.38-1.111 2.503-2.492 2.508-.003-.001-.006-.001-.008-.001z"/><path d="m108.939 111.837c-7.832 0-14.204-6.372-14.204-14.204s6.372-14.204 14.204-14.204 14.204 6.372 14.204 14.204-6.372 14.204-14.204 14.204zm0-23.408c-5.075 0-9.204 4.129-9.204 9.204s4.129 9.204 9.204 9.204 9.204-4.129 9.204-9.204-4.129-9.204-9.204-9.204z"/><path d="m128 177.164c-8.858 0-17.713-.993-26.325-2.981-4.949-1.142-8.515-5.307-8.872-10.363-.887-12.545-.804-36.56 9.708-56.435.591-1.117 1.925-1.618 3.104-1.166 1.07.41 2.175.618 3.287.618 5.075 0 9.204-4.129 9.204-9.204 0-1.773-.512-3.5-1.481-4.993-.696-1.072-.47-2.498.524-3.303l.158-.134c.11-.094.221-.188.336-.279 6.098-4.798 14.614-4.798 20.709-.001.107.085.207.169.305.253l.138.116c1 .807 1.228 2.24.524 3.315-.981 1.501-1.5 3.238-1.5 5.025 0 5.075 4.129 9.204 9.204 9.204 1.132 0 2.254-.214 3.334-.634 1.184-.462 2.523.038 3.117 1.159 10.523 19.876 10.607 43.903 9.72 56.457-.357 5.057-3.922 9.222-8.872 10.363-8.607 1.989-17.466 2.983-26.322 2.983zm-21.99-65.63c-9.013 18.419-9.041 40.304-8.219 51.934.202 2.851 2.214 5.198 5.008 5.844 16.486 3.805 33.915 3.805 50.401 0 2.794-.646 4.807-2.993 5.008-5.844.822-11.635.791-33.528-8.226-51.946-.973.21-1.962.315-2.958.315-7.832 0-14.204-6.372-14.204-14.204 0-1.957.402-3.876 1.176-5.651-3.716-2.218-8.343-2.205-12.051.035.764 1.767 1.162 3.673 1.162 5.616 0 7.832-6.372 14.204-14.204 14.204-.972 0-1.94-.102-2.893-.303z"/><path d="m62.999 82.104c-5.973 0-11.906-2.487-17.26-7.259-8.127-7.24-13.607-18.588-13.962-28.909-.594-17.271 6.162-32.693 19.538-44.602 1.614-1.438 3.904-1.738 5.835-.767 1.94.977 3.07 3.006 2.876 5.172-.755 8.462 1.513 20.432 16.606 29.399 14.406 8.559 14.334 19.431 13.009 25.149-2.568 11.088-13.742 20.843-24.906 21.746-.579.047-1.158.071-1.736.071zm-8.218-77.104c-.066 0-.107.037-.143.068-12.228 10.887-18.407 24.959-17.865 40.696.306 8.884 5.245 19.07 12.292 25.349 3.367 2.999 8.748 6.469 15.267 5.937 9.001-.728 18.361-8.92 20.439-17.89 1.781-7.688-1.916-14.508-10.692-19.722-18.245-10.84-19.756-26.045-19.034-34.144.006-.067.016-.18-.144-.261-.047-.024-.087-.033-.12-.033z"/><path d="m87.297 54.303c-.041 0-.081-.001-.122-.003-1.127-.055-2.078-.857-2.32-1.959-1.094-4.964-4.72-9.306-10.776-12.903-2.242-1.333-4.338-2.803-6.228-4.369-.637-.527-.971-1.336-.894-2.159.078-.824.558-1.556 1.282-1.955 6.294-3.47 9.482-8.702 11.048-12.48.774-1.868 2.567-3.063 4.582-3.063h.081c2.038.033 3.82 1.286 4.541 3.192 4.297 11.373 4.707 23.12 1.184 33.973-.337 1.031-1.3 1.726-2.378 1.726zm-10.665-19.164c4.301 2.555 7.651 5.576 9.944 8.937 1.184-7.697.277-15.599-2.716-23.577-1.61 3.836-4.602 8.867-10.046 12.826.904.629 1.845 1.236 2.818 1.814z"/><path d="m68.284 91.076c-.366 0-.734-.017-1.104-.05-6.201-.56-10.907-5.672-10.947-11.894-.005-.762.338-1.485.933-1.963.594-.479 1.377-.658 2.118-.491 1.688.38 3.386.505 5.047.37 3.566-.288 7.446-1.844 10.927-4.379.59-.43 1.339-.58 2.048-.412.71.168 1.312.639 1.646 1.287 1.049 2.036 1.496 4.312 1.291 6.581-.289 3.2-1.807 6.097-4.273 8.155-2.183 1.823-4.878 2.796-7.686 2.796zm-6.377-9.004c1.033 2.181 3.16 3.743 5.723 3.974 1.867.168 3.694-.4 5.136-1.604 1.441-1.203 2.329-2.896 2.498-4.766.032-.358.037-.718.013-1.074-3.428 1.952-7.079 3.15-10.542 3.431-.936.076-1.879.089-2.828.039z"/><path d="m193.001 82.104c-.579 0-1.158-.023-1.736-.07-11.165-.903-22.338-10.658-24.906-21.745-1.325-5.719-1.397-16.591 13.009-25.149l1.277 2.149-1.277-2.149c15.094-8.968 17.362-20.938 16.606-29.399-.193-2.166.936-4.195 2.876-5.172 1.93-.973 4.221-.671 5.836.767 13.375 11.908 20.132 27.331 19.538 44.602-.355 10.321-5.835 21.669-13.962 28.909-5.355 4.769-11.287 7.256-17.261 7.257zm8.218-77.104c-.033 0-.073.009-.121.033-.16.081-.15.193-.144.261.723 8.099-.789 23.304-19.033 34.144-8.776 5.214-12.473 12.033-10.692 19.722 2.078 8.97 11.438 17.162 20.439 17.89 6.51.524 11.899-2.937 15.267-5.937 7.046-6.278 11.986-16.465 12.292-25.349.542-15.736-5.637-29.809-17.865-40.695-.036-.032-.077-.069-.143-.069z"/><path d="m168.703 54.303c-1.078 0-2.041-.694-2.377-1.728-3.523-10.853-3.113-22.6 1.185-33.973.72-1.906 2.502-3.159 4.54-3.192h.081c2.015 0 3.807 1.195 4.582 3.063 1.566 3.778 4.754 9.011 11.048 12.48.724.399 1.204 1.131 1.282 1.955.078.823-.257 1.632-.894 2.159-1.89 1.566-3.985 3.036-6.228 4.369-6.057 3.598-9.683 7.939-10.776 12.903-.243 1.102-1.193 1.904-2.32 1.959-.042.004-.083.005-.123.005zm3.437-33.805c-2.994 7.984-3.899 15.884-2.716 23.577 2.294-3.359 5.644-6.382 9.944-8.937.974-.578 1.915-1.185 2.818-1.814-5.452-3.964-8.444-9.001-10.046-12.826zm8.505 16.79h.01z"/><path d="m187.716 91.076c-2.808 0-5.503-.974-7.686-2.795-2.467-2.059-3.985-4.955-4.273-8.155-.205-2.27.242-4.545 1.291-6.581.334-.648.936-1.119 1.646-1.287.708-.169 1.458-.018 2.048.412 3.48 2.535 7.361 4.091 10.927 4.379 1.662.136 3.36.01 5.047-.37.743-.166 1.524.013 2.118.491s.938 1.201.933 1.963c-.04 6.222-4.747 11.334-10.948 11.894-.369.033-.737.049-1.103.049zm-6.993-12.473c-.023.356-.019.716.013 1.074.169 1.87 1.056 3.562 2.498 4.766 1.442 1.203 3.263 1.777 5.136 1.604 2.564-.23 4.69-1.793 5.724-3.974-.947.049-1.89.037-2.828-.039-3.464-.281-7.115-1.479-10.543-3.431z"/><path d="m157.048 125.665c-.355 0-.71-.075-1.041-.227-.666-.305-1.164-.886-1.364-1.59-1.109-3.902-2.467-7.604-4.037-11.004-.569-1.233-.049-2.696 1.172-3.294 14.131-6.909 21.639-18.365 25.45-26.758.387-.852 1.216-1.417 2.151-1.464.926-.046 1.816.431 2.287 1.24 1.37 2.356 4.004 3.73 6.705 3.477.527-.047 1.053-.16 1.608-.346.938-.312 1.974-.043 2.639.688.666.731.838 1.787.439 2.692-5.086 11.531-15.278 27.198-34.954 36.351-.335.157-.695.235-1.055.235zm-.934-12.724c.904 2.139 1.73 4.372 2.473 6.681 14.52-7.555 23.078-19.007 28.009-28.604-2.396-.233-4.665-1.188-6.507-2.704-4.305 8.173-11.677 17.966-23.975 24.627z"/><path d="m98.952 125.665c-.36 0-.72-.078-1.055-.233-19.676-9.153-29.868-24.819-34.954-36.351-.399-.905-.227-1.961.439-2.692.665-.732 1.699-1.001 2.639-.688.555.186 1.082.299 1.608.346 2.703.252 5.334-1.12 6.705-3.477.47-.809 1.362-1.284 2.287-1.24.935.047 1.764.612 2.151 1.464 3.811 8.393 11.319 19.849 25.45 26.759 1.221.598 1.741 2.061 1.172 3.294-1.571 3.402-2.929 7.104-4.038 11.003-.2.704-.699 1.285-1.364 1.59-.33.15-.685.225-1.04.225zm-29.548-34.647c4.931 9.597 13.489 21.05 28.009 28.604.742-2.307 1.569-4.541 2.473-6.681-12.298-6.661-19.671-16.454-23.976-24.629-1.841 1.518-4.111 2.472-6.506 2.706z"/><path d="m133.575 91.476c-.116 0-.232-.008-.351-.024-1.367-.191-2.32-1.456-2.128-2.823l4.057-28.892c.499-3.549 2.376-6.654 5.286-8.745 2.911-2.091 6.453-2.879 9.975-2.218 6.142 1.151 10.599 6.522 10.599 12.771 0 1.381-1.119 2.5-2.5 2.5s-2.5-1.119-2.5-2.5c0-3.844-2.742-7.147-6.52-7.856-2.166-.405-4.345.079-6.136 1.365s-2.946 3.196-3.252 5.379l-4.057 28.892c-.176 1.247-1.247 2.151-2.473 2.151z"/><path d="m123.302 91.139c-1.227 0-2.297-.903-2.473-2.152l-4.01-28.555c-.307-2.183-1.462-4.093-3.252-5.379-1.79-1.287-3.967-1.771-6.136-1.365-3.777.709-6.52 4.013-6.52 7.856 0 1.381-1.119 2.5-2.5 2.5s-2.5-1.119-2.5-2.5c0-6.248 4.457-11.619 10.598-12.771 3.522-.659 7.065.127 9.975 2.218 2.911 2.091 4.788 5.196 5.287 8.745l4.01 28.555c.192 1.367-.761 2.632-2.128 2.823-.118.017-.236.025-.351.025z"/><path d="m159.479 136.666c-.954 0-1.865-.549-2.281-1.475-.566-1.26-.005-2.739 1.254-3.307l15.417-6.938c.322-.145.672-.22 1.026-.22h14.32l10.42-6.632c1.166-.741 2.71-.397 3.451.768.742 1.164.398 2.71-.767 3.451l-11.035 7.022c-.401.255-.867.391-1.342.391h-14.512l-14.927 6.718c-.332.151-.681.222-1.024.222z"/><path d="m189.121 156.282c-.387 0-.77-.09-1.118-.264l-12.98-6.487-14.325-.583c-1.379-.057-2.453-1.22-2.396-2.6s1.24-2.411 2.6-2.396l14.861.604c.354.015.7.104 1.016.262l12.809 6.402 12.286-1.272c1.379-.146 2.602.855 2.745 2.229.142 1.374-.856 2.603-2.229 2.744l-13.01 1.348c-.087.008-.173.013-.259.013z"/><path d="m190.579 180.312c-.225 0-.454-.031-.681-.095l-11.317-3.197c-.458-.13-.869-.387-1.186-.741l-8.652-9.692-8.849-3.944c-1.261-.562-1.828-2.04-1.266-3.301.562-1.262 2.041-1.827 3.301-1.266l9.339 4.162c.323.144.612.354.848.618l8.525 9.55 10.617 2.999c1.329.376 2.102 1.757 1.726 3.086-.312 1.102-1.314 1.821-2.405 1.821z"/><path d="m96.521 136.666c-.343 0-.691-.071-1.024-.221l-14.927-6.718h-14.513c-.476 0-.941-.136-1.342-.391l-11.035-7.022c-1.165-.741-1.508-2.287-.767-3.451.742-1.165 2.286-1.508 3.451-.768l10.42 6.632h14.32c.354 0 .704.075 1.026.22l15.417 6.938c1.259.567 1.82 2.047 1.254 3.307-.416.925-1.327 1.474-2.28 1.474z"/><path d="m66.879 156.282c-.086 0-.172-.005-.258-.014l-13.01-1.348c-1.373-.142-2.371-1.37-2.229-2.744.143-1.373 1.365-2.374 2.745-2.229l12.286 1.272 12.809-6.402c.316-.158.663-.247 1.016-.262l14.876-.605c1.375-.015 2.544 1.017 2.6 2.396.056 1.38-1.017 2.543-2.396 2.6l-14.34.584-12.98 6.487c-.35.175-.732.265-1.119.265z"/><path d="m65.421 180.312c-1.091 0-2.093-.72-2.404-1.821-.375-1.329.397-2.71 1.726-3.086l10.617-2.999 8.525-9.55c.236-.264.524-.475.848-.618l9.217-4.107c1.261-.562 2.739.005 3.301 1.266s-.005 2.739-1.266 3.301l-8.727 3.89-8.653 9.692c-.316.354-.728.611-1.185.741l-11.317 3.197c-.228.063-.457.094-.682.094z"/></svg>