<svg enable-background="new 0 0 256 256" height="512" viewBox="0 0 256 256" width="512" xmlns="http://www.w3.org/2000/svg"><path d="m125.155 40.33c-8.833-1.301-15.362.998-20.861 7.059-3.13 3.45-5.895 6.497-7.15 7.88 2.701 3.22 4.657 7.227 5.567 11.683 13.826-.435 20.129-10.242 20.488-16.825.231-4.239 1.591-6.79 2.647-8.155.478-.618.082-1.528-.691-1.642z" fill="#f98080"/><path d="m64.092 55.27c-1.255-1.383-4.02-4.43-7.15-7.88-5.499-6.061-12.028-8.36-20.861-7.059-.774.114-1.169 1.024-.691 1.643 1.056 1.365 2.416 3.916 2.647 8.155.359 6.582 6.663 16.389 20.488 16.825.91-4.457 2.866-8.465 5.567-11.684z" fill="#f98080"/><g fill="#f9bd55"><path d="m195.581 211.558c-1-1.563-2.108-3.001-3.349-4.242-5.522-5.522-12.801-13.052-19.076-21.837 0 0-5.449 2.412-14.374 3.613 5.59 7.238 11.634 13.477 16.382 18.224 11.044 11.044 12.048 37.148 12.048 37.148-8.032 0-8.032 9.036-8.032 9.036h16.064c3.272-8.181 1.212-33.019.337-41.942z"/><path d="m106.538 198.964c-1.741-4.85-3.681-8.735-5.669-10.724-2.799-2.799-4.828-5.888-6.295-8.818 0 0-13.158-4.384-21.765-20.085-2.593 8.517 4.697 20.085 4.697 20.085 1.467 2.93 3.495 6.018 6.295 8.818 9.036 9.036 17.068 57.228 10.04 57.228s-7.028 8.032-7.028 8.032h16.064c3.709-19.787 3.991-41.084 3.661-54.536z"/><path d="m103.286 72.623c0-14.01-10.149-25.367-22.668-25.367s-22.668 11.357-22.668 25.367c0 6.262 2.029 11.992 5.391 16.416 1.686 2.219 2.837 4.78 3.698 7.431 2.27 6.984 7.49 11.874 13.579 11.874s11.309-4.89 13.579-11.874c.862-2.651 2.012-5.211 3.698-7.43 3.361-4.425 5.391-10.155 5.391-16.417z"/><path d="m125.155 40.33c-8.833-1.301-15.362.998-20.861 7.059-3.13 3.45-5.895 6.497-7.15 7.88.835.995 1.603 2.062 2.286 3.198 3.437-.56 9.064-2.316 13.881-7.775 3.047-3.453 8.004-5.37 11.145-6.3.447-1.038.944-1.842 1.39-2.419.478-.619.082-1.529-.691-1.643z"/><path d="m64.092 55.27c-1.255-1.383-4.02-4.43-7.15-7.88-5.499-6.061-12.028-8.36-20.861-7.059-.774.114-1.169 1.024-.691 1.643.446.577.943 1.381 1.39 2.419 3.141.93 8.098 2.847 11.145 6.3 4.817 5.46 10.444 7.215 13.881 7.775.683-1.136 1.451-2.203 2.286-3.198z"/><path d="m228.878 147.578c-11.044 2.008-14.056-6.024-14.056-6.024-18.072-31.124-55.22-15.06-90.36-15.06-.068 0-.136 0-.204 0-9.587-.048-18.408-5.521-22.747-14.07-3.706-7.301-4.809-15.034-4.854-21.53-1.038 1.746-1.829 3.635-2.46 5.576-2.27 6.984-7.49 11.874-13.579 11.874-5.451 0-10.199-3.925-12.764-9.757-3.236 19.656-1.936 37.348-1.936 37.348 3.492 35.11 28.656 43.488 28.656 43.488 1.467 2.929 3.495 6.018 6.295 8.818 9.036 9.036 17.068 57.228 10.04 57.228s-7.028 8.032-7.028 8.032h16.064c6.024-32.128 3.012-68.272 3.012-68.272 28.112 10.04 50.2.251 50.2.251 6.275 8.785 13.554 16.315 19.076 21.837 11.044 11.044 12.048 37.148 12.048 37.148-8.032 0-8.032 9.036-8.032 9.036h16.064c4.016-10.04 0-45.18 0-45.18s-11.044-15.06-6.024-25.1 3.245-24.73 3.245-24.73c7.381 3.589 14.826-1.374 14.826-1.374l-2.51-2.51c5.02-.001 7.028-7.029 7.028-7.029z"/></g><path d="m204.28 244.464c-8.032 0-8.032 9.036-8.032 9.036h16.064c.836-2.09 1.32-5.277 1.569-9z" fill="#52565b"/><path d="m187.212 244.464c-8.032 0-8.032 9.036-8.032 9.036h16.064c.837-2.091 1.323-5.275 1.571-9z" fill="#52565b"/><path d="m95.294 244.5c-.385.624-.866.968-1.454.968-7.028 0-7.028 8.032-7.028 8.032h16.064c.558-2.976 1.03-5.987 1.443-9z" fill="#52565b"/><path d="m121.394 244.5h-9.032c-.385.624-.866.968-1.454.968-7.028 0-7.028 8.032-7.028 8.032h16.064c.558-2.976 1.038-5.987 1.45-9z" fill="#52565b"/><path d="m89.238 89.445c0 2.646-4.419 6.389-8.62 6.389s-8.62-3.743-8.62-6.389 4.419-2.85 8.62-2.85c4.2 0 8.62.204 8.62 2.85z" fill="#9e512b"/><path d="m122.956 170.67v14.558c28.112 10.04 50.2.251 50.2.251-3.031-4.243-5.119-8.78-5.286-13.524-20.039 5.117-44.914-1.285-44.914-1.285z" fill="#ffc097"/><path d="m130.988 128c0 3.327 2.697 6.024 6.024 6.024s6.024-2.697 6.024-6.024c0-.928-.216-1.803-.59-2.587-3.729.385-7.475.709-11.213.9-.157.535-.245 1.101-.245 1.687z" fill="#ffc097"/><circle cx="153.076" cy="135.028" fill="#ffc097" r="4.016"/><circle cx="120.948" cy="137.036" fill="#ffc097" r="4.016"/><path d="m176.67 125.49c0-1.121-.252-2.181-.691-3.137-4.522.038-9.216.389-14.021.872-.225.715-.348 1.476-.348 2.265 0 4.159 3.371 7.53 7.53 7.53s7.53-3.371 7.53-7.53z" fill="#ffc097"/><path d="m86.378 77.999c-1.377 0-2.496-1.114-2.5-2.492-.011-3.456 2.791-6.277 6.247-6.288h.021c1.666 0 3.234.646 4.417 1.821 1.188 1.18 1.845 2.752 1.85 4.426.004 1.381-1.112 2.503-2.492 2.508-.003 0-.005 0-.008 0-1.377 0-2.496-1.114-2.5-2.492-.001-.457-.235-.757-.374-.895s-.438-.368-.893-.368c-.001 0-.003 0-.004 0-.699.002-1.266.573-1.264 1.271.004 1.381-1.111 2.504-2.492 2.508-.003.001-.006.001-.008.001z"/><path d="m173.158 187.979c-.78 0-1.548-.364-2.036-1.047-8.381-11.733-7.616-22.697 2.274-32.587.977-.977 2.559-.977 3.535 0 .977.976.977 2.559 0 3.535-8.125 8.126-8.679 16.434-1.741 26.146.803 1.124.542 2.685-.581 3.487-.44.315-.948.466-1.451.466z"/><path d="m195.244 256h-16.064c-1.381 0-2.5-1.119-2.5-2.5 0-3.528 1.721-9.835 7.877-11.25-.541-6.462-2.783-24.789-11.16-33.167-5.062-5.062-10.992-11.213-16.593-18.463-.546-.707-.674-1.651-.334-2.478.339-.826 1.094-1.409 1.979-1.528 8.41-1.132 13.646-3.4 13.698-3.423 1.084-.476 2.355-.129 3.043.834 5.976 8.367 12.862 15.575 18.81 21.522 1.298 1.299 2.538 2.868 3.687 4.664.213.333.344.71.383 1.103 1.23 12.554 2.803 34.848-.504 43.114-.38.949-1.299 1.572-2.322 1.572zm-13.193-5h11.367c1.83-7.277 1.118-24.21-.266-38.588-.859-1.284-1.763-2.402-2.688-3.329-5.721-5.72-12.297-12.591-18.202-20.582-1.81.64-4.846 1.584-8.865 2.366 4.629 5.624 9.379 10.525 13.535 14.681 11.604 11.604 12.736 37.714 12.778 38.82.026.679-.226 1.34-.696 1.83-.472.49-1.122.767-1.802.767-3.275-.001-4.615 2.16-5.161 4.035z"/><path d="m102.876 256h-16.064c-1.381 0-2.5-1.119-2.5-2.5 0-4.125 2.409-10.209 8.997-10.52 2.795-5.164-3.154-44.85-11.276-52.972-2.663-2.662-4.92-5.812-6.71-9.362-.818-1.33-7.687-12.899-4.906-22.036.293-.962 1.134-1.655 2.135-1.759 1-.1 1.966.403 2.449 1.285 8.043 14.671 20.241 18.874 20.364 18.915.628.209 1.148.66 1.445 1.252 1.557 3.111 3.517 5.86 5.827 8.169 2.145 2.146 4.25 6.064 6.254 11.646.09.251.14.516.146.783.35 14.242-.009 35.355-3.704 55.059-.222 1.183-1.254 2.04-2.457 2.04zm-13.139-5h11.051c3.236-18.5 3.575-38.07 3.26-51.568-1.664-4.553-3.415-7.891-4.947-9.424-2.47-2.47-4.589-5.356-6.312-8.592-2.742-1.13-10.57-4.933-17.535-13.827 1.244 5.467 4.322 10.43 4.367 10.502.042.068.083.14.119.212 1.559 3.112 3.519 5.861 5.827 8.169 8.881 8.881 16.274 48.901 12.36 58.352-1.133 2.735-3.047 3.143-4.087 3.143-2.467.001-3.591 1.562-4.103 3.033z"/><path d="m80.618 110.844c-7.008 0-13.271-5.338-15.957-13.601-.891-2.743-1.974-4.931-3.312-6.692-3.805-5.007-5.9-11.374-5.9-17.928 0-15.366 11.291-27.867 25.168-27.867s25.168 12.501 25.168 27.867c0 6.553-2.095 12.92-5.9 17.928-1.337 1.76-2.42 3.948-3.312 6.69-2.684 8.264-8.948 13.603-15.955 13.603zm0-61.087c-11.121 0-20.168 10.258-20.168 22.867 0 5.468 1.733 10.76 4.881 14.903 1.682 2.215 3.018 4.887 4.085 8.171 2.003 6.163 6.4 10.146 11.202 10.146s9.198-3.983 11.202-10.147c1.067-3.284 2.403-5.957 4.085-8.17 3.147-4.143 4.881-9.436 4.881-14.903 0-12.609-9.048-22.867-20.168-22.867z"/><path d="m102.709 69.453c-1.184 0-2.21-.833-2.449-2-.808-3.958-2.548-7.615-5.032-10.576-.803-.958-.776-2.361.063-3.286l7.15-7.881c6.144-6.772 13.476-9.268 23.077-7.853 1.243.183 2.307 1.021 2.777 2.189.472 1.171.295 2.463-.473 3.457-.863 1.116-1.934 3.196-2.128 6.761-.39 7.152-6.954 18.685-22.906 19.187-.026.001-.053.002-.079.002zm-2.308-14.053c1.886 2.656 3.322 5.67 4.232 8.886 6.965-.93 15.592-5.556 16.069-14.294.178-3.255.958-5.685 1.844-7.439-6.776-.507-11.898 1.552-16.401 6.517zm24.39-12.596h.01z"/><path d="m99.429 60.968c-.867 0-1.685-.452-2.142-1.211-.601-.998-1.293-1.967-2.059-2.879-.803-.958-.776-2.361.063-3.286l7.15-7.881c6.144-6.772 13.476-9.268 23.077-7.853 1.243.183 2.307 1.022 2.778 2.189.472 1.171.295 2.463-.473 3.457-.27.349-.675.959-1.071 1.877-.293.682-.875 1.198-1.586 1.409-2.567.76-7.277 2.493-9.98 5.557-5.184 5.875-11.21 7.913-15.353 8.589-.136.021-.271.032-.404.032zm.974-5.57c.066.093.133.187.198.281 3.188-.78 7.25-2.579 10.835-6.642 2.886-3.271 7.132-5.302 10.659-6.516-6.55-.38-11.547 1.693-15.95 6.547zm24.387-12.594c.001 0 .001 0 0 0z"/><path d="m61.806 60.968c-.133 0-.268-.011-.403-.033-4.143-.676-10.169-2.714-15.353-8.588-2.703-3.064-7.413-4.797-9.98-5.558-.712-.21-1.293-.727-1.586-1.409-.396-.919-.801-1.528-1.071-1.877-.769-.994-.946-2.286-.474-3.457.471-1.167 1.535-2.006 2.778-2.189 9.6-1.413 16.933 1.081 23.077 7.853l7.15 7.88c.84.926.867 2.329.063 3.287-.766.912-1.458 1.881-2.06 2.88-.457.759-1.275 1.211-2.141 1.211zm-22.666-18.446c3.527 1.213 7.773 3.245 10.659 6.516 3.585 4.062 7.646 5.861 10.835 6.642.065-.094.131-.188.198-.282l-5.742-6.329c-4.403-4.853-9.401-6.926-15.95-6.547z"/><path d="m58.526 69.453c-.026 0-.053 0-.08-.001-15.952-.502-22.516-12.035-22.906-19.187-.195-3.566-1.265-5.646-2.128-6.761-.768-.994-.945-2.286-.473-3.457.471-1.167 1.535-2.006 2.778-2.189 9.6-1.413 16.933 1.081 23.077 7.853l7.15 7.88c.84.926.867 2.329.063 3.287-2.484 2.961-4.224 6.618-5.032 10.576-.238 1.166-1.265 1.999-2.449 1.999zm-19.837-26.9c.886 1.753 1.666 4.184 1.844 7.439.477 8.738 9.104 13.364 16.07 14.294.91-3.216 2.346-6.23 4.232-8.886l-5.744-6.331c-4.504-4.963-9.633-7.016-16.402-6.516z"/><path d="m88.452 107.861c-.088 0-.177-.004-.266-.014-5.74-.607-10.068-5.423-10.068-11.202v-.773c0-1.381 1.119-2.5 2.5-2.5s2.5 1.119 2.5 2.5v.773c0 3.214 2.405 5.892 5.595 6.229 1.373.146 2.368 1.376 2.223 2.75-.137 1.284-1.221 2.237-2.484 2.237z"/><path d="m72.782 107.861c-1.263 0-2.348-.954-2.483-2.237-.145-1.373.851-2.604 2.224-2.749 3.19-.337 5.596-3.015 5.596-6.229v-.773c0-1.381 1.119-2.5 2.5-2.5s2.5 1.119 2.5 2.5v.773c0 5.779-4.329 10.595-10.07 11.202-.091.009-.179.013-.267.013z"/><path d="m88.363 51.278c-.438 0-.882-.115-1.286-.358-1.183-.711-1.566-2.247-.854-3.431 2.623-4.364 10.186-14.788 23.722-17.326 7.094-1.33 13.463-5.499 17.475-11.438 3.078-4.558 4.435-9.689 3.627-13.727-.271-1.354.607-2.671 1.961-2.942 1.344-.267 2.671.606 2.941 1.961 1.08 5.399-.519 11.78-4.386 17.506-4.754 7.039-12.298 11.979-20.697 13.553-11.544 2.166-18.082 11.204-20.358 14.989-.468.781-1.296 1.213-2.145 1.213z"/><path d="m126.055 26.812c-.232 0-.468-.032-.702-.101-1.326-.387-2.086-1.775-1.699-3.101 3.111-10.65-5.548-18.936-5.918-19.283-1.004-.943-1.059-2.524-.118-3.531s2.517-1.066 3.526-.127c.463.43 11.297 10.694 7.31 24.343-.319 1.092-1.317 1.8-2.399 1.8z"/><path d="m107.162 35.928c-.341 0-.688-.07-1.019-.218-1.26-.563-1.825-2.042-1.262-3.303 2.102-4.701-1.3-9.083-1.446-9.268-.854-1.078-.681-2.649.393-3.509s2.636-.695 3.501.373c.226.278 5.486 6.909 2.117 14.445-.416.928-1.328 1.48-2.284 1.48z"/><path d="m107.635 28.681c-1.097 0-2.104-.728-2.409-1.837-.366-1.327.411-2.699 1.735-3.071.095-.028 4.331-1.301 5.009-4.695.271-1.354 1.583-2.23 2.942-1.961 1.354.271 2.232 1.588 1.961 2.942-1.292 6.457-8.277 8.45-8.574 8.532-.221.061-.445.09-.664.09z"/><path d="m102.877 41.647c-.218 0-.44-.029-.661-.089l-4.593-1.255c-1.332-.364-2.116-1.739-1.752-3.071.364-1.333 1.738-2.115 3.071-1.752l4.593 1.255c1.332.364 2.116 1.739 1.752 3.071-.303 1.111-1.31 1.841-2.41 1.841z"/><path d="m72.534 51.278c-.849 0-1.676-.432-2.145-1.213-2.275-3.785-8.812-12.823-20.359-14.988-8.398-1.575-15.942-6.515-20.696-13.553-3.867-5.726-5.466-12.106-4.386-17.506.271-1.354 1.589-2.228 2.942-1.961 1.354.271 2.232 1.588 1.961 2.942-.808 4.038.548 9.169 3.626 13.727 4.011 5.938 10.38 10.107 17.474 11.438 13.539 2.538 21.1 12.962 23.723 17.327.711 1.183.329 2.719-.855 3.431-.403.241-.847.356-1.285.356z"/><path d="m34.843 26.812c-1.083 0-2.08-.708-2.399-1.8-3.986-13.649 6.847-23.913 7.31-24.343 1.012-.94 2.594-.882 3.533.13.938 1.01.882 2.588-.125 3.529-.37.348-9.029 8.633-5.918 19.283.387 1.325-.374 2.713-1.699 3.101-.234.068-.47.1-.702.1z"/><path d="m53.735 35.928c-.956 0-1.868-.551-2.284-1.48-3.37-7.536 1.891-14.167 2.117-14.445.869-1.074 2.443-1.238 3.516-.37 1.07.867 1.238 2.435.377 3.507-.162.205-3.542 4.577-1.445 9.266.563 1.26-.001 2.739-1.262 3.303-.332.149-.678.219-1.019.219z"/><path d="m53.262 28.681c-.22 0-.443-.029-.665-.09-.297-.082-7.282-2.075-8.574-8.532-.271-1.354.607-2.671 1.961-2.942 1.357-.268 2.671.608 2.942 1.961.683 3.414 4.955 4.68 4.998 4.692 1.331.366 2.113 1.743 1.747 3.074-.305 1.109-1.312 1.837-2.409 1.837z"/><path d="m58.02 41.647c-1.099 0-2.106-.73-2.41-1.841-.364-1.332.421-2.707 1.752-3.071l4.593-1.255c1.331-.362 2.707.42 3.071 1.752s-.421 2.707-1.752 3.071l-4.593 1.255c-.222.06-.443.089-.661.089z"/><path d="m212.312 256h-16.063c-1.381 0-2.5-1.119-2.5-2.5 0-3.528 1.721-9.835 7.877-11.25-.541-6.462-2.783-24.789-11.16-33.167-5.72-5.719-12.295-12.588-18.198-20.576-5.776 2.066-23.924 7.209-46.573.262.572 10.147 1.596 39.121-3.292 65.191-.222 1.182-1.254 2.039-2.457 2.039h-16.066c-1.381 0-2.5-1.119-2.5-2.5 0-4.125 2.409-10.209 8.997-10.52 2.795-5.164-3.154-44.85-11.276-52.973-2.468-2.467-4.587-5.353-6.309-8.588-4.938-2.016-26.106-12.51-29.362-45.238-.06-.799-1.29-18.279 1.957-38.001.18-1.092 1.056-1.936 2.154-2.074 1.094-.14 2.156.461 2.602 1.474 2.242 5.097 6.256 8.264 10.476 8.264 4.801 0 9.198-3.983 11.202-10.147.751-2.313 1.631-4.302 2.688-6.081.573-.965 1.719-1.428 2.803-1.136 1.083.294 1.838 1.273 1.846 2.396.052 7.66 1.594 14.528 4.583 20.416 3.895 7.673 11.954 12.658 20.531 12.702h.191c9.005 0 18.254-1.085 27.199-2.134 26.298-3.084 51.135-5.998 65.323 18.439.07.121.13.247.179.377.24.596 2.675 6.003 11.268 4.442.853-.155 1.72.141 2.3.781s.789 1.535.552 2.365c-.637 2.227-2.239 5.498-4.905 7.374.361.493.532 1.106.472 1.724-.074.746-.479 1.418-1.102 1.834-.299.2-6.391 4.172-13.455 2.824.207 5.251-.039 14.86-3.768 22.318-3.559 7.116 2.982 18.657 5.803 22.503.258.351.419.763.468 1.195.167 1.46 4.04 35.888-.162 46.393-.382.949-1.301 1.572-2.323 1.572zm-13.192-5h11.368c2.298-9.073.459-32.289-.59-41.763-2.062-2.996-10.96-16.908-5.847-27.135 4.63-9.261 3.017-23.172 2.999-23.312-.109-.909.286-1.805 1.031-2.335.747-.532 1.722-.613 2.544-.213 3.505 1.705 7.09 1.032 9.486.163l-.03-.031c-.715-.715-.929-1.791-.542-2.725s1.299-1.543 2.31-1.543c1.164 0 2.118-.777 2.852-1.731-7.134-.328-10.944-4.818-12.135-7.727-12.559-21.425-34.697-18.828-60.323-15.823-9.087 1.066-18.483 2.168-27.781 2.168h-.222c-10.426-.053-20.225-6.112-24.958-15.438-1.97-3.879-3.377-8.118-4.213-12.672-3.15 6.156-8.535 9.96-14.451 9.96-4.175 0-8.142-1.935-11.224-5.299-1.953 16.376-.995 30.052-.983 30.207 3.272 32.891 25.994 40.973 26.96 41.301.623.211 1.144.663 1.438 1.25 1.558 3.112 3.518 5.86 5.827 8.169 8.881 8.881 16.274 48.901 12.36 58.353-1.133 2.735-3.047 3.143-4.087 3.143-2.467 0-3.591 1.561-4.103 3.032h11.051c5.396-30.901 2.637-65.214 2.608-65.564-.071-.847.294-1.671.968-2.189.673-.518 1.563-.658 2.364-.373 26.763 9.558 48.137.412 48.35.318 1.083-.476 2.356-.129 3.044.834 5.976 8.367 12.862 15.575 18.81 21.522 11.604 11.604 12.736 37.714 12.778 38.82.026.679-.226 1.34-.696 1.83-.472.49-1.122.767-1.802.767-3.28 0-4.617 2.182-5.161 4.036z"/><path d="m67.378 77.999c-1.377 0-2.496-1.114-2.5-2.492-.011-3.456 2.791-6.277 6.247-6.288 1.653-.014 3.25.642 4.438 1.821 1.188 1.18 1.845 2.752 1.85 4.426.004 1.381-1.112 2.503-2.492 2.508-.003 0-.005 0-.008 0-1.377 0-2.496-1.114-2.5-2.492-.001-.457-.235-.757-.374-.895s-.438-.368-.893-.368c-.001 0-.003 0-.004 0-.699.002-1.266.573-1.264 1.271.004 1.381-1.111 2.504-2.492 2.508-.003.001-.006.001-.008.001z"/><path d="m212.312 256h-16.063c-1.381 0-2.5-1.119-2.5-2.5 0-3.99 2.201-11.536 10.532-11.536h.01l9.601.036c.689.002 1.349.291 1.819.795s.711 1.182.665 1.871c-.291 4.367-.86 7.561-1.742 9.763-.381.949-1.301 1.571-2.322 1.571zm-13.25-5h11.418c.239-.96.479-2.26.674-4.01l-6.879-.026c-.501.001-4.117.146-5.213 4.036z"/><path d="m195.244 256h-16.064c-1.381 0-2.5-1.119-2.5-2.5 0-3.99 2.201-11.536 10.532-11.536h.01l9.604.036c.689.002 1.349.291 1.819.795s.711 1.182.665 1.871c-.29 4.358-.86 7.552-1.744 9.762-.379.949-1.299 1.572-2.322 1.572zm-13.25-5h11.419c.24-.961.48-2.262.675-4.01l-6.881-.026c-.501.001-4.117.146-5.213 4.036z"/><path d="m102.876 256h-16.064c-1.381 0-2.5-1.119-2.5-2.5 0-4.126 2.41-10.213 9.003-10.52.478-.592 1.219-.98 1.979-.98h9.025c.722 0 1.409.312 1.884.856s.691 1.267.593 1.983c-.452 3.297-.93 6.281-1.463 9.122-.222 1.182-1.254 2.039-2.457 2.039zm-13.139-5h11.05c.224-1.29.439-2.618.647-4h-5.011c-.954.817-1.968.968-2.583.968-2.467 0-3.591 1.561-4.103 3.032z"/><path d="m119.944 256h-16.064c-1.381 0-2.5-1.119-2.5-2.5 0-4.126 2.41-10.213 9.002-10.52.479-.593 1.22-.98 1.979-.98h9.033c.722 0 1.409.312 1.884.856s.691 1.267.593 1.983c-.431 3.146-.926 6.215-1.47 9.121-.221 1.183-1.254 2.04-2.457 2.04zm-13.139-5h11.051c.228-1.307.446-2.643.652-4h-5.016c-.954.817-1.968.968-2.583.968-2.468 0-3.592 1.561-4.104 3.032z"/><path d="m80.618 98.334c-5.3 0-11.12-4.652-11.12-8.889 0-5.351 7.234-5.351 11.12-5.351s11.12 0 11.12 5.351c0 4.237-5.82 8.889-11.12 8.889zm-6.07-8.648c.411 1.19 3.225 3.648 6.07 3.648 2.843 0 5.656-2.455 6.069-3.649-.603-.294-2.177-.59-6.069-.59-3.893 0-5.468.296-6.07.591zm12.355.136h.01z"/><path d="m148.913 192.285c-7.771 0-16.908-1.17-26.798-4.702-.995-.355-1.659-1.298-1.659-2.354v-14.559c0-.772.357-1.502.968-1.975.611-.474 1.406-.637 2.154-.446.243.062 24.506 6.178 43.673 1.284.731-.188 1.51-.033 2.117.421.605.454.973 1.157.999 1.913.135 3.828 1.713 7.805 4.822 12.159.437.611.575 1.387.378 2.112-.198.725-.712 1.322-1.399 1.627-.614.273-10.455 4.52-25.255 4.52zm-23.457-8.84c20.442 6.778 37.398 2.831 43.872.764-1.893-3.141-3.096-6.184-3.637-9.192-15.749 3.199-33.229.257-40.235-1.212z"/><path d="m94.574 181.922c-.219 0-.44-.029-.658-.088-.267-.073-26.833-8.923-30.486-45.652-.019-.242-.32-4.463-.261-11.087.008-.885.483-1.7 1.25-2.143.767-.442 1.711-.446 2.48-.011 5.903 3.337 10.159 9.102 11.676 15.817 3.962 17.54 13.813 26.44 13.912 26.528.48.425.778 1.019.832 1.657.005.053.5 5.386 3.49 11.359.441.882.323 1.941-.302 2.704-.482.589-1.195.916-1.933.916zm-26.382-51.836c.066 3.521.217 5.637.219 5.667 2.299 23.104 14.193 33.966 21.403 38.499-.812-2.618-1.192-4.737-1.359-5.906-2.538-2.532-11.031-11.994-14.757-28.485-.854-3.778-2.791-7.175-5.506-9.775z"/><path d="m137.012 136.524c-4.7 0-8.523-3.824-8.523-8.524 0-.801.116-1.604.344-2.388.297-1.022 1.209-1.743 2.273-1.797 3.312-.168 6.834-.451 11.083-.89 1.061-.109 2.058.456 2.513 1.409.554 1.16.835 2.393.835 3.665-.001 4.701-3.825 8.525-8.525 8.525zm-3.457-7.841c.318 1.618 1.748 2.841 3.457 2.841 1.904 0 3.461-1.519 3.522-3.408-2.529.243-4.814.429-6.979.567z"/><path d="m153.076 141.544c-3.593 0-6.516-2.923-6.516-6.516s2.923-6.516 6.516-6.516 6.516 2.923 6.516 6.516-2.923 6.516-6.516 6.516zm0-8.032c-.836 0-1.516.68-1.516 1.516s.68 1.516 1.516 1.516 1.516-.68 1.516-1.516-.68-1.516-1.516-1.516z"/><path d="m120.948 143.552c-3.593 0-6.516-2.923-6.516-6.516s2.923-6.516 6.516-6.516 6.516 2.923 6.516 6.516-2.923 6.516-6.516 6.516zm0-8.032c-.836 0-1.516.68-1.516 1.516s.68 1.516 1.516 1.516 1.516-.68 1.516-1.516-.68-1.516-1.516-1.516z"/><path d="m169.14 135.52c-5.53 0-10.029-4.5-10.029-10.03 0-1.027.156-2.042.464-3.017.3-.953 1.14-1.636 2.134-1.735 5.662-.569 10.189-.85 14.25-.884.965.025 1.882.562 2.293 1.456.609 1.326.919 2.733.919 4.181-.001 5.53-4.501 10.029-10.031 10.029zm-5.03-9.992c.021 2.756 2.269 4.992 5.029 4.992 2.773 0 5.03-2.256 5.03-5.03 0-.203-.013-.404-.037-.604-2.952.08-6.211.289-10.022.642z"/></svg>