<svg enable-background="new 0 0 256 256" height="512" viewBox="0 0 256 256" width="512" xmlns="http://www.w3.org/2000/svg"><path d="m88.861 244.574c0-3.788 1.316-7.263 3.503-10.01-11.228-.843-25.107.841-24.214 14.573.16 2.454 1.957 4.362 4.129 4.362h26.024v-.181c-5.563-.473-9.442-2.226-9.442-8.744z" fill="#c16a44"/><path d="m160.76 234.565c2.188 2.747 3.503 6.222 3.503 10.01 0 6.518-3.878 8.271-9.442 8.745v.181h26.024c2.171 0 3.969-1.909 4.128-4.362.894-13.733-12.985-15.417-24.213-14.574z" fill="#c16a44"/><path d="m126.562 155.405c-19.68 0-37.121-6.679-47.956-16.967-16.896 40.207 7.458 77.173 19.233 91.723 10.654-5.247 23.077 2.553 23.077 14.413 0 .976-.101 1.828-.267 2.602 3.756.556 7.838.59 11.825 0-.166-.774-.267-1.626-.267-2.602 0-8.873 7.176-16.067 16.028-16.067 2.533 0 4.92.605 7.049 1.654 11.775-14.55 36.134-51.517 19.235-91.725-10.834 10.29-28.276 16.969-47.957 16.969z" fill="#c16a44"/><path d="m126.562 166.069c-7.308 0-13.855 6.049-18.269 15.598-3.086 6.676-1.304 11.898 1.075 17.921 2.122 5.372 7.59 20.381 9.232 36.157v.497c1.455 2.391 2.316 5.219 2.316 8.331 0 .976-.101 1.828-.267 2.602 3.756.556 7.838.59 11.825 0-.166-.774-.267-1.626-.267-2.602 0-3.037.856-5.866 2.317-8.289v-.54c1.614-15.503 6.923-30.264 9.119-35.869 2.621-6.688 4.207-11.728 1.13-18.334-4.413-9.476-10.935-15.472-18.211-15.472z" fill="#ffc097"/><path d="m180.223 95.828c-1.162-1.688-1.761-3.685-1.696-5.733.017-.54.026-1.083.026-1.627 0-30.15-23.277-54.591-51.991-54.591s-51.991 24.44-51.991 54.59c0 .545.009 1.087.026 1.627.064 2.048-.534 4.045-1.696 5.733-3.746 5.443-5.854 11.541-5.854 17.985 0 22.971 26.646 41.593 59.515 41.593s59.515-18.622 59.515-41.593c0-6.444-2.107-12.541-5.854-17.984z" fill="#c16a44"/><path d="m126.681 114.985c-.005 0-.011 0-.016 0-.137 4.545-3.711 7.712-7.656 8.056 1.665 2.71 4.656 5.101 7.553 5.101 2.809 0 5.706-2.249 7.397-4.856-3.89-.523-7.297-3.792-7.278-8.301z" fill="#f98080"/><path d="m135.441 104.307c0 3.768-4.552 9.098-8.879 9.098s-8.879-5.329-8.879-9.098c0-3.768 4.552-4.059 8.879-4.059s8.879.291 8.879 4.059z" fill="#52565b"/><path d="m212.043 143.677c-6.883-9.522-.869-16.047 5.009-19.606-29.368 14.098 1.917 30.363 5.161 54.168 2.607 19.136-15.681 24.332-27.623 25.7.226 3.356-.166 6.501-.991 9.419 64.603-9.091 29.444-54.463 18.444-69.681z" fill="#7d3d1a"/><path d="m75.4 78.802c2.86-16.796 13.025-30.925 26.931-38.633-4.874-11.265-18.403-37.667-38.148-37.667-25.098 0-15.059 40.157-15.059 40.157s-4.412 50.735 26.057 36.397z" fill="#f98080"/><path d="m189.465 2.502c-19.879 0-33.458 26.764-38.247 37.895 13.655 7.739 23.624 21.707 26.485 38.276l.019.022c31.285 15.521 26.802-36.037 26.802-36.037s10.039-40.156-15.059-40.156z" fill="#f98080"/><g fill="#c16a44"><path d="m164.263 244.574c0 8.873-7.176 8.926-16.028 8.926s-16.028-.053-16.028-8.926 7.176-16.067 16.028-16.067 16.028 7.194 16.028 16.067z"/><path d="m120.917 244.574c0 8.873-7.176 8.926-16.028 8.926s-16.028-.053-16.028-8.926 7.176-16.067 16.028-16.067 16.028 7.194 16.028 16.067z"/><path d="m179.722 176.431c-2.086 16.875-9.339 31.646-16.215 42.343-.006.009-.012.018-.017.027-2.533 3.937-5.316 7.79-8.205 11.361 2.136 1.052 4.006 2.557 5.476 4.404 5.056-.379 10.645-.249 15.186 1.267 10.006-6.971 34.433-28.766 3.775-59.402z"/><path d="m97.84 230.162c-3.166-3.913-6.316-8.298-9.236-12.991-.005-.008-.01-.016-.015-.024-6.557-10.545-13.204-24.681-15.186-40.715-30.658 30.636-6.231 52.432 3.774 59.402 4.541-1.515 10.131-1.646 15.186-1.267 1.471-1.848 3.341-3.353 5.477-4.405z"/><path d="m189.465 2.502c-19.879 0-33.458 26.764-38.247 37.895 2.469 1.399 4.812 3.009 7.021 4.794 5.39-11.762 17.662-34.113 32.018-31.176 4.745.971 8.21 5.006 8.781 9.815.481 4.053.468 10.166-1.483 18.461 0 0 6.359 27.452-8.031 39.252 18.233-1.653 15-38.885 15-38.885s10.039-40.156-15.059-40.156z"/><path d="m63.392 14.016c14.228-2.911 26.411 19.02 31.874 30.862 2.222-1.762 4.586-3.335 7.066-4.709-4.875-11.265-18.404-37.667-38.148-37.667-25.098 0-15.059 40.157-15.059 40.157s-3.233 37.232 15 38.885c-14.39-11.8-8.031-39.252-8.031-39.252-1.952-8.294-1.965-14.408-1.483-18.461.571-4.809 4.036-8.844 8.781-9.815z"/></g><path d="m137.201 93.473c-1.377 0-2.495-1.114-2.5-2.492-.008-2.27.869-4.405 2.469-6.016 1.6-1.609 3.73-2.5 6.001-2.508h.028c2.259 0 4.384.876 5.987 2.469 1.609 1.6 2.5 3.73 2.508 6 .005 1.381-1.111 2.503-2.492 2.508-.002 0-.005 0-.008 0-1.377 0-2.495-1.114-2.5-2.492-.003-.934-.369-1.811-1.032-2.469-.659-.655-1.534-1.016-2.464-1.016-.004 0-.008 0-.012 0-.934.003-1.812.369-2.47 1.032-.658.662-1.019 1.541-1.016 2.476.005 1.381-1.111 2.503-2.492 2.508-.001 0-.004 0-.007 0z"/><path d="m115.923 93.453c-1.381 0-2.5-1.119-2.5-2.5 0-1.928-1.568-3.496-3.496-3.496s-3.496 1.568-3.496 3.496c0 1.381-1.119 2.5-2.5 2.5s-2.5-1.119-2.5-2.5c0-4.685 3.812-8.496 8.496-8.496s8.496 3.812 8.496 8.496c0 1.381-1.119 2.5-2.5 2.5z"/><path d="m207.566 121.09c-.303 0-.611-.056-.911-.174-26.273-10.297-48.636-6.55-48.857-6.51-1.362.232-2.656-.67-2.896-2.028s.666-2.654 2.024-2.896c.964-.171 23.906-4.057 51.553 6.779 1.286.503 1.919 1.954 1.415 3.239-.385.987-1.329 1.59-2.328 1.59z"/><path d="m155.585 103.67c-.989 0-1.927-.591-2.319-1.564-.517-1.279.099-2.734 1.378-3.253.889-.361 22.149-8.778 51.961-3.827 1.362.226 2.283 1.514 2.057 2.875s-1.513 2.288-2.875 2.057c-28.344-4.703-49.062 3.448-49.268 3.531-.307.122-.623.181-.934.181z"/><path d="m197.542 145.393c-.688 0-1.373-.282-1.866-.836-15.65-17.542-38.528-18.308-38.757-18.313-1.381-.034-2.472-1.181-2.438-2.561.033-1.359 1.146-2.438 2.498-2.438.021 0 .042 0 .062.001 1.025.025 25.288.842 42.364 19.983.92 1.03.829 2.61-.201 3.529-.475.426-1.07.635-1.662.635z"/><path d="m45.559 121.09c-.999 0-1.942-.603-2.328-1.589-.504-1.285.129-2.736 1.415-3.239 27.648-10.837 50.59-6.949 51.553-6.779 1.359.241 2.267 1.539 2.025 2.898s-1.536 2.267-2.896 2.025c-.259-.044-22.606-3.778-48.857 6.51-.301.118-.61.174-.912.174z"/><path d="m97.541 103.671c-.312 0-.63-.06-.937-.184-.293-.116-20.976-8.226-49.266-3.53-1.366.225-2.649-.695-2.875-2.057-.227-1.361.694-2.649 2.057-2.875 29.812-4.947 51.069 3.467 51.96 3.827 1.28.519 1.897 1.977 1.379 3.256-.394.973-1.33 1.563-2.318 1.563z"/><path d="m55.582 145.393c-.592 0-1.187-.209-1.663-.635-1.03-.919-1.121-2.499-.201-3.529 17.077-19.142 41.34-19.958 42.364-19.983.021-.001.042-.001.062-.001 1.353 0 2.465 1.079 2.498 2.438.034 1.379-1.055 2.524-2.434 2.561-.23.007-23.162.829-38.761 18.313-.492.553-1.177.836-1.865.836z"/><path d="m148.235 256c-8.685 0-18.528 0-18.528-11.426 0-10.237 8.312-18.566 18.528-18.566s18.527 8.329 18.527 18.566c.001 11.426-9.842 11.426-18.527 11.426zm0-24.992c-7.46 0-13.528 6.086-13.528 13.566 0 5.626 2.883 6.426 13.528 6.426s13.527-.8 13.527-6.426c.001-7.48-6.068-13.566-13.527-13.566z"/><path d="m104.89 256c-8.685 0-18.528 0-18.528-11.426 0-10.237 8.312-18.566 18.528-18.566s18.527 8.329 18.527 18.566c0 11.426-9.843 11.426-18.527 11.426zm0-24.992c-7.46 0-13.528 6.086-13.528 13.566 0 5.626 2.883 6.426 13.528 6.426s13.527-.8 13.527-6.426c0-7.48-6.068-13.566-13.527-13.566z"/><path d="m175.947 238.333c-.266 0-.533-.042-.791-.129-3.589-1.196-8.364-1.585-14.209-1.145-.833.07-1.628-.29-2.143-.936-1.235-1.552-2.835-2.838-4.625-3.719-.682-.336-1.174-.964-1.337-1.706s.02-1.519.498-2.109c2.849-3.521 5.556-7.27 8.046-11.142 6.078-9.454 13.746-24.271 15.854-41.323.117-.948.765-1.746 1.668-2.058.903-.31 1.903-.08 2.58.596 11.305 11.296 16.538 22.661 15.554 33.78-1.292 14.596-12.876 24.711-19.666 29.441-.424.297-.924.45-1.429.45zm-10.593-6.446c3.86 0 7.255.4 10.143 1.197 6.146-4.477 15.51-13.163 16.564-25.081.745-8.421-2.836-17.191-10.653-26.122-2.365 12.756-7.667 25.598-15.799 38.244-2.079 3.233-4.291 6.368-6.605 9.362 1.028.737 1.981 1.577 2.837 2.502 1.211-.068 2.382-.102 3.513-.102z"/><path d="m77.177 238.333c-.505 0-1.005-.153-1.429-.449-6.791-4.73-18.374-14.847-19.666-29.441-.983-11.119 4.249-22.484 15.553-33.78.678-.677 1.678-.903 2.581-.596.903.312 1.551 1.109 1.668 2.058 1.623 13.133 6.612 26.491 14.828 39.702 2.778 4.465 5.825 8.751 9.071 12.764.479.591.661 1.367.498 2.109s-.655 1.37-1.337 1.706c-1.792.882-3.391 2.168-4.625 3.718-.516.646-1.312 1.007-2.143.937-5.842-.44-10.62-.052-14.209 1.145-.257.085-.525.127-.79.127zm-5.46-56.453c-7.817 8.93-11.399 17.701-10.654 26.122 1.055 11.918 10.418 20.605 16.564 25.082 3.734-1.03 8.318-1.395 13.656-1.095.854-.925 1.809-1.765 2.836-2.502-2.713-3.511-5.275-7.199-7.638-10.996-7.552-12.145-12.503-24.43-14.764-36.611z"/><path d="m134.526 238.245c-.087 0-.174-.004-.262-.014-1.373-.143-2.371-1.372-2.228-2.745 1.645-15.797 7.037-30.804 9.279-36.521 2.506-6.395 3.836-10.687 1.19-16.367-4.151-8.915-9.963-14.028-15.944-14.028-6.013 0-11.845 5.156-16 14.147-2.595 5.612-1.236 9.96 1.131 15.954 2.271 5.752 7.731 20.854 9.394 36.815.144 1.373-.854 2.603-2.228 2.745-1.379.158-2.603-.855-2.745-2.228-1.598-15.347-6.876-29.937-9.071-35.497-2.666-6.75-4.435-12.5-1.02-19.888 5.009-10.835 12.494-17.05 20.539-17.05 8.007 0 15.471 6.166 20.478 16.917 3.472 7.456 1.747 13.118-1.069 20.303-2.167 5.529-7.379 20.027-8.961 35.215-.133 1.286-1.218 2.242-2.483 2.242z"/><path d="m126.562 157.905c-34.195 0-62.016-19.78-62.016-44.093 0-6.807 2.118-13.335 6.295-19.403.869-1.263 1.304-2.728 1.256-4.235-.018-.569-.026-1.137-.026-1.707 0-31.48 24.444-57.091 54.491-57.091s54.491 25.61 54.491 57.091c0 .57-.01 1.138-.027 1.705-.048 1.51.387 2.975 1.256 4.237h.001c4.177 6.069 6.294 12.598 6.294 19.403 0 24.313-27.819 44.093-62.015 44.093zm0-121.529c-27.289 0-49.491 23.368-49.491 52.091 0 .52.009 1.036.024 1.551.081 2.58-.657 5.079-2.135 7.227-3.593 5.219-5.414 10.793-5.414 16.568 0 21.556 25.577 39.093 57.016 39.093 31.438 0 57.015-17.537 57.015-39.093 0-5.774-1.821-11.349-5.413-16.568-1.479-2.146-2.217-4.646-2.136-7.229.016-.513.025-1.029.025-1.549.001-28.723-22.201-52.091-49.491-52.091z"/><path d="m126.56 250.105c-2.112 0-4.225-.152-6.276-.457-.685-.101-1.296-.481-1.689-1.05s-.534-1.274-.388-1.95c.142-.659.211-1.337.211-2.074 0-4.721-2.392-9.027-6.398-11.52-3.981-2.479-8.869-2.723-13.074-.649-1.049.513-2.314.236-3.048-.671-11.718-14.479-37.083-52.649-19.595-94.265.318-.757.988-1.31 1.792-1.478.8-.172 1.638.067 2.234.634 10.735 10.193 28.02 16.279 46.234 16.279 18.216 0 35.501-6.087 46.235-16.281.597-.566 1.437-.8 2.234-.635.804.169 1.474.722 1.792 1.479 17.489 41.614-7.878 79.787-19.597 94.267-.734.908-2.002 1.187-3.049.67-1.879-.927-3.879-1.396-5.943-1.396-7.46 0-13.528 6.086-13.528 13.566 0 .733.069 1.413.212 2.077.145.676.004 1.381-.39 1.949-.394.567-1.005.947-1.688 1.048-2.056.305-4.169.457-6.281.457zm-3.148-5.127c2.087.172 4.211.17 6.3 0-.003-.134-.005-.268-.005-.403 0-10.237 8.312-18.566 18.528-18.566 2.158 0 4.263.372 6.278 1.108 11.231-14.336 32.322-47.896 18.985-84.44-11.779 9.717-28.651 15.229-46.937 15.229-18.284 0-35.156-5.512-46.935-15.228-13.338 36.549 7.753 70.106 18.983 84.44 5.309-1.93 11.174-1.342 16.049 1.69 5.483 3.412 8.757 9.306 8.757 15.766.002.136 0 .27-.003.404z"/><path d="m118.323 125.585c-2.425 0-4.812-.832-6.771-2.446-1.065-.878-1.218-2.453-.34-3.52.877-1.065 2.453-1.219 3.52-.34 1.728 1.423 3.982 1.706 6.033.76 2.097-.968 3.371-2.915 3.41-5.21.001-.048.004-.097.007-.146l.065-.867c.104-1.376 1.302-2.408 2.682-2.305 1.376.104 2.408 1.305 2.305 2.682l-.061.799c-.1 4.165-2.514 7.833-6.313 9.587-1.463.675-3.006 1.006-4.537 1.006z"/><path d="m135.018 125.871c-1.648 0-3.31-.385-4.861-1.166-3.761-1.895-6.053-5.679-5.981-9.876.023-1.365 1.139-2.457 2.499-2.457h.044c1.38.024 2.48 1.162 2.457 2.543-.04 2.295 1.168 4.285 3.23 5.324 2.019 1.019 4.281.81 6.056-.553 1.096-.84 2.665-.635 3.506.461s.634 2.665-.461 3.506c-1.914 1.468-4.19 2.218-6.489 2.218z"/><path d="m126.562 115.905c-5.861 0-11.38-6.533-11.38-11.598 0-6.56 7.975-6.56 11.38-6.56s11.379 0 11.379 6.56c0 5.065-5.517 11.598-11.379 11.598zm0-13.157c-5.622 0-6.38.788-6.38 1.56 0 2.507 3.564 6.598 6.38 6.598s6.379-4.091 6.379-6.598c0-.772-.757-1.56-6.379-1.56z"/><path d="m126.562 115.905c-5.861 0-11.38-6.533-11.38-11.598 0-6.56 7.975-6.56 11.38-6.56s11.379 0 11.379 6.56c0 5.065-5.517 11.598-11.379 11.598zm0-13.157c-5.622 0-6.38.788-6.38 1.56 0 2.507 3.564 6.598 6.38 6.598s6.379-4.091 6.379-6.598c0-.772-.757-1.56-6.379-1.56z"/><path d="m126.562 115.905c-5.861 0-11.38-6.533-11.38-11.598 0-6.56 7.975-6.56 11.38-6.56s11.379 0 11.379 6.56c0 5.065-5.517 11.598-11.379 11.598zm0-13.157c-5.622 0-6.38.788-6.38 1.56 0 2.507 3.564 6.598 6.38 6.598s6.379-4.091 6.379-6.598c0-.772-.757-1.56-6.379-1.56z"/><path d="m126.562 130.641c-4.294 0-7.9-3.39-9.684-6.292-.454-.738-.493-1.658-.104-2.433s1.152-1.291 2.016-1.366c2.53-.222 5.273-2.273 5.375-5.641.041-1.351 1.147-2.425 2.499-2.425.665 0 1.311.265 1.779.736.469.471.739 1.109.736 1.774-.014 3.364 2.561 5.47 5.11 5.812.85.113 1.582.654 1.94 1.433s.292 1.688-.175 2.406c-1.792 2.766-5.356 5.996-9.492 5.996zm-3.161-6.343c1.056.837 2.189 1.343 3.161 1.343.921 0 2.01-.474 3.036-1.258-1.171-.682-2.199-1.571-3.036-2.616-.88 1.026-1.951 1.888-3.161 2.531z"/><path d="m189.522 84.043c-1.007 0-1.926-.607-2.312-1.553-.416-1.016-.12-2.185.729-2.881 13.009-10.667 7.24-36.496 7.181-36.756-.086-.373-.086-.763.002-1.135 1.936-8.228 1.849-14.108 1.435-17.593-.457-3.844-3.189-6.922-6.8-7.661-12.888-2.637-24.741 19.941-29.245 29.769-.321.701-.949 1.216-1.701 1.392-.753.18-1.542-.005-2.144-.489-2.136-1.728-4.383-3.263-6.68-4.562-1.11-.629-1.569-1.992-1.065-3.164 5.098-11.849 19.253-39.407 40.544-39.407 6.17 0 10.998 2.177 14.351 6.47 8.692 11.134 4.021 33.012 3.231 36.386.331 4.464 2.287 39.4-17.298 41.176-.077.005-.152.008-.228.008zm10.595-41.734c.493 2.371 2.104 11.2.953 20.6 1.415-7.373 1.356-15.459.963-20.033-.024-.275-.002-.554.064-.821.057-.225 5.513-22.605-2.227-32.509-2.39-3.057-5.793-4.543-10.406-4.543-5.977 0-21.176 3.401-35.07 34.379.98.613 1.949 1.264 2.901 1.948 6.603-13.593 18.722-32.78 33.462-29.763 5.727 1.172 10.052 5.981 10.763 11.97.655 5.503.182 11.816-1.403 18.772z"/><path d="m65.371 84.115c-3.159 0-5.99-.865-8.474-2.597-12.066-8.412-10.576-34.865-10.296-38.661-.789-3.374-5.462-25.251 3.231-36.385 3.352-4.294 8.18-6.471 14.351-6.471 21.204 0 35.346 27.396 40.442 39.174.51 1.181.042 2.557-1.083 3.18-13.415 7.436-23.014 21.217-25.678 36.866-.076.448-.273.867-.571 1.212l-.219.254c-.229.266-.512.48-.829.63-3.961 1.866-7.595 2.798-10.874 2.798zm-1.187-79.113c-4.613 0-8.018 1.486-10.406 4.543-7.739 9.903-2.283 32.284-2.227 32.509.066.268.089.547.064.821-.653 7.574-.464 28.547 8.145 34.544 3.296 2.297 7.795 2.232 13.384-.186 3.035-15.883 12.626-29.909 25.998-38.097-13.881-30.755-29.01-34.134-34.958-34.134zm11.216 73.8h.01z"/><path d="m64.125 84.043c-.075 0-.15-.003-.227-.01-19.584-1.775-17.628-36.712-17.297-41.176-.79-3.374-5.462-25.251 3.231-36.385 3.352-4.294 8.18-6.471 14.351-6.471 21.204 0 35.346 27.396 40.442 39.174.511 1.181.042 2.557-1.083 3.18-2.36 1.309-4.623 2.816-6.725 4.481-.602.475-1.386.65-2.133.473-.746-.178-1.369-.688-1.69-1.385-4.488-9.729-16.307-32.06-29.103-29.46-3.61.738-6.343 3.817-6.8 7.661-.414 3.484-.501 9.365 1.435 17.593.088.372.088.762.002 1.135-.06.26-5.828 26.089 7.18 36.756.85.696 1.145 1.865.728 2.881-.385.946-1.304 1.553-2.311 1.553zm.059-79.041c-4.615 0-8.021 1.487-10.41 4.548-7.75 9.926-2.279 32.278-2.223 32.503.066.269.089.547.064.822-.394 4.574-.453 12.66.962 20.033-1.148-9.398.461-18.229.954-20.6-1.585-6.955-2.058-13.269-1.403-18.772.711-5.988 5.036-10.799 10.763-11.97 14.666-3.005 26.745 16.018 33.325 29.484.953-.669 1.93-1.309 2.925-1.917-13.881-30.754-29.009-34.131-34.957-34.131z"/><path d="m188.277 84.114c-3.497 0-7.395-1.061-11.667-3.18-.278-.138-.529-.327-.738-.558-.32-.352-.553-.81-.634-1.278-2.701-15.648-11.905-28.962-25.253-36.526-1.109-.629-1.568-1.991-1.064-3.163 5.098-11.849 19.253-39.407 40.544-39.407 6.17 0 10.998 2.177 14.351 6.47 8.692 11.134 4.021 33.012 3.231 36.386.281 3.809 1.78 30.427-10.422 38.747-2.453 1.672-5.243 2.509-8.348 2.509zm-8.344-7.135c5.811 2.644 10.475 2.813 13.876.494 8.699-5.932 8.886-26.986 8.225-34.598-.024-.275-.002-.554.064-.822.057-.225 5.513-22.605-2.227-32.509-2.39-3.057-5.793-4.543-10.406-4.543-5.977 0-21.175 3.399-35.069 34.376 13.25 8.246 22.458 21.783 25.537 37.602z"/><path d="m193.599 215.857c-.717 0-1.405-.309-1.884-.856-.556-.637-.752-1.511-.521-2.324.793-2.805 1.097-5.688.902-8.569-.09-1.332.883-2.5 2.209-2.651 7.464-.856 17.416-3.234 22.443-9.703 2.738-3.523 3.716-7.834 2.987-13.177-1.081-7.939-5.692-15.305-9.761-21.804-4.863-7.768-9.457-15.105-7.378-22.28 1.416-4.889 5.791-9.035 13.374-12.676 1.204-.576 2.647-.107 3.28 1.064.635 1.173.237 2.637-.903 3.328-2.673 1.619-6.012 4.295-6.732 7.85-.501 2.465.325 5.208 2.454 8.153l1.029 1.419c7.953 10.938 24.504 33.697 16.978 51.442-4.608 10.863-17.437 17.849-38.129 20.76-.116.017-.233.024-.348.024zm3.552-9.732c-.016 1.406-.13 2.809-.342 4.201 16.73-2.88 27.039-8.66 30.663-17.205 6.422-15.141-9.005-36.354-16.418-46.55l-1.038-1.43c-1.261-1.744-2.187-3.478-2.776-5.191.701 4.152 3.669 8.893 6.973 14.169 4.336 6.927 9.25 14.777 10.478 23.781.906 6.651-.438 12.345-3.994 16.921-5.559 7.154-15.462 10.108-23.546 11.304z"/><path d="m180.846 256h-26.024c-1.381 0-2.5-1.119-2.5-2.5v-.181c0-1.298.994-2.381 2.287-2.491 5.416-.462 7.154-1.981 7.154-6.254 0-3.099-1.023-6.021-2.959-8.452-.576-.725-.706-1.709-.335-2.558.37-.85 1.181-1.424 2.104-1.493 10.8-.806 18.497.984 22.888 5.331 2.981 2.952 4.33 6.955 4.009 11.897-.245 3.758-3.155 6.701-6.624 6.701zm-26.025-2.681h.01zm10.338-2.319h15.687c.828 0 1.561-.908 1.633-2.024.227-3.482-.603-6.105-2.537-8.021-2.751-2.724-7.83-4.101-14.839-4.071 1.094 2.391 1.66 4.991 1.66 7.69 0 2.773-.612 4.856-1.604 6.426z"/><path d="m98.304 256h-26.025c-3.471 0-6.38-2.943-6.624-6.7-.321-4.942 1.027-8.945 4.009-11.897 4.391-4.348 12.084-6.142 22.888-5.331.923.069 1.733.644 2.104 1.493s.241 1.833-.335 2.558c-1.936 2.431-2.959 5.354-2.959 8.452 0 4.273 1.738 5.793 7.154 6.254 1.294.11 2.288 1.192 2.288 2.491v.181c0 1.38-1.119 2.499-2.5 2.499zm-10.566-19.117c-6.854 0-11.842 1.385-14.556 4.072-1.935 1.915-2.764 4.538-2.537 8.021.072 1.116.805 2.024 1.634 2.024h15.685c-.991-1.57-1.603-3.653-1.603-6.426 0-2.699.566-5.3 1.66-7.69-.094-.001-.189-.001-.283-.001z"/></svg>