<svg enable-background="new 0 0 256 256" height="512" viewBox="0 0 256 256" width="512" xmlns="http://www.w3.org/2000/svg"><path d="m232.691 153.492c-.613-3.847-.109-7.806 1.466-11.341 19.571-43.929-9.874-70.694-28.106-70.694-9.441 0-15.587-1.478-19.376-2.961-3.756-1.469-7.85-1.683-11.715-.568-8.272 2.386-13.735 4.436-21.052 3.618-9.763-1.092-14.64-10.057-23.389-13.743-10.603-4.467-29.187-6.689-54.38 9.74-.183-1.099-.337-2.19-.343-3.267-.016-3.318-2.078-5.17-3.87-6.226-1.664-.98-3.975.21-4.419 2.197-.49 2.193-1.774 5.116-4.971 7.923-.829.728-1.515 1.476-2.095 2.227-.023.02-.046.038-.069.059 0 0-10.003-2.913-15.707 4.385-3.625 4.638-4.93 9.925-6.651 15.237 3.322 2.684.365 7.738-3.003 7.467-1.137 2.168-2.57 4.29-4.502 6.32.18.515.21 1.091.045 1.647-1.767 5.946-6.719 6.905-9.838 6.881-.8-.006-1.587-.157-2.332-.434-.967.426-1.966.845-3.039 1.249-5.573 2.1-7.33 5.481-5.236 14.25s12.566 7.673 12.566 7.673c8.377 8.77 7.33 3.289 18.849 3.289s26.179-13.154 26.179-13.154c4.189 9.866 16.754 12.058 16.754 12.058 1.047 9.866 9.424 7.673 9.424 7.673 0 17.539 9.424 26.308 11.519 30.693 1.523 3.188-.276 7.535-1.371 9.671-.394.768-1.133 1.273-1.963 1.34-6.788.543-9.508 5.537-10.597 9.451-.663 2.381 1.086 5.279 3.455 5.279h20.911c1.36 0 2.598-1.332 3.207-2.605 2.114-4.424 6.338-15.201 3.113-25.328-4.189-13.154 0-21.924 0-21.924l6.267 1.35c10.754 2.317 19.776 2.437 30.505 0 25.085-5.698 27.445-20.203 27.445-20.203 2.524 7.928 12.938 11.892 21.773 21.142 5.974 6.254 5.024 18.55 3.781 25.858-.516 3.035-2.602 5.595-5.457 6.35-3.182.841-5.568 2.662-7.345 4.768-3.472 4.113-.684 10.594 4.56 10.594h21.576c3.784 0 6.309-3.938 5.036-7.669-1.507-4.418-1.227-9.291.778-13.49l1.716-3.592c1.751-3.666 2.347-7.818 1.704-11.861z" fill="#52565b"/><path d="m75.797 64.276c-.016-3.318-2.078-5.17-3.87-6.226-1.664-.98-3.975.21-4.419 2.197-.49 2.193-1.774 5.116-4.971 7.923-6.28 5.514-4.797 12.197-4.797 12.197l7.647 3.993c16.008-6.425 10.442-13.506 10.41-20.084z" fill="#f98080"/><path d="m252.536 141.584c-.524-1.216-1.584-2.092-2.817-2.428-1.607-.438-3.314.116-4.385 1.444-2.231 2.763-5.014 8.027-1.089 14.308.675 1.079 2.094 1.297 3.039.469 1.172-1.028 2.641-2.609 3.433-4.588.2-.5.801-.655 1.191-.298.436.399 1.117.165 1.238-.427.371-1.813.77-5.277-.61-8.48z" fill="#52565b"/><path d="m29.356 102.474c-4.871-2.666-19.039-11.826-23.781-30.302-.373-1.454-2.406-1.316-2.602.175-1.235 9.398-1.039 26.507 13.303 38.388 1.265 1.048 2.829 1.643 4.442 1.655 3.119.024 8.071-.935 9.838-6.881.351-1.181-.152-2.461-1.2-3.035z" fill="#f9bd55"/><path d="m37.413 89.652c-3.963-2.355-8.539-6.24-11.54-12.485-.407-.847-1.64-.49-1.579.456.321 5.024 1.95 13.291 8.627 19.003 4.145 3.546 9.585-3.947 4.492-6.974z" fill="#f9bd55"/><path d="m200.315 200.38c-.003-.002-.006-.003-.008-.005-.154-.108-.294-.232-.437-.353-.082-.07-.171-.132-.249-.206-.053-.05-.099-.108-.15-.16-2.163-2.178-2.736-5.917-.488-8.649.034-.041.072-.081.107-.122.013-.016.022-.033.035-.048.095-.112.199-.22.297-.331.109-.123.216-.246.329-.367.13-.138.267-.27.403-.404.119-.117.234-.236.358-.351.142-.132.293-.257.441-.385.127-.109.25-.22.381-.326.157-.126.324-.244.488-.365.133-.098.262-.199.4-.294.174-.119.358-.228.539-.34.139-.086.273-.177.417-.259.195-.111.401-.211.603-.313.141-.071.276-.149.422-.216.234-.109.482-.204.727-.3.125-.049.243-.105.37-.151.378-.137.768-.26 1.172-.366 2.855-.755 4.941-3.315 5.457-6.35.311-1.827.603-3.966.773-6.244.085-1.139.14-2.313.151-3.5s-.021-2.388-.109-3.58-.233-2.376-.447-3.531c-.214-1.154-.498-2.279-.863-3.352-.366-1.073-.814-2.095-1.357-3.044s-1.182-1.825-1.929-2.607c-8.836-9.249-19.249-13.214-21.773-21.142 0 0-.868 5.277-7.053 10.715 3.846 2.952 8.297 6.113 12.418 10.426 5.974 6.254 5.024 18.55 3.781 25.858-.516 3.035-2.602 5.595-5.457 6.35-3.267.864-5.696 2.761-7.487 4.938-3.357 4.08-.442 10.423 4.702 10.423h16.409c-.322 0-.635-.025-.939-.073-.915-.14-1.731-.486-2.434-.976z" fill="#52565b"/><path d="m91.469 196.151c.73-2.622 2.199-5.723 5.125-7.652.882-3.333 1.353-7.019.992-10.854-.495-5.27.068-9.625.951-13.005-2.371-4.636-4.431-10.672-4.618-18.516l-.812-.991c-2.099.262-7.798.214-8.65-7.81 0 0-2.217-.39-5.096-1.567-4.227 12.41-3.526 24.489 2.47 40.135 1.164 3.036-2.33 13.901-4.705 13.375-11.068-2.451-14.368 3.645-15.332 8.065-.458 2.101 1.071 4.099 3.129 4.099h23.857c1.04 0 2.013-.522 2.614-1.41.15-.222.304-.461.458-.702-.496-.96-.676-2.114-.383-3.167z" fill="#52565b"/><path d="m186.371 135.219c-.878 0-1.73-.464-2.187-1.288-.401-.724-9.716-17.926-.312-34.801.671-1.206 2.194-1.64 3.4-.967 1.206.672 1.639 2.194.967 3.4-8.028 14.408.236 29.795.321 29.949.664 1.208.225 2.729-.983 3.395-.383.211-.797.312-1.206.312z"/><path d="m203.684 203.93h-16.409c-3.322 0-6.294-1.925-7.757-5.024-1.503-3.183-1.071-6.818 1.125-9.487 2.405-2.922 5.358-4.863 8.779-5.767 1.84-.486 3.265-2.194 3.632-4.352 1.102-6.481 2.161-18.179-3.124-23.711-3.358-3.516-6.905-6.204-10.335-8.803-.611-.463-1.21-.917-1.797-1.368-.593-.455-.951-1.152-.976-1.9-.025-.747.286-1.467.848-1.96 5.345-4.7 6.207-9.083 6.241-9.268.208-1.127 1.16-1.981 2.304-2.053 1.144-.069 2.193.631 2.542 1.724 1.288 4.043 5.257 7.05 10.284 10.857 3.417 2.588 7.29 5.521 10.916 9.316.862.903 1.633 1.943 2.291 3.092.604 1.054 1.126 2.224 1.554 3.48.39 1.143.711 2.388.956 3.702.222 1.198.384 2.477.482 3.803.089 1.206.128 2.481.116 3.788-.012 1.179-.065 2.411-.158 3.663-.157 2.09-.427 4.269-.802 6.477-.695 4.085-3.554 7.362-7.284 8.348-.33.087-.65.188-.961.3l-.408.168c-.165.065-.329.128-.486.201l-.498.256c-.114.057-.229.113-.338.176-.061.035-.118.073-.176.11l-.286.179c-.109.067-.219.133-.324.205l-.438.323c-.1.073-.2.145-.296.222l-.409.351c-.094.081-.189.161-.279.244-.065.061-.131.128-.198.194l-.096.096c-.002.003-.073.072-.076.075-.09.089-.182.178-.269.27-.07.075-.138.152-.206.229-.001.001-.068.078-.07.079l-.22.243c-.007.01-.014.019-.021.027l-.152.178c-1.439 1.749-.9 4.031.344 5.283.019.02.063.066.1.106l.146.118c.116.099.175.154.236.199.007.004.014.009.021.014.417.292.883.479 1.382.557.181.028.368.042.555.042 1.381 0 2.5 1.119 2.5 2.5s-1.125 2.498-2.505 2.498zm-20.539-60.726c3.287 2.493 6.951 5.322 10.399 8.931 6.454 6.756 5.976 18.958 4.438 28.003-.695 4.086-3.554 7.362-7.284 8.348-2.386.631-4.471 2.014-6.195 4.11-.97 1.178-1.144 2.739-.465 4.175.639 1.352 1.848 2.159 3.236 2.159h8.652c-1.473-3.057-1.131-6.77 1.125-9.511.016-.019.057-.066.089-.104.025-.033.05-.064.073-.091.083-.098.17-.194.258-.29l.086-.094c.159-.181.264-.299.374-.416.13-.138.266-.271.401-.405l.141-.14c.11-.11.22-.22.336-.327.142-.132.286-.256.43-.379l.185-.16c.112-.098.225-.195.342-.289.155-.125.315-.242.476-.359l.212-.156c.116-.087.232-.174.354-.257.174-.119.354-.23.533-.34l.21-.131c.126-.081.252-.16.384-.235.187-.107.381-.206.577-.304l.252-.129c.128-.068.256-.134.389-.196.24-.111.495-.213.75-.314l.198-.08c.112-.048.224-.094.341-.137.451-.163.911-.308 1.386-.434 1.841-.486 3.267-2.195 3.633-4.352.35-2.055.6-4.077.745-6.012.085-1.144.134-2.267.145-3.338.011-1.168-.023-2.302-.103-3.371-.085-1.145-.224-2.241-.412-3.26-.2-1.075-.459-2.085-.772-3-.325-.955-.715-1.832-1.16-2.609-.457-.798-.984-1.512-1.567-2.123-3.349-3.505-6.892-6.189-10.318-8.784-3.667-2.777-7.001-5.302-9.342-8.32-.832 1.433-1.974 3.05-3.532 4.721z"/><path d="m22.675 137.63c-.562 0-1.126-.188-1.593-.574-1.063-.881-1.212-2.457-.332-3.52.309-.373 7.653-9.127 16.062-9.127 6.934 0 9.315-1.005 10.758-2.516.952-.999 2.535-1.036 3.535-.081.998.954 1.035 2.536.081 3.535-2.792 2.923-6.822 4.062-14.373 4.062-5.049 0-10.526 5.281-12.211 7.315-.495.598-1.208.906-1.927.906z"/><path d="m20.835 114.892c-.046 0-.092 0-.138 0-2.164-.017-4.301-.809-6.017-2.229-15.323-12.696-15.465-30.913-14.186-40.641.245-1.867 1.714-3.25 3.571-3.362 1.867-.106 3.465 1.077 3.931 2.891 4.54 17.687 18.416 26.463 22.56 28.731 2.074 1.135 3.082 3.633 2.396 5.941-1.64 5.515-6.052 8.669-12.117 8.669zm-15.823-36.324c-.155 8.993 2.027 21.27 12.858 30.243.832.689 1.85 1.073 2.867 1.081h.103c3.853 0 6.314-1.713 7.319-5.094.02-.067-.003-.12-.014-.136-5.263-2.883-17.164-10.818-23.133-26.094z"/><path d="m21.105 125.025c-1.06 0-2.043-.679-2.382-1.742-.009-.028-.017-.051-.025-.071-.367-.041-1.213.193-1.669.431-1.224.641-2.734.168-3.374-1.056-.64-1.223-.168-2.734 1.056-3.374.548-.287 3.413-1.663 5.972-.61.944.388 2.197 1.252 2.805 3.163.419 1.315-.308 2.722-1.624 3.141-.252.08-.508.118-.759.118z"/><path d="m35.267 100.064c-1.407 0-2.783-.521-3.972-1.539-7.52-6.434-9.178-15.758-9.497-20.743-.105-1.639.922-3.072 2.498-3.484 1.554-.407 3.129.328 3.83 1.786 2.294 4.774 5.849 8.616 10.564 11.419 2.249 1.336 3.44 3.51 3.269 5.964-.185 2.643-1.938 5.101-4.364 6.116-.767.322-1.553.481-2.328.481zm-6.911-14.683c1.128 3.234 3.022 6.636 6.19 9.346.492.421.828.366 1.117.246.669-.28 1.256-1.112 1.308-1.854.025-.367-.046-.848-.835-1.317-2.955-1.757-5.573-3.924-7.78-6.421z"/><path d="m65.388 86.86c-.991 0-1.929-.593-2.321-1.569-.514-1.281.108-2.737 1.389-3.251 10.892-4.371 10.246-8.113 9.353-13.292-.248-1.436-.504-2.92-.512-4.459-.009-1.73-.847-3.029-2.639-4.084-.025-.009-.146-.006-.3.078-.163.089-.357.27-.41.51-.533 2.383-1.965 5.923-5.761 9.256-5.109 4.486-4.017 9.725-4.006 9.777.299 1.348-.551 2.683-1.899 2.982-1.349.299-2.684-.552-2.982-1.899-.074-.332-1.72-8.2 5.588-14.617 2.784-2.445 3.81-4.933 4.18-6.59.399-1.788 1.658-3.298 3.367-4.039 1.596-.692 3.333-.607 4.761.234 4.193 2.471 5.088 5.914 5.101 8.367.005 1.124.216 2.343.439 3.634.939 5.446 2.227 12.905-12.417 18.782-.306.123-.621.18-.931.18z"/><path d="m225.26 203.93h-21.576c-3.333 0-6.297-1.926-7.737-5.026-1.512-3.254-1.026-6.963 1.267-9.68 2.375-2.814 5.275-4.689 8.617-5.572 1.839-.486 3.265-2.194 3.631-4.352 1.102-6.48 2.161-18.179-3.124-23.712-3.349-3.505-6.892-6.189-10.319-8.784-3.662-2.773-6.991-5.294-9.331-8.306-3.055 5.265-10.302 13.023-27.208 16.863-10.785 2.45-20.231 2.452-31.585.006l-4.113-.886c-.856 3.035-1.99 9.639.754 18.257 3.517 11.043-1.094 22.676-3.24 27.164-.887 1.857-2.851 4.027-5.462 4.027h-20.91c-1.778 0-3.47-.885-4.642-2.428-1.308-1.722-1.776-4.03-1.221-6.022 1.881-6.759 6.429-10.762 12.806-11.272 1.526-3.085 2.027-5.872 1.278-7.441-.37-.773-1.141-1.89-2.034-3.183-3.407-4.932-8.963-12.974-9.657-25.886-1.515-.065-3.381-.451-5.115-1.649-2.087-1.442-3.458-3.682-4.088-6.674-3.441-.926-11.005-3.626-15.298-10.223-4.812 3.845-15.884 11.767-25.428 11.767-3.642 0-5.887.589-7.69 1.062-4.466 1.171-6.793 1.114-12.155-4.29-4.621.082-12.123-1.791-14-9.653-2.274-9.522-.308-14.497 6.786-17.171.917-.346 1.842-.726 2.913-1.198.595-.263 1.268-.282 1.878-.055.485.18.983.273 1.481.277h.103c3.853 0 6.314-1.713 7.319-5.094.012-.041 0-.085-.008-.109-.31-.885-.098-1.869.549-2.548 1.619-1.702 2.959-3.585 4.098-5.757.465-.887 1.409-1.413 2.415-1.332.559.057 1.304-.572 1.614-1.348.415-1.039-.165-1.506-.383-1.682-.805-.651-1.126-1.731-.807-2.716.238-.734.467-1.467.696-2.198 1.458-4.65 2.964-9.458 6.363-13.807 5.248-6.714 13.319-6.195 16.753-5.603.452-.493.933-.963 1.439-1.407 2.784-2.444 3.81-4.933 4.18-6.59.399-1.788 1.658-3.297 3.367-4.039 1.598-.692 3.333-.607 4.761.234 3.661 2.157 4.808 5.055 5.048 7.389 12.47-7.43 33.315-16.181 53.246-7.786 3.975 1.674 7.116 4.263 10.154 6.765 3.896 3.21 7.577 6.243 12.542 6.798 5.889.656 10.569-.728 17.048-2.646.972-.288 1.979-.586 3.033-.89 4.398-1.269 9.003-1.046 13.319.642 3.252 1.272 9.096 2.789 18.465 2.789 10.396 0 22.191 7.41 29.351 18.438 5.733 8.831 13.492 27.819 1.039 55.773-1.379 3.096-1.822 6.53-1.281 9.93l1.803 11.326c.729 4.572.065 9.182-1.917 13.332l-1.715 3.591c-1.715 3.591-1.959 7.821-.668 11.605.892 2.616.482 5.495-1.096 7.701-1.49 2.085-3.789 3.279-6.308 3.279zm-38.887-73.71c1.081 0 2.048.698 2.381 1.741 1.288 4.044 5.257 7.05 10.284 10.857 3.417 2.588 7.29 5.521 10.916 9.316 6.454 6.757 5.976 18.958 4.438 28.003-.695 4.085-3.554 7.362-7.284 8.348-2.33.616-4.374 1.949-6.074 3.963-1.224 1.45-1.088 3.197-.553 4.348.62 1.335 1.817 2.133 3.203 2.133h21.576c1.212 0 1.924-.742 2.241-1.184.642-.897.802-2.085.43-3.178-1.709-5.01-1.385-10.614.889-15.374l1.715-3.591c1.543-3.231 2.059-6.825 1.491-10.391l-1.803-11.326c-.694-4.359-.124-8.768 1.651-12.751 4.933-11.072 11.406-32.423-.665-51.015-5.053-7.784-15.082-16.161-25.157-16.161-8.148 0-14.973-1.054-20.286-3.133-3.285-1.285-6.781-1.455-10.112-.494-1.042.301-2.038.596-2.999.88-6.776 2.006-12.129 3.594-19.023 2.82-6.442-.72-10.877-4.374-15.166-7.907-2.888-2.379-5.615-4.626-8.916-6.017-10.373-4.37-27.823-6.264-52.043 9.531-.708.46-1.599.533-2.371.195-.773-.339-1.322-1.046-1.46-1.878-.192-1.152-.371-2.393-.377-3.665-.008-1.731-.847-3.029-2.639-4.085-.025-.009-.146-.006-.303.08-.162.09-.354.27-.407.507-.533 2.383-1.964 5.923-5.761 9.257-.662.581-1.239 1.194-1.766 1.876-.099.128-.21.247-.332.354-.017.015-.063.054-.08.068-.645.589-1.497.753-2.335.51-.335-.096-8.471-2.319-13.038 3.524-2.839 3.632-4.147 7.805-5.531 12.223-.089.283-.178.567-.267.851 1.237 1.736 1.493 3.948.632 6.104-.899 2.252-2.788 3.873-4.907 4.351-.997 1.724-2.12 3.294-3.399 4.756.01.524-.061 1.048-.213 1.56-1.651 5.556-6.16 8.707-12.254 8.668-.728-.006-1.451-.098-2.162-.274-.811.346-1.56.647-2.308.929-3.649 1.375-5.717 2.824-3.686 11.331 1.567 6.561 9.535 5.801 9.874 5.768.771-.081 1.534.2 2.068.759 4.476 4.686 5.027 4.543 8.082 3.741 1.972-.517 4.672-1.225 8.959-1.225 10.418 0 24.37-12.391 24.51-12.516.602-.539 1.425-.751 2.213-.579.787.176 1.442.72 1.757 1.463 3.593 8.463 14.775 10.553 14.888 10.573 1.095.196 1.934 1.092 2.051 2.198.253 2.385 1.006 4.026 2.237 4.876 1.714 1.185 4.045.648 4.068.642.749-.195 1.548-.034 2.161.439.613.474.972 1.205.972 1.979 0 12.947 5.321 20.649 8.842 25.746 1.057 1.529 1.891 2.737 2.432 3.87 1.97 4.125-.034 9.219-1.403 11.889-.794 1.548-2.285 2.555-3.988 2.691-4.251.34-7.074 2.906-8.388 7.629-.138.495.021 1.176.386 1.656.212.279.465.453.661.453h20.911c.118-.05.624-.497.951-1.183 1.889-3.952 5.961-14.15 2.986-23.491-4.438-13.938-.062-23.366.126-23.76.5-1.045 1.652-1.61 2.782-1.366l6.267 1.35c10.737 2.312 19.262 2.315 29.425.005 23.174-5.264 25.51-18.038 25.531-18.167.186-1.142 1.131-2.007 2.284-2.092.062-.006.124-.008.185-.008z"/><path d="m88.78 203.93h-23.856c-1.709 0-3.313-.775-4.402-2.125-1.131-1.404-1.557-3.229-1.169-5.006.836-3.83 2.759-6.802 5.563-8.595 3.064-1.96 7.072-2.48 11.917-1.551 1.39-1.86 3.194-8.292 2.663-9.873-6.215-16.215-6.963-28.727-2.5-41.831.222-.652.704-1.184 1.331-1.469s1.345-.299 1.982-.039c2.563 1.049 4.567 1.417 4.587 1.42 1.093.197 1.931 1.093 2.048 2.198.24 2.255.925 3.847 2.039 4.729 1.27 1.007 2.934.972 3.816.863.844-.104 1.698.232 2.243.896l.812.991c.354.431.552.968.566 1.525.15 6.312 1.571 12.015 4.344 17.438.28.546.348 1.176.193 1.77-.986 3.777-1.283 7.862-.881 12.14.354 3.772-.004 7.718-1.064 11.728-.157.594-.528 1.11-1.042 1.448-2.386 1.572-3.542 4.258-4.092 6.234-.11.396-.037.899.196 1.349.41.793.365 1.745-.116 2.497-.166.258-.33.514-.491.751-1.065 1.574-2.816 2.512-4.687 2.512zm-16.351-12.728c-1.942 0-3.555.405-4.819 1.214-1.683 1.076-2.818 2.909-3.372 5.448-.09.413.095.7.179.804.096.119.263.262.508.262h23.855c.088 0 .174-.02.254-.057-.278-1.133-.274-2.312.027-3.394 1.008-3.623 2.841-6.531 5.331-8.474.743-3.141.98-6.207.706-9.127-.424-4.518-.157-8.867.793-12.945-2.632-5.413-4.081-11.076-4.411-17.239-1.661-.068-3.747-.516-5.603-1.988-1.828-1.45-3.043-3.576-3.625-6.336-.381-.103-.812-.228-1.284-.377-3.169 11.057-2.169 21.992 3.201 36.003 1.42 3.707-1.386 12.405-3.761 15.161-1.508 1.75-3.038 1.725-3.818 1.55-1.522-.336-2.91-.505-4.161-.505zm19.04 4.948h.01z"/><path d="m122.682 100.909c-.099 0-.199-.006-.299-.018-1.371-.164-2.35-1.408-2.186-2.779.507-4.249-.336-7.726-2.507-10.333-4.135-4.965-11.839-5.506-11.916-5.511-1.375-.087-2.424-1.271-2.341-2.647.084-1.376 1.277-2.42 2.637-2.344.401.023 9.892.647 15.436 7.271 3.105 3.709 4.335 8.473 3.656 14.157-.153 1.27-1.232 2.204-2.48 2.204z"/><path d="m122.154 154.074c-.315 0-.636-.06-.947-.187-1.277-.523-1.889-1.983-1.366-3.261.86-2.1 4.229-7.554 5.889-9.867 1.174-1.636 1.334-3.805.38-5.157-7.486-10.617-6.493-23.177-6.447-23.707.12-1.375 1.336-2.394 2.707-2.274 1.375.12 2.393 1.33 2.274 2.704-.016.198-.831 11.345 5.551 20.396 2.176 3.086 2.01 7.59-.404 10.954-1.564 2.179-4.693 7.305-5.325 8.848-.394.965-1.327 1.551-2.312 1.551z"/><path d="m53.887 107.938c-.184 0-.37-.021-.557-.062-1.346-.306-2.189-1.646-1.884-2.992.275-1.209-.398-2.417-1.501-2.692-.614-.152-1.103.038-1.406.225-.489.301-.834.797-.97 1.396-.306 1.346-1.646 2.191-2.992 1.884-1.346-.306-2.189-1.646-1.884-2.992.437-1.92 1.582-3.534 3.225-4.545 1.583-.974 3.442-1.266 5.235-.818 3.724.927 6.043 4.809 5.169 8.652-.263 1.157-1.294 1.944-2.435 1.944z"/><path d="m173.464 115.707c-1.077 0-2.071-.701-2.395-1.786-5.619-18.823 3.459-27.414 3.849-27.771 1.017-.934 2.599-.864 3.532.155.928 1.013.864 2.583-.139 3.518-.33.316-7.105 7.073-2.451 22.668.395 1.323-.357 2.715-1.681 3.11-.238.072-.478.106-.715.106z"/><path d="m67.705 127.765c-.968 0-1.889-.565-2.297-1.511-.546-1.268.039-2.739 1.306-3.286 4.905-2.114 7.701-4.672 8.309-7.601.854-4.116-2.813-8.075-2.851-8.115-.943-1.003-.901-2.583.098-3.531 1-.947 2.574-.911 3.524.084.225.236 5.494 5.845 4.133 12.534-.943 4.639-4.723 8.414-11.234 11.22-.322.14-.658.206-.988.206z"/><path d="m245.962 158.38c-.216 0-.433-.016-.649-.047-1.312-.193-2.474-.958-3.188-2.099-3.501-5.603-3.04-11.873 1.263-17.204 1.685-2.087 4.428-2.984 6.989-2.285 2.014.549 3.637 1.953 4.454 3.851 1.653 3.837 1.188 7.893.763 9.969-.238 1.161-1.078 2.105-2.192 2.467-.352.114-.715.163-1.076.155-1.003 1.762-2.344 3.148-3.395 4.07-.831.729-1.887 1.123-2.969 1.123zm2.659-16.871c-.508 0-.997.234-1.341.662-2.882 3.57-3.286 7.243-1.205 10.925.838-.802 1.796-1.924 2.322-3.235.401-1.004 1.264-1.746 2.306-1.983.082-.019.164-.034.246-.046.132-1.524.063-3.467-.708-5.257-.208-.485-.649-.861-1.178-1.005-.148-.042-.296-.061-.442-.061zm1.599 10.826c.002.002.005.004.008.007-.002-.002-.005-.004-.008-.007z"/><path d="m249.289 141.07c-.156 0-.314-.015-.474-.045-1.356-.26-2.245-1.569-1.984-2.926 6.17-32.2-11.559-42.333-11.739-42.432-1.21-.664-1.654-2.183-.99-3.394.663-1.21 2.183-1.655 3.394-.99.864.474 21.094 12.021 14.246 47.757-.23 1.197-1.278 2.03-2.453 2.03z"/></svg>