<svg enable-background="new 0 0 256 256" height="512" viewBox="0 0 256 256" width="512" xmlns="http://www.w3.org/2000/svg"><path d="m86.035 242.019c-.004-.022-.009-.043-.013-.065-.049-.248-.089-.501-.12-.757-.006-.046-.012-.092-.018-.138-.025-.236-.041-.476-.051-.719-.003-.062-.008-.123-.01-.185-.007-.297-.004-.598.013-.906 0 0-14.944-47.135-13.938-82.3-13.723 5.844-28.047 21.043-21.64 43.338-2.32-.401-4.596-.274-6.717.467-9.359 3.273-12.152 17.18-6.236 31.063s18.298 22.484 27.657 19.211c.785-.274 1.521-.626 2.211-1.046 1.035-.63 2.104-1.203 3.248-1.605l15.815-5.549c-.079-.264-.145-.534-.201-.809z" fill="#7d3d1a"/><path d="m212.46 200.753c-2.12-.741-4.396-.868-6.717-.467 6.39-22.238-7.912-37.417-21.639-43.293.992 35.16-13.94 82.255-13.94 82.255.017.308.02.609.013.906-.002.063-.007.124-.01.186-.01.242-.026.482-.051.717-.005.047-.012.094-.018.141-.031.256-.071.508-.119.756-.004.022-.009.043-.013.065-.056.275-.123.545-.2.81l15.815 5.549c1.144.401 2.212.975 3.248 1.605.69.42 1.426.771 2.211 1.046 9.359 3.273 21.742-5.328 27.657-19.211s3.122-27.792-6.237-31.065z" fill="#7d3d1a"/><path d="m216.114 208.331c-6.912-3.052-16.877 4.35-22.258 16.534-.961 2.176-1.711 4.358-2.254 6.49 0 0-3.53 12.086 1.783 20.233 8.991 1.267 19.877-7.02 25.31-19.771 2.243-5.264 3.231-10.53 3.087-15.221-.809-3.956-2.717-6.962-5.668-8.265z" fill="#dd7f57"/><path d="m39.883 208.331c6.912-3.052 16.877 4.35 22.258 16.534.961 2.176 1.711 4.358 2.254 6.49 0 0 3.53 12.086-1.783 20.233-8.991 1.267-19.877-7.02-25.31-19.771-2.243-5.264-3.231-10.53-3.087-15.221.81-3.956 2.717-6.962 5.668-8.265z" fill="#dd7f57"/><g fill="#7d3d1a"><path d="m176.216 39.99c5.134-1.971 10.198-5.594 12.756-8.913 4.841-6.281 2.213-13.402-4.068-18.243s-13.836-5.569-18.677.712c-1.999 2.594-3.781 6.719-4.755 11.006 6.444 4.357 11.234 9.809 14.744 15.438z"/><path d="m79.78 39.988c3.511-5.631 8.298-11.091 14.745-15.448-.974-4.283-2.755-8.402-4.752-10.993-4.841-6.281-12.396-5.553-18.677-.712s-8.909 11.962-4.068 18.243c2.558 3.317 7.62 6.939 12.752 8.91z"/><path d="m191.768 89.174s-6.048-16.229-6.935-24.659c-1.246-11.834-9.044-36.752-35.181-45.873-.476-.166-.645-.749-.324-1.138 2.561-3.11 2.69-6.823 2.57-8.62-.03-.446-.55-.665-.891-.376-3.086 2.618-6.789 3.252-8.401 3.406-.381.036-.677-.327-.565-.693 1.364-4.489-.719-7.343-1.949-8.561-.309-.306-.832-.154-.915.273-.467 2.377-2.798 8.337-14.443 7.782-11.523-.549-18.341 4.692-21.647 8.325-.792.87-1.718 1.608-2.772 2.13-21.33 10.568-28 32.475-29.144 43.344-.887 8.43-6.935 24.659-6.935 24.659l5.394-2.312c-1.541 16.183 12.33 25.43 12.33 25.43l1.541-4.624c15.211 23.799 44.999 22.833 44.999 22.833s29.1 1.921 44.307-21.917l1.236 3.709s13.871-9.247 12.33-25.43z"/><path d="m182.639 142.945c-2.977-14.885-7.583-24.858-11.891-31.423-15.623 20.719-42.248 18.978-42.248 18.978s-27.069.861-42.777-19.682c-4.44 6.548-9.276 16.698-12.361 32.126-6.986 34.929 12.475 96.304 12.475 96.304-.998 17.963 39.42 17.963 39.42 5.489 0-4.657-3.735-7.956-6.848-9.896-2.638-1.645-4.268-4.505-4.469-7.607-.724-11.18-2.607-37.288-5.648-59.339-2.19-15.876 4.027-23.043 10.087-26.278 5.98-3.193 13.266-3.193 19.245 0 6.06 3.235 12.277 10.402 10.087 26.278-3.042 22.052-4.924 48.16-5.648 59.339-.201 3.103-1.83 5.963-4.469 7.607-3.113 1.94-6.848 5.239-6.848 9.896 0 12.475 40.418 12.475 39.42-5.489-.002 0 19.458-61.375 12.473-96.303z"/></g><path d="m137.593 234.841c2.638-1.645 4.268-4.505 4.469-7.607.724-11.18 2.607-37.288 5.649-59.339 2.19-15.876-4.027-23.043-10.087-26.278-5.98-3.193-13.266-3.193-19.245 0-6.06 3.235-12.277 10.402-10.087 26.278 3.042 22.052 4.924 48.16 5.649 59.339.201 3.103 1.83 5.963 4.469 7.607 1.562.974 3.281 2.291 4.606 3.949 1.634.291 3.296.459 4.987.459s3.352-.167 4.987-.459c1.322-1.659 3.04-2.975 4.603-3.949z" fill="#dd7f57"/><path d="m175.385 38.692c2.13-1.276 3.999-2.837 5.134-4.31 3.264-4.235 1.492-9.036-2.743-12.3s-9.329-3.755-12.593.48c-.676.877-1.31 2.023-1.864 3.302 5.051 3.764 9.007 8.211 12.066 12.828z" fill="#dd7f57"/><path d="m80.616 38.692c3.06-4.619 7.008-9.071 12.061-12.837-.553-1.276-1.186-2.419-1.86-3.293-3.264-4.235-8.358-3.744-12.593-.48s-6.007 8.065-2.743 12.3c1.135 1.473 3.004 3.034 5.135 4.31z" fill="#dd7f57"/><path d="m128.203 65.557h-.406c-10.459.596-22.329 24.001-22.329 38.486 0 13.881 20.338 13.809 22.532 13.76 2.194.048 22.532.121 22.532-13.76 0-14.485-11.87-37.89-22.329-38.486z" fill="#dd7f57"/><path d="m133.777 84.567c0 2.815-2.962 6.797-5.777 6.797s-5.777-3.981-5.777-6.797 2.962-3.032 5.777-3.032 5.777.217 5.777 3.032z" fill="#52565b"/><path d="m196.432 206.323c-.806 0-1.597-.389-2.079-1.109-.769-1.147-.461-2.7.686-3.468 5.48-3.67 10.378-3.947 10.584-3.957 1.361-.065 2.552.997 2.618 2.376.066 1.375-.989 2.543-2.362 2.618-.094.006-3.827.284-8.057 3.117-.428.286-.912.423-1.39.423z"/><path d="m191.604 233.855c-.205 0-.412-.025-.62-.078-1.338-.341-2.146-1.702-1.805-3.04.59-2.311 1.394-4.626 2.39-6.882 6.029-13.652 17.253-21.478 25.555-17.811 3.58 1.581 6.104 5.15 7.108 10.051.277 1.353-.595 2.674-1.947 2.951-1.345.273-2.675-.594-2.951-1.947-.474-2.314-1.593-5.316-4.229-6.48-5.544-2.451-14.228 4.537-18.961 15.256-.885 2.003-1.598 4.055-2.118 6.098-.29 1.13-1.306 1.882-2.422 1.882z"/><path d="m59.567 206.323c-.478 0-.961-.137-1.389-.423-4.27-2.859-8.006-3.115-8.043-3.117-1.379-.067-2.443-1.239-2.376-2.618s1.235-2.439 2.618-2.376c.206.01 5.104.287 10.583 3.957 1.147.768 1.455 2.321.686 3.468-.481.72-1.272 1.109-2.079 1.109z"/><path d="m64.396 233.856c-1.116 0-2.132-.752-2.42-1.883-.521-2.042-1.233-4.094-2.119-6.098-4.733-10.719-13.418-17.709-18.961-15.257-2.637 1.165-3.755 4.167-4.229 6.48-.277 1.353-1.596 2.227-2.951 1.948-1.353-.277-2.225-1.598-1.948-2.951 1.003-4.9 3.528-8.47 7.107-10.051 8.303-3.663 19.526 4.159 25.555 17.811.997 2.257 1.801 4.573 2.39 6.884.341 1.338-.467 2.699-1.805 3.04-.207.052-.415.077-.619.077z"/><path d="m195.292 254.236c-1.734 0-3.438-.275-5.078-.849-.932-.326-1.835-.752-2.685-1.269-1.095-.667-1.951-1.092-2.777-1.382l-15.814-5.549c-1.253-.439-1.943-1.782-1.572-3.057.059-.202.109-.407.152-.616.045-.232.075-.424.1-.62l2.496.192-2.482-.295c.02-.183.03-.367.038-.552.001-.017.006-.108.007-.125.007-.25.006-.485-.008-.725-.018-.304.021-.608.113-.898.147-.467 14.792-47.106 13.824-81.429-.024-.852.388-1.658 1.093-2.138.706-.479 1.606-.567 2.39-.231 15.289 6.544 28.115 22.17 23.894 42.881 1.49.064 2.929.337 4.304.817 3.988 1.395 7.102 4.408 9.003 8.714 3.076 6.967 2.594 16.571-1.292 25.689-5.526 12.968-16.079 21.442-25.706 21.442zm-22.676-13.056 13.792 4.839c1.515.531 2.848 1.298 3.719 1.828.55.334 1.135.61 1.737.821 7.982 2.794 19.223-5.372 24.532-17.832 3.353-7.869 3.845-15.985 1.317-21.71-1.328-3.008-3.43-5.087-6.079-6.014-1.662-.581-3.502-.703-5.466-.363-.853.146-1.713-.154-2.287-.794s-.779-1.532-.541-2.359c3.515-12.231 1.021-29.201-16.691-38.618-.083 17.465-3.621 37.062-6.703 50.873-3.215 14.4-6.572 25.481-7.269 27.734.004.211.003.42-.002.628l-.009.204c-.011.269-.026.519-.05.763z"/><path d="m60.708 254.236c-9.628 0-20.179-8.473-25.703-21.44-3.885-9.119-4.368-18.722-1.292-25.689 1.901-4.306 5.014-7.319 9.002-8.714 1.375-.48 2.812-.753 4.302-.817-4.245-20.778 8.592-36.408 23.9-42.928.784-.333 1.684-.246 2.388.235.704.48 1.115 1.285 1.091 2.137-.982 34.328 13.674 81.005 13.823 81.473.091.289.129.591.113.894-.013.241-.015.478-.009.71 0 .013.007.113.007.126.008.205.021.391.04.573l.014.11c.022.185.053.377.09.566l-2.439.547 2.449-.5c.042.208.092.411.15.61.372 1.275-.319 2.619-1.572 3.059l-15.814 5.549c-.825.29-1.682.716-2.776 1.381-.848.516-1.751.943-2.685 1.27-1.64.573-3.345.848-5.079.848zm-12.994-51.674c-1.179 0-2.299.184-3.348.551-2.649.926-4.751 3.006-6.079 6.014-2.528 5.725-2.035 13.841 1.317 21.71 5.308 12.46 16.543 20.625 24.532 17.832.604-.211 1.188-.487 1.737-.821.872-.53 2.206-1.296 3.719-1.828l13.792-4.839c-.023-.253-.039-.496-.049-.74l-.011-.228c-.004-.208-.005-.417-.001-.628-.696-2.253-4.057-13.343-7.273-27.755-3.082-13.812-6.618-33.405-6.698-50.867-12.444 6.836-21.829 20.754-16.691 38.633.238.827.033 1.719-.542 2.359-.575.641-1.435.94-2.287.794-.725-.124-1.431-.187-2.118-.187z"/><path d="m130.257 133.045c-.902 0-1.521-.027-1.798-.043-2.293.053-28.204.174-44.142-19.887-.252.724-.823 1.293-1.55 1.542-.736.252-1.55.148-2.198-.285-.567-.378-12.855-8.75-13.535-23.679l-1.817.778c-.921.395-1.985.202-2.709-.488s-.967-1.746-.618-2.683c.06-.159 5.948-16.031 6.792-24.048 1.547-14.699 10.468-35.388 30.52-45.323.727-.36 1.411-.889 2.034-1.573 3.344-3.674 10.858-9.751 23.614-9.139 9.605.45 11.5-3.88 11.871-5.766.217-1.101 1.016-1.989 2.085-2.318 1.076-.33 2.24-.045 3.041.747 1.124 1.113 3.332 3.853 3.127 8.035 1.369-.402 2.985-1.101 4.415-2.314.882-.746 2.09-.933 3.152-.484s1.771 1.444 1.85 2.597c.125 1.874.008 5.171-1.766 8.368 22.843 9.049 32.976 30.856 34.693 47.17.845 8.022 6.732 23.889 6.792 24.048.35.938.106 1.993-.618 2.683-.725.69-1.788.883-2.709.488l-1.817-.779c-.679 14.929-12.968 23.301-13.535 23.679-.648.433-1.46.538-2.198.285-.443-.152-.829-.424-1.12-.777-13.952 17.733-35.324 19.166-41.856 19.166zm-1.758-5.045c.056 0 .111.002.166.005.275.014 27.833 1.495 42.036-20.767.519-.813 1.466-1.255 2.414-1.136.957.118 1.76.776 2.065 1.69l.094.283c3.625-3.365 9.601-10.587 8.611-20.976-.084-.879.302-1.736 1.015-2.257s1.647-.626 2.458-.278l.158.068c-1.891-5.593-4.58-14.257-5.17-19.856-.358-3.409-4.349-33.595-33.519-43.774-.999-.35-1.763-1.163-2.046-2.177-.283-1.01-.053-2.098.614-2.91.844-1.023 1.351-2.141 1.647-3.205-2.441 1.155-4.767 1.556-6.201 1.692-1.019.096-1.998-.317-2.641-1.102-.643-.787-.85-1.836-.554-2.807.355-1.17.404-2.178.266-3.038-2.029 2.98-6.305 6.186-15.301 5.756-10.177-.484-16.317 3.817-19.68 7.511-1.044 1.146-2.226 2.05-3.512 2.687-18.23 9.035-26.351 27.931-27.765 41.368-.59 5.599-3.279 14.262-5.17 19.855l.157-.067c.812-.349 1.746-.242 2.458.278.713.521 1.099 1.378 1.015 2.256-.989 10.388 4.985 17.609 8.612 20.976l.399-1.197c.305-.914 1.107-1.572 2.063-1.69.962-.117 1.896.323 2.415 1.134 14.242 22.277 42.538 21.686 42.818 21.679.026-.001.052-.001.078-.001z"/><path d="m147.995 255.999c-5.286 0-10.428-1.008-14.167-3.075-3.601-1.991-5.584-4.898-5.584-8.187 0-4.589 2.775-8.745 8.026-12.018 1.912-1.192 3.145-3.303 3.296-5.647.677-10.446 2.582-37.156 5.667-59.52 1.623-11.767-1.334-19.751-8.788-23.731-5.209-2.781-11.681-2.781-16.891 0-7.454 3.979-10.411 11.964-8.788 23.731 3.085 22.363 4.991 49.073 5.667 59.519.152 2.345 1.384 4.456 3.296 5.647 5.251 3.274 8.026 7.43 8.026 12.018 0 3.288-1.983 6.195-5.584 8.187-8.278 4.578-23.439 3.962-31.807-1.292-4.729-2.969-7.157-7.126-7.044-12.047-1.852-5.938-19.217-63.104-12.412-97.13 2.682-13.409 6.969-24.524 12.744-33.039.451-.665 1.194-1.073 1.998-1.096.816-.028 1.569.342 2.057.98 14.712 19.241 40.447 18.703 40.715 18.701.079-.001.161 0 .24.004.252.014 25.494 1.368 40.089-17.989.49-.649 1.266-1.029 2.078-.993.812.026 1.562.447 2.008 1.127 5.528 8.424 9.65 19.292 12.252 32.304 2.963 14.813 1.745 35.752-3.619 62.237-3.607 17.814-7.982 32.27-8.792 34.89.114 4.922-2.313 9.081-7.044 12.05-4.588 2.882-11.22 4.369-17.639 4.369zm-19.995-119.297c3.709 0 7.419.903 10.801 2.708 6.527 3.485 13.801 11.315 11.386 28.825-3.062 22.201-4.958 48.768-5.63 59.16-.257 3.949-2.365 7.525-5.642 9.567-2.587 1.613-5.671 4.271-5.671 7.775 0 1.427 1.011 2.709 3.004 3.811 5.997 3.316 19.257 3.541 26.729-1.151 3.293-2.068 4.872-4.763 4.691-8.01-.017-.302.021-.605.113-.894.192-.608 19.184-61.167 12.406-95.058-2.18-10.897-5.446-20.164-9.727-27.605-15.972 18.157-39.833 17.291-42.002 17.172-2.187.043-26.42.154-42.473-17.937-4.499 7.559-7.916 17.083-10.172 28.369-6.781 33.905 12.213 94.45 12.406 95.058.091.289.13.592.113.894-.18 3.248 1.398 5.942 4.691 8.01 7.474 4.691 20.733 4.466 26.729 1.151 1.993-1.102 3.003-2.384 3.003-3.811 0-3.503-3.084-6.162-5.671-7.775-3.276-2.042-5.385-5.619-5.641-9.567-.673-10.392-2.568-36.958-5.63-59.159-2.415-17.511 4.859-25.341 11.387-28.826 3.381-1.804 7.091-2.707 10.8-2.707z"/><path d="m96.166 73.624c-1.377 0-2.496-1.114-2.5-2.492-.007-2.109.808-4.094 2.294-5.589 1.486-1.496 3.466-2.324 5.575-2.33h.026c4.34 0 7.879 3.524 7.893 7.868.004 1.381-1.111 2.504-2.492 2.508-.003 0-.006 0-.008 0-1.377 0-2.496-1.114-2.5-2.492-.005-1.596-1.317-2.924-2.903-2.885-.773.002-1.499.306-2.044.854s-.843 1.276-.841 2.049c.004 1.381-1.111 2.504-2.492 2.508-.003.001-.006.001-.008.001z"/><path d="m149.046 73.624c-1.377 0-2.495-1.114-2.5-2.492-.007-2.109.808-4.094 2.294-5.59s3.467-2.323 5.575-2.33c2.116-.036 4.094.808 5.589 2.294s2.323 3.466 2.33 5.574c.005 1.381-1.111 2.504-2.492 2.508-.002 0-.005 0-.008 0-1.377 0-2.495-1.114-2.5-2.492-.003-.773-.306-1.499-.854-2.044-.546-.542-1.27-.841-2.039-.841-.003 0-.006 0-.01 0-.773.002-1.499.306-2.044.854s-.844 1.276-.841 2.049c.005 1.381-1.111 2.504-2.492 2.508-.002.002-.005.002-.008.002z"/><path d="m176.217 42.491c-.843 0-1.654-.428-2.122-1.178-3.727-5.976-8.444-10.918-14.023-14.689-.854-.577-1.266-1.62-1.037-2.625 1.051-4.629 3-9.107 5.212-11.978 2.773-3.599 6.498-5.501 10.771-5.501h.009c3.783.002 7.727 1.501 11.403 4.335 3.676 2.833 6.13 6.265 7.096 9.923 1.092 4.135.202 8.225-2.573 11.826-2.93 3.801-8.362 7.617-13.84 9.721-.294.112-.597.166-.896.166zm-11.898-18.995c4.976 3.616 9.286 8.102 12.849 13.371 3.942-1.849 7.805-4.696 9.823-7.316 1.818-2.359 2.391-4.882 1.7-7.497-.672-2.545-2.56-5.116-5.314-7.239s-5.722-3.293-8.354-3.295c-.002 0-.004 0-.006 0-2.702 0-4.994 1.195-6.811 3.553-1.52 1.973-2.953 5.101-3.887 8.423z"/><path d="m79.78 42.489c-.299 0-.603-.054-.896-.167-5.476-2.103-10.907-5.918-13.836-9.719-2.775-3.601-3.665-7.69-2.573-11.825.966-3.658 3.42-7.09 7.096-9.923s7.62-4.333 11.403-4.335h.009c4.273 0 7.998 1.902 10.771 5.5 2.21 2.868 4.157 7.34 5.209 11.965.229 1.006-.183 2.049-1.038 2.626-5.572 3.765-10.29 8.71-14.023 14.7-.468.75-1.28 1.178-2.122 1.178zm1.202-30.969c-.002 0-.004 0-.006 0-2.632.001-5.599 1.172-8.354 3.295s-4.642 4.694-5.314 7.239c-.69 2.616-.119 5.138 1.699 7.497 2.019 2.62 5.879 5.466 9.82 7.314 3.567-5.279 7.878-9.768 12.85-13.381-.934-3.317-2.365-6.44-3.884-8.411-1.816-2.358-4.108-3.553-6.811-3.553z"/><path d="m120.282 108.465c-2.226 0-4.422-.745-6.248-2.197-1.081-.859-1.26-2.432-.4-3.513.859-1.081 2.433-1.26 3.513-.4 1.561 1.241 3.577 1.46 5.39.584 1.856-.895 2.964-2.652 2.964-4.7v-6.5c0-1.381 1.119-2.5 2.5-2.5s2.5 1.119 2.5 2.5v6.5c0 3.954-2.219 7.48-5.792 9.204-1.42.685-2.931 1.022-4.427 1.022z"/><path d="m135.719 108.465c-1.498 0-3.008-.337-4.428-1.022-3.572-1.723-5.791-5.25-5.791-9.204v-6.5c0-1.381 1.119-2.5 2.5-2.5s2.5 1.119 2.5 2.5v6.5c0 2.048 1.107 3.805 2.964 4.7 1.813.875 3.829.656 5.391-.584 1.082-.86 2.653-.68 3.513.4.859 1.081.68 2.653-.401 3.513-1.826 1.452-4.023 2.197-6.248 2.197z"/><path d="m128 241.748c-1.75 0-3.575-.167-5.426-.498-.597-.106-1.136-.426-1.514-.9-.961-1.203-2.298-2.343-3.976-3.388-3.276-2.042-5.385-5.619-5.641-9.567-.673-10.392-2.568-36.958-5.63-59.159-2.415-17.511 4.859-25.341 11.387-28.826 6.761-3.61 14.836-3.61 21.601 0 6.527 3.485 13.801 11.315 11.386 28.825-3.062 22.201-4.958 48.768-5.63 59.16-.257 3.949-2.365 7.525-5.642 9.567-1.677 1.045-3.015 2.186-3.976 3.388-.379.474-.917.794-1.514.9-1.849.331-3.675.498-5.425.498zm4.986-2.958h.01zm-8.666-2.32c2.51.37 4.82.372 7.359 0 1.228-1.356 2.768-2.614 4.591-3.751 1.912-1.192 3.145-3.303 3.296-5.647.677-10.446 2.582-37.156 5.667-59.52 1.623-11.767-1.334-19.751-8.788-23.731-5.209-2.781-11.682-2.781-16.891 0-7.454 3.979-10.411 11.964-8.788 23.731 3.085 22.363 4.991 49.073 5.667 59.519.152 2.344 1.384 4.456 3.296 5.647 1.824 1.137 3.364 2.396 4.591 3.752z"/><path d="m175.387 41.192c-.812 0-1.606-.396-2.086-1.12-3.171-4.787-7.032-8.893-11.476-12.204-.93-.692-1.261-1.934-.8-2.998.661-1.528 1.394-2.819 2.177-3.835 3.86-5.006 10.328-5.382 16.101-.934 5.771 4.448 7.055 10.8 3.197 15.806-1.327 1.722-3.397 3.472-5.831 4.929-.401.241-.845.356-1.282.356zm-8.921-16.048c3.581 2.9 6.786 6.284 9.565 10.098 1.039-.791 1.921-1.625 2.508-2.386 3.153-4.091-.955-7.766-2.289-8.794-1.333-1.028-5.932-4.065-9.088.026-.23.301-.465.656-.696 1.056z"/><path d="m80.614 41.193c-.438 0-.881-.115-1.283-.356-2.434-1.458-4.504-3.208-5.831-4.929-3.858-5.006-2.574-11.358 3.197-15.806 5.772-4.448 12.241-4.072 16.1.934.783 1.016 1.514 2.303 2.174 3.826.461 1.064.13 2.305-.8 2.998-4.43 3.302-8.29 7.411-11.471 12.213-.48.724-1.274 1.12-2.086 1.12zm4.27-19.183c-2.218 0-4.306 1.414-5.134 2.052-1.334 1.028-5.442 4.702-2.289 8.794.587.762 1.469 1.595 2.508 2.386 2.785-3.824 5.988-7.21 9.56-10.106-.23-.397-.462-.75-.692-1.048-1.196-1.551-2.599-2.078-3.953-2.078z"/><path d="m127.364 120.31c-3.469 0-14.328-.493-20.33-6.366-2.698-2.64-4.066-5.971-4.066-9.901 0-7.395 2.895-17.228 7.554-25.66 5.201-9.413 11.446-14.998 17.133-15.322.047-.002.095-.004.142-.004h.406c.047 0 .095.001.142.004 5.687.324 11.931 5.909 17.132 15.322 4.66 8.433 7.555 18.265 7.555 25.66 0 3.93-1.368 7.261-4.065 9.901-6.44 6.3-18.47 6.414-20.967 6.36-.169.004-.383.006-.636.006zm.511-52.253c-8.209.572-19.907 21.691-19.907 35.986 0 2.57.838 4.64 2.562 6.327 4.194 4.104 12.933 5.032 17.415 4.934.037-.001.072-.001.109 0 4.49.099 13.221-.831 17.415-4.934 1.725-1.687 2.562-3.757 2.562-6.327 0-14.295-11.698-35.414-19.907-35.986z"/><path d="m128 93.864c-4.38 0-8.277-5.199-8.277-9.297 0-5.532 6.23-5.532 8.277-5.532s8.277 0 8.277 5.532c0 4.098-3.897 9.297-8.277 9.297zm-3.275-9.436c.003.018-.002.067-.002.139 0 1.729 2.149 4.297 3.277 4.297 1.129 0 3.277-2.568 3.277-4.297 0-.134-.018-.189-.018-.189-.128-.079-.799-.343-3.26-.343-2.317 0-3.047.234-3.274.393z"/></svg>