<svg enable-background="new 0 0 256 256" height="512" viewBox="0 0 256 256" width="512" xmlns="http://www.w3.org/2000/svg"><path d="m21.247 134.73c-.698 0-1.386-.046-2.065-.121v5.551c0 1.339 1.096 2.435 2.435 2.435h5.059c1.339 0 2.435-1.096 2.435-2.435v-5.43z" fill="#e3e4e5"/><path d="m75.535 134.73h-7.864v5.43c0 1.339 1.096 2.435 2.435 2.435h5.059c1.339 0 2.435-1.096 2.435-2.435v-5.551c-.679.076-1.367.121-2.065.121z" fill="#e3e4e5"/><path d="m242.958 123.851c.563 3.966.508 8.461-.386 13.541 6.398 8.498 10.099 24.679 10.889 9.658.577-10.943-5.433-18.673-10.503-23.199z" fill="#9e512b"/><path d="m81.37 96.435c-1.429-.472-2.619-1.529-3.132-2.943-1.046-2.882-3.803-4.941-7.046-4.941-2.962 0-5.519 1.717-6.738 4.21-.838 1.715-2.674 2.717-4.583 2.717h-23.239c-1.834 0-3.605-.909-4.501-2.509-1.282-2.291-3.729-3.841-6.542-3.841-3.096 0-5.751 1.875-6.897 4.552-.552 1.291-1.684 2.252-3.023 2.672-7.606 2.388-13.169 9.504-13.169 17.873v1.758c0 10.311 8.436 18.747 18.747 18.747h11.563c5.878 0 11.079-3.023 14.139-7.587.696-1.039 2.188-1.039 2.884 0 3.06 4.565 8.261 7.587 14.139 7.587h11.563c10.311 0 18.747-8.436 18.747-18.747v-1.759c0-8.273-5.437-15.324-12.912-17.789z" fill="#f98080"/><g fill="#9e512b"><path d="m70.106 142.595c-1.339 0-2.435-1.096-2.435-2.435v-5.43h-3.699c-5.878 0-11.079-3.023-14.139-7.587-.696-1.039-2.188-1.039-2.884 0-3.06 4.565-8.261 7.587-14.139 7.587h-3.699v5.43c0 1.339-1.096 2.435-2.435 2.435h-1.887c4.664 5.539 13.483 9.278 23.602 9.278s18.938-3.739 23.602-9.278z"/><path d="m215.648 95.486c-51.073-29.465-109.022-8.84-109.022-8.84-5.893-3.929-11.786 0-11.786 0-6.875-4.911-12.768-.982-12.768-.982-.181 0-.365-.01-.547-.017.511 5.767 3.401 10.786 5.998 14.216-.001-.001-.002-.001-.003-.002 4.124 3.44 6.764 8.602 6.764 14.363v1.759c0 9.613-7.334 17.589-16.683 18.626v5.551c0 1.339-1.095 2.435-2.435 2.435h-3.172c-4.376 5.197-12.41 8.809-21.744 9.235.638.324 1.237.574 1.718.751.698.257 1.263.791 1.536 1.483 1.981 5.015 4.947 6.772 6.783 7.387.986.33 1.646 1.246 1.732 2.282 1.328 16.029 18.197 31.635 8.757 36.355-3.655 1.827-5.541 4.063-6.47 6.149-1.386 3.113.923 6.619 4.331 6.619h21.629c1.458 0 2.832-.677 3.734-1.822 9.7-12.314 5.259-34.518 5.259-34.518 4.911-1.964 5.893-4.911 5.893-4.911 48.127 23.572 84.244-.41 84.244-.41 5.217 14.43 19.731 24.01 10.045 25.947-7.428 1.485-10.362 5.468-11.445 9.051-1.006 3.328 1.595 6.664 5.072 6.664h21.086c2.763 0 5.363-1.322 6.993-3.553 8.38-11.478 6.458-25.982 7.355-33.884.378-3.327 1.784-6.463 4.099-8.882 6.845-7.153 7.9-17.554 8.062-20.589.032-.606.139-1.21.311-1.792 11.918-40.448-25.326-48.671-25.326-48.671z"/><path d="m64.306 206.237c.929-2.087 2.815-4.322 6.47-6.149 9.439-4.72-7.429-20.325-8.757-36.355-.086-1.036-.747-1.952-1.732-2.282-1.835-.615-4.802-2.372-6.783-7.387-.273-.692-.838-1.227-1.536-1.483-.453-.166-1.016-.404-1.613-.701l-.996 9.956c-.143 1.426-.128 2.866.101 4.281 2.456 15.173 15.557 29.485 6.583 33.972-3.655 1.827-5.541 4.063-6.47 6.149-1.386 3.113.923 6.619 4.331 6.619h14.733c-.154 0-.279-.01-.391-.025-3.188-.258-5.271-3.603-3.94-6.595z"/><path d="m187.997 206.193c1.083-3.583 4.017-7.566 11.445-9.051 9.686-1.937-4.828-11.517-10.045-25.947 0 0-4.074 2.702-11.301 5.401 6.15 11.401 16.016 18.862 7.596 20.546-7.428 1.485-10.362 5.468-11.445 9.051-1.006 3.328 1.595 6.664 5.072 6.664h13.751c-3.479 0-6.08-3.336-5.073-6.664z"/></g><path d="m32.315 134.73c4.5 3.204 10.053 5.109 16.076 5.109s11.577-1.905 16.076-5.109h-.495c-5.878 0-11.079-3.023-14.139-7.587-.696-1.039-2.188-1.039-2.884 0-3.06 4.565-8.261 7.587-14.139 7.587z" fill="#fd605b"/><path d="m15.67 96.352c1.339-.42 2.471-1.382 3.023-2.672 1.146-2.677 3.801-4.552 6.897-4.552 2.813 0 5.26 1.55 6.542 3.841.895 1.6 2.667 2.509 4.501 2.509h23.239c1.909 0 3.745-1.001 4.583-2.717 1.218-2.493 3.776-4.21 6.738-4.21 3.243 0 6 2.059 7.046 4.941.513 1.414 1.703 2.472 3.132 2.943 2.272.75 4.351 1.927 6.151 3.429-2.86-3.778-6.086-9.478-6.086-15.988 0-11.617-5.149-31.604-32.785-31.832h-.52c-27.636.228-32.785 20.215-32.785 31.832 0 6.5-3.217 12.194-6.074 15.972 1.865-1.553 4.032-2.754 6.398-3.496z" fill="#9e512b"/><path d="m90.906 48.341c-6.875-9.822-12.768-3.929-12.768 2.947 0 4.353-2.754 7.914-4.776 9.944 2.009 2.137 3.545 4.509 4.716 6.962 12.052.06 19.208-10.738 12.828-19.853z" fill="#f98080"/><path d="m23.421 61.232c-2.022-2.03-4.776-5.591-4.776-9.944 0-6.875-5.893-12.768-12.768-2.947-6.38 9.115.777 19.913 12.829 19.852 1.169-2.452 2.706-4.824 4.715-6.961z" fill="#f98080"/><path d="m189.396 173.695c-1.023 0-1.983-.633-2.351-1.65-3.559-9.844-2.052-19.408 4.478-28.425.81-1.119 2.373-1.368 3.491-.559 1.118.81 1.368 2.373.559 3.491-5.578 7.702-6.829 15.485-3.826 23.792.469 1.299-.203 2.732-1.501 3.201-.28.102-.567.15-.85.15z"/><path d="m92.716 109.251c-.248 0-.5-.037-.749-.115-1.317-.413-2.05-1.816-1.637-3.133 1.788-5.701 2.066-9.486 2.069-9.524.095-1.375 1.288-2.417 2.663-2.323 1.375.093 2.417 1.28 2.326 2.655-.012.175-.305 4.365-2.288 10.688-.334 1.068-1.32 1.752-2.384 1.752z"/><path d="m106.136 106.335c-.201 0-.405-.024-.608-.075-1.339-.335-2.154-1.692-1.819-3.032.891-3.564.908-7.217.908-7.253.002-1.379 1.121-2.497 2.5-2.497h.002c1.38.001 2.498 1.119 2.498 2.499 0 .173-.012 4.285-1.057 8.464-.285 1.136-1.304 1.894-2.424 1.894z"/><path d="m179.305 161.828c-1.138 0-2.167-.782-2.434-1.938-1.567-6.79-.564-12.99-.521-13.251.227-1.362 1.516-2.285 2.877-2.055 1.361.227 2.28 1.513 2.056 2.873-.009.055-.876 5.519.46 11.308.311 1.346-.528 2.688-1.874 2.999-.189.043-.378.064-.564.064z"/><path d="m251.905 155.71c-2.349 0-3.688-2.724-5.961-7.344-1.479-3.007-3.32-6.749-5.369-9.47-.417-.554-.585-1.255-.465-1.937.802-4.56.928-8.853.373-12.757-.147-1.039.37-2.06 1.295-2.556.926-.496 2.062-.359 2.845.339 5.517 4.925 11.961 13.293 11.335 25.196-.234 4.448-.63 7.896-3.356 8.455-.243.05-.475.074-.697.074zm-6.696-18.937c2.052 2.946 3.795 6.488 5.221 9.387.167.34.342.695.519 1.051.005-.095.011-.192.016-.292.356-6.767-2.085-12.214-5.166-16.325-.063 2.006-.26 4.069-.59 6.179z"/><path d="m75.535 137.23h-11.563c-6.14 0-11.886-2.897-15.581-7.803-3.695 4.906-9.441 7.803-15.581 7.803h-11.563c-11.716 0-21.247-9.531-21.247-21.247v-1.758c0-9.315 5.997-17.457 14.922-20.258.672-.211 1.223-.687 1.474-1.271 1.577-3.686 5.187-6.068 9.194-6.068 3.614 0 6.957 1.962 8.724 5.121.418.747 1.328 1.229 2.319 1.229h23.239c1.03 0 1.947-.516 2.337-1.314 1.692-3.462 5.134-5.613 8.984-5.613 4.19 0 7.966 2.647 9.396 6.588.234.645.819 1.176 1.565 1.422 8.749 2.886 14.628 10.99 14.628 20.164v1.758c0 11.716-9.531 21.247-21.247 21.247zm-27.144-13.366c.001 0 .001 0 0 0 1.412 0 2.728.706 3.519 1.888 2.72 4.056 7.229 6.479 12.062 6.479h11.563c8.958 0 16.247-7.289 16.247-16.248v-1.758c0-7.012-4.499-13.207-11.195-15.416-2.222-.733-3.935-2.361-4.698-4.464-.715-1.97-2.602-3.294-4.696-3.294-1.924 0-3.646 1.076-4.492 2.808-1.222 2.502-3.903 4.119-6.829 4.119h-23.24c-2.815 0-5.375-1.452-6.682-3.789-.884-1.58-2.555-2.562-4.36-2.562-2.004 0-3.809 1.191-4.598 3.036-.83 1.938-2.496 3.422-4.572 4.074-6.724 2.111-11.42 8.479-11.42 15.488v1.758c0 8.959 7.289 16.248 16.247 16.248h11.563c4.833 0 9.342-2.422 12.062-6.479.793-1.183 2.108-1.888 3.519-1.888z"/><path d="m26.676 145.095h-5.059c-2.721 0-4.935-2.214-4.935-4.935v-5.551c0-.711.303-1.389.833-1.863s1.235-.703 1.944-.621c.641.071 1.226.106 1.788.106h7.864c1.381 0 2.5 1.119 2.5 2.5v5.43c0 2.72-2.214 4.934-4.935 4.934zm-4.993-7.865v2.93l4.994-.065-.035-2.865z"/><path d="m75.166 145.095h-5.06c-2.721 0-4.935-2.214-4.935-4.935v-5.43c0-1.381 1.119-2.5 2.5-2.5h7.864c.562 0 1.147-.035 1.788-.106.708-.077 1.414.147 1.944.622s.833 1.152.833 1.863v5.551c0 2.721-2.214 4.935-4.934 4.935zm-4.995-7.865v2.93l4.994-.065-.034-2.865z"/><path d="m48.391 154.373c-10.458 0-20.234-3.896-25.515-10.167-.626-.744-.764-1.783-.354-2.665.41-.881 1.294-1.445 2.267-1.445h1.887l-.065-5.365c0-1.381 1.119-2.5 2.5-2.5h3.699c4.833 0 9.342-2.422 12.062-6.479.792-1.182 2.107-1.887 3.519-1.887 1.412 0 2.727.706 3.519 1.888 2.72 4.056 7.229 6.479 12.062 6.479h3.699c1.381 0 2.5 1.119 2.5 2.5v5.365h1.822c.972 0 1.856.564 2.267 1.445.41.882.272 1.921-.354 2.665-5.281 6.27-15.057 10.166-25.515 10.166zm-18.523-10.452c4.644 3.425 11.359 5.452 18.523 5.452s13.88-2.026 18.523-5.452c-1.066-.906-1.743-2.256-1.743-3.761v-2.93h-1.199c-6.14 0-11.886-2.897-15.581-7.803-3.695 4.906-9.441 7.803-15.581 7.803h-1.199v2.93c0 1.506-.677 2.856-1.743 3.761z"/><path d="m25.801 102.406c-1.381 0-2.5-1.119-2.5-2.5v-2.947c0-1.381 1.119-2.5 2.5-2.5s2.5 1.119 2.5 2.5v2.947c0 1.381-1.119 2.5-2.5 2.5z"/><path d="m70.981 102.406c-1.381 0-2.5-1.119-2.5-2.5v-2.947c0-1.381 1.119-2.5 2.5-2.5s2.5 1.119 2.5 2.5v2.947c0 1.381-1.119 2.5-2.5 2.5z"/><path d="m214.155 215.356h-21.086c-2.46 0-4.806-1.182-6.276-3.162-1.455-1.96-1.889-4.412-1.189-6.726 1.191-3.938 4.473-9.004 13.348-10.779.701-.14 1.066-.296 1.237-.389-.166-1.192-2.424-4.32-4.096-6.634-2.568-3.557-5.669-7.85-7.919-12.846-9.144 5.013-41.033 19.161-82.112-.01-.836.994-2.11 2.146-4.021 3.167.874 5.898 2.589 23.603-6.076 34.603-1.389 1.764-3.466 2.775-5.698 2.775h-21.63c-2.46 0-4.73-1.233-6.071-3.298-1.333-2.052-1.536-4.608-.544-6.837 1.348-3.03 3.917-5.509 7.636-7.368.96-.48 1.224-.966 1.346-1.336.747-2.26-1.761-7.21-4.187-11.999-3.129-6.178-6.677-13.181-7.29-20.578-.006-.076-.041-.119-.049-.125-2.062-.689-5.902-2.763-8.3-8.832-.533-.225-1.25-.512-2.06-.923-1.013-.514-1.552-1.645-1.313-2.755s1.195-1.92 2.33-1.972c8.412-.384 15.868-3.505 19.945-8.348.475-.564 1.175-.89 1.913-.89h3.172l-.065-5.486c0-1.274.958-2.344 2.224-2.485 8.243-.915 14.458-7.854 14.458-16.142v-1.759c0-4.798-2.138-9.333-5.865-12.442-.146-.122-.274-.257-.389-.409-2.646-3.495-5.921-9.022-6.495-15.505-.063-.715.184-1.423.678-1.943.455-.479 1.079-.756 1.734-.777 1.943-.995 7.326-3.056 13.521.601 2.334-1.071 7.041-2.509 11.965.166 8.476-2.681 62.213-17.941 109.648 9.225 2.609.656 16.825 4.754 24.481 17.718 5.458 9.242 6.236 20.684 2.31 34.006-.119.404-.19.814-.212 1.22-.174 3.239-1.318 14.413-8.753 22.183-1.884 1.97-3.099 4.61-3.42 7.436-.189 1.668-.246 3.675-.312 5.999-.233 8.25-.552 19.548-7.509 29.077-2.091 2.868-5.46 4.579-9.009 4.579zm-24.759-46.661c.263 0 .528.042.784.126.729.241 1.307.802 1.567 1.524 2.002 5.538 5.549 10.448 8.399 14.395 3.471 4.806 5.979 8.279 4.732 11.458-1.025 2.612-3.977 3.202-4.947 3.396-5.175 1.035-8.386 3.499-9.542 7.323-.325 1.073.123 1.9.417 2.298.539.726 1.363 1.142 2.261 1.142h21.086c1.958 0 3.818-.945 4.974-2.527 6.041-8.274 6.323-18.252 6.549-26.27.066-2.336.128-4.543.342-6.422.443-3.905 2.14-7.573 4.776-10.329 6.246-6.527 7.222-16.189 7.372-18.995.043-.793.181-1.588.409-2.364 3.518-11.94 2.906-22.05-1.819-30.05-7.179-12.156-21.504-15.441-21.648-15.473-.25-.055-.489-.148-.71-.276-49.5-28.558-106.365-8.852-106.934-8.649-.744.262-1.569.162-2.225-.275-4.389-2.926-8.84-.112-9.026.009-.862.557-1.992.541-2.826-.055-4.042-2.887-7.564-1.998-9.104-1.353.845 4.382 3.126 8.201 5.069 10.81 4.726 4.055 7.43 9.9 7.43 16.086v1.759c0 10.08-7.029 18.634-16.682 20.746v3.431c0 2.721-2.214 4.935-4.935 4.935h-2.053c-4.012 4.256-10.102 7.289-17.063 8.582 1.636 3.769 3.835 5.002 5.032 5.403 1.913.642 3.258 2.387 3.429 4.446.533 6.423 3.845 12.962 6.768 18.732 3.281 6.477 5.873 11.593 4.474 15.827-.607 1.836-1.904 3.263-3.857 4.239-2.655 1.328-4.439 2.986-5.304 4.929-.434.976-.027 1.781.169 2.082.199.307.782 1.021 1.878 1.021h21.629c.69 0 1.335-.317 1.771-.869 8.861-11.249 4.813-32.272 4.771-32.483-.235-1.181.405-2.363 1.523-2.81 3.619-1.447 4.443-3.374 4.477-3.455.228-.684.727-1.199 1.392-1.478.665-.278 1.404-.219 2.052.098 46.304 22.679 81.412-.017 81.762-.248.413-.274.895-.416 1.381-.416z"/><path d="m68.637 215.356h-14.733c-2.46 0-4.73-1.233-6.071-3.298-1.333-2.052-1.536-4.608-.544-6.837 1.349-3.031 3.918-5.51 7.637-7.369 2.737-1.369 2.329-4.15-2.083-14.172-2.277-5.172-4.858-11.035-5.85-17.164-.251-1.554-.292-3.212-.121-4.929l.996-9.956c.082-.818.56-1.543 1.279-1.94s1.588-.417 2.323-.049c.457.228.94.438 1.361.592 1.374.504 2.468 1.566 2.999 2.912 1.654 4.187 4 5.515 5.252 5.935 1.913.642 3.258 2.387 3.429 4.446.533 6.423 3.845 12.962 6.768 18.732 3.281 6.477 5.873 11.593 4.474 15.827-.607 1.836-1.904 3.263-3.857 4.239-2.655 1.328-4.439 2.986-5.304 4.929-.397.892-.096 1.631.118 1.993.377.636 1.011 1.034 1.739 1.093.044.003.088.008.133.014.047 0 .093.001.14.004 1.342.043 2.417 1.146 2.417 2.499-.002 1.38-1.121 2.499-2.502 2.499zm-16.322-57.955-.468 4.683c-.129 1.285-.102 2.507.081 3.633.89 5.498 3.334 11.05 5.491 15.948 3.642 8.272 7.408 16.827-.257 20.659-2.655 1.327-4.439 2.986-5.304 4.93-.434.975-.027 1.78.169 2.081.199.307.782 1.021 1.878 1.021h7.846c-.552-1.67-.467-3.476.272-5.136 1.348-3.03 3.917-5.509 7.636-7.368.96-.48 1.224-.966 1.346-1.336.747-2.26-1.761-7.21-4.187-11.999-3.129-6.178-6.677-13.181-7.29-20.578-.006-.076-.041-.119-.049-.125-1.76-.587-4.815-2.184-7.164-6.413zm11.991 48.836h.01z"/><path d="m193.068 215.356h-13.75c-2.46 0-4.806-1.182-6.276-3.162-1.455-1.96-1.889-4.412-1.189-6.726 1.191-3.938 4.473-9.004 13.348-10.779.701-.14 1.067-.296 1.238-.39-.164-1.192-2.424-4.322-4.097-6.639-2.07-2.868-4.417-6.118-6.446-9.879-.343-.636-.394-1.39-.14-2.066.254-.677.789-1.21 1.466-1.463 6.826-2.549 10.757-5.119 10.796-5.145.639-.421 1.439-.527 2.165-.286.727.241 1.305.801 1.565 1.521 2.002 5.538 5.549 10.448 8.399 14.395 3.471 4.806 5.979 8.279 4.732 11.458-1.025 2.612-3.977 3.202-4.947 3.396-5.175 1.035-8.386 3.499-9.542 7.323-.325 1.073.123 1.9.417 2.298.539.726 1.363 1.142 2.261 1.142 1.381 0 2.5 1.119 2.5 2.5s-1.119 2.502-2.5 2.502zm-11.36-37.497c1.53 2.502 3.185 4.794 4.688 6.875 3.472 4.809 5.98 8.283 4.732 11.462-1.025 2.612-3.977 3.202-4.947 3.396-5.175 1.035-8.386 3.499-9.542 7.323-.325 1.073.123 1.9.417 2.298.539.726 1.363 1.142 2.261 1.142h6.46c-.597-1.55-.668-3.253-.174-4.887 1.191-3.938 4.473-9.004 13.348-10.779.701-.14 1.066-.296 1.237-.389-.166-1.192-2.424-4.32-4.096-6.634-2.571-3.561-5.676-7.859-7.926-12.861-1.528.826-3.702 1.91-6.458 3.054zm6.289 28.334h.01z"/><path d="m59.175 82.561c-1.377 0-2.496-1.114-2.5-2.492-.007-2.169.832-4.212 2.361-5.751s3.566-2.391 5.736-2.397h.027c4.466 0 8.107 3.626 8.122 8.096.004 1.381-1.111 2.504-2.492 2.508-.003 0-.006 0-.008 0-1.377 0-2.496-1.114-2.5-2.492-.006-1.723-1.436-3.086-3.133-3.113-.834.002-1.618.33-2.206.922s-.91 1.377-.908 2.211c.004 1.381-1.111 2.503-2.492 2.508-.001 0-.004 0-.007 0z"/><path d="m25.579 82.561c-1.377 0-2.496-1.114-2.5-2.492-.007-2.169.832-4.212 2.361-5.751s3.566-2.391 5.736-2.397h.027c4.466 0 8.107 3.626 8.122 8.096.004 1.381-1.111 2.504-2.492 2.508-.003 0-.006 0-.008 0-1.377 0-2.496-1.114-2.5-2.492-.006-1.719-1.405-3.113-3.123-3.113-.003 0-.007 0-.01 0-.834.002-1.618.33-2.206.922s-.91 1.377-.908 2.211c.004 1.381-1.111 2.503-2.492 2.508-.002 0-.005 0-.007 0z"/><path d="m48.391 142.339c-6.346 0-12.407-1.927-17.526-5.572-.886-.631-1.262-1.762-.931-2.798s1.294-1.739 2.381-1.739h.496c4.833 0 9.342-2.422 12.062-6.479.792-1.182 2.107-1.887 3.519-1.887 1.412 0 2.727.706 3.519 1.888 2.72 4.056 7.229 6.479 12.062 6.479h.495c1.087 0 2.05.703 2.381 1.739s-.045 2.167-.931 2.798c-5.12 3.644-11.181 5.571-17.527 5.571zm-8.491-6.449c5.388 1.912 11.594 1.912 16.983 0-3.329-1.306-6.278-3.524-8.492-6.462-2.213 2.938-5.162 5.156-8.491 6.462z"/><path d="m87.521 102.364c-.567 0-1.136-.192-1.602-.581-1.598-1.333-3.392-2.334-5.333-2.975-2.223-.733-3.935-2.361-4.699-4.464-.715-1.97-2.602-3.294-4.696-3.294-1.924 0-3.645 1.076-4.492 2.808-1.222 2.502-3.903 4.119-6.829 4.119h-23.238c-2.814 0-5.375-1.452-6.682-3.788-.884-1.58-2.555-2.562-4.36-2.562-2.004 0-3.809 1.191-4.598 3.036-.83 1.938-2.496 3.422-4.572 4.074 0 0 0 0-.001 0-2.028.636-3.895 1.656-5.546 3.032-.977.812-2.407.764-3.326-.113s-1.034-2.304-.268-3.317c2.54-3.358 5.568-8.593 5.568-14.463 0-7.986 2.543-34.062 35.264-34.332h.541c32.742.27 35.285 26.346 35.285 34.332 0 5.876 3.034 11.117 5.579 14.479.767 1.013.652 2.441-.268 3.318-.482.459-1.103.691-1.727.691zm-71.851-6.012h.01zm32.961-41.807h-.5c-27.332.225-30.285 20.587-30.285 29.331 0 3.462-.814 6.695-1.992 9.562.235-.212.422-.465.541-.743 1.577-3.686 5.187-6.068 9.194-6.068 3.614 0 6.957 1.962 8.724 5.121.418.747 1.328 1.229 2.319 1.229h23.239c1.03 0 1.947-.516 2.337-1.314 1.692-3.462 5.134-5.613 8.984-5.613 4.19 0 7.966 2.647 9.396 6.588.038.105.085.207.141.305-1.07-2.742-1.793-5.803-1.793-9.067.001-8.744-2.953-29.106-30.305-29.331z"/><path d="m78.177 70.694c-.038 0-.074 0-.112 0-.959-.005-1.831-.558-2.244-1.423-1.14-2.388-2.58-4.516-4.281-6.326-.923-.983-.901-2.521.051-3.477 1.846-1.854 4.047-4.777 4.047-8.18 0-4.952 2.51-9.202 6.103-10.334 2.157-.68 6.479-.809 11.213 5.955 3.304 4.719 3.758 10.175 1.246 14.969-2.852 5.444-8.986 8.816-16.023 8.816zm-1.481-9.425c1.072 1.347 2.036 2.807 2.883 4.367 4.562-.384 8.388-2.635 10.192-6.079 1.614-3.082 1.282-6.646-.913-9.782-2.092-2.987-4.191-4.499-5.614-4.053-1.281.404-2.606 2.596-2.606 5.566 0 4.07-1.9 7.485-3.942 9.981z"/><path d="m18.606 70.694c-7.038 0-13.171-3.372-16.023-8.817-2.512-4.794-2.058-10.25 1.246-14.969 4.734-6.763 9.057-6.636 11.212-5.955 3.594 1.133 6.104 5.382 6.104 10.334 0 3.402 2.201 6.326 4.047 8.18.952.956.974 2.494.05 3.476-1.701 1.811-3.141 3.939-4.281 6.326-.413.866-1.285 1.418-2.244 1.423-.036.001-.074.002-.111.002zm-5.589-25.05c-1.39 0-3.244 1.49-5.092 4.131-2.195 3.135-2.527 6.7-.913 9.782 1.804 3.443 5.63 5.695 10.192 6.079.847-1.56 1.811-3.02 2.882-4.367-2.042-2.496-3.941-5.911-3.941-9.981 0-2.97-1.325-5.162-2.606-5.566-.166-.052-.34-.078-.522-.078z"/></svg>