<svg enable-background="new 0 0 256 256" height="512" viewBox="0 0 256 256" width="512" xmlns="http://www.w3.org/2000/svg"><g fill="#a8aeb2"><ellipse cx="181.587" cy="213.432" rx="31.334" ry="40.067"/><ellipse cx="74.742" cy="213.432" rx="31.334" ry="40.067"/><path d="m179.29 121.348c-4.489 5.516-8.418 11.45-12.198 17.474-8.236 13.126-22.83 21.855-39.47 21.855-17.559 0-32.847-9.717-40.785-24.066-3.403-6.151-7.441-11.916-11.603-17.581-6.934-9.441-10.987-20.834-10.987-33.102 0-32.607 28.616-59.041 63.916-59.041s63.916 26.433 63.916 59.041c.001 13.293-4.76 25.554-12.789 35.42z"/><path d="m167.093 138.822c-8.236 13.126-22.83 21.855-39.47 21.855-17.559 0-32.847-9.717-40.785-24.066-.222-.401-.453-.796-.68-1.193-8.44 10.95-14.657 24.616-17.601 38.732 2-.512 4.068-.784 6.185-.784 17.305 0 31.334 17.938 31.334 40.067 0 12.58-4.537 23.8-11.63 31.146 9.685 5.813 21.265 8.921 33.718 8.921s24.033-3.108 33.718-8.921c-7.092-7.346-11.63-18.566-11.63-31.146 0-22.128 14.029-40.067 31.334-40.067 2.118 0 4.185.272 6.185.784-3.001-14.392-9.407-28.315-18.1-39.369-.868 1.34-1.729 2.687-2.578 4.041z"/><path d="m224.784 26.431-2.59-1.67 1.508-2.06c4.036-5.515 1.872-13.387-4.439-16.009-19.127-7.946-36.583-3.608-47.957 4.822-7.336 5.437-13.321 12.37-17.761 20.222 17.85 7.143 31.478 21.582 36.467 39.251 8.887-.115 19.899-4.181 28.399-8.054 6.747-3.075 8.317-11.954 3.038-17.16l1.599-.653c7.925-3.234 8.93-14.05 1.736-18.689z"/><path d="m66.319 70.986c4.964-17.58 18.483-31.959 36.2-39.139-4.446-7.898-10.453-14.871-17.824-20.333-11.374-8.43-28.83-12.769-47.957-4.822-6.311 2.622-8.475 10.494-4.439 16.009l1.508 2.06-2.59 1.67c-7.194 4.638-6.189 15.455 1.737 18.688l1.599.653c-5.279 5.207-3.709 14.086 3.038 17.16 8.605 3.922 19.784 8.039 28.728 8.054z"/><path d="m43.408 213.432c0-19.425 10.811-35.617 25.159-39.285-.003.001-.007.002-.01.002 2.944-14.116 9.161-27.783 17.601-38.732-1.51-2.645-3.127-5.226-4.821-7.756-10.229 5.519-39.04 25.193-50.77 76.304 0 0-5.734 22.962 16.467 28.174-2.312-5.585-3.626-11.948-3.626-18.707z"/><path d="m224.978 203.965c-11.645-50.739-40.124-70.497-50.545-76.182-1.837 2.576-3.604 5.202-5.316 7.866.186-.289.368-.581.555-.87 8.693 11.054 15.099 24.977 18.1 39.369-.002-.001-.005-.001-.007-.002 14.346 3.669 25.156 19.861 25.156 39.284 0 6.672-1.283 12.958-3.539 18.492 21.181-5.598 15.596-27.957 15.596-27.957z"/></g><path d="m227.644 221.045c-.795-1.376-1.834-2.492-2.986-3.309-1.041 3.656-3.087 7.375-6.89 10.252.529 1.114.855 2.262.969 3.38 2.32 1.594 5.081 1.969 7.268.706 3.317-1.914 4.051-6.852 1.639-11.029z" fill="#e3e4e5"/><path d="m209.382 231.924c.017-.042.032-.086.049-.129-.661 1.636-1.406 3.207-2.23 4.702 2.517 2.432 5.93 3.243 8.531 1.741 3.114-1.798 3.951-6.262 2.045-10.257-2.177 1.649-4.92 3.024-8.395 3.943z" fill="#e3e4e5"/><path d="m47.033 232.139c-3.89-.913-6.907-2.379-9.263-4.163-1.909 3.997-1.074 8.464 2.042 10.263 2.778 1.604 6.481.571 9.029-2.257-.702-1.315-1.336-2.692-1.913-4.114.037.089.068.182.105.271z" fill="#e3e4e5"/><path d="m30.887 217.735c-1.152.817-2.192 1.933-2.987 3.31-2.411 4.177-1.677 9.115 1.639 11.03 2.187 1.262 4.947.887 7.268-.706.115-1.121.441-2.27.972-3.386-3.802-2.877-5.851-6.593-6.892-10.248z" fill="#e3e4e5"/><path d="m181.846 18.197c-6.993 3.346-13.98 8.927-19.033 18.129 10.227 6.109 18.44 14.837 23.531 25.163 7.751-.096 19.127-1.446 24.473-7.989 3.571-4.371 4.777-9.726 4.716-15.081-.191-16.899-18.34-27.566-33.687-20.222z" fill="#e3e4e5"/><path d="m93.266 36.474c-5.059-9.289-12.081-14.913-19.111-18.278-15.348-7.343-33.497 3.324-33.689 20.224-.061 5.355 1.145 10.711 4.716 15.081 5.423 6.637 17.047 7.929 24.802 7.99 5.05-10.243 13.17-18.915 23.282-25.017z" fill="#e3e4e5"/><path d="m121.364 80.936c-5.132 5.132-8.015 12.093-8.015 19.351v7.184c0 8.182 6.633 14.816 14.816 14.816 8.182 0 14.816-6.633 14.816-14.816v-7.184c0-7.258-2.883-14.219-8.015-19.351-3.757-3.756-9.846-3.756-13.602 0z" fill="#52565b"/><path d="m127.623 160.676c-10.955 0-21.024-3.783-28.978-10.113-4.704 7.763-8.312 17.034-10.392 26.71 10.542 6.452 17.824 20.217 17.824 36.158 0 8.075-1.875 15.587-5.089 21.878 7.32 7.027 16.805 10.836 27.177 10.836s19.857-3.809 27.177-10.836c-3.214-6.291-5.089-13.803-5.089-21.878 0-15.942 7.282-29.707 17.824-36.158-2.134-9.927-5.877-19.426-10.761-27.309-8.061 6.685-18.402 10.712-29.693 10.712z" fill="#e3e4e5"/><ellipse cx="181.587" cy="222.568" fill="#e3e4e5" rx="24.19" ry="30.931"/><ellipse cx="74.742" cy="222.568" fill="#e3e4e5" rx="24.19" ry="30.931"/><path d="m181.587 255.999c-18.656 0-33.834-19.095-33.834-42.566 0-23.472 15.178-42.567 33.834-42.567s33.834 19.095 33.834 42.567c0 23.47-15.178 42.566-33.834 42.566zm0-80.134c-15.899 0-28.834 16.853-28.834 37.567s12.935 37.566 28.834 37.566 28.834-16.852 28.834-37.566-12.935-37.567-28.834-37.567z"/><path d="m74.742 255.999c-18.656 0-33.834-19.095-33.834-42.566 0-23.472 15.178-42.567 33.834-42.567s33.834 19.095 33.834 42.567c0 23.47-15.178 42.566-33.834 42.566zm0-80.134c-15.899 0-28.834 16.853-28.834 37.567s12.935 37.566 28.834 37.566 28.834-16.852 28.834-37.566-12.934-37.567-28.834-37.567z"/><path d="m127.623 163.176c-17.855 0-34.321-9.716-42.973-25.356-3.445-6.228-7.529-12-11.43-17.311-7.505-10.217-11.472-22.175-11.472-34.582 0-33.934 29.794-61.541 66.415-61.541 36.622 0 66.416 27.607 66.416 61.541 0 13.471-4.616 26.265-13.351 36.998-4.666 5.733-8.694 11.925-12.019 17.225-9.046 14.418-24.593 23.026-41.586 23.026zm.541-133.789c-33.864 0-61.415 25.364-61.415 56.541 0 11.334 3.631 22.269 10.501 31.622 3.999 5.444 8.193 11.375 11.775 17.851 7.771 14.049 22.562 22.776 38.598 22.776 15.262 0 29.226-7.732 37.353-20.683 3.405-5.429 7.539-11.78 12.375-17.723 8.001-9.831 12.229-21.534 12.229-33.842 0-31.178-27.551-56.542-61.416-56.542z"/><path d="m128.164 255.999c-12.788 0-24.893-3.208-35.004-9.278-.654-.392-1.093-1.061-1.192-1.816-.1-.756.15-1.516.68-2.063 6.945-7.193 10.929-17.912 10.929-29.409 0-20.714-12.935-37.567-28.834-37.567-1.862 0-3.734.238-5.565.706-.834.216-1.724-.018-2.348-.615s-.896-1.473-.72-2.317c3.007-14.417 9.424-28.534 18.068-39.749.511-.663 1.311-1.024 2.154-.968.835.059 1.585.53 1.999 1.257l.225.393c.158.275.316.55.47.827 7.771 14.049 22.562 22.776 38.598 22.776 15.262 0 29.226-7.732 37.353-20.683.855-1.364 1.723-2.721 2.599-4.072.438-.677 1.178-1.101 1.983-1.138.796-.036 1.58.317 2.079.952 8.913 11.333 15.513 25.682 18.583 40.404.177.845-.096 1.721-.72 2.317-.624.597-1.513.831-2.348.615-1.831-.468-3.703-.706-5.565-.706-15.899 0-28.834 16.853-28.834 37.567 0 11.497 3.983 22.216 10.929 29.409.529.548.779 1.308.68 2.063-.1.755-.538 1.424-1.192 1.816-10.113 6.071-22.219 9.279-35.007 9.279zm-29.795-12.079c8.778 4.639 19.012 7.079 29.795 7.079s21.018-2.439 29.796-7.079c-6.52-7.987-10.207-18.911-10.207-30.488 0-23.472 15.178-42.567 33.834-42.567.967 0 1.937.052 2.902.156-2.886-11.495-7.987-22.589-14.653-31.863-.209.331-.418.662-.626.993-9.047 14.417-24.594 23.025-41.587 23.025-17.021 0-32.78-8.83-41.711-23.204-6.377 9.101-11.272 19.902-14.072 31.049.967-.104 1.936-.156 2.902-.156 18.656 0 33.834 19.095 33.834 42.567 0 11.577-3.687 22.501-10.207 30.488z"/><path d="m190.011 73.487c-1.118 0-2.102-.743-2.406-1.821-4.704-16.665-17.784-30.725-34.989-37.61-.67-.268-1.191-.812-1.43-1.492-.239-.681-.173-1.431.183-2.059 4.73-8.368 10.938-15.434 18.448-21 14.109-10.458 32.952-12.374 50.405-5.122 3.708 1.54 6.456 4.647 7.54 8.525 1.081 3.866.357 7.939-1.985 11.189l.362.233c4.114 2.653 6.389 7.329 5.936 12.203-.405 4.368-2.935 8.175-6.717 10.25 1.515 2.632 2.085 5.746 1.542 8.808-.751 4.236-3.538 7.831-7.453 9.616-8.139 3.709-19.847 8.156-29.403 8.279-.012.001-.023.001-.033.001zm-32.859-42.933c16.67 7.52 29.417 21.411 34.69 37.851 8.354-.618 18.369-4.483 25.529-7.747 2.455-1.119 4.133-3.283 4.604-5.939.472-2.658-.36-5.271-2.283-7.167-.598-.59-.859-1.441-.696-2.266s.729-1.511 1.508-1.829l1.599-.653c2.843-1.16 4.709-3.677 4.993-6.733.284-3.057-1.086-5.875-3.666-7.539l-2.591-1.67c-.579-.373-.979-.968-1.104-1.646-.126-.677.034-1.376.44-1.932l1.508-2.061c1.477-2.018 1.937-4.558 1.263-6.97-.669-2.391-2.36-4.306-4.643-5.254-15.814-6.569-32.825-4.878-45.511 4.521-6.211 4.606-11.463 10.327-15.64 17.034z"/><path d="m66.318 73.485c-.001 0-.003 0-.004 0-9.618-.016-21.492-4.51-29.761-8.278-3.915-1.785-6.702-5.379-7.453-9.616-.543-3.062.027-6.176 1.542-8.808-3.782-2.075-6.312-5.882-6.717-10.25-.453-4.875 1.821-9.55 5.936-12.203l.362-.233c-2.343-3.25-3.066-7.323-1.985-11.189 1.084-3.877 3.832-6.985 7.54-8.525 17.451-7.25 36.295-5.335 50.405 5.122 7.547 5.594 13.775 12.698 18.514 21.116.353.626.418 1.374.181 2.052s-.755 1.222-1.421 1.491c-17.07 6.918-30.055 20.937-34.732 37.501-.305 1.077-1.288 1.82-2.407 1.82zm-9.278-68.439c-6.402 0-12.969 1.306-19.344 3.954-2.282.948-3.974 2.863-4.643 5.254-.674 2.412-.214 4.953 1.263 6.97l1.508 2.061c.406.556.566 1.255.44 1.932-.125.677-.524 1.272-1.104 1.646l-2.591 1.67c-2.58 1.664-3.95 4.481-3.666 7.539.284 3.057 2.15 5.574 4.993 6.733l1.599.652c.778.318 1.345 1.005 1.508 1.829s-.099 1.675-.696 2.266c-1.923 1.896-2.755 4.509-2.283 7.167.471 2.656 2.148 4.82 4.604 5.939 7.278 3.316 17.444 7.229 25.852 7.766 5.241-16.349 17.896-30.204 34.442-37.75-4.188-6.758-9.465-12.519-15.715-17.152-7.571-5.611-16.687-8.476-26.167-8.476z"/><path d="m47.033 234.639c-.19 0-.382-.021-.571-.066-7.082-1.663-12.302-5.177-15.516-10.445-5.606-9.19-2.923-20.3-2.806-20.769 11.781-51.334 40.297-71.579 52.009-77.898 1.138-.613 2.549-.261 3.265.809 1.824 2.725 3.433 5.311 4.915 7.907.5.876.425 1.967-.19 2.766-8.15 10.573-14.215 23.882-17.089 37.5-.112.933-.747 1.76-1.692 2.075-.056.019-.113.036-.172.05-13.487 3.448-23.277 18.951-23.277 36.863 0 6.181 1.188 12.319 3.436 17.751.358.866.201 1.86-.406 2.575-.482.567-1.182.882-1.906.882zm33.499-103.654c-12.077 7.104-36.822 26.891-47.529 73.54-.033.137-2.293 9.65 2.229 17.029 1.765 2.879 4.366 5.094 7.764 6.619-1.373-4.701-2.088-9.712-2.088-14.741 0-19.504 10.644-36.556 25.521-41.272 3-13.331 8.892-26.328 16.732-36.924-.826-1.402-1.698-2.81-2.629-4.251z"/><path d="m209.382 234.424c-.709 0-1.396-.302-1.878-.85-.626-.712-.795-1.717-.437-2.595 2.193-5.38 3.354-11.448 3.354-17.548 0-17.91-9.788-33.413-23.274-36.862-1.019-.26-1.729-1.111-1.859-2.093-2.769-13.137-8.483-25.94-16.187-36.326-.458-.003-.921-.131-1.334-.397-1.162-.746-1.499-2.292-.753-3.454l.562-.881c.032-.048.065-.096.1-.142 1.576-2.422 3.161-4.753 4.722-6.943.735-1.03 2.122-1.351 3.233-.744 11.66 6.359 40.047 26.672 51.784 77.817.281 1.216 5.417 24.903-17.394 30.935-.211.056-.426.083-.639.083zm-19.483-62.265c14.878 4.717 25.521 21.77 25.521 41.273 0 4.943-.655 9.731-1.951 14.293 12.947-6.642 9.262-22.422 9.081-23.16-.003-.012-.007-.029-.01-.042-10.672-46.5-35.362-66.325-47.37-73.444-.808 1.164-1.619 2.362-2.43 3.589 8.062 10.71 14.102 23.903 17.159 37.491z"/><path d="m223.125 235.323c-1.949 0-3.977-.639-5.803-1.894-.605-.416-.997-1.076-1.072-1.807-.087-.849-.335-1.711-.739-2.561-.509-1.071-.196-2.352.75-3.067 2.915-2.204 4.931-5.213 5.993-8.942.222-.78.81-1.404 1.574-1.674.765-.268 1.612-.151 2.276.319 1.482 1.051 2.764 2.468 3.705 4.098 3.097 5.364 1.95 11.844-2.555 14.445-1.255.725-2.67 1.083-4.129 1.083zm-2.106-5.509c1.345.652 2.694.697 3.736.095 2.057-1.187 2.405-4.604.785-7.507-1.198 2.436-2.801 4.564-4.793 6.364.107.348.197.698.272 1.048z"/><path d="m212.852 241.49c-2.556 0-5.224-1.103-7.389-3.194-.812-.785-.997-2.017-.451-3.006.769-1.393 1.476-2.883 2.102-4.431.401-.995 1.373-1.603 2.386-1.562 2.614-.773 4.889-1.884 6.768-3.308.601-.453 1.373-.613 2.101-.436.73.178 1.342.675 1.666 1.353 2.502 5.246 1.19 11.049-3.052 13.499-1.267.73-2.681 1.085-4.131 1.085zm-2.467-5.699c1.434.812 2.953.942 4.097.283 1.28-.739 1.912-2.348 1.797-4.171-1.553.839-3.245 1.541-5.063 2.098-.268.606-.544 1.204-.831 1.79z"/><path d="m42.693 241.491c-1.447 0-2.861-.354-4.131-1.087-4.245-2.45-5.555-8.256-3.048-13.505.324-.678.936-1.174 1.665-1.352.73-.176 1.501-.017 2.101.437 1.993 1.51 4.427 2.667 7.244 3.446 1.128-.199 2.272.392 2.722 1.499.559 1.38 1.165 2.684 1.801 3.875.496.929.357 2.069-.348 2.851-2.249 2.496-5.19 3.836-8.006 3.836zm-3.427-9.594c-.116 1.826.515 3.437 1.797 4.177 1.319.762 3.109.474 4.694-.661-.18-.378-.356-.763-.53-1.154-2.165-.596-4.157-1.386-5.961-2.362z"/><path d="m32.419 235.323c-1.459 0-2.874-.358-4.13-1.083-4.505-2.601-5.651-9.081-2.555-14.445.94-1.628 2.222-3.046 3.706-4.099.663-.469 1.512-.589 2.275-.319.766.269 1.353.893 1.575 1.673 1.061 3.724 3.078 6.731 5.995 8.938.946.715 1.259 1.996.75 3.067-.406.854-.656 1.718-.742 2.566-.074.73-.467 1.392-1.072 1.807-1.825 1.256-3.853 1.895-5.802 1.895zm-2.414-12.924c-1.621 2.904-1.272 6.323.784 7.51 1.043.602 2.392.556 3.736-.095.075-.353.167-.705.273-1.055-1.992-1.8-3.594-3.926-4.793-6.36z"/><path d="m120.185 138.326c-2.355 0-4.68-.788-6.61-2.324-1.081-.859-1.261-2.432-.401-3.513.86-1.08 2.432-1.261 3.513-.4 1.741 1.383 3.986 1.628 6.012.653 2.068-.998 3.303-2.956 3.303-5.239v-5.003c0-1.381 1.119-2.5 2.5-2.5s2.5 1.119 2.5 2.5v5.003c0 4.185-2.349 7.918-6.131 9.742-1.504.725-3.102 1.081-4.686 1.081z"/><path d="m136.815 138.326c-1.584 0-3.183-.356-4.685-1.081-3.782-1.824-6.131-5.557-6.131-9.742v-5.003c0-1.381 1.119-2.5 2.5-2.5s2.5 1.119 2.5 2.5v5.003c0 2.283 1.234 4.241 3.303 5.239 2.025.977 4.27.731 6.012-.653 1.081-.86 2.653-.68 3.513.4.859 1.081.68 2.653-.401 3.513-1.931 1.536-4.255 2.324-6.611 2.324z"/><path d="m150.608 88.314c-1.377 0-2.496-1.114-2.5-2.492-.017-5.475 4.424-9.944 9.898-9.961h.032c2.641 0 5.124 1.024 6.998 2.886 1.882 1.87 2.923 4.36 2.931 7.012.004 1.381-1.111 2.503-2.492 2.508-.003 0-.006 0-.008 0-1.377 0-2.496-1.114-2.5-2.492-.004-1.317-.521-2.553-1.455-3.481-.93-.924-2.163-1.433-3.474-1.433-.006 0-.011 0-.017 0-2.718.009-4.923 2.228-4.914 4.946.004 1.381-1.111 2.503-2.492 2.508-.002-.001-.004-.001-.007-.001z"/><path d="m105.392 88.29c-1.381 0-2.5-1.119-2.5-2.5 0-2.718-2.212-4.93-4.93-4.93s-4.93 2.211-4.93 4.93c0 1.381-1.119 2.5-2.5 2.5s-2.5-1.119-2.5-2.5c0-5.475 4.454-9.93 9.93-9.93s9.93 4.455 9.93 9.93c0 1.381-1.12 2.5-2.5 2.5z"/><path d="m186.344 63.989c-.951 0-1.821-.54-2.242-1.395-4.865-9.867-12.671-18.209-22.571-24.122-1.155-.69-1.557-2.17-.909-3.35 4.716-8.587 11.494-15.041 20.146-19.181 8.168-3.911 17.634-3.391 25.317 1.39 7.385 4.595 11.853 12.467 11.95 21.059.075 6.695-1.701 12.311-5.281 16.692-5.853 7.163-17.575 8.797-26.378 8.906-.012.001-.022.001-.032.001zm-20.148-28.501c9.27 6.006 16.703 14.057 21.66 23.465 6.498-.228 16.523-1.523 21.025-7.034 2.817-3.448 4.215-7.98 4.152-13.471-.079-6.979-3.575-13.127-9.592-16.87-6.226-3.875-13.896-4.294-20.518-1.126-6.987 3.345-12.606 8.397-16.727 15.036z"/><path d="m69.983 63.991c-.007 0-.013 0-.02 0-8.926-.071-20.807-1.674-26.717-8.909-3.58-4.381-5.356-9.997-5.281-16.691.098-8.592 4.565-16.464 11.95-21.059 7.683-4.78 17.146-5.301 25.317-1.39 8.703 4.165 15.509 10.67 20.228 19.337.64 1.175.241 2.645-.903 3.336-9.785 5.904-17.507 14.196-22.332 23.981-.42.855-1.29 1.395-2.242 1.395zm-6.155-45.649c-3.918 0-7.816 1.086-11.271 3.235-6.017 3.743-9.513 9.892-9.592 16.87-.062 5.491 1.335 10.023 4.152 13.471 4.56 5.58 14.755 6.844 21.349 7.043 4.913-9.328 12.269-17.331 21.428-23.321-4.129-6.716-9.778-11.819-16.819-15.189-2.947-1.409-6.103-2.109-9.247-2.109z"/><path d="m128.164 124.786c-9.548 0-17.315-7.768-17.315-17.315v-7.184c0-7.977 3.106-15.477 8.748-21.119 4.725-4.725 12.411-4.723 17.136 0 5.642 5.642 8.748 13.142 8.748 21.119v7.184c-.001 9.548-7.769 17.315-17.317 17.315zm-5.032-42.083c-4.696 4.697-7.283 10.942-7.283 17.583v7.184c0 6.791 5.524 12.315 12.315 12.315s12.316-5.525 12.316-12.315v-7.184c0-6.642-2.587-12.886-7.283-17.583-2.775-2.774-7.29-2.774-10.065 0z"/><path d="m128.164 248.646c-11.053 0-21.049-3.988-28.908-11.532-.796-.764-.997-1.959-.495-2.941 3.15-6.167 4.815-13.339 4.815-20.741 0-14.488-6.527-27.844-16.628-34.026-.906-.554-1.362-1.62-1.14-2.658 2.142-9.96 5.841-19.463 10.699-27.479.372-.615.99-1.039 1.697-1.166.709-.126 1.436.057 1.997.505 7.866 6.26 17.348 9.568 27.421 9.568 10.237 0 20.215-3.6 28.096-10.136.556-.461 1.285-.661 1.998-.543.714.116 1.342.536 1.723 1.15 5.049 8.149 8.881 17.866 11.081 28.1.223 1.038-.233 2.104-1.14 2.658-10.101 6.183-16.628 19.539-16.628 34.026 0 7.402 1.665 14.574 4.815 20.741.502.982.301 2.177-.495 2.941-7.858 7.545-17.855 11.533-28.908 11.533zm-24.115-13.921c6.693 5.843 14.993 8.921 24.115 8.921 9.123 0 17.423-3.078 24.116-8.921-2.967-6.46-4.527-13.78-4.527-21.292 0-15.72 6.663-29.823 17.503-37.306-1.895-8.078-4.854-15.755-8.644-22.444-8.378 6.142-18.562 9.494-28.989 9.494-10.248 0-19.946-3.076-28.227-8.925-3.636 6.555-6.484 14.037-8.323 21.875 10.84 7.482 17.503 21.585 17.503 37.305 0 7.513-1.56 14.832-4.527 21.293z"/><path d="m181.587 255.999c-14.717 0-26.689-14.997-26.689-33.431s11.973-33.431 26.689-33.431 26.689 14.997 26.689 33.431-11.972 33.431-26.689 33.431zm0-61.862c-11.96 0-21.689 12.754-21.689 28.431s9.729 28.431 21.689 28.431 21.689-12.754 21.689-28.431-9.729-28.431-21.689-28.431z"/><path d="m74.742 255.999c-14.717 0-26.689-14.997-26.689-33.431s11.973-33.431 26.689-33.431 26.689 14.997 26.689 33.431-11.972 33.431-26.689 33.431zm0-61.862c-11.96 0-21.689 12.754-21.689 28.431s9.729 28.431 21.689 28.431 21.689-12.754 21.689-28.431-9.729-28.431-21.689-28.431z"/></svg>