<svg enable-background="new 0 0 256 256" height="512" viewBox="0 0 256 256" width="512" xmlns="http://www.w3.org/2000/svg"><circle cx="49.253" cy="41.743" fill="#f9bd55" r="13.262"/><g fill="#7ccc4e"><path d="m65.098 25.541s-6.959-.573-12.7 3.331c5.803 1.414 10.117 6.633 10.117 12.871 0 7.324-5.938 13.262-13.262 13.262-4.226 0-7.982-1.984-10.41-5.063-8.268 9.74-19.422 18.179-11.045 21.902 3.678 1.634 8.004 1.582 12.196.748 0 0-.246 4.053 2.595 6.326 6.431 5.145 39.873 1.286 43.731-24.438 3.859-25.724-21.222-28.939-21.222-28.939z"/><path d="m56.816 26.7c4.374-1.481 8.281-1.16 8.281-1.16s.463.061 1.238.225c-5.46-10.179-17.568-24.826-41.642-23.13-1.225.086-1.385 1.828-.189 2.108 8.949 2.093 24.389 7.666 32.312 21.957z"/><path d="m87.908 93.088c.005-2.752-1.953-5.109-4.657-5.621-2.968-.562-5.848 1.279-6.609 4.202-1.819 6.992-3.723 19.721 2.828 29.334 7.606 11.162 8.418-16.421 8.438-27.915z"/><path d="m79.47 121.003c-1.209-1.774-2.127-3.655-2.814-5.586-10.886-3.987-33.293-11.432-43.54-9.274-12.664 2.667 19.861 24.429 44.199 19.523 1.682-.339 3.097-1.27 4.087-2.531-.59-.413-1.232-1.104-1.932-2.132z"/><path d="m41.118 118.622c-6.343-3.449-10.605-7.296-10.817-9.853-1.252 4.392-5.473 24.051 15.554 34.739.804.408 1.613-.559 1.055-1.268-3.533-4.489-9.091-13.631-5.792-23.618z"/><path d="m84.903 60.045c-3.103 8.596-9.896 14.131-17.222 17.316 2.251 2.73 5.659 4.471 9.474 4.471 6.778 0 12.273-5.495 12.273-12.273 0-3.839-1.765-7.264-4.525-9.514z"/><path d="m107.215 128.164c-.744-4.694 3.177-8.43 7.426-8.21l-26.401-45.152c-1.648 3.478-4.873 6.057-8.76 6.803.311 1.683.734 3.689 1.311 5.954.784-.199 1.615-.253 2.46-.092 2.704.512 4.662 2.87 4.657 5.622-.006 3.339-.08 8.037-.367 12.747 4.352 8.745 10.798 17.891 20.314 25.118-.295-1.031-.51-1.969-.64-2.79z"/><path d="m170.64 209.376s19.205-11.335 23.608-26.431c.74-2.537-2.222-4.565-4.367-3.021-6.082 4.377-20.28 15.118-27.221 24.919-10.555 14.906 7.98 4.533 7.98 4.533z"/><path d="m136.074 175.958c.786 1.986 1.584 3.577 1.584 3.577s8.859 25.849 21.859 32.469c-.388-1.069.36-3.23 3.143-7.16.095-.134.205-.27.303-.404-2.283-3.287-5.172-9.17-8.354-15.147-7.085-4.084-13.232-8.617-18.535-13.335z"/></g><path d="m178.508 188.727c-51.322-14.372-69.436-48.847-71.293-60.563-.025-.161-.025-.316-.04-.474-.062.693-.062 1.409.04 2.151 1.747 12.739 17.881 48.774 62.546 66.819 2.793-2.788 5.822-5.491 8.747-7.933z" fill="#f9bd55"/><path d="m230.855 200.755-8.126-5.702c-11.99-.325-22.84-1.585-32.642-3.55-2.393 3.545-5.349 6.716-8.233 9.364 13.568 4.009 29.352 6.413 47.652 6.364 2.941-.009 3.864-4.712 1.349-6.476z" fill="#f9bd55"/><path d="m230.855 189.54-112.889-68.559c-5.205-3.161-11.689 1.262-10.75 7.184 1.856 11.716 19.957 46.201 71.278 60.575 4.492-3.751 8.721-6.895 11.388-8.815 2.145-1.544 5.107.483 4.367 3.021-.883 3.026-2.366 5.897-4.164 8.559 11.62 2.33 24.704 3.673 39.42 3.639 2.942-.007 3.865-4.077 1.35-5.604z" fill="#3aa03a"/><path d="m108.376 177.624c-.047-.705-.097-1.503-.146-2.378-.578.05-1.188.113-1.863.2-11.911 1.542-28.05 9.057-34.766 12.381-2.369 1.173-1.965 4.739.624 5.273 15.4 3.179 34.409-8.481 34.409-8.481s3.663-2.367 5.985-4.737c-1.661.993-4.094-.052-4.243-2.258z" fill="#7ccc4e"/><path d="m110.317 140.465c-.029.105-.057.194-.087.301-3.129 11.595-2.357 29.382-1.854 36.858.177 2.637 3.627 3.628 5.111 1.44 4.31-6.355 5.676-14.854 5.949-21.892-4.151-6.033-7.128-11.784-9.119-16.707z" fill="#7ccc4e"/><path d="m39.991 75.093c-1.169 0-2.213-.823-2.45-2.013-.269-1.354.61-2.67 1.965-2.939 8.441-1.678 16.443-6.779 16.522-6.83 1.161-.748 2.708-.411 3.455.751.747 1.161.41 2.708-.751 3.454-.359.23-8.89 5.668-18.252 7.529-.164.032-.328.048-.489.048z"/><path d="m44.401 45.762c-1.377 0-2.496-1.114-2.5-2.492-.006-1.964.752-3.812 2.136-5.205s3.228-2.163 5.191-2.17h.025c1.955 0 3.793.758 5.181 2.137 1.393 1.384 2.164 3.228 2.17 5.191.004 1.38-1.111 2.503-2.492 2.508-.003 0-.006 0-.008 0-1.377 0-2.496-1.114-2.5-2.492-.002-.628-.249-1.218-.694-1.66-.443-.441-1.032-.684-1.657-.684-.002 0-.005 0-.008 0-.628.002-1.218.249-1.661.694-.442.445-.685 1.036-.683 1.665.004 1.38-1.111 2.503-2.492 2.508-.002 0-.005 0-.008 0z"/><path d="m49.253 57.505c-8.691 0-15.762-7.07-15.762-15.762s7.071-15.762 15.762-15.762 15.762 7.07 15.762 15.762-7.071 15.762-15.762 15.762zm0-26.524c-5.934 0-10.762 4.828-10.762 10.762s4.828 10.762 10.762 10.762 10.762-4.828 10.762-10.762-4.828-10.762-10.762-10.762z"/><path d="m44.401 45.762c-1.377 0-2.496-1.114-2.5-2.492-.006-1.964.752-3.812 2.136-5.205s3.228-2.163 5.191-2.17h.025c1.955 0 3.793.758 5.181 2.137 1.393 1.384 2.164 3.228 2.17 5.191.004 1.38-1.111 2.503-2.492 2.508-.003 0-.006 0-.008 0-1.377 0-2.496-1.114-2.5-2.492-.002-.628-.249-1.218-.694-1.66-.443-.441-1.032-.684-1.657-.684-.002 0-.005 0-.008 0-.628.002-1.218.249-1.661.694-.442.445-.685 1.036-.683 1.665.004 1.38-1.111 2.503-2.492 2.508-.002 0-.005 0-.008 0z"/><path d="m51.239 83.387c-4.387 0-8.106-.831-10.211-2.516-1.952-1.562-2.833-3.679-3.228-5.401-4.209.491-7.906.042-11.018-1.34-2.465-1.097-3.926-2.694-4.341-4.75-.901-4.464 3.511-9.163 9.098-15.112 1.804-1.922 3.669-3.908 5.397-5.943.485-.571 1.198-.909 1.951-.882.75.014 1.454.363 1.918.952 2.061 2.612 5.14 4.11 8.448 4.11 5.934 0 10.762-4.828 10.762-10.762 0-4.971-3.375-9.265-8.208-10.442-.96-.233-1.692-1.011-1.868-1.983-.176-.973.237-1.957 1.054-2.513 6.397-4.351 13.992-3.78 14.311-3.755.038.003.075.007.113.012.489.062 12.059 1.64 18.932 10.733 4.21 5.57 5.706 12.654 4.445 21.057-1.743 11.618-9.41 20.646-21.589 25.421-5.271 2.065-11.04 3.114-15.966 3.114zm-11.245-13.294c.599 0 1.185.216 1.644.616.583.51.898 1.262.852 2.035 0 .01-.105 2.809 1.662 4.223 2.384 1.907 11.84 2.331 21.229-1.35 6.048-2.371 16.491-8.318 18.469-21.508 1.05-7.005-.115-12.813-3.465-17.267-5.342-7.101-14.678-8.681-15.545-8.813-.45-.026-3.286-.131-6.52.82 4.11 2.878 6.696 7.626 6.696 12.894 0 8.691-7.071 15.762-15.762 15.762-3.848 0-7.483-1.381-10.327-3.861-1.243 1.385-2.506 2.73-3.742 4.047-3.474 3.699-8.232 8.767-7.842 10.699.104.513 1.063.989 1.471 1.171 2.791 1.238 6.389 1.436 10.693.58.161-.033.325-.048.487-.048z"/><path d="m56.817 29.2c-.889 0-1.736-.475-2.187-1.288-7.514-13.553-22.457-18.808-30.695-20.734-1.727-.403-2.878-1.979-2.737-3.748.142-1.78 1.539-3.164 3.321-3.289 25.919-1.825 38.703 14.531 44.02 24.443.459.856.381 1.902-.203 2.681-.583.778-1.565 1.148-2.516.947-.495-.104-.841-.161-.985-.183-.468-.025-3.7-.151-7.218 1.039-.263.089-.534.132-.8.132zm-21.79-23.738c7.944 3.225 17.036 8.789 22.959 18.298 1.425-.35 2.753-.541 3.876-.643-5.152-7.876-13.521-15.701-26.835-17.655z"/><path d="m82.639 126.12c-1.798 0-3.554-1.242-5.234-3.71-7.143-10.482-5.059-24.154-3.181-31.371 1.089-4.183 5.259-6.826 9.494-6.028 3.884.734 6.698 4.134 6.691 8.082-.054 30.842-4.61 32.242-6.555 32.84-.408.125-.813.187-1.215.187zm-.446-36.253c-1.441 0-2.754.982-3.131 2.432-1.665 6.396-3.556 18.446 2.474 27.296.415.609.742.987.975 1.218 1.146-1.971 2.866-9.515 2.897-27.729v-.001c.003-1.543-1.1-2.872-2.622-3.16-.198-.037-.397-.056-.593-.056z"/><path d="m70.049 128.846c-18.76 0-40.52-11.306-42.156-19.246-.469-2.275.521-5.021 4.708-5.903 10.679-2.244 32.724 4.908 44.915 9.373.698.256 1.246.809 1.496 1.51.648 1.82 1.497 3.509 2.524 5.017.659.968 1.098 1.352 1.301 1.494.562.394.937 1.002 1.037 1.681s-.083 1.369-.506 1.908c-1.393 1.775-3.367 2.996-5.56 3.438-2.479.499-5.09.728-7.759.728zm-37.187-20.027c.265.628 1.271 2.095 4.014 4.162 7.945 5.99 25.59 13.126 39.945 10.233.346-.069.659-.174.94-.3-.119-.162-.238-.33-.357-.505-1.052-1.545-1.951-3.234-2.678-5.035-19.371-7.015-34.313-10.217-41.094-8.786-.37.079-.615.164-.77.231z"/><path d="m46.247 146.104c-.515 0-1.036-.119-1.524-.367-22.915-11.647-18.037-33.41-16.827-37.654.331-1.161 1.446-1.919 2.647-1.803 1.202.118 2.148 1.078 2.248 2.281.073.882 2.572 4.086 9.52 7.864 1.062.577 1.559 1.832 1.18 2.98-2.925 8.854 2.117 17.138 5.383 21.288.975 1.24.957 2.958-.044 4.179-.658.803-1.608 1.232-2.583 1.232zm-14.574-30.958c-.526 6.144.568 15.11 9.093 22.117-2.394-4.745-4.114-10.84-2.583-17.433-1.96-1.159-4.456-2.801-6.51-4.684z"/><path d="m77.156 84.332c-4.427 0-8.583-1.961-11.403-5.38-.5-.605-.686-1.411-.502-2.174.183-.764.714-1.396 1.434-1.71 5.486-2.385 12.691-7.075 15.867-15.872.275-.763.903-1.345 1.684-1.561.781-.215 1.618-.041 2.247.472 3.46 2.82 5.445 6.995 5.445 11.452 0 8.146-6.627 14.773-14.772 14.773zm-5.01-6.379c1.496.894 3.22 1.379 5.01 1.379 5.389 0 9.772-4.384 9.772-9.772 0-1.753-.465-3.44-1.323-4.913-3.393 6.472-8.639 10.653-13.459 13.306z"/><path d="m107.856 133.453c-.533 0-1.066-.17-1.512-.509-8.644-6.564-15.723-15.311-21.041-25.995-.195-.393-.284-.829-.257-1.267.29-4.754.357-9.476.362-12.599.003-1.544-1.1-2.873-2.622-3.161-.436-.083-.9-.063-1.382.06-1.337.334-2.695-.47-3.036-1.807-.524-2.054-.978-4.112-1.348-6.116-.25-1.351.638-2.65 1.987-2.909 3.033-.582 5.64-2.608 6.972-5.419.397-.837 1.225-1.387 2.151-1.427.917-.03 1.798.436 2.266 1.236l26.401 45.151c.464.793.455 1.776-.022 2.562-.478.785-1.354 1.242-2.265 1.197-1.393-.084-2.776.52-3.73 1.581-.927 1.03-1.316 2.358-1.097 3.74v.001c.114.723.308 1.561.574 2.49.297 1.035-.102 2.144-.99 2.752-.425.294-.918.439-1.411.439zm-17.779-28.141c3.95 7.779 8.892 14.426 14.74 19.832.333-1.64 1.098-3.177 2.248-4.455 1.006-1.118 2.258-1.981 3.628-2.534l-22.613-38.673c-1.565 1.722-3.52 3.061-5.701 3.889.107.504.219 1.009.336 1.516.336.02.67.061 1.002.124 3.884.734 6.698 4.134 6.691 8.082-.005 3.043-.068 7.575-.331 12.219z"/><path d="m228.979 209.731c-8.829 0-17.464-.582-25.678-1.73-.659-.092-1.254-.442-1.653-.976-.399-.532-.57-1.201-.475-1.86l1.697-11.668c.194-1.335 1.415-2.269 2.752-2.124 5.593.625 11.371 1.022 17.174 1.181.49.014.966.171 1.368.452l8.126 5.702c2.146 1.505 3.056 4.43 2.212 7.113-.744 2.368-2.704 3.903-4.992 3.909-.176 0-.354.001-.531.001zm-22.493-6.353c7.396.918 15.136 1.347 23.011 1.353.087-.047.299-.379.315-.891.011-.36-.086-.823-.393-1.038l-7.513-5.271c-4.861-.15-9.703-.463-14.434-.935z"/><path d="m161.25 215.366c-1.472 0-2.599-.431-3.375-1.293-2.374-2.639.055-6.877 2.745-10.674 6.905-9.751 20.381-20.164 27.8-25.504 1.872-1.345 4.305-1.35 6.2-.011 1.868 1.32 2.664 3.582 2.028 5.761-4.627 15.863-23.918 27.4-24.737 27.884-.016.01-.033.019-.05.028-4.533 2.538-8.082 3.809-10.611 3.809zm30.27-33.477c-.088 0-.148.044-.179.065-5.769 4.152-19.914 14.835-26.641 24.334-1.341 1.895-2.038 3.152-2.399 3.947 1.709-.423 4.583-1.626 7.088-3.024.718-.431 18.452-11.229 22.459-24.966.021-.073.048-.163-.115-.278-.083-.059-.154-.078-.213-.078zm-20.88 27.487h.01z"/><path d="m218.015 256c-.352 0-.702-.074-1.029-.222-.611-.275-1.085-.785-1.317-1.414l-24.869-67.525c-.477-1.296.187-2.733 1.482-3.21 1.295-.481 2.732.186 3.21 1.481l23.989 65.14 7.559-2.93c.655-.256 1.39-.222 2.021.095l4.166 2.081c1.235.617 1.736 2.118 1.119 3.354-.616 1.236-2.117 1.739-3.354 1.119l-3.176-1.587-8.898 3.449c-.291.112-.597.169-.903.169z"/><path d="m51.94 247.208c-.306 0-.612-.057-.903-.169l-7.356-2.852-2.529 1.264c-1.234.618-2.737.116-3.354-1.119s-.116-2.736 1.119-3.354l3.519-1.758c.63-.315 1.364-.35 2.021-.095l6.017 2.332 18.31-49.718c.478-1.295 1.915-1.962 3.21-1.481 1.296.477 1.959 1.914 1.482 3.21l-19.188 52.104c-.232.629-.707 1.139-1.317 1.414-.328.148-.679.222-1.031.222z"/><path d="m159.517 214.504c-.386 0-.775-.089-1.134-.272-13.346-6.796-22.19-31.312-23.035-33.729-.227-.462-.915-1.896-1.598-3.624-.426-1.077-.057-2.306.892-2.969.948-.663 2.229-.589 3.094.181 5.489 4.884 11.585 9.27 18.122 13.036.406.234.738.577.958.991.782 1.47 1.547 2.935 2.29 4.356 2.199 4.21 4.277 8.187 5.911 10.54.607.874.594 2.037-.032 2.897l-.284.377c-2.426 3.426-2.734 4.761-2.773 5.052.252.914-.035 1.9-.754 2.536-.468.414-1.06.628-1.657.628zm-17.382-30.403c2.895 6.817 8.56 18.346 15.709 23.874.493-1.057 1.187-2.243 2.095-3.591-1.567-2.517-3.306-5.845-5.265-9.596-.631-1.207-1.278-2.446-1.938-3.692-3.678-2.151-7.22-4.489-10.601-6.995z"/><path d="m169.76 199.161c-.315 0-.633-.06-.936-.182-9.275-3.748-17.912-8.501-25.671-14.125-.997-.723-1.319-2.062-.76-3.159l3.437-6.746c.312-.611.861-1.068 1.519-1.263.658-.193 1.368-.11 1.962.234 8.913 5.164 18.966 9.333 29.88 12.392.894.25 1.575.976 1.77 1.884.195.907-.13 1.848-.842 2.442-3.191 2.663-6.082 5.284-8.591 7.791-.479.478-1.117.732-1.768.732zm-21.932-17.12c6.546 4.552 13.715 8.473 21.357 11.68 1.324-1.282 2.735-2.588 4.225-3.909-8.717-2.733-16.866-6.176-24.31-10.269z"/><path d="m228.964 209.731c-17.208 0-33.293-2.176-47.819-6.468-.864-.255-1.523-.955-1.727-1.833-.203-.877.081-1.796.745-2.405 3.196-2.937 5.84-5.94 7.857-8.931.564-.836 1.574-1.251 2.564-1.053 10.095 2.024 20.933 3.206 32.212 3.512.491.014.966.171 1.368.452l8.126 5.702c2.145 1.505 3.055 4.43 2.212 7.113-.744 2.368-2.704 3.903-4.992 3.909-.181.001-.364.002-.546.002zm-42.269-10.112c12.968 3.394 27.163 5.112 42.269 5.112.178 0 .355-.001.533-.001.087-.047.299-.379.315-.891.011-.36-.086-.823-.393-1.038l-7.512-5.271c-10.701-.327-21.016-1.427-30.702-3.272-1.315 1.799-2.822 3.592-4.51 5.361z"/><path d="m169.773 199.147c-.315 0-.633-.06-.936-.182-3.256-1.315-6.362-2.712-9.231-4.148-.595-.298-1.047-.821-1.255-1.454s-.155-1.322.147-1.916l4.264-8.37c.583-1.146 1.942-1.663 3.14-1.192 4.19 1.643 8.661 3.133 13.287 4.429.894.25 1.576.976 1.77 1.883.195.908-.129 1.849-.842 2.443-3.185 2.659-6.071 5.276-8.577 7.777-.478.477-1.117.73-1.767.73zm-5.664-7.7c1.633.771 3.335 1.527 5.089 2.261 1.319-1.277 2.726-2.577 4.21-3.894-2.465-.771-4.875-1.595-7.211-2.465z"/><path d="m228.966 209.731c-17.192 0-33.276-2.178-47.815-6.474-.864-.255-1.523-.955-1.727-1.833-.203-.877.081-1.796.744-2.405 3.194-2.936 5.835-5.938 7.851-8.924.564-.836 1.576-1.254 2.564-1.053 10.084 2.023 20.922 3.204 32.213 3.511.491.014.966.171 1.368.452l8.126 5.702c2.146 1.505 3.056 4.43 2.212 7.113-.744 2.368-2.704 3.903-4.992 3.909-.181.001-.363.002-.544.002zm-42.265-10.118c12.979 3.398 27.172 5.118 42.265 5.118.178 0 .354-.001.531-.001.087-.047.299-.379.315-.891.011-.36-.086-.823-.393-1.038l-7.512-5.271c-10.71-.327-21.027-1.427-30.703-3.271-1.313 1.797-2.818 3.586-4.503 5.354z"/><path d="m169.761 199.16c-.315 0-.633-.06-.936-.182-47.229-19.083-62.471-57.015-64.086-68.798-.12-.876-.138-1.764-.053-2.713.116-1.288 1.194-2.275 2.486-2.277h.004c1.291 0 2.37.983 2.489 2.27l.019.261c2.115 13.396 21.884 45.265 69.499 58.6.894.25 1.576.976 1.77 1.883.195.908-.129 1.849-.842 2.443-3.187 2.66-6.074 5.279-8.582 7.783-.479.476-1.118.73-1.768.73zm-39.3-32.302c9.309 10.054 22.02 19.847 38.726 26.861 1.32-1.279 2.728-2.581 4.214-3.898-18.63-5.826-32.614-14.179-42.94-22.963z"/><path d="m228.965 209.731c-17.208 0-33.293-2.176-47.821-6.468-.864-.255-1.523-.955-1.727-1.833-.203-.878.081-1.797.745-2.406 3.194-2.933 5.835-5.934 7.852-8.921.564-.836 1.574-1.254 2.563-1.053 10.066 2.018 20.906 3.196 32.219 3.503.491.014.966.171 1.368.452l8.126 5.702c2.145 1.505 3.055 4.43 2.212 7.113-.744 2.368-2.704 3.903-4.992 3.909-.181.001-.364.002-.545.002zm-42.27-10.112c13.122 3.435 27.497 5.115 42.802 5.111.087-.047.299-.379.315-.891.011-.36-.086-.823-.393-1.038l-7.512-5.271c-10.729-.328-21.047-1.425-30.709-3.264-1.313 1.796-2.818 3.587-4.503 5.353z"/><path d="m228.98 197.646c-13.93 0-27.179-1.241-39.388-3.689-.82-.164-1.503-.729-1.821-1.502-.317-.774-.227-1.655.241-2.349 1.802-2.667 3.092-5.312 3.836-7.86.021-.073.048-.163-.115-.278-.207-.146-.342-.049-.392-.013-2.716 1.955-6.873 5.053-11.245 8.704-.632.528-1.485.712-2.277.488-53.948-15.109-71.262-51.155-73.073-62.591-.59-3.726 1.002-7.354 4.157-9.472 3.152-2.115 7.122-2.207 10.361-.24l112.889 68.56-.001-.001c2.152 1.307 3.136 3.841 2.45 6.308-.664 2.384-2.662 3.928-5.091 3.935-.177-.001-.354 0-.531 0zm-34.881-7.925c11.055 1.969 22.908 2.92 35.399 2.924.093 0 .21-.001.287-.275.031-.111.106-.49-.227-.691 0 0 0-.001-.001-.001l-112.889-68.56c-1.578-.959-3.439-.915-4.979.118-1.542 1.035-2.291 2.731-2.005 4.537 2.096 13.231 21.535 44.665 68.228 58.201 4.106-3.377 7.937-6.227 10.508-8.078 1.871-1.346 4.304-1.351 6.2-.011 1.868 1.32 2.664 3.582 2.028 5.761-.585 2.003-1.438 4.036-2.549 6.075z"/><path d="m77.894 196.151c-2.078 0-4.148-.184-6.173-.602-2.224-.46-3.85-2.223-4.141-4.492-.295-2.301.848-4.448 2.914-5.471 8.191-4.055 23.704-11.086 35.553-12.62.713-.092 1.356-.157 1.965-.211.675-.068 1.344.157 1.855.601s.822 1.074.859 1.751c.048.865.098 1.652.144 2.349.006.092.023.18.16.252.12.062.25.063.307.028 1.079-.644 2.469-.387 3.246.6.777.988.701 2.398-.179 3.297-2.488 2.539-6.254 4.984-6.413 5.087-.752.463-15.566 9.43-30.097 9.431zm28.01-18.116c-11.475 1.719-26.966 8.951-33.193 12.033-.056.028-.204.102-.172.353.025.197.118.217.193.232 14.231 2.937 32.416-8.053 32.598-8.165s.866-.564 1.994-1.396c-.787-.824-1.289-1.889-1.42-3.057z"/><path d="m111.249 182.769c-.47 0-.949-.063-1.425-.192-2.24-.606-3.787-2.484-3.941-4.784-.614-9.121-1.179-26.145 1.935-37.677l.063-.222c.285-1.033 1.209-1.816 2.279-1.878 1.073-.059 2.073.52 2.475 1.513 2.149 5.315 5.213 10.927 8.861 16.228.306.444.459.975.438 1.514-.376 9.708-2.522 17.513-6.378 23.198-.999 1.472-2.598 2.3-4.307 2.3zm.04-34.274c-1.388 10.577-.804 23.232-.418 28.961.004.062.016.229.26.294.193.051.245-.025.288-.089 3.173-4.678 5.063-11.5 5.484-19.768-2.077-3.072-3.967-6.24-5.614-9.398z"/></svg>