<svg enable-background="new 0 0 256 256" height="512" viewBox="0 0 256 256" width="512" xmlns="http://www.w3.org/2000/svg"><g fill="#eaa250"><path d="m60.695 153.638c-3.181-7.207-5.178-15.259-5.178-24.115 0-8.712-.617-16.007-1.594-22.138 1.423.767 3.077 1.284 4.977 1.47 6.827.667 11.403-3.397 13.364-8.866 0 .007.001.014.001.02-.086.243-.168.49-.263.725.1-.077.195-.163.294-.243.505 7.144 3.748 19.593 19.653 24.137 22.838 6.525 71.777 0 71.777 81.564 0 0-5.586 32.757 84.913 36.641 2.712.116 4.861 2.343 4.861 5.058 0 2.797-2.267 5.064-5.064 5.064h-16.282c-19.249 0-38.402-3.355-56.315-10.402-14.298-5.625-28.766-13.929-36.093-25.836-1.966-3.196-5.653-5.037-9.327-4.272-3.263.68-5.845 2.991-3.126 9.516 5.438 13.05 3.263 31.538-13.05 31.538h-51.234c-1.79 0-3.06-1.738-2.519-3.444 1.227-3.866 4.871-9.606 15.69-9.606h32.518c2.463 0 4.084-2.574 3.004-4.787-3.749-7.685-10.105-23.448-8.016-38.563 0 0-22.908-11.452-37.128-32.828-1.198.352-2.474.645-3.857.846-11.104 1.616-12.655 6.155-12.225 9.377.284 2.129-1.323 4.052-3.471 4.056-3.11.005-6.603-.893-6.614-4.954-.016-6.618 8.645-15.34 20.304-19.958z"/><path d="m59.868 233.925h32.518c2.461 0 4.085-2.572 3.006-4.784-.124-.255-.252-.519-.381-.791-6.118-12.847-8.326-27.155-6.617-41.203 8.492 6.552 15.294 9.953 15.294 9.953-2.09 15.118 4.269 30.883 8.018 38.566 1.079 2.211-.546 4.784-3.006 4.784h-32.52c-8.157 0-12.232 3.263-14.271 6.525h-15.213c-1.79 0-3.06-1.738-2.519-3.444 1.228-3.866 4.872-9.606 15.691-9.606z"/><path d="m67.409 145.336-1.792 4.288c-.691 1.653-2.048 2.929-3.73 3.544-12.261 4.478-21.512 13.585-21.494 20.428.011 4.061 3.504 4.959 6.614 4.954 2.148-.003 3.754-1.927 3.471-4.055-.429-3.222 1.121-7.761 12.225-9.378 17.932-2.61 19.719-19.089 19.719-19.089z"/><path d="m57.536 145.555c.072-.026.14-.061.211-.089.803 2.833 1.796 5.559 2.949 8.172-10.09 3.996-17.93 11.063-19.846 17.186-2.516-.344-4.799-1.559-4.808-4.84-.018-6.844 9.233-15.951 21.494-20.429z"/></g><path d="m34.127 2.502c15.591.063 25.025 16.056 23.803 28.559-.353 3.61-.237 2.393-.009 5.537-4.631 1.118-8.87 3.562-12.322 6.98-9.985-5.581-12.587-9.014-11.508-20.056.944-9.659-.345-16.616-1.052-19.501-.189-.77.365-1.522 1.088-1.519z" fill="#f98080"/><path d="m73.856 38.156c.832-3.04 1.698-1.727 2.051-5.337 1.222-12.504 13.574-26.367 28.882-23.41.71.137 1.108.982.773 1.701-1.252 2.694-3.864 9.269-4.808 18.928-1.079 11.041-5.285 13.809-16.162 17.351-2.723-4.022-6.409-7.239-10.736-9.233z" fill="#f98080"/><path d="m73.679 160.784c11.767 11.823 26.295 18.831 34.983 22.275-2.767 4.423-4.306 9.198-4.975 14.041 0 0-22.908-11.452-37.128-32.828 2.849-.839 5.195-2.061 7.12-3.488z" fill="#ffc097"/><path d="m66.02 36.029c14.558 1.423 25.095 15.52 23.534 31.486-.587 6.001-2.799 11.41-6.105 15.751-2.088 2.742-3.652 5.772-4.953 8.904-1.441 3.468-3.706 6.415-6.493 8.564.608-1.504 1.036-3.191 1.22-5.073.385-3.943-.351-7.667-1.889-10.677-.002.035.005.066.002.101-.275 2.81-5.798 6.282-10.678 5.805s-9.627-4.953-9.352-7.763c.003-.035.017-.064.022-.098-2.092 2.656-3.535 6.167-3.92 10.109-.184 1.882-.091 3.62.214 5.213-2.318-2.648-3.971-5.977-4.712-9.659-.67-3.324-1.617-6.6-3.134-9.694-2.403-4.899-3.526-10.634-2.94-16.635 1.559-15.967 14.626-27.757 29.184-26.334z" fill="#eaa250"/><path d="m49.902 40.095c-.811-4.03-1.08-4.251.555-10.415 2.352-8.862-.951-17.747-3.678-23.059 7.785 5.581 11.99 15.836 11.149 24.441-.353 3.61-.237 2.393-.009 5.537-2.851.688-5.554 1.882-8.017 3.496z" fill="#eaa250"/><path d="m83.505 32.91c.411 6.364-.884 6.432-2.46 10.229-2.104-2.06-4.524-3.755-7.189-4.983.832-3.04 1.698-1.727 2.051-5.337.841-8.604 6.952-17.852 15.671-21.819-3.704 4.683-8.664 12.76-8.073 21.91z" fill="#eaa250"/><path d="m51.306 83.127c-.275 2.81 4.472 7.286 9.352 7.763s10.404-2.995 10.678-5.805c.275-2.81-4.839-3.529-9.719-4.006-4.881-.477-10.037-.762-10.311 2.048z" fill="#7d3d1a"/><path d="m51.326 83.028c-.005.034-.018.063-.022.098-.275 2.81 4.472 7.286 9.352 7.763 4.881.477 10.404-2.995 10.678-5.805.003-.035-.004-.066-.002-.101 5.16 10.103.219 25.108-12.432 23.871-12.635-1.234-14.593-16.914-7.574-25.826z" fill="#eaa250"/><path d="m103.69 199.6c-.114 0-.229-.008-.345-.024-1.368-.189-2.323-1.451-2.134-2.819 2.259-16.34 12.974-27.688 31.847-33.728 1.312-.421 2.722.304 3.143 1.619s-.304 2.722-1.619 3.143c-16.884 5.403-26.445 15.379-28.417 29.65-.175 1.252-1.246 2.159-2.475 2.159z"/><path d="m69.771 85.268c-.402 0-.805-.097-1.173-.292-1.619-.86-5.405-1.23-7.225-1.408-1.819-.178-5.604-.547-7.361-.018-.892.271-1.858.021-2.51-.645-.651-.666-.878-1.638-.59-2.523l2.874-8.817c.427-1.313 1.838-2.03 3.151-1.603s2.03 1.839 1.603 3.151l-1.683 5.164c1.641.007 3.376.155 5.002.314 1.631.16 3.369.352 4.984.664l-.63-5.401c-.16-1.372.822-2.613 2.194-2.773 1.371-.162 2.612.823 2.773 2.194l1.073 9.204c.107.923-.306 1.83-1.073 2.354-.422.288-.915.435-1.409.435z"/><path d="m66.497 106.958c-.52 0-1.039-.049-1.556-.147-4.364-.832-7.013-4.799-7.301-5.249-.302-.472-.437-1.032-.382-1.59l.909-9.305c.134-1.375 1.359-2.376 2.731-2.245 1.374.134 2.379 1.357 2.245 2.731l-.815 8.343c.739.879 2.073 2.13 3.567 2.407 1.047.195 2.104-.11 3.237-.927 1.12-.808 2.682-.555 3.49.564s.555 2.682-.564 3.49c-1.766 1.275-3.662 1.928-5.561 1.928z"/><path d="m53.43 105.681c-.02 0-.038 0-.058 0-2.45-.016-4.745-1.097-6.637-3.125-.942-1.01-.887-2.592.123-3.534 1.01-.941 2.591-.887 3.534.123.958 1.027 1.944 1.529 3.014 1.537h.024c1.586 0 3.117-1.03 3.923-1.679l.814-8.334c.134-1.375 1.359-2.376 2.731-2.245 1.374.134 2.379 1.357 2.245 2.731l-.909 9.305c-.055.558-.295 1.082-.683 1.486-.367.382-3.707 3.735-8.121 3.735z"/><path d="m55.716 66.482c-.084 0-.168-.004-.254-.013-1.374-.139-2.375-1.365-2.236-2.738.123-1.218-.768-2.309-1.985-2.432-1.208-.122-2.308.768-2.431 1.985-.139 1.374-1.362 2.378-2.739 2.236-1.374-.139-2.375-1.365-2.236-2.739.4-3.96 3.956-6.856 7.908-6.457 3.96.4 6.857 3.948 6.458 7.908-.13 1.289-1.217 2.25-2.485 2.25z"/><path d="m80.117 68.852c-.082 0-.164-.004-.247-.012-1.374-.135-2.379-1.357-2.245-2.732.058-.59-.118-1.167-.494-1.625s-.908-.742-1.499-.799c-1.218-.125-2.306.775-2.425 1.993-.135 1.374-1.355 2.375-2.732 2.245-1.374-.135-2.379-1.358-2.245-2.732.388-3.962 3.931-6.868 7.888-6.482 1.919.188 3.651 1.111 4.875 2.601 1.225 1.49 1.795 3.368 1.608 5.287-.125 1.29-1.213 2.256-2.484 2.256z"/><path d="m61.909 249.475h-15.213c-1.659 0-3.171-.767-4.15-2.105-.965-1.319-1.246-3.037-.751-4.595 1.346-4.239 5.483-11.35 18.073-11.35h32.518c.407 0 .624-.249.716-.397.09-.144.215-.438.043-.791l-.392-.812c-6.265-13.156-8.63-27.88-6.841-42.58.108-.893.688-1.658 1.517-2.004.828-.347 1.781-.223 2.492.327 8.205 6.331 14.818 9.663 14.884 9.696.959.479 1.505 1.517 1.359 2.579-1.984 14.35 4.028 29.421 7.788 37.128.885 1.813.774 3.919-.296 5.632-1.075 1.721-2.928 2.748-4.957 2.748h-32.519c-5.844 0-9.932 1.8-12.151 5.35-.457.73-1.258 1.174-2.12 1.174zm-2.041-13.05c-8.936 0-12.168 4.276-13.307 7.863-.008.025-.022.071.021.13.042.058.09.058.115.058h13.907c2.457-3.207 7.058-6.525 15.577-6.525h32.518c.408 0 .624-.249.717-.397.09-.144.215-.438.043-.791-3.861-7.913-9.941-23.156-8.454-38.259-2.03-1.12-5.86-3.36-10.53-6.697-.766 12.292 1.555 24.47 6.793 35.469l.372.772c.884 1.811.773 3.917-.297 5.63-1.075 1.72-2.928 2.748-4.957 2.748h-32.518z"/><path d="m46.982 181.051c-5.681 0-9.078-2.783-9.09-7.448-.021-8.164 9.926-17.958 23.137-22.783 1.034-.377 1.865-1.165 2.281-2.16l1.792-4.288c.533-1.274 1.997-1.875 3.271-1.343s1.875 1.997 1.343 3.271l-1.792 4.289c-.953 2.278-2.84 4.074-5.18 4.928-11.891 4.343-19.865 12.851-19.852 18.073.002.86.007 2.461 4.085 2.461.37.011.623-.18.76-.337.209-.239.305-.563.261-.888-.493-3.698.716-10.198 14.343-12.182 6.661-.969 11.643-4.113 14.805-9.343 2.336-3.864 2.785-7.506 2.789-7.542.148-1.373 1.376-2.371 2.755-2.216 1.373.149 2.365 1.382 2.216 2.755-.02.184-2.223 18.438-21.845 21.293-4.915.715-10.658 2.437-10.107 6.573.233 1.752-.296 3.516-1.453 4.839-1.135 1.298-2.772 2.043-4.492 2.046-.008.002-.017.002-.027.002z"/><path d="m114.244 256h-51.235c-1.659 0-3.171-.767-4.15-2.105-.965-1.319-1.246-3.037-.751-4.595 1.345-4.239 5.482-11.35 18.073-11.35h32.518c.407 0 .623-.248.715-.396.09-.145.216-.44.042-.796-3.859-7.912-9.937-23.152-8.452-38.252-5.367-2.948-23.114-13.578-35.518-31.369-.802.185-1.605.335-2.425.455-4.915.715-10.658 2.437-10.107 6.573.233 1.751-.296 3.515-1.452 4.838-1.134 1.298-2.772 2.044-4.492 2.047-.009 0-.018 0-.027 0-5.681 0-9.079-2.783-9.091-7.448-.019-7.392 8.065-16.09 19.537-21.294-2.929-7.387-4.412-15.041-4.412-22.787 0-7.92-.526-15.236-1.562-21.745-.15-.939.246-1.881 1.021-2.432.776-.551 1.797-.613 2.633-.162 1.186.639 2.543 1.037 4.034 1.182 7.127.698 9.906-4.817 10.767-7.221.399-1.112 1.519-1.797 2.694-1.633 1.171.161 2.069 1.12 2.153 2.298.006.089.008.179.005.27.013.077.022.156.028.235.553 7.827 4.099 17.982 17.846 21.91 3.369.962 7.467 1.653 11.807 2.385 24.603 4.147 61.783 10.414 61.783 81.583 0 .141-.012.281-.036.42-.025.176-.668 5.084 4.386 11.183 7.52 9.075 27.186 20.352 78.169 22.54 4.068.174 7.254 3.493 7.254 7.555 0 4.171-3.394 7.564-7.564 7.564h-16.282c-20.137 0-39.392-3.558-57.229-10.575-18.196-7.159-30.748-16.193-37.307-26.853-1.477-2.4-4.166-3.662-6.687-3.134-1.066.222-1.753.611-2.041 1.156-.479.91-.22 2.714.711 4.951 3.387 8.129 4.467 19.837-.754 27.67-3.196 4.797-8.245 7.332-14.602 7.332zm-38.063-13.05c-8.936 0-12.168 4.276-13.307 7.863-.008.025-.022.071.021.13.041.057.089.057.114.057h51.234c4.672 0 8.186-1.717 10.443-5.103 3.577-5.365 3.7-14.812.3-22.974-1.574-3.777-1.749-6.874-.519-9.206.699-1.325 2.21-3.045 5.443-3.718 4.577-.956 9.388 1.219 11.965 5.408 5.979 9.717 17.713 18.067 34.878 24.82 17.252 6.787 35.892 10.229 55.399 10.229h16.282c1.414 0 2.564-1.15 2.564-2.564 0-1.376-1.084-2.5-2.468-2.56-29.367-1.26-67.439-6.558-82.046-24.639-5.722-7.083-5.412-13.298-5.26-14.655-.053-66.792-33.319-72.403-57.614-76.498-4.48-.755-8.713-1.468-12.349-2.507-13.247-3.785-18.445-12.615-20.413-20.019-3.108 3.204-7.402 4.794-12.193 4.329-.575-.056-1.138-.14-1.688-.25.696 5.683 1.048 11.862 1.048 18.429 0 7.867 1.67 15.641 4.965 23.106.274.622.284 1.329.026 1.958s-.76 1.126-1.393 1.376c-11.582 4.587-18.736 12.722-18.724 17.628.002.86.006 2.461 4.085 2.461.371.011.623-.18.761-.338.123-.141.32-.443.261-.888-.493-3.698.716-10.198 14.343-12.182 1.188-.173 2.337-.425 3.511-.771 1.053-.307 2.181.102 2.788 1.014 13.693 20.584 35.941 31.865 36.164 31.977.959.479 1.505 1.517 1.359 2.579-1.983 14.348 4.027 29.418 7.786 37.124.886 1.816.775 3.923-.296 5.638-1.074 1.719-2.927 2.746-4.956 2.746z"/><path d="m40.852 173.324c-.112 0-.226-.007-.34-.023-4.418-.603-6.959-3.267-6.97-7.31-.021-8.158 9.911-17.943 23.106-22.772.047-.021.143-.062.156-.067.659-.268 1.4-.243 2.039.069s1.115.881 1.309 1.564c.752 2.654 1.705 5.293 2.831 7.844.274.622.284 1.329.026 1.958s-.76 1.126-1.393 1.376c-9.071 3.593-16.629 10.011-18.38 15.608-.33 1.054-1.306 1.753-2.384 1.753zm15.301-24.534c-10.642 4.536-17.624 12.301-17.611 17.188.001.547.003 1.285.849 1.812 2.878-5.809 9.689-11.671 18.041-15.479-.461-1.163-.888-2.338-1.279-3.521z"/><path d="m45.598 46.078c-.417 0-.836-.104-1.219-.318-10.478-5.856-13.983-10.133-12.777-22.481.922-9.43-.386-16.193-.992-18.663-.278-1.14-.024-2.318.698-3.233.692-.878 1.718-1.381 2.815-1.381h.015c6.979.028 13.53 3.041 18.445 8.482 5.603 6.202 8.605 14.946 7.835 22.82-.241 2.466-.241 2.466-.153 3.369.039.398.09.93.149 1.744.088 1.219-.718 2.324-1.907 2.611-4.12.995-7.976 3.183-11.149 6.326-.481.476-1.117.724-1.76.724zm-9.763-40.996c.767 3.792 1.568 10.245.743 18.684-.885 9.053.426 11.914 8.664 16.731 2.974-2.598 6.378-4.549 10.008-5.737-.092-1.053-.054-1.438.185-3.886.633-6.475-1.946-13.926-6.564-19.038-2.569-2.845-6.85-6.197-13.036-6.754z"/><path d="m84.593 49.89c-.813 0-1.596-.397-2.07-1.098-2.505-3.699-5.864-6.592-9.713-8.365-1.111-.512-1.688-1.751-1.365-2.931.454-1.658.982-2.449 1.484-3.116.225-.299.36-.479.49-1.804.77-7.874 5.409-15.871 12.106-20.871 5.876-4.387 12.886-6.075 19.738-4.75 1.082.208 1.996.902 2.508 1.902.531 1.039.553 2.244.059 3.307-1.072 2.306-3.665 8.686-4.587 18.118-1.188 12.152-6.243 15.697-17.876 19.485-.255.083-.516.123-.774.123zm-7.43-12.832c3.197 1.852 6.043 4.358 8.378 7.38 9.144-3.138 11.849-5.676 12.725-14.643.825-8.44 2.86-14.613 4.347-18.186-6.176-.649-11.024 1.808-14.097 4.102-5.521 4.122-9.494 10.932-10.121 17.351-.217 2.22-.663 3.179-1.232 3.996z"/><path d="m103.687 199.6c-.383 0-.766-.088-1.118-.264-.96-.48-23.669-11.999-38.092-33.68-.44-.662-.54-1.493-.268-2.239.271-.747.882-1.32 1.644-1.544 2.375-.699 4.507-1.741 6.337-3.098.998-.739 2.386-.635 3.261.245 11.708 11.764 26.41 18.654 34.132 21.714.69.273 1.223.839 1.454 1.544.232.705.138 1.477-.255 2.105-2.396 3.831-3.95 8.224-4.618 13.058-.11.798-.599 1.494-1.311 1.87-.365.192-.766.289-1.166.289zm-33.223-34.093c10.614 14.596 25.209 24.103 31.389 27.718.72-3.169 1.801-6.157 3.233-8.934-8.127-3.461-20.895-9.983-31.704-20.299-.926.563-1.901 1.069-2.918 1.515z"/><path d="m72.003 103.234c-.532 0-1.064-.169-1.511-.508-.899-.682-1.229-1.882-.807-2.929.544-1.345.897-2.818 1.049-4.379.168-1.716.093-3.43-.209-5.057-.475.361-.996.706-1.559 1.028-2.678 1.533-5.794 2.258-8.552 1.989-3.525-.345-7.088-2.407-9.322-4.949-.619 1.546-1.028 3.225-1.197 4.952-.153 1.562-.092 3.076.181 4.499.213 1.109-.344 2.222-1.358 2.718s-2.234.249-2.978-.6c-2.637-3.012-4.464-6.751-5.283-10.812-.728-3.612-1.658-6.499-2.928-9.087-2.695-5.495-3.796-11.712-3.183-17.979 1.692-17.312 16.011-30.127 31.917-28.578 7.749.757 14.699 4.764 19.57 11.281 4.819 6.447 7.024 14.593 6.208 22.937-.613 6.267-2.896 12.153-6.604 17.022-1.747 2.294-3.219 4.947-4.633 8.349-1.588 3.825-4.104 7.139-7.275 9.584-.449.346-.987.519-1.526.519zm-.669-20.75c.924 0 1.792.514 2.226 1.363 1.287 2.519 2.036 5.33 2.221 8.277.143-.3.278-.604.407-.913 1.561-3.758 3.286-6.852 5.272-9.46 3.145-4.13 5.083-9.137 5.605-14.479.694-7.101-1.166-14.01-5.237-19.457-4.019-5.376-9.719-8.679-16.052-9.297-13.171-1.293-25.03 9.52-26.454 24.088-.522 5.343.41 10.63 2.696 15.291 1.444 2.943 2.537 6.313 3.34 10.302.066.328.141.653.223.975.751-2.855 2.031-5.469 3.781-7.691.699-.887 1.906-1.196 2.946-.753 1.039.444 1.652 1.529 1.494 2.648-.002.015-.005.031-.007.048.079 1.121 3.202 4.596 7.105 4.977 3.893.377 7.633-2.417 7.935-3.509 0-.005 0-.01.001-.015.048-1.135.854-2.095 1.964-2.337.179-.04.358-.058.534-.058z"/><path d="m49.902 42.595c-.327 0-.655-.064-.965-.193-.766-.32-1.322-1-1.486-1.813l-.164-.803c-.755-3.678-.859-4.669.754-10.747 2.095-7.893-.739-15.927-3.485-21.276-.527-1.027-.283-2.281.591-3.035.875-.752 2.151-.811 3.089-.138 8.139 5.834 13.148 16.82 12.181 26.715-.241 2.466-.241 2.466-.153 3.369.039.398.09.931.149 1.745.088 1.22-.718 2.324-1.907 2.611-2.539.613-4.973 1.675-7.235 3.158-.412.269-.889.407-1.369.407zm3.569-23.539c.492 3.595.424 7.418-.596 11.265-.859 3.236-1.153 4.563-1.101 5.844 1.132-.548 2.293-1.018 3.478-1.405-.092-1.052-.054-1.438.185-3.885.383-3.931-.357-8.054-1.966-11.819z"/><path d="m81.045 45.639c-.647 0-1.277-.251-1.749-.714-1.932-1.892-4.115-3.405-6.487-4.499-1.11-.512-1.688-1.751-1.365-2.931.454-1.658.982-2.449 1.484-3.116.225-.299.36-.479.49-1.804.968-9.896 8.009-19.704 17.124-23.852 1.051-.479 2.292-.175 3.004.734s.708 2.187-.007 3.092c-3.73 4.718-8.066 12.051-7.539 20.2.336 5.205-.401 6.903-1.631 9.242-.326.619-.663 1.259-1.014 2.106-.318.767-.996 1.326-1.809 1.492-.167.033-.335.05-.501.05zm-3.882-8.581c1.061.615 2.084 1.302 3.064 2.059.693-1.369 1.016-2.442.783-6.045-.257-3.978.419-7.747 1.602-11.182-2.31 3.376-3.835 7.267-4.217 11.173-.217 2.219-.663 3.178-1.232 3.995z"/><path d="m61.568 93.434c-.39 0-.775-.018-1.154-.055-5.959-.583-12.029-6.075-11.597-10.495.54-5.515 8.367-4.749 13.042-4.293 2.573.251 5.24.575 7.308 1.234 4.383 1.396 4.798 4.047 4.656 5.503-.216 2.208-1.986 4.417-4.857 6.062-2.309 1.322-4.946 2.044-7.398 2.044zm-7.742-9.844c.339 1.27 3.352 4.448 7.075 4.812 3.731.366 7.296-2.171 7.873-3.351-.627-.436-2.469-1.001-7.4-1.483-4.931-.484-6.848-.284-7.548.022z"/><path d="m60.36 111.427c-.559 0-1.126-.028-1.703-.084-5.758-.563-10.157-3.75-12.385-8.975-2.763-6.48-1.493-15.069 3.089-20.887.699-.888 1.908-1.196 2.948-.751s1.651 1.533 1.491 2.652c-.002.014-.004.028-.007.043.08 1.121 3.202 4.595 7.105 4.976 3.905.38 7.633-2.417 7.935-3.509.001-.016.001-.033.002-.049.063-1.127.875-2.072 1.98-2.306 1.104-.231 2.229.303 2.743 1.309 3.371 6.6 2.956 15.274-1.009 21.094-2.876 4.223-7.16 6.487-12.189 6.487zm-9.301-22.988c-1.582 3.89-1.72 8.374-.187 11.968 1.045 2.452 3.33 5.477 8.271 5.959 4.946.484 7.774-2.04 9.274-4.241 2.206-3.238 2.935-7.681 2.123-11.816-2.685 2.072-6.595 3.411-10.127 3.069-2.757-.27-5.675-1.584-8.005-3.607-.497-.432-.948-.877-1.349-1.332z"/></svg>