<svg enable-background="new 0 0 256 256" height="512" viewBox="0 0 256 256" width="512" xmlns="http://www.w3.org/2000/svg"><path d="m111.279 90.88c-3.163-8.042-9.402-11.091-14.472-12.2-2.086.775-4.244 1.351-6.443 1.793.031.595.071 1.187.071 1.792 0 4.184-.78 8.146-2.153 11.728 6.255 4.288 13.748 1.438 16.083-.077 1.635-1.062 3.871-1.198 5.504-1.116 1.025.051 1.786-.965 1.41-1.92z" fill="#fd605b"/><path d="m23.441 82.265c0-.604.038-1.197.07-1.792-2.198-.442-4.356-1.018-6.442-1.793-5.069 1.108-11.309 4.158-14.472 12.2-.376.955.385 1.971 1.41 1.92 1.633-.082 3.869.054 5.504 1.116 2.334 1.515 9.828 4.366 16.083.077-1.373-3.582-2.153-7.544-2.153-11.728z" fill="#fd605b"/><path d="m111.279 90.88c-3.163-8.042-9.402-11.091-14.472-12.2-2.086.775-4.244 1.351-6.443 1.793.031.595.071 1.187.071 1.792 0 1.628-.144 3.213-.367 4.766 7.355.332 13.014 3.372 16.566 5.995 1.124-.241 2.282-.274 3.235-.226 1.025.051 1.786-.965 1.41-1.92z" fill="#7d3d1a"/><path d="m23.441 82.265c0-.604.038-1.197.07-1.792-2.198-.442-4.356-1.018-6.442-1.793-5.069 1.108-11.309 4.158-14.472 12.2-.376.955.385 1.971 1.41 1.92.953-.048 2.111-.015 3.235.226 3.552-2.623 9.21-5.663 16.566-5.995-.222-1.553-.367-3.138-.367-4.766z" fill="#7d3d1a"/><path d="m65.628 108.329h-17.379c-5.486.105-10.085 4.662-10.236 10.147-.163 5.902 4.574 10.739 10.44 10.739 2.797 0 5.332-1.104 7.205-2.896.717-.686 1.844-.686 2.561 0 1.873 1.792 4.408 2.896 7.205 2.896 5.866 0 10.602-4.836 10.44-10.739-.151-5.485-4.75-10.043-10.236-10.147z" fill="#ffc097"/><path d="m65.424 129.215c-2.797 0-5.332-1.104-7.205-2.896-.717-.686-1.844-.686-2.561 0-1.873 1.792-4.408 2.896-7.205 2.896-1.401 0-2.734-.283-3.955-.783 1.324 5.652 6.385 9.865 12.441 9.865s11.116-4.213 12.441-9.865c-1.222.5-2.555.783-3.956.783z" fill="#7d3d1a"/><path d="m81.379 121.313c.027-2.248-.725-4.338-1.82-6.305-.938 1.833-2.208 3.47-3.752 4.806 0 0 0-.001 0-.002-.389 3.914-2.932 7.188-6.433 8.621.002-.001.004-.001.006-.002-1.324 5.652-6.385 9.865-12.441 9.865s-11.116-4.213-12.441-9.865c.002.001.004.001.005.002-3.5-1.432-6.044-4.706-6.433-8.62v.001c-1.524-1.318-2.778-2.93-3.713-4.733-.369.947-.696 1.91-.935 2.9-1.144 4.754-.753 9.74-.168 14.598.639-.861 1.649-1.428 2.707-1.519-1.134 2.411-.587 5.527 1.298 7.391 1.096 1.083 2.533 1.727 3.775 2.632 2.475 1.803 4.14 4.707 4.461 7.782 1.071-1.357 2.317-2.57 3.698-3.6.053 6.575 4.736 12.838 10.961 14.658.191-4.172 3.374-7.486 6.353-10.367.869 1.013 1.882 1.898 2.997 2.619.216-2.826 1.044-5.603 2.409-8.076 1.266-2.295 3.053-4.575 2.849-7.197 1.107.979 2.215 1.958 3.322 2.937-.623-2.406-.642-4.97-.055-7.385.924-3.788 3.303-7.239 3.35-11.141z" fill="#c16a44"/><path d="m90.436 82.265c0-14.648-9.365-26.718-21.443-28.412-1.101-.154-1.622-1.443-.891-2.281.859-.983 1.849-1.849 2.941-2.545.632-.402.312-1.389-.435-1.334-1.836.134-3.666.342-5.485.624-3.507.542-7.024 1.377-10.149 3.045-.226.12-.503-.05-.476-.305.115-1.109.417-2.198.889-3.208.129-.277-.175-.565-.445-.42-2.535 1.358-4.924 2.983-7.132 4.826-1.081.903-2.388 1.482-3.773 1.735-11.665 2.127-20.595 13.973-20.595 28.276 0 8.021 2.811 15.267 7.336 20.463 1.165 1.338 1.839 3.032 1.803 4.805-.002.104-.003.208-.003.312 0 4.787 2.136 9.066 5.493 11.97-.044-.44-.07-.884-.057-1.339.151-5.485 4.75-10.042 10.236-10.147h17.378c5.486.105 10.085 4.662 10.236 10.147.012.454-.013.899-.057 1.339 3.358-2.904 5.493-7.182 5.493-11.97 0-.104-.001-.208-.003-.312-.036-1.774.638-3.467 1.803-4.805 4.525-5.197 7.336-12.443 7.336-20.464z" fill="#7d3d1a"/><path d="m26.489 68.447c-3.18-1.02-6.208-2.731-9.064-4.506-2.283-1.418-4.592-2.954-6.091-5.185-1.99-2.961-2.3-6.832-1.673-10.33.195-1.089-.611-2.095-1.717-2.095-.606 0-1.18.309-1.497.825-1.444 2.35-2.548 4.788-3.256 7.358-2.074 7.524 1.883 17.427 8.505 21.559 3.64 2.271 7.659 3.565 11.815 4.4.23-4.345 1.281-8.42 2.978-12.026z" fill="#f4dbce"/><path d="m110.686 54.515c-.708-2.569-1.812-5.008-3.256-7.358-.317-.516-.891-.825-1.497-.825-1.106 0-1.912 1.007-1.717 2.095.626 3.498.316 7.369-1.673 10.33-1.499 2.231-3.808 3.766-6.091 5.185-2.857 1.775-5.885 3.486-9.066 4.507 1.698 3.605 2.749 7.68 2.979 12.025 4.157-.835 8.177-2.128 11.817-4.4 6.621-4.132 10.578-14.035 8.504-21.559z" fill="#f4dbce"/><path d="m151.377 84.273c-2.765-8.136-8.751-14.743-14.586-21.101 2.43-.348 4.802-1.084 6.998-2.169-2.253-.992-4.338-2.356-6.141-4.021 2.371-.585 4.594-1.75 6.412-3.363l-5.745-2.563 10.719-6.488-15.769-4.403 8.769-4.49c-16.78-6.014-35.374-10.022-52.413-4.769-9.807 3.023-17.876 9.474-24.438 17.401 1.799-.277 3.609-.483 5.425-.615.747-.055 1.067.932.435 1.334-1.092.696-2.083 1.562-2.941 2.545-.732.838-.211 2.127.891 2.281 7.943 1.115 14.711 6.717 18.415 14.588 3.172-1.021 6.194-2.728 9.043-4.499 2.283-1.418 4.592-2.954 6.091-5.185 1.99-2.961 2.299-6.832 1.673-10.33-.195-1.089.611-2.095 1.717-2.095.606 0 1.18.309 1.497.825 1.444 2.35 2.548 4.789 3.256 7.358 2.074 7.524-1.883 17.427-8.505 21.559-1.715 1.07-3.517 1.917-5.375 2.607h.001c5.07 1.108 11.31 4.158 14.472 12.199.376.955-.385 1.971-1.41 1.919-.229-.011-.47-.018-.719-.018-.036 0-.073.001-.109.002-.226.001-.458.007-.694.02-.024.001-.048.003-.071.005-.257.016-.518.039-.782.073-.008.001-.016.002-.024.003-.278.036-.557.082-.835.142-.802.172-1.589.447-2.27.889-2.333 1.514-9.82 4.362-16.074.083-1.26 3.285-3.027 6.244-5.191 8.729-1.165 1.338-1.839 3.031-1.803 4.805.002.104.003.208.003.312 0 2.585-.639 5.012-1.741 7.164 1.095 1.966 1.847 4.057 1.82 6.304-.047 3.902-2.426 7.353-3.348 11.142-.587 2.415-.568 4.979.055 7.385-1.107-.979-2.215-1.958-3.322-2.938.204 2.623-1.583 4.902-2.849 7.197-.6 1.088-1.09 2.238-1.477 3.422 8.584 9.136 13.597 20.557 13.597 20.557l2-.988c1 3.952 3 10.869 3 10.869l2-.988c2.489 9.018 2.913 20.076 2.985 23.581.013.617-.489 1.121-1.113 1.121h-2.872c-7.699.761-8.285 7.378-8.147 10.384.038.826.724 1.473 1.56 1.473h22.053c.877 0 1.617-.645 1.726-1.505l.775-6.126c.023-.181.014-.362-.024-.541-1.882-8.88 1.058-21.471 1.058-21.471l3 .961c-.248-8.544 1.531-17.139 5.155-24.901 3.024-6.478 7.372-12.575 8.291-19.65.397 1.069 1.791 1.647 2.842 1.178.449-3.887.363-7.835-.257-11.7 1.519 1.975 3.553 3.561 5.852 4.561-.49-8.762 8.126-14.914 13.269-22.068 5.737-7.98 7.344-18.711 4.19-27.993z" fill="#c16a44"/><path d="m228.535 67.788c-11-16.797-31-17.785-47-17.785-12.127 0-27.693-2.837-34.522-4.211l-8.697 5.264 5.745 2.564c-1.819 1.613-4.041 2.778-6.412 3.363 1.803 1.664 3.887 3.029 6.141 4.021-2.196 1.086-4.568 1.821-6.998 2.169 5.835 6.358 11.821 12.965 14.586 21.101 3.154 9.282 1.548 20.013-4.19 27.995-5.143 7.154-13.759 13.307-13.269 22.068-2.298-1-4.332-2.586-5.852-4.561.619 3.865.706 7.813.257 11.7-1.05.469-2.444-.109-2.842-1.178-.45 3.461-1.722 6.688-3.256 9.841 28.171-1.058 58.243-8.65 58.243-8.65 6.918 15.395 26.469 19.657 30.568 28.566 4.366 9.491-6.519 28.025-9.349 32.57-.381.612-1.036 1.013-1.762 1.06-6.473.424-8.275 4.566-8.752 7.341-.226 1.315.835 2.505 2.185 2.505h15.752c1.111 0 2.058-.793 2.241-1.876l.625-3.705c.039-.23.114-.453.222-.66l15.836-30.317-4-3.952 5-2.964c-13-26.678 4-42.487 11-64.225s-11.5-38.044-11.5-38.044z" fill="#7d3d1a"/><path d="m207.035 176.971-4-3.952 5-2.964c-1.01-2.072-1.819-4.071-2.485-6.02-7.548-5.693-19.883-10.975-25.082-22.546 0 0-7.628 1.925-18.794 3.971 8.175 12.245 24.64 16.505 28.362 24.595 4.366 9.491-6.519 28.025-9.349 32.57-.381.612-1.036 1.013-1.762 1.06-6.473.424-8.275 4.566-8.752 7.341-.226 1.315.835 2.505 2.185 2.505h15.752c1.111 0 2.058-.793 2.241-1.876l.625-3.705c.039-.23.114-.453.222-.66z" fill="#7d3d1a"/><path d="m89.035 177.959s-2-6.917-3-10.869l-2 .988c-.048-.083-5.159-11.497-13.604-20.534-.487 1.5-.804 3.057-.924 4.632-.754-.488-1.456-1.055-2.103-1.681 4.767 16.962 6.632 27.465 6.632 27.465l2-.988c2.489 9.018-1.087 20.076-1.015 23.581.013.617-.489 1.121-1.113 1.121h-2.872c-7.699.761-8.285 7.378-8.147 10.384.038.826.724 1.473 1.56 1.473h19c-.836 0-1.522-.648-1.56-1.473-.125-2.723.459-5.664 2.283-7.693.005-.005.01-.01.015-.015.981-1.085 2.363-1.965 4.301-2.415-.711-8.37 1.549-18.046 1.549-18.046l2.625.841c-.025-.135-.571-3.94-1.625-7.758z" fill="#c16a44"/><path d="m253.5 156.364c-1.945-4.147-3.891-8.294-5.836-12.44 1.304.815 2.903 1.16 4.432.955-3.5-4.443-5.719-9.861-6.33-15.46-.616-5.646.37-11.362-.092-17.023-.39-4.773-1.856-9.445-4.2-13.636-.206 2.28-.656 4.638-1.438 7.069-2.246 6.975-5.52 13.339-8.504 19.648.699 1.877 1.413 3.751 2.06 5.643 1.806 5.274 3.112 10.916 2.074 16.388-.859 4.529-3.29 9.138-1.795 13.503 1.119-.899 2.237-1.799 3.356-2.698-1.604 4.926-.039 10.43 2.881 14.725s7.062 7.611 11.139 10.858c-.326-3.508-.302-7.049.071-10.552.651-6.104 2.197-12.896-1.384-17.91 1.188.31 2.377.62 3.566.93z" fill="#7d3d1a"/><g fill="#52565b"><path d="m93.733 201.299c-.204.226-.494.374-.826.374h-2.872c-7.699.761-8.285 7.379-8.147 10.384.038.826.724 1.473 1.56 1.473h22.052c.877 0 1.617-.645 1.726-1.505l.775-6.126c.023-.181.014-.362-.024-.541-.155-.733-.275-1.493-.369-2.268-6.281 2.378-12.69-1.094-13.875-1.791z"/><path d="m201.006 203.31c-.32.211-.688.348-1.082.374-6.473.424-8.275 4.566-8.752 7.341-.226 1.315.835 2.505 2.185 2.505h15.752c1.111 0 2.058-.793 2.241-1.876l.625-3.705c.039-.23.114-.453.222-.66l1.104-2.114c-5.184 1.936-10.239-.596-12.295-1.865z"/><path d="m180.006 203.31c-.32.211-.688.348-1.082.374-6.473.424-8.275 4.566-8.752 7.341-.226 1.315.835 2.505 2.185 2.505h15.752c1.111 0 2.058-.793 2.241-1.876l.625-3.705c.039-.23.114-.453.222-.66l1.104-2.114c-5.184 1.936-10.239-.596-12.295-1.865z"/><path d="m81.888 212.056c-.094-2.049.163-5.768 2.77-8.172-4.806.227-8.99-2.036-9.925-2.586-.099.11-.216.199-.352.263-.005.002-.009.007-.014.01-.141.063-.294.102-.459.102h-2.872c-7.699.761-8.285 7.379-8.147 10.384.038.826.724 1.473 1.56 1.473h19c-.838 0-1.523-.648-1.561-1.474z"/></g><path d="m105.5 216.03h-22.052c-2.176 0-3.958-1.694-4.058-3.858-.342-7.455 3.546-12.31 10.398-12.987.082-.008.164-.012.246-.012h1.446c-.131-3.791-.586-11.612-2.162-18.73-.439.05-.882-.016-1.293-.195-.677-.299-1.188-.883-1.393-1.594-.064-.223-1.271-4.4-2.271-8.097-.396.05-.8.009-1.182-.13-.641-.232-1.159-.719-1.435-1.343-.048-.11-4.958-11.154-13.13-19.852-.625-.665-.838-1.618-.555-2.486.442-1.358 1.003-2.655 1.665-3.854.259-.47.539-.94.82-1.413.939-1.575 1.827-3.062 1.725-4.382-.079-1.016.466-1.978 1.378-2.432.483-.241 1.021-.312 1.526-.229.078-.865.221-1.726.426-2.572.402-1.649 1.022-3.178 1.623-4.654.839-2.063 1.632-4.012 1.654-5.927.02-1.554-.473-3.207-1.504-5.058-.406-.729-.422-1.613-.041-2.356.973-1.899 1.466-3.927 1.466-6.024l-.003-.265c-.046-2.344.812-4.651 2.417-6.494 1.993-2.288 3.589-4.974 4.743-7.983.273-.714.859-1.264 1.59-1.491.728-.228 1.524-.108 2.156.323 5.304 3.631 11.84.832 13.301-.116.88-.572 1.896-.977 3.104-1.237.347-.074.693-.132 1.039-.177.341-.044.657-.071.967-.092.019-.001.109-.006.128-.007s.036-.002.055-.003c-2.382-4.871-6.419-7.955-12.023-9.18-1.084-.236-1.883-1.159-1.961-2.267-.078-1.106.583-2.133 1.623-2.52 1.83-.68 3.44-1.46 4.923-2.385 5.724-3.572 9.19-12.345 7.418-18.773-.326-1.184-.746-2.346-1.266-3.502-.007 3.209-.821 6.136-2.393 8.475-1.767 2.629-4.351 4.363-6.847 5.913-2.753 1.71-6.046 3.612-9.597 4.756-1.201.384-2.493-.179-3.028-1.315-3.427-7.282-9.596-12.208-16.501-13.177-1.432-.2-2.634-1.163-3.138-2.512-.376-1.01-.31-2.112.154-3.053-.033.005-.066.01-.099.015-1.03.156-2.043-.334-2.555-1.237s-.413-2.028.249-2.827c7.593-9.173 16.215-15.295 25.628-18.196 14.885-4.592 32.041-3.062 53.993 4.805.938.336 1.587 1.197 1.651 2.192.064.994-.469 1.932-1.355 2.387l-3.078 1.576 9.61 2.683c.961.269 1.67 1.081 1.805 2.069.136.987-.329 1.961-1.182 2.478l-6.631 4.013 1.38.616c.776.347 1.323 1.062 1.452 1.902.13.84-.176 1.688-.812 2.251-.926.821-1.94 1.543-3.02 2.151.675.397 1.374.757 2.096 1.074.889.391 1.471 1.261 1.492 2.232.022.971-.521 1.866-1.391 2.297-1.101.544-2.235 1.008-3.397 1.388 4.858 5.419 9.758 11.521 12.244 18.837 3.41 10.035 1.676 21.63-4.527 30.259-1.497 2.082-3.255 4.063-4.955 5.979-4.188 4.72-8.146 9.179-7.849 14.49.049.866-.355 1.696-1.068 2.191-.711.496-1.628.589-2.426.24-.626-.272-1.233-.581-1.821-.924.038 2.021-.06 4.044-.292 6.058-.102.876-.657 1.635-1.462 1.995-.652.292-1.372.42-2.095.373-1.129 4.144-3.15 7.94-5.119 11.637-.915 1.717-1.86 3.493-2.675 5.238-3.456 7.403-5.157 15.623-4.921 23.771.023.811-.348 1.582-.996 2.07-.648.487-1.494.63-2.266.383l-.329-.105c-.714 4.038-1.764 11.851-.521 17.716.098.456.117.921.058 1.38l-.773 6.118c-.261 2.104-2.068 3.692-4.201 3.692zm-21.129-5h20.46l.67-5.297c-1.915-9.308.976-21.881 1.1-22.414.159-.68.595-1.263 1.202-1.606.53-.301 1.152-.393 1.739-.273.252-7.767 2.09-15.496 5.382-22.549.871-1.864 1.848-3.699 2.793-5.474 2.406-4.52 4.681-8.789 5.284-13.441.148-1.14 1.055-2.031 2.196-2.162.306-.036.604-.013.887.059.084-2.575-.078-5.153-.487-7.7-.181-1.13.428-2.238 1.479-2.692 1.051-.452 2.274-.135 2.972.771.519.675 1.107 1.293 1.753 1.845 1.222-5.256 5.021-9.538 8.722-13.707 1.691-1.906 3.288-3.706 4.635-5.579 5.276-7.34 6.753-17.2 3.854-25.731-2.641-7.772-8.708-14.383-14.061-20.215-.627-.684-.824-1.657-.513-2.531.312-.873 1.081-1.502 1.999-1.634.49-.07.977-.158 1.458-.263-.673-.504-1.32-1.043-1.94-1.616-.677-.624-.955-1.568-.726-2.46.229-.891.929-1.584 1.822-1.804.587-.146 1.163-.333 1.722-.56l-1.474-.657c-.85-.379-1.419-1.199-1.477-2.128s.404-1.812 1.2-2.294l5.774-3.495-10.201-2.848c-.992-.277-1.712-1.133-1.815-2.157s.432-2.007 1.348-2.477l3.51-1.797c-18.229-5.822-32.725-6.717-45.278-2.849-6.797 2.096-13.18 6.11-19.034 11.964 1.1.231 2.023 1.029 2.391 2.139.466 1.406-.08 2.943-1.328 3.737-.31.197-.611.413-.904.646 7.024 1.668 13.217 6.562 17.132 13.545 2.334-.982 4.568-2.296 6.519-3.508 2.118-1.315 4.12-2.646 5.335-4.455 1.409-2.098 1.879-5.193 1.288-8.495-.226-1.259.112-2.542.93-3.519.806-.964 1.99-1.517 3.248-1.517 1.472 0 2.861.771 3.626 2.014 1.604 2.61 2.793 5.303 3.537 8.005 2.341 8.49-2.052 19.639-9.592 24.344-.076.048-.152.095-.229.142 3.978 2.032 7.94 5.553 10.33 11.629.485 1.232.312 2.613-.463 3.693-.783 1.093-2.046 1.695-3.397 1.639-.195-.01-.396-.015-.604-.016l-.1.002c-.172.001-.359.005-.55.017-.014.001-.099.005-.111.006-.147.01-.354.027-.563.055-.235.03-.447.064-.656.109-.595.128-1.076.311-1.433.541-2.392 1.554-9.443 4.417-16.231 1.494-1.22 2.521-2.73 4.82-4.512 6.865-.788.904-1.21 2.011-1.188 3.113l.003.361c0 2.461-.489 4.846-1.455 7.108 1.057 2.203 1.56 4.305 1.534 6.391-.034 2.86-1.045 5.346-2.022 7.749-.557 1.369-1.082 2.663-1.396 3.953-.491 2.021-.476 4.154.046 6.167.275 1.064-.176 2.184-1.113 2.758-.938.576-2.141.468-2.963-.258l-.202-.179c-.42.886-.915 1.716-1.386 2.506-.253.424-.505.845-.737 1.267-.29.525-.556 1.077-.794 1.649 5.942 6.654 10.041 14.079 11.896 17.775.607-.217 1.282-.187 1.875.088.686.316 1.191.926 1.377 1.657.583 2.305 1.521 5.667 2.188 8.024.472-.076.962-.013 1.41.188.681.305 1.189.897 1.388 1.616 2.513 9.103 2.987 19.952 3.074 24.194.021.973-.344 1.892-1.025 2.588-.676.689-1.618 1.085-2.587 1.085h-2.742c-3.787.418-5.733 2.723-5.799 6.859zm21.149-5.445v.005z"/><path d="m180.469 143.989c-.953 0-1.864-.55-2.281-1.476-1.76-3.915-2.652-8.279-2.652-12.971 0-17.309 6.838-30.781 18.762-36.964 1.224-.636 2.734-.157 3.37 1.069.635 1.226.157 2.734-1.069 3.37-10.208 5.292-16.062 17.147-16.062 32.524 0 4.036.724 7.608 2.213 10.92.566 1.26.004 2.739-1.255 3.306-.335.151-.683.222-1.026.222z"/><path d="m209.11 216.03h-15.752c-1.402 0-2.724-.613-3.625-1.682-.88-1.045-1.254-2.41-1.024-3.746.952-5.544 4.929-8.965 10.92-9.403 6.104-9.835 12.136-23.576 9.135-30.1-1.46-3.175-5.759-5.935-10.736-9.131-6.477-4.159-14.43-9.266-18.915-17.583-7.184 1.688-32.805 7.35-56.794 8.251-.873.038-1.708-.396-2.188-1.133-.479-.735-.537-1.669-.153-2.459 1.742-3.581 2.676-6.378 3.024-9.068.148-1.141 1.055-2.032 2.196-2.163.306-.036.604-.013.887.059.084-2.575-.078-5.153-.487-7.7-.181-1.13.428-2.238 1.479-2.692 1.051-.452 2.274-.135 2.972.771.519.675 1.107 1.293 1.753 1.845 1.222-5.257 5.022-9.539 8.723-13.709 1.691-1.905 3.288-3.705 4.634-5.577 5.276-7.34 6.753-17.2 3.854-25.731-2.641-7.772-8.708-14.383-14.061-20.215-.627-.684-.824-1.657-.513-2.531.312-.873 1.081-1.502 1.999-1.634.49-.07.977-.158 1.458-.263-.673-.504-1.32-1.043-1.94-1.616-.677-.624-.955-1.568-.726-2.46.229-.891.929-1.584 1.822-1.804.587-.146 1.163-.333 1.722-.56l-1.474-.657c-.85-.38-1.419-1.199-1.477-2.128s.404-1.812 1.201-2.294l8.697-5.264c.535-.324 1.173-.434 1.787-.312 6.219 1.252 21.982 4.162 34.028 4.162 17.666 0 37.455 1.446 48.913 18.646 2.408 2.227 19.003 18.597 11.967 40.447-1.923 5.972-4.564 11.474-7.118 16.795-6.981 14.546-13.01 27.107-4.015 45.569.57 1.17.147 2.582-.973 3.245l-2.213 1.312 1.695 1.675c.781.771.968 1.963.459 2.936l-15.837 30.317-.598 3.625c-.386 2.295-2.366 3.96-4.706 3.96zm-15.391-5h15.203l.59-3.497c.083-.491.241-.962.47-1.4l14.982-28.683-2.686-2.653c-.552-.545-.819-1.313-.725-2.083.095-.769.54-1.451 1.207-1.846l3.057-1.812c-8.598-19.558-1.703-33.921 4.972-47.828 2.481-5.17 5.048-10.517 6.866-16.165 6.424-19.947-10.601-35.247-10.773-35.398-.168-.148-.315-.318-.438-.506-10.063-15.368-28.457-16.655-44.908-16.655-11.91 0-27.145-2.707-34.058-4.069l-3.778 2.286 1.38.616c.776.347 1.323 1.062 1.452 1.902.13.84-.176 1.688-.812 2.251-.926.821-1.94 1.543-3.02 2.151.675.397 1.374.757 2.096 1.074.889.391 1.471 1.261 1.492 2.232.022.971-.521 1.866-1.391 2.297-1.101.544-2.235 1.008-3.397 1.388 4.858 5.419 9.758 11.521 12.244 18.837 3.41 10.035 1.676 21.63-4.527 30.259-1.496 2.081-3.254 4.062-4.954 5.978-4.189 4.721-8.146 9.18-7.85 14.492.049.866-.355 1.696-1.068 2.191-.711.496-1.628.589-2.426.24-.626-.272-1.233-.581-1.821-.924.038 2.021-.06 4.044-.292 6.058-.102.877-.658 1.636-1.464 1.996-.652.29-1.373.417-2.094.372-.317 1.165-.696 2.274-1.102 3.315 26.376-1.547 53.426-8.311 53.71-8.382 1.174-.296 2.394.293 2.892 1.399 3.633 8.084 11.256 12.979 17.98 17.298 5.638 3.619 10.507 6.745 12.578 11.248 4.698 10.213-5.077 27.834-9.498 34.936-.808 1.298-2.198 2.134-3.72 2.233-3.611.238-5.699 1.826-6.369 4.852z"/><path d="m188.11 216.03h-15.752c-1.402 0-2.724-.613-3.625-1.682-.88-1.045-1.254-2.41-1.024-3.746.952-5.544 4.929-8.965 10.92-9.403 6.104-9.835 12.136-23.576 9.135-30.1-1.46-3.175-5.759-5.936-10.735-9.132-6.022-3.868-12.848-8.252-17.434-15.121-.468-.699-.551-1.588-.223-2.362.327-.775 1.023-1.333 1.852-1.484 10.944-2.005 18.557-3.917 18.633-3.936 1.174-.296 2.396.293 2.892 1.399 3.633 8.084 11.254 12.979 17.979 17.297 2.273 1.46 4.421 2.839 6.329 4.277.398.301.698.714.859 1.187.678 1.98 1.452 3.856 2.367 5.735.57 1.17.147 2.582-.973 3.245l-2.213 1.312 1.695 1.675c.781.771.968 1.963.459 2.936l-15.837 30.317-.598 3.625c-.386 2.296-2.366 3.961-4.706 3.961zm-15.391-5h15.203l.59-3.497c.083-.491.241-.962.47-1.4l14.982-28.683-2.686-2.653c-.552-.545-.819-1.313-.725-2.083.095-.769.54-1.451 1.207-1.846l3.059-1.813c-.497-1.139-.953-2.289-1.375-3.469-1.621-1.18-3.473-2.368-5.419-3.618-6.476-4.158-14.428-9.265-18.913-17.581-2.453.578-7.054 1.621-12.964 2.771 3.895 4.381 8.989 7.652 13.581 10.603 5.638 3.62 10.506 6.747 12.577 11.249 1.564 3.402 3.772 13.617-9.498 34.936-.808 1.298-2.198 2.134-3.72 2.233-3.611.237-5.699 1.825-6.369 4.851z"/><path d="m83.448 216.03h-19c-2.176 0-3.958-1.694-4.058-3.858-.342-7.455 3.546-12.31 10.398-12.987.082-.008.164-.012.246-.012h1.562c.11-1.052.329-2.313.583-3.781.693-4 1.686-9.727 1.006-14.938-.437.025-.878-.062-1.278-.264-.701-.355-1.195-1.02-1.333-1.794-.019-.104-1.906-10.601-6.578-27.226-.305-1.088.156-2.245 1.126-2.823.483-.289 1.036-.397 1.566-.337.109-.415.231-.828.364-1.239.273-.842.972-1.476 1.836-1.668.86-.193 1.765.087 2.368.733 6.319 6.762 10.864 14.866 12.926 18.902.616-.223 1.299-.197 1.899.08.686.316 1.191.926 1.377 1.657.583 2.305 1.521 5.667 2.188 8.024.472-.076.964-.013 1.41.188.681.305 1.189.897 1.388 1.616.644 2.331 1.234 5.144 1.666 7.917.163.866-.139 1.775-.799 2.358-.648.573-1.545.791-2.369.542-.593 3.352-1.416 9.304-.966 14.599.105 1.238-.715 2.366-1.926 2.647-1.29.3-2.275.841-3.013 1.655-.01.012-.02.022-.029.033-1.045 1.224-1.611 3.048-1.638 5.149.924.367 1.576 1.269 1.576 2.323.002 1.385-1.117 2.504-2.498 2.504zm-18.077-5h14.003c.061-3.349 1.086-6.278 2.938-8.338.012-.013.023-.026.036-.04.971-1.067 2.152-1.901 3.529-2.491-.29-8.104 1.635-16.462 1.724-16.842.159-.68.595-1.263 1.202-1.606.229-.13.475-.222.728-.273-.069-.336-.141-.669-.213-.996-.432.049-.88-.016-1.291-.196-.677-.299-1.188-.883-1.393-1.594-.064-.223-1.271-4.399-2.271-8.097-.971.131-1.961-.323-2.482-1.211-.04-.068-.117-.224-.15-.296-.755-1.62-4.32-8.985-9.877-16.011-.166.449-.458.844-.843 1.134 2.576 9.538 4.125 16.562 4.893 20.302.393-.026.788.05 1.155.215.681.305 1.189.897 1.388 1.616 1.915 6.938.559 14.762-.339 19.94-.31 1.788-.603 3.477-.587 4.254.021.973-.344 1.892-1.025 2.588-.676.689-1.618 1.085-2.587 1.085h-2.742c-3.784.416-5.73 2.721-5.796 6.857z"/><path d="m251.247 186.396c-.555 0-1.105-.185-1.558-.544-3.979-3.169-8.488-6.761-11.648-11.409-2.389-3.514-3.726-7.299-3.934-10.943-.307.028-.625.001-.932-.088-.783-.227-1.405-.82-1.67-1.591-1.321-3.858-.215-7.704.761-11.097.37-1.284.719-2.497.943-3.682 1.008-5.317-.53-10.869-1.983-15.112-.521-1.525-1.104-3.079-1.665-4.582l-.373-.998c-.235-.632-.205-1.332.083-1.942.497-1.052 1.003-2.104 1.51-3.162 2.484-5.176 5.053-10.528 6.874-16.184.682-2.113 1.128-4.31 1.328-6.527.099-1.092.897-1.992 1.97-2.221 1.073-.226 2.167.269 2.702 1.225 2.537 4.537 4.097 9.604 4.51 14.652.232 2.84.12 5.661.012 8.39-.118 2.976-.229 5.785.074 8.566.557 5.099 2.619 10.136 5.809 14.185.556.705.69 1.654.353 2.487-.338.832-1.096 1.419-1.985 1.538-.124.016-.247.03-.371.041l3.708 7.904c.411.877.278 1.914-.341 2.659-.337.405-.783.685-1.271.816.996 3.988.455 8.303-.039 12.247-.109.87-.218 1.733-.308 2.583-.356 3.332-.379 6.716-.068 10.057.093.998-.419 1.954-1.301 2.431-.375.203-.783.301-1.19.301zm-14.02-30.583c.495 0 .991.146 1.42.442.91.628 1.3 1.78.957 2.831-1.207 3.71-.246 8.4 2.572 12.546 1.724 2.535 3.958 4.744 6.346 6.805.018-1.792.121-3.582.311-5.359.094-.88.206-1.773.319-2.675.646-5.146 1.255-10.008-1.252-13.517-.612-.856-.622-2.004-.024-2.871.323-.47.788-.803 1.309-.967l-3.783-8.063c-.471-1.003-.225-2.197.605-2.933.275-.244.594-.418.93-.521-1.955-3.668-3.201-7.682-3.655-11.842-.344-3.15-.22-6.28-.1-9.308.107-2.698.208-5.247.001-7.784-.148-1.816-.471-3.637-.955-5.427-1.907 5.757-4.463 11.082-6.938 16.237-.35.73-.699 1.458-1.046 2.185l.001.003c.574 1.536 1.169 3.124 1.713 4.715 1.652 4.825 3.392 11.193 2.165 17.663-.268 1.412-.665 2.795-1.05 4.133-.396 1.372-.78 2.71-.996 3.986.359-.185.754-.279 1.15-.279z"/><path d="m106.635 95.525c-.53 0-1.052-.169-1.485-.489-3.173-2.343-8.385-5.201-15.193-5.508-.705-.031-1.363-.359-1.813-.902-.449-.543-.649-1.251-.549-1.949.229-1.605.342-3.049.342-4.412 0-.448-.025-.891-.05-1.333l-.018-.327c-.065-1.238.787-2.337 2.003-2.582 2.24-.45 4.225-1.002 6.066-1.686.45-.166.937-.2 1.403-.099 5.423 1.185 12.646 4.527 16.265 13.727.485 1.232.312 2.613-.463 3.693-.785 1.092-2.05 1.702-3.397 1.639-.941-.047-1.838.012-2.586.173-.175.037-.35.055-.525.055zm2.317-3.731c.001.001.001.001.001.002 0-.001 0-.001-.001-.002.001.001 0 .001 0 0zm-16.116-7.028c6.198.808 11.089 3.328 14.411 5.625.342-.042.691-.072 1.049-.09-2.283-4.669-6.089-7.696-11.338-9.018-1.275.445-2.607.837-4.023 1.181-.005.748-.038 1.512-.099 2.302z"/><path d="m7.242 95.525c-.175 0-.351-.019-.524-.056-.747-.16-1.637-.221-2.585-.173-1.362.06-2.615-.546-3.398-1.639-.775-1.08-.948-2.461-.463-3.694 3.618-9.198 10.842-12.541 16.265-13.726.467-.101.954-.067 1.403.099 1.844.685 3.827 1.235 6.063 1.685 1.216.244 2.069 1.344 2.004 2.582l-.015.274c-.024.46-.051.92-.051 1.387 0 1.363.112 2.807.342 4.412.101.698-.1 1.406-.549 1.949-.45.543-1.108.871-1.813.902-6.809.307-12.021 3.165-15.193 5.508-.434.321-.956.49-1.486.49zm-1.661-5.224c.357.018.707.048 1.049.09 3.322-2.297 8.213-4.817 14.411-5.625-.062-.79-.094-1.554-.099-2.302-1.415-.344-2.747-.734-4.023-1.181-5.249 1.321-9.055 4.349-11.338 9.018z"/><path d="m65.424 131.714c-3.139 0-6.129-1.125-8.485-3.18-2.356 2.055-5.346 3.18-8.485 3.18-3.525 0-6.82-1.392-9.278-3.919-2.458-2.525-3.758-5.859-3.661-9.388.188-6.806 5.88-12.448 12.688-12.578h17.427.048c6.808.13 12.5 5.772 12.688 12.577.097 3.529-1.203 6.863-3.661 9.389-2.461 2.527-5.756 3.919-9.281 3.919zm-8.486-8.412c1.083 0 2.165.403 3.008 1.21 1.485 1.42 3.43 2.202 5.478 2.202 2.163 0 4.186-.854 5.695-2.405 1.508-1.55 2.306-3.598 2.246-5.765-.115-4.167-3.595-7.623-7.763-7.715h-17.353c-4.13.079-7.622 3.54-7.737 7.716-.06 2.166.738 4.214 2.246 5.764 1.51 1.551 3.532 2.405 5.695 2.405 2.048 0 3.992-.782 5.477-2.202.843-.807 1.926-1.21 3.008-1.21z"/><path d="m56.938 140.797c-7.131 0-13.247-4.851-14.874-11.795-.214-.911.1-1.865.812-2.473s1.705-.765 2.569-.411c2.89 1.183 6.254.529 8.484-1.606 1.688-1.614 4.331-1.612 6.017 0 2.232 2.136 5.596 2.789 8.485 1.606.863-.352 1.857-.196 2.569.411s1.025 1.562.812 2.473c-1.626 6.944-7.743 11.795-14.874 11.795zm-8.211-9.085c1.891 2.518 4.888 4.085 8.212 4.085s6.321-1.567 8.212-4.085c-3.038-.063-5.924-1.182-8.212-3.178-2.289 1.996-5.174 3.114-8.212 3.178z"/><path d="m63.942 121.308c-1.381 0-2.5-1.119-2.5-2.5v-1.219c0-1.381 1.119-2.5 2.5-2.5s2.5 1.119 2.5 2.5v1.219c0 1.38-1.119 2.5-2.5 2.5z"/><path d="m49.935 121.308c-1.381 0-2.5-1.119-2.5-2.5v-1.219c0-1.381 1.119-2.5 2.5-2.5s2.5 1.119 2.5 2.5v1.219c0 1.38-1.12 2.5-2.5 2.5z"/><path d="m34.554 93.914c-1.377 0-2.495-1.114-2.5-2.492-.007-1.954.749-3.795 2.127-5.182 1.378-1.388 3.214-2.154 5.169-2.161h.021c4.026 0 7.308 3.268 7.321 7.296.005 1.38-1.111 2.503-2.492 2.508-.002 0-.005 0-.008 0-1.377 0-2.495-1.114-2.5-2.492-.004-1.275-1.045-2.312-2.32-2.312-.003 0-.005 0-.007 0-.619.002-1.2.245-1.638.685-.437.439-.676 1.023-.674 1.643.005 1.38-1.111 2.503-2.492 2.508-.001-.001-.004-.001-.007-.001z"/><path d="m69.685 93.914c-1.377 0-2.495-1.114-2.5-2.492-.007-1.954.749-3.795 2.127-5.182 1.378-1.388 3.214-2.154 5.169-2.161h.021c4.026 0 7.308 3.268 7.321 7.296.005 1.38-1.111 2.503-2.492 2.508-.002 0-.005 0-.008 0-1.377 0-2.495-1.114-2.5-2.492-.004-1.275-1.045-2.312-2.32-2.312-.003 0-.005 0-.007 0-.619.002-1.2.245-1.638.685-.437.439-.676 1.023-.674 1.643.005 1.38-1.111 2.503-2.492 2.508-.002-.001-.005-.001-.007-.001z"/><path d="m46.481 110.829c-.486 0-.979-.142-1.41-.437-1.14-.78-1.431-2.336-.651-3.476 1.599-2.336 3-4.964 4.166-7.812.521-1.277 1.98-1.891 3.261-1.366 1.277.522 1.89 1.982 1.366 3.261-1.299 3.174-2.869 6.115-4.666 8.742-.485.707-1.269 1.088-2.066 1.088z"/><path d="m67.396 110.829c-.797 0-1.581-.381-2.065-1.089-1.796-2.625-3.366-5.567-4.668-8.746-.523-1.277.088-2.737 1.366-3.261 1.275-.521 2.738.089 3.261 1.366 1.168 2.853 2.57 5.483 4.168 7.818.779 1.139.487 2.695-.652 3.475-.433.296-.924.437-1.41.437z"/><path d="m60.155 162.424c-.235 0-.471-.033-.702-.101-5.684-1.662-10.186-6.342-11.951-11.963-.014.018-.027.035-.042.053-.629.799-1.681 1.137-2.657.854-.978-.282-1.686-1.129-1.792-2.141-.249-2.38-1.538-4.632-3.447-6.022-.381-.277-.813-.543-1.271-.824-.889-.547-1.896-1.167-2.791-2.05-1.412-1.397-2.283-3.239-2.551-5.169-.112-.014-.225-.035-.337-.064-.989-.263-1.719-1.102-1.842-2.117-.566-4.696-1.063-10.153.219-15.482.241-1.004.571-2.027 1.037-3.224.356-.914 1.216-1.536 2.196-1.588.981-.067 1.9.474 2.353 1.346.801 1.547 1.854 2.89 3.128 3.992.484.418.79 1.007.853 1.644.291 2.927 2.165 5.438 4.892 6.553.813.332 1.37 1.055 1.516 1.879 1.143 4.6 5.224 7.799 9.974 7.799 4.751 0 8.833-3.201 9.975-7.803.135-.751.61-1.431 1.343-1.797.056-.027.113-.054.171-.077 2.727-1.116 4.602-3.628 4.893-6.555.062-.638.368-1.227.854-1.646 1.294-1.117 2.356-2.479 3.16-4.05.42-.821 1.259-1.345 2.181-1.361.958-.029 1.779.478 2.229 1.283 1.468 2.632 2.166 5.103 2.137 7.552-.035 2.86-1.045 5.346-2.022 7.749-.557 1.369-1.082 2.663-1.396 3.953-.49 2.02-.475 4.152.047 6.168.274 1.064-.178 2.184-1.114 2.758-.94.574-2.142.466-2.963-.259l-.202-.179c-.42.886-.915 1.716-1.386 2.506-.253.423-.505.845-.737 1.267-1.189 2.154-1.918 4.596-2.105 7.06-.067.879-.593 1.658-1.383 2.05-.792.392-1.728.338-2.469-.142-.566-.366-1.108-.767-1.624-1.199-2.106 2.204-3.756 4.453-3.871 6.963-.035.767-.42 1.475-1.044 1.92-.434.305-.943.464-1.459.464zm-10.961-19.659c.379 0 .76.086 1.111.261.845.419 1.381 1.277 1.389 2.219.036 4.55 2.751 8.956 6.631 11.192 1.196-3.37 3.803-6.121 6.446-8.677.494-.479 1.148-.734 1.854-.7.436.021.854.153 1.216.382.461-1.584 1.094-3.116 1.886-4.55.259-.47.539-.94.82-1.413.939-1.575 1.827-3.062 1.725-4.382-.079-1.016.466-1.978 1.378-2.432.483-.241 1.021-.312 1.526-.229.078-.865.221-1.726.426-2.572.402-1.649 1.022-3.177 1.623-4.654.839-2.063 1.632-4.012 1.654-5.927.004-.302-.012-.606-.047-.916-.219.234-.443.463-.675.686-.697 3.925-3.159 7.292-6.678 9.152-2.017 6.296-7.83 10.592-14.541 10.592-6.712 0-12.524-4.297-14.542-10.593-3.519-1.859-5.979-5.227-6.677-9.152-.094-.091-.187-.182-.278-.274-.354 2.603-.294 5.279-.087 7.839.13-.021.261-.036.392-.047.9-.088 1.756.328 2.267 1.061.512.734.592 1.685.211 2.494-.678 1.44-.329 3.438.794 4.55.486.48 1.17.9 1.895 1.347.52.319 1.057.649 1.596 1.042 1.767 1.287 3.199 3.034 4.165 5.013.334-.281.676-.553 1.025-.813.44-.331.966-.499 1.495-.499z"/><path d="m75.806 122.314c-.392 0-.787-.093-1.15-.281-.909-.471-1.438-1.449-1.336-2.468.038-.388.054-.723.046-1.025-.115-4.171-3.607-7.632-7.785-7.711h-17.332c-4.13.079-7.622 3.54-7.737 7.716-.008.298.008.633.046 1.021.103 1.019-.427 1.997-1.336 2.468-.91.472-2.014.342-2.787-.328-4.04-3.495-6.357-8.547-6.357-13.86l.003-.358c.023-1.105-.399-2.211-1.188-3.117-5.127-5.887-7.95-13.737-7.95-22.104 0-15.416 9.524-28.342 22.646-30.735.995-.182 1.9-.595 2.62-1.194 2.361-1.973 4.903-3.692 7.555-5.111 1.072-.574 2.387-.396 3.271.441.503.476.8 1.102.868 1.755 2.532-.838 4.979-1.287 6.84-1.575 1.878-.29 3.791-.508 5.686-.646 1.45-.114 2.823.795 3.288 2.198.466 1.406-.08 2.943-1.328 3.737-.31.197-.61.412-.902.645 12.37 2.923 21.451 15.61 21.451 30.485 0 8.367-2.823 16.217-7.949 22.104-.79.905-1.212 2.012-1.19 3.114l.004.361c0 5.313-2.317 10.365-6.357 13.86-.468.4-1.051.608-1.64.608zm-23.635-70.252c-.945.66-1.866 1.365-2.759 2.11-1.382 1.153-3.086 1.94-4.929 2.275-10.57 1.928-18.542 13.026-18.542 25.816 0 7.16 2.387 13.844 6.722 18.821 1.605 1.845 2.464 4.152 2.416 6.498l-.002.261c0 2.104.501 4.152 1.434 5.993 1.942-4.595 6.491-7.909 11.69-8.009h17.427c5.237.1 9.795 3.415 11.738 8.009.933-1.841 1.434-3.889 1.434-5.993l-.003-.265c-.046-2.345.812-4.652 2.419-6.495 4.333-4.977 6.72-11.66 6.72-18.82 0-13.243-8.293-24.394-19.29-25.937-1.432-.2-2.634-1.163-3.138-2.512-.376-1.01-.31-2.113.154-3.055-.052.008-.104.017-.156.024-4.038.625-6.924 1.482-9.354 2.779-.929.494-2.044.438-2.914-.148-.499-.332-.867-.81-1.067-1.352zm.95-5.27c-.002.003-.003.006-.004.008.001-.002.002-.005.004-.008z"/><path d="m23.511 82.973c-.164 0-.329-.017-.492-.049-5.098-1.024-9.116-2.527-12.646-4.729-7.541-4.706-11.934-15.854-9.593-24.344.746-2.705 1.936-5.397 3.535-8.003.767-1.244 2.156-2.016 3.628-2.016 1.258 0 2.441.553 3.248 1.516.816.976 1.156 2.259.931 3.519-.592 3.302-.122 6.398 1.287 8.496 1.215 1.809 3.217 3.14 5.335 4.456 2.5 1.553 5.466 3.271 8.509 4.248.686.221 1.242.725 1.529 1.384.286.66.275 1.411-.031 2.062-1.612 3.427-2.536 7.158-2.744 11.093-.038.726-.39 1.398-.964 1.844-.441.341-.982.523-1.532.523zm-16.645-31.296c-.52 1.156-.938 2.317-1.266 3.503-1.772 6.428 1.694 15.2 7.418 18.772 2.37 1.479 5.043 2.596 8.271 3.444.351-2.601.981-5.117 1.887-7.525-2.585-1.103-4.982-2.51-7.07-3.806-2.496-1.551-5.08-3.285-6.847-5.914-1.572-2.339-2.386-5.266-2.393-8.474z"/><path d="m90.364 82.974c-.551 0-1.091-.182-1.532-.524-.574-.445-.926-1.118-.964-1.844-.208-3.937-1.132-7.668-2.744-11.092-.307-.651-.317-1.402-.031-2.062.287-.659.844-1.164 1.529-1.384 3.044-.977 6.011-2.696 8.511-4.249 2.118-1.316 4.12-2.647 5.335-4.456 1.409-2.098 1.879-5.193 1.288-8.495-.226-1.259.112-2.542.93-3.519.806-.964 1.99-1.517 3.248-1.517 1.472 0 2.861.771 3.626 2.014 1.604 2.61 2.793 5.303 3.537 8.005 2.341 8.49-2.052 19.639-9.592 24.344-3.531 2.203-7.551 3.706-12.648 4.73-.164.032-.329.049-.493.049zm.335-13.102c.905 2.408 1.536 4.924 1.887 7.525 3.228-.849 5.901-1.966 8.272-3.445 5.724-3.572 9.19-12.345 7.418-18.773-.326-1.184-.746-2.346-1.266-3.502-.007 3.209-.821 6.136-2.393 8.475-1.767 2.629-4.351 4.363-6.847 5.913-2.086 1.297-4.484 2.705-7.071 3.807z"/><path d="m95.782 98.766c-2.865 0-5.979-.699-8.914-2.712-.954-.654-1.334-1.877-.92-2.957 1.318-3.438 1.987-7.081 1.987-10.832 0-.448-.025-.891-.05-1.333l-.018-.327c-.065-1.238.787-2.337 2.003-2.582 2.24-.45 4.225-1.002 6.066-1.686.45-.166.937-.2 1.403-.099 5.423 1.185 12.646 4.527 16.265 13.727v-.001c.485 1.233.312 2.614-.463 3.694-.785 1.092-2.05 1.702-3.397 1.639-1.742-.09-3.173.166-4.019.715-1.644 1.067-5.494 2.754-9.943 2.754zm-4.453-5.924c4.935 2.178 10.36-.171 11.676-1.024 1.626-1.056 3.584-1.432 5.291-1.517-2.283-4.669-6.089-7.697-11.338-9.018-1.275.445-2.607.837-4.023 1.181-.019 3.56-.559 7.041-1.606 10.378zm17.622-1.05c.001.001.001.002.002.004 0-.001 0-.001 0-.001-.001-.001-.001-.002-.002-.003z"/><path d="m18.095 98.766c-4.45 0-8.299-1.687-9.943-2.753-.845-.549-2.261-.807-4.019-.716-1.336.059-2.614-.546-3.398-1.639-.775-1.08-.948-2.461-.463-3.694 3.618-9.198 10.842-12.541 16.265-13.726.467-.101.954-.067 1.403.099 1.844.685 3.827 1.235 6.063 1.685 1.216.244 2.069 1.344 2.004 2.582l-.015.274c-.024.46-.051.92-.051 1.387 0 3.751.669 7.395 1.987 10.832.414 1.08.034 2.303-.92 2.957-2.935 2.012-6.049 2.712-8.913 2.712zm-12.514-8.465c1.706.085 3.665.461 5.292 1.518 1.314.852 6.74 3.202 11.675 1.023-1.047-3.337-1.587-6.817-1.605-10.378-1.415-.344-2.747-.734-4.023-1.181-5.25 1.321-9.056 4.349-11.339 9.018z"/><path d="m105.5 216.03h-22.052c-2.176 0-3.958-1.694-4.058-3.858-.342-7.455 3.546-12.31 10.398-12.987.082-.008.164-.012.246-.012h2.382c.772-.478 1.768-.509 2.583-.029.64.377 6.41 3.622 11.723 1.609.719-.272 1.522-.198 2.179.199s1.096 1.075 1.188 1.838c.09.739.202 1.43.333 2.051.098.455.117.92.058 1.379l-.773 6.118c-.267 2.104-2.074 3.692-4.207 3.692zm-21.129-5h20.46l.607-4.804c-4.979.754-9.551-1.033-11.78-2.134-.245.053-.497.08-.751.08h-2.742c-3.782.417-5.728 2.722-5.794 6.858z"/><path d="m209.11 216.03h-15.752c-1.402 0-2.724-.613-3.625-1.682-.88-1.045-1.254-2.41-1.024-3.746.954-5.559 4.949-8.982 10.966-9.407.803-.487 1.845-.507 2.646-.012 1.645 1.016 5.924 3.21 10.108 1.649.973-.363 2.064-.089 2.748.688.686.776.821 1.895.342 2.812l-1.104 2.113-.598 3.624c-.387 2.296-2.367 3.961-4.707 3.961zm-15.391-5h15.203l.447-2.654c-.004 0-.008 0-.012 0-3.528 0-6.626-1.272-8.554-2.301-.237.054-.477.089-.718.104-3.608.237-5.696 1.825-6.366 4.851zm6.043-9.841c-.001 0-.001.001 0 0-.001.001-.001 0 0 0z"/><path d="m188.11 216.03h-15.752c-1.402 0-2.724-.613-3.625-1.682-.88-1.045-1.254-2.41-1.024-3.746.954-5.559 4.949-8.982 10.966-9.407.802-.487 1.844-.507 2.646-.012 1.645 1.016 5.923 3.21 10.108 1.649.974-.363 2.063-.089 2.748.688.686.776.821 1.895.342 2.812l-1.104 2.113-.598 3.624c-.387 2.296-2.367 3.961-4.707 3.961zm-15.391-5h15.203l.447-2.654c-.004 0-.008 0-.012 0-3.528 0-6.626-1.272-8.554-2.301-.237.054-.477.089-.718.104-3.608.237-5.696 1.825-6.366 4.851zm6.043-9.841c-.001 0-.001.001 0 0-.001.001-.001 0 0 0z"/><path d="m83.448 216.03h-19c-2.176 0-3.958-1.694-4.058-3.858-.342-7.455 3.546-12.31 10.398-12.987.082-.008.164-.012.246-.012h2.381c.773-.479 1.769-.51 2.584-.028.696.408 4.388 2.441 8.539 2.243 1.037-.06 2.019.562 2.425 1.532.405.97.161 2.09-.611 2.803-1.616 1.49-1.961 3.849-1.98 5.484.924.367 1.576 1.269 1.576 2.323 0 1.381-1.119 2.5-2.5 2.5zm-18.077-5h14.005c.027-1.426.239-3.225.923-5-2.382-.473-4.368-1.304-5.645-1.937-.246.053-.495.079-.747.079h-2.742c-3.782.417-5.728 2.722-5.794 6.858z"/></svg>