<svg enable-background="new 0 0 256 256" height="512" viewBox="0 0 256 256" width="512" xmlns="http://www.w3.org/2000/svg"><path d="m187.8 77.859c-.847-10.929-8.817-20.009-19.574-22.123-7.407-1.455-16.738-2.858-26.766-3.372-3.283-5.098-8.996-8.483-15.51-8.483-7.455 0-13.861 4.43-16.771 10.794-.421.095-.848.173-1.267.274-25.295 6.106-44.254 2.074-52.736-.589-1.3-.408-2.378 1.048-1.604 2.169 3.585 5.197 5.692 12.725-20.675 4.586-1.358-.419-2.442 1.169-1.539 2.267 8.126 9.889 35.376 36.311 92.166 32.394 0 0-9.071 12.094-27.213 10.43-1.631-.15-2.445 1.907-1.166 2.931 8.366 6.7 30.216 19.426 70.191 12.864 8.948-1.469 16.315-7.663 19.348-16.209 2.354-6.635 4.055-15.818 3.116-27.933z" fill="#f89422"/><path d="m31.019 55.949s9.64 21.089 61.72 24.549c2.714.18 5.031-1.949 5.111-4.667.078-2.651-2.011-4.864-4.661-4.955-36.185-1.244-51.899-4.035-62.17-14.927z" fill="#f9bd55"/><g fill="#f76e23"><path d="m230.876 118.574c1.539-7.213-2.962-14.31-8.013-19.683-2.816-2.996-5.887-5.745-9.147-8.25 1.62 6.164 1.476 12.827-.544 18.885-3.475 10.426-12.162 18.838-22.51 22.539-4.151 1.484-8.534 2.216-12.936 2.271.992 3.031 2.691 5.751 5.53 7.013 1.506.669 3.181.845 4.827.929 13.024.665 26.241-4.121 35.82-12.971 3.185-2.944 6.069-6.494 6.973-10.733z"/><path d="m231.17 115.508c.009 1.017-.075 2.039-.294 3.065-.904 4.24-3.789 7.789-6.973 10.732-9.247 8.544-21.885 13.285-34.467 13.005.399 4.434 1.416 8.815 4.546 11.828 3.134 3.018 7.709 3.942 12.043 4.315 5.128.441 10.482.257 15.131-1.95 3.783-1.797 6.844-4.814 9.58-7.985 2.137-2.478 4.142-5.114 5.493-8.093 3.741-8.249 1.451-18.707-5.059-24.917z"/><path d="m234.504 156.62c.957-4.049.795-8.373-.499-12.315-.999 1.469-2.109 2.868-3.27 4.214-2.735 3.171-5.797 6.188-9.58 7.985-4.649 2.208-10.003 2.391-15.131 1.95-3.38-.291-6.897-.932-9.772-2.625-.417 1.559-.721 3.14-.798 4.751-.155 3.248.735 6.695 3.091 8.936 1.989 1.892 4.741 2.706 7.381 3.458 4.36 1.242 8.994 2.487 13.359 1.262 2.332-.655 4.425-1.983 6.288-3.531 4.352-3.615 7.63-8.58 8.931-14.085z"/><path d="m225.574 170.704c-1.863 1.548-3.957 2.877-6.288 3.531-4.365 1.225-8.999-.02-13.359-1.262-2.42-.69-4.927-1.441-6.861-3.017-.394 1.34-.787 2.68-1.181 4.02-1.617 5.504-3.103 11.914.215 16.594 1.92 2.708 5.222 4.262 8.536 4.461 3.314.2 6.621-.852 9.481-2.538 7.739-4.563 12.054-14.127 10.764-22.962-.425.402-.857.799-1.307 1.173z"/><path d="m206.637 195.032c-3.314-.199-6.616-1.753-8.536-4.461-.787-1.11-1.296-2.319-1.605-3.587-2.027 2.866-4.167 5.652-6.422 8.342-1.568 1.871-3.212 3.731-4.232 5.949s-1.335 4.906-.198 7.067c1.547 2.941 5.391 4.06 8.648 3.4s6.041-2.711 8.614-4.814c2.922-2.389 5.755-4.948 7.936-8.029 1.117-1.577 2.052-3.309 2.703-5.129-2.195.903-4.548 1.404-6.908 1.262z"/></g><path d="m188.989 211.239c-4.255 8.521-9.973 16.312-16.87 22.882-2.467 2.35-5.143 4.585-8.309 5.845-3.38 1.344-7.057 1.465-10.701 1.02.248 3.04 1.151 6.028 2.68 8.668 1.363 2.356 2.736 3.463 5.83 3.774 5.601.562 11.144-2.204 15.117-6.192 3.972-3.987 6.607-9.093 8.962-14.207 3.09-6.712 5.838-13.843 6.518-21.125-1.116-.027-2.219-.247-3.227-.665z" fill="#f89422"/><path d="m185.643 208.341c-.556-1.056-.76-2.239-.709-3.43-9.337 6.331-19.855 10.918-30.867 13.373-4.008.893-8.185 1.551-11.683 3.704s-6.171 6.309-5.145 10.286c1.161 4.499 6.211 6.672 10.727 7.765 5.218 1.261 10.856 1.911 15.844-.072 3.166-1.26 5.842-3.494 8.309-5.845 6.896-6.57 12.615-14.36 16.87-22.882-1.413-.586-2.63-1.539-3.346-2.899z" fill="#f9bd55"/><path d="m207.488 78.501c-1.427-1.679-3.02-3.183-4.73-4.551-5.559-4.446-12.256-7.154-19.267-8.179 2.419 3.495 3.964 7.631 4.31 12.087.939 12.115-.762 21.298-3.117 27.934-3.032 8.546-10.4 14.741-19.348 16.209-4.172.685-8.134 1.149-11.916 1.442 5.812 6.591 14.057 10.71 22.882 10.896 4.879.103 9.763-.633 14.362-2.277 10.348-3.701 19.034-12.113 22.51-22.538 3.474-10.425 1.433-22.652-5.686-31.023z" fill="#f76e23"/><path d="m119.2 65.065c-1.377 0-2.496-1.114-2.5-2.492-.008-2.471.947-4.796 2.688-6.549 1.742-1.753 4.062-2.723 6.532-2.73h.03c2.459 0 4.773.954 6.519 2.688 1.753 1.742 2.723 4.062 2.73 6.532.004 1.381-1.111 2.504-2.492 2.508-.003 0-.005 0-.008 0-1.377 0-2.496-1.114-2.5-2.492-.008-2.338-1.913-4.235-4.25-4.235-.005 0-.009 0-.014 0-2.343.008-4.243 1.92-4.235 4.264.004 1.381-1.111 2.504-2.492 2.508-.003-.002-.005-.002-.008-.002z"/><path d="m143.956 126.331c-9.366 0-18.141-1.127-26.24-3.379-11.803-3.281-19.64-8.262-24.135-11.862-1.445-1.157-1.952-3.087-1.26-4.802.688-1.705 2.385-2.746 4.218-2.569 6.887.629 13.172-.752 18.678-4.113.54-.329 1.047-.663 1.519-.994-52.436 1.463-78.389-22.783-87.31-33.641-1.108-1.349-1.199-3.228-.228-4.676.977-1.454 2.764-2.088 4.435-1.567 17.265 5.329 19.524 2.967 19.545 2.942.066-.207-.061-1.397-1.663-3.72-.968-1.402-.94-3.192.068-4.562 1.011-1.369 2.716-1.927 4.342-1.413 8.709 2.734 26.967 6.443 51.4.544.05-.012.1-.023.149-.035 3.622-6.785 10.739-11.103 18.476-11.103 6.71 0 12.925 3.174 16.872 8.554 8.359.489 17.062 1.614 25.886 3.348 11.775 2.313 20.651 12.34 21.584 24.383.836 10.783-.259 20.527-3.253 28.964-3.334 9.395-11.495 16.23-21.299 17.84-7.563 1.241-14.837 1.861-21.784 1.861zm-45.046-17.473c21.967 15.763 53.277 12.771 66.02 10.678 8.007-1.314 14.673-6.9 17.396-14.578 2.759-7.773 3.762-16.825 2.981-26.905-.761-9.813-7.982-17.981-17.563-19.863-9.026-1.773-17.913-2.894-26.412-3.328-.804-.042-1.538-.467-1.974-1.144-2.958-4.594-7.971-7.336-13.408-7.336-6.215 0-11.905 3.664-14.498 9.334-.324.71-.963 1.228-1.725 1.399l-.567.121c-.221.045-.441.091-.659.144-23.369 5.64-41.452 2.865-51.431.141 1.438 2.888 1.484 5.272.137 7.11-2.541 3.461-9.048 3.466-21.515-.076 10.729 11.643 37.123 32.219 87.658 28.729.967-.076 1.9.439 2.368 1.3.467.859.391 1.912-.196 2.694-.383.511-9.189 11.917-26.612 11.58z"/><path d="m31.02 58.449c-.664 0-1.327-.263-1.818-.784-1.655-1.755-3.283-3.763-4.977-6.141-9.721-13.639-11.469-28.394-4.677-39.468 5.391-8.791 15.106-13.301 25.355-11.761 9.188 1.378 12.2 7.162 13.178 10.487 1.823 6.2-.385 13.803-5.251 18.076-3.778 3.319-8.558 4.073-13.112 2.063-4.896-2.158-7.581-8.034-5.862-12.83.467-1.299 1.896-1.972 3.197-1.51 1.3.466 1.976 1.897 1.51 3.197-.838 2.336.675 5.467 3.173 6.568 3.511 1.546 6.177.177 7.795-1.246 3.421-3.004 5.034-8.554 3.754-12.909-1.123-3.822-4.278-6.226-9.123-6.952-8.224-1.235-16.026 2.38-20.351 9.431-5.71 9.308-4.032 22 4.486 33.952 1.56 2.189 3.045 4.024 4.541 5.61.947 1.005.901 2.587-.103 3.534-.483.458-1.099.683-1.715.683z"/><path d="m93.066 83.009c-.163 0-.327-.005-.492-.017-52.96-3.518-63.409-25.087-63.828-26.004-.509-1.112-.138-2.43.878-3.113 1.013-.683 2.374-.532 3.215.359 9.12 9.673 22.676 12.845 60.436 14.144 4.019.138 7.192 3.514 7.074 7.525-.059 2.007-.909 3.856-2.396 5.208-1.357 1.234-3.076 1.898-4.887 1.898zm-39.515-13.174c8.956 3.722 21.62 6.99 39.354 8.169.619.035 1.219-.169 1.684-.592.473-.43.743-1.018.762-1.654.037-1.271-.971-2.34-2.248-2.384-16.788-.577-29.561-1.463-39.552-3.539z"/><path d="m190.539 144.839c-.86 0-1.721-.021-2.583-.065-1.846-.095-3.816-.298-5.714-1.141-3.187-1.417-5.505-4.284-6.892-8.521-.247-.756-.12-1.585.343-2.232.463-.646 1.206-1.035 2.002-1.045 4.251-.053 8.331-.768 12.126-2.125 9.796-3.503 17.835-11.541 20.979-20.976 1.834-5.501 2.01-11.702.497-17.458-.271-1.034.145-2.127 1.035-2.719.89-.589 2.059-.551 2.906.101 3.436 2.642 6.613 5.509 9.445 8.521 7.099 7.549 10.085 15.127 8.637 21.916-.878 4.116-3.404 8.057-7.722 12.046-9.502 8.782-22.156 13.698-35.059 13.698zm-9.004-8.211c.763 1.149 1.678 1.964 2.737 2.436 1.152.512 2.574.646 3.938.716 12.284.63 24.976-3.977 33.996-12.311 3.533-3.265 5.568-6.345 6.224-9.417 1.379-6.461-3.258-13.055-7.39-17.448-1.202-1.279-2.472-2.531-3.802-3.749.295 4.58-.274 9.197-1.694 13.46-3.675 11.022-12.661 20.033-24.04 24.103-3.173 1.135-6.513 1.874-9.969 2.21z"/><path d="m210.222 161.146c-1.394 0-2.86-.067-4.41-.2-4.277-.368-9.685-1.271-13.563-5.006-3.975-3.828-4.921-9.175-5.302-13.405-.063-.709.178-1.411.664-1.931.485-.521 1.152-.834 1.882-.792 12.018.226 23.937-4.232 32.715-12.343 3.533-3.265 5.568-6.345 6.224-9.417.17-.795.248-1.619.239-2.52-.01-1.005.583-1.918 1.505-2.318.923-.401 1.994-.208 2.721.485 7.361 7.021 9.72 18.696 5.609 27.759-1.593 3.515-3.978 6.492-5.877 8.693-2.497 2.896-5.937 6.49-10.398 8.61-3.382 1.605-7.267 2.385-12.009 2.385zm-17.951-16.355c.596 3.479 1.695 5.86 3.446 7.547 2.748 2.647 7.067 3.328 10.522 3.625 5.907.507 10.307-.038 13.845-1.718 3.618-1.719 6.581-4.836 8.759-7.359 1.68-1.948 3.779-4.56 5.108-7.492 2.562-5.648 1.941-12.591-1.29-18.023-1.218 3.306-3.545 6.522-7.062 9.771-9.014 8.33-21.025 13.219-33.328 13.649z"/><path d="m215.419 177.239c-3.64 0-7.168-1.005-10.177-1.861-2.646-.754-5.94-1.691-8.421-4.051-2.664-2.535-4.072-6.496-3.863-10.867.078-1.63.366-3.355.88-5.277.202-.754.745-1.371 1.468-1.667s1.542-.237 2.216.159c2.088 1.229 4.858 1.956 8.719 2.288 5.902.507 10.306-.038 13.844-1.718 3.618-1.719 6.581-4.836 8.759-7.359 1.219-1.413 2.231-2.717 3.095-3.987.536-.786 1.473-1.205 2.416-1.069.943.133 1.729.79 2.026 1.695 1.421 4.326 1.619 9.181.558 13.671-1.389 5.874-4.857 11.354-9.766 15.432-2.437 2.024-4.795 3.338-7.21 4.016-1.515.423-3.039.595-4.544.595zm-17.351-17.829c-.058.443-.097.872-.116 1.289-.14 2.918.705 5.472 2.316 7.005 1.587 1.511 4.114 2.23 6.343 2.865 4.64 1.32 8.469 2.253 11.999 1.259 1.726-.484 3.481-1.48 5.366-3.047 4.079-3.389 6.954-7.911 8.096-12.736.449-1.901.618-3.884.51-5.84-2.493 2.886-5.918 6.45-10.353 8.557-4.374 2.077-9.592 2.771-16.418 2.184-2.116-.183-4.958-.539-7.743-1.536zm36.437-2.79h.01z"/><path d="m207.447 197.556c-.321 0-.643-.01-.961-.029-4.262-.255-8.16-2.314-10.426-5.51-4.298-6.063-1.876-14.312-.574-18.744l1.182-4.021c.236-.803.859-1.435 1.658-1.682.799-.249 1.669-.08 2.319.449 1.487 1.212 3.495 1.847 5.966 2.551 4.64 1.32 8.469 2.253 11.999 1.259 1.726-.484 3.481-1.48 5.366-3.047.41-.341.803-.703 1.19-1.069.679-.64 1.657-.846 2.537-.542.88.307 1.517 1.078 1.651 2 1.457 9.987-3.465 20.464-11.969 25.477-3.241 1.911-6.656 2.908-9.938 2.908zm-6.894-23.791-.27.916c-1.471 5.011-2.817 10.673-.145 14.444 1.377 1.94 3.924 3.248 6.647 3.411 3.246.188 6.179-1.086 8.062-2.196 5.484-3.233 9.104-9.328 9.684-15.778-1.523.963-3.035 1.65-4.569 2.081-5.174 1.452-10.467-.055-14.72-1.265-1.435-.409-3.082-.878-4.689-1.613z"/><path d="m192.37 214.436c-3.837 0-7.319-1.852-8.939-4.931-1.398-2.659-1.349-6.04.139-9.274 1.075-2.339 2.66-4.222 4.193-6.043l.395-.469c2.18-2.601 4.299-5.353 6.297-8.179.565-.799 1.547-1.193 2.509-1.013.962.184 1.729.911 1.961 1.863.255 1.046.652 1.94 1.216 2.734 1.376 1.94 3.923 3.248 6.646 3.411h.001c1.852.103 3.799-.252 5.804-1.079.917-.378 1.964-.18 2.678.502.716.682.962 1.721.63 2.65-.704 1.971-1.719 3.899-3.016 5.732-2.454 3.466-5.621 6.252-8.396 8.521-2.646 2.164-5.797 4.538-9.698 5.329-.813.166-1.625.246-2.42.246zm3.616-22.525c-1.3 1.718-2.637 3.396-3.997 5.02l-.401.478c-1.38 1.639-2.684 3.187-3.476 4.91-.821 1.787-.917 3.603-.257 4.858 1.025 1.948 3.822 2.545 5.94 2.114 2.782-.563 5.344-2.516 7.527-4.3 2.501-2.045 5.339-4.532 7.444-7.489-.768.062-1.528.07-2.28.024-4.263-.255-8.161-2.314-10.427-5.51-.024-.035-.048-.07-.073-.105z"/><path d="m163.089 256.001c-.575 0-1.148-.028-1.72-.086-4.271-.431-6.184-2.314-7.744-5.01-1.688-2.916-2.728-6.276-3.008-9.718-.061-.748.219-1.484.761-2.005.541-.521 1.283-.771 2.034-.679 3.767.459 6.864.177 9.475-.861 2.889-1.149 5.417-3.34 7.509-5.332 6.678-6.362 12.182-13.828 16.356-22.188.587-1.175 1.979-1.696 3.193-1.192.702.291 1.507.455 2.329.475.692.017 1.348.319 1.809.838.461.518.686 1.203.621 1.894-.76 8.125-3.999 15.992-6.736 21.938-2.249 4.884-5.02 10.468-9.461 14.926-4.492 4.507-10.026 7-15.418 7zm-7.013-12.291c.407 1.658 1.04 3.246 1.877 4.691.988 1.708 1.693 2.314 3.917 2.539 4.357.442 9.246-1.607 13.094-5.47 3.475-3.486 5.896-7.914 8.463-13.488 1.989-4.322 4.26-9.706 5.504-15.337-4.091 7.159-9.152 13.631-15.087 19.285-2.439 2.322-5.428 4.894-9.109 6.358-2.575 1.024-5.43 1.502-8.659 1.422z"/><path d="m156.644 243.727c-3.456 0-6.712-.642-9.265-1.259-7.142-1.728-11.367-4.947-12.561-9.569-1.406-5.448 2.257-10.579 6.255-13.04 3.369-2.073 7.125-2.874 10.758-3.648.565-.121 1.131-.241 1.692-.367 10.558-2.353 20.934-6.849 30.007-13.001.783-.53 1.796-.574 2.621-.114s1.32 1.347 1.28 2.29c-.036.83.107 1.557.424 2.159.494.938 1.409 1.471 2.089 1.753.641.265 1.143.785 1.386 1.435s.205 1.371-.105 1.992c-4.434 8.88-10.282 16.812-17.381 23.574-2.439 2.322-5.428 4.894-9.109 6.358-2.664 1.058-5.437 1.437-8.091 1.437zm26.552-34.706c-8.867 5.515-18.467 9.446-28.585 11.702-.576.128-1.156.252-1.737.376-3.366.718-6.546 1.396-9.18 3.017-2.563 1.578-4.772 4.672-4.034 7.532.866 3.356 5.314 5.094 8.894 5.96 6.118 1.479 10.674 1.489 14.333.034 2.889-1.149 5.417-3.34 7.509-5.332 6.123-5.833 11.259-12.595 15.288-20.122-.946-.744-1.708-1.648-2.252-2.684-.084-.157-.162-.319-.236-.483z"/><path d="m177.208 136.851c-.319 0-.64-.004-.96-.011-9.293-.195-18.297-4.475-24.704-11.741-.627-.711-.798-1.715-.441-2.593.355-.878 1.178-1.479 2.123-1.553 3.87-.301 7.808-.777 11.704-1.417 8.007-1.314 14.673-6.9 17.396-14.578 2.759-7.773 3.762-16.825 2.981-26.905-.301-3.878-1.641-7.633-3.873-10.858-.566-.818-.594-1.896-.068-2.741.524-.846 1.501-1.3 2.485-1.155 7.677 1.123 14.754 4.132 20.468 8.701 1.91 1.527 3.617 3.17 5.072 4.882 7.549 8.876 9.964 21.999 6.153 33.435-3.675 11.022-12.661 20.032-24.04 24.102-4.518 1.614-9.323 2.432-14.296 2.432zm-18.135-11.445c4.982 4.007 11.062 6.305 17.28 6.436 4.694.095 9.234-.619 13.468-2.133 9.796-3.503 17.835-11.54 20.979-20.975 3.271-9.811 1.222-21.043-5.218-28.613 0-.001 0-.001-.001-.001-1.248-1.47-2.724-2.888-4.386-4.217-3.723-2.978-8.12-5.203-12.917-6.561 1.106 2.646 1.791 5.457 2.013 8.323.836 10.783-.259 20.527-3.253 28.964-3.334 9.395-11.495 16.23-21.299 17.84-2.215.364-4.442.677-6.666.937z"/><path d="m71.298 166.8c-.189 0-.383-.022-.575-.067-1.344-.316-2.177-1.663-1.86-3.007l5.173-21.96c.087-.367.256-.711.494-1.004l16.157-19.874c.304-.374.709-.652 1.168-.801l16.219-5.265c1.31-.427 2.724.292 3.149 1.606.426 1.312-.293 2.723-1.606 3.149l-15.517 5.038-15.329 18.855-5.041 21.401c-.272 1.152-1.298 1.929-2.432 1.929z"/><path d="m104.165 180.661c-1.252 0-2.332-.938-2.48-2.211l-2.48-21.327c-.044-.375-.002-.756.123-1.112l8.023-23.017c.158-.455.445-.854.825-1.15l15.118-11.758c1.09-.847 2.66-.651 3.509.438.848 1.09.651 2.661-.438 3.509l-14.536 11.305-7.591 21.777 2.414 20.757c.159 1.372-.823 2.613-2.194 2.772-.1.012-.197.017-.293.017z"/><path d="m135.402 179.742c-1.059 0-2.041-.678-2.381-1.74l-5.752-18.004c-.114-.359-.146-.741-.093-1.114l3.038-21.241c.068-.478.272-.925.589-1.288l12.334-14.167c.907-1.04 2.485-1.15 3.527-.244 1.041.907 1.15 2.486.244 3.527l-11.85 13.61-2.853 19.942 5.578 17.457c.42 1.315-.306 2.722-1.621 3.143-.251.08-.508.119-.76.119z"/><path d="m160.395 153.079c-1.381 0-2.5-1.119-2.5-2.5v-9.579c0-.597.214-1.174.602-1.627l7.035-8.208c.9-1.05 2.478-1.169 3.525-.271 1.048.898 1.17 2.477.271 3.525l-6.434 7.506v8.654c.001 1.381-1.119 2.5-2.499 2.5z"/><path d="m169.943 157.436c-.235 0-.476-.034-.713-.104-1.323-.394-2.078-1.785-1.685-3.108l2.728-9.183c.17-.572.539-1.064 1.04-1.388l8.672-5.602c1.162-.747 2.708-.415 3.457.744.749 1.16.416 2.707-.744 3.457l-7.896 5.099-2.464 8.296c-.321 1.085-1.317 1.789-2.395 1.789z"/><path d="m177.578 166.07c-.384 0-.774-.089-1.14-.276-1.229-.631-1.713-2.138-1.083-3.366l4.373-8.522c.272-.53.727-.946 1.278-1.173l9.73-3.978c1.281-.52 2.738.092 3.261 1.368.522 1.278-.091 2.738-1.368 3.261l-8.875 3.627-3.95 7.7c-.443.863-1.319 1.359-2.226 1.359z"/><path d="m180.608 176.224c-.705 0-1.405-.297-1.9-.874-.897-1.049-.775-2.627.273-3.525l7.276-6.23c.453-.388 1.029-.601 1.626-.601h.001l9.088.005c1.381.001 2.5 1.121 2.499 2.501-.001 1.381-1.12 2.499-2.5 2.499h-.001l-8.163-.004-6.574 5.629c-.471.402-1.049.6-1.625.6z"/><path d="m196.106 187.208c-.345 0-.695-.072-1.03-.224l-5.858-2.655-8.311 2.416c-1.329.39-2.713-.377-3.099-1.702-.386-1.326.377-2.713 1.702-3.099l9.198-2.675c.573-.167 1.187-.122 1.73.123l6.701 3.037c1.258.57 1.814 2.052 1.245 3.31-.417.923-1.325 1.469-2.278 1.469z"/></svg>