<svg enable-background="new 0 0 256 256" height="512" viewBox="0 0 256 256" width="512" xmlns="http://www.w3.org/2000/svg"><path d="m225.871 169.48c-.632-10.119-10.454-13.98-16.523-15.405.727 1.344 1.192 2.857 1.31 4.481 2.509 5.865 3.685 11.197 3.929 16.005 5.22 2.959 11.908 4.907 11.284-5.081z" fill="#e3e4e5"/><path d="m183.355 243.376s-5.375 1.194-7.868 5.418c-1.226 2.078.259 4.705 2.672 4.705h14.498c2.69 0 4.87-2.18 4.87-4.87v-5.253z" fill="#52565b"/><path d="m87.188 243.376s-5.375 1.194-7.868 5.418c-1.226 2.078.259 4.705 2.672 4.705h14.498c2.69 0 4.87-2.18 4.87-4.87v-5.253z" fill="#52565b"/><path d="m177.281 222.118c-13.16-8.098-9.111-28.344-9.111-28.344-4.28 1.987-8.907 3.487-13.678 4.606-.361 6.464.42 18.071 9.629 23.738 13.16 8.098 6.074 21.258 6.074 21.258h13.16s7.086-13.16-6.074-21.258z" fill="#e3e4e5"/><path d="m175.487 248.794c2.493-4.224 7.868-5.418 7.868-5.418h-13.16s-5.375 1.194-7.868 5.418c-1.226 2.078.259 4.705 2.672 4.705h13.16c-2.413 0-3.898-2.627-2.672-4.705z" fill="#52565b"/><path d="m79.32 248.794c2.493-4.224 7.868-5.418 7.868-5.418h-13.16s-5.375 1.194-7.868 5.418c-1.226 2.078.259 4.705 2.672 4.705h13.16c-2.412 0-3.898-2.627-2.672-4.705z" fill="#52565b"/><path d="m66.943 195.799c0-.047.007-.092.007-.139-5.099-.635-9.454-3.64-11.946-7.873-2.725 9.143 2.159 18.881 5.87 21.408 0 0 13.155 17.985 13.155 34.181h13.16c0-16.196-13.155-34.181-13.155-34.181-4.281-2.915-7.091-7.827-7.091-13.396z" fill="#e3e4e5"/><path d="m210.658 158.556c-.359-4.976-3.938-8.941-8.551-10.026-.947-.223-1.576-1.103-1.549-2.076.046-1.644-.28-3.37-1.179-5.134-1.265-2.483-3.443-4.422-6.03-5.459-1.996-.8-3.848-.938-5.556-.676-.932.143-1.86-.349-2.21-1.225-1.751-4.379-6.172-7.325-11.127-6.968-2.033.147-3.897.833-5.466 1.906-.847.579-1.993.474-2.682-.288-2.22-2.455-5.504-3.9-9.061-3.643-3.134.226-5.87 1.729-7.738 3.962-.833.996-2.345.996-3.178 0-2.216-2.647-5.622-4.23-9.329-3.963-2.912.21-5.48 1.523-7.328 3.5-.793.849-2.167.882-2.957.03-2.031-2.188-4.926-3.559-8.147-3.559-2.469 0-4.75.805-6.595 2.166-.983.725-2.381.432-2.99-.627-1.921-3.339-5.519-5.588-9.648-5.588h-.031c-1.316 0-2.318-1.076-2.12-2.377.083-.545.126-1.103.126-1.672 0-3.705-1.811-6.983-4.595-9.006-.928-.675-1.076-2.006-.383-2.922 1.218-1.609 1.942-3.613 1.942-5.787 0-2.017-.632-3.88-1.695-5.423 4.869-5.623 7.793-12.83 7.793-20.689 0-5.916-1.662-11.46-4.561-16.239-.978-1.612-1.55-3.437-1.55-5.323v-.177c0-2.847-.365-5.599-1.034-8.214 6.286-9.216 12.906-21.059 6.567-37.394-1.865-4.805-8.916-3.925-9.691 1.17-.846 5.561-2.804 10.652-6.726 17.552-.56.985-1.834 1.282-2.783.663-4.202-2.74-9.114-4.319-14.367-4.319s-10.166 1.579-14.367 4.319c-.949.619-2.223.322-2.783-.663-3.922-6.899-5.88-11.99-6.726-17.552-.775-5.096-7.827-5.975-9.692-1.17-6.339 16.335.282 28.179 6.567 37.394-.669 2.615-1.034 5.367-1.034 8.214v.174c0 1.886-.573 3.711-1.551 5.323-2.899 4.779-4.561 10.324-4.561 16.241 0 8.052 3.077 15.415 8.163 21.096-.72 1.345-1.138 2.876-1.138 4.511 0 2.235.765 4.29 2.046 5.921.994 1.266.994 3.089 0 4.355-1.281 1.631-2.046 3.685-2.046 5.921 0 2.07.656 3.986 1.769 5.554.893 1.257.936 2.892.126 4.204-1.52 2.462-2.401 5.357-2.401 8.463 0 3.527 1.135 6.785 3.052 9.442.79 1.095.841 2.536.255 3.752-1.47 3.052-2.295 6.473-2.295 10.088 0 8.457 4.51 15.858 11.255 19.936 1.171.708 1.904 1.956 1.904 3.324v.023c0 8.26 6.188 15.063 14.179 16.058 0 .047-.007.092-.007.139 0 5.569 2.811 10.481 7.09 13.396 0 0 13.155 17.985 13.155 34.181h14.172s0-26.319-5.061-44.54c0 0 43.528 8.098 71.872-5.061 0 0-4.049 20.246 9.111 28.344s6.074 21.258 6.074 21.258h14.172s8.098-22.27-1.012-35.43c-.002 0 28.342-16.196 14.141-49.39z" fill="#e3e4e5"/><path d="m66.382 94.354h-.312c-8.026-.387-17.134-15.609-17.134-25.03 0-9.028 15.606-8.981 17.289-8.949 1.683-.031 17.289-.079 17.289 8.949.002 9.421-9.106 24.643-17.132 25.03z" fill="#ffc097"/><path d="m70.693 69.64c0 2.177-2.29 5.255-4.467 5.255s-4.467-3.078-4.467-5.255 2.29-2.344 4.467-2.344 4.467.167 4.467 2.344z" fill="#52565b"/><path d="m221.554 179.442c-2.277 0-5.02-.903-8.199-2.706-.744-.421-1.221-1.194-1.265-2.048-.245-4.84-1.501-9.937-3.731-15.149-.108-.255-.175-.527-.194-.803-.089-1.223-.43-2.391-1.015-3.471-.469-.866-.386-1.926.212-2.708.598-.781 1.596-1.14 2.558-.916 11.35 2.664 17.9 8.943 18.447 17.683.284 4.552-.811 7.635-3.255 9.163-1.019.637-2.208.955-3.558.955zm-4.568-6.43c3.016 1.522 4.817 1.645 5.475 1.235.56-.35 1.094-1.746.915-4.612-.242-3.868-2.323-8.797-10.277-11.824.005.043.01.087.014.131 2.155 5.13 3.455 10.19 3.873 15.07z"/><path d="m192.656 255.999h-14.497c-2.038 0-3.857-1.056-4.867-2.826-1.014-1.775-.998-3.888.042-5.65 3.009-5.099 9.217-6.529 9.479-6.588.178-.04.359-.06.542-.06h14.172c1.381 0 2.5 1.119 2.5 2.5v5.252c0 4.065-3.306 7.372-7.371 7.372zm-8.98-10.123c-.928.264-4.396 1.412-6.035 4.189-.154.26-.089.486-.007.629.08.139.235.305.525.305h14.497c1.308 0 2.371-1.063 2.371-2.371v-2.752z"/><path d="m96.49 255.999h-14.498c-2.037 0-3.856-1.057-4.867-2.826-1.014-1.776-.998-3.888.043-5.65 3.01-5.099 9.215-6.529 9.478-6.588.179-.04.36-.06.543-.06h14.172c1.381 0 2.5 1.119 2.5 2.5v5.252c-.001 4.065-3.307 7.372-7.371 7.372zm-8.981-10.123c-.928.264-4.396 1.412-6.035 4.189-.153.26-.088.485-.007.629.08.139.235.305.525.305h14.498c1.307 0 2.37-1.063 2.37-2.371v-2.752z"/><path d="m183.355 245.876h-13.16c-.88 0-1.695-.462-2.146-1.218-.451-.755-.472-1.692-.055-2.467.598-1.132 5.572-11.325-5.183-17.944-10.317-6.349-11.204-19.019-10.814-26.006.062-1.107.846-2.042 1.926-2.295 4.873-1.143 9.312-2.636 13.195-4.439.854-.396 1.857-.279 2.599.303.74.582 1.09 1.531.905 2.455-.036.183-3.53 18.647 7.97 25.725 14.996 9.229 7.047 24.42 6.965 24.572-.436.809-1.282 1.314-2.202 1.314zm-9.578-5h7.968c1.249-3.203 3.14-11.144-5.774-16.628-10.594-6.52-11.268-19.601-10.798-26.498-2.584.987-5.34 1.858-8.245 2.606-.067 6.046 1.183 15.128 8.505 19.633 10.459 6.437 9.755 15.775 8.344 20.887z"/><path d="m178.159 255.999h-13.16c-2.037 0-3.855-1.056-4.866-2.825-1.014-1.775-.999-3.888.041-5.65 3.011-5.101 9.217-6.531 9.479-6.589.178-.04.359-.06.542-.06h13.16c1.275 0 2.346.96 2.485 2.227.139 1.268-.698 2.437-1.943 2.713-.033.008-4.365 1.042-6.257 4.249 0 0 0 0-.001 0-.153.26-.088.485-.006.629.08.139.235.305.525.305 1.381 0 2.5 1.119 2.5 2.5s-1.118 2.501-2.499 2.501zm-7.644-10.123c-.913.26-4.392 1.406-6.034 4.189-.153.26-.088.486-.006.629.079.139.234.305.524.305h7.578c-.133-1.185.12-2.396.758-3.476.353-.598.75-1.146 1.177-1.647zm4.972 2.918h.01z"/><path d="m81.992 255.999h-13.159c-2.038 0-3.857-1.056-4.867-2.826-1.014-1.775-.998-3.888.043-5.65 3.008-5.1 9.215-6.53 9.478-6.588.178-.04.359-.06.542-.06h13.16c1.275 0 2.346.959 2.485 2.227s-.698 2.437-1.943 2.713c-.033.008-4.364 1.042-6.257 4.249 0 0 0 0-.001 0-.152.26-.087.485-.006.629.08.139.235.305.525.305 1.381 0 2.5 1.119 2.5 2.5s-1.119 2.501-2.5 2.501zm-7.644-10.123c-.913.26-4.392 1.406-6.033 4.189-.154.26-.089.486-.007.629.08.139.235.305.525.305h7.577c-.133-1.185.12-2.396.757-3.475.354-.599.751-1.147 1.178-1.648zm4.972 2.918h.01z"/><path d="m168.17 196.275c-.298 0-.602-.054-.896-.167-1.288-.496-1.932-1.942-1.436-3.231l2.53-6.58c.495-1.288 1.938-1.934 3.23-1.436 1.288.496 1.932 1.942 1.436 3.231l-2.53 6.58c-.382.994-1.329 1.603-2.334 1.603z"/><path d="m96.297 201.336c-1.132 0-2.156-.773-2.43-1.921l-2.53-10.629c-.32-1.343.51-2.691 1.853-3.011 1.345-.322 2.69.511 3.011 1.853l2.53 10.629c.32 1.343-.51 2.691-1.853 3.011-.194.046-.39.068-.581.068z"/><path d="m87.188 245.876h-13.16c-1.381 0-2.5-1.119-2.5-2.5 0-14.065-10.781-30.009-12.456-32.4-4.646-3.568-9.335-14.271-6.464-23.903.284-.953 1.106-1.647 2.094-1.768.986-.121 1.952.357 2.456 1.214 2.148 3.65 5.924 6.141 10.101 6.66 1.271.158 2.218 1.252 2.19 2.533 0 .034-.004.098-.007.15.021 4.512 2.26 8.72 5.998 11.266.235.161.442.36.61.59.557.761 13.638 18.837 13.638 35.657 0 1.382-1.119 2.501-2.5 2.501zm-10.752-5h8.145c-1.126-13.356-10.717-27.568-12.335-29.88-4.361-3.131-7.146-7.956-7.7-13.241-2.904-.712-5.599-2.124-7.846-4.077.093 6.444 3.526 12.052 5.582 13.451.235.161.442.36.61.59.529.724 12.375 17.093 13.544 33.157z"/><path d="m61.653 83.449c-1.544 0-3.067-.517-4.334-1.524-1.08-.859-1.26-2.432-.399-3.513.858-1.08 2.432-1.26 3.513-.4.878.7 1.772.391 2.114.226.277-.133 1.18-.663 1.18-1.867v-1.405c0-1.381 1.119-2.5 2.5-2.5s2.5 1.119 2.5 2.5v1.405c0 2.737-1.535 5.178-4.007 6.37-.984.474-2.031.708-3.067.708z"/><path d="m70.801 83.449c-1.037 0-2.084-.233-3.067-.708-2.472-1.192-4.007-3.633-4.007-6.37v-1.405c0-1.381 1.119-2.5 2.5-2.5s2.5 1.119 2.5 2.5v1.405c0 1.204.902 1.733 1.18 1.867.342.166 1.235.475 2.116-.226 1.081-.86 2.653-.68 3.513.4.859 1.081.68 2.653-.401 3.513-1.268 1.007-2.791 1.524-4.334 1.524z"/><path d="m74.389 53.204c-1.377 0-2.495-1.114-2.5-2.491-.007-1.903.729-3.695 2.07-5.046 1.342-1.35 3.129-2.097 5.032-2.103h.023c3.918 0 7.111 3.181 7.125 7.102.005 1.381-1.11 2.504-2.491 2.509-.003 0-.006 0-.009 0-1.377 0-2.495-1.114-2.5-2.491-.004-1.17-.957-2.119-2.125-2.119-.003 0-.005 0-.008 0-.567.002-1.101.225-1.501.627s-.619.937-.617 1.504c.005 1.381-1.11 2.504-2.491 2.509-.002-.001-.005-.001-.008-.001z"/><path d="m57.611 53.189c-1.381 0-2.5-1.119-2.5-2.5 0-1.172-.953-2.125-2.125-2.125s-2.126.954-2.126 2.125c0 1.381-1.119 2.5-2.5 2.5s-2.5-1.119-2.5-2.5c0-3.929 3.196-7.125 7.126-7.125 3.929 0 7.125 3.196 7.125 7.125 0 1.381-1.119 2.5-2.5 2.5z"/><path d="m197.527 245.876h-14.172c-.88 0-1.695-.462-2.146-1.218s-.472-1.693-.055-2.467c.011-.021 1.539-2.955 1.604-6.646.082-4.675-2.202-8.476-6.788-11.298-10.591-6.518-11.268-19.595-10.798-26.494-11.556 4.432-26.213 6.441-43.633 5.986-9.52-.25-17.449-1.195-21.884-1.835 4.152 17.912 4.204 40.455 4.204 41.472 0 1.381-1.119 2.5-2.5 2.5h-14.171c-1.381 0-2.5-1.119-2.5-2.5 0-14.055-10.722-29.925-12.442-32.38-4.361-3.13-7.146-7.953-7.701-13.238-8.271-2.004-14.274-9.467-14.274-18.155 0-.5-.261-.943-.697-1.207-7.804-4.717-12.462-12.97-12.462-22.076 0-3.91.855-7.669 2.542-11.172.163-.338.24-.831-.029-1.206-2.307-3.197-3.525-6.967-3.525-10.904 0-3.456.959-6.836 2.774-9.776.283-.459.27-1.012-.036-1.441-1.46-2.057-2.231-4.478-2.231-7.003 0-2.734.892-5.315 2.578-7.464.284-.362.284-.906 0-1.268-1.687-2.149-2.578-4.73-2.578-7.464 0-1.387.245-2.772.717-4.081-5.004-6.137-7.742-13.718-7.742-21.525 0-6.164 1.702-12.228 4.923-17.537.777-1.281 1.188-2.673 1.188-4.027v-.174c0-2.597.285-5.191.848-7.726-7.067-10.572-12.482-22.626-6.212-38.787 1.242-3.198 4.377-5.091 7.794-4.716 3.482.383 6.175 2.961 6.7 6.415.775 5.093 2.564 9.817 6.146 16.193 4.628-2.895 9.892-4.422 15.259-4.422 5.369 0 10.633 1.527 15.26 4.423 3.582-6.379 5.371-11.103 6.146-16.194.525-3.454 3.219-6.032 6.701-6.415 3.415-.377 6.553 1.519 7.793 4.716 6.271 16.161.855 28.215-6.212 38.787.562 2.535.848 5.128.848 7.726v.177c0 1.353.411 2.745 1.188 4.025 3.222 5.311 4.924 11.375 4.924 17.536 0 7.55-2.569 14.92-7.267 20.943.768 1.611 1.168 3.368 1.168 5.169 0 2.522-.763 4.924-2.211 6.971 3.295 2.574 5.248 6.555 5.248 10.744 0 .517-.03 1.039-.09 1.556 4.564.139 8.765 2.556 11.173 6.409 2.268-1.549 4.91-2.366 7.675-2.366 3.595 0 7.067 1.443 9.611 3.977 2.315-2.311 5.365-3.706 8.641-3.942 4.185-.304 8.293 1.364 11.098 4.474 2.367-2.634 5.597-4.217 9.148-4.474 4.081-.292 7.994 1.218 10.814 4.159 1.913-1.234 4.115-1.97 6.394-2.135 5.82-.412 11.174 2.851 13.477 8.167 2.193-.278 4.387.016 6.527.875 3.193 1.279 5.796 3.639 7.327 6.644.972 1.91 1.461 3.929 1.455 6.007 5.494 1.457 9.467 6.104 10.051 11.751 7.55 17.97 3.038 31.18-2.103 39.115-3.806 5.874-8.444 9.729-11.106 11.642 7.609 14.105.305 34.619-.026 35.53-.362.986-1.301 1.644-2.353 1.644zm.001-2.501h.01zm-10.59-2.499h8.771c1.569-5.205 5.656-21.532-1.249-31.507-.398-.576-.537-1.292-.383-1.976.155-.683.59-1.27 1.198-1.617 1.072-.619 26.211-15.555 13.084-46.237-.108-.255-.175-.527-.194-.804-.272-3.781-2.937-6.904-6.63-7.772-2.074-.488-3.536-2.414-3.476-4.58.038-1.37-.259-2.655-.907-3.93-.981-1.925-2.662-3.442-4.732-4.272-1.43-.573-2.819-.744-4.247-.526-2.11.321-4.13-.814-4.91-2.769-1.401-3.501-4.858-5.676-8.627-5.401-1.518.109-2.982.62-4.234 1.476-1.879 1.286-4.437.996-5.947-.674-1.799-1.989-4.367-3.021-7.026-2.826-2.354.17-4.485 1.261-6 3.073-.874 1.044-2.152 1.643-3.507 1.643s-2.634-.599-3.507-1.642c-1.777-2.123-4.469-3.278-7.232-3.073-2.174.157-4.191 1.12-5.681 2.713-.859.919-2.075 1.446-3.337 1.446-.002 0-.005 0-.008 0-1.242-.002-2.435-.521-3.271-1.422-1.651-1.779-3.895-2.759-6.314-2.759-1.855 0-3.623.58-5.112 1.678-1.041.768-2.366 1.056-3.631.79-1.268-.265-2.364-1.061-3.01-2.182-1.538-2.674-4.404-4.335-7.48-4.335-1.413 0-2.71-.587-3.589-1.61-.858-.998-1.234-2.326-1.034-3.644.065-.429.099-.865.099-1.295 0-2.751-1.333-5.362-3.565-6.983-.979-.711-1.617-1.769-1.797-2.978-.181-1.222.143-2.489.89-3.475.939-1.241 1.436-2.72 1.436-4.279 0-1.429-.434-2.814-1.254-4.006-.646-.938-.575-2.193.17-3.054 4.632-5.351 7.183-12.117 7.183-19.053 0-5.247-1.452-10.414-4.198-14.942-1.251-2.062-1.913-4.351-1.913-6.619v-.177c0-2.56-.321-5.115-.956-7.595-.178-.696-.048-1.435.356-2.028 6.142-9.003 12.2-19.882 6.302-35.081-.634-1.636-2.14-1.601-2.584-1.555-.969.107-2.083.74-2.305 2.197-.894 5.872-2.928 11.206-7.023 18.411-.604 1.062-1.632 1.836-2.819 2.125-1.199.291-2.474.07-3.504-.603-3.926-2.561-8.421-3.914-13.002-3.914-4.58 0-9.075 1.353-13.002 3.914-1.032.673-2.31.892-3.504.603-1.188-.288-2.215-1.063-2.818-2.125-4.095-7.201-6.13-12.535-7.024-18.409-.222-1.458-1.335-2.09-2.304-2.197-.444-.048-1.951-.082-2.585 1.555-5.898 15.199.16 26.077 6.302 35.081.404.593.534 1.333.356 2.028-.635 2.48-.956 5.035-.956 7.595v.174c0 2.269-.662 4.558-1.914 6.62-2.746 4.527-4.197 9.695-4.197 14.944 0 7.108 2.673 14.008 7.525 19.428.701.783.838 1.922.341 2.849-.558 1.041-.841 2.162-.841 3.33 0 1.604.522 3.117 1.512 4.376 1.693 2.157 1.693 5.288-.001 7.444-.988 1.259-1.511 2.772-1.511 4.376 0 1.482.452 2.903 1.308 4.107 1.467 2.063 1.551 4.797.215 6.964-1.328 2.15-2.029 4.623-2.029 7.15 0 2.88.893 5.64 2.58 7.979 1.3 1.802 1.483 4.216.479 6.3-1.358 2.821-2.047 5.85-2.047 9.003 0 7.34 3.757 13.993 10.048 17.796 1.948 1.177 3.111 3.22 3.111 5.463 0 6.912 5.154 12.749 11.988 13.6 1.271.158 2.218 1.252 2.19 2.533 0 .034-.004.098-.007.15.021 4.513 2.26 8.72 5.998 11.266.235.161.442.36.61.59.529.724 12.376 17.093 13.545 33.157h9.229c-.148-6.949-.921-26.921-4.936-41.371-.23-.831-.017-1.722.566-2.358.582-.636 1.453-.928 2.3-.769.428.08 43.086 7.792 70.362-4.871.854-.396 1.857-.279 2.599.303.74.582 1.09 1.531.905 2.455-.036.183-3.53 18.647 7.97 25.725 10.457 6.435 9.754 15.773 8.343 20.885z"/><path d="m66.383 96.854h-.312c-.04 0-.08-.001-.121-.003-10.062-.486-19.513-17.527-19.513-27.527 0-2.533.958-4.812 2.772-6.592 4.923-4.833 15.066-4.89 17.064-4.857 1.895-.031 12.048.023 16.971 4.857 1.813 1.779 2.771 4.059 2.771 6.592 0 10-9.451 27.041-19.512 27.527-.04.003-.08.003-.12.003zm-.244-5h.177c6.064-.368 14.7-13.583 14.7-22.53 0-1.21-.404-2.171-1.273-3.024-2.902-2.848-9.851-3.499-13.469-3.426-3.746-.061-10.661.579-13.562 3.426-.869.853-1.273 1.814-1.273 3.024-.002 8.947 8.635 22.163 14.7 22.53z"/><path d="m66.227 77.395c-3.687 0-6.967-4.336-6.967-7.755 0-3.215 2.344-4.845 6.967-4.845s6.967 1.63 6.967 4.845c-.001 3.418-3.281 7.755-6.967 7.755zm-1.933-7.474c.212 1.064 1.396 2.411 1.944 2.474.532-.063 1.727-1.429 1.927-2.473-.312-.066-.884-.127-1.938-.127-1.049 0-1.622.06-1.933.126z"/></svg>