<svg enable-background="new 0 0 256 256" height="512" viewBox="0 0 256 256" width="512" xmlns="http://www.w3.org/2000/svg"><path d="m249.45 35.441c-46.269-1.855-63.636 27.156-93.911 37.051-4.203 1.374-7.794 2.853-10.861 4.38-6.63 3.302-11.333 8.885-13.654 15.331-25.5-12.128-27.915-42.263-49.264-42.263-24.052 0-26.238 25.145-26.238 25.145l7.653 3.28-1.093 6.56c25.145 6.56 30.064 27.878 30.064 27.878 8.057 25.179 30.058 37.167 46.311 47.632 3.751 2.416 6.466 6.171 7.47 10.517 5.255 22.752-13.33 56.643-13.33 56.643s15.698-14.622 22.958-26.238c0 0-3.28 10.933-6.56 20.772-3.187 9.562-7.653 18.585-7.653 18.585 18.027-12.725 26.797-27.506 31.049-39.357l-.13 5.853c-.204 9.165-1.781 18.247-4.68 26.944 12.026-10.933 21.865-29.409 21.865-51.383 0-25.145-17.622-36.079-17.622-36.079-.852-8.3-2.705-15.37-5.091-21.361 13.037-.493 9.389-13.901 9.389-13.901 22.786 6.329 26.365-13.503 26.365-13.503 15.014-3.27 16.367-17.529 16.367-17.529 25.627-5.679 16.834-25.489 16.834-25.489 7.816-4.219 13.158-8.717 16.604-12.261 2.548-2.62.808-7.06-2.842-7.207z" fill="#46baf9"/><path d="m140.325 161.844c4.286-27.245-17.245-48.759-32.326-51.775-7.266-1.453-12.807-.973-16.734.011.642 1.685.882 2.722.882 2.722 8.057 25.179 30.058 37.167 46.311 47.632.66.425 1.275.906 1.867 1.41z" fill="#7ed5fc"/><path d="m131.025 92.203c2.321-6.446 7.024-12.028 13.654-15.331 3.067-1.527 6.658-3.006 10.861-4.38 5.609-1.833 10.774-4.324 15.763-7.152 19.553-14.57 4.56-28.016 4.56-28.016 5.021-6.553 7.839-12.402 9.412-16.719 1.162-3.19-2.004-6.293-5.155-5.027-38.923 15.634-43.419 45.671-63.896 65.625 4.006 4.254 8.761 8.127 14.801 11z" fill="#46baf9"/><path d="m62.082 84.924 1.093-6.56-7.653-3.28s-18.039 6.013-53.023 31.158c.001 0 43.731-19.678 59.583-21.318z" fill="#f9bd55"/><path d="m249.45 35.441c-12.367-.496-22.657 1.227-31.693 4.187 2.448 4.856 5.164 14.297-3.65 23.666 0 0 3.61 13.676-11.618 19.019 0 0 1.17 10.809-13.042 16.275 0 0-.204 7.374-13.323 12.84 22.786 6.329 26.365-13.503 26.365-13.503 15.014-3.27 16.367-17.529 16.367-17.529 25.627-5.679 16.834-25.489 16.834-25.489 7.816-4.219 13.158-8.717 16.604-12.261 2.546-2.618.806-7.058-2.844-7.205z" fill="#b796ea"/><path d="m160.753 52.653s6.961 8.621-.325 18.029c3.772-1.543 7.368-3.355 10.873-5.341 19.554-14.57 4.561-28.016 4.561-28.016 5.021-6.554 7.839-12.402 9.412-16.72 1.162-3.19-2.004-6.293-5.155-5.027-10.676 4.289-18.746 9.667-25.281 15.617 3.925 3.185 9.822 10.157 5.915 21.458z" fill="#b796ea"/><path d="m107.999 165.045c-.015 0-.029 0-.044 0-.734-.014-1.426-.349-1.891-.917-.372-.443-3.851-4.367-8.426-2.08-1.235.619-2.736.117-3.354-1.118-.617-1.235-.117-2.737 1.119-3.354 5.026-2.515 9.584-.751 12.417 1.387l14.154-16.106c.912-1.037 2.491-1.138 3.528-.228 1.037.911 1.139 2.491.228 3.528l-15.852 18.039c-.476.539-1.161.849-1.879.849z"/><path d="m109.639 171.059c-.262 0-.529-.042-.791-.129-1.31-.438-2.018-1.853-1.581-3.163.579-1.735-1.02-3.438-1.036-3.454-.437-.437-.696-1.02-.729-1.637-.418-7.95-3.971-9.151-4.007-9.159-1.354-.271-2.231-1.588-1.96-2.941.271-1.354 1.585-2.229 2.942-1.961.293.059 7.039 1.54 7.961 12.933 1.297 1.682 2.633 4.618 1.572 7.802-.349 1.046-1.324 1.709-2.371 1.709z"/><path d="m91.516 154.192c-.453 0-.912-.123-1.324-.381-1.17-.733-1.525-2.275-.792-3.446.975-1.557-.195-3.601-.207-3.621-.302-.519-.421-1.151-.311-1.741 1.464-7.825-1.706-9.83-1.739-9.846-1.252-.581-1.795-2.068-1.213-3.32.583-1.253 2.07-1.797 3.321-1.213.271.126 6.478 3.153 4.694 14.442.865 1.94 1.473 5.109-.308 7.953-.474.758-1.288 1.173-2.121 1.173z"/><path d="m2.501 108.742c-.869 0-1.708-.454-2.167-1.251-.641-1.112-.335-2.529.707-3.279 34.892-25.077 52.94-31.248 53.691-31.499.58-.191 1.212-.168 1.775.074l7.653 3.279c1.059.454 1.67 1.572 1.481 2.709l-1.093 6.56c-.185 1.11-1.089 1.96-2.208 2.075-15.275 1.58-58.38 20.917-58.814 21.112-.332.149-.681.22-1.025.22zm52.953-30.967c-2.911 1.125-13.175 5.434-30.333 16.21 12.177-4.839 26.221-9.9 34.799-11.291l.467-2.805zm6.629 7.149h.01z"/><path d="m155.554 203.855c-.453 0-.911-.122-1.323-.38-1.171-.731-1.526-2.274-.795-3.445 4.232-6.771 6.039-13.596 5.373-20.284-.138-1.374.865-2.599 2.239-2.735 1.371-.146 2.6.865 2.735 2.239.536 5.373-.089 13.801-6.107 23.431-.475.758-1.289 1.174-2.122 1.174z"/><path d="m172.392 203.856c-.28 0-.565-.048-.845-.147-1.299-.467-1.975-1.898-1.509-3.198 2.259-6.293 3.168-11.694 3.533-15.118.147-1.373 1.371-2.355 2.752-2.221 1.373.147 2.367 1.379 2.221 2.752-.396 3.694-1.374 9.518-3.799 16.276-.366 1.021-1.328 1.656-2.353 1.656z"/><path d="m91.34 147.963c-.211 0-.423-.026-.631-.081-.711-.186-1.304-.674-1.622-1.336-.258-.518-2.711-5.155-7.7-4.004-1.344.305-2.687-.53-2.997-1.876s.53-2.688 1.876-2.997c5.48-1.263 9.493 1.524 11.743 4.27l12.025-8.445c1.13-.792 2.689-.521 3.483.609.793 1.13.521 2.688-.609 3.482l-14.13 9.924c-.426.299-.929.454-1.438.454z"/><path d="m83.44 72.699c-1.381 0-2.5-1.119-2.5-2.5 0-1.4-1.139-2.539-2.54-2.539-1.4 0-2.539 1.139-2.539 2.539 0 1.381-1.119 2.5-2.5 2.5s-2.5-1.119-2.5-2.5c0-4.157 3.382-7.539 7.539-7.539s7.54 3.382 7.54 7.539c0 1.381-1.119 2.5-2.5 2.5z"/><path d="m140.325 164.344c-.584 0-1.16-.205-1.619-.596-.6-.509-1.108-.895-1.603-1.213-1.418-.913-2.88-1.837-4.372-2.781-15.744-9.958-35.337-22.352-42.965-46.19-.021-.064-.039-.131-.055-.197 0-.003-.221-.923-.783-2.396-.254-.667-.21-1.412.12-2.046.331-.633.916-1.095 1.609-1.269 5.306-1.331 11.304-1.344 17.832-.038 16.958 3.392 38.751 26.354 34.306 54.615-.141.894-.753 1.641-1.601 1.955-.282.105-.577.156-.869.156zm-45.77-52.221c7.095 22.054 25.809 33.892 40.85 43.405.978.618 1.943 1.229 2.892 1.833 1.345-23.151-16.913-42.066-30.787-44.842-4.708-.94-9.064-1.121-12.991-.538.014.056.026.103.036.142z"/><path d="m206.005 67.661c-1.171 0-2.217-.827-2.45-2.02-.266-1.355.618-2.669 1.973-2.934 10.882-2.131 20.631-5.495 28.975-10 1.214-.654 2.73-.204 3.388 1.013.655 1.215.202 2.731-1.013 3.388-8.787 4.743-19.012 8.278-30.389 10.506-.163.032-.325.047-.484.047z"/><path d="m197.644 84.813c-1.381 0-2.5-1.119-2.5-2.5s1.119-2.5 2.5-2.5c8.105 0 15.062-.625 20.676-1.857 1.356-.295 2.683.559 2.978 1.905.297 1.349-.557 2.682-1.905 2.978-5.967 1.31-13.285 1.974-21.749 1.974z"/><path d="m195.948 101.086c-3.168 0-6.579-.378-10.207-1.134-1.352-.281-2.219-1.605-1.938-2.957.28-1.352 1.606-2.222 2.957-1.938 5.819 1.213 10.931 1.356 15.195.427 1.356-.296 2.681.562 2.975 1.91.294 1.35-.562 2.682-1.91 2.975-2.194.479-4.556.717-7.072.717z"/><path d="m159.691 134.098c-1.015 0-1.969-.623-2.344-1.63-.48-1.294.179-2.733 1.473-3.215 3.581-1.33 4.763-4.572 4.812-4.71.353-.998 1.305-1.688 2.364-1.688 3.2 0 5.461-.835 6.719-2.481 2.335-3.057 1.012-8.234.997-8.286-.236-.867.011-1.795.648-2.429.637-.636 1.566-.874 2.433-.638 6.646 1.847 12.095 1.479 16.19-1.093 5.753-3.612 7.032-10.377 7.045-10.445.179-.994.94-1.783 1.928-1.998 12.979-2.826 14.359-14.823 14.411-15.333.11-1.071.896-1.962 1.947-2.194 7.644-1.694 12.668-4.83 14.936-9.321 3.05-6.042.184-12.647.154-12.713-.529-1.194-.052-2.594 1.098-3.215 6.315-3.409 11.698-7.381 16-11.805.733-.754.465-1.629.364-1.879-.124-.312-.522-1.045-1.517-1.085-28.974-1.159-46.323 10.126-63.097 21.043-9.685 6.304-18.833 12.257-29.938 15.886-3.874 1.267-7.415 2.694-10.523 4.242-7.353 3.661-12.455 10.701-13.647 18.831-.2 1.364-1.467 2.303-2.837 2.11-1.366-.2-2.311-1.471-2.11-2.837 1.43-9.748 7.549-18.189 16.366-22.581 3.326-1.655 7.094-3.176 11.199-4.518 10.48-3.426 19.361-9.205 28.763-15.324 17.431-11.345 35.449-23.081 66.025-21.849 2.679.107 4.962 1.728 5.96 4.229 1.004 2.517.458 5.282-1.425 7.218-4.224 4.344-9.382 8.269-15.353 11.687.888 3.106 1.888 9.053-1.02 14.812-2.792 5.53-8.388 9.41-16.647 11.549-1.174 5.65-5.657 14.513-16.525 17.555-.841 2.806-3.187 8.583-8.899 12.17-4.517 2.835-10.077 3.676-16.565 2.509.097 2.586-.29 5.991-2.388 8.737-1.996 2.613-5.046 4.085-9.08 4.388-1.01 1.825-3.139 4.691-7.046 6.145-.287.105-.581.156-.871.156z"/><path d="m141.345 243.213c-.581 0-1.16-.202-1.626-.601-.869-.743-1.123-1.982-.616-3.008.044-.089 4.429-8.99 7.521-18.269.792-2.375 1.586-4.822 2.335-7.167-6.924 8.024-14.214 14.841-14.657 15.254-.897.837-2.269.896-3.239.145-.968-.754-1.247-2.099-.657-3.175.182-.331 18.063-33.329 13.086-54.879-.852-3.685-3.12-6.873-6.388-8.979-1.418-.913-2.88-1.837-4.372-2.781-15.744-9.958-35.337-22.352-42.965-46.19-.021-.065-.04-.132-.055-.199-.19-.806-4.968-19.945-28.259-26.021-1.252-.326-2.048-1.554-1.835-2.83l.771-4.624-5.849-2.506c-.992-.425-1.599-1.439-1.506-2.515.024-.274 2.687-27.429 28.729-27.429 12.59 0 19.228 9.346 26.254 19.24 5.519 7.771 11.723 16.507 21.74 22.06 2.868-6.109 7.69-11.058 13.809-14.104 3.326-1.656 7.094-3.177 11.199-4.519 10.48-3.426 19.361-9.205 28.763-15.324 17.431-11.344 35.435-23.078 66.025-21.849 2.679.107 4.962 1.728 5.96 4.229 1.004 2.517.458 5.282-1.425 7.218-4.224 4.344-9.382 8.269-15.353 11.687.888 3.106 1.888 9.053-1.021 14.813-2.791 5.529-8.387 9.41-16.646 11.548-1.174 5.65-5.657 14.513-16.525 17.555-.841 2.806-3.187 8.583-8.899 12.17-4.517 2.836-10.08 3.676-16.568 2.509.093 2.534-.28 5.856-2.275 8.571-1.55 2.109-3.77 3.502-6.623 4.161 1.938 5.564 3.283 11.56 4.012 17.877 3.984 2.895 17.76 14.562 17.76 37.49 0 20.421-8.479 40.32-22.684 53.232-.841.766-2.093.865-3.046.245-.953-.621-1.367-1.807-1.008-2.886 2.095-6.28 3.478-12.755 4.134-19.323-6.164 10.975-15.058 20.599-26.558 28.716-.436.307-.94.458-1.443.458zm14.212-44.358c.347 0 .697.071 1.03.223 1.141.516 1.723 1.797 1.363 2.996-.033.109-3.329 11.081-6.582 20.843-1.134 3.399-2.415 6.711-3.606 9.588 10.443-9.118 17.918-19.846 22.276-31.994.413-1.152 1.595-1.839 2.81-1.613 1.205.224 2.07 1.288 2.043 2.514l-.13 5.854c-.133 5.977-.832 11.907-2.086 17.728 9.055-11.563 14.271-26.721 14.271-42.222 0-23.36-15.773-33.537-16.445-33.958-.651-.41-1.084-1.1-1.163-1.865-.764-7.44-2.421-14.402-4.926-20.691-.301-.754-.216-1.607.227-2.288s1.189-1.104 2.001-1.135c2.904-.11 4.966-.969 6.129-2.552 2.252-3.064.957-8.145.943-8.195-.236-.867.012-1.795.649-2.429.638-.635 1.567-.872 2.432-.637 6.648 1.847 12.095 1.479 16.19-1.093 5.753-3.612 7.032-10.377 7.045-10.445.179-.994.94-1.783 1.928-1.998 12.979-2.826 14.359-14.823 14.411-15.333.11-1.071.896-1.962 1.947-2.194 7.62-1.688 12.639-4.812 14.915-9.281 3.053-5.993.2-12.694.172-12.762-.519-1.19-.043-2.589 1.101-3.206 6.315-3.409 11.698-7.381 16-11.805.733-.754.465-1.629.364-1.879-.124-.312-.522-1.045-1.517-1.085-28.974-1.159-46.323 10.125-63.097 21.043-9.685 6.303-18.833 12.257-29.938 15.886-3.874 1.267-7.415 2.694-10.523 4.242-5.812 2.895-10.221 7.845-12.415 13.938-.239.664-.748 1.196-1.4 1.465-.652.27-1.389.25-2.025-.054-12.592-5.988-19.722-16.027-26.013-24.886-6.798-9.574-12.168-17.136-22.177-17.136-18.205 0-22.546 15.704-23.5 21.099l5.9 2.528c1.059.454 1.67 1.572 1.481 2.709l-.726 4.354c23.759 7.277 29.177 27.119 29.64 28.998 7.095 22.054 25.808 33.888 40.847 43.401 1.505.951 2.979 1.883 4.407 2.804 4.369 2.813 7.406 7.096 8.552 12.057 3.354 14.518-2.372 32.945-7.392 45.188 4.414-4.759 9.298-10.479 12.465-15.547.47-.752 1.283-1.175 2.122-1.175z"/><path d="m184.501 115.181c-2.805 0-5.824-.447-9.046-1.342-1.027-.285-1.761-1.19-1.826-2.255-.066-1.063.55-2.052 1.533-2.462 11.198-4.666 11.783-10.602 11.788-10.661.027-1.009.656-1.843 1.599-2.205 12.275-4.722 11.464-13.584 11.454-13.673-.125-1.155.562-2.244 1.657-2.629 12.572-4.411 10.324-14.857 10.026-16.034-.21-.827.014-1.717.599-2.339 7.395-7.86 5.844-15.664 3.239-20.827-.328-.65-.355-1.412-.076-2.085s.838-1.19 1.53-1.417c10.277-3.366 20.929-4.774 32.572-4.309 2.679.107 4.962 1.728 5.96 4.229 1.004 2.517.458 5.282-1.425 7.218-4.224 4.344-9.382 8.269-15.353 11.687.888 3.106 1.888 9.053-1.021 14.813-2.791 5.529-8.387 9.41-16.646 11.548-1.174 5.65-5.657 14.513-16.525 17.555-.841 2.806-3.187 8.583-8.899 12.17-3.202 2.01-6.929 3.018-11.14 3.018zm-.715-5.016c3.564.124 6.644-.635 9.197-2.237 5.753-3.612 7.032-10.377 7.045-10.445.179-.994.94-1.783 1.928-1.998 13.079-2.849 14.398-15.198 14.41-15.323.103-1.079.89-1.97 1.948-2.204 7.644-1.694 12.668-4.83 14.936-9.321 3.05-6.041.184-12.647.154-12.713-.529-1.194-.052-2.594 1.098-3.215 6.315-3.409 11.698-7.381 16-11.805.733-.754.465-1.629.364-1.879-.124-.312-.522-1.045-1.517-1.085-10.037-.399-19.291.661-28.184 3.251 2.092 5.6 3.113 14.203-4.354 22.836.908 5.62-.635 15.268-11.847 20.01-.293 3.688-2.27 11.594-13.337 16.362-.616 2.181-2.444 6.071-7.841 9.766z"/><path d="m154.598 59.819c-.784 0-1.557-.368-2.043-1.057-.798-1.128-.529-2.688.598-3.484 8.401-5.94 15.374-12.492 20.725-19.475.84-1.096 2.41-1.304 3.505-.464 1.096.84 1.304 2.409.464 3.505-5.656 7.383-12.993 14.285-21.807 20.516-.439.311-.943.459-1.442.459z"/><path d="m131.024 94.702c-.367 0-.734-.081-1.073-.242-5.7-2.71-10.785-6.486-15.548-11.544-.936-.993-.902-2.553.075-3.504 6.75-6.578 11.704-14.273 16.948-22.421 10.479-16.278 21.315-33.111 47.761-43.734 2.377-.953 5.003-.435 6.851 1.353 1.86 1.801 2.468 4.426 1.584 6.851-1.921 5.272-4.78 10.541-8.512 15.688 1.958 2.354 4.998 7.008 4.728 12.963-.28 6.185-3.996 11.983-11.042 17.234-.084.062-.171.119-.262.17-5.84 3.31-10.993 5.646-16.219 7.354-3.874 1.267-7.415 2.694-10.523 4.242-5.812 2.895-10.221 7.845-12.415 13.938-.239.664-.748 1.196-1.4 1.465-.306.125-.629.187-.953.187zm-11.29-13.492c3.153 3.077 6.46 5.563 10.02 7.53 2.868-6.109 7.69-11.059 13.81-14.105 3.326-1.656 7.094-3.177 11.199-4.519 4.859-1.589 9.684-3.774 15.169-6.874 5.706-4.283 8.704-8.777 8.911-13.358.281-6.201-4.602-10.655-4.65-10.699-.973-.872-1.109-2.346-.315-3.382 4.045-5.279 7.09-10.681 9.048-16.054.29-.797-.158-1.347-.364-1.547-.2-.193-.749-.607-1.51-.306-24.967 10.029-35.364 26.181-45.42 41.801-4.948 7.687-9.646 14.983-15.898 21.513z"/><path d="m160.429 73.182c-.764 0-1.507-.351-1.991-.987-.685-.9-.679-2.148.014-3.043 6.006-7.756.414-14.857.356-14.929-.541-.67-.699-1.572-.417-2.388 3.243-9.383-.998-15.348-5.128-18.699-.565-.459-.903-1.143-.924-1.87-.021-.729.277-1.43.816-1.92 7.448-6.782 15.964-12.045 26.032-16.089 2.377-.953 5.003-.435 6.851 1.353 1.86 1.801 2.468 4.426 1.584 6.851-1.921 5.271-4.78 10.541-8.512 15.688 1.958 2.354 4.998 7.007 4.728 12.962-.28 6.186-3.996 11.984-11.043 17.235-.084.062-.171.119-.262.17-3.905 2.214-7.556 4.006-11.159 5.479-.308.126-.628.187-.945.187zm3.088-20.958c1.857 2.897 3.593 7.827 2.233 13.265 1.364-.691 2.754-1.438 4.181-2.245 5.706-4.284 8.704-8.777 8.912-13.359.281-6.2-4.602-10.654-4.65-10.698-.973-.872-1.109-2.346-.315-3.382 4.046-5.28 7.09-10.682 9.048-16.055.29-.797-.158-1.347-.364-1.547-.2-.193-.749-.607-1.51-.306-8.586 3.449-15.963 7.825-22.47 13.337 3.89 3.996 7.931 10.896 4.935 20.99z"/></svg>