<svg enable-background="new 0 0 256 256" height="512" viewBox="0 0 256 256" width="512" xmlns="http://www.w3.org/2000/svg"><path d="m221.725 134.206c-6.355-18.006-27.538-25.42-27.538-25.42-18.006-25.419-51.899-23.301-75.2-16.946s-32.833-13.769-32.833-13.769 8.473-14.828 0-19.065c-8.474-4.236-13.769 10.592-13.769 10.592-2.597.173-5.084.442-7.477.788-1.909-4.363-6.258-7.414-11.325-7.414-6.827 0-12.362 5.534-12.362 12.361 0 .713.074 1.407.189 2.086-17.245 8.395-25.318 21.073-28.152 26.561-.726 1.407-2.299 2.076-3.857 1.791-4.965-.908-8.208 3.242-6.392 7.782 1.026 2.565 2.798 4.136 4.352 5.074 1.566.946 3.579.674 4.819-.67 22.194-24.051 34.712-15.077 52.26-18.173 0 0-.53 10.062 2.648 21.713 3.177 11.651 20.124 24.36 20.124 24.36 5.143 18.002.573 31.147-1.356 35.505-.412.931-1.311 1.543-2.325 1.632-4.621.408-7.482 2.626-9.267 5.222.096-.005.187-.02.285-.022.233-.005.464.062.655.195 1.01.7 4.025 4.248 2.122 8.679-.176.41-.571.688-1.017.688h14.081c12.71 0 16.946-43.425 16.946-43.425 19.065 4.236 35.002-6.339 35.002-6.339 2.899 12.347 15.017 21.405 17.956 24.345 4.237 4.237 4.237 12.71-5.296 14.828-1.708.379-3.06.935-4.155 1.581.128.032.252.081.361.156 1.01.7 4.025 3.248 2.122 7.679-.151.351-.465.593-.831.659 7.133.399 18.724.184 23.686-4.779 7.414-7.414-9.532-22.242 6.355-38.129 15.887-15.888 9.532-29.656 9.532-29.656s11.651 10.591 8.473 24.36c-3.177 13.769 2.118 24.36 2.118 24.36l4.237-2.118c4.237 12.71 13.769 16.946 13.769 16.946v-4.236c18.006 10.591 32.834 4.236 32.834 4.236-24.36-4.238-25.419-36.012-31.774-54.018z" fill="#828487"/><g fill="#a8aeb2"><path d="m87.213 145.857-.619-10.531c-14.853-7.51-20.741-19.194-20.741-19.194v.001c.334 1.728.735 3.522 1.237 5.364 3.176 11.65 20.123 24.36 20.123 24.36z"/><path d="m142.525 136.749c-13.21 4.131-24.41 5.264-33.817 4.554l-1.371 13.027c19.064 4.237 35.001-6.339 35.001-6.339-.822-3.504-.896-7.273.187-11.242z"/><path d="m151.205 188.901c-.192-.133-.422-.201-.655-.195-7.006.168-10.781 5.428-12.052 7.619-.244.42.066.943.552.943h13.261c.446 0 .841-.277 1.017-.688 1.902-4.431-1.113-6.979-2.123-7.679z"/><path d="m75.205 188.389c-.192-.133-.422-.201-.655-.195-7.006.168-10.781 6.428-12.052 8.619-.244.42.066.943.552.943h13.26c.446 0 .841-.277 1.017-.688 1.903-4.431-1.112-7.979-2.122-8.679z"/><path d="m138.497 196.324c.459-.792 1.251-1.984 2.399-3.192-.287-2.33-1.981-3.739-2.691-4.231-.192-.133-.422-.201-.655-.195-7.006.168-10.781 5.428-12.052 7.619-.244.42.066.943.552.943h13c-.487-.001-.797-.524-.553-.944z"/><path d="m62.497 196.812c.459-.79 1.248-2.111 2.392-3.483-.311-2.584-1.982-4.453-2.685-4.94-.192-.133-.422-.201-.655-.195-7.006.168-10.781 6.428-12.052 8.619-.244.42.066.943.552.943h13c-.486-.001-.796-.523-.552-.944z"/></g><path d="m140.896 193.131c2.028-2.135 5.179-4.319 9.654-4.426.1-.002.199.015.295.04 1.095-.646 2.447-1.201 4.155-1.581 9.532-2.118 9.532-10.591 5.296-14.828-2.94-2.939-15.057-11.998-17.956-24.345 0 0-4.362 2.89-11.246 5.043 4.415 9.744 13.679 16.779 16.202 19.301 4.237 4.237 4.237 12.71-5.296 14.828-1.708.379-3.06.935-4.155 1.581.128.032.252.081.361.156.709.493 2.403 1.901 2.69 4.231z" fill="#828487"/><path d="m87.213 145.857s-7.65-5.737-13.634-13.036l2.921 14.679c5.143 18.002-1.714 29.504-3.643 33.862-.412.931-1.311 1.543-2.325 1.632-4.621.408-7.482 2.626-9.267 5.222.096-.005.187-.02.285-.022.233-.005.464.062.655.195.703.487 2.373 2.356 2.685 4.94 1.984-2.379 5.05-4.903 9.375-5.113 1.784-2.595 4.646-4.814 9.267-5.222 1.014-.089 1.913-.702 2.325-1.632 1.929-4.358 6.499-17.503 1.356-35.505z" fill="#828487"/><path d="m72.438 69.455 5.053 3.609c1.078.77 2.587.358 3.143-.844 3.601-7.773 2.558-11.714.755-13.707-5.243 1.574-8.513 9.781-8.951 10.942z" fill="#f98080"/><path d="m142.336 150.492c-1.134 0-2.161-.777-2.432-1.93-1.588-6.764-.438-13.452 3.418-19.879.71-1.185 2.246-1.57 3.43-.857 1.184.71 1.568 2.246.857 3.43-3.208 5.347-4.136 10.634-2.838 16.164.316 1.344-.518 2.689-1.862 3.005-.191.045-.384.067-.573.067z"/><path d="m64.55 102.264c-1.187 0-2.24-.849-2.458-2.058-.244-1.359.66-2.659 2.019-2.903 5.363-.963 8.856-2.871 10.383-5.672 1.749-3.208.364-6.738.35-6.772-.531-1.274.072-2.738 1.346-3.27 1.273-.532 2.738.071 3.269 1.346.097.232 2.336 5.749-.575 11.09-2.288 4.196-6.961 6.956-13.889 8.2-.15.026-.299.039-.445.039z"/><path d="m87.21 148.356c-1.313 0-2.415-1.024-2.493-2.354l-.874-14.849c-.081-1.378.97-2.562 2.349-2.643 1.397-.064 2.562.972 2.643 2.35l.874 14.849c.081 1.378-.97 2.562-2.349 2.643-.05.003-.1.004-.15.004z"/><path d="m107.058 159.32c-.101 0-.204-.006-.307-.019-1.371-.168-2.346-1.415-2.178-2.785.186-1.519.274-2.413.275-2.43l1.749-16.614c.145-1.373 1.377-2.37 2.748-2.225 1.373.145 2.369 1.375 2.225 2.748l-1.747 16.596s-.092.94-.287 2.532c-.155 1.269-1.233 2.197-2.478 2.197z"/><path d="m87.213 148.356c-.531 0-1.059-.169-1.5-.5-.72-.54-17.672-13.366-21.036-25.702-.479-1.757-.897-3.571-1.279-5.547-.236-1.224.464-2.433 1.642-2.838 1.18-.404 2.475.119 3.041 1.229.056.11 5.777 11.087 19.642 18.097.794.402 1.315 1.196 1.368 2.085l.62 10.53c.057.972-.455 1.888-1.312 2.349-.374.199-.781.297-1.186.297zm-12.059-17.542c2.989 3.716 6.518 7.08 9.227 9.461l-.2-3.389c-3.499-1.883-6.494-3.975-9.027-6.072z"/><path d="m116.622 157.84c-3.133 0-6.429-.314-9.828-1.069-1.24-.275-2.077-1.438-1.944-2.702l1.371-13.027c.142-1.344 1.326-2.331 2.675-2.231 9.971.756 21.035-.742 32.882-4.446.874-.275 1.824-.048 2.481.586.658.634.917 1.576.677 2.458-.897 3.288-.953 6.657-.166 10.013.238 1.018-.181 2.076-1.052 2.654-.568.376-11.911 7.764-27.096 7.764zm-6.559-5.53c13.7 2.225 25.515-3.378 29.479-5.571-.347-2.152-.416-4.305-.206-6.443-10.056 2.783-19.583 4.014-28.392 3.642z"/><path d="m49.061 77.989c-1.377 0-2.496-1.114-2.5-2.492-.006-1.875.719-3.641 2.041-4.972 1.322-1.33 3.083-2.066 4.959-2.072h.025c1.866 0 3.622.724 4.946 2.04 1.331 1.322 2.067 3.083 2.073 4.959.004 1.381-1.111 2.504-2.492 2.508-.002 0-.005 0-.008 0-1.377 0-2.496-1.114-2.5-2.492-.001-.54-.213-1.047-.597-1.428-.381-.379-.887-.587-1.424-.587-.002 0-.005 0-.007 0-.541.002-1.048.214-1.429.597s-.589.892-.588 1.432c.004 1.381-1.111 2.504-2.492 2.508-.002-.001-.005-.001-.007-.001z"/><path d="m78.705 75.956c-.947 0-1.879-.294-2.668-.858l-5.052-3.608c-.923-.659-1.286-1.856-.886-2.917.66-1.748 4.271-10.562 10.572-12.453.925-.276 1.926.003 2.572.718 3.192 3.528 3.078 9.058-.34 16.435-.582 1.255-1.681 2.178-3.018 2.531-.39.101-.787.152-1.18.152zm-3.183-7.369 3.033 2.166c1.708-3.804 2.323-6.871 1.815-8.917-2.028 1.545-3.766 4.448-4.848 6.751z"/><path d="m152.31 199.768h-13.261c-1.119 0-2.161-.603-2.719-1.571-.556-.966-.554-2.164.004-3.127 1.508-2.599 5.907-8.666 14.155-8.863.799-.031 1.511.206 2.139.639 0 0 .001.001.002.001 2.83 1.963 5.103 5.81 2.994 10.721-.573 1.335-1.874 2.2-3.314 2.2zm-9.526-5h8.527c.418-1.688-.31-2.821-1.175-3.542-3.324.216-5.739 1.874-7.352 3.542z"/><path d="m76.31 200.256h-13.261c-1.119 0-2.161-.603-2.719-1.571-.556-.966-.554-2.164.004-3.127 3.719-6.409 8.481-9.728 14.155-9.863.794-.005 1.512.205 2.139.639 0 0 .001.001.002.001 1.938 1.344 5.382 6.161 2.994 11.721-.573 1.336-1.874 2.2-3.314 2.2zm-9.759-5h8.757c.542-2.216-.676-3.892-1.254-4.534-2.803.231-5.28 1.724-7.503 4.534z"/><path d="m90.39 200.256h-14.08c-1.381 0-2.5-1.119-2.5-2.5 0-.999.586-1.861 1.434-2.262.701-2.353-.613-4.136-1.205-4.788-.814-.074-1.55-.544-1.957-1.271-.464-.83-.417-1.852.123-2.635 2.545-3.702 6.386-5.879 11.107-6.296.122-.011.223-.071.259-.154 1.96-4.428 5.971-16.419 1.458-33.02-3.322-2.6-17.327-14.085-20.352-25.176-2.229-8.177-2.696-15.538-2.762-19.482-3.791.427-7.341.397-10.796.368-11.591-.104-21.602-.183-37.099 16.612-2.032 2.201-5.375 2.67-7.95 1.114-2.471-1.49-4.332-3.664-5.38-6.285-1.207-3.017-.811-6.184 1.059-8.47 1.863-2.277 4.894-3.287 8.104-2.699.395.072.943-.011 1.186-.479 2.698-5.225 10.705-18.069 27.699-26.868-.01-.213-.015-.423-.015-.632 0-8.194 6.667-14.861 14.862-14.861 5.255 0 10.067 2.772 12.731 7.201 1.436-.182 2.883-.332 4.331-.452 1.262-2.909 4.362-8.876 9.235-10.834 2.403-.965 4.959-.832 7.393.383 2.305 1.152 3.915 3.058 4.657 5.51 1.699 5.611-1.448 12.837-2.938 15.785 2.257 3.847 11.154 16.327 29.339 11.363 16.315-4.449 56.338-11.604 77.444 17.283 4.021 1.566 22.253 9.505 28.309 26.663 1.464 4.148 2.63 8.904 3.864 13.938 4.071 16.611 8.686 35.439 25.981 38.447 1.09.189 1.926 1.073 2.055 2.173.129 1.099-.481 2.152-1.498 2.588-.609.26-14.177 5.886-31.319-2.366v.068c0 .847-.428 1.635-1.138 2.097s-1.605.532-2.377.188c-.401-.178-9.238-4.222-14.113-15.756l-1.759.88c-1.236.618-2.737.116-3.354-1.118-.233-.465-5.66-11.562-2.318-26.041 1.309-5.669-.269-10.812-2.332-14.692-.436 5.921-3.022 13.87-11.471 22.318-8.452 8.453-6.553 16.457-4.877 23.519 1.238 5.219 2.519 10.615-1.478 14.611-5.432 5.433-16.917 5.989-25.593 5.507-1.267-.071-2.279-1.079-2.356-2.345-.058-.959.435-1.836 1.22-2.302.64-1.987-.271-3.255-1.266-4.007-.841-.32-1.454-1.074-1.584-1.979-.145-1.004.331-1.996 1.204-2.511 1.414-.834 3.057-1.462 4.883-1.867 3.18-.707 5.199-2.24 5.838-4.435.596-2.047-.115-4.532-1.768-6.186-.398-.397-1.056-.984-1.817-1.664-4.156-3.709-12.371-11.042-15.861-20.709-5.28 2.767-17.235 7.773-31.315 5.56-1.325 11.395-6.162 42.966-19.147 42.966zm-10.013-5h10.013c7.124 0 12.839-24.565 14.458-41.169.07-.712.441-1.36 1.021-1.78s1.311-.573 2.01-.417c17.817 3.959 32.926-5.882 33.077-5.981.682-.452 1.542-.543 2.303-.241s1.326.956 1.513 1.753c2.277 9.695 11.051 17.525 15.267 21.289.852.76 1.525 1.36 2.023 1.859 2.951 2.95 4.141 7.314 3.034 11.118-.674 2.314-2.811 6.42-9.555 7.918-.084.019-.167.038-.25.058.867 1.441 1.345 3.201 1.088 5.206 8.778.094 15.246-1.389 18.034-4.176 1.928-1.929 1.345-4.877.148-9.922-1.781-7.504-4.219-17.782 6.207-28.208 14.346-14.347 9.247-26.353 9.023-26.856-.48-1.081-.142-2.358.816-3.051.959-.69 2.267-.626 3.142.169.52.473 12.694 11.749 9.228 26.772-2.097 9.085-.255 16.691.994 20.347l1.807-.903c.649-.324 1.405-.351 2.075-.073.67.277 1.186.831 1.415 1.52 2.263 6.789 6.103 10.913 8.918 13.174.101-.768.554-1.453 1.237-1.844.778-.445 1.735-.439 2.509.015 6.966 4.098 14.216 6.027 21.559 5.758.205-.008.406-.018.605-.028-13.246-7.396-17.486-24.692-21.007-39.058-1.204-4.911-2.341-9.55-3.722-13.465-5.869-16.629-25.808-23.822-26.009-23.894-.488-.172-.913-.491-1.212-.913-6.382-9.01-26.223-28.604-72.502-15.979-13.052 3.557-22.09-.734-27.374-4.961-5.681-4.545-8.269-9.923-8.376-10.149-.35-.738-.317-1.602.089-2.311 1.294-2.274 4.386-9.068 3.159-13.107-.349-1.149-1.019-1.938-2.107-2.481-1.163-.582-2.208-.653-3.287-.218-3.471 1.39-6.237 7.269-7.01 9.417-.336.935-1.195 1.584-2.187 1.65-2.436.163-4.888.422-7.287.769-1.111.152-2.197-.441-2.648-1.473-1.572-3.594-5.118-5.916-9.034-5.916-5.438 0-9.862 4.424-9.862 9.861 0 .513.05 1.058.154 1.666.187 1.095-.372 2.182-1.37 2.668-16.733 8.146-24.474 20.519-27.025 25.46-1.213 2.348-3.837 3.592-6.526 3.104-1.419-.259-2.631.085-3.335.947-.711.869-.816 2.125-.287 3.446.65 1.625 1.767 2.925 3.322 3.862.552.334 1.263.238 1.691-.226 17-18.423 29.109-18.32 40.816-18.222 4.119.036 8.373.071 12.846-.719.752-.132 1.519.086 2.09.589.57.505.88 1.242.841 2.003-.005.097-.461 9.835 2.563 20.925 2.918 10.7 19.049 22.896 19.212 23.019.437.327.754.788.904 1.313 5.309 18.581.738 32.208-1.474 37.204-.774 1.749-2.458 2.941-4.394 3.11-2.301.203-4.184.934-5.697 2.217 1.365 1.665 2.686 4.386 2.326 7.555zm69.856-4.088c0 .001.001.001.002.001-.001 0-.001 0-.002-.001z"/><path d="m140.896 195.632c-.261 0-.525-.041-.782-.126-.918-.303-1.58-1.107-1.698-2.067-.147-1.192-1.019-2.012-1.467-2.36-.838-.321-1.448-1.073-1.579-1.977-.145-1.004.331-1.996 1.204-2.511 1.414-.834 3.057-1.462 4.883-1.867 3.18-.707 5.199-2.24 5.838-4.435.596-2.047-.115-4.532-1.768-6.186-.397-.396-1.05-.98-1.807-1.657-3.863-3.453-11.053-9.88-14.905-18.38-.295-.652-.297-1.4-.004-2.054s.852-1.15 1.535-1.364c6.42-2.009 10.573-4.717 10.615-4.743.682-.451 1.542-.539 2.301-.235.759.302 1.324.955 1.51 1.75 2.277 9.695 11.051 17.525 15.267 21.289.852.76 1.525 1.36 2.023 1.859 2.951 2.95 4.141 7.314 3.034 11.118-.674 2.314-2.811 6.42-9.555 7.918-1.314.292-2.466.727-3.427 1.293-.508.299-1.104.408-1.683.312-2.933.112-5.533 1.338-7.722 3.644-.48.505-1.139.779-1.813.779zm-6.269-41.164c3.611 6.373 9.237 11.401 12.425 14.251.846.756 1.514 1.354 2.01 1.85 2.95 2.95 4.141 7.314 3.033 11.118-.362 1.242-1.146 3.001-2.837 4.596.331-.033.664-.057 1-.069 1.25-.647 2.658-1.147 4.198-1.489 3.18-.707 5.199-2.24 5.838-4.435.596-2.047-.115-4.532-1.768-6.186-.398-.397-1.056-.984-1.817-1.664-4.157-3.71-12.377-11.046-15.865-20.718-1.539.8-3.65 1.794-6.217 2.746z"/><path d="m139.049 199.768h-13c-1.119 0-2.161-.603-2.719-1.571-.556-.966-.554-2.164.004-3.127 1.508-2.599 5.907-8.666 14.155-8.863.798-.031 1.511.206 2.139.639.992.688 3.337 2.645 3.749 5.98.092.742-.153 1.486-.668 2.028-.525.554-.96 1.101-1.303 1.578.093.261.143.543.143.836 0 1.38-1.119 2.5-2.5 2.5zm-9.265-5h6.73c.38-.627.915-1.422 1.615-2.276-.277-.566-.688-.995-1.001-1.266-3.32.219-5.732 1.875-7.344 3.542z"/><path d="m63.049 200.256h-13c-1.119 0-2.161-.603-2.719-1.571-.556-.966-.554-2.164.004-3.127 3.719-6.409 8.481-9.728 14.155-9.863.793-.005 1.512.205 2.139.639 1.289.895 3.348 3.414 3.744 6.697.083.684-.121 1.371-.562 1.899-.56.673-1.029 1.336-1.421 1.942.104.275.161.572.161.884-.001 1.381-1.12 2.5-2.501 2.5zm-9.498-5h6.96c.435-.735.985-1.613 1.689-2.555-.298-.911-.807-1.606-1.141-1.979-2.804.229-5.283 1.722-7.508 4.534z"/><path d="m64.89 195.829c-.236 0-.475-.033-.709-.103-.957-.283-1.654-1.107-1.773-2.099-.167-1.379-.924-2.437-1.361-2.922-.818-.071-1.558-.542-1.965-1.271-.464-.83-.417-1.852.123-2.635 2.545-3.702 6.386-5.879 11.106-6.296.122-.011.223-.071.26-.154.186-.419.416-.902.675-1.449 2.356-4.96 7.26-15.279 2.851-30.714-.019-.065-.035-.132-.048-.198l-2.921-14.68c-.224-1.125.347-2.259 1.384-2.748 1.038-.49 2.275-.212 3.001.675 5.726 6.984 13.126 12.565 13.201 12.621.437.327.754.788.904 1.313 5.309 18.581.738 32.208-1.474 37.204-.774 1.749-2.458 2.941-4.394 3.11-3.275.29-5.705 1.646-7.425 4.147-.442.644-1.159 1.043-1.939 1.081-2.808.137-5.356 1.555-7.576 4.217-.483.581-1.191.901-1.92.901zm.163-8.129c.286.348.57.741.838 1.177 2.142-1.669 4.519-2.701 7.036-3.046 2.525-3.113 6.09-4.948 10.383-5.327.122-.011.223-.071.26-.154 1.96-4.428 5.972-16.418 1.457-33.021-1.261-.989-4.092-3.284-7.278-6.358l1.182 5.942c4.877 17.193-.76 29.061-3.17 34.133-.238.501-.448.943-.619 1.328-.774 1.749-2.458 2.941-4.394 3.11-2.299.204-4.182.933-5.695 2.216z"/></svg>