<svg enable-background="new 0 0 256 256" height="512" viewBox="0 0 256 256" width="512" xmlns="http://www.w3.org/2000/svg"><path d="m83.125 239.758c-.099-.34-.185-.687-.257-1.041v-.001c-.004-.018-.008-.036-.011-.055-.065-.328-.119-.662-.16-1.002 0-.001 0-.001 0-.002-.006-.049-.013-.099-.019-.148v-.001c-.035-.316-.057-.637-.07-.963-.004-.077-.01-.153-.012-.231v-.002c-.009-.379-.005-.764.016-1.157 0-.003 0-.006 0-.008-.006-.011-19.186-35.453-24.889-73.164-16.546 7.679-20.923 22.997-20.923 22.997-2.987-.516-5.918-.353-8.648.601-12.051 4.214-15.646 22.121-8.03 39.997s23.56 28.951 35.611 24.736c1.01-.353 1.959-.806 2.847-1.346 1.333-.811 2.709-1.549 4.182-2.066l20.363-7.145z" fill="#e3e4e5"/><path d="m227.847 185.583c-2.73-.955-5.661-1.118-8.648-.601 0 0-4.377-15.32-20.926-22.998-5.702 37.712-24.879 73.154-24.886 73.166v.008c.022.393.025.777.016 1.157v.002c-.002.081-.009.159-.013.239v.001c-.012.312-.033.62-.065.922-.007.061-.016.121-.023.181-.04.329-.091.653-.153.972v.001c-.006.028-.012.056-.017.084v.001c-.072.353-.158.7-.257 1.04l-.001.002 20.363 7.145c1.472.517 2.849 1.255 4.182 2.066.888.54 1.837.993 2.847 1.346 12.051 4.214 27.995-6.861 35.611-24.736 7.617-17.876 4.021-35.784-8.03-39.998z" fill="#e3e4e5"/><path d="m239.852 205.983c-1.043-5.094-3.499-8.965-7.299-10.642-8.9-3.93-21.731 5.601-28.659 21.288-1.237 2.802-2.202 5.611-2.902 8.357 0 0-4.053 15.701 3.128 26.149 11.409 1.023 24.929-9.528 31.757-25.554 2.888-6.779 4.161-13.56 3.975-19.598z" fill="#a8aeb2"/><path d="m16.145 205.983c1.043-5.094 3.499-8.965 7.299-10.642 8.9-3.93 21.731 5.601 28.659 21.288 1.237 2.802 2.202 5.611 2.902 8.357 0 0 4.053 15.701-3.128 26.149-11.409 1.023-24.929-9.528-31.757-25.554-2.889-6.779-4.161-13.56-3.975-19.598z" fill="#a8aeb2"/><path d="m181.55 35.766c3.891-8.448 10.937-26.601 2.363-31.746-9.5-5.7-22.194 6.18-25.986 10.096-8.138-3.806-18.025-6.06-29.927-6.06s-21.789 2.254-29.927 6.061c-3.791-3.916-16.486-15.796-25.986-10.096-8.574 5.144-1.528 23.298 2.363 31.746-12.473 21.359-10.545 49.305-2.151 61.895 7.272 10.908 21.215 20.675 33.332 21.738 1.399.123 2.716.629 3.895 1.393 8.738 5.666 28.005 5.798 36.948 0 1.178-.764 2.496-1.271 3.895-1.393 12.117-1.063 26.06-10.83 33.332-21.738 8.394-12.591 10.322-40.537-2.151-61.896z" fill="#e3e4e5"/><path d="m151.863 101.993c-2.531-15.407-13.676-35.103-23.644-35.671h-.439c-9.968.568-21.113 20.263-23.644 35.671v17.21c.499.072 1 .152 1.494.195 1.399.123 2.716.629 3.895 1.393 8.738 5.666 28.005 5.798 36.948 0 1.179-.764 2.496-1.271 3.895-1.393.434-.038.875-.111 1.313-.171z" fill="#a8aeb2"/><path d="m187.061 7.776c-4.433.285-13.223 2.16-18.949 11.997l13.438 15.993c3.214-6.977 8.571-20.568 5.511-27.99z" fill="#f98080"/><path d="m68.939 7.776c-3.06 7.421 2.297 21.012 5.511 27.99l13.44-15.989c-5.725-9.84-14.517-11.716-18.951-12.001z" fill="#f98080"/><path d="m137.039 87.629c0 3.836-4.634 9.261-9.039 9.261s-9.039-5.425-9.039-9.261 4.634-4.132 9.039-4.132 9.039.296 9.039 4.132z" fill="#52565b"/><path d="m196.544 117.699c-3.229-10.681-8.203-15.82-12.795-19.175-.16-.117-.283-.231-.415-.347-7.363 10.697-21.042 20.176-32.966 21.221-1.399.123-2.716.629-3.895 1.393-8.943 5.798-28.21 5.666-36.948 0-1.179-.764-2.496-1.271-3.895-1.393-11.924-1.046-25.602-10.524-32.965-21.221-.132.115-.256.229-.415.346-4.592 3.355-9.565 8.493-12.795 19.175-14.486 47.917 23.157 117.45 23.157 117.45-1.285 23.129 41.854 23.129 41.854 7.067 0-2.987-1.194-5.539-2.887-7.658 2.105.375 4.244.591 6.421.591s4.316-.216 6.421-.591c-1.693 2.119-2.887 4.672-2.887 7.658 0 16.062 43.139 16.062 41.854-7.067 0 .002 37.643-69.532 23.156-117.449z" fill="#e3e4e5"/><path d="m128 237.649c-2.207 0-4.515-.212-6.859-.63-.598-.106-1.136-.426-1.515-.9-1.288-1.611-3.071-3.134-5.301-4.524-4.021-2.506-6.611-6.9-6.926-11.755-.452-6.983-1.992-14.126-3.942-23.168-1.931-8.951-4.333-20.09-6.312-34.438-.188-1.368.768-2.63 2.135-2.818 1.378-.183 2.63.768 2.818 2.135 1.953 14.161 4.333 25.198 6.246 34.067 1.994 9.244 3.568 16.546 4.045 23.899.21 3.249 1.923 6.178 4.581 7.834 2.377 1.483 4.366 3.126 5.928 4.893 3.52.545 6.684.545 10.203 0 1.562-1.767 3.551-3.409 5.927-4.892 2.659-1.657 4.372-4.586 4.582-7.835.477-7.354 2.051-14.655 4.045-23.899 1.913-8.869 4.293-19.906 6.246-34.067.188-1.367 1.438-2.318 2.818-2.135 1.367.188 2.323 1.45 2.135 2.818-1.979 14.348-4.381 25.486-6.312 34.438-1.95 9.042-3.49 16.185-3.942 23.168-.314 4.854-2.904 9.249-6.927 11.756-2.229 1.39-4.012 2.912-5.3 4.523-.379.475-.917.794-1.515.9-2.343.419-4.651.63-6.858.63z"/><path d="m50.46 253.688c-12.082 0-25.725-10.905-32.637-27.129-4.926-11.562-5.549-23.714-1.667-32.506 2.366-5.357 6.229-9.103 11.171-10.831 2.444-.855 5.056-1.179 7.792-.969 1.857-4.657 7.646-16.083 21.552-22.536.716-.331 1.542-.307 2.236.065.693.373 1.171 1.05 1.288 1.828 5.582 36.913 24.424 71.995 24.614 72.345.198.366.303.777.303 1.193 0 .048-.001.104-.004.151-.019.324-.021.643-.014.956l.011.195c.011.265.029.529.058.789l.016.125c.034.27.076.541.13.807.067.33.136.608.216.882.374 1.276-.316 2.622-1.571 3.062l-20.362 7.146c-1.114.391-2.258.959-3.71 1.843-1.051.639-2.169 1.167-3.322 1.57-1.958.687-4.006 1.014-6.1 1.014zm-16.935-66.495c-1.598 0-3.12.25-4.548.749-3.603 1.261-6.455 4.072-8.247 8.131-3.334 7.55-2.701 18.215 1.692 28.527 7.099 16.661 21.674 27.131 32.486 23.356.824-.288 1.622-.665 2.372-1.122 1.094-.666 2.767-1.628 4.654-2.29l18.301-6.421c-.008-.055-.015-.109-.021-.164l-.02-.158c-.043-.396-.071-.774-.086-1.157l-.013-.265c-.005-.216-.007-.431-.005-.647-2.597-4.947-18.458-36.227-24.284-69.941-12.914 7.433-16.565 19.745-16.604 19.877-.351 1.228-1.569 1.994-2.828 1.777-.972-.168-1.923-.252-2.849-.252z"/><path d="m205.54 253.688c-2.095 0-4.142-.327-6.1-1.013-1.152-.402-2.271-.931-3.321-1.569-1.452-.884-2.596-1.452-3.709-1.843l-20.363-7.145c-1.253-.44-1.943-1.783-1.572-3.059.081-.276.149-.558.208-.844.064-.323.106-.585.138-.852.001-.012.012-.09.014-.103.033-.298.049-.552.06-.808.001-.019.007-.129.008-.146.011-.365.009-.683-.01-1.008-.003-.047-.004-.095-.004-.143 0-.442.117-.886.341-1.269.152-.283 18.992-35.366 24.573-72.28.117-.778.595-1.455 1.288-1.828.693-.372 1.521-.396 2.236-.065 13.907 6.453 19.697 17.881 21.555 22.538 2.736-.208 5.348.114 7.792.97v-.001c4.942 1.729 8.805 5.474 11.171 10.831 3.882 8.792 3.259 20.944-1.667 32.506-6.912 16.224-20.556 27.131-32.638 27.131zm-29.775-15.566 18.301 6.423c1.887.662 3.56 1.624 4.653 2.29.75.457 1.548.834 2.371 1.121 10.816 3.788 25.389-6.696 32.487-23.355 4.394-10.312 5.026-20.978 1.692-28.527-1.792-4.059-4.645-6.87-8.247-8.13 0-.001 0-.001 0-.001-2.256-.788-4.745-.956-7.398-.497-1.258.216-2.478-.549-2.828-1.777-.037-.127-3.765-12.471-16.607-19.877-5.824 33.719-21.684 64.994-24.28 69.941.002.215 0 .429-.005.64l-.012.251c-.017.402-.042.764-.079 1.12l-.024.191c-.009.063-.017.126-.024.187z"/><path d="m207.21 192.036c-.806 0-1.597-.389-2.079-1.108-.769-1.147-.461-2.7.686-3.469 6.892-4.615 13.005-4.962 13.262-4.975 1.369-.064 2.551.996 2.618 2.376.067 1.375-.991 2.545-2.364 2.617-.097.007-5.087.354-10.732 4.136-.429.286-.913.423-1.391.423z"/><path d="m200.994 227.486c-.205 0-.412-.025-.62-.078-1.338-.342-2.146-1.702-1.805-3.041.749-2.935 1.771-5.879 3.038-8.748 7.601-17.21 21.635-27.122 31.956-22.566 4.39 1.938 7.493 6.353 8.738 12.428.277 1.353-.595 2.674-1.947 2.951-1.347.27-2.674-.594-2.951-1.947-.645-3.145-2.185-7.234-5.859-8.857-7.493-3.31-19.11 5.854-25.362 20.012-1.156 2.617-2.087 5.297-2.767 7.965-.289 1.128-1.306 1.881-2.421 1.881z"/><path d="m48.79 192.036c-.479 0-.962-.137-1.39-.423-5.673-3.8-10.684-4.133-10.733-4.136-1.373-.08-2.43-1.256-2.356-2.63.073-1.373 1.263-2.432 2.611-2.363.257.013 6.37.359 13.262 4.975 1.146.769 1.454 2.321.686 3.469-.483.719-1.274 1.108-2.08 1.108z"/><path d="m55.006 227.487c-1.116 0-2.133-.753-2.421-1.884-.678-2.664-1.608-5.344-2.767-7.965-6.253-14.158-17.865-23.319-25.362-20.012-3.675 1.623-5.215 5.713-5.859 8.857-.277 1.354-1.606 2.217-2.951 1.947-1.353-.277-2.225-1.599-1.947-2.951 1.245-6.075 4.349-10.489 8.738-12.428 10.317-4.56 24.356 5.356 31.956 22.566 1.27 2.874 2.291 5.818 3.038 8.75.341 1.338-.468 2.699-1.806 3.04-.207.055-.415.08-.619.08z"/><path d="m128 127.577c-7.507 0-15.015-1.562-19.835-4.688-.898-.582-1.824-.919-2.751-1-12.288-1.077-27.09-10.684-35.195-22.842-4.585-6.877-7.198-17.466-7.169-29.052.03-12.266 3.076-24.409 8.597-34.357-10.515-23.462-5.08-31.221-.846-33.762 3.497-2.098 13.085-5.273 27.828 9.25 8.565-3.698 18.437-5.571 29.371-5.571 10.937 0 20.809 1.874 29.375 5.573 5.798-5.665 17.824-15.253 27.824-9.252 4.234 2.541 9.669 10.3-.846 33.762 5.521 9.948 8.566 22.092 8.597 34.357.029 11.586-2.584 22.175-7.169 29.052-8.105 12.158-22.907 21.765-35.193 22.842-.929.081-1.854.418-2.753 1-4.819 3.126-12.327 4.688-19.835 4.688zm-50.313-122.562c-1.511 0-2.969.343-4.313 1.149-5.663 3.398-1.983 16.979 3.348 28.557.342.741.3 1.603-.111 2.307-11.655 19.959-10.563 46.748-2.23 59.247 7.216 10.823 20.745 19.694 31.471 20.635 1.749.152 3.444.753 5.036 1.785 7.998 5.186 26.232 5.186 34.229 0 1.592-1.032 3.287-1.633 5.038-1.785 10.724-.94 24.253-9.812 31.469-20.635 8.333-12.499 9.425-39.288-2.23-59.247-.411-.704-.453-1.565-.111-2.307 5.331-11.577 9.011-25.158 3.348-28.557-8.144-4.881-20.508 7.218-22.904 9.692-.742.766-1.887.976-2.855.525-8.264-3.866-17.977-5.826-28.867-5.826s-20.604 1.96-28.867 5.826c-.969.451-2.114.239-2.855-.525-2.007-2.066-10.959-10.841-18.596-10.841z"/><path d="m128 99.391c-5.943 0-11.539-6.626-11.539-11.762 0-6.632 7.794-6.632 11.539-6.632s11.539 0 11.539 6.632c0 5.136-5.596 11.762-11.539 11.762zm0-13.394c-5.762 0-6.539.825-6.539 1.632 0 2.569 3.653 6.762 6.539 6.762s6.539-4.192 6.539-6.762c0-.807-.777-1.632-6.539-1.632z"/><path d="m93.53 69.437c-1.377 0-2.495-1.113-2.5-2.491-.008-2.229.854-4.326 2.424-5.906 1.57-1.581 3.662-2.455 5.89-2.462h.028c2.217 0 4.304.86 5.877 2.424 1.581 1.57 2.455 3.662 2.462 5.89.004 1.381-1.111 2.504-2.492 2.508-.003 0-.006 0-.008 0-1.377 0-2.496-1.114-2.5-2.492-.003-.893-.353-1.729-.985-2.358-.631-.626-1.466-.971-2.354-.971-.004 0-.008 0-.011 0-.894.003-1.73.353-2.359.985-.629.634-.974 1.474-.971 2.365.005 1.381-1.111 2.504-2.491 2.509-.004-.001-.007-.001-.01-.001z"/><path d="m150.789 69.437c-1.377 0-2.495-1.113-2.5-2.491-.008-2.229.854-4.326 2.424-5.906 1.57-1.581 3.662-2.455 5.89-2.462h.028c2.217 0 4.304.86 5.877 2.424 1.581 1.57 2.455 3.662 2.462 5.89.004 1.381-1.111 2.504-2.492 2.508-.003 0-.006 0-.008 0-1.377 0-2.496-1.114-2.5-2.492-.003-.893-.353-1.729-.985-2.358-.631-.626-1.466-.971-2.354-.971-.004 0-.008 0-.011 0-.894.003-1.73.353-2.359.985-.629.634-.974 1.474-.971 2.365.005 1.381-1.111 2.504-2.491 2.509-.004-.001-.007-.001-.01-.001z"/><path d="m119.643 112.576c-2.364 0-4.697-.791-6.637-2.333-1.08-.86-1.26-2.433-.4-3.514.86-1.079 2.431-1.259 3.514-.4 1.751 1.395 4.015 1.641 6.055.658 2.083-1.005 3.326-2.978 3.326-5.276v-3.789c0-1.381 1.119-2.5 2.5-2.5s2.5 1.119 2.5 2.5v3.789c0 4.201-2.358 7.948-6.154 9.78-1.509.728-3.114 1.085-4.704 1.085z"/><path d="m136.357 112.576c-1.591 0-3.194-.357-4.703-1.085-3.796-1.832-6.154-5.579-6.154-9.78v-3.789c0-1.381 1.119-2.5 2.5-2.5s2.5 1.119 2.5 2.5v3.789c0 2.299 1.243 4.271 3.326 5.276 2.039.982 4.301.736 6.055-.658 1.082-.859 2.654-.679 3.514.4.859 1.081.68 2.653-.4 3.514-1.94 1.542-4.273 2.333-6.638 2.333z"/><path d="m151.86 104.493c-1.202 0-2.263-.869-2.464-2.095-2.601-15.834-13.506-33.043-21.255-33.576h-.283c-7.749.533-18.654 17.742-21.255 33.576-.224 1.363-1.505 2.286-2.872 2.062-1.362-.224-2.285-1.51-2.062-2.872 2.452-14.933 13.787-37.067 25.968-37.762.048-.003.095-.004.143-.004h.439c.048 0 .095.001.143.004 12.181.694 23.516 22.829 25.968 37.762.224 1.362-.699 2.648-2.062 2.872-.137.022-.273.033-.408.033z"/><path d="m181.548 38.268c-.35 0-.705-.074-1.044-.23-1.254-.577-1.803-2.062-1.225-3.316 4.821-10.468 6.933-19.111 5.978-24.23-4.32.687-10.62 3.042-14.983 10.541-.696 1.193-2.225 1.594-3.419.903-1.193-.695-1.598-2.226-.903-3.419 6.253-10.744 15.81-12.903 20.949-13.234 1.06-.055 2.063.552 2.472 1.542 3.225 7.823-1.239 20.626-5.552 29.989-.423.914-1.327 1.454-2.273 1.454z"/><path d="m74.452 38.268c-.946 0-1.851-.54-2.272-1.455-4.312-9.363-8.776-22.166-5.552-29.989.408-.99 1.414-1.596 2.472-1.542 5.141.331 14.698 2.49 20.951 13.239.694 1.193.289 2.724-.904 3.418-1.192.693-2.723.29-3.418-.904-4.364-7.502-10.664-9.857-14.985-10.544-.955 5.119 1.156 13.763 5.978 24.23.578 1.254.029 2.739-1.225 3.316-.34.156-.695.231-1.045.231z"/><path d="m149.966 255.991c-5.098 0-10.08-1.048-13.944-3.185-4.507-2.491-6.988-6.252-6.988-10.59 0-1.58.271-3.122.809-4.615-1.242.064-2.441.064-3.684 0 .538 1.493.809 3.035.809 4.615 0 4.338-2.481 8.099-6.988 10.59-8.511 4.706-22.452 4.127-31.076-1.286-5.835-3.663-8.945-9.252-8.813-15.795-1.735-3.313-10.073-19.673-16.865-40.56-10.247-31.513-12.32-57.82-6.161-78.19 3.594-11.888 9.216-17.184 13.713-20.47.062-.045.105-.087.15-.127l.109-.096c.538-.463 1.242-.675 1.952-.584.704.092 1.336.478 1.738 1.062 7.393 10.74 20.482 19.214 31.124 20.147 1.749.152 3.444.753 5.036 1.785 7.998 5.186 26.232 5.186 34.229 0 1.592-1.032 3.287-1.633 5.038-1.785 10.64-.934 23.729-9.407 31.123-20.149.404-.587 1.041-.974 1.748-1.062.713-.087 1.42.128 1.957.599l.089.078c.047.041.092.085.148.127 4.504 3.291 10.126 8.587 13.72 20.475 6.159 20.37 4.086 46.678-6.161 78.19-6.792 20.887-15.13 37.246-16.865 40.56.132 6.543-2.979 12.132-8.813 15.795-4.711 2.957-11.005 4.47-17.134 4.471zm-15.544-23.932c.87 0 1.692.456 2.147 1.223.532.895.454 2.024-.195 2.838-1.554 1.944-2.341 3.995-2.341 6.098 0 2.507 1.482 4.598 4.407 6.215 6.967 3.854 18.874 3.327 25.998-1.146 4.565-2.866 6.736-6.902 6.453-11.998-.025-.462.077-.922.298-1.328.371-.687 36.977-69.182 22.963-115.537-2.754-9.108-6.779-13.764-10.326-16.681-8.38 10.834-21.972 19.159-33.238 20.147-.929.081-1.854.418-2.753 1-9.637 6.25-30.027 6.251-39.67 0-.898-.582-1.824-.919-2.751-1-11.27-.988-24.861-9.313-33.24-20.147-3.543 2.914-7.571 7.568-10.326 16.681-14.014 46.354 22.591 114.849 22.963 115.536.221.406.323.866.298 1.328-.283 5.096 1.888 9.132 6.453 11.998 7.126 4.473 19.03 4.997 25.998 1.146 2.925-1.617 4.407-3.708 4.407-6.215 0-2.103-.787-4.153-2.341-6.098-.649-.813-.728-1.943-.195-2.838.531-.895 1.564-1.367 2.587-1.184 4.17.742 7.795.742 11.965 0 .146-.026.293-.038.439-.038z"/></svg>