<svg enable-background="new 0 0 256 256" height="512" viewBox="0 0 256 256" width="512" xmlns="http://www.w3.org/2000/svg"><path d="m221.409 194.565c6.744-11.269 62.436-111.143-54.636-154.274-68.097-25.089-124.429 24.318-144.24 45.616-2.729 2.934-5.269 6.032-7.632 9.268l-8.188 11.212c-1.528 2.092-2.564 4.543-2.748 7.127-.221 3.101.634 6.104 2.57 8.125 2.491 2.423 6.425 3.182 9.529 1.613 30.841-15.595 52.733-12.82 52.733-12.82-.949 2.136-2.91 4.424-5.409 6.701-7.845 7.152-17.825 11.534-28.352 12.903-17.301 2.25-.754 9.343-.754 9.343 21.083 7.59 46.638-3.345 57.794-9.096 3.715-1.915 7.867-2.817 12.038-2.56 41.888 2.589 78.421-19.955 98.286 2.748 20.391 23.303 2.675 45.76-2.19 51.123-.668.737-1.711.979-2.645.638-35.849-13.062-57.513 17.267-57.513 17.267 8.907-2.227 11.134 2.227 26.721 8.907s24.494 0 24.494 0c-5.567 18.927 11.134 26.721 17.814 33.401s5.01 11.69 5.01 11.69c20.928-19.932 9.743-50.568 7.166-56.776-.294-.705-.242-1.499.152-2.156z" fill="#a8aeb2"/><path d="m98.445 128.096c46.057-51.066-9.051-76.116-9.051-76.116l-13.011-6.198c-24.991 11.878-43.966 29.5-53.85 40.125-2.729 2.934-5.269 6.032-7.632 9.268l-8.188 11.212c-1.528 2.092-2.564 4.543-2.748 7.127-.221 3.101.634 6.104 2.57 8.125 2.491 2.423 6.425 3.182 9.529 1.613 30.841-15.595 52.733-12.82 52.733-12.82-.949 2.136-2.91 4.424-5.408 6.701-7.845 7.152-17.825 11.534-28.352 12.903-17.301 2.25-.754 9.343-.754 9.343 21.083 7.59 46.638-3.345 57.794-9.096 2.015-1.038 4.162-1.768 6.368-2.187z" fill="#e3e4e5"/><path d="m231.161 174.42-.001-.002c5.462-60.377-15.96-88.867-41.703-101.832l-2.957-1.086c-24-9-49.588-8.94-49.588-8.94-12.035.424-20.241 2.224-20.241 2.224l-8.692 1.696c10.281 12.437 16.349 32.918-9.535 61.616 1.86-.353 3.762-.49 5.67-.372 41.888 2.589 78.421-19.955 98.286 2.749 20.391 23.303 2.675 45.76-2.19 51.123-.669.737-1.711.979-2.645.638-35.849-13.062-57.513 17.267-57.513 17.267 8.907-2.227 11.134 2.227 26.721 8.907s24.494 0 24.494 0c-5.567 18.927 11.134 26.721 17.814 33.401s5.01 11.69 5.01 11.69c20.928-19.932 9.743-50.568 7.166-56.776-.294-.708-.242-1.502.152-2.159 1.555-2.598 5.711-9.908 9.752-20.144z" fill="#c9cdd1"/><g fill="#52565b"><path d="m251.793 166.979c-1.905-12.655-7.424-22.155-11.776-27.952-.881 8.965-2.832 17.432-5.172 24.953 9.019 8.81 19.022 16.779 16.948 2.999z"/><path d="m211.581 148.817c-.956-5.841-3.683-12.062-9.18-18.344-4.516-5.161-9.896-7.979-16.001-9.29 2.286 7.075 3.986 18.093-1.256 29.887-7.931 17.844 15.02 11.849 26.437-2.253z"/><path d="m176.783 74.385c0-12.048-32.129 0-36.145 2.008l-1.881 10.645c5.748.014 9.58 1.769 13.542 3.354 16.701 6.68 24.484-3.959 24.484-16.007z"/><path d="m112.496 127.924c.283 5.839-.665 15.527-7.514 26.486-10.733 17.172 37.499-2.903 29.018-28.308-6.927.995-14.117 1.736-21.504 1.822z"/><path d="m166.773 40.29c4.293 1.582 8.346 3.242 12.185 4.969 4.347-5.618 4.182-11.664-9.767-15.598-32.477-9.159-36.807-34.347-58.458-25.188-13.997 5.921-17.586 23.32-18.375 34.886 21.874-7.218 47.203-9.094 74.415.931z"/><path d="m198.333 182.377c-.258-.009-.516-.051-.768-.143-35.849-13.062-57.513 17.267-57.513 17.267 8.907-2.227 11.134 2.227 26.721 8.907s24.494 0 24.494 0c-5.567 18.927 11.134 26.721 17.814 33.401s5.01 11.69 5.01 11.69c23.021-21.925 7.087-56.453 7.001-57.517-10.027 8.905-25.905-.291-22.759-13.605z"/></g><path d="m214.09 256c-.462 0-.928-.128-1.339-.39-.97-.615-1.395-1.812-1.032-2.901.021-.088.936-3.791-4.405-9.132-1.189-1.189-2.816-2.492-4.54-3.872-6.731-5.391-16.547-13.249-14.949-26.968-4.539 1.423-12.066 2.242-22.036-2.031-5.098-2.185-8.774-4.126-11.729-5.686-6.026-3.182-8.278-4.375-13.401-3.094-1.017.254-2.083-.152-2.673-1.019-.59-.866-.577-2.007.032-2.86.228-.319 23.2-31.72 60.403-18.163 5.189-5.759 20.866-26.317 2.098-47.766-11.364-12.99-28.87-9.918-51.03-6.03-13.717 2.407-29.267 5.135-45.528 4.13-3.679-.225-7.396.563-10.738 2.287-30.559 15.753-50.574 12.543-59.787 9.226-.047-.017-.093-.035-.138-.054-3.459-1.483-9.177-4.578-8.613-8.648.522-3.762 5.634-4.9 10.029-5.472 10.323-1.342 19.656-5.586 26.99-12.272.971-.885 1.812-1.729 2.518-2.529-7.675.056-25.086 1.631-47.031 12.727-3.985 2.016-9.085 1.172-12.4-2.052-2.412-2.516-3.6-6.172-3.32-10.094.207-2.908 1.321-5.821 3.223-8.425l8.188-11.211c2.455-3.361 5.085-6.556 7.821-9.497 16.315-17.541 75.133-72.715 146.934-46.26 37.189 13.701 60.928 34.483 70.557 61.768 6.453 18.289 6.472 39.015.055 61.603-4.989 17.558-12.451 30.779-14.667 34.487 2.622 6.331 14.339 38.455-7.766 59.508-.479.456-1.1.69-1.726.69zm-22.828-50.082c.504 0 1.009.151 1.439.456.873.617 1.266 1.714.964 2.74-4.021 13.672 4.614 20.587 12.234 26.688 1.833 1.468 3.565 2.855 4.949 4.239 2.832 2.833 4.361 5.45 5.153 7.652 14.71-18.755 5.156-44.688 2.946-50.011-.604-1.453-.489-3.058.314-4.401v-.001c2.102-3.511 9.333-16.29 14.176-33.332 6.129-21.572 6.143-41.279.039-58.573-9.109-25.814-31.843-45.578-67.569-58.74-28.76-10.596-58.465-8.804-88.292 5.327-25.471 12.069-44.297 30.021-53.251 39.648-2.601 2.796-5.105 5.838-7.444 9.04l-8.188 11.212c-1.348 1.844-2.133 3.859-2.273 5.83-.179 2.517.507 4.783 1.881 6.218 1.718 1.668 4.518 2.162 6.596 1.111 31.167-15.76 53.251-13.186 54.176-13.069.784.099 1.475.564 1.863 1.252.388.689.428 1.521.106 2.243-1.034 2.325-2.999 4.79-6.009 7.533-8.094 7.379-18.37 12.06-29.714 13.535-3.251.423-4.753.964-5.41 1.297.867.904 3.115 2.312 5.253 3.241 20.399 7.295 45.763-3.854 55.729-8.992 4.143-2.136 8.754-3.115 13.337-2.833 15.675.968 30.911-1.705 44.355-4.064 22.772-3.996 42.438-7.446 55.658 7.662 22.043 25.193 2.019 49.777-2.22 54.449-1.351 1.487-3.447 2.001-5.353 1.308-25.231-9.193-43.205 4.42-50.718 11.945 3.452.4 6.422 1.969 10.402 4.07 2.874 1.518 6.451 3.407 11.362 5.512 13.921 5.965 21.702.52 22.026.285.444-.316.963-.477 1.483-.477zm32.292-10.07s.001-.001.001-.001-.001 0-.001.001z"/><path d="m68.794 112.933c-1.151 0-2.186-.799-2.44-1.969-.293-1.348.561-2.679 1.908-2.974.143-.032 8.253-1.902 12.461-7.618.818-1.112 2.383-1.35 3.495-.531 1.112.818 1.35 2.383.531 3.495-5.36 7.282-15.013 9.45-15.421 9.539-.179.039-.358.058-.534.058z"/><path d="m98.44 130.601c-.597 0-1.195-.212-1.673-.644-1.025-.925-1.107-2.506-.182-3.531 14.029-15.553 19.773-30.05 17.075-43.089-3.96-19.127-25.09-28.984-25.303-29.082-1.255-.574-1.809-2.056-1.237-3.311s2.051-1.811 3.308-1.24c.962.438 23.621 10.962 28.119 32.583 3.058 14.695-3.083 30.672-18.25 47.488-.493.548-1.174.826-1.857.826z"/><path d="m58.961 92.505c-1.064 0-2.051-.686-2.385-1.755-.731-2.34-.507-4.826.631-6.998s3.054-3.771 5.395-4.501c2.34-.731 4.825-.507 6.998.631 2.172 1.138 3.771 3.054 4.501 5.395.412 1.318-.323 2.72-1.641 3.131-1.317.414-2.72-.323-3.131-1.641-.333-1.065-1.061-1.938-2.05-2.456-.99-.519-2.121-.621-3.186-.288-1.066.333-1.938 1.061-2.457 2.05-.518.989-.62 2.121-.288 3.187.412 1.318-.323 2.72-1.641 3.131-.248.077-.499.114-.746.114z"/><path d="m249.487 176.931c-3.528 0-8.46-3.418-16.389-11.163-.672-.656-.919-1.634-.64-2.531 2.587-8.318 4.293-16.545 5.07-24.455.102-1.026.821-1.885 1.814-2.163.988-.277 2.054.081 2.673.906 4.492 5.983 10.263 15.885 12.248 29.082.51 3.383.799 8.079-2.553 9.795-.679.349-1.414.529-2.223.529zm-11.803-13.684c8.112 7.77 10.904 8.628 11.67 8.674.142-.375.419-1.567-.032-4.569-1.322-8.784-4.466-15.988-7.673-21.394-.894 5.672-2.22 11.459-3.965 17.289z"/><path d="m188.844 164.577c-1.808 0-3.401-.362-4.668-1.138-2.133-1.306-5.141-4.782-1.316-13.384 4.901-11.028 3.337-21.37 1.161-28.103-.274-.85-.075-1.782.524-2.445.6-.663 1.51-.957 2.379-.768 7.069 1.518 12.747 4.817 17.358 10.087 5.354 6.119 8.639 12.709 9.766 19.587.115.704-.075 1.423-.523 1.978-6.781 8.374-17.444 14.186-24.681 14.186zm1.135-39.765c1.636 7.325 2.009 17.015-2.551 27.273-1.612 3.628-1.857 6.344-.641 7.089 3.219 1.971 14.618-2.405 22.123-11.062-1.137-5.55-3.956-10.925-8.392-15.995-2.945-3.365-6.418-5.777-10.539-7.305z"/><path d="m161.793 94.953c-2.913 0-6.368-.618-10.423-2.24l-.978-.395c-3.521-1.424-6.846-2.769-11.641-2.78-1.381-.003-2.497-1.125-2.494-2.506s1.088-2.493 2.506-2.494c5.762.014 9.697 1.606 13.504 3.146l.96.387c6.25 2.501 11.505 2.503 15.19.008 3.673-2.486 5.865-7.606 5.865-13.694 0-1.148-.461-1.592-.96-1.9-5.486-3.389-26.654 3.688-31.566 6.144-1.232.618-2.736.117-3.354-1.118-.617-1.235-.117-2.736 1.118-3.354.253-.127 27.121-11.676 36.432-5.926 2.18 1.347 3.331 3.475 3.331 6.153 0 7.865-2.938 14.365-8.062 17.834-2.115 1.432-5.201 2.735-9.428 2.735z"/><path d="m106.545 163.323c-1.759 0-3.267-.456-4.338-1.533-1.34-1.349-2.315-3.955.654-8.705 6.405-10.248 7.417-19.273 7.138-25.04-.033-.678.211-1.341.677-1.835.465-.495 1.112-.778 1.791-.786 6.428-.074 13.158-.645 21.178-1.796 1.199-.169 2.345.537 2.727 1.683 4.686 14.038-6.064 26.665-16.693 33.213-4.262 2.625-9.294 4.799-13.134 4.799zm-.609-5.033c1.864.411 8.924-1.544 16.283-7.761 10.391-8.779 10.794-17.105 9.927-21.645-6.286.843-11.825 1.325-17.11 1.486-.096 6.433-1.72 15.423-7.934 25.365-.868 1.387-1.104 2.183-1.166 2.555z"/><path d="m178.957 47.76c-.345 0-.694-.071-1.024-.22-3.858-1.736-7.904-3.386-12.024-4.904-23.672-8.721-48.154-9.025-72.768-.902-.79.261-1.658.111-2.316-.399-.657-.51-1.018-1.314-.961-2.145 1.661-24.343 11.736-33.567 19.895-37.019 13.387-5.663 21.235.764 30.324 8.204 7.407 6.063 15.804 12.937 29.787 16.88 7.849 2.214 12.324 5.291 13.683 9.407 1.035 3.138.154 6.545-2.617 10.127-.486.628-1.223.971-1.979.971zm-50.381-16.906c13.18 0 26.229 2.363 39.061 7.091 3.551 1.308 7.048 2.712 10.425 4.184.853-1.501 1.103-2.809.742-3.899-.764-2.317-4.419-4.505-10.291-6.161-14.986-4.227-24.196-11.766-31.597-17.823-9.107-7.456-14.605-11.954-25.209-7.469-11.587 4.902-15.338 19.052-16.515 29.073 11.176-3.331 22.327-4.996 33.384-4.996z"/><path d="m214.09 256c-.462 0-.928-.128-1.339-.39-.97-.615-1.395-1.812-1.032-2.901.021-.088.936-3.791-4.405-9.132-1.189-1.189-2.816-2.492-4.54-3.872-6.731-5.391-16.547-13.249-14.949-26.968-4.539 1.423-12.066 2.242-22.036-2.031-5.099-2.185-8.774-4.126-11.729-5.686-6.026-3.182-8.278-4.375-13.401-3.094-1.017.254-2.083-.152-2.673-1.019-.59-.866-.577-2.007.032-2.86.228-.319 23.2-31.72 60.403-18.163.749.026 1.445.382 1.9.978s.617 1.36.444 2.089c-1.413 5.98 1.771 10.313 5.224 12.375 3.331 1.99 8.853 2.865 13.442-1.213.71-.63 1.716-.804 2.592-.451.77.309 1.329.976 1.508 1.771.052.157.148.412.277.758 9.115 24.533 6.276 45.528-7.993 59.119-.478.456-1.099.69-1.725.69zm-22.828-50.082c.504 0 1.009.151 1.439.456.873.617 1.266 1.714.964 2.74-4.021 13.672 4.614 20.587 12.234 26.688 1.833 1.468 3.565 2.855 4.949 4.239 2.83 2.83 4.358 5.446 5.151 7.646 9.164-11.725 10.54-28.404 3.841-47.75-5.047 2.855-11.177 2.81-16.415-.318-5.553-3.316-8.504-9.208-7.915-15.458-24.608-8.34-42.127 4.962-49.518 12.367 3.451.4 6.421 1.969 10.401 4.07 2.874 1.518 6.451 3.407 11.362 5.512 13.921 5.965 21.702.52 22.026.285.442-.316.961-.477 1.481-.477zm32.321-10.142c0 .002.001.003.001.005 0-.001-.001-.003-.001-.005zm0-.004v.003c0-.001 0-.002 0-.003z"/><path d="m231.163 176.918c-.075 0-.151-.003-.229-.01-1.375-.125-2.389-1.34-2.265-2.715 4.539-50.173-9.032-83.607-40.338-99.375-1.232-.621-1.729-2.125-1.107-3.357.621-1.233 2.123-1.729 3.357-1.108 14.985 7.548 26.316 19.081 33.679 34.28 8.791 18.149 11.95 41.705 9.39 70.011-.118 1.298-1.208 2.274-2.487 2.274z"/><path d="m116.67 67.285c-1.149 0-2.185-.797-2.44-1.966-.295-1.348.558-2.681 1.906-2.976.344-.076 8.567-1.853 20.688-2.28 1.366-.056 2.538 1.03 2.586 2.411.049 1.38-1.03 2.538-2.41 2.586-11.636.41-19.714 2.15-19.794 2.167-.18.039-.359.058-.536.058z"/><path d="m110.625 37.188c-.045 0-.091-.001-.137-.003-1.379-.075-2.436-1.253-2.362-2.631.777-14.368 7.066-20.814 7.333-21.082.977-.977 2.559-.976 3.536 0 .972.972.977 2.546.013 3.523-.106.111-5.228 5.59-5.889 17.828-.072 1.333-1.175 2.365-2.494 2.365z"/><path d="m125.197 35.851c-.133 0-.268-.011-.403-.033-1.363-.221-2.289-1.505-2.067-2.868 1.379-8.505 4.87-12.709 5.017-12.884.893-1.054 2.47-1.185 3.524-.294 1.049.888 1.184 2.456.305 3.51-.071.088-2.781 3.503-3.91 10.468-.2 1.228-1.261 2.101-2.466 2.101z"/><path d="m155.755 205.589c-.497 0-.999-.147-1.437-.455-1.129-.794-1.4-2.354-.606-3.483 9.428-13.402 23.596-13.556 24.194-13.556 1.381 0 2.5 1.119 2.5 2.5 0 1.378-1.115 2.496-2.492 2.5-.512.004-12.228.223-20.112 11.433-.488.692-1.261 1.061-2.047 1.061z"/><path d="m166.771 210.909c-.376 0-.757-.085-1.116-.265-1.235-.618-1.735-2.119-1.118-3.354 2.563-5.125 10.388-8.595 11.271-8.974 1.269-.543 2.739.043 3.283 1.313.544 1.269-.043 2.738-1.312 3.282-2.692 1.16-7.453 3.981-8.771 6.615-.438.877-1.321 1.383-2.237 1.383z"/><path d="m208.252 242.557c-.586 0-1.174-.205-1.648-.622-1.038-.911-1.14-2.491-.229-3.528 9.051-10.304 6.503-21.753 6.39-22.235-.313-1.341.516-2.688 1.855-3.006 1.344-.32 2.685.502 3.007 1.841.141.582 3.317 14.39-7.496 26.701-.494.561-1.185.849-1.879.849z"/><path d="m200.497 233.098c-.711 0-1.417-.302-1.912-.888-.89-1.055-.756-2.633.299-3.523 2.535-2.138 4.042-8.142 4.37-10.077.231-1.36 1.52-2.274 2.883-2.047 1.361.231 2.277 1.521 2.047 2.883-.161.948-1.696 9.37-6.075 13.063-.47.395-1.043.589-1.612.589z"/></svg>