<svg enable-background="new 0 0 256 256" height="512" viewBox="0 0 256 256" width="512" xmlns="http://www.w3.org/2000/svg"><path d="m156.34 172.529c-15.579 14.034-37.823 24.109-70.993 26.662-15.076 1.16-23.232-17.409-12.137-27.683 3.762-3.484 8.821-7.261 15.537-11.316 52.195-31.514 2.408-151.476 147.621-144.504 2.648.127 3.75 3.484 1.674 5.132-4.103 3.258-13.549 16.548-19.501 24.236l7.66-.245s-15.05 20.066-23.076 28.093l9.03 2.007s-13.043 22.073-22.073 30.099h8.026s-19.063 28.093-25.083 34.113l7.023 1.003s-18.06 21.069-29.096 28.093z" fill="#a8aeb2"/><path d="m69.562 189.839c.014.03.029.059.043.089 2.359 5.096 7.284 9.014 13.693 9.286-3.412-5.994-3.102-14.071 2.955-19.68 3.762-3.484 8.821-7.261 15.537-11.316 49.972-30.172 8.715-140.132 132.394-143.414 1.521-1.778 2.851-3.185 3.859-3.985 2.076-1.648.974-5.005-1.674-5.132-145.214-6.971-95.428 112.991-147.622 144.505-5.335 3.221-10.945 7.063-15.537 11.316-5.12 4.694-6.57 11.923-3.648 18.331z" fill="#e3e4e5"/><path d="m144.932 181.262c-.004-.002-.008-.003-.012-.005-14.585 9.411-33.772 15.949-59.572 17.935-15.076 1.16-23.232-17.409-12.137-27.683 1.885-1.746 4.096-3.565 6.678-5.456 7.586-8.637 15.892-21.127 20.899-37.966 11.035-37.123-20.068-54.179-20.068-54.179s-19.063-13.043-34.548-7.221c-14.58 5.481-17.514 18.332-17.866 22.46.387-.116.798-.15 1.202-.075l5.137.956c2.375.442 4.052 2.581 3.913 4.993l-.333 5.814s-.005.002-.006.002c1.874.439 7.387 1.39 12.109-1.186 5.791-3.158 13.336-12.699 26.379-3.669 17.558 16.972 8.828 35.652-1.496 48.272-5.831 7.128-12.931 13.107-20.753 17.969-10.429 6.482-32.933 22.613-32.933 41.113 0 24.079 22.073 50.165 92.304 50.165s81.268-45.149 81.268-45.149h-7.023c9.03-9.03 12.04-27.089 12.04-27.089s-17.056 16.052-55.182-.001z" fill="#e3e4e5"/><path d="m100.786 128.086c-3.678 12.372-9.139 22.388-14.786 30.261-.387 1.495-.826 2.962-1.316 4.4 1.286-.84 2.629-1.69 4.062-2.556 42.456-25.634 17.439-109.787 84.777-136.547 3.347-7.365 6.702-12.848 9.459-16.545 1.585-2.125-.34-5.087-2.932-4.532-67.91 14.54-85.386 45.689-89.739 79.038 8.068 8.339 17.279 23.595 10.475 46.481z" fill="#a8aeb2"/><path d="m179.615 2.664c-48.151 10.407-83.025 30.759-89.302 78.94v.002c6.006 6.208 12.642 16.255 12.834 30.428.078-39.733 5.512-81.597 77.528-101.607.003-.004.005-.008.008-.012.796-1.22 1.563-2.323 2.287-3.295.005-.006.01-.014.014-.02 1.416-1.9.116-5.187-3.369-4.436z" fill="#e3e4e5"/><path d="m34.645 90.027-5.137-.955c-.668-.124-1.365.018-1.92.41-15.952 11.272-10.321 23.128-6.823 28.05.679.955 2.142.672 2.436-.462 2.867-11.084 15.024-16.236 15.024-16.236l.333-5.813c.139-2.414-1.538-4.553-3.913-4.994z" fill="#f9bd55"/><path d="m38.225 100.833.333-5.813c.072-1.254-.354-2.427-1.106-3.333-16.598 9.833-17.533 19.781-15.439 26.401.532-.057 1.03-.411 1.189-1.022 2.868-11.082 15.023-16.233 15.023-16.233z" fill="#f9bd55"/><path d="m29.508 89.071 5.137.956c2.375.442 4.052 2.581 3.913 4.993l-.333 5.814s-.005.002-.006.002c1.874.439 7.387 1.39 12.109-1.186 2.728-1.488 5.846-4.391 9.744-6.103 1.939-2.709 3.091-6.02 3.091-9.606 0-9.143-7.412-16.555-16.555-16.555-.887 0-1.755.081-2.605.215-12.7 5.881-15.363 17.632-15.696 21.545.386-.116.797-.15 1.201-.075z" fill="#a8aeb2"/><path d="m41.743 87.308c-1.156 0-2.195-.808-2.443-1.985-.389-1.843-.036-3.727.992-5.304s2.61-2.66 4.453-3.048c1.841-.388 3.725-.037 5.303.992 1.577 1.028 2.66 2.61 3.048 4.453.284 1.351-.58 2.677-1.932 2.961-1.342.289-2.676-.58-2.961-1.932-.113-.535-.428-.995-.886-1.294s-1.003-.403-1.542-.288c-.536.113-.996.428-1.295.886-.299.459-.401 1.006-.288 1.542.285 1.351-.579 2.677-1.931 2.962-.173.036-.347.055-.518.055z"/><path d="m21.857 120.609c-1.234 0-2.391-.59-3.131-1.631-2.037-2.866-5.278-8.709-4.097-15.643.998-5.854 4.873-11.202 11.516-15.896 1.092-.772 2.489-1.073 3.818-.826l5.138.955h.001c3.602.671 6.161 3.936 5.952 7.594l-.334 5.814c-.055.95-.645 1.787-1.521 2.158-.106.046-11.065 4.839-13.58 14.56-.382 1.48-1.55 2.572-3.047 2.849-.239.044-.478.066-.715.066zm7.194-29.08c-5.538 3.893-8.725 8.15-9.491 12.647-.652 3.827.512 7.278 1.978 9.907 3.239-8.404 11.033-13.181 14.276-14.863l.249-4.345c.066-1.151-.74-2.18-1.875-2.392z"/><path d="m22.011 120.587c-1.079 0-2.051-.698-2.382-1.746-2.369-7.493-1.42-18.66 16.549-29.306 1.056-.627 2.414-.392 3.198.554 1.188 1.431 1.783 3.232 1.679 5.072l-.334 5.815c-.055.948-.643 1.784-1.517 2.156-.115.05-11.067 4.843-13.583 14.559-.407 1.574-1.718 2.705-3.339 2.881-.091.01-.181.015-.271.015zm14.014-25.054c-6.276 4.188-10.195 8.691-11.658 13.345 3.737-5.222 8.945-8.359 11.446-9.657zm2.2 5.3h.01z"/><path d="m42.947 103.878c-2.279 0-4.194-.35-5.299-.609-1.236-.289-2.059-1.46-1.913-2.721.001-.009.002-.017.003-.025l.324-5.646c.066-1.151-.74-2.181-1.876-2.392l-5.119-.952c-.792.236-1.674.068-2.313-.453-.642-.521-1.009-1.321-.938-2.146.143-1.669 1.83-16.513 17.137-23.601.21-.097.432-.164.659-.2 1.047-.166 2.026-.247 2.996-.247 10.507 0 19.055 8.548 19.055 19.055 0 3.985-1.23 7.811-3.558 11.062-.262.365-.617.653-1.027.834-2.125.933-4.025 2.283-5.863 3.588-1.276.906-2.481 1.763-3.688 2.421-2.89 1.574-5.973 2.032-8.58 2.032zm-2.098-5.126c2.184.247 5.458.243 8.282-1.297.947-.517 2.035-1.29 3.188-2.107 1.778-1.264 3.773-2.68 6.08-3.783 1.483-2.279 2.264-4.901 2.264-7.624 0-7.75-6.305-14.055-14.055-14.055-.602 0-1.217.044-1.873.135-9.521 4.556-12.563 12.657-13.519 16.825l3.886.723c3.603.671 6.162 3.936 5.953 7.594z"/><path d="m84.056 201.741c-7.36 0-13.887-4.248-16.892-11.126-3.196-7.315-1.49-15.535 4.347-20.941 4.109-3.805 9.474-7.715 15.944-11.622 17.598-10.625 23.2-32.486 29.133-55.632 5.706-22.265 11.606-45.287 28.281-62.738 18.988-19.873 48.947-28.538 91.619-26.49 2.263.108 4.176 1.576 4.872 3.739.692 2.151.001 4.446-1.764 5.848-2.842 2.257-9.119 10.61-14.163 17.323-.584.777-1.159 1.543-1.721 2.288l2.407-.077c.981-.037 1.854.493 2.298 1.346s.359 1.884-.218 2.653c-.546.729-12.014 15.994-20.239 25.106l4.734 1.053c.782.174 1.433.711 1.752 1.445.318.735.266 1.578-.142 2.267-.461.781-9.851 16.608-18.321 26.327h2.123c.926 0 1.775.512 2.209 1.329.434.818.38 1.809-.141 2.574-.676.997-14.522 21.379-22.241 30.886l2.467.353c.903.129 1.664.739 1.986 1.594.321.854.152 1.815-.441 2.508-.688.802-15.688 18.244-26.822 26.602l2.777 2.223c.573.459.916 1.146.938 1.879s-.28 1.439-.826 1.931c-17.739 15.98-41.445 24.909-72.474 27.297-.496.037-.991.055-1.482.055zm140.551-183.844c-34.967 0-59.938 8.298-76.123 25.238-15.771 16.506-21.507 38.884-27.054 60.525-6.192 24.165-12.042 46.989-31.392 58.672-6.181 3.731-11.271 7.436-15.131 11.009-5.162 4.781-5.019 11.024-3.163 15.271 1.864 4.265 6.36 8.624 13.411 8.086 28.592-2.201 50.64-10.088 67.283-24.089l-3.049-2.439c-.631-.504-.979-1.281-.935-2.087.043-.806.473-1.541 1.154-1.975 7.952-5.061 19.936-17.951 25.501-24.163l-2.44-.349c-.938-.134-1.719-.785-2.019-1.684-.299-.898-.065-1.89.604-2.559 4.462-4.463 16.669-21.95 22.107-29.846h-3.283c-1.038 0-1.968-.642-2.337-1.611-.369-.971-.1-2.067.676-2.757 6.707-5.963 15.935-20.325 19.783-26.548l-5.621-1.249c-.891-.198-1.604-.865-1.858-1.741s-.013-1.822.633-2.467c5.599-5.599 14.835-17.37 19.67-23.658l-2.406.077c-1.007.025-1.867-.5-2.307-1.362s-.343-1.901.25-2.667c1.458-1.883 3.126-4.103 4.873-6.429 5.755-7.659 11.706-15.579 15.051-18.235.062-.05.193-.153.113-.399-.085-.265-.279-.273-.353-.277-3.993-.19-7.875-.287-11.638-.287z"/><path d="m83.298 201.715c-.035 0-.07-.001-.106-.002-6.85-.291-12.925-4.404-15.855-10.733-.003-.007-.037-.079-.049-.104-.001-.003-.003-.005-.004-.007 0-.001 0-.001 0-.001-3.38-7.423-1.717-15.744 4.237-21.202 4.1-3.798 9.464-7.708 15.935-11.614 17.598-10.625 23.2-32.486 29.133-55.632 5.706-22.265 11.606-45.287 28.281-62.738 18.988-19.873 48.947-28.538 91.619-26.49 2.263.108 4.176 1.576 4.872 3.739.692 2.151.001 4.446-1.764 5.848-.805.639-1.986 1.867-3.514 3.651-.46.538-1.126.855-1.833.874-34.166.907-58.4 10.168-74.089 28.312-13.857 16.026-19.564 36.761-25.084 56.812-6.555 23.815-12.746 46.31-31.995 57.932-6.182 3.731-11.272 7.437-15.13 11.01-5.399 5-5.137 11.944-2.481 16.609.449.79.435 1.763-.039 2.538-.455.746-1.265 1.198-2.134 1.198zm-11.468-12.926c.016.031.044.092.053.11 1.541 3.327 4.17 5.771 7.378 6.98-1.549-5.839-.496-12.817 5.293-18.179 4.107-3.805 9.472-7.715 15.944-11.623 17.541-10.591 23.476-32.15 29.759-54.977 11.131-40.438 23.745-86.246 102.758-88.764 1.415-1.606 2.557-2.748 3.474-3.476.062-.05.192-.153.112-.399-.085-.265-.279-.273-.353-.277-41.13-1.969-69.836 6.188-87.764 24.95-15.771 16.506-21.507 38.884-27.054 60.525-6.192 24.165-12.042 46.989-31.392 58.672-6.18 3.73-11.271 7.435-15.13 11.01-4.335 3.976-5.539 10.034-3.078 15.448z"/><path d="m113.829 256c-32.624 0-57.479-5.542-73.876-16.473-13.496-8.997-20.929-21.851-20.929-36.192 0-19.172 21.373-35.318 34.114-43.236 7.938-4.936 14.714-10.799 20.137-17.43 14.051-17.175 14.67-32.229 1.842-44.748-9.077-6.189-14.581-2.279-19.903 1.502-1.276.906-2.481 1.763-3.688 2.421-5.415 2.955-11.509 1.982-13.877 1.425-1.236-.289-2.059-1.46-1.913-2.721.001-.009.002-.017.003-.025l.324-5.646c.066-1.151-.74-2.181-1.876-2.392l-5.136-.955c-.793.235-1.666.071-2.307-.451-.642-.521-.999-1.321-.929-2.145.155-1.826 2.023-18.025 19.477-24.587 16.098-6.056 35.038 6.286 36.742 7.432 1.049.596 8.58 5.059 14.888 13.839 6.162 8.579 12.25 23.034 6.261 43.182-4.33 14.563-11.535 27.652-21.417 38.902-.119.137-.254.26-.4.367-2.424 1.776-4.596 3.551-6.456 5.274-5.163 4.781-5.021 11.022-3.164 15.27 1.863 4.266 6.363 8.62 13.411 8.087 23.852-1.836 42.957-7.574 58.408-17.543.581-.375 1.293-.491 1.962-.325.125.031.253.075.375.127 35.947 15.135 52.35.622 52.511.473.786-.723 1.949-.869 2.888-.362.938.509 1.456 1.552 1.28 2.604-.11.665-2.46 14.353-9.226 24.178h1.743c.768 0 1.492.353 1.967.956.474.604.644 1.392.462 2.138-.12.489-3.066 12.115-14.978 23.768-19.676 19.246-48.231 23.286-68.72 23.286zm-47.648-166.32c3.492 0 7.459 1.136 11.949 4.245.112.077.217.164.314.258 14.748 14.257 14.287 32.601-1.299 51.652-5.771 7.057-12.961 13.284-21.368 18.51-9.547 5.934-31.753 21.611-31.753 38.99 0 29.847 33.572 47.665 89.805 47.665 27.9 0 50.377-7.484 64.999-21.645 7.453-7.217 11.146-14.51 12.763-18.505h-3.517c-1.011 0-1.923-.609-2.31-1.543-.387-.935-.173-2.01.542-2.725 5.29-5.29 8.413-14.108 10.002-19.923-7.919 3.916-24.53 8.278-51.146-2.596-15.964 9.995-35.485 15.762-59.624 17.619-7.945.619-15.171-3.731-18.376-11.069-3.196-7.315-1.489-15.534 4.349-20.939 1.941-1.8 4.187-3.641 6.675-5.476 9.311-10.658 16.106-23.046 20.203-36.825 10.31-34.678-17.68-50.615-18.876-51.276-.068-.038-.14-.082-.204-.126-.18-.122-18.191-12.234-32.258-6.945-11.364 4.274-14.81 13.324-15.837 17.82l3.888.723c3.603.671 6.162 3.936 5.953 7.594l-.206 3.59c2.184.247 5.458.243 8.282-1.297.947-.517 2.035-1.29 3.188-2.108 3.437-2.443 7.977-5.668 13.862-5.668z"/><path d="m84.685 165.248c-.543 0-1.084-.177-1.533-.525-.843-.654-1.178-1.771-.833-2.781.467-1.369.892-2.789 1.263-4.222.077-.298.209-.579.389-.829 6.398-8.922 11.25-18.854 14.42-29.517 0 0 0 0 0-.001 6.357-21.382-1.86-35.745-9.874-44.029-.529-.548-.78-1.307-.682-2.062 3.846-29.469 17.744-65.325 91.694-81.158 2.216-.474 4.441.455 5.667 2.367 1.221 1.902 1.139 4.298-.208 6.104-2.193 2.939-5.567 8.116-9.188 16.084-.268.589-.753 1.051-1.354 1.289-36.854 14.646-45.069 46.697-53.015 77.693-6.193 24.164-12.044 46.988-31.393 58.671-1.296.782-2.601 1.603-3.987 2.508-.416.273-.892.408-1.366.408zm18.498-36.45c-2.867 9.645-7.045 18.721-12.444 27.043 15.044-11.261 20.304-31.779 25.851-53.42 7.808-30.462 16.65-64.957 55.077-80.722 3.648-7.861 7.06-13.072 9.313-16.094.048-.063.147-.197.008-.414-.152-.236-.341-.194-.412-.179-31.048 6.647-53.105 17.038-67.436 31.765-11.156 11.464-17.587 25.463-20.19 43.98 8.658 9.363 17.057 25.087 10.233 48.041z"/><path d="m103.146 114.533c-1.366 0-2.481-1.098-2.5-2.466-.184-13.565-6.698-23.107-12.131-28.724-.529-.548-.78-1.307-.683-2.062 5.688-43.65 33.832-68.65 91.254-81.062.001 0 .001 0 .002-.001 2.525-.544 4.868.318 6.112 2.253 1.205 1.875 1.119 4.335-.214 6.122-.002.004-.005.008-.008.011-.003.004-.005.007-.008.011-.709.953-1.447 2.018-2.196 3.165-.005.008-.01.016-.016.023-.027.041-.057.084-.086.122-.331.441-.799.761-1.331.909-31.919 8.868-52.934 22.688-64.244 42.249-9.444 16.331-11.408 34.579-11.452 56.953-.003 1.373-1.112 2.487-2.485 2.495-.004.002-.009.002-.014.002zm-10.196-33.777c2.885 3.127 5.95 7.219 8.347 12.293 1.094-13.483 3.977-27.502 11.473-40.467 11.89-20.562 33.595-35.062 66.333-44.312.63-.941 1.254-1.828 1.86-2.643.004-.005.008-.01.011-.015.002-.003.004-.005.006-.008.094-.125.083-.323.016-.43-.086-.132-.427-.16-.854-.067-54.513 11.784-81.462 35.141-87.192 75.649z"/><path d="m137.68 212.641c-5.411 0-8.717-.649-9.056-.72-1.353-.278-2.223-1.602-1.943-2.953.278-1.352 1.605-2.218 2.95-1.944.272.056 20.377 3.884 44.664-9.005 1.217-.648 2.732-.185 3.38 1.036.647 1.22.184 2.732-1.036 3.38-16.052 8.519-30.239 10.206-38.959 10.206z"/></svg>