<svg enable-background="new 0 0 256 256" height="512" viewBox="0 0 256 256" width="512" xmlns="http://www.w3.org/2000/svg"><g fill="#a8aeb2"><path d="m189.671 195.02c-1.995-7.979-1.912-13.879-1.049-17.702.659-2.923-.91-5.889-3.756-6.825-9.095-2.99-28.235-7.821-53.704-6.323 0 0-21.276 1.064-38.297-10.638-16.56-11.385-24.058-39.89-51.395-40.934-1.474-.056-2.938.297-4.227 1.013-9.81 5.447-53.242 30.86-25.759 39.39 0 0 0 5.319 11.702 3.191 0 0 39.893-2.66 46.276 20.744s5.319 27.659-2.128 27.659c-5.908 0-8.468 4.017-9.274 7.802-.312 1.464.835 2.836 2.332 2.836h21.543c.863 0 1.653-.467 2.075-1.221 2.165-3.868 8.314-16.382 5.664-29.63 0 0 31.914 23.404 78.722 3.191 0 0 7.447 12.766 3.191 17.021-3.908 3.908-12.303-1.157-13.646 7.88-.215 1.446.884 2.758 2.345 2.758h24.974c.816 0 1.568-.416 2.006-1.104 1.599-2.511 4.88-9.211 2.405-19.108z"/><path d="m59.653 163.896c4.583 3.036 8.226 7.236 9.808 13.039 6.383 23.404 5.319 27.659-2.128 27.659-5.908 0-8.468 4.017-9.274 7.802-.312 1.464.835 2.836 2.332 2.836h-13.83c-1.497 0-2.644-1.372-2.332-2.836.806-3.785 3.366-7.802 9.274-7.802.001 0 15.49-16.503 6.15-40.698z"/><path d="m157.94 212.475c1.344-9.038 9.738-3.972 13.646-7.88 4.255-4.255-3.191-17.021-3.191-17.021-4.012 1.732-7.912 3.137-11.694 4.271 1.807 4.114 3.714 10.092 1.056 12.75-3.908 3.908-12.303-1.157-13.646 7.88-.215 1.446.884 2.758 2.345 2.758h13.83c-1.462-.001-2.561-1.313-2.346-2.758z"/></g><path d="m243.926 169.489s-6.383-22.34-20.212-27.659c0 0 17.021-7.447 29.787-7.447 0 0-14.893-15.957-31.914-15.957 0 0 12.766-8.51 22.34-8.51 0 0-13.83-14.893-35.106-14.893 0 0 11.702-7.447 22.34-7.447 0 0-12.766-12.766-32.978-9.574 0 0 5.319-10.638 18.085-12.766 0 0-21.276-12.766-47.871-4.255 0 0 7.447-10.638 18.085-12.766 0 0-26.595-5.319-46.808 5.319 0 0 0-8.51 5.319-12.766 0 0-25.531 3.191-38.297 15.957 0 0-1.064-8.51 3.191-12.766 0 0-24.468 8.51-32.978 24.468 0 0-4.255-14.893 0-19.149 0 0-18.085 7.447-23.404 26.595 0 0-3.191-4.255-5.319-13.83 0 0-10.638 8.51-9.574 29.787 0 0-6.383-4.255-7.447-9.574 0 0-2.923 17.612 7.057 30.895 1.03-.404 2.136-.596 3.249-.554 27.337 1.045 34.834 29.549 51.395 40.934 17.021 11.702 38.297 10.638 38.297 10.638 25.469-1.498 44.609 3.333 53.704 6.323 1.509.496 2.644 1.571 3.293 2.9.244.185.49.366.72.572 5.732 5.164 17.153 13.736 31.111 15.204 0 0 4.255-13.83-4.255-22.34-.001.001 16.488-.531 28.19 2.661z" fill="#52565b"/><path d="m32.721 136.231c-1.377 0-2.495-1.114-2.5-2.492-.007-2.125.814-4.126 2.312-5.633 1.497-1.508 3.492-2.342 5.618-2.349h.026c2.115 0 4.104.82 5.606 2.312 1.507 1.497 2.341 3.492 2.348 5.618.005 1.381-1.111 2.503-2.492 2.508-.002 0-.005 0-.008 0-1.377 0-2.495-1.114-2.5-2.492-.003-.789-.312-1.531-.872-2.088-.558-.554-1.297-.858-2.083-.858-.003 0-.006 0-.01 0-.789.003-1.531.312-2.087.872-.557.561-.862 1.304-.859 2.094.005 1.381-1.111 2.503-2.492 2.508-.001 0-.004 0-.007 0z"/><path d="m185.26 217.732h-24.975c-1.414 0-2.755-.615-3.68-1.687-.934-1.084-1.349-2.52-1.138-3.938 1.115-7.502 6.473-7.898 10.019-8.161 1.862-.138 3.47-.257 4.333-1.119 1.618-1.618-.282-7.563-2.545-12.071-36.771 15.034-64.081 4.123-74.502-1.544.577 12.089-4.739 22.729-6.582 26.021-.861 1.542-2.493 2.5-4.256 2.5h-21.542c-1.482 0-2.869-.661-3.803-1.815-.923-1.141-1.278-2.613-.975-4.041 1.304-6.125 5.685-9.781 11.719-9.781 2.282 0 2.901-.466 3.17-.816 2.215-2.9-1.758-17.466-3.454-23.685-5.608-20.563-41.136-19.05-43.568-18.915-5.75 1.023-9.911.503-12.367-1.547-.855-.713-1.367-1.49-1.675-2.18-5.808-2.075-8.966-5.21-9.392-9.33-.519-5.023 3.466-16.146 35.982-34.197 1.693-.94 3.614-1.394 5.536-1.325 18.893.722 28.997 13.875 37.912 25.479 4.784 6.229 9.304 12.111 14.803 15.892 16.093 11.064 36.561 10.213 36.759 10.202 25.834-1.518 45.302 3.386 54.608 6.445 4.04 1.328 6.367 5.52 5.413 9.749-.549 2.436-1.145 7.822 1.036 16.546 2.72 10.878-.998 18.35-2.723 21.058-.898 1.414-2.436 2.26-4.113 2.26zm-158.392-64.135c3.983 0 10.584.276 17.575 1.743 15.071 3.163 24.557 10.403 27.43 20.938 4.783 17.54 5.416 24.353 2.603 28.036-1.904 2.493-4.988 2.781-7.143 2.781-4.535 0-6.202 3.052-6.796 5.676l21.322-.038c1.934-3.47 7.848-15.436 5.362-27.86-.202-1.012.237-2.043 1.106-2.598.871-.557 1.992-.519 2.823.092.307.222 31.412 22.274 76.253 2.912 1.161-.501 2.514-.057 3.15 1.035 1.406 2.41 8.146 14.701 2.8 20.049-2.177 2.177-5.128 2.396-7.499 2.57-3.612.268-4.912.53-5.426 3.8h24.761c1.393-2.21 4.285-8.186 2.055-17.106-2.309-9.24-1.852-15.355-1.062-18.858.384-1.704-.518-3.38-2.098-3.899-8.969-2.948-27.751-7.68-52.777-6.202-.923.048-22.343.97-39.86-11.074-6.151-4.229-10.904-10.416-15.936-16.967-8.648-11.257-17.59-22.897-34.139-23.529-1.011-.039-2.022.203-2.916.699-17.167 9.53-34.163 22.29-33.438 29.313.231 2.24 2.655 4.092 7.204 5.503 1.164.361 1.926 1.11 1.773 2.288.248.579 2.166 2.026 8.74.832.093-.017.187-.028.281-.034.156-.012 1.578-.102 3.852-.102z"/><path d="m60.392 217.732h-13.83c-1.483 0-2.869-.661-3.803-1.815-.923-1.14-1.278-2.613-.975-4.041 1.217-5.716 5.112-9.281 10.531-9.732 2.725-3.347 12.674-17.48 5.005-37.347-.393-1.016-.082-2.167.766-2.849.85-.683 2.04-.736 2.947-.136 5.584 3.699 9.23 8.565 10.839 14.466 4.783 17.539 5.416 24.352 2.603 28.035-1.904 2.493-4.988 2.781-7.143 2.781-4.516 0-6.188 3.025-6.788 5.643.333.02.649.105.935.243.865.383 1.454 1.251 1.454 2.271.001 1.382-1.161 2.481-2.541 2.481zm4.138-45.67c3.559 20.327-8.611 33.612-9.203 34.243-.473.504-1.133.789-1.823.789-4.535 0-6.202 3.052-6.796 5.677l8.802-.025c.009-.29.043-.581.104-.87 1.304-6.125 5.685-9.781 11.719-9.781 2.282 0 2.901-.466 3.17-.816 2.215-2.9-1.758-17.466-3.454-23.685-.542-1.989-1.384-3.835-2.519-5.532z"/><path d="m160.285 217.732h-13.829c-1.414 0-2.756-.615-3.681-1.688-.934-1.083-1.349-2.519-1.138-3.938 1.115-7.502 6.473-7.898 10.019-8.161 1.862-.138 3.47-.257 4.333-1.119.898-.899 1.025-4.052-1.577-9.978-.288-.655-.281-1.403.02-2.054s.865-1.141 1.552-1.346c3.816-1.145 7.659-2.548 11.421-4.172 1.161-.501 2.514-.057 3.15 1.035 1.406 2.41 8.146 14.701 2.8 20.049-2.177 2.177-5.128 2.396-7.499 2.57-3.613.268-4.913.53-5.426 3.804 1.313.075 2.355 1.164 2.355 2.496 0 1.383-1.119 2.502-2.5 2.502zm-13.685-5h8.815c.004-.208.021-.417.053-.625.245-1.653.697-2.96 1.289-3.997-1.586.59-3.269.715-4.731.822-3.613.268-4.913.531-5.426 3.8zm13.431-19.313c1.809 4.952 2.023 8.763.645 11.381 1.632-.618 3.371-.747 4.811-.854 1.862-.138 3.47-.257 4.333-1.119 1.498-1.498-.056-7.153-2.542-12.073-2.4.978-4.824 1.87-7.247 2.665z"/><path d="m11.483 155.5c-1.047 0-2.022-.663-2.372-1.711-.437-1.31.271-2.726 1.582-3.162l12.766-4.255c1.309-.437 2.725.271 3.162 1.582.437 1.31-.271 2.726-1.582 3.162l-12.766 4.255c-.261.087-.528.129-.79.129z"/><path d="m219.992 191.669c-.088 0-.175-.005-.264-.014-14.726-1.55-26.697-10.585-32.522-15.833-.148-.134-.306-.248-.462-.365l-.093-.07c-.313-.236-.566-.544-.738-.896-.384-.785-1.033-1.361-1.828-1.623-8.969-2.947-27.752-7.682-52.776-6.201-.924.044-22.346.968-39.86-11.074-6.151-4.229-10.904-10.416-15.936-16.967-8.647-11.257-17.59-22.897-34.139-23.53-.763-.034-1.518.101-2.242.384-1.046.411-2.235.071-2.91-.826-10.501-13.978-7.65-32.044-7.523-32.806.197-1.191 1.218-2.07 2.425-2.091h.042c1.189 0 2.217.84 2.45 2.01.314 1.573 1.323 3.135 2.479 4.473.829-18.166 10.096-25.801 10.528-26.146.674-.539 1.579-.69 2.392-.406.814.287 1.423.974 1.61 1.816.756 3.4 1.651 6.089 2.469 8.11 7.059-15.972 22.154-22.354 22.861-22.646 1.104-.455 2.371-.066 3.032.925s.53 2.312-.312 3.154c-1.534 1.534-1.37 6.43-.603 11.094 10.51-13.293 30.067-20.221 30.992-20.542 1.095-.383 2.318.045 2.939 1.033.619.987.474 2.271-.351 3.096-1.396 1.397-2.057 3.515-2.353 5.497 13.771-10.129 34.413-12.815 35.38-12.937 1.116-.143 2.178.478 2.613 1.508.436 1.031.133 2.226-.741 2.925-2.127 1.702-3.222 4.354-3.785 6.607 19.962-8.263 43.156-3.774 44.202-3.564 1.169.233 2.01 1.26 2.01 2.451s-.841 2.218-2.01 2.451c-4.347.87-8.163 3.385-11.03 5.866 23.318-4.188 40.799 6.071 41.613 6.561.898.539 1.365 1.581 1.17 2.609-.195 1.029-1.012 1.828-2.045 2-6.407 1.068-10.717 4.479-13.282 7.302 17.921-.562 29.025 10.297 29.532 10.805.715.715.929 1.79.542 2.725-.387.934-1.299 1.543-2.31 1.543-4.663 0-9.619 1.582-13.544 3.248 17.028 3.125 27.63 14.34 28.142 14.891.677.729.857 1.789.46 2.7-.397.912-1.298 1.501-2.292 1.501-4.684 0-10.348 2.312-14.606 4.465 14.35 3.466 25.465 15.215 26.008 15.797.68.728.862 1.789.466 2.702s-1.298 1.504-2.293 1.504c-8.06 0-18.075 3.177-23.918 5.321 11.346 8.101 16.506 25.751 16.748 26.598.247.867.009 1.802-.626 2.443-.634.643-1.565.89-2.437.655-7.371-2.011-16.869-2.491-22.543-2.583 5.09 9.082 1.82 20.051 1.655 20.587-.323 1.056-1.3 1.763-2.386 1.763zm-29.888-19.937c.152.12.303.244.449.376 5.076 4.573 15.179 12.262 27.51 14.28.703-3.847 1.429-12.267-4.097-17.792-.705-.704-.924-1.76-.558-2.687.367-.927 1.249-1.548 2.244-1.58.604-.019 13.273-.396 24.429 1.72-2.488-6.416-8.213-18.405-17.267-21.888-.946-.363-1.579-1.263-1.602-2.276-.023-1.014.568-1.94 1.497-2.347.61-.268 13.05-5.66 24.851-7.23-5.366-4.492-15.334-11.383-25.976-11.383-1.102 0-2.073-.721-2.393-1.775s.089-2.193 1.006-2.805c.447-.298 9.205-6.085 17.969-8.181-5.345-4.173-15.815-10.644-29.348-10.644-1.111 0-2.09-.733-2.4-1.801s.12-2.212 1.059-2.809c.405-.258 8.262-5.204 17.186-7.104-5.175-3.216-14.326-7.197-26.093-5.338-.922.148-1.854-.237-2.407-.993s-.638-1.757-.219-2.595c.198-.396 4.164-8.13 13.284-12.146-7.833-3.021-22.863-6.882-40.072-1.376-1.021.326-2.139-.033-2.774-.898-.637-.863-.65-2.037-.035-2.916.23-.329 4.172-5.881 10.49-9.943-9.276-.601-23.939-.206-36.002 6.142-.775.408-1.707.38-2.456-.071-.75-.453-1.208-1.265-1.208-2.141 0-.272.033-4.786 2.063-9.189-8.122 1.745-22.467 5.842-30.773 14.148-.676.676-1.677.909-2.579.597-.903-.31-1.551-1.106-1.669-2.055-.031-.251-.487-4.107.469-8.188-7.552 3.513-20.155 10.605-25.569 20.757-.479.898-1.47 1.408-2.47 1.31-1.014-.108-1.86-.82-2.141-1.8-.523-1.835-2.342-8.718-1.929-14.555-5.426 3.598-13.507 10.629-16.661 21.983-.256.918-1.01 1.611-1.946 1.788-.938.176-1.892-.195-2.463-.957-.119-.158-2.475-3.354-4.541-10.135-.605.868-1.256 1.917-1.894 3.156-2.091 4.06-4.475 11.053-3.962 21.311.047.943-.441 1.833-1.263 2.299-.822.465-1.835.431-2.621-.094-.358-.239-2.075-1.419-3.891-3.271.262 5.54 1.548 13.074 5.909 19.629.764-.142 1.535-.196 2.322-.169 18.895.722 28.998 13.875 37.913 25.48 4.784 6.229 9.304 12.111 14.803 15.892 16.138 11.096 36.559 10.215 36.757 10.202 25.82-1.521 45.302 3.385 54.609 6.444 1.89.624 3.453 1.896 4.46 3.618z"/><path d="m76.563 107.84c-1.264 0-2.349-.955-2.483-2.24-1.402-13.404 1.053-22.454 1.157-22.833.369-1.33 1.742-2.107 3.078-1.74 1.33.37 2.108 1.746 1.74 3.076-.04.148-2.295 8.63-1.003 20.978.144 1.373-.853 2.603-2.227 2.746-.087.009-.175.013-.262.013z"/><path d="m61.507 106.997c-.906 0-1.781-.495-2.225-1.356-3.327-6.459-3.289-13.335-3.286-13.625.016-1.371 1.132-2.472 2.499-2.472h.029c1.379.016 2.484 1.145 2.472 2.523-.001.059-.011 5.96 2.731 11.284.632 1.228.149 2.734-1.078 3.367-.366.189-.756.279-1.142.279z"/><path d="m90.737 115.606c-1.381 0-2.5-1.119-2.5-2.5 0-26.144 16.89-46.5 17.608-47.354.889-1.057 2.465-1.189 3.521-.303 1.056.889 1.192 2.465.305 3.521-.164.196-16.434 19.858-16.434 44.135 0 1.382-1.119 2.501-2.5 2.501z"/><path d="m107.758 130.5c-1.381 0-2.5-1.119-2.5-2.5 0-38.11 33.691-61.711 35.126-62.697 1.137-.781 2.69-.495 3.475.644.782 1.137.495 2.692-.641 3.477-.33.227-32.96 23.137-32.96 58.577 0 1.38-1.119 2.499-2.5 2.499z"/><path d="m130.101 141.138c-.092 0-.186-.005-.279-.016-1.372-.152-2.36-1.389-2.208-2.761 4.342-39.072 44.177-63.602 45.87-64.627 1.183-.717 2.717-.337 3.433.844.715 1.181.338 2.717-.842 3.433-.395.239-39.425 24.308-43.492 60.903-.143 1.278-1.226 2.224-2.482 2.224z"/><path d="m154.567 146.458c-.177 0-.356-.02-.536-.059-1.349-.295-2.203-1.628-1.908-2.977 7.685-35.127 39.796-44.07 41.159-44.435 1.33-.352 2.704.437 3.061 1.771.355 1.333-.437 2.702-1.769 3.06-.305.082-30.548 8.588-37.566 40.672-.256 1.17-1.291 1.967-2.441 1.968z"/><path d="m181.162 151.777c-.238 0-.479-.034-.72-.106-1.322-.396-2.072-1.79-1.676-3.113 6.764-22.547 29.787-26.084 30.764-26.224 1.375-.198 2.634.755 2.828 2.121.195 1.365-.753 2.631-2.117 2.828-.865.127-20.856 3.281-26.686 22.712-.325 1.083-1.318 1.782-2.393 1.782z"/></svg>