<svg enable-background="new 0 0 256 256" height="512" viewBox="0 0 256 256" width="512" xmlns="http://www.w3.org/2000/svg"><path d="m83.485 80.008c4.372-.297 7.468-3.824 9.03-6.108.459-.671-.032-1.565-.845-1.565-1.553 0-3.732-.638-5.503-3.59-3.218-5.363-5.363-4.291-5.363-4.291s-61.142 18.236-78.304 55.779c0 0 25.744-36.47 80.985-40.225z" fill="#f9bd55"/><path d="m253.5 105.216s-3.218-24.671-19.308-40.761l6.436-2.145s-17.162-18.235-42.906-18.235l4.291-4.291s-24.747 2.956-39.688 9.654c-12.634 5.663-25.267-3.179-37.11-10.65-7.102-4.48-15.843-5.515-23.789-2.802-7.977 2.724-14.335 8.905-17.14 16.854-1.199 3.398-2.36 7.253-3.482 11.614 0 0 2.145-1.073 5.363 4.291 1.771 2.952 3.949 3.59 5.503 3.59.813 0 1.304.894.845 1.565-1.207 1.765-3.333 4.265-6.252 5.451 1.654 2.458 5.225 6.542 11.703 8.702 9.654 3.218 13.944 10.726 13.944 10.726l2.145-3.218s9.654 15.017 12.872 24.671l3.218-3.218s11.799 27.889 37.543 32.179c25.744 4.291 31.107 18.235 31.107 18.235s4.291-1.073 6.436-3.218l4.291 3.218s4.291-1.073 7.509-5.363l5.363 3.218s0-5.363-3.218-17.162 13.944-9.654 21.453-20.38c0 0 4.291 1.073 7.509 4.291 0 0 5.363-15.017 0-28.962z" fill="#c16a44"/><path d="m163.024 148.126c1.501.44 3.055.8 4.664 1.068 14.989 2.498 23.061 8.266 27.196 12.652-3.107 3.579-6.816 4.51-6.816 4.51l-4.291-3.218c-2.145 2.145-6.436 3.218-6.436 3.218s-1.819-6.427-14.317-18.23z" fill="#c16a44"/><path d="m222.603 178.853c-1.8-4.5-2.262-10.863-4.959-16.418l-.615-.369c-3.218 4.291-7.509 5.363-7.509 5.363l-4.291-3.218c-.873.873-2.1 1.565-3.25 2.083 5.783 10.242 13.106 17.586 13.106 17.586-2.066 4.441-3.755 9.67-4.626 14.901-.614 3.687-2.577 9.74-3.463 12.373-.24.714-1.007 1.098-1.728.881-7.326-2.203-9.444-.548-12.824 2.809-.998.992-1.861 2.949-1.368 4.579.459 1.52 1.747 2.365 3.61 1.776 2.338-.739 5.661-1.523 7.965-.947 2.806.702 5.612.395 6.968.167.523-.087 1.057-.015 1.537.21 1.092.512 3.368 1.291 6.135.6 1.936-.484 3.393-.248 4.368.113.706.261 1.452-.369 1.3-1.106-1-4.863-5.668-4.863-5.668-4.863-3.904-3.904 7.263-27.736 7.263-27.736 2.929-6.832-1.951-8.784-1.951-8.784z" fill="#f9bd55"/><path d="m191.077 219.424c-.492-1.63.37-3.587 1.368-4.579.932-.926 1.77-1.716 2.647-2.338-.975-6.76 8.01-25.943 8.01-25.943 2.928-6.832-1.952-8.784-1.952-8.784-1.348-3.37-1.946-7.785-3.294-12.123-.61-.988-1.567-2.32-2.972-3.81-3.107 3.579-6.816 4.51-6.816 4.51l-4.291-3.218c-.873.873-2.1 1.566-3.25 2.083 5.783 10.242 13.106 17.586 13.106 17.586-2.066 4.441-3.755 9.67-4.626 14.901-.614 3.687-2.577 9.74-3.463 12.373-.24.714-1.007 1.098-1.728.881-7.326-2.203-9.444-.548-12.824 2.809-.998.992-1.861 2.949-1.368 4.579.459 1.52 1.747 2.365 3.61 1.776 2.338-.739 5.661-1.523 7.965-.947 2.806.702 5.611.395 6.968.167.523-.087 1.057-.015 1.537.21.412.193.992.424 1.703.6-.132-.224-.248-.463-.33-.733z" fill="#f9bd55"/><path d="m101.42 60.23c-1.377 0-2.496-1.114-2.5-2.492-.014-4.604 3.721-8.363 8.325-8.379h.026c4.594 0 8.338 3.729 8.354 8.325.005 1.381-1.111 2.504-2.491 2.509-.003 0-.006 0-.009 0-1.377 0-2.495-1.114-2.5-2.491-.006-1.846-1.51-3.343-3.354-3.343-.003 0-.007 0-.01 0-1.848.006-3.348 1.515-3.342 3.363.004 1.381-1.111 2.504-2.492 2.508-.002 0-.005 0-.007 0z"/><path d="m215.084 224.002c-2.213 0-3.98-.637-4.989-1.11-1.658.263-4.822.595-8.05-.215-1.326-.33-3.734-.003-6.604.906-1.933.611-3.374.194-4.241-.263-1.195-.631-2.089-1.758-2.517-3.174-.812-2.688.468-5.552 1.999-7.075 3.704-3.677 6.579-5.799 14.28-3.723.928-2.813 2.511-7.858 3.031-10.979.774-4.645 2.226-9.547 4.128-13.982-2.362-2.563-7.771-8.81-12.318-16.864-.346-.612-.418-1.341-.198-2.009.219-.668.708-1.212 1.35-1.501 1.407-.633 2.141-1.203 2.508-1.57.879-.879 2.271-.979 3.268-.232l3.21 2.407c1.234-.546 3.358-1.744 5.09-4.052.77-1.023 2.187-1.303 3.285-.645l.614.368c.417.25.752.615.964 1.053 1.68 3.46 2.546 7.169 3.311 10.442.452 1.936.882 3.779 1.427 5.35.871.587 2.044 1.642 2.756 3.359.962 2.322.782 5.057-.533 8.127-4.902 10.469-8.347 21.257-7.907 24.45 2.418.548 5.573 2.336 6.463 6.66.253 1.229-.187 2.503-1.145 3.325-.963.826-2.295 1.066-3.474.629-.555-.205-1.509-.378-2.893-.032-.995.25-1.94.35-2.815.35zm5.428-3.264h.011zm-10.453-2.856c.745 0 1.48.164 2.163.485.804.378 2.455.939 4.464.436.816-.204 1.624-.317 2.41-.341-.848-.578-1.741-.589-1.804-.589-.663 0-1.299-.264-1.768-.732-4.477-4.476 2.318-21.071 6.768-30.564 1.693-3.956-.086-5.154-.672-5.426-.635-.254-1.084-.734-1.338-1.369-.83-2.076-1.373-4.399-1.947-6.859-.517-2.213-1.046-4.479-1.809-6.653-3.124 2.738-6.233 3.544-6.398 3.586-.729.182-1.504.026-2.106-.426l-2.303-1.727c5.231 8.448 11.074 14.348 11.139 14.412.74.743.938 1.869.496 2.82-2.061 4.43-3.634 9.493-4.428 14.258-.626 3.757-2.499 9.606-3.56 12.759-.672 2-2.789 3.095-4.816 2.479-6.25-1.879-7.447-.687-10.343 2.188-.476.473-.91 1.508-.736 2.083.038.126.08.195.098.219-.015-.027.128-.029.364-.104 3.891-1.229 7.026-1.563 9.325-.989 2.436.61 4.969.291 5.947.128.284-.05.569-.074.854-.074zm12.463 1.113c.001 0 .003.001.004.002-.001-.001-.003-.001-.004-.002z"/><path d="m198.794 169.929c-1.013 0-1.954-.619-2.332-1.603-.202-.498-5.384-12.699-29.185-16.666-21.665-3.611-33.749-22.623-37.847-30.396l-.735.736c-.612.612-1.499.865-2.342.666-.844-.199-1.523-.821-1.798-1.643-2.194-6.583-7.608-15.944-10.576-20.841-.482.71-1.306 1.146-2.155 1.095-.866-.029-1.655-.506-2.085-1.258-.034-.059-4.001-6.74-12.564-9.595-7.261-2.421-11.253-7.103-12.986-9.678-.42-.624-.537-1.405-.316-2.125.22-.721.752-1.304 1.45-1.587 1.458-.592 2.697-1.648 3.643-2.674-1.601-.576-3.427-1.804-4.941-4.33-1.304-2.173-2.3-2.952-2.694-3.132-.725.157-1.5-.019-2.096-.499-.763-.615-1.095-1.619-.851-2.567 1.117-4.347 2.31-8.325 3.545-11.824 3.061-8.676 9.873-15.378 18.689-18.389 8.696-2.97 18.148-1.857 25.932 3.054l2.024 1.282c10.835 6.88 22.036 13.994 32.729 9.2 15.114-6.775 39.388-9.731 40.413-9.854 1.057-.123 2.08.431 2.546 1.391.465.958.272 2.106-.481 2.859l-.309.309c23.271 2.324 38.3 18.017 38.977 18.736.585.621.812 1.497.604 2.324s-.824 1.49-1.633 1.761l-2.75.916c14.169 16.339 17.182 38.312 17.311 39.295.114.88-.246 1.754-.946 2.298-.702.545-1.64.677-2.462.347l-.552-.221c2.895 12.9-1.324 24.983-1.528 25.557-.288.807-.97 1.41-1.807 1.599-.832.188-1.71-.065-2.315-.672-1.594-1.594-3.55-2.581-4.865-3.116-3.558 4.143-8.42 6.329-12.407 8.123-6.645 2.989-8.692 4.32-7.51 8.656 3.269 11.985 3.307 17.589 3.307 17.821 0 .9-.484 1.731-1.269 2.176-.782.441-1.745.432-2.518-.032l-3.556-2.133c-3.431 3.526-7.241 4.514-7.424 4.56-.729.182-1.504.026-2.106-.426l-2.759-2.068c-2.484 1.614-5.456 2.393-5.861 2.494-.205.049-.408.074-.609.074zm6.437-8.218c.524 0 1.052.165 1.499.5l3.21 2.406c1.234-.545 3.358-1.743 5.09-4.051.769-1.025 2.187-1.305 3.286-.644l1.058.635c-.426-2.709-1.201-6.609-2.611-11.778-2.406-8.824 4.335-11.856 10.282-14.532 4.289-1.93 8.725-3.925 11.535-7.939.594-.85 1.645-1.242 2.654-.992.146.037 2.702.692 5.493 2.441 1.156-5.015 2.56-14.731-.924-23.789-.357-.928-.131-1.979.577-2.677.706-.698 1.76-.912 2.685-.542l1.131.452c-1.702-7.614-6.438-23.645-17.771-34.979-.613-.612-.864-1.499-.666-2.342.199-.844.821-1.523 1.643-1.798l2.404-.801c-5.842-4.913-19.784-14.708-38.083-14.708-1.011 0-1.923-.609-2.31-1.543-.235-.567-.248-1.186-.063-1.745-8.335 1.362-22.375 4.117-32.002 8.433-13.143 5.893-26.06-2.306-37.455-9.541l-2.012-1.275c-6.496-4.099-14.387-5.029-21.648-2.55-7.359 2.512-13.041 8.097-15.59 15.32-.95 2.692-1.877 5.689-2.764 8.937 1.316.752 2.841 2.197 4.432 4.85.946 1.576 2.075 2.376 3.355 2.376h.002c1.313 0 2.508.718 3.118 1.874.605 1.148.526 2.528-.207 3.602-1.02 1.492-2.536 3.331-4.552 4.781 1.775 1.936 4.583 4.207 8.729 5.589 6.434 2.146 10.684 6.021 13.044 8.758l.176-.264c.468-.701 1.285-1.132 2.101-1.113.844.007 1.627.438 2.082 1.148.354.549 7.73 12.068 11.728 21.529l.492-.492c.587-.588 1.431-.843 2.246-.687.816.159 1.5.714 1.824 1.48.112.264 11.604 26.679 35.651 30.688 21.047 3.507 29.246 13.305 31.922 17.674 1.204-.464 2.628-1.146 3.441-1.959.484-.484 1.125-.732 1.768-.732zm-123.309-95.02c-.001 0-.002.001-.004.001.002 0 .003-.001.004-.001z"/><path d="m177.34 168.857c-1.093 0-2.093-.722-2.403-1.82-.01-.028-2.004-6.116-13.629-17.094-.84-.793-1.026-2.06-.451-3.062s1.76-1.479 2.871-1.155c1.431.42 2.902.757 4.372 1.002 15.656 2.609 24.196 8.729 28.604 13.403.881.935.91 2.385.068 3.354-3.582 4.124-7.911 5.249-8.094 5.295-.73.187-1.506.028-2.109-.425l-2.759-2.068c-2.484 1.614-5.456 2.393-5.861 2.494-.204.052-.408.076-.609.076zm6.438-8.218c.524 0 1.052.165 1.499.5l3.208 2.406c.719-.318 1.737-.856 2.803-1.704-3.87-3.436-10.281-7.307-20.634-9.537 4.604 5.059 6.926 8.747 8.068 10.966 1.169-.461 2.509-1.12 3.286-1.898.486-.485 1.126-.733 1.77-.733z"/><path d="m172.099 222.817c-1.006 0-1.797-.277-2.353-.57-1.195-.631-2.088-1.758-2.516-3.173-.812-2.69.468-5.554 2-7.075 3.702-3.679 6.571-5.801 14.28-3.724.927-2.815 2.511-7.862 3.03-10.979.774-4.644 2.226-9.546 4.128-13.981-2.362-2.563-7.771-8.81-12.318-16.864-.346-.612-.418-1.341-.198-2.009.219-.668.708-1.212 1.35-1.501 1.407-.633 2.141-1.203 2.508-1.57.879-.879 2.271-.979 3.268-.232l3.208 2.406c1.102-.487 2.909-1.493 4.511-3.338.463-.533 1.13-.846 1.837-.859.701-.055 1.385.271 1.87.784 1.627 1.726 2.682 3.243 3.28 4.212.11.179.198.371.261.571.613 1.977 1.067 3.918 1.506 5.796.452 1.936.883 3.78 1.428 5.352.871.587 2.044 1.643 2.756 3.359.962 2.322.782 5.057-.533 8.127-3.385 7.232-8.466 20.22-7.834 24.602.134.928-.264 1.854-1.028 2.396-.707.501-1.443 1.191-2.331 2.073-.475.471-.908 1.503-.737 2.079.015.048.045.109.091.188.512.867.453 1.956-.148 2.763-.602.806-1.627 1.177-2.604.934-.756-.187-1.483-.443-2.165-.763-1.664.259-4.83.589-8.051-.216-1.326-.33-3.733-.003-6.604.906-.697.219-1.329.306-1.892.306zm6.213-10.367c-2.441 0-3.619 1.17-5.558 3.096-.476.473-.91 1.508-.736 2.083.038.126.08.195.098.219-.015-.027.128-.029.366-.104 3.89-1.23 7.027-1.563 9.324-.988 2.342.586 4.732.331 5.947.126.291-.049.605-.087.871-.071.355-1.502 1.164-2.849 2.059-3.738.655-.65 1.252-1.221 1.844-1.727.071-8.006 7.421-23.938 8.312-25.841 1.693-3.955-.086-5.154-.672-5.426-.636-.254-1.084-.734-1.338-1.369-.83-2.077-1.373-4.401-1.948-6.861-.395-1.688-.802-3.433-1.317-5.139-.221-.343-.502-.751-.851-1.209-2.999 2.494-5.887 3.244-6.035 3.281-.73.187-1.506.028-2.109-.425l-2.303-1.727c5.231 8.448 11.074 14.348 11.139 14.412.74.743.938 1.869.496 2.82-2.061 4.43-3.633 9.493-4.428 14.257-.625 3.752-2.498 9.604-3.56 12.76-.672 2.001-2.787 3.091-4.816 2.478-2.066-.622-3.58-.907-4.785-.907z"/><path d="m204.056 125.412c-.27 0-.541-.044-.805-.133-11.991-4.076-23.395-9.665-33.955-16.638l-.389 3.694c-.091.859-.619 1.611-1.396 1.988-.779.376-1.696.325-2.427-.138-16.878-10.679-23.131-30.991-23.389-31.851-.396-1.322.354-2.717 1.676-3.113 1.325-.397 2.716.353 3.113 1.675.073.242 5.144 16.566 17.897 26.666l.38-3.603c.093-.881.645-1.647 1.451-2.014.805-.366 1.746-.28 2.472.229 9.979 7.004 20.794 12.695 32.201 16.951-.037-.657-.04-1.318-.012-1.981.033-.735.389-1.42.972-1.87.585-.449 1.339-.619 2.057-.463 10.139 2.198 20.88 2.304 31.062.301 1.353-.265 2.669.614 2.936 1.971.267 1.354-.616 2.669-1.971 2.936-9.78 1.923-20.051 2.021-29.896.304.1.636.24 1.265.422 1.886.262.896.004 1.862-.67 2.508-.473.453-1.096.695-1.729.695z"/><path d="m2.498 122.732c-.424 0-.853-.107-1.244-.333-1.119-.643-1.564-2.032-1.027-3.206 7.352-16.082 23.06-30.595 46.689-43.137 16.934-8.987 31.646-13.535 33.079-13.969 1.165-.423 4.55-.905 8.315 5.371.946 1.576 2.075 2.376 3.355 2.376h.002c1.313 0 2.508.718 3.118 1.874.605 1.148.526 2.528-.207 3.602-1.728 2.526-5.442 6.819-10.925 7.191-53.437 3.632-78.861 38.817-79.112 39.172-.482.686-1.255 1.059-2.043 1.059zm78.844-55.827c-2.663.825-34.063 10.837-56.907 29.997 13.543-8.953 33.007-17.63 58.881-19.389h.001c2.339-.159 4.277-1.655 5.652-3.151-1.602-.575-3.429-1.803-4.945-4.331-1.291-2.15-2.28-2.936-2.682-3.126zm.573-.211c-.001.001-.002.001-.004.002.002-.001.003-.001.004-.002zm.007-.003c-.001 0-.003.001-.005.002.002-.001.004-.002.005-.002z"/></svg>