<svg enable-background="new 0 0 256 256" height="512" viewBox="0 0 256 256" width="512" xmlns="http://www.w3.org/2000/svg"><g fill="#7ed5fc"><path d="m158.105 222.552c-8.619 1.84-16.766 2.823-24.419 3.131 5.169 5.755 11.628 10.994 19.714 15.21 3.77 1.966 8.124-1.952 7.066-6.417-.799-3.37-1.639-7.406-2.361-11.924z"/><path d="m249.411 2.5s-10.423 61.021-55.512 43.392c0 0 14.198 22.185 33.733 22.946 0 0 6.091 58.709-31.283 67.74-38.682 9.347-82.914-6.587-82.914-6.587s-25.865-10.753-65.209 2.334c0 0-85.446-3.179-22.732 43.413l6.082 4.519c2.803 2.083 6.173 3.247 9.664 3.346 10.309.292 33.169-.05 52.265-7.349 1.525-.583 2.793 1.267 1.713 2.491-5.067 5.74-16.288 15.207-37.531 19.431-2.045.407-2.685 3.028-1.042 4.312 13.133 10.271 57.762 38.478 126.038 12.797 10.157 6.14 22.667 10.4 37.715 10.104 4.251-.083 6.192-5.609 3.122-9.019-3.713-4.125-8.337-9.714-12.939-16.388 52.124-40.417 39.617-117.97 28.408-136.46-.001-.001 23.821-27.793 10.422-61.022z"/><path d="m221.85 113.222c3.047-7.243 4.641-15.122 5.433-22.209-25.023-4.359-11.487 14.774-5.433 22.209z"/><path d="m113.436 129.99s19.307 6.95 43.561 8.975c4.659-12.593 10.533-23.342 15.109-30.743 2.805-4.536-.969-10.266-6.104-9.364-24.899 4.372-41.848 17.196-53.199 30.891.414.152.633.241.633.241z"/></g><path d="m151.318 182.401c-10.427-.779-19.302-2.539-25.083-3.936-3.971-.96-7.255-3.626-9.219-7.208-7.299-13.311-24.15-7.883-24.15-7.883-26.138 3.855-53.016-5.534-67.137-10.735-12.886-4.747-21.177-1.415-22.532-.794 2.021 5.971 8.647 13.753 22.297 23.894l6.082 4.519c2.803 2.083 6.173 3.247 9.664 3.346 10.309.292 33.169-.05 52.265-7.349 1.525-.583 2.793 1.267 1.713 2.491-5.067 5.74-16.288 15.207-37.531 19.431-2.045.407-2.685 3.028-1.042 4.312 13.133 10.271 57.762 38.478 126.038 12.797-16.195-9.792-26.403-24.363-31.365-32.885z" fill="#e3e4e5"/><path d="m197.792 177.023c3.624 8.527 8.185 16.281 12.779 22.945 28.877-22.396 37.932-56.178 38.341-85.011-8.559 36.356-28.963 54.089-51.12 62.066z" fill="#e3e4e5"/><path d="m77.678 147.135c-1.216 0-2.282-.889-2.469-2.127-.83-5.504 2.973-10.655 8.476-11.484 5.496-.843 10.654 2.972 11.485 8.475.206 1.365-.734 2.639-2.099 2.845-1.371.205-2.64-.733-2.845-2.099-.418-2.777-3.015-4.687-5.795-4.277-2.776.419-4.695 3.019-4.276 5.795.206 1.366-.734 2.64-2.1 2.845-.127.018-.253.027-.377.027z"/><path d="m28.858 144.938c-1.103 0-2.112-.735-2.413-1.851-.359-1.333.431-2.705 1.764-3.064l1.49-.401c1.338-.356 2.706.432 3.064 1.764.359 1.333-.431 2.705-1.764 3.064l-1.49.401c-.217.058-.436.087-.651.087z"/><path d="m61.774 199.767c-.459 0-.915-.127-1.312-.372-.57-.352-.975-.917-1.125-1.569-1.449-6.322-.218-11.004 3.212-12.22 3.49-1.24 7.572 1.865 10.394 7.901.297.635.313 1.365.046 2.014-.268.647-.795 1.153-1.455 1.394-3.01 1.098-6.009 2.007-9.167 2.78-.195.048-.394.072-.593.072zm2.461-9.402c-.266.402-.618 1.655-.437 3.787 1.096-.306 2.177-.632 3.251-.98-1.228-1.848-2.344-2.654-2.814-2.807z"/><path d="m76.278 191.361c-3.185 0-6.091-3.268-7.701-8.747-.204-.694-.098-1.442.292-2.052.389-.608 1.023-1.02 1.738-1.126 3.019-.449 5.991-.998 8.834-1.63.731-.163 1.496.011 2.085.474.589.462.94 1.164.957 1.912.137 6.336-1.976 10.596-5.516 11.118-.23.035-.46.051-.689.051zm.326-2.524h.01zm-2.2-4.945c.738 1.488 1.467 2.225 1.828 2.423.297-.303.796-1.252 1.068-2.954-.956.186-1.923.363-2.896.531z"/><path d="m51.333 195.04c-3.612 0-6.865-4.239-8.231-10.866-.152-.737.037-1.505.514-2.088.475-.58 1.185-.917 1.935-.917.203.035.411.001.617.001 2.875 0 5.808-.072 8.728-.215.672-.025 1.316.203 1.808.651.492.449.784 1.075.812 1.741.273 6.539-1.884 11.109-5.498 11.643-.229.033-.458.05-.685.05zm-2.486-8.89c.867 2.318 1.913 3.571 2.432 3.846.348-.358.976-1.637 1.188-3.936-1.21.043-2.418.072-3.62.09z"/><path d="m155.48 243.907c-1.105 0-2.211-.263-3.235-.797-7.821-4.077-14.69-9.379-20.418-15.756-.647-.721-.82-1.751-.443-2.643.376-.893 1.234-1.487 2.202-1.526 7.839-.317 15.913-1.353 23.998-3.079.672-.138 1.371-.004 1.936.384.565.387.947.99 1.055 1.667.63 3.939 1.412 7.891 2.325 11.743.747 3.154-.404 6.464-2.932 8.432-1.341 1.042-2.914 1.575-4.488 1.575zm-16.193-16.058c4.498 4.249 9.615 7.88 15.27 10.828 1.023.531 1.905.048 2.34-.291.75-.584 1.499-1.808 1.138-3.333-.743-3.133-1.401-6.329-1.965-9.532-5.632 1.104-11.249 1.882-16.783 2.328z"/><path d="m128.339 228.309c-10.206 0-20.195-1.169-29.938-3.51-21.708-5.215-36.445-14.983-43.297-20.341-1.536-1.202-2.208-3.127-1.756-5.025.454-1.906 1.93-3.327 3.852-3.709 17.351-3.45 27.731-10.512 33.35-15.767-18.201 6.006-38.481 6.458-49.38 6.145-4.025-.114-7.858-1.441-11.084-3.838l-6.082-4.519c-18.771-13.945-26.412-24.942-23.362-33.619 5.265-14.977 41.209-14.503 47.223-14.315 20.541-6.76 37.398-7.026 47.951-6.05 11.142 1.029 17.734 3.579 18.511 3.893 1.624.573 44.486 15.419 81.435 6.495 31.009-7.493 30.145-52.718 29.537-62.985-19.412-2.234-32.919-23.007-33.505-23.923-.584-.912-.514-2.097.173-2.934.686-.837 1.833-1.139 2.843-.742 10.694 4.182 20.178 4.007 28.192-.517 18.508-10.449 23.894-40.666 23.945-40.97.189-1.102 1.087-1.944 2.198-2.063 1.106-.127 2.166.514 2.585 1.551 12.26 30.403-5 56.011-9.734 62.197 5.885 11.11 10.882 35.043 9.031 59.951-1.691 22.763-9.533 54.323-37.049 76.76 4.362 6.122 8.547 11.054 11.399 14.223 2.169 2.409 2.747 5.865 1.472 8.805-1.149 2.651-3.603 4.333-6.403 4.388-13.583.266-26.351-3.045-38.012-9.844-18.524 6.836-36.622 10.262-54.095 10.263zm-70.045-27.705c47.197 36.806 106.458 18.755 123.508 12.342.716-.27 1.518-.195 2.174.2 11.12 6.721 23.354 10.026 36.372 9.743 1.155-.022 1.695-.872 1.914-1.377.378-.872.448-2.305-.601-3.47-3.243-3.602-8.154-9.413-13.14-16.642-.753-1.092-.522-2.582.526-3.395 50.819-39.405 38.523-115.502 27.802-133.188-.56-.924-.463-2.103.24-2.923.206-.241 18.789-22.46 12.612-50.096-3.156 10.552-10.221 27.678-24.228 35.595-7.361 4.16-15.668 5.229-24.776 3.206 5.493 6.291 15.339 15.285 27.032 15.74 1.243.049 2.261 1.003 2.39 2.24.063.614 1.525 15.237-1.662 31.229-4.325 21.706-15.225 35.261-31.521 39.198-9.065 2.19-18.386 3.037-27.364 3.037-29.612.002-55.576-9.195-56.984-9.702-.038-.014-.075-.028-.112-.044-.059-.024-6.414-2.599-17.364-3.582-10.103-.905-26.3-.604-46.097 5.979-.284.095-.587.135-.881.126-14.85-.543-39.606 1.945-42.775 10.964-2.135 6.074 5.546 15.998 21.626 27.945l6.082 4.519c2.398 1.782 5.249 2.769 8.244 2.854 9.1.255 32.312.073 51.301-7.185 1.777-.679 3.696-.087 4.776 1.472 1.086 1.564.967 3.578-.296 5.009-4.985 5.649-16.648 15.774-38.798 20.206z"/><path d="m218.966 227.902c-20.921 0-40.176-8.75-55.776-25.37-11.985-12.769-17.54-25.503-17.771-26.039-.545-1.268.04-2.736 1.307-3.283 1.271-.545 2.739.039 3.286 1.305.211.489 21.462 48.389 68.94 48.389.465 0 .926-.005 1.396-.014 1.155-.023 1.695-.873 1.914-1.378.378-.872.448-2.305-.601-3.47-8.852-9.832-24.643-29.903-30.953-53.861-.352-1.335.445-2.702 1.781-3.055 1.338-.35 2.703.446 3.054 1.781 6.042 22.938 21.285 42.294 29.833 51.789 2.169 2.409 2.747 5.865 1.472 8.805-1.15 2.651-3.603 4.333-6.403 4.388-.492.008-.988.013-1.479.013z"/><path d="m128.339 228.309c-10.206 0-20.195-1.169-29.938-3.51-21.708-5.215-36.445-14.983-43.297-20.341-1.536-1.202-2.208-3.127-1.756-5.025.454-1.906 1.93-3.327 3.852-3.709 17.351-3.45 27.731-10.512 33.35-15.767-18.201 6.006-38.481 6.458-49.38 6.145-4.025-.113-7.858-1.441-11.084-3.838l-6.082-4.519c-13.197-9.805-20.777-18.015-23.175-25.1-.411-1.214.163-2.542 1.329-3.075 1.673-.766 10.72-4.332 24.437.722 11.765 4.333 39.272 14.472 65.711 10.637 6.595-2.047 20.413-2.71 26.903 9.126 1.664 3.033 4.439 5.213 7.614 5.98 5.542 1.34 14.323 3.099 24.682 3.873.821.062 1.56.523 1.974 1.235 4.552 7.817 14.567 22.37 30.497 32.002.819.496 1.284 1.416 1.196 2.369-.088.954-.713 1.773-1.609 2.11-18.918 7.117-37.397 10.685-55.224 10.685zm-70.045-27.705c43.527 33.943 97.312 21.229 118.789 14.019-13.688-9.558-22.653-22.165-27.255-29.831-10.126-.844-18.69-2.569-24.179-3.896-4.54-1.096-8.485-4.171-10.824-8.436-6.202-11.31-20.588-6.898-21.197-6.705-.128.041-.264.073-.396.093-27.761 4.086-56.214-6.387-68.366-10.863-8.674-3.194-15.067-2.458-18.31-1.639 2.9 5.612 9.755 12.456 20.43 20.387l6.082 4.519c2.398 1.782 5.249 2.769 8.244 2.854 9.1.255 32.312.073 51.301-7.185 1.777-.679 3.696-.087 4.776 1.472 1.086 1.564.967 3.578-.296 5.009-4.986 5.645-16.649 15.77-38.799 20.202z"/><path d="m210.571 202.468c-.127 0-.255-.01-.383-.029-.679-.105-1.285-.485-1.675-1.052-5.333-7.733-9.713-15.602-13.021-23.386-.269-.633-.266-1.348.01-1.978.275-.631.797-1.119 1.444-1.353 25.623-9.225 42.288-29.509 49.533-60.287.292-1.241 1.468-2.069 2.74-1.908 1.266.156 2.212 1.241 2.193 2.517-.302 21.323-5.812 60.973-39.309 86.951-.441.342-.981.525-1.532.525zm-9.43-24.036c2.698 5.953 6.046 11.952 9.984 17.893 21.064-17.356 29.809-40.647 33.245-59.89-9.073 20.146-23.549 34.224-43.229 41.997z"/><path d="m221.849 115.722c-.745 0-1.459-.334-1.938-.921-8.516-10.458-11.437-18.144-8.683-22.845 2.244-3.834 7.635-4.949 16.484-3.405 1.302.227 2.202 1.428 2.055 2.741-.966 8.638-2.854 16.342-5.613 22.899-.34.809-1.08 1.38-1.949 1.505-.119.017-.238.026-.356.026zm-.955-22.845c-4.005 0-5.083 1.147-5.351 1.606-1.032 1.761.391 6.561 5.551 13.667 1.526-4.521 2.668-9.553 3.41-15.026-1.411-.175-2.604-.247-3.61-.247z"/><path d="m156.998 141.466c-.069 0-.139-.003-.209-.009-24.303-2.029-43.399-8.826-44.2-9.114-.035-.013-.07-.026-.104-.04-.032-.014-.215-.087-.535-.202-.765-.278-1.347-.91-1.56-1.695-.213-.784-.031-1.624.488-2.251 14.26-17.205 32.661-27.89 54.691-31.758 3.319-.59 6.568.805 8.476 3.619 1.959 2.893 2.03 6.541.187 9.521-4.182 6.764-10.16 17.511-14.891 30.296-.365.987-1.305 1.633-2.343 1.633zm-39.881-12.893c5.968 1.879 20.721 6.071 38.211 7.733 4.756-12.384 10.546-22.759 14.651-29.398.806-1.303.778-2.831-.074-4.088-.799-1.18-2.095-1.733-3.472-1.5-19.617 3.446-36.191 12.608-49.316 27.253z"/></svg>