<svg enable-background="new 0 0 256 256" height="512" viewBox="0 0 256 256" width="512" xmlns="http://www.w3.org/2000/svg"><g fill="#f98080"><path d="m196.875 142.182c-1.613-8.365-10.23-44.336-42.005-64.385-12.188-7.69-27.148-9.677-40.882-5.312-.289.092-.58.186-.871.282-11.009 3.624-19.332 13.062-20.89 24.547-.975 7.182.65 15.219 8.772 22.059 18.28 15.393 47.818 18.662 53.532 19.161.527.046.974-.371.974-.9v-3.161c0-.602.579-1.036 1.157-.866l16.224 4.772c.447.132.92-.099 1.093-.531l1.468-3.671c.196-.49.769-.708 1.241-.472l18.896 9.448c.668.334 1.433-.237 1.291-.971z"/><path d="m195.172 142.947-18.484-9.242c-.472-.236-1.045-.018-1.241.472l-1.468 3.671c-.173.432-.646.662-1.093.531l-16.224-4.772c-.578-.17-1.157.264-1.157.866v3.161c0 .307-.159.563-.388.726 7.348 3.929 17.851 10.367 23.637 17.663.443.558 1.333.255 1.333-.458v-2.865c0-.577.62-.938 1.12-.65 2.751 1.587 10.093 6.287 16.645 14.547.456.575 1.382.226 1.33-.506-.322-4.544-1.303-14.609-4.01-23.144z"/><path d="m100.999 119.373c-8.122-6.84-9.747-14.877-8.772-22.059.823-6.065 3.547-11.548 7.542-15.917-11.677 7.587-18.542 17.136-18.542 17.136-4.275-4.275-6.412-19.237 19.237-38.475 23.665-17.749 9.04-43.23 6.238-47.067-.216-.296-.4-.606-.543-.943-.751-1.766-4.266-6.919-13.711-9.168-11.221-2.672-18.168 9.619-18.168 9.619s12.035 11.682 5.064 12.751c1.401 2.343 5.721 6.81 14.708 3.815 10.688 21.374-26.718 27.787-33.131 54.505s17.1 36.337 17.1 36.337c8.211 6.05 20.962 11.224 32.888 14.537 4.8 1.333 8.866 4.493 11.405 8.779 2.24 3.781 5.326 7.086 9.144 6.609 5.822-.728 4.955-6.656 3.808-10.366-.177-.574.239-1.163.838-1.21 2.453-.195 4.196-.748 4.954-1.712-11.749-2.347-28.249-7.226-40.059-17.171z"/><path d="m122.314 143.223c-2.54-4.286-6.605-7.446-11.405-8.779-1.201-.334-2.411-.691-3.623-1.061-.262 1.477-.408 3.052-.408 4.693 0 8.263 3.589 14.962 8.016 14.962 3.432 0 6.352-4.034 7.495-9.695-.026-.04-.051-.079-.075-.12z"/></g><path d="m74.28 12.499s-24.072 7.369-15.692 25.875c.426.942 1.77.965 2.193.021 1.907-4.259 7.02-12.673 17.774-13.071 8.611-.319-4.275-12.825-4.275-12.825z" fill="#f9bd55"/><path d="m67.09 29.767c-1.064-4.752-4.505-7.314-6.61-8.47-3.404 4.078-5.238 9.687-1.891 17.077.426.942 1.77.965 2.193.021 1.031-2.304 3.013-5.819 6.308-8.628z" fill="#52565b"/><path d="m59.702 41.592c-1.459 0-2.789-.857-3.392-2.186-2.478-5.473-2.653-10.637-.524-15.35 4.41-9.764 17.219-13.782 17.763-13.948.868-.266 1.818-.039 2.473.597 3.572 3.467 9.323 9.915 7.701 14.141-.496 1.29-1.778 2.854-5.074 2.977-9.196.34-13.712 7.41-15.585 11.595-.601 1.339-1.885 2.172-3.354 2.175-.003-.001-.006-.001-.008-.001zm13.926-26.201c-3.107 1.218-10.565 4.681-13.292 10.739-1.192 2.649-1.347 5.469-.459 8.559 2.745-4.731 8.425-11.487 18.586-11.862.211-.008.377-.025.505-.045-.37-1.435-2.637-4.566-5.34-7.391z"/><path d="m195.994 145.753c-.519 0-1.041-.12-1.528-.363l-17.343-8.672-.823 2.059c-.654 1.638-2.429 2.497-4.117 2.002l-14.178-4.171v1.026c0 .955-.403 1.871-1.106 2.514-.7.641-1.646.957-2.589.876-5.86-.511-36.072-3.865-54.921-19.738-7.596-6.396-10.93-14.802-9.64-24.307 1.653-12.178 10.519-22.613 22.587-26.586l.896-.29c14.424-4.584 30.087-2.551 42.973 5.58 32.935 20.78 41.702 58.646 43.126 66.026.246 1.278-.245 2.562-1.282 3.348-.609.461-1.328.696-2.055.696zm-19.71-14.643c.523 0 1.046.12 1.522.358l15.911 7.956c-2.718-11.381-12.356-41.956-40.182-59.514-11.636-7.342-25.773-9.183-38.791-5.043l-.847.274c-10.263 3.378-17.798 12.213-19.194 22.508-1.063 7.833 1.597 14.498 7.905 19.811 16.3 13.727 42.055 17.517 50.396 18.411v-1.399c0-1.065.509-2.083 1.361-2.723.852-.639 1.973-.842 2.997-.543l14.834 4.363.928-2.321c.354-.882 1.064-1.58 1.951-1.917.39-.147.8-.221 1.209-.221zm-21.541 4.932c.002 0 .004.001.005.001-.001 0-.003-.001-.005-.001z"/><path d="m87.419 18.631c-1.377 0-2.495-1.114-2.5-2.492-.012-3.467 2.801-6.297 6.27-6.309 1.691-.038 3.26.644 4.452 1.827 1.191 1.184 1.851 2.761 1.856 4.441.005 1.38-1.111 2.503-2.492 2.508-.002 0-.005 0-.008 0-1.377 0-2.495-1.114-2.5-2.492-.001-.344-.137-.667-.381-.91-.243-.241-.565-.374-.907-.374-.002 0-.003 0-.005 0-.711.002-1.287.582-1.285 1.293.005 1.38-1.111 2.503-2.492 2.508-.002 0-.005 0-.008 0z"/><path d="m198.434 169.387c-.969 0-1.906-.437-2.54-1.233-4.759-5.999-9.926-10.028-13.32-12.302-.111 1.262-.951 2.356-2.16 2.778-1.305.453-2.758.031-3.618-1.053-5.452-6.876-15.438-13.047-22.856-17.013-.763-.408-1.261-1.181-1.316-2.044-.034-.535.104-1.059.383-1.498v-2.55c0-1.065.509-2.083 1.361-2.723.852-.639 1.973-.842 2.997-.543l14.834 4.363.928-2.321c.354-.882 1.064-1.58 1.951-1.917.886-.339 1.882-.288 2.73.137l18.483 9.242c.604.303 1.061.836 1.265 1.48 2.734 8.617 3.755 18.562 4.12 23.724.101 1.425-.726 2.73-2.056 3.247-.389.152-.79.226-1.186.226zm-17.602-19.936c.562 0 1.124.146 1.625.436 2.435 1.404 8.031 4.973 13.729 10.983-.521-4.57-1.455-10.663-3.089-16.166l-15.974-7.986-.823 2.059c-.654 1.638-2.429 2.492-4.117 2.002l-14.178-4.171v.476c6.443 3.558 14.271 8.53 19.894 14.228.279-.589.732-1.092 1.312-1.427.5-.289 1.06-.434 1.621-.434zm-27.167-13.127c-.001.001-.002.001-.003.002.001-.001.002-.001.003-.002z"/><path d="m130.738 152.377c-2.902 0-6.814-1.534-10.574-7.879-2.236-3.773-5.762-6.489-9.925-7.645-13.576-3.771-25.758-9.148-33.483-14.774-2.921-1.345-24.678-12.375-18.266-39.092 3.108-12.951 12.808-21.214 21.366-28.505 10.064-8.572 15.855-14.076 12.778-22.423-7.819 1.789-13.054-1.542-15.436-5.525-.427-.714-.471-1.595-.116-2.348.354-.753 1.06-1.28 1.883-1.406-.419-1.623-3.266-5.419-6.426-8.486-.815-.792-.994-2.034-.436-3.024.08-.141 1.987-3.479 5.409-6.465 4.743-4.137 10.108-5.644 15.516-4.355 11.805 2.811 15.096 9.83 15.432 10.621.06.14.146.287.263.447 2.061 2.823 6.232 10.533 7.27 19.504.996 8.613-.63 20.989-14.027 31.037-17.311 12.981-20.472 23.03-20.815 27.864-.118 1.665.063 3.075.401 4.205 3.012-3.525 8.809-9.599 16.854-14.827 1.056-.684 2.455-.48 3.27.48.813.96.787 2.375-.062 3.304-3.79 4.143-6.18 9.18-6.91 14.565-1.063 7.833 1.597 14.498 7.905 19.811 11.394 9.595 27.464 14.34 38.938 16.631.853.17 1.555.771 1.856 1.585.301.815.156 1.729-.381 2.412-.962 1.224-2.568 2.025-4.883 2.432.824 3.582.557 6.457-.803 8.562-.812 1.258-2.438 2.84-5.569 3.23-.325.041-.669.064-1.029.064zm-36.686-125.813c.925 0 1.803.516 2.236 1.382 6.699 13.399-3.411 22.013-13.189 30.343-7.978 6.795-17.019 14.498-19.747 25.864-2.458 10.242-.577 18.973 5.588 25.949 4.637 5.246 9.975 7.469 10.027 7.491.19.077.371.179.537.301 7.242 5.337 18.933 10.491 32.073 14.141 5.413 1.503 9.99 5.024 12.888 9.914 1.57 2.649 4.005 5.729 6.683 5.402 1.321-.165 1.769-.64 1.989-.981.697-1.079.6-3.385-.26-6.166-.301-.977-.154-2.018.4-2.872-10.988-2.831-23.99-7.711-33.889-16.047-7.596-6.396-10.93-14.802-9.64-24.307.255-1.876.678-3.714 1.261-5.499-4.94 4.642-7.71 8.453-7.753 8.512-.428.596-1.096.974-1.827 1.033-.73.053-1.451-.206-1.97-.725-2.408-2.407-3.609-6.318-3.296-10.73.493-6.944 4.849-18.048 22.801-31.512 23.601-17.7 5.904-43.339 5.719-43.594-.344-.472-.613-.941-.824-1.437-.023-.056-2.41-5.435-11.989-7.716-7.124-1.693-12.285 3.983-14.386 6.865 3.382 3.528 7.487 8.767 6.316 12.433-.112.35-.306.794-.638 1.239 1.748 1.382 4.888 2.584 10.098.844.262-.086.529-.127.792-.127z"/><path d="m97.261 256c-.808 0-1.601-.391-2.082-1.113-.766-1.148-.456-2.701.693-3.467l3.206-2.138c.521-.347 1.154-.485 1.767-.391l11.014 1.694v-97.548c0-1.381 1.119-2.5 2.5-2.5s2.5 1.119 2.5 2.5v100.463c0 .729-.318 1.423-.872 1.897-.553.475-1.29.686-2.008.573l-12.935-1.99-2.398 1.6c-.426.284-.909.42-1.385.42z"/><path d="m114.893 155.538c-5.995 0-10.516-7.507-10.516-17.462 0-1.73.15-3.457.446-5.13.125-.704.546-1.321 1.156-1.695.611-.374 1.353-.468 2.036-.259 1.191.363 2.383.715 3.562 1.044 5.412 1.502 9.989 5.023 12.887 9.913.001.002.002.003.003.005.011.018.064.104.068.111.317.533.425 1.165.302 1.773-1.434 7.107-5.337 11.7-9.944 11.7zm-5.474-18.916c-.027.482-.042.968-.042 1.454 0 7.721 3.213 12.462 5.516 12.462 1.583 0 3.734-2.355 4.831-6.743-2.245-3.408-5.584-5.858-9.484-6.941-.273-.077-.547-.154-.821-.232z"/><path d="m79.623 237.297c-.872 0-1.688-.456-2.143-1.214l-6.412-10.688c-.66-1.101-.38-2.522.648-3.29l69.882-52.149-10.412-19.467c-.651-1.217-.192-2.731 1.025-3.383 1.214-.651 2.732-.193 3.383 1.025l11.427 21.362c.584 1.09.282 2.442-.709 3.183l-69.794 52.085 4.442 7.403 4.314-.392c1.375-.132 2.592.888 2.716 2.263.125 1.375-.888 2.592-2.263 2.716l-5.878.534c-.075.009-.151.012-.226.012z"/><path d="m59.702 41.592c-1.459 0-2.789-.857-3.392-2.186-3.267-7.218-2.489-14.033 2.25-19.711.766-.92 2.076-1.165 3.122-.59 2.377 1.306 6.557 4.354 7.847 10.114.203.905-.112 1.848-.817 2.449-3.069 2.617-4.856 5.978-5.648 7.748-.601 1.339-1.885 2.172-3.354 2.175-.003.001-.006.001-.008.001zm1.39-16.882c-1.854 3.031-2.257 6.324-1.216 9.969 1.053-1.822 2.48-3.84 4.373-5.699-.733-1.923-1.978-3.313-3.157-4.27z"/></svg>