<svg id="Capa_1" enable-background="new 0 0 512 512" height="512" viewBox="0 0 512 512" width="512" xmlns="http://www.w3.org/2000/svg"><g><g><path d="m299.11 504.5h-117.527l58.764-97.38z" fill="#5c586f"/><path d="m369.288 504.5h-70.178c-23.305-30.348-51.69-71.049-58.764-97.379-7.073 26.331-35.458 67.031-58.764 97.379h-70.178c0-88.909 58.409-128.709 58.409-128.709h141.065c.001 0 58.41 39.799 58.41 128.709z" fill="#ff889e"/><path d="m421.651 120.054c2.524.593 5.014 1.349 7.452 2.29 26.761 10.324 47.496-9.737 59.915-27.71 5.567-8.057 1.19-18.986-8.308-21.373-12.576-3.161-23.558-13.183-30.908-21.582-4.529-5.177-8.336-10.917-11.851-16.829-15.401-25.908-49.153-35.382-76.194-19.799-9.7 5.59-17.135 13.755-21.892 23.188z" fill="#e27858"/><path d="m411.76 219.516h35.418c0-30.895-6.81-60.221-19.004-86.572-32.818-70.937-104.676-120.269-187.827-120.269s-155.01 49.332-187.827 120.269c-12.194 26.351-19.004 55.677-19.004 86.572h35.418z" fill="#e7886e"/><path d="m98.332 209.284c0-80.613 41.21-151.591 103.704-193.049-66.491 12.505-121.864 56.936-149.516 116.71-12.194 26.351-19.004 55.677-19.004 86.572h35.418 29.636c-.148-3.394-.238-6.803-.238-10.233z" fill="#e27858"/><g><circle cx="411.764" cy="229.634" fill="#ffbe9c" r="48.403"/></g><path d="m150.196 463.402c0-35.233 16.005-66.726 41.138-87.612h-21.52s-58.409 39.8-58.409 128.709h43.17c-3.083-12.749-4.379-26.605-4.379-41.097z" fill="#ff748f"/><path d="m388.323 132.944h-56.385l-24.246-36.916-24.246 36.916h-86.197l-24.246-36.916-24.246 36.916h-56.387c-14.896 25.41-23.437 54.989-23.437 86.572 0 94.667 76.746 171.413 171.413 171.413s171.414-76.745 171.414-171.413c0-31.583-8.541-61.162-23.437-86.572z" fill="#ffd3bc"/><path d="m283.202 397.102c-4.68-2.581-6.95-8.059-5.466-13.194l.005-.017c2.5-8.652-5.514-16.666-14.166-14.166l-.017.005c-5.135 1.484-10.612-.786-13.193-5.466-4.35-7.888-15.686-7.888-20.036 0-2.581 4.68-8.059 6.95-13.193 5.466l-.017-.005c-8.652-2.5-16.666 5.514-14.166 14.166l.005.017c1.484 5.135-.786 10.612-5.466 13.193-7.888 4.35-7.888 15.686 0 20.036 4.68 2.581 6.95 8.059 5.466 13.193l-.005.017c-2.5 8.652 5.514 16.666 14.166 14.166l.017-.005c5.135-1.484 10.612.786 13.193 5.466 4.35 7.888 15.686 7.888 20.036 0 2.581-4.68 8.059-6.95 13.193-5.466l.017.005c8.652 2.5 16.666-5.514 14.166-14.166l-.005-.017c-1.484-5.135.786-10.612 5.466-13.193 7.888-4.348 7.888-15.685 0-20.035z" fill="#fff"/><path d="m168.275 375.073c-43.141-42.051-69.943-100.786-69.943-165.789 0-26.751 4.552-52.436 12.899-76.339h-18.861c-8.72 14.874-15.241 31.186-19.167 48.483-1.409-.125-2.833-.196-4.274-.196-26.732 0-48.403 21.67-48.403 48.403 0 26.732 21.671 48.403 48.403 48.403 3.392 0 6.7-.357 9.895-1.021 15.468 43.438 47.961 78.8 89.451 98.056z" fill="#ffbe9c"/><g fill="#ff9db0"><ellipse cx="133.893" cy="246.857" rx="39.279" ry="31.28"/><ellipse cx="346.8" cy="246.857" rx="39.279" ry="31.28"/></g></g><g><path d="m156.768 224.221c4.142 0 7.501-3.358 7.501-7.501v-16.059c0-4.142-3.358-7.501-7.501-7.501-4.142 0-7.501 3.358-7.501 7.501v16.059c0 4.143 3.358 7.501 7.501 7.501z"/><path d="m323.905 224.221c4.142 0 7.501-3.358 7.501-7.501v-16.059c0-4.142-3.358-7.501-7.501-7.501-4.142 0-7.501 3.358-7.501 7.501v16.059c.001 4.143 3.359 7.501 7.501 7.501z"/><path d="m240.337 233.781c10.611 0 20.703-4.596 27.687-12.61 2.722-3.123 2.397-7.861-.726-10.583-3.123-2.721-7.861-2.397-10.583.727-4.134 4.744-10.104 7.465-16.378 7.465s-12.244-2.721-16.378-7.464c-2.721-3.123-7.46-3.448-10.583-.727s-3.448 7.46-.727 10.582c6.984 8.013 17.076 12.61 27.688 12.61z"/><path d="m68.905 285.518c1.69 0 3.381-.09 5.067-.243 6.683 16.919 15.929 32.833 27.517 47.072 15.108 18.562 33.783 33.846 54.656 45.008-5.881 5.43-13.805 13.754-21.718 25.167-13.934 20.099-30.543 54.107-30.543 101.977 0 4.142 3.358 7.501 7.501 7.501h257.905c4.142 0 7.501-3.358 7.501-7.501 0-25.394-4.622-49.35-13.738-71.203-1.595-3.823-5.989-5.629-9.81-4.035-3.824 1.595-5.63 5.987-4.035 9.81 7.451 17.861 11.624 37.315 12.435 57.927h-58.827c-10.979-14.426-22.08-29.799-31.775-45.034 10.531-2.465 16.922-13.245 13.895-23.722-.515-1.781.26-3.649 1.883-4.544 12.227-6.742 13.144-23.74 1.959-31.932 6.954-1.946 14.952-4.796 21.018-7.353 5.186 4.261 15.959 14.12 26.274 29.854 2.271 3.465 6.921 4.431 10.385 2.161 3.465-2.271 4.432-6.921 2.161-10.385-8.679-13.238-17.62-22.714-24.087-28.687 20.874-11.163 39.549-26.447 54.657-45.009 11.588-14.238 20.834-30.153 27.517-47.072 1.685.153 3.376.243 5.066.243 30.828 0 55.908-25.08 55.908-55.907 0-14.586-5.62-27.88-14.802-37.845-2.688-20.716-8.367-40.814-16.902-59.817 24.72 4.193 45.018-12.521 59.228-33.087 4.018-5.816 4.899-12.936 2.416-19.533-4.284-11.383-14.965-13.325-15.068-13.381-10.861-2.73-20.729-11.974-27.094-19.249-3.621-4.139-7.132-9.135-11.049-15.724-23.832-40.088-81.589-41.535-107.38-2.77-29.854-15.15-62.863-23.074-96.689-23.074-41.212 0-81.273 11.786-115.85 34.084-3.481 2.245-4.484 6.887-2.238 10.369 2.245 3.482 6.887 4.484 10.369 2.238 32.149-20.731 69.398-31.69 107.72-31.69 33.725 0 66.573 8.472 95.869 24.611.013.007.024.016.037.023 50.962 28.089 87.492 77.187 99.293 134.215-7.154-3.366-15.035-5.068-22.202-5.258-3.896-14.759-10.293-30.543-18.537-44.605-1.178-2.009-3.211-3.341-5.484-3.642-.929-.123 2.132-.042-53.33-.065l-22.026-33.536c-2.957-4.503-9.578-4.509-12.538 0l-22.026 33.536h-78.11l-22.026-33.536c-2.958-4.504-9.577-4.509-12.539 0l-22.026 33.536h-52.345c-2.662 0-5.124 1.411-6.471 3.707-7.799 13.306-14.293 28.548-18.538 44.605-7.358.196-15.186 1.957-22.202 5.258 9.111-44.024 32.662-82.058 64.149-109.589 3.118-2.727 3.436-7.465.709-10.584-2.726-3.118-7.465-3.435-10.584-.709-37.871 33.115-64.633 79.875-71.613 133.667-9.181 9.965-14.801 23.259-14.801 37.845 0 30.827 25.08 55.907 55.908 55.907zm-.103-15.001c-22.509-.056-40.804-18.385-40.804-40.906 0-20.948 15.859-38.254 36.018-40.606-4.798 28.067-2.814 55.954 4.786 81.512zm77.563 141.118c9.756-14.213 19.624-23.211 24.511-27.222 6.164 2.596 13.905 5.353 21.02 7.354-4.857 3.515-7.836 9.25-7.836 15.345.029.102-.36 10.987 9.795 16.587 1.494.823 2.425 2.669 1.878 4.56-2.99 10.352 3.253 21.188 13.9 23.707-9.798 15.348-20.654 30.425-31.775 45.032h-58.83c1.233-32.021 10.414-60.708 27.337-85.363zm97.422 34.715c-1.498 2.717-5.403 2.716-6.901 0-4.254-7.715-13.215-11.544-21.843-9.052 0 0-.018.005-.018.005-2.981.862-5.741-1.895-4.874-4.896 2.513-8.697-1.413-17.631-9.051-21.845-2.688-1.482-2.757-5.381 0-6.901 7.766-4.281 11.512-13.333 9.046-21.862-.859-2.973 1.88-5.745 4.897-4.874 8.559 2.473 17.542-1.249 21.844-9.051 1.369-2.483 4.577-2.609 6.262-.855.844.879 1.003 1.935 3.056 4.267 4.846 5.505 12.353 7.685 19.445 5.634 2.819-.813 5.761 1.67 4.857 4.956-3.244 11.419 4.994 18.813 4.937 18.713 3.57 3.485 6.168 3.104 6.168 6.523 0 .7-.198 2.436-2.038 3.451-7.802 4.303-11.523 13.286-9.046 21.861.838 2.899-1.711 5.519-4.547 4.945-.737-.149-1.895-.552-3.956-.738-7.75-.672-14.723 3.341-18.238 9.719zm-47.154 50.649c9.288-12.464 20.109-27.951 28.419-41.364 7.453 10.28 23.065 10.334 30.569 0 8.675 13.98 18.733 28.305 28.419 41.364zm215.238-226.482c7.945-26.717 9.391-54.908 4.785-81.512 20.262 2.418 36.019 19.699 36.019 40.606 0 22.521-18.295 40.849-40.804 40.906zm19.64-231.876c4.395 7.394 8.416 13.094 12.654 17.938 7.774 8.884 20.108 20.244 34.727 23.919 4.47 1.124 6.536 6.118 3.967 9.838-16.171 23.404-33.347 31.807-51.05 24.977-1.671-.645-3.399-1.225-5.164-1.736-18.758-32.917-45.453-59.52-76.44-78.084 20.114-28.614 63.515-26.779 81.306 3.148zm-282.773 101.772c2.526 0 4.882-1.272 6.269-3.383l17.979-27.374 17.979 27.374c1.387 2.112 3.743 3.383 6.269 3.383 91.148-.185 86.446.458 88.933-.514 3.909-1.527 2.975-2.843 21.52-30.243l17.979 27.374c1.387 2.112 3.743 3.383 6.27 3.383h52.028c31.893 57.987 25.958 130.404-16.414 182.464-21.05 25.862-49.853 45.017-82.206 54.257-1.014-5.288-4.333-10.171-9.454-13.008-7.923-4.368-14.08-1.363-15.758-1.463-4.058-.236-3.01-5.08-10.352-9.3-4.844-2.788-9.544-2.543-9.444-2.53-6.625 0-13.14 3.545-16.587 9.796-.833 1.51-2.668 2.424-4.561 1.878-10.709-3.094-21.738 3.686-23.857 14.627-32.822-9.349-61.515-28.834-82.207-54.258-41.725-51.264-48.837-123.759-16.414-182.463z"/></g></g></svg>