<svg id="Capa_1" enable-background="new 0 0 512 512" height="512" viewBox="0 0 512 512" width="512" xmlns="http://www.w3.org/2000/svg"><g><g><path d="m430.619 134.852-174.619 45.195-174.619-45.195c6.563-11.967 14.324-23.194 23.116-33.506 10.594-12.435 14.947-29.202 11.071-45.064-.185-.789-.399-1.568-.623-2.347-1.899-6.427 3.019-12.814 9.718-12.639 14.158.37 33.847 3.837 40.595 19.348 0 0 1.032-14.47-3.077-28.589-1.957-6.758 3.749-13.321 10.721-12.435 16.037 2.016 38.755 7.975 45.376 25.337 0 0 6.699-19.874 24.149-32.951 8.014-6.008 19.134-6.008 27.148 0 17.449 13.077 24.149 32.951 24.149 32.951 6.621-17.362 29.339-23.321 45.376-25.337 6.972-.886 12.678 5.677 10.721 12.435-4.109 14.119-3.077 28.589-3.077 28.589 6.748-15.512 26.437-18.978 40.595-19.348 6.699-.175 11.617 6.212 9.718 12.639-.224.779-.438 1.558-.623 2.347-3.875 15.862.477 32.63 11.071 45.064 8.791 10.312 16.551 21.539 23.114 33.506z" fill="#fccb88"/><path d="m195.485 504.498-63.558.002c0-34.698 9.243-61.62 20.233-81.369h50.797z" fill="#5c586f"/><path d="m316.515 504.498 63.558.002c0-34.698-9.243-61.62-20.233-81.369h-50.797z" fill="#5c586f"/><path d="m283.128 380.651 19.004 61.925-19.004 61.924h-54.256l-19.895-61.924 19.895-61.925z" fill="#d8d8d8"/><path d="m455.021 230.278h-398.042c0-34.558 8.851-67.08 24.402-95.426h149.568l25.051 20.119 32.515-20.119h142.105c15.55 28.345 24.401 60.868 24.401 95.426z" fill="#5c586f"/><path d="m377.978 341.019c35.247 59.944-61.463 102.375-61.463 163.479h-33.388v-163.479z" fill="#64d1e1"/><path d="m134.022 341.019c-35.248 59.944 61.463 102.375 61.463 163.479h33.388v-163.479z" fill="#64d1e1"/><g><circle cx="420.945" cy="240.011" fill="#ffcabd" r="46.575"/></g><path d="m207.954 31.725c-9.935-7.487-24.062-10.723-35.053-12.104-6.972-.886-12.678 5.677-10.721 12.435 4.109 14.119 3.077 28.589 3.077 28.589-6.748-15.512-26.437-18.978-40.595-19.348-6.699-.175-11.617 6.212-9.718 12.639.224.779.438 1.558.623 2.347 3.875 15.862-.477 32.629-11.071 45.064-8.793 10.312-16.553 21.539-23.116 33.506l56.74 14.685c11.101-49.669 36.392-91.551 69.834-117.813z" fill="#fbc072"/><path d="m131.927 206.311c0-25.142 3.524-49.217 9.954-71.459h-60.5c-15.55 28.345-24.402 60.868-24.402 95.426h76.037c-.711-7.863-1.089-15.858-1.089-23.967z" fill="#4f4c5f"/><path d="m404.006 157.394c-13.546-27.45-42.186-44.155-72.7-41.717-20.961 1.675-44.315 8.181-64.44 25.051-6.301 5.282-15.432 5.282-21.733 0-20.121-16.867-43.471-23.374-64.429-25.05-30.105-2.408-58.658 13.717-72.208 40.708-11.189 22.288-17.475 47.462-17.441 74.11.118 90.173 73.581 164.082 163.752 164.719 91.644.648 166.137-73.447 166.137-164.94.001-26.166-6.094-50.905-16.938-72.881z" fill="#ffdcce"/><path d="m224.421 392.157c-54.562-32.134-92.494-103.259-92.494-185.846 0-30.395 5.145-59.232 14.359-85.15-16.07 6.706-29.643 18.998-37.79 35.225-5.868 11.688-10.371 24.176-13.338 37.248-1.326-.124-2.688-.197-4.103-.197-25.723 0-46.575 20.852-46.575 46.575s20.852 46.575 46.575 46.575c3.458 0 6.639-.388 9.57-1.104 19.377 54.121 66.349 95.428 123.796 106.674z" fill="#ffcabd"/><g><g><g><ellipse cx="157.311" cy="257.361" fill="#ff9db0" rx="36.414" ry="28.999"/></g><g><ellipse cx="354.689" cy="257.361" fill="#ff9db0" rx="36.414" ry="28.999"/></g></g></g></g><g><path d="m178.529 207.047c-4.142 0-7.5 3.358-7.5 7.5v14.886c0 4.143 3.358 7.5 7.5 7.5s7.5-3.358 7.5-7.5v-14.886c.001-4.142-3.357-7.5-7.5-7.5z"/><path d="m333.471 236.934c4.142 0 7.5-3.358 7.5-7.5v-14.886c0-4.142-3.358-7.5-7.5-7.5s-7.5 3.358-7.5 7.5v14.886c-.001 4.142 3.357 7.5 7.5 7.5z"/><path d="m281.352 223.336c-3.123-2.721-7.861-2.396-10.582.727-3.728 4.279-9.112 6.732-14.77 6.732s-11.041-2.454-14.771-6.732c-2.722-3.123-7.46-3.448-10.582-.726-3.123 2.721-3.448 7.459-.726 10.582 6.578 7.548 16.084 11.877 26.079 11.877 9.996 0 19.501-4.329 26.079-11.877 2.722-3.123 2.396-7.861-.727-10.583z"/><path d="m475.029 240c0-14.084-5.417-26.924-14.271-36.557-5.316-40.859-22.49-77.599-47.539-106.978-9.639-11.314-12.985-26.445-8.965-40.424 3.376-11.422-5.43-22.564-17.107-22.263-12.92.337-23.581 2.805-31.721 7.272.403-2.27.925-4.607 1.601-6.929 3.46-11.95-6.57-23.527-18.861-21.963-14.611 1.836-32.318 6.449-43.369 17.645-4.252-7.326-10.952-16.495-20.725-23.819-10.641-7.977-25.505-7.978-36.146 0-9.773 7.325-16.473 16.493-20.725 23.82-11.05-11.196-28.756-15.808-43.358-17.644-12.339-1.567-22.325 10.038-18.869 21.972.673 2.312 1.193 4.646 1.594 6.917-8.139-4.465-18.799-6.932-31.716-7.27-11.662-.298-20.48 10.852-17.124 22.206 4.029 14.041.684 29.174-8.947 40.478-24.834 29.124-42.179 65.763-47.542 106.981-8.853 9.633-14.27 22.473-14.27 36.557 0 31.448 26.979 56.644 58.799 53.855 7.07 17.682 16.991 33.944 29.189 48.212-7.77 15.842-8.199 32.022-1.287 49.298 4.473 11.181 11.69 21.973 19.596 32.478-12.505 24.171-18.847 51.277-18.847 80.657 0 4.14 3.359 7.5 7.501 7.5 36.23 0 47.519-.008 248.156 0 4.139 0 7.5-3.358 7.5-7.5 0-29.383-6.343-56.49-18.85-80.663 19.685-26.156 32.859-51.855 18.404-81.571 12.487-14.569 22.319-30.897 29.255-48.397 31.851 2.682 58.644-22.553 58.644-53.87zm-52.304-54.048c-3.683-13.871-10.53-31.746-19.005-43.616h22.409c7.974 15.359 13.764 31.586 17.298 48.455-6.602-3.021-13.929-4.625-20.702-4.839zm-312.525-79.76c12.902-15.143 17.369-35.46 11.932-54.403-.454-1.537.71-3.058 2.33-3.016 10.373.271 28.571 2.559 33.915 14.843 3.118 7.167 13.803 5.333 14.359-2.458.046-.646 1.077-15.986-3.354-31.21-.447-1.542.905-3.121 2.582-2.907 12.341 1.551 33.858 6.286 39.304 20.568 2.48 6.502 11.828 6.389 14.109-.258.061-.178 6.282-17.925 21.548-29.366 5.344-4.007 12.808-4.006 18.151 0 15.265 11.44 21.486 29.188 21.54 29.346 2.242 6.653 11.616 6.83 14.115.277 5.447-14.282 26.964-19.017 39.316-20.57 1.652-.209 3.02 1.359 2.574 2.899-4.433 15.234-3.403 30.574-3.357 31.219.556 7.797 11.243 9.622 14.359 2.459 5.344-12.284 23.542-14.572 33.915-14.843 1.591-.038 2.797 1.43 2.314 3.068-5.429 18.879-.963 39.197 11.95 54.352 5.691 6.674 10.931 13.751 15.659 21.141h-27.516c-12.173-10.342-27.218-17.016-43.55-18.885-4.116-.47-7.833 2.484-8.304 6.599-.465 4.069 2.416 7.805 6.518 8.321 23.336 2.936 34.715 15.224 37.397 17.011 25.393 23.118 42.919 84.952 22.356 142.701-40.157 112.769-185.216 140.424-264.793 52.884-13.832-15.17-24.65-32.948-31.853-52.92-20.135-56.123-4.066-118.755 22.14-142.67 0 0 .001-.001.001-.001 13.147-12 30.278-17.948 47.099-17.408 40.694 1.308 62.668 23.599 67.181 26.115 8.559 4.773 19.576 4.06 27.549-2.623 13.33-11.176 29.033-18.009 45.494-21.29 4.365-.87 7.007-5.32 5.701-9.567-1.133-3.687-4.896-5.889-8.634-5.145-7.442 1.484-14.546 3.56-21.289 6.212-19.058 7.495-29.688 17.49-31.583 18.81-3.493 2.433-8.166 2.214-11.423-.516-31.265-26.209-88.665-41.21-128.061-7.628h-27.352c4.728-7.388 9.969-14.466 15.661-21.141zm-24.329 36.144h22.314c-8.265 11.69-15.264 29.862-18.916 43.616-6.826.22-14.1 1.819-20.696 4.839 3.533-16.868 9.323-33.095 17.298-48.455zm4.762 136.739c-21.357-.223-38.661-17.666-38.661-39.075 0-20.143 15.217-36.34 33.991-38.739-4.436 26.307-2.641 53.24 4.67 77.814zm62.883 157.954c5.064 6.404 10.35 13.092 15.017 19.625 2.422 3.391 7.116 4.138 10.466 1.742 3.371-2.407 4.152-7.092 1.744-10.462-24.011-33.618-55.824-61.478-44.562-93.921 24.687 23.719 53.999 38.763 85.191 45.18v97.804h-18.814c-.839-7.414-3.018-14.943-5.991-21.92-1.743-4.095-6.644-5.776-10.531-3.628-3.33 1.834-4.795 5.929-3.275 9.503 2.61 6.133 3.957 11.319 4.65 16.045l-47.838.001c.876-21.56 5.551-41.658 13.943-59.969zm82.856-35.438c12.834 1.458 25.792 1.53 39.256.015v95.394h-39.256zm136.054 95.408-47.837-.001c3.248-21.853 20.133-42.576 33.891-59.974 8.396 18.312 13.071 38.411 13.946 59.975zm-62.987-.002h-18.811v-97.746c32.77-6.643 62.357-22.71 85.256-45.036 16.191 47.347-60.029 86.16-66.445 142.782zm112.037-217.925c7.649-26.072 8.734-53.081 4.562-77.811 19.495 2.591 33.99 19.201 33.99 38.739 0 21.372-17.245 38.791-38.552 39.072z"/></g></g></svg>