<svg id="Capa_1" enable-background="new 0 0 512 512" height="512" viewBox="0 0 512 512" width="512" xmlns="http://www.w3.org/2000/svg"><g><g><path d="m484.421 65.435c-4.596-4.197-7.09-10.218-6.809-16.436l.001-.013c.557-12.319-9.582-22.458-21.901-21.901l-.013.001c-6.217.281-12.238-2.213-16.435-6.809-8.317-9.107-22.659-9.107-30.976 0-4.197 4.596-10.218 7.09-16.436 6.809l-.013-.001c-12.319-.557-22.458 9.582-21.901 21.901v.014c.281 6.217-2.213 12.238-6.809 16.435-9.107 8.317-9.107 22.659 0 30.976 4.596 4.197 7.09 10.218 6.809 16.436l-.001.013c-.557 12.319 9.582 22.458 21.901 21.901l.013-.001c6.217-.281 12.238 2.213 16.435 6.809 8.317 9.107 22.659 9.107 30.976 0 4.197-4.596 10.218-7.09 16.436-6.809l.013.001c12.319.557 22.458-9.582 21.901-21.901l-.001-.013c-.281-6.217 2.213-12.238 6.809-16.435 9.108-8.318 9.108-22.66.001-30.977z" fill="#ffb5ec"/><path d="m431.866 288.44c-28.806 82.541-107.45 141.928-199.688 141.928-116.582 0-211.429-94.856-211.429-211.439 0-45.395 14.378-87.489 38.821-121.977l192.018 68.44z" fill="#d8d8d8"/><path d="m232.178 480.072-76.988 24.428h-52.218c0-89.095 58.524-128.967 58.524-128.967h141.363s58.524 39.872 58.524 128.967h-52.218z" fill="#b08bd7"/><circle cx="232.178" cy="380.788" fill="#c7856a" r="48.163"/><path d="m380.646 130.217c0-47.183 29.562-87.455 71.172-103.323-4.787-.676-9.241-2.988-12.555-6.617-8.317-9.107-22.659-9.107-30.976 0-4.197 4.596-10.218 7.09-16.436 6.809h-.013c-12.319-.558-22.458 9.582-21.901 21.9l.001.013c.281 6.217-2.213 12.239-6.809 16.436-9.107 8.317-9.107 22.659 0 30.976 4.596 4.197 7.09 10.218 6.809 16.436l-.001.013c-.373 8.256 4.061 15.527 10.733 19.262-.01-.635-.024-1.269-.024-1.905z" fill="#ffa2e7"/><path d="m443.448 210.768-191.86-45.376-135.576-123.047c33.357-22.014 73.289-34.845 116.166-34.845 113.846 0 206.967 90.454 211.27 203.268z" fill="#b08bd7"/><path d="m264.658 10.001c-10.591-1.64-21.436-2.501-32.48-2.501-42.877 0-82.809 12.832-116.166 34.845l26.556 24.102c38.523-28.793 83.477-48.053 122.09-56.446z" fill="#a47cd1"/><path d="m443.607 218.929c0 24.344-4.135 47.736-11.741 69.511l-372.296-191.488c15.251-21.508 34.409-40.061 56.442-54.607l327.436 168.423c.109 2.707.159 5.424.159 8.161z" fill="#ffb5ec"/><path d="m309.166 480.721v23.779h-153.976v-23.779c0-13.843 11.225-25.078 25.078-25.078h103.82c13.853.001 25.078 11.236 25.078 25.078z" fill="#ffb5ec"/><g><path d="m136.549 464.409c0-37.561 18.618-70.483 46.554-88.876h-21.606s-58.524 39.872-58.524 128.967h33.745c-.741-12.345-.169-25.885-.169-40.091z" fill="#a47cd1"/></g><path d="m353.014 341.005c-33.96-65.946-148.63-117.196-178.096-184.796l.02.079s-75.95 2.49-111.2 96.44v.01c15.7 78.68 85.14 137.97 168.44 137.97 47.12 0 89.8-18.97 120.84-49.7l-.002-.005c0 .001-.001.001-.002.002z" fill="#da9d81"/><ellipse cx="136.549" cy="280.702" fill="#fff" rx="37.668" ry="29.997"/><path d="m53.018 224.83c0-44.341 17.19-82.877 43.365-114.756l-36.813-13.121c-24.443 34.488-38.821 76.581-38.821 121.977 0 79.111 43.683 148.206 108.187 184.456-46.833-45.326-75.918-108.571-75.918-178.556z" fill="#cacac8"/><path d="m151.02 60.352-35.008-18.007c-22.033 14.546-41.191 33.1-56.442 54.607l33.515 17.238c16.217-20.72 36.239-38.74 57.935-53.838z" fill="#ffa2e7"/></g><g><path d="m232.182 289.12c9.752 0 19.027-4.224 25.445-11.589 2.721-3.123 2.396-7.86-.727-10.582-3.122-2.721-7.86-2.396-10.582.727-7.487 8.591-20.794 8.582-28.272 0-2.721-3.123-7.46-3.448-10.582-.727-3.123 2.721-3.448 7.459-.727 10.582 6.418 7.365 15.693 11.589 25.445 11.589z"/><path d="m158.506 259.326c4.142 0 7.5-3.358 7.5-7.5v-15.398c0-4.142-3.358-7.5-7.5-7.5s-7.5 3.358-7.5 7.5v15.398c0 4.142 3.358 7.5 7.5 7.5z"/><path d="m257.669 50.563 6.205-10.153c2.16-3.534 1.046-8.15-2.488-10.311-3.536-2.16-8.151-1.045-10.311 2.489l-6.205 10.153c-2.16 3.534-1.046 8.15 2.488 10.311 3.549 2.168 8.16 1.032 10.311-2.489z"/><path d="m363.343 115.149 6.206-10.153c2.16-3.534 1.046-8.15-2.488-10.311-3.535-2.161-8.15-1.046-10.311 2.488l-6.206 10.153c-2.16 3.534-1.046 8.15 2.488 10.311 3.535 2.161 8.151 1.045 10.311-2.488z"/><path d="m280.011 63.743c-3.534-2.161-8.15-1.045-10.311 2.488-9.746 15.945 3.891 36.07 22.301 32.907 5.63 17.858 29.717 20.692 39.421 4.816 2.16-3.534 1.046-8.15-2.488-10.311s-8.15-1.046-10.311 2.488c-1.965 3.215-6.179 4.233-9.396 2.268-3.215-1.965-4.232-6.18-2.267-9.396 2.16-3.534 1.046-8.15-2.488-10.311s-8.15-1.045-10.311 2.488c-3.191 5.221-11.061 3.896-12.475-1.96-.428-1.775-.14-3.61.812-5.167 2.161-3.533 1.047-8.15-2.487-10.31z"/><path d="m122.214 408.176c-12.987 20.608-26.738 52.724-26.738 96.324 0 4.142 3.358 7.5 7.5 7.5h258.411c4.142 0 7.5-3.358 7.5-7.5 0-43.602-13.751-75.719-26.739-96.327 21.814-12.711 41.149-28.972 57.544-48.447 2.667-3.169 2.261-7.9-.908-10.568s-7.901-2.261-10.568.908c-15.546 18.467-33.916 33.843-54.675 45.775-6.254-8.128-12.251-14.32-16.954-18.667 15.314-8.193 29.458-18.702 41.711-30.835 2.395-2.371 2.898-6.036 1.292-8.951-31.007-59.938-124.152-106.858-165.083-162.598l228.038 117.289c-4.586 11.883-10.325 23.389-17.105 34.282-2.188 3.517-1.112 8.142 2.405 10.331 3.518 2.189 8.142 1.112 10.331-2.405 35.376-56.842 41.462-124.481 22.05-183.631 1.655-1.167 3.189-2.506 4.58-4.028 2.704-2.961 6.568-4.553 10.571-4.374 16.704.756 30.489-13.011 29.731-29.745-.181-4.006 1.414-7.854 4.375-10.559 12.354-11.283 12.351-30.772 0-42.052-2.952-2.696-4.557-6.537-4.374-10.571.756-16.709-13.019-30.489-29.745-29.731-3.998.182-7.854-1.413-10.559-4.375-11.284-12.353-30.772-12.351-42.052 0-2.704 2.961-6.563 4.555-10.572 4.374-14.245-.646-26.954 9.399-29.365 23.749-37.618-28.109-83.09-43.344-130.634-43.344-11.93 0-23.932.98-35.673 2.913-4.087.673-6.855 4.531-6.182 8.619.673 4.087 4.531 6.855 8.619 6.182 10.938-1.8 22.121-2.713 33.237-2.713 48.509 0 94.706 17.03 131.508 48.2.006.005.011.012.018.018 40.153 33.976 65.969 82.21 71.337 134.792-9.011-4.635-298.327-153.45-303.767-156.248 11.141-6.368 22.862-11.672 34.983-15.824 3.918-1.342 6.007-5.607 4.665-9.526-1.342-3.918-5.604-6.007-9.526-4.665-85.827 29.399-148.148 110.84-148.148 207.181 0 78.213 41.542 149.976 108.961 189.247zm-50.686-154.818c32.424-83.8 98.362-88.752 98.909-89.049 32.968 65.936 137.702 114.607 173.236 175.267-92.884 86.223-245.642 38.094-272.145-86.218zm199.076 140.733c-5.539 15.972-20.763 27.359-38.422 27.359-17.663 0-32.892-11.392-38.427-27.372 24.742 5.41 51.182 5.587 76.849.013zm-107.91 102.909v-16.279c0-9.692 7.885-17.577 17.578-17.577h103.821c9.692 0 17.578 7.885 17.578 17.577v16.279zm153.976 0v-16.279c0-17.963-14.614-32.577-32.578-32.577h-103.82c-17.963 0-32.578 14.614-32.578 32.577v16.279h-37.075c1.849-48.167 22.784-88.765 51.944-112.822 4.826 2.038 9.72 3.843 14.668 5.439 4.257 26.651 27.445 46.834 54.95 46.834 27.492 0 50.671-20.163 54.945-46.796 4.984-1.599 9.89-3.418 14.707-5.449 9.19 7.551 17.922 17.625 24.518 27.239 16.961 24.709 26.161 53.458 27.393 85.555zm60.764-448.353c-.358-7.927 6.142-14.429 14.083-14.069 8.462.385 16.598-2.986 22.313-9.243 5.306-5.81 14.509-5.902 19.899 0 5.715 6.257 13.846 9.627 22.326 9.243 7.817-.35 14.427 6.029 14.069 14.083-.383 8.466 2.986 16.598 9.244 22.313 5.81 5.306 5.902 14.51 0 19.9-6.257 5.714-9.627 13.847-9.243 22.325.358 7.93-6.145 14.428-14.083 14.069-8.016-.361-15.749 2.646-21.397 8.289-12.688-30.746-32.358-58.293-57.616-80.65.364-2.055.501-4.147.405-6.26zm-260.901 2.398c14.91 7.669 304.769 156.763 319.548 164.365.366 21.19-2.531 42.187-8.614 62.331l-356.612-183.42c12.941-16.728 28.263-31.246 45.678-43.276zm-54.511 55.601 90.271 46.431c-7.278 2.163-15.587 5.512-23.362 9.635-1.258 1.042-43.39 19.622-68.514 78.183-3.552 8.269-4.583 10.547-4.03 13.312 10.326 51.734 43.622 97.402 91.423 122.936-4.707 4.348-10.717 10.548-16.984 18.693-63.437-36.451-102.573-103.646-102.573-176.907 0-40.23 11.655-78.911 33.769-112.283z"/></g></g></svg>