<svg id="Capa_1" enable-background="new 0 0 512 512" height="512" viewBox="0 0 512 512" width="512" xmlns="http://www.w3.org/2000/svg"><g><g><path d="m301.025 376.501 24.938 63.999-24.938 64h-90.05l-27.775-64 27.775-63.999z" fill="#d8d8d8"/><path d="m384.231 504.5h-83.206v-127.999h25.119s58.087 39.57 58.087 127.999z" fill="#ff889e"/><path d="m210.975 376.501v127.999h-83.206c0-88.429 58.087-127.999 58.087-127.999z" fill="#ff889e"/><path d="m109.651 55.223c-.017-.038-1.699-3.805-5.742-7.64-5.154-4.889-11.834-7.766-19.854-8.553-8.297-.813-14.364-8.199-13.551-16.496.813-8.298 8.208-14.358 16.496-13.551 30.2 2.96 46.024 23.307 50.614 34.862l-28.059 11.144z" fill="#ff748f"/><path d="m470.559 266.356c-2.164-14.587-3.832-29.736-3.832-45.272 0-116.195-94.531-210.727-210.727-210.727s-210.727 94.532-210.727 210.727c0 15.536-1.668 30.685-3.832 45.272-5.645 38.059 23.661 72.297 62.136 72.297h304.845c38.476 0 67.782-34.239 62.137-72.297z" fill="#5c586f"/><path d="m177.262 53.846-19.265-19.265c-66.968 35.329-112.724 105.668-112.724 186.503 0 15.536-1.668 30.685-3.832 45.271-5.645 38.059 23.661 72.298 62.136 72.298h60.264c-27.383-36.899-43.736-83.531-43.736-134.238 0-58.518 21.778-111.605 57.157-150.569z" fill="#4f4c5f"/><path d="m360.652 169.06-17.061-20.894c-5.928-7.26-17.023-7.26-22.951 0l-17.061 20.894c-2.814 3.446-7.027 5.445-11.476 5.445h-72.206c-4.449 0-8.662-1.999-11.476-5.445l-17.061-20.894c-5.928-7.26-17.023-7.26-22.951 0l-17.061 20.894c-2.814 3.446-7.027 5.445-11.476 5.445h-29.924c-10.964 0-20.378 7.906-22.156 18.726-1.522 9.259-2.298 18.77-2.264 28.468.333 94.421 78.372 171.099 172.786 169.842 93.082-1.239 168.157-77.08 168.157-170.457 0-9.496-.777-18.81-2.27-27.883-1.779-10.807-11.197-18.696-22.15-18.696h-29.925c-4.447 0-8.66-1.999-11.474-5.445z" fill="#ffd8d2"/><path d="m120.105 204.415c0-10.15.67-20.132 1.938-29.91h-12.094c-10.964 0-20.378 7.906-22.156 18.726-1.522 9.259-2.298 18.77-2.264 28.468.277 78.517 54.29 144.756 126.766 164.123-55.502-38.644-92.19-105.452-92.19-181.407z" fill="#ffcabd"/><circle cx="179.288" cy="256.782" fill="#ffe7e5" r="51.519"/><g><circle cx="332.712" cy="256.782" fill="#ffe7e5" r="51.519"/></g><path d="m82.305 129.126c-17.131-11.871-21.396-35.382-9.524-52.514 21.449-30.952 51.396-54.065 86.606-66.84 19.594-7.108 41.239 3.012 48.347 22.604 7.109 19.593-3.012 41.239-22.604 48.347-20.424 7.41-37.821 20.854-50.311 38.878-11.814 17.048-35.305 21.451-52.514 9.525z" fill="#ff889e"/><path d="m98.923 46.523c-9.701 8.953-18.468 19.017-26.142 30.09-11.871 17.131-7.607 40.642 9.524 52.514 17.21 11.926 40.701 7.523 52.514-9.524 2.186-3.154 4.531-6.16 7.008-9.026-23.597-11.363-40.527-35.49-42.904-64.054z" fill="#ff748f"/></g><g><path d="m238.276 258.036c5.393-3.043 11.445-4.658 17.725-4.658 6.279 0 12.331 1.614 17.725 4.657.669 31.967 26.862 57.77 58.986 57.77 32.542 0 59.017-26.475 59.017-59.017s-26.475-59.017-59.017-59.017c-27.521 0-50.699 18.937-57.197 44.463-6.139-2.536-12.737-3.855-19.513-3.855-6.778 0-13.375 1.318-19.514 3.854-6.499-25.526-29.677-44.462-57.197-44.462-32.542 0-59.017 26.475-59.017 59.017s26.475 59.017 59.017 59.017c32.123 0 58.316-25.803 58.985-57.769zm94.436-45.266c24.271 0 44.018 19.746 44.018 44.018s-19.746 44.018-44.018 44.018-44.018-19.746-44.018-44.018 19.746-44.018 44.018-44.018zm-197.44 44.018c0-24.271 19.746-44.018 44.018-44.018s44.018 19.746 44.018 44.018-19.747 44.018-44.018 44.018-44.018-19.747-44.018-44.018z"/><path d="m186.79 264.32v-15.065c0-4.142-3.358-7.5-7.5-7.5s-7.5 3.358-7.5 7.5v15.065c0 4.142 3.358 7.5 7.5 7.5s7.5-3.358 7.5-7.5z"/><path d="m332.712 271.82c4.142 0 7.5-3.358 7.5-7.5v-15.065c0-4.142-3.358-7.5-7.5-7.5s-7.5 3.358-7.5 7.5v15.065c0 4.142 3.358 7.5 7.5 7.5z"/><path d="m281.598 303.906c-3.121-2.721-7.86-2.396-10.581.727-7.937 9.108-22.071 9.134-30.031 0-2.722-3.123-7.459-3.447-10.582-.727-3.122 2.721-3.448 7.459-.727 10.582 13.931 15.985 38.731 15.969 52.648 0 2.721-3.123 2.396-7.86-.727-10.582z"/><path d="m408.42 346.157c43.098 0 75.86-38.375 69.553-80.896-2.594-17.489-3.751-31.112-3.751-44.17 0-34.886-8.025-68.244-23.852-99.149-15.089-29.463-37.103-55.568-63.661-75.494-3.314-2.486-8.014-1.814-10.5 1.499s-1.815 8.014 1.498 10.5c24.747 18.566 45.256 42.887 59.313 70.333 14.733 28.768 22.203 59.826 22.203 92.312 0 17.916 2.233 35.045 3.913 46.371 4.985 33.607-20.925 63.696-54.716 63.696h-12.558c31.933-40.431 43.608-91.34 35.737-139.167-2.36-14.341-14.701-24.977-29.55-24.977h-29.925c-2.206 0-4.271-.98-5.666-2.688-17.704-21.326-19.506-26.316-29.404-28.546-8.213-1.851-16.806 1.016-22.225 7.652l-17.061 20.893c-1.394 1.708-3.46 2.688-5.666 2.688h-72.204c-2.206 0-4.271-.98-5.666-2.688-17.592-21.297-18.508-24.047-24.942-27.021-5.091-2.366-9.769-2.083-9.403-2.073-6.713 0-13.019 2.977-17.284 8.201l-17.061 20.893c-1.395 1.709-3.461 2.689-5.666 2.689h-29.923c-14.7 0-27.167 10.475-29.556 25.009-1.516 9.229-2.4 19.398-2.363 29.71.442 42.018 14.299 79.15 38.333 109.425h-12.785c-33.832 0-59.694-30.137-54.716-63.696 1.68-11.326 3.913-28.455 3.913-46.371 0-30.993 7.145-61.665 20.742-89.36 20.563 18.443 52.103 14.309 67.466-7.847 12.009-17.33 28.535-29.507 46.703-36.098 26.2-9.506 37.867-40.428 23.838-65.011 14.542-3.258 29.454-4.905 44.473-4.905 33.78 0 67.251 8.496 96.795 24.569 3.638 1.979 8.193.635 10.172-3.004s.634-8.193-3.004-10.173c-31.737-17.268-67.687-26.395-103.964-26.395-18.761 0-37.372 2.398-55.386 7.127-11.967-9.585-28.36-12.856-43.783-7.262-10.696 3.881-20.921 8.683-30.601 14.331-8.306-6.775-20.895-13.809-38.498-15.534-12.395-1.208-23.472 7.891-24.687 20.283-1.218 12.429 7.853 23.473 20.282 24.692 1.435.141 2.808.374 4.129.681-7.592 7.706-14.563 16.114-20.835 25.165-9.771 14.101-10.399 31.861-3.169 46.2-16.792 31.432-25.673 66.782-25.673 102.54 0 13.059-1.157 26.681-3.751 44.17-6.321 42.62 26.567 80.896 69.553 80.896h26.124c13.135 13.24 27.411 23.733 42.546 31.879-7.633 7.045-18.725 18.992-28.733 36.278-2.075 3.585-.852 8.173 2.733 10.249 3.583 2.075 8.172.853 10.248-2.733 11.479-19.825 24.625-31.919 30.484-36.728 5.394 2.286 10.896 4.3 16.494 6.036v105.862h-19.96v-35.724c0-4.142-3.358-7.5-7.5-7.5s-7.5 3.358-7.5 7.5v35.724h-33.097c.687-17.312 3.765-33.846 9.175-49.248 1.373-3.908-.683-8.189-4.591-9.561-3.908-1.374-8.188.683-9.561 4.591-6.749 19.213-10.171 39.978-10.171 61.718 0 4.142 3.358 7.5 7.5 7.5h256.456c4.142 0 7.5-3.358 7.5-7.5 0-53.034-21.035-97.826-51.871-126.36 15.583-8.343 29.995-19.064 42.758-31.984h25.805zm-330.446-322.88c.408-4.165 4.137-7.219 8.3-6.817 11.398 1.117 20.114 4.991 26.483 9.263-4.652 3.281-9.297 6.905-12.945 10.015-4.506-2.228-9.535-3.623-15.021-4.161-4.177-.41-7.228-4.121-6.817-8.3zm.976 57.617c20.506-29.592 49.219-51.804 82.998-64.06 7.596-2.756 15.809-2.386 23.121 1.033 24.332 11.375 22.746 46.663-2.494 55.816-22.278 8.083-40.79 22.713-53.916 41.655-10.124 14.602-30.845 17.469-44.552 5.72-11.611-9.952-14.053-27.326-5.157-40.164zm16.248 113.56c1.188-7.224 7.405-12.442 14.755-12.442h29.923c6.729 0 13.029-2.989 17.284-8.201l17.061-20.893c2.017-2.469 5.427-3.395 8.492-2.112 2.875 1.205 3.047 2.76 11.371 12.559 7.722 9.08 8.954 11.955 13.583 14.995 3.59 2.358 7.816 3.653 12.232 3.653h72.205c6.729 0 13.029-2.989 17.284-8.201l17.062-20.893c2.933-3.591 8.409-3.578 11.332 0 1.937 2.372 14.248 17.449 17.061 20.894 4.12 5.045 10.393 8.201 17.284 8.201h29.925c7.409 0 13.58 5.311 14.749 12.413 8.065 49.017-6.198 102.044-44.837 141.172-63.043 63.838-165.699 64.841-230.087 1.529-38.119-37.479-55.29-90.323-46.679-142.674zm123.278 200.617c24.011 5.175 49.754 5.442 75.048.037v101.892h-75.048zm158.105 101.929h-28.467v-35.724c0-4.142-3.358-7.5-7.5-7.5s-7.5 3.358-7.5 7.5v35.724h-24.59v-105.797c5.635-1.732 11.173-3.741 16.595-6.025 11.305 9.299 48.812 45.064 51.462 111.822z"/></g></g></svg>