<svg id="Capa_1" enable-background="new 0 0 512 512" height="512" viewBox="0 0 512 512" width="512" xmlns="http://www.w3.org/2000/svg"><g><g><path d="m326.561 375.738s34.359 23.406 50.375 74.439l-49.301 54.323h-143.269l-49.302-54.323c16.016-51.033 50.375-74.439 50.375-74.439z" fill="#bc9bdd"/><path d="m193.835 344.261 32.122 72.244c11.573 26.028 48.513 26.028 60.086 0l32.122-72.244z" fill="#c7856a"/><path d="m206.999 375.738h-21.561s-34.359 23.406-50.375 74.438l19.329 21.298c6.743-37.674 25.714-71.041 52.607-95.736z" fill="#b08bd7"/><path d="m427.484 219.4c0 69.549-41.416 129.44-100.922 156.339-21.523 9.729-45.404 15.145-70.561 15.145s-49.039-5.416-70.561-15.145c-59.508-26.899-100.923-86.79-100.923-156.339 0-94.716 76.777-171.494 171.483-171.494s171.484 76.777 171.484 171.494z" fill="#da9d81"/><path d="m468.721 298.412c5.934-10.486 5.934-23.316 0-33.802s-5.934-23.316 0-33.802 5.934-23.316 0-33.802l-9.564-16.901-44.338-25.473-52.059 25.473 9.564 16.901c5.934 10.486 5.934 23.316 0 33.802-5.934 10.486-5.934 23.316 0 33.802 5.934 10.486 5.934 23.316 0 33.802-5.934 10.486-5.934 23.316 0 33.802 5.934 10.486 5.934 23.316 0 33.802-4.272 7.549 1.182 16.901 9.855 16.901h57.557c12.001 0 23.074-6.457 28.984-16.901 5.934-10.486 5.934-23.316 0-33.802-5.933-10.486-5.933-23.316.001-33.802z" fill="#fbe29f"/><path d="m43.279 298.412c-5.934-10.486-5.934-23.316 0-33.802s5.934-23.316 0-33.802-5.934-23.316 0-33.802l9.564-16.901 44.338-25.473 52.059 25.473-9.564 16.901c-5.934 10.486-5.934 23.316 0 33.802 5.934 10.486 5.934 23.316 0 33.802-5.934 10.486-5.934 23.316 0 33.802 5.934 10.486 5.934 23.316 0 33.802-5.934 10.486-5.934 23.316 0 33.802 4.272 7.549-1.182 16.901-9.855 16.901h-57.558c-12.001 0-23.074-6.457-28.984-16.901-5.934-10.486-5.934-23.316 0-33.802s5.934-23.316 0-33.802z" fill="#fbe29f"/><path d="m184.366 450.177v54.323h-57.36c0-20.743 3.179-38.804 8.058-54.323z" fill="#da9d81"/><path d="m384.995 504.5h-57.36v-54.323h49.302c4.879 15.519 8.058 33.58 8.058 54.323z" fill="#da9d81"/><path d="m79.938 260.651c0-37.098 7.183-72.44 20.172-104.586l-2.929-1.434-44.338 25.473-9.564 16.901c-5.934 10.486-5.934 23.316 0 33.802s5.934 23.316 0 33.802-5.934 23.316 0 33.802c5.934 10.486 5.934 23.316 0 33.802s-5.934 23.316 0 33.802c5.911 10.444 16.983 16.901 28.984 16.901h35.732c-17.937-36.676-28.057-78.234-28.057-122.265z" fill="#fccb88"/><path d="m256 12.474c-180.829-22.326-183.894 35.98-174.125 66.528 3.74 11.695 2.443 24.399-3.834 34.952-11.963 20.113-20.616 42.414-25.198 66.149h406.314c-18.409-95.37-103.255-155.295-203.157-167.629z" fill="#ffb5ec"/><path d="m273.78 90.346h-35.559c-14.07 0-25.476 11.406-25.476 25.476 0 14.07 11.406 25.476 25.476 25.476h35.559c14.07 0 25.476-11.406 25.476-25.476 0-14.069-11.406-25.476-25.476-25.476z" fill="#fff"/><path d="m241.875 10.856c-166.851-17.605-169.508 38.415-160 68.146 3.74 11.695 2.443 24.399-3.834 34.952-11.962 20.113-20.616 42.414-25.198 66.149h38.836c23.174-77.292 78.813-139.539 150.196-169.247z" fill="#ffa2e7"/><path d="m151.685 502.058c0-18.092 2.794-35.521 7.952-51.882h-24.574c-4.88 15.52-8.058 33.58-8.058 54.323h24.711c-.011-.813-.031-1.625-.031-2.441z" fill="#c7856a"/></g><g><path d="m238.221 82.808c-18.185 0-32.98 14.794-32.98 32.98 0 18.184 14.795 32.979 32.979 32.979h35.562c18.185 0 32.98-14.795 32.98-32.979s-14.794-32.979-32.979-32.979h-35.562zm53.54 32.979c0 9.913-8.065 17.978-17.978 17.978h-35.563c-9.913 0-17.978-8.065-17.978-17.978s8.065-17.978 17.978-17.978h35.562c9.914.001 17.979 8.065 17.979 17.978z"/><path d="m176.087 228.453c-4.142 0-7.501 3.359-7.501 7.501v15.356c0 4.142 3.358 7.501 7.501 7.501s7.501-3.358 7.501-7.501v-15.356c0-4.142-3.358-7.501-7.501-7.501z"/><path d="m335.916 228.453c-4.142 0-7.501 3.359-7.501 7.501v15.356c0 4.142 3.358 7.501 7.501 7.501s7.501-3.358 7.501-7.501v-15.356c0-4.142-3.359-7.501-7.501-7.501z"/><path d="m281.998 245.198c-3.122-2.721-7.861-2.397-10.582.727-3.891 4.464-9.509 7.025-15.414 7.025s-11.523-2.561-15.414-7.026c-2.722-3.123-7.46-3.448-10.583-.726-3.123 2.721-3.448 7.46-.726 10.582 6.741 7.735 16.481 12.171 26.724 12.171s19.983-4.436 26.724-12.171c2.719-3.122 2.394-7.86-.729-10.582z"/><path d="m475.27 328.503c-4.611-8.147-4.611-18.269 0-26.416 7.19-12.704 7.19-28.489 0-41.194-4.61-8.147-4.61-18.27 0-26.417 7.19-12.704 7.19-28.489 0-41.193l-8.983-15.874c-9.339-46.789-34.802-87.698-73.717-118.363-3.253-2.564-7.97-2.005-10.534 1.249s-2.005 7.97 1.249 10.534c33.894 26.709 56.776 61.738 66.575 101.746-17.985 0-315.977 0-334.013 0-4.142 0-7.501 3.358-7.501 7.501 0 4.142 3.358 7.501 7.501 7.501h20.522l-3.23 5.708c-7.038 12.437-7.304 28.284 0 41.194 4.611 8.147 4.611 18.27 0 26.417-7.189 12.705-7.189 28.489 0 41.194 4.611 8.147 4.611 18.269 0 26.417-7.207 12.739-7.156 28.548 0 41.194 1.445 2.553-.4 5.708-3.328 5.708h-57.563c-20.121 0-32.37-21.999-22.459-39.513 7.19-12.704 7.189-28.489 0-41.193-4.611-8.147-4.611-18.27 0-26.417 7.189-12.705 7.189-28.489 0-41.194-4.611-8.147-4.611-18.269 0-26.417l7.411-13.096h29.376c4.142 0 7.501-3.358 7.501-7.501 0-4.142-3.358-7.501-7.501-7.501h-24.45c4.646-19.263 12.144-37.667 22.346-54.821 7.301-12.276 8.953-27.248 4.532-41.074-22.165-69.314 93.864-65.724 166.079-56.809 37.863 4.675 73.764 16.534 103.823 34.296 3.568 2.108 8.167.924 10.273-2.642 2.107-3.567.924-8.166-2.642-10.273-31.819-18.803-69.724-31.344-109.616-36.269-92.837-11.463-151.626-3.134-174.737 24.751-11.301 13.636-13.884 31.449-7.468 51.513 3.114 9.738 1.971 20.248-3.137 28.837-12.439 20.914-21.131 43.56-25.864 67.325l-8.982 15.872c-7.19 12.705-7.189 28.489 0 41.194 4.611 8.147 4.611 18.27 0 26.417-7.189 12.705-7.189 28.489 0 41.194 4.611 8.147 4.611 18.269 0 26.417-15.43 27.266 3.67 61.902 35.515 61.902h57.562c14.414 0 23.492-15.537 16.384-28.097-.47-.831-.879-1.686-1.254-2.553 8.399 6.66 17.353 12.541 26.804 17.587-11.993 11.083-32.403 34.119-43.846 70.577v.001c0 .001-.001.002-.001.004-5.576 17.735-8.403 36.77-8.403 56.573 0 4.142 3.358 7.501 7.501 7.501h258.012c4.142 0 7.501-3.358 7.501-7.501 0-52.47-20.145-97.536-52.238-127.163 9.447-5.045 18.396-10.923 26.792-17.581-.374.868-.784 1.723-1.254 2.554-7.099 12.544 1.951 28.097 16.384 28.097h57.563c31.943 0 50.907-34.703 35.515-61.903zm-330.797 11.101c1.441-3.834 14.41-22.485 1.722-44.905-4.611-8.147-4.611-18.27 0-26.417 7.215-12.749 7.165-28.532 0-41.194-4.611-8.147-4.611-18.269 0-26.417l7.411-13.096h204.791l7.411 13.095c4.611 8.148 4.611 18.27 0 26.417-7.189 12.704-7.189 28.489 0 41.194 4.61 8.147 4.61 18.27 0 26.417-7.19 12.704-7.19 28.489 0 41.194.675 1.193 1.254 2.469 1.722 3.711-62.743 58.273-160.095 58.474-223.057.001zm142.614 56.093-7.893 17.752c-8.922 20.064-37.453 20.087-46.384 0l-7.893-17.753c19.538 3.42 41.05 3.677 62.17.001zm-146.429 61.975h36.202v39.327h-42.217c.539-13.649 2.554-26.828 6.015-39.327zm194.485 39.327v-39.327h36.201c3.461 12.499 5.477 25.678 6.015 39.327zm31.232-54.328c-23.978 0-14.757 0-38.732 0-4.142 0-7.501 3.358-7.501 7.501v46.827h-128.28v-46.827c0-4.142-3.358-7.501-7.501-7.501h-38.732c12.772-32.874 33.148-51.932 40.868-58.295 6.596 2.763 13.113 5.087 20.127 7.103l12.479 28.065c11.159 25.099 37.312 24.101 36.899 23.976 16.184 0 30.324-9.187 36.899-23.976l12.479-28.065c7.304-2.103 14.459-4.68 20.122-7.101 7.785 6.418 28.12 25.469 40.873 58.293zm95.839-174.39c4.611 8.147 4.611 18.27 0 26.417-7.19 12.705-7.19 28.489 0 41.193 9.901 17.496-2.318 39.513-22.459 39.513h-57.563c-2.933 0-4.77-3.159-3.328-5.708 6.748-11.924 7.599-27.166 0-41.194-4.611-8.147-4.611-18.269 0-26.416 7.19-12.704 7.19-28.489 0-41.194-4.611-8.147-4.611-18.27 0-26.417 7.19-12.704 7.19-28.489 0-41.193l-3.23-5.708h79.169l7.411 13.096c4.611 8.147 4.611 18.269 0 26.416-7.19 12.707-7.19 28.491 0 41.195z"/></g></g></svg>