<svg id="Capa_1" enable-background="new 0 0 512 512" height="512" viewBox="0 0 512 512" width="512" xmlns="http://www.w3.org/2000/svg"><g><g><path d="m319.11 504.5h-126.22l-45.458-51.193c13.968-43.189 42.044-61.896 42.044-61.896h133.05s28.076 18.707 42.044 61.896z" fill="#ffb5ec"/><circle cx="256" cy="402.608" fill="#da9d81" r="42.532"/><path d="m212.803 391.411h-23.328s-28.076 18.707-42.044 61.895l19.562 22.03c.311-35.502 18.557-66.563 45.81-83.925z" fill="#ffa2e7"/><path d="m342.016 59.009v-8.501c0-23.753-19.255-43.008-43.008-43.008-23.753 0-43.008 19.255-43.008 43.008 0-23.753-19.255-43.008-43.008-43.008-23.753 0-43.008 19.255-43.008 43.008v8.501c0 15.401-8.289 29.651-21.75 37.134-46.144 25.652-76.165 70.165-76.165 131.494 0 101.582 82.349 174.971 183.931 174.971s183.931-73.389 183.931-174.971c0-61.329-30.021-105.842-76.165-131.494-13.461-7.483-21.75-21.733-21.75-37.134z" fill="#50e1cd"/><path d="m174.262 338.008c-31.351-16.885-52.696-50.028-52.696-88.07 0-32.825 15.9-62.005 40.401-80.244l60.84-19.743h66.386l60.84 19.743c24.501 18.239 40.401 47.42 40.401 80.244 0 38.041-21.345 71.185-52.696 88.07l-63.479 11.917h-36.518z" fill="#da9d81"/><g fill="#fff"><path d="m222.807 149.951-14.058 41.705c-6.352 18.856-33.034 18.856-39.385 0l-7.397-21.963c16.646-12.405 37.275-19.743 59.586-19.743h1.254z"/><path d="m350.033 169.694-7.397 21.963c-6.352 18.856-33.034 18.856-39.385 0l-14.058-41.705h1.254c22.311-.001 42.94 7.337 59.586 19.742z"/><path d="m237.741 349.925h-16.188c-17.094 0-33.203-4.311-47.29-11.917l10.035-29.788c6.352-18.856 33.034-18.856 39.385 0z"/><path d="m337.738 338.008c-14.088 7.606-30.196 11.917-47.29 11.917h-16.188l14.058-41.705c6.352-18.856 33.034-18.856 39.385 0z"/></g><path d="m192.89 453.307v51.193h-53.174c0-19.892 3.086-36.886 7.716-51.193z" fill="#da9d81"/><path d="m372.285 504.5h-53.175v-51.193h45.458c4.63 14.306 7.717 31.301 7.717 51.193z" fill="#da9d81"/><path d="m145.215 240.291c0-25.378 6.223-49.391 17.306-70.777l-.555.18c-24.501 18.239-40.401 47.42-40.401 80.244 0 36.647 19.814 68.742 49.295 86.142-16.764-26.836-25.645-59.951-25.645-95.789z" fill="#c7856a"/><path d="m166.982 476.255c0-7.899.892-15.581 2.571-22.949h-22.122c-4.63 14.307-7.716 31.301-7.716 51.193h31.197c-2.553-8.954-3.93-18.432-3.93-28.244z" fill="#c7856a"/></g><g><path d="m189.167 249.219v-14.284c0-4.143-3.358-7.5-7.5-7.5-4.143 0-7.5 3.357-7.5 7.5v14.284c0 4.142 3.357 7.5 7.5 7.5 4.141 0 7.5-3.358 7.5-7.5z"/><path d="m337.834 249.219v-14.284c0-4.143-3.358-7.5-7.5-7.5s-7.5 3.357-7.5 7.5v14.284c0 4.142 3.358 7.5 7.5 7.5s7.5-3.358 7.5-7.5z"/><path d="m256 265.222c9.678 0 18.882-4.192 25.252-11.5 2.721-3.123 2.396-7.86-.726-10.582-3.123-2.721-7.86-2.396-10.582.727-3.521 4.039-8.603 6.356-13.944 6.356s-10.423-2.317-13.944-6.356c-2.721-3.123-7.459-3.448-10.581-.727-3.123 2.722-3.448 7.459-.727 10.582 6.37 7.308 15.574 11.5 25.252 11.5z"/><path d="m206.001 116.697c4.143 0 7.5-3.358 7.5-7.5 0-9.649 7.851-17.499 17.5-17.499s17.499 7.85 17.499 17.499c0 4.142 3.358 7.5 7.5 7.5s7.5-3.358 7.5-7.5c0-9.649 7.85-17.499 17.5-17.499 9.649 0 17.499 7.85 17.499 17.499 0 4.142 3.358 7.5 7.5 7.5s7.5-3.358 7.5-7.5c0-17.92-14.579-32.499-32.499-32.499-10.041 0-19.033 4.577-25 11.754-5.966-7.177-14.958-11.754-24.999-11.754-17.92 0-32.5 14.579-32.5 32.499 0 4.142 3.359 7.5 7.5 7.5z"/><path d="m220.492 59.616v-14.284c0-4.142-3.357-7.5-7.5-7.5-4.142 0-7.5 3.358-7.5 7.5v14.284c0 4.143 3.358 7.5 7.5 7.5s7.5-3.358 7.5-7.5z"/><path d="m223.501 109.087v8.31c0 4.142 3.358 7.5 7.5 7.5s7.5-3.358 7.5-7.5v-8.31c0-4.143-3.358-7.5-7.5-7.5s-7.5 3.358-7.5 7.5z"/><path d="m273.5 109.087v8.31c0 4.142 3.357 7.5 7.5 7.5 4.142 0 7.5-3.358 7.5-7.5v-8.31c0-4.143-3.358-7.5-7.5-7.5-4.143 0-7.5 3.358-7.5 7.5z"/><path d="m306.508 59.616v-14.284c0-4.142-3.358-7.5-7.5-7.5-4.143 0-7.5 3.358-7.5 7.5v14.284c0 4.143 3.357 7.5 7.5 7.5 4.142 0 7.5-3.358 7.5-7.5z"/><path d="m170.133 326.773c-7.234-4.851-13.743-10.701-19.422-17.463-2.664-3.172-7.395-3.584-10.566-.92-3.172 2.664-3.584 7.395-.92 10.566 14.322 17.054 28.72 23.809 31.484 25.655 30.957 16.712 57.587 12 67.032 12.813h52.707c28.696 0 47.236-11.417 50.847-12.814.002-.001.004-.002.006-.003h.001c34.933-18.818 56.632-55.092 56.632-94.669 0-33.771-16.23-66.016-43.417-86.256 0 0-.001-.001-.002-.001-18.636-13.888-40.791-21.229-64.067-21.229-14.763 0-52.433 0-68.895 0-23.277 0-45.431 7.341-64.068 21.229-.001.001-.002.002-.004.003-27.186 20.241-43.415 52.485-43.415 86.255 0 14.464 2.851 28.527 8.474 41.801 1.616 3.814 6.019 5.596 9.832 3.98 3.814-1.616 5.596-6.017 3.98-9.832-4.834-11.412-7.285-23.507-7.285-35.949 0-25.535 10.792-50.06 29.294-67.455l3.896 11.567c8.664 25.723 44.975 25.604 53.601.001l12.337-36.601h55.613l12.336 36.599c8.64 25.65 44.964 25.651 53.601 0l3.896-11.567c18.502 17.395 29.294 41.92 29.294 67.455 0 31.051-15.53 59.741-41.065 76.838-7.614-22.493-6.842-20.508-7.678-22.58-4.477-11.104-14.811-17.619-26.182-17.619-11.971 0-22.766 7.272-26.8 19.247l-12.337 36.601h-25.745c-13.657-40.518-12.347-36.721-12.956-38.228-4.489-11.134-14.85-17.619-26.181-17.619-12.262 0-22.861 7.554-26.8 19.248-.052.153.579-1.72-7.058 20.947zm165.395-137.511c-4.061 12.056-21.111 12.047-25.17-.001l-10.566-31.346c14.807 1.479 28.881 6.475 41.345 14.695zm-133.886 0c-4.077 12.099-21.122 12.017-25.17 0l-5.608-16.652c12.464-8.221 26.539-13.217 41.345-14.695zm-18.183 144.94 7.947-23.588c4.076-12.1 21.121-12.02 25.17.001l10.722 31.81c-3.161-.28-21.707 1.811-43.839-8.223zm101.243 8.223 10.723-31.811c4.061-12.057 21.111-12.046 25.17 0l7.946 23.587c-22.197 10.065-40.665 7.943-43.839 8.224z"/><path d="m120.826 358.701c15.846 14.78 34.175 26.59 54.193 35.151-10.144 9.847-25.414 28.364-34.722 57.145 0 0 0 .001-.001.001-5.361 16.568-8.08 34.569-8.08 53.502 0 4.142 3.358 7.5 7.5 7.5h232.569c4.142 0 7.5-3.358 7.5-7.5 0-18.932-2.718-36.931-8.079-53.498 0-.001 0-.002-.001-.003-9.269-28.659-24.589-47.239-34.755-57.133 20.03-8.562 38.37-20.377 54.225-35.165 36.278-33.836 56.256-80.382 56.256-131.064 0-25.517-5.021-49.084-14.925-70.047-1.77-3.746-6.239-5.347-9.985-3.578-3.745 1.77-5.347 6.24-3.577 9.985 8.95 18.944 13.487 40.355 13.487 63.64 0 46.476-18.285 89.126-51.487 120.094-67.465 62.924-181.682 63.616-249.887 0-33.203-30.968-51.488-73.618-51.488-120.094 0-28.266 6.628-53.584 19.7-75.251 12.313-20.409 30.013-37.126 52.609-49.688 15.794-8.78 25.605-25.521 25.605-43.688v-8.501c0-19.579 15.929-35.508 35.508-35.508 19.58 0 35.509 15.929 35.509 35.508 0 4.142 3.357 7.5 7.5 7.5 4.142 0 7.5-3.358 7.5-7.5 0-19.58 15.929-35.509 35.508-35.509s35.508 15.929 35.508 35.508v8.501c0 18.168 9.812 34.908 25.606 43.688 18.137 10.083 33.226 22.954 44.846 38.257 2.505 3.298 7.21 3.942 10.509 1.437s3.942-7.21 1.437-10.509c-12.885-16.967-29.54-31.197-49.504-42.295-11.038-6.136-17.895-17.853-17.895-30.578v-8.501c.001-27.85-22.657-50.508-50.507-50.508-18.156 0-34.104 9.628-43.008 24.048-8.903-14.42-24.852-24.048-43.008-24.048-27.85 0-50.508 22.658-50.508 50.508v8.501c0 12.726-6.856 24.442-17.894 30.578-51.603 28.687-80.021 77.713-80.021 138.05 0 50.681 19.978 97.227 56.257 131.064zm32.172 102.106h32.393v36.193h-38.019c.531-12.666 2.416-24.793 5.626-36.193zm173.613 36.193v-36.193h32.392c3.21 11.4 5.095 23.528 5.626 36.193zm27.229-51.193h-34.729c-4.135 0-7.5 3.351-7.5 7.5v43.693h-111.221v-43.693c0-4.142-3.358-7.5-7.5-7.5h-34.73c10.668-25.961 26.322-40.752 32.662-45.981 4.979 1.639 10.046 3.079 15.185 4.333.824 26.872 22.925 48.481 49.993 48.481 27.067 0 49.168-21.61 49.993-48.481 5.138-1.254 10.206-2.694 15.184-4.333 6.347 5.235 21.997 20.025 32.663 45.981zm-63.117-38.531c-2.29 17.118-16.988 30.364-34.722 30.364s-32.433-13.246-34.723-30.364c22.749 3.75 46.495 3.786 69.445 0z"/></g></g></svg>