<svg id="Capa_1" enable-background="new 0 0 512 512" height="512" viewBox="0 0 512 512" width="512" xmlns="http://www.w3.org/2000/svg"><g><g><path d="m208.537 504.498h57.672l21.969-61.176-21.969-61.176h-57.672l-21.968 61.176z" fill="#ffb5ec"/><path d="m288.178 454.98v49.52h82.231c0-19.054-2.6-35.467-6.724-49.52l-37.754-36.417z" fill="#c7856a"/><path d="m288.178 382.145v72.835h75.507c-15.713-53.613-53.54-72.835-53.54-72.835z" fill="#ffb5ec"/><path d="m266.209 382.146h43.938v122.351h-43.938z" fill="#b08bd7" transform="matrix(-1 0 0 -1 576.356 886.644)"/><path d="m186.569 454.98v49.52h-82.231c0-19.054 2.6-35.467 6.724-49.52l37.754-36.417z" fill="#c7856a"/><path d="m186.569 382.145v72.835h-75.507c15.713-53.613 53.54-72.835 53.54-72.835z" fill="#ffb5ec"/><path d="m473.09 69.769h-117.475l73.085 56.672h44.39c15.65 0 28.336-12.686 28.336-28.336 0-15.65-12.686-28.336-28.336-28.336z" fill="#ffb5ec"/><path d="m164.6 382.146h43.938v122.351h-43.938z" fill="#b08bd7"/><path d="m450.772 220.909h-426.797c0-33.901 7.945-65.975 22.072-94.468l191.327-54.504 191.326 54.504c14.126 28.493 22.072 60.567 22.072 94.468z" fill="#b08bd7"/><path d="m97.592 202.852c0-34.047 5.905-66.438 16.536-95.806l-68.082 19.395c-14.126 28.493-22.072 60.567-22.072 94.468h74.178c-.367-5.962-.56-11.982-.56-18.057z" fill="#a47cd1"/><path d="m455.58 113.118c-7.654-15.443-16.896-29.959-27.523-43.349h-72.443l73.085 56.672h33.483z" fill="#ffa2e7"/><path d="m428.7 126.441h-382.653c34.903-70.423 107.56-118.941 191.326-118.941s156.423 48.518 191.327 118.941z" fill="#fbe29f"/><path d="m257.329 50.229h-39.912c-11.989 0-21.708 9.719-21.708 21.708 0 11.989 9.719 21.708 21.708 21.708h39.912c11.989 0 21.708-9.719 21.708-21.708 0-11.989-9.719-21.708-21.708-21.708z" fill="#b08bd7"/><g><circle cx="414.233" cy="231.346" fill="#c7856a" r="49.94"/></g><path d="m409.94 182.045c-25.139-.001-46.497-6.971-63.165-15.435-27.072-13.747-58.834-15.215-87.167-4.301-85.435 32.908-194.601 19.297-194.705 19.291-2.924 12.884-4.448 26.3-4.388 40.083.422 97.502 82.247 177.615 179.738 176.059 96.349-1.538 173.981-80.121 173.981-176.837-.001-13.352-1.49-26.355-4.294-38.86z" fill="#da9d81"/><path d="m201.639 431.66h-30.142c-9.324 0-16.882 7.558-16.882 16.882 0 9.324 7.558 16.882 16.882 16.882h30.142c9.324 0 16.882-7.558 16.882-16.882 0-9.323-7.558-16.882-16.882-16.882z" fill="#fbe29f"/><path d="m273.107 431.66h30.142c9.324 0 16.882 7.558 16.882 16.882 0 9.324-7.558 16.882-16.882 16.882h-30.142c-9.324 0-16.882-7.558-16.882-16.882 0-9.323 7.559-16.882 16.882-16.882z" fill="#fbe29f"/><path d="m163.48 381.243c-40.478-44.105-65.888-107.695-65.888-178.391 0-6.35.208-12.642.611-18.868-20.372-.776-33.264-2.382-33.299-2.384-.002.008-.003.015-.005.023-1.389-.137-2.842-.217-4.385-.217-27.581 0-49.94 22.359-49.94 49.939 0 27.581 22.359 49.94 49.94 49.94 3.946 0 7.36-.472 10.34-1.337 16.134 44.67 49.929 81.295 92.626 101.295z" fill="#c7856a"/><path d="m168.914 18.769c-53.743 18.252-97.937 57.371-122.867 107.672h61.875c11.806-42.343 33.157-79.447 60.992-107.672z" fill="#fccb88"/><g><g><g><ellipse cx="127.893" cy="254.824" fill="#fff" rx="40.396" ry="32.169"/></g><g><ellipse cx="346.853" cy="254.824" fill="#fff" rx="40.396" ry="32.169"/></g></g></g></g><g><path d="m217.418 101.145h39.912c16.105 0 29.208-13.103 29.208-29.208s-13.103-29.208-29.208-29.208h-39.912c-16.105 0-29.208 13.103-29.208 29.208s13.102 29.208 29.208 29.208zm0-43.416h39.912c7.834 0 14.208 6.374 14.208 14.208s-6.374 14.208-14.208 14.208h-39.912c-7.834 0-14.208-6.374-14.208-14.208s6.373-14.208 14.208-14.208z"/><path d="m143.936 207.343v16.513c0 4.142 3.358 7.5 7.5 7.5s7.5-3.358 7.5-7.5v-16.513c0-4.142-3.358-7.5-7.5-7.5s-7.5 3.358-7.5 7.5z"/><path d="m315.811 207.343v16.513c0 4.142 3.358 7.5 7.5 7.5s7.5-3.358 7.5-7.5v-16.513c0-4.142-3.358-7.5-7.5-7.5s-7.5 3.358-7.5 7.5z"/><path d="m254.377 218.438c-8.988 10.313-24.992 10.343-34.006 0-2.721-3.123-7.46-3.448-10.582-.726-3.123 2.722-3.448 7.459-.726 10.582 14.984 17.192 41.654 17.174 56.622 0 2.722-3.123 2.396-7.86-.726-10.582-3.124-2.722-7.862-2.398-10.582.726z"/><path d="m390.971 62.269c-39.86-38.593-94.142-62.269-153.598-62.269-86.657 0-161.895 50.172-198.045 123.109-10.832 21.848-17.888 45.157-21.011 69.316-9.454 10.242-15.243 23.915-15.243 38.919 0 33.685 29.064 60.413 62.93 57.165 9.434 23.552 23.842 45.197 42.696 63.672 12.524 12.273 26.412 22.547 41.281 30.697-13.284 10.251-34.952 31.908-46.114 69.985 0 .001-.001.002-.001.004-4.663 15.889-7.027 33.261-7.027 51.632 0 4.14 3.359 7.5 7.5 7.5 43.793-.001 128.582-.006 266.071 0 4.139 0 7.5-3.358 7.5-7.5 0-18.37-2.364-35.742-7.027-51.632 0-.001-.001-.002-.001-.004-11.081-37.8-32.52-59.425-45.828-69.766 13.917-7.535 26.924-16.894 38.667-27.95 3.016-2.839 3.159-7.586.319-10.602-2.839-3.016-7.586-3.159-10.602-.319-30.762 28.963-71.01 45.342-113.304 46.017-43.867.702-87.345-15.858-120.936-48.775-42.29-41.441-58.272-98.065-48.305-151.705 60.405 5.642 134.988 1.278 191.411-20.456 26.461-10.192 56.011-8.738 81.076 3.99 19.914 10.115 40.417 15.26 60.417 16.116 8.667 46.034-1.801 94.49-31.148 133.387-2.495 3.306-1.836 8.01 1.47 10.504 3.308 2.496 8.01 1.836 10.504-1.47 10.151-13.454 18.292-27.991 24.34-43.303 52.402 4.804 82.85-57.771 47.467-96.105-2.613-20.211-7.986-39.823-16.013-58.485h32.674c19.76 0 35.836-16.076 35.836-35.836s-16.076-35.836-35.836-35.836h-82.12zm-219.473 395.655c-.004 0-.007 0-.011 0-5.075-.008-9.371-4.167-9.371-9.381 0-.007.001-.014.001-.021.012-5.14 4.224-9.352 9.37-9.36h.011 30.142c7.129 0 9.123 6.9 8.991 6.718 1.8 6.03-2.799 12.046-8.991 12.046h-30.142zm29.539-33.763h-28.937v-31c9.384 3.614 19.057 6.434 28.938 8.445v22.555zm-52.455-19.949c3.035-3.095 5.931-5.682 8.518-7.798v32.466c-5.91 4.334-9.644 11.184-9.961 18.6h-25.68c7.715-20.592 18.724-34.704 27.123-43.268zm-31.793 58.267h34.71c1.426 2.047 3.456 4.168 5.601 5.731v28.787l-45.119.003c.468-12.125 2.078-23.689 4.808-34.521zm55.311 10.445h28.938v24.073h-28.938zm43.937-4.719c.009-.007.017-.014.026-.021 6.365-4.684 9.958-12.045 9.958-19.642 0-7.391-3.344-14.682-9.984-19.663v-24.873c14.178 1.666 28.653 1.659 42.672.027v24.845c-6.584 4.938-9.984 12.183-9.984 19.663 0 7.629 3.593 14.953 9.984 19.662v28.793h-42.672zm86.61-74.844v30.8h-28.938v-22.484c9.66-1.935 19.637-4.794 28.938-8.316zm-30.546 64.507c-4.806-.525-8.375-4.643-8.375-9.326 0-6.139 5.455-8.474 5.556-8.556 3.471-1.555 3.331-.438 33.968-.826 5.171 0 9.382 4.244 9.382 9.382 0 5.239-4.29 9.382-9.382 9.382-33.118 0-31.156-.057-31.149-.056zm1.608 15.056h28.938v24.073h-28.938zm43.938 24.074v-28.787c2.024-1.483 4.084-3.55 5.6-5.731h34.71c2.73 10.832 4.341 22.396 4.809 34.52zm35.64-49.519h-25.68c-.338-7.523-4.068-14.25-9.96-18.6v-32.465c2.586 2.116 5.483 4.703 8.518 7.798 8.398 8.564 19.408 22.676 27.122 43.267zm-302.529-313.538h81.674c4.142 0 7.5-3.358 7.5-7.5s-3.358-7.5-7.5-7.5h-73.89c36.472-63.762 104.36-103.941 178.831-103.941 74.88 0 142.465 40.471 178.828 103.941h-253.769c-4.142 0-7.5 3.358-7.5 7.5s3.358 7.5 7.5 7.5h261.558c6.835 14.602 11.892 29.868 15.11 45.601-9.809-4.719-21.454-6.691-32.95-5.07-19.872-.59-38.739-5.792-55.978-14.55-28.831-14.635-62.814-16.34-93.259-4.612-54.572 21.015-133.664 25.447-191.065 18.85-8.574-1.027-20.231.586-30.2 5.383 3.217-15.734 8.274-31.001 15.11-45.602zm-32.685 97.405c0-21.681 16.397-39.778 37.667-42.165-4.889 28.326-3.189 57.299 5.097 84.603-23.779.161-42.764-19.142-42.764-42.438zm395.993 42.439c8.295-27.787 9.712-57.034 4.937-84.604 21.028 2.336 37.67 20.259 37.67 42.165 0 23.446-19.13 42.541-42.607 42.439zm79.861-175.68c0 11.489-9.347 20.836-20.836 20.836h-39.792c-7.713-14.773-17.507-29.176-28.224-41.672h68.016c11.488 0 20.836 9.347 20.836 20.836z"/></g></g></svg>