<svg id="Capa_1" enable-background="new 0 0 512 512" height="512" viewBox="0 0 512 512" width="512" xmlns="http://www.w3.org/2000/svg"><g><g><path d="m326.151 504.5h-140.302l-52.783-44.698c12.627-38.818 38.219-57.384 38.219-57.384h169.427s25.593 18.566 38.219 57.384z" fill="#b08bd7"/><g><path d="m207.242 402.418h-35.956s-25.593 18.566-38.219 57.384l23.738 20.102c2.753-33.873 22.512-62.749 50.437-77.486z" fill="#a47cd1"/></g><path d="m185.849 459.802v44.698h-59.66c0-17.108 2.745-31.991 6.877-44.698z" fill="#da9d81"/><path d="m385.81 504.5h-59.66v-44.698h52.783c4.132 12.707 6.877 27.59 6.877 44.698z" fill="#da9d81"/><path d="m263.621 22.763c12.711-12.711 30.349-17.479 46.764-14.318 7.314 1.408 13.112 7.207 14.521 14.521 3.161 16.415-1.607 34.053-14.318 46.764-15.639 15.639-38.736 19.254-57.838 10.872-8.383-19.103-4.768-42.2 10.871-57.839z" fill="#00d1b3"/><g fill="#50e1cd"><path d="m248.379 22.763c-12.711-12.711-30.349-17.479-46.764-14.318-7.314 1.408-13.112 7.207-14.521 14.521-3.161 16.415 1.607 34.053 14.318 46.764 15.639 15.639 38.736 19.254 57.838 10.872 8.383-19.103 4.768-42.2-10.871-57.839z"/><path d="m440.609 243.991c0 3.494-.1 6.967-.29 10.411l-184.319 22.27-184.32-22.27c-.19-3.444-.29-6.917-.29-10.411 0-29.755 7.077-57.903 19.634-82.827l164.976-23.028 164.975 23.027c12.557 24.925 19.634 53.073 19.634 82.828z"/><path d="m440.32 254.402c-4.372 78.355-57.843 143.834-130.08 166.073l-54.24-23.417-54.24 23.417c-72.237-22.239-125.708-87.718-130.08-166.073z"/></g><g><circle cx="404.183" cy="254.399" fill="#c7856a" r="44.236"/></g><path d="m133.103 161.171c-15.965 23.644-25.287 52.143-25.287 82.819 0 81.839 66.344 148.183 148.183 148.183s148.183-66.344 148.183-148.183c0-30.676-9.322-59.175-25.286-82.819z" fill="#da9d81"/><path d="m282.86 365.506h-53.72c-15.122 0-27.381 12.259-27.381 27.381v27.589c17.154 5.288 35.37 8.129 54.241 8.129s37.087-2.842 54.241-8.129v-27.589c0-15.122-12.259-27.381-27.381-27.381z" fill="#fbe29f"/><path d="m420.972 161.166h-329.944c30.405-60.32 92.932-101.79 164.972-101.79s134.568 41.47 164.972 101.79z" fill="#fbe29f"/><path d="m203.112 382.444c-40.349-38.611-65.81-95.11-65.81-158.069 0-22.022 3.119-43.251 8.895-63.205h-13.094c-9.943 14.726-17.306 31.337-21.449 49.182-1.21-.12-2.48-.19-3.838-.19-24.431 0-44.236 19.805-44.236 44.236s19.805 44.236 44.236 44.236c3.866 0 7.112-.499 9.844-1.431 15.068 39.138 46.268 70.264 85.452 85.241z" fill="#c7856a"/><path d="m201.91 67.464c-48.416 14.864-88.418 49.135-110.883 93.702h55.171c10.574-36.523 30.069-68.754 55.712-93.702z" fill="#fccb88"/><path d="m156.469 488.048c0-9.83 1.432-19.314 4.088-28.246h-27.49c-4.132 12.707-6.877 27.589-6.877 44.698h31.643c-.893-5.346-1.364-10.842-1.364-16.452z" fill="#c7856a"/></g><g><path d="m201.081 111.997v-11.978c0-4.142-3.358-7.5-7.5-7.5s-7.5 3.358-7.5 7.5v11.978c0 4.142 3.358 7.5 7.5 7.5s7.5-3.358 7.5-7.5z"/><path d="m325.747 111.997v-11.978c0-4.142-3.358-7.5-7.5-7.5s-7.5 3.358-7.5 7.5v11.978c0 4.142 3.358 7.5 7.5 7.5s7.5-3.358 7.5-7.5z"/><path d="m256.096 135.63c14.07 12.325 36.357 2.36 36.357-16.492 0-4.142-3.358-7.5-7.5-7.5s-7.5 3.358-7.5 7.5c0 3.82-3.108 6.929-6.929 6.929-3.82 0-6.929-3.108-6.929-6.929 0-4.142-3.358-7.5-7.5-7.5s-7.5 3.358-7.5 7.5c0 3.82-3.108 6.929-6.929 6.929-3.82 0-6.929-3.108-6.929-6.929 0-4.142-3.358-7.5-7.5-7.5s-7.5 3.358-7.5 7.5c.001 18.853 22.289 28.818 36.359 16.492z"/><path d="m167.885 230.604c-4.142 0-7.5 3.358-7.5 7.5v16.932c0 4.142 3.358 7.5 7.5 7.5s7.5-3.358 7.5-7.5v-16.932c0-4.142-3.358-7.5-7.5-7.5z"/><path d="m344.116 230.604c-4.142 0-7.5 3.358-7.5 7.5v16.932c0 4.142 3.358 7.5 7.5 7.5s7.5-3.358 7.5-7.5v-16.932c0-4.142-3.358-7.5-7.5-7.5z"/><path d="m284.159 248.878c-3.123-2.721-7.86-2.396-10.582.727-4.437 5.091-10.843 8.011-17.577 8.011s-13.141-2.92-17.577-8.011c-2.722-3.123-7.459-3.447-10.582-.727-3.123 2.722-3.448 7.459-.727 10.582 7.287 8.361 17.815 13.156 28.886 13.156s21.599-4.795 28.886-13.156c2.721-3.123 2.396-7.86-.727-10.582z"/><path d="m442.81 288.766c15.715-17.644 17.452-43.526 4.413-63.036-7.013-74.131-56.125-135.843-122.949-161.305 7.876-12.651 10.856-28.023 7.997-42.875-1.977-10.266-10.202-18.491-20.467-20.467-20.488-3.944-41.675 3.019-55.804 18.84-14.461-16.162-35.746-22.703-55.803-18.841-10.266 1.977-18.491 10.202-20.467 20.467-2.858 14.841.117 30.202 7.98 42.849-15.382 5.872-30.046 13.757-43.686 23.573-3.362 2.419-4.126 7.106-1.707 10.468s7.105 4.126 10.468 1.707c84.294-60.661 202.412-35.74 255.521 53.521-15.922 0-287.07 0-304.613 0 7.526-12.645 16.605-24.316 27.09-34.808 2.928-2.93 2.926-7.678-.003-10.606-2.931-2.928-7.678-2.927-10.607.003-30.862 30.884-51.08 71.879-55.395 117.474-13.021 19.484-11.324 45.368 4.413 63.036 11.916 49.724 43.245 92.187 85.816 118.586-9.362 10.107-21.411 26.582-29.071 50.13 0 .001 0 .002-.001.003-4.807 14.782-7.244 30.6-7.244 47.014 0 4.142 3.358 7.5 7.5 7.5h59.659 140.3 59.659c4.142 0 7.5-3.358 7.5-7.5 0-16.416-2.438-32.235-7.245-47.017 0-.001-.001-.003-.002-.004-7.659-23.545-19.708-40.02-29.07-50.126 42.572-26.399 73.901-68.862 85.818-118.586zm-133.843-272.954c4.3.828 7.746 4.273 8.574 8.574 2.372 12.322-.612 25.124-8.014 35.095-12.628-3.666-25.748-6.039-38.822-7.038-.816-6.785-2.796-13.438-5.911-19.62 10.27-13.645 27.352-20.251 44.173-17.011zm-114.508 8.573c.828-4.3 4.273-7.746 8.574-8.574 24.334-4.684 48.052 11.301 52.403 36.068-17.833.051-35.76 2.576-52.981 7.575-7.389-9.967-10.366-22.758-7.996-35.069zm123.282 385.603c-.13-14.339.332-18.044-.473-22.843 14.59-6.253 28.912-15.086 41.863-26.548 2.521-2.231 3.184-5.779 1.871-8.695-2.04-4.543-7.97-5.971-11.902-2.461-11.171 9.868-23.824 17.916-37.421 23.776-5.704-8.4-14.782-13.848-24.868-14.981-3.178-.359-57.785-.23-57.675-.23-11.374 0-22.239 5.53-28.812 15.206-80.001-34.559-109.21-132.163-63.162-204.54h237.674c31.835 50.164 28.362 114.022-6.692 160.24-2.674 3.525-1.74 8.618 2.085 10.944 3.245 1.983 7.53 1.223 9.877-1.873 7.622-10.047 13.913-20.813 18.824-32.119 8.467.872 16.92-.423 24.22-3.298-17.069 48.597-55.188 88.643-105.409 107.422zm-108.482 4.853v-21.954c0-10.773 8.759-19.881 19.881-19.881 55.781.038 54.73-.219 57.841.435 6.538 1.384 12.191 6.073 14.59 12.791 1.929 5.409.884 7.885 1.17 28.609-10.831 2.974-22.345 5.003-34.456 5.836-19.91 1.368-39.829-.577-59.026-5.836zm-127.535-134.612c-21.191-21.404-8.916-57.742 20.746-62.154-4.242 25.33-2.055 50.495 5.1 73.053-9.929-.065-19.135-4.114-25.846-10.899zm13.986-111.561c.136 0 23.901.002 24.006.002-5.744 10.364-10.584 22.074-13.859 34.032-8.671.34-16.663 2.789-23.58 6.734 2.785-14.082 7.278-27.725 13.433-40.768zm320.58 0c6.155 13.044 10.648 26.686 13.433 40.768-6.918-3.945-14.911-6.394-23.58-6.734-3.283-11.983-8.109-23.658-13.859-34.032.111 0 23.84-.002 24.006-.002zm-11.839 122.461c7.413-23.386 9.164-48.656 5.079-73.053 7.257 1.079 14.155 4.309 19.733 9.516 24.28 22.74 8.085 63.311-24.812 63.537zm-315.603 11.436c7.526 2.964 16.125 4.138 24.245 3.297 15.437 35.574 44.254 65.266 81.638 81.282-.935 5.563-.237 11.143-.473 22.843-49.624-18.548-88.127-58.221-105.41-107.422zm49.789 164.737h39.713v29.698h-44.471c.52-10.263 2.113-20.208 4.758-29.698zm195.013 29.698v-29.698h39.713c2.645 9.489 4.237 19.434 4.757 29.698zm9.862-82.024c6.654 6.744 16.982 19.159 24.632 37.326h-41.994c-4.142 0-7.5 3.358-7.5 7.5v37.198h-125.3v-37.198c0-4.142-3.358-7.5-7.5-7.5-26.002 0-15.992 0-41.994 0 7.65-18.167 17.977-30.583 24.632-37.326 27.24 13.985 56.983 21.129 87.512 21.129 50.08 0 86.102-20.609 87.512-21.129z"/></g></g></svg>