<svg id="Capa_1" enable-background="new 0 0 512 512" height="512" viewBox="0 0 512 512" width="512" xmlns="http://www.w3.org/2000/svg"><g><g><path d="m185.531 380.173 23.408 64.29-23.408 54.404h-58.348c0-88.828 58.348-118.694 58.348-118.694z" fill="#ff889e"/><path d="m384.817 498.867h-58.882l-17.864-54.404 17.864-64.29.564.03h.01c1.769 1.226 58.308 31.22 58.308 118.664z" fill="#ff889e"/><path d="m185.531 380.173h140.403v118.693h-140.403z" fill="#ffb5ec"/><circle cx="255.733" cy="395.299" fill="#ff889e" r="39.694"/><path d="m497.565 97.606-15.74-8.013 6.341-21.932c1.889-6.532-1.724-13.389-8.179-15.525l-21.674-7.174 2.293-17.513c1.099-8.399-6.219-15.555-14.57-14.136-55.34 9.403-67.142 64.649-67.142 64.649l30.799 58.465s52.238 21.511 91.289-18.811c5.894-6.084 4.131-16.166-3.417-20.01z" fill="#ffa2e7"/><path d="m49.366 224.045c0-113.938 92.696-206.634 206.634-206.634s206.635 92.696 206.635 206.634z" fill="#ffb5ec"/><path d="m207.302 23.222c-29.562 7.169-56.659 20.715-79.75 39.089-7.825-17.088-25.393-42.848-61.589-48.998-8.351-1.419-15.669 5.737-14.57 14.136l2.293 17.513-21.674 7.174c-6.455 2.136-10.067 8.993-8.179 15.525l6.341 21.932-15.739 8.013c-7.549 3.843-9.311 13.926-3.418 20.011 17.759 18.336 38.243 23.884 55.303 24.485-10.902 25.135-16.954 52.844-16.954 81.942h71.826c-.208-4.203-.317-8.434-.317-12.691-.001-76.287 33.786-144.243 86.427-188.131z" fill="#ffa2e7"/><g><circle cx="427.251" cy="234.154" fill="#ffcabd" r="48.356"/></g><path d="m427.248 224.041c0 94.67-76.811 171.402-171.515 171.258s-171.78-78.042-170.975-172.743c.269-31.628 9.116-61.209 24.32-86.533 3.356-5.59 10.749-7.169 16.116-3.467l17.717 12.218c5.882 4.053 13.663 4.053 19.535 0l32.13-22.155c5.872-4.053 13.653-4.053 19.535 0l32.12 22.155c5.882 4.053 13.653 4.053 19.535 0l32.12-22.155c5.882-4.053 13.663-4.053 19.545 0l32.12 22.155c5.872 4.053 13.653 4.053 19.535 0l17.72-12.219c5.355-3.693 12.746-2.139 16.095 3.438 15.455 25.726 24.347 55.848 24.347 88.048z" fill="#ffd8d2"/><path d="m187.512 380.926c-41.168-43.376-66.638-103.335-66.638-169.573 0-25.875 3.902-50.783 11.092-74.127l-6.772-4.669c-5.367-3.702-12.76-2.122-16.116 3.467-9.17 15.273-16.007 32.103-20.065 49.988-1.349-.134-2.761-.213-4.265-.213-26.706 0-48.356 21.65-48.356 48.356s21.65 48.356 48.356 48.356c3.783 0 7.047-.449 9.891-1.27 15.905 44.542 49.799 80.743 92.873 99.685z" fill="#ffcabd"/><g><g><g><ellipse cx="153.04" cy="256.634" fill="#ff9db0" rx="37.99" ry="30.254"/></g><g><ellipse cx="358.96" cy="256.634" fill="#ff9db0" rx="37.99" ry="30.254"/></g></g></g></g><g><path d="m175.183 204.483c-4.142 0-7.5 3.358-7.5 7.5v15.53c0 4.142 3.358 7.5 7.5 7.5s7.5-3.357 7.5-7.5v-15.53c0-4.141-3.358-7.5-7.5-7.5z"/><path d="m336.818 204.483c-4.142 0-7.5 3.358-7.5 7.5v15.53c0 4.142 3.358 7.5 7.5 7.5s7.5-3.357 7.5-7.5v-15.53c-.001-4.141-3.358-7.5-7.5-7.5z"/><path d="m282.235 221.397c-3.122-2.722-7.86-2.395-10.581.727-3.952 4.534-9.657 7.135-15.653 7.135-5.997 0-11.702-2.601-15.653-7.135-2.721-3.123-7.459-3.448-10.581-.727-3.123 2.722-3.448 7.459-.727 10.581 6.801 7.804 16.627 12.279 26.961 12.279 10.333 0 20.16-4.475 26.961-12.279 2.72-3.122 2.395-7.86-.727-10.581z"/><path d="m500.961 90.929-10.216-5.201 4.619-15.977c3.021-10.448-2.701-21.31-13.027-24.728l-15.789-5.225 1.488-11.367c1.773-13.546-10.069-24.744-23.262-22.502-34.334 5.833-53.237 28.04-62.893 44.977-9.059-6.582-18.694-12.513-28.858-17.701-3.689-1.884-8.206-.419-10.09 3.269-1.883 3.689-.419 8.207 3.27 10.09 54.321 27.731 92.742 78.775 104.78 137.011-7.096-3.338-14.899-5.057-22.171-5.25-4.071-15.482-10.767-31.614-19.486-46.189-5.521-9.191-17.849-11.91-26.782-5.75-18.429 12.528-18.976 14.007-23.428 13.909-5.197-.105-4.71-1.942-37.432-23.846-6.86-4.728-16.104-5.901-24.825-1.876-3.114 1.504-2.285 1.342-35.35 24.03-3.205 2.21-7.653 2.324-11.021.002-32.571-22.112-32.376-23.147-37.952-25.092-7.594-2.648-15.932-1.401-22.218 2.937l-32.132 22.157c-3.291 2.271-7.719 2.27-11.016-.002-1.666-1.149-15.677-10.811-17.717-12.217-8.938-6.165-21.239-3.49-26.803 5.781-8.691 14.474-15.315 30.385-19.47 46.156-7.561.217-15.285 2.014-22.16 5.246 18.836-90.761 99.432-158.653 194.981-158.653 21.718 0 43.085 3.494 63.506 10.385 3.927 1.324 8.18-.784 9.504-4.708 1.325-3.925-.784-8.179-4.708-9.504-21.969-7.413-44.949-11.172-68.302-11.172-45.46 0-89.408 14.444-125.867 41.015-9.65-16.94-28.554-39.169-62.908-45.006-13.298-2.258-25.024 9.05-23.262 22.502l1.487 11.367-15.789 5.225c-10.325 3.418-16.047 14.279-13.026 24.728l4.619 15.977-10.215 5.202c-12.07 6.145-14.804 22.203-5.403 31.911 13.709 14.155 30.835 22.938 49.981 25.785-5.776 15.302-9.8 31.304-11.932 47.725-9.172 9.955-14.785 23.236-14.785 37.807 0 32.528 27.944 58.582 60.884 55.613 15.66 39.388 45.101 71.715 80.992 91.346-7.886 6.201-18.659 16.462-28.302 31.83-2.202 3.509-1.142 8.137 2.366 10.34 3.508 2.202 8.138 1.142 10.339-2.366 7.72-12.303 16.283-20.883 22.854-26.357v96.799h-43.198c.645-16.15 3.392-31.257 8.187-45.001 1.365-3.911-.699-8.187-4.61-9.552-3.911-1.364-8.187.7-9.552 4.61-6.087 17.443-9.173 36.769-9.173 57.443 0 4.142 3.357 7.5 7.5 7.5h257.625c4.142 0 7.5-3.357 7.5-7.5 0-67.143-31.781-102.39-51.102-117.601 14.905-8.106 28.736-18.394 41.079-30.718 17.639-17.612 31.134-38.261 40.022-60.763 33.031 2.909 60.789-23.242 60.789-55.622 0-14.577-5.618-27.862-14.797-37.819-2.141-16.498-6.154-32.49-11.882-47.718 19.13-2.853 36.242-11.634 49.943-25.78 9.384-9.692 6.686-25.757-5.404-31.912zm-484.549 21.475c-2.391-2.469-1.616-6.556 1.434-8.109l15.739-8.013c3.206-1.632 4.802-5.311 3.802-8.767l-6.341-21.931c-.772-2.671.691-5.448 3.33-6.322l21.673-7.173c3.415-1.13 5.547-4.527 5.08-8.093l-2.292-17.513c-.445-3.398 2.493-6.344 5.877-5.768 28.784 4.89 44.78 23.239 53.481 39.581-1.652 1.392-3.291 2.801-4.906 4.247-22.007 19.713-39.5 43.488-51.663 69.743-17.579-1.686-32.771-9.034-45.214-21.882zm27.488 121.752c0-20.898 15.779-38.164 35.961-40.554-1.647 9.566-2.517 19.45-2.598 28.892-.149 17.683 2.327 35.531 7.389 52.515-22.48-.054-40.752-18.359-40.752-40.853zm243.679 165.874c-2.296 15.516-15.702 27.46-31.845 27.46-16.188 0-29.623-12.01-31.865-27.587 21.583 3.923 43.566 3.743 63.71.127zm-94.545 91.331v-100.015c5.093 1.926 10.275 3.62 15.536 5.069.598 25.506 21.517 46.075 47.165 46.075 25.583 0 46.462-20.466 47.16-45.883 5.262-1.421 10.445-3.086 15.54-4.981v99.735zm184.134 0h-43.735v-97.137c16.37 13.371 41.593 42.671 43.735 97.137zm-5.476-151.434c-63.282 63.186-167.072 64.692-231.905-.796-51.954-52.476-61.859-131.496-27.14-194.26 2.712-4.902 3.137-5.659 4.137-6.262.762-.459 1.644-.623 2.469-.522 1.312.157.518-.16 19.409 12.867 8.395 5.785 19.668 5.783 28.047-.001l32.133-22.157c1.936-1.336 4.733-2.066 7.563-1.457 3.508.754 2.082.85 35.575 23.616 8.012 5.52 19.324 6.011 28.048-.002l32.117-22.152c3.3-2.274 7.733-2.273 11.03-.002l32.117 22.153c8.328 5.748 19.6 5.825 28.053.002 18.743-12.911 17.731-12.264 18.163-12.485 1.701-.871 3.917-.352 4.964 1.391 38.351 63.863 28.939 146.43-24.78 200.067zm55.709-64.917c7.762-26.236 9.399-54.216 4.736-81.407 20.899 2.502 35.964 20.311 35.964 40.554 0 22.476-18.242 40.77-40.7 40.853zm68.188-162.606c-12.433 12.837-27.61 20.182-45.17 21.877-13.137-28.437-32.43-53.716-56.594-74.019 8.705-16.333 24.699-34.659 53.462-39.546 3.375-.576 6.322 2.363 5.877 5.768l-2.293 17.512c-.467 3.567 1.665 6.963 5.08 8.094l21.673 7.173c2.64.874 4.103 3.65 3.33 6.322l-6.341 21.931c-.999 3.456.596 7.135 3.802 8.767l15.739 8.013c3.06 1.557 3.819 5.648 1.435 8.108z"/></g></g></svg>