<svg id="Capa_1" enable-background="new 0 0 512 512" height="512" viewBox="0 0 512 512" width="512" xmlns="http://www.w3.org/2000/svg"><g><g><path d="m215.998 504.5h77.488l19.075-31.75v-56.783l-19.075-34.207h-77.488l-19.075 34.207v56.783z" fill="#ff889e"/><circle cx="254.742" cy="390.461" fill="#ffbe9c" r="59.495"/><path d="m159.213 415.967s-39.052 23.812-39.052 88.533h58.825l17.938-31.75v-56.783z" fill="#b08bd7"/><path d="m350.271 415.967s39.052 23.812 39.052 88.533h-58.825l-17.938-31.75v-56.783z" fill="#b08bd7"/><path d="m129.244 455.226c16.41 13.658 24.741 30.216 24.741 49.274h25l17.938-31.75v-56.783h-37.71s-18.431 11.239-29.969 39.259z" fill="#a47cd1"/><path d="m138.982 389.95c-12.348 12.348-10.927 32.661 2.889 43.341 17.805 13.764 37.115 36.656 37.115 71.209h37.013v-122.74h-57.243c-7.417 0-14.53 2.946-19.774 8.19z" fill="#ffb5ec"/><path d="m350.271 415.967h-37.711v56.783l17.938 31.75h25c0-19.058 8.331-35.616 24.742-49.274-11.538-28.02-29.969-39.259-29.969-39.259z" fill="#a47cd1"/><path d="m370.502 389.95c12.348 12.348 10.927 32.661-2.889 43.341-17.805 13.764-37.115 36.656-37.115 71.209h-37.013v-122.74h57.243c7.417 0 14.53 2.946 19.774 8.19z" fill="#ffb5ec"/><path d="m62.353 125.06c-12.376 26.972-19.283 56.954-19.283 88.52h425.86c0-31.566-6.907-61.549-19.283-88.52l-100.179-39.679h-166.537z" fill="#b08bd7"/><path d="m111.11 200.356c0-35.194 6.893-68.386 19.083-97.621l-67.84 22.324c-12.376 26.972-19.283 56.954-19.283 88.52h68.379c-.216-4.374-.339-8.78-.339-13.223z" fill="#a47cd1"/><circle cx="432.472" cy="234.412" fill="#ffbe9c" r="49.83"/><path d="m449.647 125.06-1.638-9.456c-4.579-26.438-26.311-46.526-53.027-49.015l-18.246-1.7-.004-.015c-9.924-33.008-45.763-50.671-77.986-38.435l-.045-.049c-23.49-25.187-63.406-25.187-86.896 0l-.045.049c-32.223-12.236-68.061 5.427-77.986 38.435l-.004.015-16.973 1.582c-27.308 2.545-49.325 23.451-53.278 50.591l-1.165 7.999h113.243l80.403 53.617 79.076-53.619h114.571z" fill="#ffb5ec"/><path d="m432.219 214.461c-4.307-80.895-101.019-120.891-159.939-65.294-.43.406-.851.81-1.263 1.212-8.381 8.177-21.653 8.177-30.034 0-.41-.4-.83-.803-1.258-1.207-58.758-55.45-155.414-15.838-159.919 64.827-.179 3.199-.272 6.42-.278 9.662-.179 96.699 78.517 176.128 175.214 176.802 98.04.683 177.73-78.586 177.73-176.468 0-3.199-.085-6.378-.253-9.534z" fill="#ffd3bc"/><path d="m214.106 395.404c-60.609-32.734-102.996-107.738-102.996-195.048 0-19.863 2.2-39.085 6.303-57.323-13.874 10.456-25.071 24.74-31.572 42.011-1.945-.296-4.035-.463-6.312-.463-27.52 0-49.83 22.31-49.83 49.83 0 27.521 22.31 49.83 49.83 49.83 3.883 0 7.248-.459 10.192-1.299 19.786 55.385 66.584 98.26 124.385 112.462z" fill="#ffbe9c"/><path d="m188.365 22.61c-24.524.962-47.047 17.17-54.592 42.263l-.004.015-16.973 1.582c-27.308 2.545-49.325 23.451-53.278 50.591l-1.165 7.999h59.817c12.878-42.213 36.263-78.001 66.195-102.45z" fill="#ffa2e7"/><g><g><g><ellipse cx="150.162" cy="264.905" fill="#ff9db0" rx="39.052" ry="31.099"/></g><g><ellipse cx="361.838" cy="264.905" fill="#ff9db0" rx="39.052" ry="31.099"/></g></g></g></g><g><path d="m180.422 234.968v-15.964c0-4.142-3.358-7.5-7.5-7.5s-7.5 3.358-7.5 7.5v15.964c0 4.142 3.358 7.5 7.5 7.5s7.5-3.358 7.5-7.5z"/><path d="m339.079 242.468c4.142 0 7.5-3.358 7.5-7.5v-15.964c0-4.142-3.358-7.5-7.5-7.5s-7.5 3.358-7.5 7.5v15.964c0 4.142 3.358 7.5 7.5 7.5z"/><path d="m256 251.971c10.562 0 20.606-4.575 27.558-12.551 2.721-3.123 2.396-7.86-.727-10.582s-7.86-2.397-10.582.726c-4.102 4.707-10.024 7.406-16.249 7.406s-12.147-2.699-16.249-7.406c-2.721-3.124-7.459-3.448-10.582-.727s-3.448 7.459-.727 10.582c6.952 7.977 16.996 12.552 27.558 12.552z"/><path d="m456.878 122.864-1.479-8.541c-5.145-29.706-29.703-52.406-59.721-55.203l-13.427-1.251c-6.027-15.567-17.774-28.485-32.834-35.907-15.12-7.452-32.598-8.882-48.667-4.111-12.308-11.398-28.631-17.851-45.497-17.851-16.856 0-33.168 6.445-45.494 17.852-16.069-4.771-33.549-3.342-48.669 4.11-15.056 7.42-26.801 20.332-32.833 35.908l-12.157 1.132c-30.862 2.876-55.536 26.306-60.004 56.978l-1.016 6.979c-10.59 23.391-16.924 48.249-18.854 73.945-8.728 10.062-14.029 23.174-14.029 37.509 0 33.568 28.935 60.257 62.736 57.063 4.317 10.866 9.684 21.354 16.072 31.322 2.235 3.487 6.874 4.503 10.361 2.268s4.502-6.874 2.268-10.361c-19.119-29.833-28.327-64.712-26.34-100.288 4.179-74.877 94.476-111.332 148.451-58.67 11.357 11.082 29.151 11.081 40.507.001 40.287-39.258 103.332-29.973 133.391 13.901 34.162 50.3 9.032 130.935-34.583 174.246-68.735 68.257-179.208 64.529-243.768-6.207-2.792-3.06-7.536-3.276-10.596-.483-3.059 2.792-3.276 7.536-.483 10.596 9.399 10.298 19.873 19.407 31.155 27.234-26.096 5.503-37.721 37.842-19.466 59.073-9.51 14.568-19.243 37.51-19.243 70.393 0 4.142 3.358 7.5 7.5 7.5h269.163c4.142 0 7.5-3.358 7.5-7.5 0-32.882-9.733-55.825-19.243-70.393 17.566-20.43 7.55-51.599-17.257-58.53 29.193-20.185 53.166-49.157 66.922-84.086 33.889 3.085 62.556-23.718 62.556-57.079 0-14.335-5.301-27.447-14.029-37.509-1.929-25.732-8.277-50.621-18.893-74.04zm-170.892 309.139c-18.473 13.91-43.948 13.959-62.487.002v-26.938c20.113 3.62 41.412 3.906 62.487.473zm-127.231-42.743h16.657c10.614 5.212 21.712 9.387 33.086 12.447v95.293h-22.299c-2.263-29.325-17.305-51.809-39.875-69.752-16.223-12.747-6.89-37.988 12.431-37.988zm-15.497 54.939c15.734 14.119 25.899 31.836 27.867 52.801h-43.275c1.232-23.957 8.244-41.2 15.408-52.801zm80.24 5.51c19.076 10.067 42.425 10.588 62.487-.001v47.292h-62.487zm127.23-60.449c12.07 0 21.43 10.359 20.663 22.395-.658 10.326-8.323 15.699-8.24 15.599-4.787 3.785-9.038 7.418-13.611 12.235-3.796 3.99-5.662 5.794-5.716 9.091-.116 7.024 8.665 10.315 13.205 4.996 2.767-3.243 6.111-6.627 9.195-9.379 7.164 11.601 14.177 28.847 15.409 52.803h-43.283c.669-7.216 2.337-14.073 4.646-20.1 1.482-3.868-.452-8.205-4.319-9.688-3.868-1.482-8.205.451-9.688 4.319-3.117 8.13-5.038 16.949-5.701 25.468h-22.303c0-10.426 0-84.542 0-94.542 12.471-3.12 24.535-7.547 36.037-13.199h13.706zm80.214-212.156c-7.785-17.478-20.757-33.275-38.326-44.544h52.159c7.057 16.375 11.902 33.499 14.474 51.125-8.742-4.637-18.761-6.853-28.307-6.581zm-313.45-103.166 16.973-1.582c3.042-.284 5.611-2.398 6.491-5.323 4.194-13.949 13.7-25.177 26.765-31.616 13.065-6.44 27.759-7.139 41.376-1.967 2.85 1.081 6.114.284 8.193-1.945 9.927-10.643 23.409-16.505 37.963-16.505s28.037 5.862 38.027 16.574c2.079 2.214 5.289 2.952 8.129 1.876 13.616-5.171 28.312-4.473 41.377 1.967 13.065 6.439 22.57 17.667 26.767 31.626.878 2.927 3.445 5.029 6.488 5.313l18.246 1.7c23.289 2.17 42.341 19.781 46.333 42.827l.117.676c-108.647-.078-78.791.357-94.463-1.184-30.835-3.059-59.512 8.162-80.494 28.635-5.484 5.35-14.075 5.35-19.557.001-23.944-23.36-56.39-33.408-88.956-27.452h-86.239c3.691-23.508 22.717-41.409 46.464-43.621zm-50.267 58.622h52.087c-17.588 11.28-30.604 27.188-38.312 44.543-9.144-.253-19.254 1.812-28.249 6.582 2.572-17.626 7.417-34.75 14.474-51.125zm12.565 144.181c-23.53.131-42.592-18.957-42.592-42.329 0-21.671 16.581-40.159 38.48-42.15-6.742 25.466-3.566 59.062 4.112 84.479zm352.543.001c7.493-25.18 10.847-58.598 3.952-84.482 10.085.913 19.016 5.303 25.775 11.916 27.161 26.624 7.959 72.764-29.727 72.566z"/></g></g></svg>