<svg id="Capa_1" enable-background="new 0 0 512 512" height="512" viewBox="0 0 512 512" width="512" xmlns="http://www.w3.org/2000/svg"><g><g><path d="m342.431 504.5h-172.862l-53.595-52.622c16.931-63.758 61.494-82.687 61.494-82.687h157.062s44.564 18.93 61.494 82.687z" fill="#5c586f"/><path d="m235.798 369.191v64.492c0 6.503 5.272 11.775 11.775 11.775h16.853c6.503 0 11.775-5.272 11.775-11.775v-64.492z" fill="#ff748f"/><path d="m178.62 369.191-5.716 34.708c-1.324 8.041 2.286 16.095 9.169 20.457 6.182 3.917 13.993 4.206 20.447.756l53.48-36.132v-19.789z" fill="#ff889e"/><path d="m333.38 369.191 5.716 34.708c1.324 8.041-2.286 16.095-9.169 20.457-6.182 3.917-13.993 4.206-20.447.756l-53.48-36.132v-19.789z" fill="#ff889e"/><path d="m169.569 451.878v52.622h-60.025c0-20.23 2.453-37.658 6.43-52.622z" fill="#ffdcce"/><path d="m402.455 504.5h-60.025v-52.622h53.595c3.977 14.964 6.43 32.392 6.43 52.622z" fill="#ffdcce"/><path d="m46.752 216.748c0-115.38 93.868-209.248 209.248-209.248s209.248 93.868 209.248 209.248z" fill="#ff889e"/><path d="m115.975 210.397c0-88.593 46.967-165.155 115.088-201.405-103.667 12.367-184.311 100.815-184.311 207.757h69.31c-.054-2.111-.087-4.227-.087-6.352z" fill="#ff748f"/><g><circle cx="428.236" cy="216.748" fill="#ffcabd" r="48.69"/></g><path d="m420.329 165.017c-10.968-34.865-44.496-57.841-80.916-54.762-23.495 1.986-48.228 11.086-69.54 33.933-7.512 8.053-20.235 8.053-27.747 0-21.312-22.847-46.045-31.947-69.539-33.933-36.25-3.064-69.77 19.654-80.779 54.328-5.009 15.777-7.807 32.539-8.029 49.922-1.226 95.945 75.119 173.848 171.07 174.476 95.651.625 173.387-76.725 173.387-172.232 0-18.026-2.77-35.403-7.907-51.732z" fill="#ffdcce"/><path d="m203.907 196.285c-.313-.387-.645-.751-.992-1.097.315.443.675.85 1.075 1.212-.029-.037-.053-.078-.083-.115z"/><path d="m311.552 196.285c-.027.033-.048.07-.075.104.391-.356.744-.753 1.054-1.186-.342.341-.671.7-.979 1.082z"/><path d="m177.082 370.039c-37.709-40.599-61.107-97.121-61.107-159.642 0-33.478 6.718-65.231 18.738-93.748-19.968 8.867-35.941 26.004-42.904 47.934-.423 1.333-.824 2.674-1.216 4.021-2.084-.356-4.352-.544-6.828-.544-26.891 0-48.69 21.799-48.69 48.69s21.799 48.689 48.69 48.689c2.449 0 4.694-.186 6.759-.535 13.209 45.838 44.849 83.733 86.558 105.135z" fill="#ffcabd"/><g><g><g><ellipse cx="152.874" cy="261.769" fill="#ff9db0" rx="38.051" ry="30.302"/></g><g><ellipse cx="359.126" cy="261.769" fill="#ff9db0" rx="38.051" ry="30.302"/></g></g></g><g fill="#6a647f"><path d="m193.397 183.766h-31.847c-13.379 0-23.352 12.337-20.547 25.419l1.764 8.225c2.964 13.825 15.183 23.701 29.322 23.701h10.768c14.139 0 26.358-9.876 29.322-23.701l1.764-8.225c2.806-13.082-7.167-25.419-20.546-25.419z"/><path d="m322.062 183.766h31.847c13.379 0 23.351 12.337 20.546 25.419l-1.764 8.225c-2.964 13.825-15.183 23.701-29.322 23.701h-10.768c-14.139 0-26.358-9.876-29.322-23.701l-1.764-8.225c-2.805-13.082 7.167-25.419 20.547-25.419z"/></g></g><g><path d="m282.27 226.482c-3.123-2.721-7.86-2.396-10.582.727-8.293 9.515-23.059 9.544-31.375 0-2.721-3.123-7.459-3.448-10.582-.727-3.123 2.722-3.448 7.459-.727 10.582 14.259 16.363 39.691 16.41 53.992 0 2.721-3.123 2.396-7.861-.726-10.582z"/><path d="m211.707 182.927c-5.086-4.275-11.519-6.661-18.31-6.661h-31.847c-8.653 0-16.735 3.859-22.175 10.589-11.101 13.733-4.179 28.094-3.941 32.127 3.681 17.168 19.097 29.628 36.656 29.628h10.768c17.558 0 32.974-12.46 36.656-29.628.824-5.636 4.054-12.438 1.305-22.041 24.686-2.726 49.092-2.73 73.821 0-2.756 9.628.457 16.234 1.306 22.041 3.682 17.168 19.098 29.628 36.656 29.628h10.768c17.559 0 32.975-12.46 36.655-29.628l1.765-8.226c3.81-17.77-9.744-34.491-27.88-34.491h-31.847c-6.791 0-13.224 2.386-18.31 6.661-31.364-4.045-60.67-4.046-92.046.001zm-5.097 24.686-1.764 8.225c-2.208 10.299-11.456 17.773-21.989 17.773h-10.767c-10.533 0-19.781-7.475-21.989-17.773l-1.764-8.225c-1.806-8.422 4.618-16.347 13.213-16.347h31.847c8.559 0 15.02 7.92 13.213 16.347zm147.299-16.347c8.613 0 15.014 7.942 13.213 16.346l-1.765 8.226c-2.208 10.298-11.455 17.773-21.988 17.773h-10.768c-10.533 0-19.78-7.475-21.989-17.773l-1.764-8.225c-1.802-8.404 4.621-16.347 13.213-16.347z"/><path d="m83.764 272.938c.442 0 .889-.013 1.335-.024 13.374 41.127 41.164 75.268 76.441 97.022-34.126 24.043-59.495 68.996-59.495 134.563 0 4.142 3.358 7.5 7.5 7.5h292.91c4.142 0 7.5-3.358 7.5-7.5 0-29.593-5.123-59.085-18.213-85.357-1.847-3.707-6.349-5.216-10.058-3.368-3.708 1.847-5.215 6.35-3.368 10.058 2.919 5.858 5.476 12.068 7.64 18.546h-43.526c-4.142 0-7.5 3.358-7.5 7.5v45.122h-157.861v-45.122c0-4.142-3.358-7.5-7.5-7.5h-43.532c11.183-33.591 30.234-52.12 42.676-61.184l-3.209 19.486c-2.792 16.956 10.302 32.325 27.447 32.323 5.389 0 11.005-1.809 13.768-3.676l21.578-14.579v16.935c0 10.628 8.647 19.275 19.275 19.275h16.853c10.628 0 19.275-8.647 19.275-19.275v-16.936c23.094 15.586 21.601 14.636 22.242 14.979 20.116 10.752 44.318-6.171 40.552-29.046l-3.197-19.411c5.659 4.154 12.757 10.304 19.832 18.952 2.623 3.206 7.349 3.678 10.554 1.055s3.678-7.348 1.055-10.554c-8.75-10.694-17.567-18.082-24.433-22.901 35.381-21.892 63.132-56.036 76.521-96.909.47.012.941.025 1.407.025 30.983 0 56.19-25.207 56.19-56.19 0-14.77-5.737-28.219-15.089-38.258-8.777-49.036-34.516-93.893-72.679-126.521-39.194-33.512-89.147-51.968-140.655-51.968-39.989 0-79.098 11.039-113.1 31.923-3.529 2.167-4.633 6.786-2.465 10.316 2.167 3.529 6.786 4.633 10.316 2.465 31.639-19.433 68.033-29.704 105.249-29.704 47.937 0 94.428 17.178 130.91 48.37 31.406 26.852 53.783 62.583 64.195 102.031-7.361-3.285-15.669-5.042-24.343-4.822-23.669-68.686-110.638-76.97-162.374-21.506-4.557 4.885-12.229 4.876-16.778 0-20.16-21.612-45.189-33.822-74.392-36.291-38.938-3.287-75.3 20.667-87.988 57.797-7.951-.202-16.419 1.288-24.34 4.823 10.62-40.265 33.663-76.563 66.089-103.613 3.181-2.653 3.608-7.383.955-10.563s-7.383-3.608-10.563-.955c-39.307 32.791-65.766 78.252-74.708 128.219-9.352 10.04-15.089 23.489-15.089 38.259.001 30.982 25.207 56.189 56.19 56.189zm266.167 186.44h40.224c2.686 11.738 4.254 24.343 4.681 37.622h-44.905zm-187.862 0v37.622h-44.905c.427-13.277 1.995-25.884 4.682-37.622zm-119.494-242.63c0-21.418 16.586-39.605 38.416-41.086-6.394 27.326-6.163 55.795-.076 82.178-21.389-1.468-38.34-19.337-38.34-41.092zm156.106 201.908c-9.319 4.663-20.078-3.203-18.375-13.538l3.853-23.393c16.172 7.001 33.003 11.394 49.356 13.396-.1.068-2.037 1.377-1.92 1.297zm70.021 15.027c0 2.357-1.918 4.275-4.275 4.275h-16.853c-2.357 0-4.275-1.918-4.275-4.275v-27.07l12.701-8.582 12.702 8.582zm44.617-15.027c-.634-.429 5.415 3.658-34.86-23.553 16.158-1.954 33.287-6.485 49.364-13.494l3.872 23.508c1.7 10.328-9.047 18.207-18.376 13.539zm117.716-160.813c6.126-26.328 6.388-54.786-.023-82.181 21.47 1.415 38.413 19.363 38.413 41.086 0 21.772-16.978 39.651-38.39 41.095zm-90.99-140.114c31.239-2.641 63.386 15.991 74.148 52.916v.001c16.083 55.27 2.737 118.434-42.092 162.971-88.879 88.298-239.604 48.467-274.208-70.108-.042-.211-.085-.421-.145-.629-11.865-41.131-5.623-84.97 5.754-107.021 25.71-49.828 92.693-49.915 133.139-6.554 10.544 11.304 28.334 11.13 38.716 0 17.522-18.785 39.279-29.429 64.688-31.576z"/></g></g></svg>