<svg id="Capa_1" enable-background="new 0 0 512 512" height="512" viewBox="0 0 512 512" width="512" xmlns="http://www.w3.org/2000/svg"><g><g><path d="m70.616 174.397c-6.363 19.243-9.819 39.796-9.819 61.145h390.407c0-21.348-3.456-41.902-9.819-61.145l-185.385-27.541z" fill="#5c586f"/><path d="m256 383.03 28.33 69.66-28.33 51.81h-61.88l-52.04-51.81c15.19-47.74 47.35-69.66 47.35-69.66z" fill="#9ae0eb"/><path d="m438.94 70.7v3.48l-178.626 21.541-187.254-21.541v-3.48c0-34.9 28.29-63.2 63.2-63.2h239.48c34.91 0 63.2 28.3 63.2 63.2z" fill="#fbe29f"/><g><circle cx="417.777" cy="260.969" fill="#ffbe9c" r="45.681"/></g><path d="m369.92 452.69-52.04 51.81h-61.88v-107.18l-13.56-14.29h80.13s32.16 21.92 47.35 69.66z" fill="#64d1e1"/><path d="m256 397.319-19.731 31.87c-5.943 9.599-20.138 8.87-25.066-1.287l-21.773-44.872z" fill="#fff"/><path d="m256 397.319 19.731 31.87c5.943 9.599 20.138 8.87 25.066-1.287l21.772-44.872z" fill="#fff"/><path d="m123.066 8.889c-28.573 6.07-50.006 31.436-50.006 61.811v3.48l32.997 3.796c1.234-25.82 5.703-49.49 17.009-69.087z" fill="#fccb88"/><path d="m73.06 74.18h365.88v72.68h-365.88z" fill="#9ae0eb"/><path d="m226.8 109.372s-3.756 8.331 1.581 13.283c18.182 16.869 65.447 41.781 65.447-26.934 0-88.889-67.028-13.651-67.028-13.651z" fill="#ffa2e7"/><path d="m196.268 109.372s3.027 7.839-2.199 12.704c-18.088 16.838-64.829 42.609-64.829-26.355 0-88.889 67.028-13.651 67.028-13.651z" fill="#ffa2e7"/><path d="m216.626 67.579h-10.184c-15.542 0-28.142 12.6-28.142 28.142 0 15.542 12.6 28.142 28.142 28.142h10.184c15.542 0 28.142-12.6 28.142-28.142 0-15.543-12.6-28.142-28.142-28.142z" fill="#ffb5ec"/><path d="m106.19 174.397c-7.708 18.865-11.967 39.506-11.967 61.145 0 89.347 72.43 161.777 161.777 161.777s161.777-72.43 161.777-161.777c0-21.639-4.259-42.279-11.967-61.145l-149.81-27.541z" fill="#ffd3bc"/><path d="m186.794 381.801c-35.998-39.576-57.755-95.886-57.755-161.343 0-17.355 1.542-34.462 4.46-51.082l-27.309 5.021c-5.267 12.891-8.921 26.612-10.709 40.914-.419-.012-.837-.022-1.259-.022-25.229 0-45.681 20.452-45.681 45.681s20.452 45.681 45.681 45.681c5.329 0 10.439-.925 15.192-2.604 15.948 34.057 43.407 61.651 77.38 77.754z" fill="#ffbe9c"/><g><path d="m105.668 95.137c0-7.122.177-14.118.594-20.957h-33.202v72.68h43.906c-7.236-16.019-11.298-33.467-11.298-51.723z" fill="#64d1e1"/></g><path d="m452.828 119.315h-393.656c-10.615 0-19.22 8.605-19.22 19.22v16.643c0 10.615 8.605 19.22 19.22 19.22h393.655c10.615 0 19.22-8.605 19.22-19.22v-16.643c0-10.615-8.605-19.22-19.219-19.22z" fill="#fbe29f"/><path d="m194.12 452.69v51.81h-59.81c0-19.82 3.07-37.05 7.77-51.81z" fill="#ffd3bc"/><path d="m377.69 504.5h-59.81v-51.81h52.04c4.7 14.76 7.77 31.99 7.77 51.81z" fill="#ffd3bc"/><g><path d="m108.08 119.315h-48.908c-10.615 0-19.22 8.605-19.22 19.22v16.643c0 10.615 8.605 19.22 19.22 19.22h74.348c-12.471-16.262-21.405-34.944-25.44-55.083z" fill="#fccb88"/></g></g><g><path d="m165.859 250.583c4.142 0 7.5-3.358 7.5-7.5v-17.321c0-4.143-3.358-7.5-7.5-7.5s-7.5 3.357-7.5 7.5v17.321c0 4.142 3.358 7.5 7.5 7.5z"/><path d="m353.641 243.083v-17.321c0-4.143-3.358-7.5-7.5-7.5s-7.5 3.357-7.5 7.5v17.321c0 4.142 3.358 7.5 7.5 7.5s7.5-3.358 7.5-7.5z"/><path d="m256 260.894c11.275 0 21.999-4.884 29.419-13.399 2.721-3.123 2.396-7.86-.727-10.582-3.123-2.721-7.86-2.396-10.582.727-4.571 5.246-11.172 8.254-18.111 8.254s-13.54-3.008-18.111-8.254c-2.721-3.123-7.459-3.448-10.582-.727-3.123 2.722-3.448 7.459-.727 10.582 7.422 8.515 18.146 13.399 29.421 13.399z"/><path d="m446.44 70.7c0-38.984-31.716-70.7-70.7-70.7h-239.48c-38.984 0-70.7 31.716-70.7 70.7v41.114h-6.387c-14.733 0-26.72 11.986-26.72 26.72v16.644c0 14.733 11.986 26.72 26.72 26.72h1.347c-4.016 14.621-6.37 29.678-7.021 44.919-7.767 9.247-12.457 21.16-12.457 34.152 0 33.82 31.321 59.15 64.433 51.979 5.811 11.306 12.904 21.993 21.205 31.813 2.673 3.162 7.406 3.56 10.569.885s3.56-7.406.886-10.57c-36.63-43.33-45.706-102.251-26.819-153.179h289.367c36.093 97.304-33.398 203.059-137.258 207.74-37.118 1.776-74.818-9.972-104.879-34.5-3.209-2.618-7.934-2.14-10.552 1.07-2.619 3.209-2.14 7.934 1.07 10.553 8.35 6.813 17.31 12.772 26.728 17.832-11.316 10.507-30.063 31.896-40.857 65.82v.001c-5.39 16.928-8.124 35.125-8.124 54.086 0 4.142 3.358 7.5 7.5 7.5h243.38c4.142 0 7.5-3.358 7.5-7.5 0-18.961-2.733-37.158-8.124-54.086 0 0 0 0 0-.001-10.754-33.796-29.577-55.272-40.898-65.815 30.049-16.227 54.662-41.274 70.348-71.652 33.183 7.19 64.442-18.232 64.442-51.977 0-12.993-4.69-24.906-12.457-34.152-.65-15.242-3.005-30.299-7.021-44.919h1.347c14.733 0 26.72-11.986 26.72-26.72v-16.644c0-14.733-11.986-26.72-26.72-26.72h-6.388zm-138.908 326.142-13.482 27.786c-2.349 4.841-9.106 5.195-11.942.613l-12.952-20.92c21.055-1.611 35.449-6.732 38.376-7.479zm-64.688 7.479-12.953 20.92c-2.831 4.575-9.59 4.234-11.942-.613l-13.482-27.787c2.816.731 17.074 5.852 38.377 7.48zm-95.176 55.869h38.952v36.81h-44.653c.534-12.785 2.444-25.118 5.701-36.81zm5.055-15c10.262-25.752 25.42-42.305 34.125-50.3l17.607 36.287c7.507 15.472 29.128 16.599 38.191 1.961l5.854-9.457v73.319h-46.88v-44.31c0-4.142-3.358-7.5-7.5-7.5zm172.657 51.81v-36.81h38.952c3.257 11.692 5.167 24.025 5.702 36.81zm33.897-51.81h-41.397c-4.142 0-7.5 3.358-7.5 7.5v44.31h-46.88v-73.318l5.854 9.456c9.071 14.651 30.68 13.517 38.191-1.961l17.607-36.287c8.706 7.995 23.863 24.545 34.125 50.3zm-223.017-430.19h239.48c29.362 0 53.49 22.836 55.557 51.68h-55.044c-4.142 0-7.5 3.358-7.5 7.5s3.358 7.5 7.5 7.5h55.188v30.134h-130.971c1.021-8.714 1.167-20.397.223-30.134h45.56c4.142 0 7.5-3.358 7.5-7.5s-3.358-7.5-7.5-7.5h-48.354c-2.067-4.759-6.202-21.821-24.881-21.821-13.775.019-28.7 10.679-39.036 19.735-11.349-6.292-20.538-4.04-27.54-4.515-5.897 0-11.892 1.484-17.355 4.515-15.278-13.374-37.637-27.507-53.51-14.835-7.354 5.788-9.334 14.45-10.407 16.921h-44.467c2.067-28.844 26.195-51.68 55.557-51.68zm-13.662 96.814h-42.038v-30.134h41.815c-.88 8.544-.857 20.966.223 30.134zm24.338-51.43c8.543-3.213 23.874 8.341 30.79 14.222-7.979 10.832-9.125 25.311-3.089 37.208h-36.909c-1.717-12.296-2.412-46.988 9.208-51.43zm59.506 14.695h10.184c19.634 0 27.931 24.683 12.918 36.735h-36.021c-15.24-12.235-6.369-36.735 12.919-36.735zm66.616-15.227c14.69.166 14.286 37.608 12.282 51.963h-36.909c5.977-11.781 4.971-26.267-3.089-37.208 6.699-5.697 18.949-14.831 27.716-14.755zm143.527 122.045h19.297c3.119 10.438 5.313 21.135 6.567 31.982-5.905-3.106-12.456-5.142-19.401-5.828-1.456-8.917-3.683-17.845-6.463-26.154zm-327.634 26.155c-6.945.687-13.496 2.722-19.4 5.828 1.253-10.846 3.448-21.545 6.567-31.982h19.296c-2.805 8.385-5.018 17.309-6.463 26.154zm10.019 90.803c-22.705 2.84-42.928-14.9-42.928-37.886 0-10.365 4.155-19.774 10.882-26.661 9.124-9.349 19.526-10.617 20.225-10.862-.317 4.502-.51 10.322-.382 15.949.444 20.027 4.355 40.06 12.203 59.46zm314.059 0c9.939-24.568 13.579-50.456 11.821-75.409 18.054 3.439 31.108 19.208 31.108 37.523 0 22.962-20.194 40.73-42.929 37.886zm51.518-160.321v16.644c0 6.462-5.257 11.72-11.72 11.72h-393.655c-6.462 0-11.72-5.258-11.72-11.72v-16.644c0-6.462 5.257-11.72 11.72-11.72h393.655c6.463 0 11.72 5.258 11.72 11.72z"/></g></g></svg>