<svg id="Capa_1" enable-background="new 0 0 512 512" height="512" viewBox="0 0 512 512" width="512" xmlns="http://www.w3.org/2000/svg"><g><g><path d="m283.105 504.5h-55.783l-23.356-50.507 23.356-70.426h55.783l23.356 67.738z" fill="#fbe29f"/><path d="m131.912 456.57c14.758-49.967 48.699-73.003 48.699-73.003h46.712v120.933h-49.198z" fill="#ff889e"/><path d="m378.515 456.57c-14.758-49.967-48.699-73.003-48.699-73.003h-46.712v120.933h49.198z" fill="#ff889e"/><path d="m64.232 114.567c0-41.101 5.074-107.067 191.768-107.067s191.768 65.966 191.768 107.067z" fill="#9ae0eb"/><path d="m441.463 134.948s108.725 185.41-61.361 210.775h-248.204c-170.087-25.365-61.361-210.775-61.361-210.775l185.464-63.534z" fill="#ff889e"/><path d="m180.61 383.567v17.702c0 15.817 12.822 28.639 28.639 28.639h18.072v-46.341z" fill="#9ae0eb"/><path d="m329.816 383.567v17.702c0 15.817-12.822 28.639-28.639 28.639h-18.072v-46.341z" fill="#9ae0eb"/><path d="m123.476 224.974c0-45.016 4.227-82.125 12.744-112.527l-65.684 22.501s-108.725 185.41 61.361 210.775h22.014c-19.322-35.329-30.435-76.621-30.435-120.749z" fill="#ff748f"/><g fill="#ffd8d2"><path d="m420.362 219.614c-1.628-15.849-15.278-27.789-31.208-27.529-32.011.524-78.42-5.064-116.69-34.926-9.665-7.542-23.264-7.542-32.929 0-38.267 29.86-84.672 35.448-116.683 34.926-16.161-.264-29.682 12.041-31.275 28.125-.638 6.441-.905 12.991-.78 19.628 1.693 89.333 75.067 161.622 164.416 162.038 91.616.427 166.019-73.713 166.019-165.231.001-5.75-.295-11.432-.87-17.031z"/><path d="m178.124 456.57v47.93h-52.923c0-18.113 2.616-34.06 6.71-47.93z"/><path d="m332.303 456.57v47.93h52.923c0-18.113-2.616-34.06-6.71-47.93z"/></g><path d="m220.968 8.359c-152.309 7.847-156.736 67.852-156.736 106.208h71.405c14.757-54.488 43.04-87.733 85.331-106.208z" fill="#64d1e1"/><path d="m457.885 97.011c-52.079-24.083-124.038-37.648-201.885-37.648-77.846 0-149.804 13.565-201.882 37.647-11.507 5.321-15.851 19.465-9.451 30.409l5.981 10.227c5.604 9.582 17.541 13.297 27.642 8.695 44.441-20.249 109.021-32.058 177.71-32.058 68.69 0 133.271 11.809 177.713 32.058 10.101 4.602 22.038.887 27.642-8.695l5.981-10.227c6.4-10.943 2.056-25.087-9.451-30.408z" fill="#fbe29f"/><path d="m154.57 67.535c-37.866 6.385-72.108 16.368-100.452 29.475-11.507 5.321-15.851 19.465-9.451 30.409l5.981 10.227c5.604 9.582 17.541 13.297 27.642 8.695 15.722-7.164 33.975-13.265 54.029-18.167 5.144-23.714 12.557-43.771 22.251-60.639z" fill="#fccb88"/><path d="m123.476 224.974c0-11.463.274-22.415.822-32.874-.481-.005-.97-.007-1.445-.014-16.161-.264-29.682 12.041-31.276 28.125-.638 6.441-.905 12.99-.78 19.628 1.171 61.821 36.676 115.47 88.041 142.796-34.415-41.796-55.362-97.057-55.362-157.661z" fill="#ffcabd"/><g><g><g><ellipse cx="154.239" cy="279.612" fill="#ff9db0" rx="37.548" ry="29.901"/></g><g><ellipse cx="357.761" cy="279.612" fill="#ff9db0" rx="37.548" ry="29.901"/></g></g></g></g><g><path d="m176.165 227.979c-4.142 0-7.5 3.358-7.5 7.5v15.349c0 4.142 3.358 7.5 7.5 7.5s7.5-3.358 7.5-7.5v-15.349c0-4.142-3.358-7.5-7.5-7.5z"/><path d="m335.921 227.979c-4.142 0-7.5 3.358-7.5 7.5v15.349c0 4.142 3.358 7.5 7.5 7.5s7.5-3.358 7.5-7.5v-15.349c0-4.142-3.358-7.5-7.5-7.5z"/><path d="m282.03 244.717c-3.123-2.721-7.86-2.396-10.582.727-3.889 4.462-9.504 7.022-15.406 7.022-5.901 0-11.516-2.56-15.405-7.022-2.721-3.123-7.459-3.448-10.582-.727-3.123 2.722-3.448 7.459-.726 10.582 6.739 7.732 16.475 12.167 26.713 12.167s19.975-4.435 26.714-12.167c2.722-3.123 2.397-7.861-.726-10.582z"/><path d="m473.853 131.206c8.645-14.781 2.705-33.843-12.777-41.002-2.564-1.186-5.187-2.338-7.839-3.473-4.72-25.102-18.509-44.12-42.059-58.035-32.681-19.309-83.426-28.696-155.135-28.696s-122.455 9.387-155.135 28.696c-23.551 13.915-37.339 32.933-42.06 58.035-2.65 1.135-5.273 2.285-7.836 3.471-15.48 7.157-21.423 26.218-12.777 41.002 4.735 7.156 6.733 14.58 15.562 20.145-7.264 15.646-15.779 37.174-20.781 60.721-16.266 76.585 14.781 127.754 95.374 140.683 11.502 12.604 24.57 23.335 38.987 32.027-32.93 30.188-42.087 68.66-42.615 69.667-4.656 15.773-7.017 32.614-7.017 50.053 0 4.142 3.358 7.5 7.5 7.5h260.024c4.142 0 7.5-3.358 7.5-7.5 0-17.439-2.361-34.279-7.017-50.053v-.001c-10.449-35.375-30.06-57.923-41.897-68.976 15.103-8.947 28.562-20.044 40.138-32.777 31.809-5.153 56.392-16.316 73.054-33.236 2.907-2.951 2.87-7.7-.082-10.606-2.952-2.908-7.701-2.87-10.606.082-11.396 11.573-27.436 20.092-47.835 25.433 17.455-25.332 28.209-55.472 29.988-88.207.633-11.738-.13-24.59-.954-29.563-2.815-17.105-17.229-30.339-34.539-31.864-10.451-.918-68.09 3.818-115.897-33.486-12.41-9.683-29.746-9.685-42.157 0-31.614 24.667-72.332 34.064-111.946 33.34-19.76-.329-36.894 15.007-38.862 34.885-3.926 39.664 5.738 80.437 29.627 114.951-60.797-15.834-78.94-58.756-66.094-119.236 4.92-23.162 13.496-44.376 20.581-59.382 4.649.161 9.221-.84 13.172-2.64 43.772-19.944 107.412-31.382 174.601-31.382 56.52 0 122.478 8.092 174.672 31.412 3.994 1.81 8.354 2.757 13.092 2.596 13.168 27.938 35.955 87.109 17.531 130.668-1.613 3.815.171 8.215 3.986 9.829s8.215-.171 9.829-3.986c20.283-47.956-2.658-110.237-16.869-140.955 8.849-5.574 10.787-12.919 15.568-20.14zm-253.988 291.202h-10.572c-11.656 0-21.139-9.483-21.139-21.139v-5.823c10.199 4.387 20.811 7.772 31.711 10.106zm-49.198 74.592h-37.763c.486-11.37 2.082-22.399 4.766-32.93h32.997zm7.5-47.93h-35.809c8.659-23.221 21.494-39.394 30.795-48.92v1.119c0 19.927 16.212 36.139 36.139 36.139h10.572v59.592h-34.198v-40.43c.001-4.142-3.357-7.5-7.499-7.5zm56.698-40.99c13.468 1.654 27.052 1.735 40.782.194v88.726h-40.782c0-7.832 0-77.17 0-88.92zm55.782-2.153c10.902-2.205 21.512-5.448 31.712-9.686v5.029c0 11.656-9.483 21.139-21.14 21.139h-10.572zm49.199 91.073v-32.93h32.997c2.684 10.531 4.28 21.561 4.766 32.93zm28.318-47.93h-35.818c-4.142 0-7.5 3.358-7.5 7.5v40.43h-34.198v-59.592h10.572c19.927 0 36.14-16.212 36.14-36.139v-1.234c9.342 9.494 22.107 25.591 30.804 49.035zm-230.371-108.291c-1.944-3.09-45.838-47.807-38.709-119.83.485-4.893 2.489-8.607 2.45-8.507 6.866-13.662 21.407-12.903 21.249-12.859 33.344.548 81.475-5.351 121.409-36.512 6.977-5.445 16.724-5.445 23.701 0 34.502 26.922 78.181 37.22 121.426 36.511 12.035-.189 22.407 8.938 23.625 20.797 4.393 42.724-8.033 84.826-38.459 120.43-63.009 71.434-173.461 71.48-236.692-.03zm118.25-233.996c-124.673 0-177.793 33.995-186.645 34.013-4.753.01-9.55-2.348-12.233-6.937l-5.98-10.227c-4.194-7.171-1.337-16.364 6.125-19.815 29.212-13.51 62.643-22.565 94.729-28.226 4.079-.719 6.803-4.609 6.083-8.688 0-.001 0-.002-.001-.003 0-.001 0-.002 0-.002-.719-4.08-4.609-6.804-8.688-6.084-24.444 4.311-49.629 10.516-73.425 19.151 5.267-16.107 15.832-28.487 32.532-38.354 29.883-17.658 79.511-26.611 147.503-26.611s117.62 8.953 147.503 26.61c16.698 9.867 27.263 22.247 32.531 38.352-76.429-27.74-174.75-33.504-256.762-23.573-4.112.498-7.042 4.235-6.544 8.347v.002.001c.493 4.084 4.213 7.045 8.348 6.543 85.927-10.41 196.152-3.309 273.661 32.535 7.448 3.444 10.325 12.633 6.125 19.815l-5.981 10.227c-3.663 6.264-11.48 8.651-18.058 5.656-52.559-23.947-122.69-32.732-180.823-32.732z"/></g></g></svg>