<svg id="Capa_1" enable-background="new 0 0 512 512" height="512" viewBox="0 0 512 512" width="512" xmlns="http://www.w3.org/2000/svg"><g><g><path d="m442.037 141.146-186.037 40.956-197.056-40.956c6.287-31.612 16.12-50.601 22.078-66.702l174.978-22.989 138.145 22.989c20.155 18.641 36.544 41.307 47.892 66.702z" fill="#ffb5ec"/><path d="m459.631 223.928v86.697c0 79.922-64.779 144.711-144.701 144.711h-117.86c-79.912 0-144.701-64.789-144.701-144.711v-86.697c0-5.41.209-10.78.638-16.08l202.993-25.746 202.994 25.746c.428 5.3.637 10.67.637 16.08z" fill="#e7886e"/><path d="m382.947 504.5c0-87.538-57.504-126.714-57.504-126.714h-138.886s-57.504 39.177-57.504 126.714z" fill="#50e1cd"/><path d="m213.072 456.087c-8.253 0-14.944-6.691-14.944-14.944 0-54.14 25.03-86.955 26.096-88.326 5.066-6.516 14.455-7.69 20.971-2.625 6.495 5.05 7.683 14.396 2.673 20.909-.18.24-5.126 6.891-9.986 18.704-4.5 10.938-9.864 28.723-9.864 51.338-.002 8.253-6.693 14.944-14.946 14.944z" fill="#fff"/><path d="m298.928 456.087c8.253 0 14.944-6.691 14.944-14.944 0-54.14-25.03-86.955-26.096-88.326-5.066-6.516-14.455-7.69-20.971-2.625-6.495 5.05-7.683 14.396-2.673 20.909.18.24 5.126 6.891 9.986 18.704 4.5 10.938 9.864 28.723 9.864 51.338.002 8.253 6.693 14.944 14.946 14.944z" fill="#fff"/><path d="m88.001 207.847c-.5 5.292-.767 10.653-.767 16.076 0 93.207 75.559 168.766 168.766 168.766s168.766-75.559 168.766-168.766c0-5.423-.266-10.784-.767-16.076l-167.999-25.745z" fill="#ffd3bc"/><path d="m169.321 62.844-88.299 11.6c-5.958 16.1-15.791 35.089-22.078 66.701l66.867 13.897c7.08-38.359 21.517-68.993 43.51-92.198z" fill="#ffa2e7"/><path d="m279.702 21.661c-17.037-1.983-34.053-4.194-50.91-7.333-18.182-3.387-37.65-5.848-56.41-6.586-7.711-.319-15.303-.329-22.636 0-31.264 1.405-58.193 23.473-64.868 54.059-.907 4.135-2.232 8.279-3.856 12.643h313.123c-30.865-28.543-70.547-47.672-114.443-52.783z" fill="#fbe29f"/><path d="m120.668 216.372c0-4.602.076-9.121.222-13.565l-32.888 5.04c-.5 5.292-.767 10.653-.767 16.076 0 77.466 52.197 142.735 123.336 162.572-54.424-37.895-89.903-99.97-89.903-170.123z" fill="#ffbe9c"/><path d="m458.994 207.847h-405.988c0-27.328 2.411-48.997 5.938-66.702h383.093c9.226 20.654 15.114 43.12 16.957 66.702z" fill="#b08bd7"/><path d="m283.838 111.39h-55.676c-12.724 0-23.038 10.314-23.038 23.038v13.435c0 12.723 10.314 23.038 23.038 23.038h55.676c12.724 0 23.038-10.314 23.038-23.038v-13.435c0-12.723-10.315-23.038-23.038-23.038z" fill="#fbe29f"/><path d="m128.793 141.146h-69.849c-3.527 17.704-5.938 39.374-5.938 66.702h67.757c.497-24.561 3.163-46.778 8.03-66.702z" fill="#a47cd1"/><path d="m248.752 17.641c-6.672-.99-13.329-2.078-19.961-3.312-18.182-3.387-37.65-5.848-56.41-6.585-7.711-.319-15.303-.329-22.636 0-31.264 1.405-58.193 23.472-64.868 54.059-.907 4.135-2.232 8.279-3.856 12.643h78.411c21.022-27.428 50.706-46.247 89.32-56.805z" fill="#fccb88"/></g><g><path d="m169.094 274.893c4.142 0 7.499-3.358 7.499-7.499v-16.707c0-4.142-3.358-7.499-7.499-7.499-4.142 0-7.499 3.358-7.499 7.499v16.707c-.001 4.141 3.357 7.499 7.499 7.499z"/><path d="m342.978 274.893c4.142 0 7.499-3.358 7.499-7.499v-16.707c0-4.142-3.358-7.499-7.499-7.499-4.142 0-7.499 3.358-7.499 7.499v16.707c0 4.141 3.357 7.499 7.499 7.499z"/><path d="m256.036 284.838c10.953 0 21.368-4.744 28.576-13.015 2.721-3.122 2.396-7.86-.727-10.581-3.122-2.721-7.86-2.396-10.581.727-4.359 5.002-10.653 7.87-17.268 7.87s-12.909-2.868-17.268-7.87c-2.721-3.123-7.458-3.448-10.581-.727s-3.448 7.458-.727 10.581c7.208 8.271 17.623 13.015 28.576 13.015z"/><path d="m436.528 374.28c-1.924 3.668-.511 8.201 3.157 10.125s8.2.51 10.125-3.157c11.344-21.622 17.341-46.039 17.341-70.61 0-.1.07-110.698-.663-103.38-7.767-99.239-85.204-181.289-185.887-193.011-54.451-6.337-84.671-16.042-131.149-13.96-34.945 1.57-64.493 26.222-71.852 59.941-3.999 18.241-17.868 38.791-25.961 79.479v.001s0 .001 0 .001c-8.494 42.641-6.534 87.432-6.719 170.929 0 58.359 33.279 111.274 85.349 136.741-5.233 16.236-8.67 35.223-8.67 57.12 0 4.142 3.358 7.499 7.499 7.499h253.876c4.142 0 7.499-3.358 7.499-7.499 0-21.897-3.437-40.884-8.67-57.12 19.174-9.405 36.403-22.908 50.129-39.379 2.652-3.182 2.221-7.911-.96-10.562-3.182-2.651-7.911-2.221-10.562.96-12.06 14.473-27.111 26.415-43.861 34.861-11.437-26.943-27.333-44.599-37.372-53.866 57.619-30.869 96.263-93.419 92.901-164.025h19.89c.326 7.493.125 5.222.186 95.27-.001 22.154-5.404 44.16-15.626 63.642zm-350.307-292.305h59.68c4.142 0 7.499-3.358 7.499-7.499s-3.358-7.499-7.499-7.499h-54.513c.323-1.205.61-2.382.865-3.543 5.913-27.092 29.711-46.897 57.873-48.162 44.676-2.006 73.879 7.489 128.743 13.874 34.621 4.031 66.974 17.012 94.641 37.831h-197.61c-4.142 0-7.499 3.358-7.499 7.499s3.358 7.499 7.499 7.499h215.305c15.853 15.092 28.901 32.432 38.912 51.698h-115.719c-.416-16.465-13.955-29.753-30.526-29.753h-55.672c-16.76 0-30.114 13.467-30.526 29.753h-129.368c5.423-22.775 12.647-38.4 17.915-51.698zm213.187 65.914c0 8.567-6.97 15.537-15.537 15.537h-55.671c-8.611 0-15.537-7.011-15.537-15.537 0-4.698 0-8.735 0-13.434 0-8.549 6.984-15.537 15.537-15.537h55.671c8.514 0 15.537 6.916 15.537 15.537zm-239.49 162.75c.061-90.845-.141-87.773.186-95.27h19.89c-3.42 70.116 34.951 132.978 92.901 164.025-10.04 9.266-25.936 26.924-37.374 53.869-46.177-23.204-75.603-70.513-75.603-122.624zm357.132-95.27c4.094 78.704-48.721 147.829-124.664 165.698-104.337 24.129-203.128-58.805-197.365-165.698zm-110.646 225.779c0 4.105-3.339 7.444-7.444 7.444s-7.444-3.339-7.444-7.444c0-17.532-3.092-32.315-6.52-43.317 4.925-.812 9.807-1.823 14.636-3.053 4.496 14.801 6.772 30.367 6.772 46.37zm-93.965-46.37c4.828 1.23 9.71 2.24 14.635 3.053-3.427 11.002-6.519 25.785-6.519 43.317 0 4.105-3.339 7.444-7.444 7.444s-7.444-3.339-7.444-7.444c0-16.003 2.276-31.569 6.772-46.37zm124.893 102.223v-34.255c0-4.142-3.358-7.499-7.499-7.499-4.142 0-7.499 3.358-7.499 7.499v34.255h-132.595v-34.255c0-4.142-3.358-7.499-7.499-7.499-4.142 0-7.499 3.358-7.499 7.499v34.255h-37.997c1.861-47.566 22.753-87.3 50.927-110.554 3.438 1.449 6.912 2.772 10.414 3.994-4.922 16.209-7.416 33.229-7.416 50.707 0 12.375 10.068 22.443 22.443 22.443s22.443-10.068 22.443-22.443c0-17.224 3.308-31.432 6.696-41.481 9.226.708 18.335.709 27.572 0 3.388 10.05 6.697 24.258 6.697 41.481 0 12.375 10.068 22.443 22.443 22.443s22.443-10.068 22.443-22.443c0-17.478-2.494-34.498-7.416-50.707 3.502-1.222 6.977-2.545 10.414-3.994 27.789 22.935 49.048 62.527 50.927 110.555h-37.999zm-276.715-296.631c.314-18.835 1.83-35.862 4.603-51.698h132.454c.408 16.173 13.259 29.531 30.526 29.753h55.671c16.61 0 30.112-13.339 30.526-29.753h122.733c6.909 16.553 11.472 33.891 13.608 51.698-22.871 0-367.296 0-390.121 0z"/></g></g></svg>