<svg id="Capa_1" enable-background="new 0 0 512 512" height="512" viewBox="0 0 512 512" width="512" xmlns="http://www.w3.org/2000/svg"><g><g><path d="m453.441 149.459-197.441 25.671-197.441-25.671c27.756-82.432 105.777-141.959 197.441-141.959s169.685 59.527 197.441 141.959z" fill="#6a647f"/><path d="m272.517 371.467h58.08s65.437 37.018 65.437 133.033h-37.701z" fill="#ff889e"/><path d="m153.667 504.5h-37.701c0-96.015 65.437-133.033 65.437-133.033h58.08z" fill="#ff889e"/><path d="m256 448.173 21.169 28.164-21.169 28.163h-102.333c0-21.703 4.381-40.391 11.178-56.327l49.027-16.933z" fill="#6a647f"/><path d="m358.332 504.5h-102.332v-56.327l37.247-21.362 53.908 21.362c6.796 15.936 11.177 34.624 11.177 56.327z" fill="#5c586f"/><path d="m256 371.467 21.169 40.696-21.169 36.01h-91.155c23.242-54.534 74.638-76.706 74.638-76.706z" fill="#50e1cd"/><path d="m347.155 448.173h-91.155v-76.706h16.517s51.396 22.172 74.638 76.706z" fill="#00d1b3"/><path d="m206.675 13.406c-69.531 16.95-125.504 68.898-148.116 136.053l57.058 7.418c8.648-62.062 34.638-113.919 91.058-143.471z" fill="#5c586f"/><path d="m464.262 215.772h-416.524c0-23.171 3.801-45.475 10.821-66.313h394.882c7.02 20.838 10.821 43.142 10.821 66.313z" fill="#e7886e"/><g><circle cx="428.603" cy="241.242" fill="#ffbd86" r="48.738"/></g><path d="m96.603 149.458c-8.503 20.417-13.207 42.813-13.207 66.31 0 95.326 77.277 172.603 172.603 172.603s172.603-77.277 172.603-172.603c0-23.497-4.703-45.893-13.207-66.31z" fill="#fed2a4"/><path d="m297.216 80.304c.071.948.102 1.905.102 2.863 0 22.814-18.504 31.119-41.318 31.119s-41.318-8.304-41.318-31.119c0-.958.031-1.916.102-2.863z" fill="#fccb88"/><path d="m297.216 80.304c-11.524 3.087-25.779 4.432-41.216 4.432s-29.692-1.345-41.216-4.432c1.467-21.49 19.36-38.455 41.216-38.455s39.749 16.965 41.216 38.455z" fill="#fbe29f"/><path d="m178.545 370.047c-41.003-40.6-66.41-96.921-66.41-159.183 0-21.293 1.392-41.892 4.598-61.406h-20.13c-5.653 13.573-9.614 28.023-11.643 43.087-.517-.017-1.027-.04-1.564-.04-26.917 0-48.738 21.821-48.738 48.738s21.822 48.737 48.739 48.737c6.344 0 11.28-1.225 15.141-3.431 16.288 36.174 44.675 65.724 80.007 83.498z" fill="#ffbd86"/><g><g><g><ellipse cx="153.711" cy="261.205" fill="#ff9db0" rx="37.742" ry="30.056"/></g><g><ellipse cx="358.289" cy="261.205" fill="#ff9db0" rx="37.742" ry="30.056"/></g></g></g></g><g><path d="m112.245 75.772c2.89-2.967 2.828-7.715-.14-10.605-2.967-2.891-7.715-2.829-10.605.14-22.515 23.115-39.821 51.387-50.047 81.758v.001s0 0 0 0c-6.276 18.627-9.944 38.073-10.93 57.841-8.325 9.809-13.363 22.491-13.363 36.334 0 35.609 32.847 62.364 67.769 55.039 16.025 31.93 41.263 58.466 72.211 76.095-34.311 27.406-58.672 73.676-58.672 132.124 0 4.142 3.358 7.5 7.5 7.5h140.034 140.033c4.142 0 7.5-3.358 7.5-7.5 0-28.883-5.738-55.484-17.054-79.063-1.792-3.734-6.271-5.307-10.007-3.517-3.734 1.792-5.309 6.272-3.517 10.007 9.358 19.499 14.54 41.357 15.437 65.073h-22.731c-1.834-41.572-20.451-80.533-55.047-109.569 6.603-2.098 13.08-4.577 19.387-7.421 5.581 3.861 17.794 13.351 29.523 29.425 2.441 3.346 7.134 4.079 10.479 1.638 3.346-2.441 4.079-7.133 1.638-10.479-9.665-13.246-19.589-22.468-26.782-28.216 30.949-17.629 56.187-44.166 72.213-76.096 34.982 7.338 67.769-19.507 67.769-55.039 0-13.843-5.038-26.526-13.363-36.334-3.171-63.612-34.379-123.907-88.364-163.394-37.132-27.159-81.088-41.514-127.116-41.514-47.884 0-93.268 15.429-131.244 44.62-3.284 2.524-3.9 7.233-1.375 10.517 2.524 3.284 7.233 3.9 10.517 1.375 35.331-27.157 77.554-41.512 122.102-41.512 42.823 0 83.716 13.355 118.258 38.621 30.991 22.668 54.498 53.052 68.456 88.338-23.487 0-346.521 0-373.416 0 9.743-24.489 24.457-47.204 42.947-66.187zm-23.711 206.387c-24.534 3.079-46.375-16.095-46.375-40.917 0-20.699 15.22-37.474 34.38-40.667-2.295 27.487 1.595 55.427 11.995 81.584zm159.966 113.557v44.957h-71.739c9.514-17.805 23.954-34.583 42.826-48.495 9.64 1.981 19.683 3.154 28.913 3.538zm43.913-3.538c17.736 13.019 32.557 29.425 42.825 48.495h-71.738v-44.957c9.903-.413 19.857-1.677 28.913-3.538zm-43.913 104.822h-87.14c.706-14.003 3.435-27.898 8.555-41.327h78.585zm-94.31-89.875c11.184-14.688 22.504-23.453 27.806-27.117 6.308 2.845 12.786 5.324 19.389 7.422-32.919 27.58-53.079 65.601-55.047 109.569h-22.733c1.284-34.681 11.557-64.884 30.585-89.874zm109.31 48.548h78.584c4.963 13 7.825 26.862 8.555 41.327h-87.139zm-7.5-74.801c-.002 0-.004 0-.006 0-115.606 0-195.275-116.358-154.302-223.912h308.615c41.249 108.31-39.323 223.912-154.307 223.912zm167.466-98.713c10.458-26.306 14.279-54.145 11.995-81.584 18.831 2.973 34.379 19.837 34.379 40.667.001 24.789-21.806 44.001-46.374 40.917zm24.511-125.2c3.482 11.342 5.941 22.99 7.354 34.813-6.472-3.511-13.755-5.815-21.806-6.549-1.569-9.182-3.946-18.672-7.255-28.264zm-362.246 0c-3.194 9.258-5.629 18.749-7.255 28.264-8.066.736-15.348 3.046-21.807 6.549 1.413-11.823 3.872-23.471 7.354-34.813z"/><path d="m175.708 209.343c-4.142 0-7.5 3.358-7.5 7.5v15.429c0 4.142 3.358 7.5 7.5 7.5s7.5-3.358 7.5-7.5v-15.429c0-4.142-3.358-7.5-7.5-7.5z"/><path d="m336.292 209.343c-4.142 0-7.5 3.358-7.5 7.5v15.429c0 4.142 3.358 7.5 7.5 7.5s7.5-3.358 7.5-7.5v-15.429c0-4.142-3.357-7.5-7.5-7.5z"/><path d="m282.096 226.159c-3.123-2.721-7.86-2.396-10.582.727-3.916 4.494-9.571 7.071-15.515 7.071-5.943 0-11.598-2.577-15.514-7.071-2.721-3.124-7.459-3.448-10.582-.727s-3.448 7.459-.727 10.582c6.766 7.764 16.542 12.216 26.823 12.216s20.058-4.453 26.823-12.216c2.722-3.123 2.397-7.861-.726-10.582z"/><path d="m180.095 81.975v-16.027c0-4.142-3.358-7.5-7.5-7.5s-7.5 3.358-7.5 7.5v16.027c0 4.142 3.358 7.5 7.5 7.5s7.5-3.358 7.5-7.5z"/><path d="m346.905 81.975v-16.027c0-4.142-3.358-7.5-7.5-7.5s-7.5 3.358-7.5 7.5v16.027c0 4.142 3.358 7.5 7.5 7.5s7.5-3.358 7.5-7.5z"/><path d="m304.697 79.766c0-.005.002.018-.005-.049-1.777-25.447-23.15-45.368-48.692-45.368-24.715 0-46.721 18.941-48.698 45.443.12.381-6.033 41.994 48.698 41.994 29.585-.001 50.129-12.798 48.697-42.02zm-48.697-30.417c15.554 0 28.877 10.661 32.708 25.209-10.444 2.021-22.07 2.678-32.708 2.678-10.716 0-22.27-.665-32.708-2.678 3.831-14.548 17.154-25.209 32.708-25.209zm-33.038 40.398c10.767 1.852 22.292 2.488 33.219 2.488 10.757-.008 22.34-.668 32.858-2.488-2.915 11.313-13.992 17.039-33.039 17.039-19.046-.001-30.123-5.726-33.038-17.039z"/></g></g></svg>