<svg id="Capa_1" enable-background="new 0 0 512 512" height="512" viewBox="0 0 512 512" width="512" xmlns="http://www.w3.org/2000/svg"><g><g><path d="m256 364.35 20.328 76.977-20.328 63.173h-140.41c0-96.82 63.6-140.15 63.6-140.15z" fill="#5c586f"/><path d="m396.41 504.5h-140.41v-140.15h76.81s63.6 43.33 63.6 140.15z" fill="#4f4c5f"/><path d="m179.192 364.346 15.155 34.785c8.848 20.307 37.65 20.307 46.498 0l15.155-34.785z" fill="#ff748f"/><path d="m332.808 364.346-15.155 34.785c-8.848 20.307-37.65 20.307-46.498 0l-15.155-34.785z" fill="#ff748f"/><g><circle cx="432.665" cy="215.185" fill="#ffbd86" r="52.708"/></g><circle cx="256" cy="194.165" fill="#fed2a4" r="186.665"/><path d="m188.031 20.267c-60.155 23.53-105.111 77.37-116.098 142.738-25.604 3.6-45.306 25.584-45.306 52.181 0 29.11 23.598 52.708 52.708 52.708 1.752 0 3.422-.09 5.021-.257 18.274 42.63 51.963 77.083 94.059 96.347-35.606-42.275-57.718-101.256-57.718-166.522-.001-70.958 26.132-134.49 67.334-177.195z" fill="#ffbd86"/><path d="m432.181 106.816c-8.895-17.872-20.432-34.209-34.099-48.496-2.164-2.262-5.162-3.54-8.292-3.54h-267.58c-3.131 0-6.128 1.278-8.292 3.54-13.667 14.287-25.204 30.624-34.099 48.496-3.802 7.638 1.707 16.614 10.239 16.614h331.885c8.532 0 14.04-8.976 10.238-16.614z" fill="#ff889e"/><path d="m160.897 54.78h-38.687c-3.131 0-6.128 1.278-8.292 3.54-13.667 14.287-25.204 30.624-34.099 48.496-3.802 7.638 1.707 16.614 10.239 16.614h40.536c6.911-25.057 17.237-48.209 30.303-68.65z" fill="#ff748f"/></g><g><path d="m281.264 223.178c-3.119-2.726-7.857-2.407-10.583.711-3.571 4.086-8.922 6.429-14.681 6.429s-11.109-2.343-14.681-6.429c-2.727-3.119-7.464-3.437-10.583-.711-3.119 2.727-3.437 7.464-.711 10.583 6.42 7.345 15.888 11.558 25.975 11.558s19.554-4.212 25.975-11.558c2.726-3.119 2.407-7.857-.711-10.583z"/><path d="m178.187 181.141c0-4.142-3.358-7.5-7.5-7.5s-7.5 3.358-7.5 7.5v16.394c0 4.142 3.358 7.5 7.5 7.5s7.5-3.358 7.5-7.5z"/><path d="m341.313 173.641c-4.142 0-7.5 3.358-7.5 7.5v16.394c0 4.142 3.358 7.5 7.5 7.5s7.5-3.358 7.5-7.5v-16.394c0-4.142-3.358-7.5-7.5-7.5z"/><path d="m265.138 183.831h-18.275c-38.464 0-69.758 31.293-69.758 69.758 0 38.464 31.293 69.758 69.758 69.758h18.275c38.464 0 69.758-31.293 69.758-69.758 0-38.464-31.294-69.758-69.758-69.758zm0 124.516h-18.275c-30.193 0-54.758-24.564-54.758-54.758 0-30.193 24.564-54.758 54.758-54.758h18.275c30.193 0 54.758 24.564 54.758 54.758s-24.565 54.758-54.758 54.758z"/><circle cx="233.912" cy="439.957" r="6.911"/><circle cx="233.912" cy="472.463" r="6.911"/><path d="m79.662 275.385c17.915 38.74 48.225 70.613 85.817 90.509-10.171 9.25-26.539 26.937-39.25 54.019-1.76 3.75-.146 8.216 3.603 9.976 3.75 1.759 8.216.146 9.976-3.603 11.913-25.384 27.511-41.823 36.458-49.875l11.204 25.716c5.304 12.173 16.847 19.735 30.125 19.735 23.755 0 30.66-21.225 30.904-21.523v96.661h-75.449v-36.055c0-4.142-3.358-7.5-7.5-7.5s-7.5 3.358-7.5 7.5v36.055h-34.827c.55-15.202 2.776-29.906 6.639-43.806 1.109-3.991-1.227-8.125-5.218-9.234-3.992-1.109-8.125 1.228-9.234 5.218-4.858 17.482-7.321 36.095-7.321 55.322 0 4.142 3.358 7.5 7.5 7.5h280.82c4.142 0 7.5-3.358 7.5-7.5 0-51.953-18.02-88.851-33.136-110.656-8.911-12.854-17.829-22.089-24.262-27.946 37.596-19.895 67.91-51.771 85.826-90.514 32.758.297 60.536-26.428 60.536-60.2 0-27.977-19.569-52.251-46.34-58.586-2.206-11.252-5.409-22.283-9.609-33.029 4.563-5.929 5.187-13.634 1.971-20.095-9.184-18.452-21.092-35.389-35.394-50.338-7.529-7.871-16.919-5.399-20.551-5.855-35.266-30.506-80.227-47.281-126.95-47.281s-91.684 16.775-126.951 47.28c-3.703.465-13.018-2.02-20.551 5.855-14.302 14.95-26.21 31.886-35.394 50.338-3.191 6.411-2.626 14.119 1.971 20.095-4.2 10.746-7.403 21.777-9.609 33.029-26.771 6.335-46.339 30.61-46.339 58.586-.001 33.79 27.792 60.499 60.535 60.202zm239.02 102.607-7.905 18.143c-6.249 14.344-26.497 14.344-32.746 0l-3.771-8.656c15.635-1.448 29.88-4.602 44.422-9.487zm-117.459 18.143-7.905-18.144c13.543 4.674 28.815 8.042 44.422 9.487l-3.771 8.656c-6.249 14.345-26.497 14.346-32.746.001zm187.556 100.865h-34.83v-36.055c0-4.142-3.358-7.5-7.5-7.5s-7.5 3.358-7.5 7.5v36.055h-75.449v-96.662l.779 1.789c11.476 26.342 48.793 26.295 60.25 0l11.208-25.725c29.691 26.659 51.225 68.918 53.042 120.598zm-160.34-125.79c-112.437-17.433-180.137-134.518-140.098-240.358 1.111.097 333.847.129 335.318 0 48.258 127.567-59.202 261.25-195.22 240.358zm249.435-156.025c0 22.877-17.08 41.84-39.158 44.805 9.683-26.82 13.598-56.423 10.307-86.944 16.987 6.629 28.851 23.261 28.851 42.139zm-391.341-105.028c8.511-17.099 19.548-32.795 32.804-46.653.745-.778 1.792-1.224 2.873-1.224h160.382c4.142 0 7.5-3.358 7.5-7.5s-3.358-7.5-7.5-7.5h-129.183c61.552-43.041 143.633-43.039 205.181 0h-45.999c-4.142 0-7.5 3.358-7.5 7.5s3.358 7.5 7.5 7.5h67.551c8.635.327 10.571-.812 12.52 1.225 13.256 13.858 24.293 29.554 32.804 46.653 1.373 2.759-.685 5.772-3.524 5.772-137.747-.008-331.979.025-332.486-.046-2.558-.374-4.175-3.212-2.923-5.727zm-23.556 62.889c-3.174 29.442.28 59.171 10.307 86.944-22.078-2.965-39.157-21.928-39.157-44.805-.001-18.878 11.863-35.51 28.85-42.139z"/></g></g></svg>