<svg id="Capa_1" enable-background="new 0 0 512 512" height="512" viewBox="0 0 512 512" width="512" xmlns="http://www.w3.org/2000/svg"><g><g><path d="m493.151 92.532c-13.332-3.351-24.973-13.975-32.765-22.879-4.802-5.487-8.837-11.573-12.563-17.84-16.326-27.463-52.106-37.506-80.771-20.987-10.282 5.926-18.164 14.582-23.208 24.581l79.443 79.471c4.269 4.271 9.441 7.491 15.079 9.656.026.01.052.02.078.03 28.304 10.919 50.249-10.225 63.424-29.244 5.917-8.543 1.362-20.254-8.717-22.788z" fill="#fbc072"/><path d="m325.394 489.179h-138.788l-46.111-43.775c13.873-52.853 49.32-77 49.32-77h132.369s35.447 24.147 49.32 77z" fill="#9ae0eb"/><g><path d="m159.907 462.985c0-42.37 22.758-78.759 55.281-94.581h-25.372s-35.447 24.147-49.32 77l19.421 18.437c-.003-.286-.01-.57-.01-.856z" fill="#64d1e1"/></g><path d="m186.606 445.404v43.775h-51.599c0-16.332 2.098-30.908 5.488-43.775z" fill="#ffd8d2"/><path d="m376.993 489.179h-51.599v-43.775h46.111c3.39 12.866 5.488 27.442 5.488 43.775z" fill="#ffd8d2"/><path d="m204.741 368.404v27.161c0 14.155 11.475 25.63 25.63 25.63 14.155 0 25.63-11.475 25.63-25.63v-27.161z" fill="#fff"/><path d="m307.259 368.404v27.161c0 14.155-11.475 25.63-25.63 25.63-14.155 0-25.63-11.475-25.63-25.63v-27.161z" fill="#fff"/><path d="m73.144 256.37s15.455 47.549-3.081 92.624c-5.827 14.17 8.192 28.526 22.577 23.252 21.952-8.05 35.781-25.309 40.134-62.207v-53.669z" fill="#fbc072"/><path d="m438.856 256.37s-15.455 47.549 3.081 92.624c5.827 14.17-8.192 28.526-22.577 23.252-21.952-8.05-35.781-25.309-40.134-62.207v-53.669z" fill="#fbc072"/><path d="m61.915 221.76c0-107.019 87.066-194.085 194.085-194.085s194.085 87.066 194.085 194.085z" fill="#fccb88"/><g><circle cx="416.85" cy="231.255" fill="#ffcabd" r="45.419"/></g><path d="m213.135 32.454c-16.909 3.827-32.982 9.876-47.909 17.808-4.968-7.814-11.806-14.554-20.278-19.437-28.665-16.519-64.445-6.476-80.771 20.987-3.726 6.268-7.761 12.353-12.563 17.84-7.791 8.904-19.433 19.528-32.765 22.879-10.08 2.534-14.635 14.244-8.717 22.788 13.175 19.019 35.12 40.163 63.424 29.244l.078-.03c1.872-.719 3.685-1.565 5.438-2.516-11.014 24.339-17.157 51.335-17.157 79.742h64.195c-.16-3.496-.252-7.01-.252-10.545 0-72.626 34.156-137.27 87.277-178.76z" fill="#fbc072"/><path d="m412.857 186.013c0-.001-29.511-37.85-83.684-37.85-33.636 0-53.712-16.868-64.1-29.658-4.67-5.749-13.477-5.749-18.146 0-10.388 12.79-30.464 29.658-64.1 29.658-54.173 0-83.683 37.85-83.684 37.85-2.659 11.717-4.045 23.918-3.991 36.452.382 88.674 74.798 161.536 163.461 160.124 87.63-1.395 158.238-72.867 158.238-160.829-.001-12.287-1.384-24.25-3.994-35.747z" fill="#ffd8d2"/><path d="m188.125 367.266c-38.587-40.646-62.267-95.582-62.267-156.052 0-17.372 1.961-34.285 5.661-50.536-21.197 11.023-32.376 25.335-32.376 25.335-.002.008-.003.015-.005.022-1.258-.125-2.578-.199-3.988-.199-25.084 0-45.419 20.335-45.419 45.419s20.335 45.419 45.419 45.419c3.637 0 6.739-.44 9.41-1.247 14.587 40.402 45.043 73.577 83.565 91.839z" fill="#ffcabd"/><g><g><g><ellipse cx="161.248" cy="256.457" fill="#ff9db0" rx="34.962" ry="27.842"/></g><g><ellipse cx="350.752" cy="256.457" fill="#ff9db0" rx="34.962" ry="27.842"/></g></g></g><path d="m159.907 462.985c0-5.995.461-11.867 1.335-17.582h-20.746c-3.39 12.866-5.488 27.442-5.488 43.775h27.892c-1.951-8.364-2.993-17.141-2.993-26.193z" fill="#ffcabd"/></g><g><path d="m181.623 207.853c-4.142 0-7.5 3.358-7.5 7.5v14.292c0 4.142 3.358 7.5 7.5 7.5s7.5-3.358 7.5-7.5v-14.292c.001-4.142-3.357-7.5-7.5-7.5z"/><path d="m330.378 207.853c-4.142 0-7.5 3.358-7.5 7.5v14.292c0 4.142 3.358 7.5 7.5 7.5s7.5-3.358 7.5-7.5v-14.292c0-4.142-3.358-7.5-7.5-7.5z"/><path d="m280.538 223.565c-3.123-2.721-7.86-2.396-10.582.727-3.523 4.043-8.609 6.361-13.955 6.361-5.345 0-10.432-2.318-13.955-6.361-2.722-3.122-7.459-3.448-10.582-.727s-3.448 7.459-.727 10.582c6.373 7.312 15.581 11.506 25.264 11.506s18.891-4.194 25.263-11.506c2.722-3.123 2.396-7.86-.726-10.582z"/><circle cx="256.001" cy="439.262" r="6.013"/><path d="m256.001 460.187c-3.321 0-6.013 2.692-6.013 6.013s2.692 6.013 6.013 6.013 6.013-2.692 6.013-6.013-2.692-6.013-6.013-6.013z"/><path d="m494.983 85.246c-11.626-2.922-22.159-12.785-28.949-20.544-3.857-4.409-7.595-9.727-11.761-16.734-23.762-39.974-80.612-44.191-109.825-7.326-27.323-13.381-57.515-20.481-88.447-20.481-30.762 0-61.041 7.131-88.422 20.514-29.169-36.859-86.056-32.732-109.851 7.293-4.166 7.008-7.903 12.325-11.76 16.734-6.79 7.759-17.323 17.622-28.949 20.544-15.164 3.813-21.937 21.509-13.054 34.333 14.912 21.527 36.181 39.05 62.022 34.787-4.7 13.246-8.009 27.024-9.853 41.167-23.367 25.505-16.331 65.956 13.954 82.309 2.621 18.179 3.163 43.667-6.963 68.29-8.299 20.184 11.555 40.678 32.096 33.146 19.432-7.125 32.143-20.535 39.291-41.699 12.773 13.346 26.892 24.001 41.893 32.196-34.153 31.631-42.686 72.751-43.162 73.71 0 .002-.001.004-.001.006-3.062 10.543-5.735 28.119-5.735 45.68 0 4.142 3.358 7.5 7.5 7.5h241.989c4.142 0 7.5-3.358 7.5-7.5 0-25.939-5.162-42.707-5.734-45.679-.001-.002-.001-.003-.002-.005 0 0 0-.001 0-.002-.747-2.394-3.355-13.561-10.129-27.925-1.767-3.746-6.235-5.352-9.983-3.584-3.747 1.767-5.352 6.236-3.585 9.983 2.424 5.139 4.56 10.472 6.387 15.937h-36.055c-4.148 0-7.5 3.364-7.5 7.501v36.275h-123.79c-.317-37.512.714-36.87-.905-39.85-1.27-2.338-3.747-3.926-6.595-3.926h-36.052c11.625-34.711 32.781-54.607 40.535-61.007 2.036.866 4.085 1.694 6.152 2.477v16.191c0 18.268 14.862 33.13 33.13 33.13 10.319 0 19.549-4.744 25.63-12.163 6.081 7.42 15.311 12.163 25.63 12.163 18.268 0 33.13-14.862 33.13-33.13v-15.957c2.145-.797 4.268-1.647 6.377-2.532 4.082 3.381 11.556 10.225 19.364 20.656 2.481 3.317 7.183 3.992 10.498 1.51 3.316-2.482 3.992-7.182 1.511-10.499-6.094-8.141-12.011-14.342-16.67-18.699 15.049-8.125 29.142-18.691 41.821-31.938 7.177 20.864 19.833 34.107 39.119 41.179 20.53 7.528 40.4-12.953 32.096-33.146-10.126-24.623-9.584-50.111-6.963-68.29 30.396-16.413 37.243-56.894 13.949-82.315-1.844-14.122-5.171-27.915-9.887-41.175 25.772 4.264 47.048-13.1 62.061-34.773 8.869-12.801 2.136-30.513-13.053-34.332zm-162.087 396.425v-28.775h32.717c2.061 9.242 3.308 18.875 3.725 28.775zm-190.233 0c.417-9.899 1.665-19.533 3.725-28.775h32.717v28.775zm-126.367-370.634c-2.928-4.228-.642-9.982 4.38-11.243 15.383-3.867 28.384-15.846 36.581-25.215 4.474-5.114 8.721-11.134 13.365-18.947 17.725-29.816 60.192-34.19 83.47-7.755-9.235 5.437-18.33 11.869-25.984 18.168-3.198 2.632-3.657 7.358-1.025 10.557 2.667 3.23 7.388 3.646 10.565 1.032 33.992-27.975 76.175-42.472 118.354-42.472 87.587 0 164.146 61.396 182.51 147.775-6.998-3.143-14.895-4.722-22.366-4.606-20.738-22.713-53.095-37.68-86.971-37.68-24.702 0-44.541-9.973-58.279-26.887-7.651-9.418-22.098-9.471-29.79 0-13.777 16.963-33.599 26.887-58.279 26.887-32.229 0-64.197 13.125-87.006 37.679-7.391-.112-15.279 1.438-22.341 4.612 6.678-31.568 21.761-61.236 43.589-85.577 2.419-2.701 2.522-6.67.44-9.472-2.849-3.842-8.465-4.069-11.619-.549-13.354 14.902-24.276 31.444-32.575 49.166-23.145 10.772-42.485-4.491-57.019-25.473zm40.933 120.208c0-19.077 14.217-35.045 32.757-37.564-4.049 25.569-2.896 50.455 4.542 75.468-20.56-.325-37.299-17.137-37.299-37.904zm32.828 133.95c-8.343 3.06-16.389-5.261-13.059-13.358 10.014-24.349 10.795-49.175 8.87-68.484 4.35.773 9.14 1.021 13.84.613 5.748 14.222 13.49 27.672 23.077 40.023-5.124 22.043-15.313 34.82-32.728 41.206zm140.314 48.491c-9.997 0-18.13-8.133-18.13-18.13v-11.311c12.159 3.321 24.445 5.151 36.26 5.68v5.631c0 9.997-8.133 18.13-18.13 18.13zm69.39-18.129c0 9.997-8.133 18.13-18.13 18.13-9.996 0-18.129-8.133-18.129-18.13v-5.62c12.055-.535 24.352-2.375 36.259-5.561zm-41.267-20.476c-96.218 1.523-173.403-88.245-152.409-185.668 2.121-2.416 5.637-5.889 9.748-9.3 18.426-15.276 41.685-24.462 66.994-24.462 28.672 0 52.844-11.402 69.923-32.43 1.352-1.664 3.598-1.922 5.235-1.051 2.9 1.546 22.552 33.48 71.19 33.48 30.185 0 60.226 14.828 76.742 33.762 20.197 93.821-48.76 182.969-147.423 185.669zm167.639-91.729c-1.924 19.309-1.143 44.135 8.87 68.484 3.337 8.114-4.728 16.412-13.059 13.358-17.284-6.337-27.434-18.94-32.601-40.641 9.648-12.468 17.41-26.113 23.157-40.569 4.533.376 9.409.119 13.633-.632zm-8.528-14.207c7.105-24.336 8.631-50.337 4.411-75.465 18.252 2.453 32.757 18.226 32.757 37.564-.001 20.606-16.536 37.499-37.168 37.901zm78.101-158.108c-14.533 20.979-33.952 36.276-57.071 25.451-17.317-36.977-45.502-67.869-80.725-88.611 23.295-26.451 65.756-22.044 83.47 7.755 4.644 7.813 8.891 13.833 13.365 18.947 8.197 9.368 21.199 21.347 36.581 25.214 5.03 1.265 7.304 7.022 4.38 11.244z"/></g></g></svg>