<svg id="Capa_1" enable-background="new 0 0 512 512" height="512" viewBox="0 0 512 512" width="512" xmlns="http://www.w3.org/2000/svg"><g><g><circle cx="412.381" cy="76.441" fill="#ffa2e7" r="68.941"/><path d="m50.227 220.977c0-113.463 92.309-205.773 205.773-205.773s205.773 92.309 205.773 205.773z" fill="#ffb5ec"/><g><circle cx="426.537" cy="241.112" fill="#ffcabd" r="48.154"/></g><path d="m355.114 407.148c7.43 10.692 14.87 24.273 20.376 40.904l-50.105 56.448h-141.216l-47.659-56.448c5.547-16.732 13.037-30.384 20.517-41.105z" fill="#5c586f"/><path d="m249.289 422.553c13.359-4.277 28.747-.996 39.533 9.791 7.485 7.485 11.356 17.187 11.595 26.888.199 8.08-6.369 14.649-14.45 14.45-9.702-.239-19.403-4.11-26.888-11.595-10.785-10.787-14.067-26.175-9.79-39.534z" fill="#ff748f"/><path d="m260.27 422.553c-13.359-4.277-28.747-.996-39.533 9.791-7.485 7.485-11.356 17.187-11.595 26.888-.199 8.08 6.369 14.649 14.45 14.45 9.702-.239 19.403-4.11 26.888-11.595 10.785-10.787 14.067-26.175 9.79-39.534z" fill="#ff889e"/><path d="m161.034 469.098c0-23.867 7.487-45.635 19.795-62.128l-23.802-.024c-7.48 10.722-14.97 24.373-20.518 41.105l24.603 29.14c-.053-2.667-.078-5.365-.078-8.093z" fill="#4f4c5f"/><path d="m355.114 407.148c-30.152 16.098-63.969 24.635-99.104 24.635h-1.51c-35.156-.242-68.338-9.212-97.473-24.836 14.437-20.709 28.803-30.494 28.803-30.494h140.34c0-.001 14.457 9.845 28.944 30.695z" fill="#d8d8d8"/><path d="m158.124 39.983c-12.178-19.501-33.82-32.483-58.505-32.483-38.075 0-68.941 30.866-68.941 68.941 0 26.624 15.099 49.709 37.195 61.194-11.337 25.49-17.646 53.692-17.646 83.342h70.83c-4.168-18.496-6.346-37.547-6.346-56.651 0-46.575 16.139-89.584 43.411-124.315z" fill="#ffa2e7"/><g fill="#ffd8d2"><path d="m148.913 353.478c-38.538-31.249-63.304-78.899-63.445-132.035-.03-11.467 1.067-22.662 3.191-33.504 3.876-19.692 21.333-33.776 41.407-33.776h251.857c20.215 0 37.632 14.306 41.488 34.139 2.054 10.581 3.121 21.504 3.121 32.679 0 53.599-24.726 101.419-63.395 132.679z"/><path d="m165.018 448.052h-28.508c-5.285 15.967-8.789 34.733-8.789 56.448h56.448v-37.297c0-10.577-8.574-19.151-19.151-19.151z"/><path d="m375.491 448.052h-30.955c-10.577 0-19.151 8.574-19.151 19.151v37.297h58.895c-.001-21.716-3.504-40.481-8.789-56.448z"/></g><path d="m114.711 164.325c0-2.459.062-4.904.151-7.342-13.167 5.05-23.354 16.484-26.203 30.956-.33 1.683-.626 3.378-.906 5.077-.747-.037-1.508-.059-2.29-.059-26.595 0-48.154 21.559-48.154 48.154s21.559 48.154 48.154 48.154c5.176 0 9.585-.826 13.342-2.338 11.027 26.093 28.376 48.929 50.107 66.55l52.505.044c-54.72-43.115-86.706-115.779-86.706-189.196z" fill="#ffcabd"/><path d="m230.059 376.452h-44.229s-14.366 9.786-28.803 30.494c5.876 3.151 11.924 6.017 18.112 8.61 12.489-21.299 32.227-36.047 54.92-39.104z" fill="#cacac8"/><path d="m363.138 353.659c-29.578 23.91-67.301 38.135-108.356 37.854-40.018-.272-76.845-14.507-105.869-38.035 4.752-15.907 10.007-31.179 15.162-44.971 7.168-19.178 19.913-35.135 35.981-46.29 16.068-11.145 35.468-17.507 55.945-17.507 40.954 0 77.59 25.43 91.926 63.797 5.174 13.853 10.449 29.175 15.211 45.152z" fill="#5c586f"/><path d="m315.016 321.101c-.033-.087-.065-.174-.098-.261-9.139-24.46-32.817-40.894-58.918-40.894-12.875 0-25.276 3.881-35.851 11.216-10.58 7.344-18.556 17.608-23.069 29.681-.023.062-.046.124-.069.185-4.063 10.879 1.543 22.984 12.436 27.01 14.438 5.336 29.771 8.133 45.576 8.241l.953.003c16.16 0 31.809-2.765 46.509-8.14 10.943-4.001 16.604-16.126 12.531-27.041z" fill="#6a647f"/><path d="m161.034 469.098c0-7.238.688-14.283 1.99-21.046h-26.515c-5.285 15.967-8.789 34.733-8.789 56.448h35.538c-1.736-10.917-2.224-22.869-2.224-35.402z" fill="#ffcabd"/></g><g><path d="m255 363.778.976.003c16.97 0 33.484-2.892 49.085-8.596 14.73-5.385 22.561-21.751 16.974-36.727-.679-1.468-3.26-9.573-10.544-18.874-2.554-3.261-7.268-3.834-10.529-1.28s-3.834 7.268-1.281 10.529c5.613 7.166 7.512 13.168 8.308 14.889 2.609 6.991-1.009 14.79-8.079 17.375-23.006 8.411-41.092 7.368-44.835 7.681-14.863-.101-29.34-2.718-43.028-7.776-7.147-2.64-10.56-10.52-8.02-17.323l.079-.211c11.244-30.082 45.852-44.648 75.37-30.733 3.747 1.766 8.216.16 9.982-3.586s.161-8.216-3.586-9.982c-37.51-17.681-81.516.793-95.825 39.073-.023.139-4.516 10.483.734 21.941 3.187 6.952 8.893 12.241 16.066 14.892 15.325 5.663 31.517 8.592 48.153 8.705z"/><path d="m170.13 208.385c-4.143 0-7.5 3.358-7.5 7.5v16.5c0 4.142 3.357 7.5 7.5 7.5 4.142 0 7.5-3.358 7.5-7.5v-16.5c0-4.142-3.358-7.5-7.5-7.5z"/><path d="m341.87 208.385c-4.142 0-7.5 3.358-7.5 7.5v16.5c0 4.142 3.358 7.5 7.5 7.5s7.5-3.358 7.5-7.5v-16.5c0-4.142-3.358-7.5-7.5-7.5z"/><path d="m412.38 0c-24.227 0-46.538 11.222-60.955 30.33-61.149-30.744-132.129-29.593-190.887-.05-14.418-19.078-36.713-30.28-60.918-30.28-42.15 0-76.441 34.291-76.441 76.441 0 26.289 13.33 50.349 35.204 64.346-8.265 20.293-13.347 41.825-15.02 63.988-8.434 9.758-13.553 22.457-13.553 36.337 0 34.141 30.726 60.567 64.794 54.889 16.778 35.908 44.746 64.332 77.669 81.942-5.793 5.343-13.592 13.517-21.398 24.714-.002.003-.003.005-.005.008-9.123 13.078-16.35 27.554-21.479 43.026v.001s0 .001-.001.002c-6.084 18.379-9.168 38.164-9.168 58.805 0 4.142 3.358 7.5 7.5 7.5h256.559c4.142 0 7.5-3.358 7.5-7.5 0-20.641-3.084-40.426-9.168-58.805v-.001c-8.346-25.207-23.129-49.497-42.787-67.663 33.952-18.091 61.382-46.92 77.687-82.012 51.548 8.483 84.758-52.348 51.12-91.253-1.7-22.506-6.89-44.002-15.022-63.973 21.879-13.997 35.213-38.06 35.213-64.352-.002-42.149-34.293-76.44-76.444-76.44zm-374.202 76.441c0-33.878 27.563-61.441 61.442-61.441 18.7 0 35.986 8.32 47.595 22.589-13.423 8.002-26.597 17.882-38.738 29.529-2.99 2.868-3.087 7.615-.22 10.605 2.696 2.809 7.366 3.311 10.764.07 118.565-113.516 310.049-40.909 333.072 113.845-6.829-3.544-14.455-5.545-21.585-6.042-4.934-22.383-25.041-38.933-48.585-38.933-267.971.018-254.271-.347-260.521.757-19.58 3.434-35.642 18.433-39.917 38.177-7.097.498-14.71 2.479-21.577 6.042 5.021-33.767 18.822-65.666 39.862-92.571 2.766-3.538 1.861-8.811-2.201-11.13-2.992-1.709-7.103-1.332-9.8 2.13-8.558 10.974-16.538 23.455-23.158 36.862-16.475-11.404-26.433-30.118-26.433-50.489zm6.631 164.67c0-20.251 14.908-37.09 34.278-40.154-3.01 26.756-.021 54.35 9.562 80.683-23.653 1.859-43.84-16.912-43.84-40.529zm126.29 70.022c6.494-17.374 17.986-32.174 33.231-42.753 48.763-33.825 116.04-12.195 136.57 42.752 5.862 15.691 9.631 27.229 13.571 39.789-29.581 22.424-65.03 33.351-99.638 33.092-33.746-.23-68.35-11.283-97.253-33.264 3.502-11.447 8.307-25.666 13.519-39.616zm-29.074 144.419h22.993c6.424 0 11.65 5.227 11.65 11.651v29.797h-41.3c.573-14.424 2.803-28.316 6.657-41.448zm190.86 41.448v-29.797c0-6.424 5.227-11.651 11.65-11.651h25.439c3.854 13.132 6.084 27.024 6.656 41.448zm10.282-56.414c-14.062.715-25.282 12.38-25.282 26.616v29.798h-126.217v-29.797c0-14.695-11.955-26.651-26.65-26.651h-17.75c3.411-8.361 7.52-16.344 12.285-23.864 15.175 7.526 32.236 13.645 49.977 17.541-4.912 7.333-7.667 15.888-7.887 24.819-.306 12.457 9.853 22.457 22.132 22.132 11.585-.286 22.536-4.837 31.004-12.833 8.468 7.996 19.419 12.547 31.004 12.833 12.286.324 22.439-9.681 22.132-22.132-.215-8.722-2.854-17.083-7.551-24.299 17.793-3.666 35.758-9.752 52.205-17.865 4.719 7.474 8.788 15.391 12.164 23.669-21.57.011-20.348-.028-21.566.033zm-116.733-3.324c9.392 1.285 19.329 1.947 27.718 2.018-2.503 15.18-15.457 26.527-30.747 26.905-3.824.083-6.861-2.985-6.767-6.767.216-8.72 4.006-16.618 9.796-22.156zm42.899 1.613c4.758-.287 9.74-.767 14.101-1.312 5.684 5.586 9.277 13.384 9.485 21.854.094 3.786-2.947 6.85-6.767 6.767-8.69-.214-16.566-3.965-22.183-9.822 2.862-5.298 4.746-11.352 5.364-17.487zm55.771-53.78c3.922 3.22 11.021 9.631 18.683 19.353-55.332 26.455-120.074 26.458-175.433-.179 7.663-9.691 14.749-16.067 18.624-19.242 44.567 18.904 94.751 18.379 138.126.068zm41.818-44.628c-3.516-11.029-7.344-22.2-11.971-34.584-25.84-69.154-113.074-91.184-168.694-42.386-22.257 19.527-29.3 39.631-41.107 76.74-.004.013-.009.026-.013.039-42.203-39.204-59.836-96.305-49.119-150.888 3.162-16.064 17.481-27.725 34.048-27.725h251.857c16.483 0 30.939 11.678 34.126 28.07 11.007 59.21-9.86 114.328-49.127 150.734zm56.511-58.821c9.38-25.942 12.52-53.699 9.482-80.689 19.442 3.077 34.275 19.972 34.275 40.154.001 23.643-20.191 42.341-43.757 40.535zm23.945-154.71c-18.659-37.811-48.057-68.747-82.601-89.337 11.608-14.276 28.898-22.599 47.603-22.599 33.879 0 61.441 27.563 61.441 61.441.001 20.375-9.962 39.094-26.443 50.495z"/></g></g></svg>