<svg id="Capa_1" enable-background="new 0 0 512 512" height="512" viewBox="0 0 512 512" width="512" xmlns="http://www.w3.org/2000/svg"><g><g><path d="m109.22 264.314h-41.724s-.762 20.339-18.862 43.605c-9.453 12.152-7.908 29.647 3.629 39.842 15.935 14.081 41.923 30.33 79.877 34.887l42.981-31.725v-32.33z" fill="#e7886e"/><path d="m402.779 264.314h41.724s.762 20.339 18.862 43.605c9.453 12.152 7.908 29.647-3.629 39.842-15.935 14.081-41.923 30.33-79.877 34.887l-42.98-31.725v-32.33z" fill="#e7886e"/><path d="m165.669 458.053-36.596-15.736c-5.875 19.681-8.898 40.586-8.898 62.184h39.536z" fill="#d8d8d8"/><path d="m346.331 458.053 36.596-15.736c5.875 19.681 8.898 40.586 8.898 62.184h-39.536z" fill="#d8d8d8"/><circle cx="167.135" cy="404.211" fill="#50e1cd" r="53.879"/><circle cx="344.865" cy="404.211" fill="#50e1cd" r="53.879"/><path d="m207.592 386.459c-16.125 15.162-47.882 53.243-47.882 118.041h192.579c0-64.797-31.756-102.879-47.882-118.041z" fill="#ff889e"/><path d="m447.813 161.707c6.615 20.582 10.209 42.295 10.209 64.441h-404.043c0-22.146 3.593-43.859 10.209-64.44v-24.676h380.932z" fill="#e7886e"/><g><circle cx="423.428" cy="245.916" fill="#ffcabd" r="47.276"/></g><path d="m207.568 366.691v41.267c0 13.374 10.842 24.216 24.216 24.216 13.374 0 24.216-10.842 24.216-24.216v-41.267z" fill="#fbe29f"/><path d="m304.432 366.691v41.267c0 13.374-10.842 24.216-24.216 24.216-13.374 0-24.216-10.842-24.216-24.216v-41.267z" fill="#fccb88"/><path d="m322.782 155.906c-6.737-5.693-16.519-5.693-23.258 0-12.608 10.654-28.068 15.981-43.523 15.982-15.459.001-30.913-5.326-43.525-15.983-6.738-5.693-16.519-5.694-23.257 0-24.786 20.943-60.564 21.289-85.729 1.067-9.58 21.086-14.918 44.507-14.918 69.176 0 92.468 74.96 167.428 167.428 167.428s167.428-74.96 167.428-167.428c0-24.669-5.338-48.091-14.918-69.177-25.164 20.223-60.944 19.877-85.728-1.065z" fill="#ffd8d2"/><path d="m394.523 58.906c16.585 13.758 31.352 29.81 43.855 47.581l6.741 30.541h-380.936l9.439-30.541c12.503-17.771 27.27-33.823 43.855-47.581l50.961-32.142c26.964-12.335 56.546-19.264 87.562-19.264s60.598 6.929 87.562 19.264z" fill="#ff889e"/><path d="m203.244 14.335c-11.994 3.147-23.628 7.315-34.806 12.429l-50.961 32.142c-16.585 13.759-31.352 29.81-43.855 47.581l-9.439 30.541h69.788c10.763-46.18 33.36-91.731 69.273-122.693z" fill="#ff748f"/><path d="m205.186 385.715c-47.595-40.836-78.709-108.398-78.709-184.845 0-10.17.613-20.662 1.839-31.296-8.838-2.369-17.307-6.56-24.826-12.603-5.949 13.094-10.259 27.09-12.674 41.725-.736-.036-1.482-.057-2.244-.057-26.11 0-47.276 21.166-47.276 47.276s21.166 47.276 47.276 47.276c4.868 0 9.215-.738 13.069-2.104 18.894 44.848 56.757 79.741 103.545 94.628z" fill="#ffcabd"/><path d="m256 171.888c-15.459.001-30.913-5.326-43.525-15.983-6.738-5.693-16.519-5.694-23.257 0-25.22 21.31-61.83 21.311-87.05 0-6.738-5.693-16.519-5.693-23.257 0-10.423 8.81-26.015 7.498-34.822-2.926-8.808-10.424-7.498-26.014 2.926-34.822 25.219-21.31 61.829-21.31 87.049 0 6.738 5.693 16.519 5.694 23.257 0 25.22-21.31 61.83-21.31 87.05 0 6.739 5.694 16.52 5.694 23.257 0 25.219-21.31 61.828-21.311 87.05 0 6.738 5.694 16.52 5.693 23.256 0 25.22-21.309 61.829-21.31 87.05 0 10.424 8.808 11.734 24.398 2.927 34.822-8.808 10.422-24.398 11.734-34.821 2.927-6.739-5.694-16.52-5.692-23.259 0-25.218 21.31-61.829 21.309-87.048 0-6.737-5.693-16.519-5.693-23.258 0-12.609 10.653-28.069 15.981-43.525 15.982z" fill="#50e1cd"/><g fill="#fbe29f"><path d="m176.158 47.046c0 16.872-13.669 30.541-30.541 30.541-12.661 0-23.514-7.7-28.14-18.681 15.518-12.889 32.637-23.771 50.961-32.142 4.804 5.396 7.72 12.493 7.72 20.282z"/><path d="m394.523 58.906c-4.626 10.981-15.478 18.681-28.139 18.681-16.872 0-30.541-13.669-30.541-30.541 0-7.789 2.916-14.885 7.719-20.282 18.324 8.371 35.443 19.254 50.961 32.142z"/><circle cx="256" cy="61.874" r="25.764"/></g><path d="m138.254 120.808c-1.48-.674-2.892-1.554-4.189-2.65-25.219-21.31-61.829-21.31-87.049 0-10.424 8.808-11.734 24.398-2.926 34.822 8.807 10.424 24.398 11.736 34.822 2.926 6.738-5.693 16.519-5.693 23.257 0 7.842 6.626 16.785 11.189 26.145 13.695 1.859-16.139 5.15-32.606 9.94-48.793z" fill="#00d1b3"/><g><g><g><ellipse cx="158.043" cy="267.101" fill="#ff9db0" rx="36.144" ry="28.783"/></g><g><ellipse cx="353.957" cy="267.101" fill="#ff9db0" rx="36.144" ry="28.783"/></g></g></g></g><g><path d="m179.12 246.897c4.142 0 7.5-3.358 7.5-7.5v-14.775c0-4.142-3.358-7.5-7.5-7.5s-7.5 3.358-7.5 7.5v14.775c0 4.142 3.358 7.5 7.5 7.5z"/><path d="m332.902 246.897c4.142 0 7.5-3.358 7.5-7.5v-14.775c0-4.142-3.358-7.5-7.5-7.5s-7.5 3.358-7.5 7.5v14.775c0 4.142 3.358 7.5 7.5 7.5z"/><path d="m256.011 255.692c9.937 0 19.387-4.304 25.926-11.808 2.721-3.123 2.396-7.86-.727-10.581-3.122-2.721-7.86-2.396-10.581.727-3.69 4.234-9.018 6.663-14.618 6.663s-10.928-2.429-14.618-6.663c-2.722-3.123-7.459-3.448-10.581-.727-3.123 2.721-3.448 7.459-.727 10.581 6.539 7.504 15.989 11.808 25.926 11.808z"/><path d="m256.011 28.616c-18.341 0-33.263 14.922-33.263 33.263s14.922 33.263 33.263 33.263c18.342 0 33.263-14.922 33.263-33.263s-14.922-33.263-33.263-33.263zm0 51.527c-10.07 0-18.263-8.193-18.263-18.263s8.193-18.263 18.263-18.263c10.071 0 18.263 8.193 18.263 18.263s-8.192 18.263-18.263 18.263z"/><path d="m469.833 112.433c-8.683-7.337-18.582-12.395-28.943-15.185-12.178-16.464-26.137-31.306-41.566-44.106-7.762-5.637-36.623-31.929-86.83-45.57-4-1.086-8.118 1.274-9.204 5.271s1.274 8.118 5.271 9.204c8.051 2.187 16.019 4.882 23.783 8.041-2.577 5.154-3.993 11.079-3.993 16.963 0 36.73 46.228 51.455 68.056 23.381 8.316 7.455 16.14 15.558 23.406 24.236-17.885.347-34.142 7.145-46.712 17.766-3.933 3.323-9.641 3.323-13.575-.001-28.024-23.679-68.706-23.68-96.731.001-3.985 3.369-9.716 3.258-13.574-.001-28.057-23.707-68.741-23.65-96.731 0-3.932 3.323-9.641 3.323-13.575 0-12.8-10.815-29.061-17.424-46.71-17.765 7.266-8.678 15.09-16.781 23.406-24.236 28.833 37.095 83.841-.561 64.06-40.349 32.185-13.137 66.345-17.748 100.457-13.599 4.11.495 7.85-2.428 8.351-6.539.5-4.112-2.428-7.85-6.539-8.351-100.999-12.285-167.245 50.442-169.239 51.545-.001.001-.002.002-.003.003-15.428 12.799-29.387 27.64-41.566 44.105-10.36 2.79-20.26 7.849-28.943 15.186-20.022 16.916-12.333 48.996 12.295 55.674-3.834 13.832-6.302 27.937-7.363 42.081-19.788 22.93-17.207 57.359 5.689 77.158-2.728 5.502-6.103 10.856-10.082 15.971-11.897 15.291-9.884 37.283 4.582 50.067 12.301 10.869 32.576 24.834 61.331 32.416-6.241 19.602-2.342 41.886 12.068 58.522-5.323 19.242-8.021 39.464-8.021 60.179 0 4.142 3.358 7.5 7.5 7.5h271.647c4.142 0 7.5-3.358 7.5-7.5 0-20.715-2.699-40.937-8.021-60.179 14.411-16.639 18.308-38.922 12.068-58.522 28.755-7.583 49.03-21.547 61.331-32.416 14.466-12.784 16.479-34.775 4.582-50.066-3.979-5.115-7.353-10.469-10.082-15.971 22.915-19.817 25.458-54.247 5.689-77.157-1.062-14.15-3.531-28.261-7.368-42.099 24.8-6.742 32.162-38.875 12.299-55.658zm-123.767-76.177c13.606 6.704 26.624 14.921 38.83 24.512-16.418 22.193-52.545 1.257-38.83-24.512zm-218.94 24.511c12.206-9.59 25.225-17.808 38.83-24.512 13.061 24.557-21.683 47.742-38.83 24.512zm314.94 107.72c2.798 9.428 4.914 19.005 6.329 28.638-6.615-3.398-13.934-5.336-20.934-5.838-2.17-10.732-5.403-21.377-9.564-31.513 3.443-1.249 7.44-.619 10.44 1.928 4.111 3.452 8.965 5.74 13.729 6.785zm-90.135 281.54c-8.405-27.409-22.103-47.222-33.851-60.29 17.091-6.472 32.957-15.555 47.332-27.103 15.523 7.707 25.841 23.849 25.841 41.579 0 23.463-17.296 42.454-39.322 45.814zm-179.008 9.974c0-.001 0-.001 0 0 1.796-6.686 4.183-13.701 7.075-20.475 1.626-3.81-.144-8.216-3.954-9.842h-.001c-.002-.001-.004-.002-.006-.003-3.809-1.626-8.216.143-9.842 3.953-2.281 5.343-4.283 10.817-6.009 16.408-22.165-3.346-39.417-22.41-39.417-45.828 0-17.058 9.58-32.787 24.351-40.804.102-.055.959-.511 1.489-.774 14.381 11.552 30.255 20.638 47.352 27.111-4.348 4.863-8.735 10.42-12.77 16.363-2.326 3.427-1.434 8.091 1.993 10.418.003.002.006.004.01.006h.001c3.425 2.321 8.089 1.436 10.417-1.997 1.893-2.791 4.176-5.912 6.468-8.789v2.213c0 29.415 36.863 42.994 55.931 20.449 19.071 22.548 55.931 8.96 55.931-20.449v-2.204c19.518 24.537 31.226 55.45 32.685 91.245h-177.233c.5-12.274 2.185-24.553 5.529-37.001zm-109.296-262.875c1.415-9.632 3.53-19.207 6.328-28.634 11.493-2.535 12.978-8.179 18.803-9.191h.001c1.804-.313 3.719-.125 5.366.473-4.13 10.066-7.374 20.679-9.565 31.514-6.893.493-14.298 2.429-20.933 5.838zm130.445-35.488c3.919-3.312 9.631-3.332 13.574 0 22.828 19.289 48.466 17.772 48.366 17.754 17.641-.001 34.816-6.306 48.362-17.753 3.935-3.324 9.644-3.325 13.577 0 24.464 20.675 59.455 23.76 87.242 6.82 7.597 19.607 11.205 40.281 10.687 61.931-2.723 104.164-103.5 178.558-204.4 149.373-89.911-26.107-138.456-123.966-104.651-211.304 27.927 17.026 62.944 13.704 87.243-6.821zm102.871 234.611v11.71c0 9.217-7.499 16.716-16.716 16.716s-16.716-7.498-16.716-16.716v-7.041c11.437-.486 22.981-2.148 33.432-4.669zm-48.432 11.711c0 9.217-7.499 16.716-16.716 16.716s-16.716-7.498-16.716-16.716v-11.71c10.402 2.505 21.962 4.182 33.432 4.669zm-202.683-272.365c.385-4.581 2.531-8.737 6.042-11.704 9.629-8.137 21.492-13.089 34.447-14.042 26.575-1.888 43.782 14.532 42.92 14.043 9.561 8.078 23.413 8.049 32.937 0 22.321-18.863 54.903-18.982 77.368 0 9.545 8.064 23.397 8.065 32.938 0 22.414-18.94 54.952-18.939 77.367 0 9.543 8.065 23.396 8.065 32.937.001 22.464-18.954 55.015-18.889 77.368 0 7.248 6.124 8.163 17.004 2.039 24.252-6.153 7.282-17.059 8.117-24.253 2.039-9.541-8.062-23.394-8.062-32.94 0-22.144 18.693-54.925 18.962-77.365 0-9.542-8.064-23.395-8.063-32.94 0-22.378 18.909-54.919 18.966-77.366-.001-9.658-8.16-23.52-7.956-32.937 0-22.272 18.819-55.071 18.838-77.368 0-5.964-5.039-13.611-6.928-20.838-5.668-9.861 1.718-11.217 6.603-17.637 8.8-11.814 4.026-23.753-5.409-22.719-17.72zm16.033 80.894c5.521-5.035 12.555-8.563 20.297-9.826-2.894 26.257.036 53.367 9.283 78.927-.346-.086-11.994 1.632-24.167-6.111-22.168-14.128-24.868-45.293-5.413-62.99zm-7.294 96.037c4.218-5.423 7.863-11.096 10.889-16.941 9.502 4.436 20.768 6.209 31.932 4.396 9.07 19.425 21.789 37.203 37.28 52.145-7.993 4.977-14.737 11.733-19.726 19.803-27.258-6.675-46.301-19.714-57.7-29.786-8.545-7.552-9.72-20.561-2.675-29.617zm78.77 142.901c6.814 4.51 14.669 7.715 23.04 9.203-2.17 10.099-3.583 20.945-4.014 32.37h-24.55c.481-14.215 2.331-28.135 5.524-41.573zm226.321 41.573c-.398-10.59-1.678-21.748-3.948-32.384 8.403-1.475 16.431-4.827 22.975-9.19 3.192 13.438 5.042 27.358 5.523 41.573h-24.55zm86.908-201.415c3.026 5.846 6.67 11.519 10.889 16.941 7.045 9.056 5.87 22.064-2.676 29.616-11.399 10.072-30.442 23.111-57.7 29.786-4.989-8.07-11.733-14.826-19.726-19.803 15.506-14.953 28.227-32.733 37.282-52.144 10.688 1.74 21.923.276 31.931-4.396zm-20.485-9.988c-3.247.213-5.1.006-5.501-.008 9.272-25.629 12.167-52.781 9.284-78.927 18.931 3.09 33.349 19.578 33.349 39.256-.001 20.841-16.215 38.292-37.132 39.679z"/></g></g></svg>