<svg id="Capa_1" enable-background="new 0 0 512 512" height="512" viewBox="0 0 512 512" width="512" xmlns="http://www.w3.org/2000/svg"><g><g><path d="m394.761 504.5c0-80.84-58.213-109.88-58.213-109.88h-153.2s-58.213 29.04-58.213 109.88z" fill="#50e1cd"/><path d="m259.948 381.607c-16.622 8.357-28.034 25.554-28.034 45.427 0 14.834 6.358 28.177 16.496 37.466 6.567 6.017 16.509 6.017 23.076 0 10.137-9.289 16.496-22.632 16.496-37.466 0-19.873-11.412-37.07-28.034-45.427z" fill="#bc9bdd"/><path d="m86.604 181.667c-10.767 23.822-16.764 50.243-16.764 78.038h380.216c0-27.795-5.998-54.216-16.764-78.038l-173.344-24.505z" fill="#5c586f"/><path d="m145.613 48.408c-6.519-14.229-19.559-23.401-33.954-25.605-6.216-.952-12.463 1.91-15.801 7.239-7.732 12.34-9.303 28.206-2.784 42.435 7.968 17.394 25.683 27.231 43.703 26.021 12.685-12.857 16.805-32.696 8.836-50.09z" fill="#00d1b3"/><circle cx="415.071" cy="269.7" fill="#ffbe9c" r="42.794"/><g><path d="m147.344 499.817c0-47.226 27.262-87.76 66.156-105.197h-30.152s-58.213 29.04-58.213 109.88h22.307c-.06-1.554-.098-3.114-.098-4.683z" fill="#00d1b3"/></g><path d="m346.384 181.667-86.436-24.505-86.436 24.505h-47.647c-13.371 22.925-21.039 49.584-21.039 78.038 0 85.672 69.451 155.123 155.123 155.123s155.123-69.451 155.123-155.123c0-28.453-7.668-55.113-21.039-78.038z" fill="#ffd3bc"/><path d="m390.806 97.528c.692-4.156 1.07-8.419 1.07-12.772 0-42.668-34.589-77.257-77.257-77.257-21.356 0-40.687 8.666-54.671 22.672l-6.978 95.708h119.307z" fill="#986acb"/><path d="m117.08 71.583c-18.126-9.684-39.216-8.254-55.475 1.909-4.783 2.989-7.636 8.33-7.462 13.967.591 19.165 11.125 37.492 29.251 47.176 20.874 11.152 45.68 7.564 62.512-7.126 2.855-22.159-7.951-44.774-28.826-55.926z" fill="#50e1cd"/><path d="m129.09 97.528c-.692-4.156-1.07-8.419-1.07-12.772 0-42.668 34.589-77.257 77.257-77.257s77.257 34.589 77.257 77.257c0 1.274-.035 2.54-.096 3.798l-29.468 37.326h-119.437z" fill="#a47cd1"/><path d="m216.491 97.241c-12.784-7.396-27.626-11.63-43.457-11.63-48.001 0-86.914 38.913-86.914 86.914 0 3.092.164 6.146.479 9.155.002-.004.004-.008.005-.012h86.908z" fill="#b08bd7"/><path d="m346.384 181.667h86.908c.002.004.004.009.006.013.315-3.009.479-6.063.479-9.155 0-48.002-38.913-86.914-86.914-86.914-15.831 0-30.673 4.235-43.457 11.63z" fill="#b08bd7"/><path d="m346.384 181.667c.314-3.005.478-6.054.478-9.142 0-48.002-38.913-86.914-86.914-86.914s-86.914 38.913-86.914 86.914c0 3.088.164 6.137.478 9.142z" fill="#bc9bdd"/><g><path d="m137.854 250.386c0-24.335 4.439-47.538 12.468-68.719h-24.457c-8.108 13.901-14.102 29.182-17.578 45.397-1.118-.096-2.264-.158-3.461-.158-23.635 0-42.794 19.16-42.794 42.794 0 23.635 19.159 42.794 42.794 42.794 3.237 0 6.173-.372 8.848-1.052 18.046 51.013 62.016 89.772 116.084 100.438-54.476-29.544-91.904-90.757-91.904-161.494z" fill="#ffbe9c"/></g><g fill="#ff9db0"><ellipse cx="169.336" cy="278.264" rx="33.434" ry="26.625"/><ellipse cx="350.559" cy="278.264" rx="33.434" ry="26.625"/></g></g><g><path d="m188.8 231.466c-4.142 0-7.5 3.358-7.5 7.5v13.667c0 4.142 3.358 7.5 7.5 7.5s7.5-3.358 7.5-7.5v-13.667c0-4.142-3.358-7.5-7.5-7.5z"/><path d="m331.053 231.466c-4.142 0-7.5 3.358-7.5 7.5v13.667c0 4.142 3.358 7.5 7.5 7.5s7.5-3.358 7.5-7.5v-13.667c0-4.142-3.358-7.5-7.5-7.5z"/><path d="m283.606 246.573c-3.123-2.721-7.861-2.396-10.582.727-3.307 3.794-8.081 5.97-13.098 5.97s-9.791-2.176-13.098-5.97c-2.722-3.123-7.459-3.448-10.582-.727s-3.448 7.459-.727 10.582c6.156 7.064 15.052 11.115 24.406 11.115s18.25-4.051 24.406-11.115c2.723-3.123 2.398-7.861-.725-10.582z"/><path d="m83.342 142.966c-3.866 11.697-5.5 24.353-4.409 37.469-8.535 19.413-13.836 39.945-15.773 61.097-5.457 8.042-8.65 17.739-8.65 28.168 0 27.732 22.562 50.294 50.294 50.294 1.34 0 2.681-.071 4.02-.178 12.229 30.632 33.512 56.704 60.529 74.889-6.446 4.76-14.998 12.167-23.303 22.711-2.563 3.254-2.002 7.97 1.252 10.533s7.97 2.002 10.532-1.251c10.007-12.706 20.46-20.217 25.599-23.461 12.751 6.805 26.992 12.102 41.58 15.305-2.845 19.454 4.312 38.663 18.31 51.489 9.467 8.674 23.743 8.674 33.21 0 13.98-12.81 21.159-32.008 18.31-51.489 14.851-3.261 29.07-8.629 41.581-15.306 4.86 3.066 14.446 9.927 23.91 21.364 16.418 19.843 25.394 44.168 26.731 72.4h-35.042v-30.175c0-4.142-3.358-7.5-7.5-7.5s-7.5 3.358-7.5 7.5v30.175h-154.191v-30.175c0-4.142-3.358-7.5-7.5-7.5s-7.5 3.358-7.5 7.5v30.175h-35.039c.819-16.908 4.433-32.588 10.774-46.708 1.697-3.779.01-8.217-3.769-9.915-3.779-1.697-8.218-.01-9.915 3.769-8.142 18.13-12.271 38.436-12.271 60.353 0 4.142 3.358 7.5 7.5 7.5h269.625c4.142 0 7.5-3.358 7.5-7.5 0-44.013-16.781-73.275-30.858-90.072-7.519-8.972-15.057-15.426-20.878-19.724 27.015-18.185 48.298-44.256 60.527-74.888 42.171 3.384 69.114-43.724 45.664-78.284-1.938-21.152-7.239-41.684-15.773-61.096.219-2.637.335-5.289.335-7.912 0-32.856-16.874-61.841-42.407-78.758 2.207-20.525-3.07-40.417-14.209-56.736-2.335-3.42-7-4.302-10.423-1.966-3.421 2.335-4.301 7.001-1.966 10.423 8.384 12.282 12.333 26.425 12.094 40.378-26.818-11.601-56.615-9.79-80.96 2.823-4.486-2.329-9.635-4.423-13.39-5.682-.374-18.646-6.811-37.108-19.469-52.331 12.416-10.153 27.818-15.674 44.073-15.674 13.751 0 27.061 4.006 38.49 11.585 3.451 2.289 8.106 1.347 10.396-2.105 2.289-3.452 1.347-8.106-2.105-10.396-13.896-9.214-30.072-14.084-46.781-14.084-20.261 0-39.421 7.079-54.701 20.036-14.766-12.486-33.834-20.036-54.641-20.036-25.599 0-48.566 11.424-64.12 29.422-7.72-7.41-17.655-12.394-28.362-14.033-9.205-1.41-18.348 2.778-23.292 10.67-6.041 9.64-8.723 21.015-7.78 32.215-8.432 1.251-16.65 4.205-24.094 8.857-7.03 4.394-11.239 12.271-10.983 20.558.725 23.47 14.635 45.19 36.718 55.277zm118.138-44.585c-22.192 17.551-35.968 44.609-35.968 74.144 0 .546.005 1.094.014 1.642-13.678 0-55.552 0-71.912 0-1.181-56.521 55.345-95.68 107.866-75.786zm137.861 74.143c0 .545-.032 1.095-.043 1.643h-158.743c-.011-.547-.043-1.097-.043-1.642 0-19.368 7.241-38.617 20.654-53.368 0 0 .001-.001.001-.001 48.967-53.865 138.174-18.476 138.174 53.368zm100.02 53.168c-11.046-6.127-20.585-6.01-21.851-6.225-2.72-10.685-6.609-21.136-11.026-30.3h21.876c4.956 11.785 8.634 24.003 11.001 36.525zm-358.869-.001c2.366-12.521 6.044-24.739 11.001-36.524h21.876c-4.503 9.341-8.36 19.821-11.026 30.3-1.223.208-10.681.03-21.851 6.224zm23.209 79.286c-18.952-.585-34.191-16.185-34.191-35.277 0-8.206 2.816-15.765 7.53-21.766.029-.037.058-.073.087-.11 5.638-7.118 13.728-11.692 22.082-12.97-1.277 8.294-1.906 16.869-1.906 24.85.144 1.608-.657 20.938 6.398 45.273zm176.353 116.108c2.003 14.565-3.526 28.602-13.657 37.885-3.689 3.38-9.254 3.38-12.942 0-10.157-9.306-15.655-23.354-13.657-37.885 3.679.459 8.419.868 12.628 1.063v17.726c0 4.142 3.358 7.5 7.5 7.5s7.5-3.358 7.5-7.5v-17.726c4.319-.199 8.923-.6 12.628-1.063zm34.095-24.074c-33.857 13.412-72.622 14.094-108.446 0-82.199-32.576-117.917-129.822-75.454-207.844h259.356c27.969 51.396 14.935 100.364 14.938 100.264-10.088 49.146-44.678 89.464-90.394 107.58zm102.003-92.034c6.328-21.822 8.208-45.995 4.491-70.123 8.334 1.275 16.446 5.824 22.167 13.077 17.735 22.569 2.285 56.152-26.658 57.046zm10.104-132.452c0 .546-.006 1.093-.017 1.642-16.471 0-58.561 0-71.912 0 .009-.548.014-1.096.014-1.642 0-29.587-13.847-56.648-35.969-74.144 51.477-19.875 107.884 18.081 107.884 74.144zm-221.001-157.525c36.557 0 66.763 28.33 69.525 64.279-19.376-3.1-40.036-.07-58.312 9.411-24.737-12.845-54.615-14.215-80.947-2.83-.639-38.59 30.533-70.86 69.734-70.86zm-103.062 19.023c1.737-2.772 5.077-4.302 8.311-3.807 8.35 1.278 16.046 5.396 21.728 11.513-4.482 7.6-7.781 16.077-9.648 24.348-8.1-4.711-17.178-7.473-25.875-8.273-.877-8.241 1.029-16.67 5.484-23.781zm-36.634 45.828c16.617-10.386 38.647-9.873 54.969 2.929-.098 3.483.088 7.52.457 10.958-13.396 8.879-24.442 21.172-31.839 35.402-16.4-7.682-26.976-24.032-27.527-41.912-.093-2.974 1.417-5.8 3.94-7.377z"/></g></g></svg>