<svg id="Capa_1" enable-background="new 0 0 512 512" height="512" viewBox="0 0 512 512" width="512" xmlns="http://www.w3.org/2000/svg"><g><g><path d="m43.901 222.313c0 27.823 1.708 52.145 4.424 73.233 3.9 30.278 29.783 52.89 60.311 52.89h294.729c30.528 0 56.411-22.612 60.311-52.89 2.716-21.089 4.424-45.41 4.424-73.233z" fill="#e7886e"/><path d="m245.292 222.313h-201.391c0 27.823 1.708 52.145 4.424 73.233 3.9 30.278 29.783 52.89 60.311 52.89h136.657v-126.123z" fill="#e27858"/><path d="m326.504 375.85h-141.008s-58.383 39.775-58.383 128.65h96.533l32.354-16.659 32.354 16.659h96.533c0-88.875-58.383-128.65-58.383-128.65z" fill="#ffb5ec"/><path d="m288.354 504.5-16.044-89.395h-32.62l-16.044 89.395z" fill="#50e1cd"/><path d="m256 465.392c8.706 0 16.96-1.961 24.357-5.45l-8.047-44.837h-32.62l-8.047 44.837c7.397 3.489 15.651 5.45 24.357 5.45z" fill="#00d1b3"/><path d="m228.704 348.436v59.66c0 15.075 12.221 27.296 27.296 27.296s27.296-12.221 27.296-27.296v-59.66z" fill="#50e1cd"/><path d="m43.901 222.313c0-116.952 95.147-212.099 212.099-212.099s212.1 95.147 212.1 212.099z" fill="#e7886e"/><path d="m165.019 68.711-24.327-24.327c-58.215 37.85-96.791 103.465-96.791 177.929h72.164c-.188-3.813-.287-7.649-.287-11.509 0-53.653 18.406-103.003 49.241-142.093z" fill="#e27858"/><g><circle cx="427.344" cy="229.752" fill="#ffcabd" r="48.382"/></g><g><path d="m149.086 485.618c0-58.676 45.968-106.611 103.856-109.768h-67.446s-58.383 39.775-58.383 128.65h23.594c-1.062-6.135-1.621-12.443-1.621-18.882z" fill="#ffa2e7"/></g><path d="m423.091 181.558h-98.7c-9.333 0-18.082-4.538-23.458-12.167l-21.474-30.474c-11.432-16.223-35.485-16.223-46.917 0l-21.474 30.474c-5.376 7.629-14.126 12.167-23.458 12.167h-98.7c-2.833 12.482-4.309 25.48-4.252 38.833.408 94.463 79.684 172.077 174.135 170.568 93.343-1.492 168.551-77.624 168.551-171.322 0-13.088-1.474-25.832-4.253-38.079z" fill="#ffd8d2"/><ellipse cx="356.658" cy="258.103" fill="#ff9db0" rx="37.141" ry="29.577"/><path d="m143.45 124.219.074.006c26.566 2.381 43.767-27.405 28.427-49.225l-.046-.066.046-.066c15.34-21.819-1.862-51.606-28.427-49.224l-.074.007c-11.221-24.202-45.626-24.202-56.848 0l-.074-.007c-26.565-2.38-43.767 27.406-28.427 49.226l.046.066-.046.066c-15.34 21.819 1.862 51.606 28.427 49.224l.074-.007c11.222 24.202 45.627 24.202 56.848 0z" fill="#fbe29f"/><circle cx="115.026" cy="74.935" fill="#ff889e" r="25.147"/><path d="m368.55 124.219-.074.006c-26.566 2.381-43.767-27.405-28.427-49.225l.046-.066-.046-.066c-15.34-21.819 1.862-51.606 28.427-49.224l.074.007c11.221-24.202 45.626-24.202 56.848 0l.074-.007c26.566-2.381 43.767 27.405 28.427 49.224l-.046.066.046.066c15.34 21.819-1.862 51.606-28.427 49.224l-.074-.007c-11.222 24.204-45.627 24.204-56.848.002z" fill="#fbe29f"/><circle cx="396.974" cy="74.935" fill="#ff889e" r="25.147"/><path d="m185.285 375.373c-42.868-41.717-69.507-100.028-69.507-164.569 0-9.908.628-19.669 1.845-29.246h-28.714c-.002.008-.003.015-.005.023-1.344-.133-2.751-.211-4.248-.211-26.721 0-48.382 21.661-48.382 48.382s21.661 48.382 48.382 48.382c3.837 0 7.143-.46 10.016-1.305 15.741 43.582 48.834 79.258 90.613 98.544z" fill="#ffcabd"/><ellipse cx="155.342" cy="258.103" fill="#ff9db0" rx="37.141" ry="29.577"/></g><g><path d="m176.988 237.131c4.142 0 7.5-3.358 7.5-7.5v-15.183c0-4.142-3.358-7.5-7.5-7.5s-7.5 3.358-7.5 7.5v15.183c0 4.142 3.357 7.5 7.5 7.5z"/><path d="m335.013 237.131c4.142 0 7.5-3.358 7.5-7.5v-15.183c0-4.142-3.358-7.5-7.5-7.5s-7.5 3.358-7.5 7.5v15.183c0 4.142 3.358 7.5 7.5 7.5z"/><path d="m256 246.169c10.151 0 19.805-4.397 26.485-12.063 2.721-3.123 2.396-7.86-.727-10.582-3.122-2.721-7.86-2.396-10.582.727-3.831 4.396-9.363 6.918-15.177 6.918s-11.346-2.521-15.177-6.918c-2.722-3.123-7.459-3.448-10.582-.727s-3.448 7.459-.727 10.582c6.683 7.667 16.336 12.063 26.487 12.063z"/><path d="m115.027 107.582c18.001 0 32.647-14.646 32.647-32.646 0-18.002-14.646-32.647-32.647-32.647s-32.647 14.645-32.647 32.647c0 18.001 14.645 32.646 32.647 32.646zm0-50.293c9.73 0 17.647 7.917 17.647 17.647s-7.917 17.646-17.647 17.646-17.647-7.916-17.647-17.646 7.916-17.647 17.647-17.647z"/><path d="m396.974 107.582c18.001 0 32.647-14.646 32.647-32.646 0-18.002-14.646-32.647-32.647-32.647s-32.647 14.645-32.647 32.647c0 18.001 14.645 32.646 32.647 32.646zm0-50.293c9.73 0 17.647 7.917 17.647 17.647s-7.917 17.646-17.647 17.646-17.647-7.916-17.647-17.646 7.916-17.647 17.647-17.647z"/><path d="m37.477 259.645c.747 12.669 1.889 25.062 3.409 36.859 4.363 33.882 33.489 59.432 67.749 59.432h32.343c9.709 8.249 20.125 15.359 31.081 21.289-5.898 5.422-13.916 13.805-21.919 25.349-13.927 20.088-30.528 54.078-30.528 101.927 0 4.142 3.358 7.5 7.5 7.5h257.774c4.142 0 7.5-3.358 7.5-7.5 0-23.336-3.913-45.508-11.631-65.899-1.465-3.874-5.792-5.827-9.669-4.359-3.874 1.466-5.826 5.795-4.359 9.669 6.246 16.503 9.773 34.33 10.513 53.089h-34.727v-34.394c0-4.142-3.358-7.5-7.5-7.5s-7.5 3.358-7.5 7.5v34.393h-32.886l-11.952-66.593c5.065-6.045 8.121-13.827 8.121-22.312v-12.995c11.946-2.346 23.558-5.893 34.688-10.584 5.646 4.625 17.828 15.825 28.995 34.234 2.148 3.541 6.759 4.671 10.302 2.523 3.542-2.148 4.671-6.761 2.523-10.302-9.561-15.762-19.854-26.803-27.083-33.488 11.185-5.984 21.765-13.19 31.572-21.547h31.571c34.259 0 63.385-25.55 67.75-59.432 1.52-11.799 2.662-24.192 3.409-36.86 11.648-18.319 11.609-41.673-.111-59.956-2.735-26.616-10.212-52.134-22.261-75.982 14.261-11.181 19.64-31.492 10.488-48.762 13.331-25.078-4.288-55.876-32.853-56.899-15.1-24.051-50.508-24.064-65.621-.006-6.026.211-11.781 1.805-16.913 4.569-28.724-13.191-59.398-19.894-91.252-19.894-31.856 0-62.531 6.703-91.256 19.896-5.125-2.757-10.875-4.35-16.906-4.565-7.058-11.245-19.226-18.045-32.812-18.045-13.583 0-25.748 6.799-32.808 18.038-13.297.466-25.306 7.606-32.113 19.394-6.795 11.767-6.99 25.71-.744 37.496-9.158 17.227-3.788 37.587 10.489 48.776-12.049 23.847-19.526 49.365-22.261 75.982-11.717 18.277-11.765 41.632-.112 59.959zm42.273-70.477c-4.672 27.382-3 55.242 4.907 81.466-9.046-.284-17.436-2.44-25.65-9.079-28.25-22.768-14.789-68.077 20.743-72.387zm-23.987 105.42c-.767-5.951-1.436-12.06-2.004-18.284 10.581 7.022 23.302 10.271 36.068 9.088 8.14 20.26 20.078 39.058 35.453 55.545h-16.645c-26.739-.001-49.469-19.926-52.872-46.349zm220.034 102.811v10.697c0 16.596-19.74 26.25-32.76 14.926-4.177-3.632-6.833-8.969-6.833-14.926v-10.732c12.978 1.472 26.535 1.469 39.593.035zm-113.719 14.287c9.881-14.395 19.874-23.432 24.686-27.359 11.079 4.734 22.604 8.326 34.44 10.701v13.069c0 8.484 3.056 16.266 8.121 22.311l-11.952 66.592h-32.885v-34.394c0-4.142-3.358-7.5-7.5-7.5s-7.5 3.358-7.5 7.5v34.394h-34.731c1.232-32.006 10.407-60.674 27.321-85.314zm70.534 85.314 10.178-56.707c8.591 3.532 18.2 3.377 26.42 0l10.178 56.707zm194.879-226.371c7.638-25.8 9.488-53.733 4.759-81.461 51.726 6.286 44.979 81.3-4.759 81.461zm28.746 23.959c-3.403 26.423-26.134 46.348-52.873 46.348h-15.955c15.176-16.416 26.953-35.216 34.977-55.522 13.039 1.154 25.643-2.33 35.854-9.11-.567 6.224-1.236 12.333-2.003 18.284zm-88.351-261.466c3.151.283 6.137-1.446 7.468-4.315 8.553-18.449 34.68-18.462 43.239 0 1.332 2.871 4.398 4.593 7.548 4.309 20.2-1.802 33.374 20.726 21.578 37.504-1.821 2.588-1.775 6.106.045 8.695 11.576 16.466-1.169 39.276-21.703 37.434-.078-.001-1.1-.016-1.178-.011-2.568.176-5.086 1.728-6.29 4.327-8.583 18.512-34.748 18.405-43.259-.037-1.37-2.915-4.53-4.544-7.527-4.272-19.563 1.746-33.583-19.774-21.51-37.622 3.028-4.474-.144-8.678-.113-8.578-8.099-11.526-4.406-26.068 5.883-33.317 4.794-3.374 10.259-4.615 15.819-4.117zm-303.649 37.434c-11.647-16.567 1.249-39.26 21.703-37.434 3.147.283 6.138-1.446 7.468-4.315 8.553-18.447 34.679-18.465 43.239 0 1.331 2.871 4.388 4.593 7.548 4.309 20.031-1.789 33.451 20.615 21.57 37.515-.078.129-.531.882-.595 1.016-1.162 2.401-.962 5.38.647 7.668 11.714 16.662-1.505 39.454-21.703 37.434-.1.026-5.211-.552-7.468 4.316-8.553 18.447-34.678 18.464-43.239 0-1.378-2.973-4.517-4.597-7.548-4.309-20.429 1.702-33.28-20.86-21.577-37.504 1.82-2.589 1.775-6.107-.045-8.696zm8.994 59.897c2.675.742 5.916 1.267 8.984 1.375 15.109 24.06 50.51 24.063 65.62.004 28.243-.993 46.301-31.53 32.857-56.891 6.66-12.531 6.348-27.982-3.379-41.493 24.915-10.445 51.336-15.734 78.687-15.734s53.772 5.289 78.687 15.735c-.005.007-.01.015-.016.022-9.069 12.12-10.47 28.052-3.364 41.457-13.426 25.262 4.513 55.928 32.859 56.907 6.794 10.814 18.735 18.036 32.807 18.036 13.46 0 25.694-6.709 32.808-18.038 3.148-.109 6.537-.698 8.988-1.379 8.316 16.459 14.296 33.775 17.872 51.724-9.742-6.009-21.544-9.104-33.754-8.12h-98.496c-6.884 0-13.362-3.36-17.327-8.987l-21.475-30.474c-2.963-4.205-6.747-7.667-11.05-10.233-9.167-5.464-17.385-4.953-18.539-5.114-.101.025-18.234-.767-29.589 15.347l-21.475 30.475c-3.965 5.627-10.443 8.987-17.327 8.987h-35.16c-4.142 0-7.5 3.358-7.5 7.5s3.358 7.5 7.5 7.5h35.16c11.756 0 22.817-5.737 29.589-15.347 21.532-29.863 21.477-32.136 26.883-35.828 7.102-4.85 16.733-4.851 23.837 0 5.425 3.704 5.603 6.314 26.883 35.828 6.771 9.61 17.833 15.347 29.589 15.347h92.585c28.875 152.891-151.856 255.526-268.141 153.832-.035-.032-.063-.07-.099-.101-42.576-37.202-64.915-94.382-53.712-153.73h27.425c4.142 0 7.5-3.358 7.5-7.5s-3.358-7.5-7.5-7.5c-22.769-.039-31.56.098-34.702-.085-11.47-.664-22.734 2.303-32.107 8.038-.093.056-.188.109-.281.166 3.577-17.952 9.556-35.266 17.873-51.726z"/></g></g></svg>