<svg id="Capa_1" enable-background="new 0 0 512 512" height="512" viewBox="0 0 512 512" width="512" xmlns="http://www.w3.org/2000/svg"><g><g><path d="m29.18 48.608c0 12.775-4.388 22.227-10.917 29.221-4.764 5.104-3.953 13.229 1.564 17.508 12.244 9.496 35.583 20.952 71.276 12.029l35.178-55.757c-21.32-59.135-97.101-52.878-97.101-3.001z" fill="#fbc072"/><path d="m158.926 49.1c-14.748-14.754-38.832-14.289-52.96 1.06-9.99 10.854-18.997 22.626-26.876 35.177-9.118 14.523-7.021 33.416 5.104 45.541l7.291 7.291z" fill="#b08bd7"/><path d="m462.496 394.32c11.56 52.71-83.05 74.38-83.05 74.38h-193.6s-94.61-21.67-83.05-74.38c17.33-80.16-25.31-67.89-25.31-181.66 0-26.26 4.96-51.39 14-74.49 13.9-35.57 37.46-66.34 67.44-89.07 34.41-26.1 77.29-41.6 123.72-41.6 113.13 0 205.16 92.03 205.16 205.16 0 113.77-42.64 101.5-25.31 181.66z" fill="#fccb88"/><path d="m140.727 182.718c0-60.46 31.344-116.557 71.706-162.844-19.361 7.073-37.366 16.983-53.507 29.226-29.98 22.73-53.54 53.5-67.44 89.07-9.04 23.1-14 48.23-14 74.49 0 113.77 42.64 101.5 25.31 181.66-11.56 52.71 83.05 74.38 83.05 74.38h174.996c-123.556-14.204-220.115-136.814-220.115-285.982z" fill="#fbc072"/><path d="m401.437 406.819s34.948 30.944 34.948 97.681h-70.35l-19.602-66.736z" fill="#b08bd7"/><path d="m245.174 504.5h74.944l26.315-66.736-26.315-94.891h-74.944l-26.315 94.891z" fill="#ffb5ec"/><path d="m163.855 406.819s-34.948 30.944-34.948 97.681h70.35l19.602-66.736z" fill="#b08bd7"/><path d="m401.437 406.819-55.004 30.944 19.602 66.736h30c0-30.695 13.199-56.328 23.849-72.014-9.049-17.32-18.447-25.666-18.447-25.666z" fill="#a47cd1"/><path d="m399.391 376.264-33.392-33.392h-45.881v161.628h45.918c0-44.138 20.979-78.958 35.402-97.681 7.107-9.227 6.189-22.319-2.047-30.555z" fill="#50e1cd"/><path d="m145.407 432.485c10.65 15.687 23.849 41.319 23.849 72.015h30l19.602-66.736-55.004-30.944c.001-.001-9.397 8.345-18.447 25.665z" fill="#a47cd1"/><path d="m165.901 376.264 33.392-33.392h45.881v161.628h-45.918c0-44.138-20.979-78.958-35.402-97.681-7.107-9.227-6.189-22.319 2.047-30.555z" fill="#50e1cd"/><g><circle cx="451.542" cy="232.649" fill="#ffcabd" r="45.32"/></g><path d="m451.542 212.66c0-.08 0-.16 0-.242v.203c-.006-25.057-5.472-48.835-15.269-70.215-7.662-16.722-26.138-25.673-43.972-21.17-32.063 8.095-69.57 12.749-109.655 12.749-40.088 0-77.597-4.654-109.663-12.751-17.645-4.456-36.116 4.184-43.749 20.705-9.936 21.509-15.483 45.461-15.485 70.71-.006 92.434 75.274 168.266 167.706 168.903 93.812.646 170.065-75.196 170.085-168.853v.203c.002-.082.002-.162.002-.242z" fill="#ffd8d2"/><path d="m187.659 352.123c-29.503-47.504-46.932-106.054-46.932-169.405 0-20.736 3.693-40.957 10.165-60.446-9.319 3.303-17.276 10.182-21.657 19.667-6.556 14.191-11.186 29.45-13.588 45.439-.619-.027-1.244-.049-1.897-.049-25.029 0-45.32 20.291-45.32 45.32s20.291 45.32 45.32 45.32c5.023 0 9.036-.83 12.264-2.338 12.611 31.126 34.247 57.734 61.645 76.492z" fill="#ffcabd"/><g><g><g><ellipse cx="176.454" cy="248.317" fill="#ff9db0" rx="39.183" ry="31.203"/></g><g><ellipse cx="388.838" cy="248.317" fill="#ff9db0" rx="39.183" ry="31.203"/></g></g></g></g><g><path d="m199.287 225.78c4.142 0 7.5-3.358 7.5-7.5v-16.018c0-4.142-3.358-7.5-7.5-7.5s-7.5 3.358-7.5 7.5v16.018c0 4.142 3.358 7.5 7.5 7.5z"/><path d="m365.999 225.78c4.142 0 7.5-3.358 7.5-7.5v-16.018c0-4.142-3.358-7.5-7.5-7.5s-7.5 3.358-7.5 7.5v16.018c0 4.142 3.358 7.5 7.5 7.5z"/><path d="m282.643 235.314c10.59 0 20.661-4.587 27.63-12.584 2.722-3.123 2.396-7.86-.726-10.582-3.123-2.722-7.861-2.397-10.582.726-4.121 4.728-10.07 7.439-16.323 7.439s-12.202-2.711-16.322-7.439c-2.721-3.123-7.459-3.448-10.582-.727-3.123 2.722-3.448 7.459-.727 10.582 6.971 7.999 17.042 12.585 27.632 12.585z"/><path d="m15.227 101.263c13.986 10.847 31.827 17.138 52.663 16.779 4.167 13.353 12.891 19.637 14.869 22.011-7.327 20.098-11.529 41.154-12.522 62.696-13.528 19.624-12.399 46.356 3.948 64.843 10.522 60.508 34.706 63.027 21.282 125.122-3.568 16.271-.403 39.662 33.279 60.69-4.32 14.05-7.343 31.025-7.343 51.097 0 4.142 3.358 7.5 7.5 7.5h307.479c4.142 0 7.5-3.358 7.5-7.5 0-20.071-3.023-37.046-7.342-51.096 33.683-21.03 36.847-44.418 33.283-60.669-13.419-62.069 10.772-64.727 21.277-125.144 16.097-18.204 17.698-44.917 3.934-64.863-3.24-69.989-40.71-133.752-100.61-170.911-3.52-2.185-8.144-1.101-10.327 2.419-2.184 3.52-1.101 8.143 2.419 10.327 51.045 31.667 84.587 84.1 92.146 142.717-6.896-4.137-14.807-6.619-22.63-7.264-2.66-14.228-7.168-28.13-12.945-40.735-9.179-20.031-31.314-30.694-52.626-25.318-32.442 8.191-69.725 12.521-107.818 12.521-38.096 0-75.382-4.33-107.827-12.523-21.072-5.322-43.205 4.942-52.393 24.832-5.867 12.699-10.451 26.681-13.17 41.223-7.512.62-15.486 2.975-22.639 7.269 6.752-52.607 34.559-100.147 76.84-132.209 5.077-2.686 47.618-40.077 119.189-40.077 26.655 0 52.546 5.252 76.953 15.611 3.814 1.618 8.216-.162 9.834-3.974 1.618-3.813-.161-8.216-3.974-9.834-26.27-11.15-54.133-16.803-82.813-16.803-44.678 0-87.191 13.653-123.354 39.528-10.24-7.64-22.787-10.159-34.706-7.899-31.766-47.65-102.906-35.579-102.906 16.979 0 9.804-2.911 17.688-8.898 24.103-7.777 8.328-6.544 21.576 2.448 28.552zm120.814 43.821c5.801-12.557 19.599-19.633 33.401-16.952 7.69 1.488 48.773 13.353 113.201 13.353 70.776 0 108.051-13.28 117.053-13.844 12.43-.777 24.381 6.164 29.755 17.889 32.689 71.335 9.272 156.985-57.285 201.44-16.076 10.737-34.044 18.644-53.828 23.105-129.441 29.28-238.439-103.428-182.297-224.991zm313.371 125.311c8.313-24.08 11.223-49.715 8.787-74.979 30.08 5.366 41.732 42.577 19.875 64.149-7.354 7.253-17.555 11.457-28.662 10.83zm-373.485-37.747c0-18.582 13.47-34.076 31.159-37.232-2.429 25.205.313 50.287 8.92 74.973-10.552.637-40.079-15.79-40.079-37.741zm34.197 163.257c13.002-60.142-6.678-72.416-17.725-114.91 9.141 4.045 19.386 5.383 29.372 3.858 11.825 26.175 30.624 50.499 55.708 69.225-17.558 17.607-17.907 17.687-19.925 20.435-6.69 9.097-7.789 21.202-3.089 31.228-5.021 5.647-13.39 16.604-20.461 33.232-19.315-12.811-27.346-27.267-23.88-43.068zm53.104 22.792c15.742 22.81 26.711 50.078 28.303 78.303h-54.97c1.767-41.528 17.896-67.261 26.667-78.303zm81.943 18.193c-4.142 0-7.5 3.358-7.5 7.5v52.61h-31.112c-1.784-34.292-15.925-67.689-36.766-94.758 0-.001-.001-.001-.002-.002-4.777-6.204-4.171-15.091 1.41-20.673l18.889-18.889c14.594 9.054 30.59 16.045 47.581 20.545v31.167c0 4.142 3.358 7.5 7.5 7.5s7.5-3.358 7.5-7.5v-27.906c20.115 3.473 40.593 3.341 59.944.05v110.466h-59.944v-52.61c0-4.142-3.358-7.5-7.5-7.5zm82.444-53.597c16.839-4.407 32.89-11.293 47.713-20.483l18.758 18.758c5.582 5.583 6.187 14.471 1.408 20.675-20.622 26.769-34.966 60.179-36.766 94.758h-31.112v-113.708zm46.14 113.707c1.652-28.086 12.26-55.053 28.303-78.304 8.771 11.043 24.9 36.776 26.666 78.304zm81.412-101.073c3.461 15.781-4.57 30.236-23.884 43.047-7.071-16.628-15.44-27.585-20.461-33.232 11.062-23.288-8.108-36.717-22.88-51.53 24.205-18.087 43.495-42.052 55.743-69.333 9.506 1.435 19.788.283 29.204-3.883-11.059 42.526-30.729 54.766-17.722 114.931zm-308.479-346.68c-24.256 20.232-44.255 45.931-57.775 75.73-9.384-9.92-10.387-24.63-3.479-35.642.002-.003.004-.006.006-.01 7.454-11.874 21.458-30.359 28.458-36.42 9.307-8.068 22.505-9.158 32.79-3.658zm-122.945 33.7c8.582-9.194 12.934-20.747 12.934-34.339 0-36.516 49.247-43.457 73.452-11.449-3.706 2.244-7.05 5.062-9.683 7.922-13.66 14.839-25.574 32.047-29.264 38.96-3.232 6.026-4.964 12.526-5.245 19.032-19.624-.075-33.256-7.255-41.516-13.662-2.028-1.574-2.431-4.586-.678-6.464z"/></g></g></svg>