<svg id="Capa_1" enable-background="new 0 0 512 512" height="512" viewBox="0 0 512 512" width="512" xmlns="http://www.w3.org/2000/svg"><g><g><path d="m46.986 216.514c0-115.251 93.764-209.014 209.014-209.014s209.014 93.763 209.014 209.014z" fill="#e7886e"/><g><circle cx="429.223" cy="226.74" fill="#ffbd86" r="48.913"/></g><path d="m331.56 504.5h-151.12l-47.26-52.74c15.88-53.02 51.54-77.32 51.54-77.32h142.56s35.66 24.3 51.54 77.32z" fill="#5c586f"/><path d="m114.306 209.87c0-98.47 64.523-180.916 151.068-202.149-3.109-.138-6.232-.221-9.374-.221-115.25 0-209.013 93.763-209.013 209.014h67.429c-.066-2.207-.11-4.42-.11-6.644z" fill="#e27858"/><g fill="#fed2a4"><path d="m381.465 125.385c-15.654 8.482-34.532 8.482-50.186 0-15.654-8.481-34.532-8.481-50.186 0-15.654 8.481-34.532 8.481-50.186 0-15.654-8.481-34.532-8.481-50.186 0-15.654 8.481-34.532 8.481-50.186 0-5.698-3.087-11.825-5.036-18.067-5.876-18.742 27.677-29.691 61.062-29.691 97.004 0 95.668 77.554 173.223 173.223 173.223s173.223-77.554 173.223-173.223c0-35.943-10.949-69.327-29.691-97.004-6.242.84-12.369 2.789-18.067 5.876z"/><path d="m180.44 451.76v52.74h-54.74c0-20.01 2.93-37.55 7.48-52.74z"/><path d="m386.3 504.5h-54.74v-52.74h47.26c4.55 15.19 7.48 32.73 7.48 52.74z"/></g><path d="m196.947 379.404c-49.993-37.565-82.641-99.493-82.641-169.534 0-29.986 5.993-58.48 16.76-84.218-.175-.093-.356-.172-.53-.266-5.698-3.087-11.825-5.036-18.067-5.876-11.847 17.495-20.574 37.271-25.397 58.531-1.359-.134-2.781-.213-4.294-.213-27.014 0-48.913 21.899-48.913 48.913s21.899 48.913 48.913 48.913c3.781 0 7.055-.443 9.916-1.255 17.266 48.708 55.703 87.4 104.253 105.005z" fill="#ffbd86"/><path d="m177.262 293.381c-34.412 0-62.309 27.897-62.309 62.309 0 34.412 27.897 62.309 62.309 62.309h14.699v-124.618z" fill="#50e1cd"/><path d="m334.738 293.381c34.412 0 62.309 27.897 62.309 62.309 0 34.412-27.897 62.309-62.309 62.309h-14.698v-124.618z" fill="#50e1cd"/><circle cx="256" cy="447.316" fill="#ff889e" r="25.757"/><path d="m198.551 285.28c-16.969 0-30.724 13.756-30.724 30.724v79.371c0 16.968 13.756 30.724 30.724 30.724 7.561 0 13.691-6.13 13.691-13.691v-113.437c0-7.561-6.13-13.691-13.691-13.691z" fill="#fff"/><path d="m313.449 285.28c16.969 0 30.724 13.756 30.724 30.724v79.371c0 16.968-13.756 30.724-30.724 30.724-7.561 0-13.691-6.13-13.691-13.691v-113.437c0-7.561 6.13-13.691 13.691-13.691z" fill="#fff"/><g><g><g><ellipse cx="150.331" cy="244.789" fill="#ff9db0" rx="38.99" ry="31.05"/></g><g><ellipse cx="361.669" cy="244.789" fill="#ff9db0" rx="38.99" ry="31.05"/></g></g></g></g><g><path d="m173.054 191.461c-4.142 0-7.5 3.358-7.5 7.5v15.939c0 4.142 3.358 7.5 7.5 7.5s7.5-3.358 7.5-7.5v-15.939c0-4.142-3.358-7.5-7.5-7.5z"/><path d="m338.946 222.4c4.142 0 7.5-3.358 7.5-7.5v-15.939c0-4.142-3.358-7.5-7.5-7.5s-7.5 3.358-7.5 7.5v15.939c0 4.142 3.358 7.5 7.5 7.5z"/><path d="m228.478 219.353c6.943 7.966 16.974 12.535 27.522 12.535s20.58-4.569 27.522-12.535c2.721-3.123 2.396-7.86-.727-10.582-3.122-2.721-7.86-2.396-10.582.727-4.093 4.696-10.002 7.39-16.214 7.39s-12.121-2.694-16.214-7.39c-2.722-3.123-7.459-3.448-10.582-.727-3.121 2.722-3.447 7.459-.725 10.582z"/><path d="m256 414.059c-18.338 0-33.258 14.919-33.258 33.257s14.919 33.257 33.258 33.257c18.338 0 33.257-14.919 33.257-33.257s-14.919-33.257-33.257-33.257zm0 51.514c-10.067 0-18.258-8.19-18.258-18.257s8.19-18.257 18.258-18.257 18.257 8.19 18.257 18.257-8.19 18.257-18.257 18.257z"/><path d="m87.942 282.904c6.292 15.941 14.841 30.997 25.462 44.631-3.815 8.619-5.951 18.139-5.951 28.154 0 25.061 13.281 47.07 33.167 59.386-15.385 27.486-22.42 57.81-22.42 89.425 0 4.143 3.358 7.5 7.5 7.5h260.6c4.142 0 7.5-3.357 7.5-7.5 0-31.307-6.944-61.777-22.42-89.425 19.886-12.315 33.167-34.325 33.167-59.386 0-10.015-2.136-19.536-5.951-28.154 10.621-13.635 19.17-28.691 25.462-44.632 33.417 3.05 61.577-23.386 61.577-56.164 0-14.726-5.677-28.146-14.951-38.203-6.65-51.278-31.571-98.536-70.383-133.303-39.761-35.617-91.008-55.233-144.301-55.233-39.82 0-78.78 10.96-112.668 31.695-3.533 2.162-4.645 6.779-2.483 10.312s6.779 4.645 10.312 2.483c31.53-19.293 67.783-29.49 104.839-29.49 49.593 0 97.286 18.257 134.293 51.407 32.377 29.002 54.379 67.331 63.054 109.315-7.143-3.386-15.099-5.178-22.577-5.374-4.975-18.889-13.24-37.632-25.028-55.044-1.593-2.352-4.383-3.607-7.21-3.228-12.715 1.71-19.408 6.339-24.166 8.412-12.695 5.531-27.195 4.978-39.515-1.697-17.913-9.707-39.348-9.745-57.332 0-13.427 7.275-29.518 7.327-43.04 0-18.017-9.761-39.445-9.692-57.332 0-13.475 7.301-29.565 7.301-43.04 0-6.242-3.383-13.17-5.71-20.64-6.715-2.528-.339-5.024.635-6.665 2.533-5.706 6.601-19.177 31.448-25.574 55.739-7.594.199-15.526 2.031-22.585 5.377 9.161-44.524 33.141-84.577 68.669-114.145 3.184-2.649 3.617-7.378.967-10.563-2.649-3.183-7.379-3.616-10.563-.967-42.329 35.227-69.384 84.328-76.4 138.482-9.275 10.057-14.953 23.479-14.953 38.206.002 32.795 28.18 59.214 61.579 56.166zm112.036 10.049c2.736.649 4.764 3.11 4.764 6.019-.542 118.509 1.198 114.207-1.416 117.373-1.136 1.376-2.855 2.255-4.776 2.255-14.257-.372-23.224-11.541-23.224-23.224.001-13.832-.005-78.667.006-79.619.077-7.12 3.444-13.946 9.319-18.346 5.233-3.921 12.362-5.162 15.327-4.458zm-77.525 62.736c0-25.166 17.05-46.424 40.204-52.833-1.578 4.296-2.331 8.944-2.331 13.147.019 87.405-.8 83.996 2.331 92.519-23.102-6.375-40.204-27.632-40.204-52.833zm50.487 141.311h-39.594c.51-13.059 2.359-25.706 5.517-37.74h34.077zm166.12 0v-37.74h34.077c3.158 12.034 5.006 24.68 5.517 37.74zm18.789-75.43c4.105 7.23 7.635 14.819 10.555 22.69-22.809 0-14.038 0-36.844 0-4.142 0-7.5 3.358-7.5 7.5v45.24h-136.12v-45.24c0-4.142-3.358-7.5-7.5-7.5-22.807 0-14.034 0-36.844 0 2.919-7.871 6.449-15.459 10.555-22.69 6.446 2.272 13.591 3.655 20.826 3.892 11.073 8.688 22.652 7.985 23.574 8.137 10.224 0 18.781-7.278 20.76-16.926.738-3.596.308-5.009.431-23.083 23.031 4.676 48.168 4.956 72.516 0v18.817c0 11.685 9.506 21.191 21.191 21.191 8.683 0 16.978-2.961 23.574-8.137 7.324-.239 14.47-1.65 20.826-3.891zm-8.506-13.048c4.147-11.282 1.604-16.679 2.331-92.519 0-4.286-.768-8.895-2.331-13.147 23.154 6.409 40.204 27.667 40.204 52.833 0 25.255-17.143 46.457-40.204 52.833zm79.882-140.37c7.932-26.617 9.6-55.019 4.863-82.531 20.498 2.355 36.548 19.919 36.548 41.119-.001 22.835-18.578 41.412-41.411 41.412zm-144.559-136.173c13.476-7.301 29.565-7.301 43.041 0 17.951 9.726 39.383 9.725 57.332 0 3.406-1.845 7.395-3.341 10.956-4.193 35.626 56.08 34.652 129.938-5.622 185.732-12.866-16.997-32.707-26.94-53.348-27.601-4.25-3.336-9.102-5.658-14.048-6.936-18.135-4.657-30.719 6.084-30.719 19.989v24.149c0 4.142 3.358 7.5 7.5 7.5s7.5-3.358 7.5-7.5v-24.149c0-3.184 2.425-5.84 5.559-6.159 2.99-.309 8.549.683 13.166 3.656 6.811 4.378 10.691 11.842 10.691 19.536v79.371c0 12.76-10.393 23.224-23.224 23.224-3.414 0-6.191-2.777-6.191-6.191 0-6.993 0-53.154 0-59.637 0-4.142-3.358-7.5-7.5-7.5s-7.5 3.358-7.5 7.5v25.476c-24.559 5.482-49.7 5.094-72.516 0 0-4.818 0-74.782 0-79.276 0-11.685-9.506-21.191-21.191-21.191-8.294 0-16.675 2.723-23.574 8.138-20.721.663-40.53 10.667-53.348 27.6-39.536-54.77-41.976-128.522-5.622-185.731 7.099 1.696 10.378 4.056 14.36 5.902 17.24 7.992 37.12 7.392 53.927-1.71 13.241-7.174 29.338-7.427 43.041 0 17.949 9.728 39.381 9.728 57.33.001zm-206.753 53.642c-4.687 27.217-3.137 55.69 4.865 82.531-22.835 0-41.413-18.578-41.413-41.413 0-21.422 16.282-38.793 36.548-41.118z"/></g></g></svg>