<svg id="Capa_1" enable-background="new 0 0 512 512" height="512" viewBox="0 0 512 512" width="512" xmlns="http://www.w3.org/2000/svg"><g><g><path d="m223.131 504.5h65.738l23.686-31.738v-60.679l-23.686-64.637h-65.738s-23.686 60.783-23.686 64.637 0 60.679 0 60.679z" fill="#fbe29f"/><path d="m330.875 504.5h75.425c0-20.01-2.93-37.55-7.48-52.74-4.708-15.718-11.156-28.891-17.896-39.676h-68.369v60.679z" fill="#00d1b3"/><path d="m369.417 347.446s43.155 48.371-8.088 82.09c-25.036 16.474-30.454 44.116-30.454 74.087v.876h-42.006v-157.053z" fill="#50e1cd"/><path d="m344.744 467.3-25.928-41.064c-4.423-7.005-2.329-16.269 4.676-20.691s16.269-2.329 20.691 4.676l25.928 41.064c4.423 7.005 2.329 16.269-4.676 20.691-7.003 4.422-16.268 2.329-20.691-4.676z" fill="#fbe29f"/><path d="m181.125 504.5c-40.614 0-72.566 0-75.425 0 0-20.01 2.93-37.55 7.48-52.74 4.708-15.718 11.156-28.891 17.896-39.676h68.369v60.679z" fill="#00d1b3"/><path d="m142.583 347.446s-43.155 48.371 8.088 82.09c25.036 16.474 30.454 44.116 30.454 74.087v.876h42.006v-157.053z" fill="#50e1cd"/><path d="m167.256 467.3 25.928-41.064c4.423-7.005 2.329-16.269-4.676-20.691s-16.269-2.329-20.691 4.676l-25.928 41.064c-4.423 7.005-2.329 16.269 4.676 20.691 7.003 4.422 16.268 2.329 20.691-4.676z" fill="#fbe29f"/><path d="m402.97 68.05-146.97 32.345-146.97-32.345c37.78-37.42 89.73-60.55 146.97-60.55s109.19 23.13 146.97 60.55z" fill="#5c586f"/><path d="m465.01 216.51h-418.02c0-29.77 6.26-58.11 17.53-83.77l191.48-32.345 191.48 32.345c11.27 25.66 17.53 54 17.53 83.77z" fill="#5c586f"/><path d="m116.51 208.491c0-31.173 6.025-60.76 16.825-87.375l-68.815 11.624c-11.27 25.66-17.53 54-17.53 83.77h69.668c-.089-2.662-.148-5.333-.148-8.019z" fill="#4f4c5f"/><circle cx="429.223" cy="226.74" fill="#c7856a" r="48.913"/><path d="m104.351 132.737c-13.746 24.828-21.574 53.388-21.574 83.776 0 95.668 77.555 173.223 173.223 173.223s173.223-77.554 173.223-173.223c0-30.389-7.828-58.948-21.574-83.776l-151.649-32.342z" fill="#da9d81"/><path d="m247.21 7.698c-53.755 2.236-102.344 24.858-138.18 60.352l47.392 10.43c22.985-32.909 54.499-57.905 90.788-70.782z" fill="#4f4c5f"/><path d="m192.077 377.555c-45.854-38.361-75.567-99.804-75.567-169.064 0-28.875 5.168-56.389 14.513-81.442l-26.672 5.688c-7.765 14.024-13.638 29.24-17.281 45.303-1.359-.134-2.78-.213-4.292-.213-27.014 0-48.913 21.899-48.913 48.913s21.899 48.913 48.913 48.913c3.781 0 7.053-.443 9.914-1.255 16.684 47.069 53.139 84.784 99.385 103.157z" fill="#c7856a"/><path d="m447.48 132.74h-382.96c10.68-24.33 25.87-46.25 44.51-64.69h293.94c18.64 18.44 33.83 40.36 44.51 64.69z" fill="#d8d8d8"/><path d="m164.216 68.05h-55.186c-18.64 18.44-33.83 40.36-44.51 64.69h64.474c8.224-23.998 20.239-45.87 35.222-64.69z" fill="#cacac8"/><g><g><g><ellipse cx="150.331" cy="253.789" fill="#fff" rx="38.99" ry="31.05"/></g><g><ellipse cx="361.669" cy="253.789" fill="#fff" rx="38.99" ry="31.05"/></g></g></g></g><g><path d="m173.054 200.461c-4.142 0-7.5 3.358-7.5 7.5v15.939c0 4.142 3.358 7.5 7.5 7.5s7.5-3.358 7.5-7.5v-15.938c0-4.143-3.358-7.501-7.5-7.501z"/><path d="m338.946 200.461c-4.143 0-7.5 3.358-7.5 7.5v15.939c0 4.142 3.357 7.5 7.5 7.5 4.142 0 7.5-3.358 7.5-7.5v-15.938c0-4.143-3.359-7.501-7.5-7.501z"/><path d="m282.795 217.772c-3.122-2.722-7.86-2.396-10.582.726-4.093 4.697-10.003 7.39-16.214 7.39s-12.121-2.693-16.214-7.39c-2.722-3.123-7.459-3.447-10.582-.727-3.123 2.722-3.448 7.459-.727 10.582 6.942 7.966 16.974 12.535 27.522 12.535s20.58-4.569 27.522-12.535c2.724-3.122 2.398-7.86-.725-10.581z"/><path d="m179.273 21.956c-1.663-3.793-6.086-5.521-9.879-3.859-67.404 29.535-118.035 92.965-128.078 170.439-9.274 10.057-14.952 23.478-14.952 38.204 0 32.893 28.277 59.192 61.546 56.166 9.911 25.003 25.252 47.28 44.552 65.384-13.224 18.83-19.469 41.867-9.341 62.467-7.251 12.097-13.021 25.143-17.126 38.851-5.173 17.268-7.796 35.736-7.796 54.892 0 4.142 3.358 7.5 7.5 7.5h300.6c4.143 0 7.5-3.358 7.5-7.5 0-19.156-2.623-37.625-7.795-54.892-4.105-13.708-9.875-26.755-17.127-38.852 10.125-20.595 3.877-43.647-9.341-62.467 19.3-18.104 34.642-40.381 44.552-65.384 33.284 3.027 61.547-23.286 61.547-56.166 0-14.726-5.678-28.147-14.952-38.204-13.537-104.435-102.923-188.535-214.683-188.535-18.246 0-36.394 2.29-53.937 6.805-4.011 1.032-6.426 5.121-5.394 9.132 1.032 4.012 5.121 6.43 9.133 5.394 16.323-4.201 33.212-6.331 50.198-6.331 46.953 0 91.549 16.05 127.478 45.55h-254.944c14.231-11.666 29.936-21.29 46.88-28.714 3.794-1.663 5.522-6.086 3.859-9.88zm-98.04 148.392c-7.678.205-15.586 2.059-22.58 5.374 2.503-12.147 6.125-24.018 10.829-35.481h22.638c-4.518 9.691-8.161 19.764-10.887 30.107zm1.542 97.804c-22.833-.002-41.41-18.579-41.41-41.413 0-21.099 15.923-38.721 36.548-41.119-4.665 27.096-3.181 55.538 4.862 82.532zm132.856 124.542v104.306h-27.101c-.382-13.067-2.018-26.714-6.541-38.988 18.471-29.326 17.665-27.815 18.587-29.633 5.243-10.395 1.675-23.026-8.065-29.177-10.49-6.624-24.414-3.477-31.038 7.014l-9.523 15.083c-23.252-16.889-23.978-39.381-8.102-63.064 21.784 17.249 46.953 28.822 71.783 34.459zm-54.717 70.602c-1.069 1.694-2.734 2.87-4.688 3.312-4.193.943-6.955-1.97-6.855-1.913-3.694-3.555-1.81-8.161-1.816-8.05.438-1.161 26.749-42.92 27.906-43.967.955-.867 2.079-1.439 3.247-1.728 6.541-1.609 11.732 5.589 8.134 11.281-6.343 10.045-20.273 32.108-25.928 41.065zm-28.274-39.001c3.12 3.307 6.883 6.595 11.285 9.715l-8.379 13.27c-6.623 10.49-3.477 24.413 7.014 31.037 9.249 5.841 21.268 4.135 28.542-3.753 1.903 9.215 2.095 16.404 2.421 22.436h-60.178c.991-25.346 7.027-50.04 19.295-72.705zm97.991-28.839c16.013 2.264 33.355 2.451 50.737 0v101.544h-50.737zm105.909 17.222c1.714 1.563 29.684 46.832 27.91 43.98 1.788 4.761-1.769 7.941-1.824 8.041-1.24 1.191-2.847 1.921-4.562 2.065-5.701.479-7.715-4.93-8.067-5.192-26.358-41.772-24.891-39.357-25.213-40.004-1.446-2.856-.864-6.456 1.513-8.743 2.833-2.726 7.321-2.797 10.243-.147zm55.095 41.234c4.078 13.615 6.432 28.079 7.019 43.088h-60.178c.379-7.019.462-12.945 2.421-22.436 7.21 7.818 19.217 9.64 28.542 3.753 10.491-6.624 13.637-20.547 7.013-31.037l-8.378-13.27c4.097-2.904 7.933-6.163 11.285-9.715 5.064 9.355 9.181 19.282 12.276 29.617zm-23.485-95.677c15.738 23.476 15.322 46.051-8.102 63.064l-9.524-15.083c-7.964-12.613-25.877-14.126-35.818-2.956-14.529 16.276.454 31.177 15.303 54.752-4.537 12.371-6.157 25.868-6.541 38.988h-27.1v-104.306c25.371-5.788 50.263-17.419 71.782-34.459zm-162.334 16.227c-97.36-31.003-144.357-142.768-96.958-234.222h196.992c4.143 0 7.5-3.358 7.5-7.5 0-.001 0-.002 0-.002 0-4.142-3.357-7.5-7.5-7.5-.327 0-223.555.002-229.483.002 3.034-5.957 6.359-11.74 9.957-17.345h339.352c3.598 5.605 6.923 11.388 9.957 17.345-12.227 0-96.672-.002-99.783-.002-4.142 0-7.5 3.358-7.5 7.5v.002c0 4.142 3.358 7.5 7.5 7.5h67.292c9.389 18.117 15.138 37.488 17.393 56.463 14.389 119.739-100.157 214.18-214.719 177.759zm224.95-204.114c-2.726-10.342-6.369-20.416-10.887-30.108h22.638c4.704 11.464 8.325 23.334 10.829 35.481-7.101-3.365-15.022-5.171-22.58-5.373zm-1.541 97.804c8.001-26.851 9.549-55.326 4.862-82.531 20.407 2.373 36.549 19.8 36.549 41.119-.001 22.833-18.578 41.41-41.411 41.412zm-29.37-192.602c5.416 5.519 10.484 11.306 15.194 17.345h-318.099c4.711-6.039 9.779-11.826 15.195-17.345z"/></g></g></svg>