<svg id="Capa_1" enable-background="new 0 0 512 512" height="512" viewBox="0 0 512 512" width="512" xmlns="http://www.w3.org/2000/svg"><g><g><path d="m52.803 216.514c0-115.251 93.763-209.014 209.013-209.014s209.014 93.763 209.014 209.014z" fill="#ffb5ec"/><path d="m470.83 216.514c0 154.785-104.955 217.69-104.955 217.69h-208.117s-104.955-62.905-104.955-217.69z" fill="#ffb5ec"/><path d="m157.92 82.292-27.878-27.878c-47.098 38.352-77.239 96.766-77.239 162.1h72.327c-.132-3.363-.209-6.743-.209-10.144 0-45.974 12.171-88.671 32.999-124.078z" fill="#ffa2e7"/><path d="m317.651 428.085c-103.486 0-187.911-93.831-192.521-211.572h-72.327c0 154.785 104.955 217.69 104.955 217.69z" fill="#ffa2e7"/><circle cx="435.039" cy="226.74" fill="#ffcabd" r="48.913"/><path d="m333.094 374.439h-142.555s-59.023 40.211-59.023 130.061h46.765l83.535-19.268 83.535 19.268h46.765c.001-89.85-59.022-130.061-59.022-130.061z" fill="#ffd3bc"/><path d="m333.714 113.786c-9.508-10.221-25.433-10.82-35.828-1.504-87.947 78.816-204.901 65.746-204.992 65.736-2.81 12.382-4.3 25.264-4.3 38.496 0 95.668 77.554 173.223 173.223 173.223s173.223-77.554 173.223-173.223c0-13.232-1.49-26.115-4.3-38.497-49.886-20.381-80.388-46.346-97.026-64.231z" fill="#ffd8d2"/><path d="m273.173 441.183c-7.205 4.542-11.357 8.467-11.357 8.467s-4.152-3.925-11.357-8.467c-41.09-25.904-91.867 16.496-73.065 61.283.283.675.579 1.353.887 2.035h167.07c.308-.681.603-1.36.887-2.035 18.802-44.788-31.975-87.187-73.065-61.283z" fill="#ff889e"/><path d="m44.039 76.851c-3.394-8.596-5.068-17.714-5.006-26.826.11-16.131 13.058-29.079 29.189-29.189 9.112-.062 18.23 1.612 26.826 5.006l29.874 23.001-32.122 57.873z" fill="#f9496e"/><path d="m90.255 72.055c-3.434-20.536.782-37.604 6.437-50.127 5.905-13.101 23.12-16.207 33.275-6.041l4.465 4.454c23.8 23.8 31.495 57.585 23.12 87.856z" fill="#ff748f"/><path d="m90.255 72.055c-5.123-.861-10.03-1.247-14.711-1.247-14.065 0-26.021 3.445-35.417 7.684-13.101 5.905-16.207 23.12-6.041 33.286l4.454 4.454c23.789 23.789 57.573 31.495 87.845 23.12.076-.021.152-.042.227-.063 14.931-4.171 26.699-15.935 30.876-30.865.021-.076.042-.152.063-.228-24.966-22.62-47.712-32.877-67.296-36.141z" fill="#ff889e"/><path d="m193.112 375.565c-41.708-40.67-68.191-101.37-68.191-169.195 0-9.441.517-18.743 1.512-27.874-20.532.971-33.51-.475-33.54-.479-.002.008-.003.015-.005.023-1.359-.135-2.782-.213-4.295-.213-27.014 0-48.913 21.899-48.913 48.913s21.899 48.913 48.913 48.913c3.781 0 7.054-.443 9.914-1.255 16.108 45.432 50.635 82.147 94.605 101.167z" fill="#ffcabd"/><g><g><g><ellipse cx="157.758" cy="245.892" fill="#ff9db0" rx="38.396" ry="30.576"/></g><g><ellipse cx="365.875" cy="245.892" fill="#ff9db0" rx="38.396" ry="30.576"/></g></g></g><path d="m212.866 467.539c0-11.829 1.954-23.227 5.564-33.93-30.442 3.474-55.039 35.499-41.035 68.857.284.675.579 1.353.887 2.035h41.224c-4.297-11.573-6.64-24.009-6.64-36.962z" fill="#ff748f"/></g><g><path d="m180.13 193.263c-4.142 0-7.5 3.358-7.5 7.5v15.696c0 4.142 3.358 7.5 7.5 7.5s7.5-3.358 7.5-7.5v-15.696c0-4.142-3.357-7.5-7.5-7.5z"/><path d="m343.494 193.263c-4.142 0-7.5 3.358-7.5 7.5v15.696c0 4.142 3.358 7.5 7.5 7.5s7.5-3.358 7.5-7.5v-15.696c0-4.142-3.358-7.5-7.5-7.5z"/><path d="m288.274 210.337c-3.123-2.721-7.86-2.396-10.582.727-4.009 4.6-9.797 7.238-15.881 7.238s-11.872-2.638-15.88-7.238c-2.721-3.123-7.459-3.448-10.582-.727s-3.448 7.458-.727 10.582c6.857 7.87 16.768 12.384 27.189 12.384s20.331-4.514 27.189-12.384c2.723-3.123 2.398-7.861-.726-10.582z"/><path d="m396.987 47.515c-3.233-2.591-7.952-2.07-10.543 1.161-2.591 3.232-2.071 7.953 1.161 10.543 37.163 29.788 62.165 70.683 71.568 116.509-8.169-3.874-17.785-5.849-27.18-5.312-34.321-14.213-67.896-34.971-92.793-61.739-12.137-13.046-32.917-13.996-46.325-1.981-36.643 32.895-83.214 52.616-131.208 60.54-59.644 9.846-72.137-3.395-97.204 8.486 2.11-10.225 5.014-20.263 8.688-30.023 23.395 7.262 48.739 4.618 63.161-2.043 13.705-6.329 24.272-18.474 28.39-33.195l.01-.037c.001-.002.001-.004.002-.006 6.221-22.247 4.232-46.43-5.404-67.345 30.995-18.386 66.288-28.073 102.502-28.073 35.748 0 70.886 9.526 101.614 27.549 3.573 2.097 8.168.898 10.264-2.675s.898-8.168-2.675-10.264c-33.028-19.371-70.789-29.61-109.203-29.61-38.797 0-76.611 10.347-109.847 29.991-5.244-7.895-9.981-12.774-16.696-19.405-13.059-13.074-35.083-10.191-44.239 5.963-7.401-2.175-15.05-3.252-22.864-3.213-20.066.137-36.501 16.573-36.638 36.638-.053 7.794 1.031 15.455 3.212 22.863-16.135 9.151-19.046 31.159-5.961 44.244 2.744 2.405 12.102 14.03 30.453 23.023-5.897 15.593-9.958 31.845-12.111 48.439-20.724 22.481-19.766 57.178 2.071 78.519 5.331 33.744 16.166 65.21 32.255 93.554 2.045 3.603 6.624 4.865 10.225 2.82 3.603-2.045 4.865-6.623 2.82-10.225-12.963-22.837-22.331-47.847-27.938-74.543.685.109 11.635 5.658 27.138 4.253 15.728 39.74 45.457 72.967 83.139 93.119-11.47 10.575-22.391 24.427-30.937 39.935-9.916-8.402-22.538-20.797-35.175-37.831-2.469-3.327-7.166-4.022-10.492-1.555-3.327 2.468-4.022 7.166-1.555 10.492 14.696 19.807 29.437 33.775 40.432 42.753-8.44 19.33-15.093 44.218-15.093 74.664 0 4.142 3.358 7.5 7.5 7.5h260.601c4.142 0 7.5-3.358 7.5-7.5 0-30.447-6.653-55.335-15.093-74.664 25.519-20.854 75.631-72.273 89.923-162.782 21.872-21.384 22.746-56.08 2.053-78.518-7.202-55.629-35.359-105.631-79.508-141.019zm-272.321-26.319c2.183 2.635 16.358 13.533 24.07 35.815 4.13 11.982 5.448 24.774 3.948 37.183-16.418-13.143-35.367-23.919-55.725-28.469-1.468-14.115.739-27.81 6.566-40.716 3.748-8.313 14.659-10.301 21.141-3.813zm-55.955 7.138c5.697 0 11.307.744 16.752 2.218-3.237 10.683-4.486 21.753-3.751 32.961-11.426-.757-22.598.62-32.968 3.75-1.512-5.585-2.255-11.341-2.215-17.187.079-11.738 9.184-21.742 22.182-21.742zm-32.949 66.516c1.325-7.242 6.659-9.362 11.915-11.366 36.591-13.965 71.622 1.708 101.156 27.022-5.174 12.493-14.995 19.576-28.291 22.571-27.869 6.278-56.816-2.262-76.702-22.147-2.031-2.7-9.763-6.87-8.078-16.08zm217.517 287.169c-98.981-5.044-172.891-96.469-154.365-196.023 16.647.916 35.126-.006 51.298-1.973 56.683-6.841 110.316-28.223 152.674-66.156 7.321-6.564 18.688-6.113 25.332 1.027 26.144 28.099 60.784 49.691 95.999 64.537 20.163 99.288-52.967 193.445-153.873 198.587-5.841.301-11.616.281-17.065.001zm-192.96-185.516c1.776-1.299 9.371-9.249 23.408-10.883-4.713 27.24-3.113 55.782 4.862 82.532-37.451 0-55.61-46.07-28.27-71.649zm196.341 258.597c2.259 2.137 5.522 2.588 8.222 1.38 2.268-1.015 4.013-3.737 12.287-8.952 34.223-21.576 76.225 12.492 63.131 49.472h-156.976c-1.717-4.854-2.512-9.47-2.512-14.312.21-32.773 41.53-59.123 75.848-27.588zm99.299 41.9c12.449-48.705-42.338-90.183-86.79-62.162-2.925 1.844-5.4 3.607-7.356 5.095-49.545-37.687-106.71 7.791-94.147 57.066h-28.512c1.894-49.754 24.156-90.712 52.439-113.914 43.77 18.492 94.9 19.242 140.443-.001 11.402 9.357 49.775 45.779 52.432 113.915h-28.509zm101.114-218.332c-15.51 73.981-56.146 117.647-79.344 137.307-8.559-15.531-19.481-29.373-30.936-39.934 37.682-20.152 67.412-53.379 83.139-93.119 9.794.886 18.624-.811 27.141-4.254zm-17.05-10.826c-2.788.338-4.838.307-4.986.311 7.87-26.408 9.622-54.678 4.86-82.532 47.356 5.479 49.629 76.227.126 82.221z"/></g></g></svg>