<svg id="Capa_1" enable-background="new 0 0 512 512" height="512" viewBox="0 0 512 512" width="512" xmlns="http://www.w3.org/2000/svg"><g><g><g fill="#d8d8d8"><path d="m179.837 378.26 17.829 61.208-17.829 65.032h-54.136c0-73.964 39.994-114.285 54.136-126.24z"/><path d="m386.299 504.5h-54.136l-17.829-65.032 17.829-61.208c14.142 11.955 54.136 52.276 54.136 126.24z"/><path d="m296.505 374.436 17.829 65.032-17.829 65.032h-81.01l-17.829-65.032 17.829-65.032z"/></g><path d="m46.987 216.513h418.026c0-115.25-93.763-209.013-209.013-209.013h-142.407c-13.898 0-23.572 14.014-18.415 26.92 3.559 8.908 9.783 18.716 20.592 27.237-42.222 38.269-68.783 93.518-68.783 154.856z" fill="#e7886e"/><path d="m215.495 374.436v130.064h-35.658v-126.24c3.037-2.567 4.888-3.824 4.888-3.824z" fill="#5c586f"/><path d="m332.163 378.26v126.24h-35.658v-130.064h30.77s1.851 1.258 4.888 3.824z" fill="#5c586f"/><g><circle cx="429.222" cy="226.739" fill="#ffcabd" r="48.912"/></g><path d="m46.987 216.513h66.795c.562-76.744 62.224-173.203 135.209-209.013h-135.398c-13.898 0-23.572 14.014-18.415 26.92 3.56 8.908 9.783 18.716 20.592 27.237-42.222 38.269-68.783 93.518-68.783 154.856z" fill="#e27858"/><path d="m403.181 125.141c-12.465-20.031-34.313-32.292-57.906-32.334-19.864-.035-42.085 3.115-62.705 13.161-16.813 8.191-36.326 8.191-53.139 0-20.621-10.047-42.843-13.196-62.707-13.161-23.31.042-45.076 11.925-57.482 31.659-16.764 26.666-26.463 58.222-26.463 92.046 0 95.69 76.867 172.862 172.556 173.221 95.973.361 173.887-77.331 173.887-173.221 0-33.539-9.536-64.848-26.041-91.371z" fill="#ffd8d2"/><path d="m332.163 378.26c-3.037-2.567-4.888-3.824-4.888-3.824h-30.77v69.093c7.729 3.407 15.129 5.093 22.307 5.094h.01c4.667 0 9.142-.748 13.341-2.159z" fill="#4f4c5f"/><path d="m271.611 393.218s68.543 76.938 68.543-13.959-68.543-13.959-68.543-13.959z" fill="#ff748f"/><path d="m113.766 217.572c0-39.644 16.456-84.671 42.436-123.931-19.204 3.016-36.445 14.099-46.961 30.825-10.21 16.241-17.793 34.298-22.167 53.574-1.36-.135-2.783-.213-4.296-.213-27.014 0-48.912 21.899-48.912 48.912s21.899 48.912 48.912 48.912c3.756 0 7.01-.438 9.857-1.239 23.654 67.1 87.333 115.038 162.699 115.321 1.066.004 2.126-.013 3.188-.028-82.041-13.213-144.756-85.244-144.756-172.133z" fill="#ffcabd"/><path d="m151.712 481.573c0-35.046 13.184-66.071 33.43-85.099l-5.306-18.214c-14.143 11.954-54.136 52.275-54.136 126.24h27.944c-1.261-7.38-1.932-15.05-1.932-22.927z" fill="#cacac8"/><path d="m179.837 378.26v68.203c4.201 1.412 8.677 2.16 13.346 2.16 7.18 0 14.582-1.685 22.312-5.093v-69.095h-30.77c0 .001-1.851 1.259-4.888 3.825z" fill="#4f4c5f"/><path d="m240.389 393.218s-68.543 76.938-68.543-13.959 68.543-13.959 68.543-13.959z" fill="#ff748f"/><path d="m261.207 350.481h-10.414c-15.894 0-28.778 12.884-28.778 28.778 0 15.894 12.884 28.778 28.778 28.778h10.414c15.894 0 28.778-12.884 28.778-28.778 0-15.894-12.884-28.778-28.778-28.778z" fill="#ff889e"/><circle cx="169.72" cy="212.779" fill="#ffe7e5" r="57.944"/><circle cx="342.28" cy="212.779" fill="#ffe7e5" r="57.944"/><path d="m256 295.036c24.746 30.932 61.207 18.114 80.436 7.955 4.664-2.464 4.996-8.941.675-11.965-11.023-7.713-17.441-24.602-26.546-33.088-14.146-13.184-38.516-21.193-54.565-6.642-16.049-14.551-40.419-6.542-54.565 6.642-9.105 8.486-15.523 25.375-26.546 33.088-4.322 3.024-3.989 9.501.675 11.965 19.229 10.159 55.69 22.977 80.436-7.955z" fill="#e7886e"/></g><g><path d="m169.72 196.807c-4.142 0-7.5 3.358-7.5 7.5v16.944c0 4.142 3.358 7.5 7.5 7.5s7.5-3.358 7.5-7.5v-16.944c0-4.142-3.358-7.5-7.5-7.5z"/><path d="m342.281 196.807c-4.142 0-7.5 3.358-7.5 7.5v16.944c0 4.142 3.358 7.5 7.5 7.5s7.5-3.358 7.5-7.5v-16.944c0-4.142-3.358-7.5-7.5-7.5z"/><path d="m256 434.922c-3.567 0-6.458 2.892-6.458 6.458 0 3.567 2.892 6.458 6.458 6.458s6.458-2.892 6.458-6.458c.001-3.567-2.891-6.458-6.458-6.458z"/><path d="m256 466.295c-3.567 0-6.458 2.892-6.458 6.458s2.892 6.458 6.458 6.458 6.458-2.891 6.458-6.458-2.891-6.458-6.458-6.458z"/><path d="m470.677 188.529c-8.001-61.694-42.258-116.949-94.316-151.897-3.437-2.308-8.099-1.393-10.407 2.047-2.309 3.439-1.393 8.098 2.047 10.407 44.28 29.727 74.74 75.217 85.349 126.636-6.947-3.293-14.854-5.171-22.604-5.376-4.514-17.147-11.634-33.799-21.196-49.168-14-22.496-38.066-35.825-64.261-35.871-37.251 0-58.814 10.685-58.714 10.656-2.505 1.026-4.941 2.119-7.289 3.263-13.228 6.445-28.191 7.11-41.789 2.032-7.887-2.945-29.068-16.013-70.785-15.951-26.146.046-50.004 13.193-63.819 35.167-9.612 15.29-16.992 32.173-21.653 49.873-7.75.208-15.643 2.084-22.582 5.373 8.596-41.579 30.28-79.619 62.15-108.505 3.424-3.105 3.261-8.566-.394-11.447-8.358-6.589-14.505-14.708-18.271-24.13-3.164-7.919 2.767-16.638 11.45-16.638h142.407c30.028 0 58.938 6.479 85.925 19.258 3.742 1.773 8.215.175 9.988-3.569s.175-8.215-3.569-9.988c-29.01-13.736-60.078-20.701-92.344-20.701h-142.407c-19.203 0-32.496 19.395-25.38 37.203 3.71 9.284 9.22 17.541 16.428 24.635-34.762 34.022-57.088 78.629-63.324 126.698-9.274 10.057-14.951 23.477-14.951 38.203 0 31.106 25.307 56.412 56.413 56.412 1.704 0 3.408-.09 5.105-.243 14.606 37.094 41.273 68.878 76.598 89.582-.145 3.605-.164 6.824-.101 10.124-8.926 9.408-20.687 24.285-30.066 44.848-1.719 3.769-.058 8.217 3.711 9.937 3.766 1.717 8.217.058 9.936-3.711 5.669-12.428 12.28-22.562 18.449-30.464 1.125 5.478 2.993 11.26 5.926 15.97v77.806h-38.99c.498-12.693 2.264-25.026 5.27-36.757 1.028-4.012-1.392-8.099-5.405-9.126-4.011-1.026-8.098 1.392-9.126 5.405-3.905 15.245-5.885 31.387-5.885 47.979 0 4.142 3.358 7.5 7.5 7.5h260.598c4.142 0 7.5-3.358 7.5-7.5 0-62.954-27.937-102.667-46.18-121.887.063-3.28.046-6.578-.106-10.265 35.277-20.751 61.918-52.481 76.539-89.447 1.719.157 3.445.249 5.17.249 31.106 0 56.412-25.306 56.412-56.412 0-14.729-5.68-28.152-14.957-38.21zm-387.953 79.622c-22.81-.029-41.358-18.596-41.358-41.412 0-11.917 5.06-22.675 13.145-30.238.003-.003.007-.007.01-.01 6.232-5.825 14.294-9.806 23.397-10.872-4.733 27.442-3.082 55.9 4.806 82.532zm138.934 89.489c-9.456 12.719-9.573 30.356-.003 43.232-7.738 6.598-24.727 19.437-33.333 13.895-11.819-7.967-12.823-66.231 1.491-71.785 8.784-3.41 24.679 8.538 31.845 14.658zm29.135.34h10.414.004c11.634 0 21.261 9.46 21.274 21.257v.021s0 .014 0 .021c-.013 11.869-9.727 21.257-21.274 21.257-.001 0-.002 0-.004 0h-10.414c-11.697 0-21.278-9.525-21.278-21.278.001-11.974 9.821-21.278 21.278-21.278zm71.434-14.979c10.619 4.198 10.825 32.577 10.23 43.943-.429 8.054-2.069 23.295-8.776 27.821-8.601 5.546-25.575-7.287-33.336-13.892 9.385-12.627 9.637-30.265-.003-43.232 7.194-6.141 23.068-18.111 31.885-14.64zm-134.89 87.454c6.851 1.635 14.133.025 20.658-2.775v69.32h-20.658zm35.658-11.538c3.429-2.478 6.77-5.18 10.028-8.035 5.458 3.07 11.672 4.654 17.77 4.654h10.414c6.135 0 12.336-1.599 17.77-4.654 1.718 1.444 4.87 4.328 10.028 8.052v78.066h-66.01zm81.01 8.763c8.543 3.666 15.336 4.046 20.658 2.774v66.546h-20.658zm41.585-24.465c14.691 18.803 31.35 49.603 33.064 93.785h-38.992v-77.806c2.948-4.733 4.805-10.515 5.928-15.979zm.105-47.34c-2.769-14.008-8.493-22.772-17.292-26.57-16.161-6.968-36.197 6.693-49.429 18.327-5.571-3.132-11.79-4.652-17.766-4.652h-10.414c-5.978 0-12.21 1.526-17.767 4.652-13.211-11.623-33.199-25.328-49.429-18.327-8.829 3.811-14.563 12.619-17.321 26.709-76.82-49.371-98.535-151.446-50.686-227.557 10.877-17.302 29.8-28.151 51.468-28.151 22.313 0 42.193 4.173 59.086 12.404 18.937 9.226 40.699 9.262 59.709 0 18.329-8.93 38.777-12.446 59.407-12.403 21.083.037 40.354 10.802 51.552 28.796 47.364 76.112 25.426 177.435-51.118 226.772zm83.529-87.724c8.005-26.859 9.563-55.331 4.846-82.533 20.548 2.394 36.565 19.926 36.565 41.121-.001 22.834-18.578 41.412-41.411 41.412z"/><path d="m342.281 147.334c-30.899 0-56.846 21.531-63.673 50.374-7.078-3.089-14.734-4.699-22.607-4.699-7.876 0-15.53 1.611-22.607 4.699-6.827-28.842-32.775-50.374-63.673-50.374-36.086 0-65.444 29.358-65.444 65.444 0 38.999 34.129 69.679 73.356 64.968-2.224 2.875-4.549 5.391-7.042 7.135-8.937 6.253-8.133 19.668 1.471 24.741 28.579 15.097 60.493 18.962 83.94-3.483 23.332 22.336 55.153 18.689 83.94 3.483 9.606-5.074 10.406-18.49 1.471-24.741-2.493-1.744-4.818-4.259-7.042-7.135 39.202 4.708 73.356-25.952 73.356-64.968-.002-36.085-29.36-65.444-65.446-65.444zm-65.428 66.273c.096 7.877 1.561 15.514 4.326 22.678-8.758-.857-17.518.712-25.178 5.601-7.66-4.889-16.421-6.458-25.179-5.6 2.765-7.164 4.229-14.801 4.326-22.679 6.317-3.668 13.451-5.598 20.853-5.598 7.399 0 14.534 1.929 20.852 5.598zm-157.578-.828c0-27.815 22.629-50.444 50.444-50.444s50.444 22.629 50.444 50.444c0 10.812-3.352 21.057-9.709 29.733-8.49 4.41-14.663 9.671-19.581 16.06-6.653 3.088-13.761 4.651-21.155 4.651-27.813 0-50.443-22.629-50.443-50.444zm142.582 77.572c-2.999-3.749-8.711-3.752-11.713 0-18.044 22.555-44.916 19.596-70.352 6.389 12.222-8.94 18.627-25.738 26.756-33.314 6.486-6.044 11.602-7.687 13.369-9.034 12.401-5.554 24.293-3.66 31.045 2.461 2.858 2.592 7.217 2.592 10.075 0 8.872-8.044 21.286-6.997 32.323-1.667 11.681 5.642 15.809 11.955 21.895 21.27 4.852 7.426 9.864 15.098 16.953 20.283-25.431 13.204-52.304 16.17-70.351-6.388zm59.269-31.779c-5.258-6.888-12.014-12.122-19.581-16.06-6.357-8.677-9.709-18.922-9.709-29.733 0-27.815 22.629-50.444 50.444-50.444s50.444 22.629 50.444 50.444c.001 36.952-38.491 61.157-71.598 45.793z"/></g></g></svg>