<svg id="Capa_1" enable-background="new 0 0 512 512" height="512" viewBox="0 0 512 512" width="512" xmlns="http://www.w3.org/2000/svg"><g><g><path d="m256 364.35 19.627 72.648-19.627 67.502h-140.41c0-96.82 63.6-140.15 63.6-140.15z" fill="#9ae0eb"/><path d="m396.41 504.5h-140.41v-140.15h76.81s63.6 43.33 63.6 140.15z" fill="#64d1e1"/><path d="m223.83 10.27c-87.76 15.24-154.5 91.77-154.5 183.9 0 103.09 83.58 186.66 186.67 186.66s186.67-83.57 186.67-186.66c0-92.13-66.74-168.66-154.5-183.9l-32.17 14.799z" fill="#ff889e"/><path d="m142.022 175.443c0-69.077 32.299-129.845 81.183-165.058-87.45 15.495-153.875 91.875-153.875 183.785 0 89.988 63.688 165.097 148.445 182.735-50.316-41.294-75.753-123.998-75.753-201.462z" fill="#ff748f"/><path d="m115.31 210.82c8.26 70.29 68.21 125.01 140.69 125.01 78.11 0 141.67-63.55 141.67-141.66l-55.396-28.289h-182.298z" fill="#fed2a4"/><path d="m308.88 80.49-35.88 32.18c-9.67 8.67-24.33 8.67-34 0l-35.88-32.18c-6.47-5.81-2.36-16.54 6.33-16.54h14.38v-53.68c10.45-1.82 21.2-2.77 32.17-2.77s21.72.95 32.17 2.77v53.68h14.38c8.69 0 12.8 10.73 6.33 16.54z" fill="#d8d8d8"/><path d="m142.13 183.836-26.82 26.984c4.396 37.406 23.432 70.402 51.203 93.088-15.257-36.358-23.409-78.717-24.383-120.072z" fill="#ffbd86"/><path d="m397.67 194.17c0-.17-.01-.34-.01-.5-.09-25.89-21.34-46.73-47.23-46.73h-188.86c-25.89 0-47.14 20.84-47.23 46.73 0 .16-.01.33-.01.5 0 5.63.33 11.19.98 16.65 14.25-3.57 39.36-12.42 59.94-33.11 0 0 38.791 36.081 109.703 36.104 6.566.002 10.289-7.444 6.416-12.746-4.443-6.082-8.469-14.137-8.469-23.358 0 0 53.29 22.36 114.77 16.46z" fill="#5c586f"/><path d="m302.814 437.912c-4.842-34.383-17.794-59.865-17.924-60.118-3.783-7.358-.899-16.402 6.453-20.198 7.351-3.797 16.382-.934 20.191 6.411.626 1.208 15.396 30.023 20.986 69.722 1.155 8.203-4.559 15.79-12.762 16.945-8.218 1.155-15.79-4.571-16.944-12.762z" fill="#fff"/><path d="m209.186 437.912c4.842-34.383 17.794-59.865 17.924-60.118 3.783-7.358.899-16.402-6.453-20.198-7.351-3.797-16.382-.934-20.191 6.411-.626 1.208-15.396 30.023-20.986 69.722-1.155 8.203 4.559 15.79 12.762 16.945 8.218 1.155 15.79-4.571 16.944-12.762z" fill="#fff"/><path d="m142.022 175.443c0-8.436.484-16.748 1.419-24.905-16.987 7.037-29.033 23.653-29.101 43.132 0 .16-.01.33-.01.5 0 5.63.33 11.19.98 16.65 7.127-1.786 16.97-4.892 27.605-10.14-.593-8.434-.893-16.866-.893-25.237z" fill="#4f4c5f"/></g><g><path d="m174.053 237.192v14.306c0 4.142 3.358 7.5 7.5 7.5s7.5-3.359 7.5-7.5v-14.306c0-4.142-3.358-7.5-7.5-7.5-4.143 0-7.5 3.358-7.5 7.5z"/><path d="m322.947 237.192v14.306c0 4.142 3.358 7.5 7.5 7.5s7.5-3.359 7.5-7.5v-14.306c0-4.142-3.358-7.5-7.5-7.5s-7.5 3.358-7.5 7.5z"/><path d="m269.974 246.144c-7.402 8.493-20.554 8.483-27.947 0-2.723-3.123-7.459-3.448-10.582-.727-3.123 2.722-3.448 7.459-.727 10.582 13.381 15.353 37.198 15.337 50.564 0 2.721-3.123 2.396-7.86-.727-10.582-3.122-2.721-7.86-2.396-10.581.727z"/><path d="m405.174 194.161c0-30.861-25.041-54.731-54.742-54.731h-188.865c-29.706 0-54.741 23.887-54.741 54.731 0 82.262 66.636 149.164 149.174 149.164 35.547 0 70.004-12.769 97.025-35.956 3.143-2.697 3.505-7.432.808-10.575-2.698-3.144-7.433-3.505-10.576-.808-24.302 20.854-55.291 32.339-87.256 32.339-65.88 0-121.682-47.735-132.347-112.043 20.631-6.298 38.261-16.328 51.967-28.6 51.626 38.998 122.235 33.624 109.336 33.624 8.843 0 15.589-7.253 15.482-15.687-.089-6.969-4.222-9.43-7.352-16.297 30.743 9.924 65.477 14.778 96.847 12.954-1.579 26.656-10.943 51.825-27.32 73.231-2.517 3.29-1.891 7.997 1.399 10.514 3.289 2.517 7.997 1.891 10.514-1.399 20.049-26.206 30.647-57.487 30.647-90.461zm-194.017-3.201c-21.682-9.744-30.217-18.64-32.228-19.787-2.962-1.672-6.635-1.138-8.998 1.238-13.289 13.362-30.284 22.939-47.926 28.667-.171-3.356-.168-5.412-.168-7.391.075-21.647 17.898-39.257 39.731-39.257h188.865c19.632 0 36.023 14.24 39.182 32.831-34.725 2.039-78.304-5.805-103.812-16.477-4.881-2.048-10.402 1.501-10.402 6.916 0 16.181 9.836 27.221 10.029 28.004.051.209-.064.592-.473.601-26.216-.007-51.32-5.241-73.8-15.345z"/><path d="m450.175 194.161c0-46.009-16.381-90.629-46.125-125.643-29.401-34.608-70.099-57.924-114.596-65.651-.001 0-.003 0-.004 0-21.95-3.822-44.949-3.822-66.9 0-.001 0-.003 0-.004 0-40.321 7.002-76.822 26.275-105.557 55.735-2.892 2.965-2.833 7.714.132 10.606s7.714 2.833 10.606-.132c24.414-25.03 54.896-42.09 88.601-49.68v37.042c-.107 0-7.014 0-6.881 0-15.552 0-22.92 19.223-11.338 29.624 3.292 2.953 32.378 29.039 35.882 32.182 12.558 11.258 31.496 11.225 44.016-.001 41.476-37.199-5.868 5.263 35.884-32.184 5.308-4.765 7.039-12.121 4.512-18.714-4.33-11.303-15.753-10.874-15.853-10.907h-6.88v-37.036c37.602 8.515 71.76 29.18 96.946 58.828 27.444 32.305 42.557 73.476 42.557 115.931 0 71.131-41.697 134.65-105.463 163.35-4.103 1.854-7.473 3.192-10.812 4.447-11.62-23.768-44.495-13.659-43.137 10.274-13.226 1.445-26.344 1.458-39.532-.001.84-15.231-12.339-21.508-12.133-21.303-10.389-5.366-24.435-2.348-30.998 11.03-70.085-26.216-116.274-92.999-116.274-167.796 0-37.047 11.215-72.603 32.433-102.823 2.38-3.39 1.562-8.068-1.829-10.448-3.39-2.38-8.067-1.562-10.448 1.829-23 32.759-35.157 71.295-35.157 111.442 0 73.026 40.558 138.651 103.584 171.804-6.427 5.861-15.31 15.074-24.185 27.876-15.117 21.805-33.137 58.704-33.137 110.658 0 4.142 3.358 7.5 7.5 7.5h280.827c4.142 0 7.5-3.358 7.5-7.5 0-51.954-18.02-88.853-33.137-110.658-8.875-12.803-17.758-22.015-24.185-27.876 63.027-33.154 103.585-98.779 103.585-171.805zm-147.624-122.723c.901 0 1.522.428 1.846 1.272.753 1.968 1.245.446-29.982 28.605-5.79 4.86-9.474 10.357-18.415 10.357-4.235 0-8.54-1.501-11.993-4.597l-35.877-32.177c-1.367-1.229-.522-3.46 1.319-3.46h14.38c4.142 0 7.5-3.358 7.5-7.5v-47.261c16.289-2.245 33.053-2.245 49.341 0v47.261c0 4.142 3.358 7.5 7.5 7.5zm7.692 365.426c-3.144-22.303-10.616-45.895-18.234-61.601-.6-1.238-1.322-2.415-1.276-4.494.172-7.761 10.605-10.206 14.197-3.213.978 1.911 2.291 4.791 3.151 6.766 14.783 33.887 17.379 64.345 17.073 61.987-.194 2.97-2.153 5.568-4.955 6.57-4.495 1.608-9.299-1.344-9.956-6.015zm-108.486 0c-.577 4.094-4.378 6.958-8.473 6.381-4.077-.578-6.954-4.358-6.382-8.462 4.074-29.23 17.183-63.377 20.869-68.35 5.015-6.725 17.189-1.43 12.222 8.827 0 0-.001.001-.001.002-7.703 15.874-15.137 39.594-18.235 61.602zm-48.598-33.909c10.852-15.797 21.83-25.697 27.076-29.967 1.137.481 4.505 1.859 6.864 2.754-9.995 25.41-14.978 52.677-15.254 59.167-.675 15.994 15.367 27.744 30.488 21.928 20.207-7.729 9.291-24.461 28.916-70.084 4.964.632 12.356 1.275 17.249 1.428v108.819h-77.822v-31.822c0-4.142-3.358-7.5-7.5-7.5s-7.5 3.358-7.5 7.5v31.822h-32.46c1.242-35.3 11.299-66.906 29.943-94.045zm205.681 0c18.645 27.139 28.701 58.745 29.942 94.044h-32.46v-31.822c0-4.142-3.358-7.5-7.5-7.5s-7.5 3.358-7.5 7.5v31.823h-77.822v-108.818c4.249-.133 11.181-.656 17.249-1.428 6.619 15.386 11.882 33.31 14.64 52.205 1.58 11.218 11.268 19.361 22.271 19.361 13.674 0 24.198-12.082 22.29-25.639-2.56-18.187-7.639-38.096-15.05-56.938 2.356-.894 5.749-2.283 6.864-2.754 5.254 4.275 16.228 14.174 27.076 29.966z"/></g></g></svg>