<svg id="Capa_1" enable-background="new 0 0 512 512" height="512" viewBox="0 0 512 512" width="512" xmlns="http://www.w3.org/2000/svg"><g><g><path d="m184.905 451.141 20.312 26.679-20.312 26.68h-67.414c0-20.978 3.112-38.615 8-53.359l35.863-20.06z" fill="#ffdcce"/><path d="m155.133 478.288c0-14.037 2.725-29.893 7.684-45.961l-1.463-1.246-35.863 20.06c-4.888 14.744-8 32.38-8 53.359h40.905c-2.127-8.398-3.263-17.175-3.263-26.212z" fill="#ffcabd"/><path d="m184.905 381.832 25.728 34.655-25.728 34.655h-59.414c17.856-53.898 59.414-69.31 59.414-69.31z" fill="#ffb5ec"/><path d="m327.095 451.141-20.312 26.679 20.312 26.679h67.414c0-20.978-3.112-38.615-8-53.359l-35.863-20.06z" fill="#ffdcce"/><path d="m327.095 381.832-25.728 34.655 25.728 34.655h59.414c-17.856-53.898-59.414-69.31-59.414-69.31z" fill="#ffb5ec"/><path d="m184.905 381.832h142.19v122.668h-142.19z" fill="#9ae0eb"/><circle cx="256" cy="392.985" fill="#ffb5ec" r="40.244"/><path d="m348.586 95.847c1.656-6.67 2.566-13.797 2.566-21.213 0-37.077-22.417-67.134-50.07-67.134-19.836 0-36.976 15.468-45.082 37.897-8.106-22.429-25.246-37.897-45.082-37.897-27.653 0-50.07 30.057-50.07 67.134 0 7.416.91 14.543 2.566 21.213-51.251 29.172-85.469 81.832-85.469 141.953 0 91.767 79.718 156.183 178.055 156.183s178.055-64.416 178.055-156.183c0-60.121-34.218-112.781-85.469-141.953z" fill="#b08bd7"/><path d="m144.744 177.335c23.831-27.063 64.801-40.849 111.256-40.849s87.425 13.786 111.256 40.849v43.041h-222.512z" fill="#e7886e"/><path d="m234.847 137.478c-37.585 3.6-69.964 16.986-90.103 39.856v43.041h12.971c9.076-37.155 38.254-67.815 77.132-82.897z" fill="#e27858"/><path d="m389.162 237.796c0 39.024-19.821 64.172-36.45 78.407-24.779 21.208-59.135 32.889-96.712 32.889s-71.933-11.681-96.712-32.889c-16.629-14.235-36.45-39.383-36.45-78.407 0-24.56 8.06-44.75 21.906-60.461 7.182 14.684 22.275 24.799 39.732 24.799 14.704 0 27.722-7.192 35.762-18.235 8.03 11.043 21.058 18.235 35.762 18.235s27.732-7.192 35.762-18.235c8.04 11.043 21.058 18.235 35.762 18.235 17.457 0 32.55-10.115 39.732-24.799 13.846 15.711 21.906 35.901 21.906 60.461z" fill="#ffdcce"/><path d="m154.744 245.014c0-16.692 3.994-32.569 11.178-46.953-9.221-4.269-16.723-11.617-21.178-20.727-13.846 15.711-21.906 35.902-21.906 60.461 0 39.024 19.821 64.172 36.45 78.407 16.237 13.897 36.587 23.703 59.26 28.812-38.298-20.748-63.804-57.773-63.804-100z" fill="#ffcabd"/><path d="m185.46 382.579-.555-.748s-41.558 15.412-59.414 69.31h32.53c4.526-22.711 14.17-47.2 27.439-68.562z" fill="#ffa2e7"/></g><g><path d="m177.401 245.323v13.662c0 4.143 3.358 7.5 7.5 7.5s7.5-3.357 7.5-7.5v-13.662c0-4.142-3.358-7.5-7.5-7.5s-7.5 3.358-7.5 7.5z"/><path d="m319.598 245.323v13.662c0 4.143 3.358 7.5 7.5 7.5s7.5-3.357 7.5-7.5v-13.662c0-4.142-3.358-7.5-7.5-7.5s-7.5 3.358-7.5 7.5z"/><path d="m279.672 252.925c-3.123-2.721-7.86-2.396-10.582.727-3.305 3.792-8.076 5.967-13.09 5.967-5.015 0-9.786-2.175-13.091-5.967-2.721-3.123-7.459-3.448-10.582-.727s-3.448 7.459-.727 10.582c6.154 7.062 15.048 11.112 24.399 11.112s18.244-4.05 24.398-11.112c2.723-3.123 2.398-7.861-.725-10.582z"/><path d="m212.716 69.507v-12.751c0-4.142-3.358-7.5-7.5-7.5s-7.5 3.358-7.5 7.5v12.751c0 4.142 3.358 7.5 7.5 7.5s7.5-3.358 7.5-7.5z"/><path d="m314.283 69.507v-12.751c0-4.142-3.358-7.5-7.5-7.5-4.143 0-7.5 3.358-7.5 7.5v12.751c0 4.142 3.357 7.5 7.5 7.5 4.142 0 7.5-3.358 7.5-7.5z"/><path d="m256 104.985c9.352 0 18.244-4.05 24.398-11.112 2.722-3.123 2.396-7.86-.727-10.582s-7.86-2.396-10.582.727c-3.305 3.792-8.076 5.967-13.09 5.967-5.015 0-9.786-2.175-13.091-5.967-2.721-3.123-7.459-3.448-10.582-.727s-3.448 7.458-.727 10.582c6.156 7.062 15.049 11.112 24.401 11.112z"/><path d="m115.337 237.796c0 73.473 66.5 118.796 140.663 118.796 33.733 0 64.747-8.874 89.687-25.662 3.436-2.313 4.347-6.974 2.033-10.41-2.313-3.436-6.973-4.347-10.41-2.034-22.455 15.115-50.572 23.105-81.31 23.105-65.272 0-125.663-38.554-125.663-103.796 0-18.033 4.636-33.955 13.8-47.467 10.073 12.592 24.966 19.305 40.339 19.305 13.378 0 26.206-5.258 35.76-14.389 20.041 19.161 51.463 19.18 71.529 0 22.057 21.077 57.339 18.604 76.098-4.917 9.164 13.512 13.8 29.434 13.8 47.467 0 23.917-7.915 44.977-23.525 62.596-2.747 3.1-2.46 7.84.64 10.587 3.101 2.747 7.84 2.46 10.588-.64 18.113-20.445 27.298-44.852 27.298-72.543 0-25.503-8-47.513-23.776-65.417 0 0 0 0-.001-.001s-.001-.001-.001-.001 0 0 0-.001c-2.103-1.38-31.391-43.39-116.883-43.39-74.291.001-140.666 35.414-140.666 108.812zm242.653-59.374c-14.085 21.128-45.161 21.675-60.165 1.062-3.078-4.228-9.238-3.973-12.129.003-14.55 20.009-44.629 20.299-59.393 0-2.992-4.116-9.137-4.114-12.129-.004-15.073 20.701-46.132 19.989-60.166-1.062 21.998-21.947 58.779-34.437 101.991-34.437 43.212.001 79.994 12.491 101.991 34.438z"/><path d="m167.388 382.783c-14.813 9.756-36.969 29.634-49.017 66-5.561 16.774-8.381 35.521-8.381 55.717 0 4.142 3.358 7.5 7.5 7.5h277.019c4.143 0 7.5-3.358 7.5-7.5 0-20.196-2.819-38.942-8.38-55.717-12.047-36.366-34.202-56.244-49.016-66 58.753-26.93 96.942-80.201 96.942-144.983 0-60.671-33.33-114.504-84.496-145.666 1.059-5.725 1.594-11.589 1.594-17.5 0-19.537-5.737-37.988-16.153-51.955-10.909-14.625-25.617-22.679-41.418-22.679-17.726 0-34.31 10.66-45.082 28.142-10.772-17.482-27.357-28.142-45.082-28.142-15.801 0-30.51 8.054-41.417 22.679-10.417 13.967-16.153 32.418-16.153 51.955 0 5.91.535 11.775 1.594 17.5-23.153 14.107-42.9 33.093-57.333 55.175-2.266 3.468-1.292 8.115 2.175 10.381s8.115 1.292 10.381-2.174c14.115-21.596 33.811-39.976 56.959-53.151 2.92-1.662 4.378-5.064 3.569-8.325-1.556-6.268-2.345-12.797-2.345-19.406 0-32.882 19.097-59.634 42.57-59.634 15.868 0 30.795 12.932 38.028 32.946 1.074 2.971 3.895 4.951 7.054 4.951s5.979-1.98 7.053-4.951c7.234-20.014 22.161-32.946 38.029-32.946 23.473 0 42.57 26.752 42.57 59.634 0 6.609-.789 13.138-2.346 19.405-.81 3.261.648 6.664 3.569 8.326 48.392 27.545 81.679 77.505 81.679 135.435 0 62.857-39.969 114.431-101.692 136.886-.026.008-.053.017-.079.025-.08.026-.162.042-.241.071-44.488 16.102-95.323 15.115-137.085 0-.078-.028-.158-.044-.237-.07-.028-.009-.057-.018-.085-.027-61.712-22.451-101.69-74.019-101.69-136.885 0-19.744 3.868-39.032 11.496-57.329 1.594-3.823-.213-8.215-4.037-9.809s-8.214.213-9.808 4.036c-8.395 20.135-12.651 41.366-12.651 63.101 0 64.874 38.275 118.094 96.943 144.984zm10.016 11.353v49.505h-41.081c11.74-27.648 29.825-42.49 41.081-49.505zm-46.383 64.505h46.384v38.359h-52.272c.523-13.703 2.496-26.558 5.888-38.359zm61.383-66.396c5.251 1.594 10.731 3.009 15.987 4.161 1.762 24.734 22.434 44.323 47.608 44.323s45.846-19.589 47.608-44.323c5.273-1.156 10.735-2.566 15.987-4.161v104.755h-127.19c0-15.166 0-89.844 0-104.755zm95.746 6.964c-2.916 15.089-16.223 26.519-32.15 26.519-15.928 0-29.235-11.43-32.15-26.519 21.049 3.022 43.235 3.023 64.3 0zm46.445 97.791v-38.359h46.384c3.392 11.801 5.365 24.656 5.889 38.359zm41.081-53.359h-41.081v-49.505c11.256 7.015 29.342 21.857 41.081 49.505z"/></g></g></svg>