<svg id="Capa_1" enable-background="new 0 0 512 512" height="512" viewBox="0 0 512 512" width="512" xmlns="http://www.w3.org/2000/svg"><g><g><path d="m325.667 377.377h-139.334s-57.69 39.303-57.69 127.123h50.343l77.014-16.789 77.014 16.789h50.343c0-87.82-57.69-127.123-57.69-127.123z" fill="#fbe29f"/><path d="m302.469 446.348h-92.938c-16.87 0-30.545 13.676-30.545 30.545v27.607h154.029v-27.607c0-16.869-13.676-30.545-30.546-30.545z" fill="#f0ac99"/><path d="m187.204 387.297v54.054c0 11.543 9.358 20.901 20.901 20.901 11.543 0 20.901-9.358 20.901-20.901v-54.054z" fill="#e7886e"/><g fill="#e27858"><path d="m324.797 387.297v54.054c0 11.543-9.358 20.901-20.901 20.901-11.543 0-20.901-9.358-20.901-20.901v-54.054z"/><circle cx="398.334" cy="92.51" r="85.01"/><circle cx="113.666" cy="92.51" r="85.01"/></g><circle cx="398.334" cy="92.51" fill="#f7cec4" r="43.438"/><circle cx="113.666" cy="92.51" fill="#f7cec4" r="43.438"/><ellipse cx="256" cy="223.018" fill="#e7886e" rx="192.485" ry="192.485" transform="matrix(.707 -.707 .707 .707 -82.717 246.34)"/><path d="m130.643 208.988c0-62.425 17.568-121.423 53.596-164.57-70.696 28.508-120.724 97.817-120.724 178.6 0 106.136 86.349 192.485 192.485 192.485 5.844 0 11.623-.277 17.336-.79-77.206-24.963-142.693-104.05-142.693-205.725z" fill="#e27858"/><g fill="#fff"><ellipse cx="159.452" cy="133.633" rx="28.369" ry="35.624" transform="matrix(.002 -1 1 .002 25.47 292.792)"/><ellipse cx="352.548" cy="134.055" rx="28.37" ry="35.625" transform="matrix(.002 -1 1 .002 217.722 486.31)"/></g><path d="m256 359.526c-73.745 0-133.741-31.855-133.741-105.6 0-73.744 59.996-77.46 133.741-77.46s133.741 3.716 133.741 77.46c0 73.745-59.996 105.6-133.741 105.6z" fill="#ffdcce"/><path d="m148.473 262.42c0-32.879 16.926-62.261 44.563-82.943-42.084 5.95-70.776 23.455-70.776 74.449 0 54.663 32.968 86.303 80.061 99.021-33.085-21.328-53.848-54.111-53.848-90.527z" fill="#ffcabd"/></g><g><path d="m135.375 206.144c-3.587-2.071-8.174-.843-10.246 2.744-6.978 12.085-10.37 26.817-10.37 45.038 0 78.099 63.189 113.101 141.241 113.101 78.128 0 141.24-35.064 141.24-113.101 0-36.97-14.333-60.947-43.818-73.301-25.696-10.767-60.746-11.659-97.422-11.659-42.975 0-80.68 1.228-106.876 16.313-3.59 2.067-4.824 6.653-2.757 10.242 2.067 3.59 6.653 4.823 10.242 2.757 22.983-13.235 58.61-14.313 99.391-14.313 35.087 0 68.498.803 91.626 10.493 23.939 10.03 34.614 28.371 34.614 59.467 0 69.276-56.691 98.101-126.24 98.101-37.089 0-68.274-8.217-90.185-23.763-23.925-16.975-36.056-41.985-36.056-74.338 0-15.517 2.735-27.795 8.36-37.537 2.072-3.586.843-8.173-2.744-10.244z"/><path d="m172.273 271.933c4.142 0 7.5-3.357 7.5-7.5v-16.088c0-4.142-3.358-7.5-7.5-7.5s-7.5 3.358-7.5 7.5v16.088c0 4.142 3.358 7.5 7.5 7.5z"/><path d="m347.228 264.433v-16.088c0-4.142-3.358-7.5-7.5-7.5s-7.5 3.358-7.5 7.5v16.088c0 4.143 3.358 7.5 7.5 7.5s7.5-3.358 7.5-7.5z"/><path d="m256 281.51c10.627 0 20.734-4.603 27.729-12.628 2.721-3.123 2.396-7.86-.727-10.582s-7.86-2.396-10.582.727c-4.145 4.756-10.129 7.484-16.42 7.484s-12.275-2.728-16.42-7.484c-2.722-3.123-7.459-3.447-10.582-.727-3.123 2.722-3.448 7.459-.727 10.582 6.995 8.025 17.102 12.628 27.729 12.628z"/><path d="m188.057 112.502v-14.477c0-4.142-3.358-7.5-7.5-7.5s-7.5 3.358-7.5 7.5v14.477c0 4.143 3.358 7.5 7.5 7.5s7.5-3.357 7.5-7.5z"/><path d="m338.736 112.502v-14.477c0-4.142-3.358-7.5-7.5-7.5s-7.5 3.358-7.5 7.5v14.477c0 4.143 3.358 7.5 7.5 7.5s7.5-3.357 7.5-7.5z"/><path d="m256.116 138.939c4.5 4.409 10.656 7.135 17.439 7.135 13.751 0 24.939-11.188 24.939-24.94 0-4.142-3.358-7.5-7.5-7.5s-7.5 3.358-7.5 7.5c0 5.481-4.459 9.94-9.939 9.94s-9.939-4.459-9.939-9.94c0-4.142-3.358-7.5-7.5-7.5s-7.5 3.358-7.5 7.5c0 5.481-4.459 9.94-9.94 9.94-5.48 0-9.939-4.459-9.939-9.94 0-4.142-3.358-7.5-7.5-7.5s-7.5 3.358-7.5 7.5c0 13.752 11.188 24.94 24.939 24.94 6.783 0 12.939-2.726 17.44-7.135z"/><path d="m398.334 0c-28.544 0-55.345 13.166-72.838 35.494-44.694-16.617-94.267-16.628-138.991 0-17.493-22.328-44.294-35.494-72.839-35.494-51.01 0-92.51 41.5-92.51 92.51 0 31.315 15.954 60.479 42.006 77.489-24.17 87.805 14.11 180.895 93.466 226.523-17.373 22.22-35.485 57.49-35.485 107.978 0 4.142 3.358 7.5 7.5 7.5h254.714c4.142 0 7.5-3.358 7.5-7.5 0-50.478-18.105-85.744-35.474-107.965 14.469-8.33 27.99-18.525 40.237-30.481 2.964-2.894 3.021-7.643.127-10.606-2.893-2.964-7.642-3.021-10.605-.127-57.576 56.213-143.642 68.262-213.494 32.303-.004-.002-.009-.003-.013-.005-59.694-30.721-100.619-92.97-100.619-164.6-.001-130.845 133.115-220.644 254.284-171.505 112.012 45.426 151.598 184.919 78.906 282.084-2.481 3.317-1.804 8.017 1.513 10.498 3.316 2.481 8.016 1.804 10.498-1.513 38.187-51.044 48.487-114.948 32.622-172.584 26.052-17.01 42.005-46.173 42.005-77.489 0-51.01-41.5-92.51-92.51-92.51zm-228.19 403.621c2.099 1.004 6.166 2.851 9.56 4.261v33.469c0 3.466.626 6.788 1.768 9.861-6.402 6.965-9.986 16.039-9.986 25.681v20.107h-35.196c1.726-43.919 18.415-74.377 33.854-93.379zm105.35 18.442v16.785h-38.988v-16.792c13.023 1.252 26.499 1.234 38.988.007zm17.072 26.414c-2.931-4.687-1.941-6.965-2.072-28.431 9.397-1.632 18.055-3.83 26.803-6.627v27.933c0 2.737-.828 5.283-2.242 7.406-5.404 8.112-17.329 7.933-22.489-.281zm-73.605.701c-7.759 10.722-24.257 4.86-24.257-7.827v-27.937c8.771 2.84 17.712 5.052 26.803 6.631-.135 21.938.942 24.261-2.546 29.133zm-32.475 47.822v-20.106c0-4.79 1.46-9.352 4.128-13.167 13.937 10.95 34.895 6.554 42.988-9.878h44.798c8.001 16.259 28.889 20.947 42.988 9.878 2.667 3.815 4.127 8.376 4.127 13.167v20.106zm189.225 0h-35.196v-20.106c0-9.643-3.583-18.717-9.986-25.682 1.142-3.073 1.768-6.395 1.768-9.861v-33.446c3.228-1.336 6.419-2.761 9.574-4.268 15.434 19.004 32.114 49.457 33.84 93.363zm-288.849-380.573c-20.614-23.126-4.057-59.854 26.804-59.854 7.852 0 15.378 2.553 21.539 7.175-19.697 14.976-35.754 32.841-48.343 52.679zm-50.706-23.917c0-42.739 34.771-77.51 77.51-77.51 22.514 0 43.738 9.777 58.379 26.535-8.373 3.889-16.437 8.332-24.136 13.297-32.403-29.485-85.181-6.679-85.181 37.678 0 14.25 6.019 27.779 16.352 37.358-4.275 8.086-8.017 16.496-11.167 25.188-19.787-14.503-31.757-37.72-31.757-62.546zm340.639-28.762c23.457-17.598 57.477-.918 57.477 28.763 0 8.891-3.319 17.392-9.134 23.917-12.166-19.384-28.69-37.739-48.343-52.68zm67.293 91.307c-3.15-8.692-6.892-17.101-11.167-25.188 10.332-9.579 16.351-23.107 16.351-37.357 0-44.329-52.764-67.176-85.18-37.678-7.699-4.965-15.764-9.409-24.136-13.297 14.641-16.758 35.865-26.535 58.378-26.535 42.739 0 77.51 34.771 77.51 77.51 0 24.827-11.97 48.043-31.756 62.545z"/></g></g></svg>