<svg id="Capa_1" enable-background="new 0 0 512 512" height="512" viewBox="0 0 512 512" width="512" xmlns="http://www.w3.org/2000/svg"><g><g><path d="m372.061 504.5c0-68.457-51.51-98.613-51.51-98.613h-129.102s-51.51 30.157-51.51 98.613h39.444l76.617-24.653 76.617 24.653z" fill="#bc9bdd"/><path d="m300.293 455.193h-88.586c-17.852 0-32.324 14.472-32.324 32.324v16.983h153.235v-16.982c-.001-17.853-14.473-32.325-32.325-32.325z" fill="#50e1cd"/><path d="m191.449 405.887v41.993c0 10.752 8.716 19.468 19.468 19.468s19.468-8.716 19.468-19.468v-41.993z" fill="#fbe29f"/><path d="m320.55 405.887v41.993c0 10.752-8.716 19.468-19.468 19.468s-19.468-8.716-19.468-19.468v-41.993z" fill="#fbe29f"/><circle cx="403.024" cy="294.926" fill="#ffcabd" r="41.626"/><circle cx="256" cy="273.362" fill="#ffdcce" r="147.383"/><g><g><g><ellipse cx="345.035" cy="313.803" fill="#ff9db0" rx="32.852" ry="26.162"/></g></g></g><path d="m87.328 138.935c-8.557-62.792 16.235-131.435 168.672-131.435s177.229 68.643 168.672 131.435z" fill="#ff889e"/><path d="m134.113 134.488c0-47.857 18.068-90.74 46.6-119.702-85.531 19.269-100.274 73.6-93.386 124.148h46.841c-.034-1.477-.055-2.959-.055-4.446z" fill="#ff748f"/><path d="m424.672 138.935c-2.764 20.299-9.016 39.982-15.571 56.54h-306.202c-6.555-16.557-12.807-36.241-15.571-56.54 15.21-19.058 33.594-35.508 54.449-48.559 34.239-21.442 73.742-32.774 114.223-32.774s79.984 11.331 114.223 32.773c20.855 13.051 39.24 29.501 54.449 48.56z" fill="#5c586f"/><ellipse cx="256" cy="83.558" fill="#fbe29f" rx="37.792" ry="43.879"/><path d="m278.613 138.935c32.511 0 62.337 12.916 85.64 34.426-26.926-29.133-65.456-47.381-108.253-47.381-74.6 0-136.244 55.428-146.021 127.346-.334-.008-.661-.025-1.002-.025-22.989 0-41.626 18.636-41.626 41.626 0 22.989 18.637 41.626 41.626 41.626 4.962 0 9.159-.872 12.695-2.465 13.974 30.855 38.268 56.04 68.477 71.153-28.514-27.814-46.546-68.841-46.546-114.601 0-83.785 60.446-151.705 135.01-151.705z" fill="#ffcabd"/><g><path d="m134.113 134.488c0-14.662 1.703-28.854 4.875-42.326-19.706 12.755-37.134 28.57-51.661 46.772 2.764 20.299 9.016 39.982 15.571 56.54h41.578c-6.672-18.764-10.363-39.367-10.363-60.986z" fill="#4f4c5f"/></g><path d="m409.099 195.473c-28.446-55.692-86.389-93.915-153.099-93.915s-124.653 38.222-153.099 93.914c-6.684 13.086 3.008 28.606 17.703 28.606h270.792c14.695.001 24.387-15.519 17.703-28.605z" fill="#bc9bdd"/><ellipse cx="166.965" cy="313.803" fill="#ff9db0" rx="32.852" ry="26.162"/><g><path d="m134.903 151.648c-12.837 12.775-23.688 27.546-32.002 43.824-6.684 13.086 3.008 28.606 17.703 28.606h37.159c-12.312-21.019-20.41-45.724-22.86-72.43z" fill="#b08bd7"/></g></g><g><path d="m186.111 267.689c-4.142 0-7.5 3.358-7.5 7.5v13.43c0 4.143 3.358 7.5 7.5 7.5s7.5-3.357 7.5-7.5v-13.43c0-4.142-3.358-7.5-7.5-7.5z"/><path d="m325.889 267.689c-4.142 0-7.5 3.358-7.5 7.5v13.43c0 4.143 3.358 7.5 7.5 7.5s7.5-3.357 7.5-7.5v-13.43c0-4.142-3.358-7.5-7.5-7.5z"/><path d="m279.353 282.565c-3.123-2.721-7.86-2.396-10.582.727-3.224 3.7-7.879 5.822-12.771 5.822s-9.547-2.122-12.772-5.822c-2.721-3.123-7.46-3.448-10.582-.727-3.123 2.722-3.448 7.459-.726 10.582 6.074 6.969 14.851 10.966 24.08 10.966s18.006-3.998 24.08-10.966c2.721-3.123 2.396-7.86-.727-10.582z"/><path d="m59.851 294.926c0 27.088 22.038 49.126 49.126 49.126 2.971 0 5.921-.277 8.828-.808 13.422 26.436 34.21 48.522 59.644 63.552-15.993 13.193-45.009 44.462-45.009 97.704 0 4.142 3.358 7.5 7.5 7.5h232.122c4.142 0 7.5-3.358 7.5-7.5 0-53.242-29.016-84.511-45.009-97.704 25.434-15.03 46.222-37.116 59.644-63.552 30.315 5.536 57.954-17.883 57.954-48.318 0-25.243-19.139-46.09-43.667-48.816-1.064-5.982-2.481-11.895-4.248-17.719 11.566-6.149 17.565-20.085 12.96-33.038 19.138-49.693 27.377-107.018-7.74-147.246-27.867-31.921-79.497-48.107-153.456-48.107s-125.589 16.186-153.455 48.107c-35.118 40.228-26.877 97.562-7.739 147.244-4.605 12.948 1.388 26.888 12.959 33.04-1.767 5.824-3.184 11.737-4.248 17.719-24.527 2.725-43.666 23.573-43.666 48.816zm51.55 34.04c-19.811 1.393-36.551-14.34-36.551-34.041 0-16.272 11.449-29.921 26.714-33.316-1.714 22.291 1.397 45.472 9.837 67.357zm162.713 98.229v20.498h-36.229v-20.498c12.024 1.39 24.044 1.409 36.229 0zm15.887 25.187c-1.534-3.762-.608-4.737-.887-27.671 13.462-2.932 22.862-6.954 23.937-7.322v30.49c0 12.611-17.978 16.994-23.05 4.503zm-91.051-4.503v-30.489c.791.271 10.629 4.424 23.936 7.322v23.167c0 4.743-2.858 9.119-7.279 11.009-7.739 3.398-16.657-2.455-16.657-11.009zm-27.796-13.172c4.449-5.627 8.925-10.156 12.796-13.635.454 24.489-1.133 28.74 1.741 36.33-8.646 7.496-13.808 18.492-13.808 30.117v9.481h-24.225c1.379-23.371 9.266-44.297 23.496-62.293zm15.729 62.293c.646-5.092-2.811-17.524 7.833-27.563 12.259 9.264 30.164 6.364 38.737-6.744h45.094c8.667 13.246 26.592 15.912 38.737 6.744 10.629 10.025 7.191 22.504 7.833 27.563zm177.459 0h-24.225c-.681-4.235 3.803-24.332-13.808-39.599 2.864-7.56 1.279-11.411 1.741-36.331 3.867 3.477 8.338 8 12.783 13.619 14.239 18.001 22.13 38.932 23.509 62.311zm-108.342-83.755c-94.241 0-161.645-91.782-133.529-181.666h163.047c4.142 0 7.5-3.358 7.5-7.5s-3.358-7.5-7.5-7.5c-169.83-.039-165.367.063-166.782-.154-7.896-1.192-13.076-9.866-9.156-17.541 34.095-66.755 109.725-102.626 183.434-85.583 46.936 10.891 87.484 42.663 109.405 85.583 4.232 8.285-2.145 17.695-11.023 17.695h-75.879c-4.142 0-7.5 3.358-7.5 7.5s3.358 7.5 7.5 7.5h74.012c28.288 90.43-39.811 181.666-133.529 181.666zm0-366.066c19.668 0 36.232 23.928 28.342 49.143-18.655-2.993-37.922-3.009-56.684 0-7.92-25.31 8.656-49.143 28.342-49.143zm160.775 93.938c-1.79 11.532-4.861 23.797-9.169 36.633-25.304-39.844-64.292-67.468-108.492-78.434 2.699-9.524 2.884-19.879.513-29.583 44.869 9.581 86.283 33.952 117.148 71.384zm-6.339 120.493c15.265 3.395 26.714 17.044 26.714 33.316 0 19.692-16.731 35.434-36.551 34.041 8.295-21.509 11.566-44.871 9.837-67.357zm-296.591-203.639c24.891-28.513 72.719-42.971 142.155-42.971s117.264 14.458 142.155 42.971c14.104 16.157 20.962 37.14 20.475 62.542-33.519-35.659-77.787-59.422-126.14-67.408-8.236-12.737-21.507-20.926-36.49-20.926-13.876 0-27.622 7.21-36.491 20.927-22.581 3.812-43.832 10.76-63.886 20.88-6.921 3.493-4.591 13.961 3.161 14.194 4.299.128 19.925-11.252 53.59-18.451-2.431 9.873-2.11 20.335.512 29.588-43.8 10.866-83.05 38.305-108.492 78.435-4.303-12.827-7.372-25.08-9.163-36.602 21.346-25.946 41.943-38.313 43.684-40.13 5.613-5.859-.888-15.274-8.357-12.087-2.926 1.247-21.503 14.893-37.187 31.587-.489-25.405 6.369-46.391 20.474-62.549z"/></g></g></svg>