<svg id="Capa_1" enable-background="new 0 0 512 512" height="512" viewBox="0 0 512 512" width="512" xmlns="http://www.w3.org/2000/svg"><g><g><path d="m325.558 385.185-22.402 48.842-47.156 20.716-49.767-20.716-19.791-48.842z" fill="#ffbe9c"/><path d="m227.874 482.869v14.332l-21.641 7.299h-85.958c0-42.725 18.24-74.62 34.59-94.64l51.368 24.167z" fill="#50e1cd"/><path d="m391.724 504.5h-129.22l40.652-70.473 53.979-24.157c16.36 20.02 34.589 51.915 34.589 94.63z" fill="#00d1b3"/><path d="m256 454.743-28.126 28.125-73.009-73.009c13.287-16.261 25.331-24.674 25.331-24.674h6.246z" fill="#d8d8d8"/><path d="m206.661 461.656 21.213 21.213 28.126-28.126-21.213-21.213-28.121 28.121z" fill="#cacac8"/><path d="m357.134 409.87-94.63 94.63h-56.271l21.641-21.631 28.126-28.126 69.558-69.558h6.246s12.043 8.414 25.33 24.685z" fill="#d8d8d8"/><path d="m74.946 164.932c-11.519 25.162-17.949 53.12-17.949 82.555h398.007c0-29.434-6.431-57.393-17.949-82.555l-181.055-26.332z" fill="#5c586f"/><path d="m124.328 235.144c0-27.807 4.437-54.477 12.561-79.221l-61.943 9.009c-11.519 25.162-17.95 53.121-17.95 82.555h67.627c-.194-4.088-.295-8.202-.295-12.343z" fill="#4f4c5f"/><circle cx="418.206" cy="257.432" fill="#ffbe9c" r="43.74"/><path d="m432.103 112.275-176.103 26.325-176.103-26.325s9.378-22.884 32.949-47.26l143.154-16.532 143.154 16.531c23.57 24.376 32.949 47.261 32.949 47.261z" fill="#ff889e"/><path d="m201.842 54.737-88.995 10.277c-23.571 24.376-32.949 47.26-32.949 47.26l70.599 10.554c13.065-26.123 30.545-49.222 51.345-68.091z" fill="#ff748f"/><path d="m399.154 65.014h-286.308c26.873-27.787 72.204-57.514 143.154-57.514s116.281 29.727 143.154 57.514z" fill="#fccb88"/><path d="m116.358 164.932c-14.329 24.185-22.564 52.406-22.564 82.555 0 89.584 72.622 162.206 162.206 162.206s162.206-72.622 162.206-162.206c0-30.149-8.235-58.37-22.564-82.555l-139.642-26.332z" fill="#ffd3bc"/><path d="m486.746 143.921c-7.194-19.046-25.427-31.649-45.785-31.649h-369.921c-20.359 0-38.592 12.603-45.785 31.649-3.836 10.155 3.668 21.011 14.524 21.011h432.443c10.855 0 18.359-10.856 14.524-21.011z" fill="#fccb88"/><path d="m177.209 389.291c-32.922-41.187-52.881-95.112-52.881-154.147 0-25.772 3.813-50.567 10.838-73.758l-18.807 3.546c-8.848 14.934-15.363 31.41-19.06 48.925-1.111-.101-2.268-.165-3.504-.165-24.157 0-43.74 19.583-43.74 43.74s19.583 43.74 43.74 43.74c3.372 0 6.25-.394 8.732-1.117 13.068 38.152 39.944 69.893 74.682 89.236z" fill="#ffbe9c"/><path d="m156.115 112.272h-85.075c-20.359 0-38.592 12.603-45.785 31.649-3.836 10.156 3.668 21.011 14.524 21.011h94.336c5.352-18.671 12.788-36.329 22-52.66z" fill="#fbc072"/><path d="m282.619 8.977c-8.446-.953-17.306-1.477-26.619-1.477-70.95 0-116.281 29.727-143.154 57.514h78.402c25.375-26.284 56.627-45.827 91.371-56.037z" fill="#fbc072"/><g><g><g><ellipse cx="154.18" cy="272.844" fill="#ff9db0" rx="37.569" ry="29.918"/></g><g><ellipse cx="357.82" cy="272.844" fill="#ff9db0" rx="37.569" ry="29.918"/></g></g></g></g><g><path d="m176.076 221.186c-4.142 0-7.5 3.358-7.5 7.5v15.358c0 4.142 3.358 7.5 7.5 7.5s7.5-3.358 7.5-7.5v-15.358c0-4.143-3.358-7.5-7.5-7.5z"/><path d="m335.924 221.186c-4.142 0-7.5 3.358-7.5 7.5v15.358c0 4.142 3.358 7.5 7.5 7.5s7.5-3.358 7.5-7.5v-15.358c0-4.143-3.358-7.5-7.5-7.5z"/><path d="m281.999 237.932c-3.123-2.721-7.86-2.396-10.582.727-3.892 4.466-9.511 7.027-15.417 7.027s-11.525-2.561-15.417-7.027c-2.721-3.124-7.459-3.448-10.582-.727s-3.448 7.459-.727 10.582c6.741 7.736 16.482 12.172 26.726 12.172s19.985-4.437 26.726-12.172c2.721-3.123 2.396-7.861-.727-10.582z"/><path d="m440.96 104.772h-4.076c-12.721-25.647-31.964-44.483-32.34-44.972-26.382-27.28-73.568-59.8-148.544-59.8-74.977 0-122.163 32.52-148.544 59.8-.402.523-19.605 19.297-32.34 44.972h-4.076c-23.336 0-44.555 14.667-52.801 36.499-5.685 15.05 5.457 31.162 21.54 31.162h23.854c-7.276 18.578-11.779 38.059-13.416 58.086-4.852 7.827-7.663 17.047-7.663 26.914 0 29.475 25.067 53.326 55.096 51.08 12.925 33.423 36.139 61.76 65.74 81.113-30.511 29.056-50.615 69.653-50.615 114.875 0 4.142 3.358 7.5 7.5 7.5h271.449c4.142 0 7.5-3.358 7.5-7.5 0-44.595-19.607-85.332-50.616-114.874 29.602-19.353 52.816-47.69 65.741-81.114 41.902 3.134 69.288-42.742 47.433-77.995-1.637-20.027-6.14-39.508-13.417-58.085h23.855c16.087 0 27.222-16.116 21.54-31.162-8.244-21.832-29.463-36.499-52.8-36.499zm-324.894-32.258h83.116c4.142 0 7.5-3.358 7.5-7.5s-3.358-7.5-7.5-7.5h-67.271c25.819-21.577 65.876-42.514 124.089-42.514 58.212 0 98.27 20.937 124.089 42.514h-150.907c-4.142 0-7.5 3.358-7.5 7.5s3.358 7.5 7.5 7.5h166.753c11.554 12.378 19.318 24.216 23.922 32.258h-327.714c4.605-8.043 12.369-19.879 23.923-32.258zm-24.711 133.736c-8.472.385-16.838 3.01-23.813 7.172 2.534-14.085 6.642-27.801 12.286-40.99h23.937c-5.178 10.482-9.494 22.136-12.41 33.818zm1.304 87.405c-34.028-1.051-48.076-44.839-20.432-65.329 4.622-3.433 10.054-5.766 16.037-6.694-3.691 24.097-2.082 49.086 4.395 72.023zm192.843 120.978-29.504 29.501-29.502-29.502c18.997 3.338 39.385 3.446 59.006.001zm-40.112 40.107-17.52 17.518-62.804-62.803c4.342-4.876 8.393-8.814 11.763-11.833 6.656 3.514 13.57 6.594 20.632 9.19 15.829 15.828 31.77 31.77 47.929 47.928zm-89.804-33.553 61.677 61.677-14.136 14.136h-27.975v-30.554c0-4.142-3.358-7.5-7.5-7.5s-7.5 3.358-7.5 7.5v30.554h-32.174c1.766-32.823 14.882-58.403 27.608-75.813zm196.263 75.813v-30.554c0-4.142-3.358-7.5-7.5-7.5s-7.5 3.358-7.5 7.5v30.554h-56.238l15.664-15.664c2.929-2.929 2.929-7.678 0-10.606-2.38-2.38-5.961-2.826-8.791-1.339-1.828.96-.805.494-28.086 27.609h-35.051c5.279-5.279 90.054-90.05 90.191-90.188 7.061-2.596 13.976-5.676 20.631-9.19 3.372 3.022 7.422 6.962 11.765 11.841l-40.466 40.466c-2.929 2.929-2.929 7.678 0 10.606 2.929 2.93 7.678 2.929 10.606 0l39.341-39.341c12.726 17.4 25.841 42.975 27.607 75.805h-32.173zm-79.883-95.627c-10.402 1.063-21.017 1.112-31.928 0-109.898-11.316-173.211-132.052-119.329-228.941h270.583c53.742 96.796-9.204 217.6-119.326 228.941zm147.375-107.718c6.34-22.459 8.176-47.336 4.395-72.023 17.466 2.688 30.71 17.776 30.71 35.8 0 19.604-15.644 35.622-35.105 36.223zm25.116-80.233c-7.011-4.184-15.365-6.785-23.813-7.172-2.943-11.787-7.279-23.433-12.41-33.818h23.939c5.643 13.191 9.751 26.905 12.284 40.99zm27.765-55.99c-12.292 0-420.692 0-432.443 0-5.609 0-9.497-5.596-7.508-10.861 6.055-16.029 21.635-26.799 38.769-26.799h369.92c17.135 0 32.715 10.77 38.77 26.798 1.977 5.238-1.87 10.862-7.508 10.862z"/></g></g></svg>