<svg id="Capa_1" enable-background="new 0 0 512 512" height="512" viewBox="0 0 512 512" width="512" xmlns="http://www.w3.org/2000/svg"><g><g><path d="m433.425 8.346c14.992 1.571 27.369 12.115 31.483 26.617 18.67 65.816-22.912 120.111-22.912 120.111l-116.247-110.528c36.092-36.737 81.037-38.992 107.676-36.2z" fill="#6a647f"/><path d="m423.923 43.488c.022.001.044.003.066.004 3.732.216 6.882 2.907 7.681 6.558 9.538 43.578-15.66 79.732-18.173 83.197l-62.145-63.545c23.55-23.972 52.903-27.34 72.571-26.214z" fill="#ff9db0"/><path d="m78.575 8.346c-14.993 1.571-27.37 12.115-31.484 26.617-18.67 65.816 22.912 120.111 22.912 120.111l116.249-110.528c-36.093-36.737-81.038-38.992-107.677-36.2z" fill="#5c586f"/><path d="m88.077 43.488c-.022.001-.044.003-.066.004-3.732.216-6.882 2.907-7.681 6.558-9.538 43.578 15.66 79.732 18.173 83.197l62.145-63.545c-23.55-23.972-52.903-27.34-72.571-26.214z" fill="#ff9db0"/><path d="m49.135 219.474c0-114.066 92.799-206.865 206.865-206.865s206.866 92.799 206.866 206.865z" fill="#fccb88"/><path d="m456.882 298.831c-1.524-14.523-7.734-29.096.856-40.905h-403.476c8.591 11.809 2.38 26.382.856 40.905l-.01.096c-2.675 25.483 11.389 49.783 34.816 60.16 13.415 5.942 24.138 16.665 30.08 30.08 10.377 23.428 34.677 37.491 60.159 34.816l.097-.01c14.523-1.524 29.096 2.387 40.905 10.977l.094.068c20.71 15.066 48.771 15.066 69.481 0l.094-.069c11.809-8.591 26.382-12.501 40.905-10.977l.096.01c25.483 2.675 49.783-11.389 60.16-34.816 5.942-13.415 16.665-24.138 30.08-30.08h.001c23.428-10.377 37.491-34.677 34.817-60.159z" fill="#fccb88"/><g><circle cx="427.442" cy="229.595" fill="#ffcabd" r="48.41"/></g><path d="m128.538 257.927h-74.276c8.591 11.809 2.38 26.382.856 40.905l-.01.096c-2.675 25.483 11.389 49.783 34.816 60.16 13.415 5.942 24.138 16.665 30.08 30.08 10.377 23.427 34.677 37.491 60.159 34.816l.097-.01c14.523-1.524 29.096 2.387 40.905 10.977l.094.068c19.537 14.213 45.613 15.011 65.892 2.408-77.439-14.541-139.831-86.241-158.613-179.5z" fill="#fbc072"/><path d="m384.961 504.5c0-88.926-58.416-128.724-58.416-128.724h-141.089s-58.416 39.798-58.416 128.724z" fill="#ff889e"/><path d="m185.456 375.776s7.206 58.585 51.743 86.896c11.514 7.319 26.088 7.319 37.602 0 44.537-28.311 51.743-86.896 51.743-86.896z" fill="#6a647f"/><path d="m122.722 199.093c0-44.646 10.431-114.794 47.682-167.929-71.472 32.617-121.269 104.755-121.269 188.31h74.282c-.452-6.721-.695-13.515-.695-20.381z" fill="#fbc072"/><path d="m400.247 126.798c-3.205-4.978-10.033-6.295-14.759-2.729-.03.023-.061.046-.091.069-10.923 8.309-26.048 8.309-36.971 0-10.923-8.309-26.048-8.309-36.971 0s-26.048 8.309-36.971 0c-10.923-8.309-26.048-8.309-36.971 0-10.923 8.309-26.048 8.309-36.971 0s-26.048-8.309-36.971 0c-10.923 8.309-26.048 8.309-36.971 0-.03-.023-.059-.045-.089-.068-4.731-3.571-11.562-2.242-14.77 2.742-17.2 26.719-27.185 58.522-27.186 92.66 0 94.692 75.971 171.02 170.662 171.441 95.043.423 172.222-76.496 172.222-171.44.003-34.144-9.986-65.953-27.192-92.675z" fill="#ffd8d2"/><path d="m184.227 375.321c-37.839-43.997-61.505-106.665-61.505-176.228 0-20.209 2.139-45.644 7.932-72.36-1.399-.751-2.756-1.611-4.051-2.596-.03-.023-.06-.045-.089-.068-4.731-3.571-11.562-2.242-14.77 2.742-10.605 16.474-18.462 34.883-22.932 54.578-1.367-.129-2.778-.206-4.253-.206-26.736 0-48.41 21.674-48.41 48.41s21.674 48.41 48.41 48.41c3.577 0 6.822-.4 9.775-1.136 15.441 43.754 48.073 79.257 89.893 98.454z" fill="#ffcabd"/><g><g><g><ellipse cx="149.479" cy="252.853" fill="#ff9db0" rx="39.304" ry="31.3"/></g><g><ellipse cx="362.521" cy="252.853" fill="#ff9db0" rx="39.304" ry="31.3"/></g></g></g></g><g><path d="m172.387 199.163c-4.142 0-7.5 3.358-7.5 7.5v16.066c0 4.142 3.358 7.5 7.5 7.5s7.5-3.358 7.5-7.5v-16.066c0-4.142-3.358-7.5-7.5-7.5z"/><path d="m339.613 199.163c-4.142 0-7.5 3.358-7.5 7.5v16.066c0 4.142 3.358 7.5 7.5 7.5s7.5-3.358 7.5-7.5v-16.066c-.001-4.142-3.358-7.5-7.5-7.5z"/><path d="m282.972 216.598c-3.123-2.722-7.861-2.396-10.581.726-4.138 4.747-10.112 7.47-16.391 7.47s-12.253-2.723-16.39-7.47c-2.722-3.123-7.459-3.448-10.581-.727-3.123 2.722-3.448 7.459-.727 10.581 6.987 8.017 17.082 12.615 27.698 12.615s20.711-4.598 27.698-12.614c2.722-3.122 2.396-7.86-.726-10.581z"/><path d="m457.046 145.176c12.319-22.38 28.706-64.188 15.073-112.248-4.983-17.565-19.866-30.137-37.916-32.029-24.655-2.585-60.548-.793-93.68 21.627-53.889-23.188-115.057-23.232-169.05.001-9.231-6.236-19.271-11.249-29.909-14.916-3.915-1.349-8.184.731-9.534 4.647s.731 8.184 4.647 9.534c6.534 2.252 12.81 5.075 18.767 8.436-7.429 3.975-14.437 8.251-21.236 12.96-14.039-5.641-30.036-8.127-46.626-7.173-7.067.409-13.06 5.525-14.574 12.442-3.887 17.76-2.915 36.221 2.879 54.929-4.975 7.696-9.282 15.428-13.25 23.665-9.709-21.435-18.582-53.873-8.325-90.03 3.3-11.632 13.132-19.956 25.049-21.205 10.248-1.074 20.478-1.067 30.406.022 4.122.449 7.822-2.521 8.273-6.638.451-4.118-2.521-7.821-6.638-8.273-10.99-1.204-22.296-1.214-33.605-.029-18.05 1.892-32.933 14.464-37.916 32.029-13.633 48.062 2.753 89.868 15.073 112.249-5.543 14.956-9.421 30.569-11.499 46.581-22.37 24.279-19.055 62.663 7.719 82.661-.317 7.02-2.615 15.108-3.519 23.732-3.025 28.818 12.743 56.064 39.237 67.798 11.735 5.198 21.061 14.524 26.259 26.259 5.405 12.204 14.351 22.439 25.58 29.46-10.686 20.915-19.187 48.375-19.187 82.832 0 4.142 3.358 7.5 7.5 7.5h257.916c4.142 0 7.5-3.358 7.5-7.5 0-35.065-8.913-62.681-19.156-82.852 11.214-7.021 20.148-17.248 25.549-29.44 5.198-11.736 14.524-21.062 26.259-26.26 26.493-11.735 42.262-38.98 39.227-67.895-.891-8.496-3.192-16.613-3.509-23.636 26.764-19.991 30.096-58.374 7.719-82.661-2.082-16.009-5.96-31.623-11.503-46.579zm-64.809-91.064c10.752-2.96 20.651-3.595 31.315-3.122.375.022.707.306.788.674 2.528 11.548 2.636 23.504.338 35.694-9.64-12.298-20.799-23.654-32.441-33.246zm-35.692-23.889c27.238-15.411 55.854-16.527 76.094-14.406 11.917 1.249 21.749 9.573 25.049 21.205 10.256 36.155 1.384 68.594-8.324 90.029-3.904-8.122-8.28-15.974-13.25-23.664 5.794-18.708 6.766-37.169 2.879-54.93-1.452-6.635-7.136-11.976-14.645-12.445-16.525-.945-32.518 1.538-46.556 7.178-6.794-4.706-13.804-8.985-21.247-12.967zm94.662 148.75c-6.967-3.278-14.722-5.049-22.186-5.258-4.783-18.155-12.505-35.486-22.472-50.968-5.552-8.624-17.401-10.894-25.697-4.569-8.182 6.225-19.698 6.23-27.888 0-13.496-10.266-32.447-10.349-46.051 0-8.21 6.246-19.678 6.245-27.888 0-13.324-10.135-32.632-10.207-46.051 0-8.209 6.245-19.677 6.246-27.888 0-13.557-10.311-32.493-10.312-46.051 0-8.21 6.247-19.677 6.246-27.913-.019-.101-.046-5.85-4.728-13.771-3.319-8.335 1.484-11.521 7.177-14.408 11.932-7.284 12.006-13.258 24.98-17.655 38.975-.844 2.69-1.717 5.725-2.309 7.969-7.615.214-15.366 2.049-22.185 5.258 13.097-63.13 56.211-114.817 111.872-140.56 115.854-53.476 252.524 15.158 278.541 140.559zm-134.881 209.059c-4.77 18.002-16.935 50.123-45.548 68.312-9.115 5.794-20.439 5.795-29.555 0-28.676-18.229-40.804-50.24-45.555-68.242 37.892 13.451 81.102 14.063 120.658-.07zm-229.004-300.673c-2.298-12.191-2.19-24.146.338-35.694.081-.369.412-.653.849-.678 10.302-.59 21.061.32 31.253 3.125-11.554 9.531-22.615 20.743-32.44 33.247zm-43.669 142.243c0-20.748 15.602-38.176 36.005-40.607-4.695 27.43-2.934 55.523 4.706 81.509-22.485-.11-40.711-18.444-40.711-40.902zm83.211 156.53c-6.71-15.15-18.749-27.188-33.899-33.899-20.522-9.09-32.737-30.195-30.384-52.614.581-5.534 2.007-11.632 2.865-17.477 7.629 2.793 16.049 3.843 23.989 3.154 15.871 40.402 45.826 72.805 82.202 92.204-6.865 6.359-16.45 16.618-25.555 31.086-8.421-5.425-15.126-13.216-19.218-22.454zm214.071 110.868v-32.185c0-4.142-3.358-7.5-7.5-7.5s-7.5 3.358-7.5 7.5v32.185h-139.87v-32.185c0-4.142-3.358-7.5-7.5-7.5s-7.5 3.358-7.5 7.5v32.185h-36.378c1.744-44.667 19.616-82.255 45.939-107.35 4.987 19.815 18.589 57.765 52.549 79.353 13.863 8.812 31.783 8.814 45.648 0 34.215-21.75 47.683-59.425 52.598-79.278 26.254 25.089 44.181 62.818 45.893 107.276h-36.379zm105.618-214.857c.883 6.004 2.272 11.822 2.875 17.573 2.343 22.323-9.872 43.428-30.394 52.518-15.15 6.71-27.188 18.749-33.9 33.9-4.091 9.237-10.796 17.027-19.218 22.454-.74-1.03-10.013-16.72-25.652-31.174 15.508-8.301 29.501-18.802 41.48-30.637 2.947-2.911 2.975-7.659.064-10.606-.002-.002-.005-.004-.007-.007 0 0 0-.001-.001-.001-2.911-2.947-7.66-2.977-10.606-.064-84.882 83.856-229.681 51.604-269.737-61.59-16.661-47.085-11.245-100.384 16.594-143.627.852-1.323 2.702-1.754 3.948-.813l.064.048c13.557 10.313 32.494 10.313 46.051 0 8.21-6.245 19.678-6.246 27.888 0 13.558 10.313 32.494 10.313 46.051 0 8.21-6.245 19.678-6.246 27.888 0 13.557 10.313 32.494 10.314 46.051 0 8.21-6.245 19.678-6.245 27.888 0 13.432 10.219 32.377 10.402 45.979.054l.14-.105c1.241-.936 3.087-.516 3.934.802 36.132 56.116 34.562 128.989-4.313 183.585-2.403 3.374-1.615 8.057 1.759 10.459.004.003.007.006.011.008 3.373 2.402 8.056 1.615 10.459-1.759 8.451-11.868 15.339-24.572 20.605-37.873 8.326.744 16.734-.461 24.099-3.145zm-18.979-11.637c7.551-25.447 9.563-53.514 4.768-81.511 20.668 2.462 36.005 20.12 36.005 40.607 0 22.413-18.201 40.832-40.773 40.904z"/></g></g></svg>