<svg id="Capa_1" enable-background="new 0 0 512 512" height="512" viewBox="0 0 512 512" width="512" xmlns="http://www.w3.org/2000/svg"><g><g><path d="m254.701 389.734 27.387 56.437-27.387 58.329h-129c0-89.856 59.024-130.064 59.024-130.064h63.759z" fill="#ff889e"/><path d="m254.701 504.5v-114.766l-6.217-15.298h78.791s59.024 40.208 59.024 130.064z" fill="#ff748f"/><path d="m46.987 216.513c0-115.25 93.763-209.013 209.013-209.013s209.013 93.763 209.013 209.013z" fill="#64d1e1"/><path d="m107.69 213.396c0-100.521 50.891-184.613 154.087-205.813-1.92-.052-3.845-.083-5.777-.083-115.25 0-209.013 93.763-209.013 209.013h60.743c-.015-1.038-.04-2.075-.04-3.117z" fill="#3ccadd"/><g><circle cx="429.222" cy="226.739" fill="#ffbe9c" r="48.912"/></g><path d="m406.793 131.223c-7.627-13.452-23.758-19.644-38.483-14.918-31.777 10.197-70.511 16.184-112.31 16.184-.854 0-1.698-.018-2.549-.023l-11.436 5.225-5.096-5.639c-34.481-1.525-66.351-7.122-93.231-15.748-14.711-4.721-30.839 1.449-38.463 14.887-14.147 24.939-22.288 53.731-22.445 84.415-.149 29.015 6.947 56.457 19.567 80.616l8.741 5.266-1.207 7.764c30.584 47.928 84.061 80.034 144.825 80.478 96.262.703 174.516-77.118 174.516-173.217 0-31.01-8.154-60.113-22.429-85.29z" fill="#ffd3bc"/><path d="m107.69 213.396c0-35.339 6.301-68.641 18.941-97.902-8.813 1.924-16.718 7.434-21.406 15.697-8.193 14.443-14.355 30.184-18.135 46.831-1.421-.125-2.858-.195-4.312-.195-27.014 0-48.912 21.899-48.912 48.913s21.899 48.913 48.912 48.913c3.467 0 6.842-.383 10.104-1.071 2.676 7.456 5.834 14.689 9.466 21.642l8.741 5.266-1.207 7.764c16.783 26.3 40.469 47.818 68.459 61.972-43.036-38.651-70.651-95.03-70.651-157.83z" fill="#ffbe9c"/><path d="m348.381 457.818v12.363l-27.922 17.159-27.922-17.159v-12.363c0-8.682 7.035-15.728 15.728-15.728h24.389c8.692.001 15.727 7.047 15.727 15.728z" fill="#9ae0eb"/><path d="m292.537 470.182h55.844v34.318h-55.844z" fill="#64d1e1"/><path d="m161.021 457.818v12.363l27.922 17.159 27.922-17.159v-12.363c0-8.682-7.035-15.728-15.728-15.728h-24.389c-8.691.001-15.727 7.047-15.727 15.728z" fill="#9ae0eb"/><path d="m161.021 470.182h55.844v34.318h-55.844z" fill="#64d1e1"/><path d="m192.957 181.734h-55.611c-12.754 0-22.63 11.165-21.074 23.823l3.027 24.619c2.847 23.16 22.518 40.562 45.853 40.562 23.335 0 43.006-17.401 45.853-40.562l3.026-24.619c1.556-12.659-8.32-23.823-21.074-23.823z" fill="#5c586f"/><ellipse cx="364.22" cy="251.899" fill="#ff9db0" rx="39.931" ry="31.799"/></g><g><path d="m340.948 197.465c-4.142 0-7.5 3.358-7.5 7.5v16.323c0 4.142 3.358 7.5 7.5 7.5s7.5-3.358 7.5-7.5v-16.323c0-4.142-3.357-7.5-7.5-7.5z"/><path d="m283.323 241.735c-3.123-2.721-7.86-2.396-10.582.727-8.865 10.173-24.627 10.164-33.483 0-2.721-3.123-7.459-3.448-10.582-.727s-3.448 7.459-.727 10.582c14.845 17.035 41.272 17.017 56.101 0 2.722-3.123 2.397-7.86-.727-10.582z"/><path d="m87.943 282.901c15.848 39.934 45.542 72.963 83.148 93.083-31.532 29.045-52.89 74.663-52.89 128.516 0 4.142 3.358 7.5 7.5 7.5h260.598c4.142 0 7.5-3.358 7.5-7.5 0-25.042-4.451-48.713-13.228-70.355-1.557-3.839-5.932-5.688-9.769-4.131-3.838 1.557-5.688 5.931-4.131 9.769 7.171 17.682 11.193 36.896 11.983 57.217h-22.772c0-21.849 0-17.158 0-39.182 0-12.808-10.42-23.228-23.228-23.228h-24.389c-12.808 0-23.228 10.42-23.228 23.228v39.182h-22.836v-99.868c21.509-.721 43.254-5.242 64.053-14.016 5.389 4.43 16.7 14.801 27.365 31.428 2.236 3.487 6.877 4.5 10.362 2.264 3.486-2.236 4.5-6.875 2.264-10.362-9.044-14.101-18.473-24.124-25.228-30.361 36.945-19.748 67.204-52.711 83.166-93.173 33.172 2.967 61.452-23.257 61.452-56.173 0-14.726-5.677-28.146-14.951-38.203-13.83-106.635-105.162-188.536-214.684-188.536-37.433 0-74.364 9.764-106.8 28.237-3.6 2.05-4.855 6.629-2.806 10.229 2.05 3.599 6.63 4.854 10.229 2.805 30.179-17.187 64.543-26.271 99.377-26.271 95.464 0 178.078 67.468 197.346 160.72-7.123-3.376-15.079-5.181-22.593-5.374-3.944-14.971-9.797-29.349-17.436-42.823-9.309-16.42-29.205-24.167-47.299-18.36-65.91 21.147-154.37 21.075-220.038-.001-16.798-5.388-35.588.873-45.608 15.652-4.289 6.325-13.658 24.795-19.121 45.531-7.647.212-15.528 2.022-22.608 5.379 9.481-46.089 35.291-88.172 73.465-118.027 3.263-2.552 3.839-7.265 1.288-10.528s-7.265-3.839-10.528-1.288c-44.731 34.984-74.213 86.006-81.548 142.651-9.276 10.057-14.955 23.479-14.955 38.207 0 32.815 28.206 59.215 61.578 56.162zm212.094 174.917c0-4.537 3.691-8.228 8.228-8.228h24.389c4.537 0 8.228 3.691 8.228 8.228v4.863h-40.844v-4.863zm0 19.864h40.844v19.318h-40.844zm-188.288-342.79c5.926-9.829 16.575-14.229 26.949-12.132 4.927 1.009 38.388 13.721 94.493 16.639-5.813 11.185-13.599 25.154-23.289 40.368-4.878-3.561-10.804-5.532-16.945-5.532h-55.611c-17.224 0-30.626 15.091-28.518 32.238l3.026 24.619c1.986 16.158 11.065 29.92 23.869 38.333-8.892 8.103-18.017 15.608-27.274 22.425-43.097-84.019 3.269-156.844 3.3-156.958zm14.993 94.369-3.026-24.619c-.998-8.117 5.292-15.408 13.63-15.408h55.611c8.177 0 14.648 7.132 13.63 15.408l-3.026 24.619c-2.381 19.37-18.894 33.977-38.41 33.977s-36.027-14.607-38.409-33.977zm34.244 181.35c9.914-14.441 19.94-23.553 24.854-27.576 19.449 8.232 40.323 12.986 61.361 13.988v99.977h-22.836c0-21.849 0-17.158 0-39.182 0-12.808-10.42-23.228-23.228-23.228h-24.389c-12.808 0-23.228 10.42-23.228 23.228v39.182h-20.179c1.235-32.411 10.519-61.442 27.645-86.389zm48.379 52.071h-40.844v-4.863c0-4.537 3.691-8.228 8.228-8.228h24.389c4.537 0 8.228 3.691 8.228 8.228v4.863zm-40.844 34.318v-19.318h40.844v19.318zm204.231-162.874c-75.261 74.713-200.054 60.352-256.807-29.158 11.786-8.583 23.363-18.24 34.54-28.771 4.676 1.331 9.598 2.042 14.667 2.042 27.081 0 49.993-20.269 53.297-47.146l3.026-24.619c.595-4.839-.068-9.692-1.833-14.128 13.333-20.474 23.429-39.087 30.119-52.41 75.144 1.06 118.064-16.497 125.135-17.464 10.073-1.376 20.265 3.445 25.372 12.452 37.858 68.142 23.874 148.184-27.516 199.202zm56.518-65.976c8.151-27.496 9.377-56.118 4.806-82.531 20.458 2.343 36.559 19.884 36.559 41.12 0 22.819-18.553 41.386-41.365 41.411zm-351.342-82.532c-1.648 9.528-2.595 19.725-2.647 29.949-.088 17.224 2.296 35.057 7.539 52.583-22.956 0-41.454-18.641-41.454-41.412-.001-21.458 16.319-38.794 36.562-41.12z"/></g></g></svg>