<svg id="Capa_1" enable-background="new 0 0 512 512" height="512" viewBox="0 0 512 512" width="512" xmlns="http://www.w3.org/2000/svg"><g><g><circle cx="84.036" cy="228.755" fill="#ffcabd" r="48.557"/><path d="m469.982 204.411c-9.078-110.097-101.583-196.911-213.982-196.911-110.425 0-201.647 83.791-213.426 191.131-1.381 12.582 8.469 23.581 21.126 23.581h87.423z" fill="#5c586f"/><path d="m108.199 206.761c0-85.688 47.938-160.049 118.181-197.216-96.746 13.408-173.099 91.514-183.806 189.086-1.381 12.582 8.469 23.581 21.126 23.581h45.036c-.346-5.106-.537-10.256-.537-15.451z" fill="#4f4c5f"/><path d="m185.243 375.38 23.054 69.537-23.054 59.583h-58.596c0-89.203 58.596-129.12 58.596-129.12z" fill="#ff889e"/><path d="m385.353 504.5h-58.596l-21.628-64.56 21.628-64.56c.001 0 58.596 39.917 58.596 129.12z" fill="#ff889e"/><path d="m185.243 375.38h141.515v129.12h-141.515z" fill="#50e1cd"/><circle cx="256" cy="390.568" fill="#ffcabd" r="40.516"/><g><circle cx="427.964" cy="228.755" fill="#ffcabd" r="48.557"/></g><path d="m362.86 83.868c-10.18 4.264-17.807 8.487-23.464 12.246-10.945 7.272-24.612 8.967-37.182 5.138-95.04-28.952-122.757 63.601-130.19 103.537-1.877 10.087-10.64 17.423-20.9 17.423h-67.051c1.921 93.307 78.16 168.356 171.927 168.356 94.973 0 171.964-76.991 171.964-171.964 0-54.589-25.436-103.237-65.102-134.739z" fill="#ffd8d2"/><circle cx="418.036" cy="276.294" fill="#fbc072" r="22.168"/><path d="m187.789 204.909h-34.659c-14.561 0-25.414 13.427-22.361 27.664l1.919 8.952c3.226 15.046 16.524 25.794 31.912 25.794h11.719c15.388 0 28.685-10.748 31.912-25.794l1.92-8.952c3.052-14.238-7.801-27.664-22.362-27.664z" fill="#6a647f"/><path d="m327.816 204.909h34.659c14.561 0 25.414 13.427 22.361 27.664l-1.919 8.952c-3.226 15.046-16.524 25.794-31.912 25.794h-11.719c-15.388 0-28.685-10.748-31.912-25.794l-1.919-8.952c-3.053-14.238 7.8-27.664 22.361-27.664z" fill="#6a647f"/><path d="m108.737 222.212c-13.339 0-24.664 0-24.664 0 1.395 67.772 42.004 125.902 100.053 152.647-42.912-37.634-71.257-91.777-75.389-152.647z" fill="#ffcabd"/></g><g><path d="m477.331 202.169c-10.205-113.574-105.861-202.169-221.304-202.169-54.261 0-106.551 19.862-147.236 55.927-3.1 2.748-3.385 7.488-.637 10.587 2.748 3.1 7.488 3.385 10.587.637 37.939-33.63 86.695-52.151 137.286-52.151 99.969 0 184.613 71.465 203.364 167.342-9.072-6.157-19.52-9.327-29.803-9.62-9.459-36.02-30.4-69.597-62.02-94.718-.433-.222-2.532-2.136-6.028-1.5-3.578.656-18.141 7.965-26.268 13.364-8.911 5.923-20.153 7.468-30.845 4.21-75.918-23.13-121.976 25.11-138.556 103.331h-12.714c-11.314 0-22.014 6.285-27.375 17.199-67.378.311-66.009.511-70.21-2.573-4.083-3.036-6.032-7.885-5.515-12.587 4.529-41.274 21.262-79.877 48.389-111.635 2.69-3.149 2.318-7.884-.832-10.574-3.15-2.691-7.884-2.318-10.574.832-29.091 34.057-47.035 75.462-51.895 119.742-.141 1.283-.184 2.565-.152 3.841-21.567 38.995 9.17 86.907 54.056 82.923 15.917 40.314 45.889 72.849 82.472 92.419-17.394 15.997-52.348 56.924-52.348 127.503 0 4.142 3.357 7.5 7.5 7.5h258.706c4.143 0 7.5-3.358 7.5-7.5 0-22.489-3.625-43.924-10.776-63.708-1.408-3.896-5.708-5.912-9.603-4.504-3.896 1.408-5.912 5.707-4.504 9.603 5.763 15.944 9.029 33.106 9.736 51.11h-43.449v-105.11c6.437 6.511 14.605 16.146 22.082 29.021 2.079 3.582 6.67 4.8 10.251 2.72 3.583-2.08 4.8-6.669 2.72-10.252-10.062-17.328-21.191-29.314-28.86-36.394 30.07-16.06 55.522-40.682 72.585-71.452 16.277 2.775 31.453-8.237 34.22-24.14 32.206-11.772 46.165-49.44 30.05-79.224zm-289.514 10.24c9.787 0 17.071 9.062 15.027 18.591l-1.919 8.952c-2.468 11.511-12.805 19.866-24.579 19.866-10.839-.097-12.521.245-16.054-.381-9.899-1.757-18.083-9.413-20.243-19.485l-1.919-8.952c-1.319-6.133 1.232-12.634 6.754-16.17 4.095-2.614 8.173-2.407 8.273-2.421zm-144.175 9.131c4.803 4.683 10.887 7.358 17.072 8.012 2.199.229 2.506.146 16.187.16.787 13 3.089 26.734 7.05 40.1-25.333-.069-44.797-23.038-40.309-48.272zm245.09 173.564c-2.217 16.066-16.038 28.48-32.705 28.48s-30.488-12.413-32.705-28.481c21.639 3.973 44.174 3.908 65.41.001zm-126.974 16.205c5.624-8.189 11.283-14.65 16.012-19.43v105.121h-43.453c1.232-32.15 10.448-60.945 27.441-85.691zm31.012-24.68c5.006 1.883 10.099 3.541 15.268 4.968.551 26.001 21.859 46.987 47.989 46.987 26.134 0 47.443-20.99 47.99-46.996 5.215-1.447 10.739-3.279 15.268-4.991v110.403h-126.515zm130.913-18.083c-103.811 46.921-224.181-24.303-231.744-138.834h30.902c.21 3.136.79 5.108 2.542 13.385 3.449 16.083 16.516 28.308 32.323 31.113 4.454.79 6.597.609 18.641.609 18.799 0 35.304-13.341 39.245-31.722.872-6.162 4.567-13.729 1.204-24.418 11.098-1.248 24.752-2.315 41.035-2.315s29.937 1.068 41.035 2.315c-1.554 4.938-1.835 10.246-.716 15.467l1.919 8.952c3.941 18.381 20.446 31.722 39.245 31.722h11.719c18.799 0 35.304-13.341 39.245-31.722.269-4.474 7.693-19.75-4.156-34.41-5.793-7.167-14.402-11.278-23.619-11.278h-34.659c-7.332 0-14.273 2.609-19.725 7.281-12.674-1.643-29.378-3.328-50.289-3.328-20.91 0-37.614 1.685-50.289 3.328-5.451-4.672-12.393-7.281-19.725-7.281h-6.592c14.955-67.341 52.565-109.167 118.832-88.982 14.985 4.566 30.846 2.354 43.518-6.065 5.672-3.77 11.972-7.04 18.11-9.798 45.155 37.919 66.345 96.576 56.405 154.062-.009 0-.018 0-.026 0-27.856 0-40.284 35.181-18.708 52.7-16.78 29.796-42.446 54.219-75.672 69.219zm4.161-156.137h34.659c9.796 0 17.078 9.033 15.028 18.591l-1.919 8.952c-2.468 11.511-12.805 19.866-24.578 19.866h-11.719c-11.773 0-22.11-8.355-24.579-19.866l-1.92-8.952c-2.053-9.574 5.272-18.591 15.028-18.591zm90.219 78.553c-7.459 0-13.691-5.614-14.556-12.933-1.328-11.024 9.705-19.53 20.058-15.324 5.407 2.171 9.167 7.505 9.167 13.588 0 8.089-6.581 14.669-14.669 14.669zm27.755-25.202c-2.499-6.652-7.458-12.119-13.156-15.31 3.754-20.955 3.679-42.348.24-62.44 12.811 1.58 23.922 8.955 30.371 19.783 12.257 20.551 4.343 47.482-17.455 57.967z"/><path d="m284.102 251.896c-3.123-2.721-7.86-2.396-10.582.727-4.436 5.09-10.84 8.009-17.572 8.009-6.731 0-13.137-2.919-17.572-8.009-2.722-3.123-7.46-3.448-10.582-.727-3.123 2.722-3.448 7.459-.727 10.582 7.285 8.359 17.813 13.154 28.881 13.154 11.069 0 21.596-4.794 28.881-13.154 2.721-3.123 2.396-7.86-.727-10.582z"/></g></g></svg>