<svg id="Capa_1" enable-background="new 0 0 512 512" height="512" viewBox="0 0 512 512" width="512" xmlns="http://www.w3.org/2000/svg"><g><g><path d="m461.16 212.66c0-113.125-92.034-205.16-205.16-205.16s-205.16 92.035-205.16 205.16c0 113.772 42.641 101.495 25.309 181.655-11.555 52.718 83.049 74.383 83.049 74.383h193.604s94.604-21.665 83.049-74.383c-17.332-80.16 25.309-67.883 25.309-181.655z" fill="#b08bd7"/><path d="m330.713 412.503c-114.426 0-207.186-94.025-207.186-210.011 0-88.35 53.828-163.947 130.051-194.961-112.013 1.305-202.738 92.814-202.738 205.129 0 113.771 42.641 101.495 25.309 181.655-11.555 52.718 83.049 74.383 83.049 74.383h193.604z" fill="#a47cd1"/><path d="m218.528 504.5h74.944l26.315-66.737-26.315-94.89h-74.944l-26.315 94.89z" fill="#50e1cd"/><path d="m374.791 406.819s34.948 30.944 34.948 97.681h-70.35l-19.602-66.736z" fill="#ff889e"/><path d="m137.209 406.819s-34.948 30.944-34.948 97.681h70.35l19.602-66.736z" fill="#ff889e"/><path d="m369.39 504.5c0-30.697 13.199-56.329 23.849-72.015-9.049-17.32-18.447-25.666-18.447-25.666l-55.004 30.944 19.602 66.737z" fill="#ff748f"/><path d="m372.745 376.264-33.392-33.392h-45.881v161.628h45.918c0-44.138 20.979-78.958 35.402-97.681 7.107-9.227 6.189-22.319-2.047-30.555z" fill="#fbe29f"/><path d="m118.761 432.485c10.65 15.686 23.849 41.318 23.849 72.014h30l19.602-66.737-55.004-30.944c.001.002-9.397 8.347-18.447 25.667z" fill="#ff748f"/><path d="m139.255 376.264 33.392-33.392h45.881v161.628h-45.918c0-44.138-20.979-78.958-35.402-97.681-7.107-9.227-6.189-22.319 2.047-30.555z" fill="#fbe29f"/><path d="m424.895 212.419c-.05-12.621-9.784-23.068-22.357-24.16-73.712-6.402-134.105-45.346-165.464-69.872-12.677-9.915-30.933-8.523-41.79 3.357-32.072 35.095-71.856 54.208-92.553 62.436-8.783 3.492-14.782 11.728-15.354 21.162-.163 2.679-.272 5.252-.272 7.318 0 93.279 75.617 168.896 168.896 168.896s168.896-75.617 168.896-168.896c-.001-.079-.001-.16-.002-.241z" fill="#ffd3bc"/><path d="m123.527 202.492c0-9.712.665-19.265 1.924-28.626-8.78 4.478-16.591 7.878-22.72 10.314-8.783 3.492-14.781 11.728-15.354 21.162-.163 2.679-.272 5.252-.272 7.318 0 78.988 54.225 145.303 127.478 163.772-54.948-37.766-91.056-101.577-91.056-173.94z" fill="#ffbe9c"/><g><g><g><ellipse cx="154.914" cy="257.96" fill="#ff9db0" rx="37.299" ry="29.703"/></g><g><ellipse cx="357.086" cy="257.96" fill="#ff9db0" rx="37.299" ry="29.703"/></g></g></g></g><g><path d="m169.152 214.12v15.248c0 4.142 3.358 7.5 7.5 7.5s7.5-3.358 7.5-7.5v-15.248c0-4.142-3.358-7.5-7.5-7.5s-7.5 3.358-7.5 7.5z"/><path d="m327.848 214.12v15.248c0 4.142 3.358 7.5 7.5 7.5s7.5-3.358 7.5-7.5v-15.248c0-4.142-3.358-7.5-7.5-7.5s-7.5 3.358-7.5 7.5z"/><path d="m271.265 223.986c-3.853 4.421-9.417 6.958-15.265 6.958s-11.412-2.536-15.266-6.958c-2.723-3.124-7.459-3.447-10.582-.727-3.123 2.722-3.448 7.459-.727 10.582 6.703 7.691 16.389 12.103 26.574 12.103 10.186 0 19.871-4.411 26.574-12.103 2.721-3.123 2.396-7.86-.727-10.582-3.121-2.721-7.859-2.396-10.581.727z"/><path d="m468.66 212.66c0-117.261-95.399-212.66-212.66-212.66-42.422 0-83.415 12.514-118.547 36.188-3.435 2.315-4.343 6.976-2.028 10.411 2.314 3.435 6.977 4.343 10.411 2.028 32.645-21.999 70.739-33.627 110.164-33.627 108.99 0 197.661 88.67 197.661 197.66 0 111.466-43.029 100.504-25.136 183.261 3.46 15.784-4.571 30.24-23.885 43.052-7.071-16.627-15.44-27.585-20.461-33.232 5.297-11.152 3.263-25.386-6.131-34.78l-16.765-16.765c14.055-10.465 27.247-23.734 37.871-38.466 2.414-3.348 1.677-8.036-1.698-10.473-3.36-2.423-8.047-1.664-10.471 1.696-91.083 126.334-292.381 62.733-292.381-94.293 0-1.727.087-4.036.259-6.863.4-6.577 4.683-12.28 10.639-14.647 35.084-13.948 69.586-36.188 95.319-64.346 8.143-8.912 22.038-10.014 31.633-2.509 30.468 23.83 92.995 64.797 169.435 71.436 8.805.765 15.472 7.952 15.506 16.734-.583 5.252 1.584 33.785-15.904 70.103-1.797 3.732-.229 8.214 3.503 10.011.003.001.006.002.009.004.003.001.006.004.01.005 3.732 1.795 8.214.228 10.011-3.504 19.06-39.593 16.924-72.657 17.371-76.694-.066-16.576-12.623-30.162-29.208-31.602-72.581-6.304-132.333-45.503-161.492-68.308-15.73-12.303-38.549-10.456-51.947 4.206-31.013 33.935-69.566 52.487-89.787 60.525-11.448 4.551-19.326 15.415-20.07 27.678-3.255 53.605 21.153 112.338 70.826 149.309l-16.765 16.765c-9.224 9.224-11.538 23.308-6.13 34.78-5.021 5.647-13.39 16.604-20.461 33.232-19.313-12.812-27.344-27.27-23.88-43.073 17.9-82.787-25.14-71.612-25.14-183.24 0-55.368 23.547-108.597 64.604-146.039 3.061-2.791 3.279-7.535.488-10.595-2.792-3.061-7.535-3.279-10.595-.488-44.168 40.275-69.498 97.544-69.498 157.12 0 114.674 42.05 103.43 25.483 180.049-3.566 16.273-.4 39.665 33.28 60.694-4.32 14.05-7.342 31.025-7.342 51.096 0 4.142 3.358 7.5 7.5 7.5h307.479c4.142 0 7.5-3.358 7.5-7.5 0-20.071-3.023-37.046-7.342-51.096 33.68-21.029 36.846-44.42 33.284-60.673-8.354-38.64-2.208-53.945 6.3-75.127 8.544-21.275 19.178-47.752 19.178-104.943zm-324.102 168.908 18.787-18.787c14.847 9.19 30.838 16.059 47.683 20.483v113.736h-31.112c-1.775-34.116-15.827-67.585-36.766-94.758-4.78-6.204-4.174-15.092 1.408-20.674zm-7.974 37.127c15.859 22.989 26.626 49.86 28.305 78.305h-54.97c1.766-41.543 17.904-67.276 26.665-78.305zm89.444-32.184c20.374 3.49 41.018 3.241 59.944 0v110.489h-59.944zm74.944-3.247c17.2-4.517 33.264-11.558 47.683-20.482l18.787 18.787c1.977 1.977 3.446 4.491 4.159 7.359 1.577 6.352-.602 10.442-4.022 14.987-20.109 26.718-33.742 59.41-35.495 93.086h-31.112zm46.14 113.736c1.679-28.442 12.442-55.309 28.303-78.303 8.771 11.042 24.9 36.775 26.667 78.303z"/></g></g></svg>