<svg id="Capa_1" enable-background="new 0 0 512 512" height="512" viewBox="0 0 512 512" width="512" xmlns="http://www.w3.org/2000/svg"><g><g><path d="m256 7.5 47.067 211.045-47.067 220.918h-109.877c-101.451-40.525-99.13-72.052-99.13-222.945-.001-115.257 93.761-209.018 209.007-209.018z" fill="#50e1cd"/><path d="m365.877 439.463h-109.877v-363.695-68.268c115.246 0 209.008 93.761 209.008 209.018 0 150.893 2.321 182.42-99.131 222.945z" fill="#5c586f"/><path d="m112.666 176.685c0-54.42 15.045-104.058 39.78-141.676-62.947 36.056-105.453 103.908-105.453 181.509 0 150.894-2.321 182.42 99.13 222.945h109.877l10.676-50.108c-85.285-1.822-154.01-96.331-154.01-212.67z" fill="#00d1b3"/><path d="m161.461 504.5h-35.76c0-89.855 59.024-130.063 59.024-130.063h142.549s59.024 40.208 59.024 130.063h-35.76l-94.538-32.516z" fill="#ffd8d2"/><path d="m184.725 374.437h40.228v84.604h-40.228z" fill="#5c586f"/><path d="m287.047 374.437h40.228v84.604h-40.228z" fill="#5c586f" transform="matrix(-1 0 0 -1 614.321 833.477)"/><path d="m352.359 490.899c0 4.704-.634 9.265-1.82 13.601h-189.078c-1.186-4.336-1.82-8.897-1.82-13.601 0-28.367 22.384-51.058 50.751-51.426 11.739-.153 22.589 3.63 31.312 10.113 8.539 6.35 20.053 6.35 28.592 0 8.723-6.483 19.572-10.267 31.312-10.113 28.366.368 50.751 23.06 50.751 51.426z" fill="#50e1cd"/><path d="m428.582 201.557c-1.748-20.383-15.634-37.768-35.092-44.088-54.546-17.72-90.064-17.5-137.49-81.696-47.426 64.196-82.944 63.976-137.491 81.696-19.45 6.318-33.34 23.693-35.089 44.068-.522 6.073-.729 12.236-.606 18.473 1.851 93.569 78.708 169.252 172.295 169.723 96.077.484 174.113-77.254 174.113-173.219-.001-5.039-.217-10.028-.64-14.957z" fill="#ffd8d2"/><path d="m112.666 176.685c0-5.773.175-11.489.507-17.146-16.62 7.544-28.169 23.539-29.754 41.998-.522 6.073-.729 12.236-.606 18.473 1.851 93.57 78.708 169.252 172.295 169.724 4.08.021 8.124-.111 12.134-.368-85.546-1.416-154.576-96.085-154.576-212.681z" fill="#ffcabd"/><g><g><g><ellipse cx="149.63" cy="244.096" fill="#ff9db0" rx="39.248" ry="31.256"/></g><g><ellipse cx="362.37" cy="244.096" fill="#ff9db0" rx="39.248" ry="31.256"/></g></g></g><path d="m195.878 486.565c0-18.009 7.377-34.434 19.503-46.91-1.643-.136-3.305-.204-4.988-.182-28.367.368-50.751 23.06-50.751 51.426 0 4.704.634 9.265 1.82 13.6h36.935c-1.639-5.727-2.519-11.736-2.519-17.934z" fill="#00d1b3"/></g><g><path d="m172.501 221.508c4.142 0 7.5-3.358 7.5-7.5v-16.044c0-4.142-3.358-7.5-7.5-7.5s-7.5 3.358-7.5 7.5v16.044c0 4.142 3.358 7.5 7.5 7.5z"/><path d="m339.494 221.508c4.142 0 7.5-3.358 7.5-7.5v-16.044c0-4.142-3.358-7.5-7.5-7.5s-7.5 3.358-7.5 7.5v16.044c0 4.142 3.357 7.5 7.5 7.5z"/><path d="m255.997 231.059c10.604 0 20.688-4.593 27.667-12.601 2.721-3.123 2.396-7.86-.727-10.582-3.123-2.721-7.861-2.396-10.582.727-8.646 9.922-24.046 9.952-32.718 0-2.721-3.123-7.459-3.448-10.582-.727s-3.448 7.459-.727 10.582c6.981 8.008 17.065 12.601 27.669 12.601z"/><path d="m472.505 216.518c0-60.434-25.022-117.218-68.764-158.12-3.025-2.828-7.771-2.67-10.601.356s-2.67 7.772.355 10.601c40.614 37.975 64.009 90.761 64.009 147.163.052 142.734 1.934 174.205-80.223 210.061-9.296-20.095-22.289-37.619-36.256-50.499 64.012-34.221 101.224-102.892 95.026-175.163-2.01-23.438-17.808-43.292-40.247-50.581-55.595-18.058-87.188-17.208-132.308-77.051v-58.148c38.592 1.417 75.57 13.763 107.381 35.921 3.398 2.367 8.073 1.532 10.441-1.867 2.367-3.399 1.531-8.074-1.868-10.441-36.391-25.351-79.081-38.75-123.453-38.75-119.382 0-216.507 97.129-216.507 216.518l-.002 9.824c-.047 136.052-.043 174.974 89.578 214.125-6.329 17.559-10.866 38.899-10.866 64.033 0 4.142 3.358 7.5 7.5 7.5h260.597c4.142 0 7.5-3.358 7.5-7.5 0-25.134-4.537-46.474-10.866-64.033 91.878-40.138 89.609-80.241 89.574-223.949zm-128.077 280.482h-176.861c-5.36-39.661 39.098-64.108 69.659-41.396 11.227 8.351 26.315 8.351 37.542.001 31.11-23.12 75.083 2.448 69.66 41.395zm-64.884-101.283v40.248c-4.843 1.89-9.451 4.427-13.727 7.604-5.982 4.449-13.899 4.267-19.642-.001-4.047-3.01-8.753-5.661-13.725-7.6v-40.262c15.191 1.987 31.005 2.083 47.094.011zm-87.321-10.135c8.397 3.186 16.499 5.537 25.228 7.495v39.231c-8.199-.876-16.996-.042-25.228 2.671zm102.321 46.725v-39.176c8.608-1.86 17.034-4.344 25.228-7.428v49.275c-8.198-2.701-16.979-3.547-25.228-2.671zm-159.832-5.728c-80.286-35.039-80.271-65.842-80.225-200.231l.002-9.83c0-108.608 86.354-197.424 194.008-201.38v58.146c-43.614 58.28-75.471 58.59-132.309 77.051-22.436 7.289-38.232 27.134-40.245 50.56-3.683 42.92 7.771 85.866 33.993 121.788 2.803 3.842 8.418 4.13 11.611.621 2.349-2.58 2.643-6.539.506-9.466-24.084-32.993-34.542-72.387-31.164-111.659 1.483-17.277 13.147-32.124 29.934-37.577 56.287-18.286 90.296-19.502 135.174-76.463 46.167 58.611 83.043 59.525 135.174 76.463 16.62 5.399 28.435 20.102 29.936 37.596 6.043 70.415-33.26 136.624-96.933 165.404h-.001c-61.641 27.852-134.073 15.447-183.231-32.084-2.983-2.884-7.736-2.795-10.61.184-2.879 2.978-2.799 7.726.179 10.605 11.891 11.5 25.65 21.633 40.595 29.646-14.319 13.167-27.244 30.847-36.394 50.626zm-1.372 70.421c1.695-44.519 19.063-80.931 43.882-106.039v51.487c-16.217 11.253-25.084 29.497-25.084 48.452.033 2.102.087 3.919.314 6.1zm226.202 0c2.193-21.377-7.043-42.252-24.77-54.553v-51.489c25.527 25.824 42.226 62.539 43.882 106.042z"/></g></g></svg>