<svg id="Capa_1" enable-background="new 0 0 512 512" height="512" viewBox="0 0 512 512" width="512" xmlns="http://www.w3.org/2000/svg"><g><g><path d="m64.048 266.533c10.741 36.583 9.97 65.452 6.088 85.845-2.35 12.344 13.254 19.737 21.412 10.18 15.107-17.696 30.32-46.915 34.236-94.267z" fill="#4f4c5f"/><path d="m447.952 266.533c-10.741 36.583-9.97 65.452-6.088 85.845 2.35 12.344-13.254 19.737-21.412 10.18-15.107-17.696-30.32-46.915-34.236-94.267z" fill="#5c586f"/><path d="m43.479 220.023c0-26.525 4.887-51.942 13.801-75.372l198.72-32.049 198.72 32.048c8.914 23.429 13.801 48.847 13.801 75.372h-425.042z" fill="#5c586f"/><g><circle cx="427.263" cy="239.292" fill="#ffbe9c" r="48.317"/></g><path d="m308.273 504.499h-104.547l52.274-128.474z" fill="#d8d8d8"/><path d="m256 376.025c0 70.982-34.994 109.9-52.274 128.473h-76.438c0-88.748 58.299-128.473 58.299-128.473z" fill="#ff889e"/><path d="m384.712 504.499h-76.438c-17.28-18.574-52.274-57.492-52.274-128.474h70.412s58.3 39.726 58.3 128.474z" fill="#ff889e"/><path d="m185.591 376.025 13.892 31.886c8.11 18.615 34.513 18.615 42.624 0l13.893-31.886z" fill="#ff748f"/><path d="m326.409 376.025-13.892 31.886c-8.11 18.615-34.513 18.615-42.624 0l-13.893-31.886z" fill="#ff748f"/><path d="m119.803 208.728c0-26.634 4-52.202 11.332-75.988l-73.855 11.911c-8.914 23.43-13.801 48.847-13.801 75.372h76.569c-.159-3.743-.245-7.507-.245-11.295z" fill="#4f4c5f"/><circle cx="256" cy="220.024" fill="#ffd3bc" r="171.112"/><path d="m416.227 80.554-160.227 32.048-160.227-32.048c38.991-44.736 96.358-73.053 160.227-73.053s121.236 28.317 160.227 73.053z" fill="#5c586f"/><path d="m181.754 374.232c-38.184-41.775-61.952-100.479-61.952-165.504 0-45.971 11.884-88.781 32.338-124.687-33.596 25.699-57.38 63.563-64.794 107.012-.844-.048-1.71-.078-2.61-.078-26.685 0-48.317 21.632-48.317 48.317s21.632 48.316 48.317 48.316c5.252 0 9.521-.849 13.011-2.399 16.087 39.011 46.174 70.775 84.007 89.023z" fill="#ffbe9c"/><path d="m219.535 10.646c-49.036 8.515-92.361 33.879-123.762 69.908l52.528 10.506c17.417-33.131 41.965-60.847 71.234-80.414z" fill="#4f4c5f"/><path d="m454.72 144.651h-397.44c9.018-23.678 22.135-45.337 38.493-64.097h320.454c16.358 18.76 29.475 40.419 38.493 64.097z" fill="#ff889e"/><g><g><g><ellipse cx="152.786" cy="248.488" fill="#ff9db0" rx="38.084" ry="30.328"/></g><g><ellipse cx="359.214" cy="248.488" fill="#ff9db0" rx="38.084" ry="30.328"/></g></g></g><path d="m321.26 68.846c-1.279-6.3-6.21-11.23-12.51-12.51-15.654-3.179-32.551 1.294-44.692 13.436-14.663 14.663-18.142 36.262-10.464 54.231 17.969 7.678 39.568 4.198 54.231-10.464 12.141-12.142 16.614-29.039 13.435-44.693z" fill="#f9496e"/><path d="m247.942 69.772c-12.142-12.142-29.039-16.615-44.692-13.436-6.3 1.279-11.23 6.21-12.51 12.51-3.179 15.654 1.294 32.551 13.435 44.692 14.663 14.663 36.262 18.142 54.231 10.464 7.678-17.969 4.198-39.568-10.464-54.23z" fill="#fd5f7e"/><g fill="#ff748f"><circle cx="256" cy="137.45" r="29.189"/><path d="m154.158 80.554h-58.385c-16.358 18.76-29.476 40.419-38.493 64.097h70.499c5.882-23.068 14.851-44.643 26.379-64.097z"/></g></g><g><path d="m174.981 196.223c-4.142 0-7.5 3.358-7.5 7.5v15.568c0 4.142 3.358 7.5 7.5 7.5s7.5-3.358 7.5-7.5v-15.568c0-4.142-3.358-7.5-7.5-7.5z"/><path d="m337.018 196.223c-4.142 0-7.5 3.358-7.5 7.5v15.568c0 4.142 3.358 7.5 7.5 7.5s7.5-3.358 7.5-7.5v-15.568c0-4.142-3.358-7.5-7.5-7.5z"/><path d="m282.288 213.174c-3.123-2.722-7.86-2.397-10.582.726-3.965 4.549-9.689 7.159-15.706 7.159s-11.741-2.609-15.706-7.158c-2.721-3.123-7.459-3.448-10.582-.727s-3.448 7.459-.727 10.582c6.814 7.819 16.66 12.304 27.014 12.304s20.2-4.484 27.014-12.303c2.722-3.124 2.397-7.861-.725-10.583z"/><path d="m145.015 38.706c-2.291-3.451-6.946-4.391-10.396-2.1-37.233 24.72-67.463 61.037-84.348 105.374-1.465 5.072-12.666 30.136-14.122 69.888-4.593 8.106-7.229 17.459-7.229 27.422 0 22.702 13.631 42.267 33.131 50.979 4.034 21.585 4.28 41.989.717 60.705-1.694 8.902 2.662 17.52 10.84 21.444 8.332 3.997 17.804 1.849 23.644-4.992 8.289-9.709 15.274-21.108 20.856-34 14.836 18.007 33.128 33.063 53.845 44.158-5.87 5.42-13.781 13.729-21.679 25.123-13.907 20.062-30.485 54.007-30.485 101.79 0 4.142 3.358 7.5 7.5 7.5h45.751c.016 0 .032.002.048.002s.032-.002.048-.002h165.728c.016 0 .032.002.048.002s.032-.002.048-.002h45.75c4.142 0 7.5-3.358 7.5-7.5 0-22.663-3.702-44.248-11.002-64.153-1.427-3.889-5.736-5.884-9.624-4.459-3.889 1.427-5.885 5.735-4.459 9.624 5.887 16.05 9.221 33.337 9.938 51.488h-30.651v-32.424c0-4.142-3.358-7.5-7.5-7.5s-7.5 3.358-7.5 7.5v32.424h-19.865c-21.727-23.534-35.603-46.459-43.063-77.608 14.376 15.925 41.715 12.614 50.907-8.483l9.936-22.805c6.651 6.061 16.915 16.888 26.25 32.854 2.091 3.576 6.685 4.78 10.26 2.688 3.576-2.09 4.78-6.684 2.689-10.26-9.952-17.02-20.911-28.813-28.479-35.799 20.717-11.096 39.008-26.151 53.843-44.158 5.583 12.892 12.567 24.291 20.856 34 13.122 15.37 38.262 3.398 34.484-16.451-3.562-18.717-3.316-39.122.718-60.705 30.227-13.505 42.025-49.946 25.901-78.401-1.449-39.57-13.003-66.013-14.122-69.888-32.08-84.241-113.391-141.981-205.727-141.981-33.094 0-64.949 7.216-94.681 21.45-3.736 1.788-5.315 6.267-3.526 10.003 1.788 3.736 6.268 5.315 10.003 3.526 27.693-13.257 57.369-19.979 88.204-19.979 53.483 0 104.634 20.97 142.801 58.053h-69.333c-.117-1.186-.461-3.746-.857-5.702-1.884-9.274-9.093-16.482-18.367-18.366-18.765-3.809-38.002 1.996-51.487 15.482-1.242 1.242-1.948 2.05-2.755 2.956-.665-.761-1.901-2.101-2.755-2.956-13.5-13.501-32.75-19.289-51.488-15.482-9.273 1.883-16.483 9.093-18.367 18.367 0 .002-.001.005-.001.008-.375 1.852-.704 4.161-.856 5.693h-69.33c9.129-8.867 19.076-16.887 29.713-23.951 3.448-2.291 4.388-6.946 2.097-10.396zm-63.921 144.884c-10.381.663-20.15 4.147-28.408 9.95 1.825-14.121 5.113-27.97 9.834-41.391h28.23c-4.227 10.28-7.443 20.759-9.656 31.441zm-37.175 55.701c0-20.269 14.958-37.394 34.692-40.345-3.177 27.224-.198 54.994 9.099 81.04-23.389 1.77-43.791-16.89-43.791-40.695zm41.924 118.396c-2.229 2.61-4.961 1.584-5.747 1.208-.983-.472-3.203-1.914-2.594-5.116 3.511-18.447 3.68-38.271.515-59.075 5.286.633 10.585.493 15.558-.303 3.978 8.669 8.664 17.038 13.99 24.981-5.439 14.91-12.737 27.782-21.722 38.305zm114.177 31.997c12.147 4.014 24.658 6.684 37.445 7.993.189.02.378.039.568.058.104.01.208.022.313.032l-3.114 7.147c-5.509 12.648-23.362 12.648-28.872 0l-6.683-15.34c.113.039.229.072.343.11zm-37.809 22.135c7.549-10.999 15.155-18.854 20.469-23.7l9.928 22.787c9.188 21.088 36.526 24.415 50.907 8.483-7.379 30.811-21.445 54.267-43.062 77.608h-19.865v-32.424c0-4.142-3.358-7.5-7.5-7.5s-7.5 3.358-7.5 7.5v32.424h-30.656c1.232-31.953 10.393-60.576 27.279-85.178zm58.233 85.179c17.34-20.772 28.845-43.052 35.555-66.258 6.687 23.062 18.178 45.442 35.555 66.258zm85.196-92.083c-5.509 12.648-23.362 12.648-28.872 0l-3.114-7.147c.106-.01.211-.022.316-.033l.561-.057c12.792-1.31 25.309-3.981 37.46-7.997.11-.037.222-.069.332-.105zm-24.47-23.217c-16.232 2.49-33.114 2.643-50.342 0-106.48-16.512-168.782-130.843-123.713-229.549h115.257c5.732 13.15 18.926 21.979 33.606 21.988.007 0 .014.001.021.001s.014-.001.021-.001c14.66-.009 27.864-8.804 33.606-21.988h115.257c45.172 98.92-17.511 213.081-123.713 229.549zm-25.17-265.938c11.938 0 21.689 9.715 21.689 21.688 0 12.197-9.953 21.679-21.675 21.689-.005 0-.01 0-.015 0s-.01 0-.015 0c-12.028-.011-21.627-9.784-21.672-21.603 0-.029-.002-.057-.002-.086 0-.008 0-.016 0-.024.015-12.049 9.837-21.664 21.69-21.664zm203.313 77.781c-8.258-5.803-18.027-9.287-28.408-9.95-2.204-10.641-5.408-21.104-9.655-31.441h28.229c4.721 13.421 8.009 27.269 9.834 41.391zm-25.332 101.163c-3.165 20.803-2.996 40.626.515 59.075.917 4.82-5.175 7.616-8.34 3.908-8.984-10.523-16.282-23.396-21.722-38.305 5.326-7.943 10.012-16.313 13.99-24.981 5.139.821 10.423.917 15.557.303zm-9.692-14.719c9.527-26.692 12.194-54.517 9.099-81.04 10.94 1.636 21.121 7.814 27.695 17.528 19.006 28.179-2.987 66.043-36.794 63.512zm-11.51-191.932c12.579 14.907 22.887 31.372 30.745 49.097-23.674 0-132.216 0-150.836 0-.011-1.332-.158-3.503-.39-5.063 18.72-6.67 33.252-23.424 36.683-44.033h83.798zm-104.299-24.024c2.586.934 4.814 3.274 5.43 6.308 4.145 20.422-7.271 40.614-26.796 47.66-3.814-6.126-9.92-11.544-17.262-14.531-.141-7.502-1.872-15.446-5.229-22.703 7.083-10.163 17.96-16.4 29.733-17.679 6.074-.66 12.269.269 14.124.945zm-53.795 36.754c-11.992.4-23.267 6.673-29.807 17.211-18.119-6.42-30.034-25.072-27.215-45.163.37-2.61.676-4.49 2.435-6.461 1.198-1.341 2.801-2.311 4.645-2.686 24.53-4.99 47.827 12.653 49.942 37.099zm-71.666-12.73c3.311 19.89 16.974 36.825 36.683 44.033-.218 1.48-.379 3.609-.39 5.063-17.762 0-127.44 0-150.836 0 7.858-17.725 18.167-34.19 30.745-49.097h83.798z"/></g></g></svg>