<svg id="Capa_1" enable-background="new 0 0 512 512" height="512" viewBox="0 0 512 512" width="512" xmlns="http://www.w3.org/2000/svg"><g><g><path d="m327.579 371.336h-143.158s-66.294 35.848-66.294 133.164h56.34l81.533-22.365 81.533 22.365h56.34c0-97.317-66.294-133.164-66.294-133.164z" fill="#50e1cd"/><path d="m46.962 182.053v100.195c0 32.077 26.003 58.08 58.08 58.08h301.916c32.077 0 58.08-26.003 58.08-58.08v-100.195z" fill="#ff889e"/><path d="m307.531 428.241h-103.062c-16.57 0-30.002 13.432-30.002 30.002v46.257h163.066v-46.257c0-16.569-13.432-30.002-30.002-30.002z" fill="#ff889e"/><path d="m204.184 451.756c0-8.181 1.301-16.073 3.699-23.515h-3.414c-16.57 0-30.002 13.433-30.002 30.002v46.257h50.533c-12.959-14.15-20.816-32.576-20.816-52.744z" fill="#ff748f"/><path d="m184.421 371.336v56.906c0 12.406 10.057 22.463 22.463 22.463 12.406 0 22.463-10.057 22.463-22.463v-56.906z" fill="#fff"/><path d="m327.579 371.336v56.906c0 12.406-10.057 22.463-22.463 22.463-12.406 0-22.463-10.057-22.463-22.463v-56.906z" fill="#fff"/><path d="m115.913 202.438c0-6.873.295-13.668.842-20.385h-69.793v100.195c0 32.077 26.003 58.08 58.08 58.08h53.612c-26.793-38.159-42.741-85.976-42.741-137.89z" fill="#ff748f"/><circle cx="256" cy="218.301" fill="#ffd8d2" r="168.919"/><path d="m115.913 202.438c0-38.924 8.961-75.549 24.738-107.525-32.961 30.827-53.57 74.697-53.57 123.388 0 68.117 40.323 126.808 98.398 153.528-42.658-41.412-69.566-101.946-69.566-169.391z" fill="#ffcabd"/><path d="m47.071 144.462c11.014-25.239 26.476-48.099 45.408-67.613 1.235-1.259 113.619-41.02 113.619-41.02h124.695l88.728 41.02c18.932 19.514 34.394 42.374 45.408 67.613l-30.449 32.128h-359.515z" fill="#00d1b3"/><path d="m171.318 48.175c-33.12 11.789-78.06 27.88-78.839 28.674-18.932 19.514-34.394 42.374-45.408 67.613l27.894 32.128h42.296c5.121-49.391 24.732-93.945 54.057-128.415z" fill="#00c4a2"/><path d="m434.879 213.426h-357.758c-26.725 0-45.46-26.31-36.815-51.591 2.016-5.902 4.271-11.69 6.764-17.363v-.01c6.442-3.138 13.425-4.707 20.418-4.707 8.136 0 16.282 2.13 23.556 6.39 7.284 4.26 15.42 6.39 23.566 6.39s16.282-2.13 23.566-6.39 15.42-6.39 23.566-6.39 16.283 2.13 23.566 6.39c7.274 4.26 15.42 6.39 23.556 6.39 8.146 0 16.293-2.13 23.566-6.39 7.274-4.26 15.42-6.39 23.566-6.39s16.293 2.13 23.566 6.39c7.274 4.26 15.42 6.39 23.566 6.39 8.136 0 16.283-2.13 23.556-6.39 7.284-4.26 15.42-6.39 23.566-6.39s16.282 2.13 23.566 6.39 15.42 6.39 23.566 6.39 16.282-2.13 23.566-6.39c13.518-7.918 30.03-8.479 43.974-1.683v.01c2.494 5.673 4.749 11.461 6.764 17.363 8.653 25.281-10.082 51.591-36.807 51.591z" fill="#50e1cd"/><path d="m419.521 76.849c-6.91 3.73-14.516 5.59-22.133 5.59-8.146 0-16.282-2.13-23.566-6.39s-15.42-6.39-23.566-6.39-16.283 2.13-23.566 6.39c-7.274 4.26-15.42 6.39-23.556 6.39-8.146 0-16.293-2.13-23.566-6.39-7.274-4.26-15.42-6.39-23.566-6.39s-16.293 2.13-23.566 6.39c-7.274 4.26-15.42 6.39-23.566 6.39-8.136 0-16.283-2.13-23.556-6.39-7.284-4.26-15.42-6.39-23.566-6.39s-16.282 2.13-23.566 6.39-15.42 6.39-23.566 6.39c-7.617 0-15.223-1.86-22.133-5.59 41.424-42.748 99.416-69.349 163.517-69.349s122.093 26.601 163.521 69.349z" fill="#50e1cd"/><g fill="#00d1b3"><path d="m115.913 202.438c0-17.31 1.778-34.164 5.134-50.358-2.135.297-4.284.456-6.435.456-8.146 0-16.282-2.13-23.566-6.39-7.274-4.26-15.42-6.39-23.556-6.39-6.993 0-13.976 1.569-20.418 4.707v.01c-2.494 5.673-4.749 11.461-6.764 17.363-8.645 25.281 10.09 51.591 36.815 51.591h39.037c-.16-3.642-.247-7.305-.247-10.989z"/><path d="m154.812 70.196c15.156-23.032 34.158-42.811 55.985-58.178-45.927 9.28-86.891 32.402-118.318 64.831 6.91 3.73 14.516 5.59 22.133 5.59 8.146 0 16.282-2.13 23.566-6.39 5.211-3.048 10.86-4.986 16.634-5.853z"/></g></g><g><path d="m170.56 240.687c-4.142 0-7.5 3.358-7.5 7.5v16.418c0 4.142 3.358 7.5 7.5 7.5s7.5-3.358 7.5-7.5v-16.418c0-4.143-3.358-7.5-7.5-7.5z"/><path d="m341.439 240.687c-4.142 0-7.5 3.358-7.5 7.5v16.418c0 4.142 3.358 7.5 7.5 7.5s7.5-3.358 7.5-7.5v-16.418c0-4.143-3.358-7.5-7.5-7.5z"/><path d="m283.453 258.461c-3.123-2.721-7.86-2.396-10.582.727-4.258 4.887-10.408 7.689-16.871 7.689s-12.613-2.803-16.872-7.689c-2.722-3.123-7.459-3.447-10.582-.727-3.123 2.722-3.448 7.459-.727 10.582 7.108 8.156 17.379 12.834 28.18 12.834 10.8 0 21.071-4.678 28.18-12.834 2.722-3.123 2.396-7.86-.726-10.582z"/><path d="m255.999 0c-22.731 0-45.244 3.264-66.913 9.7-3.97 1.179-6.233 5.354-5.054 9.325s5.354 6.232 9.325 5.054c20.283-6.024 41.359-9.079 62.642-9.079 56.204 0 108.996 20.861 149.891 58.981-2.811.628-5.599.958-8.502.958-18.264 0-21.128-10.447-41.755-12.512-11.588-1.16-23.037 1.477-32.735 7.15-12.198 7.144-27.328 7.152-39.542 0-16.87-9.883-37.819-9.898-54.714 0-12.073 7.071-27.205 7.226-39.545-.002-16.754-9.801-37.658-9.974-54.706 0-8.102 4.738-18.083 6.685-28.278 4.408 17.045-15.868 36.333-28.844 57.474-38.654 3.757-1.743 5.39-6.203 3.646-9.96-1.743-3.757-6.203-5.39-9.96-3.646-57.023 26.457-102.915 75.78-124.064 137.686-4.87 14.242-2.786 29.617 6.252 42.215v80.624c0 36.161 29.419 65.581 65.581 65.581h31.317c10.146 9.378 21.39 17.58 33.518 24.393-6.711 5.222-15.69 13.31-24.612 24.71-15.802 20.19-34.639 55.243-34.639 107.568 0 4.142 3.358 7.5 7.5 7.5h275.747c4.142 0 7.5-3.358 7.5-7.5 0-27.208-5.04-52.355-14.978-74.741-1.681-3.786-6.111-5.491-9.898-3.812-3.786 1.681-5.492 6.113-3.812 9.898 8.171 18.403 12.718 38.942 13.549 61.154h-41.201v-38.757c0-9.568-3.665-18.817-10.253-25.766.57-3.982.173-5.286.299-46.671 6.621 5.425 15.333 13.781 23.639 25.469 2.399 3.376 7.081 4.168 10.458 1.769 3.376-2.399 4.168-7.082 1.769-10.458-10.254-14.429-21.061-24.318-28.825-30.363 12.128-6.813 23.374-15.015 33.52-24.394h31.318c36.161 0 65.58-29.419 65.58-65.581v-80.624c8.652-11.991 11.329-27.37 6.253-42.213-31.802-93.113-120.077-159.41-222.792-159.41zm-182.441 205.725c-19.539-2.203-32.798-22.038-26.155-41.465 1.628-4.764 3.438-9.506 5.395-14.131 10.88-4.397 23.612-3.864 34.46 2.491 16.612 9.716 37.512 10.057 54.706 0 12.036-7.04 27.167-7.249 39.556-.002 16.878 9.885 37.808 9.895 54.704 0 12.194-7.143 27.34-7.153 39.552 0 13.413 7.855 25.278 7.139 27.357 7.418 1.15-.155 13.647.604 27.343-7.417 12.495-7.309 27.637-6.973 39.56 0 17.082 9.99 37.981 9.779 54.709-.002 10.458-6.124 23.22-7.057 34.452-2.497 1.959 4.628 3.771 9.372 5.4 14.142 6.644 19.427-6.63 39.262-26.156 41.463-2.655.295-361.167.41-364.883 0zm237.442 164.347c-.038.014-.075.028-.113.041-35.331 12.807-74.523 12.788-109.787-.004-.028-.01-.056-.021-.085-.031-62.145-22.581-105.372-81.544-106.403-149.152h322.773c-1.026 67.384-44.065 126.493-106.385 149.146zm-5.884 73.132c-8.25 0-14.963-6.712-14.963-14.963v-36.835c9.493-1.864 19.877-4.779 29.925-8.699-.05 47.974.108 45.424-.116 47.314-.911 7.623-7.387 13.183-14.846 13.183zm-113.196-14.963v-45.534c9.814 3.828 20.194 6.786 29.925 8.698v36.835c0 8.25-6.712 14.963-14.962 14.963-8.299.001-14.963-6.742-14.963-14.962zm44.925-34.561c12.073 1.334 25.098 1.418 38.309 0v27.061h-38.309zm-142.648-307.742c15.115 6.145 32.792 5.342 47.768-3.416 12.212-7.144 27.323-7.157 39.556-.002 16.929 9.915 37.861 9.864 54.704 0 12.193-7.143 27.34-7.153 39.552 0 16.875 9.883 37.809 9.894 54.699.002 12.217-7.145 27.326-7.156 39.561 0 14.582 8.528 32.245 9.726 47.766 3.416 13.086 14.144 24.174 29.781 33.105 46.68-11.479-1.368-23.375 1.001-33.683 7.022-12.162 7.135-27.326 7.219-39.615.031-16.717-9.776-37.651-9.975-54.71.002-6.028 3.53-12.957 5.362-19.766 5.362-19.758 0-22.165-12.51-47.133-12.781-24.644 0-27.195 12.781-47.133 12.781-18.62 0-21.5-11.004-43.084-12.624-26.938-2.025-30.573 12.624-51.171 12.624-18.919 0-20.673-10.722-42.556-12.58-3.689-.313-7.552-.229-10.975.184 8.932-16.906 20.023-32.551 33.115-46.701zm10.845 246.891c-27.89 0-50.581-22.69-50.581-50.581v-67.18c12.395 6.942 24.34 5.739 25.138 5.859.588 40.449 14.674 79.821 42.183 111.902zm51.663 73.826c7.22-9.31 14.497-16.176 20.215-20.857.116 42.303-.252 42.801.299 46.679-13.902 14.672-9.47 24.764-10.253 64.523h-41.204c1.286-35.139 11.679-65.505 30.943-90.345zm27.69 41.426c5.873 6.675 14.198 10.124 22.488 10.124 13.636 0 25.57-9.269 29.012-22.463h40.209c3.407 13.062 15.233 22.463 29.013 22.463 8.466 0 16.715-3.563 22.487-10.123 1.596 3.141 2.429 6.621 2.429 10.162v38.756h-148.067c.014-41.332-.867-42.398 2.429-48.919zm222.562-115.252h-16.74c27.139-31.651 41.586-70.872 42.183-111.902 1.273-.17 12.616 1.154 25.138-5.858v67.18c-.001 27.889-22.691 50.58-50.581 50.58z"/></g></g></svg>