<?xml version="1.0" encoding="iso-8859-1"?>
<!-- Generator: Adobe Illustrator 19.0.0, SVG Export Plug-In . SVG Version: 6.00 Build 0)  -->
<svg version="1.1" id="Capa_1" xmlns="http://www.w3.org/2000/svg" xmlns:xlink="http://www.w3.org/1999/xlink" x="0px" y="0px"
	 viewBox="0 0 511.998 511.998" style="enable-background:new 0 0 511.998 511.998;" xml:space="preserve">
<path style="fill:#A1513D;" d="M308.926,363.444h-10.827V267.73h-84.2v95.714h-10.827c-41.621,0-75.362,33.741-75.362,75.362V504.5
	h256.578v-65.695C384.288,397.184,350.547,363.444,308.926,363.444z"/>
<path style="fill:#884130;" d="M308.926,363.444h-22.632c41.621,0,75.362,33.741,75.362,75.362V504.5h22.632v-65.695
	C384.288,397.184,350.547,363.444,308.926,363.444z"/>
<path style="fill:#FB403F;" d="M368.809,504.5h-225.62l8.727-11.004c6.762-8.526,10.443-19.089,10.443-29.971V375.37
	c7.74-4.97,16.44-8.57,25.77-10.45c3.49,40.76,30.76,74.73,67.87,88c37.11-13.27,64.38-47.24,67.87-88
	c9.33,1.88,18.03,5.48,25.77,10.45v88.155c0,10.882,3.68,21.445,10.443,29.971L368.809,504.5z"/>
<g>
	<path style="fill:#F0EEEE;" d="M349.639,416.439V375.37c-7.74-4.97-16.44-8.57-25.77-10.45
		c-1.215,14.193-5.32,27.558-11.713,39.517C325.072,407.447,337.592,411.484,349.639,416.439z"/>
	<path style="fill:#F0EEEE;" d="M199.842,404.436c-6.393-11.959-10.498-25.324-11.713-39.517c-9.33,1.88-18.03,5.48-25.77,10.45
		v41.069C174.406,411.484,186.926,407.447,199.842,404.436z"/>
</g>
<path style="fill:#D9D4D4;" d="M347.499,374.064c-0.635-0.379-1.278-0.746-1.925-1.107c-0.407-0.227-0.815-0.454-1.227-0.674
	c-0.627-0.335-1.262-0.656-1.9-0.973c-0.436-0.217-0.871-0.435-1.312-0.644c-0.64-0.303-1.288-0.591-1.937-0.876
	c-0.445-0.195-0.887-0.394-1.336-0.581c-0.675-0.281-1.359-0.544-2.044-0.806c-0.432-0.165-0.861-0.336-1.297-0.494
	c-0.738-0.267-1.487-0.513-2.236-0.757c-0.392-0.128-0.78-0.264-1.174-0.385c-0.854-0.263-1.718-0.501-2.585-0.734
	c-0.298-0.08-0.591-0.17-0.89-0.246c-1.113-0.284-2.237-0.543-3.369-0.777c-0.057-0.012-0.112-0.027-0.169-0.038
	c-0.077-0.016-0.155-0.026-0.232-0.042c-0.231,2.692-0.572,5.352-1.006,7.98c10.859,6.039,20.06,14.685,26.777,25.091v-22.6
	c-0.35-0.225-0.698-0.454-1.052-0.674C348.227,374.504,347.865,374.282,347.499,374.064z"/>
<path style="fill:#696970;" d="M117.757,145.742v88.635h276.484v-88.635C394.241,69.393,332.348,7.5,255.999,7.5l0,0
	C179.65,7.5,117.757,69.393,117.757,145.742z"/>
<path style="fill:#484655;" d="M255.999,7.5L255.999,7.5c-3.959,0-7.876,0.176-11.75,0.502
	c70.848,5.964,126.492,65.35,126.492,137.74v88.635h23.5v-88.635C394.241,69.393,332.348,7.5,255.999,7.5z"/>
<path style="fill:#A1513D;" d="M125.838,220.99h49.369v56.61h-49.369c-15.632,0-28.305-12.673-28.305-28.305
	S110.206,220.99,125.838,220.99z"/>
<path style="fill:#884130;" d="M386.16,220.99h-49.369v56.61h49.369c15.632,0,28.305-12.673,28.305-28.305
	S401.792,220.99,386.16,220.99z"/>
<path style="fill:#B45F4A;" d="M347.12,112.886c-13.525-11.302-32.516-12.886-48.289-5.019c-10.885,5.429-26.051,8.799-42.832,8.799
	s-31.947-3.37-42.832-8.799c-15.773-7.868-34.764-6.284-48.289,5.019c-12.831,10.722-20.994,26.842-20.994,44.874v72.915
	c0,61.919,50.195,112.115,112.115,112.115l0,0c61.919,0,112.115-50.195,112.115-112.115V157.76
	C368.114,139.729,359.951,123.609,347.12,112.886z"/>
<path style="fill:#A1513D;" d="M347.12,112.886c-0.762-0.637-1.545-1.239-2.341-1.815v131.271
	c0,53.578-41.949,97.354-94.794,100.286h0.001c0.98,0.052,1.963,0.091,2.95,0.118c0.001,0,0.002,0,0.003,0
	c0.016,0,0.031,0.001,0.047,0.002c1.001,0.027,2.005,0.041,3.013,0.041l0,0c1.291,0,2.574-0.03,3.854-0.073
	c0.32-0.011,0.64-0.023,0.959-0.036c2.554-0.108,5.085-0.301,7.591-0.577c0.312-0.034,0.624-0.07,0.936-0.107
	c1.25-0.148,2.496-0.309,3.733-0.498c0.017-0.003,0.033-0.006,0.05-0.008c0.87-0.133,1.735-0.277,2.598-0.43
	c0.294-0.052,0.586-0.111,0.879-0.165c0.585-0.109,1.17-0.218,1.751-0.336c0.345-0.07,0.688-0.145,1.032-0.218
	c0.527-0.112,1.053-0.224,1.577-0.343c0.363-0.083,0.724-0.169,1.086-0.256c0.503-0.12,1.004-0.241,1.504-0.367
	c0.369-0.093,0.737-0.19,1.105-0.287c0.489-0.129,0.977-0.261,1.463-0.396c0.369-0.103,0.738-0.207,1.105-0.314
	c0.487-0.141,0.972-0.286,1.456-0.433c0.358-0.109,0.717-0.218,1.074-0.331c0.496-0.156,0.989-0.318,1.482-0.481
	c0.341-0.113,0.683-0.224,1.022-0.34c0.515-0.176,1.028-0.359,1.539-0.542c0.313-0.112,0.628-0.221,0.939-0.336
	c0.586-0.216,1.167-0.44,1.749-0.665c0.232-0.09,0.466-0.176,0.697-0.267c0.81-0.32,1.615-0.649,2.416-0.987
	c0.165-0.07,0.328-0.144,0.493-0.214c0.635-0.272,1.268-0.547,1.897-0.83c0.287-0.129,0.572-0.264,0.857-0.396
	c0.503-0.231,1.005-0.463,1.503-0.702c0.318-0.152,0.633-0.309,0.949-0.464c0.464-0.228,0.927-0.456,1.387-0.689
	c0.326-0.166,0.65-0.335,0.974-0.503c0.445-0.232,0.89-0.465,1.332-0.703c0.327-0.176,0.653-0.354,0.979-0.533
	c0.436-0.24,0.87-0.483,1.303-0.728c0.322-0.183,0.644-0.367,0.964-0.553c0.433-0.251,0.863-0.507,1.292-0.764
	c0.313-0.188,0.627-0.375,0.938-0.566c0.438-0.268,0.873-0.542,1.307-0.816c0.294-0.186,0.59-0.37,0.883-0.559
	c0.466-0.3,0.927-0.606,1.388-0.913c0.255-0.17,0.513-0.337,0.767-0.509c0.569-0.386,1.134-0.78,1.696-1.176
	c0.141-0.099,0.284-0.195,0.424-0.295c0.699-0.498,1.392-1.003,2.08-1.517c0.198-0.148,0.393-0.301,0.59-0.45
	c0.487-0.369,0.974-0.739,1.455-1.116c0.258-0.202,0.512-0.408,0.768-0.612c0.416-0.331,0.831-0.663,1.242-1
	c0.274-0.225,0.545-0.453,0.817-0.681c0.387-0.324,0.774-0.649,1.157-0.978c0.277-0.238,0.552-0.479,0.826-0.719
	c0.373-0.327,0.744-0.656,1.113-0.987c0.275-0.247,0.548-0.496,0.82-0.746c0.363-0.333,0.724-0.669,1.083-1.008
	c0.268-0.253,0.535-0.506,0.801-0.761c0.36-0.347,0.718-0.697,1.073-1.048c0.255-0.252,0.512-0.503,0.764-0.758
	c0.366-0.368,0.728-0.742,1.089-1.115c0.236-0.244,0.474-0.486,0.708-0.733c0.39-0.411,0.775-0.828,1.159-1.245
	c0.197-0.214,0.397-0.425,0.593-0.641c1.15-1.269,2.272-2.564,3.364-3.884c0.182-0.22,0.359-0.443,0.539-0.664
	c0.362-0.445,0.724-0.89,1.079-1.34c0.209-0.265,0.414-0.534,0.621-0.8c0.32-0.413,0.639-0.826,0.953-1.243
	c0.216-0.286,0.428-0.575,0.641-0.864c0.298-0.404,0.595-0.81,0.888-1.218c0.214-0.299,0.426-0.599,0.637-0.9
	c0.286-0.407,0.569-0.815,0.849-1.225c0.208-0.304,0.414-0.61,0.619-0.916c0.277-0.414,0.55-0.831,0.822-1.249
	c0.2-0.307,0.399-0.615,0.596-0.925c0.271-0.427,0.538-0.857,0.803-1.287c0.188-0.305,0.377-0.609,0.563-0.916
	c0.275-0.456,0.544-0.915,0.813-1.376c0.167-0.285,0.335-0.568,0.499-0.854c0.306-0.535,0.605-1.075,0.903-1.616
	c0.119-0.216,0.242-0.429,0.359-0.646c0.412-0.759,0.815-1.524,1.21-2.293c0.078-0.152,0.152-0.307,0.229-0.459
	c0.314-0.619,0.624-1.239,0.927-1.865c0.137-0.282,0.268-0.567,0.402-0.851c0.237-0.501,0.474-1.002,0.704-1.507
	c0.146-0.32,0.286-0.642,0.429-0.964c0.21-0.474,0.42-0.948,0.624-1.426c0.144-0.338,0.285-0.677,0.426-1.017
	c0.194-0.468,0.387-0.936,0.575-1.408c0.138-0.346,0.274-0.694,0.41-1.043c0.182-0.469,0.361-0.939,0.537-1.412
	c0.131-0.353,0.262-0.705,0.389-1.06c0.172-0.477,0.34-0.955,0.505-1.435c0.121-0.35,0.242-0.7,0.36-1.052
	c0.166-0.496,0.326-0.994,0.485-1.493c0.108-0.339,0.218-0.678,0.323-1.018c0.165-0.536,0.323-1.075,0.48-1.614
	c0.089-0.306,0.182-0.611,0.269-0.918c0.191-0.675,0.373-1.354,0.551-2.035c0.046-0.174,0.095-0.347,0.14-0.521
	c0.22-0.856,0.429-1.715,0.629-2.579c0.056-0.244,0.107-0.49,0.162-0.735c0.139-0.621,0.278-1.243,0.407-1.868
	c0.068-0.331,0.131-0.665,0.196-0.997c0.107-0.542,0.213-1.084,0.312-1.629c0.066-0.364,0.127-0.73,0.19-1.095
	c0.089-0.518,0.176-1.037,0.258-1.558c0.059-0.378,0.115-0.758,0.17-1.137c0.075-0.513,0.148-1.027,0.216-1.542
	c0.051-0.384,0.099-0.769,0.146-1.155c0.063-0.517,0.122-1.035,0.178-1.554c0.041-0.384,0.082-0.768,0.119-1.154
	c0.051-0.527,0.097-1.056,0.141-1.585c0.031-0.379,0.064-0.757,0.091-1.137c0.04-0.552,0.073-1.106,0.105-1.66
	c0.021-0.358,0.044-0.715,0.062-1.074c0.03-0.614,0.05-1.23,0.07-1.846c0.01-0.303,0.024-0.604,0.031-0.907
	c0.022-0.919,0.035-1.841,0.035-2.766V157.76C368.114,139.729,359.951,123.609,347.12,112.886z"/>
<path d="M340.583,315.253c8.906-8.907,16.267-19.037,21.941-30.153h23.635c19.745,0,35.81-16.064,35.81-35.81
	c0-13.782-8.085-26.325-20.229-32.231V145.74C401.739,65.379,336.36,0,255.999,0c-19.662,0-38.749,3.852-56.732,11.453
	c-17.357,7.346-32.941,17.854-46.321,31.233c-2.929,2.93-2.929,7.678,0,10.607c2.93,2.928,7.678,2.928,10.607,0
	c12.007-12.008,25.99-21.438,41.557-28.025C221.231,18.455,238.354,15,255.999,15c72.091,0,130.74,58.649,130.74,130.74v67.771
	c-0.194-0.003-0.386-0.021-0.58-0.021h-10.55v-55.73c0-19.598-8.632-38.05-23.678-50.623c-15.532-12.994-37.692-15.338-56.451-5.978
	c-10.201,5.091-24.591,8.011-39.481,8.011s-29.28-2.92-39.48-8.011c-18.759-9.361-40.918-7.016-56.448,5.976
	c-15.05,12.575-23.682,31.027-23.682,50.625v55.73h-10.55c-0.194,0-0.386,0.018-0.58,0.021V145.74
	c0-24.919,7.029-49.14,20.328-70.045c2.224-3.495,1.192-8.13-2.303-10.354c-3.492-2.222-8.129-1.193-10.354,2.303
	c-14.831,23.316-22.671,50.321-22.671,78.096v71.318c-12.144,5.906-20.23,18.449-20.23,32.231c0,19.745,16.064,35.81,35.81,35.81
	h23.636c12.331,24.142,32.287,43.227,56.925,54.441v16.399h-3.33c-5.474,0-10.821,0.547-16.002,1.565
	c-0.14,0.02-0.281,0.033-0.42,0.062c-1.431,0.288-2.847,0.623-4.254,0.985c-0.014,0.004-0.027,0.008-0.042,0.011
	c-8.514,2.192-16.587,5.706-24.045,10.496c-0.258,0.166-0.502,0.348-0.735,0.541c-22.486,14.835-37.362,40.311-37.362,69.209v65.69
	c0,4.143,3.357,7.5,7.5,7.5h15.479h225.62h15.48c4.143,0,7.5-3.357,7.5-7.5v-65.69c0-1.75-0.057-3.534-0.174-5.456
	c-0.253-4.135-3.808-7.268-7.942-7.03c-4.135,0.252-7.282,3.808-7.03,7.942c0.099,1.615,0.146,3.102,0.146,4.544V497h-4.356
	l-6.475-8.164c-5.688-7.171-8.819-16.159-8.819-25.311v-47.087v-25.451c4.971,5.034,9.21,10.901,12.503,17.48
	c1.315,2.626,3.963,4.145,6.713,4.145c1.128,0,2.273-0.256,3.352-0.795c3.704-1.855,5.203-6.36,3.35-10.065
	c-14.146-28.258-42.55-45.813-74.127-45.813h-3.33v-16.4C318.618,333.616,330.369,325.467,340.583,315.253z M386.159,228.49
	c2.025,0,4.024,0.289,5.942,0.858c8.754,2.604,14.867,10.804,14.867,19.941c0,11.475-9.335,20.81-20.81,20.81h-17.205
	c0.018-0.052,0.033-0.105,0.051-0.156c0.435-1.249,0.845-2.505,1.237-3.767c0.092-0.297,0.181-0.595,0.271-0.893
	c0.343-1.133,0.67-2.27,0.978-3.413c0.047-0.174,0.098-0.348,0.144-0.522c0.337-1.272,0.648-2.551,0.942-3.833
	c0.072-0.315,0.141-0.631,0.211-0.947c0.261-1.183,0.507-2.37,0.732-3.562c0.026-0.136,0.055-0.272,0.08-0.408
	c0.24-1.3,0.454-2.606,0.651-3.916c0.049-0.322,0.094-0.645,0.14-0.967c0.179-1.256,0.343-2.514,0.481-3.778
	c0.009-0.078,0.02-0.155,0.028-0.233c0.143-1.328,0.257-2.662,0.356-3.998c0.024-0.326,0.046-0.652,0.068-0.978
	c0.089-1.345,0.164-2.693,0.208-4.046c0.051-1.271,0.076-2.581,0.076-4.004v-2.189h10.552V228.49z M125.839,270.1
	c-11.475,0-20.81-9.335-20.81-20.81c0-9.138,6.113-17.338,14.865-19.94c1.92-0.57,3.919-0.859,5.944-0.859h10.55v2.189
	c0,1.423,0.025,2.732,0.074,3.943c0.044,1.356,0.119,2.706,0.208,4.053c0.022,0.332,0.045,0.663,0.069,0.995
	c0.099,1.336,0.213,2.67,0.355,3.997c0.009,0.085,0.021,0.171,0.031,0.256c0.138,1.258,0.301,2.511,0.478,3.76
	c0.046,0.328,0.093,0.656,0.143,0.983c0.197,1.31,0.41,2.616,0.65,3.916c0.025,0.137,0.055,0.273,0.08,0.41
	c0.225,1.194,0.472,2.382,0.733,3.567c0.07,0.316,0.139,0.631,0.211,0.946c0.294,1.284,0.605,2.564,0.942,3.837
	c0.046,0.176,0.098,0.351,0.145,0.526c0.307,1.139,0.633,2.273,0.975,3.402c0.092,0.303,0.182,0.607,0.276,0.91
	c0.39,1.254,0.797,2.503,1.229,3.745c0.02,0.057,0.036,0.115,0.056,0.172h-17.204V270.1z M160.969,274.457
	c-5.855-12.692-9.057-26.258-9.516-40.381c-0.043-1.066-0.064-2.178-0.064-3.396v-9.689v-63.23c0-15.141,6.67-29.397,18.303-39.117
	c6.451-5.396,14.564-8.168,22.885-8.168c5.812,0,11.726,1.353,17.244,4.106c12.391,6.184,28.79,9.589,46.179,9.589
	s33.788-3.405,46.179-9.589c13.423-6.699,29.175-5.104,40.133,4.063c11.629,9.718,18.299,23.975,18.299,39.115v63.23v9.689
	c0,1.219-0.022,2.33-0.066,3.457c-0.085,2.636-0.268,5.256-0.545,7.855c-1.112,10.396-3.758,20.475-7.903,30.079
	c-0.345,0.799-0.7,1.594-1.065,2.386c0,0.001-0.001,0.001-0.001,0.001c-0.001,0.002-0.002,0.004-0.002,0.005
	c-5.169,11.228-12.251,21.383-21.051,30.183c-9.996,9.996-21.668,17.739-34.695,23.014c-0.032,0.013-0.064,0.025-0.096,0.038
	c-0.002,0.001-0.004,0.002-0.006,0.002c-12.45,5.035-25.631,7.59-39.179,7.59c-13.575,0-26.791-2.567-39.283-7.631
	C191.971,317.632,172.173,298.737,160.969,274.457z M169.859,379.657c3.763-2.122,7.747-3.892,11.909-5.272
	c1.441,8.626,3.897,16.997,7.345,25.031c-6.479,1.769-12.912,3.804-19.254,6.092V379.657z M135.209,438.81
	c0-18.582,7.511-35.439,19.65-47.708v25.337v47.087c0,9.151-3.132,18.14-8.819,25.311L139.565,497h-4.356L135.209,438.81
	L135.209,438.81z M158.685,497c7.216-9.612,11.175-21.441,11.175-33.475v-42.002c8.608-3.33,17.421-6.159,26.309-8.454
	c12.917,21.349,32.945,38.202,57.305,46.913c1.633,0.584,3.418,0.584,5.051,0c24.36-8.711,44.388-25.564,57.306-46.914
	c8.889,2.296,17.701,5.125,26.309,8.454v42.002c0,12.033,3.959,23.862,11.175,33.475h-194.63V497z M335.691,376.432
	c0.203,0.087,0.41,0.164,0.612,0.253c0.49,0.216,0.97,0.457,1.455,0.685c1.481,0.697,2.946,1.43,4.38,2.236v25.901
	c-6.342-2.288-12.774-4.323-19.254-6.092c3.453-8.045,5.911-16.427,7.352-25.066C332.086,374.961,333.902,375.663,335.691,376.432z
	 M308.929,370.94c2.223,0,4.424,0.114,6.603,0.323c-5.344,33.144-28.013,61.363-59.532,73.651
	c-31.518-12.287-54.186-40.505-59.532-73.647c2.173-0.211,4.374-0.326,6.602-0.326h10.83c4.143,0,7.5-3.357,7.5-7.5v-18.242
	c11.175,3.379,22.769,5.091,34.6,5.091c11.836,0,23.431-1.712,34.6-5.089v18.24c0,4.143,3.357,7.5,7.5,7.5h10.829V370.94z"/>
<path d="M310.322,232.962c4.143,0,7.5-3.357,7.5-7.5v-2c0-4.143-3.357-7.5-7.5-7.5s-7.5,3.357-7.5,7.5v2
	C302.822,229.605,306.18,232.962,310.322,232.962z"/>
<path d="M201.676,215.962c-4.143,0-7.5,3.357-7.5,7.5v2c0,4.143,3.357,7.5,7.5,7.5s7.5-3.357,7.5-7.5v-2
	C209.176,219.319,205.818,215.962,201.676,215.962z"/>
<path d="M255.999,288.484c13.494,0,26.142-6.632,33.833-17.739c2.358-3.405,1.509-8.077-1.897-10.435
	c-3.406-2.359-8.077-1.508-10.435,1.896c-4.891,7.063-12.928,11.278-21.501,11.278c-8.573,0-16.61-4.216-21.501-11.278
	c-2.357-3.406-7.029-4.256-10.435-1.896c-3.405,2.358-4.255,7.03-1.896,10.435C229.857,281.853,242.505,288.484,255.999,288.484z"/>
<g>
</g>
<g>
</g>
<g>
</g>
<g>
</g>
<g>
</g>
<g>
</g>
<g>
</g>
<g>
</g>
<g>
</g>
<g>
</g>
<g>
</g>
<g>
</g>
<g>
</g>
<g>
</g>
<g>
</g>
</svg>
