<?xml version="1.0" encoding="iso-8859-1"?>
<!-- Generator: Adobe Illustrator 19.0.0, SVG Export Plug-In . SVG Version: 6.00 Build 0)  -->
<svg version="1.1" id="Capa_1" xmlns="http://www.w3.org/2000/svg" xmlns:xlink="http://www.w3.org/1999/xlink" x="0px" y="0px"
	 viewBox="0 0 512 512" style="enable-background:new 0 0 512 512;" xml:space="preserve">
<path style="fill:#3E3D49;" d="M255.999,478.667c55.032,0,106.298-16.112,149.349-43.868
	c-3.631-91.224-5.742-144.233-11.746-295.063h-0.009C390.716,66.219,330.22,7.5,255.999,7.5S121.282,66.219,118.404,139.735h-0.009
	c-6.004,150.83-8.114,203.84-11.746,295.063C149.701,462.554,200.967,478.667,255.999,478.667z"/>
<path style="fill:#484655;" d="M203.072,363.444h105.855c41.621,0,75.362,33.741,75.362,75.362V504.5H127.71v-65.694
	C127.71,397.184,161.45,363.444,203.072,363.444z"/>
<path style="fill:#35343F;" d="M308.926,363.444h-22.632c41.621,0,75.362,33.741,75.362,75.362V504.5h22.632v-65.695
	C384.288,397.184,350.547,363.444,308.926,363.444z"/>
<path style="fill:#F0EEEE;" d="M308.926,363.444l-10.827-0.364v-95.35h-84.2v95.35l-10.827,0.364
	c-18.466,0-35.371,6.652-48.476,17.676c11.115,45.688,52.294,79.61,101.403,79.61s90.288-33.922,101.403-79.611
	C344.297,370.095,327.392,363.444,308.926,363.444z"/>
<path style="fill:#FFB56B;" d="M255.999,342.79L255.999,342.79c-61.919,0-112.115-50.195-112.115-112.115V195.38
	c0-56.94,46.159-103.099,103.098-103.099h18.032c56.94,0,103.098,46.159,103.098,103.099v35.296
	C368.114,292.595,317.918,342.79,255.999,342.79z"/>
<path style="fill:#EF9245;" d="M368.114,230.675V195.38c0-24.792-8.753-47.537-23.334-65.321v112.284
	c0,53.578-41.949,97.354-94.794,100.286h0.001c0.981,0.052,1.965,0.091,2.951,0.118c0.016,0,0.032,0.001,0.048,0.002
	c1.001,0.027,2.005,0.041,3.013,0.041l0,0c5.805,0,11.507-0.441,17.074-1.292C326.888,333.275,368.114,286.79,368.114,230.675z"/>
<path style="fill:#F0EEEE;" d="M255.999,136c43.889,0,83.421,17.398,111.14,45.202c-6.909-50.23-49.995-88.921-102.124-88.921
	h-18.032c-52.129,0-95.214,38.691-102.124,88.922C172.578,153.398,212.109,136,255.999,136z"/>
<path d="M412.499,425.818l-0.056-1.438c-2.623-65.728-4.514-113.217-7.893-198.105l-3.458-86.844
	c-0.005-0.13-0.014-0.26-0.025-0.388c-1.561-37.416-17.288-72.345-44.313-98.395C329.562,14.436,293.779,0,255.999,0
	c-39.896,0-78.463,16.68-105.814,45.763c-2.837,3.017-2.691,7.764,0.326,10.602c3.016,2.836,7.762,2.692,10.602-0.326
	C186.001,29.574,219.698,15,255.999,15c33.878,0,65.963,12.944,90.346,36.448c24.318,23.441,38.435,54.899,39.75,88.575
	c0.005,0.131,0.014,0.261,0.025,0.39l3.442,86.459c3.379,84.89,5.27,132.379,7.893,198.1l0.056,1.431
	c0.057,1.451,0.113,2.909,0.171,4.378c-1.987,1.237-4.001,2.441-6.024,3.628c-1.235-22.912-12.038-44.203-29.214-58.817
	c-0.074-0.068-0.138-0.144-0.216-0.21c-0.132-0.111-0.27-0.214-0.403-0.324c-0.779-0.65-1.57-1.288-2.375-1.91
	c-0.114-0.088-0.232-0.171-0.346-0.258c-0.827-0.632-1.668-1.248-2.52-1.85c-0.107-0.076-0.216-0.149-0.324-0.224
	c-0.916-0.64-1.847-1.262-2.791-1.867c-0.003-0.002-0.005-0.004-0.008-0.005c-2.896-1.853-5.917-3.546-9.069-5.04
	c-0.181-0.086-0.364-0.157-0.548-0.227c-10.829-5.034-22.701-7.716-34.786-7.735l-3.458-0.115v-16.29
	c19.79-9.015,36.691-23.19,49.087-41.254c13.689-19.946,20.924-43.322,20.924-67.602v-35.3c0-5.122-0.358-10.162-1.035-15.101
	c-0.004-0.033-0.001-0.066-0.006-0.099c-0.019-0.136-0.046-0.27-0.065-0.405c-0.202-1.426-0.427-2.844-0.683-4.252
	c-0.044-0.242-0.093-0.482-0.139-0.723c-0.253-1.341-0.527-2.674-0.828-3.998c-0.052-0.23-0.105-0.459-0.159-0.688
	c-0.295-1.257-0.615-2.503-0.953-3.742c-0.096-0.353-0.188-0.707-0.287-1.059c-0.34-1.201-0.704-2.392-1.083-3.577
	c-0.149-0.467-0.3-0.934-0.455-1.399c-0.366-1.093-0.748-2.178-1.147-3.255c-0.208-0.564-0.424-1.124-0.641-1.683
	c-0.32-0.822-0.65-1.639-0.988-2.451c-0.348-0.835-0.707-1.665-1.075-2.491c-0.204-0.457-0.412-0.911-0.622-1.364
	c-0.572-1.238-1.166-2.464-1.783-3.681c-0.099-0.194-0.197-0.388-0.297-0.581c-6.296-12.233-14.857-23.31-25.379-32.557
	c-9.627-8.461-20.564-15.102-32.288-19.739c-0.183-0.073-0.368-0.143-0.551-0.215c-0.567-0.221-1.136-0.439-1.707-0.65
	c-0.366-0.136-0.734-0.269-1.102-0.401c-0.384-0.137-0.768-0.274-1.153-0.407c-0.501-0.174-1.003-0.344-1.507-0.511
	c-0.242-0.08-0.484-0.158-0.727-0.237c-0.618-0.2-1.237-0.395-1.86-0.584c-0.104-0.032-0.208-0.062-0.313-0.093
	c-5.407-1.624-10.986-2.845-16.704-3.627c-0.035-0.005-0.07-0.01-0.105-0.015c-0.726-0.099-1.455-0.189-2.185-0.273
	c-0.156-0.018-0.312-0.036-0.469-0.054c-0.652-0.072-1.305-0.139-1.96-0.2c-0.246-0.023-0.492-0.044-0.738-0.066
	c-0.59-0.051-1.181-0.099-1.774-0.141c-0.325-0.023-0.65-0.042-0.976-0.062c-0.532-0.033-1.064-0.066-1.598-0.091
	c-0.414-0.02-0.829-0.032-1.244-0.048c-0.46-0.016-0.919-0.036-1.38-0.047c-0.626-0.015-1.253-0.02-1.88-0.024
	c-0.249-0.002-0.497-0.009-0.746-0.009h-18.04c-0.249,0-0.497,0.008-0.746,0.009c-0.627,0.004-1.254,0.009-1.88,0.024
	c-0.461,0.011-0.92,0.03-1.38,0.047c-0.415,0.015-0.83,0.028-1.244,0.048c-0.534,0.025-1.066,0.058-1.598,0.091
	c-0.325,0.02-0.651,0.039-0.976,0.062c-0.593,0.042-1.184,0.09-1.774,0.141c-0.246,0.021-0.492,0.043-0.738,0.066
	c-0.655,0.061-1.308,0.128-1.96,0.2c-0.156,0.017-0.312,0.036-0.468,0.054c-0.73,0.084-1.459,0.175-2.185,0.273
	c-0.035,0.005-0.07,0.01-0.105,0.015c-5.718,0.782-11.297,2.002-16.704,3.627c-0.104,0.031-0.208,0.062-0.313,0.093
	c-0.622,0.189-1.242,0.384-1.86,0.584c-0.243,0.078-0.485,0.157-0.727,0.237c-0.504,0.167-1.006,0.337-1.507,0.511
	c-0.385,0.133-0.769,0.269-1.153,0.407c-0.368,0.132-0.736,0.265-1.102,0.401c-0.571,0.212-1.14,0.429-1.707,0.65
	c-0.184,0.072-0.368,0.142-0.551,0.215c-11.724,4.637-22.661,11.278-32.288,19.739c-10.522,9.247-19.083,20.323-25.379,32.557
	c-0.1,0.193-0.198,0.387-0.297,0.581c-0.617,1.216-1.211,2.442-1.783,3.681c-0.21,0.453-0.418,0.907-0.622,1.364
	c-0.368,0.826-0.727,1.656-1.075,2.491c-0.339,0.812-0.668,1.629-0.988,2.451c-0.217,0.56-0.433,1.12-0.641,1.683
	c-0.399,1.077-0.781,2.163-1.147,3.255c-0.155,0.465-0.306,0.932-0.455,1.399c-0.379,1.185-0.743,2.376-1.083,3.577
	c-0.099,0.352-0.192,0.706-0.287,1.059c-0.337,1.24-0.658,2.486-0.953,3.742c-0.054,0.229-0.107,0.458-0.159,0.688
	c-0.301,1.323-0.575,2.657-0.829,3.998c-0.046,0.241-0.095,0.482-0.139,0.723c-0.256,1.408-0.481,2.826-0.683,4.252
	c-0.019,0.136-0.046,0.269-0.065,0.405c-0.005,0.033-0.002,0.066-0.006,0.099c-0.677,4.939-1.035,9.979-1.035,15.101v35.3
	c0,24.279,7.235,47.655,20.924,67.602c12.397,18.065,29.299,32.241,49.087,41.255v16.289l-3.458,0.115
	c-12.087,0.019-23.962,2.702-34.793,7.738c-0.182,0.069-0.363,0.139-0.541,0.224c-3.152,1.494-6.173,3.187-9.07,5.04
	c-0.002,0.001-0.004,0.003-0.006,0.004c-0.945,0.605-1.877,1.227-2.794,1.868c-0.107,0.074-0.215,0.147-0.321,0.222
	c-0.853,0.603-1.695,1.219-2.522,1.851c-0.115,0.087-0.232,0.17-0.346,0.258c-0.805,0.622-1.596,1.26-2.375,1.91
	c-0.133,0.11-0.271,0.213-0.403,0.324c-0.078,0.065-0.142,0.142-0.216,0.21c-17.175,14.615-27.979,35.906-29.213,58.817
	c-2.024-1.187-4.038-2.391-6.025-3.629c3.523-88.545,5.659-142.223,11.563-290.365c0.012-0.13,0.021-0.261,0.025-0.393
	c0.841-21.613,7.123-42.836,18.169-61.373c2.12-3.558,0.954-8.161-2.604-10.282c-3.556-2.119-8.161-0.955-10.282,2.604
	c-12.256,20.568-19.256,44.101-20.255,68.073c-0.012,0.128-0.021,0.258-0.025,0.388c-6.011,150.829-8.12,203.841-11.75,295.07
	c-0.105,2.651,1.198,5.161,3.428,6.6c5.72,3.691,11.636,7.192,17.626,10.464V504.5c0,4.143,3.357,7.5,7.5,7.5h256.58
	c4.143,0,7.5-3.357,7.5-7.5v-52.935c5.99-3.272,11.906-6.772,17.626-10.464c2.232-1.44,3.535-3.953,3.428-6.607
	C412.722,431.56,412.61,428.676,412.499,425.818z M158.502,159.207c0.257-0.625,0.519-1.248,0.789-1.866
	c0.144-0.332,0.288-0.664,0.436-0.994c0.404-0.898,0.82-1.79,1.251-2.673c0.097-0.2,0.198-0.397,0.297-0.596
	c0.44-0.886,0.89-1.767,1.357-2.637c0.036-0.067,0.07-0.135,0.107-0.202c15.682-29.075,45.965-48.934,80.264-50.368
	c0.191-0.008,0.383-0.015,0.574-0.022c1.132-0.04,2.267-0.066,3.407-0.066h18.033c1.14,0,2.275,0.026,3.407,0.066
	c0.191,0.007,0.383,0.014,0.574,0.022c34.299,1.434,64.582,21.293,80.264,50.368c0.036,0.067,0.071,0.135,0.107,0.202
	c0.467,0.87,0.917,1.751,1.357,2.637c0.099,0.199,0.2,0.397,0.297,0.596c0.431,0.883,0.847,1.775,1.251,2.673
	c0.148,0.33,0.291,0.662,0.436,0.994c0.27,0.618,0.532,1.241,0.789,1.866c0.105,0.255,0.211,0.51,0.313,0.766
	c-27.789-20.203-62.305-31.473-97.813-31.473s-70.024,11.27-97.811,31.473C158.291,159.717,158.397,159.462,158.502,159.207z
	 M151.388,230.68v-35.3c0-3.602,0.207-7.156,0.597-10.656c27.126-26.225,64.877-41.224,104.014-41.224s76.888,14.999,104.013,41.224
	c0.39,3.5,0.597,7.054,0.597,10.656v35.3c0,42.83-25.643,80.896-65.333,96.981c-12.465,5.063-25.68,7.629-39.277,7.629
	c-13.598,0-26.813-2.566-39.282-7.631C177.031,311.576,151.388,273.51,151.388,230.68z M135.209,497v-49.994
	c0-0.008,0-0.017,0-0.025v-8.171c0-16.152,5.844-31.53,15.887-43.557c16.037,43.541,57.492,72.977,104.903,72.977
	c23.092,0,45.266-6.984,64.124-20.198c3.393-2.377,4.216-7.054,1.839-10.446c-2.377-3.393-7.054-4.215-10.446-1.839
	c-16.324,11.438-35.521,17.483-55.517,17.483c-43.233,0-80.76-28.246-92.871-69.268c0.02-0.014,0.039-0.029,0.059-0.044
	c11.55-8.398,25.537-12.978,39.883-12.978c0.083,0,0.166-0.001,0.249-0.004l10.83-0.36c4.043-0.135,7.251-3.451,7.251-7.496v-17.877
	c11.161,3.376,22.755,5.087,34.6,5.087s23.44-1.712,34.6-5.087v17.877c0,4.045,3.208,7.361,7.251,7.496l10.83,0.36
	c0.083,0.003,0.166,0.004,0.249,0.004c14.348,0,28.338,4.582,39.889,12.983c0.018,0.013,0.036,0.027,0.054,0.04
	c-3.526,11.94-9.276,22.945-17.132,32.774c-2.585,3.236-2.059,7.956,1.177,10.542c1.383,1.104,3.036,1.641,4.678,1.641
	c2.201,0,4.383-0.965,5.864-2.817c7.395-9.253,13.305-19.754,17.435-30.861c10.049,12.028,15.896,27.411,15.896,43.568v8.171
	c0,0.008,0,0.016,0,0.025V497H135.209z"/>
<path d="M310.322,232.962c4.143,0,7.5-3.357,7.5-7.5v-2c0-4.143-3.357-7.5-7.5-7.5s-7.5,3.357-7.5,7.5v2
	C302.822,229.605,306.18,232.962,310.322,232.962z"/>
<path d="M201.676,215.962c-4.143,0-7.5,3.357-7.5,7.5v2c0,4.143,3.357,7.5,7.5,7.5s7.5-3.357,7.5-7.5v-2
	C209.176,219.319,205.818,215.962,201.676,215.962z"/>
<path d="M255.999,288.484c13.494,0,26.142-6.632,33.833-17.739c2.358-3.405,1.509-8.077-1.897-10.435
	c-3.406-2.359-8.078-1.508-10.435,1.896c-4.891,7.063-12.928,11.278-21.501,11.278s-16.61-4.216-21.501-11.278
	c-2.357-3.406-7.029-4.256-10.436-1.896c-3.405,2.358-4.255,7.03-1.896,10.435C229.857,281.853,242.505,288.484,255.999,288.484z"/>
<path d="M272.999,387.5h-9.5v-5.833c0-4.143-3.357-7.5-7.5-7.5s-7.5,3.357-7.5,7.5v5.833h-9.5c-4.143,0-7.5,3.357-7.5,7.5
	s3.357,7.5,7.5,7.5h9.5v22.167c0,4.143,3.357,7.5,7.5,7.5s7.5-3.357,7.5-7.5V402.5h9.5c4.143,0,7.5-3.357,7.5-7.5
	S277.141,387.5,272.999,387.5z"/>
<g>
</g>
<g>
</g>
<g>
</g>
<g>
</g>
<g>
</g>
<g>
</g>
<g>
</g>
<g>
</g>
<g>
</g>
<g>
</g>
<g>
</g>
<g>
</g>
<g>
</g>
<g>
</g>
<g>
</g>
</svg>
