<svg width="14" height="14" viewBox="0 0 14 14" fill="none" xmlns="http://www.w3.org/2000/svg">
<path fill-rule="evenodd" clip-rule="evenodd" d="M11.7487 7.62401C11.7727 7.42401 11.7887 7.21601 11.7887 7.00001C11.7887 6.78401 11.7727 6.57601 11.7407 6.37601L13.0927 5.32001C13.2127 5.22401 13.2447 5.04801 13.1727 4.91201L11.8927 2.69601C11.8127 2.55201 11.6447 2.50401 11.5007 2.55201L9.90874 3.19201C9.57274 2.93601 9.22074 2.72801 8.82874 2.56801L8.58874 0.872006C8.56474 0.712006 8.42874 0.600006 8.26874 0.600006H5.70874C5.54874 0.600006 5.42074 0.712006 5.39674 0.872006L5.15674 2.56801C4.76474 2.72801 4.40474 2.94401 4.07674 3.19201L2.48474 2.55201C2.34074 2.49601 2.17274 2.55201 2.09274 2.69601L0.812739 4.91201C0.732739 5.05601 0.764739 5.22401 0.892739 5.32001L2.24474 6.37601C2.21274 6.57601 2.18874 6.79201 2.18874 7.00001C2.18874 7.20801 2.20474 7.42401 2.23674 7.62401L0.884739 8.68001C0.764739 8.77601 0.732739 8.95201 0.804739 9.08801L2.08474 11.304C2.16474 11.448 2.33274 11.496 2.47674 11.448L4.06874 10.808C4.40474 11.064 4.75674 11.272 5.14874 11.432L5.38874 13.128C5.42074 13.288 5.54874 13.4 5.70874 13.4H8.26874C8.42874 13.4 8.56474 13.288 8.58074 13.128L8.82074 11.432C9.21274 11.272 9.57274 11.056 9.90074 10.808L11.4927 11.448C11.6367 11.504 11.8047 11.448 11.8847 11.304L13.1647 9.08801C13.2447 8.94401 13.2127 8.77601 13.0847 8.68001L11.7487 7.62401ZM6.98873 9.40001C5.66874 9.40001 4.58874 8.32001 4.58874 7.00001C4.58874 5.68001 5.66874 4.60001 6.98873 4.60001C8.30873 4.60001 9.38873 5.68001 9.38873 7.00001C9.38873 8.32001 8.30873 9.40001 6.98873 9.40001Z" fill="#2F80ED"/>
</svg>
