<svg id="Layer_1" enable-background="new 0 0 256 256" height="512" viewBox="0 0 256 256" width="512" xmlns="http://www.w3.org/2000/svg"><g><g><g><path d="m47.536 26.305c-.974 11.564-13.025 13.39-13.025 13.39 10.347.487 12.925 14.059 12.925 14.059.221-9.677 13.321-14.202 13.321-14.202-9.813-.588-13.221-13.247-13.221-13.247z" fill="#d7e057"/></g></g><g><g><path d="m60.848 38.054c-8.605-.515-11.832-12.024-11.864-12.141-.191-.702-.853-1.162-1.583-1.102-.725.066-1.298.642-1.359 1.367-.86 10.215-11.313 11.964-11.754 12.033-.763.115-1.313.79-1.273 1.561.04.77.657 1.384 1.428 1.421 9.028.425 11.498 12.718 11.522 12.842.137.711.759 1.217 1.472 1.217.041 0 .084-.001.126-.005.764-.064 1.357-.693 1.374-1.459.194-8.508 12.191-12.777 12.313-12.819.675-.235 1.092-.914.994-1.622-.099-.709-.683-1.25-1.396-1.293zm-13.566 10.345c-1.357-3.13-3.709-6.907-7.587-8.876 2.931-1.405 6.409-3.913 8.202-8.272 1.551 3.071 4.2 6.88 8.333 8.722-3.007 1.64-6.922 4.405-8.948 8.426z" fill="#3a312a"/></g></g><g><g><path d="m25.838 43.285c-.689 8.179-9.213 9.471-9.213 9.471 7.318.344 9.142 9.944 9.142 9.944.156-6.844 9.422-10.045 9.422-10.045-6.941-.415-9.351-9.37-9.351-9.37z" fill="#d7e057"/></g></g><g><g><path d="m35.279 51.157c-5.767-.345-7.973-8.185-7.994-8.265-.19-.702-.85-1.163-1.582-1.102-.726.065-1.299.642-1.36 1.368-.579 6.871-7.646 8.067-7.942 8.114-.763.115-1.313.79-1.273 1.561.04.77.657 1.384 1.427 1.421 6.036.284 7.724 8.644 7.739 8.726.135.713.759 1.22 1.472 1.22.042 0 .083-.001.125-.005.765-.063 1.358-.694 1.376-1.461.13-5.709 8.332-8.634 8.413-8.662.677-.234 1.094-.913.996-1.622-.098-.708-.682-1.25-1.397-1.293zm-9.585 6.796c-.924-1.886-2.34-3.947-4.447-5.28 1.855-1.041 3.697-2.63 4.871-4.916 1.057 1.874 2.655 3.954 4.941 5.224-1.849 1.1-3.989 2.74-5.365 4.972z" fill="#3a312a"/></g></g><g><g><path d="m25.838 16.628c-.689 8.179-9.213 9.471-9.213 9.471 7.318.344 9.142 9.944 9.142 9.944.156-6.845 9.422-10.045 9.422-10.045-6.941-.416-9.351-9.37-9.351-9.37z" fill="#d7e057"/></g></g><g><g><path d="m35.279 24.5c-5.767-.345-7.973-8.185-7.994-8.265-.19-.702-.85-1.164-1.582-1.102-.726.065-1.299.642-1.36 1.368-.579 6.871-7.646 8.067-7.942 8.114-.763.115-1.314.79-1.273 1.561.04.77.657 1.384 1.428 1.421 6.035.284 7.723 8.644 7.739 8.726.135.713.759 1.22 1.472 1.22.042 0 .083-.001.125-.005.765-.063 1.358-.694 1.376-1.461.13-5.709 8.332-8.634 8.413-8.662.676-.234 1.094-.913.996-1.622-.099-.708-.683-1.25-1.398-1.293zm-9.585 6.795c-.924-1.885-2.34-3.947-4.447-5.28 1.856-1.041 3.697-2.63 4.871-4.916 1.057 1.874 2.655 3.954 4.941 5.224-1.85 1.1-3.989 2.74-5.365 4.972z" fill="#3a312a"/></g></g><g><g><circle cx="131.625" cy="131.622" fill="#87796f" r="107.75"/></g></g><g><g><path d="m131.625 22.372c-60.241 0-109.25 49.009-109.25 109.25s49.009 109.25 109.25 109.25 109.25-49.009 109.25-109.25-49.009-109.25-109.25-109.25zm0 215.5c-58.586 0-106.25-47.664-106.25-106.25 0-58.587 47.664-106.25 106.25-106.25s106.25 47.663 106.25 106.25-47.664 106.25-106.25 106.25z" fill="#3a312a"/></g></g><g><g><circle cx="131.625" cy="131.622" fill="#87796f" r="91.322"/></g></g><g><g><path d="m131.625 38.8c-51.182 0-92.822 41.64-92.822 92.822s41.64 92.822 92.822 92.822 92.822-41.64 92.822-92.822-41.64-92.822-92.822-92.822zm0 182.644c-49.528 0-89.822-40.294-89.822-89.822s40.294-89.822 89.822-89.822 89.822 40.294 89.822 89.822-40.294 89.822-89.822 89.822z" fill="#3a312a"/></g></g><g><g><path d="m96.353 129.902v85.988c3.798 1.585 7.721 2.928 11.761 3.991v-89.979z" fill="#f16c7a"/></g></g><g><g><path d="m108.113 128.402h-11.761c-.829 0-1.5.671-1.5 1.5v85.988c0 .605.364 1.151.922 1.384 3.922 1.637 7.945 3.001 11.956 4.057.126.033.254.049.382.049.328 0 .65-.107.916-.312.368-.284.584-.723.584-1.188v-89.978c.001-.829-.67-1.5-1.499-1.5zm-1.5 89.509c-2.938-.846-5.874-1.86-8.761-3.027v-83.482h8.761z" fill="#3a312a"/></g></g><g><g><path d="m108.113 129.902v89.979c3.827 1.024 7.75 1.797 11.751 2.31v-92.288h-11.751z" fill="#f16c7a"/></g></g><g><g><path d="m119.864 128.402h-11.751c-.829 0-1.5.671-1.5 1.5v89.978c0 .679.456 1.273 1.112 1.449 3.89 1.042 7.91 1.832 11.948 2.349.063.008.127.012.19.012.363 0 .716-.131.991-.374.323-.285.509-.695.509-1.126v-92.288c.001-.829-.67-1.5-1.499-1.5zm-1.5 92.067c-2.952-.436-5.885-1.022-8.751-1.748v-87.319h8.751z" fill="#3a312a"/></g></g><g><g><path d="m119.864 129.902v92.288c3.846.502 7.779.754 11.761.754v-93.042z" fill="#f16c7a"/></g></g><g><g><path d="m131.625 128.402h-11.761c-.829 0-1.5.671-1.5 1.5v92.288c0 .753.559 1.39 1.306 1.487 3.89.509 7.912.767 11.955.767.829 0 1.5-.671 1.5-1.5v-93.042c0-.829-.671-1.5-1.5-1.5zm-1.5 93.03c-2.957-.048-5.892-.239-8.761-.569v-89.461h8.761z" fill="#3a312a"/></g></g><g><g><path d="m143.386 183.837v-53.935h-11.761v93.042c3.981 0 7.905-.251 11.761-.754v-23.507c-.005 0-.009.001-.014.001v-14.848c.005 0 .009.001.014.001z" fill="#f16c7a"/></g></g><g><g><path d="m141.872 183.836c0 .798.623 1.45 1.409 1.497.915.057 1.605-.634 1.605-1.496v-53.935c0-.829-.671-1.5-1.5-1.5h-11.761c-.829 0-1.5.671-1.5 1.5v93.042c0 .829.671 1.5 1.5 1.5 4.033 0 8.055-.258 11.955-.767.747-.097 1.306-.734 1.306-1.487v-23.507c0-.829-.686-1.499-1.514-1.499s-1.493.671-1.493 1.499c0 .049.002.098.007.146v22.034c-2.874.33-5.81.521-8.761.569v-90.03h8.761v52.227c-.01.068-.014.137-.014.207z" fill="#3a312a"/></g></g><g><g><path d="m143.386 129.902v92.288c4.001-.512 7.924-1.285 11.751-2.31v-89.979h-11.751z" fill="#f16c7a"/></g></g><g><g><path d="m155.137 128.402h-11.751c-.829 0-1.5.671-1.5 1.5v53.935c0 .829.671 1.5 1.5 1.5s1.5-.671 1.5-1.5v-52.435h8.751v87.32c-2.867.726-5.799 1.311-8.751 1.747v-21.786c0-.829-.671-1.5-1.5-1.5s-1.5.671-1.5 1.5v23.507c0 .431.186.841.509 1.126.276.243.628.374.991.374.063 0 .127-.004.19-.012 4.038-.517 8.058-1.307 11.948-2.348.656-.176 1.112-.77 1.112-1.449v-89.979c.001-.829-.671-1.5-1.499-1.5z" fill="#3a312a"/></g></g><g><g><path d="m155.137 129.902v89.979c4.04-1.063 7.963-2.406 11.761-4.011v-85.968z" fill="#f16c7a"/></g></g><g><g><path d="m166.897 128.402h-11.761c-.829 0-1.5.671-1.5 1.5v89.978c0 .465.216.904.584 1.188.266.204.588.312.916.312.128 0 .256-.016.382-.049 4.057-1.067 8.082-2.44 11.962-4.079.556-.234.916-.779.916-1.382v-85.968c.001-.829-.67-1.5-1.499-1.5zm-1.5 86.467c-2.861 1.169-5.797 2.189-8.761 3.042v-86.509h8.761z" fill="#3a312a"/></g></g><g><g><path d="m47.377 96.35c-1.604 3.798-2.947 7.721-4.011 11.761h89.979v-11.761z" fill="#d6df58"/></g></g><g><g><path d="m133.345 94.85h-85.968c-.603 0-1.148.361-1.382.917-1.639 3.881-3.012 7.906-4.079 11.962-.118.45-.022.929.263 1.298.284.368.723.584 1.188.584h89.978c.829 0 1.5-.671 1.5-1.5v-11.761c0-.829-.671-1.5-1.5-1.5zm-1.5 11.76h-86.509c.853-2.963 1.873-5.899 3.042-8.761h83.467z" fill="#3a312a"/></g></g><g><g><path d="m43.367 108.111c-1.024 3.827-1.797 7.75-2.31 11.751h92.288v-11.751z" fill="#d6df58"/></g></g><g><g><path d="m133.345 106.61h-89.978c-.679 0-1.273.456-1.449 1.112-1.041 3.89-1.831 7.91-2.348 11.948-.055.427.077.858.362 1.182.285.323.695.509 1.126.509h92.288c.829 0 1.5-.671 1.5-1.5v-11.751c-.001-.828-.672-1.5-1.501-1.5zm-1.5 11.751h-89.067c.437-2.952 1.022-5.885 1.748-8.751h87.319z" fill="#3a312a"/></g></g><g><g><path d="m41.057 119.862c-.503 3.856-.754 7.779-.754 11.761h93.042v-11.761z" fill="#d6df58"/></g></g><g><g><path d="m133.345 118.361h-92.288c-.753 0-1.39.559-1.487 1.306-.509 3.903-.767 7.925-.767 11.955 0 .829.671 1.5 1.5 1.5h21.802c.829 0 1.5-.671 1.5-1.5s-.671-1.5-1.5-1.5h-20.29c.048-2.949.239-5.884.569-8.761h89.46v8.761h-55.447c-.829 0-1.5.671-1.5 1.5s.671 1.5 1.5 1.5h56.948c.829 0 1.5-.671 1.5-1.5v-11.761c0-.828-.671-1.5-1.5-1.5z" fill="#3a312a"/></g></g><g><g><path d="m76.398 131.622h-14.293-21.802c0 3.981.251 7.905.754 11.761h92.288v-11.761z" fill="#d6df58"/></g></g><g><g><path d="m133.345 130.122h-56.948c-.829 0-1.5.671-1.5 1.5s.671 1.5 1.5 1.5h55.448v8.761h-89.46c-.33-2.876-.521-5.812-.569-8.761h20.29c.829 0 1.5-.671 1.5-1.5s-.671-1.5-1.5-1.5h-21.803c-.829 0-1.5.671-1.5 1.5 0 4.029.258 8.051.767 11.955.097.747.734 1.306 1.487 1.306h92.288c.829 0 1.5-.671 1.5-1.5v-11.761c0-.828-.671-1.5-1.5-1.5z" fill="#3a312a"/></g></g><g><g><path d="m41.057 143.383c.512 4.001 1.285 7.924 2.31 11.751h89.979v-11.751z" fill="#d6df58"/></g></g><g><g><path d="m133.345 141.883h-92.288c-.431 0-.841.186-1.126.509-.285.324-.417.754-.362 1.182.517 4.039 1.307 8.059 2.349 11.948.175.656.769 1.112 1.449 1.112h89.978c.829 0 1.5-.671 1.5-1.5v-11.751c0-.829-.671-1.5-1.5-1.5zm-1.5 11.751h-87.319c-.726-2.866-1.312-5.799-1.748-8.751h89.067z" fill="#3a312a"/></g></g><g><g><path d="m43.367 155.134c1.063 4.04 2.406 7.963 4.011 11.761h85.968v-11.761z" fill="#d6df58"/></g></g><g><g><path d="m133.345 153.634h-89.978c-.465 0-.904.216-1.188.584-.284.369-.381.848-.263 1.298 1.067 4.057 2.44 8.082 4.079 11.962.234.556.779.917 1.382.917h85.968c.829 0 1.5-.671 1.5-1.5v-11.761c0-.829-.671-1.5-1.5-1.5zm-1.5 11.761h-83.467c-1.169-2.861-2.189-5.797-3.042-8.761h86.509z" fill="#3a312a"/></g></g><g><g><path d="m193.474 65.043c-2.808-2.808-7.457-2.461-9.817.733l-6.531 8.838c-7.589-7.273-14.117-11.905-19.284-6.738-5.927 5.927-6.285 20.97 2.773 30.027 9.057 9.057 24.1 8.699 30.027 2.773 5.166-5.167.534-11.695-6.738-19.284l8.838-6.531c3.193-2.36 3.54-7.009.732-9.818z" fill="#fce8cb"/></g></g><g><g><path d="m196.854 70.232c.173-2.324-.672-4.602-2.32-6.249-1.648-1.648-3.925-2.499-6.249-2.32-2.324.173-4.451 1.348-5.835 3.222l-5.523 7.475c-6.637-6.207-14.039-11.654-20.146-5.544-3.253 3.252-4.999 8.853-4.67 14.98.355 6.627 2.998 12.724 7.443 17.168 4.444 4.444 10.541 7.087 17.168 7.442.491.026.977.039 1.46.039 5.549 0 10.529-1.717 13.52-4.71 6.108-6.108.663-13.508-5.544-20.146l7.475-5.523c1.874-1.383 3.048-3.51 3.221-5.834zm-5.004 3.422-8.838 6.531c-.347.256-.566.649-.603 1.079-.037.429.113.854.412 1.165 8.542 8.914 10.374 13.572 6.761 17.186-6.649 6.65-21.145 3.989-27.906-2.772-6.761-6.762-9.422-21.256-2.773-27.906 1.156-1.156 2.419-1.755 3.894-1.755 3.136 0 7.23 2.707 13.292 8.516.311.298.735.444 1.165.412.43-.037.823-.256 1.079-.603l6.531-8.838c.865-1.171 2.194-1.905 3.646-2.013 1.45-.105 2.874.42 3.904 1.449 1.029 1.029 1.558 2.453 1.449 3.905-.109 1.45-.843 2.779-2.013 3.644z" fill="#3a312a"/></g></g><g><g><path d="m176.561 63.497c0-8.382-10.384-19.272-23.193-19.272s-23.193 10.89-23.193 19.272c0 7.306 7.891 8.647 18.401 8.871l-1.632 10.867c-.59 3.928 2.452 7.46 6.424 7.46s7.013-3.532 6.424-7.46l-1.631-10.867c10.509-.223 18.4-1.564 18.4-8.871z" fill="#fce8cb"/></g></g><g><g><path d="m178.061 63.498c0-4.6-2.726-9.794-7.291-13.895-4.937-4.435-11.117-6.877-17.402-6.877s-12.465 2.442-17.402 6.877c-4.565 4.101-7.29 9.295-7.29 13.895 0 8.638 9.083 10.021 18.165 10.325l-1.38 9.191c-.346 2.305.328 4.639 1.849 6.404 1.52 1.766 3.729 2.778 6.059 2.778s4.539-1.013 6.059-2.779 2.194-4.1 1.848-6.404l-1.38-9.191c9.082-.303 18.165-1.687 18.165-10.324zm-19.932 7.371c-.431.009-.837.203-1.115.533s-.4.763-.337 1.189l1.631 10.867c.216 1.44-.205 2.898-1.154 4.001-.95 1.103-2.33 1.736-3.786 1.736s-2.836-.633-3.786-1.736-1.371-2.562-1.155-4.001l1.632-10.867c.064-.426-.059-.859-.337-1.189s-.684-.523-1.115-.533c-12.343-.263-16.933-2.261-16.933-7.371 0-9.404 12.131-17.772 21.693-17.772s21.693 8.368 21.693 17.772c.001 5.11-4.588 7.108-16.931 7.371z" fill="#3a312a"/></g></g><g><g><path d="m210.869 89.203c-9.057-9.057-24.1-8.699-30.027-2.773-5.166 5.166-.534 11.695 6.738 19.284l-8.838 6.531c-3.194 2.36-3.541 7.009-.733 9.817s7.457 2.461 9.817-.733l6.531-8.838c7.589 7.273 14.117 11.905 19.284 6.738 5.927-5.926 6.285-20.969-2.772-30.026z" fill="#fce8cb"/></g></g><g><g><path d="m219.372 105.31c-.355-6.626-2.998-12.723-7.442-17.167-4.444-4.445-10.541-7.088-17.167-7.443-6.126-.327-11.728 1.418-14.98 4.67-6.108 6.108-.664 13.508 5.544 20.146l-7.475 5.523c-1.874 1.385-3.048 3.512-3.222 5.835-.173 2.324.672 4.602 2.32 6.249 1.506 1.506 3.539 2.342 5.651 2.342.199 0 .398-.007.598-.022 2.324-.173 4.451-1.348 5.835-3.222l5.523-7.475c6.637 6.207 14.036 11.653 20.146 5.544 3.251-3.252 4.997-8.852 4.669-14.98zm-6.791 12.859c-3.615 3.613-8.272 1.781-17.185-6.761-.311-.298-.74-.448-1.165-.412-.43.037-.823.256-1.079.603l-6.531 8.838c-.865 1.171-2.194 1.905-3.645 2.013-1.457.107-2.875-.42-3.905-1.449-1.029-1.03-1.558-2.453-1.449-3.904.108-1.452.842-2.781 2.013-3.646l8.838-6.531c.347-.256.566-.649.603-1.079s-.113-.854-.412-1.165c-8.542-8.914-10.374-13.571-6.761-17.185 2.407-2.407 6.707-3.83 11.43-3.83.42 0 .843.011 1.269.034 5.886.316 11.287 2.648 15.207 6.568 6.76 6.761 9.421 21.256 2.772 27.906z" fill="#3a312a"/></g></g><g><g><path d="m203.675 103.216c-7.306 0-8.647 7.891-8.871 18.4l-10.867-1.631c-3.928-.59-7.46 2.452-7.46 6.424s3.533 7.013 7.46 6.424l10.867-1.631c.224 10.509 1.565 18.4 8.871 18.4 8.382 0 19.272-10.384 19.272-23.193s-10.89-23.193-19.272-23.193z" fill="#fce8cb"/></g></g><g><g><path d="m217.57 109.007c-4.101-4.565-9.295-7.291-13.895-7.291-8.638 0-10.021 9.083-10.325 18.166l-9.191-1.38c-2.301-.346-4.639.328-6.404 1.849-1.766 1.52-2.778 3.729-2.778 6.059s1.013 4.539 2.778 6.059c1.765 1.521 4.102 2.194 6.404 1.849l9.191-1.38c.304 9.082 1.687 18.166 10.325 18.166 4.6 0 9.794-2.726 13.895-7.291 4.435-4.937 6.877-11.117 6.877-17.402 0-6.287-2.443-12.467-6.877-17.404zm-13.895 39.095c-5.11 0-7.108-4.589-7.372-16.932-.009-.431-.203-.837-.533-1.115-.272-.23-.615-.353-.967-.353-.074 0-.148.005-.223.017l-10.867 1.631c-1.438.216-2.898-.205-4.001-1.155s-1.736-2.33-1.736-3.786.633-2.836 1.736-3.786 2.565-1.37 4.001-1.155l10.867 1.631c.426.064.86-.059 1.189-.336.33-.278.523-.684.533-1.115.263-12.343 2.261-16.932 7.372-16.932 9.404 0 17.772 12.131 17.772 21.693s-8.367 21.693-17.771 21.693z" fill="#3a312a"/></g></g><g><g><path d="m111.433 47.065h-11.799c-5.548 0-10.046 4.498-10.046 10.046v11.799c0 5.548 4.497 10.046 10.046 10.046h11.799c5.548 0 10.045-4.498 10.045-10.046v-11.799c0-5.548-4.497-10.046-10.045-10.046z" fill="#87796f"/></g></g><g><g><path d="m111.433 45.565h-11.799c-6.366 0-11.546 5.179-11.546 11.545v11.8c0 6.366 5.18 11.545 11.546 11.545h11.799c6.366 0 11.545-5.179 11.545-11.545v-11.8c0-6.366-5.179-11.545-11.545-11.545zm8.545 23.345c0 4.712-3.834 8.545-8.545 8.545h-11.799c-4.712 0-8.546-3.833-8.546-8.545v-11.8c0-4.712 3.834-8.545 8.546-8.545h11.799c4.712 0 8.545 3.833 8.545 8.545z" fill="#3a312a"/></g></g><g><g><path d="m90.172 60.594h-11.799c-5.548 0-10.046 4.498-10.046 10.046v11.799c0 5.548 4.497 10.046 10.046 10.046h11.799c5.548 0 10.046-4.498 10.046-10.046v-11.799c0-5.548-4.498-10.046-10.046-10.046z" fill="#87796f"/></g></g><g><g><path d="m90.172 59.094h-11.799c-6.366 0-11.545 5.179-11.545 11.545v11.799c0 6.366 5.179 11.546 11.545 11.546h11.799c6.366 0 11.545-5.18 11.545-11.546v-11.798c.001-6.367-5.178-11.546-11.545-11.546zm8.546 23.345c0 4.712-3.833 8.546-8.545 8.546h-11.8c-4.712 0-8.545-3.834-8.545-8.546v-11.799c0-4.712 3.833-8.545 8.545-8.545h11.799c4.712 0 8.545 3.833 8.545 8.545v11.799z" fill="#3a312a"/></g></g><g><g><path d="m111.316 81.032-8.343-8.343c-3.923-3.923-10.284-3.923-14.207 0l-8.343 8.343c-3.923 3.923-3.923 10.284 0 14.207l8.343 8.343c3.923 3.923 10.284 3.923 14.207 0l8.343-8.343c3.923-3.923 3.923-10.284 0-14.207z" fill="#87796f"/></g></g><g><g><path d="m112.376 79.972-8.343-8.343c-4.501-4.502-11.827-4.501-16.328 0l-8.343 8.343c-4.501 4.502-4.501 11.827 0 16.328l8.343 8.343c2.18 2.181 5.08 3.382 8.164 3.382s5.984-1.201 8.164-3.382l8.343-8.343c4.502-4.502 4.502-11.826 0-16.328zm-2.121 14.206-8.343 8.343c-1.614 1.614-3.76 2.503-6.043 2.503-2.282 0-4.428-.889-6.042-2.503l-8.343-8.343c-3.331-3.332-3.331-8.753 0-12.085l8.343-8.343c1.666-1.666 3.854-2.499 6.043-2.499 2.188 0 4.377.833 6.043 2.499l8.343 8.343c3.331 3.332 3.331 8.753-.001 12.085z" fill="#3a312a"/></g></g><g><g><path d="m82.325 88.763-8.343-8.343c-3.923-3.923-10.284-3.923-14.207 0l-8.343 8.343c-3.923 3.923-3.923 10.284 0 14.206l8.343 8.343c3.923 3.923 10.284 3.923 14.207 0l8.343-8.343c3.923-3.922 3.923-10.283 0-14.206z" fill="#87796f"/></g></g><g><g><path d="m83.385 87.703-8.343-8.343c-4.502-4.502-11.826-4.502-16.328 0l-8.343 8.343c-2.181 2.181-3.382 5.08-3.382 8.164s1.201 5.983 3.382 8.164l8.343 8.343c2.251 2.251 5.208 3.376 8.164 3.376 2.957 0 5.913-1.126 8.164-3.376l8.343-8.343c2.181-2.18 3.382-5.08 3.382-8.164s-1.201-5.984-3.382-8.164zm-2.121 14.206-8.343 8.343c-3.333 3.332-8.754 3.332-12.086 0l-8.343-8.343c-1.614-1.614-2.503-3.76-2.503-6.042 0-2.283.889-4.429 2.503-6.043l8.343-8.343c3.333-3.332 8.754-3.332 12.086 0l8.343 8.343c1.614 1.614 2.503 3.76 2.503 6.043 0 2.282-.889 4.428-2.503 6.042z" fill="#3a312a"/></g></g><g><g><path d="m139.34 52.552-8.343-8.343c-3.923-3.923-10.284-3.923-14.207 0l-8.343 8.343c-3.923 3.923-3.923 10.284 0 14.207l8.343 8.343c3.923 3.923 10.284 3.923 14.207 0l8.343-8.343c3.924-3.923 3.924-10.284 0-14.207z" fill="#87796f"/></g></g><g><g><path d="m140.401 51.492-8.343-8.343c-4.502-4.502-11.827-4.502-16.328 0l-8.343 8.343c-2.181 2.18-3.382 5.08-3.382 8.164s1.201 5.984 3.382 8.164l8.343 8.343c2.251 2.251 5.207 3.376 8.164 3.376s5.913-1.125 8.164-3.376l8.343-8.343c2.181-2.18 3.382-5.08 3.382-8.164 0-3.085-1.202-5.984-3.382-8.164zm-2.121 14.206-8.343 8.343c-3.333 3.331-8.754 3.331-12.085 0l-8.343-8.343c-1.614-1.614-2.503-3.76-2.503-6.043 0-2.282.889-4.428 2.503-6.042l8.343-8.343c1.666-1.666 3.854-2.499 6.042-2.499s4.377.833 6.043 2.499l8.343 8.343c1.614 1.614 2.503 3.76 2.503 6.042 0 2.283-.889 4.429-2.503 6.043z" fill="#3a312a"/></g></g><g><g><path d="m197.976 162.054c0-2.602-1.807-4.778-4.234-5.353.481-.818.762-1.768.762-2.785 0-3.041-2.465-5.507-5.507-5.507-1.034 0-1.997.29-2.824.786-.915-1.773-2.76-2.987-4.893-2.987-2.816 0-5.135 2.116-5.463 4.844-.418-.101-.852-.161-1.3-.161-3.041 0-5.507 2.465-5.507 5.507 0 1.433.552 2.733 1.448 3.713-1.387 1-2.294 2.625-2.294 4.466 0 2.867 2.192 5.22 4.991 5.481.001 3.041 2.466 5.505 5.507 5.505 1.909 0 3.591-.972 4.579-2.448 1.009 1.272 2.564 2.091 4.314 2.091 3.041 0 5.507-2.465 5.507-5.507 0-.761-.155-1.486-.434-2.146 2.967-.084 5.348-2.511 5.348-5.499z" fill="#d7e057"/></g></g><g><g><path d="m199.476 162.054c0-2.662-1.478-5.018-3.748-6.202.182-.628.275-1.279.275-1.936 0-3.864-3.143-7.007-7.006-7.007-.778 0-1.55.131-2.282.385-1.314-1.622-3.293-2.587-5.434-2.587-3.023 0-5.645 1.932-6.609 4.685-3.895-.11-7.161 3.09-7.161 7.005 0 1.242.33 2.448.946 3.508-1.141 1.274-1.792 2.937-1.792 4.671 0 3.208 2.122 5.918 5.106 6.746.598 3.261 3.461 5.74 6.892 5.74 1.744 0 3.395-.645 4.664-1.778 1.204.916 2.677 1.421 4.228 1.421 3.864 0 7.007-3.143 7.007-7.007 0-.316-.021-.629-.062-.938 2.9-.862 4.976-3.527 4.976-6.706zm-6.891 4c-.496.014-.952.273-1.22.689-.268.417-.311.94-.118 1.396.209.492.315 1.017.315 1.56 0 2.209-1.797 4.007-4.007 4.007-1.227 0-2.371-.555-3.139-1.523-.298-.375-.763-.593-1.236-.566-.479.019-.92.266-1.186.664-.747 1.116-1.993 1.783-3.332 1.783-2.209 0-4.006-1.797-4.007-4.006-.001-.774-.59-1.421-1.361-1.493-2.069-.192-3.63-1.906-3.63-3.987 0-1.281.624-2.496 1.671-3.249.348-.251.572-.637.616-1.063s-.096-.85-.385-1.167c-.681-.744-1.055-1.703-1.055-2.7 0-2.209 1.797-4.007 4.006-4.007.308 0 .618.039.947.119.417.101.856.018 1.209-.226.352-.245.582-.628.634-1.053.242-2.008 1.95-3.523 3.974-3.523 1.503 0 2.868.834 3.56 2.175.19.368.524.642.923.755s.827.057 1.182-.157c.624-.374 1.333-.572 2.052-.572 2.209 0 4.006 1.797 4.006 4.007 0 .708-.192 1.408-.555 2.024-.241.411-.273.911-.087 1.349.187.439.571.762 1.034.871 1.813.43 3.08 2.03 3.08 3.893 0 2.18-1.709 3.937-3.891 4z" fill="#3a312a"/></g></g><g><g><path d="m191.815 193.919c0-2.602-1.807-4.778-4.234-5.353.481-.818.762-1.767.762-2.785 0-3.041-2.465-5.507-5.507-5.507-1.034 0-1.997.29-2.824.786-.915-1.773-2.76-2.987-4.893-2.988-2.817 0-5.135 2.116-5.463 4.844-.418-.101-.852-.161-1.3-.161-3.041 0-5.507 2.465-5.507 5.507 0 1.433.552 2.733 1.448 3.713-1.387 1-2.294 2.625-2.294 4.466 0 2.867 2.192 5.22 4.991 5.481.001 3.041 2.466 5.505 5.507 5.506 1.909 0 3.591-.972 4.579-2.448 1.009 1.272 2.565 2.091 4.314 2.091 3.041 0 5.507-2.465 5.507-5.507 0-.761-.154-1.486-.434-2.146 2.967-.085 5.348-2.511 5.348-5.499z" fill="#d7e057"/></g></g><g><g><path d="m193.315 193.919c0-2.662-1.477-5.018-3.747-6.202.182-.628.275-1.279.275-1.936 0-3.864-3.143-7.007-7.007-7.007-.778 0-1.549.131-2.282.385-1.314-1.622-3.294-2.587-5.435-2.587-3.024 0-5.645 1.933-6.609 4.686-3.947-.105-7.161 3.09-7.161 7.005 0 1.242.33 2.448.946 3.508-1.141 1.274-1.792 2.937-1.792 4.671 0 3.208 2.122 5.918 5.106 6.746.598 3.261 3.461 5.74 6.892 5.74 1.744 0 3.396-.645 4.665-1.778 1.204.916 2.676 1.42 4.226 1.42h.002.001c1.871 0 3.63-.729 4.954-2.052 1.323-1.324 2.052-3.083 2.052-4.955 0-.316-.021-.629-.062-.938 2.9-.862 4.976-3.526 4.976-6.706zm-6.89 3.999c-.495.014-.952.272-1.219.688-.268.416-.313.939-.12 1.395.21.495.316 1.02.316 1.562 0 1.07-.417 2.076-1.173 2.833-.757.757-1.763 1.173-2.833 1.173-.001 0-.001 0-.002 0-1.227 0-2.37-.555-3.137-1.522-.298-.376-.757-.577-1.236-.567-.479.019-.919.267-1.186.664-.747 1.116-1.993 1.783-3.332 1.783-2.208 0-4.006-1.797-4.007-4.006 0-.774-.59-1.421-1.361-1.493-2.07-.193-3.63-1.907-3.63-3.987 0-1.28.625-2.495 1.671-3.249.348-.25.571-.637.615-1.063s-.097-.851-.386-1.167c-.68-.743-1.055-1.702-1.055-2.7 0-2.21 1.797-4.007 4.007-4.007.308 0 .618.038.948.119.417.101.856.019 1.208-.226.352-.244.583-.627.634-1.053.241-2.008 1.95-3.523 3.973-3.523 1.504.001 2.868.834 3.561 2.176.19.368.524.642.923.755s.826.057 1.182-.157c.624-.374 1.333-.572 2.052-.572 2.209 0 4.007 1.797 4.007 4.007 0 .707-.192 1.407-.555 2.025-.241.41-.273.911-.087 1.349.187.438.571.761 1.034.871 1.813.43 3.08 2.031 3.08 3.894-.002 2.179-1.711 3.936-3.892 3.998z" fill="#3a312a"/></g></g><g><g><path d="m186.646 174.007c0-2.602-1.807-4.777-4.234-5.353.481-.818.762-1.767.762-2.785 0-3.041-2.465-5.507-5.507-5.507-1.034 0-1.997.29-2.824.785-.915-1.773-2.76-2.987-4.893-2.988-2.817 0-5.135 2.116-5.463 4.844-.418-.101-.852-.161-1.3-.161-3.041 0-5.507 2.466-5.507 5.507 0 1.433.552 2.733 1.448 3.713-1.387 1-2.294 2.625-2.294 4.466 0 2.867 2.192 5.22 4.991 5.481.001 3.041 2.466 5.505 5.507 5.505 1.909 0 3.591-.972 4.579-2.448 1.009 1.272 2.564 2.091 4.314 2.091 3.041 0 5.507-2.465 5.507-5.507 0-.761-.154-1.486-.434-2.146 2.967-.083 5.348-2.509 5.348-5.497z" fill="#d7e057"/></g></g><g><g><path d="m188.146 174.007c0-2.662-1.478-5.018-3.748-6.202.182-.628.275-1.28.275-1.936 0-3.863-3.143-7.006-7.007-7.006-.778 0-1.549.131-2.282.385-1.314-1.622-3.293-2.587-5.435-2.587-3.023 0-5.645 1.932-6.609 4.685-3.886-.103-7.161 3.09-7.161 7.005 0 1.242.33 2.449.946 3.508-1.141 1.274-1.793 2.937-1.793 4.671 0 3.208 2.123 5.918 5.106 6.746.598 3.261 3.462 5.74 6.892 5.74 1.744 0 3.396-.645 4.665-1.778 1.204.916 2.677 1.421 4.228 1.421 3.864 0 7.007-3.143 7.007-7.007 0-.316-.02-.629-.062-.938 2.902-.863 4.978-3.528 4.978-6.707zm-6.891 3.999c-.495.014-.952.272-1.219.689-.268.417-.312.939-.119 1.395.209.493.315 1.018.315 1.561 0 2.209-1.797 4.007-4.007 4.007-1.227 0-2.371-.555-3.139-1.522-.298-.375-.75-.575-1.236-.567-.479.02-.919.267-1.186.665-.747 1.116-1.993 1.782-3.332 1.782-2.208 0-4.006-1.797-4.007-4.006 0-.774-.59-1.421-1.361-1.493-2.069-.192-3.63-1.906-3.63-3.987 0-1.28.625-2.495 1.671-3.25.348-.25.571-.637.615-1.063s-.097-.851-.386-1.167c-.68-.743-1.055-1.702-1.055-2.7 0-2.21 1.797-4.007 4.007-4.007.308 0 .617.039.946.119.417.102.857.019 1.209-.225.353-.244.583-.628.634-1.054.241-2.008 1.95-3.523 3.974-3.523 1.503 0 2.868.833 3.56 2.175.19.368.523.642.922.755s.827.058 1.181-.156c.625-.374 1.335-.572 2.054-.572 2.21 0 4.007 1.797 4.007 4.006 0 .707-.192 1.407-.555 2.025-.241.41-.273.911-.086 1.349s.57.761 1.033.871c1.813.43 3.08 2.031 3.08 3.893.001 2.181-1.708 3.938-3.89 4z" fill="#3a312a"/></g></g><g><g><path d="m208.749 177.455c0-2.602-1.807-4.778-4.234-5.353.481-.818.762-1.768.762-2.785 0-3.041-2.465-5.507-5.507-5.507-1.034 0-1.997.29-2.824.786-.915-1.773-2.76-2.987-4.893-2.987-2.817 0-5.135 2.116-5.463 4.844-.418-.101-.852-.161-1.3-.161-3.041 0-5.507 2.465-5.507 5.507 0 1.432.552 2.733 1.448 3.713-1.388 1-2.294 2.625-2.294 4.466 0 2.867 2.192 5.22 4.991 5.481.001 3.041 2.466 5.506 5.507 5.505 1.909 0 3.591-.972 4.579-2.448 1.009 1.272 2.564 2.09 4.314 2.09 3.041 0 5.507-2.465 5.507-5.507 0-.761-.155-1.486-.434-2.146 2.967-.084 5.348-2.511 5.348-5.498z" fill="#d7e057"/></g></g><g><g><path d="m210.249 177.455c0-2.662-1.477-5.018-3.747-6.202.182-.627.275-1.279.275-1.936 0-3.864-3.143-7.007-7.007-7.007-.778 0-1.55.131-2.282.385-1.315-1.622-3.293-2.587-5.435-2.587-3.024 0-5.645 1.932-6.609 4.685-3.953-.121-7.161 3.09-7.161 7.005 0 1.242.33 2.448.946 3.508-1.14 1.274-1.792 2.937-1.792 4.671 0 3.208 2.122 5.918 5.105 6.746.598 3.261 3.461 5.74 6.892 5.74 1.744 0 3.396-.645 4.665-1.778 1.204.916 2.677 1.421 4.228 1.421 3.864 0 7.007-3.143 7.007-7.007 0-.316-.021-.628-.062-.938 2.901-.862 4.977-3.527 4.977-6.706zm-6.891 3.999c-.495.014-.951.272-1.219.689s-.313.938-.119 1.395c.209.494.315 1.02.315 1.561 0 2.21-1.797 4.007-4.007 4.007-1.227 0-2.371-.555-3.139-1.523-.297-.375-.762-.588-1.236-.566-.479.019-.919.266-1.186.664-.747 1.116-1.993 1.783-3.332 1.783-2.208 0-4.006-1.797-4.007-4.006-.001-.774-.59-1.421-1.361-1.493-2.069-.192-3.629-1.907-3.629-3.987 0-1.281.624-2.496 1.671-3.25.348-.25.571-.637.615-1.063s-.097-.851-.386-1.167c-.68-.743-1.055-1.702-1.055-2.7 0-2.209 1.797-4.007 4.007-4.007.308 0 .618.039.948.119.417.101.856.018 1.208-.226s.583-.628.634-1.053c.241-2.008 1.95-3.522 3.974-3.522 1.503 0 2.868.833 3.56 2.175.19.368.524.642.923.755s.827.057 1.182-.157c.624-.374 1.333-.572 2.052-.572 2.21 0 4.007 1.797 4.007 4.006 0 .708-.192 1.408-.555 2.025-.241.41-.273.911-.087 1.349.187.438.571.761 1.034.871 1.814.43 3.08 2.031 3.08 3.894-.001 2.18-1.71 3.937-3.892 3.999z" fill="#3a312a"/></g></g><g><g><path d="m201.66 142.082c0-2.602-1.807-4.778-4.234-5.353.481-.818.762-1.767.762-2.785 0-3.041-2.466-5.507-5.507-5.507-1.034 0-1.997.29-2.824.786-.915-1.773-2.76-2.987-4.893-2.987-2.816 0-5.135 2.116-5.463 4.844-.418-.101-.852-.161-1.3-.161-3.041 0-5.507 2.465-5.507 5.507 0 1.432.551 2.733 1.448 3.713-1.388 1-2.294 2.625-2.294 4.466 0 2.867 2.192 5.22 4.991 5.48.001 3.041 2.466 5.505 5.507 5.506 1.909 0 3.591-.972 4.579-2.448 1.009 1.272 2.564 2.091 4.314 2.091 3.041 0 5.507-2.465 5.507-5.507 0-.761-.154-1.486-.434-2.146 2.967-.085 5.348-2.512 5.348-5.499z" fill="#d7e057"/></g></g><g><g><path d="m203.16 142.082c0-2.662-1.478-5.018-3.748-6.202.182-.628.275-1.279.275-1.936 0-3.864-3.143-7.007-7.006-7.007-.778 0-1.55.131-2.282.386-1.314-1.623-3.293-2.587-5.435-2.587-3.023 0-5.644 1.932-6.609 4.685-3.925-.121-7.161 3.09-7.161 7.004-.001 1.242.329 2.449.946 3.508-1.14 1.274-1.792 2.938-1.792 4.671 0 3.207 2.122 5.917 5.106 6.746.598 3.261 3.461 5.74 6.892 5.74 1.743 0 3.395-.645 4.664-1.778 1.204.916 2.678 1.42 4.229 1.42 3.863 0 7.006-3.143 7.006-7.005 0-.316-.021-.629-.062-.939 2.901-.862 4.977-3.527 4.977-6.706zm-6.891 3.999c-.495.014-.952.272-1.219.689-.268.417-.312.939-.119 1.396.209.494.315 1.019.315 1.561 0 2.209-1.797 4.006-4.006 4.006-1.228 0-2.372-.555-3.139-1.522-.298-.375-.759-.576-1.235-.567-.479.02-.92.266-1.186.665-.747 1.116-1.993 1.783-3.332 1.783-2.209-.001-4.007-1.797-4.007-4.006 0-.774-.59-1.421-1.361-1.493-2.07-.193-3.63-1.907-3.63-3.987 0-1.281.625-2.496 1.671-3.25.348-.251.571-.637.615-1.064.044-.426-.097-.851-.386-1.166-.681-.743-1.055-1.701-1.055-2.699 0-2.21 1.797-4.007 4.006-4.007.308 0 .618.038.947.119.417.101.856.018 1.208-.226.352-.245.583-.628.634-1.053.242-2.008 1.95-3.523 3.974-3.523 1.504 0 2.868.833 3.56 2.175.19.369.524.642.922.755s.827.057 1.182-.156c.624-.374 1.334-.572 2.053-.572 2.209 0 4.006 1.797 4.006 4.007 0 .707-.192 1.407-.555 2.024-.241.41-.273.911-.087 1.349.187.438.571.761 1.034.871 1.813.43 3.08 2.031 3.08 3.894.001 2.178-1.708 3.935-3.89 3.997z" fill="#3a312a"/></g></g><g><g><path d="m218.473 157.598c0-2.603-1.807-4.778-4.234-5.353.481-.818.762-1.767.762-2.785 0-3.041-2.465-5.507-5.507-5.507-1.034 0-1.997.29-2.824.785-.915-1.773-2.76-2.987-4.893-2.987-2.817 0-5.135 2.116-5.463 4.844-.417-.101-.852-.161-1.3-.161-3.041 0-5.507 2.466-5.507 5.507 0 1.433.552 2.733 1.448 3.713-1.387 1-2.294 2.625-2.294 4.466 0 2.867 2.192 5.22 4.991 5.481.001 3.041 2.466 5.505 5.507 5.505 1.909 0 3.591-.972 4.579-2.448 1.009 1.272 2.564 2.091 4.314 2.091 3.041 0 5.507-2.466 5.507-5.507 0-.761-.155-1.486-.434-2.146 2.967-.084 5.348-2.51 5.348-5.498z" fill="#d7e057"/></g></g><g><g><path d="m219.973 157.598c0-2.662-1.477-5.018-3.747-6.202.182-.628.275-1.279.275-1.936 0-3.864-3.143-7.007-7.007-7.007-.778 0-1.549.131-2.282.385-1.314-1.623-3.294-2.587-5.435-2.587-3.024 0-5.645 1.932-6.609 4.685-3.945-.1-7.161 3.09-7.161 7.004 0 1.242.33 2.449.946 3.508-1.14 1.273-1.792 2.937-1.792 4.671 0 3.208 2.123 5.918 5.107 6.746.598 3.261 3.46 5.74 6.892 5.74 1.743 0 3.395-.645 4.664-1.778 1.204.916 2.677 1.421 4.228 1.421 3.864 0 7.007-3.143 7.007-7.007 0-.316-.021-.629-.062-.938 2.9-.861 4.976-3.525 4.976-6.705zm-6.891 3.999c-.496.014-.952.272-1.22.689s-.313.939-.119 1.395c.209.493.315 1.019.315 1.561 0 2.209-1.797 4.007-4.007 4.007-1.227 0-2.371-.555-3.139-1.523-.298-.375-.747-.582-1.236-.567-.479.02-.919.267-1.186.664-.747 1.116-1.993 1.782-3.332 1.782-2.209 0-4.006-1.797-4.006-4.006 0-.774-.59-1.421-1.361-1.493-2.069-.192-3.63-1.906-3.63-3.986.001-1.281.625-2.496 1.671-3.249.348-.251.572-.637.616-1.064.044-.426-.096-.85-.385-1.167-.681-.744-1.055-1.703-1.055-2.701 0-2.209 1.797-4.006 4.007-4.006.305 0 .624.04.946.118.416.102.857.02 1.209-.225.352-.244.583-.628.634-1.054.241-2.008 1.95-3.522 3.974-3.522 1.504 0 2.868.833 3.56 2.175.19.368.524.642.923.755.398.113.826.057 1.182-.157.624-.374 1.333-.572 2.052-.572 2.209 0 4.007 1.797 4.007 4.007 0 .707-.192 1.407-.555 2.025-.241.41-.273.911-.087 1.349.187.438.571.761 1.034.871 1.813.43 3.08 2.031 3.08 3.894-.001 2.181-1.71 3.938-3.892 4z" fill="#3a312a"/></g></g><g><g><path d="m112.211 180.868-30.75-30.75c-1.321-1.321-3.462-1.321-4.783 0s-1.321 3.462 0 4.783l30.75 30.75c1.321 1.321 3.462 1.321 4.783 0 1.32-1.32 1.32-3.462 0-4.783z" fill="#fce8cb"/></g></g><g><g><path d="m113.271 179.808-30.75-30.75c-1.903-1.904-5.001-1.904-6.904 0-1.904 1.903-1.904 5.001 0 6.904l30.749 30.75c.952.952 2.202 1.428 3.452 1.428s2.5-.475 3.452-1.428c1.904-1.903 1.905-5.001.001-6.904zm-2.121 4.783c-.734.733-1.928.733-2.662 0l-30.75-30.75c-.734-.734-.734-1.928 0-2.662.367-.367.849-.55 1.331-.55s.964.184 1.331.55l30.749 30.749c.735.735.735 1.929.001 2.663z" fill="#3a312a"/></g></g><g><g><path d="m114.944 178.819c-3.774-3.774-8.975-4.692-11.617-2.05s-1.724 7.843 2.05 11.616c3.774 3.774 8.975 4.692 11.617 2.05s1.724-7.843-2.05-11.616z" fill="#d7e057"/></g></g><g><g><path d="m116.004 177.758c-4.426-4.426-10.461-5.327-13.737-2.05-1.634 1.633-2.272 4.015-1.798 6.705.44 2.494 1.807 4.992 3.848 7.033 2.634 2.634 5.836 4.02 8.689 4.02 1.941 0 3.721-.642 5.048-1.969 3.277-3.278 2.377-9.312-2.05-13.739zm-.07 11.617c-2.018 2.017-6.367 1.079-9.496-2.05-1.609-1.61-2.68-3.539-3.014-5.433-.3-1.698.043-3.14.964-4.062.722-.722 1.743-1.065 2.899-1.065 2.075 0 4.587 1.106 6.596 3.115 3.129 3.128 4.068 7.476 2.051 9.495z" fill="#3a312a"/></g></g><g><g><path d="m105.763 188.837-39.56-18.059c-1.699-.776-3.706-.027-4.481 1.672-.776 1.699-.027 3.706 1.672 4.481l39.559 18.059c1.699.776 3.706.027 4.481-1.672.777-1.699.028-3.705-1.671-4.481z" fill="#fce8cb"/></g></g><g><g><path d="m106.386 187.472-39.559-18.058c-1.187-.542-2.514-.589-3.734-.133-1.222.456-2.193 1.36-2.735 2.547-1.117 2.449-.035 5.351 2.414 6.469l39.56 18.058c.655.299 1.343.441 2.021.441 1.854 0 3.629-1.061 4.448-2.854 1.116-2.449.033-5.351-2.415-6.47zm-.316 5.224c-.431.944-1.551 1.362-2.494.93l-39.56-18.058c-.944-.431-1.362-1.55-.931-2.494.316-.692 1.001-1.101 1.715-1.101.261 0 .526.054.779.17l39.56 18.058c.945.432 1.362 1.551.931 2.495z" fill="#3a312a"/></g></g><g><g><ellipse cx="104.798" cy="192.115" fill="#d7e057" rx="6.765" ry="9.664" transform="matrix(.415 -.91 .91 .415 -113.488 207.668)"/></g></g><g><g><path d="m108.23 184.596c-2.626-1.198-5.442-1.606-7.934-1.145-2.687.496-4.694 1.926-5.654 4.028-.959 2.102-.725 4.556.66 6.911 1.285 2.183 3.438 4.045 6.063 5.244 1.998.912 4.029 1.348 5.908 1.348 3.477 0 6.43-1.494 7.68-4.231 1.924-4.216-1.029-9.555-6.723-12.155zm3.995 10.909c-1.185 2.596-5.586 3.238-9.613 1.399-2.071-.945-3.749-2.378-4.724-4.036-.874-1.486-1.058-2.958-.516-4.143.541-1.186 1.773-2.011 3.469-2.324.493-.091 1.005-.136 1.531-.136 1.49 0 3.082.361 4.613 1.061 4.024 1.837 6.424 5.583 5.24 8.179z" fill="#3a312a"/></g></g><g><g><path d="m91.915 201.876-32.163-29.268c-1.382-1.257-3.521-1.156-4.778.225-1.257 1.382-1.156 3.521.225 4.778l32.163 29.268c1.382 1.257 3.521 1.156 4.778-.225 1.258-1.381 1.157-3.521-.225-4.778z" fill="#fce8cb"/></g></g><g><g><path d="m92.925 200.767-32.164-29.268c-.964-.877-2.209-1.329-3.516-1.266-1.303.061-2.504.626-3.381 1.591-.878.964-1.327 2.213-1.266 3.516.062 1.303.626 2.503 1.591 3.381l32.164 29.269c.934.85 2.11 1.268 3.284 1.268 1.328 0 2.651-.537 3.613-1.593v-.001c1.811-1.992 1.665-5.085-.325-6.897zm-1.894 4.878c-.699.768-1.892.823-2.659.125l-32.163-29.268c-.372-.338-.59-.801-.613-1.304-.024-.502.149-.983.488-1.355.338-.372.801-.589 1.304-.613.03-.002.061-.002.09-.002.469 0 .916.172 1.265.49l32.164 29.268c.766.698.822 1.891.124 2.659z" fill="#3a312a"/></g></g><g><g><path d="m94.549 199.7c-3.947-3.592-9.186-4.264-11.7-1.501-2.515 2.763-1.353 7.915 2.595 11.507 3.947 3.592 9.186 4.264 11.7 1.501s1.352-7.915-2.595-11.507z" fill="#d7e057"/></g></g><g><g><path d="m99.733 205.435c-.557-2.471-2.04-4.902-4.174-6.844-2.135-1.942-4.694-3.19-7.206-3.512-2.71-.348-5.058.402-6.613 2.111-3.119 3.428-1.936 9.413 2.694 13.626 2.62 2.384 5.7 3.616 8.446 3.616 2.108 0 4.019-.726 5.373-2.214 1.555-1.71 2.08-4.119 1.48-6.783zm-3.699 4.763c-1.92 2.11-6.309 1.377-9.582-1.601h.001c-3.273-2.979-4.416-7.278-2.495-9.389.877-.964 2.303-1.373 4.012-1.154 1.907.245 3.885 1.223 5.568 2.755 1.684 1.532 2.844 3.409 3.267 5.285.38 1.682.107 3.139-.771 4.104z" fill="#3a312a"/></g></g><g><g><path d="m94.404 175.321-35.352-25.324c-1.518-1.088-3.631-.739-4.719.78s-.739 3.632.78 4.719l35.352 25.324c1.519 1.088 3.632.739 4.719-.78 1.088-1.519.739-3.631-.78-4.719z" fill="#fce8cb"/></g></g><g><g><path d="m95.278 174.102-35.352-25.324c-1.06-.759-2.352-1.061-3.639-.848-1.287.212-2.414.914-3.173 1.974-1.568 2.188-1.063 5.244 1.125 6.812l35.352 25.324c.859.616 1.853.912 2.836.912 1.522 0 3.023-.708 3.976-2.037 1.568-2.19 1.063-5.246-1.125-6.813zm-1.313 5.065c-.604.843-1.784 1.038-2.626.434l-35.352-25.324c-.844-.605-1.039-1.783-.434-2.626.292-.409.727-.679 1.223-.761.104-.017.208-.026.311-.026.39 0 .769.121 1.092.352l35.352 25.324c.843.605 1.038 1.783.434 2.627z" fill="#3a312a"/></g></g><g><g><path d="m96.767 172.853c-4.339-3.108-9.62-3.166-11.795-.129-2.176 3.037-.422 8.019 3.917 11.127s9.62 3.166 11.795.128c2.175-3.037.422-8.018-3.917-11.126z" fill="#d7e057"/></g></g><g><g><path d="m102.583 177.944c-.841-2.389-2.596-4.63-4.942-6.311s-5.033-2.622-7.566-2.649c-2.721-.029-4.977.988-6.322 2.867-2.699 3.767-.827 9.574 4.262 13.22 2.491 1.785 5.224 2.672 7.682 2.672 2.563 0 4.829-.967 6.207-2.89 1.344-1.878 1.586-4.331.679-6.909zm-3.119 5.162c-1.662 2.32-6.105 2.102-9.703-.474-3.597-2.577-5.232-6.714-3.571-9.034.759-1.06 2.148-1.664 3.851-1.614 1.923.02 4.002.762 5.852 2.088 1.851 1.326 3.221 3.055 3.86 4.869.573 1.626.47 3.105-.289 4.165z" fill="#3a312a"/></g></g><g><g><path d="m100.914 198.249-37.249-22.441c-1.6-.964-3.679-.448-4.642 1.152-.964 1.6-.448 3.679 1.152 4.643l37.249 22.441c1.6.964 3.679.448 4.642-1.152.964-1.6.448-3.679-1.152-4.643z" fill="#fce8cb"/></g></g><g><g><path d="m101.688 196.964-37.249-22.441c-1.117-.673-2.428-.872-3.695-.557-1.266.314-2.333 1.102-3.006 2.219s-.871 2.43-.557 3.695c.314 1.266 1.102 2.333 2.219 3.006l37.249 22.44c.786.474 1.654.699 2.511.699 1.657 0 3.275-.842 4.19-2.361 1.39-2.304.644-5.31-1.662-6.7zm-.907 5.153c-.536.89-1.694 1.176-2.584.642l-37.249-22.44c-.43-.26-.734-.671-.855-1.159s-.044-.994.215-1.425c.26-.431.671-.734 1.159-.855.151-.038.305-.056.457-.056.338 0 .671.092.968.27l37.249 22.44c.888.536 1.175 1.695.64 2.583z" fill="#3a312a"/></g></g><g><g><path d="m103.073 195.602c-4.572-2.754-9.84-2.393-11.768.807s.215 8.027 4.787 10.781 9.84 2.393 11.768-.807-.215-8.027-4.787-10.781z" fill="#d7e057"/></g></g><g><g><path d="m109.275 200.216c-1.028-2.315-2.956-4.41-5.428-5.899-5.361-3.23-11.436-2.652-13.827 1.318-1.192 1.979-1.239 4.444-.13 6.94 1.028 2.315 2.956 4.41 5.428 5.899 2.231 1.345 4.692 2.066 7.009 2.066.25 0 .497-.009.743-.025 2.725-.187 4.883-1.38 6.075-3.359 1.192-1.978 1.238-4.443.13-6.94zm-2.7 5.392c-.673 1.116-1.99 1.796-3.711 1.914-1.918.136-4.048-.442-5.999-1.617-1.95-1.175-3.454-2.79-4.234-4.547-.7-1.576-.715-3.059-.042-4.175.771-1.278 2.354-1.925 4.23-1.925 1.713 0 3.671.539 5.479 1.628 1.95 1.175 3.454 2.79 4.234 4.547.701 1.576.716 3.059.043 4.175z" fill="#3a312a"/></g></g><g><g><path d="m131.625 72.674c-26.31 0-47.638 34.286-47.638 60.595 0 26.31 21.328 47.638 47.638 47.638s47.638-21.328 47.638-47.638c0-26.309-21.328-60.595-47.638-60.595z" fill="#fce8cb"/></g></g><g><g><path d="m131.625 71.174c-26.463 0-49.138 34.144-49.138 62.095 0 27.095 22.043 49.138 49.138 49.138s49.138-22.043 49.138-49.138c0-27.952-22.675-62.095-49.138-62.095zm0 108.233c-25.44 0-46.138-20.697-46.138-46.138 0-12.824 5.109-27.509 13.666-39.282 9.287-12.777 20.819-19.813 32.472-19.813s23.185 7.037 32.472 19.813c8.557 11.773 13.666 26.457 13.666 39.282 0 25.441-20.698 46.138-46.138 46.138z" fill="#3a312a"/></g></g><g><g><circle cx="131.625" cy="133.269" fill="#d6df58" r="24.391"/></g></g><g><g><path d="m131.625 107.378c-14.276 0-25.891 11.614-25.891 25.891 0 14.276 11.614 25.891 25.891 25.891s25.891-11.614 25.891-25.891c0-14.276-11.615-25.891-25.891-25.891zm0 48.782c-12.622 0-22.891-10.269-22.891-22.891s10.269-22.891 22.891-22.891 22.891 10.269 22.891 22.891-10.269 22.891-22.891 22.891z" fill="#3a312a"/></g></g><g><g><path d="m131.625 110.382c-2.63 0-5.15.45-7.5 1.27 8.95 3.1 15.39 11.62 15.39 21.62 0 9.99-6.44 18.51-15.39 21.62 2.35.82 4.87 1.27 7.5 1.27 12.62 0 22.89-10.27 22.89-22.89 0-12.63-10.27-22.89-22.89-22.89z" fill="#b9c239"/></g></g></g></svg>