<svg id="Layer_1" enable-background="new 0 0 256 256" height="512" viewBox="0 0 256 256" width="512" xmlns="http://www.w3.org/2000/svg"><g><circle cx="131.625" cy="131.622" fill="#f8e4c8" r="107.75"/><path d="m131.625 240.872c-60.241 0-109.25-49.009-109.25-109.25s49.009-109.25 109.25-109.25c60.24 0 109.25 49.009 109.25 109.25s-49.01 109.25-109.25 109.25zm0-215.5c-58.586 0-106.25 47.663-106.25 106.25 0 58.586 47.664 106.25 106.25 106.25 58.587 0 106.25-47.664 106.25-106.25s-47.663-106.25-106.25-106.25z" fill="#3a312a"/><path d="m100.074 45.899c-34.887 12.845-59.771 46.377-59.771 85.723 0 50.436 40.886 91.322 91.322 91.322s91.322-40.886 91.322-91.322-40.886-91.322-91.322-91.322c-6.054 0-11.969.595-17.693 1.719z" fill="#ed6e7a"/><path d="m131.625 224.444c-51.182 0-92.822-41.64-92.822-92.822 0-38.736 24.415-73.751 60.753-87.13.776-.287 1.64.112 1.926.89.286.777-.112 1.64-.89 1.926-35.163 12.946-58.789 46.83-58.789 84.315 0 49.528 40.294 89.822 89.822 89.822 49.527 0 89.821-40.294 89.821-89.822s-40.294-89.822-89.821-89.822c-5.834 0-11.69.569-17.404 1.691-.811.165-1.602-.37-1.761-1.183-.16-.813.37-1.602 1.183-1.761 5.905-1.16 11.955-1.748 17.982-1.748 51.182 0 92.821 41.64 92.821 92.822s-41.639 92.822-92.821 92.822z" fill="#3a312a"/><path d="m47.536 26.305s3.408 12.659 13.222 13.246c0 0-13.1 4.525-13.321 14.202 0 0-2.579-13.572-12.925-14.059 0 0 12.05-1.825 13.024-13.389z" fill="#d7e057"/><path d="m47.436 55.252c-.713 0-1.335-.506-1.472-1.217-.024-.124-2.495-12.417-11.523-12.842-.77-.037-1.388-.651-1.428-1.421-.04-.771.511-1.445 1.273-1.561.441-.069 10.894-1.817 11.754-12.033.061-.725.634-1.301 1.359-1.367.731-.06 1.393.399 1.584 1.102.032.116 3.259 11.626 11.864 12.141.714.043 1.297.584 1.396 1.292.098.708-.319 1.388-.994 1.623-.121.042-12.118 4.311-12.313 12.819-.018.767-.61 1.396-1.374 1.459-.042.004-.085.005-.126.005zm-7.741-15.729c3.878 1.969 6.23 5.746 7.587 8.876 2.026-4.021 5.941-6.787 8.949-8.427-4.134-1.842-6.783-5.651-8.333-8.722-1.795 4.36-5.273 6.868-8.203 8.273z" fill="#3a312a"/><path d="m25.838 43.285s2.411 8.954 9.352 9.369c0 0-9.266 3.201-9.422 10.045 0 0-1.824-9.6-9.142-9.944-.001.001 8.523-1.29 9.212-9.47z" fill="#d7e057"/><path d="m25.766 64.2c-.713 0-1.337-.507-1.472-1.22-.016-.082-1.704-8.441-7.739-8.726-.77-.037-1.387-.651-1.427-1.421-.04-.771.511-1.445 1.273-1.561.296-.047 7.364-1.243 7.942-8.114.061-.726.635-1.303 1.36-1.368.727-.063 1.392.4 1.582 1.102.021.079 2.228 7.92 7.994 8.265.714.043 1.299.584 1.396 1.293.098.709-.319 1.388-.996 1.622-.081.028-8.282 2.953-8.413 8.662-.018.767-.611 1.397-1.376 1.461-.041.004-.083.005-.124.005zm-4.519-11.528c2.107 1.333 3.523 3.394 4.447 5.28 1.376-2.232 3.516-3.872 5.365-4.973-2.287-1.27-3.884-3.35-4.941-5.224-1.174 2.287-3.016 3.876-4.871 4.917z" fill="#3a312a"/><path d="m25.838 16.628s2.411 8.954 9.352 9.37c0 0-9.266 3.201-9.422 10.045 0 0-1.824-9.6-9.142-9.944-.001 0 8.523-1.292 9.212-9.471z" fill="#d7e057"/><path d="m25.766 37.543c-.713 0-1.337-.507-1.472-1.22-.016-.082-1.704-8.442-7.739-8.726-.771-.037-1.388-.651-1.428-1.421-.04-.771.511-1.445 1.273-1.561.296-.047 7.364-1.243 7.942-8.114.061-.726.635-1.303 1.36-1.368.727-.064 1.392.4 1.582 1.102.021.079 2.228 7.92 7.994 8.265.714.043 1.299.584 1.396 1.294.098.709-.32 1.388-.996 1.622-.081.028-8.282 2.952-8.413 8.662-.018.767-.611 1.398-1.376 1.461-.04.003-.082.004-.123.004zm-4.519-11.528c2.107 1.333 3.523 3.395 4.447 5.28 1.376-2.232 3.515-3.872 5.365-4.972-2.287-1.27-3.884-3.35-4.941-5.224-1.174 2.286-3.015 3.875-4.871 4.916z" fill="#3a312a"/><path d="m171.823 68.501c-4.859 0-8.798 3.939-8.798 8.797 0 4.858 3.939 8.797 8.797 8.797 4.858 0 8.797-3.939 8.797-8.797.001-4.859-3.937-8.797-8.796-8.797z" fill="#87796f"/><path d="m171.823 87.595c-5.679 0-10.298-4.619-10.298-10.297s4.619-10.298 10.297-10.298h.001c5.678 0 10.297 4.619 10.297 10.297 0 5.679-4.619 10.298-10.297 10.298zm0-17.594c-4.024 0-7.298 3.273-7.298 7.297s3.273 7.297 7.297 7.297 7.298-3.273 7.298-7.297-3.273-7.297-7.297-7.297z" fill="#3a312a"/><path d="m103.52 124.525c-4.559-1.682-9.617.65-11.299 5.208-1.682 4.558.65 9.617 5.208 11.298 4.558 1.682 9.617-.65 11.299-5.209 1.682-4.557-.65-9.615-5.208-11.297z" fill="#87796f"/><path d="m100.48 143.081c-1.202 0-2.408-.213-3.569-.642-2.58-.952-4.636-2.852-5.788-5.35-1.151-2.498-1.261-5.295-.309-7.875s2.852-4.636 5.35-5.788 5.295-1.262 7.875-.31l.001.001c5.327 1.965 8.062 7.897 6.096 13.224-.952 2.581-2.852 4.636-5.35 5.788-1.374.634-2.838.952-4.306.952zm-.009-17.603c-1.041 0-2.078.226-3.051.674-1.771.816-3.117 2.272-3.791 4.101-1.393 3.775.545 7.98 4.32 9.373 3.775 1.392 7.98-.546 9.373-4.32 1.393-3.775-.545-7.979-4.32-9.372-.825-.305-1.679-.456-2.531-.456z" fill="#3a312a"/><path d="m195.93 137.52c-3.45 3.422-3.473 8.992-.052 12.441 3.421 3.45 8.991 3.473 12.441.051 3.45-3.421 3.473-8.991.051-12.441-3.42-3.449-8.99-3.472-12.44-.051z" fill="#87796f"/><path d="m202.125 154.059c-2.651 0-5.302-1.015-7.313-3.042-3.997-4.032-3.97-10.564.061-14.563 4.032-3.999 10.564-3.971 14.563.06 3.998 4.032 3.971 10.565-.06 14.563-2.005 1.989-4.629 2.982-7.251 2.982zm-5.139-15.474c-2.856 2.833-2.876 7.463-.043 10.32 1.372 1.384 3.202 2.151 5.151 2.159h.031c1.937 0 3.761-.751 5.137-2.116 2.857-2.833 2.877-7.462.043-10.32-2.831-2.857-7.461-2.876-10.319-.043z" fill="#3a312a"/><path d="m174.982 176.108c-3.45 3.422-3.473 8.992-.052 12.441 3.421 3.45 8.991 3.473 12.441.051 3.45-3.421 3.473-8.991.051-12.441-3.421-3.449-8.991-3.472-12.44-.051z" fill="#87796f"/><path d="m181.177 192.647c-2.651 0-5.302-1.015-7.313-3.042-3.997-4.032-3.97-10.564.06-14.563 4.032-3.999 10.565-3.971 14.564.06 3.998 4.032 3.971 10.565-.061 14.563-2.004 1.989-4.628 2.982-7.25 2.982zm-5.139-15.474c-2.857 2.833-2.876 7.463-.043 10.32 1.372 1.384 3.202 2.151 5.151 2.159.01 0 .021.001.031.001 1.938 0 3.761-.751 5.137-2.116 2.857-2.833 2.877-7.462.043-10.32-2.832-2.858-7.462-2.877-10.319-.044z" fill="#3a312a"/><path d="m82.054 173.198c-3.45 3.422-3.473 8.992-.052 12.441 3.421 3.45 8.991 3.473 12.441.051 3.45-3.421 3.473-8.991.051-12.441-3.421-3.449-8.991-3.472-12.44-.051z" fill="#87796f"/><path d="m88.249 189.742c-.015 0-.029 0-.043-.001-2.751-.011-5.332-1.093-7.269-3.046-3.998-4.031-3.971-10.564.06-14.562v-.001c4.031-3.998 10.564-3.971 14.562.061 1.937 1.953 2.997 4.543 2.986 7.293-.011 2.751-1.093 5.332-3.046 7.269-1.942 1.927-4.515 2.987-7.25 2.987zm-5.139-15.479c-2.856 2.834-2.876 7.463-.043 10.32s7.463 2.876 10.32.043c1.384-1.373 2.15-3.202 2.159-5.151.008-1.949-.744-3.785-2.116-5.169-2.834-2.857-7.464-2.875-10.32-.043z" fill="#3a312a"/><path d="m96.716 66.653c-3.45 3.421-3.473 8.992-.052 12.441 3.421 3.45 8.991 3.473 12.441.052 3.45-3.421 3.473-8.991.052-12.441-3.421-3.45-8.991-3.473-12.441-.052z" fill="#87796f"/><path d="m102.911 83.192c-2.651 0-5.301-1.015-7.312-3.042-1.937-1.953-2.998-4.543-2.986-7.293.011-2.751 1.093-5.332 3.046-7.269l1.056 1.065-1.056-1.065c1.942-1.927 4.516-2.986 7.249-2.986h.044c2.75.012 5.332 1.093 7.269 3.046 3.999 4.031 3.971 10.564-.06 14.562-2.004 1.989-4.628 2.981-7.25 2.982zm-.001-17.587c-1.859 0-3.717.703-5.138 2.112-2.857 2.834-2.876 7.463-.043 10.32s7.463 2.877 10.32.043c2.856-2.833 2.876-7.463.043-10.32-1.425-1.435-3.303-2.155-5.182-2.155z" fill="#3a312a"/><path d="m164.476 112.976c0 7.514-3.466 11.259-7.741 11.259s-7.741-3.745-7.741-11.259 6.099-15.951 7.741-15.951 7.741 8.438 7.741 15.951z" fill="#d7e057"/><path d="m156.735 125.736c-4.263 0-9.241-3.342-9.241-12.76 0-4.745 2.161-9.263 3.45-11.533.788-1.388 3.533-5.918 5.791-5.918 2.977 0 9.24 9.776 9.24 17.451.001 9.418-4.977 12.76-9.24 12.76zm0-27.076c-1.679 1.31-6.241 8.103-6.241 14.316 0 6.02 2.392 9.76 6.241 9.76s6.24-3.74 6.24-9.76c.001-6.212-4.562-13.006-6.24-14.316z" fill="#3a312a"/><path d="m83.482 99.17c5.784 4.797 6.455 9.855 3.726 13.146s-7.824 3.568-13.608-1.229-8.385-14.877-7.337-16.141 11.435-.573 17.219 4.224z" fill="#d7e057"/><path d="m81.913 116.246c-2.627 0-5.774-1.105-9.271-4.005-3.652-3.029-5.75-7.577-6.675-10.018-.566-1.492-2.299-6.497-.859-8.234 1.442-1.739 6.68-.96 8.252-.681 2.57.458 7.427 1.678 11.08 4.707 7.249 6.012 6.644 11.977 3.923 15.258-1.409 1.699-3.631 2.973-6.45 2.973zm-14.393-20.257c-.063 2.128 2.254 9.977 7.036 13.942 4.634 3.843 9.039 4.389 11.496 1.426 2.458-2.963 1.105-7.191-3.528-11.034-4.782-3.965-12.924-4.79-15.004-4.334zm.041-.333" fill="#3a312a"/><path d="m158.798 195.572c-1.601 7.341-5.786 10.262-9.963 9.351s-6.765-5.309-5.164-12.65 9.358-14.285 10.962-13.935c1.606.35 5.766 9.893 4.165 17.234z" fill="#d7e057"/><path d="m150.301 206.584c-.59 0-1.186-.064-1.784-.195-2.6-.567-4.658-2.257-5.795-4.758-1.161-2.553-1.34-5.899-.516-9.677 1.012-4.636 4.087-8.589 5.829-10.533 1.066-1.188 4.709-5.028 6.919-4.548 2.909.635 6.945 11.522 5.31 19.02-.824 3.777-2.379 6.746-4.498 8.583-1.598 1.386-3.493 2.108-5.465 2.108zm3.985-26.649c-1.919.922-7.824 6.588-9.148 12.658-.686 3.141-.576 5.836.314 7.796.747 1.642 2.027 2.704 3.703 3.069 1.677.363 3.282-.066 4.645-1.248 1.626-1.411 2.848-3.816 3.532-6.957 0-.001 0-.001 0-.001 1.324-6.068-1.686-13.679-3.046-15.317z" fill="#3a312a"/><path d="m122.059 163.086c.961.192 1.927.31 2.881.327 7.513.136 11.32-3.261 11.398-7.535s-3.604-7.807-11.117-7.944c-7.513-.136-16.059 5.809-16.089 7.45-.008.461.658 1.289 1.762 2.238z" fill="#d7e057"/><path d="m125.363 164.917c-.149 0-.299-.002-.451-.004-.999-.018-2.059-.137-3.148-.355-.813-.163-1.339-.953-1.176-1.765s.953-1.34 1.765-1.176c.913.183 1.793.283 2.613.297 3.223.066 5.838-.575 7.585-1.831 1.465-1.053 2.256-2.516 2.286-4.23.069-3.849-3.626-6.308-9.644-6.417-6.175-.099-13.044 4.298-14.414 5.964.189.236.53.603 1.092 1.086.628.54.7 1.487.16 2.115-.54.629-1.487.7-2.115.16-2.048-1.76-2.296-2.744-2.284-3.404.054-2.975 9.919-9.1 17.615-8.921 9.415.17 12.667 5.208 12.59 9.47-.048 2.66-1.304 5.008-3.535 6.613-2.187 1.571-5.271 2.398-8.939 2.398z" fill="#3a312a"/><path d="m151.235 64.326c0-5.132-6.358-11.8-14.201-11.8s-14.201 6.668-14.201 11.8c0 4.474 4.832 5.295 11.266 5.432l-.999 6.654c-.361 2.405 1.501 4.568 3.933 4.568s4.294-2.163 3.933-4.568l-.999-6.654c6.436-.138 11.268-.959 11.268-5.432z" fill="#fce8cb"/><path d="m137.034 82.479c-1.597 0-3.109-.694-4.15-1.903-1.042-1.21-1.503-2.809-1.266-4.387l.747-4.979c-4.575-.178-11.032-1.004-11.032-6.884 0-6.024 7.003-13.3 15.701-13.3 8.697 0 15.701 7.276 15.701 13.3 0 5.88-6.456 6.706-11.031 6.884l.747 4.979c.236 1.579-.226 3.178-1.267 4.387s-2.554 1.903-4.15 1.903zm0-28.454c-7.247 0-12.701 6.249-12.701 10.3 0 2.299 1.639 3.758 9.798 3.932.431.009.837.203 1.114.533.278.33.4.763.337 1.189l-.998 6.654c-.108.714.101 1.437.572 1.984.941 1.094 2.813 1.095 3.754 0 .472-.547.681-1.27.573-1.984l-.999-6.654c-.064-.426.059-.859.336-1.189.278-.33.685-.524 1.115-.533 8.16-.173 9.799-1.633 9.799-3.932.001-4.051-5.453-10.3-12.7-10.3z" fill="#3a312a"/><path d="m106.834 197.179c0 5.132 6.358 11.8 14.201 11.8s14.201-6.668 14.201-11.8c0-4.474-4.832-5.295-11.266-5.432l.999-6.654c.361-2.405-1.501-4.568-3.933-4.568s-4.294 2.163-3.933 4.568l.999 6.654c-6.437.137-11.268.958-11.268 5.432z" fill="#fce8cb"/><path d="m121.034 210.479c-8.697 0-15.701-7.276-15.701-13.3 0-5.879 6.457-6.706 11.032-6.884l-.747-4.979c-.237-1.579.225-3.178 1.266-4.387 1.042-1.21 2.554-1.903 4.15-1.903s3.109.694 4.151 1.903c1.042 1.21 1.503 2.809 1.266 4.387l-.747 4.979c4.576.178 11.032 1.005 11.032 6.884-.001 6.024-7.005 13.3-15.702 13.3zm0-28.454c-.722 0-1.406.313-1.877.861-.471.547-.68 1.27-.573 1.984l.999 6.654c.064.426-.059.859-.336 1.189-.278.33-.684.523-1.115.533-8.159.174-9.798 1.634-9.798 3.932 0 4.052 5.454 10.3 12.701 10.3s12.701-6.248 12.701-10.3c0-2.298-1.639-3.758-9.798-3.932-.431-.009-.837-.203-1.115-.533s-.4-.763-.336-1.189l.999-6.654c.107-.714-.101-1.438-.572-1.984-.474-.547-1.158-.861-1.88-.861z" fill="#3a312a"/><path d="m81.207 133.047c-1.975-4.737-10.409-8.444-17.648-5.426s-10.541 11.619-8.566 16.356c1.722 4.129 6.497 3.027 12.489.678l1.639 6.526c.592 2.359 3.144 3.638 5.388 2.702s3.131-3.649 1.872-5.73l-3.483-5.757c5.887-2.602 10.031-5.22 8.309-9.349z" fill="#fce8cb"/><path d="m72.978 155.69c-.842 0-1.683-.195-2.455-.582-1.427-.715-2.468-2.014-2.857-3.562l-1.226-4.883c-4.291 1.597-10.569 3.319-12.832-2.109-2.318-5.56 1.346-14.971 9.374-18.317 8.028-3.347 17.292.674 19.609 6.233 2.263 5.426-3.378 8.674-7.533 10.599l2.606 4.308c.827 1.366 1.016 3.02.52 4.537s-1.625 2.739-3.099 3.354c-.675.281-1.392.422-2.107.422zm-5.496-12.535c.236 0 .472.056.687.167.383.197.663.55.768.968l1.639 6.526c.176.7.646 1.288 1.291 1.611.646.324 1.398.35 2.064.072.667-.278 1.177-.831 1.401-1.517.224-.687.139-1.435-.235-2.052l-3.482-5.757c-.223-.369-.277-.816-.147-1.227s.43-.747.824-.921c7.464-3.301 8.415-5.278 7.531-7.4-1.559-3.739-8.998-7.407-15.686-4.619-6.689 2.789-9.318 10.655-7.759 14.395.886 2.122 2.959 2.839 10.557-.142.176-.07.362-.104.547-.104z" fill="#3a312a"/><path d="m198.739 122.925c4.737-1.975 8.444-10.409 5.426-17.648s-11.619-10.541-16.356-8.566c-4.129 1.722-3.027 6.497-.678 12.489l-6.526 1.639c-2.359.592-3.638 3.144-2.702 5.388.936 2.245 3.649 3.131 5.73 1.872l5.757-3.483c2.603 5.887 5.22 10.031 9.349 8.309z" fill="#fce8cb"/><path d="m196.905 124.827c-4.008 0-6.567-4.552-8.189-8.05l-4.308 2.606c-1.365.826-3.019 1.017-4.536.52-1.518-.496-2.74-1.626-3.354-3.099-.614-1.474-.556-3.137.16-4.564.716-1.426 2.014-2.467 3.562-2.856l4.883-1.227c-1.596-4.291-3.317-10.568 2.109-12.831 2.751-1.147 6.503-.826 10.044.857 3.799 1.807 6.737 4.831 8.273 8.516 3.347 8.027-.673 17.291-6.233 19.609-.856.359-1.66.519-2.411.519zm1.834-1.902h.01zm-9.349-9.808c.151 0 .304.023.45.069.412.129.747.43.922.824 3.302 7.464 5.28 8.414 7.4 7.531 3.739-1.56 7.407-8.998 4.618-15.687-1.251-3.001-3.663-5.472-6.793-6.961-2.742-1.305-5.653-1.61-7.601-.798-2.121.885-2.838 2.959.142 10.557.157.401.135.851-.063 1.234s-.551.663-.969.769l-6.526 1.639c-.7.176-1.287.646-1.61 1.292-.324.646-.351 1.398-.072 2.064.277.666.83 1.177 1.517 1.401.688.224 1.434.14 2.052-.235l5.757-3.483c.236-.143.505-.216.776-.216z" fill="#3a312a"/><path d="m159.875 163.808c4.746 1.953 13.331-1.389 16.316-8.642 2.984-7.253-.762-15.67-5.508-17.623-4.137-1.702-6.735 2.454-9.31 8.352l-5.773-3.456c-2.086-1.249-4.795-.35-5.721 1.899-.925 2.249.366 4.794 2.727 5.376l6.534 1.608c-2.323 6.003-3.402 10.784.735 12.486z" fill="#fce8cb"/><path d="m162.953 165.864c-1.314 0-2.555-.218-3.648-.669 0 0 0 0-.001 0-5.436-2.237-3.744-8.522-2.169-12.821l-4.888-1.204c-1.55-.381-2.854-1.417-3.576-2.84-.722-1.424-.788-3.086-.18-4.563.607-1.477 1.825-2.611 3.34-3.114 1.518-.501 3.17-.319 4.538.499l4.319 2.585c1.906-4.164 5.129-9.817 10.564-7.582 5.571 2.293 9.634 11.538 6.324 19.58-2.658 6.465-9.247 10.129-14.623 10.129zm-2.508-3.443c3.751 1.541 11.601-1.124 14.358-7.826 2.757-6.701-.945-14.122-4.692-15.664-2.124-.877-4.101.089-7.364 7.565-.173.395-.507.697-.918.829-.411.131-.857.079-1.228-.142l-5.773-3.456c-.618-.371-1.366-.452-2.052-.226-.686.227-1.236.741-1.512 1.409-.274.667-.245 1.419.082 2.063.326.644.916 1.112 1.617 1.285l6.533 1.608c.419.103.772.381.972.764.199.382.225.832.069 1.234-2.944 7.612-2.218 9.683-.092 10.558z" fill="#3a312a"/><path d="m133.59 108.412c1.953-4.746-1.389-13.332-8.642-16.316-7.253-2.985-15.67.762-17.622 5.508-1.702 4.137 2.453 6.735 8.352 9.31l-3.456 5.773c-1.249 2.086-.35 4.795 1.899 5.721 2.249.925 4.794-.366 5.376-2.727l1.608-6.534c6.002 2.322 10.783 3.402 12.485-.735z" fill="#fce8cb"/><path d="m115.634 120.209c-.707 0-1.415-.137-2.085-.413-1.477-.608-2.611-1.826-3.114-3.341-.502-1.515-.32-3.169.499-4.538l2.585-4.32c-4.163-1.906-9.819-5.127-7.582-10.564 2.293-5.571 11.538-9.636 19.581-6.325 3.692 1.519 6.73 4.443 8.555 8.234 1.699 3.532 2.037 7.285.903 10.04-2.237 5.437-8.521 3.746-12.82 2.169l-1.204 4.889c-.381 1.55-1.417 2.853-2.84 3.575-.777.395-1.626.594-2.478.594zm3.832-27.684c-5.046 0-9.585 2.813-10.753 5.65-.875 2.125.086 4.099 7.565 7.365.395.172.697.506.829.917.131.411.079.858-.142 1.228l-3.456 5.773c-.371.619-.453 1.367-.226 2.052.227.686.741 1.236 1.409 1.511.666.275 1.42.246 2.063-.082.643-.327 1.112-.916 1.284-1.617l1.608-6.534c.103-.419.381-.773.764-.972.382-.198.833-.224 1.234-.068 7.614 2.945 9.682 2.217 10.558.092.803-1.951.483-4.862-.834-7.597-1.502-3.123-3.986-5.524-6.992-6.761-1.626-.668-3.295-.957-4.911-.957z" fill="#3a312a"/><path d="m131.625 41.802c-2.53 0-5.03.1-7.5.31 34.26 2.85 63.12 24.99 75.63 55.51 2.6 1.8 4.61 4.24 5.79 7.08 1.84 4.4 1.46 9.18-.19 12.98.72 4.54 1.09 9.2 1.09 13.94 0 .93-.01 1.85-.05 2.77 1.1.5 2.14 1.21 3.04 2.12 4 4.04 3.97 10.57-.06 14.57-1.58 1.56-3.57 2.56-5.74 2.87-2.53 9.88-6.71 19.1-12.23 27.36.31 2.99-.69 6.08-2.98 8.35-1.65 1.64-3.72 2.6-5.87 2.89-14.82 16.04-35.41 26.67-58.43 28.58 2.47.21 4.97.31 7.5.31 49.53 0 89.82-40.29 89.82-89.82s-40.29-89.82-89.82-89.82z" fill="#d34e5c"/></g></svg>