<svg id="Layer_1" enable-background="new 0 0 256 256" height="512" viewBox="0 0 256 256" width="512" xmlns="http://www.w3.org/2000/svg"><g><g><g><path d="m235.691 93.108c4.998-4.998 4.998-13.101.006-18.093-4.998-4.998-13.1-4.998-18.099 0-.221.222-.43.467-.633.707-5.023-4.088-12.418-3.787-17.096.891-1.857 1.857-3.019 4.137-3.492 6.529-4.783-2.348-10.709-1.549-14.687 2.428-2.256 2.256-3.48 5.14-3.701 8.09-4.217-1.058-8.871.043-12.173 3.344-2.895 2.896-4.1 6.842-3.633 10.617-4.168-.971-8.73.148-11.975 3.394-2.969 2.969-4.156 7.033-3.59 10.893-3.351-.055-6.707 1.187-9.259 3.738-3.24 3.24-4.365 7.771-3.406 11.926-2.619.394-5.139 1.574-7.156 3.591-3.744 3.744-4.678 9.228-2.815 13.844-2.047.572-3.99 1.654-5.607 3.271-4.641 4.641-4.961 11.957-.978 16.974-.117.104-.24.203-.35.314-3.436 3.436-4.512 8.336-3.209 12.688l.006.006c.578 1.98 1.653 3.842 3.209 5.398 1.629 1.629 3.584 2.724 5.662 3.289 4.285 1.174 9.055.08 12.424-3.289.105-.105.191-.215.289-.326 5.029 4.144 12.48 3.873 17.177-.824 1.617-1.617 2.699-3.559 3.271-5.607 4.617 1.863 10.101.928 13.844-2.816 2.017-2.017 3.197-4.537 3.59-7.156 4.156.959 8.687-.166 11.926-3.406 2.551-2.551 3.793-5.908 3.738-9.258 3.86.566 7.924-.621 10.893-3.59 3.246-3.246 4.365-7.807 3.393-11.976 3.775.467 7.721-.738 10.617-3.633 3.301-3.301 4.402-7.955 3.344-12.172 2.951-.221 5.834-1.445 8.09-3.701 3.978-3.977 4.777-9.904 2.428-14.687 2.391-.474 4.672-1.635 6.529-3.492 4.74-4.74 4.98-12.258.725-17.287.243-.201.476-.398.698-.619z" fill="#d7e057"/></g></g><g><g><path d="m240.94 84.059c.001-3.818-1.484-7.407-4.183-10.104-2.7-2.701-6.291-4.188-10.11-4.188-3.708 0-7.201 1.402-9.872 3.956-5.607-3.723-13.105-3.032-17.967 1.831-1.574 1.574-2.744 3.468-3.44 5.549-5.114-1.754-10.849-.483-14.738 3.407-2.017 2.017-3.374 4.593-3.914 7.382-4.409-.588-8.777.87-11.959 4.053-2.661 2.661-4.13 6.188-4.172 9.899-4.23-.407-8.394 1.067-11.438 4.111-2.82 2.821-4.292 6.584-4.162 10.521-3.283.318-6.321 1.746-8.687 4.111-3.137 3.137-4.605 7.462-4.073 11.81-2.464.638-4.685 1.902-6.488 3.707-3.687 3.687-5.045 9.028-3.656 13.969-1.782.717-3.408 1.788-4.766 3.146-4.812 4.81-5.524 12.276-1.881 17.871-3.298 3.689-4.462 8.824-3.032 13.595.009.032.02.063.031.095.669 2.227 1.897 4.278 3.56 5.939 1.755 1.756 3.943 3.027 6.326 3.675 1.242.34 2.509.506 3.767.506 3.462 0 6.854-1.258 9.485-3.589 5.631 3.816 13.19 3.162 18.095-1.742 1.357-1.357 2.429-2.984 3.145-4.766 4.942 1.387 10.282.03 13.97-3.657 1.804-1.804 3.068-4.024 3.706-6.488 4.349.529 8.674-.937 11.811-4.074 2.364-2.364 3.792-5.402 4.111-8.687 3.946.122 7.7-1.342 10.521-4.162 3.044-3.045 4.515-7.21 4.11-11.437 3.711-.043 7.238-1.511 9.9-4.172 3.184-3.183 4.642-7.557 4.054-11.959 2.789-.54 5.365-1.897 7.381-3.915 3.892-3.891 5.163-9.624 3.408-14.738 2.081-.695 3.975-1.866 5.549-3.44 4.869-4.868 5.499-12.596 1.681-18.175 2.534-2.665 3.926-6.146 3.927-9.84zm-7.73 25.896c-1.584 1.583-3.575 2.649-5.759 3.08-.457.091-.847.389-1.054.807-.206.418-.207.908-.002 1.326 2.132 4.341 1.272 9.551-2.143 12.965-1.903 1.903-4.439 3.063-7.142 3.266-.441.033-.845.259-1.104.618s-.346.813-.238 1.243c.979 3.903-.124 7.921-2.95 10.747-2.469 2.469-5.895 3.636-9.372 3.205-.485-.06-.972.121-1.3.486-.328.364-.457.866-.346 1.343.897 3.85-.222 7.803-2.992 10.575-2.536 2.537-6.041 3.692-9.615 3.166-.441-.061-.878.066-1.208.358-.33.29-.517.711-.51 1.151.051 3.093-1.121 5.996-3.299 8.174-2.765 2.765-6.699 3.888-10.529 3.005-.408-.095-.836-.014-1.181.221-.346.235-.577.604-.64 1.017-.364 2.426-1.46 4.611-3.167 6.318-3.21 3.21-8.008 4.186-12.223 2.485-.396-.16-.841-.143-1.225.046-.383.188-.667.531-.781.942-.522 1.872-1.52 3.583-2.887 4.95-4.131 4.132-10.65 4.444-15.162.727-.626-.516-1.546-.441-2.079.166l-.108.125c-.036.043-.07.086-.116.131-2.86 2.861-7.061 3.971-10.97 2.902-1.881-.512-3.608-1.516-4.995-2.903-1.331-1.33-2.31-2.975-2.83-4.757-.01-.035-.021-.069-.034-.103-1.147-3.946-.057-8.196 2.861-11.113.049-.049.103-.093.155-.138l.128-.111c.596-.529.674-1.431.179-2.055-3.563-4.486-3.191-10.926.863-14.98 1.366-1.366 3.077-2.364 4.949-2.886.411-.115.754-.399.942-.782s.205-.828.045-1.224c-1.7-4.214-.725-9.011 2.485-12.222 1.708-1.708 3.893-2.804 6.318-3.168.414-.062.782-.294 1.018-.64.235-.346.315-.774.222-1.181-.884-3.828.239-7.763 3.004-10.528 2.178-2.178 5.074-3.36 8.174-3.298.42-.002.861-.18 1.151-.51.29-.331.421-.772.357-1.207-.523-3.575.63-7.08 3.166-9.616 2.772-2.771 6.727-3.889 10.574-2.993.48.111.979-.018 1.344-.346.364-.328.546-.813.485-1.299-.431-3.487.737-6.903 3.206-9.372 2.825-2.826 6.843-3.931 10.746-2.95.43.108.885.021 1.243-.239.358-.259.585-.663.618-1.104.203-2.703 1.362-5.239 3.266-7.143 3.414-3.413 8.624-4.273 12.965-2.142.419.205.909.205 1.326-.003.418-.206.716-.596.807-1.053.433-2.185 1.498-4.176 3.081-5.759 4.108-4.108 10.594-4.447 15.088-.789.635.517 1.564.431 2.092-.193.176-.208.356-.423.55-.616 2.134-2.134 4.971-3.309 7.988-3.309 3.018 0 5.855 1.175 7.989 3.309 2.131 2.131 3.304 4.966 3.304 7.983-.001 3.018-1.177 5.854-3.313 7.991-.188.19-.39.357-.598.533-.305.257-.494.624-.528 1.021-.033.397.093.791.35 1.095 3.758 4.437 3.477 11.139-.639 15.255z" fill="#3a312a"/></g></g><g><g><path d="m113.845 188.26c.578 1.98 1.653 3.842 3.209 5.398 1.629 1.629 3.584 2.723 5.662 3.289l89.682-98.46z" fill="#fce8cb"/></g></g><g><g><path d="m213.458 97.426c-.566-.567-1.48-.588-2.07-.048l-98.553 89.774c-.424.386-.591.979-.43 1.529.661 2.264 1.901 4.352 3.588 6.038 1.754 1.754 3.942 3.026 6.328 3.676.131.036.263.053.395.053.416 0 .82-.173 1.109-.49l89.682-98.46c.539-.594.517-1.505-.049-2.072zm-91.206 97.803c-1.549-.56-2.966-1.458-4.138-2.631-1.111-1.111-1.977-2.441-2.535-3.887l74.052-67.456z" fill="#3a312a"/></g></g><g><g><path d="m211.629 118.657h-18.75c-.828 0-1.5.671-1.5 1.5s.672 1.5 1.5 1.5h18.75c.828 0 1.5-.671 1.5-1.5 0-.828-.672-1.5-1.5-1.5z" fill="#3a312a"/></g></g><g><g><path d="m195.799 136.024h-18.75c-.828 0-1.5.671-1.5 1.5s.672 1.5 1.5 1.5h18.75c.828 0 1.5-.671 1.5-1.5s-.672-1.5-1.5-1.5z" fill="#3a312a"/></g></g><g><g><path d="m179.866 153.289h-18.75c-.828 0-1.5.671-1.5 1.5s.672 1.5 1.5 1.5h18.75c.828 0 1.5-.671 1.5-1.5s-.672-1.5-1.5-1.5z" fill="#3a312a"/></g></g><g><g><path d="m164.036 170.656h-18.75c-.828 0-1.5.671-1.5 1.5s.672 1.5 1.5 1.5h18.75c.828 0 1.5-.671 1.5-1.5s-.672-1.5-1.5-1.5z" fill="#3a312a"/></g></g><g><g><path d="m190.625 97.653c-.828 0-1.5.671-1.5 1.5v18.75c0 .829.672 1.5 1.5 1.5s1.5-.671 1.5-1.5v-18.75c0-.829-.672-1.5-1.5-1.5z" fill="#3a312a"/></g></g><g><g><path d="m173.258 113.483c-.828 0-1.5.671-1.5 1.5v18.75c0 .829.672 1.5 1.5 1.5s1.5-.671 1.5-1.5v-18.75c0-.829-.672-1.5-1.5-1.5z" fill="#3a312a"/></g></g><g><g><path d="m155.993 129.415c-.828 0-1.5.671-1.5 1.5v18.751c0 .829.672 1.5 1.5 1.5s1.5-.671 1.5-1.5v-18.751c0-.828-.672-1.5-1.5-1.5z" fill="#3a312a"/></g></g><g><g><path d="m138.626 145.246c-.828 0-1.5.671-1.5 1.5v18.75c0 .829.672 1.5 1.5 1.5s1.5-.671 1.5-1.5v-18.75c0-.829-.672-1.5-1.5-1.5z" fill="#3a312a"/></g></g><g><g><path d="m47.661 26.206c-.974 11.564-13.024 13.39-13.024 13.39 10.347.487 12.925 14.059 12.925 14.059.221-9.677 13.321-14.203 13.321-14.203-9.814-.586-13.222-13.246-13.222-13.246z" fill="#d7e057"/></g></g><g><g><path d="m60.973 37.955c-8.604-.514-11.832-12.024-11.863-12.14-.19-.702-.847-1.158-1.584-1.101-.725.066-1.298.642-1.359 1.367-.859 10.215-11.313 11.964-11.754 12.033-.763.115-1.313.79-1.273 1.561.04.77.657 1.384 1.428 1.421 9.027.425 11.498 12.718 11.521 12.842.138.711.76 1.217 1.473 1.217.042 0 .084-.001.126-.005.764-.064 1.357-.693 1.375-1.459.194-8.509 12.191-12.777 12.313-12.819.676-.235 1.092-.914.994-1.622-.101-.711-.684-1.252-1.397-1.295zm-13.567 10.346c-1.356-3.13-3.709-6.907-7.587-8.876 2.931-1.405 6.409-3.913 8.202-8.273 1.551 3.071 4.2 6.88 8.334 8.722-3.006 1.64-6.922 4.406-8.949 8.427z" fill="#3a312a"/></g></g><g><g><path d="m25.963 43.187c-.689 8.179-9.213 9.471-9.213 9.471 7.318.344 9.142 9.944 9.142 9.944.156-6.844 9.422-10.045 9.422-10.045-6.941-.416-9.351-9.37-9.351-9.37z" fill="#d7e057"/></g></g><g><g><path d="m35.404 51.059c-5.767-.345-7.972-8.186-7.993-8.265-.19-.702-.864-1.16-1.582-1.101-.726.065-1.3.642-1.361 1.368-.579 6.871-7.646 8.067-7.942 8.114-.763.115-1.314.79-1.273 1.561.04.77.657 1.384 1.428 1.421 6.035.284 7.724 8.644 7.739 8.726.136.712.759 1.22 1.473 1.22.041 0 .083-.002.125-.005.765-.063 1.358-.694 1.376-1.461.13-5.709 8.331-8.633 8.412-8.661.676-.234 1.093-.913.996-1.622-.099-.71-.684-1.252-1.398-1.295zm-9.585 6.795c-.924-1.886-2.34-3.947-4.447-5.28 1.855-1.041 3.697-2.63 4.871-4.917 1.057 1.874 2.654 3.955 4.941 5.224-1.849 1.101-3.989 2.741-5.365 4.973z" fill="#3a312a"/></g></g><g><g><path d="m25.963 16.529c-.689 8.18-9.213 9.471-9.213 9.471 7.318.344 9.142 9.944 9.142 9.944.156-6.845 9.422-10.045 9.422-10.045-6.941-.416-9.351-9.37-9.351-9.37z" fill="#d7e057"/></g></g><g><g><path d="m35.404 24.401c-5.767-.345-7.972-8.186-7.993-8.265-.19-.702-.864-1.159-1.582-1.101-.726.065-1.3.642-1.361 1.368-.579 6.871-7.646 8.067-7.942 8.114-.763.115-1.314.79-1.273 1.561.04.77.657 1.384 1.428 1.421 6.035.284 7.724 8.644 7.739 8.726.136.712.759 1.22 1.473 1.22.041 0 .083-.001.125-.005.765-.063 1.358-.694 1.376-1.461.13-5.71 8.331-8.634 8.412-8.662.676-.234 1.093-.913.996-1.622-.099-.709-.684-1.251-1.398-1.294zm-9.585 6.796c-.924-1.886-2.34-3.947-4.447-5.28 1.855-1.042 3.697-2.63 4.871-4.917 1.057 1.874 2.654 3.954 4.941 5.224-1.849 1.101-3.989 2.74-5.365 4.973z" fill="#3a312a"/></g></g><g><g><path d="m154.097 149.548h-116.037v43h116.037c11.874 0 21.5-9.626 21.5-21.5s-9.626-21.5-21.5-21.5z" fill="#87796f"/></g></g><g><g><path d="m154.097 148.048h-116.037c-.828 0-1.5.671-1.5 1.5v43c0 .829.672 1.5 1.5 1.5h116.037c12.683 0 23-10.318 23-23s-10.318-23-23-23zm0 43h-114.537v-40h114.537c11.028 0 20 8.972 20 20s-8.972 20-20 20z" fill="#3a312a"/></g></g><g><g><circle cx="38.06" cy="171.048" fill="#d7e057" r="21.5"/></g></g><g><g><path d="m38.06 148.048c-12.683 0-23 10.318-23 23s10.317 23 23 23 23-10.318 23-23-10.318-23-23-23zm0 43c-11.028 0-20-8.972-20-20s8.972-20 20-20 20 8.972 20 20-8.972 20-20 20z" fill="#3a312a"/></g></g><g><g><path d="m175.597 169.548h-20.224c-.828 0-1.5.671-1.5 1.5s.672 1.5 1.5 1.5h20.224c.828 0 1.5-.671 1.5-1.5 0-.828-.672-1.5-1.5-1.5z" fill="#3a312a"/></g></g><g><g><path d="m152.131 159.31h-6.825c-.828 0-1.5.671-1.5 1.5s.672 1.5 1.5 1.5h6.825c.828 0 1.5-.671 1.5-1.5s-.672-1.5-1.5-1.5z" fill="#3a312a"/></g></g><g><g><path d="m85.838 183.028h-14.675c-.828 0-1.5.671-1.5 1.5s.672 1.5 1.5 1.5h14.675c.828 0 1.5-.671 1.5-1.5s-.672-1.5-1.5-1.5z" fill="#3a312a"/></g></g><g><g><path d="m84.984 167.501h-19.328c-.828 0-1.5.671-1.5 1.5s.672 1.5 1.5 1.5h19.328c.828 0 1.5-.671 1.5-1.5s-.672-1.5-1.5-1.5z" fill="#3a312a"/></g></g><g><g><path d="m145.306 178.763h-6.654c-.828 0-1.5.671-1.5 1.5s.672 1.5 1.5 1.5h6.654c.828 0 1.5-.671 1.5-1.5s-.672-1.5-1.5-1.5z" fill="#3a312a"/></g></g><g><g><path d="m154.079 149.073c-.205-.612-.777-1.025-1.423-1.025h-92.301c-.645 0-1.218.413-1.423 1.025-.204.612.006 1.286.521 1.674l38.027 28.613c2.657 1.999 5.842 2.999 9.025 2.999s6.368-.999 9.025-2.999l38.027-28.613c.516-.388.726-1.062.522-1.674zm-40.352 27.89c-4.25 3.199-10.191 3.199-14.441 0l-34.441-25.915h83.324z" fill="#3a312a"/></g></g><g><g><path d="m186.019 106.548h-116.038v43h116.037c11.874 0 21.5-9.626 21.5-21.5.001-11.874-9.625-21.5-21.499-21.5z" fill="#87796f"/></g></g><g><g><path d="m186.019 105.048h-116.038c-.828 0-1.5.671-1.5 1.5v43c0 .829.672 1.5 1.5 1.5h116.037c12.683 0 23-10.318 23-23 .001-12.682-10.317-23-22.999-23zm0 43h-114.538v-40h114.537c11.028 0 20 8.972 20 20 .001 11.028-8.971 20-19.999 20z" fill="#3a312a"/></g></g><g><g><ellipse cx="69.981" cy="128.048" fill="#d7e057" rx="21.5" ry="21.5" transform="matrix(.987 -.159 .159 .987 -19.483 12.767)"/></g></g><g><g><path d="m69.981 105.048c-12.683 0-23 10.318-23 23s10.317 23 23 23 23-10.318 23-23-10.317-23-23-23zm0 43c-11.028 0-20-8.972-20-20s8.972-20 20-20 20 8.972 20 20-8.971 20-20 20z" fill="#3a312a"/></g></g><g><g><path d="m207.519 126.548h-20.224c-.828 0-1.5.671-1.5 1.5s.672 1.5 1.5 1.5h20.224c.828 0 1.5-.671 1.5-1.5 0-.828-.672-1.5-1.5-1.5z" fill="#3a312a"/></g></g><g><g><path d="m184.053 116.31h-6.825c-.828 0-1.5.671-1.5 1.5s.672 1.5 1.5 1.5h6.825c.828 0 1.5-.671 1.5-1.5s-.672-1.5-1.5-1.5z" fill="#3a312a"/></g></g><g><g><path d="m117.759 140.028h-14.674c-.828 0-1.5.671-1.5 1.5s.672 1.5 1.5 1.5h14.674c.828 0 1.5-.671 1.5-1.5s-.672-1.5-1.5-1.5z" fill="#3a312a"/></g></g><g><g><path d="m116.906 124.501h-19.328c-.828 0-1.5.671-1.5 1.5s.672 1.5 1.5 1.5h19.328c.828 0 1.5-.671 1.5-1.5s-.672-1.5-1.5-1.5z" fill="#3a312a"/></g></g><g><g><path d="m177.227 135.763h-6.655c-.828 0-1.5.671-1.5 1.5s.672 1.5 1.5 1.5h6.655c.828 0 1.5-.671 1.5-1.5s-.671-1.5-1.5-1.5z" fill="#3a312a"/></g></g><g><g><path d="m186.001 106.073c-.205-.612-.777-1.024-1.423-1.024h-92.301c-.646 0-1.218.413-1.423 1.024-.204.612.006 1.286.521 1.674l38.027 28.613c2.657 1.999 5.841 2.999 9.025 2.999s6.368-1 9.024-2.999l10.952-8.24c.662-.498.795-1.438.297-2.101-.499-.663-1.441-.795-2.1-.297l-10.953 8.24c-4.25 3.199-10.191 3.199-14.441 0l-34.441-25.915h83.324l-11.75 8.841c-.661.498-.794 1.438-.296 2.101.499.662 1.438.794 2.101.297l15.336-11.54c.515-.387.725-1.061.521-1.673z" fill="#3a312a"/></g></g><g><g><path d="m16.56 192.548c0 19.436 15.756 35.192 35.192 35.192h152.497c19.436 0 35.192-15.756 35.192-35.192z" fill="#fce8cb"/></g></g><g><g><path d="m239.44 191.048h-222.88c-.828 0-1.5.671-1.5 1.5 0 20.232 16.46 36.692 36.692 36.692h4.53c.828 0 1.5-.671 1.5-1.5s-.672-1.5-1.5-1.5h-4.53c-18.076 0-32.872-14.307-33.659-32.192h219.814c-.787 17.885-15.583 32.192-33.659 32.192h-133.031c-.828 0-1.5.671-1.5 1.5s.672 1.5 1.5 1.5h133.031c20.232 0 36.692-16.46 36.692-36.692 0-.828-.671-1.5-1.5-1.5z" fill="#3a312a"/></g></g><g><g><path d="m80.807 227.74h94.387v11.731h-94.387z" fill="#fce8cb"/></g></g><g><g><path d="m175.193 226.24h-94.386c-.828 0-1.5.671-1.5 1.5v11.73c0 .829.672 1.5 1.5 1.5h94.387c.828 0 1.5-.671 1.5-1.5v-11.73c-.001-.828-.673-1.5-1.501-1.5zm-1.5 11.731h-91.386v-8.73h91.387v8.73z" fill="#3a312a"/></g></g><g><g><path d="m223.46 194.05c-.79 17.88-15.58 32.19-33.66 32.19h14.45c18.07 0 32.87-14.31 33.66-32.19z" fill="#decaad"/></g></g><g><g><path d="m217.94 149.548h-116.037v43h116.037c11.874 0 21.5-9.626 21.5-21.5s-9.626-21.5-21.5-21.5z" fill="#87796f"/></g></g><g><g><path d="m217.94 148.048h-116.037c-.828 0-1.5.671-1.5 1.5v43c0 .829.672 1.5 1.5 1.5h116.037c12.683 0 23-10.318 23-23s-10.317-23-23-23zm0 43h-114.537v-40h114.537c11.028 0 20 8.972 20 20s-8.971 20-20 20z" fill="#3a312a"/></g></g><g><g><ellipse cx="101.903" cy="171.048" fill="#d7e057" rx="21.5" ry="21.5" transform="matrix(.403 -.915 .915 .403 -95.71 195.359)"/></g></g><g><g><path d="m101.903 148.048c-12.683 0-23 10.318-23 23s10.317 23 23 23 23-10.318 23-23-10.317-23-23-23zm0 43c-11.028 0-20-8.972-20-20s8.972-20 20-20 20 8.972 20 20-8.971 20-20 20z" fill="#3a312a"/></g></g><g><g><path d="m239.44 169.548h-20.224c-.828 0-1.5.671-1.5 1.5s.672 1.5 1.5 1.5h20.224c.828 0 1.5-.671 1.5-1.5 0-.828-.671-1.5-1.5-1.5z" fill="#3a312a"/></g></g><g><g><path d="m215.975 159.31h-6.825c-.828 0-1.5.671-1.5 1.5s.672 1.5 1.5 1.5h6.825c.828 0 1.5-.671 1.5-1.5s-.672-1.5-1.5-1.5z" fill="#3a312a"/></g></g><g><g><path d="m149.681 183.028h-14.675c-.828 0-1.5.671-1.5 1.5s.672 1.5 1.5 1.5h14.675c.828 0 1.5-.671 1.5-1.5s-.672-1.5-1.5-1.5z" fill="#3a312a"/></g></g><g><g><path d="m148.828 167.501h-19.328c-.828 0-1.5.671-1.5 1.5s.672 1.5 1.5 1.5h19.328c.828 0 1.5-.671 1.5-1.5s-.672-1.5-1.5-1.5z" fill="#3a312a"/></g></g><g><g><path d="m209.149 178.763h-6.655c-.828 0-1.5.671-1.5 1.5s.672 1.5 1.5 1.5h6.655c.828 0 1.5-.671 1.5-1.5s-.672-1.5-1.5-1.5z" fill="#3a312a"/></g></g><g><g><path d="m217.923 149.073c-.205-.612-.777-1.025-1.423-1.025h-92.302c-.646 0-1.218.413-1.423 1.025-.204.612.006 1.286.521 1.674l38.027 28.613c2.657 1.999 5.842 2.999 9.025 2.999 3.184 0 6.368-.999 9.025-2.999l38.027-28.613c.517-.388.727-1.062.523-1.674zm-40.353 27.89c-4.25 3.199-10.191 3.199-14.441 0l-34.442-25.915h83.325z" fill="#3a312a"/></g></g></g></svg>