<svg id="Layer_1" enable-background="new 0 0 256 256" height="512" viewBox="0 0 256 256" width="512" xmlns="http://www.w3.org/2000/svg"><g><g><g><path d="m47.387 49.218c-.974 11.564-13.025 13.389-13.025 13.389 10.347.487 12.925 14.059 12.925 14.059.221-9.677 13.321-14.202 13.321-14.202-9.813-.587-13.221-13.246-13.221-13.246z" fill="#d7e057"/></g></g><g><g><path d="m60.699 60.967c-8.605-.515-11.832-12.024-11.864-12.141-.191-.703-.86-1.164-1.584-1.102-.725.066-1.298.642-1.359 1.367-.86 10.215-11.314 11.964-11.755 12.033-.763.115-1.313.79-1.273 1.561.04.77.657 1.384 1.428 1.421 9.028.425 11.498 12.718 11.522 12.842.137.711.759 1.217 1.472 1.217.042 0 .084-.001.126-.005.764-.064 1.357-.693 1.375-1.459.195-8.509 12.192-12.777 12.313-12.819.675-.235 1.092-.914.994-1.623-.098-.708-.681-1.249-1.395-1.292zm-13.567 10.346c-1.356-3.13-3.709-6.907-7.587-8.877 2.931-1.404 6.409-3.913 8.202-8.273 1.551 3.071 4.199 6.88 8.334 8.723-3.007 1.64-6.922 4.405-8.949 8.427z" fill="#3a312a"/></g></g><g><g><path d="m25.688 66.199c-.689 8.179-9.212 9.471-9.212 9.471 7.318.344 9.142 9.944 9.142 9.944.156-6.845 9.422-10.045 9.422-10.045-6.941-.416-9.352-9.37-9.352-9.37z" fill="#d7e057"/></g></g><g><g><path d="m35.13 74.071c-5.766-.345-7.972-8.186-7.994-8.265-.19-.702-.851-1.167-1.582-1.102-.726.065-1.299.642-1.36 1.368-.579 6.871-7.646 8.067-7.942 8.114-.763.115-1.313.79-1.273 1.561.04.77.657 1.384 1.428 1.421 6.035.284 7.723 8.644 7.739 8.726.135.713.759 1.22 1.473 1.22.041 0 .083-.002.125-.005.765-.063 1.358-.694 1.376-1.461.13-5.709 8.331-8.634 8.412-8.662.676-.234 1.094-.913.996-1.622-.099-.709-.684-1.25-1.398-1.293zm-9.585 6.795c-.924-1.885-2.34-3.947-4.447-5.28 1.855-1.041 3.697-2.63 4.871-4.916 1.057 1.874 2.654 3.954 4.941 5.224-1.85 1.1-3.989 2.739-5.365 4.972z" fill="#3a312a"/></g></g><g><g><path d="m25.688 39.541c-.689 8.179-9.212 9.471-9.212 9.471 7.318.344 9.142 9.944 9.142 9.944.156-6.845 9.422-10.045 9.422-10.045-6.941-.416-9.352-9.37-9.352-9.37z" fill="#d7e057"/></g></g><g><g><path d="m35.13 47.413c-5.739-.343-7.952-8.112-7.993-8.263-.189-.703-.851-1.17-1.583-1.103-.726.065-1.299.642-1.36 1.368-.579 6.871-7.646 8.066-7.942 8.113-.763.115-1.313.79-1.273 1.561.04.77.657 1.384 1.427 1.421 6.035.284 7.724 8.644 7.739 8.726.135.712.759 1.22 1.472 1.22.042 0 .083-.001.125-.005.765-.063 1.358-.694 1.376-1.461.13-5.709 8.331-8.634 8.412-8.662.677-.234 1.094-.913.996-1.622-.097-.708-.682-1.25-1.396-1.293zm-9.585 6.795c-.924-1.886-2.34-3.947-4.447-5.28 1.855-1.041 3.697-2.63 4.871-4.917 1.057 1.874 2.654 3.955 4.941 5.224-1.85 1.101-3.989 2.741-5.365 4.973z" fill="#3a312a"/></g></g><g><g><path d="m159.102 98.2h31.124v18.458h-31.124z" fill="#87796f" transform="matrix(.5 -.866 .866 .5 -5.704 204.979)"/></g></g><g><g><path d="m191.887 98.178c-.103-.384-.354-.712-.699-.911l-15.985-9.229c-.345-.199-.755-.252-1.138-.15-.384.103-.712.354-.911.699l-15.562 26.955c-.415.717-.168 1.635.549 2.049l15.984 9.229c.23.133.489.201.75.201.13 0 .261-.017.388-.051.384-.103.712-.354.911-.699l15.563-26.955c.199-.344.253-.753.15-1.138zm-17.56 25.294-13.387-7.729 14.062-24.357 13.387 7.729z" fill="#3a312a"/></g></g><g><g><path d="m212.559 185.05h18.458v31.125h-18.458z" fill="#87796f" transform="matrix(.33 -.944 .944 .33 -40.768 343.79)"/></g></g><g><g><path d="m240.019 195.619-29.381-10.269c-.782-.271-1.637.139-1.911.921l-6.09 17.424c-.131.376-.108.788.065 1.146.172.358.48.633.856.765l29.382 10.27c.161.056.328.084.495.084.224 0 .446-.05.651-.149.358-.172.633-.48.765-.856l6.09-17.424c.272-.783-.14-1.638-.922-1.912zm-7.506 16.929-26.55-9.279 5.1-14.592 26.549 9.279z" fill="#3a312a"/></g></g><g><g><path d="m25.901 138.146h18.458v31.124h-18.458z" fill="#87796f" transform="matrix(.5 -.866 .866 .5 -115.551 107.277)"/></g></g><g><g><path d="m53.971 152.199-26.955-15.563c-.344-.199-.754-.253-1.138-.15s-.712.354-.911.699l-9.229 15.985c-.415.717-.168 1.635.549 2.049l26.955 15.563c.23.133.489.201.75.201.13 0 .261-.017.388-.051.384-.103.712-.354.911-.699l9.229-15.985c.415-.718.168-1.635-.549-2.049zm-10.528 15.235-24.357-14.063 7.729-13.387 24.357 14.063z" fill="#3a312a"/></g></g><g><g><path d="m79.385 91.867h18.458v31.125h-18.458z" fill="#87796f" transform="matrix(.958 -.288 .288 .958 -27.173 30.054)"/></g></g><g><g><path d="m103.369 119.245-8.959-29.807c-.238-.794-1.074-1.246-1.868-1.005l-17.676 5.313c-.793.238-1.243 1.075-1.005 1.868l8.959 29.807c.195.649.791 1.069 1.436 1.069.143 0 .288-.021.432-.064l17.677-5.313c.381-.115.701-.376.89-.726.186-.351.228-.761.114-1.142zm-18.109 3.876-8.096-26.934 14.803-4.45 8.096 26.934z" fill="#3a312a"/></g></g><g><g><ellipse cx="190.046" cy="120.632" fill="#fce8cb" rx="15.381" ry="15.381" transform="matrix(1 -.018 .018 1 -2.174 3.496)"/></g></g><g><g><path d="m190.046 103.751c-9.309 0-16.881 7.573-16.881 16.881s7.573 16.881 16.881 16.881 16.881-7.573 16.881-16.881-7.573-16.881-16.881-16.881zm0 30.762c-7.654 0-13.881-6.227-13.881-13.881s6.227-13.881 13.881-13.881 13.881 6.227 13.881 13.881-6.227 13.881-13.881 13.881z" fill="#3a312a"/></g></g><g><g><circle cx="114.733" cy="101.961" fill="#fce8cb" r="15.381"/></g></g><g><g><path d="m114.733 85.079c-9.309 0-16.881 7.573-16.881 16.881 0 9.309 7.573 16.881 16.881 16.881s16.881-7.573 16.881-16.881c.001-9.308-7.572-16.881-16.881-16.881zm0 30.763c-7.654 0-13.881-6.227-13.881-13.881s6.227-13.881 13.881-13.881 13.881 6.227 13.881 13.881c.001 7.654-6.226 13.881-13.881 13.881z" fill="#3a312a"/></g></g><g><g><circle cx="46.351" cy="132.723" fill="#fce8cb" r="15.381"/></g></g><g><g><path d="m46.351 115.842c-9.309 0-16.881 7.573-16.881 16.881 0 9.309 7.573 16.881 16.881 16.881s16.881-7.573 16.881-16.881-7.573-16.881-16.881-16.881zm0 30.763c-7.654 0-13.881-6.227-13.881-13.881s6.227-13.881 13.881-13.881 13.881 6.227 13.881 13.881-6.227 13.881-13.881 13.881z" fill="#3a312a"/></g></g><g><g><ellipse cx="32.121" cy="198.497" fill="#f16c7a" rx="15.381" ry="15.381" transform="matrix(.386 -.923 .923 .386 -163.387 151.493)"/></g></g><g><g><path d="m32.121 181.615c-9.309 0-16.881 7.573-16.881 16.881 0 9.309 7.573 16.881 16.881 16.881s16.881-7.573 16.881-16.881-7.573-16.881-16.881-16.881zm0 30.763c-7.654 0-13.881-6.227-13.881-13.881s6.227-13.881 13.881-13.881 13.881 6.227 13.881 13.881-6.227 13.881-13.881 13.881z" fill="#3a312a"/></g></g><g><g><ellipse cx="61.732" cy="124.018" fill="#f16c7a" rx="19.257" ry="19.257" transform="matrix(.97 -.244 .244 .97 -28.413 18.827)"/></g></g><g><g><path d="m61.732 103.261c-11.446 0-20.757 9.312-20.757 20.757s9.312 20.757 20.757 20.757 20.757-9.311 20.757-20.757-9.311-20.757-20.757-20.757zm0 38.515c-9.792 0-17.757-7.966-17.757-17.757s7.966-17.757 17.757-17.757 17.757 7.966 17.757 17.757-7.966 17.757-17.757 17.757z" fill="#3a312a"/></g></g><g><g><ellipse cx="149.372" cy="104.761" fill="#f16c7a" rx="19.257" ry="19.257" transform="matrix(.707 -.707 .707 .707 -30.327 136.306)"/></g></g><g><g><path d="m149.372 84.003c-11.446 0-20.757 9.312-20.757 20.758s9.312 20.757 20.757 20.757 20.757-9.312 20.757-20.757-9.311-20.758-20.757-20.758zm0 38.516c-9.791 0-17.757-7.966-17.757-17.757s7.966-17.758 17.757-17.758c9.792 0 17.757 7.966 17.757 17.758s-7.965 17.757-17.757 17.757z" fill="#3a312a"/></g></g><g><g><ellipse cx="214.455" cy="144.649" fill="#f16c7a" rx="19.257" ry="19.257" transform="matrix(.979 -.203 .203 .979 -24.94 46.647)"/></g></g><g><g><path d="m214.455 123.892c-11.446 0-20.757 9.312-20.757 20.757s9.312 20.757 20.757 20.757 20.757-9.311 20.757-20.757-9.311-20.757-20.757-20.757zm0 38.515c-9.792 0-17.757-7.966-17.757-17.757s7.966-17.757 17.757-17.757 17.757 7.966 17.757 17.757-7.965 17.757-17.757 17.757z" fill="#3a312a"/></g></g><g><g><path d="m221.194 160.05c-1.31 0-2.59.14-3.82.4 2.38-3.09 3.82-6.96 3.82-11.16 0-10.12-8.21-18.32-18.32-18.32-3.27 0-6.34.86-8.99 2.36.6-1.81.93-3.74.93-5.75 0-10.12-8.2-18.32-18.32-18.32-5.42 0-10.27 2.37-13.63 6.11-.98-9.19-8.76-16.35-18.21-16.35-7.33 0-13.64 4.32-16.57 10.55-2.93-6.23-9.24-10.55-16.57-10.55-9.45 0-17.23 7.16-18.21 16.35-3.36-3.74-8.21-6.11-13.63-6.11-10.12 0-18.32 8.2-18.32 18.32 0 2.01.33 3.94.93 5.75-2.65-1.5-5.72-2.36-8.99-2.36-10.11 0-18.32 8.2-18.32 18.32 0 4.2 1.44 8.07 3.82 11.16-1.23-.26-2.51-.4-3.82-.4-10.11 0-18.32 8.2-18.32 18.32 0 8.71 6.09 16.01 14.25 17.86 9.4-45.05 49.34-78.89 97.18-78.89s87.78 33.84 97.18 78.89c8.16-1.85 14.25-9.15 14.25-17.86 0-10.12-8.21-18.32-18.32-18.32z" fill="#d7e057"/></g></g><g><g><path d="m221.194 158.55c-.273 0-.546.006-.82.017 1.525-2.848 2.32-6.003 2.32-9.277 0-10.929-8.891-19.82-19.82-19.82-2.329 0-4.636.412-6.804 1.204.163-1.022.244-2.056.244-3.094 0-10.929-8.891-19.82-19.82-19.82-4.631 0-9.109 1.648-12.654 4.594-2.217-8.631-10.014-14.835-19.186-14.835-6.698 0-12.94 3.453-16.57 8.986-3.63-5.534-9.872-8.986-16.57-8.986-9.172 0-16.969 6.203-19.186 14.835-3.544-2.946-8.022-4.594-12.654-4.594-10.929 0-19.82 8.891-19.82 19.82 0 1.039.081 2.073.244 3.094-2.168-.792-4.475-1.204-6.804-1.204-10.929 0-19.82 8.891-19.82 19.82 0 3.274.795 6.429 2.32 9.277-.273-.011-.547-.017-.82-.017-10.929 0-19.82 8.891-19.82 19.82 0 9.319 6.34 17.265 15.418 19.323.391.09.804.017 1.142-.201s.575-.562.657-.956c9.394-45.02 49.646-77.696 95.712-77.696s86.318 32.676 95.711 77.696c.082.394.319.738.657.956.244.156.526.238.811.238.111 0 .222-.012.331-.037 9.078-2.058 15.419-10.004 15.419-19.323.002-10.929-8.889-19.82-19.818-19.82zm5.2 35.815c-10.277-45.598-51.364-78.524-98.31-78.524s-88.033 32.927-98.31 78.524c-6.815-2.223-11.62-8.722-11.62-15.995 0-9.274 7.545-16.82 16.82-16.82 1.175 0 2.355.124 3.51.368.619.128 1.246-.138 1.58-.669.334-.532.302-1.216-.082-1.714-2.295-2.979-3.509-6.522-3.509-10.244 0-9.275 7.545-16.82 16.82-16.82 2.896 0 5.749.749 8.251 2.165.538.306 1.211.247 1.691-.146.479-.394.667-1.042.472-1.631-.566-1.708-.853-3.484-.853-5.278 0-9.274 7.545-16.82 16.82-16.82 4.749 0 9.31 2.045 12.514 5.612.395.441 1.014.604 1.577.425.564-.182.967-.679 1.03-1.268.912-8.557 8.1-15.009 16.718-15.009 6.473 0 12.445 3.803 15.213 9.689.247.526.776.862 1.357.862s1.11-.336 1.357-.862c2.768-5.885 8.739-9.689 15.212-9.689 8.619 0 15.806 6.453 16.718 15.009.063.589.466 1.086 1.03 1.268.563.181 1.182.016 1.577-.425 3.205-3.567 7.766-5.612 12.514-5.612 9.275 0 16.82 7.545 16.82 16.82 0 1.793-.287 3.569-.854 5.278-.195.589-.008 1.237.471 1.631.48.395 1.151.452 1.691.146 2.502-1.417 5.356-2.165 8.251-2.165 9.274 0 16.82 7.545 16.82 16.82 0 3.722-1.213 7.265-3.508 10.244-.383.498-.416 1.182-.081 1.714.334.532.962.797 1.58.669 1.155-.244 2.335-.368 3.51-.368 9.275 0 16.82 7.545 16.82 16.82.003 7.273-4.802 13.772-11.617 15.995z" fill="#3a312a"/></g></g><g><g><path d="m225.355 196.629c-9.255-45.249-49.287-79.287-97.272-79.287s-88.017 34.039-97.272 79.287c-2.099 10.261 5.894 19.83 16.368 19.83h161.808c10.474 0 18.467-9.569 16.368-19.83z" fill="#fce8cb"/></g></g><g><g><path d="m226.825 196.328c-9.539-46.637-51.065-80.486-98.741-80.486s-89.203 33.85-98.742 80.486c-1.079 5.278.268 10.714 3.697 14.915 3.483 4.268 8.637 6.715 14.14 6.715h39.493c.829 0 1.5-.671 1.5-1.5s-.671-1.5-1.5-1.5h-39.492c-4.598 0-8.905-2.045-11.816-5.612-2.857-3.5-3.98-8.026-3.082-12.417 9.254-45.247 49.545-78.088 95.802-78.088s86.547 32.841 95.802 78.088c.898 4.391-.225 8.917-3.082 12.417-2.911 3.566-7.218 5.612-11.816 5.612h-107.484c-.829 0-1.5.671-1.5 1.5s.671 1.5 1.5 1.5h107.484c5.503 0 10.657-2.448 14.14-6.715 3.429-4.201 4.776-9.637 3.697-14.915z" fill="#3a312a"/></g></g><g><g><path d="m223.89 196.93c-9.26-45.25-49.55-78.09-95.81-78.09-2.52 0-5.02.1-7.5.29 43.06 3.32 79.55 35.01 88.31 77.8.89 4.39-.23 8.92-3.09 12.42-2.91 3.56-7.21 5.61-11.81 5.61h15c4.6 0 8.9-2.05 11.81-5.61 2.86-3.5 3.98-8.03 3.09-12.42z" fill="#decaad"/></g></g></g></svg>