<svg id="Layer_1" enable-background="new 0 0 256 256" height="512" viewBox="0 0 256 256" width="512" xmlns="http://www.w3.org/2000/svg"><g><g><g><circle cx="131.625" cy="131.622" fill="#87796f" r="107.75"/></g></g><g><g><path d="m131.625 22.372c-60.24 0-109.25 49.009-109.25 109.25s49.01 109.25 109.25 109.25 109.25-49.009 109.25-109.25-49.01-109.25-109.25-109.25zm0 215.5c-58.587 0-106.25-47.664-106.25-106.25 0-58.587 47.663-106.25 106.25-106.25s106.25 47.663 106.25 106.25c0 58.586-47.663 106.25-106.25 106.25z" fill="#3a312a"/></g></g><g><g><path d="m131.625 40.3c-6.054 0-11.969.595-17.693 1.719l-13.858 3.88c-34.887 12.845-59.771 46.377-59.771 85.723 0 50.436 40.886 91.322 91.322 91.322s91.322-40.886 91.322-91.322-40.886-91.322-91.322-91.322z" fill="#d7e057"/></g></g><g><g><path d="m131.625 38.8c-6.027 0-12.077.588-17.982 1.748-.813.159-1.343.948-1.183 1.761s.948 1.346 1.761 1.183c5.715-1.122 11.57-1.691 17.404-1.691 49.527 0 89.821 40.294 89.821 89.822s-40.294 89.822-89.821 89.822c-49.528 0-89.822-40.294-89.822-89.822 0-37.485 23.626-71.369 58.79-84.315.777-.286 1.176-1.148.889-1.926-.285-.777-1.147-1.176-1.926-.89-36.338 13.379-60.753 48.394-60.753 87.13 0 51.182 41.64 92.822 92.822 92.822s92.821-41.64 92.821-92.822-41.639-92.822-92.821-92.822z" fill="#3a312a"/></g></g><g><g><path d="m45.536 25.305c-.974 11.564-13.024 13.39-13.024 13.39 10.347.487 12.925 14.059 12.925 14.059.221-9.677 13.321-14.202 13.321-14.202-9.814-.588-13.222-13.247-13.222-13.247z" fill="#d7e057"/></g></g><g><g><path d="m58.848 37.054c-8.604-.515-11.832-12.024-11.863-12.141-.19-.702-.854-1.158-1.584-1.102-.725.066-1.298.642-1.359 1.367-.859 10.215-11.313 11.964-11.754 12.033-.763.115-1.313.79-1.273 1.561.04.77.657 1.384 1.428 1.421 9.027.425 11.498 12.718 11.521 12.842.138.711.76 1.217 1.473 1.217.042 0 .084-.001.126-.005.764-.064 1.357-.693 1.375-1.459.194-8.508 12.191-12.777 12.313-12.819.676-.235 1.092-.914.994-1.623-.101-.708-.684-1.249-1.397-1.292zm-13.567 10.346c-1.356-3.131-3.708-6.908-7.586-8.877 2.931-1.405 6.408-3.912 8.201-8.272 1.551 3.071 4.2 6.88 8.334 8.722-3.006 1.64-6.921 4.405-8.949 8.427z" fill="#3a312a"/></g></g><g><g><path d="m25.838 43.285c-.689 8.179-9.213 9.471-9.213 9.471 7.318.344 9.142 9.944 9.142 9.944.156-6.844 9.422-10.045 9.422-10.045-6.941-.416-9.351-9.37-9.351-9.37z" fill="#d7e057"/></g></g><g><g><path d="m35.279 51.157c-5.767-.345-7.972-8.186-7.993-8.265-.19-.702-.863-1.165-1.582-1.102-.726.065-1.3.642-1.361 1.368-.579 6.871-7.646 8.067-7.942 8.114-.763.115-1.314.79-1.273 1.561.04.77.657 1.384 1.428 1.421 6.035.284 7.724 8.644 7.739 8.726.136.712.759 1.22 1.473 1.22.041 0 .083-.002.125-.005.765-.063 1.358-.694 1.376-1.461.13-5.709 8.331-8.634 8.412-8.662.676-.234 1.093-.913.996-1.622-.099-.708-.684-1.25-1.398-1.293zm-9.585 6.796c-.924-1.886-2.34-3.947-4.447-5.28 1.855-1.041 3.697-2.63 4.871-4.917 1.057 1.874 2.653 3.955 4.941 5.224-1.849 1.101-3.989 2.74-5.365 4.973z" fill="#3a312a"/></g></g><g><g><path d="m25.838 16.628c-.689 8.179-9.213 9.471-9.213 9.471 7.318.344 9.142 9.944 9.142 9.944.156-6.845 9.422-10.045 9.422-10.045-6.941-.416-9.351-9.37-9.351-9.37z" fill="#d7e057"/></g></g><g><g><path d="m35.279 24.5c-5.767-.345-7.972-8.185-7.993-8.265-.19-.702-.863-1.164-1.582-1.102-.726.065-1.3.642-1.361 1.368-.579 6.871-7.646 8.067-7.942 8.114-.763.115-1.314.79-1.273 1.561.04.77.657 1.384 1.428 1.421 6.035.284 7.724 8.644 7.739 8.726.136.713.759 1.22 1.473 1.22.041 0 .083-.001.125-.005.765-.063 1.358-.694 1.376-1.461.13-5.709 8.331-8.634 8.412-8.662.676-.234 1.093-.913.996-1.622-.099-.709-.684-1.25-1.398-1.293zm-9.585 6.795c-.924-1.885-2.34-3.947-4.447-5.28 1.855-1.041 3.697-2.63 4.871-4.917 1.057 1.874 2.654 3.955 4.941 5.224-1.849 1.101-3.989 2.741-5.365 4.973z" fill="#3a312a"/></g></g><g><g><path d="m116.375 103.372c-29.271 0-53 23.729-53 53s23.729 53 53 53c2.929 0 5.799-.248 8.599-.705l13.801-4.26c18.072-8.442 30.6-26.771 30.6-48.035 0-29.271-23.729-53-53-53z" fill="#fce8cb"/></g></g><g><g><path d="m116.375 101.872c-30.052 0-54.5 24.449-54.5 54.5s24.448 54.5 54.5 54.5c2.922 0 5.896-.244 8.84-.724.818-.133 1.373-.904 1.239-1.722-.134-.817-.911-1.37-1.722-1.239-2.785.455-5.597.685-8.357.685-28.398 0-51.5-23.103-51.5-51.5s23.102-51.5 51.5-51.5 51.5 23.103 51.5 51.5c0 19.917-11.672 38.238-29.734 46.676-.751.351-1.075 1.243-.725 1.994.351.751 1.244 1.075 1.994.724 19.114-8.929 31.465-28.317 31.465-49.394 0-30.051-24.448-54.5-54.5-54.5z" fill="#3a312a"/></g></g><g><g><path d="m136.818 49.372h-9.885c-3.069 0-5.557 2.488-5.557 5.557v9.885c0 3.069 2.488 5.558 5.557 5.558h9.885c3.069 0 5.557-2.488 5.557-5.558v-9.885c0-3.069-2.488-5.557-5.557-5.557z" fill="#87796f"/></g></g><g><g><path d="m136.817 47.872h-9.885c-3.892 0-7.058 3.166-7.058 7.058v9.885c0 3.891 3.166 7.057 7.058 7.057h9.885c3.892 0 7.058-3.166 7.058-7.057v-9.885c0-3.892-3.166-7.058-7.058-7.058zm4.058 16.943c0 2.237-1.82 4.057-4.058 4.057h-9.885c-2.237 0-4.058-1.82-4.058-4.057v-9.885c0-2.237 1.82-4.058 4.058-4.058h9.885c2.237 0 4.058 1.82 4.058 4.058z" fill="#3a312a"/></g></g><g><g><path d="m165.818 88.372h-9.885c-3.069 0-5.557 2.488-5.557 5.557v9.885c0 3.069 2.488 5.558 5.557 5.558h9.885c3.069 0 5.557-2.488 5.557-5.558v-9.885c0-3.069-2.488-5.557-5.557-5.557z" fill="#87796f"/></g></g><g><g><path d="m165.817 86.872h-9.885c-3.892 0-7.058 3.166-7.058 7.058v9.885c0 3.891 3.166 7.057 7.058 7.057h9.885c3.892 0 7.058-3.166 7.058-7.057v-9.885c0-3.892-3.166-7.058-7.058-7.058zm4.058 16.943c0 2.237-1.82 4.057-4.058 4.057h-9.885c-2.237 0-4.058-1.82-4.058-4.057v-9.885c0-2.237 1.82-4.058 4.058-4.058h9.885c2.237 0 4.058 1.82 4.058 4.058z" fill="#3a312a"/></g></g><g><g><path d="m206.795 99.942-6.99-6.99c-2.17-2.17-5.689-2.17-7.859 0l-6.99 6.99c-2.17 2.17-2.17 5.689 0 7.859l6.99 6.99c2.17 2.17 5.689 2.17 7.859 0l6.99-6.99c2.17-2.169 2.17-5.688 0-7.859z" fill="#87796f"/></g></g><g><g><path d="m207.855 98.882-6.99-6.99c-1.333-1.333-3.105-2.067-4.99-2.067s-3.657.734-4.99 2.067l-6.99 6.99c-2.751 2.752-2.751 7.229 0 9.98l6.99 6.99c1.333 1.333 3.105 2.067 4.99 2.067s3.657-.734 4.99-2.067l6.99-6.99c2.751-2.751 2.751-7.229 0-9.98zm-2.121 7.859-6.99 6.99c-1.582 1.582-4.156 1.582-5.738 0l-6.99-6.99c-1.581-1.582-1.581-4.156 0-5.738l6.99-6.99c.767-.766 1.785-1.188 2.869-1.188s2.102.422 2.869 1.188l6.99 6.99c1.581 1.582 1.581 4.156 0 5.738z" fill="#3a312a"/></g></g><g><g><path d="m205.818 140.372h-9.885c-3.069 0-5.557 2.488-5.557 5.557v9.885c0 3.069 2.488 5.557 5.557 5.557h9.885c3.069 0 5.557-2.488 5.557-5.557v-9.885c0-3.069-2.488-5.557-5.557-5.557z" fill="#87796f"/></g></g><g><g><path d="m205.817 138.872h-9.885c-3.892 0-7.058 3.166-7.058 7.058v9.885c0 3.891 3.166 7.057 7.058 7.057h9.885c3.892 0 7.058-3.166 7.058-7.057v-9.885c0-3.892-3.166-7.058-7.058-7.058zm4.058 16.943c0 2.237-1.82 4.057-4.058 4.057h-9.885c-2.237 0-4.058-1.82-4.058-4.057v-9.885c0-2.237 1.82-4.058 4.058-4.058h9.885c2.237 0 4.058 1.82 4.058 4.058z" fill="#3a312a"/></g></g><g><g><path d="m86.795 82.942-6.99-6.99c-2.17-2.17-5.689-2.17-7.859 0l-6.99 6.99c-2.17 2.171-2.17 5.689 0 7.859l6.99 6.99c2.17 2.17 5.689 2.17 7.859 0l6.99-6.99c2.17-2.17 2.17-5.688 0-7.859z" fill="#87796f"/></g></g><g><g><path d="m87.855 81.882-6.99-6.99c-1.333-1.333-3.104-2.067-4.99-2.067s-3.657.734-4.99 2.067l-6.99 6.99c-2.751 2.752-2.751 7.229 0 9.98l6.99 6.99c1.333 1.333 3.104 2.067 4.99 2.067s3.657-.734 4.99-2.067l6.99-6.99c2.751-2.751 2.751-7.229 0-9.98zm-2.121 7.859-6.99 6.99c-1.582 1.582-4.156 1.582-5.738 0l-6.99-6.99c-1.581-1.582-1.581-4.156 0-5.738l6.99-6.99c.767-.766 1.785-1.188 2.869-1.188s2.102.422 2.869 1.188l6.99 6.99c1.581 1.582 1.581 4.156 0 5.738z" fill="#3a312a"/></g></g><g><g><circle cx="166.375" cy="69.372" fill="#f16c7a" r="9"/></g></g><g><g><path d="m166.375 58.872c-5.79 0-10.5 4.71-10.5 10.5 0 5.789 4.71 10.5 10.5 10.5s10.5-4.711 10.5-10.5-4.71-10.5-10.5-10.5zm0 18c-4.136 0-7.5-3.364-7.5-7.5s3.364-7.5 7.5-7.5 7.5 3.364 7.5 7.5-3.364 7.5-7.5 7.5z" fill="#3a312a"/></g></g><g><g><circle cx="180.375" cy="128.372" fill="#f16c7a" r="9"/></g></g><g><g><path d="m180.375 117.872c-5.79 0-10.5 4.71-10.5 10.5s4.71 10.5 10.5 10.5 10.5-4.71 10.5-10.5-4.71-10.5-10.5-10.5zm0 18c-4.136 0-7.5-3.364-7.5-7.5s3.364-7.5 7.5-7.5 7.5 3.364 7.5 7.5-3.364 7.5-7.5 7.5z" fill="#3a312a"/></g></g><g><g><circle cx="122.375" cy="87.372" fill="#f16c7a" r="9"/></g></g><g><g><path d="m122.375 76.872c-5.79 0-10.5 4.71-10.5 10.5 0 5.789 4.71 10.5 10.5 10.5s10.5-4.711 10.5-10.5c0-5.79-4.71-10.5-10.5-10.5zm0 18c-4.136 0-7.5-3.364-7.5-7.5s3.364-7.5 7.5-7.5 7.5 3.364 7.5 7.5-3.364 7.5-7.5 7.5z" fill="#3a312a"/></g></g><g><g><circle cx="99.375" cy="66.372" fill="#f16c7a" r="9"/></g></g><g><g><path d="m99.375 55.872c-5.79 0-10.5 4.71-10.5 10.5 0 5.789 4.71 10.5 10.5 10.5s10.5-4.711 10.5-10.5-4.71-10.5-10.5-10.5zm0 18c-4.136 0-7.5-3.364-7.5-7.5s3.364-7.5 7.5-7.5 7.5 3.364 7.5 7.5-3.364 7.5-7.5 7.5z" fill="#3a312a"/></g></g><g><g><circle cx="60.375" cy="112.372" fill="#f16c7a" r="9"/></g></g><g><g><path d="m60.375 101.872c-5.79 0-10.5 4.71-10.5 10.5 0 5.789 4.71 10.5 10.5 10.5s10.5-4.711 10.5-10.5c0-5.79-4.71-10.5-10.5-10.5zm0 18c-4.136 0-7.5-3.364-7.5-7.5s3.364-7.5 7.5-7.5 7.5 3.364 7.5 7.5-3.364 7.5-7.5 7.5z" fill="#3a312a"/></g></g><g><g><path d="m131.625 41.802c-2.53 0-5.03.1-7.5.31 17.21 1.43 33.05 7.73 46.15 17.52 1.94.77 3.6 2.11 4.76 3.81 8.58 7.36 15.76 16.31 21.08 26.39 1.79.05 3.48.79 4.75 2.06l6.99 6.99c2.75 2.75 2.75 7.23 0 9.98l-3.5 3.5c1.37 6.21 2.09 12.65 2.09 19.26 0 2.45-.1 4.87-.29 7.27 3.73.17 6.72 3.26 6.72 7.04v9.88c0 3.89-3.17 7.06-7.06 7.06h-4.98c-11.88 31.93-41.43 55.33-76.71 58.26 2.47.21 4.97.31 7.5.31 49.53 0 89.82-40.29 89.82-89.82s-40.29-89.82-89.82-89.82z" fill="#b9c239"/></g></g><g><g><path d="m97.235 139.35-4-4c-.586-.586-1.535-.586-2.121 0s-.586 1.536 0 2.121l4 4c.293.293.677.439 1.061.439s.768-.146 1.061-.439c.585-.586.585-1.536-.001-2.121z" fill="#3a312a"/></g></g><g><g><path d="m127.235 157.35-4-4c-.586-.586-1.535-.586-2.121 0s-.586 1.536 0 2.121l4 4c.293.293.677.439 1.06.439.384 0 .768-.146 1.061-.439.586-.586.586-1.536 0-2.121z" fill="#3a312a"/></g></g><g><g><path d="m154.235 153.35c-.586-.586-1.535-.586-2.121 0l-4 4c-.586.586-.586 1.536 0 2.121.293.293.677.439 1.061.439s.768-.146 1.061-.439l4-4c.585-.586.585-1.536-.001-2.121z" fill="#3a312a"/></g></g><g><g><path d="m140.735 129.85c-.586-.586-1.535-.586-2.121 0l-4 4c-.586.586-.586 1.536 0 2.121.293.293.677.439 1.061.439s.768-.146 1.061-.439l4-4c.585-.586.585-1.536-.001-2.121z" fill="#3a312a"/></g></g><g><g><path d="m83.503 152.41h-5.656c-.828 0-1.5.671-1.5 1.5s.672 1.5 1.5 1.5h5.656c.828 0 1.5-.671 1.5-1.5s-.672-1.5-1.5-1.5z" fill="#3a312a"/></g></g><g><g><path d="m144.503 173.41h-5.656c-.828 0-1.5.671-1.5 1.5s.672 1.5 1.5 1.5h5.656c.828 0 1.5-.671 1.5-1.5s-.672-1.5-1.5-1.5z" fill="#3a312a"/></g></g><g><g><path d="m98.503 182.41h-5.656c-.828 0-1.5.671-1.5 1.5s.672 1.5 1.5 1.5h5.656c.828 0 1.5-.671 1.5-1.5s-.672-1.5-1.5-1.5z" fill="#3a312a"/></g></g><g><g><path d="m104.735 159.85c-.586-.586-1.535-.586-2.121 0l-4 4c-.586.586-.586 1.536 0 2.121.293.293.677.439 1.061.439s.768-.146 1.061-.439l4-4c.585-.586.585-1.536-.001-2.121z" fill="#3a312a"/></g></g><g><g><path d="m123.675 182.582c-.828 0-1.5.671-1.5 1.5v5.657c0 .829.672 1.5 1.5 1.5s1.5-.671 1.5-1.5v-5.657c0-.829-.672-1.5-1.5-1.5z" fill="#3a312a"/></g></g><g><g><path d="m109.675 118.582c-.828 0-1.5.671-1.5 1.5v5.657c0 .829.672 1.5 1.5 1.5s1.5-.671 1.5-1.5v-5.657c0-.829-.672-1.5-1.5-1.5z" fill="#3a312a"/></g></g></g></svg>