<svg id="Layer_1" enable-background="new 0 0 256 256" height="512" viewBox="0 0 256 256" width="512" xmlns="http://www.w3.org/2000/svg"><g><g><g><path d="m47.661 26.206c-.974 11.564-13.025 13.39-13.025 13.39 10.347.487 12.925 14.059 12.925 14.059.221-9.677 13.321-14.202 13.321-14.202-9.813-.587-13.221-13.247-13.221-13.247z" fill="#d7e057"/></g></g><g><g><path d="m60.973 37.956c-8.605-.516-11.832-12.025-11.864-12.142-.19-.702-.846-1.167-1.583-1.102-.725.066-1.298.642-1.359 1.367-.86 10.216-11.313 11.964-11.754 12.032-.763.116-1.313.791-1.273 1.561.04.771.657 1.385 1.427 1.421 9.028.426 11.499 12.719 11.523 12.844.137.711.759 1.217 1.472 1.217.041 0 .084-.002.126-.005.764-.064 1.357-.693 1.374-1.46.194-8.509 12.191-12.777 12.313-12.819.675-.234 1.092-.914.994-1.622-.099-.708-.683-1.249-1.396-1.292zm-13.566 10.346c-1.356-3.131-3.709-6.908-7.587-8.877 2.931-1.405 6.409-3.913 8.202-8.273 1.551 3.071 4.2 6.881 8.333 8.723-3.007 1.64-6.922 4.404-8.948 8.427z" fill="#3a312a"/></g></g><g><g><path d="m25.963 43.187c-.689 8.179-9.213 9.471-9.213 9.471 7.318.344 9.142 9.944 9.142 9.944.156-6.844 9.422-10.045 9.422-10.045-6.941-.416-9.351-9.37-9.351-9.37z" fill="#d7e057"/></g></g><g><g><path d="m35.404 51.06c-5.767-.346-7.973-8.187-7.994-8.266-.191-.702-.857-1.165-1.582-1.101-.726.065-1.299.643-1.36 1.368-.579 6.871-7.646 8.066-7.942 8.113-.763.116-1.313.791-1.273 1.561.04.771.657 1.385 1.427 1.421 6.036.284 7.724 8.645 7.739 8.727.135.712.759 1.22 1.472 1.22.042 0 .083-.002.125-.005.765-.063 1.358-.693 1.376-1.461.13-5.708 8.332-8.633 8.413-8.661.676-.233 1.094-.913.996-1.622-.098-.71-.682-1.251-1.397-1.294zm-9.585 6.794c-.924-1.885-2.34-3.947-4.447-5.279 1.856-1.041 3.697-2.63 4.871-4.917 1.057 1.874 2.654 3.955 4.942 5.225-1.85 1.099-3.989 2.739-5.366 4.971z" fill="#3a312a"/></g></g><g><g><path d="m25.963 16.529c-.689 8.18-9.213 9.471-9.213 9.471 7.318.345 9.142 9.944 9.142 9.944.156-6.845 9.422-10.045 9.422-10.045-6.941-.416-9.351-9.37-9.351-9.37z" fill="#d7e057"/></g></g><g><g><path d="m35.404 24.402c-5.767-.346-7.973-8.187-7.994-8.266-.191-.702-.857-1.174-1.582-1.101-.726.065-1.299.642-1.36 1.368-.579 6.871-7.646 8.066-7.942 8.113-.763.116-1.313.791-1.273 1.561.04.771.657 1.385 1.427 1.421 6.036.284 7.724 8.645 7.739 8.727.135.712.759 1.22 1.472 1.22.042 0 .083-.002.125-.005.765-.063 1.358-.693 1.376-1.461.13-5.709 8.332-8.633 8.413-8.661.676-.233 1.094-.913.996-1.622-.098-.71-.682-1.251-1.397-1.294zm-9.585 6.794c-.924-1.886-2.34-3.947-4.447-5.279 1.856-1.041 3.697-2.63 4.871-4.917 1.057 1.874 2.655 3.955 4.941 5.225-1.85 1.1-3.989 2.739-5.365 4.971z" fill="#3a312a"/></g></g><g><g><path d="m218.44 155.471h-180.88c-11.598 0-21 9.402-21 21s9.402 21 21 21h180.88c11.598 0 21-9.402 21-21s-9.402-21-21-21z" fill="#ef6d7a"/></g></g><g><g><path d="m218.44 153.971h-180.88c-12.407 0-22.5 10.094-22.5 22.5s10.093 22.5 22.5 22.5h180.88c12.407 0 22.5-10.094 22.5-22.5 0-12.407-10.093-22.5-22.5-22.5zm0 42h-180.88c-10.752 0-19.5-8.748-19.5-19.5s8.748-19.5 19.5-19.5h180.88c10.753 0 19.5 8.748 19.5 19.5s-8.747 19.5-19.5 19.5z" fill="#3a312a"/></g></g><g><g><path d="m227.932 88.971h-199.864c-6.356 0-11.508 5.152-11.508 11.508v18.984c0 6.355 5.152 11.508 11.508 11.508h199.865c6.356 0 11.508-5.152 11.508-11.508v-18.984c-.001-6.356-5.153-11.508-11.509-11.508z" fill="#fce8cb"/></g></g><g><g><path d="m227.932 87.471h-180.273c-.829 0-1.5.672-1.5 1.5s.671 1.5 1.5 1.5h180.273c5.519 0 10.008 4.489 10.008 10.008v18.984c0 5.519-4.49 10.008-10.008 10.008h-199.864c-5.519 0-10.008-4.489-10.008-10.008v-18.984c0-5.519 4.49-10.008 10.008-10.008h5.273c.829 0 1.5-.672 1.5-1.5s-.671-1.5-1.5-1.5h-5.273c-7.173 0-13.008 5.835-13.008 13.008v18.984c0 7.173 5.835 13.008 13.008 13.008h199.864c7.173 0 13.008-5.835 13.008-13.008v-18.984c0-7.173-5.835-13.008-13.008-13.008z" fill="#3a312a"/></g></g><g><g><path d="m198.36 88.971-18.763 42h21.89l18.763-42z" fill="#87796f"/></g></g><g><g><path d="m221.508 88.154c-.276-.426-.75-.684-1.258-.684h-21.89c-.592 0-1.128.348-1.37.888l-18.763 42c-.207.465-.166 1.002.111 1.429.276.426.75.684 1.258.684h21.89c.592 0 1.128-.348 1.37-.888l18.763-42c.208-.465.166-1.002-.111-1.429zm-20.993 41.317h-18.604l17.422-39h18.604z" fill="#3a312a"/></g></g><g><g><path d="m150.411 88.971-18.763 42h21.89l18.763-42z" fill="#87796f"/></g></g><g><g><path d="m173.559 88.154c-.276-.426-.75-.684-1.258-.684h-21.89c-.592 0-1.128.348-1.37.888l-18.763 42c-.207.465-.165 1.002.111 1.429.276.426.75.684 1.258.684h21.89c.592 0 1.128-.348 1.37-.888l18.763-42c.207-.465.166-1.002-.111-1.429zm-20.994 41.317h-18.604l17.422-39h18.604z" fill="#3a312a"/></g></g><g><g><path d="m102.462 88.971-18.763 42h21.89l18.763-42z" fill="#87796f"/></g></g><g><g><path d="m125.61 88.154c-.276-.426-.75-.684-1.258-.684h-21.89c-.592 0-1.128.348-1.37.888l-18.763 42c-.207.465-.165 1.002.111 1.429.276.426.75.684 1.258.684h21.89c.592 0 1.128-.348 1.37-.888l18.763-42c.207-.465.166-1.002-.111-1.429zm-20.994 41.317h-18.604l17.422-39h18.604z" fill="#3a312a"/></g></g><g><g><path d="m54.513 88.971-18.763 42h21.89l18.762-42z" fill="#87796f"/></g></g><g><g><path d="m77.661 88.154c-.276-.426-.75-.684-1.258-.684h-21.89c-.592 0-1.128.348-1.37.888l-18.763 42c-.207.465-.166 1.002.111 1.429.276.426.75.684 1.258.684h21.89c.592 0 1.129-.348 1.37-.888l18.763-42c.207-.465.165-1.002-.111-1.429zm-20.994 41.317h-18.604l17.422-39h18.604z" fill="#3a312a"/></g></g><g><g><path d="m227.932 197.471h-199.864c-6.356 0-11.508 5.152-11.508 11.508v18.984c0 6.355 5.152 11.508 11.508 11.508h199.865c6.356 0 11.508-5.152 11.508-11.508v-18.984c-.001-6.356-5.153-11.508-11.509-11.508z" fill="#fce8cb"/></g></g><g><g><path d="m227.932 195.971h-199.864c-7.173 0-13.008 5.835-13.008 13.008v18.984c0 7.173 5.835 13.008 13.008 13.008h199.864c7.173 0 13.008-5.835 13.008-13.008v-18.984c0-7.173-5.835-13.008-13.008-13.008zm10.008 31.992c0 5.518-4.49 10.008-10.008 10.008h-199.864c-5.519 0-10.008-4.489-10.008-10.008v-18.984c0-5.518 4.49-10.008 10.008-10.008h199.864c5.519 0 10.008 4.489 10.008 10.008z" fill="#3a312a"/></g></g><g><g><path d="m198.36 197.471-18.763 42h21.89l18.763-42z" fill="#87796f"/></g></g><g><g><path d="m221.508 196.654c-.276-.426-.75-.684-1.258-.684h-21.89c-.592 0-1.128.348-1.37.888l-18.763 42c-.207.465-.166 1.002.111 1.429.276.426.75.684 1.258.684h21.89c.592 0 1.128-.348 1.37-.888l18.763-42c.208-.465.166-1.002-.111-1.429zm-20.993 41.317h-18.604l17.422-39h18.604z" fill="#3a312a"/></g></g><g><g><path d="m150.411 197.471-18.763 42h21.89l18.763-42z" fill="#87796f"/></g></g><g><g><path d="m173.559 196.654c-.276-.426-.75-.684-1.258-.684h-21.89c-.592 0-1.128.348-1.37.888l-18.763 42c-.207.465-.165 1.002.111 1.429.276.426.75.684 1.258.684h21.89c.592 0 1.128-.348 1.37-.888l18.763-42c.207-.465.166-1.002-.111-1.429zm-20.994 41.317h-18.604l17.422-39h18.604z" fill="#3a312a"/></g></g><g><g><path d="m102.462 197.471-18.763 42h21.89l18.763-42z" fill="#87796f"/></g></g><g><g><path d="m125.61 196.654c-.276-.426-.75-.684-1.258-.684h-21.89c-.592 0-1.128.348-1.37.888l-18.763 42c-.207.465-.165 1.002.111 1.429.276.426.75.684 1.258.684h21.89c.592 0 1.128-.348 1.37-.888l18.763-42c.207-.465.166-1.002-.111-1.429zm-20.994 41.317h-18.604l17.422-39h18.604z" fill="#3a312a"/></g></g><g><g><path d="m54.513 197.471-18.763 42h21.89l18.762-42z" fill="#87796f"/></g></g><g><g><path d="m77.661 196.654c-.276-.426-.75-.684-1.258-.684h-21.89c-.592 0-1.128.348-1.37.888l-18.763 42c-.207.465-.166 1.002.111 1.429.276.426.75.684 1.258.684h21.89c.592 0 1.129-.348 1.37-.888l18.763-42c.207-.465.165-1.002-.111-1.429zm-20.994 41.317h-18.604l17.422-39h18.604z" fill="#3a312a"/></g></g><g><g><path d="m85.345 141.274 74.677 37.295 12.988 6.486 15.034 7.508c3.995 1.995 8.852.639 11.234-3.138l30.377-48.152h-144.31z" fill="#fce8cb"/></g></g><g><g><path d="m230.969 140.549c-.264-.479-.767-.775-1.314-.775h-144.31c-.696 0-1.3.479-1.46 1.155-.16.678.167 1.376.789 1.687l74.677 37.296c.739.368 1.642.069 2.012-.672s.069-1.642-.671-2.012l-68.987-34.454h135.23l-28.926 45.852c-1.979 3.138-5.975 4.253-9.295 2.597l-15.033-7.508c-.742-.37-1.642-.071-2.012.672-.37.741-.069 1.642.671 2.012l15.034 7.508c1.468.733 3.029 1.084 4.567 1.084 3.393 0 6.675-1.704 8.605-4.763l30.377-48.152c.292-.465.309-1.049.046-1.527z" fill="#3a312a"/></g></g><g><g><path d="m213.607 130.971h-171.214c-14.267 0-25.833 11.566-25.833 25.833h.046c.479 8.362 7.392 15 15.874 15s15.394-6.638 15.874-15h.093c.479 8.362 7.392 15 15.874 15s15.394-6.638 15.873-15h.093c.479 8.362 7.392 15 15.874 15s15.394-6.638 15.874-15h.093c.479 8.362 7.392 15 15.874 15s15.394-6.638 15.873-15h.093c.479 8.362 7.392 15 15.874 15s15.394-6.638 15.874-15h.093c.479 8.362 7.392 15 15.874 15s15.394-6.638 15.874-15h.093c.479 8.362 7.392 15 15.874 15s15.394-6.638 15.874-15h.046c-.004-14.267-11.57-25.833-25.837-25.833z" fill="#d7e057"/></g></g><g><g><path d="m213.607 129.471h-171.214c-15.072 0-27.333 12.262-27.333 27.333 0 .158.026.311.074.453.707 9.028 8.256 16.047 17.346 16.047 7.071 0 13.208-4.246 15.92-10.382 2.711 6.136 8.849 10.382 15.92 10.382s13.209-4.246 15.92-10.382c2.712 6.136 8.849 10.382 15.92 10.382s13.209-4.246 15.92-10.382c2.711 6.136 8.849 10.382 15.92 10.382s13.209-4.246 15.92-10.382c2.711 6.136 8.849 10.382 15.92 10.382s13.209-4.246 15.92-10.382c2.711 6.136 8.85 10.382 15.92 10.382s13.208-4.246 15.92-10.381c2.711 6.135 8.85 10.381 15.92 10.381 9.084 0 16.629-7.01 17.345-16.028.049-.148.076-.307.076-.472-.001-15.072-12.262-27.333-27.334-27.333zm24.289 27.247c-.437 7.618-6.751 13.586-14.376 13.586s-13.939-5.968-14.376-13.586c-.045-.794-.795-1.414-1.59-1.414s-1.452.62-1.498 1.414c-.437 7.618-6.751 13.586-14.376 13.586s-13.939-5.968-14.376-13.586c-.045-.794-.796-1.414-1.591-1.414s-1.452.62-1.498 1.414c-.436 7.618-6.751 13.586-14.376 13.586s-13.939-5.968-14.376-13.586c-.045-.794-.795-1.414-1.59-1.414s-1.452.62-1.497 1.414c-.437 7.618-6.751 13.586-14.376 13.586s-13.94-5.968-14.376-13.586c-.045-.794-.795-1.414-1.59-1.414s-1.452.62-1.498 1.414c-.437 7.618-6.752 13.586-14.376 13.586s-13.939-5.968-14.376-13.586c-.045-.794-.795-1.414-1.59-1.414s-1.452.62-1.498 1.414c-.437 7.618-6.751 13.586-14.376 13.586s-13.939-5.968-14.376-13.586c-.045-.794-.795-1.414-1.59-1.414s-1.452.62-1.497 1.414c-.437 7.618-6.752 13.586-14.376 13.586-7.625 0-13.94-5.968-14.376-13.586-.005-.093-.02-.183-.042-.27.191-13.254 11.032-23.977 24.331-23.977h171.214c13.296 0 24.136 10.72 24.331 23.971-.024.088-.038.181-.043.276z" fill="#3a312a"/></g></g><g><g><path d="m213.61 132.471h-15c13.29 0 24.13 10.72 24.33 23.97-.02.09-.04.18-.04.28-.28 4.88-2.97 9.08-6.87 11.47 2.19 1.34 4.76 2.11 7.49 2.11 7.63 0 13.94-5.96 14.38-13.58 0-.1.02-.19.04-.28-.2-13.251-11.04-23.97-24.33-23.97z" fill="#b9c239"/></g></g><g><g><path d="m235.98 168.014c-3.17 3.26-7.59 5.289-12.46 5.289-.28 0-.57-.01-.85-.02.18 1.04.27 2.1.27 3.19 0 10.75-8.75 19.5-19.5 19.5h15c10.75 0 19.5-8.75 19.5-19.5 0-3.039-.72-5.899-1.96-8.459z" fill="#d04e5d"/></g></g><g><g><path d="m227.93 90.474h-6.71l-1.29 2.88c1.86 1.8 3.01 4.34 3.01 7.13v18.98c0 5.52-4.49 10.01-10.01 10.01h15c5.52 0 10.01-4.49 10.01-10.01v-18.98c0-5.52-4.49-10.01-10.01-10.01z" fill="#decaad"/></g></g><g><g><path d="m227.93 198.974h-6.71l-1.29 2.88c1.86 1.8 3.01 4.34 3.01 7.13v18.98c0 5.52-4.49 10.01-10.01 10.01h15c5.52 0 10.01-4.49 10.01-10.01v-18.98c0-5.52-4.49-10.01-10.01-10.01z" fill="#decaad"/></g></g></g></svg>