<svg id="Layer_1" enable-background="new 0 0 256 256" height="512" viewBox="0 0 256 256" width="512" xmlns="http://www.w3.org/2000/svg"><g><g><g><path d="m236.009 57.971-30.605-30.605c-6.482-6.482-17.031-6.482-23.514 0l-154.608 154.607c-3.141 3.14-4.87 7.316-4.87 11.757s1.729 8.617 4.87 11.757l30.605 30.605c3.241 3.241 7.499 4.862 11.757 4.862 4.257 0 8.516-1.621 11.757-4.862l154.608-154.607c6.482-6.483 6.482-17.031 0-23.514zm-2.121 21.393-154.608 154.607c-5.314 5.313-13.959 5.312-19.272 0l-30.605-30.605c-2.574-2.574-3.991-5.996-3.991-9.636s1.417-7.062 3.991-9.636l154.608-154.607c2.657-2.656 6.146-3.984 9.636-3.984 3.489 0 6.979 1.328 9.636 3.984l30.605 30.606c5.313 5.312 5.313 13.957 0 19.271z" fill="#3a312a"/></g></g><g><g><circle cx="131.621" cy="131.532" fill="#87796f" r="107.75"/></g></g><g><g><path d="m131.622 22.282c-60.241 0-109.25 49.009-109.25 109.25s49.009 109.25 109.25 109.25 109.25-49.009 109.25-109.25-49.01-109.25-109.25-109.25zm0 215.5c-58.586 0-106.25-47.663-106.25-106.25 0-58.586 47.664-106.25 106.25-106.25s106.25 47.664 106.25 106.25c0 58.587-47.664 106.25-106.25 106.25z" fill="#3a312a"/></g></g><g><g><path d="m131.621 40.21c-6.054 0-11.969.595-17.693 1.719l-13.858 3.88c-34.887 12.845-59.77 46.378-59.77 85.723 0 50.436 40.886 91.322 91.322 91.322s91.322-40.886 91.322-91.322-40.887-91.322-91.323-91.322z" fill="#87796f"/></g></g><g><g><path d="m131.622 38.71c-6.029 0-12.079.588-17.983 1.747-.813.159-1.342.948-1.183 1.761s.946 1.346 1.761 1.183c5.714-1.122 11.57-1.691 17.405-1.691 49.528 0 89.821 40.294 89.821 89.822s-40.294 89.822-89.821 89.822-89.822-40.294-89.822-89.822c0-37.485 23.625-71.369 58.789-84.315.778-.286 1.176-1.148.89-1.926-.287-.778-1.15-1.176-1.926-.89-36.339 13.38-60.753 48.395-60.753 87.131 0 51.182 41.64 92.822 92.822 92.822s92.821-41.64 92.821-92.822-41.64-92.822-92.821-92.822z" fill="#3a312a"/></g></g><g><g><path d="m47.532 26.215c-.974 11.564-13.024 13.39-13.024 13.39 10.347.487 12.925 14.059 12.925 14.059.221-9.677 13.321-14.202 13.321-14.202-9.813-.588-13.222-13.247-13.222-13.247z" fill="#d7e057"/></g></g><g><g><path d="m60.844 37.964c-8.605-.515-11.832-12.024-11.864-12.141-.191-.703-.859-1.164-1.583-1.101-.725.066-1.298.642-1.359 1.367-.86 10.215-11.314 11.964-11.755 12.033-.763.115-1.313.79-1.273 1.56s.657 1.384 1.428 1.421c9.028.425 11.499 12.718 11.523 12.842.137.711.759 1.217 1.472 1.217.042 0 .084-.002.126-.005.764-.064 1.357-.693 1.375-1.459.195-8.509 12.192-12.777 12.313-12.819.675-.235 1.092-.914.994-1.623-.099-.708-.683-1.249-1.397-1.292zm-13.566 10.346c-1.356-3.13-3.709-6.907-7.587-8.876 2.931-1.404 6.409-3.913 8.202-8.273 1.551 3.071 4.199 6.88 8.334 8.723-3.007 1.638-6.922 4.404-8.949 8.426z" fill="#3a312a"/></g></g><g><g><path d="m25.834 43.195c-.689 8.179-9.213 9.471-9.213 9.471 7.318.344 9.142 9.944 9.142 9.944.156-6.845 9.422-10.045 9.422-10.045-6.94-.416-9.351-9.37-9.351-9.37z" fill="#d7e057"/></g></g><g><g><path d="m35.275 51.067c-5.766-.345-7.972-8.186-7.994-8.265-.19-.702-.854-1.168-1.582-1.102-.726.065-1.299.642-1.36 1.368-.579 6.871-7.646 8.067-7.942 8.114-.763.115-1.313.79-1.274 1.561.04.77.657 1.384 1.428 1.421 6.035.284 7.723 8.644 7.739 8.725.135.712.759 1.22 1.473 1.22.041 0 .083-.002.125-.005.765-.064 1.358-.694 1.376-1.461.13-5.709 8.331-8.633 8.412-8.661.676-.234 1.094-.913.996-1.622-.098-.708-.682-1.25-1.397-1.293zm-9.584 6.795c-.924-1.886-2.34-3.947-4.447-5.28 1.855-1.041 3.697-2.63 4.871-4.916 1.057 1.874 2.654 3.954 4.941 5.224-1.85 1.101-3.989 2.74-5.365 4.972z" fill="#3a312a"/></g></g><g><g><path d="m25.834 16.538c-.689 8.179-9.213 9.471-9.213 9.471 7.318.344 9.142 9.944 9.142 9.944.156-6.844 9.422-10.045 9.422-10.045-6.94-.416-9.351-9.37-9.351-9.37z" fill="#d7e057"/></g></g><g><g><path d="m35.275 24.41c-5.766-.345-7.972-8.186-7.994-8.265-.19-.702-.854-1.169-1.582-1.102-.726.065-1.299.642-1.36 1.368-.579 6.871-7.646 8.067-7.942 8.114-.763.115-1.313.79-1.274 1.56.04.77.657 1.384 1.427 1.421 6.035.284 7.724 8.644 7.739 8.726.135.712.759 1.22 1.472 1.22.042 0 .083-.001.125-.005.765-.063 1.358-.694 1.376-1.461.13-5.71 8.331-8.634 8.412-8.662.676-.234 1.094-.913.996-1.622-.096-.708-.68-1.249-1.395-1.292zm-9.584 6.795c-.924-1.886-2.34-3.947-4.447-5.28 1.855-1.042 3.697-2.63 4.871-4.917 1.057 1.873 2.654 3.954 4.941 5.224-1.85 1.101-3.989 2.74-5.365 4.973z" fill="#3a312a"/></g></g><g><g><path d="m192.507 153.484c-.585-1.587-2.856-1.505-3.306.126-1.162 4.218-2.901 10.111-5.041 14.313-12.225 24.009-30.306 18.953-46.942 13.131-3.958-1.385-8.354.042-10.735 3.495l-.101.147c-2.599 3.768-2.107 8.908 1.248 12.022.752.698 1.539 1.368 2.354 2.015l3.942 2.766c.876.541 1.778 1.056 2.712 1.54 16.458 8.528 36.792 4.486 48.772-9.658 9.876-11.662 11.886-26.906 7.097-39.897z" fill="#f16c7a"/></g></g><g><g><path d="m193.915 152.966c-.498-1.351-1.756-2.192-3.183-2.124-1.428.06-2.596.99-2.977 2.37-1.121 4.067-2.852 9.946-4.931 14.03-11.263 22.12-27.093 18.701-45.109 12.396-4.583-1.605-9.71.064-12.466 4.061l-.1.145c-3.024 4.385-2.395 10.392 1.462 13.973.752.699 1.574 1.402 2.513 2.144l3.942 2.766c.024.017.048.033.074.048.941.581 1.887 1.118 2.809 1.596 5.942 3.079 12.414 4.562 18.848 4.562 11.931 0 23.728-5.101 31.758-14.583 9.719-11.476 12.54-27.333 7.36-41.384zm-9.65 39.445c-11.466 13.537-31.207 17.447-46.937 9.296-.844-.437-1.711-.929-2.577-1.462l-3.834-2.687c-.807-.64-1.569-1.292-2.265-1.939-2.773-2.574-3.217-6.903-1.032-10.072l.1-.145c1.989-2.884 5.692-4.091 9.004-2.93 14.099 4.933 35.405 12.389 48.774-13.867 2.203-4.327 3.994-10.402 5.149-14.594.016-.057.045-.163.211-.169.178-.012.223.112.242.164 4.807 13.036 2.188 27.752-6.835 38.405z" fill="#3a312a"/></g></g><g><g><path d="m143.829 181.685c-.755-.34-1.644-.003-1.983.753-3.146 7.004-4.294 14.729-3.319 22.342.097.757.742 1.31 1.486 1.31.063 0 .128-.004.192-.012.822-.105 1.403-.857 1.297-1.678-.905-7.063.16-14.232 3.08-20.731.339-.757.002-1.645-.753-1.984z" fill="#3a312a"/></g></g><g><g><path d="m162.305 206.36c-3.066-6.312-4.348-13.359-3.708-20.379.076-.825-.532-1.555-1.357-1.63-.821-.081-1.555.532-1.63 1.357-.691 7.565.691 15.159 3.996 21.962.259.534.794.845 1.35.845.22 0 .443-.049.654-.151.746-.362 1.057-1.259.695-2.004z" fill="#3a312a"/></g></g><g><g><path d="m182.047 196.775c-4.083-4.075-7.253-9.135-9.167-14.634-.272-.782-1.128-1.198-1.91-.923-.782.272-1.196 1.127-.923 1.91 2.063 5.924 5.48 11.378 9.881 15.771.293.292.676.438 1.06.438s.769-.147 1.061-.44c.585-.587.584-1.537-.002-2.122z" fill="#3a312a"/></g></g><g><g><path d="m193.933 178.256c-3.757-2.441-7.036-5.491-9.745-9.066-.501-.661-1.441-.79-2.101-.29-.661.5-.79 1.441-.289 2.101 2.919 3.852 6.452 7.139 10.501 9.77.253.164.536.242.816.242.491 0 .972-.241 1.259-.683.451-.694.253-1.623-.441-2.074z" fill="#3a312a"/></g></g><g><g><path d="m188.117 147.174c-2.652-3.661-5.847-6.322-7.138-5.943-1.29.378-.187 3.653 2.464 7.314 2.652 3.661 5.847 6.322 7.138 5.943 1.291-.378.188-3.653-2.464-7.314z" fill="#d7e057"/></g></g><g><g><path d="m189.332 146.294c-.555-.767-5.528-7.465-8.774-6.503-.692.203-1.226.722-1.466 1.424-.813 2.377 1.923 6.533 3.137 8.209.518.715 4.877 6.596 8.106 6.596.229 0 .454-.03.669-.093.692-.203 1.226-.722 1.466-1.424.812-2.377-1.924-6.532-3.138-8.209zm-4.674 1.371c-1.454-2.007-2.203-3.573-2.523-4.538 1.117.739 2.942 2.407 4.767 4.927 1.454 2.007 2.203 3.573 2.524 4.537-1.117-.738-2.943-2.406-4.768-4.926z" fill="#3a312a"/></g></g><g><g><path d="m197.817 139.753c-1.337-.148-4.02 3.029-5.993 7.096s-2.489 7.484-1.152 7.632 4.02-3.029 5.993-7.096c1.973-4.068 2.489-7.484 1.152-7.632z" fill="#d7e057"/></g></g><g><g><path d="m199.674 139.409c-.359-.65-.976-1.068-1.692-1.147-3.393-.382-7.095 7.081-7.508 7.932-.903 1.862-2.874 6.431-1.66 8.63.359.65.976 1.068 1.692 1.147.083.009.165.014.248.014 3.307 0 6.857-7.115 7.26-7.946.903-1.862 2.874-6.431 1.66-8.63zm-4.359 7.321c-1.358 2.799-2.865 4.76-3.836 5.682.148-1.005.613-2.678 1.695-4.908 1.358-2.799 2.865-4.76 3.837-5.682-.149 1.005-.614 2.677-1.696 4.908z" fill="#3a312a"/></g></g><g><g><path d="m91.52 176.275c-3.432-2.714-8.181-6.611-11.218-10.219-17.349-20.613-5.647-35.295 6.196-48.348 2.818-3.106 3.216-7.71.964-11.248l-.096-.15c-2.458-3.862-7.383-5.411-11.558-3.535-.013.006-.025.012-.037.018l-9.968 6.4c-13.716 11.909-17.656 31.818-9.433 48.095 6.891 13.639 20.147 21.43 33.977 22.081 1.691.078 2.5-2.045 1.173-3.094z" fill="#f16c7a"/></g></g><g><g><path d="m92.451 175.098c-3.309-2.616-8.048-6.5-11-10.008-15.983-18.991-6.667-32.238 6.159-46.374 3.264-3.597 3.724-8.968 1.119-13.061l-.096-.151c-2.86-4.492-8.637-6.254-13.489-4.073-.749.346-1.06 1.223-.718 1.975.342.751 1.245 1.076 1.998.737 3.452-1.55 7.611-.272 9.677 2.972l.096.151c1.882 2.956 1.549 6.836-.81 9.435-13.283 14.639-23.754 29.504-6.232 50.322 3.127 3.716 8.023 7.732 11.434 10.43.046.036.132.104.074.259-.063.167-.19.163-.245.159-13.88-.653-26.414-8.799-32.709-21.259-7.941-15.717-4.208-34.751 9.077-46.286.626-.543.692-1.491.149-2.116-.544-.626-1.491-.692-2.116-.149-14.324 12.438-18.349 32.959-9.788 49.904 6.782 13.423 20.288 22.199 35.246 22.903.055.002.11.004.164.004 1.369-.001 2.547-.814 3.032-2.108.501-1.34.1-2.779-1.022-3.666z" fill="#3a312a"/></g></g><g><g><path d="m83.422 121.429c-5.226-5.627-11.894-9.694-19.283-11.761-.8-.225-1.626.242-1.849 1.04s.243 1.626 1.04 1.849c6.857 1.918 13.044 5.692 17.894 10.914.295.318.697.479 1.1.479.365 0 .732-.133 1.02-.401.607-.564.642-1.513.078-2.12z" fill="#3a312a"/></g></g><g><g><path d="m75.047 132.831c-6.697-3.583-14.228-5.267-21.785-4.876-.827.043-1.463.748-1.42 1.576.043.827.74 1.462 1.576 1.42 7.005-.368 13.998 1.2 20.213 4.526.225.121.467.178.706.178.536 0 1.054-.288 1.324-.793.392-.731.117-1.639-.614-2.031z" fill="#3a312a"/></g></g><g><g><path d="m71.798 147.133c-6.26-.409-12.614.613-18.374 2.955-.768.312-1.137 1.187-.825 1.955.237.583.798.936 1.39.936.188 0 .379-.036.564-.111 5.342-2.172 11.235-3.121 17.048-2.741.828.056 1.54-.573 1.594-1.399.056-.828-.571-1.542-1.397-1.595z" fill="#3a312a"/></g></g><g><g><path d="m80.21 163.765c-.204-.803-1.021-1.288-1.823-1.085-4.685 1.188-9.088 3.161-13.088 5.865-.686.464-.866 1.396-.402 2.083.29.429.763.66 1.244.66.289 0 .581-.083.839-.257 3.711-2.509 7.797-4.34 12.145-5.442.802-.205 1.289-1.021 1.085-1.824z" fill="#3a312a"/></g></g><g><g><path d="m98.429 172.945c-4.405 1.016-8.101 2.922-8.255 4.258s3.291 1.596 7.696.58 8.101-2.922 8.255-4.258-3.291-1.595-7.696-.58z" fill="#d7e057"/></g></g><g><g><path d="m106.874 171.792c-1.872-1.674-6.766-.773-8.783-.309-.922.212-9.019 2.174-9.408 5.547-.083.716.188 1.41.741 1.905.817.731 2.21.971 3.689.971 1.908 0 3.958-.4 5.094-.662v-.001c.922-.212 9.019-2.174 9.408-5.548.083-.714-.187-1.408-.741-1.903zm-9.341 4.53c-2.414.557-4.15.635-5.162.556 1.116-.741 3.363-1.772 6.395-2.471 2.415-.557 4.149-.635 5.162-.556-1.116.741-3.363 1.772-6.395 2.471z" fill="#3a312a"/></g></g><g><g><path d="m96.725 181.324c-2.977-3.402-5.922-5.208-6.579-4.035s1.224 4.883 4.2 8.285c2.977 3.402 5.922 5.208 6.579 4.035.658-1.174-1.223-4.883-4.2-8.285z" fill="#d7e057"/></g></g><g><g><path d="m97.854 180.336c-1.362-1.558-4.79-5.16-7.301-4.891-.738.077-1.364.482-1.716 1.111-1.658 2.963 3.757 9.293 4.38 10.005 1.316 1.503 4.566 4.904 7.038 4.904.089 0 .177-.004.264-.014.738-.077 1.364-.482 1.716-1.111 1.658-2.962-3.757-9.291-4.381-10.004zm-2.379 4.25c-2.049-2.341-3.268-4.493-3.738-5.747.868.527 2.228 1.607 3.86 3.473 2.049 2.341 3.268 4.493 3.738 5.747-.868-.528-2.228-1.608-3.86-3.473z" fill="#3a312a"/></g></g><g><g><path d="m187.314 79.666c-.42-.936-.884-1.859-1.383-2.773l-2.553-4.083c-.596-.839-1.226-1.666-1.897-2.475-11.834-14.266-32.136-18.467-48.681-10.108-13.639 6.891-21.43 20.147-22.081 33.977-.079 1.69 2.044 2.499 3.093 1.172 2.714-3.432 6.611-8.181 10.219-11.218 20.613-17.349 35.295-5.647 48.348 6.196 3.106 2.818 7.71 3.216 11.248.964l.15-.096c3.864-2.456 5.414-7.381 3.537-11.556z" fill="#f16c7a"/></g></g><g><g><path d="m188.683 79.051c-.419-.933-.902-1.901-1.479-2.954l-2.553-4.083c-.016-.025-.032-.049-.049-.074-.638-.898-1.299-1.76-1.965-2.563-12.196-14.703-33.44-19.114-50.511-10.489-13.423 6.782-22.199 20.287-22.903 35.245-.067 1.438.758 2.693 2.104 3.196.383.143.773.213 1.157.213.958 0 1.873-.434 2.507-1.235 2.616-3.309 6.501-8.048 10.008-11.001 18.989-15.983 32.238-6.667 46.375 6.16 3.598 3.264 8.968 3.725 13.061 1.119l.151-.096c4.492-2.86 6.254-8.637 4.097-13.438zm-5.709 10.907-.151.096c-2.956 1.881-6.836 1.548-9.435-.81-11.062-10.037-27.78-25.207-50.322-6.233-3.717 3.128-7.732 8.024-10.43 11.435-.036.046-.104.131-.259.074-.168-.063-.162-.191-.159-.246.653-13.88 8.799-26.413 21.259-32.709 5.436-2.746 11.326-4.067 17.177-4.067 11.195 0 22.244 4.839 29.673 13.794.61.735 1.216 1.526 1.804 2.351l2.484 3.968c.496.908.944 1.806 1.332 2.669 1.55 3.452.272 7.613-2.973 9.678z" fill="#3a312a"/></g></g><g><g><path d="m179.381 66.147c-.799-.228-1.626.242-1.849 1.04-1.918 6.857-5.692 13.044-10.914 17.893-.607.563-.643 1.513-.079 2.12.295.318.697.479 1.1.479.365 0 .732-.133 1.02-.401 5.627-5.225 9.694-11.893 11.761-19.283.224-.797-.242-1.625-1.039-1.848z" fill="#3a312a"/></g></g><g><g><path d="m162.133 57.12c-.043-.828-.749-1.475-1.576-1.42-.827.043-1.463.749-1.42 1.576.365 7.008-1.2 13.998-4.526 20.213-.391.73-.115 1.639.615 2.03.225.121.467.178.706.178.536 0 1.054-.288 1.324-.793 3.584-6.697 5.27-14.23 4.877-21.784z" fill="#3a312a"/></g></g><g><g><path d="m140 57.281c-.312-.768-1.187-1.137-1.955-.825s-1.137 1.187-.825 1.955c2.172 5.343 3.12 11.238 2.741 17.048-.054.827.572 1.54 1.399 1.594.033.002.066.003.099.003.784 0 1.443-.609 1.495-1.402.41-6.259-.612-12.613-2.954-18.373z" fill="#3a312a"/></g></g><g><g><path d="m127.409 82.244c-1.188-4.686-3.161-9.089-5.865-13.088-.464-.686-1.396-.866-2.083-.402-.686.464-.866 1.396-.402 2.083 2.509 3.71 4.34 7.796 5.442 12.145.172.679.783 1.132 1.453 1.132.122 0 .246-.015.37-.046.802-.205 1.289-1.021 1.085-1.824z" fill="#3a312a"/></g></g><g><g><path d="m117.143 102.286c-1.016-4.405-2.922-8.101-4.258-8.255s-1.596 3.292-.58 7.696c1.016 4.405 2.922 8.101 4.258 8.255s1.596-3.292.58-7.696z" fill="#d7e057"/></g></g><g><g><path d="m118.604 101.949c-.212-.922-2.174-9.019-5.547-9.408-.715-.081-1.41.187-1.905.741-1.674 1.872-.774 6.766-.31 8.783h.001c.212.922 2.175 9.018 5.548 9.408.085.01.169.015.253.015.624 0 1.215-.268 1.651-.755 1.676-1.874.775-6.768.309-8.784zm-2.366 5.836c-.741-1.116-1.772-3.363-2.472-6.395h.001c-.557-2.415-.636-4.149-.556-5.162.741 1.116 1.772 3.363 2.471 6.395.556 2.415.636 4.149.556 5.162z" fill="#3a312a"/></g></g><g><g><path d="m112.799 94.003c-1.174-.657-4.883 1.224-8.284 4.2-3.402 2.977-5.208 5.923-4.035 6.579 1.174.657 4.883-1.224 8.284-4.2 3.402-2.976 5.209-5.922 4.035-6.579z" fill="#d7e057"/></g></g><g><g><path d="m114.643 94.41c-.077-.738-.482-1.364-1.111-1.716-2.968-1.661-9.294 3.757-10.005 4.38-1.558 1.363-5.152 4.802-4.891 7.301.077.738.482 1.364 1.111 1.716.391.218.839.314 1.326.314 3.208 0 8.06-4.153 8.678-4.694 1.559-1.362 5.153-4.802 4.892-7.301zm-6.867 5.044c-2.341 2.049-4.493 3.268-5.747 3.738.528-.868 1.608-2.228 3.473-3.86 2.342-2.049 4.494-3.268 5.747-3.738-.527.868-1.607 2.227-3.473 3.86z" fill="#3a312a"/></g></g><g><g><circle cx="204.395" cy="124.479" fill="#d7e057" r="6"/></g></g><g><g><path d="m204.395 116.979c-4.136 0-7.5 3.364-7.5 7.5s3.364 7.5 7.5 7.5 7.5-3.364 7.5-7.5-3.364-7.5-7.5-7.5zm0 12c-2.481 0-4.5-2.019-4.5-4.5s2.019-4.5 4.5-4.5c2.482 0 4.5 2.019 4.5 4.5s-2.018 4.5-4.5 4.5z" fill="#3a312a"/></g></g><g><g><circle cx="86.395" cy="197.479" fill="#d7e057" r="6"/></g></g><g><g><path d="m86.395 189.979c-4.136 0-7.5 3.364-7.5 7.5s3.364 7.5 7.5 7.5 7.5-3.364 7.5-7.5-3.364-7.5-7.5-7.5zm0 12c-2.481 0-4.5-2.019-4.5-4.5s2.019-4.5 4.5-4.5c2.482 0 4.5 2.019 4.5 4.5s-2.018 4.5-4.5 4.5z" fill="#3a312a"/></g></g><g><g><path d="m77.638 82.236c-2.343-2.343-6.142-2.343-8.485 0s-2.343 6.142 0 8.485 6.142 2.343 8.485 0 2.343-6.142 0-8.485z" fill="#d7e057"/></g></g><g><g><path d="m78.699 81.176c-2.924-2.925-7.683-2.925-10.606 0-2.924 2.924-2.924 7.682 0 10.606 1.462 1.462 3.382 2.193 5.303 2.193 1.92 0 3.841-.731 5.303-2.193 2.924-2.924 2.924-7.682 0-10.606zm-2.121 8.485c-1.755 1.754-4.609 1.754-6.364 0-1.754-1.755-1.754-4.609 0-6.364.877-.877 2.03-1.316 3.182-1.316s2.305.439 3.182 1.316c1.753 1.754 1.753 4.61 0 6.364z" fill="#3a312a"/></g></g><g><g><circle cx="141.395" cy="89.479" fill="#d7e057" r="6"/></g></g><g><g><path d="m141.395 81.979c-4.136 0-7.5 3.364-7.5 7.5s3.364 7.5 7.5 7.5 7.5-3.364 7.5-7.5-3.364-7.5-7.5-7.5zm0 12c-2.481 0-4.5-2.019-4.5-4.5s2.019-4.5 4.5-4.5c2.482 0 4.5 2.019 4.5 4.5s-2.018 4.5-4.5 4.5z" fill="#3a312a"/></g></g><g><g><circle cx="120.395" cy="166.479" fill="#d7e057" r="6"/></g></g><g><g><path d="m120.395 158.979c-4.136 0-7.5 3.364-7.5 7.5s3.364 7.5 7.5 7.5 7.5-3.364 7.5-7.5-3.364-7.5-7.5-7.5zm0 12c-2.481 0-4.5-2.019-4.5-4.5s2.019-4.5 4.5-4.5c2.482 0 4.5 2.019 4.5 4.5s-2.018 4.5-4.5 4.5z" fill="#3a312a"/></g></g><g><g><circle cx="145.645" cy="117.479" fill="#f7e3c7" r="15.5"/></g></g><g><g><path d="m145.645 100.479c-9.374 0-17 7.626-17 17s7.626 17 17 17 17-7.626 17-17-7.626-17-17-17zm0 31c-7.72 0-14-6.28-14-14s6.28-14 14-14 14 6.28 14 14-6.28 14-14 14z" fill="#3a312a"/></g></g><g><g><path d="m145.645 110.921c-6.091 0-11.029 4.938-11.029 11.029s4.938 11.029 11.029 11.029 11.029-4.938 11.029-11.029-4.938-11.029-11.029-11.029z" fill="#d7e057"/></g></g><g><g><path d="m145.645 109.421c-6.908 0-12.529 5.621-12.529 12.529s5.621 12.529 12.529 12.529 12.529-5.621 12.529-12.529-5.62-12.529-12.529-12.529zm0 22.058c-5.254 0-9.529-4.274-9.529-9.529 0-5.254 4.274-9.529 9.529-9.529s9.529 4.274 9.529 9.529-4.274 9.529-9.529 9.529z" fill="#3a312a"/></g></g><g><g><circle cx="108.645" cy="139.479" fill="#f7e3c7" r="15.5"/></g></g><g><g><path d="m108.645 122.479c-9.374 0-17 7.626-17 17s7.626 17 17 17 17-7.626 17-17-7.626-17-17-17zm0 31c-7.72 0-14-6.28-14-14s6.28-14 14-14 14 6.28 14 14-6.28 14-14 14z" fill="#3a312a"/></g></g><g><g><path d="m108.645 132.921c-6.091 0-11.029 4.938-11.029 11.029s4.938 11.029 11.029 11.029 11.029-4.938 11.029-11.029-4.938-11.029-11.029-11.029z" fill="#d7e057"/></g></g><g><g><path d="m108.645 131.421c-6.908 0-12.529 5.621-12.529 12.529s5.621 12.529 12.529 12.529 12.529-5.621 12.529-12.529-5.62-12.529-12.529-12.529zm0 22.058c-5.254 0-9.529-4.274-9.529-9.529 0-5.254 4.274-9.529 9.529-9.529s9.529 4.274 9.529 9.529-4.274 9.529-9.529 9.529z" fill="#3a312a"/></g></g><g><g><circle cx="149.145" cy="159.979" fill="#f7e3c7" r="15.5"/></g></g><g><g><path d="m149.145 142.979c-9.374 0-17 7.626-17 17s7.626 17 17 17 17-7.626 17-17-7.626-17-17-17zm0 31c-7.72 0-14-6.28-14-14s6.28-14 14-14 14 6.28 14 14-6.28 14-14 14z" fill="#3a312a"/></g></g><g><g><path d="m149.145 153.421c-6.091 0-11.029 4.938-11.029 11.029s4.938 11.029 11.029 11.029 11.029-4.938 11.029-11.029-4.938-11.029-11.029-11.029z" fill="#d7e057"/></g></g><g><g><path d="m149.145 151.921c-6.908 0-12.529 5.621-12.529 12.529s5.621 12.529 12.529 12.529 12.529-5.621 12.529-12.529-5.62-12.529-12.529-12.529zm0 22.058c-5.254 0-9.529-4.274-9.529-9.529 0-5.254 4.274-9.529 9.529-9.529s9.529 4.274 9.529 9.529-4.274 9.529-9.529 9.529z" fill="#3a312a"/></g></g><g><g><path d="m178.755 101.132c-1.642 0-7.741 8.437-7.741 15.951s3.466 11.259 7.741 11.259 7.741-3.746 7.741-11.259c0-7.514-6.099-15.951-7.741-15.951z" fill="#d7e057"/></g></g><g><g><path d="m178.755 99.632c-2.257 0-5.003 4.529-5.791 5.917-1.288 2.271-3.45 6.788-3.45 11.533 0 9.418 4.978 12.759 9.241 12.759s9.241-3.342 9.241-12.759c0-7.673-6.264-17.45-9.241-17.45zm0 27.21c-3.85 0-6.241-3.74-6.241-9.759 0-6.212 4.563-13.006 6.241-14.316 1.678 1.31 6.241 8.104 6.241 14.316 0 6.02-2.391 9.759-6.241 9.759z" fill="#3a312a"/></g></g><g><g><path d="m119.07 199.105c-5.313-5.313-10.412-5.511-13.435-2.488s-2.825 8.122 2.488 13.435 15.591 6.966 16.753 5.805c1.161-1.16-.493-11.439-5.806-16.752z" fill="#d7e057"/></g></g><g><g><path d="m125.847 208.64c-.694-2.517-2.36-7.24-5.716-10.595-6.658-6.659-12.542-5.502-15.556-2.488-3.015 3.014-4.171 8.897 2.488 15.556 4.126 4.126 11.672 6.551 15.978 6.551 1.356 0 2.392-.241 2.896-.745 1.595-1.597.334-6.741-.09-8.279zm-2.127 6.062c-2.11.264-10.143-1.317-14.536-5.71-4.256-4.257-5.21-8.592-2.488-11.314 1.028-1.028 2.285-1.531 3.682-1.531 2.303 0 4.983 1.37 7.632 4.019 4.392 4.393 5.97 12.422 5.71 14.536z" fill="#3a312a"/></g></g><g><g><path d="m106.376 61.117c-3.023-3.023-8.122-2.825-13.435 2.488s-6.966 15.591-5.805 16.753c1.161 1.161 11.439-.492 16.752-5.805 5.313-5.314 5.511-10.413 2.488-13.436z" fill="#d7e057"/></g></g><g><g><path d="m107.436 60.057c-3.014-3.015-8.897-4.172-15.556 2.488-3.355 3.356-5.021 8.078-5.716 10.595-.424 1.539-1.686 6.684-.09 8.279.584.584 1.643.786 2.826.786 2.051 0 4.477-.606 5.453-.875 2.517-.694 7.239-2.36 10.595-5.716 6.659-6.66 5.503-12.543 2.488-15.557zm-4.609 13.435c-4.393 4.392-12.421 5.972-14.536 5.71-.26-2.113 1.317-10.144 5.71-14.536 4.256-4.255 8.59-5.21 11.314-2.488 2.722 2.722 1.768 7.057-2.488 11.314z" fill="#3a312a"/></g></g><g><g><path d="m131.62 41.71c-2.48 0-4.97.1-7.45.32 16.85 1.4 32.4 7.48 45.33 16.94 3.8 1.9 7.32 4.39 10.41 7.45.06.04.11.1.16.15.89.89 1.75 1.83 2.57 2.81.66.8 1.32 1.66 1.96 2.56.02.03.04.05.05.07l2.38 3.81c9.3 11.72 15.73 25.81 18.23 41.21 3.73.43 6.64 3.6 6.64 7.45 0 3.42-2.31 6.32-5.46 7.21-.03 15.11-3.8 29.36-10.45 41.85-.31 2.05-.77 4.08-1.38 6.07-.02.25-.09.49-.23.71-1.66 5.06-4.28 9.84-7.83 14.03-1.38 1.63-2.88 3.12-4.47 4.49-.01.02-.02.04-.03.06-.03.03-.07.04-.1.06-5.27 4.52-11.56 7.56-18.2 9-11.7 7.25-25.19 11.88-39.63 13.08 2.47.21 4.97.31 7.5.31 49.53 0 89.82-40.29 89.82-89.82s-40.29-89.82-89.82-89.82z" fill="#695b51"/></g></g></g></svg>