<svg id="Layer_1" enable-background="new 0 0 256 256" height="512" viewBox="0 0 256 256" width="512" xmlns="http://www.w3.org/2000/svg"><g><g><g><path d="m47.536 26.334c-.974 11.564-13.024 13.39-13.024 13.39 10.347.487 12.925 14.059 12.925 14.059.221-9.677 13.321-14.202 13.321-14.202-9.814-.588-13.222-13.247-13.222-13.247z" fill="#d7e057"/></g></g><g><g><path d="m60.847 38.083c-8.604-.514-11.832-12.024-11.863-12.14-.191-.702-.853-1.161-1.583-1.102-.725.066-1.298.642-1.359 1.367-.86 10.215-11.313 11.964-11.754 12.033-.763.115-1.314.79-1.273 1.561.04.77.657 1.384 1.428 1.421 9.028.425 11.499 12.718 11.523 12.842.137.711.759 1.217 1.472 1.217.042 0 .084-.001.126-.005.764-.064 1.357-.693 1.375-1.459.194-8.509 12.191-12.777 12.313-12.819.675-.235 1.092-.915.994-1.623-.101-.709-.685-1.25-1.399-1.293zm-13.565 10.346c-1.357-3.13-3.709-6.907-7.587-8.876 2.931-1.405 6.409-3.913 8.202-8.273 1.551 3.071 4.2 6.88 8.334 8.722-3.008 1.64-6.923 4.406-8.949 8.427z" fill="#3a312a"/></g></g><g><g><path d="m25.838 43.315c-.689 8.179-9.213 9.471-9.213 9.471 7.318.344 9.142 9.944 9.142 9.944.156-6.844 9.422-10.045 9.422-10.045-6.941-.416-9.351-9.37-9.351-9.37z" fill="#d7e057"/></g></g><g><g><path d="m35.279 51.187c-5.766-.345-7.972-8.185-7.994-8.264-.19-.702-.853-1.17-1.582-1.102-.726.065-1.299.642-1.36 1.368-.579 6.871-7.646 8.066-7.942 8.113-.763.115-1.313.79-1.273 1.561.04.77.657 1.384 1.427 1.421 6.036.284 7.724 8.644 7.739 8.726.135.713.759 1.22 1.472 1.22.042 0 .083-.002.125-.005.765-.063 1.358-.694 1.376-1.461.13-5.709 8.332-8.634 8.413-8.662.677-.234 1.094-.913.996-1.622s-.682-1.251-1.397-1.293zm-9.585 6.795c-.924-1.886-2.34-3.947-4.447-5.28 1.856-1.042 3.697-2.63 4.871-4.917 1.057 1.874 2.654 3.955 4.941 5.224-1.85 1.101-3.989 2.741-5.365 4.973z" fill="#3a312a"/></g></g><g><g><path d="m25.838 16.657c-.689 8.18-9.213 9.471-9.213 9.471 7.318.345 9.142 9.944 9.142 9.944.156-6.845 9.422-10.045 9.422-10.045-6.941-.416-9.351-9.37-9.351-9.37z" fill="#d7e057"/></g></g><g><g><path d="m35.279 24.529c-5.767-.345-7.973-8.186-7.994-8.265-.19-.702-.853-1.163-1.582-1.102-.726.065-1.299.642-1.36 1.368-.579 6.871-7.646 8.067-7.942 8.114-.763.115-1.314.79-1.273 1.561.04.77.657 1.384 1.428 1.421 6.035.284 7.723 8.644 7.739 8.726.135.713.759 1.22 1.472 1.22.042 0 .083-.001.125-.005.765-.064 1.358-.694 1.376-1.461.13-5.709 8.331-8.634 8.413-8.662.676-.234 1.094-.913.996-1.622-.099-.708-.683-1.25-1.398-1.293zm-9.585 6.795c-.924-1.885-2.34-3.947-4.447-5.28 1.856-1.041 3.697-2.63 4.871-4.916 1.057 1.874 2.655 3.954 4.941 5.224-1.85 1.101-3.989 2.74-5.365 4.972z" fill="#3a312a"/></g></g><g><g><path d="m172.358 16.402h-14.966c-7.189 0-13.017 5.819-13.017 13.008v196.984c0 7.189 5.828 13.008 13.017 13.008h14.966c7.189 0 13.017-5.828 13.017-13.017v-196.966c0-7.19-5.828-13.017-13.017-13.017z" fill="#d7e057"/></g></g><g><g><path d="m172.358 14.901h-14.966c-8.005 0-14.517 6.508-14.517 14.508v196.985c0 8 6.512 14.507 14.517 14.507h14.966c8.005 0 14.517-6.512 14.517-14.517v-196.965c0-8.005-6.512-14.518-14.517-14.518zm11.517 211.483c0 6.351-5.167 11.517-11.517 11.517h-14.966c-6.351 0-11.517-5.162-11.517-11.507v-196.985c0-6.345 5.167-11.508 11.517-11.508h14.966c6.351 0 11.517 5.167 11.517 11.517z" fill="#3a312a"/></g></g><g><g><path d="m172.375 14.901c-.829 0-1.5.671-1.5 1.5v18c0 .829.671 1.5 1.5 1.5s1.5-.671 1.5-1.5v-18c0-.828-.671-1.5-1.5-1.5z" fill="#3a312a"/></g></g><g><g><path d="m161.375 28.901c-.829 0-1.5.671-1.5 1.5v17c0 .829.671 1.5 1.5 1.5s1.5-.671 1.5-1.5v-17c0-.828-.671-1.5-1.5-1.5z" fill="#3a312a"/></g></g><g><g><path d="m172.375 125.901c-.829 0-1.5.671-1.5 1.5v9c0 .829.671 1.5 1.5 1.5s1.5-.671 1.5-1.5v-9c0-.828-.671-1.5-1.5-1.5z" fill="#3a312a"/></g></g><g><g><path d="m152.375 102.901c-.829 0-1.5.671-1.5 1.5v10c0 .829.671 1.5 1.5 1.5s1.5-.671 1.5-1.5v-10c0-.828-.671-1.5-1.5-1.5z" fill="#3a312a"/></g></g><g><g><path d="m172.375 68.901c-.829 0-1.5.671-1.5 1.5v24c0 .829.671 1.5 1.5 1.5s1.5-.671 1.5-1.5v-24c0-.828-.671-1.5-1.5-1.5z" fill="#3a312a"/></g></g><g><g><path d="m211.358 16.402h-14.966c-7.189 0-13.017 5.819-13.017 13.008v196.984c0 7.189 5.828 13.008 13.017 13.008h14.966c7.189 0 13.017-5.828 13.017-13.017v-196.966c0-7.19-5.828-13.017-13.017-13.017z" fill="#d7e057"/></g></g><g><g><path d="m224.375 58.228c.829 0 1.5-.671 1.5-1.5v-27.309c0-8.005-6.512-14.517-14.517-14.517h-14.966c-8.005 0-14.517 6.508-14.517 14.508v196.985c0 8 6.512 14.507 14.517 14.507h14.966c8.005 0 14.517-6.512 14.517-14.517v-154.81c0-.829-.671-1.5-1.5-1.5s-1.5.671-1.5 1.5v154.809c0 6.351-5.167 11.517-11.517 11.517h-14.966c-6.351 0-11.517-5.162-11.517-11.507v-196.985c0-6.345 5.167-11.508 11.517-11.508h14.966c6.351 0 11.517 5.167 11.517 11.517v27.309c0 .83.671 1.501 1.5 1.501z" fill="#3a312a"/></g></g><g><g><path d="m211.375 14.901c-.829 0-1.5.671-1.5 1.5v18c0 .829.671 1.5 1.5 1.5s1.5-.671 1.5-1.5v-18c0-.828-.671-1.5-1.5-1.5z" fill="#3a312a"/></g></g><g><g><path d="m200.375 28.901c-.829 0-1.5.671-1.5 1.5v17c0 .829.671 1.5 1.5 1.5s1.5-.671 1.5-1.5v-17c0-.828-.671-1.5-1.5-1.5z" fill="#3a312a"/></g></g><g><g><path d="m211.375 125.901c-.829 0-1.5.671-1.5 1.5v9c0 .829.671 1.5 1.5 1.5s1.5-.671 1.5-1.5v-9c0-.828-.671-1.5-1.5-1.5z" fill="#3a312a"/></g></g><g><g><path d="m191.375 102.901c-.829 0-1.5.671-1.5 1.5v10c0 .829.671 1.5 1.5 1.5s1.5-.671 1.5-1.5v-10c0-.828-.671-1.5-1.5-1.5z" fill="#3a312a"/></g></g><g><g><path d="m211.375 68.901c-.829 0-1.5.671-1.5 1.5v24c0 .829.671 1.5 1.5 1.5s1.5-.671 1.5-1.5v-24c0-.828-.671-1.5-1.5-1.5z" fill="#3a312a"/></g></g><g><g><path d="m180.614 216.757-54.945-189.147c-2.005-6.904-9.228-10.875-16.132-8.869l-14.372 4.175c-6.904 2.005-10.877 9.219-8.872 16.123 11.008 37.895 43.942 151.27 54.95 189.165 2.005 6.904 9.225 10.866 16.129 8.86l14.372-4.175c6.904-2.006 10.875-9.229 8.87-16.132z" fill="#d7e057"/></g></g><g><g><path d="m182.054 216.338-54.944-189.147c-1.082-3.724-3.549-6.803-6.946-8.671-3.398-1.869-7.32-2.301-11.044-1.22l-14.372 4.175c-7.687 2.233-12.125 10.299-9.894 17.982l54.95 189.165c1.082 3.724 3.548 6.802 6.946 8.668 2.171 1.192 4.556 1.798 6.967 1.798 1.361 0 2.731-.193 4.075-.583l14.372-4.175c3.724-1.081 6.803-3.549 8.671-6.947 1.868-3.399 2.301-7.321 1.219-11.045zm-3.848 9.598c-1.482 2.696-3.925 4.653-6.879 5.511l-14.372 4.175c-2.956.858-6.067.516-8.761-.963-2.695-1.48-4.651-3.921-5.509-6.875l-54.95-189.165c-.858-2.954-.514-6.063.969-8.756 1.482-2.693 3.926-4.649 6.881-5.507l14.372-4.175c1.065-.309 2.15-.462 3.229-.462 1.914 0 3.809.482 5.532 1.43 2.696 1.482 4.653 3.925 5.511 6.879l54.944 189.147c.858 2.954.515 6.066-.967 8.761z" fill="#3a312a"/></g></g><g><g><path d="m116.016 35.603-5.021-17.286c-.231-.795-1.063-1.254-1.859-1.022-.795.231-1.253 1.063-1.022 1.859l5.021 17.286c.19.656.79 1.082 1.44 1.082.138 0 .279-.02.419-.06.796-.232 1.253-1.064 1.022-1.859z" fill="#3a312a"/></g></g><g><g><path d="m109.079 51.155-4.742-16.325c-.231-.795-1.062-1.254-1.859-1.022-.795.231-1.253 1.064-1.022 1.859l4.742 16.325c.191.656.79 1.082 1.44 1.082.138 0 .279-.02.419-.06.796-.231 1.253-1.064 1.022-1.859z" fill="#3a312a"/></g></g><g><g><path d="m144.469 133.554-2.511-8.643c-.231-.795-1.063-1.254-1.859-1.022-.795.231-1.253 1.063-1.022 1.859l2.511 8.643c.19.656.79 1.082 1.44 1.082.138 0 .279-.02.419-.06.796-.231 1.253-1.064 1.022-1.859z" fill="#3a312a"/></g></g><g><g><path d="m119.126 118.006-2.79-9.603c-.231-.795-1.063-1.253-1.859-1.022-.795.231-1.253 1.063-1.022 1.859l2.79 9.603c.19.656.79 1.082 1.44 1.082.138 0 .279-.02.419-.06.795-.231 1.253-1.064 1.022-1.859z" fill="#3a312a"/></g></g><g><g><path d="m132.753 93.221-6.695-23.047c-.231-.795-1.063-1.254-1.859-1.022-.795.231-1.253 1.063-1.022 1.859l6.695 23.047c.19.656.79 1.082 1.44 1.082.138 0 .279-.02.419-.06.795-.231 1.253-1.064 1.022-1.859z" fill="#3a312a"/></g></g><g><g><path d="m106.875 133.902 15.978 105.696h100.544l15.978-105.696z" fill="#f16c7a"/></g></g><g><g><path d="m240.512 132.923c-.285-.331-.7-.522-1.137-.522h-132.5c-.437 0-.852.19-1.137.522-.285.331-.411.77-.346 1.202l15.978 105.697c.111.733.742 1.276 1.483 1.276h100.543c.742 0 1.372-.542 1.483-1.276l15.978-105.697c.066-.432-.06-.871-.345-1.202zm-18.406 105.176h-97.963l-15.525-102.697h129.013z" fill="#3a312a"/></g></g><g><g><path d="m134.778 160.27h-108.227c-5.482 0-9.926 4.444-9.926 9.926s4.444 9.926 9.926 9.926h108.227c5.482 0 9.925-4.444 9.925-9.926s-4.443-9.926-9.925-9.926z" fill="#f7e3c7"/></g></g><g><g><path d="m134.778 158.77h-108.228c-6.3 0-11.425 5.126-11.425 11.425 0 6.3 5.125 11.426 11.425 11.426h108.228c6.3 0 11.425-5.126 11.425-11.426 0-6.299-5.125-11.425-11.425-11.425zm0 19.852h-108.228c-4.646 0-8.425-3.78-8.425-8.426s3.78-8.425 8.425-8.425h108.228c4.645 0 8.425 3.78 8.425 8.425 0 4.646-3.78 8.426-8.425 8.426z" fill="#3a312a"/></g></g><g><g><path d="m28.307 180.122 4.814 25.856h.004l2.675 14.387 3.581 19.233h82.566l11.074-59.476z" fill="#f7e3c7"/></g></g><g><g><path d="m134.175 179.163c-.285-.343-.708-.542-1.154-.542h-104.714c-.446 0-.869.198-1.154.542-.285.343-.402.795-.321 1.233l4.814 25.856c.132.711.755 1.226 1.478 1.226.829 0 1.499-.671 1.499-1.5 0-.12-.015-.237-.041-.349l-4.47-24.007h101.104l-10.516 56.477h-80.072l-3.353-18.007c-.151-.814-.932-1.35-1.749-1.2-.815.151-1.352.935-1.2 1.749l3.581 19.233c.132.71.752 1.226 1.475 1.226h82.565c.723 0 1.342-.515 1.475-1.226l11.075-59.477c.081-.439-.037-.891-.322-1.234z" fill="#3a312a"/></g></g><g><g><path d="m78.415 96.272c2.695 14.715-20.196 9.908-20.741 24.296h46.123c-.851-10.952-27.336-34.973-25.382-24.296z" fill="#87796f"/></g></g><g><g><path d="m82.198 92.717c-1.859-.812-3.308-.82-4.309-.028-.959.76-1.277 2.056-.949 3.853 1.118 6.104-2.605 8.098-8.773 10.846-5.48 2.441-11.691 5.208-11.992 13.124-.015.407.136.803.418 1.097.283.293.673.459 1.081.459h46.123c.418 0 .817-.174 1.101-.481s.427-.718.395-1.135c-.708-9.099-16.282-24.761-23.095-27.735zm-22.851 26.351c.94-4.886 5.373-6.861 10.041-8.94 5.673-2.527 12.104-5.392 10.504-14.126-.084-.459-.086-.743-.072-.903.548.05 2.039.555 4.764 2.569 6.999 5.171 15.634 15.252 17.407 21.4z" fill="#3a312a"/></g></g><g><g><path d="m115.537 140.419h-69.746c-6.445 0-11.67 5.225-11.67 11.67v8.181h93.086v-8.181c0-6.445-5.225-11.67-11.67-11.67z" fill="#87796f"/></g></g><g><g><path d="m115.537 138.919h-69.746c-7.262 0-13.17 5.908-13.17 13.17v8.181c0 .829.671 1.5 1.5 1.5h93.086c.829 0 1.5-.671 1.5-1.5v-8.181c0-7.261-5.908-13.17-13.17-13.17zm10.17 19.851h-90.086v-6.681c0-5.608 4.562-10.17 10.17-10.17h69.746c5.608 0 10.17 4.562 10.17 10.17z" fill="#3a312a"/></g></g><g><g><path d="m104.106 120.568h-46.883c-6.445 0-11.67 5.225-11.67 11.67v8.181h70.223v-8.181c-.001-6.445-5.225-11.67-11.67-11.67z" fill="#87796f"/></g></g><g><g><path d="m104.105 119.068h-46.882c-7.262 0-13.17 5.908-13.17 13.17v8.181c0 .829.671 1.5 1.5 1.5h70.223c.829 0 1.5-.671 1.5-1.5v-8.181c-.001-7.261-5.909-13.17-13.171-13.17zm10.17 19.851h-67.222v-6.681c0-5.608 4.562-10.17 10.17-10.17h46.883c5.608 0 10.17 4.562 10.17 10.17v6.681z" fill="#3a312a"/></g></g><g><g><path d="m222.635 135.402-15.53 102.7h15l15.53-102.7z" fill="#d34e5c"/></g></g></g></svg>