<svg id="Layer_1" enable-background="new 0 0 256 256" height="512" viewBox="0 0 256 256" width="512" xmlns="http://www.w3.org/2000/svg"><g><g><g><path d="m47.661 26.463c-.974 11.564-13.024 13.39-13.024 13.39 10.347.487 12.925 14.06 12.925 14.06.221-9.677 13.321-14.203 13.321-14.203-9.814-.587-13.222-13.247-13.222-13.247z" fill="#d7e057"/></g></g><g><g><path d="m60.973 38.213c-8.604-.515-11.832-12.024-11.863-12.141-.19-.702-.847-1.16-1.584-1.102-.725.066-1.298.642-1.359 1.367-.86 10.216-11.314 11.965-11.755 12.033-.763.116-1.313.791-1.273 1.561.04.771.657 1.385 1.428 1.421 9.027.425 11.498 12.718 11.521 12.842.138.712.76 1.218 1.473 1.218.042 0 .084-.002.126-.005.764-.064 1.357-.693 1.375-1.46.194-8.509 12.191-12.777 12.313-12.819.676-.234 1.092-.914.994-1.622-.1-.71-.683-1.251-1.396-1.293zm-13.567 10.346c-1.356-3.131-3.708-6.907-7.586-8.877 2.931-1.404 6.408-3.912 8.201-8.272 1.551 3.071 4.2 6.88 8.334 8.723-3.006 1.638-6.922 4.404-8.949 8.426z" fill="#3a312a"/></g></g><g><g><path d="m25.963 43.444c-.689 8.179-9.213 9.47-9.213 9.47 7.318.344 9.142 9.944 9.142 9.944.156-6.844 9.422-10.045 9.422-10.045-6.941-.415-9.351-9.369-9.351-9.369z" fill="#d7e057"/></g></g><g><g><path d="m35.404 51.316c-5.767-.345-7.972-8.185-7.993-8.265-.19-.702-.864-1.162-1.582-1.102-.726.065-1.3.643-1.361 1.368-.579 6.87-7.646 8.066-7.942 8.113-.763.116-1.314.791-1.273 1.561.04.771.657 1.385 1.428 1.421 6.035.284 7.724 8.644 7.739 8.726.136.713.759 1.22 1.473 1.22.041 0 .083-.002.125-.005.765-.063 1.358-.693 1.376-1.461.13-5.709 8.331-8.634 8.412-8.662.676-.234 1.093-.913.996-1.622-.099-.708-.684-1.25-1.398-1.292zm-9.585 6.795c-.924-1.886-2.34-3.947-4.447-5.28 1.855-1.041 3.697-2.63 4.871-4.916 1.057 1.874 2.654 3.955 4.941 5.224-1.849 1.1-3.989 2.74-5.365 4.972z" fill="#3a312a"/></g></g><g><g><path d="m25.963 16.787c-.689 8.179-9.213 9.471-9.213 9.471 7.318.344 9.142 9.944 9.142 9.944.156-6.845 9.422-10.045 9.422-10.045-6.941-.416-9.351-9.37-9.351-9.37z" fill="#d7e057"/></g></g><g><g><path d="m35.404 24.659c-5.767-.346-7.972-8.187-7.993-8.266-.19-.702-.864-1.16-1.582-1.102-.726.065-1.3.643-1.361 1.368-.579 6.871-7.646 8.066-7.942 8.113-.763.116-1.314.791-1.273 1.561.04.771.657 1.385 1.428 1.421 6.035.284 7.724 8.644 7.739 8.726.136.713.759 1.22 1.473 1.22.041 0 .083-.002.125-.005.765-.063 1.358-.693 1.376-1.461.13-5.709 8.331-8.633 8.411-8.661.677-.233 1.094-.913.997-1.622-.099-.708-.684-1.249-1.398-1.292zm-9.585 6.794c-.924-1.885-2.34-3.947-4.447-5.279 1.855-1.041 3.697-2.63 4.871-4.917 1.057 1.874 2.653 3.955 4.941 5.225-1.849 1.1-3.989 2.739-5.365 4.971z" fill="#3a312a"/></g></g><g><g><path d="m149.872 16.849c-5.304 0-9.604 4.299-9.604 9.604s4.3 9.604 9.604 9.604 9.604-4.3 9.604-9.604-4.3-9.604-9.604-9.604z" fill="#d7e057"/></g></g><g><g><path d="m149.872 15.349c-6.122 0-11.104 4.981-11.104 11.104 0 6.122 4.981 11.104 11.104 11.104 6.122 0 11.104-4.981 11.104-11.104s-4.982-11.104-11.104-11.104zm0 19.207c-4.469 0-8.104-3.635-8.104-8.104s3.635-8.104 8.104-8.104 8.104 3.635 8.104 8.104-3.635 8.104-8.104 8.104z" fill="#3a312a"/></g></g><g><g><path d="m118.844 18.326c-5.304 0-9.604 4.3-9.604 9.604s4.3 9.604 9.604 9.604 9.604-4.3 9.604-9.604-4.3-9.604-9.604-9.604z" fill="#d7e057"/></g></g><g><g><path d="m118.845 16.826c-6.123 0-11.105 4.981-11.105 11.104s4.982 11.103 11.105 11.103c6.122 0 11.103-4.981 11.103-11.103s-4.981-11.104-11.103-11.104zm0 19.207c-4.469 0-8.105-3.635-8.105-8.103 0-4.469 3.636-8.104 8.105-8.104s8.103 3.635 8.103 8.104c0 4.468-3.635 8.103-8.103 8.103z" fill="#3a312a"/></g></g><g><g><path d="m144.947 45.66h-33.894c-52.496 0-95.053 42.556-95.053 95.053h224c0-52.497-42.557-95.053-95.053-95.053z" fill="#f8e4c8"/></g></g><g><g><path d="m144.947 44.16h-33.895c-53.239 0-96.553 43.313-96.553 96.553 0 .828.672 1.5 1.5 1.5h54.175c.828 0 1.5-.672 1.5-1.5s-.672-1.5-1.5-1.5h-52.662c.804-50.897 42.456-92.053 93.541-92.053h33.895c51.085 0 92.737 41.156 93.541 92.053h-153.997c-.828 0-1.5.672-1.5 1.5s.672 1.5 1.5 1.5h155.508c.828 0 1.5-.672 1.5-1.5 0-53.239-43.314-96.553-96.553-96.553z" fill="#3a312a"/></g></g><g><g><path d="m214.956 140.712h-174.331c-13.6 0-24.625 11.025-24.625 24.626 0 13.6 11.025 24.625 24.625 24.625h174.331c13.6 0 24.625-11.025 24.625-24.625s-11.025-24.626-24.625-24.626z" fill="#d7e057"/></g></g><g><g><path d="m214.956 139.213h-130.464c-.828 0-1.5.672-1.5 1.5s.672 1.5 1.5 1.5h130.464c12.751 0 23.125 10.374 23.125 23.125s-10.374 23.125-23.125 23.125h-174.331c-12.751 0-23.125-10.374-23.125-23.125s10.374-23.125 23.125-23.125h29.55c.828 0 1.5-.672 1.5-1.5s-.672-1.5-1.5-1.5h-29.55c-14.405 0-26.125 11.72-26.125 26.125s11.72 26.125 26.125 26.125h174.331c14.405 0 26.125-11.72 26.125-26.125s-11.72-26.125-26.125-26.125z" fill="#3a312a"/></g></g><g><g><path d="m214.956 189.963h-174.331c-13.6 0-24.625 11.025-24.625 24.625s11.025 24.625 24.625 24.625h174.331c13.6 0 24.625-11.025 24.625-24.625s-11.025-24.625-24.625-24.625z" fill="#f8e4c8"/></g></g><g><g><path d="m214.956 188.463h-174.331c-14.405 0-26.125 11.72-26.125 26.125 0 14.406 11.72 26.126 26.125 26.126h61.878c.828 0 1.5-.672 1.5-1.5s-.672-1.5-1.5-1.5h-61.878c-12.751 0-23.125-10.374-23.125-23.126 0-12.751 10.374-23.125 23.125-23.125h174.331c12.751 0 23.125 10.374 23.125 23.125 0 12.752-10.374 23.126-23.125 23.126h-98.126c-.828 0-1.5.672-1.5 1.5s.672 1.5 1.5 1.5h98.126c14.405 0 26.125-11.72 26.125-26.126 0-14.405-11.72-26.125-26.125-26.125z" fill="#3a312a"/></g></g><g><g><path d="m149.134 58.196h-87.174c-.828 0-1.5.672-1.5 1.5s.672 1.5 1.5 1.5h87.174c.828 0 1.5-.672 1.5-1.5s-.672-1.5-1.5-1.5z" fill="#3a312a"/></g></g><g><g><path d="m82.645 78.881h-20.685c-.828 0-1.5.672-1.5 1.5s.672 1.5 1.5 1.5h20.685c.828 0 1.5-.672 1.5-1.5s-.671-1.5-1.5-1.5z" fill="#3a312a"/></g></g><g><g><path d="m237.784 121.729h-20.686c-.828 0-1.5.672-1.5 1.5s.672 1.5 1.5 1.5h20.686c.828 0 1.5-.672 1.5-1.5s-.672-1.5-1.5-1.5z" fill="#3a312a"/></g></g><g><g><path d="m230.396 99.566h-62.056c-.828 0-1.5.672-1.5 1.5s.672 1.5 1.5 1.5h62.056c.828 0 1.5-.672 1.5-1.5s-.671-1.5-1.5-1.5z" fill="#3a312a"/></g></g><g><g><path d="m172.773 78.881h-57.623c-.828 0-1.5.672-1.5 1.5s.672 1.5 1.5 1.5h57.623c.828 0 1.5-.672 1.5-1.5s-.671-1.5-1.5-1.5z" fill="#3a312a"/></g></g><g><g><path d="m109.979 106.215h-20.685c-.828 0-1.5.672-1.5 1.5s.672 1.5 1.5 1.5h20.686c.828 0 1.5-.672 1.5-1.5-.001-.828-.672-1.5-1.501-1.5z" fill="#3a312a"/></g></g><g><g><path d="m141.746 127.639h-13.298c-.828 0-1.5.672-1.5 1.5s.672 1.5 1.5 1.5h13.298c.828 0 1.5-.672 1.5-1.5s-.672-1.5-1.5-1.5z" fill="#3a312a"/></g></g><g><g><path d="m180.161 114.342h-42.848c-.828 0-1.5.672-1.5 1.5s.672 1.5 1.5 1.5h42.848c.828 0 1.5-.672 1.5-1.5s-.672-1.5-1.5-1.5z" fill="#3a312a"/></g></g><g><g><path d="m202.323 64.106h-28.072c-.828 0-1.5.672-1.5 1.5s.672 1.5 1.5 1.5h28.072c.828 0 1.5-.672 1.5-1.5s-.672-1.5-1.5-1.5z" fill="#3a312a"/></g></g><g><g><path d="m113.673 92.179h-13.297c-.828 0-1.5.672-1.5 1.5s.672 1.5 1.5 1.5h13.297c.828 0 1.5-.672 1.5-1.5s-.672-1.5-1.5-1.5z" fill="#3a312a"/></g></g><g><g><path d="m208.233 86.269h-13.298c-.828 0-1.5.672-1.5 1.5s.672 1.5 1.5 1.5h13.298c.828 0 1.5-.672 1.5-1.5 0-.829-.672-1.5-1.5-1.5z" fill="#3a312a"/></g></g><g><g><path d="m62.699 98.827h-36.199c-.828 0-1.5.672-1.5 1.5s.672 1.5 1.5 1.5h36.199c.828 0 1.5-.672 1.5-1.5s-.672-1.5-1.5-1.5z" fill="#3a312a"/></g></g><g><g><path d="m103.331 119.513h-84.219c-.828 0-1.5.672-1.5 1.5s.672 1.5 1.5 1.5h84.219c.828 0 1.5-.672 1.5-1.5s-.672-1.5-1.5-1.5z" fill="#3a312a"/></g></g><g><g><path d="m107.024 28.669c-5.304 0-9.604 4.3-9.604 9.604s4.3 9.604 9.604 9.604 9.604-4.3 9.604-9.604c0-5.305-4.3-9.604-9.604-9.604z" fill="#d7e057"/></g></g><g><g><path d="m107.024 27.168c-6.122 0-11.104 4.981-11.104 11.104 0 6.122 4.981 11.104 11.104 11.104 6.122 0 11.104-4.981 11.104-11.104s-4.982-11.104-11.104-11.104zm0 19.208c-4.469 0-8.104-3.635-8.104-8.104s3.635-8.104 8.104-8.104 8.104 3.636 8.104 8.104c0 4.469-3.635 8.104-8.104 8.104z" fill="#3a312a"/></g></g><g><g><path d="m163.17 31.624c-5.304 0-9.604 4.3-9.604 9.604s4.3 9.604 9.604 9.604 9.604-4.3 9.604-9.604c-.001-5.305-4.3-9.604-9.604-9.604z" fill="#d7e057"/></g></g><g><g><path d="m163.17 30.124c-6.123 0-11.105 4.981-11.105 11.104 0 6.122 4.982 11.104 11.105 11.104 6.122 0 11.104-4.981 11.104-11.104-.001-6.123-4.982-11.104-11.104-11.104zm0 19.207c-4.469 0-8.105-3.635-8.105-8.104s3.636-8.104 8.105-8.104 8.104 3.635 8.104 8.104c-.001 4.469-3.635 8.104-8.104 8.104z" fill="#3a312a"/></g></g><g><g><path d="m130.665 22.758c-5.304 0-9.604 4.3-9.604 9.604s4.3 9.604 9.604 9.604 9.604-4.3 9.604-9.604c-.001-5.304-4.3-9.604-9.604-9.604z" fill="#d7e057"/></g></g><g><g><path d="m130.664 21.259c-6.122 0-11.104 4.981-11.104 11.104s4.981 11.104 11.104 11.104 11.105-4.981 11.105-11.104-4.982-11.104-11.105-11.104zm0 19.207c-4.469 0-8.104-3.635-8.104-8.104s3.635-8.104 8.104-8.104 8.105 3.635 8.105 8.104-3.636 8.104-8.105 8.104z" fill="#3a312a"/></g></g><g><g><path d="m126.232 34.579c-5.304 0-9.604 4.3-9.604 9.604s4.3 9.604 9.604 9.604 9.604-4.3 9.604-9.604c0-5.305-4.3-9.604-9.604-9.604z" fill="#d7e057"/></g></g><g><g><path d="m126.231 33.078c-6.122 0-11.104 4.982-11.104 11.104s4.981 11.104 11.104 11.104 11.105-4.981 11.105-11.104c0-6.122-4.981-11.104-11.105-11.104zm0 19.208c-4.469 0-8.104-3.635-8.104-8.104s3.635-8.104 8.104-8.104 8.105 3.636 8.105 8.104c0 4.469-3.636 8.104-8.105 8.104z" fill="#3a312a"/></g></g><g><g><path d="m146.917 33.101c-5.304 0-9.604 4.3-9.604 9.604s4.3 9.604 9.604 9.604 9.604-4.3 9.604-9.604-4.3-9.604-9.604-9.604z" fill="#d7e057"/></g></g><g><g><path d="m146.917 31.601c-6.122 0-11.104 4.981-11.104 11.105 0 6.122 4.981 11.104 11.104 11.104 6.122 0 11.103-4.982 11.103-11.104 0-6.124-4.981-11.105-11.103-11.105zm0 19.208c-4.469 0-8.104-3.635-8.104-8.104s3.635-8.104 8.104-8.104 8.103 3.636 8.103 8.104c0 4.469-3.634 8.104-8.103 8.104z" fill="#3a312a"/></g></g><g><g><path d="m169.4 50.411c-1.77 1.21-3.92 1.92-6.23 1.92-2.87 0-5.47-1.1-7.45-2.89-.29.38-.61.74-.95 1.08 10.45 2.87 20.17 7.51 28.82 13.59h15c-8.75-6.15-18.6-10.83-29.19-13.7zm33.19 16.67c-.09.01-.18.03-.27.03h-14.69c6.98 5.49 13.17 11.94 18.35 19.16h2.25c.83 0 1.5.67 1.5 1.5s-.67 1.5-1.5 1.5h-.19c2.18 3.289 4.15 6.729 5.91 10.3h15c-6.25-12.72-15.31-23.82-26.36-32.49zm34.54 57.65h-15c.82 4.72 1.28 9.55 1.36 14.48h15c-.08-4.93-.54-9.76-1.36-14.48zm-6.77-22.16h-15c2.72 6.07 4.82 12.48 6.2 19.16h15c-1.38-6.68-3.48-13.09-6.2-19.16z" fill="#decaad"/></g></g><g><g><path d="m214.96 142.211h-15c12.75 0 23.12 10.38 23.12 23.13s-10.37 23.12-23.12 23.12h15c12.75 0 23.12-10.37 23.12-23.12s-10.37-23.13-23.12-23.13z" fill="#b9c239"/></g></g><g><g><path d="m214.96 191.461h-15c12.75 0 23.12 10.38 23.12 23.13s-10.37 23.12-23.12 23.12h15c12.75 0 23.12-10.37 23.12-23.12s-10.37-23.13-23.12-23.13z" fill="#decaad"/></g></g></g></svg>