<svg id="Layer_1" enable-background="new 0 0 256 256" height="512" viewBox="0 0 256 256" width="512" xmlns="http://www.w3.org/2000/svg"><g><g><g><path d="m234.948 59.023-11.828-11.828-10.309-10.31-8.468-8.468c-5.907-5.907-15.485-5.907-21.393 0l-154.607 154.608c-5.907 5.907-5.907 15.485 0 21.392l30.605 30.605c5.907 5.907 15.485 5.907 21.393 0l154.607-154.606c5.907-5.908 5.907-15.486 0-21.393z" fill="#87796f"/></g></g><g><g><path d="m236.009 57.963-11.828-11.828c-.586-.586-1.535-.586-2.121 0s-.586 1.535 0 2.121l11.828 11.828c2.573 2.574 3.991 5.996 3.991 9.636s-1.418 7.062-3.991 9.636l-154.608 154.607c-5.314 5.313-13.958 5.313-19.271 0l-30.605-30.605c-2.574-2.574-3.991-5.996-3.991-9.636s1.418-7.061 3.991-9.636l154.607-154.607c2.574-2.573 5.996-3.991 9.636-3.991s7.062 1.418 9.636 3.991l8.468 8.468c.586.586 1.535.586 2.121 0s.586-1.535 0-2.121l-8.468-8.468c-6.482-6.482-17.031-6.482-23.514 0l-154.608 154.607c-3.141 3.141-4.87 7.316-4.87 11.757s1.73 8.616 4.87 11.757l30.605 30.605c3.241 3.241 7.499 4.862 11.757 4.862 4.257 0 8.516-1.621 11.757-4.862l154.608-154.607c6.482-6.483 6.482-17.032 0-23.514z" fill="#3a312a"/></g></g><g><g><circle cx="130.645" cy="131.721" fill="#87796f" r="107.75"/></g></g><g><g><path d="m130.645 22.471c-60.241 0-109.25 49.01-109.25 109.25s49.009 109.25 109.25 109.25c60.24 0 109.25-49.01 109.25-109.25s-49.009-109.25-109.25-109.25zm0 215.5c-58.586 0-106.25-47.663-106.25-106.25s47.664-106.25 106.25-106.25c58.587 0 106.25 47.663 106.25 106.25s-47.663 106.25-106.25 106.25z" fill="#3a312a"/></g></g><g><g><path d="m131.645 40.399c-48.26 0-87.772 37.437-91.091 84.853l.133 14.596c4.113 46.628 43.262 83.195 90.958 83.195 50.436 0 91.322-40.886 91.322-91.322s-40.886-91.322-91.322-91.322z" fill="#87796f"/></g></g><g><g><path d="m131.645 38.898c-48.533 0-89.202 37.885-92.587 86.249-.058.826.565 1.543 1.392 1.601.827.063 1.543-.565 1.601-1.392 3.275-46.799 42.63-83.458 89.594-83.458 49.527 0 89.821 40.294 89.821 89.822 0 49.527-40.294 89.821-89.821 89.821-22.598 0-44.192-8.422-60.807-23.715-16.515-15.202-26.692-35.84-28.657-58.111-.073-.826-.805-1.44-1.626-1.362-.825.072-1.435.801-1.362 1.626 2.03 23.018 12.547 44.346 29.614 60.055 17.17 15.804 39.486 24.508 62.838 24.508 51.182 0 92.821-41.64 92.821-92.821.001-51.183-41.639-92.823-92.821-92.823z" fill="#3a312a"/></g></g><g><g><path d="m47.532 26.206c-.974 11.564-13.024 13.39-13.024 13.39 10.347.487 12.925 14.059 12.925 14.059.221-9.677 13.321-14.202 13.321-14.202-9.813-.587-13.222-13.247-13.222-13.247z" fill="#d7e057"/></g></g><g><g><path d="m60.844 37.956c-8.605-.516-11.832-12.025-11.864-12.141-.191-.703-.865-1.174-1.583-1.102-.725.066-1.298.642-1.359 1.367-.86 10.216-11.313 11.964-11.755 12.032-.763.116-1.313.791-1.273 1.561.04.771.657 1.385 1.427 1.421 9.028.426 11.499 12.719 11.523 12.844.137.711.759 1.217 1.472 1.217.042 0 .085-.002.127-.005.764-.064 1.357-.693 1.375-1.46.195-8.509 12.192-12.777 12.313-12.819.675-.234 1.092-.914.994-1.622-.099-.709-.683-1.25-1.397-1.293zm-13.566 10.346c-1.356-3.131-3.709-6.908-7.587-8.877 2.931-1.404 6.409-3.913 8.202-8.273 1.551 3.071 4.2 6.881 8.334 8.723-3.007 1.64-6.922 4.405-8.949 8.427z" fill="#3a312a"/></g></g><g><g><path d="m25.834 43.187c-.689 8.179-9.213 9.471-9.213 9.471 7.318.344 9.142 9.944 9.142 9.944.156-6.844 9.422-10.045 9.422-10.045-6.94-.416-9.351-9.37-9.351-9.37z" fill="#d7e057"/></g></g><g><g><path d="m35.275 51.06c-5.766-.346-7.972-8.187-7.994-8.266-.19-.702-.851-1.16-1.582-1.101-.726.065-1.299.643-1.36 1.368-.579 6.871-7.646 8.066-7.942 8.113-.763.116-1.313.791-1.274 1.561.04.771.657 1.385 1.427 1.421 6.035.284 7.724 8.645 7.739 8.727.135.713.759 1.22 1.472 1.22.042 0 .083-.002.125-.005.765-.063 1.358-.693 1.376-1.461.13-5.708 8.331-8.633 8.412-8.661.676-.234 1.094-.913.996-1.622-.096-.71-.68-1.251-1.395-1.294zm-9.584 6.794c-.924-1.886-2.34-3.947-4.447-5.28 1.855-1.041 3.697-2.63 4.871-4.917 1.057 1.874 2.654 3.955 4.941 5.225-1.85 1.1-3.989 2.74-5.365 4.972z" fill="#3a312a"/></g></g><g><g><path d="m25.834 16.529c-.689 8.18-9.213 9.471-9.213 9.471 7.318.344 9.142 9.944 9.142 9.944.156-6.844 9.422-10.045 9.422-10.045-6.94-.416-9.351-9.37-9.351-9.37z" fill="#d7e057"/></g></g><g><g><path d="m35.275 24.402c-5.766-.346-7.972-8.187-7.994-8.266-.19-.701-.851-1.169-1.582-1.101-.726.065-1.299.642-1.36 1.368-.579 6.871-7.646 8.066-7.942 8.113-.763.116-1.313.791-1.274 1.561.04.771.657 1.385 1.427 1.421 6.035.284 7.724 8.645 7.739 8.727.135.713.759 1.22 1.473 1.22.041 0 .083-.002.125-.005.765-.063 1.358-.693 1.376-1.461.13-5.709 8.331-8.633 8.412-8.661.676-.233 1.094-.913.996-1.622-.097-.71-.681-1.251-1.396-1.294zm-9.584 6.794c-.924-1.885-2.34-3.947-4.447-5.279 1.855-1.041 3.697-2.63 4.871-4.917 1.057 1.874 2.654 3.955 4.941 5.225-1.85 1.1-3.989 2.739-5.365 4.971z" fill="#3a312a"/></g></g><g><g><ellipse cx="131.645" cy="131.721" fill="#ef6d7a" rx="70.126" ry="70.126" transform="matrix(.997 -.083 .083 .997 -10.532 11.445)"/></g></g><g><g><path d="m131.645 60.095c-39.495 0-71.626 32.131-71.626 71.626s32.131 71.626 71.626 71.626 71.626-32.131 71.626-71.626-32.13-71.626-71.626-71.626zm0 140.252c-37.84 0-68.626-30.785-68.626-68.626s30.786-68.626 68.626-68.626c37.841 0 68.626 30.785 68.626 68.626s-30.785 68.626-68.626 68.626z" fill="#3a312a"/></g></g><g><g><circle cx="134.371" cy="123.274" fill="#d7e057" r="9"/></g></g><g><g><path d="m134.371 112.773c-5.79 0-10.499 4.71-10.499 10.5s4.71 10.5 10.499 10.5c5.79 0 10.5-4.71 10.5-10.5s-4.71-10.5-10.5-10.5zm0 18c-4.135 0-7.499-3.364-7.499-7.5s3.365-7.5 7.499-7.5c4.136 0 7.5 3.364 7.5 7.5s-3.364 7.5-7.5 7.5z" fill="#3a312a"/></g></g><g><g><circle cx="87.371" cy="132.274" fill="#d7e057" r="9"/></g></g><g><g><path d="m87.372 121.773c-5.79 0-10.5 4.71-10.5 10.5s4.71 10.5 10.5 10.5 10.5-4.71 10.5-10.5-4.711-10.5-10.5-10.5zm0 18c-4.136 0-7.5-3.364-7.5-7.5s3.364-7.5 7.5-7.5 7.5 3.364 7.5 7.5-3.365 7.5-7.5 7.5z" fill="#3a312a"/></g></g><g><g><circle cx="161.371" cy="173.274" fill="#d7e057" r="9"/></g></g><g><g><path d="m161.371 162.773c-5.79 0-10.5 4.71-10.5 10.5s4.71 10.5 10.5 10.5 10.5-4.71 10.5-10.5-4.71-10.5-10.5-10.5zm0 18c-4.136 0-7.5-3.364-7.5-7.5s3.364-7.5 7.5-7.5 7.5 3.364 7.5 7.5-3.364 7.5-7.5 7.5z" fill="#3a312a"/></g></g><g><g><path d="m182.32 134.948-6.794-13.752c-1.549-3.134-5.345-4.42-8.48-2.871l-13.751 6.795c-3.135 1.549-4.42 5.346-2.872 8.48l6.795 13.752c1.549 3.134 5.345 4.42 8.48 2.872l13.751-6.794c3.134-1.551 4.42-5.347 2.871-8.482z" fill="#87796f"/></g></g><g><g><path d="m183.665 134.284-6.795-13.752c-.927-1.876-2.528-3.278-4.509-3.948-1.98-.671-4.105-.53-5.98.396l-13.752 6.794c-1.876.927-3.278 2.528-3.948 4.509-.671 1.981-.53 4.105.396 5.98l6.794 13.751c1.363 2.76 4.145 4.362 7.033 4.362 1.164 0 2.345-.26 3.456-.81l13.751-6.795c1.876-.927 3.278-2.527 3.949-4.509.672-1.98.532-4.104-.395-5.978zm-2.445 5.017c-.414 1.223-1.279 2.211-2.436 2.782l-13.751 6.795c-1.158.571-2.47.659-3.689.244-1.223-.414-2.211-1.279-2.782-2.436l-6.794-13.751c-.571-1.157-.658-2.468-.245-3.689.414-1.223 1.279-2.211 2.436-2.782l13.752-6.794h.001c.675-.334 1.402-.502 2.135-.502.521 0 1.045.085 1.554.257 1.222.414 2.21 1.279 2.781 2.436l6.795 13.753c.57 1.156.657 2.465.243 3.687z" fill="#3a312a"/></g></g><g><g><path d="m128.694 87.797-10.846-10.846c-2.472-2.472-6.481-2.472-8.953 0l-10.846 10.846c-2.472 2.472-2.472 6.481 0 8.953l10.846 10.846c2.472 2.472 6.481 2.472 8.953 0l10.846-10.846c2.472-2.472 2.472-6.48 0-8.953z" fill="#87796f"/></g></g><g><g><path d="m129.755 86.736-10.847-10.846c-3.052-3.052-8.02-3.054-11.074 0l-10.846 10.846c-1.479 1.479-2.293 3.445-2.293 5.537s.814 4.059 2.293 5.537l10.846 10.847c1.526 1.526 3.531 2.289 5.537 2.289 2.005 0 4.011-.763 5.538-2.29l10.846-10.846c1.479-1.479 2.293-3.445 2.293-5.537s-.815-4.057-2.293-5.537zm-2.122 8.953-10.846 10.846c-1.883 1.885-4.948 1.886-6.832.001l-10.846-10.847c-.912-.912-1.415-2.125-1.415-3.416 0-1.29.502-2.504 1.415-3.416l10.846-10.846c.942-.941 2.179-1.412 3.416-1.412s2.474.471 3.416 1.412l10.846 10.846c.912.912 1.415 2.126 1.415 3.416 0 1.291-.503 2.504-1.415 3.416z" fill="#3a312a"/></g></g><g><g><path d="m140.694 166.797-10.846-10.846c-2.472-2.472-6.481-2.472-8.953 0l-10.846 10.846c-2.472 2.472-2.472 6.481 0 8.953l10.846 10.846c2.472 2.472 6.481 2.472 8.953 0l10.846-10.846c2.472-2.472 2.472-6.48 0-8.953z" fill="#87796f"/></g></g><g><g><path d="m141.754 165.736-10.846-10.846c-3.052-3.053-8.022-3.052-11.074 0l-10.846 10.846c-1.479 1.48-2.293 3.445-2.293 5.537s.814 4.059 2.293 5.537l10.846 10.846c1.526 1.527 3.532 2.291 5.538 2.29 2.004 0 4.01-.763 5.536-2.289l10.847-10.847c1.479-1.479 2.293-3.445 2.293-5.537 0-2.091-.815-4.057-2.294-5.537zm-2.12 8.953-10.847 10.847c-1.884 1.884-4.948 1.881-6.831-.001l-10.846-10.846c-.912-.912-1.415-2.125-1.415-3.416 0-1.29.502-2.504 1.415-3.416l10.846-10.846c.942-.941 2.179-1.412 3.416-1.412s2.474.471 3.416 1.412l10.846 10.846c1.883 1.884 1.883 4.949 0 6.832z" fill="#3a312a"/></g></g><g><g><path d="m160.432 94.213c-.586-.586-1.535-.586-2.121 0l-5 5c-.586.586-.586 1.535 0 2.121.293.293.677.439 1.061.439s.768-.146 1.061-.439l5-5c.585-.586.585-1.535-.001-2.121z" fill="#3a312a"/></g></g><g><g><path d="m90.932 106.713-5-5c-.586-.586-1.535-.586-2.121 0s-.586 1.535 0 2.121l5 5c.293.293.677.439 1.061.439s.768-.146 1.061-.439c.585-.586.585-1.535-.001-2.121z" fill="#3a312a"/></g></g><g><g><path d="m103.907 177.773h-7.071c-.829 0-1.5.672-1.5 1.5s.671 1.5 1.5 1.5h7.071c.829 0 1.5-.672 1.5-1.5s-.672-1.5-1.5-1.5z" fill="#3a312a"/></g></g><g><g><path d="m85.907 156.773h-7.071c-.829 0-1.5.672-1.5 1.5s.671 1.5 1.5 1.5h7.071c.829 0 1.5-.672 1.5-1.5s-.672-1.5-1.5-1.5z" fill="#3a312a"/></g></g><g><g><path d="m183.932 160.713-5-5c-.586-.586-1.535-.586-2.121 0s-.586 1.535 0 2.121l5 5c.293.293.677.439 1.061.439s.768-.146 1.061-.439c.585-.586.585-1.535-.001-2.121z" fill="#3a312a"/></g></g><g><g><path d="m109.372 138.238c-.829 0-1.5.672-1.5 1.5v7.071c0 .828.671 1.5 1.5 1.5s1.5-.672 1.5-1.5v-7.071c0-.828-.672-1.5-1.5-1.5z" fill="#3a312a"/></g></g><g><g><path d="m188.907 110.773h-7.071c-.828 0-1.5.672-1.5 1.5s.672 1.5 1.5 1.5h7.071c.828 0 1.5-.672 1.5-1.5s-.672-1.5-1.5-1.5z" fill="#3a312a"/></g></g><g><g><path d="m147.932 79.713-5-5c-.586-.586-1.535-.586-2.121 0s-.586 1.535 0 2.121l5 5c.293.293.677.439 1.061.439s.768-.146 1.061-.439c.585-.586.585-1.535-.001-2.121z" fill="#3a312a"/></g></g><g><g><path d="m131.641 41.894c-2.53 0-5.03.1-7.5.31 46.04 3.83 82.33 42.52 82.33 89.52 0 46.99-36.29 85.69-82.33 89.51 2.47.21 4.97.31 7.5.31 49.53 0 89.83-40.3 89.83-89.82 0-49.53-40.3-89.83-89.83-89.83z" fill="#695b51"/></g></g></g></svg>