<svg id="Layer_1" enable-background="new 0 0 256 256" height="512" viewBox="0 0 256 256" width="512" xmlns="http://www.w3.org/2000/svg"><g><g><g><path d="m47.661 26.425c-.974 11.564-13.024 13.39-13.024 13.39 10.347.487 12.925 14.059 12.925 14.059.221-9.677 13.321-14.202 13.321-14.202-9.814-.588-13.222-13.247-13.222-13.247z" fill="#d7e057"/></g></g><g><g><path d="m60.973 38.174c-8.605-.515-11.832-12.024-11.864-12.141-.191-.703-.862-1.164-1.584-1.102-.725.066-1.298.642-1.359 1.367-.86 10.215-11.313 11.964-11.754 12.033-.763.115-1.313.79-1.273 1.561.04.77.657 1.384 1.428 1.421 9.028.425 11.499 12.718 11.523 12.842.137.711.759 1.217 1.472 1.217.041 0 .084-.001.126-.005.764-.064 1.357-.693 1.374-1.459.194-8.509 12.191-12.777 12.313-12.819.675-.235 1.092-.914.994-1.623-.099-.708-.683-1.249-1.396-1.292zm-13.566 10.346c-1.357-3.13-3.709-6.907-7.587-8.876 2.931-1.405 6.409-3.913 8.202-8.273 1.551 3.071 4.2 6.88 8.334 8.723-3.008 1.639-6.923 4.404-8.949 8.426z" fill="#3a312a"/></g></g><g><g><path d="m25.963 43.405c-.689 8.179-9.213 9.471-9.213 9.471 7.318.344 9.142 9.944 9.142 9.944.156-6.844 9.422-10.045 9.422-10.045-6.941-.415-9.351-9.37-9.351-9.37z" fill="#d7e057"/></g></g><g><g><path d="m35.404 51.277c-5.767-.345-7.973-8.186-7.994-8.265-.191-.702-.854-1.164-1.582-1.102-.726.066-1.299.642-1.36 1.368-.579 6.871-7.646 8.067-7.942 8.114-.763.115-1.313.79-1.273 1.561.04.77.657 1.384 1.428 1.421 6.035.284 7.723 8.644 7.739 8.726.135.713.759 1.22 1.472 1.22.042 0 .083-.001.125-.005.765-.063 1.358-.694 1.376-1.461.13-5.709 8.331-8.634 8.413-8.662.676-.234 1.094-.913.996-1.622-.099-.708-.683-1.25-1.398-1.293zm-9.585 6.795c-.924-1.885-2.34-3.947-4.447-5.28 1.856-1.041 3.697-2.63 4.871-4.916 1.057 1.874 2.655 3.954 4.941 5.224-1.85 1.101-3.989 2.74-5.365 4.972z" fill="#3a312a"/></g></g><g><g><path d="m25.963 16.748c-.689 8.179-9.213 9.471-9.213 9.471 7.318.344 9.142 9.944 9.142 9.944.156-6.845 9.422-10.045 9.422-10.045-6.941-.416-9.351-9.37-9.351-9.37z" fill="#d7e057"/></g></g><g><g><path d="m35.404 24.62c-5.744-.344-7.956-8.125-7.994-8.263-.19-.703-.854-1.166-1.583-1.103-.726.065-1.299.642-1.36 1.368-.579 6.871-7.646 8.067-7.942 8.114-.763.115-1.313.79-1.273 1.561.04.77.657 1.384 1.428 1.421 6.035.284 7.723 8.644 7.739 8.725.135.713.759 1.22 1.472 1.22.042 0 .083-.002.125-.005.765-.063 1.358-.694 1.376-1.461.13-5.709 8.331-8.633 8.413-8.661.676-.234 1.094-.913.996-1.622s-.682-1.251-1.397-1.294zm-9.585 6.795c-.924-1.886-2.34-3.947-4.447-5.28 1.855-1.041 3.697-2.63 4.87-4.917 1.057 1.874 2.654 3.955 4.941 5.224-1.849 1.102-3.988 2.741-5.364 4.973z" fill="#3a312a"/></g></g><g><g><path d="m112.125 46.377h18.833v95.282h-18.833z" fill="#d7e057"/></g></g><g><g><path d="m130.958 44.877h-18.833c-.829 0-1.5.671-1.5 1.5v95.281c0 .829.671 1.5 1.5 1.5h18.833c.828 0 1.5-.671 1.5-1.5v-95.281c0-.828-.672-1.5-1.5-1.5zm-1.5 95.282h-15.833v-92.282h15.833z" fill="#3a312a"/></g></g><g><g><path d="m130.958 15.992h18.833v125.667h-18.833z" fill="#d7e057"/></g></g><g><g><path d="m149.792 14.492h-18.834c-.828 0-1.5.671-1.5 1.5v125.667c0 .829.672 1.5 1.5 1.5h18.834c.828 0 1.5-.671 1.5-1.5v-125.667c0-.828-.672-1.5-1.5-1.5zm-1.5 125.667h-15.834v-122.667h15.834z" fill="#3a312a"/></g></g><g><g><path d="m149.792 31.747h18.833v109.911h-18.833z" fill="#d7e057"/></g></g><g><g><path d="m168.625 30.247h-18.833c-.828 0-1.5.671-1.5 1.5v109.912c0 .829.672 1.5 1.5 1.5h18.833c.828 0 1.5-.671 1.5-1.5v-109.912c0-.828-.672-1.5-1.5-1.5zm-1.5 109.912h-15.833v-106.912h15.833z" fill="#3a312a"/></g></g><g><g><path d="m168.625 46.377h18.833v95.282h-18.833z" fill="#d7e057"/></g></g><g><g><path d="m187.458 44.877h-18.833c-.828 0-1.5.671-1.5 1.5v95.281c0 .829.672 1.5 1.5 1.5h18.833c.828 0 1.5-.671 1.5-1.5v-95.281c0-.828-.672-1.5-1.5-1.5zm-1.5 95.282h-15.833v-92.282h15.833z" fill="#3a312a"/></g></g><g><g><path d="m187.458 21.619h18.833v120.04h-18.833z" fill="#d7e057"/></g></g><g><g><path d="m206.292 20.119h-18.834c-.828 0-1.5.671-1.5 1.5v120.04c0 .829.672 1.5 1.5 1.5h18.834c.828 0 1.5-.671 1.5-1.5v-120.04c0-.828-.672-1.5-1.5-1.5zm-1.5 120.04h-15.834v-117.04h15.834z" fill="#3a312a"/></g></g><g><g><path d="m206.292 46.377h18.833v95.282h-18.833z" fill="#d7e057"/></g></g><g><g><path d="m225.125 82.456c.828 0 1.5-.671 1.5-1.5v-34.579c0-.829-.672-1.5-1.5-1.5h-18.833c-.828 0-1.5.671-1.5 1.5v95.281c0 .829.672 1.5 1.5 1.5h18.833c.828 0 1.5-.671 1.5-1.5v-45.88c0-.829-.672-1.5-1.5-1.5s-1.5.671-1.5 1.5v44.38h-15.833v-92.281h15.833v33.078c0 .829.672 1.501 1.5 1.501z" fill="#3a312a"/></g></g><g><g><path d="m41.48 113.182c0-6.46.61-12.7 1.75-18.62-7.39-2.67-12.36-4.41-12.36 8.68 0 13.43 5.21 25.12 12.92 31.26-1.5-6.71-2.31-13.88-2.31-21.32z" fill="#fae6ca"/></g></g><g><g><path d="m45.254 134.175c-1.509-6.75-2.274-13.813-2.274-20.993 0-6.23.58-12.4 1.723-18.336.139-.725-.269-1.444-.963-1.694-4.417-1.596-8.231-2.975-11.058-.989-2.29 1.608-3.311 5.025-3.311 11.08 0 13.381 5.168 25.809 13.485 32.434.272.217.603.327.935.327.275 0 .551-.076.795-.229.539-.339.807-.979.668-1.6zm-3.853-4.038c-5.649-6.467-9.031-16.337-9.031-26.895 0-4.775.685-7.677 2.035-8.625.437-.307.999-.437 1.662-.437 1.43 0 3.329.606 5.456 1.362-1.024 5.732-1.542 11.66-1.542 17.64-.001 5.754.476 11.437 1.42 16.955z" fill="#3a312a"/></g></g><g><g><path d="m87.485 45.184c-25.41 0-46 30.44-46 68 0 18.43 4.96 35.15 13.02 47.39 6.38 9.72 14.71 16.62 24.06 19.33 2.89.84 5.87 1.28 8.92 1.28 12.71 0 24.21-7.61 32.54-19.93 8.31-12.3 13.46-29.3 13.46-48.07 0-37.56-20.59-68-46-68z" fill="#ef6d7a"/></g></g><g><g><path d="m87.485 43.684c-26.191 0-47.5 31.178-47.5 69.5 0 18.099 4.712 35.223 13.266 48.213 6.751 10.286 15.361 17.184 24.895 19.947 3.058.889 6.2 1.339 9.338 1.339 12.808 0 24.805-7.312 33.783-20.59 8.845-13.094 13.717-30.463 13.717-48.91.001-38.322-21.307-69.499-47.499-69.499zm31.297 116.73c-8.402 12.427-19.517 19.27-31.297 19.27-2.855 0-5.715-.411-8.503-1.221-8.839-2.562-16.87-9.032-23.225-18.714-8.237-12.509-12.773-29.046-12.773-46.565 0-36.669 19.962-66.5 44.5-66.5s44.5 29.831 44.5 66.5c.001 17.854-4.688 34.627-13.202 47.23z" fill="#3a312a"/></g></g><g><g><path d="m132.215 97.274c.83 5.1 1.27 10.43 1.27 15.91 0 7.64-.85 14.99-2.43 21.84.32.02.65.03.97.03 12.7 0 22.99-14.58 22.99-32.56 0-17.9-10.19-5.35-22.8-5.22z" fill="#fae6ca"/></g></g><g><g><path d="m153.445 92.294c-2.626-1.847-6.171-.572-10.273.904-3.302 1.189-7.044 2.535-10.973 2.576-.438.004-.851.2-1.132.534-.282.335-.403.775-.333 1.207.83 5.1 1.251 10.371 1.251 15.669 0 7.387-.805 14.621-2.393 21.503-.099.43-.004.881.26 1.235.265.353.671.572 1.111.599.35.021.711.033 1.061.033 13.504 0 24.489-15.279 24.489-34.06.002-5.562-.945-8.708-3.068-10.2zm-20.525 41.233c1.371-6.549 2.066-13.383 2.066-20.344 0-4.888-.349-9.757-1.036-14.498 3.79-.344 7.324-1.616 10.238-2.664 3.317-1.193 6.18-2.223 7.533-1.273.818.576 1.794 2.386 1.794 7.745 0 16.695-9.159 30.355-20.595 31.034z" fill="#3a312a"/></g></g><g><g><path d="m87.045 140.724c-12.69 0-24.19 7.58-32.54 19.85 6.38 9.72 14.71 16.62 24.06 19.33 2.89.84 5.87 1.28 8.92 1.28 12.71 0 24.21-7.61 32.54-19.93-8.38-12.68-20.06-20.53-32.98-20.53z" fill="#fae6ca"/></g></g><g><g><path d="m121.276 160.427c-9.036-13.673-21.193-21.203-34.231-21.203-12.784 0-24.781 7.283-33.78 20.506-.341.501-.347 1.16-.014 1.667 6.751 10.286 15.361 17.184 24.895 19.947 3.058.889 6.2 1.339 9.338 1.339 12.808 0 24.805-7.312 33.783-20.589.34-.503.344-1.161.009-1.667zm-33.791 19.257c-2.855 0-5.715-.411-8.503-1.221-8.581-2.487-16.401-8.659-22.664-17.874 8.351-11.853 19.23-18.365 30.726-18.365 11.734 0 22.77 6.745 31.166 19.02-8.331 11.9-19.21 18.44-30.725 18.44z" fill="#3a312a"/></g></g><g><g><path d="m87.478 24.041c-14.169 0-25.656-16.052-25.656-2.819s11.486 23.961 25.656 23.961 25.656-10.728 25.656-23.961-11.487 2.819-25.656 2.819z" fill="#fae6ca"/></g></g><g><g><path d="m112.4 15.011c-2.338-1.407-5.362.196-9.546 2.412-4.304 2.28-9.662 5.119-15.376 5.119s-11.071-2.838-15.376-5.119c-4.184-2.216-7.208-3.82-9.546-2.412-2.003 1.205-2.234 4.122-2.234 6.212 0 14.039 12.182 25.461 27.156 25.461s27.156-11.422 27.156-25.461c0-2.09-.232-5.007-2.234-6.212zm-24.922 28.673c-13.319 0-24.156-10.076-24.156-22.461 0-3.018.651-3.563.781-3.641.115-.069.269-.101.455-.101 1.244 0 3.927 1.421 6.139 2.594 4.598 2.436 10.32 5.468 16.78 5.468s12.183-3.032 16.781-5.468c2.544-1.348 5.709-3.023 6.594-2.493.13.079.781.623.781 3.641.001 12.384-10.836 22.461-24.155 22.461z" fill="#3a312a"/></g></g><g><g><path d="m104.044 158.588c-2.47 0-4.472 2.002-4.472 4.472s2.002 4.472 4.472 4.472 4.472-2.002 4.472-4.472-2.002-4.472-4.472-4.472z" fill="#3a312a"/></g></g><g><g><path d="m90.749 146.419c-3.181 0-5.759 3.449-5.759 7.703 0 4.255 2.578 7.704 5.759 7.704 3.18 0 5.759-3.449 5.759-7.704 0-4.254-2.578-7.703-5.759-7.703z" fill="#f59689"/></g></g><g><g><path d="m87.799 166.799c-.356-.748-1.251-1.065-1.999-.709-5.73 2.73-8.669 7.373-8.735 13.799-.008.828.656 1.507 1.485 1.515h.016c.821 0 1.491-.662 1.499-1.485.053-5.256 2.352-8.894 7.025-11.121.748-.356 1.065-1.252.709-1.999z" fill="#3a312a"/></g></g><g><g><path d="m230.38 121.992h-204.76c-5.898 0-10.257 5.494-8.916 11.237l23.201 99.385c.967 4.143 4.661 7.074 8.916 7.074h158.359c4.255 0 7.949-2.931 8.916-7.074l23.201-99.385c1.34-5.743-3.019-11.237-8.917-11.237z" fill="#87796f"/></g></g><g><g><path d="m238.727 124.525c-2.033-2.563-5.076-4.033-8.348-4.033h-141.564c-.829 0-1.5.671-1.5 1.5s.671 1.5 1.5 1.5h141.565c2.351 0 4.536 1.056 5.997 2.897s1.992 4.21 1.458 6.499l-23.2 99.385c-.814 3.483-3.879 5.916-7.455 5.916h-158.36c-3.577 0-6.642-2.433-7.455-5.915l-23.201-99.385c-.535-2.289-.003-4.658 1.458-6.499s3.647-2.897 5.997-2.897h48.879c.829 0 1.5-.671 1.5-1.5s-.671-1.5-1.5-1.5h-48.878c-3.271 0-6.314 1.47-8.348 4.033-2.033 2.563-2.773 5.86-2.029 9.045l23.201 99.385c1.132 4.848 5.399 8.233 10.377 8.233h158.359c4.977 0 9.244-3.386 10.377-8.233l23.2-99.385c.743-3.186.004-6.483-2.03-9.046z" fill="#3a312a"/></g></g><g><g><circle cx="128" cy="180.992" fill="#ef6d7a" r="32.5"/></g></g><g><g><path d="m128 146.992c-18.748 0-34 15.252-34 34 0 18.747 15.252 34 34 34s34-15.253 34-34-15.252-34-34-34zm0 65c-17.093 0-31-13.907-31-31s13.907-31 31-31c17.094 0 31 13.907 31 31s-13.906 31-31 31z" fill="#3a312a"/></g></g><g><g><path d="m236.38 126.392c-1.46-1.84-3.65-2.9-6-2.9h-15c2.35 0 4.54 1.06 6 2.9s1.99 4.21 1.45 6.5l-23.2 99.38c-.81 3.48-3.87 5.92-7.45 5.92h15c3.58 0 6.64-2.44 7.45-5.92l23.2-99.38c.54-2.29.01-4.66-1.45-6.5z" fill="#695b51"/></g></g></g></svg>