<svg id="Layer_1" enable-background="new 0 0 256 256" height="512" viewBox="0 0 256 256" width="512" xmlns="http://www.w3.org/2000/svg"><g><g><g><path d="m47.536 26.145c-.974 11.564-13.024 13.39-13.024 13.39 10.347.487 12.925 14.059 12.925 14.059.221-9.677 13.321-14.202 13.321-14.202-9.814-.587-13.222-13.247-13.222-13.247z" fill="#d7e057"/></g></g><g><g><path d="m60.848 37.894c-8.604-.514-11.832-12.024-11.863-12.14-.191-.702-.854-1.158-1.584-1.102-.725.066-1.298.642-1.359 1.367-.859 10.215-11.313 11.964-11.754 12.033-.763.115-1.314.79-1.273 1.561.04.77.657 1.384 1.428 1.421 9.027.425 11.498 12.718 11.521 12.842.138.711.76 1.217 1.473 1.217.042 0 .084-.001.126-.005.764-.064 1.357-.693 1.375-1.459.194-8.509 12.191-12.777 12.313-12.819.676-.235 1.092-.915.994-1.623-.1-.709-.683-1.25-1.397-1.293zm-13.567 10.346c-1.356-3.13-3.709-6.907-7.587-8.876 2.931-1.405 6.409-3.913 8.202-8.273 1.551 3.071 4.2 6.88 8.334 8.722-3.006 1.64-6.922 4.406-8.949 8.427z" fill="#3a312a"/></g></g><g><g><path d="m25.838 43.126c-.689 8.179-9.213 9.471-9.213 9.471 7.318.344 9.142 9.944 9.142 9.944.156-6.844 9.422-10.045 9.422-10.045-6.941-.416-9.351-9.37-9.351-9.37z" fill="#d7e057"/></g></g><g><g><path d="m35.279 50.998c-5.767-.345-7.972-8.186-7.993-8.265-.191-.702-.863-1.161-1.582-1.102-.726.065-1.3.642-1.361 1.368-.579 6.871-7.646 8.067-7.942 8.114-.763.115-1.314.79-1.273 1.561.04.77.657 1.384 1.428 1.421 6.035.284 7.724 8.644 7.739 8.726.136.712.759 1.22 1.473 1.22.041 0 .083-.001.125-.005.765-.063 1.358-.694 1.376-1.461.13-5.709 8.331-8.633 8.412-8.661.676-.234 1.093-.913.996-1.622-.099-.709-.684-1.251-1.398-1.294zm-9.585 6.795c-.924-1.886-2.34-3.947-4.447-5.28 1.855-1.041 3.697-2.63 4.871-4.917 1.057 1.874 2.654 3.955 4.941 5.224-1.849 1.101-3.989 2.741-5.365 4.973z" fill="#3a312a"/></g></g><g><g><path d="m25.838 16.468c-.689 8.179-9.213 9.471-9.213 9.471 7.318.344 9.142 9.944 9.142 9.944.156-6.845 9.422-10.045 9.422-10.045-6.941-.416-9.351-9.37-9.351-9.37z" fill="#d7e057"/></g></g><g><g><path d="m35.279 24.34c-5.767-.345-7.972-8.185-7.993-8.265-.191-.702-.863-1.159-1.582-1.102-.726.066-1.3.642-1.361 1.368-.579 6.871-7.646 8.067-7.942 8.114-.763.115-1.314.79-1.273 1.56.04.77.657 1.384 1.428 1.421 6.035.284 7.724 8.644 7.739 8.726.136.712.759 1.22 1.473 1.22.041 0 .083-.001.125-.005.765-.063 1.358-.694 1.376-1.461.13-5.709 8.331-8.634 8.412-8.662.676-.234 1.093-.913.996-1.622-.099-.707-.684-1.249-1.398-1.292zm-9.585 6.796c-.924-1.886-2.34-3.947-4.447-5.28 1.855-1.041 3.697-2.63 4.871-4.917 1.057 1.874 2.654 3.955 4.941 5.224-1.849 1.101-3.989 2.74-5.365 4.973z" fill="#3a312a"/></g></g><g><g><circle cx="131.625" cy="131.463" fill="#87796f" r="107.75"/></g></g><g><g><path d="m131.625 22.213c-60.24 0-109.25 49.009-109.25 109.25s49.01 109.25 109.25 109.25 109.25-49.009 109.25-109.25-49.01-109.25-109.25-109.25zm0 215.5c-58.587 0-106.25-47.664-106.25-106.25s47.663-106.25 106.25-106.25 106.25 47.664 106.25 106.25-47.663 106.25-106.25 106.25z" fill="#3a312a"/></g></g><g><g><ellipse cx="132.06" cy="106.575" fill="#d7e057" rx="25.326" ry="25.325" transform="matrix(.383 -.924 .924 .383 -16.94 187.798)"/></g></g><g><g><path d="m132.06 79.75c-14.791 0-26.825 12.034-26.825 26.825s12.034 26.826 26.825 26.826 26.825-12.034 26.825-26.826-12.034-26.825-26.825-26.825zm0 50.651c-13.138 0-23.825-10.688-23.825-23.826 0-13.137 10.688-23.825 23.825-23.825s23.825 10.688 23.825 23.825c0 13.138-10.688 23.826-23.825 23.826z" fill="#3a312a"/></g></g><g><g><ellipse cx="154.076" cy="119.385" fill="#fce8cb" rx="25.326" ry="25.325" transform="matrix(.316 -.949 .949 .316 -7.928 227.769)"/></g></g><g><g><path d="m177.396 106.128c-7.309-12.859-23.719-17.374-36.577-10.064-12.859 7.31-17.373 23.719-10.063 36.578 3.541 6.229 9.296 10.707 16.204 12.608 2.366.651 4.77.973 7.158.973 4.587 0 9.119-1.188 13.215-3.516 6.23-3.542 10.707-9.296 12.608-16.205s.998-14.145-2.545-20.374zm-.347 19.578c-1.688 6.136-5.665 11.247-11.198 14.393-5.531 3.145-11.955 3.948-18.095 2.259-6.136-1.689-11.247-5.665-14.393-11.198-6.492-11.421-2.482-25.995 8.939-32.487 3.708-2.108 7.746-3.108 11.734-3.108 8.296 0 16.368 4.333 20.753 12.046 3.146 5.533 3.947 11.959 2.26 18.095z" fill="#3a312a"/></g></g><g><g><ellipse cx="153.821" cy="144.856" fill="#ef6d7a" rx="25.326" ry="25.325" transform="matrix(.748 -.663 .663 .748 -57.375 138.495)"/></g></g><g><g><path d="m167.544 121.806c-12.713-7.567-29.207-3.382-36.773 9.328-3.665 6.157-4.714 13.372-2.952 20.318 1.762 6.945 6.123 12.789 12.279 16.455 4.292 2.555 9.013 3.77 13.678 3.77 9.152 0 18.084-4.679 23.096-13.097 7.564-12.711 3.381-29.207-9.328-36.774zm6.749 35.238c-6.721 11.289-21.375 15.004-32.66 8.284-5.469-3.255-9.342-8.445-10.906-14.614-1.565-6.169-.634-12.578 2.622-18.046 4.451-7.478 12.383-11.632 20.512-11.632 4.144 0 8.338 1.079 12.148 3.348 11.288 6.721 15.004 21.371 8.284 32.66z" fill="#3a312a"/></g></g><g><g><path d="m132.06 131.901c-13.984-.281-25.548 10.828-25.829 24.812s10.828 25.548 24.812 25.829 25.548-10.828 25.829-24.812c.28-13.984-10.828-25.548-24.812-25.829z" fill="#d7e057"/></g></g><g><g><path d="m150.896 138.638c-4.964-5.167-11.643-8.093-18.807-8.236-14.757-.298-27.062 11.493-27.359 26.281-.144 7.164 2.511 13.955 7.475 19.123 4.964 5.167 11.644 8.092 18.807 8.236.186.004.369.006.554.006 6.96 0 13.535-2.644 18.569-7.48 5.168-4.964 8.093-11.643 8.236-18.807.144-7.165-2.511-13.956-7.475-19.123zm-2.839 35.765c-4.59 4.409-10.586 6.743-16.984 6.639-6.362-.128-12.295-2.726-16.703-7.315-4.409-4.589-6.767-10.621-6.639-16.984.265-13.134 11.16-23.57 24.299-23.342 6.363.128 12.295 2.726 16.704 7.315 4.408 4.59 6.766 10.621 6.638 16.984s-2.726 12.295-7.315 16.703z" fill="#3a312a"/></g></g><g><g><path d="m132.06 131.901c-9.624 0-17.99-5.362-22.269-13.257-4.087-.009-8.227.978-12.069 3.065-12.296 6.663-16.854 22.033-10.191 34.329 6.672 12.296 22.042 16.863 34.338 10.2 12.295-6.671 16.854-22.041 10.191-34.337z" fill="#fce8cb"/></g></g><g><g><path d="m133.378 131.186c-.262-.484-.768-.785-1.318-.785-8.754 0-16.781-4.779-20.95-12.471-.271-.5-.81-.79-1.371-.785-4.419 0-8.82 1.122-12.731 3.246-6.299 3.413-10.89 9.076-12.929 15.944-2.038 6.867-1.28 14.119 2.134 20.419 4.858 8.953 14.105 14.039 23.64 14.039 4.312 0 8.683-1.041 12.731-3.235 0 0 0-.001.001-.001 12.997-7.053 17.839-23.368 10.793-36.371zm-12.225 33.734c-11.546 6.256-26.039 1.951-32.305-9.596-6.259-11.551-1.958-26.038 9.589-32.296 3.233-1.756 6.841-2.741 10.485-2.869 4.652 7.928 13.027 12.914 22.218 13.227 5.666 11.414 1.302 25.408-9.987 31.534z" fill="#3a312a"/></g></g><g><g><path d="m106.734 106.575c0-4.917 1.397-9.51 3.825-13.396-8.453.009-16.697 4.244-21.492 11.947-7.397 11.868-3.764 27.491 8.104 34.879 11.877 7.397 27.491 3.764 34.888-8.104-13.989 0-25.325-11.336-25.325-25.326z" fill="#ef6d7a"/></g></g><g><g><path d="m133.371 131.173c-.265-.477-.767-.772-1.311-.772-13.138 0-23.825-10.688-23.825-23.826 0-4.477 1.244-8.834 3.598-12.601.289-.463.304-1.046.039-1.523s-.767-.772-1.312-.772c-.001 0-.001 0-.002 0-9.328.01-17.838 4.74-22.764 12.653-3.789 6.08-4.981 13.272-3.359 20.253 1.622 6.98 5.864 12.908 11.944 16.693 4.402 2.741 9.299 4.048 14.139 4.048 8.964 0 17.735-4.482 22.815-12.632.288-.462.303-1.045.038-1.521zm-35.406 7.558c-5.4-3.361-9.168-8.626-10.608-14.826s-.381-12.587 2.984-17.988c3.908-6.278 10.357-10.301 17.595-11.094-1.773 3.639-2.701 7.651-2.701 11.752 0 13.853 10.554 25.287 24.043 26.683-7.41 9.412-20.914 11.95-31.313 5.473z" fill="#3a312a"/></g></g><g><g><ellipse cx="132.06" cy="63.784" fill="#ef6d7a" rx="25.326" ry="25.325" transform="matrix(.383 -.924 .924 .383 22.594 161.382)"/></g></g><g><g><path d="m132.06 36.958c-14.791 0-26.825 12.034-26.825 26.826s12.034 26.825 26.825 26.825 26.825-12.034 26.825-26.825-12.034-26.826-26.825-26.826zm0 50.651c-13.138 0-23.825-10.688-23.825-23.825 0-13.138 10.688-23.826 23.825-23.826s23.825 10.688 23.825 23.826c0 13.137-10.688 23.825-23.825 23.825z" fill="#3a312a"/></g></g><g><g><ellipse cx="157.967" cy="69.12" fill="#d7e057" rx="25.325" ry="25.325" transform="matrix(.089 -.996 .996 .089 75.004 220.276)"/></g></g><g><g><path d="m182.774 58.912c-2.727-6.627-7.871-11.794-14.484-14.551-6.612-2.758-13.905-2.775-20.531-.048-6.627 2.727-11.794 7.871-14.552 14.484-2.757 6.613-2.774 13.905-.048 20.531 2.727 6.626 7.87 11.794 14.484 14.551 3.364 1.403 6.852 2.066 10.288 2.066 10.508-.001 20.505-6.214 24.795-16.502 2.757-6.613 2.775-13.904.048-20.531zm-2.817 19.377c-5.057 12.125-19.034 17.875-31.159 12.822-5.874-2.449-10.442-7.039-12.864-12.924s-2.406-12.361.043-18.235c2.448-5.874 7.038-10.442 12.924-12.864 2.925-1.204 5.996-1.805 9.066-1.805 3.107 0 6.215.616 9.169 1.848 5.874 2.449 10.442 7.039 12.864 12.924 2.422 5.884 2.406 12.36-.043 18.234z" fill="#3a312a"/></g></g><g><g><ellipse cx="179.85" cy="83.978" fill="#fce8cb" rx="25.326" ry="25.325" transform="matrix(.474 -.881 .881 .474 20.693 202.584)"/></g></g><g><g><path d="m198.874 65.066c-5.051-5.082-11.779-7.892-18.944-7.914h-.082c-7.135 0-13.848 2.769-18.91 7.801-10.489 10.429-10.54 27.447-.112 37.937 5.234 5.266 12.13 7.901 19.025 7.901 6.843 0 13.686-2.595 18.911-7.788 5.082-5.052 7.893-11.78 7.913-18.945.021-7.166-2.749-13.911-7.801-18.992zm-2.228 35.809c-9.316 9.262-24.431 9.217-33.694-.1-9.261-9.317-9.216-24.432.101-33.694 4.496-4.47 10.458-6.929 16.795-6.929h.073c6.364.019 12.34 2.515 16.826 7.029 4.486 4.513 6.947 10.503 6.929 16.868-.02 6.364-2.516 12.34-7.03 16.826z" fill="#3a312a"/></g></g><g><g><ellipse cx="194.367" cy="106.089" fill="#ef6d7a" rx="25.326" ry="25.325" transform="matrix(.803 -.596 .596 .803 -24.938 136.723)"/></g></g><g><g><path d="m219.188 95.913c-5.611-13.687-21.307-20.258-34.996-14.645-13.686 5.611-20.256 21.311-14.645 34.997 4.25 10.367 14.287 16.65 24.854 16.65 3.384 0 6.822-.645 10.143-2.006 13.686-5.611 20.255-21.31 14.644-34.996zm-15.783 32.22c-12.158 4.984-26.1-.852-31.083-13.006-4.983-12.156.852-26.1 13.008-31.083 2.917-1.196 5.979-1.794 9.039-1.794 3.117 0 6.233.62 9.195 1.86 5.871 2.456 10.434 7.052 12.848 12.94 4.983 12.156-.851 26.1-13.007 31.083z" fill="#3a312a"/></g></g><g><g><ellipse cx="199.302" cy="132.075" fill="#d7e057" rx="25.326" ry="25.325" transform="matrix(.227 -.974 .974 .227 25.454 296.214)"/></g></g><g><g><path d="m218.351 113.187c-5.045-5.088-11.77-7.907-18.935-7.938h-.118c-7.121 0-13.823 2.759-18.884 7.776-5.088 5.045-7.907 11.77-7.938 18.935-.03 7.166 2.731 13.914 7.776 19.002s11.77 7.907 18.936 7.938h.114c14.738 0 26.762-11.959 26.824-26.711.031-7.166-2.731-13.914-7.775-19.002zm-19.048 42.713h-.102c-6.364-.027-12.337-2.531-16.818-7.05-4.48-4.519-6.934-10.513-6.906-16.877.027-6.364 2.531-12.336 7.05-16.817 4.495-4.457 10.447-6.907 16.772-6.907h.104c6.364.027 12.337 2.531 16.818 7.05 4.48 4.519 6.934 10.513 6.906 16.877-.056 13.104-10.733 23.725-23.824 23.724z" fill="#3a312a"/></g></g><g><g><path d="m203.706 134.618c-12.896-5.416-27.74.648-33.156 13.544-5.415 12.896.648 27.74 13.544 33.156s27.74-.648 33.156-13.544c5.415-12.896-.649-27.74-13.544-33.156z" fill="#fce8cb"/></g></g><g><g><path d="m218.732 147.824c-2.709-6.633-7.84-11.814-14.446-14.588-6.606-2.775-13.897-2.811-20.531-.101-6.633 2.709-11.814 7.84-14.588 14.446s-2.811 13.898-.102 20.531c2.71 6.633 7.84 11.814 14.446 14.588 3.345 1.405 6.864 2.107 10.386 2.107 3.434 0 6.871-.669 10.146-2.006 6.633-2.71 11.814-7.84 14.588-14.447 2.775-6.605 2.811-13.897.101-20.53zm-2.866 19.369c-2.464 5.868-7.065 10.425-12.957 12.831-5.891 2.406-12.368 2.375-18.235-.089s-10.424-7.066-12.831-12.957c-2.406-5.892-2.374-12.368.09-18.235 2.464-5.868 7.065-10.424 12.957-12.831 2.909-1.189 5.96-1.782 9.011-1.782 3.127 0 6.254.625 9.224 1.872 5.868 2.464 10.425 7.066 12.832 12.957 2.405 5.891 2.373 12.367-.091 18.234z" fill="#3a312a"/></g></g><g><g><ellipse cx="178.985" cy="179.813" fill="#ef6d7a" rx="25.325" ry="25.325" transform="matrix(.973 -.229 .229 .973 -36.417 45.76)"/></g></g><g><g><path d="m198.059 160.95c-5.038-5.095-11.759-7.922-18.925-7.962-7.148-.034-13.917 2.713-19.012 7.752-10.517 10.401-10.611 27.419-.21 37.936 5.038 5.095 11.759 7.922 18.925 7.962.051.001.102.001.152.001 7.108 0 13.801-2.749 18.859-7.753 10.517-10.401 10.611-27.419.211-37.936zm-2.32 35.803c-4.493 4.443-10.437 6.885-16.75 6.885-.046 0-.091 0-.136-.001-6.364-.035-12.334-2.546-16.809-7.071-9.237-9.341-9.154-24.456.186-33.694 4.493-4.443 10.437-6.885 16.75-6.885.046 0 .091 0 .136.001 6.364.035 12.334 2.546 16.809 7.071 9.238 9.341 9.154 24.456-.186 33.694z" fill="#3a312a"/></g></g><g><g><path d="m180.294 184.727c-.895-2.2-2.07-4.2-3.458-5.988l-11.773-8.41c-5.589-1.923-11.869-1.915-17.774.488-12.955 5.273-19.183 20.049-13.91 33.004s20.049 19.183 33.004 13.91c12.956-5.273 19.184-20.049 13.911-33.004z" fill="#d7e057"/></g></g><g><g><path d="m181.685 184.162c-.923-2.266-2.155-4.4-3.663-6.342-.508-.655-1.45-.773-2.104-.266-.654.508-.773 1.45-.265 2.105 1.34 1.727 2.435 3.622 3.253 5.634 2.399 5.895 2.359 12.371-.113 18.235s-7.079 10.415-12.974 12.814c-5.894 2.398-12.369 2.359-18.235-.113-5.864-2.472-10.415-7.079-12.813-12.974-4.952-12.168.918-26.097 13.087-31.049 5.333-2.169 11.271-2.333 16.72-.458.787.27 1.637-.146 1.906-.931.27-.783-.146-1.637-.93-1.906-6.135-2.11-12.821-1.927-18.827.517-13.701 5.576-20.311 21.258-14.735 34.958 2.701 6.637 7.825 11.825 14.428 14.607 3.354 1.413 6.884 2.121 10.417 2.121 3.423 0 6.848-.664 10.114-1.994 6.637-2.701 11.824-7.825 14.607-14.428 2.782-6.602 2.828-13.894.127-20.53z" fill="#3a312a"/></g></g><g><g><ellipse cx="130.838" cy="199.141" fill="#fce8cb" rx="25.325" ry="25.326" transform="matrix(.457 -.89 .89 .457 -106.069 224.653)"/></g></g><g><g><path d="m131.023 172.316c-.063-.001-.125-.001-.187-.001-14.707 0-26.722 11.913-26.822 26.642-.102 14.791 11.85 26.907 26.641 27.008h.001c.061.001.123.001.186.001 14.706 0 26.722-11.914 26.822-26.643.101-14.79-11.85-26.906-26.641-27.007zm-.183 50.651c-.055 0-.11 0-.165-.001h.001c-13.138-.09-23.752-10.851-23.662-23.988.09-13.083 10.76-23.663 23.822-23.663.055 0 .111 0 .165.001 13.138.09 23.752 10.851 23.662 23.987-.09 13.083-10.761 23.664-23.823 23.664z" fill="#3a312a"/></g></g><g><g><ellipse cx="104.959" cy="193.672" fill="#ef6d7a" rx="25.326" ry="25.326" transform="matrix(.594 -.805 .805 .594 -113.195 163.106)"/></g></g><g><g><path d="m115.409 168.966c-13.624-5.763-29.394.634-35.156 14.255-5.763 13.623.633 29.394 14.256 35.157 3.4 1.438 6.935 2.119 10.414 2.119 10.459 0 20.419-6.152 24.743-16.375 5.762-13.623-.634-29.393-14.257-35.156zm11.493 33.988c-5.118 12.1-19.123 17.78-31.225 12.662-12.099-5.118-17.778-19.126-12.66-31.225 5.118-12.1 19.128-17.778 31.225-12.662 12.098 5.118 17.778 19.126 12.66 31.225z" fill="#3a312a"/></g></g><g><g><ellipse cx="83.153" cy="178.702" fill="#d7e057" rx="25.326" ry="25.325" transform="matrix(.008 -1 1 .008 -96.218 260.402)"/></g></g><g><g><path d="m102.274 159.888c-5.025-5.107-11.739-7.952-18.904-8.01-.075 0-.149-.001-.224-.001-7.082 0-13.754 2.731-18.808 7.704-5.107 5.026-7.953 11.74-8.011 18.904-.059 7.165 2.678 13.924 7.703 19.032 5.025 5.107 11.739 7.952 18.904 8.01.074.001.148.001.223.001 7.082 0 13.754-2.731 18.808-7.704 5.108-5.025 7.953-11.739 8.012-18.904.058-7.166-2.677-13.924-7.703-19.032zm-2.412 35.797c-4.537 4.463-10.527 6.937-16.903 6.841-6.363-.051-12.326-2.578-16.789-7.115-4.464-4.536-6.893-10.539-6.842-16.903.052-6.364 2.578-12.327 7.114-16.79 4.489-4.417 10.414-6.842 16.704-6.842.066 0 .133.001.199.001 6.364.052 12.327 2.578 16.79 7.115 4.464 4.536 6.894 10.539 6.842 16.903-.051 6.364-2.579 12.327-7.115 16.79z" fill="#3a312a"/></g></g><g><g><ellipse cx="68.749" cy="156.517" fill="#fce8cb" rx="25.325" ry="25.325" transform="matrix(.613 -.79 .79 .613 -97.073 114.959)"/></g></g><g><g><path d="m93.621 146.469c-5.54-13.713-21.203-20.365-34.92-14.824-13.715 5.541-20.365 21.207-14.824 34.921 2.684 6.644 7.794 11.844 14.39 14.645 3.371 1.431 6.924 2.147 10.479 2.147 3.401 0 6.804-.655 10.052-1.968 6.645-2.684 11.845-7.795 14.645-14.39 2.798-6.596 2.863-13.888.178-20.531zm-2.941 19.358c-2.486 5.858-7.105 10.397-13.006 12.781-5.902 2.384-12.378 2.328-18.234-.16-5.858-2.487-10.397-7.106-12.781-13.007-4.921-12.181.985-26.094 13.166-31.016 2.915-1.177 5.928-1.735 8.895-1.735 9.43 0 18.378 5.636 22.121 14.902 2.383 5.901 2.326 12.377-.161 18.235z" fill="#3a312a"/></g></g><g><g><ellipse cx="63.948" cy="130.506" fill="#ef6d7a" rx="25.326" ry="25.325" transform="matrix(.883 -.469 .469 .883 -53.709 45.195)"/></g></g><g><g><path d="m83.095 111.716c-5.02-5.114-11.73-7.968-18.895-8.035-.086-.001-.172-.001-.259-.001-7.068 0-13.73 2.721-18.782 7.68-5.114 5.019-7.968 11.729-8.035 18.894s2.659 13.928 7.678 19.042c5.02 5.114 11.729 7.968 18.895 8.035.085.001.17.001.256.001 14.674-.001 26.682-11.868 26.82-26.573.067-7.166-2.66-13.929-7.678-19.043zm-19.144 42.615c-.075 0-.151 0-.228-.001-6.363-.06-12.323-2.594-16.78-7.136-4.458-4.542-6.879-10.548-6.819-16.912s2.594-12.323 7.136-16.781c4.488-4.404 10.404-6.821 16.683-6.821.076 0 .153 0 .23.001 6.363.06 12.323 2.594 16.78 7.136 4.458 4.542 6.879 10.548 6.819 16.912-.123 13.062-10.787 23.603-23.821 23.602z" fill="#3a312a"/></g></g><g><g><ellipse cx="69.484" cy="104.641" fill="#d7e057" rx="25.326" ry="25.325" transform="matrix(.503 -.864 .864 .503 -55.905 112.086)"/></g></g><g><g><path d="m79.998 79.961c-6.59-2.808-13.882-2.882-20.531-.206-6.646 2.675-11.854 7.779-14.662 14.372-2.809 6.592-2.882 13.883-.207 20.53 2.676 6.647 7.78 11.854 14.372 14.663 3.42 1.457 6.976 2.146 10.478 2.146 10.433-.001 20.375-6.123 24.716-16.311 5.796-13.608-.559-29.396-14.166-35.194zm11.405 34.018c-5.149 12.086-19.173 17.731-31.258 12.581-5.855-2.495-10.388-7.119-12.765-13.023-2.376-5.904-2.311-12.379.184-18.234 2.494-5.855 7.119-10.388 13.023-12.765 2.877-1.158 5.889-1.736 8.899-1.736 3.167 0 6.333.64 9.335 1.919 12.087 5.15 17.731 19.172 12.582 31.258z" fill="#3a312a"/></g></g><g><g><path d="m102.608 65.157c-9.784-9.995-25.818-10.167-35.813-.382s-10.167 25.818-.382 35.814c1.565 1.599 3.291 2.943 5.126 4.039l13.916 3.554c6.074-.225 12.086-2.623 16.771-7.21 9.995-9.785 10.166-25.82.382-35.815z" fill="#fce8cb"/></g></g><g><g><path d="m103.68 64.107c-5.012-5.121-11.718-7.982-18.883-8.059-7.117-.058-13.931 2.641-19.051 7.654-5.121 5.012-7.983 11.718-8.061 18.883-.076 7.165 2.643 13.931 7.654 19.051 1.617 1.653 3.444 3.093 5.43 4.278.71.424 1.631.193 2.057-.519.425-.711.192-1.632-.52-2.057-1.763-1.053-3.386-2.331-4.822-3.8-4.452-4.548-6.866-10.557-6.799-16.92.068-6.364 2.61-12.32 7.158-16.772 4.549-4.452 10.553-6.879 16.921-6.798 6.363.068 12.319 2.61 16.771 7.158s6.867 10.557 6.799 16.921c-.067 6.364-2.609 12.32-7.157 16.772-4.244 4.154-9.848 6.563-15.778 6.783-.828.031-1.474.727-1.443 1.555.03.809.695 1.444 1.498 1.444.019 0 .038-.001.057-.001 6.678-.248 12.986-2.96 17.765-7.637 5.121-5.012 7.983-11.719 8.06-18.883.074-7.166-2.644-13.932-7.656-19.053z" fill="#3a312a"/></g></g><g><g><path d="m114.122 81.66c-9.877-9.903-9.851-25.937.061-35.814.393-.393.795-.769 1.205-1.118-5.659-2.061-12.06-2.131-18.086.288-12.976 5.206-19.282 19.956-14.077 32.933 5.205 12.986 19.955 19.291 32.932 14.086 2.733-1.092 5.161-2.611 7.257-4.445-3.388-1.223-6.576-3.205-9.292-5.93z" fill="#d7e057"/></g></g><g><g><path d="m124.888 87.313c-.098-.522-.465-.953-.965-1.133-3.294-1.189-6.234-3.066-8.738-5.578-4.494-4.506-6.964-10.492-6.953-16.855.012-6.363 2.501-12.343 7.014-16.839.388-.389.753-.727 1.114-1.034.407-.346.6-.882.506-1.408-.095-.526-.461-.962-.963-1.145-6.221-2.265-13.024-2.157-19.158.306-6.648 2.666-11.861 7.764-14.678 14.354-2.816 6.59-2.899 13.88-.233 20.528 2.666 6.652 7.764 11.867 14.354 14.686 3.391 1.45 6.967 2.176 10.545 2.176 3.377 0 6.756-.646 9.982-1.94 2.815-1.124 5.401-2.709 7.688-4.709.399-.352.583-.887.485-1.409zm-9.289 3.33c-5.904 2.368-12.379 2.294-18.232-.209s-10.382-7.135-12.749-13.044c-2.369-5.904-2.295-12.379.207-18.232s7.131-10.38 13.036-12.749c2.843-1.141 5.847-1.713 8.855-1.713 1.944 0 3.891.239 5.796.717-4.69 4.982-7.27 11.455-7.281 18.328-.012 7.165 2.769 13.905 7.828 18.978 2.191 2.198 4.68 3.964 7.425 5.272-1.516 1.072-3.152 1.96-4.885 2.652z" fill="#3a312a"/></g></g><g><g><path d="m131.625 25.213c-2.52 0-5.02.09-7.5.27 39.44 2.76 73.01 27.14 88.91 61.34 2.63 2.53 4.72 5.61 6.15 9.09 1.97 4.81 2.44 9.86 1.62 14.64.48 2.38.88 4.78 1.18 7.21 2.72 4.28 4.16 9.25 4.14 14.43-.02 5.34-1.62 10.32-4.35 14.5-.35 2.49-.79 4.95-1.33 7.38.71 4.79.11 9.7-1.81 14.28-1.45 3.44-3.55 6.48-6.18 8.98-16.13 33.56-49.36 57.39-88.33 60.11 2.48.18 4.98.27 7.5.27 58.59 0 106.25-47.66 106.25-106.25s-47.66-106.25-106.25-106.25z" fill="#695b51"/></g></g></g></svg>