<svg id="Layer_1" enable-background="new 0 0 256 256" height="512" viewBox="0 0 256 256" width="512" xmlns="http://www.w3.org/2000/svg"><g><g><g><path d="m238.863 128.958-6.693-43.764c-2.163-14.142-14.549-24.644-28.888-24.437-11.014.162-20.807 6.437-25.556 16.376l-20.904 43.744c-1.429 2.989-.164 6.571 2.827 8.001 2.992 1.428 6.572.163 8.001-2.827l20.904-43.744c2.77-5.797 8.482-9.456 14.906-9.552 8.384-.107 15.587 6.006 16.849 14.254l6.693 43.764c1.717 11.225-2.695 22.643-11.514 29.799l-36.032 29.233c-2.573 2.088-2.967 5.866-.879 8.439 1.186 1.462 2.917 2.22 4.663 2.22 1.328 0 2.665-.438 3.777-1.341l36.032-29.233c12.112-9.829 18.172-25.513 15.814-40.932z" fill="#d7e057"/></g></g><g><g><path d="m240.346 128.731-6.693-43.764c-2.275-14.875-15.34-25.934-30.393-25.711-11.588.171-21.891 6.772-26.888 17.229l-20.904 43.744c-1.783 3.73-.198 8.217 3.534 10.001 3.732 1.779 8.218.195 10-3.534l20.904-43.744c2.522-5.278 7.724-8.611 13.571-8.698.066-.001.131-.001.196-.001 7.52 0 14.014 5.549 15.15 12.981l6.693 43.764c1.637 10.701-2.569 21.587-10.976 28.407l-36.03 29.235c-1.556 1.263-2.526 3.055-2.734 5.048-.207 1.992.373 3.946 1.635 5.501 1.43 1.764 3.554 2.775 5.828 2.775 1.713 0 3.39-.596 4.722-1.676l36.033-29.233c12.524-10.162 18.79-26.38 16.352-42.324zm-18.243 39.994-36.033 29.233c-.811.658-1.789 1.006-2.831 1.006-1.365 0-2.64-.606-3.498-1.665-.757-.934-1.106-2.105-.981-3.301.124-1.195.707-2.271 1.64-3.028l36.033-29.233c9.23-7.489 13.848-19.441 12.051-31.19l-6.693-43.764c-1.36-8.892-9.124-15.528-18.12-15.528-.078 0-.157 0-.234.001-6.998.104-13.22 4.092-16.237 10.405l-20.904 43.744c-1.069 2.237-3.761 3.189-6 2.12-2.239-1.07-3.19-3.763-2.12-6.001l20.904-43.744c4.502-9.421 13.785-15.369 24.224-15.522 13.568-.157 25.333 9.763 27.383 23.164l6.693 43.764c2.278 14.894-3.576 30.044-15.277 39.539z" fill="#3a312a"/></g></g><g><g><path d="m39.308 69.464h-22l5.385 13.669 5.469 13.882 41.146 104.449h62z" fill="#d7e057"/></g></g><g><g><path d="m132.539 200.606-92-132c-.28-.402-.74-.643-1.23-.643h-22c-.497 0-.96.245-1.24.656-.279.41-.338.932-.156 1.394l5.385 13.669c.304.771 1.173 1.151 1.945.846.771-.304 1.149-1.175.846-1.945l-4.577-11.619h19.014l89.909 129h-58.105l-40.773-103.499c-.303-.771-1.172-1.149-1.945-.846-.771.304-1.149 1.175-.846 1.945l41.146 104.449c.226.573.779.95 1.396.95h62c.559 0 1.071-.311 1.33-.806.258-.495.22-1.093-.099-1.551z" fill="#3a312a"/></g></g><g><g><path d="m47.562 25.971c-.974 11.563-13.031 13.389-13.031 13.389 10.352.487 12.932 14.059 12.932 14.059.222-9.677 13.328-14.202 13.328-14.202-9.819-.587-13.229-13.246-13.229-13.246z" fill="#d7e057"/></g></g><g><g><path d="m60.88 37.72c-8.61-.515-11.838-12.024-11.87-12.141-.191-.703-.861-1.167-1.583-1.102-.725.066-1.298.642-1.359 1.367-.86 10.215-11.32 11.964-11.761 12.032-.763.116-1.313.791-1.273 1.561.04.771.657 1.385 1.428 1.421 9.033.425 11.505 12.72 11.529 12.844.137.711.759 1.217 1.472 1.217.042 0 .084-.002.126-.005.764-.064 1.357-.693 1.375-1.46.195-8.509 12.198-12.777 12.319-12.82.676-.234 1.092-.914.995-1.622-.1-.709-.684-1.25-1.398-1.292zm-13.573 10.347c-1.357-3.131-3.71-6.909-7.591-8.878 2.932-1.405 6.413-3.915 8.207-8.274 1.551 3.071 4.201 6.881 8.338 8.724-3.009 1.639-6.927 4.406-8.954 8.428z" fill="#3a312a"/></g></g><g><g><path d="m25.852 42.951c-.689 8.18-9.217 9.471-9.217 9.471 7.322.345 9.147 9.944 9.147 9.944.156-6.845 9.427-10.045 9.427-10.045-6.945-.416-9.357-9.37-9.357-9.37z" fill="#d7e057"/></g></g><g><g><path d="m35.298 50.823c-5.77-.345-7.977-8.186-7.999-8.265-.19-.702-.849-1.167-1.582-1.102-.726.065-1.299.643-1.36 1.368-.579 6.87-7.651 8.066-7.947 8.113-.763.116-1.313.791-1.274 1.561.04.771.657 1.385 1.428 1.421 6.038.284 7.728 8.645 7.744 8.727.136.713.759 1.22 1.472 1.22.042 0 .083-.002.125-.005.765-.063 1.358-.693 1.376-1.461.13-5.709 8.336-8.634 8.417-8.662.676-.233 1.094-.913.996-1.622-.096-.709-.681-1.251-1.396-1.293zm-9.59 6.797c-.924-1.887-2.341-3.948-4.45-5.281 1.856-1.042 3.7-2.631 4.873-4.918 1.058 1.874 2.656 3.955 4.944 5.225-1.849 1.1-3.99 2.741-5.367 4.974z" fill="#3a312a"/></g></g><g><g><path d="m25.852 16.294c-.689 8.179-9.217 9.471-9.217 9.471 7.322.344 9.147 9.944 9.147 9.944.156-6.845 9.427-10.045 9.427-10.045-6.945-.416-9.357-9.37-9.357-9.37z" fill="#d7e057"/></g></g><g><g><path d="m35.298 24.166c-5.77-.345-7.977-8.186-7.999-8.265-.19-.702-.849-1.165-1.582-1.102-.726.065-1.299.643-1.36 1.368-.579 6.87-7.651 8.066-7.947 8.113-.763.116-1.314.791-1.274 1.561.04.771.657 1.385 1.428 1.421 6.038.284 7.728 8.645 7.744 8.727.136.713.759 1.22 1.473 1.22.041 0 .083-.002.125-.005.765-.064 1.358-.693 1.376-1.461.13-5.709 8.336-8.634 8.417-8.662.676-.233 1.094-.913.996-1.622-.097-.709-.682-1.251-1.397-1.293zm-9.589 6.796c-.925-1.886-2.341-3.948-4.45-5.281 1.857-1.041 3.7-2.63 4.873-4.917 1.058 1.874 2.656 3.955 4.944 5.225-1.85 1.1-3.991 2.74-5.367 4.973z" fill="#3a312a"/></g></g><g><g><path d="m163.53 84.48v-28.016h-68.7v28.016c-26.055 12.731-44.006 39.483-44.006 70.435 0 33.51 21.043 62.093 50.63 73.292h55.452c29.587-11.199 50.63-39.782 50.63-73.292 0-30.951-17.951-57.704-44.006-70.435z" fill="#8ac6dd"/></g></g><g><g><path d="m165.03 83.55v-27.086c0-.828-.671-1.5-1.5-1.5h-68.7c-.829 0-1.5.672-1.5 1.5v27.086c-27.169 13.659-44.006 40.918-44.006 71.365 0 32.995 20.736 63.013 51.599 74.696.17.064.35.097.531.097h55.452c.182 0 .361-.033.531-.097 30.863-11.684 51.599-41.701 51.599-74.696 0-30.447-16.837-57.706-44.006-71.365zm-8.4 143.158h-54.9c-29.563-11.313-49.406-40.129-49.406-71.793 0-29.605 16.54-56.078 43.165-69.087.515-.252.841-.774.841-1.348v-26.516h65.7v26.516c0 .573.327 1.096.841 1.348 26.625 13.009 43.165 39.481 43.165 69.087 0 31.664-19.843 60.48-49.406 71.793z" fill="#3a312a"/></g></g><g><g><path d="m165.276 47.933h-72.193c-4.819 0-8.726 3.907-8.726 8.726s3.907 8.726 8.726 8.726h72.193c4.819 0 8.726-3.907 8.726-8.726.001-4.819-3.906-8.726-8.726-8.726z" fill="#d7e057"/></g></g><g><g><path d="m165.276 46.433h-72.192c-5.639 0-10.227 4.588-10.227 10.227s4.587 10.226 10.227 10.226h72.193c5.639 0 10.226-4.588 10.226-10.226s-4.588-10.227-10.227-10.227zm0 17.453h-72.192c-3.985 0-7.227-3.242-7.227-7.227s3.242-7.227 7.227-7.227h72.193c3.984 0 7.226 3.242 7.226 7.227s-3.242 7.227-7.227 7.227z" fill="#3a312a"/></g></g><g><g><path d="m162.734 45.341c-6.665-8.242-19.546-13.377-33.555-13.377-14.008 0-26.89 5.135-33.555 13.377l-2.096 2.592h71.302z" fill="#d7e057"/></g></g><g><g><path d="m165.997 46.989-2.096-2.592c-6.951-8.595-20.255-13.934-34.721-13.934s-27.77 5.339-34.721 13.934l-2.096 2.592c-.363.449-.436 1.068-.187 1.59.249.521.775.853 1.354.853h71.302c.578 0 1.105-.332 1.354-.853.247-.521.174-1.141-.189-1.59zm-69.326-.556.12-.148c6.395-7.908 18.805-12.82 32.388-12.82s25.994 4.912 32.388 12.82l.12.148z" fill="#3a312a"/></g></g><g><g><ellipse cx="129.18" cy="24.294" fill="#d7e057" rx="8" ry="8" transform="matrix(.383 -.924 .924 .383 57.301 134.343)"/></g></g><g><g><path d="m129.18 14.794c-5.238 0-9.5 4.262-9.5 9.5s4.262 9.5 9.5 9.5 9.5-4.262 9.5-9.5-4.262-9.5-9.5-9.5zm0 16c-3.584 0-6.5-2.916-6.5-6.5s2.916-6.5 6.5-6.5 6.5 2.916 6.5 6.5-2.916 6.5-6.5 6.5z" fill="#3a312a"/></g></g><g><g><path d="m169.272 228.208h-80.184c-6.351 0-11.499 5.148-11.499 11.499h103.182c0-6.351-5.148-11.499-11.499-11.499z" fill="#d7e057"/></g></g><g><g><path d="m169.272 226.708h-80.185c-7.168 0-12.999 5.831-12.999 12.998 0 .828.671 1.5 1.5 1.5h103.182c.829 0 1.5-.672 1.5-1.5 0-7.167-5.831-12.998-12.998-12.998zm-90.071 11.498c.726-4.804 4.883-8.498 9.886-8.498h80.185c5.003 0 9.16 3.694 9.886 8.498z" fill="#3a312a"/></g></g><g><g><path d="m103.604 151.691h-69.41c-2.903 0-5.256 2.353-5.256 5.256v47.038c0 13.378 10.845 24.223 24.223 24.223h31.477c13.378 0 24.223-10.845 24.223-24.223v-47.038c-.001-2.902-2.354-5.256-5.257-5.256z" fill="#f16c7a"/></g></g><g><g><path d="m103.604 150.191h-16.859c-.829 0-1.5.672-1.5 1.5s.671 1.5 1.5 1.5h16.859c2.071 0 3.756 1.685 3.756 3.756v47.038c0 12.529-10.193 22.723-22.722 22.723h-31.477c-12.529 0-22.723-10.193-22.723-22.723v-47.038c0-2.071 1.685-3.756 3.756-3.756h38.359c.829 0 1.5-.672 1.5-1.5s-.671-1.5-1.5-1.5h-38.359c-3.726 0-6.756 3.03-6.756 6.756v47.038c0 14.184 11.539 25.723 25.723 25.723h31.477c14.183 0 25.722-11.539 25.722-25.723v-47.038c0-3.725-3.031-6.756-6.756-6.756z" fill="#3a312a"/></g></g><g><g><path d="m17.308 228.208c0 6.35 5.148 11.499 11.499 11.499h80.185c6.351 0 11.499-5.148 11.499-11.499z" fill="#87796f"/></g></g><g><g><path d="m120.49 226.708h-103.182c-.829 0-1.5.672-1.5 1.5 0 7.167 5.831 12.998 12.999 12.998h80.185c7.167 0 12.999-5.831 12.999-12.998-.001-.828-.672-1.5-1.501-1.5zm-11.499 11.498h-80.184c-5.003 0-9.16-3.694-9.886-8.498h99.958c-.727 4.804-4.884 8.498-9.888 8.498z" fill="#3a312a"/></g></g><g><g><path d="m109.613 162.569c-.255 0-.503.006-.752.012v8.293c.249-.011.497-.018.752-.018 9.631 0 17.468 7.837 17.468 17.468 0 9.625-7.837 17.462-17.468 17.462-.272 0-.545-.006-.817-.024-.207 2.883-.923 5.629-2.06 8.145.941.113 1.906.166 2.877.166 14.201 0 25.755-11.555 25.755-25.749 0-14.2-11.555-25.755-25.755-25.755z" fill="#f16c7a"/></g></g><g><g><path d="m109.612 161.068c-.235 0-.466.006-.787.013-.814.02-1.465.686-1.465 1.5v8.293c0 .41.168.803.465 1.085.296.283.69.432 1.106.413.225-.011.45-.017.681-.017 8.805 0 15.968 7.163 15.968 15.969 0 8.802-7.163 15.962-15.968 15.962-.24 0-.48-.005-.72-.021-.825-.042-1.534.567-1.593 1.39-.19 2.651-.84 5.221-1.931 7.635-.197.435-.174.939.061 1.355s.654.695 1.128.752c.982.117 2.01.177 3.055.177 15.029 0 27.255-12.224 27.255-27.249.001-15.03-12.226-27.257-27.255-27.257zm0 51.505c-.241 0-.481-.004-.72-.011.608-1.71 1.029-3.477 1.259-5.284 10.211-.285 18.429-8.679 18.429-18.954 0-10.209-8.106-18.56-18.22-18.954v-5.29c13.029.396 23.507 11.12 23.507 24.244.001 13.371-10.88 24.249-24.255 24.249z" fill="#3a312a"/></g></g><g><g><path d="m162.868 85.824c-.51-.25-.84-.77-.84-1.34v-17.6h-15v17.6c0 .57.33 1.09.84 1.34 26.63 13.01 43.17 39.49 43.17 69.09 0 31.67-19.85 60.48-49.41 71.79h15c29.56-11.31 49.41-40.12 49.41-71.79 0-29.6-16.54-56.08-43.17-69.09z" fill="#6ca6be"/></g></g><g><g><path d="m165.278 49.434h-15c3.98 0 7.22 3.24 7.22 7.23 0 3.98-3.24 7.22-7.22 7.22h15c3.98 0 7.22-3.24 7.22-7.22 0-3.99-3.24-7.23-7.22-7.23z" fill="#b9c239"/></g></g><g><g><path d="m161.568 46.284c-6.04-7.47-17.45-12.26-30.14-12.77-.72.18-1.47.28-2.25.28-.77 0-1.52-.1-2.24-.28-1.78.07-3.53.22-5.25.46 10.53 1.45 19.69 5.89 24.88 12.31l.12.15h15z" fill="#b9c239"/></g></g></g></svg>