<svg id="Layer_1" enable-background="new 0 0 256 256" height="512" viewBox="0 0 256 256" width="512" xmlns="http://www.w3.org/2000/svg"><g><g><g><path d="m104.617 61.047c-.974 11.564-13.024 13.39-13.024 13.39 10.347.487 12.925 14.059 12.925 14.059.221-9.677 13.321-14.202 13.321-14.202-9.813-.588-13.222-13.247-13.222-13.247z" fill="#d7e057"/></g></g><g><g><path d="m117.93 72.796c-8.606-.515-11.833-12.024-11.864-12.141-.19-.702-.849-1.164-1.584-1.102-.725.066-1.298.642-1.359 1.367-.859 10.215-11.313 11.964-11.754 12.033-.763.115-1.313.79-1.273 1.561.04.77.657 1.384 1.428 1.421 9.028.425 11.499 12.718 11.522 12.842.138.711.76 1.217 1.473 1.217.042 0 .084-.001.126-.005.765-.064 1.357-.693 1.375-1.46.193-8.509 12.191-12.777 12.313-12.819.676-.235 1.092-.914.994-1.622-.099-.708-.683-1.249-1.397-1.292zm-13.567 10.346c-1.356-3.13-3.709-6.907-7.587-8.877 2.931-1.405 6.408-3.913 8.201-8.272 1.551 3.071 4.2 6.88 8.335 8.722-3.007 1.64-6.922 4.406-8.949 8.427z" fill="#3a312a"/></g></g><g><g><path d="m82.919 78.027c-.689 8.179-9.213 9.471-9.213 9.471 7.318.344 9.142 9.944 9.142 9.944.156-6.844 9.422-10.045 9.422-10.045-6.94-.415-9.351-9.37-9.351-9.37z" fill="#d7e057"/></g></g><g><g><path d="m92.36 85.899c-5.767-.345-7.972-8.186-7.993-8.265-.19-.702-.866-1.158-1.582-1.102-.726.065-1.3.643-1.361 1.368-.578 6.871-7.646 8.067-7.942 8.114-.763.115-1.313.79-1.273 1.561.04.77.657 1.384 1.428 1.421 6.035.284 7.724 8.644 7.739 8.726.136.713.759 1.22 1.473 1.22.041 0 .083-.001.125-.005.765-.063 1.358-.694 1.376-1.461.13-5.71 8.331-8.634 8.412-8.662.676-.234 1.093-.913.996-1.622-.099-.708-.684-1.25-1.398-1.293zm-9.585 6.795c-.924-1.885-2.34-3.947-4.447-5.28 1.856-1.041 3.697-2.629 4.871-4.916 1.057 1.874 2.654 3.954 4.941 5.224-1.849 1.101-3.989 2.74-5.365 4.972z" fill="#3a312a"/></g></g><g><g><path d="m82.919 51.37c-.689 8.179-9.213 9.471-9.213 9.471 7.318.344 9.142 9.944 9.142 9.944.156-6.845 9.422-10.045 9.422-10.045-6.94-.416-9.351-9.37-9.351-9.37z" fill="#d7e057"/></g></g><g><g><path d="m92.36 59.242c-5.767-.345-7.972-8.186-7.993-8.265-.19-.702-.866-1.165-1.582-1.102-.726.065-1.3.643-1.361 1.368-.578 6.871-7.646 8.067-7.942 8.114-.763.115-1.313.79-1.273 1.561.04.77.657 1.384 1.428 1.421 6.035.284 7.724 8.644 7.739 8.726.136.712.759 1.22 1.473 1.22.041 0 .083-.001.125-.005.765-.063 1.358-.694 1.376-1.461.13-5.709 8.331-8.633 8.412-8.661.676-.234 1.093-.913.996-1.622-.099-.709-.684-1.251-1.398-1.294zm-9.585 6.795c-.924-1.886-2.34-3.947-4.447-5.28 1.856-1.041 3.697-2.629 4.871-4.916 1.057 1.874 2.654 3.954 4.941 5.224-1.849 1.101-3.989 2.74-5.365 4.972z" fill="#3a312a"/></g></g><g><g><path d="m209.919 40.828c-10.229-14.937-39.374-31.525-54.311-21.296s-10.008 43.4.221 58.337 24.97 10.49 39.906.261c14.937-10.229 24.413-22.366 14.184-37.302z" fill="#d7e057"/></g></g><g><g><path d="m211.156 39.98c-5.311-7.755-15.519-15.842-26.007-20.603-12.398-5.628-23.189-6.013-30.389-1.083-7.198 4.93-10.741 15.131-9.977 28.725.647 11.5 4.497 23.942 9.808 31.697 4.678 6.831 10.652 10.283 17.782 10.283.578 0 1.164-.022 1.757-.068 6.429-.493 13.772-3.621 22.452-9.564 8.679-5.943 14.251-11.66 17.034-17.475 3.425-7.156 2.597-14.528-2.46-21.912zm-.245 20.617c-2.55 5.327-7.791 10.657-16.023 16.294-8.232 5.638-15.097 8.598-20.985 9.049-6.86.522-12.366-2.392-16.836-8.919-5.023-7.335-8.668-19.178-9.287-30.17-.407-7.243.178-20.261 8.677-26.081 3.115-2.133 6.747-2.925 10.425-2.925 6.355 0 12.845 2.366 17.028 4.265 10.025 4.551 19.749 12.231 24.772 19.567 4.469 6.525 5.199 12.715 2.229 18.92z" fill="#3a312a"/></g></g><g><g><path d="m200.727 45.961c-19.842.144-52.777 16.468-52.633 36.31s33.311 35.688 53.153 35.545c19.842-.144 24.833-16.266 24.689-36.108-.142-19.842-5.366-35.89-25.209-35.747z" fill="#d7e057"/></g></g><g><g><path d="m222.012 55.58c-4.376-7.449-11.53-11.144-21.295-11.119-10.277.074-23.854 4.389-34.586 10.991-12.667 7.792-19.605 17.32-19.536 26.831.068 9.51 7.144 18.938 19.922 26.545 10.731 6.389 24.222 10.49 34.467 10.49.091 0 .184-.001.274-.001 9.755-.071 16.865-3.915 21.134-11.426 3.479-6.121 5.129-14.689 5.045-26.193-.083-11.505-1.858-20.048-5.425-26.118zm-2.229 50.828c-3.753 6.604-9.819 9.845-18.547 9.908-.087 0-.172.001-.259.001-9.739-.001-22.628-3.937-32.926-10.067-15.978-9.512-18.422-19.113-18.457-23.989s2.271-14.512 18.107-24.254c10.3-6.336 23.268-10.475 33.036-10.546.086 0 .171-.001.256-.001 8.591 0 14.621 3.155 18.432 9.64 3.292 5.604 4.932 13.657 5.011 24.619.081 10.962-1.442 19.038-4.653 24.689z" fill="#3a312a"/></g></g><g><g><path d="m209.967 80.048c-9.632-2.842-23.192-3.004-35.759-.378l-10.925 3.128c-10.558 3.96-19.04 10.295-21.644 19.121-6.299 21.353 24.162 49.157 45.516 55.456s31.957-9.39 38.256-30.743c6.3-21.353 5.91-40.285-15.444-46.584z" fill="#d7e057"/></g></g><g><g><path d="m229.518 97.343c-2.261-9.353-8.695-15.656-19.125-18.733-9.834-2.901-23.815-3.057-36.491-.408-.812.169-1.331.964-1.162 1.775.17.812.97 1.329 1.775 1.161 12.22-2.554 25.642-2.42 35.028.348 9.46 2.79 15.04 8.207 17.059 16.561 1.721 7.121.86 16.332-2.629 28.161-7.493 25.396-19.061 34.838-36.393 29.729-10.543-3.11-23.278-11.61-32.444-21.655-14.123-15.476-13.616-26.653-12.058-31.938 2.842-9.634 12.843-15.183 20.732-18.142.776-.29 1.169-1.155.878-1.931-.29-.775-1.155-1.17-1.931-.878-12.23 4.587-20.029 11.538-22.556 20.102-3.001 10.171 1.516 22.533 12.719 34.809 9.509 10.42 22.78 19.256 33.811 22.51 3.33.982 6.477 1.475 9.448 1.475 14.018-.001 24.103-10.967 30.671-33.232 3.643-12.348 4.515-22.068 2.668-29.714z" fill="#3a312a"/></g></g><g><g><path d="m88.449 145.248c-14.937-10.228-48.108-15.157-58.337-.221-4.332 6.326-3.843 15.202-.717 24.109l4.978 10.721c4.697 8.125 11 15.348 17.035 19.481 14.937 10.228 27.073.753 37.301-14.184 10.23-14.937 14.677-29.678-.26-39.906z" fill="#d7e057"/></g></g><g><g><path d="m89.297 144.01c-7.755-5.311-20.197-9.16-31.697-9.807-13.594-.766-23.796 2.778-28.724 9.977-5.37 7.842-3.451 18.17-.895 25.453.274.782 1.128 1.193 1.912.919.781-.275 1.192-1.13.918-1.912-2.326-6.629-4.121-15.959.539-22.765 5.82-8.499 18.845-9.087 26.081-8.677 10.993.619 22.836 4.264 30.171 9.288 6.527 4.469 9.444 9.976 8.919 16.835-.451 5.889-3.41 12.753-9.048 20.986-12.055 17.605-23.246 21.993-35.217 13.793-5.809-3.977-12.008-11.078-16.584-18.994-.416-.717-1.334-.96-2.05-.548-.717.415-.962 1.333-.548 2.05 4.79 8.285 11.327 15.749 17.486 19.967 4.427 3.031 8.789 4.551 13.115 4.551 8.839 0 17.522-6.348 26.271-19.125 5.943-8.68 9.072-16.023 9.564-22.452.608-7.908-2.829-14.482-10.213-19.539z" fill="#3a312a"/></g></g><g><g><path d="m92.852 137.513c-19.842-.144-36.167 32.791-36.31 52.633-.144 19.842 15.905 25.066 35.747 25.21s35.964-4.847 36.108-24.689c.143-19.843-15.703-53.01-35.545-53.154z" fill="#d7e057"/></g></g><g><g><path d="m119.408 155.936c-7.607-12.778-17.034-19.854-26.545-19.922-9.466-.06-19.039 6.869-26.831 19.536-6.601 10.733-10.916 24.309-10.99 34.586-.129 17.798 12.052 26.538 37.236 26.72.275.002.55.003.822.003 11.091 0 19.396-1.654 25.37-5.049 7.511-4.268 11.355-11.379 11.426-21.133.075-10.277-4.042-23.914-10.488-34.741zm-2.42 53.266c-5.651 3.211-13.728 4.723-24.689 4.654-23.488-.17-34.374-7.7-34.258-23.699.07-9.769 4.21-22.736 10.546-33.036 9.67-15.721 19.234-18.108 24.145-18.108.037 0 .073 0 .109.001 4.876.035 14.477 2.48 23.988 18.457 6.186 10.39 10.137 23.417 10.066 33.186-.062 8.725-3.302 14.792-9.907 18.545z" fill="#3a312a"/></g></g><g><g><path d="m167.957 176.574c-6.299-21.354-34.103-51.815-55.456-45.516-21.354 6.299-28.171 46.975-21.872 68.328 6.299 21.354 25.231 21.743 46.585 15.444s37.042-16.902 30.743-38.256z" fill="#d7e057"/></g></g><g><g><path d="m169.395 176.15c-3.254-11.031-12.09-24.302-22.511-33.812-12.274-11.202-24.636-15.719-34.809-12.719-10.171 3.001-18.102 13.504-22.332 29.576-3.591 13.643-3.809 29.585-.554 40.615 3.946 13.378 12.944 20.012 27.312 20.012 6.077 0 13.115-1.188 21.137-3.554 12.348-3.643 20.984-8.186 26.404-13.888 6.63-6.975 8.431-15.8 5.353-26.23zm-7.527 24.164c-5.047 5.31-13.25 9.588-25.079 13.078-25.395 7.491-39.606 2.907-44.722-14.43-3.11-10.542-2.883-25.852.578-39.003 5.333-20.262 14.995-25.903 20.28-27.462 1.427-.421 3.283-.765 5.54-.765 6.096 0 15.102 2.515 26.397 12.823 10.045 9.167 18.545 21.902 21.655 32.444 2.793 9.459 1.271 17.086-4.649 23.315z" fill="#3a312a"/></g></g><g><g><path d="m208.841 132.815c-18.128-18.128-63.019-33.628-81.148-15.5-18.128 18.128-2.628 63.019 15.5 81.147s37.49 8.098 55.618-10.029c18.128-18.128 28.158-37.49 10.03-55.618z" fill="#d7e057"/></g></g><g><g><path d="m209.901 131.755c-9.337-9.337-25.539-17.872-41.276-21.742-18.5-4.551-33.416-2.334-41.992 6.242s-10.793 23.49-6.242 41.993c3.871 15.737 12.405 31.939 21.742 41.276 6.657 6.658 13.916 10.005 21.66 10.004 2.483 0 5.018-.344 7.597-1.034 8.712-2.331 18.028-8.545 28.482-18.999 22.801-22.802 26.081-41.688 10.029-57.74zm-12.15 55.618c-10.071 10.071-18.947 16.032-27.136 18.222-9.65 2.581-18.269-.101-26.361-8.193-8.978-8.978-17.201-24.628-20.95-39.871-5.789-23.537.93-34.635 5.45-39.155 3.271-3.272 9.986-7.694 22.37-7.694 4.728 0 10.283.645 16.785 2.244 15.243 3.749 30.894 11.973 39.871 20.95 14.827 14.828 11.641 31.827-10.029 53.497z" fill="#3a312a"/></g></g><g><g><path d="m16.56 192.389c0 19.436 15.756 35.192 35.192 35.192h152.497c19.436 0 35.192-15.756 35.192-35.192z" fill="#87796f"/></g></g><g><g><path d="m239.44 190.889h-222.88c-.828 0-1.5.671-1.5 1.5 0 20.232 16.46 36.691 36.692 36.691h4.53c.828 0 1.5-.671 1.5-1.5s-.672-1.5-1.5-1.5h-4.53c-18.076 0-32.872-14.307-33.659-32.191h219.814c-.787 17.885-15.583 32.191-33.659 32.191h-133.031c-.828 0-1.5.671-1.5 1.5s.672 1.5 1.5 1.5h133.031c20.232 0 36.692-16.46 36.692-36.691 0-.828-.671-1.5-1.5-1.5z" fill="#3a312a"/></g></g><g><g><path d="m80.807 227.581h94.387v11.731h-94.387z" fill="#87796f"/></g></g><g><g><path d="m175.193 226.081h-94.386c-.828 0-1.5.671-1.5 1.5v11.73c0 .829.672 1.5 1.5 1.5h94.387c.828 0 1.5-.671 1.5-1.5v-11.73c-.001-.829-.673-1.5-1.501-1.5zm-1.5 11.73h-91.386v-8.73h91.387v8.73z" fill="#3a312a"/></g></g><g><g><path d="m223.46 193.891c-.79 17.88-15.58 32.19-33.66 32.19h14.45c18.07 0 32.87-14.31 33.66-32.19z" fill="#695b51"/></g></g></g></svg>