<svg id="Layer_1" enable-background="new 0 0 256 256" height="512" viewBox="0 0 256 256" width="512" xmlns="http://www.w3.org/2000/svg"><g><g><g><path d="m216.691 83.516c.154-1.14.241-2.303.241-3.485 0-14.24-11.544-25.783-25.783-25.783-4.131 0-8.031.977-11.493 2.704-3.95-9.172-13.068-15.595-23.688-15.595-10.523 0-19.568 6.308-23.575 15.346-3.489-1.763-7.429-2.761-11.605-2.761-14.239 0-25.783 11.543-25.783 25.783 0 1.285.097 2.547.279 3.782-11.125 2.859-19.346 12.956-19.346 24.973 0 14.24 11.543 25.783 25.783 25.783h108.497c14.24 0 25.783-11.543 25.783-25.783-.001-12.004-8.204-22.092-19.31-24.964z" fill="#87796f"/></g></g><g><g><path d="m218.323 82.422c.073-.81.109-1.609.109-2.391 0-15.044-12.239-27.283-27.283-27.283-3.746 0-7.36.743-10.764 2.212-4.602-9.224-14.023-15.103-24.417-15.103-10.269 0-19.639 5.781-24.286 14.854-3.44-1.507-7.099-2.27-10.895-2.27-15.044 0-27.283 12.239-27.283 27.283 0 .89.045 1.789.134 2.688-11.37 3.514-19.201 14.048-19.201 26.065 0 15.044 12.239 27.283 27.283 27.283h108.496c15.044 0 27.283-12.239 27.283-27.283.001-12.001-7.82-22.535-19.176-26.055zm-8.106 50.34h-108.496c-13.39 0-24.283-10.894-24.283-24.283 0-11.091 7.492-20.763 18.22-23.52.743-.191 1.223-.912 1.111-1.672-.175-1.187-.264-2.386-.264-3.563 0-13.39 10.894-24.283 24.283-24.283 3.836 0 7.514.875 10.929 2.601.367.186.794.21 1.181.074.388-.139.701-.43.867-.805 3.893-8.78 12.608-14.454 22.204-14.454 9.71 0 18.468 5.766 22.311 14.688.163.378.476.673.862.815.389.14.816.116 1.186-.067 3.387-1.689 7.028-2.546 10.822-2.546 13.39 0 24.283 10.894 24.283 24.283 0 1.063-.076 2.168-.228 3.284-.102.753.375 1.463 1.11 1.653 10.707 2.768 18.185 12.436 18.185 23.51 0 13.391-10.894 24.285-24.283 24.285z" fill="#3a312a"/></g></g><g><g><path d="m33.086 67.663h18.833v120.04h-18.833z" fill="#d7e057" transform="matrix(.959 -.283 .283 .959 -34.365 17.226)"/></g></g><g><g><path d="m69.942 182.167-33.938-115.142c-.112-.382-.372-.703-.721-.894-.351-.19-.761-.232-1.142-.121l-18.065 5.325c-.795.234-1.249 1.068-1.015 1.862l33.94 115.142c.112.382.372.703.721.894.223.121.47.183.718.183.143 0 .285-.021.424-.061l18.064-5.325c.795-.235 1.249-1.069 1.014-1.863zm-18.488 3.886-33.091-112.264 15.188-4.477 33.09 112.264z" fill="#3a312a"/></g></g><g><g><path d="m47.659 26.219c-.974 11.564-13.024 13.389-13.024 13.389 10.347.487 12.925 14.059 12.925 14.059.221-9.677 13.321-14.202 13.321-14.202-9.813-.587-13.222-13.246-13.222-13.246z" fill="#d7e057"/></g></g><g><g><path d="m60.972 37.968c-8.606-.515-11.833-12.024-11.864-12.141-.19-.702-.853-1.163-1.584-1.102-.725.066-1.298.642-1.359 1.367-.86 10.216-11.313 11.965-11.755 12.033-.763.116-1.313.791-1.273 1.561.04.771.657 1.385 1.428 1.421 9.028.425 11.499 12.718 11.522 12.843.138.711.76 1.217 1.473 1.217.042 0 .084-.002.126-.005.765-.064 1.358-.693 1.375-1.46.193-8.509 12.192-12.777 12.313-12.819.676-.234 1.092-.914.994-1.622-.099-.71-.683-1.251-1.396-1.293zm-13.567 10.345c-1.357-3.131-3.709-6.907-7.587-8.877 2.931-1.404 6.408-3.912 8.201-8.272 1.551 3.071 4.2 6.88 8.335 8.723-3.007 1.639-6.922 4.405-8.949 8.426z" fill="#3a312a"/></g></g><g><g><path d="m25.961 43.199c-.689 8.179-9.212 9.47-9.212 9.47 7.318.345 9.142 9.944 9.142 9.944.156-6.845 9.422-10.045 9.422-10.045-6.941-.415-9.352-9.369-9.352-9.369z" fill="#d7e057"/></g></g><g><g><path d="m35.402 51.071c-5.766-.345-7.972-8.186-7.994-8.265-.189-.702-.861-1.165-1.581-1.101-.726.065-1.3.643-1.361 1.368-.578 6.87-7.646 8.066-7.942 8.113-.763.116-1.313.791-1.273 1.561.04.771.657 1.385 1.428 1.421 6.035.284 7.724 8.645 7.739 8.727.136.713.759 1.22 1.473 1.22.041 0 .083-.002.125-.005.765-.063 1.358-.693 1.376-1.461.13-5.709 8.331-8.634 8.412-8.662.676-.234 1.093-.913.996-1.622-.099-.71-.684-1.252-1.398-1.294zm-9.585 6.795c-.924-1.886-2.34-3.947-4.447-5.279 1.857-1.042 3.698-2.63 4.871-4.917 1.058 1.874 2.654 3.954 4.941 5.224-1.849 1.1-3.989 2.74-5.365 4.972z" fill="#3a312a"/></g></g><g><g><path d="m25.961 16.542c-.689 8.179-9.212 9.471-9.212 9.471 7.318.344 9.142 9.944 9.142 9.944.156-6.845 9.422-10.045 9.422-10.045-6.941-.416-9.352-9.37-9.352-9.37z" fill="#d7e057"/></g></g><g><g><path d="m35.402 24.414c-5.766-.346-7.972-8.186-7.994-8.265-.189-.702-.861-1.165-1.581-1.102-.726.065-1.3.642-1.361 1.368-.578 6.87-7.646 8.065-7.942 8.112-.763.116-1.313.791-1.273 1.561.04.771.657 1.385 1.428 1.421 6.035.284 7.724 8.645 7.739 8.727.136.713.759 1.22 1.473 1.22.041 0 .083-.002.125-.005.765-.063 1.358-.693 1.376-1.461.13-5.708 8.331-8.633 8.412-8.661.676-.234 1.093-.913.996-1.622-.099-.709-.684-1.25-1.398-1.293zm-9.585 6.795c-.924-1.886-2.34-3.947-4.446-5.28 1.856-1.041 3.697-2.63 4.87-4.916 1.058 1.873 2.655 3.954 4.941 5.224-1.849 1.1-3.988 2.74-5.365 4.972z" fill="#3a312a"/></g></g><g><g><path d="m87.381 65.266h120.04v18.833h-120.04z" fill="#d7e057" transform="matrix(.435 -.901 .901 .435 16.041 174.927)"/></g></g><g><g><path d="m182.638 23.383-16.958-8.191c-.357-.173-.769-.197-1.146-.065-.375.131-.684.405-.856.764l-52.211 108.09c-.36.746-.048 1.643.698 2.003l16.958 8.191c.205.1.429.149.652.149.167 0 .333-.027.494-.084.375-.131.684-.405.856-.764l52.211-108.09c.36-.746.048-1.643-.698-2.003zm-53.562 107.437-14.257-6.887 50.906-105.389 14.257 6.887z" fill="#3a312a"/></g></g><g><g><path d="m163.691 107.516c.154-1.14.241-2.303.241-3.485 0-14.24-11.544-25.783-25.783-25.783-4.131 0-8.031.977-11.493 2.704-3.95-9.172-13.068-15.595-23.688-15.595-10.523 0-19.568 6.308-23.575 15.346-3.489-1.763-7.429-2.761-11.605-2.761-14.239 0-25.783 11.543-25.783 25.783 0 1.285.097 2.547.279 3.782-11.125 2.859-19.346 12.956-19.346 24.973 0 14.24 11.543 25.783 25.783 25.783h108.497c14.24 0 25.783-11.543 25.783-25.783-.001-12.004-8.204-22.092-19.31-24.964z" fill="#87796f"/></g></g><g><g><path d="m165.323 106.422c.073-.81.109-1.609.109-2.391 0-15.044-12.239-27.283-27.283-27.283-3.746 0-7.36.743-10.764 2.212-4.601-9.224-14.023-15.103-24.417-15.103-10.269 0-19.639 5.781-24.286 14.854-3.44-1.507-7.099-2.27-10.895-2.27-15.044 0-27.283 12.239-27.283 27.283 0 .89.045 1.789.134 2.688-11.37 3.514-19.201 14.048-19.201 26.065 0 15.044 12.239 27.283 27.283 27.283h108.496c15.044 0 27.283-12.239 27.283-27.283.001-12.001-7.82-22.535-19.176-26.055zm-8.106 50.34h-108.496c-13.39 0-24.283-10.894-24.283-24.283 0-11.091 7.492-20.763 18.22-23.52.743-.191 1.223-.912 1.111-1.672-.175-1.187-.264-2.386-.264-3.563 0-13.39 10.894-24.283 24.283-24.283 3.836 0 7.514.875 10.929 2.601.366.186.794.211 1.181.074.388-.139.701-.43.867-.805 3.893-8.78 12.608-14.454 22.204-14.454 9.71 0 18.468 5.766 22.311 14.688.163.378.476.673.862.815.388.14.816.117 1.186-.067 3.387-1.689 7.028-2.546 10.822-2.546 13.39 0 24.283 10.894 24.283 24.283 0 1.063-.076 2.168-.228 3.284-.102.753.375 1.463 1.11 1.653 10.707 2.768 18.185 12.436 18.185 23.51 0 13.391-10.894 24.285-24.283 24.285z" fill="#3a312a"/></g></g><g><g><path d="m130.381 89.145h120.04v18.833h-120.04z" fill="#d7e057" transform="matrix(.707 -.707 .707 .707 -13.926 163.502)"/></g></g><g><g><path d="m240.561 61.719-13.317-13.317c-.563-.563-1.559-.563-2.121 0l-84.881 84.882c-.281.281-.439.663-.439 1.061 0 .397.158.779.439 1.061l13.317 13.316c.293.293.677.439 1.061.439s.768-.146 1.061-.439l84.881-84.881c.584-.587.584-1.536-.001-2.122zm-85.942 83.82-11.196-11.195 82.76-82.761 11.196 11.196z" fill="#3a312a"/></g></g><g><g><path d="m88.984 22.663h18.833v120.04h-18.833z" fill="#d7e057" transform="matrix(.959 -.283 .283 .959 -19.362 31.194)"/></g></g><g><g><path d="m125.842 137.167-33.94-115.142c-.112-.382-.372-.703-.721-.894-.35-.189-.762-.232-1.142-.121l-18.066 5.325c-.795.234-1.249 1.068-1.014 1.862l33.939 115.142c.112.382.372.703.721.894.223.121.47.183.718.183.143 0 .285-.021.424-.061l18.065-5.325c.796-.235 1.25-1.069 1.016-1.863zm-18.49 3.886-33.09-112.264 15.188-4.477 33.091 112.264z" fill="#3a312a"/></g></g><g><g><path d="m223.421 129.762h-190.842c-5.497 0-9.56 5.121-8.31 10.474l10.618 45.485 3.385 14.498 7.621 32.646c.902 3.862 4.344 6.594 8.31 6.594h147.595c3.966 0 7.409-2.732 8.31-6.594l21.624-92.629c1.249-5.354-2.814-10.474-8.311-10.474z" fill="#8ac6dd"/></g></g><g><g><path d="m231.281 132.059c-1.914-2.413-4.779-3.797-7.859-3.797h-190.844c-3.08 0-5.945 1.384-7.859 3.797-1.915 2.413-2.611 5.518-1.911 8.518l10.618 45.484c.189.807.996 1.306 1.802 1.12.807-.188 1.309-.995 1.12-1.802l-10.618-45.484c-.491-2.104-.003-4.279 1.339-5.971s3.351-2.662 5.51-2.662h190.844c2.159 0 4.168.97 5.51 2.662 1.342 1.691 1.83 3.867 1.339 5.971l-21.624 92.63c-.747 3.199-3.563 5.434-6.849 5.434h-147.597c-3.286 0-6.102-2.234-6.849-5.434l-7.621-32.646c-.189-.807-.992-1.307-1.802-1.12-.807.189-1.309.995-1.12 1.802l7.621 32.646c1.066 4.564 5.083 7.752 9.771 7.752h147.596c4.688 0 8.705-3.188 9.771-7.752l21.624-92.63c.7-3.001.003-6.105-1.912-8.518z" fill="#3a312a"/></g></g><g><g><circle cx="128" cy="191.762" fill="#ef6d7a" r="32.5"/></g></g><g><g><path d="m128 157.762c-18.748 0-34 15.252-34 34s15.252 34 34 34 34-15.252 34-34-15.252-34-34-34zm0 65c-17.094 0-31-13.906-31-31s13.906-31 31-31 31 13.906 31 31c0 17.093-13.906 31-31 31z" fill="#3a312a"/></g></g><g><g><path d="m228.5 121.762h-201c-6.075 0-11 4.925-11 11s4.925 11 11 11h201c6.075 0 11-4.925 11-11s-4.925-11-11-11z" fill="#8ac6dd"/></g></g><g><g><path d="m228.5 120.262h-201c-6.893 0-12.5 5.607-12.5 12.5s5.607 12.5 12.5 12.5h61.262c.828 0 1.5-.672 1.5-1.5s-.672-1.5-1.5-1.5h-61.262c-5.238 0-9.5-4.262-9.5-9.5s4.262-9.5 9.5-9.5h201c5.238 0 9.5 4.262 9.5 9.5s-4.262 9.5-9.5 9.5h-125.644c-.828 0-1.5.672-1.5 1.5s.672 1.5 1.5 1.5h125.644c6.893 0 12.5-5.607 12.5-12.5s-5.607-12.5-12.5-12.5z" fill="#3a312a"/></g></g><g><g><path d="m26.99 145.262h.51c-.18 0-.35-.02-.52-.03zm201.51 0h-14.49l-20.36 87.26c-.75 3.2-3.57 5.44-6.85 5.44h15c3.28 0 6.1-2.24 6.85-5.44l20.37-87.29c-.17.01-.34.03-.52.03z" fill="#6ca8bf"/></g></g><g><g><path d="m228.5 123.262h-15c5.24 0 9.5 4.26 9.5 9.5s-4.26 9.5-9.5 9.5h15c5.24 0 9.5-4.26 9.5-9.5 0-5.241-4.26-9.5-9.5-9.5z" fill="#6ca8bf"/></g></g><g><g><path d="m213.5 145.262h.51l.01-.03c-.17.01-.34.03-.52.03z" fill="#6ca8bf"/></g></g></g></svg>