<svg id="Layer_1" enable-background="new 0 0 256 256" height="512" viewBox="0 0 256 256" width="512" xmlns="http://www.w3.org/2000/svg"><g><g><g><path d="m230.602 82.838c-4.64-5.2-7.61-11.66-8.54-18.56l-4.31-33.01h-18.79l-4.33 33.01c-.94 6.9-3.91 13.37-8.55 18.57-5.71 6.39-8.86 14.67-8.86 23.24v123.31c0 5.57 4.51 10.08 10.09 10.08h42.07c5.57 0 10.09-4.51 10.09-10.08v-124.07c0-8.35-3.32-16.26-8.87-22.49z" fill="#f3dec3"/></g></g><g><g><path d="m231.721 81.839c-4.452-4.99-7.278-11.132-8.172-17.756l-4.31-33.01c-.098-.747-.734-1.306-1.487-1.306h-18.79c-.753 0-1.39.558-1.487 1.305l-4.329 33.002c-.905 6.643-3.734 12.789-8.182 17.773-5.96 6.669-9.242 15.278-9.242 24.239v123.31c0 6.385 5.199 11.58 11.59 11.58h5.953c.828 0 1.5-.671 1.5-1.5s-.672-1.5-1.5-1.5h-5.953c-4.736 0-8.59-3.849-8.59-8.58v-123.31c0-8.223 3.011-16.121 8.48-22.241 4.848-5.433 7.931-12.129 8.918-19.374l4.159-31.705h16.156l4.141 31.71c.975 7.226 4.055 13.919 8.906 19.357 5.475 6.146 8.49 13.779 8.49 21.493v124.07c0 4.731-3.854 8.58-8.59 8.58h-22.637c-.828 0-1.5.671-1.5 1.5s.672 1.5 1.5 1.5h22.637c6.391 0 11.59-5.195 11.59-11.58v-124.07c0-8.448-3.286-16.79-9.251-23.487z" fill="#3a312a"/></g></g><g><g><path d="m217.781 16.376h-18.882c-2.467 0-4.467 2-4.467 4.466v5.955c0 2.467 2 4.467 4.467 4.467h18.882c2.467 0 4.466-2 4.466-4.467v-5.955c0-2.466-2-4.466-4.466-4.466z" fill="#87796f"/></g></g><g><g><path d="m217.781 14.876h-18.883c-3.29 0-5.966 2.677-5.966 5.967v5.955c0 3.29 2.676 5.966 5.966 5.966h18.883c3.29 0 5.966-2.676 5.966-5.966v-5.955c0-3.29-2.676-5.967-5.966-5.967zm2.966 11.922c0 1.636-1.33 2.966-2.966 2.966h-18.883c-1.636 0-2.966-1.331-2.966-2.966v-5.955c0-1.636 1.33-2.967 2.966-2.967h18.883c1.636 0 2.966 1.331 2.966 2.967z" fill="#3a312a"/></g></g><g><g><path d="m217.752 31.268h-18.79l-4.2 32.05h27.17z" fill="#d5dc57"/></g></g><g><g><path d="m223.419 63.124-4.18-32.05c-.098-.747-.733-1.306-1.487-1.306h-18.79c-.753 0-1.39.559-1.487 1.305l-4.2 32.05c-.056.428.075.859.359 1.184.285.325.696.511 1.128.511h27.17c.432 0 .843-.186 1.127-.51.285-.325.416-.756.36-1.184zm-26.948-1.306 3.808-29.05h16.156l3.789 29.05z" fill="#3a312a"/></g></g><g><g><path d="m177.222 124.418h62.25v78.99h-62.25z" fill="#87796f"/></g></g><g><g><path d="m239.472 122.918h-37.313c-.828 0-1.5.671-1.5 1.5s.672 1.5 1.5 1.5h35.813v75.99h-59.25v-75.99h10.132c.828 0 1.5-.671 1.5-1.5s-.672-1.5-1.5-1.5h-11.632c-.828 0-1.5.671-1.5 1.5v78.99c0 .829.672 1.5 1.5 1.5h62.25c.828 0 1.5-.671 1.5-1.5v-78.99c0-.829-.672-1.5-1.5-1.5z" fill="#3a312a"/></g></g><g><g><path d="m222.972 204.908v24.49c0 4.73-3.85 8.58-8.59 8.58h15c4.74 0 8.59-3.85 8.59-8.58v-24.49z" fill="#decaad"/></g></g><g><g><path d="m229.482 83.838c-4.78-5.35-7.82-11.93-8.85-19.02h-15c1.03 7.09 4.07 13.67 8.85 19.02 5.47 6.14 8.49 13.78 8.49 21.49v17.59h15v-17.59c0-7.71-3.02-15.35-8.49-21.49z" fill="#decaad"/></g></g><g><g><path d="m216.432 32.768h-15l3.79 29.05h15z" fill="#b9c239"/></g></g><g><g><circle cx="208.352" cy="164.184" fill="#d4db56" r="20"/></g></g><g><g><path d="m208.352 142.684c-11.855 0-21.5 9.645-21.5 21.5s9.645 21.5 21.5 21.5 21.5-9.645 21.5-21.5-9.645-21.5-21.5-21.5zm0 40c-10.201 0-18.5-8.299-18.5-18.5s8.299-18.5 18.5-18.5 18.5 8.299 18.5 18.5-8.299 18.5-18.5 18.5z" fill="#3a312a"/></g></g><g><g><path d="m222.972 125.918v22.52c4.23 3.93 6.88 9.53 6.88 15.75 0 6.21-2.65 11.82-6.88 15.74v21.98h15v-75.99z" fill="#695b51"/></g></g><g><g><path d="m47.455 26.134c-.974 11.564-13.031 13.389-13.031 13.389 10.352.487 12.932 14.06 12.932 14.06.221-9.677 13.328-14.202 13.328-14.202-9.819-.587-13.229-13.247-13.229-13.247z" fill="#d4d853"/></g></g><g><g><path d="m60.773 37.883c-8.61-.515-11.839-12.025-11.871-12.141-.191-.702-.864-1.173-1.583-1.101-.725.066-1.298.642-1.359 1.367-.86 10.215-11.32 11.963-11.761 12.033-.763.115-1.313.79-1.273 1.561.04.77.657 1.384 1.428 1.421 9.033.425 11.505 12.718 11.529 12.842.137.711.759 1.217 1.472 1.217.041 0 .084-.001.126-.005.764-.064 1.356-.693 1.374-1.459.195-8.508 12.198-12.777 12.319-12.819.676-.235 1.092-.914.995-1.623-.098-.709-.681-1.25-1.396-1.293zm-13.572 10.348c-1.357-3.131-3.71-6.909-7.591-8.878 2.933-1.405 6.413-3.914 8.206-8.274 1.551 3.071 4.202 6.881 8.339 8.724-3.01 1.639-6.927 4.406-8.954 8.428z" fill="#3a312a"/></g></g><g><g><path d="m25.745 43.115c-.689 8.179-9.217 9.471-9.217 9.471 7.322.345 9.147 9.944 9.147 9.944.156-6.844 9.427-10.046 9.427-10.046-6.944-.415-9.357-9.369-9.357-9.369z" fill="#d4d853"/></g></g><g><g><path d="m35.191 50.987c-5.769-.345-7.977-8.186-7.998-8.265-.19-.702-.855-1.158-1.582-1.102-.725.065-1.299.643-1.36 1.368-.579 6.871-7.651 8.067-7.947 8.114-.763.115-1.313.79-1.273 1.561.04.77.657 1.384 1.428 1.421 6.039.284 7.728 8.644 7.744 8.726.136.712.759 1.22 1.472 1.22.042 0 .083-.002.125-.005.765-.064 1.358-.694 1.376-1.461.13-5.709 8.336-8.633 8.417-8.662.676-.234 1.094-.913.996-1.622s-.683-1.25-1.398-1.293zm-9.589 6.796c-.924-1.886-2.341-3.948-4.45-5.281 1.857-1.041 3.7-2.63 4.874-4.917 1.058 1.874 2.656 3.956 4.944 5.225-1.851 1.1-3.991 2.74-5.368 4.973z" fill="#3a312a"/></g></g><g><g><path d="m25.745 16.457c-.689 8.179-9.217 9.471-9.217 9.471 7.322.344 9.147 9.944 9.147 9.944.156-6.844 9.427-10.045 9.427-10.045-6.944-.416-9.357-9.37-9.357-9.37z" fill="#d4d853"/></g></g><g><g><path d="m35.191 24.329c-5.769-.345-7.977-8.185-7.998-8.265-.19-.702-.855-1.164-1.582-1.102-.725.065-1.299.643-1.36 1.368-.579 6.871-7.651 8.067-7.947 8.114-.763.115-1.313.79-1.273 1.561.04.77.657 1.384 1.428 1.421 6.039.284 7.728 8.645 7.744 8.727.136.712.759 1.22 1.472 1.22.042 0 .083-.001.125-.005.765-.063 1.358-.694 1.376-1.461.13-5.709 8.336-8.634 8.417-8.662.676-.234 1.094-.913.996-1.622s-.683-1.251-1.398-1.294zm-9.589 6.797c-.924-1.886-2.341-3.948-4.45-5.281 1.857-1.042 3.7-2.631 4.874-4.918 1.058 1.874 2.656 3.955 4.944 5.225-1.85 1.101-3.991 2.741-5.368 4.974z" fill="#3a312a"/></g></g><g><g><path d="m153.865 107.101 10.539-15.541h-72l10.539 15.541c3.497 5.156 3.614 11.864.378 17.188-7.108 11.695-10.917 25.172-10.917 38.984v60.253c0 8.89 7.207 16.097 16.097 16.097h39.806c8.89 0 16.097-7.207 16.097-16.097v-60.254c0-13.812-3.809-27.289-10.917-38.984-3.235-5.323-3.118-12.03.378-17.187z" fill="#87796f"/></g></g><g><g><path d="m154.769 123.51c-2.934-4.828-2.802-10.938.337-15.567l10.539-15.542c.312-.459.344-1.054.084-1.544-.26-.491-.769-.797-1.325-.797h-72c-.555 0-1.065.307-1.325.797-.26.491-.228 1.085.083 1.544l10.539 15.542c3.139 4.629 3.272 10.74.338 15.567-7.285 11.986-11.135 25.736-11.135 39.763v60.253c0 9.703 7.894 17.597 17.597 17.597h39.807c9.703 0 17.597-7.894 17.597-17.597v-60.253c-.001-14.026-3.851-27.776-11.136-39.763zm8.135 100.017c0 8.049-6.548 14.597-14.597 14.597h-39.807c-8.049 0-14.597-6.548-14.597-14.597v-60.253c0-13.478 3.7-26.689 10.699-38.206 3.541-5.828 3.377-13.211-.418-18.809l-8.951-13.2h66.341l-8.951 13.2c-3.796 5.598-3.96 12.981-.419 18.809 7 11.518 10.699 24.729 10.699 38.206v60.253z" fill="#3a312a"/></g></g><g><g><path d="m16.528 168.927v49.13c0 5.432 4.404 9.836 9.836 9.836h44.831c5.432 0 9.836-4.404 9.836-9.836v-49.13z" fill="#fce8cb"/></g></g><g><g><path d="m81.032 167.427h-64.504c-.829 0-1.5.671-1.5 1.5v17.664c0 .829.671 1.5 1.5 1.5s1.5-.671 1.5-1.5v-16.164h61.503v47.63c0 4.597-3.74 8.337-8.336 8.337h-44.831c-4.597 0-8.336-3.74-8.336-8.337v-16.794c0-.829-.671-1.5-1.5-1.5s-1.5.671-1.5 1.5v16.794c0 6.251 5.085 11.337 11.336 11.337h44.831c6.251 0 11.336-5.085 11.336-11.337v-49.13c.001-.828-.671-1.5-1.499-1.5z" fill="#3a312a"/></g></g><g><g><path d="m29.526 227.893h38.508v11.731h-38.508z" fill="#fce8cb"/></g></g><g><g><path d="m68.034 226.394h-38.508c-.829 0-1.5.671-1.5 1.5v11.73c0 .829.671 1.5 1.5 1.5h38.508c.829 0 1.5-.671 1.5-1.5v-11.73c0-.829-.671-1.5-1.5-1.5zm-1.5 11.73h-35.508v-8.73h35.508z" fill="#3a312a"/></g></g><g><g><path d="m35.445 140.156-.472-.406c-2.481-2.134-3.841-4.939-3.83-7.899.011-2.965 1.396-5.767 3.899-7.89l.077-.065c.632-.536.711-1.482.175-2.114-.535-.631-1.48-.71-2.114-.175l-.077.065c-3.184 2.7-4.945 6.311-4.959 10.167-.014 3.851 1.717 7.468 4.873 10.184l.472.406c2.492 2.143 3.852 4.961 3.831 7.933-.021 2.983-1.432 5.794-3.971 7.915-.636.531-.72 1.478-.19 2.113.297.355.723.538 1.152.538.339 0 .68-.114.961-.349 3.226-2.695 5.019-6.316 5.047-10.196.027-3.866-1.703-7.499-4.874-10.227z" fill="#3a312a"/></g></g><g><g><path d="m64.543 140.156-.472-.406c-2.481-2.134-3.841-4.939-3.83-7.899.011-2.965 1.396-5.767 3.899-7.89l.077-.065c.632-.536.71-1.482.175-2.114-.536-.631-1.481-.71-2.114-.175l-.077.065c-3.184 2.7-4.945 6.311-4.959 10.167-.014 3.851 1.717 7.468 4.873 10.184l.472.406c2.492 2.143 3.852 4.961 3.83 7.933-.022 2.983-1.432 5.794-3.971 7.916-.636.531-.72 1.478-.189 2.113.296.355.723.538 1.152.538.339 0 .68-.114.961-.349 3.227-2.695 5.019-6.316 5.047-10.196.027-3.867-1.704-7.5-4.874-10.228z" fill="#3a312a"/></g></g><g><g><path d="m115.07 61.156-.472-.406c-2.481-2.134-3.841-4.94-3.83-7.899.011-2.965 1.396-5.767 3.903-7.893l.076-.065c.63-.538.705-1.484.168-2.115-.539-.631-1.485-.706-2.115-.168l-.073.063c-3.184 2.7-4.945 6.311-4.959 10.167-.014 3.851 1.717 7.468 4.873 10.184l.472.406c2.492 2.144 3.852 4.961 3.83 7.933-.021 2.983-1.432 5.794-3.971 7.915-.636.531-.72 1.478-.189 2.113.297.355.723.538 1.152.538.339 0 .68-.114.961-.349 3.226-2.695 5.019-6.316 5.047-10.196.028-3.867-1.703-7.5-4.873-10.228z" fill="#3a312a"/></g></g><g><g><path d="m144.168 61.157-.472-.407c-2.48-2.134-3.841-4.939-3.83-7.898.01-2.965 1.395-5.767 3.902-7.893l.076-.065c.63-.538.705-1.484.168-2.115-.536-.629-1.481-.707-2.115-.168l-.072.063c-3.185 2.7-4.945 6.312-4.959 10.168-.015 3.851 1.717 7.467 4.872 10.183l.472.407c2.492 2.144 3.851 4.96 3.83 7.932-.021 2.983-1.432 5.795-3.971 7.916-.636.531-.721 1.478-.189 2.113.297.355.723.538 1.152.538.339 0 .68-.114.961-.349 3.227-2.696 5.02-6.317 5.047-10.196.028-3.869-1.702-7.502-4.872-10.229z" fill="#3a312a"/></g></g></g></svg>