<svg id="Layer_1" enable-background="new 0 0 256 256" height="512" viewBox="0 0 256 256" width="512" xmlns="http://www.w3.org/2000/svg"><g><g><g><path d="m78.323 40.151c-16.586 0-30.032 50.896-30.032 94.863s13.446 55.774 30.032 55.774 30.032-11.808 30.032-55.774-13.446-94.863-30.032-94.863z" fill="#d7e057"/></g></g><g><g><path d="m100.996 70.667c-6.158-20.646-14.21-32.016-22.673-32.016s-16.515 11.37-22.673 32.016c-5.547 18.597-8.859 42.651-8.859 64.348 0 38.539 10.314 57.273 31.532 57.273s31.532-18.734 31.532-57.273c0-21.697-3.311-45.751-8.859-64.348zm-22.673 118.621c-7.057 0-28.532 0-28.532-54.273 0-46.245 14.399-93.363 28.532-93.363 14.132 0 28.532 47.118 28.532 93.363 0 54.273-21.475 54.273-28.532 54.273z" fill="#3a312a"/></g></g><g><g><path d="m78.323 40.151c-5.956 0-10.785 50.896-10.785 94.863s4.829 55.774 10.785 55.774c5.957 0 10.785-11.808 10.785-55.774s-4.828-94.863-10.785-94.863z" fill="#d7e057"/></g></g><g><g><path d="m87.441 70.936c-3.458-32.284-7.424-32.284-9.118-32.284-1.693 0-5.66 0-9.118 32.284-1.983 18.516-3.168 42.47-3.168 64.079 0 50.764 6.565 57.273 12.286 57.273 5.72 0 12.285-6.51 12.285-57.273 0-21.61-1.184-45.564-3.167-64.079zm-9.118 118.352c-8.079 0-9.286-34.004-9.286-54.273 0-54.064 5.93-90.564 9.286-93.292 3.356 2.728 9.285 39.228 9.285 93.292 0 20.269-1.206 54.273-9.285 54.273z" fill="#3a312a"/></g></g><g><g><path d="m94.35 55.336h-32.054c-.829 0-1.5.672-1.5 1.5s.671 1.5 1.5 1.5h32.054c.829 0 1.5-.672 1.5-1.5s-.672-1.5-1.5-1.5z" fill="#3a312a"/></g></g><g><g><path d="m100.261 72.021h-43.875c-.829 0-1.5.672-1.5 1.5s.671 1.5 1.5 1.5h43.875c.829 0 1.5-.672 1.5-1.5s-.672-1.5-1.5-1.5z" fill="#3a312a"/></g></g><g><g><path d="m104.131 88.705h-51.616c-.829 0-1.5.672-1.5 1.5s.671 1.5 1.5 1.5h51.617c.829 0 1.5-.672 1.5-1.5s-.672-1.5-1.501-1.5z" fill="#3a312a"/></g></g><g><g><path d="m106.668 105.389h-56.689c-.829 0-1.5.672-1.5 1.5s.671 1.5 1.5 1.5h56.689c.829 0 1.5-.672 1.5-1.5s-.672-1.5-1.5-1.5z" fill="#3a312a"/></g></g><g><g><path d="m108.069 122.073h-59.492c-.829 0-1.5.672-1.5 1.5s.671 1.5 1.5 1.5h59.492c.829 0 1.5-.672 1.5-1.5s-.672-1.5-1.5-1.5z" fill="#3a312a"/></g></g><g><g><path d="m108.288 138.758h-59.93c-.829 0-1.5.672-1.5 1.5s.671 1.5 1.5 1.5h59.93c.829 0 1.5-.672 1.5-1.5s-.671-1.5-1.5-1.5z" fill="#3a312a"/></g></g><g><g><path d="m106.944 155.442h-57.242c-.829 0-1.5.672-1.5 1.5s.671 1.5 1.5 1.5h57.242c.829 0 1.5-.672 1.5-1.5s-.672-1.5-1.5-1.5z" fill="#3a312a"/></g></g><g><g><path d="m102.568 172.127h-48.49c-.829 0-1.5.672-1.5 1.5s.671 1.5 1.5 1.5h48.49c.829 0 1.5-.672 1.5-1.5s-.672-1.5-1.5-1.5z" fill="#3a312a"/></g></g><g><g><path d="m135.803 86.104c-8.581 0-44.81 33.179-62.975 58.014-19.823 27.1-12.656 42.307-.967 47.187 11.688 4.88 22.25-.354 41.061-28.165 17.787-26.3 35.547-77.036 22.881-77.036z" fill="#fae6ca"/></g></g><g><g><path d="m140.41 87.432c-.982-1.85-2.576-2.828-4.607-2.828-9.876 0-47.253 35.479-64.186 58.629-13.235 18.094-13.774 29.922-11.896 36.658 1.622 5.817 5.728 10.362 11.562 12.798 2.764 1.154 5.432 1.758 8.084 1.758 10.308 0 20.361-9.12 34.798-30.466 15.669-23.17 31.814-66.059 26.245-76.549zm-28.731 74.867c-14.699 21.732-25.836 33.218-39.24 27.622-4.968-2.074-8.458-5.923-9.828-10.836-1.7-6.097-1.097-16.959 11.427-34.081 18.53-25.333 54.249-57.4 61.765-57.4.912 0 1.498.369 1.957 1.235 4.56 8.588-10.065 49.78-26.081 73.46z" fill="#3a312a"/></g></g><g><g><path d="m83.818 144.118c-18.166-24.835-54.395-58.014-62.975-58.014-12.666 0 5.094 50.736 22.881 77.036 18.811 27.812 29.373 33.045 41.061 28.165 11.689-4.881 18.856-20.088-.967-47.187z" fill="#fae6ca"/></g></g><g><g><path d="m85.029 143.232c-16.932-23.149-54.31-58.629-64.186-58.629-2.031 0-3.625.979-4.607 2.828-5.569 10.49 10.576 53.379 26.246 76.549 14.439 21.347 24.49 30.466 34.798 30.466 2.651 0 5.32-.604 8.084-1.758 5.834-2.436 9.939-6.981 11.562-12.798 1.877-6.736 1.338-18.564-11.897-36.658zm9.006 35.853c-1.37 4.913-4.86 8.762-9.828 10.836-10.152 4.239-19.829 1.078-39.24-27.622-16.016-23.68-30.641-64.872-26.081-73.46.459-.866 1.045-1.235 1.957-1.235 7.516 0 43.234 32.067 61.765 57.4 12.524 17.122 13.127 27.984 11.427 34.081z" fill="#3a312a"/></g></g><g><g><path d="m47.661 26.584c-.974 11.563-13.024 13.389-13.024 13.389 10.347.487 12.925 14.06 12.925 14.06.221-9.677 13.321-14.203 13.321-14.203-9.814-.586-13.222-13.246-13.222-13.246z" fill="#d7e057"/></g></g><g><g><path d="m60.973 38.334c-8.605-.516-11.832-12.025-11.864-12.142-.191-.702-.853-1.155-1.583-1.102-.725.066-1.298.642-1.359 1.367-.86 10.216-11.313 11.964-11.754 12.032-.763.116-1.313.791-1.273 1.561.04.771.657 1.385 1.427 1.421 9.028.426 11.499 12.719 11.523 12.844.137.711.759 1.217 1.472 1.217.042 0 .084-.002.126-.005.764-.064 1.357-.693 1.375-1.46.194-8.509 12.191-12.777 12.313-12.819.675-.234 1.092-.914.994-1.622-.1-.708-.683-1.249-1.397-1.292zm-13.566 10.345c-1.357-3.13-3.709-6.907-7.587-8.876 2.931-1.405 6.409-3.913 8.202-8.273 1.551 3.071 4.199 6.881 8.333 8.723-3.007 1.64-6.922 4.404-8.948 8.426z" fill="#3a312a"/></g></g><g><g><path d="m25.963 43.565c-.689 8.179-9.213 9.47-9.213 9.47 7.318.345 9.142 9.944 9.142 9.944.156-6.844 9.422-10.045 9.422-10.045-6.941-.415-9.351-9.369-9.351-9.369z" fill="#d7e057"/></g></g><g><g><path d="m35.404 51.438c-5.767-.346-7.973-8.187-7.994-8.266-.19-.702-.852-1.165-1.582-1.102-.726.065-1.299.643-1.36 1.368-.579 6.871-7.646 8.066-7.942 8.113-.763.116-1.313.791-1.273 1.561.04.771.657 1.385 1.427 1.421 6.036.284 7.724 8.645 7.739 8.727.135.712.759 1.22 1.472 1.22.042 0 .083-.002.125-.005.765-.063 1.358-.693 1.376-1.461.13-5.709 8.331-8.633 8.413-8.661.676-.233 1.094-.913.996-1.622-.098-.71-.682-1.251-1.397-1.293zm-9.585 6.793c-.924-1.886-2.34-3.947-4.447-5.279 1.856-1.041 3.697-2.63 4.871-4.917 1.057 1.874 2.655 3.955 4.941 5.225-1.85 1.1-3.989 2.739-5.365 4.971z" fill="#3a312a"/></g></g><g><g><path d="m25.963 16.907c-.689 8.179-9.213 9.471-9.213 9.471 7.318.345 9.142 9.944 9.142 9.944.156-6.845 9.422-10.045 9.422-10.045-6.941-.416-9.351-9.37-9.351-9.37z" fill="#d7e057"/></g></g><g><g><path d="m35.404 24.78c-5.767-.346-7.973-8.187-7.994-8.266-.19-.702-.852-1.175-1.582-1.102-.726.065-1.299.643-1.36 1.368-.579 6.871-7.646 8.066-7.942 8.113-.763.116-1.313.791-1.273 1.561.04.771.657 1.385 1.427 1.421 6.036.284 7.724 8.645 7.739 8.727.135.712.759 1.22 1.472 1.22.042 0 .083-.002.125-.005.765-.064 1.358-.693 1.376-1.461.13-5.709 8.331-8.633 8.413-8.661.676-.233 1.094-.913.996-1.622s-.682-1.25-1.397-1.293zm-9.585 6.794c-.924-1.886-2.34-3.947-4.447-5.279 1.856-1.041 3.697-2.63 4.871-4.917 1.057 1.874 2.655 3.955 4.941 5.225-1.85 1.1-3.989 2.739-5.365 4.971z" fill="#3a312a"/></g></g><g><g><path d="m229.264 75.076h-67.503c-5.62 0-10.176 4.556-10.176 10.176v38.573c0 5.62 4.556 10.176 10.176 10.176h67.503c5.62 0 10.176-4.556 10.176-10.176v-38.573c0-5.62-4.556-10.176-10.176-10.176z" fill="#d7e057"/></g></g><g><g><path d="m229.264 73.576h-67.502c-6.439 0-11.676 5.238-11.676 11.677v38.572c0 6.438 5.238 11.676 11.676 11.676h67.502c6.438 0 11.676-5.237 11.676-11.676v-38.572c0-6.439-5.237-11.677-11.676-11.677zm8.676 50.249c0 4.784-3.892 8.676-8.676 8.676h-67.502c-4.784 0-8.676-3.892-8.676-8.676v-38.572c0-4.784 3.892-8.677 8.676-8.677h67.502c4.784 0 8.676 3.893 8.676 8.677z" fill="#3a312a"/></g></g><g><g><path d="m216.11 16.151h-67.503c-5.62 0-10.176 4.557-10.176 10.177v38.572c0 5.621 4.556 10.176 10.176 10.176h67.503c5.62 0 10.176-4.556 10.176-10.176v-38.572c0-5.62-4.556-10.177-10.176-10.177z" fill="#d7e057"/></g></g><g><g><path d="m216.109 14.651h-67.503c-6.438 0-11.676 5.238-11.676 11.677v13.071c0 .828.671 1.5 1.5 1.5s1.5-.672 1.5-1.5v-13.071c0-4.784 3.892-8.677 8.676-8.677h67.503c4.784 0 8.676 3.892 8.676 8.677v38.572c0 4.784-3.892 8.676-8.676 8.676h-67.503c-4.784 0-8.676-3.892-8.676-8.676v-10.663c0-.828-.671-1.5-1.5-1.5s-1.5.672-1.5 1.5v10.663c0 6.438 5.238 11.676 11.676 11.676h67.503c6.438 0 11.676-5.237 11.676-11.676v-38.572c.001-6.438-5.237-11.677-11.676-11.677z" fill="#3a312a"/></g></g><g><g><path d="m219.11 134.001h-67.503c-5.62 0-10.176 4.556-10.176 10.176v38.573c0 5.62 4.556 10.176 10.176 10.176h67.503c5.62 0 10.176-4.556 10.176-10.176v-38.573c0-5.62-4.556-10.176-10.176-10.176z" fill="#d7e057"/></g></g><g><g><path d="m219.109 132.501h-67.503c-6.438 0-11.676 5.238-11.676 11.677v38.572c0 6.439 5.238 11.676 11.676 11.676h67.503c6.438 0 11.676-5.237 11.676-11.676v-38.572c.001-6.439-5.237-11.677-11.676-11.677zm8.677 50.249c0 4.784-3.892 8.676-8.676 8.676h-67.503c-4.784 0-8.676-3.892-8.676-8.676v-38.572c0-4.784 3.892-8.677 8.676-8.677h67.503c4.784 0 8.676 3.893 8.676 8.677z" fill="#3a312a"/></g></g><g><g><path d="m16.56 192.926c0 19.436 15.756 35.191 35.192 35.191h152.497c19.436 0 35.192-15.755 35.192-35.191z" fill="#fce8cb"/></g></g><g><g><path d="m239.44 191.427h-222.88c-.829 0-1.5.672-1.5 1.5 0 20.231 16.46 36.691 36.692 36.691h4.531c.829 0 1.5-.672 1.5-1.5s-.671-1.5-1.5-1.5h-4.531c-18.076 0-32.872-14.307-33.659-32.191h219.815c-.787 17.885-15.583 32.191-33.659 32.191h-133.032c-.829 0-1.5.672-1.5 1.5s.671 1.5 1.5 1.5h133.032c20.232 0 36.692-16.46 36.692-36.691-.001-.828-.672-1.5-1.501-1.5z" fill="#3a312a"/></g></g><g><g><path d="m80.807 228.118h94.387v11.731h-94.387z" fill="#fce8cb"/></g></g><g><g><path d="m175.193 226.618h-94.386c-.829 0-1.5.672-1.5 1.5v11.73c0 .828.671 1.5 1.5 1.5h94.387c.829 0 1.5-.672 1.5-1.5v-11.73c-.001-.828-.672-1.5-1.501-1.5zm-1.5 11.731h-91.386v-8.73h91.387v8.73z" fill="#3a312a"/></g></g><g><g><path d="m223.46 194.428c-.79 17.88-15.58 32.19-33.66 32.19h14.45c18.07 0 32.87-14.31 33.66-32.19z" fill="#decaad"/></g></g></g></svg>