<svg id="Layer_1" enable-background="new 0 0 256 256" height="512" viewBox="0 0 256 256" width="512" xmlns="http://www.w3.org/2000/svg"><g><g><g><path d="m47.533 26.206c-.974 11.564-13.025 13.39-13.025 13.39 10.347.487 12.925 14.059 12.925 14.059.221-9.677 13.321-14.202 13.321-14.202-9.813-.587-13.221-13.247-13.221-13.247z" fill="#d7e057"/></g></g><g><g><path d="m60.844 37.956c-8.605-.516-11.832-12.025-11.864-12.141-.191-.703-.862-1.174-1.583-1.102-.725.066-1.298.642-1.359 1.367-.86 10.216-11.313 11.964-11.755 12.032-.763.116-1.313.791-1.273 1.561.04.771.657 1.385 1.427 1.421 9.028.426 11.499 12.719 11.523 12.844.137.711.759 1.217 1.472 1.217.042 0 .085-.002.127-.005.764-.064 1.357-.693 1.374-1.46.195-8.509 12.192-12.777 12.313-12.819.675-.234 1.092-.914.994-1.622-.098-.709-.682-1.25-1.396-1.293zm-13.566 10.346c-1.356-3.131-3.709-6.908-7.587-8.877 2.931-1.404 6.409-3.913 8.202-8.273 1.551 3.071 4.2 6.881 8.334 8.723-3.007 1.64-6.922 4.405-8.949 8.427z" fill="#3a312a"/></g></g><g><g><path d="m25.834 43.187c-.689 8.179-9.213 9.471-9.213 9.471 7.318.344 9.142 9.944 9.142 9.944.156-6.844 9.422-10.045 9.422-10.045-6.94-.416-9.351-9.37-9.351-9.37z" fill="#d7e057"/></g></g><g><g><path d="m35.275 51.06c-5.766-.346-7.972-8.187-7.994-8.266-.19-.702-.85-1.16-1.582-1.101-.726.065-1.299.643-1.36 1.368-.579 6.871-7.646 8.066-7.942 8.113-.763.116-1.313.791-1.273 1.561.04.771.657 1.385 1.427 1.421 6.035.284 7.724 8.645 7.739 8.727.135.713.759 1.22 1.472 1.22.042 0 .083-.002.125-.005.765-.063 1.358-.693 1.376-1.461.13-5.708 8.331-8.633 8.412-8.661.676-.234 1.094-.913.996-1.622-.097-.71-.681-1.251-1.396-1.294zm-9.584 6.794c-.924-1.886-2.34-3.947-4.447-5.28 1.855-1.041 3.697-2.63 4.871-4.917 1.057 1.874 2.654 3.955 4.941 5.225-1.85 1.1-3.989 2.74-5.365 4.972z" fill="#3a312a"/></g></g><g><g><path d="m25.834 16.529c-.689 8.18-9.213 9.471-9.213 9.471 7.318.344 9.142 9.944 9.142 9.944.156-6.844 9.422-10.045 9.422-10.045-6.94-.416-9.351-9.37-9.351-9.37z" fill="#d7e057"/></g></g><g><g><path d="m35.275 24.402c-5.766-.346-7.972-8.187-7.994-8.266-.19-.701-.85-1.169-1.582-1.101-.726.065-1.299.642-1.36 1.368-.579 6.871-7.646 8.066-7.942 8.113-.763.116-1.313.791-1.273 1.561.04.771.657 1.385 1.427 1.421 6.035.284 7.724 8.645 7.739 8.727.135.713.759 1.22 1.473 1.22.041 0 .083-.002.125-.005.765-.063 1.358-.693 1.376-1.461.13-5.709 8.331-8.633 8.412-8.661.676-.233 1.094-.913.996-1.622-.098-.71-.682-1.251-1.397-1.294zm-9.584 6.794c-.924-1.885-2.34-3.947-4.447-5.279 1.855-1.041 3.697-2.63 4.871-4.917 1.057 1.874 2.654 3.955 4.941 5.225-1.85 1.1-3.989 2.739-5.365 4.971z" fill="#3a312a"/></g></g><g><g><path d="m234.948 59.023-11.828-11.828-10.309-10.31-8.468-8.468c-5.907-5.907-15.485-5.907-21.393 0l-154.607 154.608c-5.907 5.907-5.907 15.485 0 21.392l30.605 30.605c5.907 5.907 15.485 5.907 21.393 0l154.607-154.606c5.907-5.908 5.907-15.486 0-21.393z" fill="#87796f"/></g></g><g><g><path d="m236.009 57.963-11.828-11.828c-.586-.586-1.535-.586-2.121 0s-.586 1.535 0 2.121l11.828 11.828c2.574 2.574 3.991 5.996 3.991 9.636s-1.417 7.062-3.991 9.636l-154.608 154.607c-5.314 5.313-13.958 5.313-19.271 0l-30.606-30.605c-2.574-2.574-3.991-5.996-3.991-9.636s1.417-7.061 3.991-9.636l154.608-154.607c5.314-5.313 13.958-5.313 19.271 0l8.468 8.468c.586.586 1.535.586 2.121 0s.586-1.535 0-2.121l-8.468-8.468c-6.482-6.482-17.031-6.482-23.514 0l-154.607 154.607c-3.141 3.141-4.87 7.316-4.87 11.757s1.729 8.616 4.87 11.757l30.605 30.605c3.241 3.241 7.499 4.862 11.757 4.862 4.257 0 8.516-1.621 11.757-4.862l154.608-154.607c6.483-6.483 6.483-17.032 0-23.514z" fill="#3a312a"/></g></g><g><g><circle cx="130.645" cy="131.721" fill="#87796f" r="107.75"/></g></g><g><g><path d="m130.645 22.471c-60.241 0-109.25 49.01-109.25 109.25s49.009 109.25 109.25 109.25 109.25-49.01 109.25-109.25-49.009-109.25-109.25-109.25zm0 215.5c-58.586 0-106.25-47.663-106.25-106.25s47.664-106.25 106.25-106.25 106.25 47.663 106.25 106.25-47.663 106.25-106.25 106.25z" fill="#3a312a"/></g></g><g><g><path d="m131.645 40.399c-48.26 0-87.772 37.437-91.091 84.853l.133 14.596c4.113 46.628 43.262 83.195 90.958 83.195 50.436 0 91.322-40.886 91.322-91.322s-40.886-91.322-91.322-91.322z" fill="#87796f"/></g></g><g><g><path d="m131.645 38.898c-48.533 0-89.202 37.885-92.587 86.249-.058.826.565 1.543 1.392 1.601.827.063 1.543-.565 1.601-1.392 3.275-46.799 42.63-83.458 89.594-83.458 49.528 0 89.822 40.294 89.822 89.822 0 49.527-40.294 89.821-89.822 89.821-22.598 0-44.192-8.422-60.807-23.715-16.515-15.202-26.692-35.84-28.657-58.111-.073-.826-.807-1.44-1.626-1.362-.825.072-1.435.801-1.362 1.626 2.03 23.018 12.547 44.346 29.614 60.055 17.17 15.804 39.486 24.508 62.838 24.508 51.182 0 92.822-41.64 92.822-92.821 0-51.183-41.639-92.823-92.822-92.823z" fill="#3a312a"/></g></g><g><g><ellipse cx="131.645" cy="131.721" fill="#f7e3c7" rx="70.126" ry="70.126" transform="matrix(.997 -.083 .083 .997 -10.416 11.307)"/></g></g><g><g><path d="m131.645 60.095c-39.495 0-71.626 32.131-71.626 71.626s32.131 71.626 71.626 71.626 71.626-32.131 71.626-71.626-32.131-71.626-71.626-71.626zm0 140.252c-37.84 0-68.626-30.785-68.626-68.626s30.786-68.626 68.626-68.626 68.626 30.785 68.626 68.626-30.785 68.626-68.626 68.626z" fill="#3a312a"/></g></g><g><g><circle cx="106.371" cy="174.274" fill="#d7e057" r="9"/></g></g><g><g><path d="m106.372 163.773c-5.79 0-10.5 4.71-10.5 10.5s4.71 10.5 10.5 10.5 10.5-4.71 10.5-10.5-4.711-10.5-10.5-10.5zm0 18c-4.136 0-7.5-3.364-7.5-7.5s3.364-7.5 7.5-7.5 7.5 3.364 7.5 7.5-3.365 7.5-7.5 7.5z" fill="#3a312a"/></g></g><g><g><circle cx="129.371" cy="115.274" fill="#d7e057" r="9"/></g></g><g><g><path d="m129.372 104.773c-5.79 0-10.5 4.71-10.5 10.5s4.71 10.5 10.5 10.5 10.5-4.71 10.5-10.5-4.711-10.5-10.5-10.5zm0 18c-4.136 0-7.5-3.364-7.5-7.5s3.364-7.5 7.5-7.5 7.5 3.364 7.5 7.5-3.365 7.5-7.5 7.5z" fill="#3a312a"/></g></g><g><g><circle cx="161.371" cy="173.274" fill="#d7e057" r="9"/></g></g><g><g><path d="m161.372 162.773c-5.79 0-10.5 4.71-10.5 10.5s4.71 10.5 10.5 10.5 10.5-4.71 10.5-10.5-4.711-10.5-10.5-10.5zm0 18c-4.136 0-7.5-3.364-7.5-7.5s3.364-7.5 7.5-7.5 7.5 3.364 7.5 7.5-3.365 7.5-7.5 7.5z" fill="#3a312a"/></g></g><g><g><path d="m111.371 78.274h25v15h-25z" fill="#ef6d7a"/></g></g><g><g><path d="m136.372 76.773h-25c-.829 0-1.5.672-1.5 1.5v15c0 .828.671 1.5 1.5 1.5h25c.829 0 1.5-.672 1.5-1.5v-15c0-.828-.672-1.5-1.5-1.5zm-1.5 15h-22v-12h22z" fill="#3a312a"/></g></g><g><g><path d="m71.371 130.274h25v15h-25z" fill="#ef6d7a" transform="matrix(.799 -.601 .601 .799 -65.971 78.081)"/></g></g><g><g><path d="m99.568 135.352-9.016-11.987c-.498-.663-1.439-.796-2.1-.298l-19.979 15.026c-.662.498-.795 1.438-.297 2.101l9.016 11.988c.239.318.595.528.989.584.07.01.14.015.21.015.323 0 .64-.104.902-.301l19.98-15.027c.318-.239.528-.596.583-.989.054-.394-.049-.794-.288-1.112zm-20.881 13.829-7.213-9.591 17.582-13.223 7.213 9.59z" fill="#3a312a"/></g></g><g><g><path d="m163.371 122.274h25v15h-25z" fill="#ef6d7a" transform="matrix(.14 -.99 .99 .14 22.742 285.733)"/></g></g><g><g><path d="m186.247 117.546c-.239-.318-.595-.528-.989-.584l-14.852-2.101c-.823-.118-1.58.455-1.695 1.275l-3.502 24.753c-.116.82.455 1.579 1.275 1.695l14.852 2.101c.07.01.14.015.21.015.323 0 .64-.105.902-.301.318-.239.528-.595.583-.989l3.502-24.754c.056-.392-.047-.793-.286-1.11zm-5.976 23.96-11.882-1.682 3.082-21.782 11.882 1.681z" fill="#3a312a"/></g></g><g><g><path d="m122.371 136.274h25v15h-25z" fill="#ef6d7a" transform="matrix(.956 -.295 .295 .956 -36.418 46.198)"/></g></g><g><g><path d="m150.461 146.809-4.426-14.332c-.244-.792-1.085-1.23-1.876-.991l-23.887 7.377c-.38.118-.698.382-.884.733-.186.352-.225.763-.107 1.143l4.426 14.332c.199.645.792 1.058 1.433 1.058.146 0 .296-.021.443-.066l23.887-7.377c.38-.118.698-.382.884-.733.186-.353.225-.764.107-1.144zm-24.329 5.943-3.541-11.466 21.02-6.491 3.541 11.466z" fill="#3a312a"/></g></g><g><g><path d="m175.432 94.213c-.586-.586-1.535-.586-2.121 0l-5 5c-.586.586-.586 1.535 0 2.121.293.293.677.439 1.061.439s.768-.146 1.061-.439l5-5c.585-.586.585-1.535-.001-2.121z" fill="#3a312a"/></g></g><g><g><path d="m90.932 106.713-5-5c-.586-.586-1.535-.586-2.121 0s-.586 1.535 0 2.121l5 5c.293.293.677.439 1.061.439s.768-.146 1.061-.439c.585-.586.585-1.535-.001-2.121z" fill="#3a312a"/></g></g><g><g><path d="m137.907 187.773h-7.071c-.829 0-1.5.672-1.5 1.5s.671 1.5 1.5 1.5h7.071c.829 0 1.5-.672 1.5-1.5s-.672-1.5-1.5-1.5z" fill="#3a312a"/></g></g><g><g><path d="m85.907 156.773h-7.071c-.829 0-1.5.672-1.5 1.5s.671 1.5 1.5 1.5h7.071c.829 0 1.5-.672 1.5-1.5s-.672-1.5-1.5-1.5z" fill="#3a312a"/></g></g><g><g><path d="m183.932 160.713-5-5c-.586-.586-1.535-.586-2.121 0s-.586 1.535 0 2.121l5 5c.293.293.677.439 1.061.439s.768-.146 1.061-.439c.585-.586.585-1.535-.001-2.121z" fill="#3a312a"/></g></g><g><g><path d="m109.372 138.238c-.829 0-1.5.672-1.5 1.5v7.071c0 .828.671 1.5 1.5 1.5s1.5-.672 1.5-1.5v-7.071c0-.828-.672-1.5-1.5-1.5z" fill="#3a312a"/></g></g><g><g><path d="m156.907 108.773h-7.071c-.829 0-1.5.672-1.5 1.5s.671 1.5 1.5 1.5h7.071c.829 0 1.5-.672 1.5-1.5s-.672-1.5-1.5-1.5z" fill="#3a312a"/></g></g><g><g><path d="m147.932 79.713-5-5c-.586-.586-1.535-.586-2.121 0s-.586 1.535 0 2.121l5 5c.293.293.677.439 1.061.439s.768-.146 1.061-.439c.585-.586.585-1.535-.001-2.121z" fill="#3a312a"/></g></g><g><g><path d="m131.641 41.894c-2.53 0-5.03.1-7.5.31 46.04 3.83 82.33 42.52 82.33 89.52 0 46.99-36.29 85.69-82.33 89.51 2.47.21 4.97.31 7.5.31 49.53 0 89.83-40.3 89.83-89.82 0-49.53-40.3-89.83-89.83-89.83z" fill="#695b51"/></g></g></g></svg>