<svg id="Layer_1" enable-background="new 0 0 256 256" height="512" viewBox="0 0 256 256" width="512" xmlns="http://www.w3.org/2000/svg"><g><g><g><path d="m128.053 149.942c-3.38 0-6.63-.54-9.67-1.53v20.547h.003v15.845c-.001 0-.002 0-.003 0v54.577h19.34v-90.97c-3.039.991-6.289 1.531-9.67 1.531z" fill="#87796f"/></g></g><g><g><path d="m138.605 147.198c-.389-.283-.89-.361-1.346-.212-5.935 1.933-12.476 1.933-18.412 0-.457-.149-.958-.07-1.346.212-.389.282-.619.733-.619 1.214v20.547c0 .829.675 1.5 1.503 1.5.829 0 1.498-.671 1.498-1.5 0-.024 0-.048-.001-.072v-18.476c5.322 1.371 11.02 1.371 16.34 0v87.471h-16.34v-53.005c.001-.024.001-.048.001-.072 0-.829-.673-1.5-1.501-1.5s-1.5.671-1.5 1.5v54.578c0 .829.671 1.5 1.5 1.5h19.34c.829 0 1.5-.671 1.5-1.5v-90.97c.002-.481-.228-.933-.617-1.215z" fill="#3a312a"/></g></g><g><g><path d="m152.681 56.587c-3.662 0-6.631 2.969-6.631 6.631v36.797c0 3.139-2.544 5.683-5.683 5.683-3.139 0-5.683-2.545-5.683-5.683v-36.798c0-3.662-2.969-6.631-6.631-6.631s-6.631 2.969-6.631 6.631v36.797c0 3.139-2.544 5.683-5.683 5.683-3.139 0-5.683-2.545-5.683-5.683v-36.797c0-3.662-2.969-6.631-6.631-6.631s-6.631 2.969-6.631 6.631v55.467c0 17.263 13.995 31.258 31.258 31.258 17.264 0 31.259-13.995 31.259-31.258v-55.467c.001-3.662-2.968-6.63-6.63-6.63z" fill="#87796f"/></g></g><g><g><path d="m152.681 55.086c-4.483 0-8.13 3.647-8.13 8.131v36.797c0 2.307-1.877 4.184-4.184 4.184s-4.183-1.877-4.183-4.184v-36.797c0-4.483-3.647-8.131-8.131-8.131-4.483 0-8.13 3.647-8.13 8.131v36.797c0 2.307-1.877 4.184-4.184 4.184s-4.183-1.877-4.183-4.184v-36.797c0-4.483-3.647-8.131-8.13-8.131s-8.131 3.647-8.131 8.131v55.467c0 18.064 14.695 32.759 32.758 32.759s32.759-14.695 32.759-32.759v-55.467c0-4.483-3.647-8.131-8.131-8.131zm5.131 63.598c0 16.409-13.35 29.759-29.759 29.759s-29.758-13.35-29.758-29.759v-55.467c0-2.829 2.302-5.131 5.131-5.131s5.13 2.302 5.13 5.131v36.797c0 3.961 3.223 7.184 7.184 7.184s7.183-3.223 7.183-7.184v-36.797c0-2.829 2.301-5.131 5.13-5.131s5.131 2.302 5.131 5.131v36.797c0 3.961 3.223 7.184 7.184 7.184s7.183-3.223 7.183-7.184v-36.797c0-2.829 2.301-5.131 5.13-5.131s5.131 2.302 5.131 5.131z" fill="#3a312a"/></g></g><g><g><path d="m47.524 140.862c-.974 11.564-13.024 13.39-13.024 13.39 10.347.487 12.925 14.059 12.925 14.059.221-9.677 13.321-14.202 13.321-14.202-9.813-.587-13.222-13.247-13.222-13.247z" fill="#d7e057"/></g></g><g><g><path d="m60.836 152.611c-8.605-.515-11.832-12.024-11.864-12.141-.19-.702-.849-1.158-1.583-1.102-.725.066-1.298.642-1.359 1.367-.86 10.215-11.313 11.964-11.754 12.033-.763.115-1.313.79-1.273 1.561.04.77.657 1.384 1.428 1.421 9.028.425 11.499 12.718 11.522 12.842.137.711.759 1.217 1.472 1.217.042 0 .084-.002.126-.005.764-.064 1.357-.693 1.375-1.46.194-8.509 12.191-12.777 12.313-12.819.675-.235 1.092-.914.994-1.623-.1-.707-.683-1.248-1.397-1.291zm-13.566 10.346c-1.357-3.13-3.709-6.907-7.587-8.876 2.931-1.405 6.409-3.913 8.202-8.272 1.551 3.071 4.199 6.88 8.333 8.722-3.007 1.639-6.922 4.405-8.948 8.426z" fill="#3a312a"/></g></g><g><g><path d="m25.826 157.843c-.689 8.179-9.212 9.471-9.212 9.471 7.318.344 9.142 9.944 9.142 9.944.156-6.844 9.422-10.045 9.422-10.045-6.942-.416-9.352-9.37-9.352-9.37z" fill="#d7e057"/></g></g><g><g><path d="m35.268 165.715c-5.767-.345-7.973-8.186-7.994-8.265-.19-.702-.857-1.164-1.582-1.102-.726.065-1.299.642-1.36 1.368-.579 6.871-7.646 8.067-7.942 8.114-.763.115-1.314.79-1.274 1.561.04.77.657 1.384 1.428 1.421 6.035.284 7.723 8.644 7.739 8.726.135.713.759 1.22 1.472 1.22.042 0 .083-.001.125-.005.765-.063 1.358-.694 1.376-1.461.13-5.71 8.331-8.634 8.413-8.662.676-.234 1.094-.913.996-1.622-.099-.709-.683-1.25-1.397-1.293zm-9.585 6.795c-.924-1.885-2.34-3.947-4.447-5.28 1.856-1.041 3.697-2.63 4.871-4.916 1.057 1.874 2.655 3.954 4.941 5.224-1.85 1.1-3.989 2.739-5.365 4.972z" fill="#3a312a"/></g></g><g><g><path d="m25.826 131.185c-.689 8.179-9.212 9.471-9.212 9.471 7.318.344 9.142 9.944 9.142 9.944.156-6.845 9.422-10.045 9.422-10.045-6.942-.416-9.352-9.37-9.352-9.37z" fill="#d7e057"/></g></g><g><g><path d="m35.268 139.057c-5.767-.345-7.973-8.186-7.994-8.265-.19-.702-.857-1.165-1.582-1.102-.726.065-1.299.642-1.36 1.368-.579 6.871-7.646 8.067-7.942 8.114-.763.115-1.313.79-1.274 1.561.04.77.657 1.384 1.427 1.421 6.036.284 7.724 8.644 7.739 8.726.135.713.759 1.22 1.472 1.22.042 0 .083-.001.125-.005.765-.064 1.358-.694 1.376-1.461.13-5.709 8.332-8.634 8.413-8.662.677-.234 1.094-.913.996-1.622-.098-.708-.682-1.25-1.396-1.293zm-9.585 6.795c-.924-1.886-2.34-3.947-4.447-5.28 1.856-1.042 3.697-2.63 4.871-4.917 1.057 1.874 2.655 3.954 4.941 5.224-1.85 1.101-3.989 2.742-5.365 4.973z" fill="#3a312a"/></g></g><g><g><path d="m232.108 33.918-13.443 7.762c-3.235 1.868-3.235 6.537 0 8.404l13.443 7.762c3.235 1.868 7.278-.467 7.278-4.202v-15.524c.001-3.735-4.043-6.07-7.278-4.202z" fill="#f16c7a"/></g></g><g><g><path d="m237.71 32.619c-1.988-1.147-4.363-1.148-6.352 0l-13.443 7.762c-1.989 1.148-3.176 3.204-3.176 5.501 0 2.296 1.188 4.353 3.176 5.501l13.443 7.761c.995.574 2.085.861 3.176.861s2.182-.287 3.176-.861c1.988-1.148 3.176-3.205 3.176-5.501v-15.523c.001-2.296-1.187-4.353-3.176-5.501zm.177 21.025c0 1.212-.626 2.297-1.676 2.903s-2.303.606-3.352 0l-13.443-7.761c-1.049-.606-1.676-1.691-1.676-2.903s.627-2.297 1.676-2.903l13.443-7.762c1.05-.605 2.303-.605 3.352 0 1.05.606 1.676 1.691 1.676 2.903z" fill="#3a312a"/></g></g><g><g><path d="m37.335 41.68-13.444-7.762c-3.235-1.868-7.278.467-7.278 4.202v15.523c0 3.735 4.043 6.07 7.278 4.202l13.444-7.762c3.235-1.867 3.235-6.536 0-8.403z" fill="#f16c7a"/></g></g><g><g><path d="m38.085 40.381-13.443-7.762c-1.989-1.148-4.363-1.148-6.352 0s-3.176 3.205-3.176 5.501v15.524c0 2.296 1.188 4.353 3.176 5.501.995.574 2.085.861 3.176.861s2.182-.287 3.176-.861l13.443-7.761c1.989-1.148 3.176-3.205 3.176-5.501 0-2.298-1.187-4.354-3.176-5.502zm-1.5 8.404-13.443 7.761c-1.05.606-2.303.606-3.352 0s-1.676-1.691-1.676-2.903v-15.523c0-1.212.626-2.297 1.676-2.903.524-.303 1.1-.454 1.676-.454s1.151.151 1.676.454l13.443 7.762c1.049.606 1.676 1.691 1.676 2.903s-.627 2.297-1.676 2.903z" fill="#3a312a"/></g></g><g><g><path d="m192.29 16.618h-128.473c-16.162 0-29.263 13.102-29.263 29.263 0 16.162 13.102 29.263 29.263 29.263h128.473c16.162 0 29.263-13.101 29.263-29.263 0-16.161-13.101-29.263-29.263-29.263z" fill="#f16c7a"/></g></g><g><g><path d="m192.29 15.118h-128.473c-16.963 0-30.764 13.8-30.764 30.764 0 16.963 13.8 30.763 30.764 30.763h8.869c.829 0 1.5-.671 1.5-1.5s-.671-1.5-1.5-1.5h-8.869c-15.309 0-27.764-12.455-27.764-27.763 0-15.309 12.455-27.764 27.764-27.764h128.473c15.309 0 27.763 12.455 27.763 27.764s-12.455 27.763-27.763 27.763h-105.277c-.829 0-1.5.671-1.5 1.5s.671 1.5 1.5 1.5h105.277c16.963 0 30.763-13.8 30.763-30.763 0-16.963-13.8-30.764-30.763-30.764z" fill="#3a312a"/></g></g><g><g><path d="m72.803 16.622-7.2 17.97c-1.05 2.62.23 5.6 2.85 6.65 2.62 1.06 5.6-.22 6.65-2.84l8.73-21.78z" fill="#87796f"/></g></g><g><g><path d="m85.076 15.781c-.279-.413-.744-.66-1.242-.66h-11.03c-.613 0-1.164.373-1.393.942l-7.199 17.97c-.657 1.639-.635 3.438.062 5.063s1.983 2.881 3.618 3.536c.798.323 1.635.484 2.471.484.876 0 1.752-.177 2.584-.531 1.63-.694 2.89-1.981 3.549-3.625l8.73-21.78c.185-.463.129-.987-.15-1.399zm-11.365 22.063c-.36.898-1.049 1.602-1.94 1.981-.887.378-1.865.386-2.759.024-.897-.359-1.6-1.046-1.981-1.934-.381-.889-.394-1.87-.035-2.765l6.822-17.028h7.798z" fill="#3a312a"/></g></g><g><g><path d="m107.233 16.622-7.2 17.97c-1.05 2.62.22 5.6 2.85 6.65 2.62 1.06 5.6-.22 6.65-2.84l8.72-21.78z" fill="#87796f"/></g></g><g><g><path d="m119.496 15.781c-.279-.412-.744-.659-1.242-.659h-11.02c-.613 0-1.165.373-1.393.942l-7.199 17.97c-.658 1.642-.637 3.44.06 5.066.696 1.624 1.984 2.879 3.62 3.533.798.323 1.635.484 2.471.484.877 0 1.753-.177 2.585-.531 1.63-.694 2.891-1.981 3.55-3.626l8.72-21.78c.183-.463.127-.987-.152-1.399zm-11.354 22.063c-.36.898-1.049 1.602-1.94 1.981-.886.377-1.865.386-2.762.023-.897-.358-1.601-1.044-1.981-1.931-.38-.888-.392-1.871-.032-2.769l6.822-17.028h7.789z" fill="#3a312a"/></g></g><g><g><path d="m141.663 16.622-7.2 17.97c-1.06 2.62.22 5.6 2.84 6.65 2.63 1.06 5.6-.22 6.66-2.84l8.72-21.78z" fill="#87796f"/></g></g><g><g><path d="m153.926 15.781c-.279-.412-.744-.659-1.242-.659h-11.02c-.613 0-1.165.373-1.393.942l-7.198 17.966c-.662 1.635-.645 3.431.047 5.056.694 1.629 1.981 2.89 3.623 3.547.805.325 1.638.479 2.458.479 2.62 0 5.11-1.57 6.155-4.152l8.72-21.78c.185-.463.129-.987-.15-1.399zm-11.353 22.058c-.75 1.853-2.861 2.755-4.712 2.01-.898-.36-1.602-1.048-1.981-1.939-.377-.886-.386-1.865-.024-2.76l6.823-17.028h7.789z" fill="#3a312a"/></g></g><g><g><path d="m176.083 16.622-7.2 17.97c-1.05 2.62.22 5.6 2.85 6.65 2.62 1.06 5.6-.22 6.65-2.84l8.73-21.78z" fill="#87796f"/></g></g><g><g><path d="m188.355 15.781c-.279-.413-.744-.66-1.242-.66h-11.03c-.613 0-1.165.373-1.393.942l-7.2 17.97c-.658 1.642-.636 3.441.061 5.066.696 1.624 1.984 2.88 3.62 3.533.798.323 1.635.484 2.471.484.877 0 1.753-.177 2.585-.532 1.629-.694 2.89-1.981 3.548-3.625l8.73-21.78c.186-.462.13-.986-.15-1.398zm-11.364 22.063c-.36.898-1.048 1.602-1.939 1.981-.887.377-1.866.386-2.762.023-.897-.358-1.601-1.044-1.981-1.931-.381-.888-.393-1.871-.033-2.768l6.823-17.028h7.797z" fill="#3a312a"/></g></g><g><g><path d="m192.294 18.122h-4.16l-.76 1.9c10.34 4.03 17.68 14.1 17.68 25.86 0 15.31-12.45 27.76-27.76 27.76h15c15.31 0 27.76-12.45 27.76-27.76-.001-15.31-12.45-27.76-27.76-27.76z" fill="#d34e5c"/></g></g></g></svg>