<svg id="Layer_1" enable-background="new 0 0 256 256" height="512" viewBox="0 0 256 256" width="512" xmlns="http://www.w3.org/2000/svg"><g><g><g><path d="m47.673 26.255c-.974 11.564-13.025 13.39-13.025 13.39 10.347.487 12.925 14.059 12.925 14.059.221-9.677 13.321-14.202 13.321-14.202-9.813-.587-13.221-13.247-13.221-13.247z" fill="#d7e057"/></g></g><g><g><path d="m60.984 38.005c-8.605-.515-11.832-12.025-11.863-12.141-.191-.703-.861-1.164-1.583-1.102-.725.066-1.298.642-1.359 1.367-.86 10.215-11.313 11.963-11.754 12.031-.763.116-1.313.791-1.273 1.561.04.771.657 1.385 1.427 1.421 9.028.426 11.499 12.719 11.523 12.844.137.711.759 1.217 1.472 1.217.042 0 .084-.002.126-.005.764-.064 1.357-.693 1.374-1.46.194-8.509 12.191-12.777 12.313-12.819.675-.234 1.092-.914.994-1.622-.099-.709-.683-1.25-1.397-1.292zm-13.566 10.346c-1.357-3.131-3.709-6.908-7.587-8.877 2.931-1.404 6.409-3.913 8.202-8.272 1.551 3.071 4.2 6.88 8.334 8.723-3.007 1.638-6.922 4.404-8.949 8.426z" fill="#3a312a"/></g></g><g><g><path d="m25.974 43.236c-.689 8.179-9.212 9.471-9.212 9.471 7.318.344 9.142 9.944 9.142 9.944.156-6.845 9.422-10.046 9.422-10.046-6.941-.415-9.352-9.369-9.352-9.369z" fill="#d7e057"/></g></g><g><g><path d="m35.415 51.108c-5.766-.345-7.972-8.185-7.994-8.265-.19-.702-.853-1.174-1.582-1.102-.726.065-1.299.643-1.36 1.368-.579 6.87-7.647 8.066-7.942 8.113-.763.116-1.314.791-1.273 1.561.04.771.657 1.385 1.428 1.421 6.035.284 7.723 8.643 7.739 8.726.135.712.759 1.22 1.472 1.22.042 0 .083-.002.125-.005.765-.063 1.358-.693 1.376-1.461.13-5.708 8.332-8.633 8.413-8.661.677-.234 1.094-.913.996-1.622s-.683-1.251-1.398-1.293zm-9.584 6.794c-.924-1.885-2.34-3.946-4.447-5.279 1.855-1.041 3.697-2.63 4.87-4.916 1.057 1.874 2.654 3.954 4.941 5.224-1.849 1.1-3.988 2.74-5.364 4.971z" fill="#3a312a"/></g></g><g><g><path d="m25.974 16.579c-.689 8.179-9.212 9.471-9.212 9.471 7.318.344 9.142 9.944 9.142 9.944.156-6.845 9.422-10.046 9.422-10.046-6.941-.415-9.352-9.369-9.352-9.369z" fill="#d7e057"/></g></g><g><g><path d="m35.416 24.451c-5.767-.346-7.973-8.187-7.994-8.266-.19-.702-.853-1.166-1.582-1.101-.726.065-1.299.643-1.36 1.368-.579 6.871-7.646 8.066-7.942 8.113-.763.116-1.313.791-1.273 1.561.04.771.657 1.385 1.427 1.421 6.036.284 7.724 8.644 7.739 8.726.135.712.759 1.22 1.472 1.22.042 0 .083-.002.125-.005.765-.063 1.358-.693 1.376-1.461.13-5.709 8.332-8.633 8.413-8.661.676-.233 1.094-.913.996-1.622s-.683-1.25-1.397-1.293zm-9.585 6.794c-.924-1.886-2.34-3.947-4.447-5.279 1.856-1.041 3.697-2.63 4.871-4.917 1.057 1.874 2.655 3.955 4.941 5.225-1.85 1.1-3.989 2.739-5.365 4.971z" fill="#3a312a"/></g></g><g><g><path d="m59.892 154.961-16.299 28.398-7.039 12.264-19.122 33.318c-1.93 3.35-.77 7.63 2.59 9.55 1.09.63 2.29.93 3.47.93 2.43 0 4.79-1.26 6.08-3.52l41.25-71.87c-3.86-2.76-7.51-5.789-10.93-9.07z" fill="#87796f"/></g></g><g><g><path d="m71.694 162.811c-3.78-2.702-7.402-5.707-10.765-8.932-.333-.319-.793-.47-1.251-.401-.456.066-.858.338-1.087.737l-16.298 28.398c-.413.719-.165 1.636.554 2.048.717.413 1.636.163 2.047-.554l15.353-26.751c2.732 2.521 5.615 4.9 8.603 7.099l-40.581 70.703c-.973 1.705-2.804 2.765-4.777 2.765-.953 0-1.894-.252-2.726-.733-1.277-.73-2.191-1.912-2.576-3.33-.383-1.417-.191-2.896.542-4.17l19.122-33.317c.413-.719.165-1.636-.554-2.048-.718-.416-1.636-.165-2.047.554l-19.121 33.315c-1.133 1.968-1.431 4.258-.837 6.45.594 2.193 2.008 4.022 3.977 5.147 1.282.74 2.741 1.132 4.221 1.132 3.048 0 5.877-1.639 7.381-4.273l41.25-71.87c.382-.671.197-1.521-.43-1.969z" fill="#3a312a"/></g></g><g><g><path d="m196.112 154.96c-3.42 3.28-7.07 6.31-10.93 9.07l15.4 26.84c3.8-2.2 8.22-3.45 12.92-3.45.42 0 .84.01 1.26.03z" fill="#87796f"/></g></g><g><g><path d="m216.062 186.703-18.65-32.49c-.229-.4-.631-.672-1.087-.737-.459-.069-.919.082-1.252.401-3.358 3.221-6.979 6.225-10.765 8.934-.627.448-.812 1.298-.429 1.966l15.4 26.84c.199.347.527.599.912.702.128.035.259.052.389.052.262 0 .521-.068.752-.202 4.009-2.321 8.672-3.45 13.355-3.22.565.027 1.067-.248 1.353-.715.287-.468.295-1.055.022-1.531zm-14.908 2.152-14.001-24.401c2.99-2.201 5.874-4.581 8.603-7.1l16.416 28.599c-3.849.185-7.609 1.176-11.018 2.902z" fill="#3a312a"/></g></g><g><g><path d="m29.842 91.201c3.73 50.96 46.25 91.13 98.16 91.13s94.43-40.17 98.16-91.13z" fill="#8ac6dd"/></g></g><g><g><path d="m227.26 90.18c-.284-.305-.682-.479-1.099-.479h-196.319c-.417 0-.815.174-1.099.479-.284.306-.428.715-.398 1.131 1.838 25.108 13.019 48.428 31.485 65.662 18.558 17.32 42.767 26.858 68.171 26.858 25.403 0 49.614-9.538 68.171-26.858 18.466-17.234 29.647-40.554 31.485-65.662.031-.416-.113-.826-.397-1.131zm-33.135 64.599c-17.999 16.8-41.483 26.052-66.124 26.052s-48.124-9.252-66.124-26.052c-17.516-16.348-28.275-38.341-30.409-62.078h193.065c-2.133 23.737-12.891 45.731-30.408 62.078z" fill="#3a312a"/></g></g><g><g><path d="m228.561 70.257h-201.119c-5.766 0-10.441 4.674-10.441 10.441v.062c0 5.766 4.675 10.441 10.441 10.441h201.118c5.766 0 10.441-4.674 10.441-10.441v-.062c.001-5.767-4.674-10.441-10.44-10.441z" fill="#8ac6dd"/></g></g><g><g><path d="m228.561 68.757h-33.821c-.829 0-1.5.672-1.5 1.5s.671 1.5 1.5 1.5h33.821c4.93 0 8.94 4.011 8.94 9.002 0 4.931-4.011 8.941-8.94 8.941h-201.119c-4.93 0-8.941-4.011-8.941-9.003 0-4.93 4.011-8.941 8.941-8.941h153.822c.829 0 1.5-.672 1.5-1.5s-.671-1.5-1.5-1.5h-153.822c-6.584 0-11.941 5.356-11.941 12.002 0 6.585 5.356 11.941 11.941 11.941h201.119c6.584 0 11.94-5.356 11.94-12.003 0-6.583-5.356-11.939-11.94-11.939z" fill="#3a312a"/></g></g><g><g><path d="m187.502 213.42c0-2.4.32-4.72.94-6.92h-142l-8.03 14h150.08c-.65-2.25-.99-4.62-.99-7.08z" fill="#87796f"/></g></g><g><g><path d="m189.933 220.084c-.618-2.14-.931-4.382-.931-6.664 0-2.239.297-4.431.884-6.514.127-.452.036-.938-.248-1.312-.284-.375-.726-.595-1.196-.595h-142c-.538 0-1.034.287-1.301.754l-8.03 14c-.266.464-.265 1.035.003 1.498s.763.748 1.298.748h150.08c.472 0 .916-.222 1.199-.599.283-.376.372-.863.242-1.316zm-148.932-1.084 6.309-11h139.227c-.356 1.762-.536 3.578-.536 5.42 0 1.893.192 3.762.573 5.58z" fill="#3a312a"/></g></g><g><g><circle cx="213.502" cy="213.421" fill="#87796f" r="26"/></g></g><g><g><path d="m213.501 185.922c-15.164 0-27.5 12.337-27.5 27.5s12.336 27.5 27.5 27.5c15.163 0 27.5-12.337 27.5-27.5s-12.336-27.5-27.5-27.5zm0 52c-13.509 0-24.5-10.99-24.5-24.5s10.991-24.5 24.5-24.5 24.5 10.99 24.5 24.5-10.99 24.5-24.5 24.5z" fill="#3a312a"/></g></g><g><g><path d="m213.502 201.5c-6.584 0-11.921 5.337-11.921 11.921s5.337 11.922 11.921 11.922 11.922-5.337 11.922-11.922c-.001-6.584-5.338-11.921-11.922-11.921z" fill="#fce8cb"/></g></g><g><g><path d="m213.501 200c-7.4 0-13.421 6.021-13.421 13.422 0 7.4 6.021 13.421 13.421 13.421 7.401 0 13.422-6.021 13.422-13.421 0-7.401-6.021-13.422-13.422-13.422zm0 23.843c-5.747 0-10.421-4.675-10.421-10.421 0-5.747 4.675-10.422 10.421-10.422 5.747 0 10.422 4.675 10.422 10.422 0 5.746-4.675 10.421-10.422 10.421z" fill="#3a312a"/></g></g><g><g><path d="m209.532 92.7c-2.13 23.74-12.89 45.73-30.41 62.08-16.16 15.09-36.75 24.08-58.62 25.76 2.49.19 4.99.29 7.5.29 24.64 0 48.12-9.25 66.12-26.05 17.52-16.35 28.28-38.34 30.41-62.08z" fill="#6ca8bf"/></g></g><g><g><path d="m228.562 71.76h-15c4.93 0 8.94 4.01 8.94 9 0 4.93-4.01 8.94-8.94 8.94h15c4.93 0 8.94-4.01 8.94-8.94 0-4.99-4.01-9-8.94-9z" fill="#6ca8bf"/></g></g><g><g><path d="m67 36.28h172.002v8.759h-172.002z" fill="#f16c7a"/></g></g><g><g><path d="m239.001 34.78h-172.001c-.829 0-1.5.672-1.5 1.5v8.76c0 .828.671 1.5 1.5 1.5h172.001c.829 0 1.5-.672 1.5-1.5v-8.76c0-.828-.671-1.5-1.5-1.5zm-1.5 8.76h-169.001v-5.76h169.001z" fill="#3a312a"/></g></g><g><g><path d="m221.834 25.872h-17.507c-3.268 0-5.917 2.649-5.917 5.917v17.742c0 3.268 2.649 5.917 5.917 5.917h17.507c3.268 0 5.917-2.649 5.917-5.917v-17.742c0-3.268-2.649-5.917-5.917-5.917z" fill="#87796f"/></g></g><g><g><path d="m221.834 24.372h-17.507c-4.09 0-7.417 3.327-7.417 7.417v17.742c0 4.09 3.327 7.417 7.417 7.417h17.507c4.09 0 7.417-3.327 7.417-7.417v-17.742c0-4.09-3.327-7.417-7.417-7.417zm4.417 25.159c0 2.436-1.982 4.417-4.417 4.417h-17.507c-2.436 0-4.417-1.981-4.417-4.417v-17.742c0-2.436 1.981-4.417 4.417-4.417h17.507c2.435 0 4.417 1.981 4.417 4.417z" fill="#3a312a"/></g></g><g><g><circle cx="173.251" cy="40.66" fill="#87796f" r="15"/></g></g><g><g><path d="m173.251 24.16c-9.098 0-16.5 7.402-16.5 16.5s7.402 16.5 16.5 16.5 16.5-7.402 16.5-16.5c0-9.097-7.402-16.5-16.5-16.5zm0 30c-7.444 0-13.5-6.056-13.5-13.5s6.056-13.5 13.5-13.5 13.5 6.056 13.5 13.5-6.056 13.5-13.5 13.5z" fill="#3a312a"/></g></g><g><g><path d="m141.834 25.872h-17.507c-3.268 0-5.917 2.649-5.917 5.917v17.742c0 3.268 2.649 5.917 5.917 5.917h17.507c3.268 0 5.917-2.649 5.917-5.917v-17.742c0-3.268-2.649-5.917-5.917-5.917z" fill="#87796f"/></g></g><g><g><path d="m141.834 24.372h-17.507c-4.09 0-7.417 3.327-7.417 7.417v17.742c0 4.09 3.327 7.417 7.417 7.417h17.507c4.09 0 7.417-3.327 7.417-7.417v-17.742c0-4.09-3.327-7.417-7.417-7.417zm4.417 25.159c0 2.436-1.982 4.417-4.417 4.417h-17.507c-2.436 0-4.417-1.981-4.417-4.417v-17.742c0-2.436 1.981-4.417 4.417-4.417h17.507c2.435 0 4.417 1.981 4.417 4.417z" fill="#3a312a"/></g></g><g><g><circle cx="93.251" cy="40.66" fill="#87796f" r="15"/></g></g><g><g><path d="m93.251 24.16c-9.098 0-16.5 7.402-16.5 16.5s7.402 16.5 16.5 16.5 16.5-7.402 16.5-16.5c0-9.097-7.402-16.5-16.5-16.5zm0 30c-7.444 0-13.5-6.056-13.5-13.5s6.056-13.5 13.5-13.5 13.5 6.056 13.5 13.5-6.056 13.5-13.5 13.5z" fill="#3a312a"/></g></g></g></svg>