<svg id="Layer_1" enable-background="new 0 0 256 256" height="512" viewBox="0 0 256 256" width="512" xmlns="http://www.w3.org/2000/svg"><g><g><g><path d="m47.455 26.109c-.974 11.564-13.031 13.389-13.031 13.389 10.352.487 12.932 14.059 12.932 14.059.221-9.677 13.328-14.202 13.328-14.202-9.819-.587-13.229-13.246-13.229-13.246z" fill="#d4d853"/></g></g><g><g><path d="m60.773 37.858c-8.609-.515-11.839-12.025-11.87-12.141-.191-.702-.851-1.169-1.584-1.101-.725.066-1.298.642-1.359 1.367-.861 10.215-11.319 11.963-11.761 12.033-.763.115-1.313.79-1.273 1.561.04.77.657 1.384 1.428 1.421 9.033.425 11.505 12.718 11.528 12.842.138.711.76 1.217 1.473 1.217.042 0 .084-.001.126-.005.765-.064 1.357-.693 1.375-1.459.194-8.509 12.198-12.777 12.319-12.819.675-.235 1.092-.914.994-1.623s-.682-1.25-1.396-1.293zm-13.573 10.347c-1.357-3.13-3.71-6.908-7.591-8.878 2.933-1.405 6.412-3.913 8.206-8.274 1.552 3.071 4.202 6.881 8.339 8.724-3.009 1.64-6.927 4.406-8.954 8.428z" fill="#3a312a"/></g></g><g><g><path d="m25.745 43.089c-.689 8.179-9.217 9.47-9.217 9.47 7.322.345 9.147 9.944 9.147 9.944.156-6.844 9.427-10.046 9.427-10.046-6.945-.414-9.357-9.368-9.357-9.368z" fill="#d4d853"/></g></g><g><g><path d="m35.191 50.961c-5.769-.345-7.977-8.185-7.999-8.265-.19-.702-.863-1.164-1.581-1.102-.726.065-1.3.642-1.361 1.368-.579 6.871-7.651 8.067-7.946 8.114-.763.115-1.313.79-1.273 1.561.04.77.657 1.384 1.428 1.421 6.039.284 7.727 8.644 7.743 8.726.136.713.759 1.22 1.473 1.22.041 0 .083-.002.125-.005.765-.063 1.358-.694 1.376-1.461.13-5.709 8.335-8.633 8.416-8.662.677-.234 1.094-.913.997-1.622-.099-.708-.684-1.25-1.398-1.293zm-9.589 6.796c-.924-1.886-2.341-3.948-4.449-5.281 1.857-1.042 3.699-2.63 4.873-4.917 1.058 1.874 2.656 3.955 4.944 5.225-1.851 1.101-3.992 2.74-5.368 4.973z" fill="#3a312a"/></g></g><g><g><path d="m25.745 16.432c-.689 8.179-9.217 9.471-9.217 9.471 7.322.345 9.147 9.944 9.147 9.944.156-6.845 9.427-10.046 9.427-10.046-6.945-.415-9.357-9.369-9.357-9.369z" fill="#d4d853"/></g></g><g><g><path d="m35.191 24.304c-5.769-.345-7.977-8.185-7.999-8.265-.19-.702-.863-1.162-1.581-1.102-.726.065-1.3.642-1.361 1.368-.579 6.871-7.651 8.067-7.946 8.114-.763.115-1.313.79-1.273 1.561.04.77.657 1.384 1.428 1.421 6.039.284 7.727 8.644 7.743 8.726.136.712.759 1.22 1.473 1.22.041 0 .083-.001.125-.005.765-.063 1.358-.694 1.376-1.461.13-5.709 8.336-8.634 8.416-8.662.677-.234 1.094-.913.997-1.622-.099-.709-.684-1.25-1.398-1.293zm-9.589 6.796c-.924-1.886-2.341-3.948-4.449-5.281 1.857-1.041 3.699-2.63 4.873-4.917 1.058 1.874 2.656 3.955 4.944 5.225-1.851 1.1-3.992 2.741-5.368 4.973z" fill="#3a312a"/></g></g><g><g><path d="m120.978 16.402v223h14.108v-223z" fill="#8bbed5"/></g></g><g><g><path d="m135.086 14.901h-14.108c-.828 0-1.5.671-1.5 1.5v223c0 .829.672 1.5 1.5 1.5h14.108c.828 0 1.5-.671 1.5-1.5v-223c0-.828-.672-1.5-1.5-1.5zm-1.5 223h-11.108v-220h11.108z" fill="#3a312a"/></g></g><g><g><path d="m232.14 102.174-13.443 7.762c-3.235 1.868-3.235 6.537 0 8.404l13.443 7.762c3.235 1.868 7.278-.467 7.278-4.202v-15.523c.001-3.736-4.043-6.07-7.278-4.203z" fill="#f16c7a"/></g></g><g><g><path d="m237.742 100.875c-1.99-1.148-4.363-1.148-6.352.001l-13.444 7.762c-1.988 1.148-3.176 3.205-3.176 5.501s1.188 4.353 3.176 5.501l13.444 7.761c.994.574 2.085.861 3.176.861s2.182-.287 3.176-.861c1.988-1.148 3.176-3.205 3.176-5.501v-15.523c0-2.297-1.188-4.354-3.176-5.502zm.176 21.025c0 1.212-.627 2.297-1.676 2.903s-2.303.606-3.352 0l-13.444-7.761c-1.049-.606-1.676-1.691-1.676-2.903s.627-2.297 1.676-2.903l13.444-7.762c1.049-.605 2.303-.605 3.352 0 1.049.606 1.676 1.691 1.676 2.903z" fill="#3a312a"/></g></g><g><g><path d="m37.367 109.936-13.444-7.762c-3.235-1.868-7.278.467-7.278 4.202v15.524c0 3.735 4.044 6.07 7.278 4.202l13.444-7.762c3.234-1.867 3.234-6.536 0-8.404z" fill="#f16c7a"/></g></g><g><g><path d="m38.117 108.637-13.444-7.762c-1.988-1.148-4.363-1.148-6.352-.001-1.989 1.148-3.177 3.205-3.177 5.502v15.524c0 2.296 1.188 4.353 3.176 5.501.995.574 2.086.861 3.177.861s2.181-.287 3.176-.861l13.444-7.761c1.988-1.148 3.176-3.205 3.176-5.501s-1.188-4.354-3.176-5.502zm-1.5 8.404-13.444 7.762c-1.05.606-2.303.605-3.353 0-1.049-.606-1.676-1.691-1.676-2.903v-15.523c0-1.212.627-2.297 1.677-2.903.524-.303 1.1-.454 1.676-.454.575 0 1.151.151 1.676.454l13.444 7.762c1.049.606 1.676 1.691 1.676 2.903s-.626 2.296-1.676 2.902z" fill="#3a312a"/></g></g><g><g><path d="m192.322 84.874h-128.474c-16.162 0-29.263 13.102-29.263 29.264s13.102 29.263 29.263 29.263h128.473c16.162 0 29.263-13.102 29.263-29.263.001-16.162-13.1-29.264-29.262-29.264z" fill="#f16c7a"/></g></g><g><g><path d="m192.321 83.374h-21.95c-.828 0-1.5.671-1.5 1.5s.672 1.5 1.5 1.5h21.95c15.309 0 27.764 12.455 27.764 27.764s-12.455 27.763-27.764 27.763h-128.472c-15.309 0-27.764-12.455-27.764-27.763 0-15.309 12.455-27.764 27.764-27.764h92.509c.828 0 1.5-.671 1.5-1.5s-.672-1.5-1.5-1.5h-92.509c-16.963 0-30.764 13.8-30.764 30.764 0 16.963 13.801 30.763 30.764 30.763h128.473c16.963 0 30.764-13.8 30.764-30.763-.001-16.963-13.802-30.764-30.765-30.764z" fill="#3a312a"/></g></g><g><g><path d="m72.835 84.878-7.2 17.97c-1.05 2.62.23 5.6 2.85 6.65 2.62 1.06 5.6-.22 6.65-2.84l8.73-21.78z" fill="#87796f"/></g></g><g><g><path d="m85.107 84.038c-.278-.413-.744-.66-1.242-.66h-11.03c-.613 0-1.164.373-1.393.942l-7.2 17.97c-1.355 3.385.297 7.243 3.681 8.599.799.323 1.635.484 2.472.484.877 0 1.753-.177 2.584-.531 1.63-.694 2.89-1.982 3.549-3.625l8.73-21.78c.184-.463.129-.987-.151-1.399zm-11.365 22.062c-.359.898-1.049 1.602-1.939 1.981-.887.378-1.866.386-2.761.024-.896-.359-1.6-1.046-1.981-1.935-.381-.888-.394-1.87-.035-2.764l6.822-17.028h7.799z" fill="#3a312a"/></g></g><g><g><path d="m107.265 84.878-7.2 17.97c-1.05 2.62.22 5.6 2.85 6.65 2.62 1.06 5.6-.22 6.65-2.84l8.72-21.78z" fill="#87796f"/></g></g><g><g><path d="m119.527 84.037c-.279-.412-.744-.659-1.242-.659h-11.021c-.613 0-1.164.373-1.392.942l-7.199 17.97c-.658 1.641-.637 3.44.06 5.065.696 1.624 1.983 2.88 3.62 3.534.799.323 1.635.484 2.472.484.876 0 1.752-.177 2.584-.531 1.63-.694 2.89-1.981 3.55-3.626l8.72-21.78c.183-.463.128-.987-.152-1.399zm-11.354 22.063c-.36.898-1.049 1.602-1.94 1.981-.884.377-1.862.386-2.762.024-.897-.358-1.601-1.045-1.98-1.931-.381-.888-.393-1.871-.032-2.768l6.821-17.028h7.79z" fill="#3a312a"/></g></g><g><g><path d="m141.695 84.878-7.2 17.97c-1.06 2.62.22 5.6 2.84 6.65 2.63 1.06 5.6-.22 6.66-2.84l8.72-21.78z" fill="#87796f"/></g></g><g><g><path d="m153.957 84.037c-.279-.412-.744-.659-1.242-.659h-11.02c-.613 0-1.164.373-1.393.942l-7.198 17.966c-.661 1.636-.645 3.432.048 5.057.693 1.629 1.982 2.889 3.622 3.546.806.325 1.639.479 2.459.479 2.62 0 5.11-1.57 6.154-4.152l8.72-21.78c.185-.463.129-.987-.15-1.399zm-11.352 22.059c-.75 1.854-2.857 2.757-4.712 2.01-.897-.359-1.602-1.048-1.98-1.938-.378-.886-.387-1.865-.024-2.761l6.822-17.028h7.789z" fill="#3a312a"/></g></g><g><g><path d="m176.115 84.878-7.2 17.97c-1.05 2.62.22 5.6 2.85 6.65 2.62 1.06 5.6-.22 6.65-2.84l8.73-21.78z" fill="#87796f"/></g></g><g><g><path d="m188.388 84.038c-.278-.413-.744-.66-1.242-.66h-11.03c-.613 0-1.164.373-1.393.942l-7.2 17.97c-.657 1.642-.637 3.441.06 5.066.696 1.624 1.984 2.879 3.62 3.532.798.323 1.635.484 2.471.484.877 0 1.753-.177 2.585-.531 1.63-.694 2.89-1.982 3.549-3.625l8.73-21.78c.185-.462.129-.986-.15-1.398zm-11.365 22.062c-.359.898-1.049 1.602-1.94 1.981-.886.378-1.862.386-2.762.024-.898-.358-1.601-1.044-1.982-1.931-.38-.888-.392-1.871-.032-2.768l6.822-17.028h7.799z" fill="#3a312a"/></g></g><g><g><path d="m16.591 192.676c0 19.436 15.756 35.192 35.192 35.192h152.497c19.436 0 35.192-15.756 35.192-35.192z" fill="#fce8cb"/></g></g><g><g><path d="m239.472 191.176h-222.88c-.828 0-1.5.671-1.5 1.5 0 20.232 16.46 36.691 36.691 36.691h4.531c.828 0 1.5-.671 1.5-1.5s-.672-1.5-1.5-1.5h-4.531c-18.075 0-32.871-14.307-33.658-32.191h219.814c-.787 17.885-15.583 32.191-33.658 32.191h-133.033c-.828 0-1.5.671-1.5 1.5s.672 1.5 1.5 1.5h133.032c20.231 0 36.691-16.46 36.691-36.691.001-.828-.671-1.5-1.499-1.5z" fill="#3a312a"/></g></g><g><g><path d="m207.749 142.902h-159.435c-8.578 0-15.532 6.954-15.532 15.533v34.242h190.5v-34.242c0-8.579-6.955-15.533-15.533-15.533z" fill="#d7e057"/></g></g><g><g><path d="m207.749 141.401h-159.435c-9.393 0-17.033 7.641-17.033 17.033v34.242c0 .829.672 1.5 1.5 1.5h190.5c.828 0 1.5-.671 1.5-1.5v-34.242c0-9.392-7.64-17.033-17.032-17.033zm14.032 49.775h-187.5v-32.742c0-7.738 6.295-14.033 14.033-14.033h159.435c7.737 0 14.032 6.295 14.032 14.033z" fill="#3a312a"/></g></g><g><g><path d="m80.838 227.868h94.387v11.731h-94.387z" fill="#fce8cb"/></g></g><g><g><path d="m175.225 226.368h-94.387c-.828 0-1.5.671-1.5 1.5v11.731c0 .829.672 1.5 1.5 1.5h94.387c.828 0 1.5-.671 1.5-1.5v-11.731c0-.829-.672-1.5-1.5-1.5zm-1.5 11.731h-91.387v-8.731h91.387z" fill="#3a312a"/></g></g><g><g><path d="m223.492 194.178c-.79 17.88-15.58 32.19-33.66 32.19h14.45c18.07 0 32.87-14.31 33.66-32.19z" fill="#decaad"/></g></g><g><g><ellipse cx="128.032" cy="58.388" fill="#f16c7a" rx="26.486" ry="26.486" transform="matrix(.383 -.924 .924 .383 25.1 154.338)"/></g></g><g><g><path d="m128.031 30.401c-15.432 0-27.986 12.555-27.986 27.987s12.555 27.986 27.986 27.986c15.432 0 27.986-12.555 27.986-27.986.001-15.432-12.554-27.987-27.986-27.987zm0 52.973c-13.777 0-24.986-11.209-24.986-24.986 0-13.778 11.209-24.987 24.986-24.987s24.986 11.209 24.986 24.987c.001 13.777-11.208 24.986-24.986 24.986z" fill="#3a312a"/></g></g></g></svg>