<svg id="Layer_1" enable-background="new 0 0 256 256" height="512" viewBox="0 0 256 256" width="512" xmlns="http://www.w3.org/2000/svg"><g><g><g><path d="m75.661 54.433c-.974 11.564-13.025 13.39-13.025 13.39 10.347.487 12.925 14.059 12.925 14.059.221-9.677 13.321-14.202 13.321-14.202-9.813-.588-13.221-13.247-13.221-13.247z" fill="#d7e057"/></g></g><g><g><path d="m88.973 66.182c-8.604-.515-11.832-12.024-11.863-12.141-.19-.702-.844-1.164-1.584-1.102-.725.066-1.298.642-1.359 1.367-.859 10.215-11.313 11.964-11.754 12.032-.763.116-1.314.791-1.273 1.561.04.771.657 1.385 1.428 1.421 9.027.426 11.498 12.719 11.521 12.843.138.712.76 1.218 1.473 1.218.042 0 .084-.002.126-.005.764-.064 1.357-.693 1.375-1.46.194-8.51 12.191-12.778 12.313-12.82.676-.234 1.092-.914.994-1.622-.1-.709-.683-1.25-1.397-1.292zm-13.567 10.346c-1.357-3.131-3.708-6.908-7.587-8.877 2.931-1.405 6.409-3.913 8.202-8.273 1.551 3.071 4.2 6.88 8.334 8.723-3.006 1.639-6.922 4.406-8.949 8.427z" fill="#3a312a"/></g></g><g><g><path d="m53.963 71.413c-.689 8.179-9.213 9.471-9.213 9.471 7.318.345 9.142 9.944 9.142 9.944.156-6.845 9.422-10.045 9.422-10.045-6.941-.416-9.351-9.37-9.351-9.37z" fill="#d7e057"/></g></g><g><g><path d="m63.404 79.285c-5.767-.345-7.972-8.186-7.993-8.265-.19-.702-.869-1.158-1.582-1.102-.726.065-1.3.643-1.361 1.368-.579 6.871-7.646 8.066-7.942 8.113-.763.116-1.313.791-1.273 1.561.04.771.657 1.385 1.428 1.421 6.035.284 7.724 8.645 7.739 8.727.136.713.759 1.22 1.473 1.22.041 0 .083-.002.125-.005.765-.063 1.358-.693 1.376-1.461.13-5.709 8.331-8.634 8.412-8.662.676-.234 1.093-.913.996-1.622-.099-.709-.684-1.251-1.398-1.293zm-9.585 6.795c-.924-1.885-2.34-3.947-4.447-5.279 1.855-1.041 3.697-2.63 4.871-4.917 1.057 1.874 2.654 3.955 4.941 5.224-1.849 1.1-3.989 2.74-5.365 4.972z" fill="#3a312a"/></g></g><g><g><path d="m53.963 44.756c-.689 8.18-9.213 9.471-9.213 9.471 7.318.345 9.142 9.944 9.142 9.944.156-6.845 9.422-10.046 9.422-10.046-6.941-.415-9.351-9.369-9.351-9.369z" fill="#d7e057"/></g></g><g><g><path d="m63.404 52.628c-5.767-.345-7.972-8.185-7.993-8.265-.19-.702-.869-1.158-1.582-1.102-.726.065-1.3.643-1.361 1.368-.579 6.87-7.646 8.066-7.942 8.113-.763.116-1.313.791-1.273 1.561.04.771.657 1.385 1.428 1.421 6.035.284 7.724 8.645 7.739 8.727.136.713.759 1.22 1.473 1.22.041 0 .083-.002.125-.005.765-.063 1.358-.693 1.376-1.461.13-5.709 8.331-8.634 8.412-8.662.676-.234 1.093-.913.996-1.622-.099-.709-.684-1.251-1.398-1.293zm-9.585 6.795c-.924-1.886-2.34-3.947-4.447-5.28 1.855-1.041 3.697-2.63 4.871-4.916 1.057 1.874 2.654 3.955 4.941 5.224-1.849 1.1-3.989 2.739-5.365 4.972z" fill="#3a312a"/></g></g><g><g><path d="m231.911 24.089c-13.331-13.33-39.889-8.385-59.319 11.046-8.753 8.753-14.555 18.951-17.083 28.736-9.785 2.528-19.983 8.33-28.736 17.083s-14.555 18.951-17.083 28.736c-9.785 2.528-19.983 8.33-28.736 17.083s-14.555 18.951-17.083 28.736c-9.785 2.528-19.983 8.33-28.736 17.083-19.431 19.431-24.376 45.989-11.045 59.319 13.33 13.33 39.889 8.385 59.319-11.046l137.457-137.457c19.43-19.43 24.376-45.989 11.045-59.319z" fill="#fce8cb"/></g></g><g><g><path d="m232.972 23.028c-6.807-6.809-17.004-9.353-28.707-7.177-11.499 2.142-23.124 8.613-32.733 18.223-8.352 8.352-14.452 18.466-17.247 28.572-10.106 2.796-20.222 8.896-28.572 17.246-8.351 8.352-14.45 18.466-17.247 28.572-10.106 2.797-20.221 8.896-28.572 17.247-8.352 8.352-14.451 18.467-17.246 28.572-10.106 2.795-20.221 8.896-28.572 17.247-9.609 9.609-16.081 21.234-18.223 32.733-2.18 11.705.369 21.899 7.177 28.707 5.22 5.221 12.432 7.937 20.789 7.936 2.541 0 5.189-.251 7.918-.759 11.499-2.142 23.124-8.613 32.733-18.223l137.456-137.455c9.609-9.609 16.081-21.234 18.223-32.733 2.179-11.706-.37-21.9-7.177-28.708zm-13.167 59.32-137.457 137.457c-18.815 18.813-44.474 23.771-57.198 11.046s-7.769-38.383 11.046-57.198c8.213-8.213 18.175-14.141 28.051-16.691.528-.137.94-.549 1.077-1.077 2.551-9.876 8.479-19.838 16.691-28.051 8.212-8.211 18.175-14.139 28.051-16.691.528-.137.94-.549 1.077-1.077 2.553-9.876 8.48-19.839 16.691-28.051 8.212-8.212 18.174-14.14 28.051-16.691.528-.137.94-.549 1.077-1.077 2.551-9.876 8.479-19.838 16.691-28.051 11.76-11.759 26.189-18.104 38.467-18.104 7.366 0 13.96 2.286 18.732 7.058 12.722 12.724 7.767 38.382-11.047 57.198z" fill="#3a312a"/></g></g><g><g><path d="m201.229 41.729-16.397-16.397c-4.255 2.667-8.387 5.948-12.24 9.802-1.236 1.236-2.414 2.496-3.526 3.788l3.273 3.273 10.418 10.418 3.794 3.794c2.021 2.021 4.68 3.044 7.339 3.036 2.659.008 5.31-1.006 7.339-3.036 4.058-4.058 4.05-10.628 0-14.678z" fill="#87796f"/></g></g><g><g><path d="m202.289 40.669-16.396-16.396c-.492-.495-1.263-.583-1.857-.21-4.434 2.778-8.641 6.147-12.504 10.012-1.297 1.297-2.51 2.6-3.603 3.87-.513.596-.479 1.484.076 2.039l3.272 3.273c.586.586 1.535.586 2.121 0s.586-1.535 0-2.121l-2.277-2.277c.793-.88 1.641-1.771 2.531-2.662 3.411-3.411 7.098-6.418 10.972-8.948l15.544 15.543c1.677 1.677 2.601 3.905 2.602 6.276.001 2.372-.923 4.603-2.602 6.28-1.676 1.675-3.893 2.597-6.256 2.597-.018-.001-.036-.001-.054 0-2.354 0-4.573-.922-6.248-2.597l-3.794-3.794c-.586-.586-1.535-.586-2.121 0s-.586 1.535 0 2.121l3.794 3.794c2.242 2.242 5.213 3.476 8.36 3.476h.071c3.155 0 6.126-1.233 8.368-3.476 2.245-2.245 3.481-5.229 3.48-8.403 0-3.172-1.236-6.154-3.479-8.397z" fill="#3a312a"/></g></g><g><g><path d="m152.955 90.003-16.887-16.888c-3.215 2.267-6.341 4.885-9.295 7.838-2.086 2.086-4.009 4.255-5.744 6.48l17.247 17.248c2.021 2.021 4.68 3.044 7.339 3.036 2.659.008 5.31-1.007 7.339-3.036 4.059-4.058 4.051-10.628.001-14.678z" fill="#87796f"/></g></g><g><g><path d="m154.016 88.942-16.888-16.888c-.515-.516-1.329-.587-1.925-.165-3.342 2.355-6.535 5.048-9.491 8.003-2.131 2.132-4.104 4.358-5.866 6.619-.465.597-.412 1.447.123 1.982l17.247 17.248c2.242 2.241 5.213 3.475 8.36 3.475h.071c3.156 0 6.127-1.233 8.368-3.475 2.245-2.245 3.482-5.229 3.48-8.404-.001-3.17-1.236-6.151-3.479-8.395zm-2.121 14.679c-1.675 1.675-3.893 2.596-6.256 2.596h-.054c-2.355 0-4.572-.921-6.248-2.596l-16.3-16.301c1.471-1.809 3.079-3.589 4.796-5.307 2.531-2.53 5.243-4.859 8.075-6.937l15.986 15.986c3.462 3.463 3.462 9.097.001 12.559z" fill="#3a312a"/></g></g><g><g><path d="m104.681 138.277-17.248-17.247c-2.225 1.735-4.394 3.657-6.48 5.744-2.954 2.954-5.572 6.079-7.838 9.295l16.887 16.888c2.021 2.021 4.68 3.043 7.339 3.036 2.659.008 5.31-1.007 7.339-3.036 4.06-4.06 4.051-10.63.001-14.68z" fill="#87796f"/></g></g><g><g><path d="m105.742 137.216-17.248-17.247c-.536-.536-1.386-.588-1.982-.123-2.261 1.762-4.487 3.735-6.619 5.866-2.955 2.956-5.647 6.149-8.003 9.491-.421.597-.351 1.409.165 1.925l16.888 16.888c2.241 2.241 5.211 3.475 8.354 3.475h.08c3.154 0 6.124-1.233 8.365-3.475 4.631-4.632 4.631-12.168 0-16.8zm-2.121 14.679c-1.675 1.675-3.892 2.596-6.254 2.596h-.061c-2.353 0-4.568-.921-6.243-2.596l-15.986-15.986c2.077-2.832 4.406-5.544 6.937-8.075 1.718-1.717 3.498-3.325 5.307-4.796l16.301 16.3c3.46 3.461 3.46 9.095-.001 12.557z" fill="#3a312a"/></g></g><g><g><path d="m56.408 186.55-17.485-17.485c-1.293 1.113-2.553 2.291-3.788 3.526-3.854 3.854-7.134 7.985-9.802 12.24l3.064 3.064 10.406 10.406 2.927 2.927c2.021 2.021 4.68 3.044 7.339 3.036 2.659.008 5.31-1.006 7.339-3.036 4.058-4.058 4.05-10.628 0-14.678z" fill="#87796f"/></g></g><g><g><path d="m57.468 185.489-17.484-17.484c-.557-.556-1.445-.589-2.039-.076-1.271 1.093-2.573 2.306-3.87 3.603-3.865 3.865-7.234 8.072-10.013 12.504-.372.593-.284 1.363.21 1.857l3.064 3.064c.586.586 1.535.586 2.121 0s.586-1.536 0-2.121l-2.211-2.211c2.531-3.873 5.537-7.559 8.949-10.972.891-.891 1.782-1.738 2.662-2.531l16.489 16.489c3.462 3.462 3.462 9.096 0 12.558-1.675 1.675-3.891 2.596-6.253 2.596h-.061c-2.353 0-4.568-.921-6.243-2.596l-2.927-2.927c-.586-.586-1.535-.586-2.121 0s-.586 1.535 0 2.121l2.927 2.927c2.241 2.242 5.21 3.475 8.354 3.475h.08c3.153 0 6.123-1.233 8.364-3.475 2.246-2.245 3.481-5.229 3.48-8.403.001-3.173-1.235-6.155-3.478-8.398z" fill="#3a312a"/></g></g><g><g><path d="m230.85 25.15c-4.77-4.77-11.36-7.06-18.73-7.06-2.53 0-5.15.27-7.82.8 4.45 1.04 8.4 3.11 11.55 6.26 12.72 12.72 7.77 38.38-11.05 57.2l-137.45 137.45c-9.33 9.33-20.35 15.26-30.64 17.31 13.47 3.15 31.49-3.16 45.64-17.31l137.45-137.45c18.82-18.82 23.77-44.48 11.05-57.2z" fill="#decaad"/></g></g></g></svg>