<svg id="Layer_1" enable-background="new 0 0 256 256" height="512" viewBox="0 0 256 256" width="512" xmlns="http://www.w3.org/2000/svg"><g><g><g><path d="m207.695 144.654c.202-1.497.316-3.022.316-4.575 0-18.693-15.154-33.847-33.847-33.847-5.423 0-10.543 1.282-15.087 3.549-5.186-12.041-17.155-20.473-31.097-20.473-13.814 0-25.688 8.281-30.949 20.146-4.58-2.314-9.753-3.625-15.235-3.625-18.693 0-33.847 15.154-33.847 33.847 0 1.687.128 3.344.366 4.965-14.604 3.753-25.397 17.008-25.397 32.784 0 18.693 15.154 33.847 33.847 33.847h142.431c18.693 0 33.847-15.154 33.847-33.847-.001-15.759-10.769-29.001-25.348-32.771z" fill="#fce8cb"/></g></g><g><g><path d="m209.334 143.554c.117-1.178.177-2.342.177-3.475 0-19.49-15.856-35.347-35.347-35.347-5.005 0-9.826 1.023-14.354 3.044-5.887-12.182-18.215-19.968-31.831-19.968-13.451 0-25.715 7.659-31.663 19.641-4.577-2.071-9.454-3.12-14.52-3.12-19.491 0-35.348 15.856-35.348 35.347 0 1.279.071 2.574.213 3.866-14.93 4.435-25.244 18.182-25.244 33.882 0 19.49 15.856 35.347 35.348 35.347h142.431c19.49 0 35.347-15.856 35.347-35.347-.001-15.679-10.302-29.422-25.209-33.87zm-10.139 66.216h-142.43c-17.837 0-32.348-14.511-32.348-32.347 0-14.774 9.98-27.658 24.27-31.33.743-.191 1.223-.912 1.111-1.671-.232-1.582-.351-3.179-.351-4.747 0-17.836 14.511-32.347 32.348-32.347 5.109 0 10.008 1.165 14.56 3.464.366.186.793.21 1.18.074.388-.139.701-.43.867-.805 5.186-11.696 16.796-19.254 29.577-19.254 12.935 0 24.602 7.68 29.72 19.566.163.378.476.673.862.815.388.14.817.116 1.186-.067 4.51-2.25 9.36-3.391 14.417-3.391 17.836 0 32.347 14.511 32.347 32.347 0 1.414-.102 2.886-.303 4.374-.102.753.375 1.463 1.11 1.653 14.263 3.689 24.224 16.566 24.224 31.317 0 17.839-14.511 32.349-32.347 32.349z" fill="#3a312a"/></g></g><g><g><path d="m47.391 41.209c-.974 11.564-13.025 13.389-13.025 13.389 10.347.487 12.925 14.059 12.925 14.059.221-9.677 13.321-14.202 13.321-14.202-9.813-.587-13.221-13.246-13.221-13.246z" fill="#d7e057"/></g></g><g><g><path d="m60.703 52.959c-8.605-.516-11.833-12.025-11.864-12.142-.19-.702-.849-1.168-1.584-1.102-.725.066-1.298.642-1.359 1.367-.859 10.216-11.312 11.964-11.754 12.032-.763.116-1.313.791-1.273 1.561.04.771.657 1.385 1.428 1.421 9.028.426 11.499 12.719 11.522 12.844.138.711.76 1.217 1.473 1.217.042 0 .084-.002.126-.005.765-.064 1.357-.693 1.375-1.46.193-8.509 12.191-12.777 12.312-12.819.676-.234 1.092-.914.994-1.622s-.682-1.249-1.396-1.292zm-13.566 10.346c-1.357-3.131-3.709-6.908-7.587-8.877 2.931-1.405 6.408-3.913 8.201-8.273 1.551 3.071 4.2 6.881 8.335 8.723-3.008 1.64-6.923 4.405-8.949 8.427z" fill="#3a312a"/></g></g><g><g><path d="m25.692 58.19c-.689 8.179-9.212 9.471-9.212 9.471 7.318.344 9.142 9.944 9.142 9.944.156-6.844 9.422-10.045 9.422-10.045-6.941-.416-9.352-9.37-9.352-9.37z" fill="#d7e057"/></g></g><g><g><path d="m35.134 66.063c-5.767-.346-7.972-8.187-7.993-8.266-.19-.702-.866-1.154-1.582-1.102-.726.065-1.3.643-1.361 1.368-.578 6.871-7.646 8.066-7.942 8.113-.763.116-1.313.791-1.273 1.56.04.771.657 1.385 1.428 1.421 6.035.284 7.724 8.644 7.739 8.727.136.713.759 1.22 1.473 1.22.041 0 .083-.002.125-.005.765-.063 1.358-.693 1.376-1.461.13-5.709 8.331-8.633 8.411-8.661.677-.233 1.094-.913.997-1.622-.099-.709-.684-1.25-1.398-1.292zm-9.585 6.793c-.924-1.885-2.34-3.946-4.447-5.279 1.856-1.041 3.698-2.63 4.871-4.916 1.058 1.873 2.654 3.954 4.941 5.224-1.85 1.1-3.989 2.739-5.365 4.971z" fill="#3a312a"/></g></g><g><g><path d="m25.692 31.532c-.689 8.179-9.212 9.47-9.212 9.47 7.318.345 9.142 9.944 9.142 9.944.156-6.845 9.422-10.045 9.422-10.045-6.941-.415-9.352-9.369-9.352-9.369z" fill="#d7e057"/></g></g><g><g><path d="m35.134 39.405c-5.767-.346-7.972-8.187-7.993-8.266-.19-.702-.866-1.154-1.582-1.102-.726.065-1.3.643-1.361 1.368-.578 6.871-7.646 8.066-7.942 8.113-.763.116-1.313.791-1.273 1.561.04.771.657 1.385 1.428 1.421 6.035.284 7.724 8.645 7.739 8.727.136.713.759 1.22 1.473 1.22.041 0 .083-.002.125-.005.765-.064 1.358-.693 1.376-1.461.13-5.709 8.331-8.633 8.411-8.661.677-.233 1.094-.913.997-1.622-.099-.709-.684-1.25-1.398-1.293zm-9.585 6.794c-.924-1.885-2.34-3.946-4.447-5.279 1.856-1.041 3.698-2.63 4.871-4.916 1.058 1.874 2.653 3.954 4.941 5.224-1.85 1.1-3.989 2.739-5.365 4.971z" fill="#3a312a"/></g></g><g><g><path d="m235.453 69.21c-3.477-3.477-8.335-4.722-12.805-3.742.98-4.47-.265-9.328-3.742-12.805-5.423-5.423-14.22-5.423-19.65 0-5.423 5.429-5.423 14.227 0 19.649.129.129.265.252.402.381l-14.438 14.431c3.919 1.15 7.328 3.014 10.043 5.729s4.579 6.124 5.729 10.043l14.431-14.438c.129.136.252.272.381.402 5.423 5.423 14.22 5.423 19.65 0 5.422-5.43 5.422-14.228-.001-19.65z" fill="#fce8cb"/></g></g><g><g><path d="m236.514 68.149c-3.222-3.223-7.633-4.817-12.087-4.46.356-4.465-1.238-8.865-4.46-12.088-5.998-5.998-15.765-5.999-21.772.001-5.771 5.779-5.988 15.041-.647 21.081l-13.388 13.38c-.374.374-.523.918-.393 1.432.131.513.522.919 1.03 1.068 3.808 1.117 6.973 2.918 9.405 5.351 2.434 2.433 4.233 5.597 5.35 9.403.149.509.556.9 1.068 1.031.123.031.247.047.371.047.393 0 .776-.154 1.061-.439l13.381-13.387c6.037 5.341 15.301 5.125 21.082-.65 5.998-6.006 5.998-15.772-.001-21.77zm-2.12 19.649c-4.838 4.83-12.699 4.829-17.529.001l-.358-.378c-.279-.292-.664-.458-1.067-.463-.398.011-.792.154-1.077.439l-12.725 12.73c-1.264-3.271-3.046-6.068-5.314-8.335-2.268-2.268-5.064-4.05-8.336-5.314l12.731-12.725c.286-.285.444-.675.439-1.079-.005-.405-.174-.79-.467-1.069l-.375-.354c-4.829-4.83-4.828-12.693-.001-17.528 4.838-4.829 12.7-4.829 17.53-.001 3 3.001 4.247 7.271 3.338 11.424-.109.5.043 1.021.404 1.382s.882.516 1.382.404c4.153-.911 8.423.337 11.423 3.338 4.831 4.83 4.83 12.693.002 17.528z" fill="#3a312a"/></g></g><g><g><path d="m195.263 92.852c-19.352-19.352-74.417 4.337-93.769 23.689s-19.352 50.728 0 70.08 50.728 19.352 70.08 0c6.243-6.243 12.936-16.205 18.491-27.484l4.338-9.669c8.739-21.542 12.232-45.244.86-56.616z" fill="#87796f"/></g></g><g><g><path d="m196.324 91.791c-12.174-12.175-35.551-7.128-48.4-3.038-18.219 5.8-37.304 16.54-47.49 26.728-9.644 9.643-14.954 22.464-14.954 36.101 0 13.638 5.311 26.458 14.954 36.1 9.643 9.644 22.463 14.954 36.101 14.954s26.458-5.311 36.101-14.954c6.315-6.314 13.159-16.477 18.799-27.93l4.338-9.669c.008-.017.015-.033.021-.051 15.308-37.736 5.471-53.301.53-58.241zm-3.301 57.089-4.304 9.595c-5.479 11.121-12.114 20.994-18.206 27.086-9.076 9.076-21.144 14.075-33.98 14.075s-24.903-4.999-33.98-14.075c-9.076-9.076-14.075-21.143-14.075-33.979 0-12.835 4.999-24.903 14.075-33.979 9.878-9.878 28.476-20.323 46.279-25.99 10.305-3.28 18.477-4.503 24.936-4.503 11.355 0 17.41 3.78 20.434 6.804 9.405 9.403 8.965 29.95-1.179 54.966z" fill="#3a312a"/></g></g><g><g><path d="m16.54 177.545c0 19.436 15.756 35.192 35.192 35.192h152.497c19.436 0 35.192-15.756 35.192-35.192z" fill="#8ac6dd"/></g></g><g><g><path d="m239.42 176.046h-222.88c-.828 0-1.5.672-1.5 1.5 0 20.231 16.46 36.691 36.691 36.691h4.531c.828 0 1.5-.672 1.5-1.5s-.672-1.5-1.5-1.5h-4.531c-18.075 0-32.871-14.307-33.658-32.191h219.814c-.787 17.885-15.583 32.191-33.658 32.191h-133.033c-.828 0-1.5.672-1.5 1.5s.672 1.5 1.5 1.5h133.032c20.232 0 36.691-16.46 36.691-36.691.001-.828-.671-1.5-1.499-1.5z" fill="#3a312a"/></g></g><g><g><path d="m80.786 212.737h94.387v11.73h-94.387z" fill="#8ac6dd"/></g></g><g><g><path d="m175.174 211.237h-94.388c-.828 0-1.5.672-1.5 1.5v11.73c0 .828.672 1.5 1.5 1.5h65.035c.828 0 1.5-.672 1.5-1.5s-.672-1.5-1.5-1.5h-63.535v-8.73h91.388v8.73h-13.535c-.828 0-1.5.672-1.5 1.5s.672 1.5 1.5 1.5h15.035c.828 0 1.5-.672 1.5-1.5v-11.73c0-.828-.672-1.5-1.5-1.5z" fill="#3a312a"/></g></g><g><g><path d="m223.44 179.047c-.79 17.88-15.58 32.19-33.66 32.19h14.45c18.07 0 32.87-14.31 33.66-32.19z" fill="#6ca8bf"/></g></g></g></svg>