<svg id="Layer_1" enable-background="new 0 0 256 256" height="512" viewBox="0 0 256 256" width="512" xmlns="http://www.w3.org/2000/svg"><g><g><g><path d="m56.428 26.433c-.974 11.564-13.024 13.39-13.024 13.39 10.347.487 12.925 14.059 12.925 14.059.221-9.678 13.321-14.203 13.321-14.203-9.814-.587-13.222-13.246-13.222-13.246z" fill="#d7e057"/></g></g><g><g><path d="m69.74 38.182c-8.605-.515-11.833-12.024-11.864-12.141-.19-.702-.851-1.165-1.583-1.101-.725.066-1.298.642-1.359 1.367-.86 10.215-11.314 11.964-11.754 12.033-.763.115-1.313.79-1.273 1.561.04.77.657 1.384 1.428 1.421 9.028.425 11.499 12.718 11.522 12.842.137.711.759 1.217 1.472 1.217.042 0 .084-.001.126-.005.764-.064 1.357-.693 1.374-1.459.195-8.509 12.192-12.777 12.313-12.819.675-.235 1.092-.914.994-1.623-.099-.709-.682-1.25-1.396-1.293zm-13.567 10.345c-1.356-3.13-3.709-6.907-7.587-8.876 2.931-1.405 6.409-3.913 8.202-8.272 1.551 3.071 4.2 6.88 8.334 8.722-3.007 1.64-6.922 4.405-8.949 8.426z" fill="#3a312a"/></g></g><g><g><path d="m34.729 43.413c-.689 8.179-9.213 9.471-9.213 9.471 7.318.344 9.142 9.944 9.142 9.944.156-6.844 9.422-10.045 9.422-10.045-6.94-.416-9.351-9.37-9.351-9.37z" fill="#d7e057"/></g></g><g><g><path d="m44.171 51.285c-5.766-.345-7.972-8.186-7.994-8.265-.19-.702-.856-1.165-1.582-1.102-.726.065-1.299.642-1.36 1.368-.579 6.871-7.647 8.067-7.943 8.114-.763.115-1.313.79-1.273 1.561.04.77.657 1.384 1.428 1.421 6.035.284 7.723 8.644 7.739 8.726.135.713.759 1.22 1.472 1.22.042 0 .083-.001.125-.005.765-.063 1.358-.694 1.376-1.461.13-5.709 8.332-8.634 8.413-8.662.676-.234 1.094-.913.996-1.622-.098-.708-.683-1.25-1.397-1.293zm-9.585 6.795c-.924-1.885-2.34-3.947-4.447-5.28 1.855-1.041 3.697-2.63 4.871-4.917 1.057 1.874 2.654 3.955 4.941 5.224-1.85 1.102-3.989 2.741-5.365 4.973z" fill="#3a312a"/></g></g><g><g><path d="m34.729 16.756c-.689 8.179-9.213 9.471-9.213 9.471 7.318.344 9.142 9.944 9.142 9.944.156-6.845 9.422-10.045 9.422-10.045-6.94-.416-9.351-9.37-9.351-9.37z" fill="#d7e057"/></g></g><g><g><path d="m44.171 24.628c-5.744-.344-7.955-8.125-7.993-8.263-.19-.703-.857-1.167-1.583-1.103-.726.065-1.299.642-1.36 1.368-.579 6.871-7.647 8.067-7.943 8.114-.763.115-1.313.79-1.273 1.561.04.77.657 1.384 1.428 1.421 6.035.284 7.723 8.644 7.739 8.725.135.713.759 1.22 1.472 1.22.042 0 .083-.001.125-.005.765-.063 1.358-.694 1.376-1.461.13-5.709 8.332-8.633 8.413-8.661.676-.234 1.094-.913.996-1.622-.098-.71-.683-1.251-1.397-1.294zm-9.585 6.795c-.924-1.886-2.34-3.947-4.447-5.28 1.855-1.041 3.697-2.63 4.871-4.917 1.057 1.873 2.654 3.955 4.941 5.224-1.85 1.101-3.989 2.74-5.365 4.973z" fill="#3a312a"/></g></g><g><g><path d="m147.768 16.5v223h14.108v-223z" fill="#8bbed5"/></g></g><g><g><path d="m161.876 15h-14.108c-.829 0-1.5.671-1.5 1.5v223c0 .829.671 1.5 1.5 1.5h14.108c1.5 0 1.5-1.499 1.5-2.14l.001-222.36c-.001-.829-.672-1.5-1.501-1.5zm-1.5 223h-11.108v-220h11.108z" fill="#3a312a"/></g></g><g><g><path d="m213.817 28h-117.99c-9.205 0-16.667 7.462-16.667 16.667s7.462 16.667 16.667 16.667h117.99c9.205 0 16.667-7.462 16.667-16.667-.001-9.205-7.463-16.667-16.667-16.667z" fill="#f16c7a"/></g></g><g><g><path d="m213.816 26.5h-90.225c-.829 0-1.5.671-1.5 1.5s.671 1.5 1.5 1.5h90.225c8.363 0 15.167 6.804 15.167 15.167s-6.804 15.167-15.167 15.167h-117.989c-8.363 0-15.166-6.804-15.166-15.167s6.804-15.167 15.166-15.167h13.449c.829 0 1.5-.671 1.5-1.5s-.671-1.5-1.5-1.5h-13.449c-10.017 0-18.166 8.149-18.166 18.167s8.149 18.167 18.166 18.167h117.99c10.017 0 18.167-8.15 18.167-18.167s-8.151-18.167-18.168-18.167z" fill="#3a312a"/></g></g><g><g><path d="m213.817 61.333h-117.99c-9.205 0-16.667 7.462-16.667 16.667s7.462 16.667 16.667 16.667h117.99c9.205 0 16.667-7.462 16.667-16.667-.001-9.205-7.463-16.667-16.667-16.667z" fill="#f16c7a"/></g></g><g><g><path d="m213.816 59.834h-117.989c-10.017 0-18.167 8.149-18.167 18.166s8.149 18.167 18.166 18.167h117.99c10.017 0 18.167-8.149 18.167-18.167 0-10.017-8.15-18.166-18.167-18.166zm0 33.333h-117.989c-8.363 0-15.166-6.804-15.166-15.167s6.804-15.166 15.166-15.166h117.99c8.363 0 15.167 6.804 15.167 15.166-.001 8.363-6.804 15.167-15.168 15.167z" fill="#3a312a"/></g></g><g><g><path d="m213.817 94.667h-117.99c-9.205 0-16.667 7.462-16.667 16.667s7.462 16.667 16.667 16.667h117.99c9.205 0 16.667-7.462 16.667-16.667-.001-9.205-7.463-16.667-16.667-16.667z" fill="#f16c7a"/></g></g><g><g><path d="m213.816 93.167h-117.989c-10.017 0-18.166 8.15-18.166 18.167s8.149 18.166 18.166 18.166h117.99c10.017 0 18.167-8.149 18.167-18.166s-8.151-18.167-18.168-18.167zm0 33.333h-117.989c-8.363 0-15.166-6.804-15.166-15.166 0-8.363 6.804-15.167 15.166-15.167h117.99c8.363 0 15.167 6.804 15.167 15.167-.001 8.362-6.804 15.166-15.168 15.166z" fill="#3a312a"/></g></g><g><g><path d="m213.817 128h-117.99c-9.205 0-16.667 7.462-16.667 16.667s7.462 16.667 16.667 16.667h117.99c9.205 0 16.667-7.462 16.667-16.667-.001-9.205-7.463-16.667-16.667-16.667z" fill="#f16c7a"/></g></g><g><g><path d="m213.816 126.5h-117.989c-10.017 0-18.166 8.149-18.166 18.167 0 10.017 8.149 18.167 18.166 18.167h117.99c10.017 0 18.167-8.15 18.167-18.167-.001-10.018-8.151-18.167-18.168-18.167zm0 33.334h-117.989c-8.363 0-15.166-6.804-15.166-15.167s6.804-15.167 15.166-15.167h117.99c8.363 0 15.167 6.804 15.167 15.167-.001 8.363-6.804 15.167-15.168 15.167z" fill="#3a312a"/></g></g><g><g><path d="m213.817 161.333h-117.99c-9.205 0-16.667 7.462-16.667 16.667s7.462 16.667 16.667 16.667h117.99c9.205 0 16.667-7.462 16.667-16.667-.001-9.205-7.463-16.667-16.667-16.667z" fill="#f16c7a"/></g></g><g><g><path d="m213.816 159.834h-117.989c-10.017 0-18.166 8.149-18.166 18.166s8.149 18.167 18.166 18.167h117.99c10.017 0 18.167-8.149 18.167-18.167-.001-10.017-8.151-18.166-18.168-18.166zm0 33.333h-117.989c-8.363 0-15.166-6.804-15.166-15.167s6.804-15.166 15.166-15.166h117.99c8.363 0 15.167 6.804 15.167 15.166-.001 8.363-6.804 15.167-15.168 15.167z" fill="#3a312a"/></g></g><g><g><path d="m213.817 194.667h-117.99c-9.205 0-16.667 7.462-16.667 16.667s7.462 16.667 16.667 16.667h77.116 14.315 26.559c9.205 0 16.667-7.462 16.667-16.667-.001-9.205-7.463-16.667-16.667-16.667z" fill="#f16c7a"/></g></g><g><g><path d="m213.816 193.167h-117.989c-10.017 0-18.166 8.15-18.166 18.167s8.149 18.166 18.166 18.166h77.116c.829 0 1.5-.671 1.5-1.5s-.671-1.5-1.5-1.5h-77.116c-8.363 0-15.166-6.804-15.166-15.166 0-8.363 6.804-15.167 15.166-15.167h117.99c8.363 0 15.167 6.804 15.167 15.167s-6.804 15.166-15.167 15.166h-26.559c-.829 0-1.5.671-1.5 1.5s.671 1.5 1.5 1.5h26.559c10.017 0 18.167-8.149 18.167-18.166-.001-10.018-8.151-18.167-18.168-18.167z" fill="#3a312a"/></g></g><g><g><path d="m213.817 29.5h-15c8.36 0 15.17 6.8 15.17 15.17 0 8.36-6.81 15.16-15.17 15.16h15c8.36 0 15.17-6.8 15.17-15.16 0-8.37-6.81-15.17-15.17-15.17z" fill="#d34e5c"/></g></g><g><g><path d="m213.817 62.83h-15c8.36 0 15.17 6.81 15.17 15.17s-6.81 15.17-15.17 15.17h15c8.36 0 15.17-6.81 15.17-15.17s-6.81-15.17-15.17-15.17z" fill="#d34e5c"/></g></g><g><g><path d="m213.817 96.17h-15c8.36 0 15.17 6.8 15.17 15.16 0 8.37-6.81 15.17-15.17 15.17h15c8.36 0 15.17-6.8 15.17-15.17 0-8.36-6.81-15.16-15.17-15.16z" fill="#d34e5c"/></g></g><g><g><path d="m213.817 129.5h-15c8.36 0 15.17 6.8 15.17 15.17 0 8.36-6.81 15.16-15.17 15.16h15c8.36 0 15.17-6.8 15.17-15.16 0-8.37-6.81-15.17-15.17-15.17z" fill="#d34e5c"/></g></g><g><g><path d="m213.817 162.83h-15c8.36 0 15.17 6.81 15.17 15.17s-6.81 15.17-15.17 15.17h15c8.36 0 15.17-6.81 15.17-15.17s-6.81-15.17-15.17-15.17z" fill="#d34e5c"/></g></g><g><g><path d="m213.817 196.17h-15c8.36 0 15.17 6.8 15.17 15.16 0 8.37-6.81 15.17-15.17 15.17h15c8.36 0 15.17-6.8 15.17-15.17 0-8.36-6.81-15.16-15.17-15.16z" fill="#d34e5c"/></g></g></g></svg>