<svg id="Layer_1" enable-background="new 0 0 256 256" height="512" viewBox="0 0 256 256" width="512" xmlns="http://www.w3.org/2000/svg"><g><g><g><path d="m144.108 100.558-7.409-14.915c-1.64-3.3-5.645-4.647-8.945-3.007l-14.915 7.409c-3.301 1.64-4.647 5.645-3.007 8.945l7.409 14.915c1.64 3.301 5.644 4.647 8.945 3.008l14.915-7.409c3.301-1.641 4.647-5.646 3.007-8.946z" fill="#f16c7a"/></g></g><g><g><path d="m145.452 99.891-7.409-14.915c-2.005-4.035-6.918-5.687-10.957-3.684l-14.914 7.409c-1.955.972-3.415 2.646-4.111 4.715s-.544 4.286.427 6.24l7.41 14.915c.971 1.955 2.645 3.415 4.714 4.111.855.288 1.736.431 2.612.431 1.245 0 2.481-.288 3.629-.857l14.914-7.409c4.037-2.005 5.69-6.92 3.685-10.956zm-2.417 5.284c-.441 1.311-1.364 2.37-2.602 2.984l-14.915 7.409c-1.238.615-2.641.713-3.95.271-1.31-.44-2.37-1.364-2.984-2.602l-7.41-14.915c-.615-1.237-.71-2.64-.27-3.949.44-1.311 1.364-2.37 2.602-2.984l14.915-7.409c.738-.367 1.521-.54 2.293-.54 1.903 0 3.738 1.054 4.641 2.87l7.409 14.915c.616 1.238.712 2.64.271 3.95z" fill="#3a312a"/></g></g><g><g><path d="m97.116 101.033c-28.086 0-50.854 22.768-50.854 50.854 0 .13.009.257.01.386h101.688c.001-.129.01-.257.01-.386 0-28.086-22.768-50.854-50.854-50.854z" fill="#d7e057"/></g></g><g><g><path d="m97.116 99.533c-28.868 0-52.354 23.486-52.354 52.354l.01.398c.006.823.676 1.488 1.5 1.488h101.688c.824 0 1.494-.665 1.5-1.488l.01-.398c0-28.867-23.486-52.354-52.354-52.354zm-49.342 51.24c.594-26.702 22.5-48.24 49.342-48.24s48.747 21.538 49.341 48.24z" fill="#3a312a"/></g></g><g><g><path d="m97.116 115.589c-20.108 0-36.408 16.3-36.408 36.408 0 .093.006.184.007.277h72.802c.001-.092.007-.184.007-.277 0-20.108-16.3-36.408-36.408-36.408z" fill="#d7e057"/></g></g><g><g><path d="m97.116 114.089c-20.903 0-37.908 17.006-37.908 37.908l.007.292c.009.822.678 1.484 1.5 1.484h72.803c.828 0 1.502-.753 1.502-1.582l.005-.194c-.001-20.902-17.006-37.908-37.909-37.908zm-34.887 36.684c.648-18.684 16.049-33.685 34.887-33.685 18.813 0 34.197 14.959 34.882 33.685z" fill="#3a312a"/></g></g><g><g><path d="m97.116 129.854c-12.289 0-22.251 9.962-22.251 22.251 0 .057.004.112.004.169h44.494c0-.057.004-.112.004-.169 0-12.289-9.962-22.251-22.251-22.251z" fill="#d7e057"/></g></g><g><g><path d="m97.116 128.354c-13.097 0-23.751 10.654-23.751 23.751l.004.182c.007.823.677 1.487 1.5 1.487h44.494c.807 0 1.471-.717 1.501-1.523.001-.019.003-.127.003-.145 0-13.098-10.655-23.752-23.751-23.752zm-20.709 22.419c.688-10.824 9.714-19.42 20.709-19.42 10.985 0 20.003 8.579 20.706 19.42z" fill="#3a312a"/></g></g><g><g><path d="m158.824 101.033c-28.086 0-50.854 22.768-50.854 50.854 0 .13.009.257.01.386h101.689c.001-.129.01-.257.01-.386-.001-28.086-22.769-50.854-50.855-50.854z" fill="#d7e057"/></g></g><g><g><path d="m158.824 99.533c-28.868 0-52.354 23.486-52.354 52.354l.01.398c.006.823.676 1.488 1.5 1.488h101.689c.824 0 1.494-.665 1.5-1.488l.01-.398c0-28.867-23.487-52.354-52.355-52.354zm-49.342 51.24c.594-26.702 22.5-48.24 49.342-48.24s48.748 21.538 49.342 48.24z" fill="#3a312a"/></g></g><g><g><path d="m158.824 115.589c-20.108 0-36.408 16.3-36.408 36.408 0 .093.006.184.007.277h72.802c.001-.092.007-.184.007-.277 0-20.108-16.3-36.408-36.408-36.408z" fill="#d7e057"/></g></g><g><g><path d="m158.824 114.089c-20.902 0-37.908 17.006-37.908 37.908l.007.284c.004.825.675 1.492 1.5 1.492h72.803c.828 0 1.502-.753 1.502-1.582l.005-.194c-.001-20.902-17.006-37.908-37.909-37.908zm-34.887 36.684c.648-18.684 16.048-33.685 34.887-33.685 18.813 0 34.197 14.959 34.882 33.685z" fill="#3a312a"/></g></g><g><g><path d="m158.824 129.854c-12.289 0-22.251 9.962-22.251 22.251 0 .057.004.112.004.169h44.494c0-.057.004-.112.004-.169 0-12.289-9.962-22.251-22.251-22.251z" fill="#d7e057"/></g></g><g><g><path d="m158.824 128.354c-13.097 0-23.751 10.654-23.751 23.751l.004.169c0 .828.672 1.5 1.5 1.5h44.494c.809 0 1.473-.725 1.501-1.532.001-.018.003-.119.003-.137 0-13.097-10.654-23.751-23.751-23.751zm-20.709 22.419c.688-10.824 9.714-19.42 20.709-19.42 10.985 0 20.005 8.58 20.706 19.42z" fill="#3a312a"/></g></g><g><g><path d="m63.797 132.274h-16.654c-3.686 0-6.673 2.988-6.673 6.673v16.654c0 3.686 2.988 6.673 6.673 6.673h16.654c3.685 0 6.673-2.988 6.673-6.673v-16.654c0-3.686-2.988-6.673-6.673-6.673z" fill="#f16c7a"/></g></g><g><g><path d="m63.797 130.773h-16.654c-4.506 0-8.173 3.667-8.173 8.174v16.653c0 4.507 3.667 8.173 8.173 8.173h16.654c4.507 0 8.173-3.666 8.173-8.173v-16.653c0-4.507-3.666-8.174-8.173-8.174zm5.173 24.828c0 2.852-2.321 5.173-5.173 5.173h-16.654c-2.853 0-5.173-2.32-5.173-5.173v-16.653c0-2.853 2.32-5.174 5.173-5.174h16.654c2.853 0 5.173 2.321 5.173 5.174z" fill="#3a312a"/></g></g><g><g><path d="m77.116 141.308c-28.086 0-50.854 22.768-50.854 50.854 0 .13.009.257.01.386h101.688c.001-.129.01-.257.01-.386 0-28.086-22.768-50.854-50.854-50.854z" fill="#d7e057"/></g></g><g><g><path d="m77.116 139.808c-28.868 0-52.354 23.486-52.354 52.354l.01.398c.006.823.676 1.488 1.5 1.488h101.688c.824 0 1.494-.665 1.5-1.488l.01-.398c0-28.868-23.486-52.354-52.354-52.354zm-49.342 51.24c.594-26.702 22.5-48.24 49.342-48.24s48.748 21.538 49.342 48.24z" fill="#3a312a"/></g></g><g><g><path d="m77.116 155.864c-20.108 0-36.408 16.3-36.408 36.408 0 .093.006.184.007.277h72.802c.001-.092.007-.184.007-.277 0-20.108-16.3-36.408-36.408-36.408z" fill="#d7e057"/></g></g><g><g><path d="m77.116 154.363c-20.903 0-37.908 17.006-37.908 37.908l.007.292c.009.822.678 1.484 1.5 1.484h72.802c.825 0 1.498-.753 1.502-1.578l.004-.198c.001-20.902-17.004-37.908-37.907-37.908zm-34.887 36.685c.648-18.684 16.049-33.685 34.887-33.685 18.81 0 34.193 14.955 34.881 33.685z" fill="#3a312a"/></g></g><g><g><path d="m77.116 170.128c-12.289 0-22.251 9.962-22.251 22.251 0 .057.004.112.004.169h44.494c0-.057.004-.112.004-.169 0-12.289-9.962-22.251-22.251-22.251z" fill="#d7e057"/></g></g><g><g><path d="m77.116 168.628c-13.097 0-23.751 10.655-23.751 23.752l.004.181c.007.823.677 1.487 1.5 1.487h44.494c.807 0 1.471-.717 1.501-1.522.001-.019.003-.127.003-.146 0-13.097-10.655-23.752-23.751-23.752zm-20.709 22.42c.689-10.824 9.714-19.42 20.709-19.42 10.985 0 20.003 8.579 20.706 19.42z" fill="#3a312a"/></g></g><g><g><path d="m126.32 123.865-15.926-4.87c-3.524-1.077-7.255.906-8.333 4.43l-4.87 15.926c-1.078 3.524.906 7.255 4.43 8.333l15.926 4.87c3.524 1.078 7.255-.906 8.333-4.43l4.87-15.926c1.077-3.525-.906-7.256-4.43-8.333z" fill="#f16c7a"/></g></g><g><g><path d="m126.758 122.43-15.926-4.87c-4.311-1.315-8.888 1.116-10.206 5.426l-4.87 15.927c-.639 2.087-.426 4.298.599 6.226s2.739 3.342 4.827 3.98l15.926 4.87c.79.241 1.598.361 2.401.361 1.319 0 2.627-.323 3.826-.96 1.927-1.025 3.341-2.739 3.98-4.827l4.87-15.926c1.317-4.31-1.117-8.889-5.427-10.207zm2.556 9.329-4.87 15.926c-.834 2.727-3.732 4.267-6.459 3.434l-15.926-4.87c-1.321-.403-2.406-1.298-3.055-2.518s-.783-2.619-.379-3.94l4.87-15.927c.681-2.225 2.735-3.66 4.95-3.66.499 0 1.007.073 1.509.227l15.926 4.87c2.729.832 4.269 3.73 3.434 6.458z" fill="#3a312a"/></g></g><g><g><path d="m198.965 134.555-11.776-11.776c-2.606-2.606-6.831-2.606-9.437 0l-11.776 11.776c-2.606 2.606-2.606 6.831 0 9.437l11.776 11.776c2.606 2.606 6.831 2.606 9.437 0l11.776-11.776c2.606-2.606 2.606-6.831 0-9.437z" fill="#f16c7a"/></g></g><g><g><path d="m200.025 133.494-11.776-11.775c-1.543-1.544-3.596-2.395-5.778-2.395-2.184 0-4.236.851-5.779 2.395l-11.776 11.775c-1.544 1.544-2.395 3.597-2.395 5.779 0 2.184.851 4.236 2.395 5.779l11.776 11.776c1.593 1.594 3.686 2.39 5.778 2.39 2.094 0 4.187-.796 5.779-2.39l11.776-11.776c3.187-3.186 3.187-8.37 0-11.558zm-2.121 9.438-11.776 11.776c-.977.977-2.276 1.515-3.657 1.515-1.382 0-2.682-.538-3.658-1.515l-11.776-11.776c-.978-.977-1.516-2.276-1.516-3.658s.538-2.681 1.516-3.658l11.776-11.775c.978-.978 2.276-1.516 3.658-1.516 1.381 0 2.68.538 3.657 1.516l11.776 11.775c2.017 2.017 2.017 5.299 0 7.316z" fill="#3a312a"/></g></g><g><g><path d="m226.188 69.206c-.974 11.564-13.025 13.39-13.025 13.39 10.347.487 12.925 14.059 12.925 14.059.221-9.677 13.321-14.203 13.321-14.203-9.812-.586-13.221-13.246-13.221-13.246z" fill="#d7e057"/></g></g><g><g><path d="m239.5 80.956c-8.605-.516-11.832-12.025-11.863-12.142-.19-.702-.847-1.162-1.584-1.102-.725.066-1.298.642-1.359 1.367-.859 10.216-11.313 11.964-11.754 12.032-.763.116-1.313.791-1.273 1.561.04.771.657 1.385 1.428 1.421 9.027.426 11.498 12.719 11.521 12.843.138.712.76 1.218 1.473 1.218.042 0 .084-.002.126-.005.764-.064 1.357-.693 1.375-1.46.194-8.509 12.191-12.777 12.313-12.819.676-.234 1.092-.914.994-1.622-.099-.708-.683-1.249-1.397-1.292zm-13.566 10.346c-1.356-3.131-3.708-6.908-7.586-8.877 2.931-1.404 6.408-3.913 8.201-8.273 1.551 3.071 4.2 6.881 8.334 8.723-3.007 1.64-6.923 4.405-8.949 8.427z" fill="#3a312a"/></g></g><g><g><path d="m204.49 86.187c-.689 8.179-9.213 9.471-9.213 9.471 7.318.344 9.142 9.944 9.142 9.944.156-6.844 9.422-10.045 9.422-10.045-6.941-.416-9.351-9.37-9.351-9.37z" fill="#d7e057"/></g></g><g><g><path d="m213.932 94.06c-5.767-.346-7.972-8.187-7.993-8.266-.19-.702-.864-1.164-1.582-1.102-.726.065-1.3.643-1.361 1.368-.579 6.871-7.646 8.066-7.942 8.113-.763.116-1.313.791-1.273 1.561.04.771.657 1.385 1.428 1.421 6.035.284 7.724 8.645 7.739 8.727.136.713.759 1.22 1.473 1.22.041 0 .083-.002.125-.005.765-.063 1.358-.694 1.376-1.461.129-5.709 8.331-8.633 8.411-8.661.677-.233 1.094-.913.997-1.622-.1-.709-.685-1.25-1.398-1.293zm-9.585 6.794c-.924-1.886-2.34-3.947-4.447-5.279 1.855-1.041 3.697-2.63 4.871-4.917 1.057 1.874 2.654 3.955 4.941 5.225-1.85 1.098-3.989 2.738-5.365 4.971z" fill="#3a312a"/></g></g><g><g><path d="m204.49 59.529c-.689 8.179-9.213 9.471-9.213 9.471 7.318.344 9.142 9.944 9.142 9.944.156-6.845 9.422-10.045 9.422-10.045-6.941-.416-9.351-9.37-9.351-9.37z" fill="#d7e057"/></g></g><g><g><path d="m213.932 67.402c-5.767-.346-7.972-8.186-7.993-8.266-.19-.702-.864-1.163-1.582-1.102-.726.065-1.3.643-1.361 1.368-.579 6.871-7.646 8.066-7.942 8.113-.763.116-1.313.791-1.273 1.561.04.771.657 1.385 1.428 1.421 6.035.284 7.724 8.645 7.739 8.727.136.713.759 1.22 1.473 1.22.041 0 .083-.002.125-.005.765-.063 1.358-.694 1.376-1.461.129-5.709 8.331-8.633 8.411-8.661.677-.233 1.094-.913.997-1.622-.1-.709-.685-1.25-1.398-1.293zm-9.585 6.794c-.924-1.886-2.34-3.947-4.447-5.279 1.855-1.041 3.697-2.63 4.871-4.917 1.057 1.874 2.654 3.955 4.941 5.225-1.85 1.099-3.989 2.739-5.365 4.971z" fill="#3a312a"/></g></g><g><g><path d="m178.824 141.308c-28.086 0-50.854 22.768-50.854 50.854 0 .13.009.257.01.386h101.689c.001-.129.01-.257.01-.386-.001-28.086-22.769-50.854-50.855-50.854z" fill="#d7e057"/></g></g><g><g><path d="m178.824 139.808c-28.868 0-52.354 23.486-52.354 52.354l.01.398c.006.823.676 1.488 1.5 1.488h101.689c.824 0 1.494-.665 1.5-1.488l.01-.398c0-28.868-23.487-52.354-52.355-52.354zm-49.342 51.24c.594-26.702 22.5-48.24 49.342-48.24s48.748 21.538 49.342 48.24z" fill="#3a312a"/></g></g><g><g><path d="m178.824 155.864c-20.108 0-36.408 16.3-36.408 36.408 0 .093.006.184.007.277h72.802c.001-.092.007-.184.007-.277 0-20.108-16.3-36.408-36.408-36.408z" fill="#d7e057"/></g></g><g><g><path d="m178.824 154.363c-20.902 0-37.908 17.006-37.908 37.908l.007.292c.009.822.678 1.484 1.5 1.484h72.803c.828 0 1.502-.753 1.502-1.582l.005-.194c-.001-20.902-17.006-37.908-37.909-37.908zm-34.887 36.685c.648-18.684 16.048-33.685 34.887-33.685 18.813 0 34.197 14.959 34.882 33.685z" fill="#3a312a"/></g></g><g><g><path d="m178.824 170.128c-12.289 0-22.251 9.962-22.251 22.251 0 .057.004.112.004.169h44.494c0-.057.004-.112.004-.169 0-12.289-9.962-22.251-22.251-22.251z" fill="#d7e057"/></g></g><g><g><path d="m178.824 168.628c-13.097 0-23.751 10.655-23.751 23.752l.004.168c0 .828.672 1.5 1.5 1.5h44.494c.809 0 1.473-.725 1.501-1.532.001-.017.003-.118.003-.136 0-13.097-10.654-23.752-23.751-23.752zm-20.709 22.42c.689-10.824 9.715-19.42 20.709-19.42 10.985 0 20.004 8.58 20.706 19.42z" fill="#3a312a"/></g></g><g><g><path d="m16.53 192.548c0 19.436 15.756 35.192 35.192 35.192h152.497c19.436 0 35.192-15.756 35.192-35.192z" fill="#fce8cb"/></g></g><g><g><path d="m239.41 191.049h-222.88c-.829 0-1.5.672-1.5 1.5 0 20.232 16.46 36.691 36.692 36.691h4.531c.829 0 1.5-.672 1.5-1.5s-.671-1.5-1.5-1.5h-4.531c-18.076 0-32.872-14.307-33.659-32.191h219.814c-.787 17.885-15.583 32.191-33.658 32.191h-133.033c-.829 0-1.5.672-1.5 1.5s.671 1.5 1.5 1.5h133.032c20.231 0 36.691-16.46 36.691-36.691.001-.828-.671-1.5-1.499-1.5z" fill="#3a312a"/></g></g><g><g><path d="m80.777 227.74h94.387v11.731h-94.387z" fill="#fce8cb"/></g></g><g><g><path d="m175.163 226.24h-94.386c-.829 0-1.5.672-1.5 1.5v11.73c0 .828.671 1.5 1.5 1.5h94.386c.828 0 1.5-.672 1.5-1.5v-11.73c0-.828-.672-1.5-1.5-1.5zm-1.5 11.731h-91.386v-8.73h91.386z" fill="#3a312a"/></g></g><g><g><path d="m127.97 141.308c-28.086 0-50.854 22.768-50.854 50.854 0 .13.009.257.01.386h101.689c.001-.129.01-.257.01-.386-.001-28.086-22.769-50.854-50.855-50.854z" fill="#d7e057"/></g></g><g><g><path d="m127.97 139.808c-28.868 0-52.354 23.486-52.354 52.354l.009.392c.003.826.674 1.494 1.5 1.494h101.689c.824 0 1.494-.665 1.5-1.488l.01-.398c0-28.868-23.486-52.354-52.354-52.354zm-49.342 51.24c.594-26.702 22.5-48.24 49.342-48.24s48.748 21.538 49.341 48.24z" fill="#3a312a"/></g></g><g><g><path d="m127.97 155.864c-20.108 0-36.408 16.3-36.408 36.408 0 .093.006.184.007.277h72.802c.001-.092.007-.184.007-.277 0-20.108-16.3-36.408-36.408-36.408z" fill="#d7e057"/></g></g><g><g><path d="m127.97 154.363c-20.903 0-37.908 17.006-37.908 37.908l.007.284c.004.825.675 1.492 1.5 1.492h72.802c.822 0 1.494-.751 1.502-1.573l.005-.203c0-20.902-17.005-37.908-37.908-37.908zm-34.887 36.685c.648-18.684 16.049-33.685 34.887-33.685 18.808 0 34.189 14.95 34.88 33.685z" fill="#3a312a"/></g></g><g><g><path d="m127.97 170.128c-12.289 0-22.251 9.962-22.251 22.251 0 .057.004.112.004.169h44.494c0-.057.004-.112.004-.169 0-12.289-9.962-22.251-22.251-22.251z" fill="#d7e057"/></g></g><g><g><path d="m127.97 168.628c-13.096 0-23.751 10.655-23.751 23.752l.004.181c.007.823.677 1.487 1.5 1.487h44.494c.809 0 1.473-.725 1.501-1.532.001-.017.003-.118.003-.136 0-13.097-10.655-23.752-23.751-23.752zm-20.708 22.42c.689-10.824 9.714-19.42 20.709-19.42 10.985 0 20.004 8.58 20.706 19.42z" fill="#3a312a"/></g></g><g><g><path d="m223.43 194.05c-.79 17.88-15.58 32.19-33.66 32.19h14.45c18.07 0 32.87-14.31 33.66-32.19z" fill="#decaad"/></g></g><g><g><path d="m127.97 141.308c-28.086 0-50.854 22.768-50.854 50.854 0 .13.009.257.01.386h101.689c.001-.129.01-.257.01-.386-.001-28.086-22.769-50.854-50.855-50.854z" fill="#d7e057"/></g></g><g><g><path d="m127.97 139.808c-28.868 0-52.354 23.486-52.354 52.354l.009.392c.003.826.674 1.494 1.5 1.494h101.689c.824 0 1.494-.665 1.5-1.488l.01-.398c0-28.868-23.486-52.354-52.354-52.354zm-49.342 51.24c.594-26.702 22.5-48.24 49.342-48.24s48.748 21.538 49.341 48.24z" fill="#3a312a"/></g></g><g><g><path d="m127.97 155.864c-20.108 0-36.408 16.3-36.408 36.408 0 .093.006.184.007.277h72.802c.001-.092.007-.184.007-.277 0-20.108-16.3-36.408-36.408-36.408z" fill="#d7e057"/></g></g><g><g><path d="m127.97 154.363c-20.903 0-37.908 17.006-37.908 37.908l.007.284c.004.825.675 1.492 1.5 1.492h72.802c.822 0 1.494-.751 1.502-1.573l.005-.203c0-20.902-17.005-37.908-37.908-37.908zm-34.887 36.685c.648-18.684 16.049-33.685 34.887-33.685 18.808 0 34.189 14.95 34.88 33.685z" fill="#3a312a"/></g></g><g><g><path d="m127.97 170.128c-12.289 0-22.251 9.962-22.251 22.251 0 .057.004.112.004.169h44.494c0-.057.004-.112.004-.169 0-12.289-9.962-22.251-22.251-22.251z" fill="#d7e057"/></g></g><g><g><path d="m127.97 168.628c-13.096 0-23.751 10.655-23.751 23.752l.004.181c.007.823.677 1.487 1.5 1.487h44.494c.809 0 1.473-.725 1.501-1.532.001-.017.003-.118.003-.136 0-13.097-10.655-23.752-23.751-23.752zm-20.708 22.42c.689-10.824 9.714-19.42 20.709-19.42 10.985 0 20.004 8.58 20.706 19.42z" fill="#3a312a"/></g></g><g><g><path d="m232.702 35.883h-136.927c.693 2.128 1.071 4.402 1.071 6.768s-.378 4.64-1.071 6.768h14.381s0-.001 0-.002h.17l17.348.002h105.028c3.738 0 6.768-3.03 6.768-6.768 0-3.737-3.03-6.768-6.768-6.768z" fill="#87796f"/></g></g><g><g><path d="m232.702 34.384h-136.927c-.48 0-.932.23-1.214.619s-.361.889-.212 1.346c.662 2.031.997 4.152.997 6.303s-.336 4.272-.997 6.304c-.149.457-.07.957.212 1.346s.733.619 1.214.619h14.381c.032 0 .063-.001.094-.003h.076c.829 0 1.5-.672 1.5-1.5s-.671-1.5-1.5-1.5h-.17c-.032 0-.063.001-.094.003h-12.314c.398-1.722.599-3.486.599-5.268 0-1.781-.201-3.546-.599-5.268h134.954c2.904 0 5.268 2.363 5.268 5.268s-2.363 5.268-5.268 5.268h-105.028c-.829 0-1.5.672-1.5 1.5s.671 1.5 1.5 1.5h105.028c4.559 0 8.268-3.709 8.268-8.268 0-4.56-3.709-8.269-8.268-8.269z" fill="#3a312a"/></g></g><g><g><path d="m74.969 20.774h-38.822c-2.563 0-4.641 2.078-4.641 4.641s2.078 4.641 4.641 4.641h25.754c2.197 0 3.978 1.781 3.978 3.978 0 2.197-1.781 3.978-3.978 3.978h-25.754c-2.563 0-4.641 2.078-4.641 4.641s2.078 4.641 4.641 4.641h25.754c2.197 0 3.978 1.781 3.978 3.978s-1.781 3.978-3.978 3.978h-25.754c-2.563 0-4.641 2.078-4.641 4.641s2.078 4.641 4.641 4.641h38.821c12.083 0 21.878-9.795 21.878-21.878s-9.794-21.88-21.877-21.88z" fill="#87796f"/></g></g><g><g><path d="m74.969 19.273h-38.822c-3.386 0-6.141 2.755-6.141 6.141 0 3.387 2.755 6.142 6.141 6.142h25.754c1.366 0 2.478 1.111 2.478 2.477s-1.111 2.478-2.478 2.478h-25.754c-3.386 0-6.141 2.755-6.141 6.141s2.755 6.141 6.141 6.141h25.754c1.366 0 2.478 1.112 2.478 2.479s-1.111 2.478-2.478 2.478h-25.754c-3.386 0-6.141 2.755-6.141 6.141s2.755 6.141 6.141 6.141h38.821c12.891 0 23.378-10.487 23.378-23.378.001-12.893-10.487-23.381-23.377-23.381zm0 43.756h-38.822c-1.732 0-3.141-1.409-3.141-3.141 0-1.731 1.409-3.141 3.141-3.141h25.754c3.021 0 5.478-2.457 5.478-5.478s-2.457-5.479-5.478-5.479h-25.754c-1.732 0-3.141-1.409-3.141-3.141s1.409-3.141 3.141-3.141h25.754c3.021 0 5.478-2.457 5.478-5.478s-2.457-5.477-5.478-5.477h-25.754c-1.732 0-3.141-1.409-3.141-3.142 0-1.732 1.409-3.141 3.141-3.141h38.821c11.236 0 20.378 9.142 20.378 20.378.001 11.24-9.141 20.381-20.377 20.381z" fill="#3a312a"/></g></g><g><g><path d="m21.923 16.529c-2.978 0-5.393 2.414-5.393 5.392v59.599c0 2.979 2.414 5.393 5.393 5.393 2.978 0 5.393-2.414 5.393-5.393v-59.598c-.001-2.978-2.415-5.393-5.393-5.393z" fill="#d7e057"/></g></g><g><g><path d="m21.922 15.029c-3.801 0-6.893 3.092-6.893 6.893v59.599c0 3.801 3.092 6.893 6.893 6.893s6.892-3.092 6.892-6.893v-59.599c.001-3.801-3.091-6.893-6.892-6.893zm3.893 66.492c0 2.146-1.746 3.893-3.892 3.893-2.147 0-3.893-1.746-3.893-3.893v-59.599c0-2.146 1.746-3.893 3.893-3.893 2.146 0 3.892 1.746 3.892 3.893z" fill="#3a312a"/></g></g><g><g><path d="m32.708 16.529c-2.978 0-5.393 2.414-5.393 5.392v41.529c0 2.978 2.414 5.392 5.393 5.392 2.978 0 5.393-2.414 5.393-5.392v-41.528c-.001-2.978-2.415-5.393-5.393-5.393z" fill="#d7e057"/></g></g><g><g><path d="m32.708 15.029c-3.801 0-6.893 3.092-6.893 6.893v41.528c0 3.801 3.092 6.893 6.893 6.893s6.893-3.092 6.893-6.893v-41.528c0-3.801-3.092-6.893-6.893-6.893zm3.893 48.421c0 2.147-1.746 3.893-3.893 3.893s-3.893-1.746-3.893-3.893v-41.528c0-2.146 1.747-3.893 3.893-3.893s3.893 1.746 3.893 3.893z" fill="#3a312a"/></g></g><g><g><path d="m43.493 16.529c-2.978 0-5.393 2.414-5.393 5.392v41.529c0 2.978 2.414 5.392 5.393 5.392 2.978 0 5.393-2.414 5.393-5.392v-41.528c0-2.978-2.415-5.393-5.393-5.393z" fill="#d7e057"/></g></g><g><g><path d="m43.493 15.029c-3.801 0-6.893 3.092-6.893 6.893v41.528c0 3.801 3.092 6.893 6.893 6.893s6.893-3.092 6.893-6.893v-41.528c0-3.801-3.092-6.893-6.893-6.893zm3.893 48.421c0 2.147-1.746 3.893-3.893 3.893-2.146 0-3.893-1.746-3.893-3.893v-41.528c0-2.146 1.746-3.893 3.893-3.893 2.146 0 3.893 1.746 3.893 3.893z" fill="#3a312a"/></g></g><g><g><path d="m54.278 16.529c-2.978 0-5.393 2.414-5.393 5.392v41.529c0 2.978 2.414 5.392 5.393 5.392 2.978 0 5.393-2.414 5.393-5.392v-41.528c0-2.978-2.415-5.393-5.393-5.393z" fill="#d7e057"/></g></g><g><g><path d="m54.278 15.029c-3.801 0-6.893 3.092-6.893 6.893v41.528c0 3.801 3.092 6.893 6.893 6.893s6.893-3.092 6.893-6.893v-41.528c0-3.801-3.092-6.893-6.893-6.893zm3.893 48.421c0 2.147-1.746 3.893-3.893 3.893s-3.893-1.746-3.893-3.893v-41.528c0-2.146 1.746-3.893 3.893-3.893s3.893 1.746 3.893 3.893z" fill="#3a312a"/></g></g></g></svg>