<svg id="Layer_1" enable-background="new 0 0 256 256" height="512" viewBox="0 0 256 256" width="512" xmlns="http://www.w3.org/2000/svg"><g><g><g><path d="m47.67 25.925c-.974 11.564-13.024 13.389-13.024 13.389 10.347.487 12.925 14.059 12.925 14.059.221-9.677 13.321-14.202 13.321-14.202-9.813-.587-13.222-13.246-13.222-13.246z" fill="#d7e057"/></g></g><g><g><path d="m60.982 37.674c-8.604-.515-11.832-12.024-11.863-12.141-.191-.702-.849-1.157-1.584-1.102-.725.066-1.298.642-1.359 1.367-.86 10.215-11.313 11.964-11.754 12.032-.763.116-1.314.791-1.274 1.561.04.771.657 1.385 1.428 1.421 9.027.426 11.498 12.719 11.521 12.843.138.712.76 1.218 1.473 1.218.042 0 .084-.002.126-.005.765-.064 1.357-.693 1.375-1.46.193-8.51 12.191-12.778 12.313-12.82.676-.234 1.092-.914.994-1.622-.099-.709-.682-1.25-1.396-1.292zm-13.566 10.346c-1.356-3.131-3.708-6.907-7.587-8.876 2.931-1.405 6.409-3.914 8.202-8.274 1.551 3.071 4.199 6.88 8.334 8.723-3.008 1.639-6.923 4.405-8.949 8.427z" fill="#3a312a"/></g></g><g><g><path d="m25.972 42.905c-.689 8.179-9.213 9.471-9.213 9.471 7.318.345 9.142 9.944 9.142 9.944.156-6.845 9.422-10.045 9.422-10.045-6.94-.415-9.351-9.37-9.351-9.37z" fill="#d7e057"/></g></g><g><g><path d="m35.414 50.778c-5.767-.346-7.973-8.187-7.995-8.266-.189-.702-.856-1.159-1.581-1.102-.726.066-1.3.643-1.361 1.368-.578 6.871-7.646 8.066-7.941 8.113-.763.116-1.314.791-1.274 1.56.04.771.657 1.385 1.428 1.421 6.034.284 7.723 8.645 7.738 8.727.136.713.759 1.22 1.473 1.22.041 0 .083-.002.125-.005.765-.063 1.358-.693 1.376-1.461.13-5.709 8.332-8.633 8.412-8.661.677-.233 1.094-.913.997-1.622-.098-.708-.683-1.249-1.397-1.292zm-9.586 6.794c-.924-1.885-2.34-3.946-4.446-5.279 1.856-1.041 3.697-2.63 4.87-4.917 1.058 1.874 2.655 3.955 4.942 5.225-1.85 1.1-3.989 2.739-5.366 4.971z" fill="#3a312a"/></g></g><g><g><path d="m25.972 16.248c-.689 8.179-9.213 9.471-9.213 9.471 7.318.344 9.142 9.944 9.142 9.944.156-6.844 9.422-10.045 9.422-10.045-6.94-.416-9.351-9.37-9.351-9.37z" fill="#d7e057"/></g></g><g><g><path d="m35.414 24.12c-5.767-.345-7.973-8.186-7.995-8.265-.189-.702-.856-1.158-1.581-1.102-.726.065-1.3.643-1.361 1.368-.578 6.871-7.646 8.066-7.941 8.113-.763.116-1.314.791-1.274 1.561.04.771.657 1.385 1.428 1.421 6.034.284 7.723 8.645 7.738 8.727.136.713.759 1.22 1.473 1.22.041 0 .083-.002.125-.005.765-.063 1.358-.693 1.376-1.461.13-5.709 8.332-8.634 8.413-8.662.676-.233 1.093-.913.996-1.622-.098-.709-.683-1.251-1.397-1.293zm-9.586 6.795c-.924-1.885-2.34-3.946-4.446-5.279 1.856-1.041 3.697-2.63 4.87-4.917 1.058 1.874 2.655 3.954 4.941 5.224-1.849 1.1-3.988 2.74-5.365 4.972z" fill="#3a312a"/></g></g><g><g><path d="m183.576 135.29-50.205-86.977c-13.726-23.761-48.016-23.761-61.743 0l-25.503 44.183-7.433 12.878-17.268 29.916c-13.726 23.761 3.429 53.462 30.861 53.462h100.43c27.432 0 44.588-29.701 30.861-53.462z" fill="#fce8cb"/></g></g><g><g><path d="m184.875 134.54-50.205-86.977c-6.717-11.629-18.743-18.571-32.17-18.571s-25.453 6.942-32.17 18.571l-25.504 44.183c-.414.718-.169 1.635.549 2.049.717.414 1.635.17 2.049-.549l25.504-44.183c6.175-10.689 17.23-17.071 29.572-17.071s23.397 6.382 29.572 17.071l50.205 86.976c6.174 10.687 6.176 23.448.007 34.137-6.172 10.691-17.226 17.075-29.569 17.075h-100.43c-12.344 0-23.397-6.384-29.569-17.075-6.169-10.689-6.167-23.45.007-34.137l17.267-29.916c.414-.718.169-1.635-.549-2.049-.716-.414-1.635-.17-2.049.549l-17.267 29.917c-6.716 11.625-6.719 25.508-.007 37.137 6.713 11.631 18.738 18.575 32.167 18.575h100.43c13.429 0 25.454-6.944 32.167-18.575 6.712-11.629 6.709-25.512-.007-37.137z" fill="#3a312a"/></g></g><g><g><path d="m129.506 123.611h-54.012c-7.365 0-13.335 5.97-13.335 13.335v51.806h80.683v-51.806c0-7.365-5.971-13.335-13.336-13.335z" fill="#87796f"/></g></g><g><g><path d="m129.506 122.11h-54.012c-8.181 0-14.836 6.655-14.836 14.836v51.806c0 .828.672 1.5 1.5 1.5h80.684c.828 0 1.5-.672 1.5-1.5v-51.806c0-8.18-6.656-14.836-14.836-14.836zm11.836 65.142h-77.684v-50.306c0-6.526 5.31-11.836 11.836-11.836h54.012c6.526 0 11.836 5.31 11.836 11.836z" fill="#3a312a"/></g></g><g><g><path d="m234.576 186.29-50.205-86.977c-13.726-23.761-48.017-23.761-61.743 0l-50.204 86.977c-13.726 23.761 3.429 53.462 30.861 53.462h100.43c27.433 0 44.588-29.701 30.861-53.462z" fill="#fce8cb"/></g></g><g><g><path d="m235.875 185.54-50.205-86.977c-6.717-11.628-18.743-18.57-32.17-18.57s-25.453 6.942-32.17 18.57l-50.205 86.977c-6.716 11.625-6.719 25.508-.007 37.137 6.713 11.631 18.738 18.575 32.167 18.575h100.43c13.429 0 25.454-6.944 32.167-18.575 6.712-11.629 6.709-25.512-.007-37.137zm-2.591 35.637c-6.172 10.691-17.226 17.075-29.569 17.075h-100.43c-12.344 0-23.397-6.384-29.569-17.075-6.169-10.689-6.167-23.45.007-34.137l50.205-86.977c6.175-10.688 17.229-17.07 29.572-17.07s23.398 6.382 29.572 17.07l50.205 86.977c6.174 10.687 6.176 23.448.007 34.137z" fill="#3a312a"/></g></g><g><g><path d="m180.506 174.611h-54.012c-7.365 0-13.335 5.971-13.335 13.335v51.806h80.683v-51.806c-.001-7.365-5.971-13.335-13.336-13.335z" fill="#87796f"/></g></g><g><g><path d="m180.506 173.11h-20.96c-.828 0-1.5.672-1.5 1.5s.672 1.5 1.5 1.5h20.96c6.526 0 11.836 5.31 11.836 11.836v50.306h-77.684v-50.306c0-6.526 5.31-11.836 11.836-11.836h18.939c.828 0 1.5-.672 1.5-1.5s-.672-1.5-1.5-1.5h-18.939c-8.181 0-14.836 6.655-14.836 14.836v51.806c0 .828.672 1.5 1.5 1.5h80.684c.828 0 1.5-.672 1.5-1.5v-51.806c0-8.18-6.656-14.836-14.836-14.836z" fill="#3a312a"/></g></g><g><g><circle cx="152.009" cy="137.492" fill="#87796f" r="6.5"/></g></g><g><g><path d="m152.01 129.492c-4.411 0-8 3.589-8 8s3.589 8 8 8 8-3.589 8-8-3.589-8-8-8zm0 13c-2.757 0-5-2.243-5-5s2.243-5 5-5 5 2.243 5 5-2.243 5-5 5z" fill="#3a312a"/></g></g><g><g><circle cx="120.009" cy="157.492" fill="#87796f" r="6.5"/></g></g><g><g><path d="m120.01 149.492c-4.411 0-8 3.589-8 8s3.589 8 8 8 8-3.589 8-8-3.589-8-8-8zm0 13c-2.757 0-5-2.243-5-5s2.243-5 5-5 5 2.243 5 5-2.243 5-5 5z" fill="#3a312a"/></g></g><g><g><circle cx="77.009" cy="100.492" fill="#87796f" r="6.5"/></g></g><g><g><path d="m77.01 92.492c-4.411 0-8 3.589-8 8s3.589 8 8 8 8-3.589 8-8-3.589-8-8-8zm0 13c-2.757 0-5-2.243-5-5s2.243-5 5-5 5 2.243 5 5-2.243 5-5 5z" fill="#3a312a"/></g></g><g><g><circle cx="100.009" cy="51.492" fill="#87796f" r="6.5"/></g></g><g><g><path d="m100.01 43.492c-4.411 0-8 3.589-8 8s3.589 8 8 8 8-3.589 8-8-3.589-8-8-8zm0 13c-2.757 0-5-2.243-5-5s2.243-5 5-5 5 2.243 5 5-2.243 5-5 5z" fill="#3a312a"/></g></g><g><g><circle cx="110.009" cy="85.492" fill="#87796f" r="6.5"/></g></g><g><g><path d="m110.01 77.492c-4.411 0-8 3.589-8 8s3.589 8 8 8 8-3.589 8-8-3.589-8-8-8zm0 13c-2.757 0-5-2.243-5-5s2.243-5 5-5 5 2.243 5 5-2.243 5-5 5z" fill="#3a312a"/></g></g><g><g><circle cx="152.009" cy="100.492" fill="#87796f" r="6.5"/></g></g><g><g><path d="m152.01 92.492c-4.411 0-8 3.589-8 8s3.589 8 8 8 8-3.589 8-8-3.589-8-8-8zm0 13c-2.757 0-5-2.243-5-5s2.243-5 5-5 5 2.243 5 5-2.243 5-5 5z" fill="#3a312a"/></g></g><g><g><circle cx="185.009" cy="162.492" fill="#87796f" r="6.5"/></g></g><g><g><path d="m185.01 154.492c-4.411 0-8 3.589-8 8s3.589 8 8 8 8-3.589 8-8-3.589-8-8-8zm0 13c-2.757 0-5-2.243-5-5s2.243-5 5-5 5 2.243 5 5-2.243 5-5 5z" fill="#3a312a"/></g></g><g><g><path d="m233.279 187.042-50.21-86.98c-6.17-10.69-17.23-17.07-29.57-17.07-2.57 0-5.08.28-7.5.82 9.23 2.02 17.18 7.78 22.07 16.25l50.21 86.98c6.17 10.68 6.17 23.45 0 34.13-5.04 8.74-13.34 14.6-22.94 16.45v.63h8.38c12.34 0 23.39-6.38 29.56-17.08 6.17-10.68 6.17-23.45 0-34.13z" fill="#decaad"/></g></g></g></svg>