<svg id="Layer_1" enable-background="new 0 0 256 256" height="512" viewBox="0 0 256 256" width="512" xmlns="http://www.w3.org/2000/svg"><g><g><g><path d="m48.38 41.243c-.974 11.564-13.025 13.39-13.025 13.39 10.347.487 12.925 14.059 12.925 14.059.221-9.677 13.321-14.202 13.321-14.202-9.813-.588-13.221-13.247-13.221-13.247z" fill="#d7e057"/></g></g><g><g><path d="m61.691 52.992c-8.605-.514-11.832-12.024-11.864-12.141-.191-.703-.862-1.163-1.583-1.102-.725.066-1.298.642-1.359 1.367-.86 10.215-11.313 11.964-11.754 12.033-.763.115-1.313.79-1.274 1.561.04.77.657 1.384 1.427 1.421 9.028.425 11.499 12.719 11.523 12.843.137.711.759 1.217 1.472 1.217.042 0 .084-.001.126-.005.764-.064 1.357-.693 1.375-1.459.195-8.509 12.192-12.777 12.313-12.819.675-.235 1.092-.915.994-1.623-.098-.709-.682-1.25-1.396-1.293zm-13.566 10.346c-1.356-3.13-3.709-6.907-7.587-8.876 2.931-1.405 6.409-3.913 8.202-8.273 1.551 3.071 4.2 6.88 8.334 8.722-3.007 1.64-6.922 4.406-8.949 8.427z" fill="#3a312a"/></g></g><g><g><path d="m26.681 58.223c-.689 8.179-9.213 9.47-9.213 9.47 7.318.344 9.142 9.944 9.142 9.944.156-6.844 9.422-10.045 9.422-10.045-6.94-.415-9.351-9.369-9.351-9.369z" fill="#d7e057"/></g></g><g><g><path d="m36.123 66.095c-5.766-.345-7.972-8.185-7.993-8.264-.19-.702-.856-1.169-1.582-1.102-.726.065-1.299.642-1.36 1.368-.579 6.871-7.647 8.066-7.943 8.113-.763.115-1.313.79-1.273 1.561.04.77.657 1.384 1.427 1.421 6.036.284 7.724 8.644 7.74 8.726.135.712.759 1.22 1.473 1.22.041 0 .083-.001.125-.005.765-.063 1.358-.694 1.376-1.461.13-5.709 8.332-8.634 8.412-8.662.677-.234 1.094-.913.996-1.622-.099-.708-.684-1.25-1.398-1.293zm-9.585 6.796c-.924-1.886-2.34-3.947-4.447-5.28 1.856-1.041 3.697-2.63 4.871-4.917 1.057 1.874 2.654 3.955 4.941 5.224-1.85 1.101-3.988 2.741-5.365 4.973z" fill="#3a312a"/></g></g><g><g><path d="m26.681 31.566c-.689 8.179-9.213 9.471-9.213 9.471 7.318.344 9.142 9.944 9.142 9.944.156-6.845 9.422-10.045 9.422-10.045-6.94-.416-9.351-9.37-9.351-9.37z" fill="#d7e057"/></g></g><g><g><path d="m36.123 39.438c-5.766-.345-7.972-8.186-7.994-8.265-.19-.702-.856-1.169-1.582-1.101-.726.065-1.299.642-1.36 1.368-.579 6.871-7.647 8.067-7.943 8.114-.763.115-1.313.79-1.273 1.561.04.77.657 1.384 1.428 1.421 6.035.284 7.724 8.644 7.739 8.726.135.713.759 1.22 1.472 1.22.042 0 .083-.001.125-.005.765-.063 1.358-.694 1.376-1.461.13-5.709 8.331-8.634 8.412-8.662.676-.234 1.094-.913.996-1.622-.097-.71-.682-1.251-1.396-1.294zm-9.585 6.795c-.924-1.886-2.34-3.947-4.447-5.28 1.856-1.041 3.697-2.63 4.871-4.917 1.057 1.874 2.654 3.955 4.941 5.224-1.849 1.101-3.988 2.741-5.365 4.973z" fill="#3a312a"/></g></g><g><g><path d="m16.5 147.756h223v14.108h-223z" fill="#f16c7a"/></g></g><g><g><path d="m239.5 146.256h-223c-.829 0-1.5.671-1.5 1.5v14.108c0 .829.671 1.5 1.5 1.5h223c.829 0 1.5-.671 1.5-1.5v-14.108c0-.829-.671-1.5-1.5-1.5zm-1.5 14.108h-220v-11.108h220z" fill="#3a312a"/></g></g><g><g><path d="m214.409 127.09h-32.818c-6.126 0-11.091 4.966-11.091 11.091v33.258c0 6.126 4.966 11.091 11.091 11.091h32.818c6.126 0 11.091-4.966 11.091-11.091v-33.258c0-6.125-4.966-11.091-11.091-11.091z" fill="#87796f"/></g></g><g><g><path d="m214.409 125.59h-32.817c-6.943 0-12.591 5.648-12.591 12.591v33.258c0 6.943 5.648 12.591 12.591 12.591h32.817c6.943 0 12.591-5.648 12.591-12.591v-33.258c0-6.942-5.648-12.591-12.591-12.591zm9.591 45.849c0 5.288-4.303 9.591-9.591 9.591h-32.817c-5.289 0-9.591-4.303-9.591-9.591v-33.258c0-5.289 4.303-9.591 9.591-9.591h32.817c5.289 0 9.591 4.302 9.591 9.591z" fill="#3a312a"/></g></g><g><g><path d="m144.409 127.09h-32.818c-6.125 0-11.091 4.966-11.091 11.091v33.258c0 6.126 4.966 11.091 11.091 11.091h32.818c6.126 0 11.091-4.966 11.091-11.091v-33.258c0-6.125-4.966-11.091-11.091-11.091z" fill="#87796f"/></g></g><g><g><path d="m144.409 125.59h-32.817c-6.943 0-12.591 5.648-12.591 12.591v33.258c0 6.943 5.648 12.591 12.591 12.591h32.817c6.943 0 12.591-5.648 12.591-12.591v-33.258c0-6.942-5.648-12.591-12.591-12.591zm9.591 45.849c0 5.288-4.303 9.591-9.591 9.591h-32.817c-5.289 0-9.591-4.303-9.591-9.591v-33.258c0-5.289 4.303-9.591 9.591-9.591h32.817c5.289 0 9.591 4.302 9.591 9.591z" fill="#3a312a"/></g></g><g><g><path d="m74.409 127.09h-32.818c-6.126 0-11.091 4.966-11.091 11.091v33.258c0 6.126 4.966 11.091 11.091 11.091h32.818c6.126 0 11.091-4.966 11.091-11.091v-33.258c0-6.125-4.966-11.091-11.091-11.091z" fill="#87796f"/></g></g><g><g><path d="m74.409 125.59h-32.818c-6.943 0-12.591 5.648-12.591 12.591v33.258c0 6.943 5.648 12.591 12.591 12.591h32.817c6.943 0 12.591-5.648 12.591-12.591v-33.258c.001-6.942-5.647-12.591-12.59-12.591zm9.591 45.849c0 5.288-4.303 9.591-9.591 9.591h-32.818c-5.289 0-9.591-4.303-9.591-9.591v-33.258c0-5.289 4.303-9.591 9.591-9.591h32.817c5.289 0 9.591 4.302 9.591 9.591v33.258z" fill="#3a312a"/></g></g><g><g><path d="m50.75 91.756h154.5v14.108h-154.5z" fill="#f16c7a"/></g></g><g><g><path d="m205.25 90.256h-154.5c-.829 0-1.5.671-1.5 1.5v14.108c0 .829.671 1.5 1.5 1.5h154.5c.829 0 1.5-.671 1.5-1.5v-14.108c0-.829-.671-1.5-1.5-1.5zm-1.5 14.108h-151.5v-11.108h151.5z" fill="#3a312a"/></g></g><g><g><path d="m178.659 71.09h-32.817c-6.125 0-11.091 4.966-11.091 11.091v33.258c0 6.125 4.966 11.091 11.091 11.091h32.817c6.125 0 11.091-4.966 11.091-11.091v-33.258c0-6.125-4.966-11.091-11.091-11.091z" fill="#87796f"/></g></g><g><g><path d="m178.659 69.59h-9.684c-.829 0-1.5.671-1.5 1.5s.671 1.5 1.5 1.5h9.684c5.289 0 9.591 4.302 9.591 9.591v33.258c0 5.288-4.303 9.591-9.591 9.591h-32.817c-5.289 0-9.591-4.303-9.591-9.591v-33.258c0-5.289 4.303-9.591 9.591-9.591h8.351c.829 0 1.5-.671 1.5-1.5s-.671-1.5-1.5-1.5h-8.351c-6.943 0-12.591 5.648-12.591 12.591v33.258c0 6.943 5.648 12.591 12.591 12.591h32.817c6.943 0 12.591-5.649 12.591-12.591v-33.258c0-6.942-5.648-12.591-12.591-12.591z" fill="#3a312a"/></g></g><g><g><path d="m108.659 71.09h-32.818c-6.126 0-11.091 4.966-11.091 11.091v33.258c0 6.125 4.966 11.091 11.091 11.091h32.818c6.126 0 11.091-4.966 11.091-11.091v-33.258c0-6.125-4.966-11.091-11.091-11.091z" fill="#87796f"/></g></g><g><g><path d="m108.659 69.59h-32.818c-6.943 0-12.591 5.648-12.591 12.591v33.258c0 6.943 5.648 12.591 12.591 12.591h32.817c6.943 0 12.591-5.649 12.591-12.591v-33.258c.001-6.942-5.647-12.591-12.59-12.591zm9.591 45.849c0 5.288-4.303 9.591-9.591 9.591h-32.818c-5.289 0-9.591-4.303-9.591-9.591v-33.258c0-5.289 4.303-9.591 9.591-9.591h32.817c5.289 0 9.591 4.302 9.591 9.591v33.258z" fill="#3a312a"/></g></g><g><g><path d="m16.5 177.512c0 19.436 15.756 35.192 35.192 35.192h152.497c19.436 0 35.192-15.756 35.192-35.192z" fill="#fce8cb"/></g></g><g><g><path d="m239.38 176.012h-222.88c-.829 0-1.5.671-1.5 1.5 0 20.232 16.46 36.691 36.692 36.691h4.531c.829 0 1.5-.671 1.5-1.5s-.671-1.5-1.5-1.5h-4.531c-18.076 0-32.872-14.307-33.659-32.191h219.814c-.787 17.885-15.583 32.191-33.659 32.191h-133.031c-.829 0-1.5.671-1.5 1.5s.671 1.5 1.5 1.5h133.032c20.232 0 36.692-16.46 36.692-36.691-.001-.828-.672-1.5-1.501-1.5z" fill="#3a312a"/></g></g><g><g><path d="m80.747 212.704h94.387v11.731h-94.387z" fill="#fce8cb"/></g></g><g><g><path d="m175.134 211.204h-94.387c-.829 0-1.5.671-1.5 1.5v11.73c0 .829.671 1.5 1.5 1.5h94.387c.829 0 1.5-.671 1.5-1.5v-11.73c0-.829-.672-1.5-1.5-1.5zm-1.5 11.73h-91.387v-8.73h91.387z" fill="#3a312a"/></g></g><g><g><path d="m223.4 179.014c-.79 17.88-15.58 32.19-33.66 32.19h14.45c18.07 0 32.87-14.31 33.66-32.19z" fill="#decaad"/></g></g></g></svg>