<svg id="Layer_1" enable-background="new 0 0 256 256" height="512" viewBox="0 0 256 256" width="512" xmlns="http://www.w3.org/2000/svg"><g><g><g><path d="m47.691 26.148c-.974 11.564-13.025 13.39-13.025 13.39 10.347.487 12.925 14.059 12.925 14.059.221-9.677 13.321-14.203 13.321-14.203-9.813-.587-13.221-13.246-13.221-13.246z" fill="#d7e057"/></g></g><g><g><path d="m61.003 37.897c-8.604-.516-11.832-12.025-11.863-12.142-.19-.702-.854-1.162-1.584-1.102-.725.066-1.298.642-1.359 1.367-.86 10.216-11.313 11.964-11.755 12.032-.763.116-1.313.791-1.273 1.561.04.771.657 1.385 1.428 1.421 9.028.426 11.499 12.719 11.522 12.843.138.712.76 1.218 1.473 1.218.042 0 .084-.002.126-.005.765-.064 1.357-.693 1.375-1.46.193-8.509 12.191-12.777 12.313-12.819.676-.234 1.092-.914.994-1.622-.099-.708-.683-1.249-1.397-1.292zm-13.567 10.345c-1.356-3.13-3.709-6.907-7.587-8.876 2.931-1.405 6.409-3.913 8.202-8.273 1.551 3.071 4.199 6.88 8.334 8.723-3.007 1.639-6.922 4.405-8.949 8.426z" fill="#3a312a"/></g></g><g><g><path d="m25.992 43.128c-.689 8.179-9.213 9.471-9.213 9.471 7.318.345 9.142 9.944 9.142 9.944.156-6.844 9.422-10.045 9.422-10.045-6.94-.415-9.351-9.37-9.351-9.37z" fill="#d7e057"/></g></g><g><g><path d="m35.434 51.001c-5.766-.346-7.972-8.187-7.994-8.266-.189-.702-.861-1.164-1.581-1.102-.726.065-1.3.643-1.361 1.368-.578 6.871-7.645 8.066-7.941 8.113-.763.116-1.314.791-1.274 1.561.04.771.657 1.385 1.428 1.421 6.034.284 7.723 8.645 7.738 8.727.136.713.759 1.22 1.473 1.22.041 0 .083-.002.125-.005.765-.063 1.358-.693 1.376-1.461.13-5.709 8.331-8.633 8.411-8.661.677-.233 1.094-.913.997-1.622-.099-.709-.684-1.25-1.397-1.293zm-9.585 6.794c-.924-1.885-2.34-3.946-4.446-5.279 1.855-1.041 3.697-2.63 4.87-4.917 1.058 1.874 2.654 3.955 4.941 5.225-1.85 1.1-3.99 2.739-5.365 4.971z" fill="#3a312a"/></g></g><g><g><path d="m25.992 16.471c-.689 8.179-9.213 9.471-9.213 9.471 7.318.344 9.142 9.944 9.142 9.944.156-6.845 9.422-10.045 9.422-10.045-6.94-.416-9.351-9.37-9.351-9.37z" fill="#d7e057"/></g></g><g><g><path d="m35.434 24.344c-5.766-.346-7.972-8.187-7.994-8.266-.189-.702-.861-1.163-1.581-1.102-.726.065-1.3.642-1.361 1.368-.578 6.871-7.645 8.066-7.941 8.113-.763.116-1.314.791-1.274 1.561.04.771.657 1.385 1.428 1.421 6.034.284 7.723 8.644 7.738 8.726.136.713.759 1.22 1.473 1.22.041 0 .083-.002.125-.005.765-.063 1.358-.693 1.376-1.461.13-5.709 8.331-8.633 8.411-8.661.677-.233 1.094-.913.997-1.622-.099-.708-.684-1.249-1.397-1.292zm-9.585 6.794c-.924-1.885-2.34-3.946-4.446-5.279 1.855-1.041 3.697-2.63 4.87-4.917 1.058 1.874 2.654 3.955 4.941 5.225-1.85 1.1-3.99 2.738-5.365 4.971z" fill="#3a312a"/></g></g><g><g><path d="m157.992 37.615c-45 0-81.479 46.709-81.479 104.328 0 44.618 21.882 82.674 52.648 97.586h57.662c30.766-14.912 52.647-52.968 52.647-97.586 0-57.618-36.479-104.328-81.478-104.328z" fill="#fae6ca"/></g></g><g><g><path d="m157.991 36.115c-45.755 0-82.979 47.475-82.979 105.828 0 21.854 5.177 42.829 14.972 60.655 9.607 17.485 22.928 30.723 38.522 38.28.204.099.428.15.654.15h57.662c.227 0 .45-.052.654-.15 15.594-7.558 28.914-20.795 38.521-38.28 9.795-17.826 14.972-38.801 14.972-60.655.001-58.353-37.223-105.828-82.978-105.828zm28.485 201.914h-56.969c-30.816-15.124-51.494-53.683-51.494-96.086 0-56.699 35.878-102.828 79.979-102.828s79.979 46.129 79.979 102.828c-.001 42.405-20.68 80.963-51.495 96.086z" fill="#3a312a"/></g></g><g><g><path d="m232.28 99.029h-148.577c-4.619 13.089-7.19 27.617-7.19 42.914 0 44.618 21.881 82.674 52.647 97.586h57.662c30.766-14.912 52.647-52.968 52.647-97.586.001-15.297-2.57-29.824-7.189-42.914z" fill="#d6df58"/></g></g><g><g><path d="m233.693 98.53c-.211-.6-.778-1.001-1.414-1.001h-104.162c-.828 0-1.5.672-1.5 1.5s.672 1.5 1.5 1.5h103.096c4.484 13.07 6.757 26.997 6.757 41.414 0 42.404-20.679 80.963-51.494 96.086h-56.969c-30.816-15.124-51.494-53.683-51.494-96.086 0-14.417 2.273-28.344 6.757-41.414h31.473c.828 0 1.5-.672 1.5-1.5s-.672-1.5-1.5-1.5h-32.54c-.636 0-1.203.401-1.414 1.001-4.828 13.681-7.276 28.287-7.276 43.413 0 21.854 5.177 42.828 14.972 60.654 9.607 17.486 22.929 30.724 38.522 38.281.204.099.428.15.654.15h57.662c.227 0 .45-.052.654-.15 15.594-7.558 28.914-20.795 38.521-38.281 9.795-17.826 14.972-38.8 14.972-60.654 0-15.126-2.449-29.732-7.277-43.413z" fill="#3a312a"/></g></g><g><g><path d="m226.464 70.082-13.068-18.506h-110.81l-13.067 18.506c-1.616 2.288.021 5.447 2.822 5.447h131.302c2.801 0 4.437-3.159 2.821-5.447z" fill="#87796f"/></g></g><g><g><path d="m227.689 69.217-13.067-18.506c-.281-.398-.738-.635-1.226-.635h-110.81c-.487 0-.944.236-1.226.635l-13.067 18.506c-1.071 1.519-1.206 3.487-.352 5.138.856 1.649 2.541 2.675 4.399 2.675h131.302c1.858 0 3.544-1.025 4.399-2.676s.721-3.62-.352-5.137zm-2.311 3.757c-.343.661-.991 1.056-1.735 1.056h-131.302c-.744 0-1.394-.394-1.735-1.056-.343-.661-.291-1.418.139-2.026l12.62-17.871h109.255l12.619 17.871c.429.608.481 1.365.139 2.026z" fill="#3a312a"/></g></g><g><g><path d="m102.586 35.501h110.81v16.075h-110.81z" fill="#f16c7a"/></g></g><g><g><path d="m213.396 34.001h-110.81c-.828 0-1.5.672-1.5 1.5v16.075c0 .828.672 1.5 1.5 1.5h110.81c.828 0 1.5-.672 1.5-1.5v-16.075c0-.828-.671-1.5-1.5-1.5zm-1.5 16.075h-107.81v-13.075h107.81z" fill="#3a312a"/></g></g><g><g><path d="m213.492 17.529h-111c-4.963 0-8.986 4.023-8.986 8.985 0 4.963 4.023 8.986 8.986 8.986h111c4.963 0 8.986-4.023 8.986-8.986-.001-4.962-4.024-8.985-8.986-8.985z" fill="#87796f"/></g></g><g><g><path d="m213.491 16.029h-27.877c-.828 0-1.5.672-1.5 1.5s.672 1.5 1.5 1.5h27.877c4.128 0 7.486 3.357 7.486 7.485s-3.358 7.486-7.486 7.486h-111c-4.128 0-7.485-3.358-7.485-7.486s3.357-7.485 7.485-7.485h68.956c.828 0 1.5-.672 1.5-1.5s-.672-1.5-1.5-1.5h-68.956c-5.781 0-10.485 4.704-10.485 10.485 0 5.782 4.704 10.486 10.485 10.486h111c5.782 0 10.486-4.704 10.486-10.486 0-5.781-4.704-10.485-10.486-10.485z" fill="#3a312a"/></g></g><g><g><path d="m219.973 77.029h-16c3.97 6.27 7.39 13.14 10.14 20.5h16c-2.75-7.36-6.17-14.23-10.14-20.5z" fill="#decaad"/></g></g><g><g><path d="m231.213 100.529h-16c4.48 13.07 6.76 27 6.76 41.41 0 42.41-20.68 80.97-51.5 96.09h16c30.82-15.12 51.5-53.68 51.5-96.09 0-14.41-2.28-28.34-6.76-41.41z" fill="#b9c239"/></g></g><g><g><path d="m225.243 70.949-12.62-17.87h-16l12.62 17.87c.43.61.48 1.36.14 2.02-.35.67-1 1.06-1.74 1.06h16c.74 0 1.39-.39 1.74-1.06.34-.66.29-1.41-.14-2.02z" fill="#695b51"/></g></g><g><g><path d="m195.893 36.999h16v13.08h-16z" fill="#d04e5d"/></g></g><g><g><path d="m213.493 19.029h-16c4.13 0 7.48 3.36 7.48 7.49 0 4.12-3.35 7.48-7.48 7.48h16c4.13 0 7.48-3.36 7.48-7.48 0-4.13-3.35-7.49-7.48-7.49z" fill="#695b51"/></g></g><g><g><ellipse cx="68.53" cy="187.215" fill="#fae6ca" rx="52" ry="52" transform="matrix(.901 -.434 .434 .901 -74.45 48.281)"/></g></g><g><g><path d="m68.53 133.715c-29.5 0-53.5 24-53.5 53.5s24 53.5 53.5 53.5 53.5-24 53.5-53.5-24-53.5-53.5-53.5zm0 104c-27.846 0-50.5-22.654-50.5-50.5s22.654-50.5 50.5-50.5 50.5 22.654 50.5 50.5-22.654 50.5-50.5 50.5z" fill="#3a312a"/></g></g><g><g><ellipse cx="68.53" cy="187.215" fill="#d7e057" rx="39" ry="39" transform="matrix(.987 -.158 .158 .987 -28.765 13.205)"/></g></g><g><g><path d="m68.53 146.715c-22.332 0-40.5 18.168-40.5 40.5s18.168 40.5 40.5 40.5 40.5-18.168 40.5-40.5-18.168-40.5-40.5-40.5zm0 78c-20.678 0-37.5-16.822-37.5-37.5s16.822-37.5 37.5-37.5 37.5 16.822 37.5 37.5-16.822 37.5-37.5 37.5z" fill="#3a312a"/></g></g></g></svg>