<svg id="Layer_1" enable-background="new 0 0 256 256" height="512" viewBox="0 0 256 256" width="512" xmlns="http://www.w3.org/2000/svg"><g><g><g><path d="m181.794 42.571c-15.32-16.696-34.425-25.892-53.794-25.892s-38.474 9.196-53.794 25.892c-13.376 14.577-21.684 33.032-21.684 48.162 0 16.444 9.362 29.688 26.362 37.292 12.282 5.494 28.807 8.28 49.116 8.28s36.834-2.786 49.116-8.28c17-7.604 26.362-20.848 26.362-37.292 0-15.13-8.309-33.585-21.684-48.162z" fill="#fce8cb"/></g></g><g><g><path d="m182.9 41.558c-15.608-17.01-35.105-26.378-54.9-26.378-19.794 0-39.292 9.368-54.9 26.378-13.618 14.841-22.078 33.685-22.078 49.175 0 17.071 9.677 30.802 27.249 38.661 12.475 5.581 29.206 8.41 49.729 8.41 20.522 0 37.254-2.829 49.728-8.41 17.572-7.859 27.25-21.59 27.25-38.661 0-15.489-8.459-34.333-22.078-49.175zm-6.396 85.098c-12.088 5.407-28.406 8.148-48.504 8.148-20.097 0-36.417-2.741-48.504-8.148-16.427-7.348-25.474-20.106-25.474-35.923 0-14.771 8.157-32.836 21.289-47.148 15.033-16.383 33.745-25.405 52.689-25.405s37.656 9.022 52.689 25.405c13.132 14.313 21.289 32.379 21.289 47.148 0 15.818-9.046 28.576-25.474 35.923z" fill="#3a312a"/></g></g><g><g><path d="m47.66 26.356c-.974 11.564-13.025 13.39-13.025 13.39 10.347.487 12.925 14.059 12.925 14.059.221-9.677 13.321-14.202 13.321-14.202-9.813-.588-13.221-13.247-13.221-13.247z" fill="#d7e057"/></g></g><g><g><path d="m60.971 38.105c-8.604-.515-11.832-12.024-11.863-12.141-.191-.702-.852-1.161-1.583-1.101-.725.066-1.298.642-1.359 1.367-.86 10.215-11.313 11.964-11.754 12.032-.763.116-1.313.791-1.273 1.561.04.771.657 1.385 1.428 1.421 9.028.425 11.499 12.718 11.522 12.843.137.711.759 1.217 1.472 1.217.042 0 .084-.002.126-.005.764-.064 1.357-.693 1.375-1.46.194-8.509 12.191-12.777 12.313-12.819.675-.234 1.092-.914.994-1.622-.1-.71-.684-1.251-1.398-1.293zm-13.566 10.346c-1.357-3.131-3.708-6.907-7.587-8.877 2.931-1.404 6.409-3.912 8.202-8.272 1.551 3.071 4.2 6.88 8.334 8.723-3.007 1.639-6.922 4.405-8.949 8.426z" fill="#3a312a"/></g></g><g><g><path d="m25.961 43.337c-.689 8.179-9.212 9.47-9.212 9.47 7.318.345 9.142 9.944 9.142 9.944.156-6.844 9.422-10.045 9.422-10.045-6.941-.415-9.352-9.369-9.352-9.369z" fill="#d7e057"/></g></g><g><g><path d="m35.402 51.209c-5.766-.345-7.972-8.186-7.994-8.265-.19-.702-.856-1.165-1.582-1.102-.726.065-1.299.643-1.36 1.368-.579 6.87-7.647 8.066-7.942 8.113-.763.116-1.314.791-1.273 1.561.04.771.657 1.385 1.428 1.421 6.035.284 7.723 8.645 7.739 8.727.135.712.759 1.22 1.473 1.22.041 0 .083-.002.125-.005.765-.063 1.358-.693 1.376-1.461.13-5.709 8.332-8.634 8.413-8.662.677-.234 1.094-.913.996-1.622-.099-.709-.684-1.251-1.399-1.293zm-9.584 6.795c-.924-1.886-2.34-3.947-4.447-5.28 1.856-1.041 3.697-2.63 4.871-4.916 1.057 1.874 2.654 3.955 4.941 5.224-1.85 1.1-3.989 2.739-5.365 4.972z" fill="#3a312a"/></g></g><g><g><path d="m25.961 16.679c-.689 8.179-9.212 9.471-9.212 9.471 7.318.344 9.142 9.944 9.142 9.944.156-6.845 9.422-10.045 9.422-10.045-6.941-.416-9.352-9.37-9.352-9.37z" fill="#d7e057"/></g></g><g><g><path d="m35.403 24.552c-5.767-.346-7.973-8.186-7.994-8.265-.19-.702-.856-1.167-1.582-1.102-.726.066-1.299.643-1.36 1.368-.579 6.87-7.646 8.065-7.942 8.112-.763.116-1.313.791-1.273 1.561.04.771.657 1.385 1.427 1.421 6.036.284 7.724 8.645 7.739 8.727.135.712.759 1.22 1.472 1.22.042 0 .083-.002.125-.005.765-.064 1.358-.693 1.376-1.461.13-5.709 8.332-8.633 8.413-8.661.676-.233 1.094-.913.996-1.622s-.683-1.25-1.397-1.293zm-9.585 6.794c-.924-1.886-2.34-3.947-4.447-5.279 1.855-1.041 3.697-2.63 4.87-4.916 1.057 1.873 2.655 3.954 4.941 5.224-1.849 1.1-3.988 2.738-5.364 4.971z" fill="#3a312a"/></g></g><g><g><path d="m145.733 97.587c-15.32-16.696-34.425-25.892-53.794-25.892-17.211 0-34.205 7.275-48.529 20.606l-10.051 10.938c-10.542 13.501-16.898 29.277-16.898 42.51 0 16.444 9.362 29.688 26.362 37.292 12.282 5.494 28.807 8.28 49.116 8.28s36.834-2.786 49.116-8.28c17-7.604 26.362-20.848 26.362-37.292-.001-15.131-8.31-33.585-21.684-48.162z" fill="#fce8cb"/></g></g><g><g><path d="m146.838 96.573c-15.608-17.01-35.105-26.378-54.9-26.378-17.398 0-34.995 7.461-49.55 21.008-.606.564-.641 1.514-.076 2.119.565.608 1.514.642 2.12.076 14.2-13.216 30.628-20.203 47.506-20.203 18.944 0 37.656 9.022 52.689 25.405 13.132 14.313 21.289 32.378 21.289 47.148 0 15.817-9.047 28.575-25.475 35.923-12.087 5.407-28.406 8.148-48.503 8.148-20.098 0-36.417-2.741-48.503-8.148-16.428-7.348-25.475-20.105-25.475-35.923 0-12.744 6.198-28.291 16.58-41.587.51-.652.394-1.596-.259-2.105-.653-.51-1.595-.394-2.105.26-10.78 13.805-17.216 30.042-17.216 43.433 0 17.072 9.678 30.802 27.25 38.661 12.475 5.581 29.205 8.41 49.728 8.41 20.522 0 37.253-2.829 49.728-8.41 17.572-7.859 27.25-21.59 27.25-38.661 0-15.49-8.46-34.334-22.078-49.176z" fill="#3a312a"/></g></g><g><g><path d="m217.856 145.587c-15.32-16.696-34.425-25.892-53.795-25.892s-38.474 9.196-53.794 25.892c-13.375 14.577-21.684 33.031-21.684 48.162 0 16.444 9.362 29.688 26.362 37.292 12.282 5.494 28.807 8.28 49.116 8.28s36.834-2.786 49.116-8.28c17-7.604 26.362-20.848 26.362-37.292.001-15.131-8.308-33.585-21.683-48.162z" fill="#fce8cb"/></g></g><g><g><path d="m218.962 144.573c-15.608-17.01-35.105-26.378-54.9-26.378-19.794 0-39.291 9.368-54.899 26.378-13.618 14.842-22.078 33.686-22.078 49.176 0 17.071 9.677 30.802 27.249 38.661 12.475 5.581 29.207 8.41 49.728 8.41 20.523 0 37.254-2.829 49.729-8.41 17.572-7.859 27.25-21.59 27.25-38.661-.001-15.49-8.461-34.334-22.079-49.176zm-6.397 85.099c-12.088 5.407-28.406 8.148-48.504 8.148-20.097 0-36.416-2.741-48.503-8.148-16.427-7.348-25.474-20.105-25.474-35.923 0-14.77 8.157-32.836 21.289-47.148 15.033-16.383 33.745-25.405 52.689-25.405s37.656 9.023 52.69 25.405c13.132 14.313 21.289 32.378 21.289 47.148-.001 15.817-9.048 28.575-25.476 35.923z" fill="#3a312a"/></g></g><g><g><path d="m164.062 133.936c-33.82 0-61.237 36.807-61.237 59.813 0 16.382 13.908 25.315 34.124 29.103l13.143 1.698c4.489.355 9.161.53 13.969.53 33.82 0 61.237-8.325 61.237-31.331.001-23.006-27.416-59.813-61.236-59.813z" fill="#d7e057"/></g></g><g><g><path d="m164.061 132.436c-34.631 0-62.737 37.101-62.737 61.313 0 15.67 12.223 26.243 35.348 30.578.815.149 1.598-.385 1.751-1.198.152-.814-.384-1.598-1.198-1.751-21.832-4.092-32.901-13.388-32.901-27.629 0-31.626 36.692-58.313 59.737-58.313 32.399 0 59.737 35.817 59.737 58.313 0 25.955-37.428 29.83-59.737 29.83-4.782 0-9.442-.177-13.851-.524-.813-.069-1.549.551-1.613 1.377-.066.826.551 1.548 1.377 1.613 4.487.354 9.227.534 14.087.534 40.457 0 62.737-11.659 62.737-32.83.001-24.212-28.106-61.313-62.737-61.313z" fill="#3a312a"/></g></g><g><g><path d="m164.06 135.439c-2.21 0-4.56.25-6.98.73 28.77 5.18 51.72 36.96 51.72 57.58 0 23.22-29.96 28.77-52.24 29.68 2.63.11 5.15.15 7.5.15 22.31 0 59.74-3.88 59.74-29.83 0-22.5-27.34-58.31-59.74-58.31z" fill="#b9c239"/></g></g></g></svg>