<svg id="Layer_1" enable-background="new 0 0 256 256" height="512" viewBox="0 0 256 256" width="512" xmlns="http://www.w3.org/2000/svg"><g><path d="m47.411 26.438s3.408 12.659 13.222 13.246c0 0-13.1 4.525-13.321 14.202 0 0-2.579-13.572-12.925-14.059 0 .001 12.05-1.825 13.024-13.389z" fill="#d7e057"/><path d="m47.311 55.387c-.713 0-1.335-.506-1.473-1.218-.023-.124-2.494-12.417-11.521-12.843-.771-.036-1.388-.65-1.428-1.421-.04-.77.511-1.444 1.273-1.561.441-.068 10.894-1.817 11.754-12.032.062-.726.635-1.301 1.359-1.367.731-.063 1.394.399 1.584 1.102.031.116 3.259 11.626 11.863 12.141.714.042 1.297.583 1.396 1.292.098.708-.318 1.388-.994 1.622-.121.042-12.118 4.311-12.313 12.82-.018.767-.611 1.396-1.375 1.46-.041.003-.083.005-.125.005zm-7.742-15.73c3.879 1.969 6.23 5.746 7.587 8.877 2.026-4.021 5.942-6.788 8.949-8.428-4.134-1.843-6.783-5.651-8.334-8.723-1.792 4.361-5.271 6.869-8.202 8.274z" fill="#3a312a"/><path d="m25.713 43.419s2.411 8.954 9.352 9.37c0 0-9.266 3.201-9.422 10.045 0 0-1.824-9.6-9.142-9.944-.001 0 8.523-1.292 9.212-9.471z" fill="#d7e057"/><path d="m25.642 64.334c-.714 0-1.337-.507-1.473-1.22-.016-.082-1.704-8.442-7.739-8.727-.771-.036-1.388-.65-1.428-1.421-.04-.77.511-1.444 1.273-1.561.296-.047 7.363-1.242 7.942-8.113.062-.726.636-1.303 1.361-1.368.719-.065 1.391.399 1.582 1.102.021.079 2.227 7.92 7.993 8.265.714.042 1.299.584 1.396 1.293s-.32 1.388-.996 1.622c-.081.028-8.282 2.953-8.412 8.662-.018.768-.611 1.397-1.376 1.461-.04.003-.082.005-.123.005zm-4.52-11.527c2.107 1.332 3.523 3.395 4.447 5.279 1.376-2.232 3.516-3.872 5.365-4.973-2.287-1.269-3.885-3.35-4.941-5.224-1.174 2.288-3.015 3.877-4.871 4.918z" fill="#3a312a"/><path d="m25.713 16.761s2.411 8.954 9.352 9.37c0 0-9.266 3.201-9.422 10.045 0 0-1.824-9.6-9.142-9.944-.001 0 8.523-1.291 9.212-9.471z" fill="#d7e057"/><path d="m25.642 37.677c-.714 0-1.337-.507-1.473-1.22-.016-.082-1.704-8.442-7.739-8.727-.771-.036-1.388-.65-1.428-1.421-.04-.77.511-1.444 1.273-1.561.296-.047 7.363-1.243 7.942-8.113.062-.726.636-1.303 1.361-1.368.719-.066 1.391.399 1.582 1.102.021.079 2.227 7.92 7.993 8.265.714.042 1.299.584 1.396 1.293s-.32 1.388-.996 1.622c-.081.028-8.282 2.953-8.412 8.662-.018.768-.611 1.397-1.376 1.461-.04.003-.082.005-.123.005zm-4.52-11.529c2.107 1.333 3.523 3.395 4.447 5.28 1.376-2.232 3.516-3.872 5.365-4.973-2.287-1.269-3.885-3.35-4.941-5.224-1.174 2.288-3.015 3.876-4.871 4.917z" fill="#3a312a"/><path d="m26.266 164.427v58.724c0 8.891 7.208 16.099 16.099 16.099h136.271c8.891 0 16.099-7.208 16.099-16.099v-92.962c5.937-7.139 9.266-15.148 9.266-23.608 0-30.006-41.861-54.331-93.5-54.331s-93.5 24.325-93.5 54.331c0 8.461 3.329 16.469 9.266 23.608v21.384 12.854z" fill="#fce8cb"/><path d="m178.636 240.75h-136.272c-9.704 0-17.599-7.895-17.599-17.599v-58.725c0-.828.672-1.5 1.5-1.5s1.5.672 1.5 1.5v58.725c0 8.05 6.549 14.599 14.599 14.599h136.271c8.05 0 14.599-6.549 14.599-14.599v-92.962c0-.351.123-.689.347-.959 5.918-7.118 8.919-14.738 8.919-22.649 0-29.131-41.271-52.831-92-52.831s-92 23.7-92 52.831c0 7.911 3.001 15.531 8.919 22.649.224.27.347.608.347.959v21.384c0 .828-.672 1.5-1.5 1.5s-1.5-.672-1.5-1.5v-20.846c-6.149-7.553-9.266-15.673-9.266-24.146 0-30.785 42.617-55.831 95-55.831s95 25.046 95 55.831c0 8.474-3.116 16.594-9.266 24.146v92.424c0 9.704-7.894 17.599-17.598 17.599z" fill="#3a312a"/><path d="m123.381 203.75h90.754c8.891 0 16.099-7.208 16.099-16.099v-92.962c5.937-7.139 9.266-15.148 9.266-23.608 0-30.006-41.861-54.331-93.5-54.331s-93.5 24.325-93.5 54.331c0 8.461 3.329 16.469 9.266 23.608v92.962c0 8.891 7.208 16.099 16.099 16.099h33.051z" fill="#fce8cb"/><path d="m214.136 205.25h-90.755c-.828 0-1.5-.672-1.5-1.5s.672-1.5 1.5-1.5h90.755c8.05 0 14.599-6.549 14.599-14.599v-92.962c0-.351.123-.689.347-.959 5.917-7.118 8.918-14.738 8.918-22.649 0-29.131-41.271-52.831-92-52.831s-92 23.7-92 52.831c0 7.911 3.001 15.531 8.919 22.649.224.27.347.608.347.959v92.962c0 8.05 6.549 14.599 14.599 14.599h33.052c.828 0 1.5.672 1.5 1.5s-.672 1.5-1.5 1.5h-33.053c-9.704 0-17.599-7.895-17.599-17.599v-92.423c-6.149-7.553-9.265-15.673-9.265-24.147 0-30.785 42.617-55.831 95-55.831s95 25.046 95 55.831c0 8.474-3.116 16.594-9.266 24.146v92.424c0 9.704-7.894 17.599-17.598 17.599z" fill="#3a312a"/><path d="m146 18.25c-2.52 0-5.03.06-7.5.17 47.24 2.2 84.5 24.98 84.5 52.66 0 7.91-3 15.53-8.92 22.65-.22.27-.35.61-.35.96v92.96c0 8.05-6.54 14.6-14.59 14.6h15c8.05 0 14.59-6.55 14.59-14.6v-92.96c0-.35.13-.69.35-.96 5.92-7.12 8.92-14.74 8.92-22.65 0-29.13-41.27-52.83-92-52.83z" fill="#decaad"/><circle cx="166.25" cy="63.75" fill="#fce8cb" r="32.25"/><path d="m166.25 97.5c-18.609 0-33.75-15.141-33.75-33.75s15.141-33.75 33.75-33.75 33.75 15.141 33.75 33.75-15.141 33.75-33.75 33.75zm0-64.5c-16.956 0-30.75 13.794-30.75 30.75s13.794 30.75 30.75 30.75 30.75-13.794 30.75-30.75-13.794-30.75-30.75-30.75z" fill="#3a312a"/><circle cx="166.25" cy="63.75" fill="#d7e057" r="20.689"/><path d="m166.25 85.938c-12.234 0-22.189-9.954-22.189-22.188s9.954-22.188 22.189-22.188 22.189 9.954 22.189 22.188-9.955 22.188-22.189 22.188zm0-41.376c-10.58 0-19.189 8.608-19.189 19.188s8.608 19.188 19.189 19.188 19.189-8.608 19.189-19.188-8.609-19.188-19.189-19.188z" fill="#3a312a"/><circle cx="107.75" cy="117.25" fill="#fce8cb" r="32.25"/><path d="m107.75 151c-18.609 0-33.75-15.141-33.75-33.75s15.141-33.75 33.75-33.75 33.75 15.141 33.75 33.75-15.141 33.75-33.75 33.75zm0-64.5c-16.956 0-30.75 13.794-30.75 30.75s13.794 30.75 30.75 30.75 30.75-13.794 30.75-30.75-13.794-30.75-30.75-30.75z" fill="#3a312a"/><circle cx="107.75" cy="117.25" fill="#d7e057" r="20.689"/><path d="m107.75 139.439c-12.234 0-22.188-9.954-22.188-22.189s9.954-22.188 22.188-22.188 22.189 9.954 22.189 22.188-9.955 22.189-22.189 22.189zm0-41.377c-10.58 0-19.188 8.608-19.188 19.188s8.608 19.189 19.188 19.189 19.188-8.608 19.188-19.189-8.608-19.188-19.188-19.188z" fill="#3a312a"/><circle cx="173.25" cy="160.75" fill="#fce8cb" r="32.25"/><path d="m173.25 194.5c-18.609 0-33.75-15.141-33.75-33.75s15.141-33.75 33.75-33.75 33.75 15.141 33.75 33.75-15.141 33.75-33.75 33.75zm0-64.5c-16.956 0-30.75 13.794-30.75 30.75s13.794 30.75 30.75 30.75 30.75-13.794 30.75-30.75-13.794-30.75-30.75-30.75z" fill="#3a312a"/><circle cx="173.25" cy="160.75" fill="#d7e057" r="20.689"/><path d="m173.25 182.939c-12.234 0-22.189-9.954-22.189-22.189s9.954-22.189 22.189-22.189 22.189 9.954 22.189 22.189-9.955 22.189-22.189 22.189zm0-41.378c-10.58 0-19.189 8.608-19.189 19.189s8.608 19.189 19.189 19.189 19.189-8.608 19.189-19.189-8.609-19.189-19.189-19.189z" fill="#3a312a"/></g></svg>