<svg id="Layer_1" enable-background="new 0 0 256 256" height="512" viewBox="0 0 256 256" width="512" xmlns="http://www.w3.org/2000/svg"><g><g><g><path d="m46.877 26.433c-.974 11.564-13.024 13.39-13.024 13.39 10.347.486 12.925 14.059 12.925 14.059.221-9.677 13.321-14.202 13.321-14.202-9.813-.588-13.222-13.247-13.222-13.247z" fill="#d7e057"/></g></g><g><g><path d="m60.189 38.182c-8.604-.515-11.833-12.024-11.864-12.141-.191-.702-.849-1.165-1.584-1.101-.725.066-1.298.642-1.359 1.367-.859 10.215-11.313 11.964-11.754 12.033-.763.115-1.313.79-1.273 1.561.04.77.657 1.384 1.428 1.421 9.028.425 11.499 12.718 11.522 12.842.138.711.76 1.217 1.473 1.217.042 0 .084-.001.126-.005.765-.064 1.357-.693 1.375-1.459.193-8.509 12.191-12.777 12.313-12.819.676-.235 1.092-.914.994-1.623-.099-.709-.683-1.25-1.397-1.293zm-13.566 10.345c-1.356-3.13-3.709-6.907-7.587-8.876 2.931-1.405 6.408-3.913 8.201-8.273 1.552 3.071 4.2 6.88 8.335 8.723-3.008 1.639-6.923 4.405-8.949 8.426z" fill="#3a312a"/></g></g><g><g><path d="m25.179 43.413c-.689 8.179-9.213 9.471-9.213 9.471 7.318.344 9.142 9.944 9.142 9.944.156-6.844 9.422-10.045 9.422-10.045-6.941-.416-9.351-9.37-9.351-9.37z" fill="#d7e057"/></g></g><g><g><path d="m34.62 51.285c-5.766-.345-7.972-8.186-7.994-8.265-.19-.702-.865-1.159-1.581-1.102-.726.066-1.3.643-1.361 1.368-.578 6.871-7.646 8.067-7.941 8.114-.763.115-1.314.79-1.273 1.56.04.77.657 1.384 1.428 1.421 6.034.284 7.723 8.644 7.738 8.726.136.713.759 1.22 1.473 1.22.041 0 .083-.001.125-.005.765-.063 1.358-.694 1.376-1.461.13-5.709 8.331-8.634 8.412-8.662.676-.234 1.093-.913.996-1.622-.099-.707-.684-1.249-1.398-1.292zm-9.585 6.795c-.924-1.885-2.34-3.947-4.446-5.28 1.855-1.041 3.697-2.629 4.87-4.916 1.058 1.874 2.654 3.954 4.941 5.223-1.849 1.102-3.989 2.741-5.365 4.973z" fill="#3a312a"/></g></g><g><g><path d="m25.179 16.756c-.689 8.179-9.213 9.471-9.213 9.471 7.318.344 9.142 9.944 9.142 9.944.156-6.845 9.422-10.045 9.422-10.045-6.941-.416-9.351-9.37-9.351-9.37z" fill="#d7e057"/></g></g><g><g><path d="m34.62 24.628c-5.744-.345-7.955-8.127-7.993-8.264-.191-.703-.863-1.165-1.582-1.103-.726.065-1.3.643-1.361 1.368-.578 6.871-7.646 8.067-7.941 8.114-.763.115-1.314.79-1.273 1.56.04.77.657 1.384 1.428 1.421 6.034.284 7.723 8.644 7.738 8.726.136.712.759 1.22 1.473 1.22.041 0 .083-.002.125-.005.765-.063 1.358-.694 1.376-1.461.13-5.709 8.331-8.633 8.412-8.661.676-.234 1.093-.913.996-1.622-.099-.709-.684-1.25-1.398-1.293zm-9.585 6.795c-.924-1.886-2.34-3.947-4.446-5.28 1.855-1.041 3.697-2.63 4.87-4.916 1.058 1.873 2.654 3.954 4.941 5.223-1.849 1.101-3.988 2.74-5.365 4.973z" fill="#3a312a"/></g></g><g><g><path d="m106.007 16.487c-10.436 0-90.395 82.708-90.395 132.632s40.471 90.395 90.395 90.395 90.395-40.471 90.395-90.395-79.958-132.632-90.395-132.632z" fill="#87796f"/></g></g><g><g><path d="m156.294 63.151c-19.94-25.208-43.909-48.164-50.287-48.164s-30.347 22.957-50.287 48.164c-15.539 19.643-41.607 56.931-41.607 85.968 0 50.671 41.224 91.894 91.895 91.894s91.895-41.224 91.895-91.894c-.002-29.037-26.07-66.325-41.609-85.968zm-50.287 174.862c-49.017 0-88.895-39.878-88.895-88.894 0-28.129 25.663-64.77 40.96-84.106 23.077-29.171 44.15-47.025 47.934-47.025s24.858 17.854 47.935 47.025c15.297 19.337 40.96 55.977 40.96 84.106 0 49.016-39.878 88.894-88.894 88.894z" fill="#3a312a"/></g></g><g><g><path d="m149.993 16.487c-10.437 0-90.395 82.708-90.395 132.632s40.471 90.395 90.395 90.395c49.923 0 90.395-40.471 90.395-90.395s-79.959-132.632-90.395-132.632z" fill="#d7e057"/></g></g><g><g><path d="m200.28 63.151c-19.941-25.208-43.909-48.164-50.287-48.164s-30.347 22.957-50.287 48.164c-15.539 19.643-41.608 56.931-41.608 85.968 0 50.671 41.224 91.894 91.895 91.894s91.895-41.224 91.895-91.894c0-29.037-26.069-66.325-41.608-85.968zm-50.287 174.862c-49.017 0-88.895-39.878-88.895-88.894 0-28.129 25.663-64.77 40.96-84.106 23.077-29.171 44.15-47.025 47.935-47.025 3.784 0 24.857 17.854 47.935 47.025 15.297 19.337 40.96 55.977 40.96 84.106 0 49.016-39.878 88.894-88.895 88.894z" fill="#3a312a"/></g></g><g><g><path d="m149.993 56.202c-3.566 0-18.911 14.017-33.476 32.341l-8.874 11.908c-11.069 15.92-19.923 33.334-19.923 47.12 0 34.392 27.88 62.272 62.272 62.272s62.272-27.88 62.272-62.272c.001-34.392-55.082-91.369-62.271-91.369z" fill="#fce8cb"/></g></g><g><g><path d="m185.001 88.059c-12.481-15.777-29.928-33.357-35.008-33.357-5.006 0-22.279 17.343-34.649 32.908-.516.648-.408 1.592.24 2.107.65.516 1.592.408 2.107-.241 15.538-19.548 29.746-31.682 32.299-31.774 2.547.092 17.287 12.761 32.761 32.348 10.463 13.243 28.014 38.326 28.014 57.52 0 33.51-27.262 60.772-60.771 60.772-33.51 0-60.773-27.262-60.773-60.772 0-14.874 10.688-33.369 19.654-46.264.473-.68.305-1.615-.375-2.088-.68-.474-1.615-.306-2.088.375-9.211 13.248-20.191 32.325-20.191 47.977 0 35.164 28.608 63.772 63.773 63.772 35.164 0 63.771-28.608 63.771-63.772 0-20.144-18.022-45.932-28.764-59.511z" fill="#3a312a"/></g></g><g><g><path d="m182.746 90.05c-15.47-19.59-30.21-32.26-32.76-32.35-.96.03-3.67 1.87-7.5 5.19 6.3 5.47 15.64 14.98 25.26 27.16 10.47 13.24 28.02 38.33 28.02 57.52 0 30.97-23.29 56.6-53.27 60.31 2.46.3 4.96.46 7.5.46 33.51 0 60.77-27.26 60.77-60.77 0-19.19-17.55-44.28-28.02-57.52z" fill="#decaad"/></g></g></g></svg>