<svg id="Layer_1" enable-background="new 0 0 256 256" height="512" viewBox="0 0 256 256" width="512" xmlns="http://www.w3.org/2000/svg"><g><g><g><path d="m47.661 26.431c-.974 11.564-13.024 13.39-13.024 13.39 10.346.486 12.925 14.059 12.925 14.059.221-9.677 13.321-14.202 13.321-14.202-9.814-.588-13.222-13.247-13.222-13.247z" fill="#d7e057"/></g></g><g><g><path d="m60.973 38.18c-8.604-.514-11.832-12.024-11.863-12.14-.191-.702-.854-1.164-1.584-1.102-.725.066-1.298.642-1.359 1.367-.86 10.215-11.313 11.964-11.755 12.033-.763.115-1.314.79-1.273 1.561.04.77.657 1.384 1.428 1.421 9.027.425 11.498 12.718 11.521 12.842.138.711.76 1.217 1.473 1.217.042 0 .084-.001.126-.005.764-.064 1.357-.693 1.375-1.459.194-8.509 12.191-12.777 12.313-12.819.676-.235 1.092-.915.994-1.623-.099-.709-.682-1.25-1.396-1.293zm-13.567 10.346c-1.356-3.13-3.709-6.907-7.587-8.877 2.931-1.405 6.409-3.913 8.202-8.273 1.551 3.071 4.2 6.88 8.334 8.722-3.006 1.641-6.922 4.407-8.949 8.428z" fill="#3a312a"/></g></g><g><g><path d="m25.963 43.412c-.689 8.179-9.213 9.471-9.213 9.471 7.318.344 9.142 9.944 9.142 9.944.156-6.844 9.422-10.045 9.422-10.045-6.941-.416-9.351-9.37-9.351-9.37z" fill="#d7e057"/></g></g><g><g><path d="m35.404 51.283c-5.767-.345-7.972-8.185-7.993-8.264-.191-.702-.864-1.158-1.582-1.102-.726.065-1.3.642-1.361 1.368-.579 6.871-7.646 8.067-7.942 8.114-.763.115-1.314.79-1.273 1.561.04.77.657 1.384 1.428 1.421 6.035.284 7.724 8.643 7.739 8.725.136.712.759 1.22 1.473 1.22.041 0 .083-.002.125-.005.765-.063 1.358-.694 1.376-1.461.13-5.709 8.331-8.634 8.412-8.662.676-.234 1.093-.913.996-1.622-.099-.708-.684-1.25-1.398-1.293zm-9.585 6.796c-.924-1.886-2.34-3.947-4.447-5.28 1.855-1.041 3.697-2.63 4.871-4.917 1.057 1.874 2.654 3.955 4.941 5.224-1.85 1.101-3.989 2.74-5.365 4.973z" fill="#3a312a"/></g></g><g><g><path d="m25.963 16.754c-.689 8.179-9.213 9.471-9.213 9.471 7.318.344 9.142 9.944 9.142 9.944.156-6.845 9.422-10.045 9.422-10.045-6.941-.416-9.351-9.37-9.351-9.37z" fill="#d7e057"/></g></g><g><g><path d="m35.404 24.626c-5.767-.345-7.972-8.186-7.993-8.265-.191-.702-.864-1.164-1.582-1.101-.726.065-1.3.642-1.361 1.368-.579 6.871-7.646 8.067-7.942 8.114-.763.115-1.314.79-1.273 1.561.04.77.657 1.384 1.428 1.421 6.035.284 7.724 8.644 7.739 8.726.136.712.759 1.22 1.473 1.22.041 0 .083-.001.125-.005.765-.063 1.358-.694 1.376-1.461.13-5.709 8.331-8.634 8.412-8.662.676-.234 1.093-.913.996-1.622-.099-.71-.684-1.251-1.398-1.294zm-9.585 6.795c-.924-1.886-2.34-3.947-4.447-5.28 1.855-1.041 3.697-2.63 4.871-4.917 1.057 1.874 2.654 3.955 4.941 5.224-1.849 1.101-3.989 2.74-5.365 4.973z" fill="#3a312a"/></g></g><g><g><circle cx="72.5" cy="150.099" fill="#ef6d7a" r="55.5"/></g></g><g><g><path d="m72.5 93.1c-31.43 0-57 25.57-57 57s25.57 57 57 57 57-25.57 57-57-25.57-57-57-57zm0 111c-29.775 0-54-24.224-54-54s24.225-54 54-54 54 24.224 54 54-24.225 54-54 54z" fill="#3a312a"/></g></g><g><g><circle cx="183.5" cy="150.099" fill="#fce8cb" r="55.5"/></g></g><g><g><path d="m183.5 93.1c-31.43 0-57 25.57-57 57s25.57 57 57 57 57-25.57 57-57-25.57-57-57-57zm0 111c-29.775 0-54-24.224-54-54s24.225-54 54-54 54 24.224 54 54-24.225 54-54 54z" fill="#3a312a"/></g></g><g><g><path d="m195.676 60.687h-135.352c-24.203 0-43.824 19.621-43.824 43.824h223c0-24.203-19.621-43.824-43.824-43.824z" fill="#87796f"/></g></g><g><g><path d="m195.676 59.187h-135.352c-25 0-45.337 20.346-45.324 45.349 0 .819.681 1.476 1.5 1.476h43.85c.828 0 1.5-.671 1.5-1.5s-.672-1.5-1.5-1.5l-42.323-.001c.792-22.646 19.462-40.824 42.298-40.824h135.352c22.836 0 41.506 18.178 42.298 40.825h-161.825c-.828 0-1.5.672-1.5 1.5s.672 1.5 1.5 1.5l163.35-.001c.819 0 1.499-.657 1.5-1.476.013-25.002-20.324-45.348-45.324-45.348z" fill="#3a312a"/></g></g><g><g><path d="m16.5 195.687c0 24.204 19.621 43.825 43.824 43.825h135.352c24.203 0 43.824-19.621 43.824-43.824h-223z" fill="#87796f"/></g></g><g><g><path d="m240.561 194.626c-.281-.281-.663-.439-1.061-.439l-223 .001c-.828 0-1.5.671-1.5 1.5 0 24.992 20.332 45.324 45.324 45.324h94.524c.828 0 1.5-.671 1.5-1.5s-.672-1.5-1.5-1.5h-94.524c-22.836 0-41.506-18.178-42.298-40.825l219.947.001c-.792 22.646-19.462 40.824-42.298 40.824h-26.523c-.828 0-1.5.671-1.5 1.5s.672 1.5 1.5 1.5h26.523c24.992 0 45.324-20.333 45.324-45.325.001-.398-.157-.779-.438-1.061z" fill="#3a312a"/></g></g><g><g><path d="m138.05 16.488h-20.1c-24.411 0-44.2 19.789-44.2 44.2h108.5c0-24.411-19.789-44.2-44.2-44.2z" fill="#87796f"/></g></g><g><g><path d="m138.05 14.988h-20.1c-25.199 0-45.7 20.501-45.7 45.7 0 .829.672 1.5 1.5 1.5h108.5c.828 0 1.5-.671 1.5-1.5 0-25.199-20.501-45.7-45.7-45.7zm-62.774 44.2c.792-22.854 19.631-41.2 42.674-41.2h20.1c23.043 0 41.882 18.346 42.674 41.2z" fill="#3a312a"/></g></g><g><g><path d="m214.62 106.008h-15c13.83 9.79 22.88 25.9 22.88 44.09s-9.05 34.3-22.88 44.09h15c13.83-9.79 22.88-25.9 22.88-44.09s-9.05-34.3-22.88-44.09z" fill="#decaad"/></g></g><g><g><path d="m195.68 62.188h-15c22.83 0 41.5 18.18 42.29 40.82h15c-.79-22.64-19.46-40.82-42.29-40.82z" fill="#695b51"/></g></g><g><g><path d="m222.97 197.188c-.79 22.65-19.46 40.82-42.29 40.82h15c22.83 0 41.5-18.17 42.29-40.82z" fill="#695b51"/></g></g></g></svg>