<svg id="Layer_1" enable-background="new 0 0 256 256" height="512" viewBox="0 0 256 256" width="512" xmlns="http://www.w3.org/2000/svg"><g><g><g><path d="m226.188 69.206c-.974 11.564-13.025 13.39-13.025 13.39 10.347.487 12.925 14.059 12.925 14.059.221-9.677 13.321-14.203 13.321-14.203-9.812-.586-13.221-13.246-13.221-13.246z" fill="#d7e057"/></g></g><g><g><path d="m239.5 80.955c-8.605-.514-11.832-12.024-11.863-12.14-.19-.702-.847-1.162-1.584-1.102-.725.066-1.298.642-1.359 1.367-.859 10.215-11.313 11.964-11.754 12.033-.763.115-1.313.79-1.273 1.561.04.77.657 1.384 1.428 1.421 9.027.425 11.498 12.718 11.521 12.842.138.711.76 1.217 1.473 1.217.042 0 .084-.001.126-.005.764-.064 1.357-.693 1.375-1.459.194-8.509 12.191-12.777 12.313-12.819.676-.235 1.092-.915.994-1.623-.1-.709-.683-1.25-1.397-1.293zm-13.566 10.346c-1.356-3.13-3.709-6.907-7.587-8.877 2.931-1.405 6.409-3.913 8.202-8.273 1.551 3.071 4.2 6.88 8.334 8.722-3.007 1.641-6.923 4.407-8.949 8.428z" fill="#3a312a"/></g></g><g><g><path d="m204.49 86.187c-.689 8.179-9.213 9.471-9.213 9.471 7.318.344 9.142 9.944 9.142 9.944.156-6.844 9.422-10.045 9.422-10.045-6.941-.416-9.351-9.37-9.351-9.37z" fill="#d7e057"/></g></g><g><g><path d="m213.932 94.059c-5.767-.345-7.972-8.186-7.993-8.265-.19-.702-.864-1.165-1.582-1.102-.726.065-1.3.642-1.361 1.368-.579 6.871-7.646 8.067-7.942 8.114-.763.115-1.313.79-1.273 1.561.04.77.657 1.384 1.428 1.421 6.035.284 7.724 8.643 7.739 8.725.136.712.759 1.22 1.473 1.22.041 0 .083-.002.125-.005.765-.063 1.358-.694 1.376-1.461.13-5.709 8.331-8.633 8.412-8.661.676-.234 1.093-.913.996-1.622-.1-.708-.685-1.25-1.398-1.293zm-9.585 6.795c-.924-1.886-2.34-3.947-4.447-5.28 1.855-1.041 3.697-2.63 4.871-4.917 1.057 1.874 2.654 3.955 4.941 5.224-1.85 1.101-3.989 2.741-5.365 4.973z" fill="#3a312a"/></g></g><g><g><path d="m204.49 59.529c-.689 8.179-9.213 9.471-9.213 9.471 7.318.344 9.142 9.944 9.142 9.944.156-6.845 9.422-10.045 9.422-10.045-6.941-.416-9.351-9.37-9.351-9.37z" fill="#d7e057"/></g></g><g><g><path d="m213.932 67.401c-5.767-.345-7.972-8.186-7.993-8.265-.19-.702-.864-1.163-1.582-1.102-.726.065-1.3.642-1.361 1.368-.579 6.871-7.646 8.067-7.942 8.114-.763.115-1.313.79-1.273 1.561.04.77.657 1.384 1.428 1.421 6.035.284 7.724 8.644 7.739 8.726.136.712.759 1.22 1.473 1.22.041 0 .083-.001.125-.005.765-.063 1.358-.694 1.376-1.461.13-5.71 8.331-8.634 8.412-8.662.676-.234 1.093-.913.996-1.622-.1-.708-.685-1.25-1.398-1.293zm-9.585 6.796c-.924-1.886-2.34-3.947-4.447-5.28 1.855-1.041 3.697-2.63 4.871-4.916 1.057 1.873 2.654 3.954 4.941 5.224-1.85 1.1-3.989 2.739-5.365 4.972z" fill="#3a312a"/></g></g><g><g><ellipse cx="127.97" cy="96.672" fill="#87796f" rx="19.398" ry="19.398" transform="matrix(1 -.033 .033 1 -3.125 4.283)"/></g></g><g><g><path d="m127.97 75.774c-11.523 0-20.898 9.375-20.898 20.898s9.375 20.898 20.898 20.898 20.898-9.375 20.898-20.898-9.375-20.898-20.898-20.898zm0 38.796c-9.869 0-17.898-8.029-17.898-17.898s8.029-17.898 17.898-17.898 17.898 8.029 17.898 17.898-8.029 17.898-17.898 17.898z" fill="#3a312a"/></g></g><g><g><path d="m97.116 101.033c-28.086 0-50.854 22.768-50.854 50.854 0 .13.009.257.01.386h101.688c.001-.129.01-.257.01-.386 0-28.086-22.768-50.854-50.854-50.854z" fill="#d7e057"/></g></g><g><g><path d="m97.116 99.534c-28.868 0-52.354 23.486-52.354 52.354l.01.398c.006.824.676 1.489 1.5 1.489h101.688c.824 0 1.494-.664 1.5-1.489l.01-.398c0-28.868-23.486-52.354-52.354-52.354zm-49.342 51.24c.594-26.702 22.5-48.24 49.342-48.24s48.747 21.539 49.341 48.24z" fill="#3a312a"/></g></g><g><g><path d="m97.116 115.589c-20.108 0-36.408 16.3-36.408 36.408 0 .092.006.184.007.277h72.802c.001-.093.007-.184.007-.277 0-20.107-16.3-36.408-36.408-36.408z" fill="#d7e057"/></g></g><g><g><path d="m97.116 114.089c-20.903 0-37.908 17.005-37.908 37.908l.007.292c.009.822.678 1.484 1.5 1.484h72.803c.828 0 1.502-.754 1.502-1.582l.005-.194c-.001-20.903-17.006-37.908-37.909-37.908zm-34.887 36.685c.646-18.685 16.047-33.685 34.887-33.685 18.813 0 34.197 14.96 34.882 33.685z" fill="#3a312a"/></g></g><g><g><path d="m97.116 129.854c-12.289 0-22.251 9.962-22.251 22.251 0 .057.004.113.004.169h44.494c0-.057.004-.112.004-.169 0-12.289-9.962-22.251-22.251-22.251z" fill="#d7e057"/></g></g><g><g><path d="m97.116 128.354c-13.097 0-23.751 10.655-23.751 23.751l.004.182c.007.824.677 1.487 1.5 1.487h44.494c.807 0 1.471-.717 1.501-1.523.001-.019.003-.127.003-.146 0-13.097-10.655-23.751-23.751-23.751zm-20.709 22.42c.688-10.825 9.714-19.42 20.709-19.42 10.985 0 20.003 8.58 20.706 19.42z" fill="#3a312a"/></g></g><g><g><path d="m158.824 101.033c-28.086 0-50.854 22.768-50.854 50.854 0 .13.009.257.01.386h101.689c.001-.129.01-.257.01-.386-.001-28.086-22.769-50.854-50.855-50.854z" fill="#d7e057"/></g></g><g><g><path d="m158.824 99.534c-28.868 0-52.354 23.486-52.354 52.354l.01.398c.006.824.676 1.489 1.5 1.489h101.689c.824 0 1.494-.664 1.5-1.489l.01-.398c0-28.868-23.487-52.354-52.355-52.354zm-49.342 51.24c.594-26.702 22.5-48.24 49.342-48.24s48.748 21.539 49.342 48.24z" fill="#3a312a"/></g></g><g><g><path d="m158.824 115.589c-20.108 0-36.408 16.3-36.408 36.408 0 .092.006.184.007.277h72.802c.001-.093.007-.184.007-.277 0-20.107-16.3-36.408-36.408-36.408z" fill="#d7e057"/></g></g><g><g><path d="m158.824 114.089c-20.902 0-37.908 17.005-37.908 37.908l.007.285c.004.825.675 1.492 1.5 1.492h72.803c.828 0 1.502-.754 1.502-1.582l.005-.194c-.001-20.904-17.006-37.909-37.909-37.909zm-34.887 36.685c.646-18.685 16.047-33.685 34.887-33.685 18.813 0 34.197 14.96 34.882 33.685z" fill="#3a312a"/></g></g><g><g><path d="m158.824 129.854c-12.289 0-22.251 9.962-22.251 22.251 0 .057.004.113.004.169h44.494c0-.057.004-.112.004-.169 0-12.289-9.962-22.251-22.251-22.251z" fill="#d7e057"/></g></g><g><g><path d="m158.824 128.354c-13.097 0-23.751 10.655-23.751 23.751l.004.169c0 .829.672 1.5 1.5 1.5h44.494c.809 0 1.473-.725 1.501-1.532.001-.018.003-.119.003-.137 0-13.097-10.654-23.751-23.751-23.751zm-20.709 22.42c.688-10.825 9.714-19.42 20.709-19.42 10.985 0 20.005 8.581 20.706 19.42z" fill="#3a312a"/></g></g><g><g><ellipse cx="179.019" cy="137.672" fill="#87796f" rx="19.398" ry="19.398" transform="matrix(.159 -.987 .987 .159 14.6 292.487)"/></g></g><g><g><path d="m179.019 116.774c-11.523 0-20.898 9.375-20.898 20.898s9.375 20.898 20.898 20.898c11.524 0 20.899-9.375 20.899-20.898s-9.375-20.898-20.899-20.898zm0 38.796c-9.869 0-17.898-8.029-17.898-17.898s8.029-17.898 17.898-17.898 17.899 8.029 17.899 17.898-8.029 17.898-17.899 17.898z" fill="#3a312a"/></g></g><g><g><path d="m77.116 141.308c-28.086 0-50.854 22.768-50.854 50.854 0 .13.009.257.01.386h101.688c.001-.129.01-.257.01-.386 0-28.086-22.768-50.854-50.854-50.854z" fill="#d7e057"/></g></g><g><g><path d="m77.116 139.808c-28.868 0-52.354 23.486-52.354 52.354l.01.398c.006.824.676 1.489 1.5 1.489h101.688c.824 0 1.494-.664 1.5-1.489l.01-.398c0-28.868-23.486-52.354-52.354-52.354zm-49.342 51.24c.594-26.702 22.5-48.24 49.342-48.24s48.748 21.539 49.342 48.24z" fill="#3a312a"/></g></g><g><g><path d="m77.116 155.864c-20.108 0-36.408 16.3-36.408 36.408 0 .092.006.184.007.276h72.802c.001-.092.007-.184.007-.276 0-20.108-16.3-36.408-36.408-36.408z" fill="#d7e057"/></g></g><g><g><path d="m77.116 154.364c-20.903 0-37.908 17.005-37.908 37.908l.007.292c.009.822.678 1.484 1.5 1.484h72.802c.825 0 1.498-.753 1.502-1.579l.004-.198c.001-20.902-17.004-37.907-37.907-37.907zm-34.887 36.684c.648-18.684 16.049-33.684 34.887-33.684 18.81 0 34.193 14.956 34.881 33.684z" fill="#3a312a"/></g></g><g><g><path d="m77.116 170.128c-12.289 0-22.251 9.962-22.251 22.251 0 .057.004.112.004.169h44.494c0-.057.004-.112.004-.169 0-12.289-9.962-22.251-22.251-22.251z" fill="#d7e057"/></g></g><g><g><path d="m77.116 168.628c-13.097 0-23.751 10.655-23.751 23.751l.004.182c.007.824.677 1.487 1.5 1.487h44.494c.807 0 1.471-.717 1.501-1.523.001-.019.003-.127.003-.146 0-13.096-10.655-23.751-23.751-23.751zm-20.709 22.42c.688-10.825 9.714-19.42 20.709-19.42 10.985 0 20.003 8.58 20.706 19.42z" fill="#3a312a"/></g></g><g><g><path d="m178.824 141.308c-28.086 0-50.854 22.768-50.854 50.854 0 .13.009.257.01.386h101.689c.001-.129.01-.257.01-.386-.001-28.086-22.769-50.854-50.855-50.854z" fill="#d7e057"/></g></g><g><g><path d="m178.824 139.808c-28.868 0-52.354 23.486-52.354 52.354l.01.398c.006.824.676 1.489 1.5 1.489h101.689c.824 0 1.494-.664 1.5-1.489l.01-.398c0-28.868-23.487-52.354-52.355-52.354zm-49.342 51.24c.594-26.702 22.5-48.24 49.342-48.24s48.748 21.539 49.342 48.24z" fill="#3a312a"/></g></g><g><g><path d="m178.824 155.864c-20.108 0-36.408 16.3-36.408 36.408 0 .092.006.184.007.276h72.802c.001-.092.007-.184.007-.276 0-20.108-16.3-36.408-36.408-36.408z" fill="#d7e057"/></g></g><g><g><path d="m178.824 154.364c-20.902 0-37.908 17.005-37.908 37.908l.007.292c.009.822.678 1.484 1.5 1.484h72.803c.828 0 1.502-.753 1.502-1.582l.005-.194c-.001-20.903-17.006-37.908-37.909-37.908zm-34.887 36.684c.648-18.684 16.048-33.684 34.887-33.684 18.813 0 34.197 14.959 34.882 33.684z" fill="#3a312a"/></g></g><g><g><path d="m178.824 170.128c-12.289 0-22.251 9.962-22.251 22.251 0 .057.004.112.004.169h44.494c0-.057.004-.112.004-.169 0-12.289-9.962-22.251-22.251-22.251z" fill="#d7e057"/></g></g><g><g><path d="m178.824 168.628c-13.097 0-23.751 10.655-23.751 23.751l.004.169c0 .829.672 1.5 1.5 1.5h44.494c.809 0 1.473-.725 1.501-1.532.001-.018.003-.119.003-.137 0-13.096-10.654-23.751-23.751-23.751zm-20.709 22.42c.688-10.825 9.714-19.42 20.709-19.42 10.985 0 20.005 8.581 20.706 19.42z" fill="#3a312a"/></g></g><g><g><path d="m16.53 192.548c0 19.436 15.756 35.192 35.192 35.192h152.497c19.436 0 35.192-15.756 35.192-35.192z" fill="#fce8cb"/></g></g><g><g><path d="m239.41 191.048h-222.88c-.829 0-1.5.671-1.5 1.5 0 20.232 16.46 36.692 36.692 36.692h4.531c.829 0 1.5-.671 1.5-1.5s-.671-1.5-1.5-1.5h-4.531c-18.076 0-32.872-14.307-33.659-32.192h219.814c-.787 17.885-15.583 32.192-33.658 32.192h-133.033c-.829 0-1.5.671-1.5 1.5s.671 1.5 1.5 1.5h133.032c20.231 0 36.691-16.46 36.691-36.692.001-.828-.671-1.5-1.499-1.5z" fill="#3a312a"/></g></g><g><g><path d="m80.777 227.74h94.387v11.731h-94.387z" fill="#fce8cb"/></g></g><g><g><path d="m175.163 226.24h-94.386c-.829 0-1.5.671-1.5 1.5v11.73c0 .829.671 1.5 1.5 1.5h94.386c.828 0 1.5-.671 1.5-1.5v-11.73c0-.828-.672-1.5-1.5-1.5zm-1.5 11.731h-91.386v-8.73h91.386z" fill="#3a312a"/></g></g><g><g><path d="m127.97 141.308c-28.086 0-50.854 22.768-50.854 50.854 0 .13.009.257.01.386h101.689c.001-.129.01-.257.01-.386-.001-28.086-22.769-50.854-50.855-50.854z" fill="#d7e057"/></g></g><g><g><path d="m127.97 139.808c-28.868 0-52.354 23.486-52.354 52.354l.009.392c.003.826.674 1.494 1.5 1.494h101.689c.824 0 1.494-.664 1.5-1.489l.01-.398c0-28.867-23.486-52.353-52.354-52.353zm-49.342 51.24c.594-26.702 22.5-48.24 49.342-48.24s48.748 21.539 49.341 48.24z" fill="#3a312a"/></g></g><g><g><path d="m127.97 155.864c-20.108 0-36.408 16.3-36.408 36.408 0 .092.006.184.007.276h72.802c.001-.092.007-.184.007-.276 0-20.108-16.3-36.408-36.408-36.408z" fill="#d7e057"/></g></g><g><g><path d="m127.97 154.364c-20.903 0-37.908 17.005-37.908 37.908l.007.284c.004.826.675 1.492 1.5 1.492h72.802c.822 0 1.494-.751 1.502-1.573l.005-.203c0-20.903-17.005-37.908-37.908-37.908zm-34.887 36.684c.648-18.684 16.049-33.684 34.887-33.684 18.808 0 34.189 14.951 34.88 33.684z" fill="#3a312a"/></g></g><g><g><path d="m127.97 170.128c-12.289 0-22.251 9.962-22.251 22.251 0 .057.004.112.004.169h44.494c0-.057.004-.112.004-.169 0-12.289-9.962-22.251-22.251-22.251z" fill="#d7e057"/></g></g><g><g><path d="m127.97 168.628c-13.096 0-23.751 10.655-23.751 23.751l.004.169c0 .829.671 1.5 1.5 1.5h44.494c.806 0 1.469-.708 1.501-1.513.001-.02.004-.136.004-.156 0-13.096-10.656-23.751-23.752-23.751zm-20.709 22.42c.688-10.825 9.714-19.42 20.709-19.42 10.984 0 20.003 8.579 20.706 19.42z" fill="#3a312a"/></g></g><g><g><path d="m223.43 194.05c-.79 17.88-15.58 32.19-33.66 32.19h14.45c18.07 0 32.87-14.31 33.66-32.19z" fill="#decaad"/></g></g><g><g><ellipse cx="97.019" cy="142.672" fill="#87796f" rx="19.398" ry="19.398" transform="matrix(.159 -.987 .987 .159 -59.28 215.737)"/></g></g><g><g><path d="m97.019 121.774c-11.523 0-20.898 9.375-20.898 20.898s9.375 20.898 20.898 20.898 20.898-9.375 20.898-20.898-9.375-20.898-20.898-20.898zm0 38.796c-9.869 0-17.898-8.029-17.898-17.898s8.029-17.898 17.898-17.898 17.898 8.029 17.898 17.898-8.028 17.898-17.898 17.898z" fill="#3a312a"/></g></g><g><g><path d="m127.97 141.308c-28.086 0-50.854 22.768-50.854 50.854 0 .13.009.257.01.386h101.689c.001-.129.01-.257.01-.386-.001-28.086-22.769-50.854-50.855-50.854z" fill="#d7e057"/></g></g><g><g><path d="m127.97 139.808c-28.868 0-52.354 23.486-52.354 52.354l.009.392c.003.826.674 1.494 1.5 1.494h101.689c.824 0 1.494-.664 1.5-1.489l.01-.398c0-28.867-23.486-52.353-52.354-52.353zm-49.342 51.24c.594-26.702 22.5-48.24 49.342-48.24s48.748 21.539 49.341 48.24z" fill="#3a312a"/></g></g><g><g><path d="m127.97 155.864c-20.108 0-36.408 16.3-36.408 36.408 0 .092.006.184.007.276h72.802c.001-.092.007-.184.007-.276 0-20.108-16.3-36.408-36.408-36.408z" fill="#d7e057"/></g></g><g><g><path d="m127.97 154.364c-20.903 0-37.908 17.005-37.908 37.908l.007.284c.004.826.675 1.492 1.5 1.492h72.802c.822 0 1.494-.751 1.502-1.573l.005-.203c0-20.903-17.005-37.908-37.908-37.908zm-34.887 36.684c.648-18.684 16.049-33.684 34.887-33.684 18.808 0 34.189 14.951 34.88 33.684z" fill="#3a312a"/></g></g><g><g><path d="m127.97 170.128c-12.289 0-22.251 9.962-22.251 22.251 0 .057.004.112.004.169h44.494c0-.057.004-.112.004-.169 0-12.289-9.962-22.251-22.251-22.251z" fill="#d7e057"/></g></g><g><g><path d="m127.97 168.628c-13.096 0-23.751 10.655-23.751 23.751l.004.169c0 .829.671 1.5 1.5 1.5h44.494c.806 0 1.469-.708 1.501-1.513.001-.02.004-.136.004-.156 0-13.096-10.656-23.751-23.752-23.751zm-20.709 22.42c.688-10.825 9.714-19.42 20.709-19.42 10.984 0 20.003 8.579 20.706 19.42z" fill="#3a312a"/></g></g><g><g><path d="m232.702 35.883h-136.927c.693 2.128 1.071 4.402 1.071 6.768s-.378 4.64-1.071 6.768h14.381l11.09-.003c0 .001 111.456.003 111.456.003 3.738 0 6.768-3.03 6.768-6.768 0-3.737-3.03-6.768-6.768-6.768z" fill="#87796f"/></g></g><g><g><path d="m232.702 34.384h-136.927c-.48 0-.932.23-1.214.619s-.361.889-.212 1.346c.662 2.032.997 4.152.997 6.304 0 2.151-.336 4.271-.997 6.303-.149.456-.07.957.212 1.346s.733.619 1.214.619h14.381c.829 0 1.5-.671 1.5-1.5s-.671-1.5-1.5-1.5h-12.408c.398-1.721.599-3.485.599-5.267s-.201-3.547-.599-5.268h134.954c2.904 0 5.268 2.363 5.268 5.268s-2.363 5.267-5.268 5.267c-1.11 0-111.08-.001-111.453-.002h-.002c-.397 0-.779.158-1.061.438-.282.282-.44.664-.44 1.062 0 1.5 1.214 1.5 2.751 1.5l110.204.002c4.559 0 8.268-3.709 8.268-8.267.001-4.561-3.708-8.27-8.267-8.27z" fill="#3a312a"/></g></g><g><g><path d="m74.969 20.774h-38.822c-2.563 0-4.641 2.078-4.641 4.641s2.078 4.641 4.641 4.641h25.754c2.197 0 3.978 1.781 3.978 3.978 0 2.197-1.781 3.978-3.978 3.978h-25.754c-2.563 0-4.641 2.078-4.641 4.641s2.078 4.641 4.641 4.641h25.754c2.197 0 3.978 1.781 3.978 3.978s-1.781 3.978-3.978 3.978h-25.754c-2.563 0-4.641 2.078-4.641 4.641s2.078 4.641 4.641 4.641h38.821c12.083 0 21.878-9.795 21.878-21.878s-9.794-21.88-21.877-21.88z" fill="#87796f"/></g></g><g><g><path d="m74.969 19.274h-38.822c-3.386 0-6.141 2.755-6.141 6.141s2.755 6.141 6.141 6.141h25.754c1.366 0 2.478 1.112 2.478 2.478s-1.111 2.478-2.478 2.478h-25.754c-3.386 0-6.141 2.755-6.141 6.141s2.755 6.141 6.141 6.141h25.754c1.366 0 2.478 1.111 2.478 2.478s-1.111 2.478-2.478 2.478h-25.754c-3.386 0-6.141 2.755-6.141 6.141s2.755 6.141 6.141 6.141h38.821c12.891 0 23.378-10.487 23.378-23.377.001-12.894-10.487-23.381-23.377-23.381zm0 43.755h-38.822c-1.732 0-3.141-1.409-3.141-3.141s1.409-3.141 3.141-3.141h25.754c3.021 0 5.478-2.458 5.478-5.478s-2.457-5.478-5.478-5.478h-25.754c-1.732 0-3.141-1.409-3.141-3.141s1.409-3.141 3.141-3.141h25.754c3.021 0 5.478-2.457 5.478-5.478s-2.457-5.478-5.478-5.478h-25.754c-1.732 0-3.141-1.409-3.141-3.141s1.409-3.141 3.141-3.141h38.821c11.236 0 20.378 9.142 20.378 20.378.001 11.239-9.141 20.38-20.377 20.38z" fill="#3a312a"/></g></g><g><g><path d="m21.923 16.529c-2.978 0-5.393 2.414-5.393 5.393v59.598c0 2.978 2.414 5.392 5.393 5.392 2.978 0 5.393-2.414 5.393-5.392v-59.598c-.001-2.978-2.415-5.393-5.393-5.393z" fill="#d7e057"/></g></g><g><g><path d="m21.922 15.029c-3.801 0-6.893 3.092-6.893 6.893v59.598c0 3.801 3.092 6.893 6.893 6.893s6.893-3.092 6.893-6.893v-59.598c0-3.801-3.092-6.893-6.893-6.893zm3.893 66.491c0 2.146-1.747 3.893-3.893 3.893-2.147 0-3.893-1.746-3.893-3.893v-59.598c0-2.146 1.746-3.893 3.893-3.893 2.146 0 3.893 1.746 3.893 3.893z" fill="#3a312a"/></g></g><g><g><path d="m32.708 16.529c-2.978 0-5.393 2.414-5.393 5.393v41.528c0 2.978 2.414 5.392 5.393 5.392 2.978 0 5.393-2.414 5.393-5.392v-41.528c-.001-2.978-2.415-5.393-5.393-5.393z" fill="#d7e057"/></g></g><g><g><path d="m32.708 15.029c-3.801 0-6.893 3.092-6.893 6.893v41.528c0 3.801 3.092 6.893 6.893 6.893s6.893-3.092 6.893-6.893v-41.528c0-3.801-3.092-6.893-6.893-6.893zm3.893 48.421c0 2.146-1.746 3.893-3.893 3.893s-3.893-1.747-3.893-3.893v-41.528c0-2.146 1.746-3.893 3.893-3.893 2.146 0 3.893 1.746 3.893 3.893z" fill="#3a312a"/></g></g><g><g><path d="m43.493 16.529c-2.978 0-5.393 2.414-5.393 5.393v41.528c0 2.978 2.414 5.392 5.393 5.392 2.978 0 5.393-2.414 5.393-5.392v-41.528c0-2.978-2.415-5.393-5.393-5.393z" fill="#d7e057"/></g></g><g><g><path d="m43.493 15.029c-3.801 0-6.893 3.092-6.893 6.893v41.528c0 3.801 3.092 6.893 6.893 6.893s6.893-3.092 6.893-6.893v-41.528c0-3.801-3.092-6.893-6.893-6.893zm3.893 48.421c0 2.146-1.746 3.893-3.893 3.893-2.146 0-3.893-1.747-3.893-3.893v-41.528c0-2.146 1.746-3.893 3.893-3.893 2.146 0 3.893 1.746 3.893 3.893z" fill="#3a312a"/></g></g><g><g><path d="m54.278 16.529c-2.978 0-5.393 2.414-5.393 5.393v41.528c0 2.978 2.414 5.392 5.393 5.392 2.978 0 5.393-2.414 5.393-5.392v-41.528c0-2.978-2.415-5.393-5.393-5.393z" fill="#d7e057"/></g></g><g><g><path d="m54.278 15.029c-3.801 0-6.893 3.092-6.893 6.893v41.528c0 3.801 3.092 6.893 6.893 6.893s6.893-3.092 6.893-6.893v-41.528c0-3.801-3.092-6.893-6.893-6.893zm3.893 48.421c0 2.146-1.746 3.893-3.893 3.893s-3.893-1.747-3.893-3.893v-41.528c0-2.146 1.746-3.893 3.893-3.893s3.893 1.746 3.893 3.893z" fill="#3a312a"/></g></g></g></svg>