<svg id="Layer_1" enable-background="new 0 0 256 256" height="512" viewBox="0 0 256 256" width="512" xmlns="http://www.w3.org/2000/svg"><g><g><g><path clip-rule="evenodd" d="m168.005 62.613h-16.563c-2.146 0-3.886 1.74-3.886 3.886v30.395c0 2.146 1.74 3.886 3.886 3.886h16.563c2.146 0 3.886-1.74 3.886-3.886v-30.395c0-2.146-1.74-3.886-3.886-3.886z" fill="#d7e057" fill-rule="evenodd"/></g></g><g><g><path d="m168.005 61.113h-16.563c-2.97 0-5.386 2.416-5.386 5.386v30.395c0 2.97 2.416 5.387 5.386 5.387h16.563c2.971 0 5.387-2.417 5.387-5.387v-30.395c0-2.97-2.416-5.386-5.387-5.386zm2.387 35.781c0 1.316-1.07 2.387-2.387 2.387h-16.563c-1.315 0-2.386-1.071-2.386-2.387v-30.395c0-1.316 1.07-2.386 2.386-2.386h16.563c1.316 0 2.387 1.07 2.387 2.386z" fill="#3a312a"/></g></g><g><g><path clip-rule="evenodd" d="m170.701 100.78h-21.954c-2.247 0-4.068 1.821-4.068 4.068s1.821 4.068 4.068 4.068h21.954c2.247 0 4.068-1.821 4.068-4.068s-1.822-4.068-4.068-4.068z" fill="#d7e057" fill-rule="evenodd"/></g></g><g><g><path d="m170.701 99.28h-21.954c-3.07 0-5.568 2.497-5.568 5.568 0 3.07 2.498 5.568 5.568 5.568h21.954c3.07 0 5.567-2.497 5.567-5.568.001-3.07-2.497-5.568-5.567-5.568zm0 8.136h-21.954c-1.416 0-2.568-1.152-2.568-2.568s1.152-2.568 2.568-2.568h21.954c1.416 0 2.567 1.152 2.567 2.568.001 1.416-1.151 2.568-2.567 2.568z" fill="#3a312a"/></g></g><g><g><path clip-rule="evenodd" d="m168.005 108.916h-16.563c-2.146 0-3.886 1.74-3.886 3.886v30.395c0 2.146 1.74 3.886 3.886 3.886h16.563c2.146 0 3.886-1.74 3.886-3.886v-30.395c0-2.146-1.74-3.886-3.886-3.886z" fill="#d7e057" fill-rule="evenodd"/></g></g><g><g><path d="m168.005 107.416h-16.563c-2.97 0-5.386 2.416-5.386 5.386v8.063c0 .829.672 1.5 1.5 1.5s1.5-.671 1.5-1.5v-8.063c0-1.316 1.07-2.386 2.386-2.386h16.563c1.316 0 2.387 1.07 2.387 2.386v30.395c0 1.316-1.07 2.386-2.387 2.386h-16.563c-1.315 0-2.386-1.07-2.386-2.386v-7.576c0-.829-.672-1.5-1.5-1.5s-1.5.671-1.5 1.5v7.576c0 2.97 2.416 5.386 5.386 5.386h16.563c2.971 0 5.387-2.416 5.387-5.386v-30.395c0-2.97-2.416-5.386-5.387-5.386z" fill="#3a312a"/></g></g><g><g><path clip-rule="evenodd" d="m170.701 147.084h-21.954c-2.247 0-4.068 1.821-4.068 4.068s1.821 4.068 4.068 4.068h21.954c2.247 0 4.068-1.821 4.068-4.068s-1.822-4.068-4.068-4.068z" fill="#d7e057" fill-rule="evenodd"/></g></g><g><g><path d="m170.701 145.584h-21.954c-3.07 0-5.568 2.497-5.568 5.568 0 3.07 2.498 5.568 5.568 5.568h21.954c3.07 0 5.567-2.497 5.567-5.568.001-3.071-2.497-5.568-5.567-5.568zm0 8.136h-21.954c-1.416 0-2.568-1.152-2.568-2.568s1.152-2.568 2.568-2.568h21.954c1.416 0 2.567 1.152 2.567 2.568.001 1.416-1.151 2.568-2.567 2.568z" fill="#3a312a"/></g></g><g><g><path clip-rule="evenodd" d="m168.005 155.219h-16.563c-2.146 0-3.886 1.74-3.886 3.886v30.395c0 2.146 1.74 3.886 3.886 3.886h16.563c2.146 0 3.886-1.74 3.886-3.886v-30.395c0-2.145-1.74-3.886-3.886-3.886z" fill="#d7e057" fill-rule="evenodd"/></g></g><g><g><path d="m168.005 153.72h-16.563c-2.97 0-5.386 2.416-5.386 5.386v30.395c0 2.97 2.416 5.386 5.386 5.386h16.563c2.971 0 5.387-2.416 5.387-5.386v-30.395c0-2.97-2.416-5.386-5.387-5.386zm2.387 35.781c0 1.316-1.07 2.386-2.387 2.386h-16.563c-1.315 0-2.386-1.07-2.386-2.386v-30.395c0-1.316 1.07-2.386 2.386-2.386h16.563c1.316 0 2.387 1.07 2.387 2.386z" fill="#3a312a"/></g></g><g><g><path clip-rule="evenodd" d="m170.701 193.387h-21.954c-2.247 0-4.068 1.821-4.068 4.068s1.821 4.068 4.068 4.068h21.954c2.247 0 4.068-1.821 4.068-4.068 0-2.246-1.822-4.068-4.068-4.068z" fill="#d7e057" fill-rule="evenodd"/></g></g><g><g><path d="m170.701 191.887h-21.954c-3.07 0-5.568 2.498-5.568 5.568s2.498 5.568 5.568 5.568h21.954c3.07 0 5.567-2.497 5.567-5.568.001-3.07-2.497-5.568-5.567-5.568zm0 8.136h-21.954c-1.416 0-2.568-1.152-2.568-2.568s1.152-2.568 2.568-2.568h21.954c1.416 0 2.567 1.152 2.567 2.568s-1.151 2.568-2.567 2.568z" fill="#3a312a"/></g></g><g><g><path clip-rule="evenodd" d="m168.005 201.523h-16.563c-2.146 0-3.886 1.74-3.886 3.886v30.395c0 2.146 1.74 3.886 3.886 3.886h16.563c2.146 0 3.886-1.74 3.886-3.886v-30.394c0-2.147-1.74-3.887-3.886-3.887z" fill="#d7e057" fill-rule="evenodd"/></g></g><g><g><path d="m168.005 200.023h-16.563c-2.97 0-5.386 2.417-5.386 5.387v30.395c0 2.97 2.416 5.386 5.386 5.386h16.563c2.971 0 5.387-2.416 5.387-5.386v-30.395c0-2.971-2.416-5.387-5.387-5.387zm2.387 35.782c0 1.316-1.07 2.386-2.387 2.386h-16.563c-1.315 0-2.386-1.07-2.386-2.386v-30.395c0-1.316 1.07-2.387 2.386-2.387h16.563c1.316 0 2.387 1.071 2.387 2.387z" fill="#3a312a"/></g></g><g><g><path d="m168.004 64.111h-15c1.32 0 2.39 1.07 2.39 2.39v30.39c0 1.32-1.07 2.39-2.39 2.39h15c1.32 0 2.39-1.07 2.39-2.39v-30.39c0-1.32-1.07-2.39-2.39-2.39z" fill="#b9c239"/></g></g><g><g><path d="m170.704 102.281h-15c1.41 0 2.56 1.15 2.56 2.57 0 1.41-1.15 2.57-2.56 2.57h15c1.41 0 2.56-1.16 2.56-2.57 0-1.42-1.15-2.57-2.56-2.57z" fill="#b9c239"/></g></g><g><g><path d="m168.004 110.421h-15c1.32 0 2.39 1.07 2.39 2.38v30.4c0 1.31-1.07 2.38-2.39 2.38h15c1.32 0 2.39-1.07 2.39-2.38v-30.4c0-1.31-1.07-2.38-2.39-2.38z" fill="#b9c239"/></g></g><g><g><path d="m170.704 148.581h-15c1.41 0 2.56 1.15 2.56 2.57s-1.15 2.57-2.56 2.57h15c1.41 0 2.56-1.15 2.56-2.57s-1.15-2.57-2.56-2.57z" fill="#b9c239"/></g></g><g><g><path d="m168.004 156.721h-15c1.32 0 2.39 1.07 2.39 2.39v30.39c0 1.32-1.07 2.39-2.39 2.39h15c1.32 0 2.39-1.07 2.39-2.39v-30.39c0-1.32-1.07-2.39-2.39-2.39z" fill="#b9c239"/></g></g><g><g><path d="m170.704 194.891h-15c1.41 0 2.56 1.15 2.56 2.56 0 1.42-1.15 2.57-2.56 2.57h15c1.41 0 2.56-1.15 2.56-2.57 0-1.41-1.15-2.56-2.56-2.56z" fill="#b9c239"/></g></g><g><g><path d="m168.004 203.021h-15c1.32 0 2.39 1.07 2.39 2.39v30.39c0 1.32-1.07 2.39-2.39 2.39h15c1.32 0 2.39-1.07 2.39-2.39v-30.39c0-1.32-1.07-2.39-2.39-2.39z" fill="#b9c239"/></g></g><g><g><path d="m212.099 26.124c-.974 11.564-13.025 13.39-13.025 13.39 10.347.486 12.926 14.058 12.926 14.058.221-9.677 13.321-14.202 13.321-14.202-9.813-.587-13.222-13.246-13.222-13.246z" fill="#d7e057"/></g></g><g><g><path d="m225.411 37.873c-8.605-.515-11.832-12.024-11.863-12.141-.19-.702-.856-1.159-1.584-1.101-.725.066-1.298.642-1.359 1.367-.86 10.215-11.313 11.964-11.754 12.033-.763.115-1.314.79-1.273 1.561.04.77.657 1.384 1.428 1.421 9.027.425 11.498 12.718 11.521 12.842.138.711.76 1.217 1.473 1.217.042 0 .084-.001.126-.005.765-.064 1.357-.693 1.375-1.459.193-8.509 12.191-12.777 12.313-12.819.676-.235 1.092-.914.994-1.623-.099-.709-.683-1.25-1.397-1.293zm-13.566 10.345c-1.356-3.131-3.709-6.907-7.587-8.876 2.931-1.405 6.409-3.913 8.202-8.273 1.551 3.071 4.199 6.88 8.334 8.723-3.008 1.639-6.923 4.404-8.949 8.426z" fill="#3a312a"/></g></g><g><g><path d="m190.401 43.104c-.689 8.179-9.213 9.471-9.213 9.471 7.318.344 9.142 9.944 9.142 9.944.156-6.844 9.422-10.045 9.422-10.045-6.941-.416-9.351-9.37-9.351-9.37z" fill="#d7e057"/></g></g><g><g><path d="m199.843 50.976c-5.767-.345-7.973-8.186-7.995-8.265-.189-.702-.864-1.162-1.581-1.102-.726.065-1.3.642-1.361 1.368-.578 6.871-7.646 8.067-7.941 8.114-.763.115-1.313.79-1.273 1.561.04.77.657 1.384 1.428 1.421 6.035.284 7.723 8.644 7.738 8.726.136.713.759 1.22 1.473 1.22.041 0 .083-.001.124-.005.766-.064 1.359-.694 1.377-1.461.13-5.709 8.332-8.634 8.412-8.662.677-.234 1.094-.913.997-1.622-.099-.708-.684-1.25-1.398-1.293zm-9.585 6.795c-.924-1.886-2.34-3.947-4.447-5.28 1.855-1.041 3.697-2.63 4.87-4.916 1.058 1.874 2.655 3.954 4.941 5.224-1.849 1.1-3.988 2.74-5.364 4.972z" fill="#3a312a"/></g></g><g><g><path d="m190.401 16.447c-.689 8.179-9.213 9.471-9.213 9.471 7.318.344 9.142 9.944 9.142 9.944.156-6.845 9.422-10.045 9.422-10.045-6.941-.416-9.351-9.37-9.351-9.37z" fill="#d7e057"/></g></g><g><g><path d="m199.843 24.318c-5.767-.345-7.973-8.185-7.995-8.264-.189-.702-.864-1.161-1.581-1.102-.726.066-1.3.643-1.361 1.368-.578 6.871-7.646 8.067-7.941 8.114-.763.115-1.313.79-1.273 1.561.04.77.657 1.384 1.428 1.421 6.035.284 7.723 8.644 7.738 8.725.136.713.759 1.22 1.473 1.22.041 0 .083-.001.124-.005.766-.063 1.359-.694 1.377-1.461.13-5.709 8.332-8.634 8.413-8.662.676-.234 1.093-.913.996-1.622-.099-.708-.684-1.25-1.398-1.293zm-9.585 6.795c-.924-1.885-2.34-3.947-4.447-5.279 1.855-1.041 3.697-2.63 4.87-4.916 1.058 1.873 2.655 3.955 4.942 5.224-1.85 1.1-3.989 2.739-5.365 4.971z" fill="#3a312a"/></g></g><g><g><path clip-rule="evenodd" d="m111.005 16.309h-16.562c-2.146 0-3.886 1.74-3.886 3.886v30.395c0 2.146 1.74 3.886 3.886 3.886h16.563c2.146 0 3.886-1.74 3.886-3.886v-30.395c-.001-2.146-1.741-3.886-3.887-3.886z" fill="#d7e057" fill-rule="evenodd"/></g></g><g><g><path d="m111.005 14.809h-16.563c-2.97 0-5.386 2.416-5.386 5.386v5.18c0 .829.672 1.5 1.5 1.5s1.5-.671 1.5-1.5v-5.18c0-1.316 1.07-2.386 2.386-2.386h16.563c1.316 0 2.387 1.07 2.387 2.386v30.395c0 1.316-1.07 2.386-2.387 2.386h-16.563c-1.315 0-2.386-1.07-2.386-2.386v-10.508c0-.829-.672-1.5-1.5-1.5s-1.5.671-1.5 1.5v10.508c0 2.97 2.416 5.386 5.386 5.386h16.563c2.971 0 5.387-2.416 5.387-5.386v-30.395c0-2.97-2.416-5.386-5.387-5.386z" fill="#3a312a"/></g></g><g><g><path clip-rule="evenodd" d="m113.701 54.477h-21.954c-2.247 0-4.068 1.821-4.068 4.068s1.821 4.068 4.068 4.068h21.954c2.247 0 4.068-1.821 4.068-4.068s-1.821-4.068-4.068-4.068z" fill="#d7e057" fill-rule="evenodd"/></g></g><g><g><path d="m113.701 52.977h-21.954c-3.07 0-5.568 2.498-5.568 5.568s2.498 5.568 5.568 5.568h21.954c3.07 0 5.567-2.498 5.567-5.568.001-3.071-2.497-5.568-5.567-5.568zm0 8.136h-21.954c-1.416 0-2.568-1.152-2.568-2.568s1.152-2.568 2.568-2.568h21.954c1.416 0 2.567 1.152 2.567 2.568s-1.151 2.568-2.567 2.568z" fill="#3a312a"/></g></g><g><g><path clip-rule="evenodd" d="m111.005 62.613h-16.562c-2.146 0-3.886 1.74-3.886 3.886v30.395c0 2.146 1.74 3.886 3.886 3.886h16.563c2.146 0 3.886-1.74 3.886-3.886v-30.395c-.001-2.146-1.741-3.886-3.887-3.886z" fill="#d7e057" fill-rule="evenodd"/></g></g><g><g><path d="m111.005 61.113h-16.563c-2.97 0-5.386 2.416-5.386 5.386v30.395c0 2.97 2.416 5.387 5.386 5.387h16.563c2.971 0 5.387-2.417 5.387-5.387v-30.395c0-2.97-2.416-5.386-5.387-5.386zm2.387 35.781c0 1.316-1.07 2.387-2.387 2.387h-16.563c-1.315 0-2.386-1.071-2.386-2.387v-30.395c0-1.316 1.07-2.386 2.386-2.386h16.563c1.316 0 2.387 1.07 2.387 2.386z" fill="#3a312a"/></g></g><g><g><path clip-rule="evenodd" d="m113.701 100.78h-21.954c-2.247 0-4.068 1.821-4.068 4.068s1.821 4.068 4.068 4.068h21.954c2.247 0 4.068-1.821 4.068-4.068s-1.821-4.068-4.068-4.068z" fill="#d7e057" fill-rule="evenodd"/></g></g><g><g><path d="m113.701 99.28h-21.954c-3.07 0-5.568 2.497-5.568 5.568 0 3.07 2.498 5.568 5.568 5.568h21.954c3.07 0 5.567-2.497 5.567-5.568.001-3.07-2.497-5.568-5.567-5.568zm0 8.136h-21.954c-1.416 0-2.568-1.152-2.568-2.568s1.152-2.568 2.568-2.568h21.954c1.416 0 2.567 1.152 2.567 2.568.001 1.416-1.151 2.568-2.567 2.568z" fill="#3a312a"/></g></g><g><g><path clip-rule="evenodd" d="m111.005 108.916h-16.562c-2.146 0-3.886 1.74-3.886 3.886v30.395c0 2.146 1.74 3.886 3.886 3.886h16.563c2.146 0 3.886-1.74 3.886-3.886v-30.395c-.001-2.146-1.741-3.886-3.887-3.886z" fill="#d7e057" fill-rule="evenodd"/></g></g><g><g><path d="m111.005 107.416h-16.563c-2.97 0-5.386 2.416-5.386 5.386v30.395c0 2.97 2.416 5.387 5.386 5.387h16.563c2.971 0 5.387-2.417 5.387-5.387v-30.395c0-2.97-2.416-5.386-5.387-5.386zm2.387 35.781c0 1.316-1.07 2.387-2.387 2.387h-16.563c-1.315 0-2.386-1.071-2.386-2.387v-30.395c0-1.316 1.07-2.386 2.386-2.386h16.563c1.316 0 2.387 1.07 2.387 2.386z" fill="#3a312a"/></g></g><g><g><path clip-rule="evenodd" d="m113.701 147.084h-21.954c-2.247 0-4.068 1.821-4.068 4.068s1.821 4.068 4.068 4.068h21.954c2.247 0 4.068-1.821 4.068-4.068s-1.821-4.068-4.068-4.068z" fill="#d7e057" fill-rule="evenodd"/></g></g><g><g><path d="m113.701 145.584h-21.954c-3.07 0-5.568 2.497-5.568 5.568 0 3.07 2.498 5.568 5.568 5.568h21.954c3.07 0 5.567-2.497 5.567-5.568.001-3.071-2.497-5.568-5.567-5.568zm0 8.136h-21.954c-1.416 0-2.568-1.152-2.568-2.568s1.152-2.568 2.568-2.568h21.954c1.416 0 2.567 1.152 2.567 2.568.001 1.416-1.151 2.568-2.567 2.568z" fill="#3a312a"/></g></g><g><g><path clip-rule="evenodd" d="m111.005 155.219h-16.562c-2.146 0-3.886 1.74-3.886 3.886v30.395c0 2.146 1.74 3.886 3.886 3.886h16.563c2.146 0 3.886-1.74 3.886-3.886v-30.395c-.001-2.145-1.741-3.886-3.887-3.886z" fill="#d7e057" fill-rule="evenodd"/></g></g><g><g><path d="m111.005 153.72h-16.563c-2.97 0-5.386 2.416-5.386 5.386v30.395c0 2.97 2.416 5.386 5.386 5.386h16.563c2.971 0 5.387-2.416 5.387-5.386v-30.395c0-2.97-2.416-5.386-5.387-5.386zm2.387 35.781c0 1.316-1.07 2.386-2.387 2.386h-16.563c-1.315 0-2.386-1.07-2.386-2.386v-30.395c0-1.316 1.07-2.386 2.386-2.386h16.563c1.316 0 2.387 1.07 2.387 2.386z" fill="#3a312a"/></g></g><g><g><path clip-rule="evenodd" d="m113.701 193.387h-21.954c-2.247 0-4.068 1.821-4.068 4.068s1.821 4.068 4.068 4.068h21.954c2.247 0 4.068-1.821 4.068-4.068 0-2.246-1.821-4.068-4.068-4.068z" fill="#d7e057" fill-rule="evenodd"/></g></g><g><g><path d="m113.701 191.887h-21.954c-3.07 0-5.568 2.498-5.568 5.568s2.498 5.568 5.568 5.568h21.954c3.07 0 5.567-2.497 5.567-5.568.001-3.07-2.497-5.568-5.567-5.568zm0 8.136h-21.954c-1.416 0-2.568-1.152-2.568-2.568s1.152-2.568 2.568-2.568h21.954c1.416 0 2.567 1.152 2.567 2.568s-1.151 2.568-2.567 2.568z" fill="#3a312a"/></g></g><g><g><path clip-rule="evenodd" d="m111.005 201.523h-16.562c-2.146 0-3.886 1.74-3.886 3.886v30.395c0 2.146 1.74 3.886 3.886 3.886h16.563c2.146 0 3.886-1.74 3.886-3.886v-30.394c-.001-2.147-1.741-3.887-3.887-3.887z" fill="#d7e057" fill-rule="evenodd"/></g></g><g><g><path d="m111.005 200.023h-16.563c-2.97 0-5.386 2.417-5.386 5.387v30.395c0 2.97 2.416 5.386 5.386 5.386h16.563c2.971 0 5.387-2.416 5.387-5.386v-30.395c0-2.971-2.416-5.387-5.387-5.387zm2.387 35.782c0 1.316-1.07 2.386-2.387 2.386h-16.563c-1.315 0-2.386-1.07-2.386-2.386v-30.395c0-1.316 1.07-2.387 2.386-2.387h16.563c1.316 0 2.387 1.071 2.387 2.387z" fill="#3a312a"/></g></g><g><g><path clip-rule="evenodd" d="m54.005 62.613h-16.562c-2.146 0-3.886 1.74-3.886 3.886v30.395c0 2.146 1.74 3.886 3.886 3.886h16.563c2.146 0 3.886-1.74 3.886-3.886v-30.395c-.001-2.146-1.741-3.886-3.887-3.886z" fill="#d7e057" fill-rule="evenodd"/></g></g><g><g><path d="m54.005 61.113h-16.563c-2.97 0-5.386 2.416-5.386 5.386v5.18c0 .829.672 1.5 1.5 1.5s1.5-.671 1.5-1.5v-5.18c0-1.316 1.07-2.386 2.386-2.386h16.563c1.316 0 2.387 1.07 2.387 2.386v30.395c0 1.316-1.07 2.386-2.387 2.386h-16.563c-1.315 0-2.386-1.07-2.386-2.386v-10.509c0-.829-.672-1.5-1.5-1.5s-1.5.671-1.5 1.5v10.509c0 2.97 2.416 5.386 5.386 5.386h16.563c2.971 0 5.387-2.416 5.387-5.386v-30.395c0-2.97-2.416-5.386-5.387-5.386z" fill="#3a312a"/></g></g><g><g><path clip-rule="evenodd" d="m56.701 100.78h-21.954c-2.247 0-4.068 1.821-4.068 4.068s1.821 4.068 4.068 4.068h21.954c2.247 0 4.068-1.821 4.068-4.068 0-2.246-1.822-4.068-4.068-4.068z" fill="#d7e057" fill-rule="evenodd"/></g></g><g><g><path d="m56.701 99.28h-21.954c-3.07 0-5.568 2.497-5.568 5.568 0 3.07 2.498 5.568 5.568 5.568h21.954c3.07 0 5.567-2.497 5.567-5.568.001-3.07-2.497-5.568-5.567-5.568zm0 8.136h-21.954c-1.416 0-2.568-1.152-2.568-2.568s1.152-2.568 2.568-2.568h21.954c1.416 0 2.567 1.152 2.567 2.568.001 1.416-1.151 2.568-2.567 2.568z" fill="#3a312a"/></g></g><g><g><path clip-rule="evenodd" d="m54.005 108.916h-16.562c-2.146 0-3.886 1.74-3.886 3.886v30.395c0 2.146 1.74 3.886 3.886 3.886h16.563c2.146 0 3.886-1.74 3.886-3.886v-30.395c-.001-2.146-1.741-3.886-3.887-3.886z" fill="#d7e057" fill-rule="evenodd"/></g></g><g><g><path d="m54.005 107.416h-16.563c-2.97 0-5.386 2.417-5.386 5.387v30.395c0 2.97 2.416 5.387 5.386 5.387h16.563c2.971 0 5.387-2.417 5.387-5.387v-30.395c0-2.97-2.416-5.387-5.387-5.387zm2.387 35.781c0 1.316-1.07 2.387-2.387 2.387h-16.563c-1.315 0-2.386-1.071-2.386-2.387v-30.395c0-1.316 1.07-2.387 2.386-2.387h16.563c1.316 0 2.387 1.071 2.387 2.387z" fill="#3a312a"/></g></g><g><g><path clip-rule="evenodd" d="m56.701 147.084h-21.954c-2.247 0-4.068 1.821-4.068 4.068s1.821 4.068 4.068 4.068h21.954c2.247 0 4.068-1.821 4.068-4.068s-1.822-4.068-4.068-4.068z" fill="#d7e057" fill-rule="evenodd"/></g></g><g><g><path d="m56.701 145.584h-21.954c-3.07 0-5.568 2.497-5.568 5.568 0 3.07 2.498 5.568 5.568 5.568h21.954c3.07 0 5.567-2.497 5.567-5.568.001-3.071-2.497-5.568-5.567-5.568zm0 8.136h-21.954c-1.416 0-2.568-1.152-2.568-2.568s1.152-2.568 2.568-2.568h21.954c1.416 0 2.567 1.152 2.567 2.568.001 1.416-1.151 2.568-2.567 2.568z" fill="#3a312a"/></g></g><g><g><path clip-rule="evenodd" d="m54.005 155.22h-16.562c-2.146 0-3.886 1.74-3.886 3.886v30.395c0 2.146 1.74 3.886 3.886 3.886h16.563c2.146 0 3.886-1.74 3.886-3.886v-30.395c-.001-2.146-1.741-3.886-3.887-3.886z" fill="#d7e057" fill-rule="evenodd"/></g></g><g><g><path d="m54.005 153.72h-16.563c-2.97 0-5.386 2.416-5.386 5.386v30.395c0 2.97 2.416 5.386 5.386 5.386h16.563c2.971 0 5.387-2.416 5.387-5.386v-30.395c0-2.97-2.416-5.386-5.387-5.386zm2.387 35.781c0 1.316-1.07 2.386-2.387 2.386h-16.563c-1.315 0-2.386-1.07-2.386-2.386v-30.395c0-1.316 1.07-2.386 2.386-2.386h16.563c1.316 0 2.387 1.07 2.387 2.386z" fill="#3a312a"/></g></g><g><g><path clip-rule="evenodd" d="m56.701 193.387h-21.954c-2.247 0-4.068 1.821-4.068 4.068s1.821 4.068 4.068 4.068h21.954c2.247 0 4.068-1.821 4.068-4.068s-1.822-4.068-4.068-4.068z" fill="#d7e057" fill-rule="evenodd"/></g></g><g><g><path d="m56.701 191.887h-21.954c-3.07 0-5.568 2.498-5.568 5.568s2.498 5.567 5.568 5.567h21.954c3.07 0 5.567-2.497 5.567-5.567.001-3.07-2.497-5.568-5.567-5.568zm0 8.136h-21.954c-1.416 0-2.568-1.152-2.568-2.567 0-1.416 1.152-2.568 2.568-2.568h21.954c1.416 0 2.567 1.152 2.567 2.568.001 1.415-1.151 2.567-2.567 2.567z" fill="#3a312a"/></g></g><g><g><path clip-rule="evenodd" d="m54.005 201.523h-16.562c-2.146 0-3.886 1.74-3.886 3.886v30.395c0 2.146 1.74 3.886 3.886 3.886h16.563c2.146 0 3.886-1.74 3.886-3.886v-30.394c-.001-2.147-1.741-3.887-3.887-3.887z" fill="#d7e057" fill-rule="evenodd"/></g></g><g><g><path d="m54.005 200.023h-16.563c-2.97 0-5.386 2.417-5.386 5.387v30.395c0 2.97 2.416 5.386 5.386 5.386h16.563c2.971 0 5.387-2.416 5.387-5.386v-30.395c0-2.971-2.416-5.387-5.387-5.387zm2.387 35.782c0 1.316-1.07 2.386-2.387 2.386h-16.563c-1.315 0-2.386-1.07-2.386-2.386v-30.395c0-1.316 1.07-2.387 2.386-2.387h16.563c1.316 0 2.387 1.071 2.387 2.387z" fill="#3a312a"/></g></g></g></svg>