<?xml version="1.0" encoding="iso-8859-1"?>
<!-- Generator: Adobe Illustrator 19.0.0, SVG Export Plug-In . SVG Version: 6.00 Build 0)  -->
<svg version="1.1" id="Capa_1" xmlns="http://www.w3.org/2000/svg" xmlns:xlink="http://www.w3.org/1999/xlink" x="0px" y="0px"
	 viewBox="0 0 512.002 512.002" style="enable-background:new 0 0 512.002 512.002;" xml:space="preserve">
<circle style="fill:#35343F;" cx="256.001" cy="58.08" r="50.581"/>
<path style="fill:#484655;" d="M256.001,50.167c-75.111,0-136,63.997-136,142.941s60.889,101.225,136,101.225
	s136-22.281,136-101.225S331.112,50.167,256.001,50.167z"/>
<path style="fill:#F0EEEE;" d="M203.074,363.444h105.855c41.621,0,75.362,33.741,75.362,75.362V504.5H127.712v-65.694
	C127.712,397.184,161.453,363.444,203.074,363.444z"/>
<path style="fill:#5CDBF1;" d="M203.074,363.444h105.855c41.621,0,75.362,33.741,75.362,75.362V504.5H127.712v-65.694
	C127.712,397.184,161.453,363.444,203.074,363.444z"/>
<path style="fill:#37B7C4;" d="M308.928,363.444h-22.501c41.621,0,75.362,33.741,75.362,75.362V504.5h22.501v-65.695
	C384.29,397.184,350.55,363.444,308.928,363.444z"/>
<g>
	<path style="fill:#F0EEEE;" d="M253.815,407l-66.567-41.878c-8.679,1.855-16.8,5.207-24.089,9.769
		C146.995,484.69,247.68,438.538,253.815,407z"/>
	<path style="fill:#F0EEEE;" d="M258.188,407c6.135,31.538,106.82,77.69,90.656-32.109c-7.289-4.562-15.409-7.913-24.089-9.769
		L258.188,407z"/>
</g>
<g>
	<path style="fill:#FA9E3E;" d="M308.929,363.444h-10.831v-95.715h-84.192v95.715h-10.831c-9.465,0-18.514,1.761-26.859,4.947
		c6.102,30.55,39.495,53.91,79.787,53.91c40.291,0,73.685-23.36,79.787-53.91C327.442,365.205,318.393,363.444,308.929,363.444z"/>
	<path style="fill:#FA9E3E;" d="M125.84,223.99h49.369v56.61H125.84c-15.632,0-28.305-12.673-28.305-28.305
		S110.208,223.99,125.84,223.99z"/>
	<path style="fill:#FA9E3E;" d="M386.162,199.67h-49.369v56.61h49.369c15.632,0,28.305-12.673,28.305-28.305
		S401.795,199.67,386.162,199.67z"/>
</g>
<path style="fill:#FFB56B;" d="M368.111,198.48v32.2c0,30.96-12.55,58.98-32.83,79.27c-20.29,20.29-48.32,32.84-79.28,32.84
	c-0.97,0-1.93-0.01-2.89-0.04h-0.13c-0.92-0.02-1.84-0.06-2.75-0.11c-0.07,0-0.13,0-0.2-0.01c52.82-2.95,94.75-46.72,94.75-100.29
	v-77.69C346.261,182.5,354.271,194.76,368.111,198.48z"/>
<path style="fill:#49B6F2;" d="M388.935,280.337h-35.934V199.67h35.933c14.101,0,25.532,11.431,25.532,25.532v29.602
	C414.467,268.905,403.036,280.337,388.935,280.337z"/>
<path style="fill:#2E93CC;" d="M388.935,199.67h-22.466c14.101,0,25.532,11.431,25.532,25.532v29.602
	c0,14.101-11.431,25.532-25.532,25.532h22.466c14.101,0,25.533-11.431,25.533-25.532v-29.602
	C414.467,211.101,403.036,199.67,388.935,199.67z"/>
<path style="fill:#FFB56B;" d="M344.781,151.88c-0.34,4.52-0.33,8.79,0,12.77v77.69c0,53.57-41.93,97.34-94.75,100.29h-0.04
	c-59.13-3.12-106.1-52.06-106.1-111.95v-53.79c141.4,31.93,172.43-17.4,200.89-47.6c1.85-1.96,3.69-3.85,5.55-5.62
	C347.241,133.82,345.401,143.3,344.781,151.88z"/>
<path style="fill:#EF9245;" d="M368.111,198.48v32.2c0,30.96-12.55,58.98-32.83,79.27c-20.29,20.29-48.32,32.84-79.28,32.84
	c-0.97,0-1.93-0.01-2.89-0.04h-0.13c-0.92-0.02-1.84-0.06-2.75-0.11c-0.07,0-0.13,0-0.2-0.01c52.82-2.95,94.75-46.72,94.75-100.29
	v-77.69C346.261,182.5,354.271,194.76,368.111,198.48z"/>
<path style="fill:#5CDBF1;" d="M273.668,296.333h-16.667c-6.443,0-11.667,5.223-11.667,11.667l0,0
	c0,6.443,5.223,11.667,11.667,11.667h16.667c6.443,0,11.667-5.223,11.667-11.667l0,0
	C285.335,301.557,280.111,296.333,273.668,296.333z"/>
<path d="M399.497,193.901c0.001-0.264,0.005-0.523,0.005-0.792c0-30.597-8.709-60.044-25.186-85.159
	c-15.183-23.145-35.96-41.198-60.301-52.472C312.649,24.657,287.154,0,256.001,0c-31.151,0-56.645,24.654-58.014,55.474
	c-11.025,5.106-21.402,11.664-30.903,19.543c-3.189,2.644-3.63,7.372-0.986,10.561c2.645,3.189,7.373,3.629,10.561,0.986
	c9.672-8.021,20.347-14.51,31.73-19.29c15.15-6.372,31.169-9.603,47.612-9.603s32.462,3.231,47.611,9.603
	c23.562,9.911,43.674,26.823,58.161,48.906c14.699,22.406,22.534,48.664,22.711,75.991h-12.343
	c-0.633-0.404-1.327-0.729-2.082-0.932c-5.78-1.556-10.253-5.127-13.294-10.614c-6.544-11.812-6.274-31.773,0.739-54.765
	c0.995-3.262-0.336-6.784-3.238-8.573s-6.647-1.395-9.114,0.96c-4.179,3.989-8.151,8.373-12.358,13.015
	c-13.235,14.606-28.236,31.162-55.282,40.616c-32.163,11.243-75.33,10.49-131.969-2.302c-2.222-0.501-4.554,0.034-6.335,1.458
	c-1.78,1.423-2.817,3.579-2.817,5.858v39.6h-6.715c-1.437-7.214-2.175-15.046-2.175-23.38c0-31.404,10.432-62.015,29.374-86.195
	c2.555-3.261,1.982-7.975-1.279-10.529c-3.26-2.554-7.974-1.983-10.529,1.279c-21.001,26.807-32.566,60.703-32.566,95.445
	c0,8.875,0.748,17.303,2.228,25.156c-14.366,4.709-24.698,18.309-24.698,34.024c0,19.746,16.064,35.81,35.81,35.81h25.225
	c12.433,22.7,31.823,40.728,55.335,51.438v16.402h-3.33c-1.503,0-2.904,0.036-4.241,0.109c-0.919,0.044-1.839,0.11-2.793,0.19
	c-0.61,0.055-1.21,0.11-1.785,0.172c-0.719,0.076-1.437,0.163-2.146,0.26c-0.719,0.088-1.428,0.196-2.137,0.306
	c-0.036,0.005-0.072,0.011-0.108,0.018c-0.695,0.117-1.389,0.235-2.073,0.363c-0.009,0.002-0.019,0.004-0.028,0.005
	c-0.051,0.009-0.101,0.019-0.152,0.029c-0.193,0.037-0.383,0.075-0.574,0.113c-0.117,0.023-0.234,0.046-0.35,0.069
	c-0.336,0.068-0.667,0.138-0.986,0.208c-0.084,0.018-0.166,0.036-0.242,0.055c-1.051,0.226-2.139,0.484-3.295,0.787
	c-0.014,0.003-0.028,0.008-0.041,0.011l-0.297,0.081c-0.004,0.001-0.007,0.003-0.011,0.003c-0.655,0.171-1.307,0.351-1.956,0.54
	h-0.001c-0.001,0-0.002,0.001-0.003,0.001l0,0c-0.003,0.001-0.006,0.002-0.01,0.003c-0.289,0.084-0.58,0.174-0.871,0.263
	c-0.095,0.029-0.182,0.056-0.285,0.087l-0.008,0.003c-0.002,0.001-0.004,0.001-0.006,0.002c-0.018,0.005-0.035,0.011-0.052,0.016
	l-0.182,0.056c-0.512,0.157-1.023,0.315-1.571,0.498c-0.986,0.335-2.155,0.74-3.357,1.205c-0.099,0.039-0.197,0.079-0.294,0.121
	c-0.948,0.368-1.889,0.756-2.823,1.159c-0.625,0.269-1.242,0.553-1.861,0.837c-0.364,0.168-0.728,0.337-1.09,0.51
	c-2.843,1.356-5.614,2.853-8.266,4.515c-0.193,0.121-0.375,0.255-0.555,0.392c-8.402,5.358-15.869,12.209-21.871,20.206
	c-10.821,14.42-16.541,31.598-16.541,49.677v65.69c0,4.142,3.358,7.5,7.5,7.5h256.58c4.143,0,7.5-3.358,7.5-7.5v-65.69
	c0-18.079-5.72-35.257-16.541-49.677c-6.001-7.997-13.466-14.846-21.867-20.204c-0.181-0.138-0.364-0.272-0.558-0.394
	c-2.651-1.662-5.421-3.158-8.262-4.513c-0.364-0.174-0.73-0.344-1.096-0.513c-0.616-0.283-1.23-0.566-1.853-0.834
	c-0.934-0.403-1.875-0.791-2.823-1.159c-0.098-0.043-0.196-0.083-0.296-0.122c-0.009-0.003-0.017-0.006-0.026-0.009l0,0
	c0,0,0,0-0.001,0c-1.192-0.459-2.354-0.862-3.371-1.208c-0.52-0.173-1.043-0.335-1.567-0.496l-0.202-0.062l0,0l-0.038-0.011
	c-0.008-0.003-0.017-0.005-0.024-0.008c-0.03-0.009-0.061-0.018-0.091-0.028c-1.116-0.341-2.223-0.663-3.292-0.937
	c-1.287-0.337-2.459-0.616-3.525-0.841c-0.002,0-0.004-0.001-0.006-0.001c-0.005-0.001-0.009-0.002-0.014-0.003
	c-0.633-0.138-1.266-0.268-1.898-0.388c-0.074-0.015-0.149-0.029-0.224-0.043c-0.001,0-0.001,0-0.002,0h-0.001
	c-0.002,0-0.004-0.001-0.006-0.001c-0.001,0-0.002,0-0.002,0c-0.682-0.128-1.372-0.245-2.064-0.362
	c-0.035-0.006-0.071-0.012-0.106-0.018c-0.708-0.109-1.417-0.217-2.136-0.305c-0.709-0.098-1.428-0.185-2.122-0.258
	c-0.6-0.065-1.199-0.121-1.846-0.178c-0.919-0.077-1.839-0.143-2.714-0.186c-1.381-0.075-2.782-0.111-4.285-0.111h-3.33v-16.397
	c0.494-0.225,0.997-0.446,1.482-0.675c3.743-1.773,5.341-6.246,3.566-9.989c-1.773-3.743-6.245-5.34-9.988-3.566
	c-1.732,0.82-3.54,1.613-5.377,2.357c-12.474,5.057-25.69,7.621-39.282,7.621c-1.7,0-3.394-0.04-5.081-0.12
	c-0.92-0.044-1.838-0.102-2.755-0.169c-10.001-0.736-19.751-2.885-29.1-6.421c-0.784-0.297-1.564-0.603-2.342-0.918h-0.001
	c-0.002-0.001-0.004-0.001-0.006-0.002c-23.681-9.594-43.005-27.493-54.413-50.404c-0.02-0.041-0.039-0.082-0.059-0.123
	c-0.493-0.991-0.969-1.994-1.431-3.005c-0.12-0.262-0.233-0.525-0.351-0.787c-0.393-0.879-0.777-1.762-1.146-2.652
	c-0.065-0.158-0.13-0.316-0.195-0.474c-0.914-2.241-1.755-4.515-2.509-6.814c-2.586-7.836-4.218-15.956-4.881-24.232
	c-0.011-0.137-0.019-0.273-0.029-0.41c-0.085-1.119-0.149-2.242-0.199-3.366c-0.013-0.3-0.028-0.599-0.038-0.9
	c-0.045-1.268-0.075-2.538-0.075-3.812v-6.69v-37.797c28.853,6.006,53.08,8.556,73.636,8.555
	c63.681-0.004,92.018-24.488,112.55-46.496c-1.603,15.833,0.423,29.452,6.068,39.641c4.019,7.253,9.818,12.654,16.966,15.858v26.929
	c0,1.018-0.014,2.033-0.043,3.045c-0.426,15.183-4.04,29.73-10.762,43.293c-4.194,8.49-9.554,16.372-15.926,23.482h-42.577
	c-2.925-6.851-9.727-11.666-17.635-11.666h-16.666c-10.568,0-19.167,8.598-19.167,19.166c0,10.568,8.598,19.167,19.167,19.167
	h16.667c7.908,0,14.71-4.815,17.635-11.667h67.099c16.49,0,30.216-12.019,32.903-27.755c17.113-1.223,30.665-15.526,30.665-32.945
	v-29.6C421.971,210.758,412.682,198.323,399.497,193.901z M251.196,42.762c-0.364,0.012-0.727,0.025-1.091,0.04
	c-1.57,0.066-3.138,0.153-4.7,0.272c-0.212,0.016-0.423,0.038-0.635,0.055c-1.42,0.115-2.836,0.254-4.249,0.412
	c-0.329,0.037-0.659,0.071-0.988,0.111c-1.542,0.184-3.079,0.394-4.612,0.63c-0.305,0.047-0.608,0.1-0.912,0.149
	c-1.38,0.222-2.755,0.465-4.127,0.729c-0.253,0.049-0.506,0.093-0.759,0.143c-1.523,0.303-3.041,0.635-4.554,0.99
	c-0.345,0.081-0.689,0.166-1.033,0.249c-1.451,0.352-2.898,0.723-4.338,1.123c-0.103,0.029-0.207,0.054-0.311,0.083
	c-1.517,0.425-3.025,0.885-4.529,1.363c-0.177,0.056-0.356,0.103-0.533,0.16C217.902,29.728,235.264,15,256.001,15
	s38.1,14.728,42.176,34.273c-0.183-0.059-0.367-0.108-0.55-0.166c-1.495-0.475-2.993-0.932-4.5-1.354
	c-0.12-0.034-0.241-0.064-0.362-0.097c-1.424-0.395-2.854-0.761-4.288-1.11c-0.35-0.085-0.7-0.171-1.051-0.253
	c-1.508-0.354-3.021-0.685-4.541-0.987c-0.259-0.051-0.518-0.097-0.777-0.147c-1.365-0.263-2.735-0.505-4.108-0.726
	c-0.307-0.049-0.613-0.103-0.92-0.15c-1.531-0.236-3.067-0.445-4.608-0.63c-0.33-0.039-0.661-0.074-0.992-0.111
	c-1.412-0.159-2.827-0.298-4.246-0.412c-0.212-0.017-0.424-0.039-0.636-0.055c-1.562-0.119-3.128-0.206-4.698-0.272
	c-0.365-0.015-0.729-0.028-1.094-0.041c-1.598-0.055-3.198-0.092-4.804-0.092C254.395,42.67,252.795,42.708,251.196,42.762z
	 M284.031,426.141c1.369-0.368,2.725-0.76,4.067-1.181c0.253-0.079,0.501-0.167,0.752-0.248c1.119-0.361,2.227-0.742,3.325-1.14
	c0.37-0.134,0.738-0.269,1.106-0.407c1.228-0.462,2.446-0.942,3.646-1.45c0.089-0.038,0.18-0.072,0.269-0.11
	c1.283-0.547,2.544-1.129,3.793-1.728c0.335-0.161,0.666-0.327,0.998-0.491c0.996-0.493,1.982-1.003,2.955-1.529
	c0.275-0.149,0.554-0.293,0.828-0.444c1.196-0.662,2.374-1.348,3.533-2.061c0.245-0.151,0.484-0.309,0.727-0.461
	c0.94-0.59,1.867-1.197,2.781-1.821c0.312-0.212,0.623-0.424,0.932-0.641c1.115-0.782,2.218-1.579,3.291-2.41
	c0.801-0.62,1.582-1.253,2.351-1.893c0.237-0.198,0.468-0.399,0.702-0.598c0.534-0.454,1.061-0.913,1.578-1.377
	c0.254-0.228,0.505-0.457,0.755-0.687c0.508-0.468,1.007-0.941,1.499-1.418c0.217-0.21,0.436-0.419,0.65-0.631
	c0.658-0.653,1.303-1.313,1.93-1.982c0.03-0.032,0.062-0.064,0.092-0.096c0.659-0.706,1.297-1.423,1.921-2.147
	c0.181-0.209,0.354-0.422,0.532-0.632c0.439-0.521,0.871-1.046,1.293-1.575c0.2-0.252,0.398-0.505,0.594-0.759
	c0.402-0.519,0.793-1.043,1.177-1.57c0.174-0.238,0.35-0.475,0.52-0.715c0.049-0.069,0.101-0.136,0.149-0.205
	c0.027-0.039,0.057-0.077,0.084-0.116c0.4-0.571,0.786-1.149,1.166-1.728c0.055-0.084,0.114-0.166,0.169-0.25
	c0.008-0.013,0.018-0.026,0.026-0.039c0.329-0.508,0.643-1.022,0.957-1.536c0.106-0.174,0.219-0.345,0.324-0.52
	c0.05-0.085,0.097-0.171,0.147-0.256c0.135-0.228,0.262-0.459,0.394-0.689c0.088-0.153,0.176-0.306,0.263-0.459
	c0.129-0.228,0.265-0.454,0.391-0.684c0.104-0.191,0.2-0.384,0.302-0.576c0.149-0.279,0.295-0.559,0.44-0.84
	c0.122-0.236,0.251-0.469,0.37-0.706c0.16-0.32,0.308-0.646,0.463-0.968c0.129-0.268,0.26-0.535,0.384-0.805
	c0.059-0.126,0.122-0.251,0.18-0.378c0.162-0.357,0.311-0.719,0.466-1.079c0.096-0.222,0.194-0.442,0.287-0.665
	c0.051-0.121,0.107-0.241,0.156-0.362c0.01-0.026,0.022-0.051,0.033-0.077c0.128-0.313,0.243-0.63,0.365-0.944
	c0.163-0.417,0.331-0.831,0.484-1.251c0.427,0.226,0.852,0.457,1.273,0.692c4.736,36.94-5.16,50.082-14.474,54.564
	c-10.047,4.837-28.289,2.305-43.741-7.823C283.806,426.209,283.917,426.172,284.031,426.141z M228.312,426.24
	c-15.453,10.128-33.694,12.659-43.742,7.823c-9.313-4.483-19.209-17.624-14.474-54.564c0.422-0.235,0.847-0.466,1.274-0.692
	c0.103,0.282,0.218,0.56,0.325,0.84c0.173,0.453,0.342,0.908,0.526,1.358c0.01,0.024,0.02,0.047,0.03,0.071
	c0.052,0.127,0.111,0.253,0.164,0.38c0.06,0.143,0.123,0.284,0.184,0.426c0.186,0.435,0.367,0.872,0.563,1.304
	c0.057,0.126,0.12,0.249,0.178,0.374c0.125,0.27,0.256,0.538,0.385,0.806c0.155,0.323,0.302,0.649,0.463,0.97
	c0.119,0.237,0.248,0.47,0.37,0.706c0.145,0.281,0.291,0.56,0.44,0.839c0.102,0.191,0.197,0.384,0.301,0.574
	c0.179,0.326,0.371,0.647,0.555,0.97c0.033,0.057,0.065,0.114,0.098,0.171c0.133,0.231,0.261,0.464,0.397,0.694
	c0.049,0.083,0.094,0.167,0.144,0.25c0.21,0.352,0.434,0.698,0.652,1.047c0.209,0.335,0.411,0.674,0.627,1.006
	c0.011,0.017,0.022,0.033,0.033,0.049c0.05,0.076,0.103,0.151,0.153,0.227c0.172,0.262,0.352,0.522,0.528,0.782
	c0.216,0.32,0.425,0.642,0.647,0.959c0.078,0.111,0.161,0.219,0.24,0.33c0.171,0.241,0.349,0.479,0.523,0.719
	c0.016,0.022,0.032,0.044,0.048,0.066c0.211,0.289,0.415,0.58,0.631,0.867c0.16,0.213,0.331,0.421,0.494,0.632
	c0.197,0.255,0.396,0.509,0.597,0.762c0.146,0.183,0.284,0.369,0.432,0.551c0.277,0.341,0.567,0.675,0.851,1.013
	c0.181,0.215,0.358,0.431,0.541,0.644c0.072,0.083,0.139,0.168,0.211,0.251c0.37,0.425,0.755,0.843,1.137,1.262
	c0.183,0.201,0.359,0.405,0.545,0.605c0.009,0.009,0.018,0.018,0.027,0.028c0.025,0.027,0.052,0.053,0.077,0.08
	c0.358,0.382,0.727,0.759,1.095,1.136c0.189,0.194,0.371,0.391,0.563,0.584c0.093,0.093,0.191,0.183,0.284,0.276
	c0.215,0.213,0.436,0.423,0.654,0.635c0.115,0.111,0.228,0.223,0.344,0.333c0.187,0.179,0.368,0.363,0.557,0.541
	c0.194,0.182,0.397,0.359,0.593,0.539c0.251,0.231,0.504,0.461,0.759,0.689c0.156,0.14,0.307,0.283,0.465,0.423
	c0.034,0.03,0.066,0.061,0.1,0.09c0.33,0.29,0.673,0.574,1.009,0.86c0.235,0.2,0.467,0.402,0.705,0.601
	c0.095,0.079,0.185,0.16,0.281,0.239c0.677,0.559,1.367,1.11,2.069,1.653c1.073,0.831,2.175,1.628,3.29,2.409
	c0.309,0.217,0.622,0.429,0.934,0.642c0.913,0.622,1.839,1.229,2.778,1.818c0.244,0.153,0.484,0.312,0.73,0.463
	c1.158,0.712,2.335,1.397,3.53,2.059c0.276,0.153,0.557,0.298,0.835,0.448c0.971,0.525,1.953,1.032,2.946,1.524
	c0.335,0.166,0.668,0.333,1.005,0.495c1.247,0.599,2.506,1.179,3.787,1.725c0.095,0.04,0.192,0.077,0.288,0.117
	c1.195,0.506,2.406,0.983,3.628,1.443c0.369,0.139,0.741,0.274,1.112,0.409c1.095,0.397,2.2,0.776,3.315,1.136
	c0.255,0.082,0.507,0.171,0.763,0.251c1.34,0.421,2.694,0.812,4.061,1.18C228.084,426.171,228.196,426.209,228.312,426.24z
	 M376.791,438.81V497h-241.58v-58.19c0-18.072,6.995-34.712,18.816-47.015c-1.335,35.354,11.799,49.893,24.038,55.784
	c5.715,2.751,12.059,3.977,18.63,3.977c18.29,0,38.33-9.499,51.415-22.044c2.618,0.186,5.259,0.288,7.891,0.288
	c2.632,0,5.272-0.101,7.891-0.288c13.084,12.546,33.123,22.044,51.415,22.044c6.569,0,12.917-1.227,18.631-3.977
	c12.238-5.891,25.373-20.431,24.038-55.784C369.796,404.098,376.791,420.739,376.791,438.81z M259.94,350.219
	c0.315-0.01,0.63-0.021,0.945-0.034c1.301-0.052,2.6-0.118,3.894-0.212c0.085-0.006,0.17-0.015,0.255-0.021
	c1.227-0.091,2.449-0.206,3.669-0.334c0.305-0.032,0.61-0.064,0.915-0.099c1.281-0.145,2.56-0.305,3.834-0.491
	c0.142-0.021,0.283-0.045,0.425-0.067c1.166-0.174,2.328-0.369,3.487-0.578c0.288-0.052,0.577-0.103,0.865-0.157
	c1.261-0.237,2.519-0.491,3.772-0.769c0.183-0.041,0.366-0.086,0.549-0.127c1.118-0.253,2.231-0.525,3.342-0.811
	c0.273-0.07,0.546-0.139,0.818-0.211c1.237-0.328,2.47-0.674,3.698-1.043c0.064-0.019,0.129-0.035,0.194-0.055v18.227
	c0,4.142,3.357,7.5,7.5,7.5h10.83c1.229,0,2.366,0.029,3.518,0.091c0.741,0.036,1.482,0.09,2.188,0.15
	c0.51,0.045,1.01,0.09,1.535,0.148c0.58,0.061,1.16,0.131,1.731,0.211c0.041,0.006,0.083,0.011,0.124,0.016
	c0.561,0.068,1.115,0.154,1.668,0.239c0.588,0.099,1.175,0.199,1.752,0.307c0.094,0.018,0.189,0.037,0.283,0.055
	c0.54,0.106,1.076,0.223,1.612,0.34l0.182,0.039c0.003,0.001,0.006,0.001,0.009,0.002s0.006,0.002,0.008,0.002
	c0.003,0,0.008,0.001,0.01,0.002c0.754,0.165,1.503,0.346,2.247,0.537c0.002,0,0.003,0.001,0.005,0.001
	c0.015,0.004,0.03,0.008,0.046,0.012l0.489,0.125c0.001,0,0.003,0.001,0.004,0.001c0.102,0.027,0.203,0.057,0.306,0.084
	c-0.003,0.009-0.007,0.019-0.01,0.029c-0.091,0.251-0.187,0.5-0.282,0.749c-0.031,0.081-0.062,0.162-0.094,0.243
	c-0.145,0.374-0.291,0.748-0.446,1.119c-0.089,0.215-0.183,0.428-0.275,0.641c-0.053,0.123-0.107,0.245-0.161,0.368
	c-0.159,0.359-0.322,0.717-0.491,1.073c-0.084,0.178-0.171,0.355-0.257,0.532c-0.075,0.154-0.151,0.309-0.228,0.463
	c-0.178,0.355-0.361,0.708-0.548,1.059c-0.073,0.137-0.147,0.274-0.222,0.411c-0.101,0.185-0.201,0.369-0.304,0.553
	c-0.201,0.357-0.407,0.712-0.617,1.066c-0.056,0.094-0.112,0.188-0.169,0.283c-0.126,0.21-0.251,0.42-0.381,0.629
	c-0.231,0.371-0.47,0.739-0.711,1.106c-0.029,0.044-0.057,0.088-0.086,0.132c-0.154,0.232-0.305,0.465-0.463,0.696
	c-0.272,0.398-0.554,0.791-0.839,1.184c-0.17,0.235-0.337,0.472-0.512,0.706c-0.32,0.428-0.653,0.85-0.987,1.271
	c-0.151,0.19-0.297,0.383-0.451,0.572c-0.441,0.541-0.896,1.076-1.36,1.604c-0.034,0.039-0.066,0.079-0.1,0.118
	c-0.156,0.177-0.32,0.35-0.479,0.525c-0.371,0.41-0.743,0.82-1.128,1.222c-0.204,0.213-0.415,0.422-0.623,0.633
	c-0.355,0.361-0.712,0.722-1.078,1.076c-0.23,0.223-0.466,0.441-0.7,0.661c-0.356,0.335-0.715,0.668-1.081,0.997
	c-0.238,0.213-0.48,0.424-0.722,0.634c-0.016,0.014-0.033,0.028-0.049,0.043c-0.36,0.313-0.722,0.623-1.091,0.93
	c-0.219,0.182-0.441,0.362-0.664,0.542c-0.058,0.047-0.116,0.094-0.174,0.141c-0.365,0.294-0.734,0.585-1.108,0.873
	c-0.195,0.15-0.391,0.299-0.588,0.448c-0.096,0.072-0.19,0.145-0.287,0.217c-0.38,0.284-0.765,0.563-1.153,0.84
	c-0.164,0.117-0.328,0.234-0.493,0.35c-0.135,0.095-0.268,0.19-0.404,0.284c-0.401,0.277-0.808,0.55-1.217,0.821
	c-0.123,0.081-0.245,0.162-0.368,0.243c-0.176,0.115-0.35,0.232-0.528,0.346c-0.438,0.281-0.883,0.555-1.33,0.828
	c-0.066,0.04-0.131,0.081-0.197,0.121c-0.217,0.132-0.431,0.266-0.649,0.395c-0.504,0.299-1.017,0.591-1.531,0.88
	c-0.236,0.133-0.469,0.269-0.707,0.4c-0.618,0.339-1.246,0.669-1.878,0.993c-0.142,0.073-0.28,0.15-0.423,0.222
	c-0.766,0.388-1.543,0.765-2.329,1.131c-0.226,0.105-0.457,0.204-0.685,0.308c-0.576,0.262-1.152,0.522-1.737,0.772
	c-0.296,0.127-0.597,0.246-0.896,0.37c-0.526,0.217-1.053,0.434-1.587,0.641c-0.327,0.127-0.659,0.249-0.988,0.373
	c-0.514,0.193-1.029,0.383-1.549,0.567c-0.323,0.114-0.648,0.223-0.974,0.333c-0.027,0.009-0.055,0.019-0.082,0.028
	c-0.509,0.172-1.019,0.341-1.534,0.504c-0.288,0.091-0.578,0.179-0.867,0.268c-0.08,0.025-0.16,0.05-0.241,0.074
	c-0.509,0.154-1.021,0.304-1.536,0.449c-0.252,0.071-0.506,0.141-0.759,0.21c-0.126,0.034-0.25,0.07-0.376,0.104
	c-0.519,0.139-1.041,0.272-1.566,0.402c-0.212,0.053-0.425,0.104-0.638,0.156c-0.168,0.04-0.334,0.083-0.503,0.122
	c-0.536,0.126-1.076,0.244-1.618,0.36c-0.164,0.035-0.327,0.07-0.491,0.105c-0.213,0.044-0.425,0.092-0.639,0.135
	c-0.564,0.114-1.133,0.218-1.702,0.321c-0.125,0.023-0.251,0.046-0.376,0.068c-0.234,0.042-0.467,0.087-0.702,0.127
	c-0.632,0.107-1.27,0.202-1.907,0.296c-0.06,0.009-0.12,0.018-0.18,0.027c-0.243,0.035-0.484,0.076-0.729,0.11
	c-0.94,0.129-1.886,0.246-2.838,0.346c-0.003,0-0.006,0.001-0.009,0.001c-6.552,0.689-13.383,0.688-19.93,0
	c-0.955-0.101-1.903-0.218-2.846-0.347c-0.276-0.038-0.549-0.084-0.825-0.124c-0.037-0.006-0.074-0.011-0.111-0.017
	c-0.627-0.093-1.254-0.186-1.876-0.291c-0.265-0.045-0.526-0.096-0.79-0.143c-0.108-0.019-0.215-0.039-0.322-0.059
	c-0.557-0.101-1.113-0.203-1.665-0.314c-0.217-0.044-0.432-0.092-0.648-0.137c-0.174-0.036-0.348-0.074-0.522-0.111
	c-0.526-0.113-1.051-0.228-1.572-0.35c-0.163-0.038-0.324-0.079-0.487-0.118c-0.233-0.056-0.465-0.113-0.698-0.17
	c-0.509-0.127-1.016-0.256-1.52-0.391c-0.11-0.029-0.219-0.061-0.328-0.09c-0.284-0.077-0.568-0.155-0.851-0.235
	c-0.497-0.141-0.992-0.286-1.485-0.434c-0.057-0.017-0.114-0.035-0.171-0.052c-0.331-0.101-0.662-0.202-0.99-0.306
	c-0.493-0.157-0.983-0.319-1.472-0.484c-0.373-0.126-0.746-0.252-1.116-0.382c-0.493-0.174-0.982-0.355-1.469-0.538
	c-0.356-0.133-0.713-0.264-1.066-0.402c-0.5-0.195-0.994-0.398-1.487-0.601c-0.331-0.136-0.665-0.27-0.993-0.41
	c-0.533-0.228-1.058-0.465-1.583-0.703c-0.279-0.126-0.562-0.248-0.839-0.377c-0.731-0.341-1.453-0.693-2.168-1.053
	c-0.045-0.023-0.091-0.044-0.136-0.066c-0.177-0.09-0.35-0.185-0.526-0.276c-0.594-0.306-1.184-0.615-1.766-0.934
	c-0.23-0.126-0.454-0.257-0.681-0.385c-0.05-0.028-0.1-0.057-0.15-0.085c-0.473-0.267-0.945-0.534-1.409-0.81
	c-0.186-0.111-0.369-0.225-0.554-0.337c-0.13-0.079-0.258-0.158-0.388-0.238c-0.414-0.254-0.827-0.508-1.234-0.768
	c-0.15-0.096-0.296-0.195-0.445-0.291c-0.175-0.114-0.348-0.229-0.522-0.344c-0.384-0.255-0.767-0.511-1.145-0.772
	c-0.11-0.076-0.218-0.154-0.327-0.23c-0.212-0.148-0.422-0.297-0.631-0.447c-0.366-0.262-0.73-0.526-1.089-0.794
	c-0.073-0.054-0.145-0.11-0.218-0.165c-0.238-0.179-0.474-0.358-0.709-0.54c-0.355-0.274-0.706-0.551-1.054-0.831
	c-0.04-0.032-0.079-0.064-0.118-0.096c-0.257-0.207-0.513-0.415-0.765-0.625c-0.351-0.293-0.697-0.589-1.041-0.887
	c-0.274-0.238-0.549-0.477-0.818-0.718c-0.342-0.307-0.676-0.618-1.009-0.931c-0.257-0.241-0.516-0.481-0.768-0.725
	c-0.339-0.328-0.669-0.663-0.998-0.997c-0.233-0.236-0.469-0.47-0.697-0.708c-0.351-0.368-0.691-0.743-1.03-1.117
	c-0.189-0.208-0.384-0.414-0.569-0.624c-0.05-0.057-0.097-0.115-0.147-0.172c-0.405-0.463-0.802-0.93-1.189-1.403
	c-0.038-0.047-0.079-0.092-0.118-0.139c-0.163-0.2-0.317-0.404-0.477-0.605c-0.323-0.408-0.645-0.816-0.956-1.23
	c-0.176-0.236-0.345-0.475-0.517-0.713c-0.008-0.011-0.016-0.023-0.024-0.034c-0.274-0.379-0.547-0.759-0.809-1.143
	c-0.148-0.217-0.291-0.437-0.436-0.655c-0.051-0.077-0.101-0.153-0.151-0.23c-0.228-0.348-0.454-0.696-0.673-1.047
	c-0.122-0.195-0.239-0.393-0.357-0.59c-0.073-0.121-0.145-0.242-0.217-0.364c-0.202-0.341-0.401-0.682-0.594-1.026
	c-0.096-0.172-0.19-0.345-0.284-0.517c-0.086-0.157-0.171-0.315-0.255-0.473c-0.182-0.342-0.36-0.685-0.533-1.031
	c-0.074-0.147-0.146-0.294-0.217-0.441c-0.094-0.192-0.188-0.383-0.279-0.576c-0.165-0.349-0.325-0.701-0.482-1.053
	c-0.051-0.116-0.102-0.231-0.152-0.347c-0.098-0.225-0.196-0.45-0.291-0.676c-0.153-0.367-0.298-0.737-0.441-1.107
	c-0.029-0.074-0.058-0.149-0.086-0.223c-0.098-0.259-0.199-0.517-0.292-0.777c-0.003-0.008-0.005-0.015-0.008-0.023
	c0.102-0.027,0.203-0.057,0.306-0.084c0.001,0,0.001,0,0.002-0.001l0.499-0.127c0.013-0.003,0.025-0.006,0.038-0.01
	c0.002,0,0.003-0.001,0.005-0.001c0.745-0.19,1.493-0.371,2.248-0.537c0.002,0,0.005-0.001,0.007-0.002h0.001h0.001
	c0.002,0,0.004-0.001,0.005-0.001s0.003-0.001,0.004-0.001l0.191-0.042c0.448-0.098,0.896-0.193,1.346-0.284
	c0.182-0.036,0.364-0.077,0.546-0.111c0.579-0.109,1.166-0.208,1.753-0.307c0.553-0.085,1.106-0.171,1.667-0.239
	c0.041-0.005,0.082-0.01,0.123-0.016c0.572-0.079,1.152-0.15,1.758-0.214c0.5-0.055,1.001-0.1,1.475-0.142
	c0.741-0.063,1.481-0.117,2.266-0.154c1.108-0.06,2.245-0.089,3.475-0.089h10.83c4.142,0,7.5-3.358,7.5-7.5v-18.231
	c0.065,0.02,0.131,0.036,0.196,0.055c1.224,0.368,2.453,0.714,3.687,1.041c0.277,0.074,0.554,0.143,0.831,0.215
	c1.105,0.285,2.214,0.555,3.327,0.808c0.186,0.042,0.37,0.088,0.556,0.129c1.25,0.277,2.505,0.531,3.764,0.768
	c0.292,0.055,0.585,0.107,0.877,0.159c1.155,0.208,2.314,0.402,3.476,0.576c0.144,0.022,0.287,0.047,0.431,0.068
	c1.273,0.186,2.551,0.346,3.833,0.491c0.304,0.034,0.609,0.066,0.914,0.099c1.222,0.129,2.446,0.243,3.674,0.335
	c0.084,0.006,0.168,0.015,0.252,0.021c1.294,0.093,2.594,0.16,3.895,0.212c0.316,0.013,0.632,0.024,0.948,0.034
	c1.31,0.042,2.622,0.071,3.939,0.071C257.318,350.29,258.63,350.261,259.94,350.219z M105.031,252.29
	c0-10.836,8.45-19.941,19.332-20.737c0.482-0.042,0.979-0.063,1.478-0.063h10.553c0.002,0.24,0.016,0.478,0.018,0.718
	c0.014,1.129,0.043,2.254,0.087,3.377c0.014,0.346,0.027,0.692,0.044,1.038c0.607,12.604,3.15,24.815,7.591,36.478h-18.293
	C114.366,273.1,105.031,263.765,105.031,252.29z M273.668,312.167h-16.667c-2.297,0-4.167-1.869-4.167-4.167
	c0-2.297,1.869-4.166,4.167-4.166h16.667c2.297,0,4.166,1.869,4.166,4.166C277.834,310.297,275.965,312.167,273.668,312.167z
	 M358.403,300.5h-5.302c2.922-4.057,5.596-8.278,7.981-12.66h14.783C373.45,295.181,366.541,300.5,358.403,300.5z M406.971,254.8
	c0,9.947-8.093,18.04-18.04,18.04h-20.957c0.15-0.396,0.29-0.794,0.435-1.191c0.113-0.309,0.228-0.617,0.338-0.926
	c0.335-0.938,0.66-1.88,0.97-2.825c0.012-0.038,0.026-0.075,0.039-0.113c0.321-0.98,0.625-1.965,0.919-2.952
	c0.092-0.309,0.179-0.618,0.268-0.928c0.203-0.7,0.4-1.401,0.589-2.105c0.092-0.341,0.183-0.682,0.271-1.024
	c0.19-0.733,0.372-1.469,0.548-2.206c0.066-0.278,0.136-0.554,0.201-0.832c0.232-1.003,0.452-2.009,0.658-3.019
	c0.039-0.19,0.073-0.381,0.11-0.572c0.164-0.828,0.321-1.658,0.468-2.491c0.059-0.336,0.115-0.673,0.171-1.01
	c0.119-0.714,0.232-1.428,0.339-2.145c0.05-0.339,0.102-0.679,0.149-1.019c0.116-0.831,0.222-1.664,0.321-2.499
	c0.024-0.202,0.052-0.404,0.075-0.607c0.117-1.031,0.218-2.065,0.308-3.102c0.024-0.279,0.043-0.56,0.065-0.84
	c0.061-0.772,0.117-1.546,0.164-2.321c0.021-0.353,0.04-0.706,0.059-1.06c0.038-0.743,0.069-1.487,0.094-2.232
	c0.011-0.324,0.024-0.648,0.032-0.973c0.027-1.053,0.044-2.109,0.044-3.167v-23.51h13.319c0.669,0,1.358,0.04,2.067,0.123
	c9.105,1.03,15.973,8.728,15.973,17.908V254.8H406.971z"/>
<path d="M317.824,222.462v-2c0-4.142-3.357-7.5-7.5-7.5c-4.142,0-7.5,3.358-7.5,7.5v2c0,4.142,3.358,7.5,7.5,7.5
	C314.467,229.962,317.824,226.605,317.824,222.462z"/>
<path d="M194.178,220.462v2c0,4.142,3.358,7.5,7.5,7.5s7.5-3.358,7.5-7.5v-2c0-4.142-3.358-7.5-7.5-7.5
	C197.535,212.962,194.178,216.32,194.178,220.462z"/>
<g>
</g>
<g>
</g>
<g>
</g>
<g>
</g>
<g>
</g>
<g>
</g>
<g>
</g>
<g>
</g>
<g>
</g>
<g>
</g>
<g>
</g>
<g>
</g>
<g>
</g>
<g>
</g>
<g>
</g>
</svg>
