<?xml version="1.0" encoding="iso-8859-1"?>
<!-- Generator: Adobe Illustrator 19.0.0, SVG Export Plug-In . SVG Version: 6.00 Build 0)  -->
<svg version="1.1" id="Capa_1" xmlns="http://www.w3.org/2000/svg" xmlns:xlink="http://www.w3.org/1999/xlink" x="0px" y="0px"
	 viewBox="0 0 512.001 512.001" style="enable-background:new 0 0 512.001 512.001;" xml:space="preserve">
<g>
	<path style="fill:#D9D4D4;" d="M102.936,243.333h-26.76c-11.659,0-21.111-9.451-21.111-21.111V167.11
		c0-11.659,9.452-21.111,21.111-21.111h26.76V243.333z"/>
	<path style="fill:#D9D4D4;" d="M409.065,243.333h26.76c11.659,0,21.111-9.451,21.111-21.111V167.11
		c0-11.659-9.451-21.111-21.111-21.111h-26.76V243.333z"/>
</g>
<path style="fill:#F0EEEE;" d="M197.526,348.66h116.949c45.983,0,83.26,37.277,83.26,83.26v72.58H114.266v-72.58
	C114.266,385.937,151.542,348.66,197.526,348.66z"/>
<path style="fill:#D9D4D4;" d="M314.475,348.66H289.47c45.983,0,83.26,37.277,83.26,83.26v72.58h25.004v-72.58
	C397.735,385.937,360.458,348.66,314.475,348.66z"/>
<g>
	<circle style="fill:#F0EEEE;" cx="256" cy="177.38" r="169.88"/>
	<circle style="fill:#F0EEEE;" cx="256" cy="177.38" r="169.88"/>
</g>
<path style="fill:#D9D4D4;" d="M256,7.5c-2.076,0-4.141,0.051-6.199,0.124c84.547,3.264,152.16,78.012,152.16,169.76
	s-67.612,166.495-152.16,169.76c2.058,0.074,4.123,0.124,6.199,0.124c93.824,0,169.884-76.06,169.884-169.884S349.825,7.5,256,7.5z"
	/>
<ellipse style="fill:#FA8500;" cx="256" cy="330.03" rx="128.29" ry="56.3"/>
<path style="fill:#CE6A06;" d="M256,273.729c-2.058,0-4.104,0.023-6.138,0.065c61.791,1.406,110.996,26.044,110.996,56.235
	s-49.205,54.829-110.996,56.235c2.035,0.042,4.08,0.065,6.138,0.065c70.852,0,128.289-25.207,128.289-56.301
	S326.852,273.729,256,273.729z"/>
<path style="fill:#5880A2;" d="M421.279,137.974C381.104,89.861,321.971,66.735,256,66.735S130.896,89.861,90.721,137.974
	c-3.005,12.649-4.605,25.842-4.605,39.41c0,93.824,76.06,169.884,169.884,169.884c93.825,0,169.884-76.06,169.884-169.884
	C425.884,163.816,424.284,150.623,421.279,137.974z"/>
<path style="fill:#3F6582;" d="M425.814,172.609c-0.013-0.471-0.037-0.939-0.053-1.409c-0.041-1.13-0.087-2.259-0.149-3.383
	c-0.029-0.514-0.065-1.027-0.098-1.54c-0.071-1.102-0.15-2.201-0.243-3.297c-0.04-0.476-0.083-0.952-0.127-1.427
	c-0.109-1.177-0.23-2.351-0.363-3.521c-0.042-0.374-0.083-0.749-0.128-1.122c-0.167-1.388-0.35-2.771-0.551-4.149
	c-0.022-0.148-0.041-0.297-0.062-0.445c-0.719-4.85-1.641-9.634-2.76-14.343c-10.113-12.111-21.428-22.634-33.75-31.608
	c9.258,21.609,14.431,45.662,14.431,71.018c0,91.748-67.612,166.495-152.16,169.76c0.933,0.033,1.867,0.06,2.803,0.081
	c1.13,0.022,2.26,0.043,3.395,0.043H256c24.922,0,48.591-5.367,69.914-15.007c1.254-0.567,2.5-1.149,3.738-1.745
	c6.189-2.982,12.17-6.329,17.914-10.011c1.149-0.737,2.288-1.487,3.418-2.25c2.259-1.526,4.48-3.106,6.66-4.736
	c1.09-0.815,2.17-1.643,3.24-2.484c6.418-5.044,12.464-10.54,18.089-16.44c1.875-1.967,3.704-3.979,5.484-6.034
	c1.78-2.055,3.512-4.153,5.193-6.292c0.841-1.07,1.669-2.15,2.484-3.24c2.446-3.27,4.777-6.632,6.986-10.078
	c2.21-3.447,4.298-6.978,6.259-10.589c13.076-24.071,20.504-51.657,20.504-80.977C425.884,175.787,425.858,174.196,425.814,172.609z
	"/>
<circle style="fill:#FB403F;" cx="179.25" cy="436.33" r="20.333"/>
<path d="M443.325,139.505V79c0-4.142-3.357-7.5-7.5-7.5s-7.5,3.358-7.5,7.5v56.19C409.122,56.299,338.144,0,256,0
	c-47.666,0-92.404,18.645-125.976,52.499c-2.916,2.941-2.896,7.689,0.045,10.606c2.941,2.917,7.69,2.898,10.607-0.045
	C171.409,32.068,212.365,15,256,15c64.587,0,121.635,38.012,147.588,94.491c-15.487-13.194-32.999-23.95-52.37-32.096
	C322.556,65.342,290.52,59.23,256,59.23s-66.556,6.112-95.219,18.165c-19.353,8.138-36.851,18.882-52.327,32.06
	c3.858-8.36,8.439-16.42,13.752-24.129c2.35-3.411,1.491-8.081-1.92-10.431c-3.411-2.35-8.082-1.49-10.431,1.92
	c-12.533,18.187-21.397,38.139-26.424,59.403c-0.002,0.008-0.005,0.015-0.007,0.023c-0.025,0.107-0.046,0.215-0.071,0.321
	c-0.151,0.645-0.296,1.292-0.44,1.939H76.18c-15.781,0-28.62,12.835-28.62,28.61v55.11c0,15.775,12.839,28.61,28.62,28.61h18.326
	c9.172,20.172,21.8,38.04,37.014,53.026c-7.422,8.082-11.31,17.011-11.31,26.174c0,18.196,14.938,34.773,42.062,46.677
	C187.433,387.749,220.72,393.83,256,393.83c16.287,0,32.189-1.29,47.268-3.835c4.084-0.689,6.837-4.559,6.147-8.643
	c-0.689-4.084-4.561-6.838-8.644-6.148c-14.256,2.406-29.318,3.626-44.771,3.626c-33.251,0-64.397-5.632-87.7-15.859
	c-21.029-9.229-33.09-21.236-33.09-32.941c0-5.426,2.498-10.828,7.418-16.116c28.084,23.327,63.162,37.772,100.823,40.412
	c0.266,0.019,0.532,0.034,0.798,0.052c0.984,0.065,1.971,0.122,2.959,0.17c0.376,0.019,0.753,0.036,1.129,0.053
	c0.924,0.039,1.85,0.07,2.777,0.096c0.364,0.01,0.728,0.023,1.092,0.03c1.263,0.027,2.527,0.044,3.795,0.044
	s2.532-0.017,3.795-0.044c0.364-0.008,0.728-0.021,1.092-0.03c0.927-0.025,1.853-0.056,2.777-0.096
	c0.376-0.016,0.753-0.034,1.129-0.053c0.988-0.048,1.975-0.105,2.96-0.17c0.265-0.017,0.531-0.033,0.796-0.052
	c37.661-2.64,72.74-17.085,100.824-40.412c4.919,5.288,7.417,10.69,7.417,16.116c0,14.29-18.249,29.002-47.624,38.397
	c-3.945,1.262-6.121,5.483-4.859,9.428c1.019,3.186,3.967,5.217,7.142,5.217c0.757,0,1.527-0.115,2.286-0.358
	c10.036-3.209,18.897-6.97,26.495-11.176c18.867,14.298,30.001,36.54,30.001,60.382V497H121.77v-65.08
	c0-15.877,4.847-31.063,14.016-43.914c2.406-3.372,1.623-8.056-1.749-10.461c-3.372-2.406-8.056-1.622-10.461,1.75
	c-10.994,15.409-16.805,33.607-16.805,52.626v72.58c0,4.142,3.358,7.5,7.5,7.5h283.461c4.142,0,7.5-3.358,7.5-7.5v-72.58
	c0-26.812-11.756-51.931-31.891-69.076c11.988-9.631,18.45-20.843,18.45-32.814c0-9.163-3.888-18.091-11.31-26.173
	c15.214-14.986,27.842-32.855,37.014-53.027h18.327c15.78,0,28.619-12.834,28.619-28.61v-55.11
	C464.44,153.93,455.476,142.81,443.325,139.505z M166.596,91.222C193.408,79.947,223.488,74.23,256,74.23
	s62.592,5.717,89.403,16.992c27.122,11.406,50.319,28.289,68.978,50.201c1.324,5.869,2.322,11.82,2.99,17.813
	c0.006,0.053,0.011,0.106,0.017,0.159c0.147,1.326,0.273,2.654,0.387,3.984c0.029,0.338,0.055,0.676,0.082,1.015
	c0.084,1.059,0.157,2.119,0.221,3.18c0.026,0.429,0.052,0.858,0.074,1.288c0.053,1.022,0.093,2.044,0.127,3.067
	c0.014,0.41,0.032,0.819,0.042,1.229c0.036,1.407,0.059,2.815,0.059,4.223c0,1.43-0.019,2.859-0.057,4.285
	c-0.001,0.062-0.005,0.124-0.007,0.186c-1.227,44.376-20.684,86.566-53.811,116.343c-26.959,24.242-61.046,38.634-97.015,41.17
	c-0.245,0.017-0.491,0.032-0.736,0.048c-0.9,0.059-1.801,0.111-2.704,0.155c-0.345,0.017-0.69,0.033-1.035,0.048
	c-0.845,0.036-1.69,0.064-2.536,0.087c-0.336,0.009-0.671,0.021-1.007,0.028c-1.156,0.025-2.313,0.04-3.472,0.04
	c-1.159,0-2.316-0.015-3.472-0.04c-0.336-0.007-0.672-0.019-1.007-0.028c-0.846-0.023-1.691-0.051-2.536-0.087
	c-0.346-0.015-0.691-0.031-1.036-0.048c-0.901-0.044-1.802-0.096-2.701-0.155c-0.246-0.016-0.493-0.031-0.739-0.048
	c-35.968-2.536-70.056-16.928-97.015-41.171c-33.126-29.775-52.581-71.963-53.809-116.338c-0.002-0.063-0.005-0.127-0.007-0.19
	c-0.038-1.426-0.057-2.854-0.057-4.284c0-1.409,0.022-2.818,0.059-4.225c0.011-0.41,0.029-0.819,0.042-1.229
	c0.034-1.02,0.074-2.04,0.127-3.06c0.023-0.438,0.05-0.876,0.076-1.314c0.062-1.035,0.133-2.07,0.215-3.103
	c0.03-0.375,0.059-0.749,0.091-1.124c0.104-1.211,0.222-2.421,0.353-3.63c0.02-0.186,0.037-0.373,0.058-0.559
	c0.324-2.887,0.725-5.765,1.201-8.628c0.051-0.306,0.108-0.61,0.161-0.915c0.175-1.016,0.36-2.03,0.554-3.041
	c0.114-0.594,0.235-1.186,0.355-1.778c0.184-0.907,0.373-1.813,0.573-2.716c0.048-0.217,0.099-0.434,0.148-0.651
	C116.288,119.504,139.481,102.625,166.596,91.222z M76.18,235.83c-7.51,0-13.62-6.105-13.62-13.61v-55.11
	c0-7.504,6.11-13.61,13.62-13.61h4.038c-0.034,0.25-0.056,0.502-0.089,0.752c-0.19,1.455-0.361,2.914-0.515,4.376
	c-0.047,0.443-0.095,0.886-0.138,1.33c-0.052,0.537-0.104,1.074-0.152,1.612c-0.026,0.296-0.047,0.593-0.072,0.889
	c-0.077,0.922-0.155,1.844-0.218,2.769c-0.016,0.241-0.026,0.482-0.042,0.723c-0.008,0.122-0.014,0.245-0.021,0.367
	c-0.029,0.469-0.056,0.938-0.081,1.407c-0.052,0.964-0.096,1.929-0.132,2.895c-0.014,0.382-0.033,0.764-0.045,1.146
	c-0.009,0.283-0.017,0.567-0.024,0.85c-0.042,1.587-0.069,3.175-0.069,4.764c0,1.387,0.019,2.771,0.051,4.153
	c0.004,0.175,0.007,0.35,0.011,0.524c0.002,0.077,0.006,0.153,0.009,0.23c0.005,0.192,0.015,0.383,0.021,0.574
	c0.028,0.945,0.061,1.889,0.104,2.831c0.023,0.512,0.052,1.023,0.079,1.535c0.048,0.883,0.102,1.765,0.163,2.646
	c0.036,0.518,0.073,1.035,0.113,1.552c0.071,0.905,0.15,1.808,0.234,2.711c0.044,0.473,0.085,0.947,0.133,1.419
	c0.112,1.1,0.236,2.198,0.368,3.294c0.032,0.264,0.058,0.529,0.091,0.792c0.17,1.359,0.356,2.714,0.557,4.067
	c0.054,0.364,0.116,0.726,0.172,1.09c0.153,0.99,0.312,1.978,0.482,2.964c0.084,0.485,0.173,0.968,0.261,1.451
	c0.158,0.872,0.321,1.742,0.492,2.611c0.1,0.507,0.202,1.013,0.306,1.518c0.178,0.866,0.365,1.731,0.556,2.594
	c0.107,0.482,0.212,0.964,0.323,1.444c0.222,0.96,0.454,1.917,0.692,2.873c0.092,0.372,0.18,0.744,0.274,1.116
	c0.338,1.32,0.689,2.637,1.057,3.95c0.067,0.24,0.141,0.479,0.209,0.719c0.306,1.073,0.62,2.143,0.947,3.211
	c0.138,0.451,0.283,0.9,0.424,1.35c0.271,0.86,0.546,1.72,0.83,2.577c0.163,0.492,0.33,0.984,0.498,1.475
	c0.134,0.392,0.261,0.787,0.398,1.178L76.18,235.83L76.18,235.83z M449.44,222.22c0,7.504-6.109,13.61-13.619,13.61h-12.297
	c0.141-0.403,0.271-0.808,0.409-1.212c0.16-0.47,0.32-0.941,0.477-1.412c0.293-0.881,0.576-1.765,0.854-2.65
	c0.135-0.429,0.273-0.857,0.405-1.288c0.337-1.1,0.661-2.203,0.975-3.308c0.06-0.209,0.124-0.417,0.182-0.626
	c0.371-1.322,0.725-2.647,1.065-3.976c0.089-0.346,0.17-0.695,0.256-1.042c0.244-0.979,0.482-1.959,0.709-2.942
	c0.109-0.472,0.212-0.946,0.317-1.419c0.193-0.87,0.381-1.742,0.561-2.616c0.103-0.501,0.204-1.002,0.303-1.503
	c0.172-0.875,0.336-1.751,0.495-2.629c0.087-0.479,0.176-0.958,0.258-1.438c0.17-0.985,0.328-1.973,0.481-2.962
	c0.057-0.366,0.119-0.732,0.173-1.098c0.201-1.351,0.387-2.705,0.556-4.063c0.033-0.268,0.06-0.537,0.093-0.806
	c0.131-1.092,0.255-2.185,0.366-3.281c0.048-0.475,0.09-0.951,0.134-1.428c0.084-0.898,0.163-1.798,0.233-2.698
	c0.041-0.521,0.078-1.044,0.114-1.566c0.061-0.876,0.114-1.753,0.162-2.631c0.028-0.516,0.056-1.031,0.08-1.548
	c0.043-0.942,0.076-1.885,0.104-2.829c0.006-0.186,0.016-0.372,0.021-0.558c0.002-0.082,0.007-0.164,0.009-0.246
	c0.004-0.173,0.008-0.347,0.012-0.52c0.031-1.383,0.051-2.768,0.051-4.156c0-1.588-0.027-3.177-0.069-4.764
	c-0.007-0.283-0.016-0.565-0.024-0.848c-0.012-0.377-0.03-0.754-0.044-1.131c-0.037-0.975-0.081-1.949-0.133-2.923
	c-0.025-0.457-0.051-0.915-0.079-1.372c-0.009-0.139-0.015-0.278-0.024-0.417c-0.014-0.226-0.024-0.452-0.039-0.677
	c-0.066-0.97-0.147-1.938-0.228-2.906c-0.02-0.239-0.037-0.479-0.058-0.718c-0.049-0.557-0.102-1.113-0.156-1.669
	c-0.042-0.434-0.089-0.866-0.135-1.299c-0.155-1.481-0.328-2.959-0.52-4.433c-0.031-0.24-0.052-0.483-0.085-0.723h4.034
	c7.51,0,13.619,6.105,13.619,13.61v55.111H449.44z"/>
<path d="M207.084,436.333c0-15.348-12.486-27.833-27.833-27.833c-15.348,0-27.834,12.486-27.834,27.833
	c0,15.347,12.486,27.833,27.834,27.833C194.598,464.167,207.084,451.681,207.084,436.333z M166.417,436.333
	c0-7.077,5.757-12.833,12.834-12.833c7.076,0,12.833,5.757,12.833,12.833c0,7.076-5.757,12.833-12.833,12.833
	C172.174,449.167,166.417,443.41,166.417,436.333z"/>
<path d="M334.879,489.667c15.23,0,27.621-12.391,27.621-27.621v-27.424c0-15.23-12.391-27.621-27.621-27.621h-42.758
	c-15.23,0-27.621,12.391-27.621,27.621v27.424c0,15.23,12.391,27.621,27.621,27.621H334.879z M279.5,462.045v-27.424
	c0-6.96,5.662-12.621,12.621-12.621h42.758c6.959,0,12.621,5.662,12.621,12.621v27.424c0,6.96-5.662,12.621-12.621,12.621h-42.758
	C285.162,474.667,279.5,469.005,279.5,462.045z"/>
<path d="M295.333,443.833h34.334c4.143,0,7.5-3.358,7.5-7.5s-3.357-7.5-7.5-7.5h-34.334c-4.143,0-7.5,3.358-7.5,7.5
	S291.191,443.833,295.333,443.833z"/>
<path d="M329.667,467.833c4.143,0,7.5-3.358,7.5-7.5s-3.357-7.5-7.5-7.5h-34.334c-4.143,0-7.5,3.358-7.5,7.5s3.357,7.5,7.5,7.5
	H329.667z"/>
<g>
</g>
<g>
</g>
<g>
</g>
<g>
</g>
<g>
</g>
<g>
</g>
<g>
</g>
<g>
</g>
<g>
</g>
<g>
</g>
<g>
</g>
<g>
</g>
<g>
</g>
<g>
</g>
<g>
</g>
</svg>
