<svg id="Layer_1" enable-background="new 0 0 256 256" height="512" viewBox="0 0 256 256" width="512" xmlns="http://www.w3.org/2000/svg"><g><g><g><ellipse cx="131.626" cy="131.61" fill="#87796f" rx="107.75" ry="107.75" transform="matrix(.707 -.707 .707 .707 -54.51 131.621)"/></g></g><g><g><path d="m131.626 22.36c-60.24 0-109.25 49.01-109.25 109.25s49.01 109.25 109.25 109.25 109.25-49.01 109.25-109.25-49.01-109.25-109.25-109.25zm0 215.5c-58.587 0-106.25-47.663-106.25-106.25s47.663-106.25 106.25-106.25 106.25 47.663 106.25 106.25-47.663 106.25-106.25 106.25z" fill="#3a312a"/></g></g><g><g><path d="m131.626 40.288c-17.965 0-34.716 5.191-48.842 14.15l-11.736 8.842c-18.856 16.729-30.744 41.14-30.744 68.33 0 50.436 40.886 91.322 91.322 91.322s91.322-40.886 91.322-91.322c-.001-50.435-40.887-91.322-91.322-91.322z" fill="#87796f"/></g></g><g><g><path d="m131.626 38.788c-17.642 0-34.809 4.974-49.646 14.384-.699.443-.906 1.37-.463 2.07s1.373.905 2.07.463c14.355-9.104 30.967-13.917 48.038-13.917 49.527 0 89.821 40.294 89.821 89.822 0 49.527-40.294 89.821-89.821 89.821-49.528 0-89.822-40.294-89.822-89.821 0-25.662 11.022-50.159 30.239-67.209.62-.55.677-1.498.127-2.117-.551-.62-1.499-.677-2.117-.127-19.859 17.619-31.249 42.934-31.249 69.453 0 51.182 41.64 92.821 92.822 92.821s92.821-41.64 92.821-92.821c.001-51.182-41.638-92.822-92.82-92.822z" fill="#3a312a"/></g></g><g><g><path d="m135.368 190.717c4.074-3.08 5.225-8.81 2.499-13.246-.938-1.527-2.223-2.706-3.679-3.514 2.261-3.181 2.547-7.532.374-11.068-1.17-1.904-2.877-3.263-4.802-4.04 1.488-2.993 1.455-6.653-.425-9.713-1.481-2.41-3.814-3.968-6.378-4.535 1.134-2.841.969-6.155-.754-8.959-1.884-3.066-5.158-4.749-8.513-4.768 1.043-2.793.844-6.021-.837-8.756-1.916-3.118-5.264-4.804-8.672-4.766.369-2.29-.039-4.711-1.349-6.842-2.308-3.757-6.681-5.445-10.755-4.525.074-1.91-.396-3.86-1.474-5.613-2.751-4.477-8.439-6.029-13.048-3.701-.111-.22-.219-.434-.347-.643-2.901-4.721-9.078-6.196-13.793-3.299-4.721 2.901-6.196 9.078-3.295 13.799.128.209.278.413.424.611-4.031 3.085-5.148 8.779-2.433 13.197 1.078 1.754 2.605 3.055 4.342 3.851-2.661 3.219-3.131 7.883-.823 11.639 1.309 2.131 3.285 3.589 5.494 4.295-1.574 3.023-1.582 6.771.333 9.889 1.68 2.735 4.47 4.372 7.433 4.703-1.499 3.001-1.477 6.683.407 9.748 1.723 2.804 4.605 4.449 7.652 4.721-.652 2.544-.317 5.33 1.164 7.74 1.88 3.06 5.13 4.743 8.473 4.768-.177 2.068.264 4.205 1.434 6.109 2.173 3.536 6.183 5.247 10.042 4.668.063 1.665.534 3.343 1.473 4.87 2.693 4.384 8.213 5.959 12.763 3.836.058.108.111.22.175.324 1.994 3.246 5.534 4.958 9.09 4.757l.006-.004c1.615-.08 3.231-.561 4.7-1.463 1.539-.945 2.729-2.237 3.538-3.718 1.675-3.053 1.71-6.89-.245-10.071-.059-.101-.128-.187-.194-.281z" fill="#d7e057"/></g></g><g><g><path d="m139.145 176.686c-.761-1.237-1.754-2.321-2.917-3.191 1.874-3.569 1.763-7.891-.388-11.391-1.029-1.675-2.447-3.033-4.15-3.989 1.118-3.241.746-6.796-1.077-9.764-1.358-2.212-3.369-3.859-5.762-4.752.734-2.977.261-6.089-1.37-8.743-1.757-2.858-4.61-4.761-7.86-5.316.552-2.814.038-5.722-1.489-8.208-1.848-3.007-4.883-4.946-8.323-5.387.037-2.187-.546-4.348-1.697-6.222-2.266-3.689-6.39-5.755-10.603-5.461-.192-1.65-.743-3.242-1.626-4.678-2.859-4.656-8.661-6.612-13.699-4.813-3.443-5.043-10.296-6.55-15.552-3.322-2.625 1.613-4.464 4.15-5.18 7.146-.675 2.826-.273 5.74 1.127 8.263-3.81 3.714-4.602 9.61-1.745 14.262.883 1.437 2.054 2.647 3.438 3.564-2.168 3.642-2.186 8.237.08 11.926 1.152 1.874 2.817 3.371 4.785 4.326-1.162 3.268-.805 6.852 1.043 9.858 1.528 2.486 3.891 4.258 6.65 5.038-.975 3.149-.567 6.555 1.189 9.413 1.632 2.655 4.194 4.483 7.182 5.173-.286 2.538.275 5.076 1.635 7.287 1.823 2.968 4.827 4.906 8.224 5.373.084 1.952.655 3.831 1.684 5.505 2.15 3.5 5.945 5.565 9.986 5.493.25 1.431.769 2.807 1.528 4.044 2.829 4.605 8.423 6.575 13.437 4.904 2.162 2.979 5.614 4.744 9.301 4.743.218 0 .436-.006.654-.018.032-.002.065-.005.098-.01 1.866-.109 3.699-.688 5.308-1.678 1.707-1.049 3.114-2.527 4.069-4.274 1.835-3.345 1.883-7.383.179-10.752 3.892-3.714 4.725-9.656 1.841-14.349zm-5.005 14.892.146.203c1.6 2.603 1.68 5.885.208 8.566-.706 1.292-1.746 2.384-3.009 3.16-1.209.744-2.589 1.174-3.987 1.243-.035.002-.069.005-.104.009-3.096.146-6.014-1.402-7.641-4.051-.023-.038-.043-.079-.063-.119l-.066-.127c-.27-.502-.786-.791-1.323-.791-.213 0-.429.045-.634.141-3.919 1.827-8.585.428-10.851-3.262-.764-1.242-1.196-2.674-1.252-4.143-.017-.426-.214-.825-.542-1.098-.33-.272-.76-.391-1.18-.328-3.399.508-6.747-1.048-8.541-3.969-.955-1.554-1.376-3.351-1.219-5.197.036-.417-.104-.829-.386-1.139-.281-.309-.679-.486-1.097-.489-2.967-.023-5.661-1.537-7.206-4.053-1.219-1.981-1.569-4.319-.989-6.581.109-.427.025-.88-.229-1.239s-.653-.589-1.092-.628c-2.717-.242-5.089-1.704-6.507-4.012-1.55-2.521-1.678-5.621-.343-8.292.219-.439.21-.957-.024-1.388-.233-.431-.664-.72-1.15-.774-2.638-.294-4.942-1.751-6.322-3.997-1.58-2.571-1.686-5.716-.281-8.411.205-.393.226-.856.057-1.265-.168-.409-.509-.723-.931-.857-1.949-.623-3.608-1.92-4.673-3.651-1.908-3.105-1.626-7.084.701-9.898.297-.359.41-.837.306-1.291s-.413-.835-.837-1.028c-1.528-.7-2.804-1.832-3.688-3.273-2.297-3.738-1.408-8.563 2.066-11.221.65-.497.782-1.425.295-2.083-.12-.163-.245-.33-.352-.505-1.193-1.942-1.56-4.232-1.03-6.448.529-2.217 1.891-4.095 3.832-5.287 4.006-2.461 9.268-1.203 11.729 2.804.105.173.194.351.285.532.179.356.492.627.87.752.378.122.791.095 1.146-.086 3.923-1.982 8.794-.597 11.095 3.149.885 1.438 1.317 3.087 1.252 4.768-.018.466.182.914.54 1.212.358.299.836.415 1.289.31 3.567-.801 7.239.742 9.146 3.848 1.064 1.731 1.472 3.798 1.146 5.818-.069.437.057.883.345 1.218.285.331.7.521 1.137.521.037 0 .076-.001.117-.001 2.999 0 5.713 1.51 7.275 4.053 1.381 2.246 1.64 4.96.71 7.445-.172.459-.108.974.171 1.377.278.403.736.646 1.227.648 2.985.017 5.693 1.531 7.242 4.053 1.418 2.307 1.65 5.084.639 7.617-.163.409-.138.869.067 1.258.206.389.572.668 1.002.764 2.28.505 4.207 1.875 5.424 3.856 1.546 2.516 1.681 5.604.36 8.26-.187.375-.208.81-.06 1.201s.454.701.842.858c1.718.692 3.13 1.88 4.085 3.434 1.795 2.921 1.67 6.616-.318 9.413-.247.348-.335.784-.24 1.201.095.416.361.772.734.979 1.284.713 2.366 1.746 3.129 2.988 2.31 3.76 1.396 8.602-2.125 11.265-.644.487-.786 1.397-.323 2.058z" fill="#3a312a"/></g></g><g><g><path d="m77.07 114.765 50.501 91.484c1.615-.08 3.231-.561 4.7-1.463 1.539-.945 2.729-2.237 3.538-3.718z" fill="#fce8cb"/></g></g><g><g><path d="m137.05 200.224-58.74-86.302c-.452-.664-1.345-.852-2.025-.435-.683.42-.915 1.302-.528 2.003l50.501 91.483c.265.48.77.775 1.313.775.024 0 .05-.001.074-.002 1.901-.094 3.772-.677 5.41-1.684 1.707-1.049 3.114-2.527 4.07-4.276.27-.493.241-1.097-.075-1.562zm-5.566 3.284c-.946.582-1.997.972-3.08 1.148l-34.478-62.458 40.097 58.911c-.667.96-1.532 1.781-2.539 2.399z" fill="#3a312a"/></g></g><g><g><path d="m93.801 117.838c-.808-.195-1.616.305-1.808 1.11l-3.414 14.296c-.192.806.305 1.615 1.11 1.808.117.028.234.041.35.041.679 0 1.294-.463 1.458-1.151l3.414-14.296c.192-.806-.305-1.616-1.11-1.808z" fill="#3a312a"/></g></g><g><g><path d="m88.258 133.441-14.296-3.414c-.808-.196-1.616.305-1.808 1.11-.192.806.305 1.615 1.11 1.808l14.296 3.414c.117.028.234.041.35.041.679 0 1.294-.463 1.458-1.151.192-.806-.305-1.615-1.11-1.808z" fill="#3a312a"/></g></g><g><g><path d="m97.165 149.564-14.296-3.414c-.809-.195-1.616.305-1.808 1.11-.192.806.305 1.615 1.11 1.808l14.296 3.414c.117.028.234.041.35.041.679 0 1.294-.463 1.458-1.151.193-.806-.304-1.615-1.11-1.808z" fill="#3a312a"/></g></g><g><g><path d="m106.169 165.629-14.296-3.414c-.808-.195-1.616.305-1.808 1.11-.192.806.305 1.615 1.11 1.808l14.296 3.414c.117.028.234.041.35.041.679 0 1.294-.463 1.458-1.151.193-.806-.305-1.616-1.11-1.808z" fill="#3a312a"/></g></g><g><g><path d="m115.076 181.752-14.296-3.414c-.807-.197-1.616.305-1.808 1.11-.192.806.305 1.615 1.11 1.808l14.296 3.414c.117.028.234.041.35.041.679 0 1.294-.463 1.458-1.151.193-.806-.304-1.616-1.11-1.808z" fill="#3a312a"/></g></g><g><g><path d="m202.706 107.138c.146-.198.295-.402.424-.611 2.901-4.721 1.425-10.898-3.295-13.799-4.715-2.897-10.892-1.422-13.793 3.299-.128.209-.236.423-.347.643-4.609-2.328-10.297-.776-13.048 3.701-1.078 1.754-1.548 3.704-1.474 5.613-4.074-.92-8.447.769-10.755 4.525-1.31 2.131-1.717 4.552-1.349 6.842-3.408-.038-6.756 1.648-8.672 4.766-1.68 2.735-1.88 5.963-.837 8.756-3.355.018-6.629 1.702-8.513 4.768-1.723 2.805-1.888 6.119-.754 8.959-2.565.568-4.897 2.126-6.378 4.535-1.88 3.06-1.913 6.719-.425 9.713-1.925.777-3.632 2.136-4.802 4.04-2.173 3.536-1.887 7.887.374 11.068-1.457.809-2.741 1.987-3.679 3.514-2.726 4.436-1.575 10.166 2.499 13.246-.066.095-.135.181-.196.279-1.955 3.182-1.921 7.018-.245 10.071.81 1.481 2 2.773 3.539 3.718 1.469.902 3.085 1.383 4.7 1.463l.006.004c3.556.201 7.095-1.511 9.09-4.757.064-.105.117-.216.175-.324 4.55 2.124 10.07.548 12.763-3.836.939-1.527 1.41-3.205 1.473-4.87 3.859.58 7.87-1.131 10.043-4.668 1.17-1.905 1.611-4.041 1.435-6.109 3.343-.025 6.592-1.708 8.473-4.768 1.481-2.41 1.816-5.195 1.164-7.74 3.046-.271 5.928-1.916 7.652-4.721 1.884-3.065 1.906-6.747.407-9.748 2.963-.331 5.753-1.969 7.433-4.703 1.916-3.118 1.908-6.867.334-9.889 2.209-.706 4.185-2.164 5.494-4.295 2.308-3.757 1.839-8.42-.823-11.639 1.737-.797 3.264-2.098 4.342-3.851 2.713-4.417 1.597-10.11-2.435-13.195z" fill="#d7e057"/></g></g><g><g><path d="m204.673 106.858c2.967-5.355 1.215-12.172-4.053-15.409-5.256-3.227-12.111-1.722-15.552 3.322-5.039-1.799-10.839.158-13.7 4.813-.883 1.437-1.433 3.028-1.626 4.678-4.235-.297-8.336 1.773-10.603 5.461-1.151 1.873-1.734 4.035-1.696 6.222-3.441.44-6.477 2.38-8.324 5.387-1.527 2.486-2.04 5.394-1.489 8.208-3.25.555-6.104 2.457-7.859 5.316-1.632 2.655-2.105 5.768-1.37 8.743-2.393.893-4.403 2.54-5.763 4.752-1.823 2.968-2.195 6.522-1.077 9.764-1.704.957-3.121 2.315-4.149 3.989-2.15 3.5-2.262 7.821-.388 11.391-1.163.869-2.157 1.953-2.918 3.191-2.883 4.693-2.051 10.635 1.843 14.352-1.705 3.369-1.657 7.407.178 10.75.956 1.749 2.363 3.228 4.069 4.276 1.608.988 3.441 1.567 5.307 1.678.033.005.066.008.1.01.219.012.437.018.653.018 3.687 0 7.14-1.766 9.302-4.743 5.01 1.673 10.607-.299 13.436-4.904.761-1.238 1.278-2.614 1.528-4.044 4.025.103 7.836-1.992 9.987-5.493 1.028-1.675 1.6-3.554 1.684-5.505 3.397-.467 6.399-2.405 8.224-5.373 1.358-2.212 1.92-4.75 1.635-7.287 2.987-.689 5.55-2.518 7.181-5.173 1.756-2.858 2.164-6.263 1.19-9.413 2.76-.78 5.122-2.552 6.649-5.038 1.848-3.008 2.206-6.591 1.044-9.858 1.967-.955 3.632-2.452 4.784-4.326 2.266-3.688 2.249-8.284.081-11.926 1.384-.917 2.555-2.127 3.438-3.564 2.856-4.654 2.063-10.551-1.746-14.265zm-.812 12.692c-.885 1.44-2.161 2.572-3.688 3.273-.424.194-.733.574-.837 1.028-.105.454.009.932.306 1.291 2.327 2.814 2.609 6.793.7 9.898-1.063 1.732-2.724 3.028-4.673 3.651-.421.135-.762.448-.93.857-.169.409-.148.872.057 1.265 1.403 2.695 1.298 5.84-.282 8.411-1.379 2.246-3.684 3.703-6.321 3.997-.486.055-.917.344-1.15.774-.234.431-.243.948-.024 1.387 1.334 2.672 1.206 5.771-.344 8.293-1.417 2.308-3.788 3.77-6.506 4.012-.438.039-.838.269-1.092.628s-.338.813-.229 1.239c.58 2.261.229 4.599-.989 6.581-1.545 2.516-4.239 4.03-7.206 4.053-.418.003-.815.181-1.097.489-.282.31-.422.722-.386 1.139.157 1.846-.264 3.643-1.219 5.197-1.795 2.921-5.146 4.479-8.542 3.969-.422-.063-.852.056-1.18.328-.329.272-.526.673-.542 1.099-.055 1.467-.487 2.898-1.252 4.142-2.267 3.689-6.934 5.09-10.85 3.262-.719-.336-1.572-.054-1.951.641l-.138.258c-1.626 2.646-4.562 4.192-7.636 4.049-.035-.004-.07-.007-.106-.009-1.398-.069-2.778-.5-3.989-1.244-1.262-.775-2.302-1.867-3.009-3.161-1.471-2.68-1.391-5.961.209-8.564l.146-.203c.463-.661.32-1.571-.324-2.058-3.521-2.662-4.436-7.505-2.126-11.265.763-1.242 1.846-2.275 3.129-2.988.373-.207.641-.563.735-.979.095-.416.007-.854-.24-1.201-1.988-2.797-2.113-6.492-.318-9.413.954-1.554 2.366-2.741 4.085-3.434.388-.156.692-.467.841-.858.148-.391.127-.825-.06-1.2-1.32-2.656-1.186-5.744.36-8.26 1.218-1.981 3.145-3.352 5.425-3.856.43-.096.796-.375 1.002-.764.206-.39.23-.849.066-1.258-1.012-2.533-.779-5.31.64-7.617 1.548-2.521 4.256-4.036 7.241-4.053.49-.003.948-.245 1.227-.648.278-.403.343-.917.171-1.376-.929-2.486-.67-5.2.71-7.446 1.563-2.543 4.276-4.053 7.276-4.053.033 0 .067.001.101.001.438.047.864-.186 1.153-.521.288-.335.414-.781.345-1.218-.325-2.021.081-4.087 1.146-5.818 1.907-3.104 5.575-4.652 9.146-3.848.454.106.932-.011 1.289-.31.358-.298.558-.746.54-1.212-.066-1.68.368-3.329 1.253-4.77 2.301-3.744 7.173-5.125 11.094-3.147.737.374 1.653.052 2.026-.685.088-.174.172-.344.275-.511 2.462-4.006 7.722-5.268 11.73-2.806 4.008 2.463 5.265 7.728 2.804 11.733-.108.175-.234.345-.356.511-.483.658-.352 1.583.298 2.079 3.475 2.657 4.363 7.481 2.066 11.219z" fill="#3a312a"/></g></g><g><g><path d="m127.442 201.067c.81 1.481 2 2.773 3.539 3.718 1.469.902 3.085 1.383 4.7 1.463l50.501-91.484z" fill="#fce8cb"/></g></g><g><g><path d="m186.967 113.487c-.682-.42-1.573-.229-2.025.435l-58.739 86.302c-.316.465-.346 1.069-.076 1.563.956 1.749 2.363 3.228 4.069 4.276 1.639 1.007 3.51 1.59 5.411 1.684.025.001.05.002.074.002.544 0 1.049-.295 1.313-.775l50.501-91.483c.387-.702.154-1.584-.528-2.004zm-52.119 91.168c-1.083-.176-2.134-.566-3.082-1.148-1.005-.618-1.87-1.438-2.537-2.398l40.097-58.911z" fill="#3a312a"/></g></g><g><g><path d="m174.673 133.244-3.414-14.296c-.191-.806-.998-1.304-1.808-1.11-.806.192-1.303 1.002-1.11 1.808l3.414 14.296c.164.688.779 1.151 1.458 1.151.115 0 .232-.013.35-.041.805-.193 1.302-1.002 1.11-1.808z" fill="#3a312a"/></g></g><g><g><path d="m191.097 131.138c-.191-.806-.998-1.305-1.808-1.11l-14.295 3.414c-.806.192-1.303 1.002-1.11 1.808.164.689.779 1.151 1.458 1.151.115 0 .232-.013.35-.041l14.295-3.414c.805-.193 1.302-1.003 1.11-1.808z" fill="#3a312a"/></g></g><g><g><path d="m182.19 147.261c-.191-.805-1-1.303-1.808-1.11l-14.296 3.414c-.806.192-1.303 1.002-1.11 1.808.164.688.779 1.151 1.458 1.151.115 0 .232-.013.35-.041l14.296-3.414c.806-.193 1.303-1.003 1.11-1.808z" fill="#3a312a"/></g></g><g><g><path d="m173.186 163.325c-.191-.805-.999-1.304-1.808-1.11l-14.296 3.414c-.806.192-1.303 1.002-1.11 1.808.164.689.779 1.151 1.458 1.151.115 0 .232-.013.35-.041l14.296-3.414c.806-.193 1.303-1.002 1.11-1.808z" fill="#3a312a"/></g></g><g><g><path d="m164.279 179.448c-.191-.805-1-1.302-1.808-1.11l-14.296 3.414c-.806.192-1.303 1.002-1.11 1.808.164.688.779 1.151 1.458 1.151.115 0 .232-.013.35-.041l14.296-3.414c.806-.192 1.303-1.002 1.11-1.808z" fill="#3a312a"/></g></g><g><g><path d="m162.112 150.698c0-3.212-1.331-6.106-3.475-8.18 2.786-2.074 4.597-5.378 4.597-9.116 0-4.086-2.167-7.661-5.402-9.674 2.67-2.082 4.396-5.324 4.396-8.969 0-4.156-2.237-7.778-5.557-9.767 1.718-1.996 2.763-4.581 2.763-7.422 0-5.007-3.227-9.24-7.716-10.773 1.207-1.803 1.911-3.97 1.911-6.307 0-5.967-4.581-10.85-10.424-11.337.023-.278.046-.549.046-.828 0-6.292-5.1-11.392-11.384-11.392-6.292 0-11.392 5.1-11.392 11.392 0 .279.023.565.047.844-5.735.588-10.2 5.433-10.2 11.322 0 2.337.704 4.504 1.912 6.307-4.489 1.532-7.716 5.766-7.716 10.773 0 2.84 1.045 5.425 2.763 7.422-3.32 1.989-5.557 5.611-5.557 9.767 0 3.645 1.726 6.888 4.396 8.969-3.235 2.012-5.402 5.587-5.402 9.674 0 3.738 1.811 7.043 4.597 9.116-2.144 2.074-3.475 4.968-3.475 8.18 0 4.078 2.144 7.639 5.363 9.65-1.401 1.896-2.244 4.225-2.244 6.764 0 4.713 2.863 8.753 6.942 10.486-.929 1.648-1.471 3.552-1.471 5.587 0 5.843 4.404 10.649 10.068 11.299-.008.139-.023.278-.023.418 0 4.326 2.407 8.087 5.967 10.006h.008c1.61.882 3.459 1.378 5.417 1.378 2.051 0 3.97-.542 5.634-1.494 3.436-1.958 5.75-5.65 5.75-9.89 0-.132-.016-.255-.023-.387 5.773-.557 10.293-5.417 10.293-11.33 0-2.035-.542-3.939-1.47-5.587 4.078-1.733 6.942-5.773 6.942-10.486 0-2.539-.844-4.868-2.244-6.764 3.22-2.012 5.363-5.572 5.363-9.651z" fill="#d7e057"/></g></g><g><g><path d="m163.612 150.698c0-2.964-.991-5.765-2.82-8.041 2.523-2.416 3.942-5.71 3.942-9.256 0-3.821-1.665-7.363-4.534-9.799 2.262-2.378 3.528-5.51 3.528-8.844 0-4.008-1.811-7.683-4.919-10.115 1.379-2.095 2.125-4.554 2.125-7.073 0-4.905-2.781-9.327-7.077-11.496.837-1.732 1.273-3.633 1.273-5.584 0-6.162-4.46-11.458-10.387-12.634-.246-6.892-5.928-12.423-12.876-12.423-6.964 0-12.656 5.551-12.885 12.46-5.881 1.252-10.16 6.441-10.16 12.597 0 1.952.437 3.853 1.273 5.584-4.296 2.169-7.077 6.591-7.077 11.496 0 2.52.746 4.979 2.125 7.073-3.107 2.433-4.919 6.107-4.919 10.115 0 3.334 1.267 6.466 3.528 8.844-2.869 2.436-4.534 5.978-4.534 9.799 0 3.546 1.419 6.84 3.942 9.256-1.829 2.276-2.82 5.077-2.82 8.041 0 3.952 1.777 7.605 4.82 10.038-1.117 1.946-1.702 4.123-1.702 6.376 0 4.651 2.486 8.882 6.448 11.165-.642 1.556-.977 3.228-.977 4.909 0 6.093 4.245 11.277 10.073 12.567.289 4.404 2.811 8.364 6.727 10.476.029.016.059.03.089.044 1.843.99 3.932 1.514 6.048 1.514 2.239 0 4.445-.585 6.377-1.69 3.751-2.137 6.174-6.021 6.476-10.288 5.96-1.205 10.302-6.412 10.302-12.622 0-1.682-.335-3.354-.977-4.909 3.962-2.283 6.447-6.514 6.447-11.165 0-2.253-.584-4.43-1.701-6.376 3.045-2.434 4.822-6.087 4.822-10.039zm-7.658 8.378c-.355.222-.601.581-.679.992s.018.835.268 1.172c1.275 1.727 1.95 3.757 1.95 5.872 0 3.975-2.366 7.55-6.028 9.105-.393.167-.695.494-.833.897-.138.404-.097.848.113 1.22.836 1.483 1.277 3.161 1.277 4.851 0 5.116-3.842 9.345-8.937 9.836-.804.077-1.401.776-1.354 1.582l.012.166c.004.044.009.087.009.133 0 3.542-1.913 6.832-4.995 8.588-2.904 1.661-6.677 1.695-9.586.103-.031-.017-.063-.033-.096-.048-3.149-1.734-5.1-5.037-5.1-8.643 0-.056.006-.112.01-.168l.012-.166c.044-.793-.537-1.483-1.327-1.574-4.982-.572-8.739-4.789-8.739-9.809 0-1.69.441-3.368 1.277-4.851.21-.372.251-.816.113-1.22-.138-.403-.441-.73-.833-.897-3.663-1.557-6.029-5.131-6.029-9.105 0-2.114.675-4.145 1.951-5.872.249-.337.346-.761.268-1.172s-.324-.771-.679-.992c-2.917-1.822-4.658-4.954-4.658-8.378 0-2.697 1.071-5.22 3.018-7.102.316-.307.482-.735.454-1.175-.028-.439-.248-.844-.602-1.106-2.537-1.888-3.992-4.772-3.992-7.913 0-3.431 1.755-6.571 4.694-8.4.416-.259.679-.705.705-1.194.025-.489-.189-.961-.576-1.262-2.426-1.892-3.817-4.729-3.817-7.786 0-3.5 1.805-6.67 4.827-8.479.38-.227.64-.61.71-1.048.071-.437-.055-.882-.344-1.218-1.547-1.799-2.399-4.087-2.399-6.443 0-4.226 2.692-7.985 6.7-9.353.441-.151.787-.498.937-.939.149-.442.085-.928-.175-1.315-1.085-1.62-1.658-3.513-1.658-5.473 0-5.086 3.806-9.311 8.854-9.83.813-.084 1.41-.803 1.342-1.618-.021-.236-.042-.48-.042-.717 0-5.454 4.438-9.892 9.892-9.892 5.45 0 9.885 4.438 9.885 9.892 0 .227-.02.449-.042.703-.033.396.093.79.35 1.094s.624.493 1.021.526c5.075.423 9.05 4.746 9.05 9.842 0 1.959-.573 3.852-1.659 5.474-.259.387-.323.873-.174 1.314s.495.789.937.939c4.008 1.367 6.7 5.126 6.7 9.353 0 2.357-.853 4.645-2.399 6.443-.289.336-.415.781-.344 1.218.07.438.33.82.71 1.048 3.022 1.81 4.827 4.979 4.827 8.479 0 3.057-1.392 5.895-3.817 7.786-.387.301-.602.772-.576 1.262.026.489.289.936.705 1.194 2.94 1.829 4.694 4.97 4.694 8.4 0 3.141-1.455 6.025-3.992 7.913-.354.263-.573.667-.602 1.106-.028.439.138.868.454 1.175 1.946 1.883 3.018 4.405 3.018 7.102-.003 3.424-1.744 6.556-4.661 8.378z" fill="#3a312a"/></g></g><g><g><path d="m131.977 86.372-3.256 69.849-.69 14.811-1.579 33.877c1.61.882 3.459 1.378 5.417 1.378 2.051 0 3.97-.542 5.634-1.493z" fill="#fce8cb"/></g></g><g><g><path d="m133.476 86.302c-.037-.8-.697-1.43-1.498-1.43-.802 0-1.461.63-1.498 1.43l-3.257 69.85c-.039.828.6 1.53 1.428 1.568.868.024 1.53-.6 1.568-1.428l1.76-37.726 3.982 85.334c-2.486 1.132-5.469 1.164-7.965.095l1.533-32.893c.039-.828-.601-1.53-1.428-1.568-.838-.032-1.53.601-1.568 1.428l-1.579 33.877c-.027.572.274 1.11.777 1.386 1.864 1.023 3.987 1.563 6.138 1.563 2.239 0 4.445-.585 6.38-1.692.488-.279.779-.809.753-1.372z" fill="#3a312a"/></g></g><g><g><path d="m146.193 99.435c-.586-.586-1.535-.586-2.121 0l-11.802 11.803c-.586.586-.586 1.535 0 2.121.293.293.677.439 1.061.439s.768-.146 1.061-.439l11.802-11.803c.585-.586.585-1.535-.001-2.121z" fill="#3a312a"/></g></g><g><g><path d="m147.161 120.33c-.586-.586-1.535-.586-2.121 0l-11.802 11.802c-.586.586-.586 1.535 0 2.121.293.293.677.439 1.061.439s.768-.146 1.061-.439l11.802-11.802c.585-.586.585-1.535-.001-2.121z" fill="#3a312a"/></g></g><g><g><path d="m147.999 141.226c-.586-.586-1.535-.586-2.121 0l-11.802 11.802c-.586.586-.586 1.535 0 2.121.293.293.677.439 1.061.439s.768-.146 1.061-.439l11.802-11.802c.585-.586.585-1.536-.001-2.121z" fill="#3a312a"/></g></g><g><g><path d="m148.967 162.12c-.586-.586-1.535-.586-2.121 0l-11.802 11.802c-.586.586-.586 1.535 0 2.121.293.293.677.439 1.061.439s.768-.146 1.06-.439l11.802-11.802c.586-.586.586-1.535 0-2.121z" fill="#3a312a"/></g></g><g><g><path d="m131.555 111.237-11.803-11.803c-.586-.586-1.535-.586-2.121 0s-.586 1.535 0 2.121l11.803 11.803c.293.293.677.439 1.061.439s.768-.146 1.061-.439c.585-.586.585-1.535-.001-2.121z" fill="#3a312a"/></g></g><g><g><path d="m130.587 132.132-11.802-11.802c-.586-.586-1.535-.586-2.121 0s-.586 1.535 0 2.121l11.802 11.802c.293.293.677.439 1.061.439s.768-.146 1.061-.439c.585-.586.585-1.535-.001-2.121z" fill="#3a312a"/></g></g><g><g><path d="m129.748 153.027-11.802-11.802c-.586-.586-1.535-.586-2.121 0s-.586 1.535 0 2.121l11.802 11.802c.293.293.677.439 1.061.439s.768-.146 1.061-.439c.585-.585.585-1.535-.001-2.121z" fill="#3a312a"/></g></g><g><g><path d="m128.781 173.922-11.802-11.802c-.586-.586-1.535-.586-2.121 0s-.586 1.535 0 2.121l11.802 11.802c.293.293.677.439 1.061.439s.768-.146 1.061-.439c.585-.586.585-1.535-.001-2.121z" fill="#3a312a"/></g></g><g><g><path d="m78.126 72.11h22v10h-22z" fill="#f16c7a"/></g></g><g><g><path d="m100.126 70.61h-22c-.828 0-1.5.672-1.5 1.5v10c0 .828.672 1.5 1.5 1.5h22c.828 0 1.5-.672 1.5-1.5v-10c0-.828-.672-1.5-1.5-1.5zm-1.5 10h-19v-7h19z" fill="#3a312a"/></g></g><g><g><path d="m111.126 108.11h10v22h-10z" fill="#f16c7a" transform="matrix(.707 -.707 .707 .707 -50.211 116.999)"/></g></g><g><g><path d="m128.5 122.292-15.557-15.557c-.563-.563-1.559-.563-2.121 0l-7.07 7.071c-.586.586-.586 1.535 0 2.121l15.556 15.557c.281.281.663.439 1.061.439.397 0 .779-.158 1.061-.439l7.071-7.071c.585-.586.585-1.535-.001-2.121zm-8.132 6.011-13.435-13.436 4.949-4.95 13.436 13.436z" fill="#3a312a"/></g></g><g><g><path d="m165.126 66.11h10v22h-10z" fill="#f16c7a" transform="matrix(.707 -.707 .707 .707 -4.697 142.88)"/></g></g><g><g><path d="m182.5 80.292-15.557-15.557c-.563-.563-1.559-.563-2.121 0l-7.07 7.071c-.586.586-.586 1.535 0 2.121l15.556 15.557c.281.281.663.439 1.061.439.397 0 .779-.158 1.061-.439l7.071-7.071c.585-.586.585-1.535-.001-2.121zm-8.132 6.011-13.435-13.435 4.949-4.95 13.436 13.436z" fill="#3a312a"/></g></g><g><g><path d="m132.126 185.11h22v10h-22z" fill="#f16c7a"/></g></g><g><g><path d="m154.126 183.61h-22c-.828 0-1.5.672-1.5 1.5v10c0 .828.672 1.5 1.5 1.5h22c.828 0 1.5-.672 1.5-1.5v-10c0-.828-.672-1.5-1.5-1.5zm-1.5 10h-19v-7h19z" fill="#3a312a"/></g></g><g><g><path d="m187.126 138.11h22v10h-22z" fill="#f16c7a" transform="matrix(.707 -.707 .707 .707 -43.165 182.01)"/></g></g><g><g><path d="m210.5 137.807-7.071-7.071c-.563-.563-1.559-.563-2.121 0l-15.556 15.557c-.586.586-.586 1.535 0 2.121l7.07 7.071c.281.281.663.439 1.061.439s.779-.158 1.061-.439l15.557-15.557c.585-.586.585-1.535-.001-2.121zm-16.617 14.496-4.949-4.95 13.435-13.435 4.95 4.95z" fill="#3a312a"/></g></g><g><g><path d="m63.626 135.61h10v22h-10z" fill="#f16c7a" transform="matrix(.707 -.707 .707 .707 -83.569 91.466)"/></g></g><g><g><path d="m81 149.792-15.557-15.557c-.563-.563-1.559-.563-2.121 0l-7.07 7.071c-.586.586-.586 1.535 0 2.121l15.556 15.557c.281.281.663.439 1.061.439.397 0 .779-.158 1.06-.439l7.071-7.071c.586-.586.586-1.535 0-2.121zm-8.132 6.011-13.435-13.436 4.949-4.95 13.436 13.435z" fill="#3a312a"/></g></g><g><g><path d="m159.126 152.11h10v22h-10z" fill="#f16c7a" transform="matrix(.707 -.707 .707 .707 -67.265 163.825)"/></g></g><g><g><path d="m176.5 166.292-15.557-15.557c-.563-.563-1.559-.563-2.121 0l-7.07 7.071c-.586.586-.586 1.535 0 2.121l15.556 15.557c.281.281.663.439 1.061.439.397 0 .779-.158 1.061-.439l7.071-7.071c.585-.586.585-1.535-.001-2.121zm-8.132 6.011-13.435-13.436 4.949-4.95 13.436 13.435z" fill="#3a312a"/></g></g><g><g><path d="m47.535 26.317c-.974 11.564-13.024 13.389-13.024 13.389 10.347.487 12.925 14.059 12.925 14.059.221-9.677 13.321-14.202 13.321-14.202-9.814-.587-13.222-13.246-13.222-13.246z" fill="#d7e057"/></g></g><g><g><path d="m60.847 38.066c-8.604-.515-11.832-12.024-11.863-12.141-.19-.702-.853-1.16-1.584-1.102-.725.066-1.298.642-1.359 1.367-.859 10.215-11.313 11.963-11.754 12.031-.763.116-1.313.791-1.273 1.561.04.771.657 1.385 1.428 1.421 9.028.426 11.499 12.719 11.522 12.844.138.711.76 1.217 1.473 1.217.042 0 .084-.002.126-.005.765-.064 1.357-.693 1.375-1.46.193-8.509 12.191-12.777 12.312-12.819.676-.234 1.092-.914.994-1.622-.1-.709-.684-1.25-1.397-1.292zm-13.566 10.346c-1.356-3.131-3.709-6.908-7.587-8.877 2.931-1.404 6.408-3.913 8.201-8.272 1.551 3.071 4.2 6.88 8.334 8.723-3.006 1.639-6.921 4.405-8.948 8.426z" fill="#3a312a"/></g></g><g><g><path d="m25.837 43.297c-.689 8.179-9.212 9.471-9.212 9.471 7.318.344 9.142 9.944 9.142 9.944.156-6.845 9.422-10.046 9.422-10.046-6.942-.415-9.352-9.369-9.352-9.369z" fill="#d7e057"/></g></g><g><g><path d="m35.278 51.17c-5.767-.345-7.972-8.185-7.993-8.265-.191-.702-.862-1.163-1.582-1.102-.726.065-1.3.643-1.361 1.368-.579 6.87-7.647 8.065-7.942 8.112-.763.116-1.314.791-1.273 1.561.04.771.657 1.385 1.428 1.421 6.035.284 7.724 8.645 7.739 8.727.136.713.759 1.22 1.473 1.22.041 0 .083-.002.125-.005.765-.063 1.358-.693 1.376-1.461.13-5.708 8.331-8.633 8.412-8.661.676-.234 1.093-.913.996-1.622-.099-.709-.684-1.251-1.398-1.293zm-9.585 6.795c-.924-1.886-2.34-3.947-4.447-5.28 1.856-1.041 3.697-2.63 4.871-4.916 1.057 1.874 2.654 3.955 4.941 5.224-1.85 1.1-3.988 2.739-5.365 4.972z" fill="#3a312a"/></g></g><g><g><path d="m25.837 16.64c-.689 8.179-9.212 9.47-9.212 9.47 7.318.344 9.142 9.944 9.142 9.944.156-6.845 9.422-10.046 9.422-10.046-6.942-.414-9.352-9.368-9.352-9.368z" fill="#d7e057"/></g></g><g><g><path d="m35.278 24.513c-5.767-.346-7.972-8.186-7.993-8.266-.191-.702-.862-1.161-1.582-1.102-.726.065-1.3.643-1.361 1.368-.579 6.871-7.647 8.066-7.942 8.113-.763.116-1.314.791-1.273 1.56.04.771.657 1.385 1.428 1.421 6.035.284 7.724 8.644 7.739 8.727.136.713.759 1.22 1.473 1.22.041 0 .083-.002.125-.005.765-.063 1.358-.693 1.376-1.461.13-5.709 8.331-8.633 8.411-8.661.677-.233 1.094-.913.997-1.622-.099-.708-.684-1.249-1.398-1.292zm-9.585 6.794c-.924-1.885-2.34-3.947-4.447-5.279 1.856-1.041 3.697-2.63 4.871-4.917 1.057 1.874 2.653 3.955 4.941 5.225-1.849 1.099-3.989 2.738-5.365 4.971z" fill="#3a312a"/></g></g><g><g><path d="m131.626 41.79c-2.53 0-5.03.1-7.5.31 31.28 2.6 58.05 21.28 72 47.74 1.57.21 3.1.75 4.49 1.61 5.27 3.24 7.02 10.05 4.06 15.41 3.81 3.71 4.6 9.61 1.74 14.26-.16.26-.32.51-.5.75.35 3.2.53 6.45.53 9.74 0 .71-.01 1.41-.03 2.12l4.08 4.08c.59.58.59 1.53 0 2.12l-5.05 5.05c-6.1 40.79-39.73 72.69-81.32 76.14 2.47.21 4.97.31 7.5.31 49.53 0 89.82-40.29 89.82-89.82 0-49.53-40.29-89.82-89.82-89.82z" fill="#695b51"/></g></g></g></svg>