<svg id="Layer_1" enable-background="new 0 0 256 256" height="512" viewBox="0 0 256 256" width="512" xmlns="http://www.w3.org/2000/svg"><g><g><g><path d="m151.661 73.206c-.974 11.564-13.024 13.39-13.024 13.39 10.347.487 12.925 14.059 12.925 14.059.221-9.677 13.321-14.203 13.321-14.203-9.814-.586-13.222-13.246-13.222-13.246z" fill="#d5de58"/></g></g><g><g><path d="m164.973 84.955c-8.604-.514-11.832-12.024-11.863-12.14-.19-.702-.85-1.163-1.584-1.102-.725.066-1.298.642-1.359 1.367-.859 10.215-11.313 11.964-11.754 12.033-.763.115-1.314.79-1.273 1.561.04.77.657 1.384 1.428 1.421 9.027.425 11.498 12.718 11.522 12.842.138.711.76 1.217 1.473 1.217.042 0 .084-.001.126-.005.764-.064 1.357-.693 1.375-1.459.194-8.509 12.191-12.777 12.313-12.819.676-.235 1.092-.915.994-1.623-.101-.709-.684-1.25-1.398-1.293zm-13.567 10.346c-1.357-3.13-3.709-6.907-7.587-8.877 2.931-1.405 6.409-3.913 8.202-8.273 1.551 3.071 4.2 6.88 8.334 8.722-3.006 1.641-6.922 4.407-8.949 8.428z" fill="#3a312a"/></g></g><g><g><path d="m129.963 90.187c-.689 8.179-9.213 9.471-9.213 9.471 7.318.344 9.142 9.944 9.142 9.944.156-6.844 9.422-10.045 9.422-10.045-6.941-.416-9.351-9.37-9.351-9.37z" fill="#d5de58"/></g></g><g><g><path d="m139.404 98.059c-5.767-.345-7.972-8.186-7.993-8.265-.19-.702-.86-1.165-1.582-1.102-.726.065-1.3.642-1.361 1.368-.579 6.871-7.647 8.066-7.943 8.113-.763.115-1.313.79-1.273 1.561.04.77.657 1.384 1.427 1.421 6.036.284 7.724 8.644 7.74 8.726.135.712.759 1.22 1.473 1.22.041 0 .083-.002.125-.005.765-.063 1.358-.694 1.376-1.461.13-5.709 8.331-8.633 8.412-8.661.676-.234 1.093-.913.996-1.622-.098-.708-.683-1.25-1.397-1.293zm-9.585 6.795c-.924-1.886-2.34-3.947-4.447-5.28 1.855-1.042 3.697-2.63 4.871-4.917 1.057 1.874 2.654 3.955 4.941 5.224-1.849 1.101-3.989 2.741-5.365 4.973z" fill="#3a312a"/></g></g><g><g><path d="m129.963 63.529c-.689 8.18-9.213 9.471-9.213 9.471 7.318.344 9.142 9.944 9.142 9.944.156-6.845 9.422-10.045 9.422-10.045-6.941-.416-9.351-9.37-9.351-9.37z" fill="#d5de58"/></g></g><g><g><path d="m139.404 71.401c-5.767-.345-7.972-8.186-7.993-8.265-.19-.702-.86-1.163-1.582-1.102-.726.065-1.3.642-1.361 1.368-.579 6.871-7.647 8.067-7.943 8.114-.763.115-1.313.79-1.273 1.561.04.77.657 1.384 1.428 1.421 6.035.284 7.724 8.644 7.739 8.726.135.713.759 1.22 1.473 1.22.041 0 .083-.001.125-.005.765-.063 1.358-.694 1.376-1.461.13-5.71 8.331-8.634 8.412-8.662.676-.234 1.093-.913.996-1.622-.098-.708-.683-1.25-1.397-1.293zm-9.585 6.795c-.924-1.885-2.34-3.947-4.447-5.28 1.855-1.041 3.697-2.63 4.871-4.916 1.057 1.874 2.654 3.955 4.941 5.224-1.849 1.101-3.989 2.74-5.365 4.972z" fill="#3a312a"/></g></g><g><g><path d="m116.093 114.166c-.951-2.086-3.638-7.024-6.65-10.638-13.53-16.236-36.642-21.055-55.505-11.525-15.552 7.857-24.435 22.972-25.177 38.741-.091 1.927 2.331 2.85 3.527 1.337 3.095-3.913 7.538-9.328 11.652-12.79 23.503-19.782 40.244-6.439 55.126 7.065 3.541 3.213 8.791 3.667 12.825 1.099l.171-.109c4.404-2.804 6.195-8.43 4.031-13.18z" fill="#ed6e7a"/></g></g><g><g><path d="m117.458 113.544c-1.107-2.431-3.85-7.361-6.863-10.977-13.888-16.666-38.002-21.67-57.334-11.904-15.237 7.699-25.2 23.03-25.999 40.009-.073 1.546.815 2.895 2.263 3.437.411.154.831.229 1.244.229 1.031 0 2.014-.466 2.696-1.328 2.988-3.778 7.424-9.192 11.44-12.573 21.785-18.335 36.96-7.665 53.153 7.028 4.03 3.658 10.05 4.175 14.64 1.253l.17-.109c5.062-3.221 7.035-9.698 4.59-15.065zm-6.203 12.536-.17.108c-3.449 2.196-7.977 1.809-11.012-.944-16.619-15.08-33.491-26.97-57.1-7.102-4.225 3.556-8.793 9.127-11.862 13.007-.141.18-.319.232-.535.151-.152-.057-.332-.188-.317-.486.748-15.902 10.08-30.261 24.354-37.473 6.208-3.136 12.94-4.645 19.634-4.645 12.823 0 25.5 5.54 34.043 15.792 2.804 3.364 5.437 8.103 6.438 10.3 1.829 4.014.337 8.868-3.473 11.292z" fill="#3a312a"/></g></g><g><g><path d="m106.991 98.955c-.8-.225-1.626.242-1.849 1.04-2.198 7.857-6.521 14.945-12.503 20.5-.607.563-.643 1.513-.079 2.12.296.318.697.479 1.1.479.365 0 .731-.133 1.02-.401 6.387-5.931 11.004-13.499 13.351-21.889.223-.799-.243-1.626-1.04-1.849z" fill="#3a312a"/></g></g><g><g><path d="m87.172 88.471c-.044-.828-.743-1.467-1.576-1.42-.827.043-1.463.749-1.42 1.576.418 8.029-1.375 16.036-5.185 23.157-.391.73-.115 1.639.615 2.03.225.121.467.178.706.178.536 0 1.054-.288 1.324-.793 4.068-7.602 5.982-16.154 5.536-24.728z" fill="#3a312a"/></g></g><g><g><path d="m61.952 88.723c-.313-.768-1.187-1.138-1.955-.825-.768.312-1.137 1.187-.825 1.955 2.489 6.123 3.574 12.876 3.14 19.532-.054.827.572 1.54 1.399 1.594.033.003.066.003.099.003.784 0 1.443-.609 1.495-1.402.465-7.105-.695-14.317-3.353-20.857z" fill="#3a312a"/></g></g><g><g><path d="m47.586 117.158c-1.349-5.319-3.588-10.318-6.658-14.857-.465-.686-1.396-.865-2.083-.402-.686.464-.866 1.396-.402 2.083 2.874 4.251 4.972 8.932 6.235 13.914.172.679.783 1.132 1.453 1.132.122 0 .246-.015.37-.046.802-.205 1.289-1.021 1.085-1.824z" fill="#3a312a"/></g></g><g><g><path d="m36.084 139.958c-1.158-5.022-3.332-9.236-4.855-9.412s-1.82 3.753-.662 8.775 3.332 9.236 4.855 9.412c1.524.176 1.82-3.753.662-8.775z" fill="#d5de58"/></g></g><g><g><path d="m37.546 139.621c-.867-3.76-3.137-10.217-6.145-10.565-.762-.09-1.466.188-1.991.776-1.896 2.121-.712 8.057-.304 9.826.867 3.761 3.12 10.195 6.145 10.566.815.1 1.53-.26 1.991-.776 1.895-2.12.712-8.058.304-9.827zm-2.349 7.169c-.872-1.086-2.255-3.848-3.167-7.807-.723-3.135-.752-5.395-.574-6.495.872 1.086 2.255 3.847 3.167 7.806.723 3.136.752 5.395.574 6.496z" fill="#3a312a"/></g></g><g><g><path d="m31.131 130.514c-1.338-.749-5.567 1.395-9.446 4.789s-5.938 6.753-4.601 7.502c1.338.749 5.567-1.395 9.446-4.789 3.88-3.394 5.94-6.753 4.601-7.502z" fill="#d5de58"/></g></g><g><g><path d="m33.024 131c-.082-.784-.494-1.422-1.16-1.795-2.643-1.478-8.262 2.428-11.167 4.969-1.366 1.196-5.802 5.316-5.506 8.145.082.784.494 1.422 1.16 1.795.401.224.871.325 1.389.325 2.896 0 7.314-3.138 9.778-5.294 1.367-1.196 5.802-5.317 5.506-8.145zm-7.481 5.887c-3.057 2.675-5.795 4.104-7.138 4.475.5-.997 1.847-2.812 4.268-4.93 3.057-2.675 5.795-4.104 7.138-4.475-.5.996-1.847 2.811-4.268 4.93z" fill="#3a312a"/></g></g><g><g><path d="m77.146 141.308c-28.086 0-50.854 22.768-50.854 50.854 0 .129.009.257.01.386h101.688c.001-.129.01-.257.01-.386 0-28.086-22.768-50.854-50.854-50.854z" fill="#d5de58"/></g></g><g><g><path d="m77.146 139.808c-28.868 0-52.354 23.486-52.354 52.354l.009.392c.003.826.674 1.494 1.5 1.494h101.689c.824 0 1.494-.664 1.5-1.489l.01-.398c0-28.867-23.486-52.353-52.354-52.353zm-49.342 51.24c.594-26.702 22.5-48.24 49.342-48.24s48.748 21.539 49.342 48.24z" fill="#3a312a"/></g></g><g><g><path d="m77.146 155.863c-20.108 0-36.408 16.301-36.408 36.408 0 .093.006.184.007.277h72.802c.001-.092.007-.184.007-.277 0-20.107-16.3-36.408-36.408-36.408z" fill="#d5de58"/></g></g><g><g><path d="m77.146 154.364c-20.903 0-37.908 17.005-37.908 37.908l.007.284c.004.826.675 1.492 1.5 1.492h72.802c.822 0 1.494-.748 1.502-1.57l.005-.206c0-20.903-17.005-37.908-37.908-37.908zm-34.887 36.684c.648-18.684 16.049-33.684 34.887-33.684 18.809 0 34.191 14.954 34.881 33.684z" fill="#3a312a"/></g></g><g><g><path d="m77.146 170.128c-12.289 0-22.251 9.962-22.251 22.251 0 .057.004.112.004.169h44.494c0-.057.004-.112.004-.169 0-12.289-9.962-22.251-22.251-22.251z" fill="#d5de58"/></g></g><g><g><path d="m77.146 168.628c-13.097 0-23.752 10.655-23.752 23.751l.004.182c.007.824.677 1.487 1.5 1.487h44.494c.807 0 1.471-.717 1.501-1.523.001-.019.003-.127.003-.146.001-13.096-10.654-23.751-23.75-23.751zm-20.709 22.42c.688-10.825 9.714-19.42 20.71-19.42 10.985 0 20.003 8.58 20.706 19.42z" fill="#3a312a"/></g></g><g><g><path d="m178.854 141.308c-28.086 0-50.854 22.768-50.854 50.854 0 .129.009.257.01.386h101.689c.001-.129.01-.257.01-.386-.001-28.086-22.769-50.854-50.855-50.854z" fill="#d5de58"/></g></g><g><g><path d="m178.855 139.808c-28.868 0-52.354 23.486-52.354 52.354l.01.398c.006.824.676 1.489 1.5 1.489h101.688c.824 0 1.494-.664 1.5-1.489l.01-.398c-.001-28.868-23.486-52.354-52.354-52.354zm-49.342 51.24c.594-26.702 22.5-48.24 49.342-48.24s48.747 21.539 49.341 48.24z" fill="#3a312a"/></g></g><g><g><path d="m178.854 155.863c-20.108 0-36.408 16.301-36.408 36.408 0 .093.006.184.007.277h72.802c.001-.092.007-.184.007-.277 0-20.107-16.3-36.408-36.408-36.408z" fill="#d5de58"/></g></g><g><g><path d="m178.855 154.364c-20.902 0-37.908 17.005-37.908 37.908l.007.292c.009.822.678 1.484 1.5 1.484h72.802c.822 0 1.494-.751 1.502-1.573l.005-.203c-.001-20.903-17.006-37.908-37.908-37.908zm-34.887 36.684c.647-18.684 16.048-33.684 34.887-33.684 18.808 0 34.188 14.951 34.88 33.684z" fill="#3a312a"/></g></g><g><g><path d="m178.854 170.128c-12.289 0-22.251 9.962-22.251 22.251 0 .057.004.112.004.169h44.494c0-.057.004-.112.004-.169 0-12.289-9.962-22.251-22.251-22.251z" fill="#d5de58"/></g></g><g><g><path d="m178.855 168.628c-13.097 0-23.752 10.655-23.752 23.751l.005.195c.015.818.682 1.474 1.5 1.474h44.493c.806 0 1.469-.708 1.501-1.513.001-.02.004-.136.004-.156 0-13.096-10.655-23.751-23.751-23.751zm-20.71 22.42c.689-10.825 9.714-19.42 20.71-19.42 10.984 0 20.002 8.579 20.705 19.42z" fill="#3a312a"/></g></g><g><g><path d="m16.56 192.548c0 19.436 15.756 35.191 35.192 35.191h152.497c19.436 0 35.192-15.756 35.192-35.191z" fill="#f8e4c8"/></g></g><g><g><path d="m239.44 191.048h-222.88c-.829 0-1.5.671-1.5 1.5 0 20.232 16.46 36.691 36.692 36.691h4.531c.829 0 1.5-.671 1.5-1.5s-.671-1.5-1.5-1.5h-4.531c-18.076 0-32.872-14.307-33.659-32.191h219.815c-.787 17.885-15.583 32.191-33.659 32.191h-133.032c-.829 0-1.5.671-1.5 1.5s.671 1.5 1.5 1.5h133.031c20.232 0 36.692-16.459 36.692-36.691 0-.828-.671-1.5-1.5-1.5z" fill="#3a312a"/></g></g><g><g><path d="m80.807 227.74h94.387v11.731h-94.387z" fill="#f8e4c8"/></g></g><g><g><path d="m175.193 226.24h-94.386c-.829 0-1.5.671-1.5 1.5v11.731c0 .829.671 1.5 1.5 1.5h94.387c.828 0 1.5-.671 1.5-1.5v-11.731c-.001-.829-.672-1.5-1.501-1.5zm-1.5 11.731h-91.386v-8.731h91.387v8.731z" fill="#3a312a"/></g></g><g><g><path d="m128 141.308c-28.086 0-50.854 22.768-50.854 50.854 0 .129.009.257.01.386h101.689c.001-.129.01-.257.01-.386-.001-28.086-22.769-50.854-50.855-50.854z" fill="#d5de58"/></g></g><g><g><path d="m128 139.808c-28.868 0-52.354 23.486-52.354 52.354l.01.398c.006.824.676 1.489 1.5 1.489h101.689c.824 0 1.494-.664 1.5-1.489l.01-.398c0-28.868-23.487-52.354-52.355-52.354zm-49.342 51.24c.594-26.702 22.5-48.24 49.342-48.24s48.748 21.539 49.342 48.24z" fill="#3a312a"/></g></g><g><g><path d="m128 155.863c-20.108 0-36.408 16.301-36.408 36.408 0 .093.006.184.007.277h72.802c.001-.092.007-.184.007-.277 0-20.107-16.3-36.408-36.408-36.408z" fill="#d5de58"/></g></g><g><g><path d="m128 154.364c-20.903 0-37.908 17.005-37.908 37.908l.007.284c.004.826.675 1.492 1.5 1.492h72.803c.828 0 1.502-.753 1.502-1.582l.005-.194c-.001-20.903-17.007-37.908-37.909-37.908zm-34.887 36.684c.648-18.684 16.049-33.684 34.887-33.684 18.813 0 34.197 14.959 34.882 33.684z" fill="#3a312a"/></g></g><g><g><path d="m128 170.128c-12.289 0-22.251 9.962-22.251 22.251 0 .057.004.112.004.169h44.494c0-.057.004-.112.004-.169 0-12.289-9.962-22.251-22.251-22.251z" fill="#d5de58"/></g></g><g><g><path d="m128 168.628c-13.096 0-23.751 10.655-23.751 23.751l.004.169c0 .829.671 1.5 1.5 1.5h44.494c.809 0 1.473-.725 1.501-1.532.001-.018.003-.119.003-.137 0-13.096-10.654-23.751-23.751-23.751zm-20.709 22.42c.688-10.825 9.714-19.42 20.709-19.42 10.985 0 20.005 8.581 20.706 19.42z" fill="#3a312a"/></g></g><g><g><path d="m223.46 194.05c-.79 17.88-15.58 32.19-33.66 32.19h14.45c18.07 0 32.87-14.31 33.66-32.19z" fill="#dcc8ab"/></g></g><g><g><path d="m205.602 63.436c-19.08 0-34.547 15.467-34.547 34.547s15.467 34.547 34.547 34.547 34.547-15.467 34.547-34.547-15.468-34.547-34.547-34.547z" fill="#f8e4c8"/></g></g><g><g><path d="m205.602 61.936c-19.876 0-36.047 16.171-36.047 36.047s16.171 36.047 36.047 36.047 36.047-16.17 36.047-36.047-16.171-36.047-36.047-36.047zm0 69.094c-18.222 0-33.047-14.825-33.047-33.047s14.825-33.047 33.047-33.047 33.047 14.825 33.047 33.047-14.826 33.047-33.047 33.047z" fill="#3a312a"/></g></g><g><g><circle cx="205.602" cy="97.983" fill="#d5de58" r="24.054"/></g></g><g><g><path d="m205.602 72.428c-14.091 0-25.555 11.464-25.555 25.555s11.464 25.554 25.555 25.554 25.554-11.463 25.554-25.554-11.464-25.555-25.554-25.555zm0 48.109c-12.437 0-22.555-10.118-22.555-22.554s10.118-22.555 22.555-22.555c12.436 0 22.554 10.118 22.554 22.555s-10.118 22.554-22.554 22.554z" fill="#3a312a"/></g></g><g><g><path d="m205.602 72.428c-.828 0-1.5.671-1.5 1.5v48.109c0 .829.672 1.5 1.5 1.5s1.5-.671 1.5-1.5v-48.109c0-.828-.672-1.5-1.5-1.5z" fill="#3a312a"/></g></g><g><g><path d="m229.656 96.483h-48.109c-.828 0-1.5.671-1.5 1.5s.672 1.5 1.5 1.5h48.109c.828 0 1.5-.671 1.5-1.5s-.672-1.5-1.5-1.5z" fill="#3a312a"/></g></g><g><g><path d="m223.671 79.913c-.586-.586-1.535-.586-2.121 0l-34.018 34.019c-.586.585-.586 1.536 0 2.121.293.293.677.44 1.061.44s.768-.146 1.06-.44l34.019-34.018c.585-.586.585-1.537-.001-2.122z" fill="#3a312a"/></g></g><g><g><path d="m223.671 113.932-34.019-34.019c-.586-.586-1.535-.586-2.121 0-.586.585-.586 1.536 0 2.121l34.018 34.018c.293.293.677.44 1.061.44s.768-.146 1.061-.44c.586-.585.586-1.535 0-2.12z" fill="#3a312a"/></g></g><g><g><path d="m236.433 16.592-101.234 1.71-14.795.25-99.435 1.679c-1.994.034-3.593 1.66-3.593 3.654s1.599 3.62 3.593 3.654l215.465 3.639c2.042.034 3.716-1.612 3.716-3.654v-7.278c-.001-2.042-1.675-3.688-3.717-3.654z" fill="#87796f"/></g></g><g><g><path d="m240.107 16.57c-.972-.956-2.251-1.478-3.61-1.478-.029 0-.06 0-.09.001l-101.234 1.71c-.828.014-1.488.697-1.475 1.525.014.82.683 1.475 1.5 1.475h.025l101.234-1.71c.572-.017 1.131.209 1.546.617.416.409.644.955.644 1.537v7.277c0 .583-.228 1.128-.643 1.537-.417.408-.974.629-1.547.618l-215.463-3.639c-1.168-.02-2.118-.986-2.118-2.154s.95-2.135 2.118-2.154l99.435-1.68c.828-.014 1.488-.697 1.475-1.525-.014-.828-.664-1.457-1.525-1.475l-99.435 1.68c-2.794.047-5.068 2.358-5.068 5.154 0 2.795 2.273 5.107 5.067 5.154l215.464 3.639h.089c1.36 0 2.64-.523 3.612-1.479.993-.976 1.54-2.282 1.54-3.675v-7.277c0-1.395-.546-2.701-1.541-3.678z" fill="#3a312a"/></g></g><g><g><path d="m235.021 40.353-215.416-5.878c-1.993-.054-3.662 1.5-3.751 3.492-.088 1.992 1.437 3.687 3.428 3.809l215.094 13.148c2.039.125 3.784-1.446 3.874-3.487l.321-7.271c.091-2.039-1.509-3.757-3.55-3.813z" fill="#87796f"/></g></g><g><g><path d="m238.694 40.495c-.95-1.02-2.24-1.602-3.633-1.641l-215.415-5.878c-2.794-.062-5.167 2.134-5.29 4.925-.124 2.792 2.045 5.202 4.835 5.372l215.093 13.149c.108.007.216.01.322.01 1.275 0 2.486-.463 3.442-1.324 1.035-.932 1.64-2.211 1.701-3.603l.32-7.27c.063-1.392-.425-2.72-1.375-3.74zm-1.943 10.877c0 .001 0 .001 0 0-.025.582-.277 1.117-.71 1.506-.434.39-.995.582-1.573.549l-215.094-13.148c-1.166-.071-2.072-1.079-2.021-2.246.051-1.147 1.01-2.059 2.153-2.059.019 0 .039.001.058.001l215.415 5.878c.582.016 1.122.259 1.518.686.396.426.601.981.575 1.563z" fill="#3a312a"/></g></g><g><g><path d="m36.389 16.529c-2.978 0-5.393 2.414-5.393 5.393v59.598c0 2.978 2.414 5.393 5.393 5.393 2.978 0 5.393-2.414 5.393-5.393v-59.598c0-2.978-2.415-5.393-5.393-5.393z" fill="#d5de58"/></g></g><g><g><path d="m36.389 15.029c-3.801 0-6.893 3.092-6.893 6.893v59.598c0 3.801 3.092 6.893 6.893 6.893s6.892-3.092 6.892-6.893v-59.598c.001-3.801-3.091-6.893-6.892-6.893zm3.893 66.491c0 2.146-1.746 3.893-3.892 3.893-2.146 0-3.893-1.746-3.893-3.893v-59.598c0-2.146 1.747-3.893 3.893-3.893s3.892 1.746 3.892 3.893z" fill="#3a312a"/></g></g><g><g><path d="m47.174 16.529c-2.978 0-5.393 2.414-5.393 5.393v23.528c0 2.978 2.414 5.392 5.393 5.392 2.978 0 5.393-2.414 5.393-5.392v-23.528c0-2.978-2.415-5.393-5.393-5.393z" fill="#d5de58"/></g></g><g><g><path d="m47.174 15.029c-3.801 0-6.893 3.092-6.893 6.893v23.528c0 3.801 3.092 6.893 6.893 6.893s6.893-3.092 6.893-6.893v-23.528c0-3.801-3.092-6.893-6.893-6.893zm3.893 30.421c0 2.146-1.746 3.893-3.893 3.893s-3.893-1.747-3.893-3.893v-23.528c0-2.146 1.746-3.893 3.893-3.893s3.893 1.746 3.893 3.893z" fill="#3a312a"/></g></g><g><g><path d="m57.959 16.529c-2.978 0-5.393 2.414-5.393 5.393v23.528c0 2.978 2.414 5.392 5.393 5.392 2.978 0 5.393-2.414 5.393-5.392v-23.528c0-2.978-2.414-5.393-5.393-5.393z" fill="#d5de58"/></g></g><g><g><path d="m57.96 15.029c-3.801 0-6.893 3.092-6.893 6.893v23.528c0 3.801 3.092 6.893 6.893 6.893s6.893-3.092 6.893-6.893v-23.528c-.001-3.801-3.093-6.893-6.893-6.893zm3.892 30.421c0 2.146-1.746 3.893-3.893 3.893s-3.893-1.747-3.893-3.893v-23.528c0-2.146 1.746-3.893 3.893-3.893s3.893 1.746 3.893 3.893z" fill="#3a312a"/></g></g><g><g><path d="m68.745 16.529c-2.978 0-5.393 2.414-5.393 5.393v23.528c0 2.978 2.414 5.392 5.393 5.392 2.978 0 5.393-2.414 5.393-5.392v-23.528c-.001-2.978-2.415-5.393-5.393-5.393z" fill="#d5de58"/></g></g><g><g><path d="m68.745 15.029c-3.801 0-6.892 3.092-6.892 6.893v23.528c0 3.801 3.092 6.893 6.892 6.893 3.801 0 6.893-3.092 6.893-6.893v-23.528c-.001-3.801-3.093-6.893-6.893-6.893zm3.892 30.421c0 2.146-1.746 3.893-3.893 3.893s-3.892-1.747-3.892-3.893v-23.528c0-2.146 1.746-3.893 3.892-3.893s3.893 1.746 3.893 3.893z" fill="#3a312a"/></g></g></g></svg>