<svg id="Layer_1" enable-background="new 0 0 256 256" height="512" viewBox="0 0 256 256" width="512" xmlns="http://www.w3.org/2000/svg"><g><g><g><path d="m47.536 26.305c-.974 11.564-13.024 13.39-13.024 13.39 10.347.487 12.925 14.059 12.925 14.059.221-9.677 13.321-14.202 13.321-14.202-9.814-.588-13.222-13.247-13.222-13.247z" fill="#d7e057"/></g></g><g><g><path d="m60.848 38.054c-8.605-.515-11.832-12.024-11.864-12.141-.19-.702-.853-1.162-1.584-1.102-.725.066-1.298.642-1.359 1.367-.86 10.215-11.313 11.964-11.754 12.033-.763.115-1.313.79-1.273 1.561.04.77.657 1.384 1.428 1.421 9.028.425 11.499 12.718 11.523 12.842.137.711.759 1.217 1.472 1.217.041 0 .084-.001.126-.005.764-.064 1.357-.693 1.374-1.459.194-8.508 12.191-12.777 12.313-12.819.675-.235 1.092-.914.994-1.622-.099-.709-.683-1.25-1.396-1.293zm-13.566 10.345c-1.357-3.13-3.709-6.907-7.587-8.876 2.931-1.405 6.409-3.913 8.202-8.272 1.551 3.071 4.2 6.88 8.333 8.722-3.007 1.64-6.922 4.405-8.948 8.426z" fill="#3a312a"/></g></g><g><g><path d="m25.838 43.285c-.689 8.179-9.213 9.471-9.213 9.471 7.318.344 9.142 9.944 9.142 9.944.156-6.844 9.422-10.045 9.422-10.045-6.941-.415-9.351-9.37-9.351-9.37z" fill="#d7e057"/></g></g><g><g><path d="m35.279 51.157c-5.767-.345-7.973-8.185-7.994-8.265-.191-.702-.855-1.163-1.582-1.102-.726.065-1.299.642-1.36 1.368-.579 6.871-7.646 8.067-7.942 8.114-.763.115-1.313.79-1.273 1.561.04.77.657 1.384 1.427 1.421 6.036.284 7.724 8.644 7.739 8.726.135.713.759 1.22 1.472 1.22.042 0 .083-.001.125-.005.765-.063 1.358-.694 1.376-1.461.13-5.709 8.332-8.634 8.413-8.662.677-.234 1.094-.913.996-1.622-.098-.708-.682-1.25-1.397-1.293zm-9.585 6.796c-.924-1.886-2.34-3.947-4.447-5.28 1.855-1.041 3.697-2.63 4.871-4.916 1.057 1.874 2.655 3.954 4.941 5.224-1.849 1.1-3.989 2.74-5.365 4.972z" fill="#3a312a"/></g></g><g><g><path d="m25.838 16.628c-.689 8.179-9.213 9.471-9.213 9.471 7.318.344 9.142 9.944 9.142 9.944.156-6.845 9.422-10.045 9.422-10.045-6.941-.416-9.351-9.37-9.351-9.37z" fill="#d7e057"/></g></g><g><g><path d="m35.279 24.5c-5.767-.345-7.973-8.185-7.994-8.265-.191-.702-.855-1.164-1.582-1.102-.726.065-1.299.642-1.36 1.368-.579 6.871-7.646 8.067-7.942 8.114-.763.115-1.313.79-1.273 1.561.04.77.657 1.384 1.428 1.421 6.035.284 7.723 8.644 7.739 8.726.135.713.759 1.22 1.472 1.22.042 0 .083-.001.125-.005.765-.063 1.358-.694 1.376-1.461.13-5.709 8.331-8.634 8.413-8.662.676-.234 1.094-.913.996-1.622-.099-.708-.683-1.25-1.398-1.293zm-9.585 6.795c-.924-1.885-2.34-3.947-4.447-5.28 1.856-1.041 3.697-2.63 4.871-4.916 1.057 1.874 2.655 3.954 4.941 5.224-1.85 1.1-3.989 2.74-5.365 4.972z" fill="#3a312a"/></g></g><g><g><circle cx="131.625" cy="131.622" fill="#87796f" r="107.75"/></g></g><g><g><path d="m131.625 22.372c-60.241 0-109.25 49.009-109.25 109.25s49.009 109.25 109.25 109.25c60.24 0 109.25-49.009 109.25-109.25s-49.01-109.25-109.25-109.25zm0 215.5c-58.586 0-106.25-47.664-106.25-106.25 0-58.587 47.664-106.25 106.25-106.25 58.587 0 106.25 47.663 106.25 106.25s-47.663 106.25-106.25 106.25z" fill="#3a312a"/></g></g><g><g><path d="m131.625 40.301c-6.054 0-11.969.595-17.693 1.719l-13.858 3.88c-34.887 12.845-59.771 46.377-59.771 85.723 0 50.436 40.886 91.322 91.322 91.322s91.322-40.886 91.322-91.322-40.886-91.322-91.322-91.322z" fill="#87796f"/></g></g><g><g><path d="m131.625 38.8c-6.027 0-12.077.588-17.982 1.748-.813.159-1.342.948-1.183 1.761s.95 1.345 1.761 1.183c5.715-1.122 11.571-1.691 17.404-1.691 49.527 0 89.821 40.294 89.821 89.822s-40.294 89.822-89.821 89.822c-49.528 0-89.822-40.294-89.822-89.822 0-37.485 23.626-71.369 58.789-84.315.778-.286 1.176-1.148.89-1.926s-1.149-1.176-1.926-.89c-36.338 13.379-60.753 48.394-60.753 87.13 0 51.182 41.64 92.822 92.822 92.822s92.821-41.64 92.821-92.822-41.639-92.822-92.821-92.822z" fill="#3a312a"/></g></g><g><g><path d="m211.704 117.083c0-7.798-5.415-14.316-12.686-16.039-3.185-10.394-12.343-18.176-23.472-19.343.101-.524.158-1.064.158-1.618 0-4.694-3.806-8.5-8.5-8.5-1.504 0-2.915.394-4.141 1.08-4.644-8.676-13.783-14.58-24.314-14.58-5.224 0-10.1 1.462-14.259 3.987-2.952-2.775-6.916-4.487-11.287-4.487-7.429 0-13.708 4.911-15.776 11.662-13.99 1.338-24.932 13.12-24.932 27.46 0 1.84.189 3.634.537 5.37-2.083-.95-4.39-1.492-6.829-1.492-9.113 0-16.5 7.387-16.5 16.5 0 5.305 2.514 10.012 6.403 13.03-.65 2.345-1.007 4.812-1.007 7.365 0 11.015 6.464 20.502 15.801 24.917-1.361 1.507-2.196 3.497-2.196 5.688 0 4.694 3.806 8.5 8.5 8.5.881 0 1.73-.134 2.529-.382.226 15.043 12.483 27.17 27.58 27.17 3.274 0 6.412-.573 9.323-1.622 2.863 2.392 6.546 3.834 10.569 3.834 4.176 0 7.978-1.564 10.884-4.121 4.056 2.346 8.757 3.699 13.78 3.699 11.411 0 21.204-6.928 25.402-16.808.622.145 1.267.229 1.934.229 4.694 0 8.5-3.806 8.5-8.5 0-1.513-.399-2.93-1.092-4.16 10.431-3.934 17.854-13.996 17.854-25.805 0-6.377-2.174-12.236-5.812-16.902 7.454-1.586 13.049-8.203 13.049-16.132z" fill="#fce8cb"/></g></g><g><g><path d="m213.204 117.083c0-8.084-5.308-15.072-13.011-17.281-3.473-10.275-12.326-17.72-22.995-19.396.004-.108.006-.215.006-.322 0-5.514-4.486-10-10-10-1.201 0-2.395.219-3.516.641-5.245-8.758-14.674-14.141-24.938-14.141-4.935 0-9.777 1.258-14.078 3.647-3.23-2.682-7.261-4.147-11.468-4.147-7.629 0-14.297 4.693-16.893 11.778-14.5 1.868-25.315 14.1-25.315 28.844 0 1.023.056 2.052.167 3.08-1.611-.467-3.271-.703-4.959-.703-9.925 0-18 8.075-18 18 0 5.257 2.251 10.153 6.211 13.582-.542 2.242-.815 4.529-.815 6.814 0 10.569 5.849 20.366 15.045 25.446-.938 1.549-1.441 3.328-1.441 5.158 0 5.514 4.486 10 10 10 .373 0 .744-.02 1.111-.061 1.156 14.962 13.803 26.849 28.997 26.849 3.089 0 6.124-.483 9.033-1.436 3.116 2.359 6.939 3.649 10.858 3.649 4.009 0 7.893-1.347 11.052-3.813 4.184 2.221 8.868 3.391 13.612 3.391 11.297 0 21.49-6.49 26.295-16.636 5.988.662 11.041-4.085 11.041-9.942 0-1.146-.2-2.285-.585-3.361 10.439-4.615 17.347-15.11 17.347-26.604 0-5.78-1.666-11.282-4.84-16.039 7.116-2.488 12.079-9.311 12.079-16.997zm-14.862 14.666c-.506.108-.92.468-1.097.954s-.092 1.028.227 1.436c3.594 4.61 5.494 10.136 5.494 15.979 0 10.786-6.785 20.593-16.883 24.402-.409.154-.731.479-.881.891-.149.411-.111.867.103 1.248.589 1.045.899 2.23.899 3.425 0 3.86-3.141 7-7 7-.516 0-1.052-.064-1.593-.19-.707-.163-1.437.203-1.722.874-4.104 9.656-13.533 15.894-24.021 15.894-4.568 0-9.074-1.209-13.029-3.497-.556-.322-1.257-.253-1.742.172-2.745 2.417-6.259 3.747-9.893 3.747-3.505 0-6.917-1.238-9.607-3.486-.274-.229-.616-.349-.962-.349-.171 0-.343.029-.508.089-2.824 1.018-5.79 1.533-8.815 1.533-14.168 0-25.867-11.525-26.08-25.692-.007-.473-.237-.915-.62-1.192s-.874-.357-1.326-.217c-.671.208-1.372.314-2.082.314-3.86 0-7-3.14-7-7 0-1.727.643-3.39 1.81-4.683.318-.352.451-.835.357-1.299-.093-.465-.4-.859-.83-1.062-9.077-4.292-14.942-13.54-14.942-23.561 0-2.339.321-4.682.953-6.965.163-.586-.045-1.212-.526-1.586-3.7-2.872-5.823-7.189-5.823-11.845 0-8.271 6.729-15 15-15 2.142 0 4.23.457 6.206 1.357.511.233 1.113.161 1.554-.189s.649-.918.539-1.47c-.336-1.682-.507-3.389-.507-5.075 0-13.519 10.135-24.682 23.575-25.967.604-.058 1.114-.474 1.291-1.054 1.942-6.341 7.706-10.602 14.342-10.602 3.817 0 7.46 1.449 10.259 4.08.491.461 1.229.54 1.806.189 4.063-2.466 8.725-3.769 13.481-3.769 9.628 0 18.438 5.283 22.991 13.788.189.355.515.619.901.731.386.114.803.067 1.153-.13 1.04-.582 2.219-.889 3.408-.889 3.859 0 7 3.14 7 7 0 .432-.044.881-.132 1.336-.079.413.018.839.27 1.177.25.337.63.554 1.048.598 10.412 1.091 19.124 8.271 22.193 18.291.156.509.57.897 1.089 1.02 6.79 1.609 11.532 7.605 11.532 14.58.002 7.032-4.986 13.2-11.86 14.664z" fill="#3a312a"/></g></g><g><g><circle cx="89.204" cy="76.083" fill="#d6df58" r="21.5"/></g></g><g><g><path d="m89.204 53.083c-12.682 0-23 10.318-23 23s10.318 23 23 23 23-10.318 23-23-10.318-23-23-23zm0 43c-11.028 0-20-8.972-20-20s8.972-20 20-20 20 8.972 20 20-8.972 20-20 20z" fill="#3a312a"/></g></g><g><g><circle cx="89.204" cy="76.083" fill="#fce8cb" r="15.5"/></g></g><g><g><path d="m89.204 59.083c-9.374 0-17 7.626-17 17s7.626 17 17 17 17-7.626 17-17-7.626-17-17-17zm0 31c-7.72 0-14-6.28-14-14s6.28-14 14-14 14 6.28 14 14-6.28 14-14 14z" fill="#3a312a"/></g></g><g><g><path d="m81.588 71.086c-.205-.205-2.023.087-2.963 1.027s-.975 1.842-.44 2.376c.535.535 1.437.5 2.377-.44.939-.939 1.231-2.757 1.026-2.963z" fill="#87796f"/></g></g><g><g><path d="m90.471 64.419c-1.329 0-1.992.613-1.992 1.369s.663 1.369 1.992 1.369 2.821-1.079 2.821-1.369c.001-.29-1.492-1.369-2.821-1.369z" fill="#87796f"/></g></g><g><g><path d="m82.471 77.419c-1.329 0-1.992.613-1.992 1.369s.663 1.369 1.992 1.369 2.821-1.079 2.821-1.369c.001-.29-1.492-1.369-2.821-1.369z" fill="#87796f"/></g></g><g><g><path d="m87.561 84.526c-.94-.94-1.842-.975-2.377-.44s-.5 1.437.44 2.377 2.758 1.232 2.963 1.027c.206-.206-.086-2.024-1.026-2.964z" fill="#87796f"/></g></g><g><g><path d="m88.301 71.419c-1.329 0-2.821 1.079-2.821 1.369s1.492 1.369 2.821 1.369 1.992-.613 1.992-1.369-.663-1.369-1.992-1.369z" fill="#87796f"/></g></g><g><g><path d="m98.886 70.382c-.291 0-1.369 1.492-1.369 2.821s.613 1.992 1.369 1.992 1.369-.663 1.369-1.992-1.078-2.821-1.369-2.821z" fill="#87796f"/></g></g><g><g><path d="m94.588 77.086c-.535-.535-1.437-.5-2.377.44s-1.232 2.758-1.027 2.963 2.023-.087 2.963-1.027c.94-.939.975-1.841.441-2.376z" fill="#87796f"/></g></g><g><g><path d="m96.588 83.086c-.205-.205-2.023.087-2.963 1.027s-.975 1.842-.44 2.377 1.437.5 2.377-.44c.939-.94 1.231-2.758 1.026-2.964z" fill="#87796f"/></g></g><g><g><circle cx="63.204" cy="120.083" fill="#ef6d7a" r="21.5"/></g></g><g><g><path d="m63.204 97.083c-12.682 0-23 10.318-23 23s10.318 23 23 23 23-10.318 23-23-10.318-23-23-23zm0 43c-11.028 0-20-8.972-20-20s8.972-20 20-20 20 8.972 20 20-8.972 20-20 20z" fill="#3a312a"/></g></g><g><g><circle cx="63.204" cy="120.083" fill="#ef6d7a" r="15.5"/></g></g><g><g><path d="m63.204 103.083c-9.374 0-17 7.626-17 17s7.626 17 17 17 17-7.626 17-17-7.626-17-17-17zm0 31c-7.72 0-14-6.28-14-14s6.28-14 14-14 14 6.28 14 14-6.28 14-14 14z" fill="#3a312a"/></g></g><g><g><path d="m58.471 109.419c-1.329 0-1.992.613-1.992 1.369s.663 1.369 1.992 1.369 2.821-1.079 2.821-1.369c.001-.29-1.492-1.369-2.821-1.369z" fill="#fce8cb"/></g></g><g><g><path d="m58.471 115.419c-1.329 0-1.992.613-1.992 1.369s.663 1.369 1.992 1.369 2.821-1.079 2.821-1.369c.001-.29-1.492-1.369-2.821-1.369z" fill="#fce8cb"/></g></g><g><g><path d="m58.471 121.419c-1.329 0-1.992.613-1.992 1.369s.663 1.369 1.992 1.369 2.821-1.079 2.821-1.369c.001-.29-1.492-1.369-2.821-1.369z" fill="#fce8cb"/></g></g><g><g><path d="m58.471 127.419c-1.329 0-1.992.613-1.992 1.369s.663 1.369 1.992 1.369 2.821-1.079 2.821-1.369c.001-.29-1.492-1.369-2.821-1.369z" fill="#fce8cb"/></g></g><g><g><path d="m67.301 109.419c-1.329 0-2.821 1.079-2.821 1.369s1.492 1.369 2.821 1.369 1.992-.613 1.992-1.369-.663-1.369-1.992-1.369z" fill="#fce8cb"/></g></g><g><g><path d="m67.301 115.419c-1.329 0-2.821 1.079-2.821 1.369s1.492 1.369 2.821 1.369 1.992-.613 1.992-1.369-.663-1.369-1.992-1.369z" fill="#fce8cb"/></g></g><g><g><path d="m67.301 121.419c-1.329 0-2.821 1.079-2.821 1.369s1.492 1.369 2.821 1.369 1.992-.613 1.992-1.369-.663-1.369-1.992-1.369z" fill="#fce8cb"/></g></g><g><g><path d="m67.301 127.419c-1.329 0-2.821 1.079-2.821 1.369s1.492 1.369 2.821 1.369 1.992-.613 1.992-1.369-.663-1.369-1.992-1.369z" fill="#fce8cb"/></g></g><g><g><path d="m106.677 162.001-10.199-10.659c-11.19-7.066-27.963-9.307-36.61-.659-10.251 10.251-5.203 31.921 5.049 42.172 10.251 10.251 26.872 10.251 37.123 0 8.353-8.353 9.898-20.935 4.637-30.854z" fill="#fce8cb"/></g></g><g><g><path d="m108.003 161.298c-.389-.732-1.297-1.011-2.028-.622-.732.388-1.011 1.296-.623 2.028 5.123 9.661 3.366 21.352-4.373 29.091-4.675 4.675-10.89 7.249-17.501 7.249s-12.827-2.574-17.501-7.249c-4.827-4.827-8.579-12.59-9.792-20.26-1.325-8.379.359-15.407 4.743-19.791 8.086-8.085 24.019-5.91 34.749.867.701.443 1.627.234 2.069-.467.442-.7.233-1.627-.467-2.069-11.726-7.406-29.322-9.6-38.472-.452-10.568 10.568-6.057 33.188 5.048 44.293 5.41 5.41 12.516 8.115 19.622 8.115s14.212-2.705 19.622-8.115c8.678-8.677 10.649-21.785 4.904-32.618z" fill="#3a312a"/></g></g><g><g><circle cx="83.478" cy="174.294" fill="#d6df58" r="13.44"/></g></g><g><g><path d="m94.042 163.73c-5.825-5.826-15.303-5.825-21.128 0s-5.825 15.303 0 21.128c2.913 2.913 6.738 4.369 10.564 4.369s7.652-1.457 10.564-4.369c5.826-5.825 5.826-15.304 0-21.128zm-2.121 19.006c-4.655 4.655-12.23 4.655-16.886 0-4.655-4.655-4.655-12.23 0-16.886 2.328-2.327 5.385-3.491 8.443-3.491s6.116 1.164 8.443 3.491c4.656 4.656 4.656 12.231 0 16.886z" fill="#3a312a"/></g></g><g><g><path d="m174.765 93.523-4-4c-.586-.586-1.535-.586-2.121 0-.586.585-.586 1.536 0 2.121l4 4c.293.293.677.439 1.061.439s.768-.146 1.061-.439c.585-.586.585-1.536-.001-2.121z" fill="#3a312a"/></g></g><g><g><path d="m122.765 116.523-4-4c-.586-.586-1.535-.586-2.121 0-.586.585-.586 1.536 0 2.121l4 4c.293.293.677.439 1.061.439s.768-.146 1.06-.439c.586-.586.586-1.536 0-2.121z" fill="#3a312a"/></g></g><g><g><path d="m154.765 143.523-4-4c-.586-.586-1.535-.586-2.121 0-.586.585-.586 1.536 0 2.121l4 4c.293.293.677.439 1.061.439s.768-.146 1.061-.439c.585-.586.585-1.536-.001-2.121z" fill="#3a312a"/></g></g><g><g><path d="m181.765 139.523c-.586-.586-1.535-.586-2.121 0l-4 4c-.586.585-.586 1.536 0 2.121.293.293.677.439 1.061.439s.768-.146 1.061-.439l4-4c.585-.586.585-1.536-.001-2.121z" fill="#3a312a"/></g></g><g><g><path d="m143.265 90.023c-.586-.586-1.535-.586-2.121 0l-4 4c-.586.585-.586 1.536 0 2.121.293.293.677.439 1.061.439s.768-.146 1.061-.439l4-4c.585-.586.585-1.536-.001-2.121z" fill="#3a312a"/></g></g><g><g><path d="m160.265 118.023c-.586-.586-1.535-.586-2.121 0l-4 4c-.586.585-.586 1.536 0 2.121.293.293.677.439 1.061.439s.768-.146 1.061-.439l4-4c.585-.586.585-1.536-.001-2.121z" fill="#3a312a"/></g></g><g><g><path d="m186.032 118.583h-5.656c-.828 0-1.5.671-1.5 1.5s.672 1.5 1.5 1.5h5.656c.828 0 1.5-.671 1.5-1.5s-.672-1.5-1.5-1.5z" fill="#3a312a"/></g></g><g><g><path d="m111.032 138.583h-5.657c-.829 0-1.5.671-1.5 1.5s.671 1.5 1.5 1.5h5.657c.829 0 1.5-.671 1.5-1.5s-.671-1.5-1.5-1.5z" fill="#3a312a"/></g></g><g><g><path d="m172.032 159.583h-5.656c-.828 0-1.5.671-1.5 1.5s.672 1.5 1.5 1.5h5.656c.828 0 1.5-.671 1.5-1.5s-.672-1.5-1.5-1.5z" fill="#3a312a"/></g></g><g><g><path d="m101.265 119.023c-.586-.586-1.535-.586-2.121 0l-4 4c-.586.585-.586 1.536 0 2.121.293.293.677.439 1.061.439s.768-.146 1.061-.439l4-4c.585-.586.585-1.536-.001-2.121z" fill="#3a312a"/></g></g><g><g><path d="m132.265 151.023c-.586-.586-1.535-.586-2.121 0l-4 4c-.586.585-.586 1.536 0 2.121.293.293.677.439 1.061.439s.768-.146 1.061-.439l4-4c.585-.586.585-1.536-.001-2.121z" fill="#3a312a"/></g></g><g><g><path d="m151.204 168.755c-.828 0-1.5.671-1.5 1.5v5.657c0 .829.672 1.5 1.5 1.5s1.5-.671 1.5-1.5v-5.657c0-.829-.672-1.5-1.5-1.5z" fill="#3a312a"/></g></g><g><g><path d="m111.204 90.755c-.829 0-1.5.671-1.5 1.5v5.657c0 .829.671 1.5 1.5 1.5s1.5-.671 1.5-1.5v-5.657c0-.829-.671-1.5-1.5-1.5z" fill="#3a312a"/></g></g><g><g><path d="m121.265 76.023-4-4c-.586-.586-1.535-.586-2.121 0-.586.585-.586 1.536 0 2.121l4 4c.293.293.677.439 1.061.439s.768-.146 1.06-.439c.586-.586.586-1.536 0-2.121z" fill="#3a312a"/></g></g><g><g><path d="m124.765 182.523-4-4c-.586-.586-1.535-.586-2.121 0-.586.585-.586 1.536 0 2.121l4 4c.293.293.677.439 1.061.439s.768-.146 1.06-.439c.586-.586.586-1.536 0-2.121z" fill="#3a312a"/></g></g><g><g><path d="m131.629 41.807c-2.52 0-5.02.1-7.49.31 35.12 2.92 64.56 26.13 76.54 57.84 7.44 2.36 12.53 9.22 12.53 17.13 0 5.58-2.61 10.7-6.77 14.04.01.17.01.33.01.5 0 4.46-.33 8.85-.97 13.14.32 1.75.49 3.54.49 5.36 0 7.74-3.13 15.02-8.36 20.36-13.49 27.98-41.05 47.95-73.45 50.64 2.46.22 4.95.32 7.47.32 49.53 0 89.82-40.29 89.82-89.82s-40.29-89.82-89.82-89.82z" fill="#695b51"/></g></g></g></svg>