<svg id="Layer_1" enable-background="new 0 0 256 256" height="512" viewBox="0 0 256 256" width="512" xmlns="http://www.w3.org/2000/svg"><g><g><g><path d="m69.47 26.445c-.974 11.564-13.025 13.39-13.025 13.39 10.347.487 12.925 14.059 12.925 14.059.221-9.677 13.321-14.202 13.321-14.202-9.813-.588-13.221-13.247-13.221-13.247z" fill="#d7e057"/></g></g><g><g><path d="m82.781 38.194c-8.605-.514-11.832-12.024-11.864-12.14-.191-.703-.866-1.164-1.583-1.102-.725.066-1.298.642-1.359 1.367-.86 10.215-11.313 11.964-11.754 12.032-.763.116-1.313.791-1.273 1.561s.657 1.385 1.428 1.421c9.028.425 11.498 12.718 11.522 12.843.137.711.759 1.217 1.472 1.217.042 0 .084-.002.126-.005.764-.064 1.357-.693 1.375-1.46.195-8.509 12.192-12.777 12.313-12.819.675-.234 1.092-.914.994-1.622-.099-.71-.683-1.251-1.397-1.293zm-13.566 10.346c-1.356-3.131-3.709-6.907-7.587-8.877 2.931-1.404 6.409-3.912 8.202-8.273 1.551 3.071 4.2 6.88 8.334 8.723-3.007 1.64-6.922 4.406-8.949 8.427z" fill="#3a312a"/></g></g><g><g><path d="m47.771 43.425c-.689 8.179-9.213 9.471-9.213 9.471 7.318.344 9.142 9.944 9.142 9.944.156-6.845 9.422-10.045 9.422-10.045-6.94-.416-9.351-9.37-9.351-9.37z" fill="#d7e057"/></g></g><g><g><path d="m57.212 51.298c-5.766-.345-7.972-8.186-7.993-8.265-.19-.702-.85-1.168-1.582-1.102-.726.066-1.299.643-1.36 1.368-.579 6.87-7.647 8.066-7.943 8.113-.763.116-1.314.791-1.274 1.56.04.771.657 1.385 1.428 1.421 6.035.284 7.724 8.644 7.739 8.726.135.713.759 1.22 1.473 1.22.041 0 .083-.002.125-.005.765-.063 1.358-.693 1.376-1.461.13-5.708 8.332-8.633 8.412-8.661.677-.234 1.094-.913.996-1.622-.097-.708-.682-1.25-1.397-1.292zm-9.584 6.794c-.924-1.885-2.34-3.946-4.447-5.279 1.855-1.041 3.697-2.63 4.871-4.916 1.057 1.874 2.654 3.954 4.941 5.224-1.85 1.1-3.989 2.739-5.365 4.971z" fill="#3a312a"/></g></g><g><g><path d="m47.771 16.768c-.689 8.18-9.213 9.471-9.213 9.471 7.318.344 9.142 9.944 9.142 9.944.156-6.844 9.422-10.045 9.422-10.045-6.94-.416-9.351-9.37-9.351-9.37z" fill="#d7e057"/></g></g><g><g><path d="m57.213 24.641c-5.766-.346-7.972-8.187-7.994-8.266-.19-.702-.85-1.16-1.582-1.102-.726.065-1.299.643-1.36 1.368-.579 6.871-7.647 8.066-7.943 8.113-.763.116-1.313.791-1.274 1.56.04.771.657 1.385 1.427 1.421 6.036.284 7.724 8.645 7.74 8.727.135.713.759 1.22 1.472 1.22.042 0 .083-.002.125-.005.765-.063 1.358-.693 1.376-1.461.13-5.709 8.331-8.633 8.412-8.661.676-.233 1.094-.913.996-1.622-.096-.708-.681-1.249-1.395-1.292zm-9.585 6.794c-.924-1.886-2.34-3.947-4.447-5.279 1.855-1.041 3.697-2.63 4.871-4.917 1.057 1.874 2.654 3.955 4.941 5.225-1.849 1.099-3.989 2.739-5.365 4.971z" fill="#3a312a"/></g></g><g><g><path d="m197.345 156.605c0-4.774-1.979-9.077-5.165-12.16 4.141-3.082 6.833-7.994 6.833-13.55 0-6.073-3.221-11.388-8.029-14.379 3.969-3.094 6.534-7.914 6.534-13.332 0-6.177-3.324-11.561-8.259-14.517 2.554-2.968 4.107-6.81 4.107-11.032 0-7.442-4.797-13.734-11.469-16.012 1.795-2.681 2.841-5.901 2.841-9.375 0-8.869-6.81-16.128-15.495-16.852.034-.415.069-.817.069-1.231 0-9.353-7.581-16.933-16.921-16.933-9.352 0-16.933 7.58-16.933 16.933 0 .414.035.84.069 1.254-8.524.874-15.161 8.075-15.161 16.829 0 3.474 1.047 6.694 2.841 9.375-6.672 2.277-11.469 8.57-11.469 16.012 0 4.223 1.553 8.064 4.107 11.032-4.935 2.956-8.259 8.34-8.259 14.517 0 5.418 2.565 10.238 6.534 13.332-4.808 2.991-8.029 8.306-8.029 14.379 0 5.556 2.692 10.468 6.833 13.55-3.186 3.083-5.165 7.385-5.165 12.16 0 6.062 3.187 11.354 7.972 14.344-2.082 2.819-3.336 6.281-3.336 10.054 0 7.005 4.256 13.01 10.318 15.587-1.38 2.45-2.186 5.28-2.186 8.306 0 8.685 6.545 15.828 14.966 16.794-.012.207-.035.414-.035.622 0 6.43 3.578 12.02 8.869 14.873h.011c2.393 1.312 5.142 2.048 8.052 2.048 3.048 0 5.901-.806 8.374-2.221 5.107-2.91 8.547-8.397 8.547-14.701 0-.196-.023-.38-.035-.575 8.582-.829 15.299-8.052 15.299-16.841 0-3.026-.805-5.855-2.186-8.306 6.062-2.576 10.318-8.582 10.318-15.587 0-3.773-1.254-7.235-3.336-10.054 4.788-2.99 7.974-8.281 7.974-14.343z" fill="#d7e057"/></g></g><g><g><path d="m198.845 156.605c0-4.466-1.575-8.674-4.467-12.017 3.918-3.491 6.135-8.396 6.135-13.692 0-5.73-2.619-11.021-7.096-14.508 3.581-3.461 5.601-8.173 5.601-13.203 0-5.96-2.804-11.404-7.577-14.872 2.219-3.113 3.425-6.846 3.425-10.678 0-7.261-4.263-13.781-10.778-16.753 1.411-2.646 2.15-5.598 2.15-8.634 0-9.01-6.667-16.725-15.426-18.169-.047-10.124-8.292-18.347-18.421-18.347-10.15 0-18.411 8.248-18.433 18.395-8.698 1.569-15.092 9.123-15.092 18.121 0 3.037.739 5.987 2.15 8.634-6.515 2.972-10.777 9.492-10.777 16.753 0 3.832 1.206 7.564 3.424 10.678-4.774 3.468-7.577 8.913-7.577 14.872 0 5.031 2.019 9.743 5.6 13.203-4.476 3.486-7.096 8.777-7.096 14.508 0 5.297 2.216 10.201 6.135 13.692-2.893 3.343-4.467 7.551-4.467 12.017 0 5.864 2.736 11.267 7.394 14.739-1.809 2.918-2.757 6.228-2.757 9.659 0 6.87 3.793 13.098 9.786 16.278-1.085 2.39-1.654 4.992-1.654 7.614 0 8.898 6.334 16.442 14.943 18.079.232 6.517 3.884 12.424 9.646 15.53.034.019.068.035.104.051 2.641 1.424 5.637 2.177 8.672 2.177 3.2 0 6.354-.836 9.116-2.417 5.526-3.149 9.037-8.951 9.29-15.27 8.803-1.508 15.279-9.08 15.279-18.149 0-2.622-.568-5.226-1.653-7.614 5.993-3.181 9.786-9.408 9.786-16.278 0-3.432-.949-6.74-2.758-9.659 4.655-3.473 7.393-8.876 7.393-14.74zm-10.267 13.072c-.354.222-.601.581-.679.992-.078.41.019.835.268 1.172 1.99 2.694 3.042 5.862 3.042 9.162 0 6.201-3.691 11.777-9.405 14.206-.393.167-.696.494-.833.898-.138.403-.097.848.113 1.219 1.304 2.311 1.992 4.93 1.992 7.569 0 7.982-5.994 14.58-13.943 15.347-.803.078-1.401.777-1.352 1.583l.016.223c.007.088.016.173.016.263 0 5.526-2.984 10.66-7.792 13.4-4.533 2.594-10.419 2.646-14.961.159-.036-.02-.074-.038-.112-.056-4.93-2.701-7.988-7.866-7.988-13.503 0-.104.009-.207.017-.311l.016-.226c.045-.794-.537-1.484-1.327-1.575-7.774-.892-13.636-7.471-13.636-15.304 0-2.64.689-5.257 1.992-7.569.209-.372.251-.816.113-1.22-.137-.403-.44-.73-.833-.897-5.713-2.429-9.405-8.005-9.405-14.206 0-3.3 1.052-6.469 3.042-9.162.249-.337.345-.762.267-1.172-.078-.411-.324-.77-.679-.992-4.55-2.843-7.267-7.73-7.267-13.072 0-4.208 1.672-8.144 4.708-11.081.316-.306.482-.735.454-1.175-.029-.439-.248-.844-.602-1.106-3.958-2.946-6.229-7.446-6.229-12.347 0-5.355 2.737-10.254 7.321-13.105.417-.259.68-.704.706-1.194.026-.489-.189-.961-.576-1.262-3.785-2.952-5.956-7.38-5.956-12.149 0-5.46 2.815-10.406 7.53-13.23.379-.228.639-.611.71-1.048.07-.437-.055-.882-.344-1.218-2.414-2.806-3.744-6.376-3.744-10.054 0-6.594 4.201-12.458 10.453-14.592.441-.151.787-.498.937-.939s.085-.928-.174-1.314c-1.693-2.529-2.588-5.483-2.588-8.541 0-7.936 5.939-14.529 13.815-15.337.813-.083 1.41-.804 1.342-1.619-.032-.372-.064-.755-.064-1.127 0-8.51 6.923-15.433 15.433-15.433 8.503 0 15.421 6.923 15.421 15.433 0 .361-.03.713-.063 1.107-.068.825.545 1.549 1.37 1.618 7.917.66 14.119 7.406 14.119 15.357 0 3.058-.894 6.012-2.588 8.541-.259.387-.323.873-.174 1.314s.495.788.936.939c6.252 2.134 10.453 7.998 10.453 14.592 0 3.679-1.33 7.249-3.744 10.054-.289.335-.415.781-.344 1.218.07.436.33.82.71 1.048 4.715 2.824 7.53 7.77 7.53 13.23 0 4.77-2.171 9.197-5.957 12.149-.386.301-.6.772-.575 1.262.026.49.29.936.706 1.194 4.584 2.852 7.321 7.75 7.321 13.105 0 4.9-2.27 9.4-6.229 12.347-.354.263-.573.667-.602 1.106-.028.439.138.869.454 1.175 3.036 2.938 4.708 6.873 4.708 11.081.001 5.343-2.716 10.23-7.266 13.073z" fill="#3a312a"/></g></g><g><g><path d="m161.321 52.849h21.09v35.563h-21.09z" fill="#87796f" transform="matrix(.941 -.338 .338 .941 -13.754 62.148)"/></g></g><g><g><path d="m189.205 83.304-12.003-33.476c-.28-.781-1.14-1.185-1.918-.906l-19.852 7.117c-.78.279-1.186 1.139-.906 1.918l12.002 33.477c.135.375.412.681.772.851.202.096.421.143.641.143.171 0 .342-.029.506-.088l19.852-7.118c.375-.135.681-.412.851-.771.169-.361.189-.773.055-1.147zm-20.359 5.706-10.989-30.652 17.028-6.105 10.99 30.652z" fill="#3a312a"/></g></g><g><g><path d="m95.546 57.443h21.089v35.563h-21.089z" fill="#87796f" transform="matrix(.958 -.288 .288 .958 -17.163 33.721)"/></g></g><g><g><path d="m122.744 88.786-10.237-34.058c-.115-.381-.375-.701-.726-.89s-.762-.229-1.142-.115l-20.197 6.071c-.794.238-1.243 1.075-1.005 1.868l10.237 34.058c.115.381.376.701.726.89.22.118.465.179.71.179.145 0 .291-.021.432-.063l20.197-6.071c.793-.239 1.243-1.076 1.005-1.869zm-20.629 4.635-9.373-31.185 17.324-5.208 9.374 31.185z" fill="#3a312a"/></g></g><g><g><ellipse cx="110.973" cy="101.851" fill="#f16c7a" rx="17.575" ry="17.575" transform="matrix(.381 -.925 .925 .381 -25.452 165.702)"/></g></g><g><g><path d="m110.973 82.776c-10.518 0-19.075 8.557-19.075 19.075s8.557 19.074 19.075 19.074 19.075-8.557 19.075-19.074c0-10.518-8.557-19.075-19.075-19.075zm0 35.15c-8.864 0-16.075-7.211-16.075-16.074 0-8.864 7.211-16.075 16.075-16.075s16.075 7.211 16.075 16.075c-.001 8.863-7.212 16.074-16.075 16.074z" fill="#3a312a"/></g></g><g><g><path d="m150.171 108.908c-9.706 0-17.575 7.868-17.575 17.575 0 9.706 7.869 17.574 17.575 17.574s17.575-7.868 17.575-17.574c0-9.707-7.869-17.575-17.575-17.575z" fill="#f16c7a"/></g></g><g><g><path d="m150.171 107.407c-10.518 0-19.074 8.557-19.074 19.075s8.557 19.074 19.074 19.074c10.519 0 19.075-8.557 19.075-19.074 0-10.518-8.557-19.075-19.075-19.075zm0 35.15c-8.863 0-16.074-7.211-16.074-16.074 0-8.864 7.211-16.075 16.074-16.075 8.864 0 16.075 7.211 16.075 16.075 0 8.863-7.211 16.074-16.075 16.074z" fill="#3a312a"/></g></g><g><g><ellipse cx="146.164" cy="56.782" fill="#f16c7a" rx="17.575" ry="17.575" transform="matrix(.998 -.071 .071 .998 -3.649 10.478)"/></g></g><g><g><path d="m146.164 37.707c-10.518 0-19.074 8.557-19.074 19.075s8.557 19.074 19.074 19.074c10.519 0 19.075-8.557 19.075-19.074 0-10.518-8.556-19.075-19.075-19.075zm0 35.149c-8.863 0-16.074-7.211-16.074-16.074 0-8.864 7.211-16.075 16.074-16.075 8.864 0 16.075 7.211 16.075 16.075s-7.211 16.074-16.075 16.074z" fill="#3a312a"/></g></g><g><g><ellipse cx="139.328" cy="91.333" fill="#fce8cb" rx="17.575" ry="17.575" transform="matrix(.379 -.926 .926 .379 2.043 185.709)"/></g></g><g><g><path d="m139.328 72.258c-10.518 0-19.075 8.557-19.075 19.075s8.557 19.074 19.075 19.074 19.074-8.557 19.074-19.074c0-10.519-8.556-19.075-19.074-19.075zm0 35.149c-8.863 0-16.075-7.211-16.075-16.074 0-8.864 7.211-16.075 16.075-16.075s16.074 7.211 16.074 16.075c0 8.863-7.211 16.074-16.074 16.074z" fill="#3a312a"/></g></g><g><g><path d="m159.521 101.644h21.09v35.563h-21.09z" fill="#87796f" transform="matrix(.768 -.641 .641 .768 -37.017 136.792)"/></g></g><g><g><path d="m190.71 125.352-22.798-27.295c-.531-.635-1.476-.721-2.113-.189l-16.186 13.52c-.305.255-.496.621-.532 1.018-.035.396.088.79.343 1.096l22.798 27.295c.297.354.723.538 1.152.538.339 0 .68-.114.961-.349l16.186-13.52c.305-.255.496-.621.532-1.017.035-.397-.088-.792-.343-1.097zm-17.149 12.368-20.874-24.992 13.884-11.596 20.874 24.992z" fill="#3a312a"/></g></g><g><g><path d="m116.652 104.547h35.563v21.09h-35.563z" fill="#87796f" transform="matrix(.188 -.982 .982 .188 -3.911 225.453)"/></g></g><g><g><path d="m148.42 98.141-20.712-3.971c-.39-.073-.794.009-1.124.232s-.557.568-.631.959l-6.696 34.927c-.075.391.008.795.232 1.124.223.329.568.557.959.632l20.712 3.971c.094.018.188.026.282.026.298 0 .592-.089.842-.259.329-.223.557-.568.632-.959l6.695-34.927c.156-.813-.378-1.599-1.191-1.755zm-8.168 34.644-17.767-3.405 6.131-31.98 17.765 3.405z" fill="#3a312a"/></g></g><g><g><path d="m205.408 68.382c-1.644-4.249-5.04-7.645-9.289-9.289-14.965-5.79-28.979 8.225-23.189 23.189 1.644 4.248 5.04 7.645 9.289 9.289 14.964 5.791 28.979-8.224 23.189-23.189z" fill="#f16c7a"/></g></g><g><g><path d="m206.808 67.841c-1.799-4.649-5.497-8.348-10.146-10.146-7.483-2.895-15.522-1.305-20.98 4.15-5.456 5.456-7.047 13.495-4.15 20.98 1.799 4.648 5.497 8.347 10.146 10.147 2.472.956 5.005 1.423 7.484 1.423 5.028 0 9.841-1.92 13.494-5.573 5.456-5.457 7.047-13.496 4.152-20.981zm-6.273 18.859c-4.604 4.602-11.414 5.933-17.775 3.474-3.864-1.496-6.938-4.569-8.432-8.432-2.461-6.361-1.13-13.172 3.474-17.776 3.075-3.074 7.135-4.689 11.388-4.689 2.114 0 4.276.399 6.389 1.217 3.863 1.494 6.936 4.566 8.43 8.43 2.462 6.36 1.131 13.172-3.474 17.776z" fill="#3a312a"/></g></g><g><g><path d="m217.441 76.012c-70.382 0-123.536 63.813-110.813 133.037l5.548 30.184h75.265z" fill="#f8e4c8"/></g></g><g><g><path d="m218.594 75.052c-.285-.342-.707-.54-1.152-.54-33.993 0-65.968 14.98-87.724 41.1s-30.71 60.275-24.565 93.709l5.548 30.184c.131.712.751 1.229 1.475 1.229h75.265c.724 0 1.345-.517 1.476-1.229l30-163.221c.08-.439-.038-.89-.323-1.232zm-32.402 162.68h-72.767l-5.322-28.955c-5.983-32.555 2.735-65.813 23.92-91.246 20.799-24.971 51.189-39.485 83.614-40.005z" fill="#3a312a"/></g></g><g><g><path d="m82.176 76.012 8.874 48.28 2.68 14.579 18.446 100.36h75.265l5.548-30.184c12.723-69.221-40.43-133.035-110.813-133.035z" fill="#f8e4c8"/></g></g><g><g><path d="m169.899 115.611c-21.756-26.119-53.73-41.1-87.723-41.1-.445 0-.868.198-1.152.54-.285.342-.403.793-.323 1.231l8.874 48.28c.15.814.941 1.35 1.746 1.204.815-.15 1.354-.932 1.204-1.747l-8.545-46.493c32.425.52 62.815 15.034 83.615 40.005 21.185 25.433 29.902 58.69 23.919 91.245l-5.321 28.955h-72.767l-18.221-99.131c-.149-.814-.932-1.355-1.746-1.204-.815.15-1.354.932-1.204 1.747l18.446 100.359c.131.712.751 1.229 1.475 1.229h75.265c.724 0 1.345-.517 1.476-1.229l5.548-30.184c6.144-33.432-2.809-67.588-24.566-93.707z" fill="#3a312a"/></g></g><g><g><path d="m84.999 160.215 16.105 70.514c1.136 4.975 5.561 8.503 10.664 8.503h76.081c5.103 0 9.528-3.528 10.664-8.503l16.105-70.514z" fill="#8ac6dd"/></g></g><g><g><path d="m215.791 159.279c-.284-.356-.717-.564-1.173-.564h-129.619c-.457 0-.888.208-1.173.564-.285.357-.391.824-.29 1.27l16.105 70.514c1.3 5.693 6.287 9.669 12.126 9.669h76.081c5.839 0 10.826-3.975 12.126-9.669l16.104-70.514c.105-.445-.003-.912-.287-1.27zm-18.739 71.116c-.987 4.32-4.771 7.337-9.202 7.337h-76.081c-4.431 0-8.215-3.017-9.202-7.337l-15.686-68.68h125.857z" fill="#3a312a"/></g></g><g><g><path d="m84.999 160.215 68.883 12.531 14.134 2.571 28.555 5.195 18.047-20.297z" fill="#87796f"/></g></g><g><g><path d="m215.986 159.601c-.242-.539-.777-.886-1.368-.886h-129.619c-.776 0-1.424.592-1.494 1.365-.069.773.462 1.472 1.226 1.61l68.883 12.531c.814.151 1.596-.391 1.744-1.207.148-.815-.392-1.596-1.207-1.744l-52.525-9.556h109.652l-15.267 17.17-27.727-5.043c-.818-.153-1.596.392-1.744 1.207-.148.816.393 1.596 1.207 1.744l28.556 5.194c.09.017.18.024.269.024.424 0 .834-.18 1.121-.503l18.047-20.297c.392-.44.488-1.07.246-1.609z" fill="#3a312a"/></g></g><g><g><circle cx="149.809" cy="199.732" fill="#d7e057" r="20.5"/></g></g><g><g><path d="m149.809 177.731c-12.131 0-22 9.869-22 22s9.869 22 22 22 22-9.869 22-22c0-12.13-9.87-22-22-22zm0 41c-10.477 0-19-8.523-19-19s8.523-19 19-19 19 8.523 19 19-8.524 19-19 19z" fill="#3a312a"/></g></g><g><g><path d="m200.399 78.822-12.34 67.13c1.7 4.17 3.13 8.43 4.31 12.76h8.35l14.92-81.19c-5.14.08-10.23.52-15.24 1.3z" fill="#decaad"/></g></g><g><g><path d="m197.689 181.512c-.28.32-.69.5-1.12.5-.09 0-.18-.01-.27-.02l-3.06-.56-11.19 48.96c-.98 4.32-4.77 7.34-9.2 7.34h15c4.43 0 8.22-3.02 9.2-7.34l14.81-64.81z" fill="#6ca8bf"/></g></g><g><g><path d="m197.759 161.712-3.84 16.79 2.09.38 15.27-17.17z" fill="#695b51"/></g></g><g><g><path d="m197.759 161.712-3.84 16.79 2.09.38 15.27-17.17z" fill="#695b51"/></g></g></g></svg>