<svg id="Layer_1" enable-background="new 0 0 256 256" height="512" viewBox="0 0 256 256" width="512" xmlns="http://www.w3.org/2000/svg"><g><g><g><path d="m127.377 103.7-3.078-14.316c-1.273-5.92-7.104-9.687-13.023-8.414l-14.316 3.078c-5.92 1.273-9.687 7.104-8.414 13.023l3.078 14.316c1.273 5.92 7.104 9.687 13.024 8.414l14.316-3.078c5.919-1.272 9.686-7.103 8.413-13.023z" fill="#ed6e7a"/></g></g><g><g><path d="m128.844 103.385-3.078-14.316c-1.446-6.718-8.082-11.015-14.806-9.565l-14.316 3.078c-6.719 1.444-11.01 8.086-9.565 14.806l3.079 14.316c.7 3.254 2.625 6.042 5.422 7.849 2.04 1.318 4.366 1.999 6.738 1.999.88 0 1.766-.093 2.646-.283l14.315-3.078c6.718-1.445 11.009-8.087 9.565-14.806zm-10.197 11.873-14.315 3.078c-2.469.53-5.001.068-7.125-1.303-2.123-1.372-3.585-3.488-4.116-5.96l-3.079-14.316c-1.097-5.102 2.161-10.145 7.263-11.242l14.316-3.078c.668-.143 1.334-.212 1.991-.212 4.362 0 8.297 3.042 9.25 7.476l3.078 14.316c1.097 5.101-2.161 10.144-7.263 11.241z" fill="#3a312a"/></g></g><g><g><path d="m177.068 92.634-10.354-10.354c-4.282-4.282-11.223-4.282-15.505 0l-10.354 10.354c-4.281 4.282-4.281 11.223 0 15.505l10.354 10.354c4.282 4.282 11.224 4.282 15.505 0l10.354-10.354c4.281-4.282 4.281-11.223 0-15.505z" fill="#ed6e7a"/></g></g><g><g><path d="m178.128 91.574-10.354-10.354c-2.354-2.354-5.484-3.651-8.813-3.651s-6.459 1.296-8.813 3.651l-10.355 10.354c-2.354 2.354-3.651 5.483-3.651 8.813 0 3.329 1.297 6.459 3.651 8.813l10.355 10.354c2.354 2.354 5.483 3.651 8.813 3.651 3.329 0 6.459-1.296 8.813-3.651l10.354-10.354c2.355-2.354 3.651-5.484 3.651-8.813 0-3.33-1.297-6.46-3.651-8.813zm-2.121 15.505-10.354 10.354c-1.788 1.788-4.164 2.772-6.692 2.772-2.527 0-4.904-.984-6.691-2.772l-10.355-10.354c-1.788-1.788-2.772-4.164-2.772-6.692s.984-4.904 2.772-6.692l10.355-10.355c1.787-1.788 4.164-2.772 6.691-2.772 2.528 0 4.904.984 6.692 2.772l10.354 10.354c1.788 1.788 2.772 4.164 2.772 6.692 0 2.529-.984 4.905-2.772 6.693z" fill="#3a312a"/></g></g><g><g><path d="m201.6 97.315-9.667-10.999c-3.997-4.548-10.925-4.995-15.473-.997l-10.999 9.667c-4.548 3.997-4.995 10.925-.997 15.473l9.667 10.999c3.997 4.548 10.925 4.994 15.473.997l10.999-9.667c4.547-3.998 4.994-10.925.997-15.473z" fill="#ed6e7a"/></g></g><g><g><path d="m202.727 96.325-9.667-10.999c-4.537-5.161-12.428-5.671-17.59-1.134l-10.999 9.667c-5.162 4.537-5.671 12.427-1.134 17.589l9.667 10.999c2.46 2.799 5.906 4.23 9.369 4.23 2.923 0 5.857-1.02 8.221-3.096l10.999-9.667c5.162-4.536 5.67-12.427 1.134-17.589zm-3.115 15.336-10.999 9.666c-3.918 3.445-9.912 3.059-13.355-.861l-9.667-10.999c-3.445-3.919-3.06-9.911.86-13.356l10.999-9.667c1.794-1.577 4.023-2.351 6.241-2.351 2.629 0 5.246 1.087 7.114 3.212l9.667 10.999c3.446 3.921 3.059 9.912-.86 13.357z" fill="#3a312a"/></g></g><g><g><path d="m153.692 101.697-6.254-13.241c-2.586-5.475-9.121-7.817-14.596-5.231l-13.24 6.254c-5.475 2.586-7.817 9.121-5.231 14.596l6.254 13.241c2.586 5.475 9.121 7.817 14.596 5.231l13.241-6.254c5.474-2.586 7.816-9.12 5.23-14.596z" fill="#ed6e7a"/></g></g><g><g><path d="m155.049 101.057-6.254-13.24c-1.422-3.01-3.931-5.287-7.065-6.41-3.133-1.123-6.518-.96-9.527.463l-13.241 6.253c-6.214 2.936-8.881 10.379-5.946 16.593l6.254 13.24c1.422 3.01 3.931 5.287 7.065 6.41 1.374.492 2.796.737 4.213.737 1.815 0 3.624-.402 5.314-1.2l13.24-6.254c3.011-1.422 5.287-3.931 6.41-7.065 1.123-3.133.959-6.517-.463-9.527zm-2.361 8.516c-.852 2.38-2.581 4.285-4.867 5.364l-13.24 6.254c-2.285 1.079-4.855 1.205-7.234.352-2.38-.853-4.285-2.582-5.364-4.867l-6.254-13.24c-2.229-4.718-.203-10.37 4.515-12.599l13.241-6.253c1.284-.606 2.656-.912 4.035-.912 1.076 0 2.156.186 3.199.56 2.38.853 4.285 2.581 5.364 4.867l6.254 13.24c1.079 2.284 1.204 4.854.351 7.234z" fill="#3a312a"/></g></g><g><g><path d="m91.6 96.315-9.667-10.999c-3.997-4.548-10.925-4.995-15.473-.997l-10.999 9.667c-4.548 3.997-4.995 10.925-.997 15.473l9.667 10.999c3.997 4.548 10.925 4.994 15.473.997l10.999-9.667c4.547-3.998 4.994-10.925.997-15.473z" fill="#ed6e7a"/></g></g><g><g><path d="m92.727 95.325-9.667-10.999c-4.537-5.162-12.428-5.672-17.59-1.134l-10.999 9.667c-5.162 4.537-5.671 12.427-1.134 17.589l9.667 10.999c2.46 2.799 5.906 4.23 9.369 4.23 2.923 0 5.857-1.02 8.221-3.096l10.999-9.667c5.162-4.536 5.67-12.427 1.134-17.589zm-3.115 15.336-10.999 9.666c-3.918 3.445-9.912 3.059-13.355-.861l-9.667-10.999c-3.445-3.919-3.06-9.911.86-13.356l10.999-9.667c1.794-1.577 4.022-2.351 6.241-2.351 2.629 0 5.246 1.087 7.114 3.212l9.667 10.999c3.446 3.921 3.059 9.912-.86 13.357z" fill="#3a312a"/></g></g><g><g><path d="m203.043 114.967-13.851-4.753c-5.727-1.965-11.963 1.085-13.928 6.812l-4.753 13.85c-1.965 5.728 1.085 11.964 6.812 13.928l13.85 4.753c5.727 1.965 11.963-1.085 13.929-6.812l4.752-13.85c1.966-5.726-1.084-11.962-6.811-13.928z" fill="#ed6e7a"/></g></g><g><g><path d="m203.53 113.548-13.851-4.752c-3.15-1.081-6.531-.87-9.521.593-2.991 1.462-5.233 4.002-6.314 7.151l-4.753 13.851c-1.08 3.149-.869 6.53.593 9.521 1.463 2.991 4.003 5.232 7.151 6.313l13.851 4.753c1.336.458 2.696.675 4.035.675 5.178 0 10.026-3.254 11.8-8.419l4.752-13.851c2.23-6.501-1.244-13.604-7.743-15.835zm4.906 14.861-4.752 13.851c-1.693 4.935-7.083 7.576-12.022 5.879l-13.852-4.753c-2.391-.82-4.319-2.522-5.43-4.793-1.11-2.271-1.27-4.838-.45-7.229l4.753-13.851c.82-2.391 2.522-4.319 4.793-5.43 1.315-.643 2.729-.967 4.15-.967 1.034 0 2.072.172 3.079.518l13.851 4.752c4.935 1.694 7.573 7.088 5.88 12.023z" fill="#3a312a"/></g></g><g><g><path d="m177.542 129.328-4.434-13.956c-1.834-5.771-7.998-8.963-13.769-7.129l-13.956 4.434c-5.771 1.834-8.963 7.998-7.129 13.769l4.434 13.956c1.834 5.771 7.998 8.962 13.769 7.129l13.956-4.434c5.77-1.834 8.962-7.999 7.129-13.769z" fill="#ed6e7a"/></g></g><g><g><path d="m178.971 128.874-4.434-13.956c-1.008-3.173-3.191-5.764-6.147-7.295-2.957-1.531-6.331-1.819-9.505-.81l-13.956 4.434c-3.173 1.008-5.764 3.191-7.294 6.148-1.531 2.957-1.818 6.332-.811 9.504l4.434 13.956c1.685 5.299 6.603 8.69 11.888 8.69 1.247 0 2.516-.189 3.766-.586l13.955-4.434c3.173-1.008 5.764-3.191 7.294-6.148 1.53-2.955 1.818-6.331.81-9.503zm-3.475 8.125c-1.162 2.245-3.129 3.903-5.538 4.668l-13.955 4.434c-4.977 1.581-10.306-1.181-11.886-6.153l-4.434-13.956c-.766-2.409-.547-4.972.615-7.217s3.129-3.903 5.538-4.668l13.956-4.434c.944-.3 1.913-.449 2.876-.449 1.494 0 2.977.358 4.341 1.064 2.245 1.163 3.903 3.129 4.668 5.539l4.434 13.955c.766 2.409.547 4.972-.615 7.217z" fill="#3a312a"/></g></g><g><g><path d="m138.043 117.967-13.851-4.753c-5.727-1.965-11.963 1.085-13.928 6.812l-4.753 13.85c-1.965 5.728 1.085 11.964 6.812 13.928l13.851 4.753c5.727 1.965 11.963-1.085 13.929-6.812l4.752-13.85c1.965-5.726-1.085-11.962-6.812-13.928z" fill="#ed6e7a"/></g></g><g><g><path d="m138.53 116.548-13.851-4.752c-3.15-1.08-6.531-.87-9.521.593-2.991 1.462-5.233 4.002-6.313 7.151l-4.753 13.851c-1.08 3.149-.869 6.53.593 9.521 1.463 2.991 4.003 5.232 7.151 6.313l13.851 4.753c1.336.458 2.696.675 4.035.675 5.178 0 10.026-3.254 11.8-8.419l4.752-13.851c2.229-6.501-1.245-13.604-7.744-15.835zm4.906 14.861-4.752 13.851c-1.693 4.935-7.084 7.575-12.022 5.879l-13.852-4.753c-2.391-.82-4.319-2.522-5.43-4.793-1.11-2.271-1.271-4.838-.45-7.229l4.753-13.851c.82-2.391 2.522-4.319 4.793-5.43 1.315-.643 2.729-.967 4.15-.967 1.034 0 2.072.172 3.079.518l13.851 4.752c4.935 1.694 7.573 7.088 5.88 12.023z" fill="#3a312a"/></g></g><g><g><path d="m108.043 114.967-13.851-4.753c-5.727-1.965-11.963 1.085-13.928 6.812l-4.753 13.85c-1.965 5.728 1.085 11.964 6.812 13.928l13.851 4.753c5.727 1.965 11.963-1.085 13.929-6.812l4.752-13.85c1.965-5.726-1.085-11.962-6.812-13.928z" fill="#ed6e7a"/></g></g><g><g><path d="m108.53 113.548-13.851-4.752c-3.15-1.081-6.531-.87-9.521.593-2.991 1.462-5.233 4.002-6.313 7.151l-4.753 13.851c-1.08 3.149-.869 6.53.593 9.521 1.463 2.991 4.003 5.232 7.151 6.313l13.851 4.753c1.336.458 2.696.675 4.035.675 5.178 0 10.026-3.254 11.8-8.419l4.752-13.851c2.229-6.501-1.245-13.604-7.744-15.835zm4.906 14.861-4.752 13.851c-1.693 4.935-7.085 7.576-12.022 5.879l-13.852-4.753c-2.391-.82-4.319-2.522-5.43-4.793-1.11-2.271-1.271-4.838-.45-7.229l4.753-13.851c.82-2.391 2.522-4.319 4.793-5.43 1.315-.643 2.729-.967 4.15-.967 1.034 0 2.072.172 3.079.518l13.851 4.752c4.935 1.694 7.573 7.088 5.88 12.023z" fill="#3a312a"/></g></g><g><g><path d="m71.219 114.601h-14.643c-6.055 0-10.964 4.909-10.964 10.964v14.643c0 6.055 4.909 10.964 10.964 10.964h14.643c6.055 0 10.964-4.909 10.964-10.964v-14.643c0-6.055-4.909-10.964-10.964-10.964z" fill="#ed6e7a"/></g></g><g><g><path d="m71.219 113.101h-14.643c-6.873 0-12.464 5.591-12.464 12.464v14.643c0 6.873 5.591 12.464 12.464 12.464h14.643c6.873 0 12.464-5.591 12.464-12.464v-14.643c0-6.873-5.591-12.464-12.464-12.464zm9.464 27.107c0 5.218-4.245 9.464-9.464 9.464h-14.643c-5.219 0-9.464-4.246-9.464-9.464v-14.643c0-5.218 4.245-9.464 9.464-9.464h14.643c5.219 0 9.464 4.246 9.464 9.464z" fill="#3a312a"/></g></g><g><g><path d="m207.749 142.887h-159.435c-8.578 0-15.533 6.954-15.533 15.533v34.242h190.5v-34.242c.001-8.579-6.954-15.533-15.532-15.533z" fill="#d7e057"/></g></g><g><g><path d="m207.749 141.387h-76.226c-.828 0-1.5.671-1.5 1.5s.672 1.5 1.5 1.5h76.226c7.737 0 14.032 6.295 14.032 14.032v32.742h-187.5v-32.742c0-7.737 6.295-14.032 14.033-14.032h68.893c.828 0 1.5-.671 1.5-1.5s-.672-1.5-1.5-1.5h-68.893c-9.393 0-17.033 7.641-17.033 17.032v34.242c0 .829.672 1.5 1.5 1.5h190.5c.828 0 1.5-.671 1.5-1.5v-34.242c0-9.392-7.64-17.032-17.032-17.032z" fill="#3a312a"/></g></g><g><g><path d="m47.455 26.094c-.974 11.564-13.031 13.389-13.031 13.389 10.352.487 12.932 14.059 12.932 14.059.221-9.677 13.328-14.202 13.328-14.202-9.819-.587-13.229-13.246-13.229-13.246z" fill="#d4d853"/></g></g><g><g><path d="m60.773 37.843c-8.609-.515-11.839-12.025-11.87-12.141-.191-.702-.851-1.161-1.584-1.101-.725.066-1.298.642-1.359 1.367-.86 10.215-11.319 11.963-11.761 12.032-.763.115-1.313.79-1.273 1.561.04.77.657 1.384 1.428 1.421 9.033.425 11.505 12.718 11.528 12.842.138.711.76 1.217 1.473 1.217.042 0 .084-.001.126-.005.765-.064 1.357-.693 1.375-1.459.194-8.509 12.198-12.777 12.319-12.819.676-.235 1.092-.914.994-1.623-.098-.708-.682-1.249-1.396-1.292zm-13.573 10.347c-1.356-3.13-3.71-6.908-7.591-8.878 2.933-1.405 6.412-3.914 8.206-8.274 1.552 3.071 4.202 6.881 8.339 8.724-3.008 1.64-6.926 4.406-8.954 8.428z" fill="#3a312a"/></g></g><g><g><path d="m25.745 43.075c-.689 8.179-9.217 9.47-9.217 9.47 7.322.345 9.147 9.944 9.147 9.944.156-6.845 9.427-10.045 9.427-10.045-6.945-.416-9.357-9.369-9.357-9.369z" fill="#d4d853"/></g></g><g><g><path d="m35.191 50.946c-5.769-.345-7.977-8.186-7.999-8.265-.188-.702-.863-1.164-1.581-1.101-.726.065-1.3.642-1.361 1.368-.579 6.871-7.65 8.067-7.946 8.114-.763.115-1.313.79-1.273 1.561.04.77.657 1.384 1.428 1.421 6.039.284 7.727 8.644 7.743 8.726.136.712.759 1.22 1.473 1.22.041 0 .083-.001.125-.005.765-.064 1.358-.694 1.376-1.461.13-5.709 8.335-8.633 8.416-8.662.677-.234 1.094-.913.997-1.622-.099-.709-.684-1.251-1.398-1.294zm-9.589 6.796c-.924-1.886-2.341-3.948-4.449-5.281 1.857-1.041 3.699-2.63 4.873-4.917 1.058 1.874 2.656 3.956 4.944 5.225-1.851 1.101-3.991 2.74-5.368 4.973z" fill="#3a312a"/></g></g><g><g><path d="m25.745 16.417c-.689 8.179-9.217 9.471-9.217 9.471 7.322.344 9.147 9.944 9.147 9.944.156-6.844 9.427-10.045 9.427-10.045-6.945-.416-9.357-9.37-9.357-9.37z" fill="#d4d853"/></g></g><g><g><path d="m35.191 24.289c-5.748-.343-7.961-8.128-7.998-8.264-.191-.703-.863-1.169-1.582-1.102-.726.065-1.3.642-1.361 1.368-.579 6.871-7.65 8.067-7.946 8.114-.763.115-1.313.79-1.273 1.56.04.771.657 1.385 1.428 1.421 6.039.284 7.727 8.645 7.743 8.726.136.713.759 1.22 1.473 1.22.041 0 .083-.001.125-.005.765-.063 1.358-.694 1.376-1.461.13-5.709 8.336-8.634 8.416-8.662.677-.234 1.094-.913.997-1.622-.099-.709-.684-1.251-1.398-1.293zm-9.589 6.796c-.924-1.886-2.341-3.948-4.449-5.281 1.857-1.042 3.699-2.631 4.873-4.918 1.058 1.874 2.656 3.956 4.944 5.225-1.851 1.101-3.991 2.741-5.368 4.974z" fill="#3a312a"/></g></g><g><g><path d="m16.591 192.661c0 19.436 15.756 35.192 35.192 35.192h152.497c19.436 0 35.191-15.756 35.191-35.192z" fill="#fce8cb"/></g></g><g><g><path d="m239.472 191.161h-222.88c-.828 0-1.5.671-1.5 1.5 0 20.232 16.46 36.692 36.691 36.692h4.531c.828 0 1.5-.671 1.5-1.5s-.672-1.5-1.5-1.5h-4.531c-18.075 0-32.871-14.307-33.658-32.192h219.814c-.787 17.885-15.583 32.192-33.658 32.192h-133.033c-.828 0-1.5.671-1.5 1.5s.672 1.5 1.5 1.5h133.032c20.231 0 36.691-16.46 36.691-36.692.001-.828-.671-1.5-1.499-1.5z" fill="#3a312a"/></g></g><g><g><path d="m80.838 227.853h94.387v11.731h-94.387z" fill="#fce8cb"/></g></g><g><g><path d="m175.225 226.353h-94.387c-.828 0-1.5.671-1.5 1.5v11.73c0 .829.672 1.5 1.5 1.5h94.387c.828 0 1.5-.671 1.5-1.5v-11.73c0-.829-.672-1.5-1.5-1.5zm-1.5 11.73h-91.387v-8.73h91.387z" fill="#3a312a"/></g></g><g><g><path d="m223.492 194.163c-.79 17.88-15.58 32.19-33.66 32.19h14.45c18.07 0 32.87-14.31 33.66-32.19z" fill="#decaad"/></g></g><g><g><circle cx="78.032" cy="97.887" fill="#d7e057" r="5.5"/></g></g><g><g><path d="m78.031 90.887c-3.859 0-7 3.14-7 7s3.141 7 7 7 7-3.14 7-7-3.14-7-7-7zm0 11c-2.206 0-4-1.794-4-4s1.794-4 4-4 4 1.794 4 4c0 2.205-1.794 4-4 4z" fill="#3a312a"/></g></g><g><g><circle cx="110.032" cy="80.887" fill="#d7e057" r="5.5"/></g></g><g><g><path d="m110.031 73.887c-3.859 0-7 3.14-7 7s3.141 7 7 7 7-3.14 7-7-3.14-7-7-7zm0 11c-2.206 0-4-1.794-4-4s1.794-4 4-4 4 1.794 4 4c0 2.205-1.794 4-4 4z" fill="#3a312a"/></g></g><g><g><circle cx="178.032" cy="97.887" fill="#d7e057" r="5.5"/></g></g><g><g><path d="m178.031 90.887c-3.859 0-7 3.14-7 7s3.141 7 7 7 7-3.14 7-7-3.14-7-7-7zm0 11c-2.206 0-4-1.794-4-4s1.794-4 4-4 4 1.794 4 4c0 2.205-1.794 4-4 4z" fill="#3a312a"/></g></g><g><g><circle cx="138.032" cy="95.887" fill="#d7e057" r="5.5"/></g></g><g><g><path d="m138.031 88.887c-3.859 0-7 3.14-7 7s3.141 7 7 7 7-3.14 7-7-3.14-7-7-7zm0 11c-2.206 0-4-1.794-4-4s1.794-4 4-4 4 1.794 4 4c0 2.205-1.794 4-4 4z" fill="#3a312a"/></g></g><g><g><circle cx="163.032" cy="80.887" fill="#d7e057" r="5.5"/></g></g><g><g><path d="m163.031 73.887c-3.859 0-7 3.14-7 7s3.141 7 7 7 7-3.14 7-7-3.14-7-7-7zm0 11c-2.206 0-4-1.794-4-4s1.794-4 4-4 4 1.794 4 4c0 2.205-1.794 4-4 4z" fill="#3a312a"/></g></g><g><g><circle cx="105.032" cy="114.887" fill="#d7e057" r="5.5"/></g></g><g><g><path d="m105.031 107.887c-3.859 0-7 3.14-7 7s3.141 7 7 7 7-3.14 7-7-3.14-7-7-7zm0 11c-2.206 0-4-1.794-4-4s1.794-4 4-4 4 1.794 4 4c0 2.205-1.794 4-4 4z" fill="#3a312a"/></g></g></g></svg>