<svg id="Layer_1" enable-background="new 0 0 256 256" height="512" viewBox="0 0 256 256" width="512" xmlns="http://www.w3.org/2000/svg"><g><g><g><path d="m128 16.56c-61.55 0-111.44 49.89-111.44 111.44 0 35.41 16.52 66.96 42.27 87.37l11.79 8.18c16.76 10.08 36.39 15.89 57.38 15.89 61.55 0 111.44-49.89 111.44-111.44s-49.89-111.44-111.44-111.44zm0 154.11c-23.56 0-42.67-19.11-42.67-42.67s19.11-42.67 42.67-42.67 42.67 19.11 42.67 42.67-19.11 42.67-42.67 42.67z" fill="#d7e057"/></g></g><g><g><path d="m128 15.06c-62.275 0-112.94 50.665-112.94 112.94 0 34.692 15.613 66.967 42.836 88.549.649.513 1.592.406 2.107-.244.515-.649.406-1.593-.244-2.107-26.5-21.009-41.7-52.427-41.7-86.197.001-60.622 49.319-109.941 109.941-109.941s109.94 49.319 109.94 109.94-49.318 109.94-109.94 109.94c-19.99 0-39.564-5.422-56.608-15.681-.71-.426-1.631-.197-2.059.512-.427.71-.198 1.632.512 2.059 17.511 10.539 37.621 16.11 58.155 16.11 62.275 0 112.94-50.665 112.94-112.94s-50.665-112.94-112.94-112.94zm44.167 112.94c0-24.354-19.813-44.167-44.167-44.167s-44.166 19.813-44.166 44.167 19.813 44.166 44.166 44.166 44.167-19.812 44.167-44.166zm-85.333 0c0-22.699 18.467-41.167 41.166-41.167s41.167 18.468 41.167 41.167-18.468 41.166-41.167 41.166-41.166-18.467-41.166-41.166z" fill="#3a312a"/></g></g><g><g><path d="m210.45 112.27-.05-.04c-5.47-5.06-7.92-12.6-6.46-19.91l.01-.05c2.43-12.26-6.1-24-18.51-25.46h-.04c-7.41-.88-13.84-5.55-16.96-12.33-3.63-7.9-11.41-12.48-19.48-12.48-3.54 0-7.14.88-10.47 2.75-3.26 1.83-6.87 2.75-10.49 2.75s-7.23-.92-10.49-2.75c-10.91-6.13-24.73-1.64-29.96 9.73-1.56 3.4-3.95 6.26-6.87 8.38-2.92 2.13-6.38 3.52-10.09 3.95h-.03c-12.41 1.47-20.95 13.2-18.51 25.46l.01.05c1.46 7.31-.99 14.85-6.47 19.91l-.04.04c-9.17 8.48-9.17 22.98 0 31.46l.04.04c5.48 5.06 7.93 12.6 6.47 19.91l-.01.05c-2.43 12.26 6.1 24 18.51 25.46h.04c7.41.88 13.84 5.55 16.95 12.33 3.63 7.9 11.42 12.48 19.49 12.48 3.54 0 7.14-.88 10.47-2.75 3.26-1.83 6.87-2.75 10.49-2.75s7.23.92 10.49 2.75c3.33 1.87 6.93 2.75 10.47 2.75 8.07 0 15.86-4.58 19.49-12.48 1.56-3.4 3.95-6.26 6.87-8.38 2.92-2.13 6.38-3.52 10.09-3.95h.03c12.41-1.47 20.95-13.2 18.51-25.46l-.01-.05c-1.46-7.31.99-14.85 6.47-19.91l.04-.04c9.17-8.48 9.17-22.98 0-31.46zm-82.45 58.4c-23.56 0-42.67-19.11-42.67-42.67s19.11-42.67 42.67-42.67 42.67 19.11 42.67 42.67-19.11 42.67-42.67 42.67z" fill="#f16c7a"/></g></g><g><g><path d="m128 83.83c-24.355 0-44.17 19.814-44.17 44.17s19.814 44.17 44.17 44.17 44.17-19.814 44.17-44.17-19.815-44.17-44.17-44.17zm0 85.34c-22.701 0-41.17-18.469-41.17-41.17s18.469-41.17 41.17-41.17 41.17 18.469 41.17 41.17-18.469 41.17-41.17 41.17zm83.469-58.002c-.019-.017-.055-.047-.089-.074-5.026-4.676-7.313-11.751-5.958-18.532 1.24-6.258-.201-12.805-3.955-17.963-3.749-5.152-9.527-8.534-15.851-9.277-.028-.004-.064-.006-.102-.008-6.823-.834-12.839-5.221-15.71-11.459-3.728-8.113-11.909-13.355-20.844-13.355-3.903 0-7.777 1.018-11.204 2.942-2.981 1.673-6.355 2.558-9.756 2.558s-6.775-.885-9.755-2.558c-5.562-3.125-12.233-3.786-18.305-1.817-6.072 1.971-11.085 6.429-13.754 12.23-1.419 3.093-3.628 5.787-6.39 7.793-2.737 1.996-5.955 3.263-9.31 3.664-.034.002-.068.005-.103.009-6.336.75-12.12 4.141-15.869 9.302-3.745 5.155-5.179 11.693-3.926 17.991 1.348 6.748-.958 13.842-6.058 18.554-4.677 4.325-7.359 10.46-7.359 16.832s2.682 12.507 7.4 16.871c5.059 4.673 7.365 11.767 6.006 18.567-1.24 6.258.201 12.805 3.955 17.963 3.749 5.152 9.527 8.534 15.851 9.278.028.003.064.005.101.007 6.826.834 12.838 5.22 15.701 11.459 3.73 8.113 11.915 13.355 20.855 13.355 3.903 0 7.777-1.018 11.205-2.942 2.98-1.673 6.354-2.558 9.755-2.558s6.775.885 9.756 2.558c3.427 1.925 7.301 2.942 11.204 2.942 8.94 0 17.125-5.242 20.854-13.355 1.419-3.094 3.628-5.788 6.39-7.794 2.737-1.996 5.955-3.263 9.31-3.664.034-.002.068-.005.102-.009 6.336-.75 12.12-4.141 15.869-9.302 3.745-5.155 5.179-11.693 3.926-17.991-1.348-6.748.958-13.842 6.058-18.554 4.677-4.325 7.359-10.46 7.359-16.832s-2.683-12.506-7.359-16.831zm-2.076 31.5c-5.822 5.376-8.475 13.54-6.914 21.355 1.096 5.508-.119 11.044-3.421 15.59-3.293 4.534-8.165 7.4-13.724 8.078-.032.002-.064.004-.097.008-3.893.452-7.628 1.914-10.799 4.227-3.176 2.306-5.718 5.407-7.351 8.968-3.24 7.051-10.355 11.606-18.127 11.606-3.39 0-6.756-.885-9.735-2.558-3.429-1.924-7.31-2.942-11.225-2.942s-7.796 1.018-11.224 2.942c-2.98 1.673-6.346 2.558-9.736 2.558-7.772 0-14.887-4.556-18.127-11.605-3.303-7.202-10.253-12.258-18.136-13.194-.029-.004-.066-.006-.104-.008-5.551-.67-10.419-3.528-13.713-8.056-3.311-4.55-4.532-10.096-3.429-15.663 1.551-7.766-1.102-15.93-6.962-21.345-4.125-3.814-6.396-9.01-6.396-14.629s2.271-10.814 6.435-14.668c5.822-5.376 8.475-13.54 6.914-21.355-1.096-5.508.119-11.044 3.421-15.59 3.293-4.534 8.165-7.4 13.724-8.078.033-.002.065-.004.097-.008 3.893-.452 7.628-1.914 10.799-4.227 3.176-2.306 5.718-5.407 7.351-8.967 2.353-5.116 6.599-8.891 11.954-10.629 5.353-1.739 11.002-1.178 15.909 1.579 3.427 1.925 7.308 2.943 11.223 2.943s7.796-1.018 11.225-2.942c2.98-1.673 6.346-2.558 9.735-2.558 7.766 0 14.877 4.556 18.117 11.607 3.314 7.201 10.267 12.256 18.146 13.192.029.004.066.006.105.008 5.551.67 10.419 3.528 13.713 8.056 3.311 4.55 4.532 10.096 3.429 15.663-1.551 7.763 1.098 15.926 6.912 21.305.031.029.063.057.097.083 4.095 3.811 6.35 8.987 6.35 14.586-.001 5.619-2.273 10.814-6.436 14.668z" fill="#3a312a"/></g></g><g><g><path d="m181.848 85.883-7.094-7.095c-.586-.586-1.535-.586-2.121 0s-.586 1.535 0 2.121l7.094 7.095c.293.293.677.439 1.061.439s.768-.146 1.061-.439c.585-.586.585-1.535-.001-2.121z" fill="#3a312a"/></g></g><g><g><path d="m198.12 103.225c-.169-.811-.965-1.333-1.774-1.163l-9.822 2.044c-.811.169-1.331.963-1.163 1.774.148.708.771 1.194 1.467 1.194.101 0 .204-.01.307-.031l9.822-2.044c.811-.169 1.332-.963 1.163-1.774z" fill="#3a312a"/></g></g><g><g><path d="m100.334 68.333c-3.588 0-6.496 2.909-6.496 6.497s2.909 6.497 6.496 6.497c3.588 0 6.497-2.909 6.497-6.497s-2.909-6.497-6.497-6.497z" fill="#d7e057"/></g></g><g><g><path d="m100.334 66.833c-4.409 0-7.997 3.588-7.997 7.997s3.587 7.996 7.997 7.996 7.997-3.587 7.997-7.996-3.588-7.997-7.997-7.997zm0 12.993c-2.755 0-4.997-2.241-4.997-4.996 0-2.756 2.242-4.997 4.997-4.997s4.997 2.241 4.997 4.997c0 2.755-2.242 4.996-4.997 4.996z" fill="#3a312a"/></g></g><g><g><path d="m95.694 174.291c-3.588 0-6.496 2.909-6.496 6.497s2.909 6.496 6.496 6.496 6.496-2.908 6.496-6.496-2.908-6.497-6.496-6.497z" fill="#d7e057"/></g></g><g><g><path d="m95.694 172.791c-4.409 0-7.996 3.587-7.996 7.996s3.587 7.997 7.996 7.997 7.997-3.588 7.997-7.997c-.001-4.409-3.588-7.996-7.997-7.996zm0 12.993c-2.755 0-4.996-2.241-4.996-4.997 0-2.755 2.242-4.996 4.996-4.996 2.755 0 4.997 2.241 4.997 4.996-.001 2.756-2.242 4.997-4.997 4.997z" fill="#3a312a"/></g></g><g><g><path d="m135.674 182.738c-3.588 0-6.496 2.908-6.496 6.497 0 3.588 2.909 6.496 6.496 6.496 3.588 0 6.496-2.908 6.496-6.496 0-3.589-2.908-6.497-6.496-6.497z" fill="#d7e057"/></g></g><g><g><path d="m135.674 181.237c-4.409 0-7.997 3.588-7.997 7.997s3.587 7.996 7.997 7.996 7.997-3.587 7.997-7.996c-.001-4.409-3.588-7.997-7.997-7.997zm0 12.993c-2.755 0-4.997-2.241-4.997-4.996 0-2.756 2.242-4.997 4.997-4.997s4.997 2.241 4.997 4.997c-.001 2.755-2.242 4.996-4.997 4.996z" fill="#3a312a"/></g></g><g><g><path d="m177.24 157.326c-3.588 0-6.496 2.908-6.496 6.496s2.909 6.497 6.496 6.497c3.588 0 6.497-2.908 6.497-6.497 0-3.587-2.909-6.496-6.497-6.496z" fill="#d7e057"/></g></g><g><g><path d="m177.241 155.826c-4.409 0-7.997 3.588-7.997 7.997s3.587 7.996 7.997 7.996c4.409 0 7.996-3.587 7.996-7.996s-3.587-7.997-7.996-7.997zm0 12.993c-2.755 0-4.997-2.241-4.997-4.996 0-2.756 2.241-4.997 4.997-4.997 2.755 0 4.996 2.241 4.996 4.997 0 2.755-2.241 4.996-4.996 4.996z" fill="#3a312a"/></g></g><g><g><path d="m161.24 66.326c-3.588 0-6.496 2.909-6.496 6.496 0 3.588 2.909 6.496 6.496 6.496 3.588 0 6.497-2.908 6.497-6.496 0-3.587-2.909-6.496-6.497-6.496z" fill="#d7e057"/></g></g><g><g><path d="m161.241 64.826c-4.409 0-7.997 3.588-7.997 7.997s3.587 7.996 7.997 7.996c4.409 0 7.996-3.587 7.996-7.996s-3.587-7.997-7.996-7.997zm0 12.993c-2.755 0-4.997-2.241-4.997-4.996 0-2.756 2.241-4.997 4.997-4.997 2.755 0 4.996 2.241 4.996 4.997 0 2.755-2.241 4.996-4.996 4.996z" fill="#3a312a"/></g></g><g><g><path d="m195.24 117.326c-3.588 0-6.496 2.909-6.496 6.496 0 3.588 2.909 6.497 6.496 6.497 3.588 0 6.497-2.908 6.497-6.497 0-3.587-2.909-6.496-6.497-6.496z" fill="#d7e057"/></g></g><g><g><path d="m195.241 115.826c-4.409 0-7.997 3.588-7.997 7.997s3.587 7.996 7.997 7.996c4.409 0 7.996-3.587 7.996-7.996s-3.587-7.997-7.996-7.997zm0 12.993c-2.755 0-4.997-2.241-4.997-4.996 0-2.756 2.241-4.997 4.997-4.997 2.755 0 4.996 2.241 4.996 4.997 0 2.755-2.241 4.996-4.996 4.996z" fill="#3a312a"/></g></g><g><g><path d="m64.745 116.632c-3.588 0-6.497 2.909-6.497 6.497s2.909 6.497 6.497 6.497 6.497-2.909 6.497-6.497c0-3.589-2.909-6.497-6.497-6.497z" fill="#d7e057"/></g></g><g><g><path d="m64.745 115.132c-4.409 0-7.997 3.587-7.997 7.996s3.587 7.997 7.997 7.997c4.409 0 7.997-3.588 7.997-7.997s-3.588-7.996-7.997-7.996zm0 12.993c-2.755 0-4.997-2.241-4.997-4.997 0-2.755 2.242-4.996 4.997-4.996s4.997 2.241 4.997 4.996c0 2.756-2.242 4.997-4.997 4.997z" fill="#3a312a"/></g></g><g><g><path d="m125.465 65.346-7.094-7.095c-.586-.586-1.535-.586-2.121 0s-.586 1.535 0 2.121l7.094 7.095c.293.293.677.44 1.061.44s.768-.146 1.061-.44c.585-.586.585-1.535-.001-2.121z" fill="#3a312a"/></g></g><g><g><path d="m81.051 156.173c-.718-.414-1.634-.168-2.049.549l-5.016 8.688c-.414.718-.168 1.635.549 2.049.236.137.494.201.748.201.519 0 1.022-.269 1.3-.75l5.016-8.688c.416-.718.17-1.635-.548-2.049z" fill="#3a312a"/></g></g><g><g><path d="m146.551 59.673c-.718-.414-1.635-.168-2.049.549l-5.016 8.688c-.415.718-.168 1.635.549 2.049.236.137.494.201.749.201.518 0 1.022-.269 1.3-.75l5.016-8.688c.415-.718.169-1.635-.549-2.049z" fill="#3a312a"/></g></g><g><g><path d="m85.114 87.054c-.826-.087-1.565.503-1.657 1.325l-1.109 9.972c-.092.823.502 1.565 1.325 1.657.057.006.112.009.168.009.754 0 1.403-.567 1.489-1.334l1.109-9.972c.092-.823-.501-1.565-1.325-1.657z" fill="#3a312a"/></g></g><g><g><path d="m155.534 181.06-6.728-7.442c-.557-.614-1.504-.664-2.119-.107-.615.555-.663 1.504-.107 2.118l6.728 7.442c.296.327.704.494 1.113.494.358 0 .718-.128 1.005-.388.616-.554.663-1.503.108-2.117z" fill="#3a312a"/></g></g><g><g><path d="m68.534 94.06-6.728-7.442c-.556-.613-1.504-.663-2.119-.107-.615.555-.663 1.504-.107 2.118l6.728 7.442c.296.327.704.494 1.113.494.358 0 .718-.128 1.005-.388.615-.554.663-1.503.108-2.117z" fill="#3a312a"/></g></g><g><g><path d="m200.927 141.874c-.214-.8-1.037-1.27-1.837-1.06l-9.69 2.597c-.8.215-1.275 1.037-1.061 1.838.179.67.786 1.111 1.448 1.111.128 0 .259-.017.389-.051l9.69-2.597c.801-.215 1.275-1.037 1.061-1.838z" fill="#3a312a"/></g></g><g><g><path d="m176.427 180.374c-.214-.8-1.037-1.269-1.837-1.06l-9.69 2.597c-.8.215-1.275 1.037-1.061 1.838.179.67.786 1.111 1.448 1.111.128 0 .259-.017.389-.051l9.69-2.597c.801-.215 1.275-1.037 1.061-1.838z" fill="#3a312a"/></g></g><g><g><path d="m118.137 184.588c-.717-.414-1.634-.168-2.049.549l-5.016 8.688c-.415.718-.168 1.635.549 2.049.236.137.494.201.749.201.519 0 1.023-.269 1.3-.75l5.016-8.688c.414-.718.168-1.635-.549-2.049z" fill="#3a312a"/></g></g><g><g><path d="m69.331 141.745c-.104-.823-.851-1.408-1.676-1.301l-9.954 1.256c-.822.104-1.404.855-1.3 1.676.096.759.742 1.313 1.486 1.313.063 0 .126-.004.19-.012l9.954-1.256c.821-.104 1.403-.855 1.3-1.676z" fill="#3a312a"/></g></g><g><g><path d="m136.845 114.641c-.974 11.564-13.024 13.389-13.024 13.389 10.347.487 12.925 14.059 12.925 14.059.221-9.677 13.321-14.202 13.321-14.202-9.814-.587-13.222-13.246-13.222-13.246z" fill="#d7e057"/></g></g><g><g><path d="m150.156 126.391c-8.605-.516-11.832-12.025-11.864-12.142-.191-.703-.859-1.174-1.583-1.102-.725.066-1.298.642-1.359 1.367-.86 10.216-11.313 11.964-11.754 12.032-.763.116-1.313.791-1.273 1.561s.657 1.385 1.427 1.421c9.028.426 11.498 12.719 11.522 12.843.137.712.759 1.218 1.472 1.218.042 0 .084-.002.126-.005.764-.064 1.357-.693 1.374-1.46.195-8.509 12.192-12.777 12.313-12.819.675-.234 1.092-.914.994-1.622-.097-.708-.681-1.249-1.395-1.292zm-13.566 10.344c-1.356-3.13-3.708-6.907-7.586-8.876 2.931-1.405 6.409-3.913 8.202-8.273 1.551 3.071 4.2 6.881 8.334 8.723-3.008 1.639-6.923 4.405-8.95 8.426z" fill="#3a312a"/></g></g><g><g><path d="m115.146 131.621c-.689 8.179-9.212 9.47-9.212 9.47 7.318.344 9.142 9.944 9.142 9.944.156-6.844 9.422-10.045 9.422-10.045-6.941-.415-9.352-9.369-9.352-9.369z" fill="#d7e057"/></g></g><g><g><path d="m124.587 139.493c-5.766-.345-7.972-8.186-7.994-8.265-.19-.702-.857-1.174-1.582-1.102-.726.065-1.299.643-1.36 1.368-.579 6.871-7.646 8.066-7.942 8.113-.763.116-1.313.791-1.273 1.561.04.771.657 1.385 1.427 1.421 6.035.284 7.724 8.645 7.739 8.727.135.713.759 1.22 1.473 1.22.041 0 .083-.002.125-.005.765-.063 1.358-.693 1.376-1.461.13-5.709 8.332-8.634 8.413-8.662.677-.234 1.094-.913.996-1.622s-.683-1.251-1.398-1.293zm-9.584 6.795c-.924-1.885-2.34-3.947-4.447-5.279 1.855-1.041 3.697-2.63 4.871-4.917 1.057 1.874 2.654 3.955 4.941 5.224-1.85 1.1-3.989 2.74-5.365 4.972z" fill="#3a312a"/></g></g><g><g><path d="m115.146 104.964c-.689 8.179-9.212 9.471-9.212 9.471 7.318.344 9.142 9.944 9.142 9.944.156-6.845 9.422-10.045 9.422-10.045-6.941-.416-9.352-9.37-9.352-9.37z" fill="#d7e057"/></g></g><g><g><path d="m124.587 112.836c-5.766-.345-7.972-8.186-7.994-8.265-.19-.702-.857-1.167-1.582-1.102-.726.065-1.299.643-1.36 1.368-.579 6.871-7.646 8.066-7.942 8.113-.763.116-1.313.791-1.273 1.561.04.771.657 1.385 1.427 1.421 6.035.284 7.724 8.645 7.739 8.727.135.713.759 1.22 1.472 1.22.042 0 .083-.002.125-.005.765-.063 1.358-.693 1.376-1.461.13-5.709 8.332-8.634 8.413-8.662.677-.234 1.094-.913.996-1.622-.097-.709-.682-1.251-1.397-1.293zm-9.584 6.795c-.924-1.885-2.34-3.947-4.447-5.279 1.855-1.041 3.697-2.63 4.871-4.917 1.057 1.874 2.654 3.955 4.941 5.224-1.85 1.1-3.989 2.739-5.365 4.972z" fill="#3a312a"/></g></g><g><g><path d="m128 18.06c-2.52 0-5.02.09-7.5.26 57.14 3.86 102.44 51.58 102.44 109.68 0 58.11-45.33 105.84-102.48 109.68 2.5.17 5.02.26 7.54.26 60.62 0 109.94-49.32 109.94-109.94s-49.32-109.94-109.94-109.94z" fill="#b9c239"/></g></g></g></svg>