<svg id="Layer_1" enable-background="new 0 0 256 256" height="512" viewBox="0 0 256 256" width="512" xmlns="http://www.w3.org/2000/svg"><g><g><g><path d="m69.47 26.445c-.974 11.564-13.025 13.39-13.025 13.39 10.347.487 12.925 14.059 12.925 14.059.221-9.677 13.321-14.202 13.321-14.202-9.813-.588-13.221-13.247-13.221-13.247z" fill="#d7e057"/></g></g><g><g><path d="m82.782 38.194c-8.605-.515-11.833-12.024-11.864-12.141-.19-.702-.853-1.162-1.583-1.101-.725.066-1.298.642-1.359 1.367-.86 10.215-11.313 11.964-11.754 12.033-.763.115-1.313.79-1.273 1.561.04.77.657 1.384 1.428 1.421 9.028.425 11.498 12.718 11.522 12.842.137.711.759 1.217 1.472 1.217.042 0 .084-.001.126-.005.764-.064 1.357-.693 1.375-1.459.195-8.509 12.192-12.777 12.313-12.819.675-.235 1.092-.914.994-1.623-.1-.709-.683-1.25-1.397-1.293zm-13.567 10.346c-1.356-3.13-3.709-6.907-7.587-8.876 2.931-1.405 6.409-3.913 8.202-8.273 1.551 3.071 4.2 6.88 8.334 8.722-3.007 1.64-6.922 4.406-8.949 8.427z" fill="#3a312a"/></g></g><g><g><path d="m47.771 43.425c-.689 8.179-9.213 9.471-9.213 9.471 7.318.344 9.142 9.944 9.142 9.944.156-6.844 9.422-10.045 9.422-10.045-6.94-.416-9.351-9.37-9.351-9.37z" fill="#d7e057"/></g></g><g><g><path d="m57.213 51.297c-5.766-.345-7.972-8.186-7.994-8.265-.19-.702-.85-1.166-1.582-1.102-.726.065-1.299.642-1.36 1.368-.579 6.871-7.647 8.067-7.943 8.114-.763.115-1.313.79-1.274 1.56.04.77.657 1.384 1.428 1.421 6.035.284 7.724 8.644 7.739 8.726.135.713.759 1.22 1.472 1.22.042 0 .083-.001.125-.005.765-.063 1.358-.694 1.376-1.461.13-5.709 8.331-8.634 8.412-8.662.676-.234 1.094-.913.996-1.622-.096-.707-.681-1.249-1.395-1.292zm-9.585 6.795c-.924-1.886-2.34-3.947-4.447-5.28 1.855-1.041 3.697-2.63 4.871-4.917 1.057 1.874 2.654 3.955 4.941 5.224-1.849 1.101-3.989 2.741-5.365 4.973z" fill="#3a312a"/></g></g><g><g><path d="m47.771 16.768c-.689 8.179-9.213 9.471-9.213 9.471 7.318.344 9.142 9.944 9.142 9.944.156-6.845 9.422-10.045 9.422-10.045-6.94-.416-9.351-9.37-9.351-9.37z" fill="#d7e057"/></g></g><g><g><path d="m57.213 24.64c-5.739-.343-7.952-8.112-7.993-8.263-.189-.702-.851-1.169-1.583-1.103-.726.066-1.299.642-1.36 1.368-.579 6.871-7.647 8.067-7.943 8.114-.763.115-1.313.79-1.274 1.561.04.77.657 1.384 1.428 1.421 6.035.284 7.724 8.644 7.739 8.726.135.712.759 1.22 1.473 1.22.041 0 .083-.001.125-.005.765-.063 1.358-.694 1.376-1.461.13-5.709 8.332-8.634 8.412-8.662.677-.234 1.094-.913.996-1.622-.097-.71-.682-1.251-1.396-1.294zm-9.585 6.795c-.924-1.886-2.34-3.947-4.447-5.28 1.855-1.041 3.697-2.63 4.871-4.917 1.057 1.874 2.654 3.955 4.941 5.224-1.849 1.101-3.989 2.741-5.365 4.973z" fill="#3a312a"/></g></g><g><g><path d="m197.345 156.605c0-4.774-1.979-9.076-5.165-12.159 4.141-3.082 6.833-7.994 6.833-13.55 0-6.073-3.221-11.388-8.029-14.379 3.969-3.094 6.534-7.914 6.534-13.332 0-6.177-3.324-11.561-8.259-14.517 2.554-2.968 4.107-6.81 4.107-11.032 0-7.442-4.797-13.735-11.469-16.012 1.795-2.68 2.841-5.901 2.841-9.375 0-8.869-6.81-16.128-15.495-16.852.034-.414.069-.817.069-1.231 0-9.353-7.581-16.933-16.921-16.933-9.352 0-16.933 7.58-16.933 16.933 0 .414.035.84.069 1.254-8.524.874-15.161 8.075-15.161 16.829 0 3.474 1.047 6.695 2.841 9.375-6.672 2.278-11.469 8.57-11.469 16.012 0 4.222 1.553 8.064 4.107 11.032-4.935 2.956-8.259 8.34-8.259 14.517 0 5.418 2.565 10.238 6.534 13.332-4.808 2.991-8.029 8.305-8.029 14.379 0 5.556 2.692 10.468 6.833 13.55-3.186 3.083-5.165 7.385-5.165 12.159 0 6.062 3.187 11.354 7.972 14.344-2.082 2.819-3.336 6.281-3.336 10.054 0 7.005 4.256 13.01 10.318 15.586-1.38 2.45-2.186 5.28-2.186 8.306 0 8.685 6.545 15.828 14.966 16.795-.012.207-.035.414-.035.621 0 6.43 3.578 12.02 8.869 14.873h.011c2.393 1.312 5.142 2.048 8.052 2.048 3.048 0 5.901-.805 8.374-2.22 5.107-2.91 8.547-8.398 8.547-14.701 0-.196-.023-.38-.035-.575 8.582-.829 15.299-8.052 15.299-16.841 0-3.026-.805-5.855-2.186-8.306 6.062-2.576 10.318-8.581 10.318-15.586 0-3.774-1.254-7.236-3.336-10.054 4.788-2.99 7.974-8.282 7.974-14.344z" fill="#d7e057"/></g></g><g><g><path d="m198.845 156.605c0-4.466-1.575-8.674-4.468-12.017 3.92-3.491 6.136-8.395 6.136-13.693 0-5.73-2.619-11.022-7.096-14.508 3.581-3.46 5.601-8.171 5.601-13.203 0-5.959-2.804-11.404-7.577-14.872 2.219-3.113 3.425-6.846 3.425-10.678 0-7.261-4.263-13.781-10.778-16.754 1.412-2.646 2.15-5.597 2.15-8.634 0-9.01-6.667-16.725-15.426-18.168-.047-10.125-8.292-18.348-18.421-18.348-10.15 0-18.411 8.248-18.433 18.395-8.698 1.57-15.092 9.124-15.092 18.121 0 3.037.739 5.988 2.15 8.634-6.515 2.973-10.777 9.493-10.777 16.754 0 3.831 1.206 7.564 3.424 10.678-4.774 3.467-7.577 8.913-7.577 14.872 0 5.031 2.019 9.743 5.6 13.203-4.476 3.487-7.096 8.778-7.096 14.508 0 5.297 2.216 10.201 6.135 13.693-2.892 3.343-4.467 7.551-4.467 12.017 0 5.863 2.737 11.266 7.394 14.739-1.809 2.918-2.757 6.228-2.757 9.659 0 6.871 3.793 13.098 9.786 16.278-1.085 2.39-1.654 4.993-1.654 7.614 0 8.898 6.333 16.443 14.943 18.08.232 6.517 3.884 12.424 9.646 15.53.034.018.068.035.104.051 2.641 1.424 5.637 2.177 8.672 2.177 3.201 0 6.355-.836 9.116-2.417 5.526-3.148 9.037-8.951 9.29-15.27 8.803-1.507 15.279-9.081 15.279-18.15 0-2.622-.568-5.224-1.653-7.614 5.993-3.18 9.786-9.408 9.786-16.278 0-3.431-.949-6.741-2.758-9.659 4.655-3.473 7.393-8.877 7.393-14.74zm-10.267 13.072c-.354.221-.601.58-.679.992-.078.411.019.835.267 1.171 1.991 2.695 3.043 5.863 3.043 9.163 0 6.202-3.691 11.778-9.405 14.206-.393.167-.695.493-.833.897s-.097.848.113 1.219c1.304 2.313 1.992 4.93 1.992 7.569 0 7.982-5.994 14.58-13.943 15.348-.803.078-1.401.777-1.352 1.583l.016.221c.007.088.016.174.016.264 0 5.526-2.984 10.66-7.792 13.399-4.53 2.593-10.419 2.647-14.961.159-.036-.02-.074-.039-.112-.055-4.93-2.701-7.988-7.865-7.988-13.503 0-.104.009-.208.017-.311l.016-.225c.045-.794-.537-1.484-1.327-1.575-7.774-.893-13.636-7.472-13.636-15.305 0-2.638.689-5.256 1.993-7.569.209-.372.251-.815.113-1.219-.137-.404-.44-.73-.834-.897-5.713-2.428-9.404-8.004-9.404-14.206 0-3.3 1.052-6.469 3.042-9.163.249-.336.345-.761.267-1.171-.078-.411-.324-.77-.679-.992-4.55-2.843-7.267-7.73-7.267-13.072 0-4.208 1.672-8.144 4.708-11.082.316-.306.482-.736.454-1.175-.029-.439-.248-.844-.602-1.106-3.958-2.946-6.229-7.446-6.229-12.347 0-5.355 2.737-10.254 7.321-13.105.417-.259.68-.705.706-1.195.026-.489-.189-.96-.576-1.262-3.785-2.951-5.956-7.379-5.956-12.149 0-5.46 2.815-10.406 7.53-13.23.379-.227.639-.61.71-1.047.07-.437-.055-.882-.344-1.218-2.414-2.805-3.744-6.376-3.744-10.054 0-6.594 4.201-12.458 10.453-14.593.441-.15.787-.498.936-.939.149-.442.085-.928-.174-1.315-1.693-2.529-2.588-5.482-2.588-8.541 0-7.936 5.939-14.529 13.815-15.337.813-.083 1.41-.804 1.341-1.619-.031-.372-.063-.754-.063-1.126 0-8.51 6.923-15.433 15.433-15.433 8.503 0 15.421 6.923 15.421 15.433 0 .361-.03.713-.063 1.107-.068.825.545 1.549 1.37 1.618 7.917.661 14.119 7.406 14.119 15.358 0 3.059-.894 6.012-2.587 8.541-.26.387-.324.873-.175 1.315.149.441.495.789.936.939 6.252 2.135 10.453 7.999 10.453 14.593 0 3.678-1.33 7.248-3.744 10.054-.289.335-.415.781-.344 1.218.07.437.33.82.71 1.047 4.715 2.824 7.53 7.771 7.53 13.23 0 4.77-2.171 9.198-5.956 12.149-.387.302-.601.773-.576 1.262.026.49.29.936.706 1.195 4.584 2.851 7.321 7.75 7.321 13.105 0 4.901-2.27 9.401-6.229 12.347-.354.263-.573.667-.602 1.106-.028.439.138.869.454 1.175 3.036 2.938 4.708 6.874 4.708 11.082.001 5.341-2.716 10.228-7.266 13.071z" fill="#3a312a"/></g></g><g><g><path d="m161.321 52.849h21.09v35.563h-21.09z" fill="#87796f" transform="matrix(.941 -.338 .338 .941 -13.754 62.149)"/></g></g><g><g><path d="m189.205 83.303-12.003-33.476c-.28-.78-1.14-1.185-1.918-.906l-19.852 7.118c-.78.28-1.186 1.139-.906 1.918l12.002 33.476c.135.374.412.68.772.85.202.095.421.144.641.144.171 0 .342-.029.506-.088l19.852-7.118c.375-.134.681-.412.851-.771.169-.36.189-.772.055-1.147zm-20.359 5.706-10.989-30.652 17.028-6.105 10.99 30.652z" fill="#3a312a"/></g></g><g><g><path d="m95.546 57.443h21.09v35.563h-21.09z" fill="#87796f" transform="matrix(.958 -.288 .288 .958 -17.163 33.722)"/></g></g><g><g><path d="m122.744 88.787-10.237-34.058c-.239-.793-1.076-1.245-1.868-1.005l-20.197 6.07c-.381.115-.701.375-.89.726-.188.351-.229.761-.115 1.142l10.237 34.058c.195.649.791 1.069 1.436 1.069.143 0 .288-.021.432-.064l20.197-6.07c.381-.115.701-.376.89-.726.187-.351.229-.761.115-1.142zm-20.629 4.633-9.373-31.185 17.324-5.207 9.374 31.185z" fill="#3a312a"/></g></g><g><g><ellipse cx="110.973" cy="101.851" fill="#f16c7a" rx="17.575" ry="17.575" transform="matrix(.523 -.853 .853 .523 -33.863 143.217)"/></g></g><g><g><path d="m110.973 82.776c-10.518 0-19.075 8.557-19.075 19.075s8.557 19.075 19.075 19.075 19.075-8.557 19.075-19.075-8.557-19.075-19.075-19.075zm0 35.15c-8.864 0-16.075-7.211-16.075-16.075s7.211-16.075 16.075-16.075 16.075 7.211 16.075 16.075c-.001 8.864-7.212 16.075-16.075 16.075z" fill="#3a312a"/></g></g><g><g><ellipse cx="150.171" cy="126.482" fill="#f16c7a" rx="17.575" ry="17.575" transform="matrix(.385 -.923 .923 .385 -24.352 216.431)"/></g></g><g><g><path d="m150.171 107.408c-10.518 0-19.074 8.557-19.074 19.074 0 10.518 8.557 19.075 19.074 19.075 10.519 0 19.075-8.557 19.075-19.075s-8.557-19.074-19.075-19.074zm0 35.149c-8.863 0-16.074-7.211-16.074-16.075 0-8.863 7.211-16.074 16.074-16.074 8.864 0 16.075 7.211 16.075 16.074 0 8.864-7.211 16.075-16.075 16.075z" fill="#3a312a"/></g></g><g><g><ellipse cx="146.164" cy="56.782" fill="#f16c7a" rx="17.574" ry="17.575" transform="matrix(.161 -.987 .987 .161 66.582 191.892)"/></g></g><g><g><path d="m146.164 37.707c-10.518 0-19.074 8.557-19.074 19.075s8.557 19.075 19.074 19.075c10.519 0 19.075-8.557 19.075-19.075s-8.556-19.075-19.075-19.075zm0 35.149c-8.863 0-16.074-7.211-16.074-16.075s7.211-16.075 16.074-16.075c8.864 0 16.075 7.211 16.075 16.075 0 8.865-7.211 16.075-16.075 16.075z" fill="#3a312a"/></g></g><g><g><path d="m139.328 73.758c-9.706 0-17.575 7.868-17.575 17.574s7.868 17.575 17.575 17.575c9.706 0 17.575-7.868 17.575-17.575-.001-9.705-7.869-17.574-17.575-17.574z" fill="#fce8cb"/></g></g><g><g><path d="m139.328 72.258c-10.518 0-19.075 8.557-19.075 19.075s8.557 19.075 19.075 19.075 19.074-8.557 19.074-19.075-8.556-19.075-19.074-19.075zm0 35.15c-8.863 0-16.075-7.211-16.075-16.075s7.211-16.075 16.075-16.075 16.074 7.211 16.074 16.075-7.211 16.075-16.074 16.075z" fill="#3a312a"/></g></g><g><g><path d="m159.521 101.644h21.09v35.563h-21.09z" fill="#87796f" transform="matrix(.768 -.641 .641 .768 -37.017 136.791)"/></g></g><g><g><path d="m190.71 125.352-22.798-27.294c-.531-.636-1.476-.722-2.113-.19l-16.186 13.52c-.305.255-.496.621-.532 1.017-.035.396.088.791.343 1.096l22.798 27.294c.297.355.723.539 1.152.539.339 0 .68-.114.961-.349l16.186-13.52c.305-.255.496-.621.532-1.017.035-.397-.088-.791-.343-1.096zm-17.149 12.368-20.874-24.992 13.884-11.596 20.874 24.992z" fill="#3a312a"/></g></g><g><g><path d="m116.652 104.547h35.563v21.09h-35.563z" fill="#87796f" transform="matrix(.188 -.982 .982 .188 -3.911 225.452)"/></g></g><g><g><path d="m148.42 98.141-20.712-3.971c-.39-.074-.794.008-1.124.232-.33.223-.557.568-.631.959l-6.696 34.927c-.075.391.008.795.232 1.124.223.33.568.557.959.631l20.712 3.971c.094.018.188.027.282.027.298 0 .592-.089.842-.259.329-.223.557-.568.632-.959l6.695-34.926c.156-.814-.378-1.6-1.191-1.756zm-8.168 34.644-17.767-3.406 6.131-31.98 17.765 3.406z" fill="#3a312a"/></g></g><g><g><path d="m207.408 84.382c-1.644-4.248-5.04-7.645-9.289-9.288-14.965-5.79-28.979 8.225-23.189 23.189 1.644 4.249 5.04 7.645 9.289 9.289 14.964 5.79 28.979-8.225 23.189-23.19z" fill="#f16c7a"/></g></g><g><g><path d="m208.808 83.841c-1.799-4.648-5.497-8.347-10.146-10.146-7.481-2.896-15.522-1.305-20.98 4.15-5.456 5.456-7.047 13.495-4.15 20.98 1.799 4.649 5.498 8.348 10.146 10.146 2.472.956 5.005 1.424 7.484 1.424 5.028 0 9.841-1.92 13.495-5.574 5.456-5.456 7.046-13.495 4.151-20.98zm-6.273 18.858c-4.605 4.605-11.415 5.935-17.775 3.474-3.862-1.495-6.936-4.567-8.431-8.431-2.461-6.361-1.13-13.172 3.474-17.776 3.075-3.075 7.135-4.69 11.388-4.69 2.114 0 4.276.399 6.389 1.216 3.863 1.495 6.936 4.568 8.43 8.431 2.461 6.361 1.13 13.173-3.475 17.776z" fill="#3a312a"/></g></g><g><g><path d="m82.176 176.012h135.265v63.22h-135.265z" fill="#f8e4c8"/></g></g><g><g><path d="m217.441 174.512h-135.265c-.829 0-1.5.671-1.5 1.5v63.22c0 .829.671 1.5 1.5 1.5h81.466c.828 0 1.5-.671 1.5-1.5s-.672-1.5-1.5-1.5h-79.966v-60.22h132.265v60.22h-37.966c-.828 0-1.5.671-1.5 1.5s.672 1.5 1.5 1.5h39.466c.828 0 1.5-.671 1.5-1.5v-63.22c0-.828-.672-1.5-1.5-1.5z" fill="#3a312a"/></g></g><g><g><path d="m84.327 97.012h-2.151v142.22h2.151c42.311 0 76.61-31.837 76.61-71.11 0-39.273-34.299-71.11-76.61-71.11z" fill="#f8e4c8"/></g></g><g><g><path d="m84.327 95.512h-2.151c-.829 0-1.5.671-1.5 1.5v23.634c0 .829.671 1.5 1.5 1.5s1.5-.671 1.5-1.5v-22.134h.651c41.416 0 75.11 31.227 75.11 69.61s-33.694 69.61-75.11 69.61h-.651v-102.354c0-.829-.671-1.5-1.5-1.5s-1.5.671-1.5 1.5v103.854c0 .829.671 1.5 1.5 1.5h2.151c43.07 0 78.11-32.573 78.11-72.61s-35.04-72.61-78.11-72.61z" fill="#3a312a"/></g></g><g><g><path d="m215.29 97.012c-42.31 0-76.61 31.837-76.61 71.11 0 39.273 34.299 71.11 76.61 71.11h2.151v-142.22z" fill="#f8e4c8"/></g></g><g><g><path d="m217.441 95.512h-2.151c-43.069 0-78.109 32.573-78.109 72.61s35.04 72.61 78.109 72.61h2.151c.828 0 1.5-.671 1.5-1.5v-142.22c0-.828-.672-1.5-1.5-1.5zm-1.5 142.22h-.651c-41.415 0-75.109-31.227-75.109-69.61s33.694-69.61 75.109-69.61h.651z" fill="#3a312a"/></g></g><g><g><path d="m215.289 98.512c-4.91 0-9.7.44-14.35 1.28v136.66c4.65.84 9.44 1.28 14.35 1.28h.65v-139.22z" fill="#decaad"/></g></g></g></svg>