<svg id="Layer_1" enable-background="new 0 0 256 256" height="512" viewBox="0 0 256 256" width="512" xmlns="http://www.w3.org/2000/svg"><g><g><g><circle cx="131.625" cy="131.622" fill="#87796f" r="107.75"/></g></g><g><g><path d="m131.625 22.372c-60.24 0-109.25 49.009-109.25 109.25 0 60.24 49.01 109.25 109.25 109.25s109.25-49.01 109.25-109.25c0-60.241-49.01-109.25-109.25-109.25zm0 215.5c-58.587 0-106.25-47.663-106.25-106.25 0-58.586 47.663-106.25 106.25-106.25s106.25 47.664 106.25 106.25c0 58.587-47.663 106.25-106.25 106.25z" fill="#3a312a"/></g></g><g><g><path d="m131.625 40.3c-6.054 0-11.969.595-17.693 1.719l-13.858 3.88c-34.888 12.845-59.771 46.377-59.771 85.723 0 50.436 40.886 91.322 91.322 91.322s91.322-40.886 91.322-91.322c-.001-50.436-40.887-91.322-91.322-91.322z" fill="#87796f"/></g></g><g><g><path d="m131.625 38.8c-6.026 0-12.077.588-17.983 1.748-.813.159-1.343.948-1.183 1.761s.947 1.347 1.761 1.183c5.716-1.122 11.572-1.691 17.405-1.691 49.527 0 89.821 40.294 89.821 89.822 0 49.527-40.294 89.821-89.821 89.821-49.528 0-89.822-40.294-89.822-89.821 0-37.485 23.625-71.369 58.789-84.315.777-.286 1.176-1.148.889-1.926-.285-.777-1.146-1.175-1.926-.89-36.338 13.379-60.752 48.394-60.752 87.13 0 51.182 41.64 92.821 92.822 92.821s92.821-41.64 92.821-92.821c0-51.182-41.639-92.822-92.821-92.822z" fill="#3a312a"/></g></g><g><g><path d="m47.536 26.305c-.974 11.564-13.025 13.39-13.025 13.39 10.347.487 12.925 14.059 12.925 14.059.221-9.677 13.321-14.202 13.321-14.202-9.813-.588-13.221-13.247-13.221-13.247z" fill="#d6df58"/></g></g><g><g><path d="m60.848 38.054c-8.604-.515-11.832-12.024-11.863-12.141-.19-.702-.847-1.16-1.584-1.102-.725.066-1.298.642-1.359 1.367-.86 10.215-11.313 11.964-11.755 12.033-.763.115-1.314.79-1.274 1.561.04.77.657 1.384 1.428 1.421 9.028.425 11.499 12.718 11.522 12.842.138.711.76 1.217 1.473 1.217.042 0 .084-.001.126-.005.765-.064 1.357-.693 1.375-1.46.193-8.509 12.191-12.777 12.313-12.819.676-.235 1.092-.914.994-1.623-.098-.707-.682-1.248-1.396-1.291zm-13.567 10.345c-1.356-3.13-3.709-6.907-7.587-8.876 2.931-1.404 6.409-3.913 8.202-8.273 1.551 3.071 4.199 6.88 8.334 8.723-3.007 1.639-6.922 4.405-8.949 8.426z" fill="#3a312a"/></g></g><g><g><path d="m25.837 43.285c-.689 8.179-9.213 9.471-9.213 9.471 7.318.344 9.142 9.944 9.142 9.944.156-6.844 9.422-10.045 9.422-10.045-6.94-.416-9.351-9.37-9.351-9.37z" fill="#d6df58"/></g></g><g><g><path d="m35.278 51.157c-5.766-.345-7.972-8.186-7.994-8.265-.189-.702-.862-1.162-1.581-1.102-.726.065-1.3.643-1.361 1.368-.578 6.871-7.646 8.067-7.941 8.114-.763.115-1.313.79-1.273 1.561.04.77.657 1.384 1.428 1.421 6.034.284 7.723 8.644 7.738 8.726.136.713.759 1.22 1.473 1.22.041 0 .083-.002.125-.005.765-.063 1.358-.694 1.376-1.461.13-5.709 8.331-8.634 8.412-8.662.676-.234 1.093-.913.996-1.622-.099-.708-.684-1.25-1.398-1.293zm-9.585 6.795c-.924-1.885-2.34-3.947-4.446-5.28 1.855-1.041 3.697-2.629 4.87-4.916 1.058 1.873 2.654 3.954 4.941 5.223-1.849 1.102-3.989 2.741-5.365 4.973z" fill="#3a312a"/></g></g><g><g><path d="m25.837 16.628c-.689 8.179-9.213 9.471-9.213 9.471 7.318.344 9.142 9.944 9.142 9.944.156-6.844 9.422-10.045 9.422-10.045-6.94-.416-9.351-9.37-9.351-9.37z" fill="#d6df58"/></g></g><g><g><path d="m35.278 24.499c-5.766-.345-7.972-8.185-7.994-8.265-.189-.702-.862-1.161-1.581-1.102-.726.065-1.3.643-1.361 1.368-.578 6.871-7.646 8.067-7.941 8.114-.763.115-1.313.79-1.273 1.561.04.77.657 1.384 1.428 1.421 6.034.284 7.723 8.644 7.738 8.726.136.712.759 1.22 1.473 1.22.041 0 .083-.001.125-.005.765-.063 1.358-.694 1.376-1.461.13-5.709 8.331-8.634 8.412-8.662.676-.234 1.093-.913.996-1.622-.099-.708-.684-1.25-1.398-1.293zm-9.585 6.796c-.924-1.886-2.34-3.947-4.446-5.28 1.855-1.041 3.697-2.63 4.87-4.917 1.058 1.874 2.654 3.954 4.941 5.224-1.849 1.101-3.989 2.74-5.365 4.973z" fill="#3a312a"/></g></g><g><g><path d="m193.738 120.99c-.958-2.598-4.675-2.464-5.411.206-1.903 6.905-4.749 16.549-8.251 23.428-20.01 39.301-49.607 31.024-76.837 21.494-6.48-2.268-13.674.069-17.571 5.721l-.166.24c-4.254 6.168-3.449 14.58 2.042 19.678 1.23 1.142 2.519 2.239 3.853 3.298l6.452 4.527c1.434.885 2.911 1.729 4.438 2.521 26.939 13.959 60.223 7.343 79.833-15.809 16.167-19.087 19.457-44.04 11.618-65.304z" fill="#ef6d7a"/></g></g><g><g><path d="m195.146 120.471c-.668-1.813-2.36-2.931-4.273-2.851-1.914.081-3.48 1.328-3.991 3.178-1.844 6.692-4.693 16.374-8.142 23.146-18.786 36.895-45.081 31.23-75.005 20.759-7.099-2.482-15.036.1-19.301 6.284l-.166.241c-4.683 6.789-3.713 16.088 2.256 21.63 1.218 1.13 2.544 2.265 4.012 3.426l6.452 4.526c.024.018.049.033.074.049 1.518.936 3.043 1.803 4.535 2.577 9.59 4.969 20.033 7.361 30.416 7.361 19.253 0 38.292-8.231 51.252-23.533 15.688-18.523 20.241-44.116 11.881-66.793zm-14.17 64.853c-19.054 22.497-51.853 28.994-77.998 15.447-1.414-.732-2.861-1.555-4.304-2.443l-6.345-4.447c-1.337-1.061-2.604-2.145-3.765-3.223-4.885-4.535-5.67-12.156-1.828-17.727l.167-.241c3.499-5.076 10.012-7.197 15.841-5.156 12.444 4.354 24.639 7.975 36.07 7.974 16.243-.002 30.943-7.311 42.599-30.203 3.571-7.016 6.482-16.892 8.36-23.71.239-.87.998-.968 1.225-.978.232-.008 1.014.026 1.333.892 7.986 21.665 3.636 46.117-11.355 63.815z" fill="#3a312a"/></g></g><g><g><path d="m113.665 168.021c-.756-.34-1.644-.002-1.982.754-5.079 11.304-6.931 23.773-5.356 36.058.098.757.743 1.31 1.486 1.31.063 0 .128-.004.192-.012.822-.105 1.402-.857 1.298-1.679-1.505-11.736.265-23.648 5.116-34.448.34-.755.002-1.643-.754-1.983z" fill="#3a312a"/></g></g><g><g><path d="m143.427 207.874c-5.096-10.489-7.211-22.115-6.146-33.779.075-.825-.533-1.555-1.357-1.631-.83-.069-1.556.532-1.631 1.357-1.114 12.208 1.101 24.382 6.435 35.362.26.534.794.845 1.351.845.22 0 .443-.048.654-.15.745-.361 1.055-1.259.694-2.004z" fill="#3a312a"/></g></g><g><g><path d="m175.941 192.528c-6.785-6.772-12.052-15.181-15.232-24.315-.273-.782-1.126-1.198-1.91-.924-.782.272-1.196 1.128-.924 1.91 3.328 9.561 8.843 18.361 15.946 25.452.293.292.676.438 1.06.438.385 0 .769-.146 1.061-.44.585-.586.585-1.536-.001-2.121z" fill="#3a312a"/></g></g><g><g><path d="m195.552 162.338c-6.244-4.056-11.691-9.124-16.192-15.063-.501-.66-1.44-.79-2.102-.289-.66.5-.79 1.441-.289 2.102 4.711 6.216 10.413 11.521 16.948 15.766.253.164.536.242.816.242.49 0 .972-.24 1.259-.683.451-.695.254-1.624-.44-2.075z" fill="#3a312a"/></g></g><g><g><path d="m186.552 110.661c-4.34-5.993-9.571-10.348-11.684-9.729s-.307 5.979 4.034 11.972c4.34 5.992 9.571 10.348 11.684 9.729 2.112-.619.306-5.979-4.034-11.972z" fill="#d6df58"/></g></g><g><g><path d="m187.767 109.781c-2.933-4.05-9.51-11.414-13.32-10.289-.843.247-1.47.859-1.765 1.724-.969 2.834 1.951 8.35 5.006 12.567 2.729 3.768 8.597 10.404 12.484 10.403.291 0 .57-.037.836-.115.843-.247 1.47-.859 1.765-1.724.968-2.832-1.952-8.349-5.006-12.566zm2.21 11.407c-1.333-.18-5.584-3.261-9.859-9.164-3.595-4.963-4.753-8.572-4.64-9.647 1.333.18 5.584 3.261 9.859 9.164 3.595 4.963 4.753 8.572 4.64 9.647z" fill="#3a312a"/></g></g><g><g><path d="m202.43 98.513c-2.188-.242-6.58 4.958-9.81 11.616-3.23 6.657-4.074 12.25-1.886 12.492s6.58-4.959 9.81-11.616c3.229-6.657 4.074-12.25 1.886-12.492z" fill="#d6df58"/></g></g><g><g><path d="m204.632 98.412c-.441-.8-1.165-1.293-2.037-1.39-3.945-.455-9.142 7.952-11.325 12.451-2.274 4.686-4.187 10.627-2.739 13.248.442.8 1.166 1.294 2.038 1.39.101.011.201.017.304.017 3.923 0 8.894-8.083 11.02-12.468 2.273-4.685 4.187-10.626 2.739-13.248zm-5.439 11.938c-3.191 6.578-6.854 10.354-8.111 10.746-.301-1.033.208-4.791 2.887-10.313 3.192-6.578 6.854-10.354 8.111-10.746.302 1.034-.208 4.792-2.887 10.313z" fill="#3a312a"/></g></g><g><g><path d="m164.735 55.025c-1.642 0-7.741 8.437-7.741 15.951s3.466 11.259 7.741 11.259 7.741-3.745 7.741-11.259c-.001-7.514-6.099-15.951-7.741-15.951z" fill="#d6df58"/></g></g><g><g><path d="m164.734 53.525c-2.257 0-5.003 4.529-5.79 5.917-1.289 2.271-3.45 6.788-3.45 11.533 0 9.418 4.977 12.759 9.24 12.759s9.241-3.342 9.241-12.759c.001-7.673-6.264-17.45-9.241-17.45zm0 27.21c-3.849 0-6.24-3.74-6.24-9.759 0-6.212 4.563-13.006 6.24-14.316 1.679 1.31 6.241 8.103 6.241 14.316.001 6.019-2.391 9.759-6.241 9.759z" fill="#3a312a"/></g></g><g><g><path d="m106.55 65.498c-5.313-5.313-10.412-5.511-13.435-2.488s-2.825 8.122 2.488 13.435 15.592 6.966 16.753 5.805c1.16-1.16-.493-11.439-5.806-16.752z" fill="#d6df58"/></g></g><g><g><path d="m113.326 75.033c-.694-2.517-2.36-7.24-5.716-10.595-2.734-2.734-5.646-4.392-8.423-4.794-2.725-.393-5.254.426-7.134 2.306-1.882 1.881-2.7 4.415-2.306 7.134.402 2.776 2.06 5.688 4.794 8.422 4.126 4.126 11.672 6.551 15.977 6.551 1.356 0 2.393-.241 2.896-.745 1.598-1.597.336-6.741-.088-8.279zm-2.128 6.062c-2.112.267-10.144-1.319-14.535-5.71-2.273-2.273-3.638-4.601-3.946-6.731-.259-1.786.245-3.37 1.458-4.583 1.006-1.006 2.268-1.524 3.688-1.524.292 0 .591.022.896.066 2.131.309 4.458 1.673 6.731 3.946 4.392 4.393 5.969 12.423 5.708 14.536z" fill="#3a312a"/></g></g><g><g><ellipse cx="90.327" cy="123.953" fill="#fae6ca" rx="34.547" ry="34.547" transform="matrix(.11 -.994 .994 .11 -42.781 200.147)"/></g></g><g><g><path d="m90.327 87.906c-19.876 0-36.047 16.171-36.047 36.047s16.171 36.047 36.047 36.047c19.877 0 36.048-16.171 36.048-36.047s-16.171-36.047-36.048-36.047zm0 69.094c-18.222 0-33.047-14.825-33.047-33.047s14.825-33.047 33.047-33.047c18.223 0 33.048 14.825 33.048 33.047s-14.825 33.047-33.048 33.047z" fill="#3a312a"/></g></g><g><g><ellipse cx="90.327" cy="123.953" fill="#d6df58" rx="24.054" ry="24.054" transform="matrix(.995 -.103 .103 .995 -12.257 9.936)"/></g></g><g><g><path d="m90.327 98.398c-14.091 0-25.554 11.464-25.554 25.555s11.463 25.555 25.554 25.555 25.555-11.464 25.555-25.555-11.464-25.555-25.555-25.555zm0 48.11c-12.437 0-22.554-10.118-22.554-22.555s10.117-22.555 22.554-22.555 22.555 10.118 22.555 22.555-10.118 22.555-22.555 22.555z" fill="#3a312a"/></g></g><g><g><path d="m90.327 98.398c-.828 0-1.5.671-1.5 1.5v48.109c0 .828.672 1.5 1.5 1.5s1.5-.672 1.5-1.5v-48.109c0-.828-.672-1.5-1.5-1.5z" fill="#3a312a"/></g></g><g><g><path d="m114.382 122.453h-48.11c-.828 0-1.5.671-1.5 1.5s.672 1.5 1.5 1.5h48.109c.828 0 1.5-.671 1.5-1.5.001-.829-.671-1.5-1.499-1.5z" fill="#3a312a"/></g></g><g><g><path d="m108.396 105.883c-.586-.586-1.535-.586-2.121 0l-34.018 34.018c-.586.586-.586 1.535 0 2.121.293.293.677.439 1.061.439s.768-.146 1.061-.439l34.018-34.018c.585-.585.585-1.535-.001-2.121z" fill="#3a312a"/></g></g><g><g><path d="m108.396 139.901-34.018-34.018c-.586-.586-1.535-.586-2.121 0-.586.585-.586 1.536 0 2.121l34.018 34.018c.293.293.677.439 1.061.439s.768-.146 1.061-.439c.585-.586.585-1.535-.001-2.121z" fill="#3a312a"/></g></g><g><g><path d="m126.089 59.31c-.637-1.815-.9-3.789-.764-5.708.06-.826-.563-1.544-1.39-1.603-.815-.059-1.543.563-1.603 1.389-.166 2.326.153 4.717.926 6.916.217.618.796 1.004 1.415 1.004.165 0 .332-.027.497-.085.782-.276 1.193-1.132.919-1.913z" fill="#3a312a"/></g></g><g><g><path d="m135.417 70.811c-5.478-13.045-8.156-12.168-10.364-11.702-6.947 1.468-4.417 14.286 4.629 22.883 1.086 1.032 2.29 1.971 3.568 2.825l13.241 5.628c5.609 1.383 10.316 1.462 11.25.479 1.88-1.977-16.736-6.805-22.324-20.113z" fill="#ef6d7a"/></g></g><g><g><path d="m159.353 90.33c-.215-1.412-1.736-2.26-5.068-4.119-5.262-2.934-14.067-7.844-17.484-15.981-5.405-12.874-8.599-13.332-11.922-12.617l-.135.028c-2.398.507-4.104 2.149-4.805 4.623-1.595 5.632 2.15 14.58 8.711 20.815 1.095 1.042 2.362 2.045 3.767 2.985.689.459 1.62.276 2.081-.414.46-.688.275-1.62-.413-2.081-1.264-.844-2.396-1.741-3.368-2.665-6.381-6.065-9.023-13.825-7.892-17.824.399-1.409 1.229-2.228 2.54-2.504l.143-.031c1.45-.313 3.645-.783 8.527 10.845 3.817 9.092 13.189 14.318 18.789 17.44.742.414 1.531.854 2.192 1.247-1.698.05-4.538-.195-8.165-1.09-.804-.197-1.617.293-1.815 1.097-.198.805.293 1.617 1.097 1.816.691.17 4.921 1.177 8.411 1.177 1.849 0 3.489-.283 4.286-1.121.422-.443.612-1.036.523-1.626z" fill="#3a312a"/></g></g><g><g><path d="m161.013 110.027c-.543-.626-1.489-.694-2.116-.151-1.762 1.527-3.227 3.444-4.235 5.544-.359.747-.045 1.643.702 2.001.209.101.431.148.648.148.559 0 1.095-.313 1.353-.851.833-1.733 2.042-3.316 3.497-4.576.625-.541.693-1.488.151-2.115z" fill="#3a312a"/></g></g><g><g><path d="m155.828 131.448c5.351-13.098 2.837-14.372.946-15.602-5.95-3.874-13.225 6.978-12.908 19.454.317 12.475 10.799 26.226 13.526 26.157 2.726-.07-7.023-16.647-1.564-30.009z" fill="#ef6d7a"/></g></g><g><g><path d="m157.216 132.016c5.281-12.925 3.347-15.505.491-17.353l-.115-.075c-2.055-1.336-4.423-1.382-6.666-.129-5.109 2.855-8.789 11.831-8.559 20.878.305 11.972 10.486 27.619 15.015 27.619h.049c.613-.016 1.167-.301 1.52-.781.847-1.15.371-2.825-.672-6.496-1.646-5.794-4.401-15.493-1.063-23.663zm-11.851 3.246c-.224-8.8 3.396-16.156 7.023-18.183.632-.353 1.236-.53 1.822-.53.599 0 1.177.185 1.744.554l.122.079c1.247.807 3.131 2.025-1.639 13.699-3.729 9.129-.797 19.451.954 25.618.238.838.491 1.729.683 2.486-3.423-3.229-10.455-13.75-10.709-23.723z" fill="#3a312a"/></g></g><g><g><path d="m131.625 41.802c-2.53 0-5.03.1-7.5.31 14 1.16 27.09 5.55 38.53 12.41.7-.6 1.41-1 2.08-1 1.59 0 4.12 2.79 6.13 6.56 12.77 9.69 22.87 22.73 28.99 37.79.94-.62 1.87-.94 2.74-.85.87.1 1.6.59 2.04 1.39 1.12 2.02.24 6-1.27 9.86 2.01 7.45 3.08 15.28 3.08 23.35 0 47-36.28 85.69-82.32 89.51 2.47.21 4.97.31 7.5.31 49.53 0 89.82-40.29 89.82-89.82s-40.29-89.82-89.82-89.82z" fill="#6a5c52"/></g></g></g></svg>