<svg id="Layer_1" enable-background="new 0 0 256 256" height="512" viewBox="0 0 256 256" width="512" xmlns="http://www.w3.org/2000/svg"><g><g><g><path d="m225.319 49.108c4.998-4.998 4.998-13.101.006-18.093-4.998-4.998-13.1-4.998-18.099 0-.221.222-.43.467-.633.707-5.023-4.088-12.418-3.787-17.096.891-1.857 1.857-3.018 4.137-3.492 6.529-4.783-2.348-10.709-1.549-14.687 2.428-2.256 2.256-3.48 5.14-3.701 8.09-4.217-1.058-8.871.043-12.173 3.344-2.895 2.896-4.1 6.842-3.633 10.617-4.168-.971-8.73.148-11.975 3.394-2.969 2.969-4.156 7.033-3.59 10.893-3.351-.055-6.707 1.187-9.259 3.738-3.24 3.24-4.365 7.771-3.406 11.926-2.619.394-5.139 1.574-7.156 3.591-3.744 3.744-4.678 9.228-2.815 13.844-2.047.572-3.99 1.653-5.607 3.271-4.641 4.641-4.961 11.957-.978 16.974-.117.104-.24.203-.35.314-3.436 3.436-4.512 8.336-3.209 12.688l.006.006c.578 1.98 1.654 3.842 3.209 5.398 1.629 1.629 3.584 2.724 5.662 3.289 4.285 1.174 9.056.08 12.424-3.289.105-.105.191-.215.289-.326 5.029 4.144 12.48 3.873 17.177-.824 1.617-1.617 2.699-3.559 3.271-5.607 4.617 1.863 10.101.928 13.844-2.816 2.017-2.017 3.197-4.537 3.59-7.156 4.156.959 8.686-.166 11.926-3.406 2.552-2.552 3.793-5.908 3.738-9.258 3.86.566 7.924-.621 10.893-3.59 3.246-3.246 4.365-7.807 3.394-11.976 3.775.467 7.721-.738 10.617-3.633 3.301-3.301 4.402-7.955 3.344-12.172 2.951-.221 5.834-1.445 8.09-3.701 3.977-3.977 4.777-9.904 2.428-14.687 2.391-.474 4.672-1.635 6.529-3.492 4.74-4.74 4.98-12.258.725-17.287.242-.201.476-.398.697-.619z" fill="#d7e057"/></g></g><g><g><path d="m230.568 40.059c.001-3.818-1.484-7.407-4.183-10.105-2.701-2.701-6.291-4.188-10.11-4.188-3.708 0-7.2 1.402-9.872 3.956-5.607-3.721-13.105-3.032-17.967 1.831-1.574 1.574-2.745 3.468-3.44 5.549-5.114-1.756-10.848-.484-14.739 3.407-2.017 2.017-3.375 4.593-3.914 7.382-4.402-.587-8.776.87-11.959 4.053-2.661 2.661-4.13 6.188-4.172 9.899-4.229-.407-8.393 1.067-11.437 4.111-2.821 2.821-4.293 6.584-4.162 10.521-3.284.318-6.322 1.746-8.687 4.111-3.137 3.137-4.606 7.461-4.074 11.81-2.463.638-4.684 1.903-6.488 3.707-3.687 3.687-5.045 9.027-3.657 13.969-1.782.717-3.408 1.788-4.766 3.146-4.811 4.811-5.524 12.277-1.881 17.871-3.298 3.688-4.461 8.823-3.033 13.595.01.034.021.067.034.101.668 2.223 1.896 4.272 3.557 5.934 1.755 1.756 3.944 3.027 6.327 3.675 1.243.34 2.509.506 3.766.506 3.461 0 6.854-1.258 9.486-3.589 5.631 3.816 13.191 3.162 18.095-1.742 1.358-1.357 2.428-2.984 3.146-4.766 4.941 1.386 10.282.03 13.969-3.657 1.805-1.804 3.069-4.024 3.706-6.488 4.349.528 8.673-.937 11.811-4.074 2.365-2.365 3.793-5.403 4.111-8.687 3.938.13 7.7-1.341 10.52-4.162 3.044-3.044 4.515-7.21 4.111-11.437 3.711-.042 7.238-1.511 9.899-4.172 3.184-3.183 4.641-7.557 4.053-11.959 2.789-.54 5.365-1.897 7.381-3.914 3.891-3.89 5.163-9.625 3.408-14.738 2.081-.696 3.975-1.866 5.549-3.44 4.869-4.868 5.499-12.596 1.68-18.175 2.539-2.666 3.931-6.147 3.932-9.841zm-7.73 25.896c-1.584 1.583-3.575 2.648-5.759 3.08-.458.091-.847.389-1.053.806-.207.418-.208.908-.002 1.327 2.132 4.342 1.27 9.552-2.143 12.965-1.903 1.903-4.439 3.063-7.142 3.266-.441.033-.845.259-1.104.618s-.346.813-.239 1.243c.979 3.903-.124 7.921-2.95 10.747-2.469 2.469-5.884 3.638-9.372 3.205-.488-.06-.972.122-1.299.486-.328.364-.457.866-.346 1.343.897 3.85-.222 7.803-2.993 10.575-2.537 2.536-6.043 3.688-9.615 3.166-.437-.062-.878.066-1.208.357-.331.291-.517.711-.51 1.152.051 3.092-1.121 5.995-3.298 8.173-2.765 2.765-6.699 3.888-10.529 3.005-.408-.095-.836-.014-1.181.221-.346.235-.578.604-.64 1.018-.364 2.425-1.46 4.61-3.168 6.318-3.21 3.21-8.008 4.186-12.223 2.485-.396-.16-.841-.143-1.224.046-.383.188-.668.531-.782.942-.522 1.872-1.52 3.583-2.886 4.95-4.132 4.132-10.651 4.444-15.163.727-.623-.515-1.542-.441-2.077.163l-.114.132c-.036.043-.07.085-.113.128-2.861 2.861-7.063 3.972-10.969 2.902-1.882-.512-3.609-1.516-4.996-2.902-1.332-1.332-2.31-2.977-2.83-4.757-.011-.037-.023-.073-.037-.108-1.145-3.945-.053-8.192 2.86-11.105.049-.049.102-.093.154-.138l.134-.117c.594-.529.671-1.43.177-2.052-3.562-4.486-3.191-10.926.863-14.98 1.366-1.366 3.078-2.364 4.95-2.886.411-.115.754-.399.942-.782.189-.383.205-.828.046-1.224-1.701-4.214-.726-9.012 2.485-12.222 1.708-1.708 3.893-2.804 6.318-3.168.413-.062.782-.294 1.017-.64s.315-.774.221-1.181c-.883-3.828.24-7.763 3.005-10.528 2.178-2.178 5.123-3.362 8.173-3.298.43.01.861-.179 1.152-.51s.421-.772.358-1.208c-.525-3.574.63-7.079 3.166-9.615 2.772-2.771 6.725-3.89 10.575-2.993.479.112.979-.018 1.343-.346.365-.328.546-.813.486-1.299-.432-3.487.736-6.903 3.205-9.372 2.826-2.826 6.843-3.929 10.747-2.95.427.108.883.02 1.243-.239.359-.259.585-.663.618-1.104.203-2.702 1.362-5.239 3.266-7.142 3.414-3.412 8.624-4.275 12.965-2.142.419.205.908.205 1.327-.002.418-.207.715-.596.806-1.053.432-2.184 1.497-4.175 3.08-5.759 4.108-4.108 10.595-4.447 15.089-.789.634.516 1.564.429 2.091-.193.177-.208.357-.424.549-.616 2.134-2.134 4.971-3.309 7.989-3.309s5.854 1.175 7.989 3.309c2.131 2.131 3.304 4.966 3.304 7.983-.001 3.018-1.176 5.854-3.312 7.989-.188.188-.387.354-.6.535-.304.257-.493.624-.526 1.021-.033.396.092.79.35 1.094 3.757 4.434 3.476 11.136-.64 15.252z" fill="#3a312a"/></g></g><g><g><path d="m103.473 144.26c.578 1.98 1.654 3.842 3.209 5.398 1.629 1.629 3.584 2.723 5.662 3.289l89.682-98.46z" fill="#fce8cb"/></g></g><g><g><path d="m203.086 53.426c-.567-.568-1.479-.588-2.071-.048l-98.553 89.774c-.423.386-.59.979-.43 1.529.66 2.263 1.901 4.35 3.588 6.038 1.754 1.755 3.943 3.026 6.329 3.676.13.036.263.053.394.053.416 0 .821-.173 1.109-.49l89.682-98.46c.54-.594.519-1.505-.048-2.072zm-91.205 97.803c-1.549-.56-2.966-1.458-4.138-2.631-1.112-1.112-1.978-2.442-2.535-3.888l74.052-67.456z" fill="#3a312a"/></g></g><g><g><path d="m201.257 74.657h-18.75c-.829 0-1.5.671-1.5 1.5s.671 1.5 1.5 1.5h18.75c.829 0 1.5-.671 1.5-1.5 0-.828-.671-1.5-1.5-1.5z" fill="#3a312a"/></g></g><g><g><path d="m185.427 92.024h-18.75c-.829 0-1.5.671-1.5 1.5s.671 1.5 1.5 1.5h18.75c.829 0 1.5-.671 1.5-1.5s-.671-1.5-1.5-1.5z" fill="#3a312a"/></g></g><g><g><path d="m169.495 109.289-18.75.001c-.829 0-1.5.671-1.5 1.5s.671 1.5 1.5 1.5l18.75-.001c.829 0 1.5-.671 1.5-1.5s-.672-1.5-1.5-1.5z" fill="#3a312a"/></g></g><g><g><path d="m153.665 126.656h-18.751c-.829 0-1.5.671-1.5 1.5s.671 1.5 1.5 1.5h18.751c.829 0 1.5-.671 1.5-1.5s-.672-1.5-1.5-1.5z" fill="#3a312a"/></g></g><g><g><path d="m180.253 53.653c-.829 0-1.5.671-1.5 1.5v18.75c0 .829.671 1.5 1.5 1.5s1.5-.671 1.5-1.5v-18.75c0-.829-.672-1.5-1.5-1.5z" fill="#3a312a"/></g></g><g><g><path d="m162.886 69.483c-.829 0-1.5.671-1.5 1.5v18.75c0 .829.671 1.5 1.5 1.5s1.5-.671 1.5-1.5v-18.75c0-.829-.672-1.5-1.5-1.5z" fill="#3a312a"/></g></g><g><g><path d="m145.622 85.415c-.828 0-1.5.671-1.5 1.5l-.001 18.751c0 .829.671 1.5 1.5 1.5.828 0 1.5-.671 1.5-1.5l.001-18.751c0-.828-.672-1.5-1.5-1.5z" fill="#3a312a"/></g></g><g><g><path d="m128.254 101.246c-.829 0-1.5.671-1.5 1.5v18.751c0 .829.671 1.5 1.5 1.5s1.5-.671 1.5-1.5v-18.751c0-.829-.671-1.5-1.5-1.5z" fill="#3a312a"/></g></g><g><g><path d="m149.323 171.566c-.105-.105-.215-.191-.326-.289 4.143-5.029 3.873-12.48-.824-17.177-1.617-1.617-3.56-2.699-5.607-3.271 1.863-4.617.928-10.101-2.816-13.844-2.017-2.017-4.537-3.197-7.156-3.59.959-4.156-.166-8.686-3.406-11.926-2.551-2.551-5.908-3.793-9.258-3.738.566-3.86-.621-7.924-3.59-10.893-3.246-3.246-7.807-4.365-11.976-3.393.467-3.775-.738-7.721-3.633-10.617-3.301-3.301-7.955-4.402-12.172-3.344-.221-2.951-1.445-5.834-3.701-8.09-3.977-3.978-9.904-4.777-14.687-2.428-.473-2.391-1.635-4.672-3.492-6.529-4.74-4.74-12.258-4.98-17.287-.725-.203-.24-.399-.473-.621-.695-4.998-4.998-13.101-4.998-18.093-.006-4.998 4.998-4.998 13.1 0 18.099.221.221.467.43.707.633-4.088 5.022-3.787 12.418.891 17.096 1.857 1.857 4.137 3.018 6.529 3.492-2.348 4.783-1.549 10.709 2.428 14.687 2.256 2.256 5.139 3.48 8.09 3.701-1.058 4.217.043 8.871 3.344 12.172 2.895 2.895 6.842 4.1 10.617 3.633-.971 4.168.148 8.73 3.394 11.975 2.969 2.969 7.033 4.156 10.893 3.59-.055 3.351 1.186 6.707 3.738 9.259 3.24 3.24 7.771 4.365 11.926 3.406.394 2.619 1.574 5.139 3.59 7.156 3.744 3.744 9.228 4.679 13.844 2.816.572 2.047 1.654 3.99 3.271 5.607 4.641 4.641 11.957 4.961 16.974.978.104.117.203.24.314.35 3.436 3.436 8.336 4.512 12.688 3.209l.006-.006c1.98-.578 3.843-1.653 5.398-3.209 1.629-1.629 2.723-3.584 3.289-5.662 1.177-4.287.083-9.058-3.286-12.427z" fill="#d7e057"/></g></g><g><g><path d="m150.976 171.135c3.816-5.631 3.162-13.191-1.742-18.095-1.357-1.357-2.984-2.427-4.766-3.145 1.388-4.942.03-10.283-3.657-13.969-1.804-1.804-4.024-3.068-6.488-3.706.532-4.349-.936-8.673-4.074-11.81-2.365-2.365-5.402-3.793-8.686-4.111.13-3.936-1.341-7.699-4.162-10.52-3.044-3.044-7.21-4.513-11.437-4.111-.042-3.711-1.511-7.238-4.172-9.899-3.183-3.184-7.554-4.64-11.959-4.053-.54-2.789-1.898-5.365-3.915-7.382-3.891-3.891-9.624-5.163-14.738-3.408-.695-2.082-1.866-3.975-3.44-5.549-4.867-4.868-12.595-5.498-18.175-1.68-5.594-5.313-14.464-5.228-19.947.254-2.701 2.701-4.188 6.291-4.188 10.11 0 3.708 1.402 7.2 3.956 9.872-3.721 5.606-3.032 13.105 1.831 17.967 1.574 1.574 3.468 2.744 5.55 3.44-1.755 5.114-.483 10.848 3.408 14.739 2.017 2.017 4.593 3.375 7.381 3.914-.588 4.402.87 8.776 4.053 11.959 2.661 2.661 6.188 4.129 9.899 4.171-.403 4.227 1.067 8.393 4.111 11.437 2.821 2.821 6.573 4.288 10.521 4.162.318 3.284 1.746 6.322 4.111 8.686 3.137 3.138 7.465 4.607 11.81 4.074.638 2.463 1.902 4.684 3.707 6.488 3.687 3.688 9.027 5.045 13.97 3.657.717 1.782 1.788 3.408 3.146 4.766 4.811 4.812 12.276 5.526 17.872 1.881 2.646 2.366 6.036 3.633 9.503 3.633 1.366 0 2.744-.197 4.092-.601.035-.01.069-.022.102-.035 2.223-.668 4.272-1.896 5.932-3.556 1.756-1.755 3.027-3.944 3.675-6.327 1.277-4.664.094-9.664-3.084-13.253zm.189 12.461c-.512 1.882-1.516 3.609-2.903 4.996-1.331 1.331-2.976 2.31-4.757 2.83-.038.011-.074.023-.111.037-3.943 1.144-8.189.053-11.103-2.86-.049-.049-.093-.102-.138-.154l-.117-.134c-.295-.332-.706-.502-1.12-.502-.328 0-.657.107-.932.325-4.487 3.563-10.926 3.191-14.98-.863-1.366-1.366-2.364-3.078-2.886-4.95-.115-.411-.399-.754-.782-.942s-.828-.206-1.224-.045c-4.214 1.702-9.012.725-12.223-2.485-1.708-1.708-2.803-3.893-3.167-6.318-.062-.414-.294-.782-.64-1.018s-.773-.317-1.181-.221c-3.826.883-7.763-.24-10.528-3.005-2.178-2.178-3.35-5.081-3.298-8.173.007-.44-.179-.861-.51-1.152-.332-.29-.776-.42-1.208-.357-3.576.524-7.08-.63-9.616-3.167-2.771-2.771-3.89-6.725-2.993-10.575.111-.477-.018-.979-.346-1.343-.328-.365-.814-.544-1.299-.486-3.49.432-6.903-.736-9.372-3.205-2.826-2.827-3.929-6.844-2.95-10.748.107-.429.02-.884-.239-1.243s-.663-.585-1.104-.618c-2.702-.203-5.239-1.362-7.142-3.266-3.413-3.413-4.274-8.624-2.143-12.965.205-.418.205-.909-.002-1.326-.207-.418-.596-.716-1.053-.806-2.185-.433-4.177-1.498-5.76-3.081-4.108-4.108-4.447-10.595-.789-15.089.517-.634.43-1.565-.195-2.092-.208-.176-.423-.356-.615-.548-2.134-2.134-3.309-4.971-3.309-7.989s1.175-5.854 3.309-7.989c4.401-4.401 11.566-4.398 15.972.008.188.188.354.387.535.601.257.304.624.493 1.021.526.393.033.79-.093 1.094-.35 4.44-3.756 11.142-3.475 15.258.641 1.583 1.583 2.648 3.575 3.081 5.759.091.457.389.847.807 1.053.417.207.907.207 1.326.002 4.342-2.131 9.551-1.271 12.965 2.143 1.903 1.904 3.063 4.44 3.266 7.142.033.441.259.845.618 1.104s.816.346 1.243.239c3.904-.981 7.921.124 10.747 2.95 2.469 2.469 3.637 5.885 3.205 9.373-.06.486.121.972.486 1.299.365.328.865.457 1.343.346 3.85-.899 7.803.222 10.575 2.993 2.536 2.536 3.69 6.041 3.166 9.615-.063.436.067.877.357 1.208s.709.507 1.152.51c3.094-.083 5.995 1.121 8.173 3.299 2.765 2.765 3.888 6.701 3.005 10.528-.094.407-.014.835.221 1.181s.604.578 1.017.64c2.426.364 4.61 1.46 6.318 3.167 3.21 3.21 4.186 8.008 2.485 12.223-.16.396-.143.841.045 1.224.189.383.531.667.942.782 1.872.523 3.584 1.521 4.95 2.886 4.132 4.132 4.444 10.65.727 15.163-.513.622-.442 1.539.161 2.074l.138.119c.041.035.083.068.124.11 2.861 2.861 3.973 7.063 2.903 10.969z" fill="#3a312a"/></g></g><g><g><path d="m54.152 94.309 89.774 98.553c1.98-.578 3.843-1.653 5.398-3.209 1.629-1.629 2.723-3.585 3.289-5.662z" fill="#fce8cb"/></g></g><g><g><path d="m153.623 182.881-98.461-89.681c-.592-.539-1.504-.519-2.071.048-.567.566-.588 1.479-.048 2.071l89.773 98.553c.289.317.693.49 1.109.49.14 0 .282-.02.42-.06 2.264-.661 4.352-1.901 6.039-3.588 1.755-1.755 3.026-3.943 3.676-6.329.147-.544-.021-1.124-.437-1.504zm-5.361 5.711c-1.111 1.112-2.442 1.978-3.888 2.536l-67.456-74.053 73.975 67.379c-.559 1.548-1.458 2.965-2.631 4.138z" fill="#3a312a"/></g></g><g><g><path d="m75.822 93.577c-.829 0-1.5.671-1.5 1.5v18.75c0 .829.671 1.5 1.5 1.5s1.5-.671 1.5-1.5v-18.75c0-.829-.671-1.5-1.5-1.5z" fill="#3a312a"/></g></g><g><g><path d="m93.189 109.407c-.829 0-1.5.671-1.5 1.5v18.75c0 .829.671 1.5 1.5 1.5s1.5-.671 1.5-1.5v-18.75c0-.828-.671-1.5-1.5-1.5z" fill="#3a312a"/></g></g><g><g><path d="m110.454 125.34c-.829 0-1.5.671-1.5 1.5v18.751c0 .829.671 1.5 1.5 1.5s1.5-.671 1.5-1.5v-18.751c0-.829-.672-1.5-1.5-1.5z" fill="#3a312a"/></g></g><g><g><path d="m127.821 141.17c-.829 0-1.5.671-1.5 1.5v18.75c0 .829.671 1.5 1.5 1.5s1.5-.671 1.5-1.5v-18.75c0-.829-.672-1.5-1.5-1.5z" fill="#3a312a"/></g></g><g><g><path d="m73.568 114.581h-18.75c-.829 0-1.5.671-1.5 1.5s.671 1.5 1.5 1.5h18.75c.829 0 1.5-.671 1.5-1.5 0-.828-.672-1.5-1.5-1.5z" fill="#3a312a"/></g></g><g><g><path d="m89.398 131.949h-18.75c-.829 0-1.5.671-1.5 1.5s.671 1.5 1.5 1.5h18.75c.829 0 1.5-.671 1.5-1.5s-.671-1.5-1.5-1.5z" fill="#3a312a"/></g></g><g><g><path d="m105.331 149.213h-18.75c-.829 0-1.5.671-1.5 1.5s.671 1.5 1.5 1.5h18.751c.829 0 1.5-.671 1.5-1.5-.001-.828-.672-1.5-1.501-1.5z" fill="#3a312a"/></g></g><g><g><path d="m121.161 166.58h-18.751c-.829 0-1.5.671-1.5 1.5s.671 1.5 1.5 1.5h18.751c.829 0 1.5-.671 1.5-1.5s-.671-1.5-1.5-1.5z" fill="#3a312a"/></g></g><g><g><path d="m47.661 26.206c-.974 11.564-13.025 13.39-13.025 13.39 10.347.487 12.925 14.059 12.925 14.059.221-9.677 13.321-14.203 13.321-14.203-9.813-.586-13.221-13.246-13.221-13.246z" fill="#d7e057"/></g></g><g><g><path d="m60.972 37.955c-8.604-.514-11.832-12.024-11.863-12.14-.19-.702-.846-1.158-1.583-1.101-.725.066-1.298.642-1.359 1.367-.86 10.215-11.313 11.964-11.754 12.033-.763.115-1.313.79-1.273 1.561.04.77.657 1.384 1.428 1.421 9.028.425 11.498 12.718 11.522 12.842.137.711.759 1.217 1.472 1.217.041 0 .084-.001.126-.005.764-.064 1.357-.693 1.374-1.459.194-8.509 12.191-12.777 12.313-12.819.675-.235 1.092-.914.994-1.622-.099-.711-.683-1.252-1.397-1.295zm-13.565 10.346c-1.357-3.13-3.709-6.907-7.587-8.876 2.931-1.405 6.409-3.913 8.202-8.273 1.551 3.071 4.2 6.88 8.334 8.722-3.008 1.64-6.923 4.406-8.949 8.427z" fill="#3a312a"/></g></g><g><g><path d="m25.963 43.187c-.689 8.179-9.213 9.471-9.213 9.471 7.318.344 9.142 9.944 9.142 9.944.156-6.844 9.422-10.045 9.422-10.045-6.941-.416-9.351-9.37-9.351-9.37z" fill="#d7e057"/></g></g><g><g><path d="m35.404 51.059c-5.767-.345-7.973-8.186-7.994-8.265-.191-.702-.857-1.167-1.582-1.101-.726.065-1.299.642-1.36 1.368-.579 6.871-7.646 8.067-7.942 8.114-.763.115-1.314.79-1.273 1.561.04.77.657 1.384 1.428 1.421 6.035.284 7.723 8.644 7.739 8.725.135.713.759 1.22 1.472 1.22.042 0 .083-.002.125-.005.765-.063 1.358-.694 1.376-1.461.13-5.709 8.332-8.633 8.413-8.661.676-.234 1.094-.913.996-1.622-.099-.709-.683-1.251-1.398-1.294zm-9.585 6.795c-.924-1.886-2.34-3.947-4.447-5.28 1.855-1.041 3.697-2.63 4.87-4.916 1.057 1.874 2.655 3.954 4.941 5.224-1.849 1.1-3.988 2.74-5.364 4.972z" fill="#3a312a"/></g></g><g><g><path d="m25.963 16.529c-.689 8.18-9.213 9.471-9.213 9.471 7.318.344 9.142 9.944 9.142 9.944.156-6.845 9.422-10.045 9.422-10.045-6.941-.416-9.351-9.37-9.351-9.37z" fill="#d7e057"/></g></g><g><g><path d="m35.404 24.401c-5.767-.345-7.973-8.186-7.994-8.265-.191-.702-.857-1.168-1.582-1.101-.726.065-1.299.642-1.36 1.368-.579 6.871-7.646 8.067-7.942 8.114-.763.115-1.313.79-1.273 1.561.04.77.657 1.384 1.427 1.421 6.036.284 7.724 8.644 7.739 8.726.135.713.759 1.22 1.472 1.22.042 0 .083-.001.125-.005.765-.063 1.358-.694 1.376-1.461.13-5.71 8.332-8.634 8.413-8.662.676-.234 1.094-.913.996-1.622s-.682-1.251-1.397-1.294zm-9.585 6.795c-.924-1.885-2.34-3.947-4.447-5.279 1.856-1.042 3.697-2.63 4.871-4.917 1.057 1.874 2.655 3.954 4.941 5.224-1.85 1.101-3.989 2.74-5.365 4.972z" fill="#3a312a"/></g></g><g><g><ellipse cx="128" cy="80.172" fill="#87796f" rx="26.852" ry="26.852" transform="matrix(.047 -.999 .999 .047 41.933 204.285)"/></g></g><g><g><path d="m128 51.82c-15.633 0-28.352 12.719-28.352 28.352s12.719 28.352 28.352 28.352 28.352-12.719 28.352-28.352-12.719-28.352-28.352-28.352zm0 53.704c-13.979 0-25.352-11.373-25.352-25.352s11.373-25.352 25.352-25.352 25.352 11.373 25.352 25.352-11.373 25.352-25.352 25.352z" fill="#3a312a"/></g></g><g><g><circle cx="128" cy="80.172" fill="#d7e057" r="18.5"/></g></g><g><g><path d="m128 60.172c-11.028 0-20 8.972-20 20s8.972 20 20 20 20-8.972 20-20-8.972-20-20-20zm0 37c-9.374 0-17-7.626-17-17s7.626-17 17-17 17 7.626 17 17-7.626 17-17 17z" fill="#3a312a"/></g></g><g><g><ellipse cx="100.951" cy="116.672" fill="#87796f" rx="26.852" ry="26.852" transform="matrix(.926 -.377 .377 .926 -36.498 46.592)"/></g></g><g><g><path d="m100.951 88.32c-15.633 0-28.352 12.719-28.352 28.352s12.719 28.352 28.352 28.352 28.352-12.719 28.352-28.352-12.719-28.352-28.352-28.352zm0 53.704c-13.979 0-25.352-11.373-25.352-25.352s11.373-25.352 25.352-25.352 25.352 11.373 25.352 25.352-11.373 25.352-25.352 25.352z" fill="#3a312a"/></g></g><g><g><ellipse cx="155.049" cy="116.672" fill="#87796f" rx="26.852" ry="26.852" transform="matrix(.921 -.389 .389 .921 -33.175 69.509)"/></g></g><g><g><path d="m155.049 88.32c-15.633 0-28.352 12.719-28.352 28.352s12.719 28.352 28.352 28.352 28.352-12.719 28.352-28.352-12.718-28.352-28.352-28.352zm0 53.704c-13.979 0-25.352-11.373-25.352-25.352s11.373-25.352 25.352-25.352 25.352 11.373 25.352 25.352-11.373 25.352-25.352 25.352z" fill="#3a312a"/></g></g><g><g><circle cx="73.901" cy="150.172" fill="#87796f" r="26.852"/></g></g><g><g><path d="m73.901 121.82c-15.633 0-28.352 12.719-28.352 28.352s12.719 28.352 28.352 28.352 28.352-12.719 28.352-28.352-12.718-28.352-28.352-28.352zm0 53.704c-13.979 0-25.352-11.373-25.352-25.352s11.373-25.352 25.352-25.352 25.352 11.373 25.352 25.352-11.373 25.352-25.352 25.352z" fill="#3a312a"/></g></g><g><g><path d="m128 123.32c-3.049 0-5.975.515-8.706 1.451l-11.973 8.272c-3.855 4.649-6.173 10.617-6.173 17.128 0 14.83 12.022 26.852 26.852 26.852s26.852-12.022 26.852-26.852c0-14.829-12.022-26.851-26.852-26.851z" fill="#87796f"/></g></g><g><g><path d="m128 121.82c-3.132 0-6.225.516-9.192 1.533-.784.269-1.201 1.122-.933 1.905.269.783 1.12 1.202 1.905.933 2.653-.91 5.419-1.371 8.22-1.371 13.979 0 25.352 11.373 25.352 25.352s-11.373 25.352-25.352 25.352-25.352-11.373-25.352-25.352c0-5.895 2.07-11.638 5.828-16.17.529-.638.44-1.583-.197-2.112-.639-.528-1.583-.441-2.112.197-4.203 5.07-6.518 11.493-6.518 18.086 0 15.633 12.719 28.352 28.352 28.352s28.352-12.719 28.352-28.352-12.72-28.353-28.353-28.353z" fill="#3a312a"/></g></g><g><g><circle cx="182.099" cy="150.172" fill="#87796f" r="26.852"/></g></g><g><g><path d="m182.099 121.82c-15.633 0-28.352 12.719-28.352 28.352s12.719 28.352 28.352 28.352 28.352-12.719 28.352-28.352-12.719-28.352-28.352-28.352zm0 53.704c-13.979 0-25.352-11.373-25.352-25.352s11.373-25.352 25.352-25.352 25.352 11.373 25.352 25.352-11.373 25.352-25.352 25.352z" fill="#3a312a"/></g></g><g><g><ellipse cx="46.852" cy="183.672" fill="#87796f" rx="26.852" ry="26.852" transform="matrix(1 -.014 .014 1 -2.477 .65)"/></g></g><g><g><path d="m46.852 155.32c-15.633 0-28.352 12.719-28.352 28.352s12.719 28.352 28.352 28.352 28.351-12.719 28.351-28.352-12.718-28.352-28.351-28.352zm0 53.704c-13.979 0-25.352-11.373-25.352-25.352s11.373-25.352 25.352-25.352 25.351 11.373 25.351 25.352c.001 13.979-11.372 25.352-25.351 25.352z" fill="#3a312a"/></g></g><g><g><ellipse cx="100.951" cy="183.672" fill="#87796f" rx="26.852" ry="26.852" transform="matrix(.926 -.377 .377 .926 -61.723 51.522)"/></g></g><g><g><path d="m100.951 155.32c-15.633 0-28.352 12.719-28.352 28.352s12.719 28.352 28.352 28.352 28.352-12.719 28.352-28.352-12.719-28.352-28.352-28.352zm0 53.704c-13.979 0-25.352-11.373-25.352-25.352s11.373-25.352 25.352-25.352 25.352 11.373 25.352 25.352-11.373 25.352-25.352 25.352z" fill="#3a312a"/></g></g><g><g><ellipse cx="155.049" cy="183.672" fill="#87796f" rx="26.852" ry="26.852" transform="matrix(.921 -.389 .389 .921 -59.24 74.787)"/></g></g><g><g><path d="m155.049 155.32c-15.633 0-28.352 12.719-28.352 28.352s12.719 28.352 28.352 28.352 28.352-12.719 28.352-28.352-12.718-28.352-28.352-28.352zm0 53.704c-13.979 0-25.352-11.373-25.352-25.352s11.373-25.352 25.352-25.352 25.352 11.373 25.352 25.352-11.373 25.352-25.352 25.352z" fill="#3a312a"/></g></g><g><g><ellipse cx="209.148" cy="183.672" fill="#87796f" rx="26.852" ry="26.852" transform="matrix(1 -.03 .03 1 -5.382 6.315)"/></g></g><g><g><path d="m209.148 155.32c-15.633 0-28.352 12.719-28.352 28.352s12.718 28.352 28.352 28.352c15.633 0 28.352-12.719 28.352-28.352s-12.719-28.352-28.352-28.352zm0 53.704c-13.979 0-25.352-11.373-25.352-25.352s11.372-25.352 25.352-25.352c13.979 0 25.352 11.373 25.352 25.352s-11.373 25.352-25.352 25.352z" fill="#3a312a"/></g></g><g><g><path d="m16.56 192.548c0 19.436 15.756 35.192 35.192 35.192h152.497c19.436 0 35.192-15.756 35.192-35.192z" fill="#fce8cb"/></g></g><g><g><path d="m239.44 191.048h-222.88c-.829 0-1.5.671-1.5 1.5 0 20.232 16.46 36.692 36.692 36.692h4.531c.829 0 1.5-.671 1.5-1.5s-.671-1.5-1.5-1.5h-4.531c-18.076 0-32.872-14.307-33.659-32.192h219.815c-.787 17.885-15.583 32.192-33.659 32.192h-133.032c-.829 0-1.5.671-1.5 1.5s.671 1.5 1.5 1.5h133.032c20.232 0 36.692-16.46 36.692-36.692-.001-.828-.672-1.5-1.501-1.5z" fill="#3a312a"/></g></g><g><g><path d="m80.807 227.74h94.387v11.731h-94.387z" fill="#fce8cb"/></g></g><g><g><path d="m175.193 226.24h-94.386c-.829 0-1.5.671-1.5 1.5v11.73c0 .829.671 1.5 1.5 1.5h94.387c.829 0 1.5-.671 1.5-1.5v-11.73c-.001-.828-.672-1.5-1.501-1.5zm-1.5 11.731h-91.386v-8.73h91.387v8.73z" fill="#3a312a"/></g></g><g><g><path d="m223.46 194.05c-.79 17.88-15.58 32.19-33.66 32.19h14.45c18.07 0 32.87-14.31 33.66-32.19z" fill="#decaad"/></g></g></g></svg>