<svg id="Layer_1" enable-background="new 0 0 256 256" height="512" viewBox="0 0 256 256" width="512" xmlns="http://www.w3.org/2000/svg"><g><g><g><path d="m61.865 26.345c-.974 11.564-13.024 13.39-13.024 13.39 10.347.487 12.925 14.059 12.925 14.059.221-9.677 13.321-14.202 13.321-14.202-9.814-.588-13.222-13.247-13.222-13.247z" fill="#d7e057"/></g></g><g><g><path d="m75.176 38.094c-8.604-.514-11.832-12.024-11.863-12.14-.19-.702-.85-1.163-1.583-1.101-.725.066-1.298.642-1.359 1.367-.86 10.215-11.313 11.963-11.754 12.032-.763.115-1.313.79-1.273 1.56s.657 1.384 1.427 1.421c9.028.425 11.499 12.719 11.523 12.843.137.711.759 1.217 1.472 1.217.042 0 .084-.001.126-.005.764-.064 1.357-.693 1.375-1.459.194-8.509 12.191-12.777 12.312-12.819.675-.235 1.092-.915.994-1.623-.099-.709-.683-1.25-1.397-1.293zm-13.566 10.346c-1.357-3.13-3.709-6.907-7.587-8.876 2.931-1.405 6.409-3.913 8.202-8.273 1.551 3.071 4.2 6.88 8.334 8.722-3.007 1.64-6.922 4.406-8.949 8.427z" fill="#3a312a"/></g></g><g><g><path d="m40.166 43.326c-.689 8.179-9.213 9.471-9.213 9.471 7.318.344 9.142 9.944 9.142 9.944.156-6.844 9.422-10.045 9.422-10.045-6.94-.416-9.351-9.37-9.351-9.37z" fill="#d7e057"/></g></g><g><g><path d="m49.607 51.197c-5.766-.345-7.972-8.185-7.994-8.264-.19-.702-.854-1.169-1.582-1.102-.725.065-1.299.642-1.36 1.368-.579 6.871-7.647 8.066-7.942 8.113-.763.115-1.313.79-1.273 1.561.04.77.657 1.384 1.427 1.421 6.036.284 7.724 8.644 7.739 8.726.135.713.759 1.22 1.472 1.22.042 0 .083-.001.125-.005.765-.063 1.358-.694 1.376-1.461.13-5.709 8.332-8.634 8.413-8.662.677-.234 1.094-.913.996-1.622-.097-.708-.682-1.25-1.397-1.293zm-9.584 6.796c-.924-1.886-2.34-3.947-4.447-5.28 1.856-1.042 3.697-2.63 4.871-4.917 1.057 1.873 2.654 3.955 4.941 5.224-1.85 1.101-3.989 2.741-5.365 4.973z" fill="#3a312a"/></g></g><g><g><path d="m40.166 16.668c-.689 8.179-9.213 9.471-9.213 9.471 7.318.344 9.142 9.944 9.142 9.944.156-6.845 9.422-10.045 9.422-10.045-6.94-.416-9.351-9.37-9.351-9.37z" fill="#d7e057"/></g></g><g><g><path d="m49.608 24.54c-5.767-.345-7.973-8.185-7.994-8.265-.19-.702-.854-1.169-1.582-1.102-.725.066-1.299.642-1.36 1.368-.579 6.871-7.647 8.067-7.942 8.114-.763.115-1.314.79-1.273 1.56.04.77.657 1.384 1.428 1.421 6.035.284 7.723 8.644 7.739 8.726.135.713.759 1.22 1.472 1.22.042 0 .083-.001.125-.005.765-.063 1.358-.694 1.376-1.461.13-5.71 8.332-8.634 8.413-8.662.676-.234 1.094-.913.996-1.622-.099-.707-.684-1.249-1.398-1.292zm-9.585 6.795c-.924-1.885-2.34-3.947-4.447-5.28 1.856-1.041 3.697-2.63 4.871-4.916 1.057 1.873 2.655 3.954 4.941 5.224-1.85 1.1-3.989 2.74-5.365 4.972z" fill="#3a312a"/></g></g><g><g><path d="m135.149 60.912v178.5h14.109v-178.5z" fill="#87796f"/></g></g><g><g><path d="m149.258 59.412h-14.108c-.829 0-1.5.671-1.5 1.5v147.894c0 .829.671 1.5 1.5 1.5s1.5-.671 1.5-1.5v-146.394h11.108v175.5h-11.108v-14.272c0-.829-.671-1.5-1.5-1.5s-1.5.671-1.5 1.5v15.772c0 .829.671 1.5 1.5 1.5h14.108c.829 0 1.5-.671 1.5-1.5v-178.5c0-.828-.672-1.5-1.5-1.5z" fill="#3a312a"/></g></g><g><g><path d="m217.936 64.521c-1.913-2.297-7.368-1.713-14.825 1.099 5.152-8.243 7.154-14.604 4.736-17.022s-8.779-.416-17.022 4.736c2.812-7.457 3.396-12.911 1.099-14.825-3.748-3.122-14.099 4.049-25.748 16.983 1.577-19.742-.622-34.299-5.895-34.78-2.977-.271-6.421 3.999-9.705 11.26-2.186-9.472-5.268-15.385-8.688-15.385s-6.502 5.913-8.688 15.385c-3.284-7.261-6.728-11.531-9.705-11.26-5.273.48-7.472 15.038-5.895 34.78-11.649-12.934-22-20.105-25.748-16.983-2.297 1.913-1.713 7.368 1.099 14.825-8.243-5.152-14.604-7.154-17.022-4.736s-.416 8.778 4.736 17.022c-7.457-2.812-12.912-3.396-14.825-1.099-4.229 5.076 10.412 22.263 32.701 38.387 8.827 6.386 21.036 12.377 30.257 16.388 8.352 3.633 17.829 3.633 26.18 0 9.22-4.011 21.43-10.002 30.257-16.388 22.289-16.124 36.93-33.31 32.701-38.387z" fill="#d7e057"/></g></g><g><g><path d="m219.089 63.562c-1.968-2.364-6.207-2.584-12.626-.666 4.21-7.611 5.035-12.769 2.446-15.358s-7.747-1.765-15.358 2.445c1.92-6.417 1.699-10.656-.665-12.625-5.544-4.624-17.732 6.474-24.93 14.011.849-15.834-.711-31.527-7.538-32.149-3.066-.288-6.218 2.561-9.399 8.457-2.404-8.358-5.468-12.589-9.13-12.589s-6.726 4.23-9.13 12.589c-3.181-5.896-6.346-8.745-9.398-8.457-6.827.622-8.387 16.315-7.538 32.149-7.198-7.537-19.385-18.634-24.929-14.011-2.364 1.969-2.585 6.208-.666 12.626-7.611-4.211-12.77-5.036-15.358-2.446-2.589 2.589-1.765 7.747 2.445 15.358-6.417-1.919-10.656-1.699-12.626.666-.883 1.06-1.225 2.442-1.016 4.107.98 7.807 14.64 22.457 33.99 36.455 9.848 7.124 23.36 13.426 30.538 16.548 4.35 1.893 9.019 2.838 13.688 2.838 4.669-.001 9.339-.946 13.688-2.838 7.178-3.122 20.689-9.424 30.538-16.548 19.35-13.998 33.009-28.648 33.99-36.455.209-1.666-.133-3.047-1.016-4.107zm-1.961 3.733c-.734 5.843-12.227 19.535-32.772 34.398-9.619 6.958-22.909 13.154-29.975 16.228-7.939 3.453-17.045 3.453-24.984 0-7.066-3.074-20.356-9.27-29.975-16.228-20.546-14.863-32.039-28.555-32.773-34.398-.102-.807.014-1.418.344-1.813.441-.53 1.409-.881 2.989-.881 2.164 0 5.476.66 10.154 2.424.603.229 1.282.045 1.689-.453.408-.498.453-1.2.112-1.746-5.71-9.136-6.234-13.88-4.947-15.167 1.288-1.287 6.03-.763 15.166 4.947.545.341 1.248.296 1.746-.112s.68-1.087.453-1.689c-3.052-8.095-2.798-12.096-1.543-13.143 2.356-1.964 11.455 3.269 23.673 16.834.43.478 1.117.627 1.708.374.59-.254.953-.857.902-1.498-1.791-22.428 1.574-32.896 4.537-33.167 1.644-.151 4.638 2.503 8.202 10.384.265.586.878.935 1.515.875.64-.063 1.169-.528 1.313-1.155 2.422-10.498 5.407-14.223 7.226-14.223s4.804 3.725 7.226 14.223c.145.627.673 1.092 1.313 1.155.639.06 1.249-.289 1.515-.875 3.565-7.882 6.577-10.527 8.203-10.384 2.962.27 6.328 10.738 4.536 33.167-.051.641.312 1.243.902 1.498.593.253 1.277.104 1.708-.374 12.218-13.565 21.315-18.796 23.674-16.834 1.256 1.046 1.51 5.048-1.543 13.143-.227.602-.045 1.282.453 1.689.498.408 1.2.453 1.746.112 9.137-5.71 13.88-6.232 15.167-4.947 1.286 1.287.762 6.03-4.948 15.167-.341.545-.296 1.248.112 1.746.407.498 1.086.681 1.689.453 8.093-3.052 12.097-2.798 13.143-1.542.33.394.445 1.005.344 1.812z" fill="#3a312a"/></g></g><g><g><path d="m129.908 138.557c-1.357-1.698-2.889-3.549-4.529-5.442l-10.318-10.661c-.825-.739-1.65-1.447-2.468-2.109-15.612-12.644-30.516-19.695-33.29-15.747-1.255 1.786.195 5.521 3.598 10.243-6.793-2.063-11.659-2.263-12.903-.098s1.378 6.269 6.58 11.1c-5.793-.563-9.75.064-10.661 2.047-1.487 3.237 5.539 9.17 16.876 14.92-14.22 2.647-24.064 6.969-23.399 10.778.375 2.15 4.042 3.766 9.786 4.699-6.262 3.345-9.844 6.644-9.193 9.055s5.407 3.458 12.502 3.196c-4.494 3.698-6.849 6.939-6.091 8.987 1.343 3.627 12.025 2.405 25.644-2.465-6.901 10.676-9.986 19.339-7.071 21.387 1.786 1.255 5.521-.195 10.243-3.598-2.063 6.793-2.263 11.659-.098 12.903s6.269-1.378 11.1-6.58c-.563 5.793.064 9.75 2.048 10.661 4.384 2.015 13.714-11.58 20.838-30.364 2.822-7.439 4.721-17.188 5.794-24.452.968-6.582-.837-13.264-4.988-18.46z" fill="#d7e057"/></g></g><g><g><path d="m131.08 137.62c-1.485-1.857-3.021-3.704-4.568-5.487-.541-.626-1.489-.693-2.116-.151-.626.542-.694 1.49-.151 2.116 1.52 1.754 3.031 3.569 4.491 5.395 3.876 4.853 5.58 11.16 4.672 17.303-.819 5.552-2.651 16.07-5.712 24.14-6.457 17.024-13.984 27.866-17.788 29.424-.442.181-.786.218-1.021.109-.736-.338-1.813-2.647-1.181-9.153.062-.64-.291-1.249-.878-1.513s-1.276-.124-1.714.347c-5.564 5.99-8.488 6.74-9.253 6.3-.767-.441-1.59-3.342.786-11.166.187-.616-.04-1.282-.563-1.656s-1.227-.373-1.749.004c-5.302 3.821-7.84 4.053-8.503 3.587-1.396-.982.011-7.809 7.469-19.345.349-.54.315-1.242-.085-1.746-.399-.504-1.074-.698-1.681-.481-15.585 5.575-23.146 4.938-23.732 3.357-.281-.76.589-3.154 5.637-7.307.497-.409.678-1.089.449-1.69-.228-.602-.798-.979-1.458-.967-8.167.305-10.767-1.233-10.998-2.088-.231-.854 1.239-3.488 8.452-7.34.568-.303.879-.935.773-1.569-.105-.635-.604-1.131-1.239-1.234-6.453-1.048-8.41-2.679-8.55-3.477-.29-1.66 5.923-6.017 22.196-9.046.632-.118 1.119-.625 1.21-1.261s-.233-1.26-.806-1.551c-12.252-6.214-16.905-11.404-16.192-12.956.338-.736 2.643-1.814 9.153-1.181.638.057 1.249-.291 1.513-.878s.124-1.276-.348-1.714c-5.992-5.564-6.741-8.486-6.3-9.254.441-.767 3.341-1.591 11.167.786.613.188 1.282-.039 1.656-.563.374-.523.373-1.228-.003-1.749-3.821-5.304-4.053-7.841-3.587-8.504.149-.212.465-.354.939-.42 4.069-.569 16.032 5.01 30.181 16.47.761.616 1.572 1.31 2.411 2.061.618.553 1.565.501 2.118-.116s.501-1.565-.116-2.118c-.876-.784-1.725-1.51-2.525-2.158-13.634-11.043-26.693-17.915-32.483-17.11-1.656.231-2.534 1.034-2.978 1.666-1.3 1.85-.817 4.752 1.433 8.652-5.822-1.292-9.452-.757-10.812 1.607-1.358 2.364.005 5.771 4.054 10.151-4.502.02-7.253 1.063-8.197 3.117-2.229 4.85 7.101 11.131 13.863 14.914-8.077 1.813-21.535 5.748-20.501 11.668.389 2.227 2.783 3.938 7.131 5.105-5.032 3.203-7.219 6.149-6.509 8.781.711 2.632 4.083 4.077 10.044 4.311-3.169 3.197-4.377 5.88-3.592 8.001 2.087 5.637 15.697 2.262 23.588-.238-3.939 6.673-8.838 16.797-4.471 19.866 1.849 1.301 4.752.817 8.652-1.433-1.293 5.823-.757 9.453 1.607 10.811 2.363 1.359 5.77-.004 10.151-4.053.02 4.501 1.063 7.253 3.118 8.197.385.177.909.333 1.558.333.535 0 1.155-.106 1.854-.392 5.414-2.218 13.233-14.73 19.455-31.136 3.162-8.335 5.038-19.094 5.875-24.765 1.028-6.963-.902-14.112-5.296-19.613z" fill="#3a312a"/></g></g><g><g><path d="m225.015 153.588c.665-3.809-9.179-8.132-23.399-10.778 11.337-5.751 18.364-11.683 16.876-14.92-.912-1.984-4.869-2.611-10.661-2.048 5.202-4.831 7.824-8.935 6.58-11.1s-6.11-1.965-12.903.098c3.403-4.722 4.853-8.457 3.598-10.243-2.774-3.948-17.679 3.102-33.29 15.747-6.183 5.008-12.732 12.475-17.315 18.212-4.152 5.197-5.956 11.878-4.985 18.458 1.072 7.264 2.972 17.013 5.793 24.452 7.125 18.785 16.454 32.379 20.838 30.364 1.984-.912 2.611-4.869 2.048-10.661 4.831 5.202 8.935 7.824 11.1 6.58s1.965-6.11-.098-12.903c4.722 3.402 8.457 4.853 10.243 3.598 2.915-2.048-.171-10.711-7.072-21.387 13.619 4.871 24.301 6.092 25.644 2.466.758-2.047-1.597-5.289-6.091-8.987 7.095.263 11.851-.785 12.502-3.196s-2.931-5.71-9.193-9.055c5.743-.931 9.409-2.547 9.785-4.697z" fill="#d7e057"/></g></g><g><g><path d="m226.492 153.846c1.034-5.92-12.424-9.855-20.501-11.668 6.763-3.783 16.092-10.065 13.863-14.914-.944-2.055-3.695-3.099-8.197-3.118 4.049-4.38 5.412-7.787 4.054-10.151-1.359-2.364-4.99-2.901-10.811-1.606 2.249-3.9 2.733-6.803 1.433-8.653-.445-.632-1.322-1.435-2.978-1.667-5.802-.804-18.851 6.068-32.484 17.11-6.927 5.609-13.965 13.962-17.544 18.441-4.394 5.5-6.324 12.649-5.296 19.614.837 5.672 2.714 16.431 5.875 24.765 6.222 16.406 14.04 28.919 19.455 31.136.699.286 1.319.392 1.854.392.649 0 1.172-.156 1.558-.333 2.055-.944 3.098-3.696 3.118-8.198 4.38 4.049 7.787 5.413 10.151 4.054 2.364-1.358 2.9-4.988 1.607-10.811 3.899 2.25 6.802 2.732 8.652 1.433 4.366-3.068-.533-13.192-4.472-19.866 7.893 2.5 21.501 5.873 23.588.238.785-2.121-.422-4.804-3.592-8.001 5.96-.235 9.333-1.68 10.044-4.311.711-2.632-1.477-5.579-6.509-8.781 4.349-1.167 6.743-2.878 7.132-5.105zm-2.955-.516c-.14.798-2.097 2.428-8.55 3.477-.635.103-1.133.6-1.239 1.234-.106.635.205 1.266.773 1.569 7.213 3.852 8.683 6.485 8.452 7.34-.23.855-2.832 2.387-10.997 2.088-.661-.014-1.23.365-1.458.967-.229.602-.047 1.282.449 1.69 5.048 4.153 5.919 6.547 5.637 7.307-.585 1.58-8.147 2.216-23.732-3.357-.604-.216-1.281-.022-1.681.481-.399.504-.433 1.206-.084 1.746 7.458 11.537 8.866 18.364 7.469 19.345-.662.467-3.199.235-8.503-3.587-.521-.377-1.225-.378-1.749-.004-.523.374-.75 1.041-.563 1.656 2.376 7.824 1.553 10.726.786 11.166-.768.438-3.686-.306-9.253-6.3-.437-.472-1.127-.611-1.714-.348-.587.264-.94.873-.878 1.513.632 6.506-.445 8.816-1.181 9.154-.235.108-.58.071-1.022-.109-3.804-1.558-11.33-12.4-17.788-29.424-3.061-8.07-4.893-18.588-5.712-24.14-.907-6.144.796-12.451 4.672-17.303 3.503-4.385 10.381-12.551 17.088-17.983 13.494-10.929 24.998-16.509 29.565-16.509.222 0 .427.013.615.039.473.066.789.208.938.42.466.663.234 3.2-3.587 8.504-.376.522-.377 1.226-.003 1.749s1.042.751 1.656.563c7.822-2.375 10.725-1.554 11.166-.786.441.767-.308 3.688-6.3 9.253-.472.438-.611 1.127-.348 1.714.264.587.873.935 1.513.878 6.508-.635 8.815.444 9.153 1.181.713 1.551-3.94 6.741-16.192 12.956-.573.291-.897.915-.806 1.551s.578 1.144 1.21 1.261c16.275 3.032 22.488 7.388 22.198 9.048z" fill="#3a312a"/></g></g><g><g><path d="m216.784 65.482c-1.05-1.26-5.05-1.51-13.14 1.54-.5.19-1.07.1-1.48-.24 0 .16-.01.33-.04.51-.73 5.85-12.22 19.54-32.77 34.4-9.62 6.96-22.91 13.15-29.97 16.23-1.62.71-3.29 1.27-4.99 1.68 6.62 1.63 13.68 1.06 19.99-1.68 7.06-3.08 20.35-9.27 29.97-16.23 20.55-14.86 32.04-28.55 32.77-34.4.11-.8-.01-1.42-.34-1.81z" fill="#b9c239"/></g></g></g></svg>