<svg id="Layer_1" enable-background="new 0 0 256 256" height="512" viewBox="0 0 256 256" width="512" xmlns="http://www.w3.org/2000/svg"><g><g><g><path d="m47.307 203.273c-.974 11.564-13.025 13.39-13.025 13.39 10.347.487 12.925 14.059 12.925 14.059.221-9.677 13.321-14.202 13.321-14.202-9.813-.588-13.221-13.247-13.221-13.247z" fill="#d7e057"/></g></g><g><g><path d="m60.618 215.022c-8.605-.515-11.832-12.024-11.864-12.141-.19-.702-.849-1.16-1.583-1.102-.725.066-1.298.642-1.359 1.367-.86 10.215-11.314 11.964-11.754 12.033-.763.115-1.313.79-1.273 1.561.04.77.657 1.384 1.428 1.421 9.028.425 11.498 12.718 11.522 12.842.137.711.759 1.217 1.472 1.217.042 0 .084-.002.126-.005.764-.064 1.357-.693 1.375-1.459.194-8.508 12.191-12.777 12.312-12.819.675-.235 1.092-.914.994-1.622-.099-.709-.682-1.25-1.396-1.293zm-13.566 10.346c-1.357-3.13-3.709-6.907-7.587-8.877 2.931-1.405 6.409-3.913 8.202-8.272 1.551 3.071 4.2 6.88 8.334 8.722-3.007 1.64-6.922 4.405-8.949 8.427z" fill="#3a312a"/></g></g><g><g><path d="m25.608 220.254c-.689 8.179-9.213 9.47-9.213 9.47 7.318.344 9.142 9.944 9.142 9.944.156-6.844 9.422-10.046 9.422-10.046-6.94-.414-9.351-9.368-9.351-9.368z" fill="#d7e057"/></g></g><g><g><path d="m35.05 228.126c-5.767-.345-7.973-8.186-7.994-8.265-.191-.702-.857-1.163-1.582-1.102-.726.065-1.299.642-1.36 1.368-.579 6.871-7.646 8.067-7.942 8.114-.763.115-1.314.79-1.273 1.561.04.77.657 1.384 1.428 1.421 6.035.284 7.723 8.644 7.739 8.725.135.713.759 1.22 1.472 1.22.042 0 .083-.001.125-.005.765-.064 1.358-.694 1.376-1.461.13-5.709 8.332-8.634 8.413-8.662.677-.234 1.094-.913.996-1.622-.099-.708-.684-1.249-1.398-1.292zm-9.585 6.794c-.924-1.885-2.34-3.947-4.447-5.28 1.856-1.041 3.697-2.63 4.871-4.916 1.057 1.874 2.655 3.954 4.941 5.224-1.85 1.101-3.989 2.741-5.365 4.972z" fill="#3a312a"/></g></g><g><g><path d="m25.608 193.596c-.689 8.179-9.213 9.471-9.213 9.471 7.318.344 9.142 9.944 9.142 9.944.156-6.844 9.422-10.045 9.422-10.045-6.94-.416-9.351-9.37-9.351-9.37z" fill="#d7e057"/></g></g><g><g><path d="m35.05 201.468c-5.767-.345-7.973-8.186-7.994-8.265-.191-.702-.857-1.165-1.582-1.102-.726.065-1.299.642-1.36 1.368-.579 6.871-7.646 8.067-7.942 8.114-.763.115-1.314.79-1.273 1.561.04.77.657 1.384 1.428 1.421 6.035.284 7.723 8.644 7.739 8.726.135.713.759 1.22 1.472 1.22.042 0 .083-.001.125-.005.765-.063 1.358-.694 1.376-1.461.13-5.709 8.332-8.634 8.413-8.662.676-.234 1.094-.913.996-1.622-.099-.708-.684-1.25-1.398-1.293zm-9.585 6.795c-.924-1.885-2.34-3.947-4.447-5.28 1.856-1.041 3.697-2.63 4.871-4.916 1.057 1.874 2.655 3.954 4.941 5.224-1.85 1.101-3.989 2.74-5.365 4.972z" fill="#3a312a"/></g></g><g><g><path d="m204.202 58.82h-152.195c-11.544 0-20.903 9.358-20.903 20.903v70.097h194v-70.097c0-11.545-9.358-20.903-20.902-20.903z" fill="#fce8cb"/></g></g><g><g><path d="m204.202 57.32h-152.195c-12.353 0-22.403 10.05-22.403 22.403v70.097c0 .829.671 1.5 1.5 1.5h194c.829 0 1.5-.671 1.5-1.5v-70.097c0-12.353-10.049-22.403-22.402-22.403zm19.402 91h-191v-68.597c0-10.699 8.704-19.403 19.403-19.403h152.194c10.699 0 19.403 8.704 19.403 19.403z" fill="#3a312a"/></g></g><g><g><path d="m106.604 176.415h43v43.16h-43z" fill="#87796f"/></g></g><g><g><path d="m149.604 174.915h-43c-.829 0-1.5.671-1.5 1.5v43.16c0 .829.671 1.5 1.5 1.5h43c.829 0 1.5-.671 1.5-1.5v-43.16c0-.828-.671-1.5-1.5-1.5zm-1.5 43.161h-40v-40.16h40z" fill="#3a312a"/></g></g><g><g><path d="m163.512 219.576h-70.815c-11.097 0-20.093 8.996-20.093 20.093h111c0-11.097-8.995-20.093-20.092-20.093z" fill="#87796f"/></g></g><g><g><path d="m163.512 218.076h-70.815c-11.906 0-21.593 9.687-21.593 21.593 0 .829.671 1.5 1.5 1.5h62.846c.829 0 1.5-.671 1.5-1.5s-.671-1.5-1.5-1.5h-61.285c.766-9.553 8.786-17.093 18.533-17.093h70.814c9.747 0 17.767 7.54 18.533 17.093h-32.285c-.829 0-1.5.671-1.5 1.5s.671 1.5 1.5 1.5h33.845c.829 0 1.5-.671 1.5-1.5-.001-11.907-9.687-21.593-21.593-21.593z" fill="#3a312a"/></g></g><g><g><path d="m93.402 16.331c-9.448 0-17.107 15.173-17.107 26.994s7.659 15.494 17.107 15.494 17.107-3.673 17.107-15.494c.001-11.82-7.659-26.994-17.107-26.994z" fill="#f16c7a"/></g></g><g><g><path d="m93.402 14.832c-10.307 0-18.607 15.588-18.607 28.494 0 11.118 6.435 16.994 18.607 16.994 12.173 0 18.607-5.876 18.607-16.994.001-12.907-8.3-28.494-18.607-28.494zm0 42.488c-10.502 0-15.607-4.578-15.607-13.994 0-11.238 7.349-25.494 15.607-25.494 8.259 0 15.607 14.256 15.607 25.494.001 9.416-5.105 13.994-15.607 13.994z" fill="#3a312a"/></g></g><g><g><path d="m128.134 16.331c-9.448 0-17.107 15.173-17.107 26.994s7.659 15.494 17.107 15.494 17.107-3.673 17.107-15.494c.001-11.82-7.659-26.994-17.107-26.994z" fill="#f16c7a"/></g></g><g><g><path d="m128.134 14.832c-10.307 0-18.607 15.588-18.607 28.494 0 11.118 6.434 16.994 18.607 16.994s18.607-5.876 18.607-16.994c.001-12.907-8.3-28.494-18.607-28.494zm0 42.488c-10.502 0-15.607-4.578-15.607-13.994 0-11.238 7.348-25.494 15.607-25.494s15.607 14.256 15.607 25.494c.001 9.416-5.105 13.994-15.607 13.994z" fill="#3a312a"/></g></g><g><g><path d="m162.866 16.331c-9.448 0-17.107 15.173-17.107 26.994s7.659 15.494 17.107 15.494 17.107-3.673 17.107-15.494c.001-11.82-7.659-26.994-17.107-26.994z" fill="#f16c7a"/></g></g><g><g><path d="m162.866 14.832c-10.307 0-18.607 15.588-18.607 28.494 0 11.118 6.434 16.994 18.607 16.994s18.607-5.876 18.607-16.994c.001-12.907-8.3-28.494-18.607-28.494zm0 42.488c-10.502 0-15.607-4.578-15.607-13.994 0-11.238 7.348-25.494 15.607-25.494s15.607 14.256 15.607 25.494c.001 9.416-5.105 13.994-15.607 13.994z" fill="#3a312a"/></g></g><g><g><circle cx="75.634" cy="48.202" fill="#8ac5dc" r="10.618"/></g></g><g><g><path d="m75.634 36.083c-6.682 0-12.118 5.437-12.118 12.119s5.436 12.118 12.118 12.118 12.118-5.436 12.118-12.118-5.436-12.119-12.118-12.119zm0 21.237c-5.028 0-9.118-4.09-9.118-9.118s4.09-9.119 9.118-9.119 9.118 4.091 9.118 9.119c0 5.027-4.09 9.118-9.118 9.118z" fill="#3a312a"/></g></g><g><g><circle cx="110.634" cy="48.202" fill="#8ac5dc" r="10.618"/></g></g><g><g><path d="m110.634 36.083c-6.682 0-12.118 5.437-12.118 12.119s5.436 12.118 12.118 12.118 12.118-5.436 12.118-12.118-5.436-12.119-12.118-12.119zm0 21.237c-5.028 0-9.118-4.09-9.118-9.118s4.09-9.119 9.118-9.119 9.118 4.091 9.118 9.119c0 5.027-4.09 9.118-9.118 9.118z" fill="#3a312a"/></g></g><g><g><circle cx="145.634" cy="48.202" fill="#8ac5dc" r="10.618"/></g></g><g><g><path d="m145.634 36.083c-6.682 0-12.118 5.437-12.118 12.119s5.436 12.118 12.118 12.118 12.118-5.436 12.118-12.118-5.436-12.119-12.118-12.119zm0 21.237c-5.028 0-9.118-4.09-9.118-9.118s4.09-9.119 9.118-9.119 9.118 4.091 9.118 9.119c0 5.027-4.09 9.118-9.118 9.118z" fill="#3a312a"/></g></g><g><g><circle cx="180.634" cy="48.202" fill="#8ac5dc" r="10.618"/></g></g><g><g><path d="m180.634 36.083c-6.682 0-12.118 5.437-12.118 12.119s5.436 12.118 12.118 12.118 12.118-5.436 12.118-12.118-5.436-12.119-12.118-12.119zm0 21.237c-5.028 0-9.118-4.09-9.118-9.118s4.09-9.119 9.118-9.119 9.118 4.091 9.118 9.119c0 5.027-4.09 9.118-9.118 9.118z" fill="#3a312a"/></g></g><g><g><path d="m226.308 149.82h-196.407c-7.343 0-13.296 5.953-13.296 13.296s5.953 13.296 13.296 13.296h196.407c7.343 0 13.296-5.953 13.296-13.296s-5.953-13.296-13.296-13.296z" fill="#87796f"/></g></g><g><g><path d="m226.308 148.32h-196.407c-8.159 0-14.796 6.638-14.796 14.796 0 8.159 6.638 14.796 14.796 14.796h28.337c.829 0 1.5-.671 1.5-1.5s-.671-1.5-1.5-1.5h-28.337c-6.504 0-11.796-5.292-11.796-11.796s5.292-11.796 11.796-11.796h196.407c6.504 0 11.796 5.292 11.796 11.796s-5.292 11.796-11.796 11.796h-153.836c-.829 0-1.5.671-1.5 1.5s.671 1.5 1.5 1.5h153.836c8.159 0 14.796-6.638 14.796-14.796s-6.637-14.796-14.796-14.796z" fill="#3a312a"/></g></g><g><g><path d="m109.384 105.656c-1.29-18.88-8.24-35.55-18.53-46.84h-38.85c-11.54 0-20.9 9.36-20.9 20.91v70.09h70.15c4.73-9.69 7.68-21.1 8.24-33.4.08-1.44.11-2.88.11-4.34 0-2.17-.07-4.31-.22-6.42z" fill="#fce8cb"/></g></g><g><g><path d="m110.881 105.554c-1.286-18.817-8.004-35.774-18.918-47.748-.284-.312-.687-.49-1.108-.49h-38.85c-12.352 0-22.4 10.053-22.4 22.41v70.09c0 .829.671 1.5 1.5 1.5h70.15c.573 0 1.097-.327 1.348-.842 4.937-10.115 7.838-21.869 8.39-33.976.076-1.366.112-2.812.112-4.423-.001-2.245-.076-4.441-.224-6.521zm-2.885 10.793c-.518 11.38-3.172 22.411-7.686 31.969h-67.706v-68.59c0-10.703 8.703-19.41 19.4-19.41h38.182c10.055 11.3 16.497 27.818 17.702 45.446.144 2.015.216 4.139.216 6.313 0 1.555-.035 2.948-.108 4.272z" fill="#3a312a"/></g></g><g><g><path d="m56.224 58.816c3.64 31.33 22.93 55.61 46.68 57.62 1.06.09 2.12.14 3.2.14 1.14 0 2.27-.05 3.39-.16 12.03-1.08 22.91-7.87 31.17-18.39 2.88-3.68 5.45-7.81 7.64-12.31 3.87-7.96 6.54-17.08 7.68-26.9z" fill="#fce8cb"/></g></g><g><g><path d="m157.104 57.818c-.285-.32-.692-.503-1.12-.503h-99.76c-.428 0-.835.183-1.12.503-.285.319-.419.746-.37 1.171 3.73 32.113 23.936 56.901 48.042 58.941 1.149.098 2.238.146 3.328.146 1.22 0 2.41-.056 3.524-.166 12.023-1.079 23.464-7.812 32.217-18.959 2.958-3.78 5.586-8.012 7.808-12.579 4.046-8.323 6.677-17.536 7.82-27.383.051-.425-.084-.851-.369-1.171zm-10.148 27.241c-2.13 4.376-4.645 8.428-7.471 12.041-8.235 10.488-18.934 16.818-30.137 17.823-1.952.192-4.062.21-6.317.018-22.278-1.885-41.053-24.741-45.106-54.625h96.359c-1.197 8.881-3.66 17.197-7.328 24.743z" fill="#3a312a"/></g></g><g><g><path d="m204.204 58.816h-7.67c-10.58 8.89-18.56 22.95-22.02 39.57-1.25 5.94-1.91 12.21-1.91 18.69 0 4.44.31 8.78.91 12.99.99 7.02 2.77 13.67 5.22 19.75h46.37v-70.09c0-11.55-9.36-20.91-20.9-20.91z" fill="#fce8cb"/></g></g><g><g><path d="m204.205 57.316h-7.67c-.353 0-.695.125-.965.352-11.028 9.266-19.027 23.619-22.523 40.409-1.289 6.125-1.942 12.517-1.942 18.999 0 4.454.311 8.895.925 13.2.995 7.056 2.783 13.819 5.314 20.101.229.568.779.939 1.391.939h46.37c.829 0 1.5-.671 1.5-1.5v-70.09c-.001-12.357-10.049-22.41-22.4-22.41zm19.399 91h-43.85c-2.245-5.79-3.843-11.995-4.755-18.462-.594-4.167-.895-8.466-.895-12.778 0-6.275.632-12.459 1.879-18.384 3.315-15.925 10.8-29.529 21.103-38.375h7.119c10.697 0 19.4 8.707 19.4 19.41v68.589z" fill="#3a312a"/></g></g><g><g><path d="m192.564 130.616c-3.51-13.06-9.86-24.26-18.05-32.23-7.47-7.27-16.47-11.85-26.21-12.67-1.06-.09-2.12-.14-3.2-.14-2.88 0-5.71.33-8.46.96-10.56 2.41-20.01 9.28-27.26 19.12-2.42 3.28-4.59 6.89-6.48 10.78-4.71 9.69-7.65 21.09-8.2 33.38h100.8c-.3-6.71-1.31-13.16-2.94-19.2z" fill="#fce8cb"/></g></g><g><g><path d="m194.013 130.227c-3.561-13.252-9.942-24.634-18.452-32.916-7.952-7.738-17.334-12.265-27.13-13.089-1.155-.098-2.243-.146-3.327-.146-2.945 0-5.904.336-8.794.997-10.715 2.445-20.443 9.255-28.133 19.692-2.468 3.345-4.696 7.05-6.622 11.015-4.921 10.124-7.808 21.871-8.349 33.969-.018.409.131.808.414 1.104s.674.463 1.084.463h100.8c.41 0 .801-.167 1.084-.463s.433-.694.414-1.104c-.299-6.714-1.305-13.283-2.989-19.522zm-97.726 18.089c.692-11.137 3.436-21.902 7.967-31.225 1.847-3.8 3.979-7.348 6.338-10.546 7.258-9.851 16.382-16.264 26.388-18.548 2.671-.612 5.405-.922 8.125-.922.998 0 2.003.044 3.074.135 9.097.766 17.842 5.002 25.29 12.25 8.123 7.906 14.226 18.813 17.647 31.545 1.496 5.544 2.438 11.36 2.806 17.31h-97.635z" fill="#3a312a"/></g></g><g><g><path d="m204.204 58.816h-70.5c-.07 1.41-.1 2.83-.1 4.26 0 8.24 1.07 16.15 3.04 23.46 1.08 4.02 2.43 7.87 4.02 11.49 7.07 16.14 18.89 28 32.85 32.04 3.42.99 6.96 1.51 10.59 1.51 2.88 0 5.71-.33 8.46-.96 13.36-3.05 24.94-13.23 32.54-27.54v-23.35c0-11.55-9.36-20.91-20.9-20.91z" fill="#fce8cb"/></g></g><g><g><path d="m204.205 57.316h-70.5c-.799 0-1.458.627-1.498 1.425-.069 1.375-.102 2.793-.102 4.334 0 8.214 1.04 16.239 3.091 23.849 1.093 4.069 2.471 8.007 4.095 11.703 7.363 16.808 19.685 28.792 33.807 32.879 3.597 1.041 7.3 1.569 11.007 1.569 2.945 0 5.904-.336 8.794-.998 13.577-3.1 25.485-13.149 33.531-28.299.115-.217.175-.458.175-.704v-23.35c-.001-12.355-10.049-22.408-22.4-22.408zm19.399 45.384c-7.626 14.185-18.757 23.573-31.375 26.454-6.034 1.382-12.33 1.198-18.298-.529-13.264-3.839-24.889-15.211-31.894-31.203-1.563-3.559-2.891-7.353-3.945-11.277-1.983-7.357-2.988-15.119-2.988-23.07 0-.964.014-1.877.041-2.76h69.059c10.697 0 19.4 8.707 19.4 19.41z" fill="#3a312a"/></g></g><g><g><path d="m226.304 151.316h-15c6.51 0 11.8 5.3 11.8 11.8s-5.29 11.8-11.8 11.8h15c6.51 0 11.8-5.3 11.8-11.8s-5.29-11.8-11.8-11.8z" fill="#695b51"/></g></g><g><g><path d="m208.604 124.876v23.44h15v-39.7c-4.25 6.7-9.33 12.19-15 16.26z" fill="#decaad"/></g></g><g><g><path d="m204.204 60.316h-15c10.7 0 19.4 8.71 19.4 19.41v41.4c5.8-4.58 10.9-10.81 15-18.43v-22.97c0-10.7-8.7-19.41-19.4-19.41z" fill="#decaad"/></g></g></g></svg>