<svg id="Layer_1" enable-background="new 0 0 256 256" height="512" viewBox="0 0 256 256" width="512" xmlns="http://www.w3.org/2000/svg"><g><g><g><path d="m234.948 59.023-11.828-11.828-10.309-10.31-8.468-8.468c-5.907-5.907-15.485-5.907-21.393 0l-154.607 154.608c-5.907 5.907-5.907 15.485 0 21.392l30.605 30.605c5.907 5.907 15.485 5.907 21.393 0l154.607-154.606c5.907-5.908 5.907-15.486 0-21.393z" fill="#87796f"/></g></g><g><g><path d="m236.009 57.963-11.828-11.828c-.586-.586-1.535-.586-2.121 0s-.586 1.535 0 2.121l11.828 11.828c2.574 2.574 3.991 5.996 3.991 9.636s-1.417 7.062-3.991 9.636l-154.608 154.607c-5.314 5.313-13.959 5.313-19.272 0l-30.605-30.605c-2.574-2.574-3.991-5.996-3.991-9.636s1.417-7.061 3.991-9.636l154.608-154.607c5.313-5.313 13.958-5.313 19.271 0l8.468 8.468c.586.586 1.535.586 2.121 0s.586-1.535 0-2.121l-8.468-8.468c-6.482-6.482-17.031-6.482-23.514 0l-154.607 154.607c-3.141 3.141-4.87 7.316-4.87 11.757s1.729 8.616 4.87 11.757l30.605 30.605c3.241 3.241 7.499 4.862 11.757 4.862 4.257 0 8.516-1.621 11.757-4.862l154.608-154.607c6.483-6.483 6.483-17.032 0-23.514z" fill="#3a312a"/></g></g><g><g><circle cx="130.645" cy="131.721" fill="#87796f" r="107.75"/></g></g><g><g><path d="m130.645 22.471c-60.241 0-109.25 49.01-109.25 109.25s49.009 109.25 109.25 109.25 109.25-49.01 109.25-109.25-49.009-109.25-109.25-109.25zm0 215.5c-58.586 0-106.25-47.663-106.25-106.25s47.664-106.25 106.25-106.25 106.25 47.663 106.25 106.25-47.663 106.25-106.25 106.25z" fill="#3a312a"/></g></g><g><g><path d="m131.645 40.399c-48.26 0-87.772 37.437-91.091 84.853l.133 14.596c4.113 46.628 43.262 83.195 90.958 83.195 50.436 0 91.322-40.886 91.322-91.322s-40.886-91.322-91.322-91.322z" fill="#87796f"/></g></g><g><g><path d="m131.645 38.898c-48.533 0-89.202 37.885-92.587 86.249-.058.826.565 1.543 1.392 1.601.827.063 1.543-.565 1.601-1.392 3.275-46.799 42.63-83.458 89.594-83.458 49.528 0 89.822 40.294 89.822 89.822 0 49.527-40.294 89.821-89.822 89.821-22.598 0-44.192-8.422-60.807-23.715-16.515-15.202-26.692-35.84-28.657-58.111-.073-.826-.802-1.44-1.626-1.362-.825.072-1.435.801-1.362 1.626 2.03 23.018 12.547 44.346 29.614 60.055 17.17 15.804 39.486 24.508 62.838 24.508 51.182 0 92.822-41.64 92.822-92.821 0-51.183-41.639-92.823-92.822-92.823z" fill="#3a312a"/></g></g><g><g><path d="m47.532 26.206c-.974 11.564-13.024 13.39-13.024 13.39 10.347.487 12.925 14.059 12.925 14.059.221-9.677 13.321-14.202 13.321-14.202-9.813-.587-13.222-13.247-13.222-13.247z" fill="#d7e057"/></g></g><g><g><path d="m60.844 37.956c-8.605-.516-11.832-12.025-11.864-12.141-.191-.703-.859-1.174-1.583-1.102-.725.066-1.298.642-1.359 1.367-.86 10.216-11.313 11.964-11.755 12.032-.763.116-1.313.791-1.273 1.561.04.771.657 1.385 1.427 1.421 9.028.426 11.499 12.719 11.523 12.844.137.711.759 1.217 1.472 1.217.042 0 .084-.002.126-.005.764-.064 1.357-.693 1.375-1.46.195-8.509 12.192-12.777 12.313-12.819.675-.234 1.092-.914.994-1.622-.098-.709-.682-1.25-1.396-1.293zm-13.566 10.346c-1.356-3.131-3.709-6.908-7.587-8.877 2.931-1.404 6.409-3.913 8.202-8.273 1.551 3.071 4.2 6.881 8.334 8.723-3.007 1.64-6.922 4.405-8.949 8.427z" fill="#3a312a"/></g></g><g><g><path d="m25.834 43.187c-.689 8.179-9.213 9.471-9.213 9.471 7.318.344 9.142 9.944 9.142 9.944.156-6.844 9.422-10.045 9.422-10.045-6.94-.416-9.351-9.37-9.351-9.37z" fill="#d7e057"/></g></g><g><g><path d="m35.275 51.06c-5.766-.346-7.972-8.187-7.994-8.266-.19-.702-.854-1.16-1.582-1.101-.726.065-1.299.643-1.36 1.368-.579 6.871-7.646 8.066-7.942 8.113-.763.116-1.313.791-1.274 1.561.04.771.657 1.385 1.427 1.421 6.035.284 7.724 8.645 7.739 8.727.135.713.759 1.22 1.472 1.22.042 0 .083-.002.125-.005.765-.063 1.358-.693 1.376-1.461.13-5.708 8.331-8.633 8.412-8.661.676-.234 1.094-.913.996-1.622-.096-.71-.68-1.251-1.395-1.294zm-9.584 6.794c-.924-1.886-2.34-3.947-4.447-5.28 1.855-1.041 3.697-2.63 4.871-4.917 1.057 1.874 2.654 3.955 4.941 5.225-1.85 1.1-3.989 2.74-5.365 4.972z" fill="#3a312a"/></g></g><g><g><path d="m25.834 16.529c-.689 8.18-9.213 9.471-9.213 9.471 7.318.344 9.142 9.944 9.142 9.944.156-6.844 9.422-10.045 9.422-10.045-6.94-.416-9.351-9.37-9.351-9.37z" fill="#d7e057"/></g></g><g><g><path d="m35.275 24.402c-5.766-.346-7.972-8.187-7.994-8.266-.19-.701-.854-1.169-1.582-1.101-.726.065-1.299.642-1.36 1.368-.579 6.871-7.646 8.066-7.942 8.113-.763.116-1.313.791-1.274 1.561.04.771.657 1.385 1.427 1.421 6.035.284 7.724 8.645 7.739 8.727.135.713.759 1.22 1.473 1.22.041 0 .083-.002.125-.005.765-.063 1.358-.693 1.376-1.461.13-5.709 8.331-8.633 8.412-8.661.676-.233 1.094-.913.996-1.622-.097-.71-.681-1.251-1.396-1.294zm-9.584 6.794c-.924-1.885-2.34-3.947-4.447-5.279 1.855-1.041 3.697-2.63 4.871-4.917 1.057 1.874 2.654 3.955 4.941 5.225-1.85 1.1-3.989 2.739-5.365 4.971z" fill="#3a312a"/></g></g><g><g><ellipse cx="131.645" cy="131.721" fill="#ef6d7a" rx="70.126" ry="70.126" transform="matrix(.997 -.083 .083 .997 -10.532 11.445)"/></g></g><g><g><path d="m131.645 60.095c-39.495 0-71.626 32.131-71.626 71.626s32.131 71.626 71.626 71.626 71.626-32.131 71.626-71.626-32.131-71.626-71.626-71.626zm0 140.252c-37.84 0-68.626-30.785-68.626-68.626s30.786-68.626 68.626-68.626 68.626 30.785 68.626 68.626-30.785 68.626-68.626 68.626z" fill="#3a312a"/></g></g><g><g><path d="m186.32 136.948-6.794-13.752c-1.549-3.134-5.345-4.42-8.48-2.871l-13.751 6.795c-3.135 1.549-4.42 5.346-2.872 8.48l6.794 13.752c1.549 3.134 5.346 4.42 8.48 2.872l13.751-6.794c3.135-1.551 4.421-5.347 2.872-8.482z" fill="#87796f"/></g></g><g><g><path d="m187.665 136.284-6.795-13.752c-.926-1.876-2.527-3.278-4.509-3.948-1.981-.672-4.105-.528-5.98.396l-13.751 6.794c-3.871 1.912-5.464 6.618-3.552 10.489l6.795 13.751c.926 1.876 2.528 3.278 4.509 3.949.824.279 1.673.418 2.519.418 1.186 0 2.366-.273 3.461-.814l13.752-6.795c3.87-1.912 5.464-6.618 3.551-10.488zm-4.881 7.799-13.752 6.795c-1.157.572-2.468.659-3.689.244-1.222-.414-2.21-1.279-2.782-2.436l-6.795-13.751c-1.18-2.389-.197-5.292 2.191-6.472l13.752-6.794c.676-.334 1.404-.502 2.136-.502.521 0 1.045.085 1.554.257 1.222.414 2.21 1.279 2.781 2.436l6.795 13.752c1.18 2.389.197 5.291-2.191 6.471z" fill="#3a312a"/></g></g><g><g><path d="m128.694 87.797-10.846-10.846c-2.472-2.472-6.481-2.472-8.953 0l-10.846 10.846c-2.472 2.472-2.472 6.481 0 8.953l10.846 10.846c2.472 2.472 6.481 2.472 8.953 0l10.846-10.846c2.472-2.472 2.472-6.48 0-8.953z" fill="#87796f"/></g></g><g><g><path d="m129.754 86.736-10.846-10.846c-3.052-3.052-8.02-3.054-11.074 0l-10.846 10.846c-1.479 1.479-2.293 3.445-2.293 5.537s.814 4.059 2.293 5.537l10.846 10.847c1.526 1.526 3.531 2.289 5.537 2.289s4.011-.763 5.538-2.29l10.846-10.846c1.479-1.479 2.294-3.445 2.294-5.537s-.816-4.057-2.295-5.537zm-2.121 8.953-10.846 10.846c-1.883 1.885-4.948 1.886-6.832.001l-10.846-10.847c-.912-.912-1.415-2.125-1.415-3.416 0-1.29.502-2.504 1.415-3.416l10.846-10.846c.942-.941 2.179-1.412 3.416-1.412s2.474.471 3.416 1.412l10.846 10.846c.912.912 1.415 2.126 1.415 3.416 0 1.291-.503 2.504-1.415 3.416z" fill="#3a312a"/></g></g><g><g><path d="m129.694 168.797-10.846-10.846c-2.472-2.472-6.481-2.472-8.953 0l-10.846 10.846c-2.472 2.472-2.472 6.481 0 8.953l10.846 10.846c2.472 2.472 6.481 2.472 8.953 0l10.846-10.846c2.472-2.472 2.472-6.48 0-8.953z" fill="#87796f"/></g></g><g><g><path d="m130.754 167.736-10.846-10.846c-3.054-3.053-8.022-3.052-11.074 0l-10.846 10.846c-1.479 1.48-2.293 3.445-2.293 5.537s.814 4.059 2.293 5.537l10.846 10.846c1.526 1.527 3.532 2.291 5.538 2.29 2.004 0 4.01-.763 5.536-2.289l10.846-10.847c1.479-1.479 2.294-3.445 2.294-5.537 0-2.091-.815-4.057-2.294-5.537zm-2.121 8.953-10.846 10.847c-1.884 1.883-4.948 1.882-6.832-.001l-10.846-10.846c-.912-.912-1.415-2.125-1.415-3.416 0-1.29.502-2.504 1.415-3.416l10.846-10.846c.942-.941 2.178-1.412 3.416-1.412 1.237 0 2.474.471 3.416 1.412l10.846 10.846c.912.912 1.415 2.126 1.415 3.416 0 1.291-.503 2.504-1.415 3.416z" fill="#3a312a"/></g></g><g><g><path d="m175.432 94.213c-.586-.586-1.535-.586-2.121 0l-5 5c-.586.586-.586 1.535 0 2.121.293.293.677.439 1.061.439s.768-.146 1.06-.439l5-5c.586-.586.586-1.535 0-2.121z" fill="#3a312a"/></g></g><g><g><path d="m90.932 106.713-5-5c-.586-.586-1.535-.586-2.121 0s-.586 1.535 0 2.121l5 5c.293.293.677.439 1.061.439s.768-.146 1.061-.439c.585-.586.585-1.535-.001-2.121z" fill="#3a312a"/></g></g><g><g><path d="m164.907 178.773h-7.071c-.829 0-1.5.672-1.5 1.5s.671 1.5 1.5 1.5h7.071c.829 0 1.5-.672 1.5-1.5s-.672-1.5-1.5-1.5z" fill="#3a312a"/></g></g><g><g><path d="m85.907 156.773h-7.071c-.829 0-1.5.672-1.5 1.5s.671 1.5 1.5 1.5h7.071c.829 0 1.5-.672 1.5-1.5s-.672-1.5-1.5-1.5z" fill="#3a312a"/></g></g><g><g><path d="m183.932 160.713-5-5c-.586-.586-1.535-.586-2.121 0s-.586 1.535 0 2.121l5 5c.293.293.677.439 1.061.439s.768-.146 1.06-.439c.586-.586.586-1.535 0-2.121z" fill="#3a312a"/></g></g><g><g><path d="m109.372 138.238c-.829 0-1.5.672-1.5 1.5v7.071c0 .828.671 1.5 1.5 1.5s1.5-.672 1.5-1.5v-7.071c0-.828-.672-1.5-1.5-1.5z" fill="#3a312a"/></g></g><g><g><path d="m188.907 110.773h-7.071c-.829 0-1.5.672-1.5 1.5s.671 1.5 1.5 1.5h7.071c.829 0 1.5-.672 1.5-1.5s-.672-1.5-1.5-1.5z" fill="#3a312a"/></g></g><g><g><path d="m147.932 79.713-5-5c-.586-.586-1.535-.586-2.121 0s-.586 1.535 0 2.121l5 5c.293.293.677.439 1.061.439s.768-.146 1.061-.439c.585-.586.585-1.535-.001-2.121z" fill="#3a312a"/></g></g><g><g><path d="m93.632 115.326c-10.074 0-18.24 8.166-18.24 18.24h11.213c0-3.881 3.146-7.027 7.027-7.027s7.027 3.146 7.027 7.027h11.213c-.001-10.074-8.167-18.24-18.24-18.24z" fill="#d7e057"/></g></g><g><g><path d="m93.631 113.826c-10.885 0-19.74 8.855-19.74 19.739 0 .828.671 1.5 1.5 1.5h11.213c.829 0 1.5-.672 1.5-1.5 0-3.047 2.479-5.526 5.526-5.526s5.527 2.48 5.527 5.526c0 .828.671 1.5 1.5 1.5h11.213c.829 0 1.5-.672 1.5-1.5.002-10.883-8.854-19.739-19.739-19.739zm8.395 18.239c-.711-3.988-4.205-7.026-8.395-7.026s-7.684 3.038-8.394 7.026h-8.279c.761-8.53 7.948-15.239 16.673-15.239s15.913 6.709 16.674 15.239z" fill="#3a312a"/></g></g><g><g><path d="m144.08 144.705c-7.123-7.123-18.672-7.123-25.795 0l7.929 7.929c2.744-2.744 7.193-2.744 9.937 0 2.744 2.745 2.744 7.193 0 9.938l7.929 7.929c7.124-7.124 7.123-18.673 0-25.796z" fill="#d7e057"/></g></g><g><g><path d="m145.141 143.645c-7.697-7.697-20.22-7.697-27.916 0-.281.281-.439.663-.439 1.061 0 .397.158.779.439 1.061l7.929 7.929c.586.586 1.535.586 2.121 0 1.044-1.044 2.432-1.618 3.908-1.618 1.477 0 2.864.574 3.908 1.618s1.619 2.432 1.619 3.908c0 1.477-.575 2.864-1.619 3.908-.281.281-.439.663-.439 1.061 0 .397.158.779.439 1.061l7.929 7.929c.293.293.677.439 1.061.439s.768-.146 1.061-.439c3.729-3.729 5.782-8.686 5.782-13.958-.001-5.275-2.055-10.232-5.783-13.96zm-1.107 24.687-5.854-5.854c.994-1.42 1.53-3.106 1.53-4.876 0-2.277-.887-4.419-2.498-6.029-1.61-1.61-3.751-2.497-6.029-2.497-1.769 0-3.456.535-4.876 1.528l-5.853-5.853c6.571-5.493 16.396-5.155 22.566 1.014 3.162 3.162 4.903 7.365 4.903 11.837 0 3.968-1.371 7.725-3.889 10.73z" fill="#3a312a"/></g></g><g><g><path d="m153.08 92.808-7.929 7.929c2.744 2.744 2.744 7.193 0 9.937-2.745 2.744-7.193 2.744-9.937 0l-7.929 7.929c7.123 7.123 18.672 7.123 25.795 0 7.124-7.124 7.124-18.672 0-25.795z" fill="#d7e057"/></g></g><g><g><path d="m154.141 91.747c-.586-.586-1.535-.586-2.121 0l-7.929 7.929c-.281.281-.439.663-.439 1.061 0 .397.158.779.439 1.061 1.044 1.044 1.619 2.432 1.619 3.908 0 1.477-.575 2.864-1.619 3.908s-2.432 1.618-3.908 1.618-2.864-.574-3.908-1.618c-.586-.586-1.535-.586-2.121 0l-7.929 7.929c-.281.281-.439.663-.439 1.061 0 .397.158.779.439 1.061 3.848 3.849 8.903 5.772 13.958 5.772s10.11-1.924 13.958-5.772c3.729-3.729 5.782-8.686 5.782-13.958 0-5.274-2.054-10.231-5.782-13.96zm-2.122 25.795c-6.168 6.17-15.995 6.509-22.566 1.014l5.853-5.853c1.42.993 3.107 1.528 4.876 1.528 2.278 0 4.419-.887 6.029-2.497 1.611-1.61 2.498-3.752 2.498-6.029 0-1.77-.536-3.456-1.53-4.876l5.854-5.854c2.518 3.005 3.889 6.762 3.889 10.729.001 4.473-1.741 8.676-4.903 11.838z" fill="#3a312a"/></g></g><g><g><path d="m131.641 41.894c-2.53 0-5.03.1-7.5.31 46.04 3.83 82.33 42.52 82.33 89.52 0 46.99-36.29 85.69-82.33 89.51 2.47.21 4.97.31 7.5.31 49.53 0 89.83-40.3 89.83-89.82 0-49.53-40.3-89.83-89.83-89.83z" fill="#695b51"/></g></g></g></svg>