<svg id="Layer_1" enable-background="new 0 0 256 256" height="512" viewBox="0 0 256 256" width="512" xmlns="http://www.w3.org/2000/svg"><g><g><g><circle cx="131.625" cy="131.622" fill="#87796f" r="107.75"/></g></g><g><g><path d="m131.625 22.372c-60.24 0-109.25 49.009-109.25 109.25s49.01 109.25 109.25 109.25 109.25-49.009 109.25-109.25-49.01-109.25-109.25-109.25zm0 215.5c-58.587 0-106.25-47.664-106.25-106.25 0-58.587 47.663-106.25 106.25-106.25s106.25 47.663 106.25 106.25c0 58.586-47.663 106.25-106.25 106.25z" fill="#3a312a"/></g></g><g><g><path d="m131.625 40.3c-6.054 0-11.969.595-17.693 1.719l-13.858 3.88c-34.887 12.845-59.771 46.377-59.771 85.723 0 50.436 40.886 91.322 91.322 91.322s91.322-40.886 91.322-91.322-40.886-91.322-91.322-91.322z" fill="#f3dec3"/></g></g><g><g><path d="m131.625 38.8c-6.027 0-12.077.588-17.982 1.748-.813.159-1.343.948-1.183 1.761s.948 1.347 1.761 1.183c5.715-1.122 11.57-1.691 17.404-1.691 49.527 0 89.821 40.294 89.821 89.822s-40.294 89.822-89.821 89.822c-49.528 0-89.822-40.294-89.822-89.822 0-37.485 23.626-71.369 58.79-84.315.777-.286 1.176-1.148.889-1.926-.285-.777-1.147-1.176-1.926-.89-36.338 13.379-60.753 48.394-60.753 87.13 0 51.182 41.64 92.822 92.822 92.822s92.821-41.64 92.821-92.822-41.639-92.822-92.821-92.822z" fill="#3a312a"/></g></g><g><g><path d="m47.536 26.305c-.974 11.564-13.024 13.39-13.024 13.39 10.347.487 12.925 14.059 12.925 14.059.221-9.677 13.321-14.202 13.321-14.202-9.814-.588-13.222-13.247-13.222-13.247z" fill="#d7e057"/></g></g><g><g><path d="m60.848 38.054c-8.604-.515-11.832-12.024-11.863-12.141-.19-.702-.846-1.163-1.584-1.102-.725.066-1.298.642-1.359 1.367-.859 10.215-11.313 11.964-11.754 12.033-.763.115-1.313.79-1.273 1.561.04.77.657 1.384 1.428 1.421 9.027.425 11.498 12.718 11.521 12.842.138.711.76 1.217 1.473 1.217.042 0 .084-.001.126-.005.764-.064 1.357-.693 1.375-1.459.194-8.508 12.191-12.777 12.313-12.819.676-.235 1.092-.914.994-1.623-.101-.708-.684-1.249-1.397-1.292zm-13.567 10.346c-1.356-3.131-3.708-6.908-7.586-8.877 2.931-1.405 6.408-3.912 8.201-8.272 1.551 3.071 4.2 6.88 8.334 8.722-3.006 1.64-6.921 4.405-8.949 8.427z" fill="#3a312a"/></g></g><g><g><path d="m25.838 43.285c-.689 8.179-9.213 9.471-9.213 9.471 7.318.344 9.142 9.944 9.142 9.944.156-6.844 9.422-10.045 9.422-10.045-6.941-.416-9.351-9.37-9.351-9.37z" fill="#d7e057"/></g></g><g><g><path d="m35.279 51.157c-5.767-.345-7.972-8.186-7.993-8.265-.19-.702-.863-1.165-1.582-1.102-.726.065-1.3.642-1.361 1.368-.579 6.871-7.646 8.067-7.942 8.114-.763.115-1.314.79-1.273 1.561.04.77.657 1.384 1.428 1.421 6.035.284 7.724 8.644 7.739 8.726.136.712.759 1.22 1.473 1.22.041 0 .083-.002.125-.005.765-.063 1.358-.694 1.376-1.461.13-5.709 8.331-8.634 8.412-8.662.676-.234 1.093-.913.996-1.622-.099-.708-.684-1.25-1.398-1.293zm-9.585 6.796c-.924-1.886-2.34-3.947-4.447-5.28 1.855-1.041 3.697-2.63 4.871-4.917 1.057 1.874 2.653 3.955 4.941 5.224-1.849 1.101-3.989 2.74-5.365 4.973z" fill="#3a312a"/></g></g><g><g><path d="m25.838 16.628c-.689 8.179-9.213 9.471-9.213 9.471 7.318.345 9.142 9.944 9.142 9.944.156-6.845 9.422-10.045 9.422-10.045-6.941-.416-9.351-9.37-9.351-9.37z" fill="#d7e057"/></g></g><g><g><path d="m35.279 24.5c-5.767-.345-7.972-8.185-7.993-8.265-.19-.702-.863-1.164-1.582-1.102-.726.065-1.3.642-1.361 1.368-.579 6.871-7.646 8.067-7.942 8.114-.763.115-1.314.79-1.273 1.561.04.77.657 1.384 1.428 1.421 6.035.284 7.724 8.644 7.739 8.726.136.713.759 1.22 1.473 1.22.041 0 .083-.001.125-.005.765-.063 1.358-.694 1.376-1.461.13-5.709 8.331-8.634 8.412-8.662.676-.234 1.093-.913.996-1.622-.099-.709-.684-1.25-1.398-1.293zm-9.585 6.795c-.924-1.885-2.34-3.947-4.447-5.28 1.855-1.041 3.697-2.63 4.871-4.917 1.057 1.874 2.654 3.955 4.941 5.224-1.849 1.101-3.989 2.741-5.365 4.973z" fill="#3a312a"/></g></g><g><g><ellipse cx="188.618" cy="126.117" fill="#f16c7a" rx="10.757" ry="10.757" transform="matrix(.122 -.993 .993 .122 40.4 297.912)"/></g></g><g><g><path d="m188.618 113.86c-6.759 0-12.258 5.498-12.258 12.257 0 6.758 5.499 12.257 12.258 12.257s12.257-5.498 12.257-12.257-5.498-12.257-12.257-12.257zm0 21.514c-5.104 0-9.258-4.153-9.258-9.257s4.153-9.257 9.258-9.257 9.257 4.153 9.257 9.257-4.152 9.257-9.257 9.257z" fill="#3a312a"/></g></g><g><g><path d="m155.775 86.374c-2.307-6.255-9.249-9.455-15.503-7.147-.502.185-.981.403-1.443.645.616-2.319.551-4.843-.342-7.265-2.307-6.255-9.248-9.455-15.503-7.147-3.624 1.337-6.22 4.231-7.316 7.644-2.75-5.347-9.119-7.926-14.904-5.792s-8.953 8.231-7.572 14.083c-3.05-1.884-6.903-2.399-10.528-1.062-6.255 2.307-9.455 9.248-7.147 15.503.893 2.422 2.483 4.383 4.458 5.747-.508.115-1.014.261-1.516.446-6.255 2.308-9.455 9.248-7.148 15.503s9.249 9.455 15.503 7.148c.183-.067.363-.14.54-.215 3.229 3.113 8.073 4.295 12.564 2.639 5.506-2.031 8.643-7.653 7.741-13.237 3.078 1.978 7.015 2.54 10.712 1.176s6.326-4.347 7.382-7.851c2.941 4.832 8.977 7.07 14.483 5.039 4.49-1.656 7.406-5.701 7.84-10.166.184-.058.368-.12.55-.187 6.256-2.307 9.457-9.249 7.149-15.504z" fill="#d7e057"/></g></g><g><g><path d="m157.183 85.855c-2.472-6.702-9.707-10.29-16.467-8.352.1-1.83-.175-3.665-.821-5.416-2.59-7.021-10.406-10.625-17.431-8.036-3.021 1.115-5.489 3.217-7.056 5.944-3.598-4.362-9.665-6.12-15.164-4.092-5.497 2.028-8.97 7.307-8.872 12.959-2.964-1.057-6.205-1.053-9.228.062-7.019 2.59-10.624 10.409-8.035 17.43.646 1.751 1.629 3.325 2.893 4.652-2.961 1.346-5.315 3.682-6.69 6.665-1.519 3.292-1.663 6.978-.408 10.379 1.254 3.401 3.758 6.11 7.05 7.627 3.196 1.474 6.764 1.653 10.083.514 2.468 2.055 5.585 3.147 8.737 3.147 1.571-.001 3.15-.271 4.663-.829 5.194-1.916 8.624-6.772 8.862-12.131 3.056 1.191 6.431 1.234 9.591.069 3.158-1.165 5.698-3.391 7.248-6.281 3.663 3.921 9.425 5.386 14.618 3.469 4.548-1.678 7.872-5.723 8.685-10.465 6.827-2.694 10.294-10.392 7.742-17.315zm-9.072 14.615c-.162.06-.324.114-.486.165-.573.182-.982.687-1.041 1.285-.39 4.014-3.085 7.509-6.866 8.903-4.732 1.745-10.066-.11-12.683-4.412-.308-.505-.873-.788-1.472-.708-.587.075-1.075.488-1.246 1.055-.968 3.211-3.324 5.718-6.466 6.877-3.139 1.158-6.561.783-9.381-1.031-.499-.32-1.137-.318-1.634.007-.495.324-.753.91-.658 1.494.803 4.971-2.048 9.846-6.78 11.591-3.779 1.395-8.099.487-11.003-2.312-.285-.275-.66-.42-1.041-.42-.198 0-.398.039-.588.12-.155.066-.312.129-.472.188-2.649.977-5.521.864-8.085-.318s-4.515-3.293-5.491-5.941c-.978-2.649-.864-5.521.317-8.086 1.183-2.564 3.293-4.515 5.941-5.492.419-.154.865-.286 1.329-.391.58-.132 1.028-.594 1.141-1.179s-.131-1.18-.62-1.519c-1.797-1.241-3.146-2.981-3.903-5.032-2.017-5.469.791-11.56 6.259-13.577 3.07-1.131 6.43-.793 9.222.932.518.319 1.175.295 1.665-.06.492-.354.723-.971.583-1.561-1.224-5.185 1.627-10.486 6.631-12.332 5-1.845 10.615.334 13.051 5.071.277.54.855.86 1.457.809.604-.05 1.12-.459 1.306-1.037 1.002-3.123 3.337-5.563 6.406-6.696 5.466-2.019 11.559.791 13.577 6.259.757 2.051.86 4.251.3 6.361-.153.575.049 1.187.514 1.558.465.372 1.105.432 1.633.155.422-.221.848-.412 1.264-.565h.001c5.466-2.02 11.559.791 13.577 6.259 2.016 5.473-.792 11.563-6.258 13.58z" fill="#3a312a"/></g></g><g><g><path d="m110.527 89.443c-.287-.778-1.149-1.174-1.927-.888-2.649.977-5.521.864-8.085-.318s-4.515-3.292-5.492-5.941c-2.017-5.469.791-11.56 6.26-13.577.777-.287 1.175-1.15.888-1.926-.287-.778-1.149-1.174-1.927-.888-7.02 2.59-10.624 10.409-8.035 17.43 2.02 5.478 7.223 8.876 12.747 8.876 1.557 0 3.14-.271 4.683-.84.778-.288 1.175-1.151.888-1.928z" fill="#3a312a"/></g></g><g><g><path d="m101.325 126.585c-.287-.778-1.148-1.173-1.927-.888-5.467 2.016-11.559-.792-13.576-6.259-.978-2.649-.864-5.521.317-8.085 1.183-2.564 3.293-4.515 5.942-5.492.776-.287 1.175-1.149.888-1.926s-1.149-1.173-1.927-.888c-3.4 1.254-6.109 3.758-7.627 7.05-1.519 3.293-1.663 6.979-.408 10.379 2.021 5.477 7.223 8.875 12.747 8.875 1.557 0 3.139-.27 4.683-.839.777-.287 1.175-1.15.888-1.927z" fill="#3a312a"/></g></g><g><g><path d="m134.141 89.465c-1.254-3.401-3.758-6.11-7.05-7.628-3.293-1.518-6.979-1.663-10.38-.408-.776.287-1.175 1.149-.888 1.926s1.149 1.173 1.927.888c2.648-.977 5.521-.864 8.085.318 2.563 1.183 4.515 3.293 5.491 5.942.224.606.797.981 1.407.981.173 0 .348-.03.519-.093.777-.287 1.176-1.149.889-1.926z" fill="#3a312a"/></g></g><g><g><ellipse cx="162.138" cy="117.015" fill="#f16c7a" rx="10.757" ry="10.757" transform="matrix(.987 -.16 .16 .987 -16.65 27.483)"/></g></g><g><g><path d="m162.139 104.757c-6.759 0-12.258 5.499-12.258 12.257 0 6.759 5.499 12.257 12.258 12.257s12.257-5.499 12.257-12.257c-.001-6.758-5.498-12.257-12.257-12.257zm0 21.515c-5.105 0-9.258-4.153-9.258-9.257s4.153-9.257 9.258-9.257c5.104 0 9.257 4.153 9.257 9.257-.001 5.104-4.153 9.257-9.257 9.257z" fill="#3a312a"/></g></g><g><g><path d="m183.653 88.053c-5.941 0-10.757 4.816-10.757 10.757s4.816 10.757 10.757 10.757 10.757-4.816 10.757-10.757-4.816-10.757-10.757-10.757z" fill="#f16c7a"/></g></g><g><g><path d="m183.653 86.553c-6.759 0-12.258 5.499-12.258 12.257 0 6.759 5.499 12.257 12.258 12.257s12.257-5.499 12.257-12.257c0-6.759-5.498-12.257-12.257-12.257zm0 21.514c-5.105 0-9.258-4.153-9.258-9.257s4.153-9.257 9.258-9.257c5.104 0 9.257 4.153 9.257 9.257s-4.152 9.257-9.257 9.257z" fill="#3a312a"/></g></g><g><g><path d="m130.281 132.311c-36.675 0-66.406 14.825-66.406 33.112 0 16.954 25.561 30.923 58.512 32.871l14.305.084c33.665-1.609 59.994-15.747 59.994-32.955 0-18.288-29.731-33.112-66.405-33.112z" fill="#d7e057"/></g></g><g><g><path d="m177.905 140.667c-12.746-6.356-29.659-9.856-47.625-9.856s-34.879 3.5-47.625 9.856c-13.078 6.521-20.28 15.313-20.28 24.756 0 17.574 25.762 32.35 59.924 34.369.84.038 1.538-.583 1.586-1.409.049-.827-.582-1.537-1.408-1.586-32.554-1.923-57.102-15.411-57.102-31.374 0-17.431 29.116-31.612 64.905-31.612s64.905 14.181 64.905 31.612c0 16.07-25.725 29.888-58.564 31.457-.828.04-1.467.743-1.427 1.57.038.803.701 1.428 1.497 1.428.023 0 .048-.001.072-.002 35.017-1.673 61.422-16.485 61.422-34.454.001-9.442-7.202-18.234-20.28-24.755z" fill="#3a312a"/></g></g><g><g><path d="m189.63 181.072-10.008-30.578c-1.01-3.085-3.759-5.079-7.005-5.079 0 0 0 0-.001 0-3.245 0-5.996 1.993-7.006 5.078l-10.008 30.579c-.726 2.22-2.622 3.011-4.153 3.012-1.532 0-3.429-.791-4.155-3.012l-10.008-30.579c-1.01-3.085-3.759-5.079-7.005-5.079 0 0 0 0-.001 0-3.245 0-5.996 1.993-7.006 5.078l-10.008 30.579c-.727 2.22-2.622 3.011-4.153 3.012-1.532 0-3.429-.792-4.155-3.012l-10.008-30.577c-1.01-3.085-3.76-5.079-7.006-5.079s-5.996 1.993-7.006 5.078l-10.008 30.579c-.258.788.172 1.635.959 1.893.79.255 1.635-.172 1.893-.959l10.008-30.579c.727-2.22 2.622-3.011 4.154-3.011s3.428.791 4.154 3.012l10.008 30.579c1.01 3.085 3.761 5.079 7.007 5.079 3.246-.001 5.995-1.994 7.005-5.079l10.008-30.579c.727-2.221 2.623-3.012 4.154-3.012h.001c1.531 0 3.427.791 4.153 3.012l10.008 30.579c1.011 3.085 3.761 5.078 7.007 5.078 3.246-.001 5.995-1.994 7.005-5.079l10.008-30.579c.727-2.221 2.623-3.012 4.154-3.012h.001c1.531 0 3.427.791 4.153 3.012l10.008 30.579c.257.787 1.101 1.214 1.893.959.787-.258 1.217-1.105.959-1.893z" fill="#3a312a"/></g></g><g><g><path d="m131.625 41.802c-2.48 0-4.97.1-7.45.32 46.01 3.84 82.27 42.51 82.27 89.5 0 14.16-3.29 27.55-9.15 39.47-.83 2.67-2.27 5.25-4.27 7.71-14.6 23.57-39.8 39.91-68.9 42.33 2.47.21 4.97.31 7.5.31 49.53 0 89.82-40.29 89.82-89.82s-40.29-89.82-89.82-89.82z" fill="#decaad"/></g></g></g></svg>