<svg id="Layer_1" enable-background="new 0 0 256 256" height="512" viewBox="0 0 256 256" width="512" xmlns="http://www.w3.org/2000/svg"><g><g><g><path d="m159.541 40.382c-6.198-3.332-11.498-8.16-14.99-14.27-3.281-5.742-9.463-9.612-16.551-9.612s-13.27 3.87-16.551 9.612c-3.492 6.11-8.792 10.938-14.99 14.27-15.443 8.302-25.627 22.523-25.627 38.679 0 25.616 25.595 46.382 57.168 46.382s57.168-20.766 57.168-46.382c0-16.156-10.184-30.377-25.627-38.679z" fill="#fce8cb"/></g></g><g><g><path d="m160.251 39.061c-6.206-3.336-11.185-8.071-14.396-13.693-3.657-6.395-10.498-10.368-17.855-10.368s-14.198 3.973-17.854 10.368c-3.212 5.622-8.19 10.356-14.396 13.693-16.542 8.893-26.417 23.847-26.417 40 0 26.402 26.318 47.882 58.668 47.882s58.668-21.479 58.668-47.882c-.001-16.153-9.876-31.107-26.418-40zm-32.251 84.882c-30.695 0-55.668-20.134-55.668-44.882 0-15.031 9.285-28.997 24.837-37.358 6.702-3.603 12.09-8.737 15.582-14.847 3.122-5.462 8.966-8.856 15.249-8.856s12.127 3.394 15.249 8.856c3.492 6.11 8.88 11.244 15.582 14.847 15.552 8.361 24.837 22.327 24.837 37.358 0 24.749-24.973 44.882-55.668 44.882z" fill="#3a312a"/></g></g><g><g><path d="m128 15c-.828 0-1.5.671-1.5 1.5v19.416c0 .829.672 1.5 1.5 1.5s1.5-.671 1.5-1.5v-19.416c0-.829-.672-1.5-1.5-1.5z" fill="#3a312a"/></g></g><g><g><path d="m121.272 16.512c-.791-.259-1.634.175-1.891.962l-5.033 15.461c-.256.788.175 1.634.963 1.891.154.05.311.074.464.074.632 0 1.22-.403 1.427-1.036l5.033-15.461c.256-.788-.174-1.635-.963-1.891z" fill="#3a312a"/></g></g><g><g><path d="m141.651 32.935-5.033-15.461c-.257-.787-1.105-1.22-1.891-.962-.788.256-1.219 1.103-.963 1.891l5.033 15.461c.207.633.795 1.036 1.427 1.036.153 0 .311-.024.464-.074.789-.257 1.219-1.104.963-1.891z" fill="#3a312a"/></g></g><g><g><path d="m47.661 26.433c-.974 11.564-13.024 13.39-13.024 13.39 10.347.487 12.925 14.059 12.925 14.059.221-9.677 13.321-14.202 13.321-14.202-9.814-.588-13.222-13.247-13.222-13.247z" fill="#d7e057"/></g></g><g><g><path d="m60.973 38.182c-8.604-.515-11.832-12.024-11.863-12.141-.191-.702-.854-1.158-1.584-1.101-.725.066-1.298.642-1.359 1.367-.859 10.215-11.313 11.964-11.754 12.033-.763.115-1.314.79-1.273 1.56.04.77.657 1.384 1.428 1.421 9.027.425 11.498 12.718 11.521 12.842.138.711.76 1.217 1.473 1.217.042 0 .084-.002.126-.005.764-.064 1.357-.693 1.375-1.459.194-8.509 12.191-12.777 12.313-12.819.676-.235 1.092-.914.994-1.623-.099-.708-.683-1.249-1.397-1.292zm-13.567 10.345c-1.356-3.13-3.708-6.907-7.586-8.876 2.931-1.405 6.408-3.913 8.201-8.273 1.551 3.071 4.2 6.88 8.334 8.722-3.006 1.641-6.922 4.406-8.949 8.427z" fill="#3a312a"/></g></g><g><g><path d="m25.963 43.413c-.689 8.179-9.213 9.471-9.213 9.471 7.318.344 9.142 9.944 9.142 9.944.156-6.844 9.422-10.045 9.422-10.045-6.941-.416-9.351-9.37-9.351-9.37z" fill="#d7e057"/></g></g><g><g><path d="m35.404 51.285c-5.767-.345-7.972-8.186-7.993-8.265-.191-.702-.864-1.16-1.582-1.102-.726.066-1.3.642-1.361 1.368-.579 6.871-7.646 8.067-7.942 8.114-.763.115-1.314.79-1.273 1.56.04.77.657 1.384 1.428 1.421 6.035.284 7.724 8.644 7.739 8.726.136.713.759 1.22 1.473 1.22.041 0 .083-.001.125-.005.765-.063 1.358-.694 1.376-1.461.13-5.709 8.331-8.634 8.412-8.662.676-.234 1.093-.913.996-1.622-.099-.707-.684-1.249-1.398-1.292zm-9.585 6.795c-.924-1.885-2.34-3.947-4.447-5.28 1.855-1.041 3.697-2.63 4.871-4.917 1.057 1.874 2.654 3.955 4.941 5.224-1.849 1.101-3.989 2.741-5.365 4.973z" fill="#3a312a"/></g></g><g><g><path d="m25.963 16.756c-.689 8.18-9.213 9.471-9.213 9.471 7.318.345 9.142 9.944 9.142 9.944.156-6.845 9.422-10.045 9.422-10.045-6.941-.416-9.351-9.37-9.351-9.37z" fill="#d7e057"/></g></g><g><g><path d="m35.404 24.628c-5.739-.344-7.951-8.112-7.993-8.263-.189-.703-.862-1.165-1.582-1.104-.726.065-1.3.642-1.361 1.368-.579 6.871-7.646 8.067-7.942 8.114-.763.115-1.314.79-1.273 1.56.04.77.657 1.384 1.428 1.421 6.035.284 7.724 8.644 7.739 8.726.136.712.759 1.22 1.473 1.22.041 0 .083-.001.125-.005.765-.063 1.358-.694 1.376-1.461.13-5.709 8.331-8.633 8.412-8.661.676-.234 1.093-.913.996-1.622-.099-.709-.684-1.25-1.398-1.293zm-9.585 6.795c-.924-1.886-2.34-3.947-4.447-5.28 1.855-1.041 3.697-2.63 4.871-4.917 1.057 1.874 2.654 3.955 4.941 5.224-1.849 1.101-3.989 2.74-5.365 4.973z" fill="#3a312a"/></g></g><g><g><path d="m113.109 76.882c-6.198-3.332-11.498-8.16-14.99-14.27-3.281-5.742-9.464-9.612-16.552-9.612s-13.27 3.87-16.551 9.612c-3.491 6.11-8.792 10.938-14.989 14.27-15.443 8.302-25.627 22.523-25.627 38.679 0 25.616 25.595 46.382 57.168 46.382s57.168-20.766 57.168-46.382c0-16.156-10.185-30.377-25.627-38.679z" fill="#fce8cb"/></g></g><g><g><path d="m113.818 75.561c-6.206-3.336-11.185-8.071-14.396-13.693-3.655-6.395-10.496-10.368-17.855-10.368-7.357 0-14.198 3.973-17.854 10.368-3.212 5.622-8.19 10.356-14.396 13.693-16.542 8.893-26.417 23.847-26.417 40.001 0 26.402 26.318 47.882 58.668 47.882s58.668-21.48 58.668-47.882c-.001-16.154-9.876-31.108-26.418-40.001zm-32.251 84.882c-30.695 0-55.668-20.134-55.668-44.882 0-15.031 9.285-28.997 24.837-37.358 6.702-3.603 12.09-8.737 15.582-14.847 3.122-5.463 8.966-8.856 15.249-8.856 6.284 0 12.128 3.394 15.249 8.856 3.492 6.11 8.88 11.244 15.582 14.847 15.552 8.361 24.837 22.327 24.837 37.358 0 24.749-24.972 44.882-55.668 44.882z" fill="#3a312a"/></g></g><g><g><path d="m81.567 51.5c-.828 0-1.5.671-1.5 1.5v19.415c0 .829.672 1.5 1.5 1.5s1.5-.671 1.5-1.5v-19.415c0-.829-.671-1.5-1.5-1.5z" fill="#3a312a"/></g></g><g><g><path d="m74.842 53.012c-.79-.259-1.635.175-1.892.962l-5.034 15.461c-.256.788.175 1.634.962 1.891.154.05.312.074.465.074.632 0 1.22-.403 1.427-1.036l5.034-15.461c.256-.788-.175-1.635-.962-1.891z" fill="#3a312a"/></g></g><g><g><path d="m95.219 69.435-5.033-15.461c-.258-.787-1.104-1.22-1.891-.962-.788.256-1.219 1.103-.963 1.891l5.033 15.461c.207.633.795 1.036 1.427 1.036.153 0 .311-.024.464-.074.788-.257 1.219-1.104.963-1.891z" fill="#3a312a"/></g></g><g><g><path d="m205.973 76.882c-6.198-3.332-11.498-8.16-14.99-14.27-3.281-5.742-9.463-9.612-16.551-9.612s-13.27 3.87-16.551 9.612c-3.492 6.11-8.792 10.938-14.99 14.27-15.442 8.302-25.627 22.523-25.627 38.679 0 25.616 25.595 46.382 57.168 46.382s57.168-20.766 57.168-46.382c.001-16.156-10.184-30.377-25.627-38.679z" fill="#fce8cb"/></g></g><g><g><path d="m206.684 75.561c-6.206-3.336-11.185-8.071-14.396-13.693-3.657-6.395-10.498-10.368-17.855-10.368-7.358 0-14.199 3.973-17.855 10.368-3.212 5.622-8.19 10.356-14.396 13.693-16.542 8.893-26.417 23.847-26.417 40.001 0 26.402 26.318 47.882 58.668 47.882s58.668-21.48 58.668-47.882c0-16.154-9.875-31.108-26.417-40.001zm-32.251 84.882c-30.695 0-55.668-20.134-55.668-44.882 0-15.031 9.285-28.997 24.837-37.358 6.702-3.603 12.09-8.737 15.582-14.847 3.121-5.463 8.965-8.856 15.249-8.856 6.283 0 12.127 3.394 15.249 8.856 3.492 6.11 8.88 11.244 15.582 14.847 15.552 8.361 24.837 22.327 24.837 37.358 0 24.749-24.973 44.882-55.668 44.882z" fill="#3a312a"/></g></g><g><g><path d="m174.433 51.5c-.828 0-1.5.671-1.5 1.5v19.415c0 .829.672 1.5 1.5 1.5s1.5-.671 1.5-1.5v-19.415c0-.829-.672-1.5-1.5-1.5z" fill="#3a312a"/></g></g><g><g><path d="m167.705 53.012c-.792-.259-1.634.175-1.891.962l-5.033 15.461c-.256.788.175 1.634.963 1.891.154.05.311.074.464.074.632 0 1.22-.403 1.427-1.036l5.033-15.461c.256-.788-.175-1.635-.963-1.891z" fill="#3a312a"/></g></g><g><g><path d="m188.084 69.435-5.034-15.461c-.257-.787-1.101-1.22-1.892-.962-.787.256-1.218 1.103-.962 1.891l5.034 15.461c.207.633.795 1.036 1.427 1.036.153 0 .311-.024.465-.074.787-.257 1.218-1.104.962-1.891z" fill="#3a312a"/></g></g><g><g><path d="m222.139 122.194h-188.278c-9.555 0-17.301 7.746-17.301 17.301v24.05c0 9.555 7.746 17.301 17.301 17.301h188.278c9.555 0 17.301-7.746 17.301-17.301v-24.05c0-9.555-7.746-17.301-17.301-17.301z" fill="#87796f"/></g></g><g><g><path d="m222.139 120.694h-51.968c-.828 0-1.5.671-1.5 1.5s.672 1.5 1.5 1.5h51.968c8.713 0 15.802 7.088 15.802 15.801v24.05c0 8.713-7.089 15.801-15.802 15.801h-188.278c-8.713 0-15.802-7.088-15.802-15.801v-24.05c0-8.713 7.089-15.801 15.802-15.801h121.301c.828 0 1.5-.671 1.5-1.5s-.672-1.5-1.5-1.5h-121.301c-10.367 0-18.802 8.434-18.802 18.801v24.05c0 10.367 8.435 18.801 18.802 18.801h188.277c10.367 0 18.802-8.434 18.802-18.801v-24.05c0-10.367-8.434-18.801-18.801-18.801z" fill="#3a312a"/></g></g><g><g><path d="m222.139 180.847h-188.278c-9.555 0-17.301 7.746-17.301 17.301v24.051c0 9.555 7.746 17.301 17.301 17.301h36.181 14.581 137.516c9.555 0 17.301-7.746 17.301-17.301v-24.051c0-9.555-7.746-17.301-17.301-17.301z" fill="#87796f"/></g></g><g><g><path d="m222.139 179.347h-188.278c-10.367 0-18.802 8.434-18.802 18.801v24.051c0 10.367 8.435 18.801 18.802 18.801h36.181c.828 0 1.5-.671 1.5-1.5s-.672-1.5-1.5-1.5h-36.181c-8.713 0-15.802-7.088-15.802-15.801v-24.051c0-8.712 7.089-15.801 15.802-15.801h188.277c8.713 0 15.802 7.088 15.802 15.801v24.051c0 8.713-7.089 15.801-15.802 15.801h-137.515c-.828 0-1.5.671-1.5 1.5s.672 1.5 1.5 1.5h137.516c10.367 0 18.802-8.434 18.802-18.801v-24.051c-.001-10.367-8.435-18.801-18.802-18.801z" fill="#3a312a"/></g></g><g><g><circle cx="45.034" cy="209.721" fill="#d7e057" r="9.516"/></g></g><g><g><path d="m45.034 198.706c-6.074 0-11.017 4.942-11.017 11.016s4.942 11.016 11.017 11.016 11.016-4.941 11.016-11.016c0-6.074-4.942-11.016-11.016-11.016zm0 19.031c-4.42 0-8.017-3.596-8.017-8.016s3.597-8.016 8.017-8.016 8.016 3.596 8.016 8.016c0 4.421-3.596 8.016-8.016 8.016z" fill="#3a312a"/></g></g><g><g><path d="m45.034 142.005c-5.255 0-9.516 4.26-9.516 9.516 0 5.255 4.261 9.516 9.516 9.516 5.256 0 9.516-4.26 9.516-9.516s-4.261-9.516-9.516-9.516z" fill="#d7e057"/></g></g><g><g><path d="m45.034 140.505c-6.074 0-11.017 4.941-11.017 11.016 0 6.074 4.942 11.016 11.017 11.016s11.016-4.942 11.016-11.016c0-6.075-4.942-11.016-11.016-11.016zm0 19.032c-4.42 0-8.017-3.596-8.017-8.016s3.597-8.016 8.017-8.016 8.016 3.596 8.016 8.016c0 4.419-3.596 8.016-8.016 8.016z" fill="#3a312a"/></g></g><g><g><circle cx="210.966" cy="209.721" fill="#d7e057" r="9.516"/></g></g><g><g><path d="m210.966 198.706c-6.074 0-11.016 4.942-11.016 11.016s4.941 11.016 11.016 11.016c6.074 0 11.017-4.941 11.017-11.016-.001-6.074-4.943-11.016-11.017-11.016zm0 19.031c-4.42 0-8.016-3.596-8.016-8.016s3.596-8.016 8.016-8.016 8.017 3.596 8.017 8.016c-.001 4.421-3.597 8.016-8.017 8.016z" fill="#3a312a"/></g></g><g><g><path d="m210.966 142.005c-5.255 0-9.516 4.26-9.516 9.516 0 5.255 4.26 9.516 9.516 9.516 5.255 0 9.516-4.26 9.516-9.516s-4.26-9.516-9.516-9.516z" fill="#d7e057"/></g></g><g><g><path d="m210.966 140.505c-6.074 0-11.016 4.941-11.016 11.016 0 6.074 4.941 11.016 11.016 11.016 6.074 0 11.017-4.942 11.017-11.016-.001-6.075-4.943-11.016-11.017-11.016zm0 19.032c-4.42 0-8.016-3.596-8.016-8.016s3.596-8.016 8.016-8.016 8.017 3.596 8.017 8.016c-.001 4.419-3.597 8.016-8.017 8.016z" fill="#3a312a"/></g></g><g><g><path d="m222.14 123.689h-16.31c8.71 0 15.8 7.09 15.8 15.81v9.27c.23.88.35 1.8.35 2.75s-.12 1.87-.35 2.75v9.28c0 8.71-7.09 15.8-15.8 15.8h16.31c8.71 0 15.8-7.09 15.8-15.8v-24.05c0-8.72-7.09-15.81-15.8-15.81z" fill="#695b51"/></g></g><g><g><path d="m222.14 182.35h-16.31c8.71 0 15.8 7.09 15.8 15.8v8.82c.23.88.35 1.8.35 2.75s-.12 1.87-.35 2.75v9.73c0 8.71-7.09 15.8-15.8 15.8h16.31c8.71 0 15.8-7.09 15.8-15.8v-24.05c0-8.711-7.09-15.8-15.8-15.8z" fill="#695b51"/></g></g></g></svg>