<svg id="Layer_1" enable-background="new 0 0 256 256" height="512" viewBox="0 0 256 256" width="512" xmlns="http://www.w3.org/2000/svg"><g><g><g><path d="m191.752 53.095c-20.402 0-37 16.598-37 37s16.598 37 37 37 37-16.598 37-37-16.598-37-37-37zm0 60.545c-12.982 0-23.545-10.563-23.545-23.545 0-12.983 10.563-23.545 23.545-23.545 12.983 0 23.545 10.563 23.545 23.545s-10.563 23.545-23.545 23.545z" fill="#e76b7a"/></g></g><g><g><path d="m191.752 51.595c-21.229 0-38.5 17.272-38.5 38.5s17.271 38.5 38.5 38.5 38.5-17.271 38.5-38.5-17.272-38.5-38.5-38.5zm0 74c-19.575 0-35.5-15.925-35.5-35.5s15.925-35.5 35.5-35.5 35.5 15.925 35.5 35.5-15.925 35.5-35.5 35.5zm0-60.546c-13.811 0-25.046 11.235-25.046 25.046s11.235 25.046 25.046 25.046c13.809 0 25.045-11.235 25.045-25.046s-11.236-25.046-25.045-25.046zm0 47.092c-12.156 0-22.046-9.89-22.046-22.046s9.89-22.046 22.046-22.046c12.155 0 22.045 9.89 22.045 22.046s-9.89 22.046-22.045 22.046z" fill="#3a312a"/></g></g><g><g><path d="m58.175 26.302c-.974 11.564-13.031 13.389-13.031 13.389 10.352.487 12.932 14.059 12.932 14.059.221-9.677 13.328-14.202 13.328-14.202-9.819-.587-13.229-13.246-13.229-13.246z" fill="#d4d853"/></g></g><g><g><path d="m71.494 38.052c-8.61-.516-11.839-12.025-11.87-12.142-.192-.702-.85-1.153-1.584-1.102-.725.066-1.298.642-1.359 1.367-.861 10.217-11.32 11.965-11.761 12.033-.763.116-1.313.791-1.273 1.561.04.771.657 1.385 1.428 1.421 9.033.426 11.505 12.72 11.528 12.844.138.711.76 1.217 1.473 1.217.042 0 .084-.002.126-.005.765-.064 1.357-.693 1.375-1.46.193-8.509 12.197-12.776 12.319-12.819.675-.234 1.092-.913.994-1.622s-.682-1.25-1.396-1.293zm-13.573 10.346c-1.357-3.131-3.711-6.908-7.591-8.878 2.933-1.405 6.412-3.913 8.206-8.274 1.552 3.071 4.201 6.881 8.339 8.724-3.01 1.64-6.927 4.406-8.954 8.428z" fill="#3a312a"/></g></g><g><g><path d="m36.465 43.283c-.689 8.179-9.217 9.47-9.217 9.47 7.322.345 9.147 9.944 9.147 9.944.156-6.844 9.427-10.045 9.427-10.045-6.944-.415-9.357-9.369-9.357-9.369z" fill="#d4d853"/></g></g><g><g><path d="m45.912 51.155c-5.77-.346-7.977-8.187-7.999-8.266-.19-.702-.862-1.155-1.581-1.101-.726.065-1.3.643-1.361 1.368-.579 6.871-7.651 8.066-7.947 8.113-.763.116-1.313.791-1.273 1.561.04.771.657 1.385 1.428 1.421 6.039.284 7.729 8.645 7.744 8.727.136.713.759 1.22 1.473 1.22.041 0 .083-.002.125-.005.765-.063 1.358-.693 1.376-1.461.13-5.709 8.335-8.633 8.416-8.661.677-.233 1.094-.913.997-1.622-.099-.71-.684-1.251-1.398-1.294zm-9.59 6.796c-.924-1.887-2.341-3.948-4.45-5.281 1.857-1.041 3.7-2.631 4.874-4.918 1.058 1.874 2.656 3.955 4.944 5.226-1.85 1.1-3.991 2.74-5.368 4.973z" fill="#3a312a"/></g></g><g><g><path d="m36.465 16.625c-.689 8.179-9.217 9.471-9.217 9.471 7.322.345 9.147 9.944 9.147 9.944.156-6.845 9.427-10.045 9.427-10.045-6.944-.416-9.357-9.37-9.357-9.37z" fill="#d4d853"/></g></g><g><g><path d="m45.912 24.497c-5.77-.345-7.977-8.186-7.999-8.265-.19-.702-.862-1.154-1.581-1.102-.726.065-1.3.642-1.361 1.368-.579 6.87-7.651 8.066-7.947 8.113-.763.116-1.313.791-1.273 1.561.04.771.657 1.385 1.428 1.421 6.039.284 7.729 8.645 7.744 8.727.136.713.759 1.22 1.473 1.22.041 0 .083-.002.125-.005.765-.063 1.358-.693 1.376-1.461.13-5.709 8.336-8.634 8.416-8.662.677-.233 1.094-.913.997-1.622-.099-.709-.684-1.251-1.398-1.293zm-9.59 6.797c-.925-1.887-2.342-3.948-4.45-5.281 1.856-1.042 3.7-2.631 4.874-4.918 1.058 1.874 2.656 3.955 4.944 5.225-1.85 1.1-3.991 2.74-5.368 4.974z" fill="#3a312a"/></g></g><g><g><path d="m183.734 75.787c-2.013-1.866-4.238-3.51-6.631-4.891-11.469-6.62-18.364-3.215-18.364-16.456v-13.331h-39.974v13.331c0 13.241-6.895 9.835-18.364 16.456-2.393 1.381-4.617 3.026-6.631 4.891-8.665 8.022-12.671 19.903-11.238 31.615l2.14 21.737 5.387 54.818 2.007 20.412 1.43 14.543 1.001 10.174c.632 5.851 5.566 10.289 11.449 10.289h65.612c5.882 0 10.816-4.438 11.448-10.289l4.438-45.129 5.387-54.818 2.14-21.737c1.434-11.712-2.572-23.592-11.237-31.615z" fill="#fce8cb"/></g></g><g><g><path d="m184.753 74.687c-2.107-1.951-4.429-3.664-6.9-5.09-3.63-2.096-6.845-3.229-9.428-4.141-5.789-2.043-8.186-2.889-8.186-11.016v-13.331c0-.828-.672-1.5-1.5-1.5h-39.975c-.828 0-1.5.672-1.5 1.5v13.331c0 8.128-2.396 8.973-8.187 11.016-2.583.911-5.798 2.045-9.428 4.141-2.474 1.427-4.795 3.14-6.9 5.09-8.849 8.193-13.226 20.491-11.711 32.862l9.534 96.967c.081.824.813 1.427 1.64 1.347.825-.081 1.428-.815 1.347-1.64l-9.538-97.003c-1.402-11.452 2.623-22.792 10.768-30.332 1.941-1.799 4.081-3.377 6.361-4.693 3.39-1.956 6.331-2.994 8.926-3.909 5.915-2.087 10.188-3.595 10.188-13.845v-11.832h36.975v11.831c0 10.25 4.273 11.758 10.188 13.845 2.595.915 5.536 1.953 8.926 3.909 2.278 1.314 4.419 2.894 6.362 4.693 8.145 7.54 12.17 18.879 10.764 30.367l-11.964 121.67c-.551 5.102-4.832 8.95-9.957 8.95h-65.612c-5.124 0-9.405-3.848-9.955-8.936l-1-10.173c-.08-.824-.816-1.428-1.64-1.347-.825.081-1.428.815-1.347 1.64l1.002 10.188c.717 6.629 6.279 11.628 12.939 11.628h65.612c6.661 0 12.224-4.999 12.941-11.643l11.962-121.647c1.52-12.406-2.858-24.705-11.707-32.897z" fill="#3a312a"/></g></g><g><g><path d="m183.734 75.787c-2.013-1.866-4.238-3.51-6.631-4.891-10.961-6.327-17.738-3.509-18.318-14.801h-40.065c-.58 11.292-7.358 8.474-18.319 14.801-2.393 1.381-4.617 3.025-6.631 4.891-8.665 8.022-12.672 19.903-11.238 31.615l2.14 21.737 5.387 54.817 2.007 20.413 1.43 14.543 1.001 10.174c.632 5.851 5.566 10.289 11.449 10.289h65.612c5.882 0 10.816-4.438 11.448-10.289l4.438-45.13 5.387-54.817 2.14-21.737c1.434-11.712-2.572-23.592-11.237-31.615z" fill="#d7e057"/></g></g><g><g><path d="m184.753 74.687c-2.105-1.951-4.428-3.663-6.9-5.089-3.625-2.093-6.837-3.229-9.417-4.141-5.363-1.896-7.811-2.762-8.153-9.439-.041-.797-.699-1.423-1.498-1.423h-40.065c-.799 0-1.457.626-1.498 1.423-.343 6.678-2.79 7.543-8.152 9.439-2.581.912-5.792 2.048-9.417 4.14-2.473 1.427-4.795 3.139-6.901 5.09-8.849 8.193-13.226 20.491-11.711 32.862l9.534 96.967c.08.823.816 1.43 1.64 1.347.825-.081 1.428-.815 1.347-1.64l-9.538-97.003c-1.402-11.452 2.623-22.792 10.768-30.332 1.942-1.799 4.082-3.378 6.361-4.692 3.386-1.954 6.325-2.993 8.918-3.91 5.311-1.878 9.231-3.264 10.036-10.691h37.294c.806 7.427 4.727 8.813 10.036 10.691 2.594.917 5.532 1.956 8.919 3.911 2.279 1.314 4.419 2.893 6.361 4.691 8.145 7.54 12.17 18.879 10.764 30.367l-11.964 121.67c-.551 5.102-4.832 8.95-9.957 8.95h-65.612c-5.124 0-9.405-3.848-9.955-8.936l-1-10.173c-.08-.824-.816-1.428-1.64-1.347-.825.081-1.428.815-1.347 1.64l1.002 10.188c.717 6.629 6.279 11.628 12.939 11.628h65.612c6.661 0 12.224-4.999 12.941-11.643l11.962-121.647c1.518-12.407-2.86-24.706-11.709-32.898z" fill="#3a312a"/></g></g><g><g><path d="m158.298 16.814h-39.093c-3.615 0-6.545 2.93-6.545 6.544v11.202c0 3.614 2.93 6.544 6.545 6.544h39.093c3.615 0 6.545-2.93 6.545-6.544v-11.201c0-3.615-2.93-6.545-6.545-6.545z" fill="#87796f"/></g></g><g><g><path d="m158.298 15.314h-14.073c-.828 0-1.5.672-1.5 1.5s.672 1.5 1.5 1.5h14.073c2.782 0 5.045 2.263 5.045 5.044v11.202c0 2.782-2.263 5.045-5.045 5.045h-39.093c-2.781 0-5.044-2.263-5.044-5.045v-11.202c0-2.781 2.263-5.044 5.044-5.044h10.739c.828 0 1.5-.672 1.5-1.5s-.672-1.5-1.5-1.5h-10.739c-4.436 0-8.044 3.608-8.044 8.044v11.202c0 4.436 3.608 8.045 8.044 8.045h39.093c4.436 0 8.045-3.609 8.045-8.045v-11.202c0-4.435-3.61-8.044-8.045-8.044z" fill="#3a312a"/></g></g><g><g><path d="m84.672 129.139 5.387 54.818h97.385l5.387-54.818z" fill="#e76b7a"/></g></g><g><g><path d="m193.942 128.132c-.284-.313-.688-.492-1.111-.492h-108.159c-.424 0-.827.179-1.111.492-.284.314-.423.733-.382 1.154l5.387 54.817c.076.769.722 1.354 1.493 1.354h97.386c.771 0 1.417-.585 1.493-1.354l5.387-54.817c.04-.421-.098-.84-.383-1.154zm-7.857 54.325h-94.667l-5.092-51.817h104.851z" fill="#3a312a"/></g></g><g><g><ellipse cx="138.752" cy="156.548" fill="#fce8cb" rx="33.734" ry="54.248"/></g></g><g><g><path d="m138.752 100.801c-19.429 0-35.234 25.008-35.234 55.747s15.806 55.748 35.234 55.748 35.233-25.009 35.233-55.748-15.805-55.747-35.233-55.747zm0 108.495c-17.774 0-32.234-23.663-32.234-52.748s14.46-52.747 32.234-52.747c17.773 0 32.233 23.662 32.233 52.747s-14.46 52.748-32.233 52.748z" fill="#3a312a"/></g></g><g><g><path d="m138.752 158.804c-.828 0-1.5.672-1.5 1.5v23.781c0 .828.672 1.5 1.5 1.5s1.5-.672 1.5-1.5v-23.781c0-.828-.672-1.5-1.5-1.5z" fill="#3a312a"/></g></g><g><g><path d="m152.745 162.062c.436-.433.857-.895 1.255-1.396 5.903-7.428 7.46-17.428 7.46-17.428s-6.385-.369-13.398 1.526c-2.687-9.144-9.196-16.255-9.196-16.255s-6.363 7.07-9.229 16.243c-7.078-2.01-13.589-1.682-13.589-1.682s.932 9.448 7.33 17.483c.399.5.812.969 1.245 1.406-5.068 2.638-8.578 6.52-8.578 6.52s5.93 4.4 12.803 5.239c4.181.51 7.808-1.314 9.807-3.633 1.982 2.334 5.595 4.184 9.78 3.706 6.878-.787 12.842-5.143 12.842-5.143s-3.484-3.911-8.532-6.586z" fill="#d7e057"/></g></g><g><g><path d="m162.942 143.469c.064-.418-.05-.844-.315-1.173-.266-.329-.658-.53-1.08-.555-.253-.018-5.896-.318-12.482 1.223-2.946-8.688-8.832-15.182-9.094-15.468-.284-.311-.686-.487-1.106-.487h-.007c-.423.002-.825.183-1.108.496-.255.284-6.008 6.739-9.09 15.435-6.666-1.647-12.429-1.381-12.688-1.369-.41.021-.794.208-1.062.52-.268.311-.396.718-.356 1.126.04.403 1.052 9.984 7.649 18.27h.001c.02.025.04.051.061.076-4.33 2.615-7.2 5.76-7.334 5.908-.284.313-.422.732-.381 1.153.042.421.26.805.6 1.057.255.189 6.33 4.647 13.515 5.524 4.232.518 7.737-1.059 9.98-3.001 1.955 1.719 4.886 3.162 8.436 3.162.495 0 1.003-.028 1.521-.088 7.191-.821 13.3-5.234 13.557-5.422.342-.249.563-.632.606-1.052.045-.421-.09-.841-.371-1.157-.133-.15-2.979-3.316-7.289-5.963.022-.028.046-.058.068-.086 6.082-7.65 7.703-17.704 7.769-18.129zm-11.68 18.812c.069.472.359.882.781 1.105 3.02 1.601 5.475 3.691 6.865 5.005-2.107 1.267-6.208 3.399-10.646 3.906-3.868.438-6.91-1.354-8.465-3.186-.284-.334-.699-.527-1.138-.529h-.006c-.437 0-.852.19-1.136.521-1.568 1.819-4.624 3.598-8.489 3.123-4.435-.541-8.519-2.704-10.616-3.986 1.4-1.303 3.871-3.375 6.902-4.953.423-.22.717-.628.79-1.1.073-.471-.082-.949-.418-1.287-.379-.382-.761-.814-1.136-1.283h.001c-4.494-5.643-6.179-12.101-6.749-15.061 2.327.042 6.773.316 11.424 1.638.783.219 1.6-.22 1.842-.996 2.02-6.469 5.903-11.923 7.807-14.345 1.926 2.417 5.85 7.873 7.747 14.333.23.783 1.047 1.237 1.831 1.025 4.548-1.229 8.866-1.471 11.178-1.498-.711 3.087-2.63 9.765-6.805 15.018-.346.435-.718.849-1.138 1.266-.338.336-.497.814-.426 1.284z" fill="#3a312a"/></g></g><g><g><path d="m170.792 185.455-4.28 43.47c-.28 2.55-1.48 4.79-3.26 6.39s-4.13 2.56-6.69 2.56h15c2.56 0 4.91-.96 6.69-2.56s2.98-3.84 3.26-6.39l4.28-43.47z" fill="#b9c239"/></g></g><g><g><path d="m189.102 84.955c-1.7-2.98-3.84-5.71-6.39-8.07-1.94-1.8-4.08-3.37-6.36-4.69-3.38-1.95-6.32-2.99-8.92-3.91-5.31-1.88-9.23-3.26-10.03-10.69h-15c.8 7.43 4.72 8.81 10.03 10.69 2.6.92 5.54 1.96 8.92 3.91 2.28 1.32 4.42 2.89 6.36 4.69 2.55 2.36 4.69 5.09 6.39 8.07 3.74 6.57 5.34 14.4 4.38 22.3l-2.01 20.38h15l2.01-20.38c.96-7.9-.64-15.73-4.38-22.3z" fill="#b9c239"/></g></g><g><g><path d="m176.172 130.635-2.25 22.88c.04 1 .06 2.01.06 3.03 0 6.96-.81 13.62-2.3 19.76l-.6 6.15h15l5.09-51.82z" fill="#d04e5d"/></g></g><g><g><path d="m142.242 42.605h15v11.99h-15z" fill="#decaad"/></g></g></g></svg>