<svg id="Layer_1" enable-background="new 0 0 256 256" height="512" viewBox="0 0 256 256" width="512" xmlns="http://www.w3.org/2000/svg"><g><g><g><path d="m159.541 35.535c-3.5-1.882-13.103-9.252-20.801-15.313-6.302-4.962-15.178-4.962-21.48 0-7.699 6.061-17.302 13.432-20.801 15.313-15.442 8.302-25.627 22.523-25.627 38.679 0 25.616 25.595 46.382 57.168 46.382s57.168-20.766 57.168-46.382c0-16.156-10.184-30.377-25.627-38.679z" fill="#fce8cb"/></g></g><g><g><path d="m160.251 34.213c-2.714-1.459-9.832-6.705-20.583-15.171-6.87-5.41-16.466-5.41-23.335 0-10.753 8.467-17.871 13.713-20.584 15.171-16.541 8.893-26.417 23.847-26.417 40 0 26.402 26.318 47.882 58.669 47.882s58.669-21.479 58.669-47.882c-.001-16.153-9.877-31.106-26.419-40zm-32.251 84.883c-30.696 0-55.669-20.134-55.669-44.882 0-15.031 9.285-28.997 24.838-37.358 2.904-1.561 9.976-6.761 21.019-15.456 2.889-2.274 6.351-3.412 9.812-3.412 3.462 0 6.923 1.137 9.813 3.412 11.042 8.694 18.113 13.894 21.018 15.456 15.553 8.361 24.838 22.327 24.838 37.358 0 24.748-24.973 44.882-55.669 44.882z" fill="#3a312a"/></g></g><g><g><path d="m128 44.152c-.829 0-1.5.671-1.5 1.5v19.416c0 .829.671 1.5 1.5 1.5s1.5-.671 1.5-1.5v-19.416c0-.828-.671-1.5-1.5-1.5z" fill="#3a312a"/></g></g><g><g><path d="m106.273 45.664c-.786-.255-1.634.174-1.891.962l-5.034 15.461c-.256.788.174 1.634.962 1.891.154.05.311.074.465.074.632 0 1.22-.403 1.426-1.036l5.034-15.461c.257-.788-.174-1.635-.962-1.891z" fill="#3a312a"/></g></g><g><g><path d="m156.651 62.087-5.034-15.461c-.256-.788-1.106-1.219-1.891-.962-.788.256-1.218 1.103-.962 1.891l5.034 15.461c.206.633.794 1.036 1.426 1.036.154 0 .311-.024.465-.074.788-.257 1.218-1.103.962-1.891z" fill="#3a312a"/></g></g><g><g><path d="m113.109 76.882c-3.5-1.881-13.103-9.252-20.801-15.313-6.302-4.962-15.178-4.962-21.48 0-7.698 6.061-17.301 13.432-20.801 15.313-15.443 8.302-25.627 22.523-25.627 38.679 0 25.616 25.595 46.382 57.168 46.382s57.168-20.766 57.168-46.382c0-16.156-10.185-30.377-25.627-38.679z" fill="#fce8cb"/></g></g><g><g><path d="m113.819 75.561c-2.712-1.458-9.83-6.704-20.583-15.17-6.87-5.41-16.466-5.41-23.335 0-10.755 8.467-17.873 13.713-20.584 15.17-16.541 8.893-26.416 23.847-26.416 40.001 0 26.402 26.318 47.882 58.668 47.882s58.668-21.48 58.668-47.882c-.001-16.154-9.877-31.108-26.418-40.001zm-32.252 84.882c-30.695 0-55.668-20.134-55.668-44.882 0-15.031 9.285-28.997 24.837-37.358 2.902-1.561 9.974-6.76 21.019-15.456 2.889-2.274 6.351-3.412 9.812-3.412 3.462 0 6.924 1.137 9.813 3.412 11.043 8.694 18.115 13.895 21.018 15.456 15.553 8.361 24.838 22.327 24.838 37.358 0 24.749-24.973 44.882-55.669 44.882z" fill="#3a312a"/></g></g><g><g><path d="m81.567 85.5c-.829 0-1.5.671-1.5 1.5v19.415c0 .829.671 1.5 1.5 1.5s1.5-.671 1.5-1.5v-19.415c0-.829-.671-1.5-1.5-1.5z" fill="#3a312a"/></g></g><g><g><path d="m59.841 87.012c-.785-.256-1.634.174-1.891.962l-5.034 15.461c-.256.788.174 1.634.962 1.891.154.05.311.074.465.074.632 0 1.22-.403 1.426-1.036l5.034-15.461c.256-.788-.175-1.635-.962-1.891z" fill="#3a312a"/></g></g><g><g><path d="m110.218 103.435-5.034-15.461c-.256-.789-1.105-1.22-1.891-.962-.788.256-1.218 1.103-.962 1.891l5.034 15.461c.206.633.794 1.036 1.426 1.036.154 0 .311-.024.465-.074.788-.257 1.219-1.104.962-1.891z" fill="#3a312a"/></g></g><g><g><path d="m205.974 76.882c-3.5-1.881-13.103-9.252-20.801-15.313-6.302-4.962-15.178-4.962-21.48 0-7.699 6.061-17.301 13.432-20.801 15.313-15.442 8.302-25.627 22.523-25.627 38.679 0 25.616 25.595 46.382 57.168 46.382s57.168-20.766 57.168-46.382c0-16.156-10.185-30.377-25.627-38.679z" fill="#fce8cb"/></g></g><g><g><path d="m206.684 75.561c-2.711-1.457-9.829-6.703-20.584-15.17-6.87-5.41-16.466-5.409-23.335 0-10.753 8.467-17.871 13.712-20.583 15.17-16.542 8.893-26.417 23.847-26.417 40.001 0 26.402 26.318 47.882 58.668 47.882s58.668-21.48 58.668-47.882c0-16.154-9.876-31.108-26.417-40.001zm-32.251 84.882c-30.696 0-55.668-20.134-55.668-44.882 0-15.031 9.285-28.997 24.838-37.358 2.903-1.561 9.975-6.761 21.018-15.456 2.889-2.274 6.351-3.412 9.813-3.412 3.461 0 6.923 1.137 9.812 3.412 11.044 8.695 18.116 13.895 21.019 15.456 15.552 8.361 24.837 22.327 24.837 37.358-.001 24.749-24.974 44.882-55.669 44.882z" fill="#3a312a"/></g></g><g><g><path d="m174.433 85.5c-.829 0-1.5.671-1.5 1.5v19.415c0 .829.671 1.5 1.5 1.5s1.5-.671 1.5-1.5v-19.415c0-.829-.672-1.5-1.5-1.5z" fill="#3a312a"/></g></g><g><g><path d="m152.706 87.012c-.784-.256-1.634.174-1.891.962l-5.034 15.461c-.256.788.174 1.634.962 1.891.154.05.311.074.465.074.632 0 1.22-.403 1.426-1.036l5.034-15.461c.256-.788-.174-1.635-.962-1.891z" fill="#3a312a"/></g></g><g><g><path d="m203.083 103.435-5.034-15.461c-.257-.789-1.105-1.22-1.891-.962-.788.256-1.218 1.103-.962 1.891l5.034 15.461c.206.633.794 1.036 1.426 1.036.154 0 .311-.024.465-.074.788-.257 1.219-1.104.962-1.891z" fill="#3a312a"/></g></g><g><g><path d="m47.661 26.433c-.974 11.564-13.024 13.39-13.024 13.39 10.347.487 12.925 14.059 12.925 14.059.221-9.677 13.321-14.202 13.321-14.202-9.814-.588-13.222-13.247-13.222-13.247z" fill="#d7e057"/></g></g><g><g><path d="m60.973 38.182c-8.605-.515-11.832-12.024-11.864-12.141-.191-.702-.853-1.159-1.583-1.101-.725.066-1.298.642-1.359 1.367-.86 10.215-11.313 11.964-11.754 12.033-.763.115-1.313.79-1.273 1.56s.657 1.384 1.428 1.421c9.028.425 11.499 12.718 11.523 12.842.137.711.759 1.217 1.472 1.217.042 0 .084-.002.126-.005.764-.064 1.357-.693 1.375-1.459.194-8.509 12.191-12.777 12.313-12.819.675-.235 1.092-.914.994-1.623-.101-.708-.684-1.249-1.398-1.292zm-13.566 10.345c-1.357-3.13-3.709-6.907-7.587-8.876 2.931-1.405 6.409-3.913 8.202-8.273 1.551 3.071 4.199 6.88 8.333 8.722-3.007 1.641-6.922 4.406-8.948 8.427z" fill="#3a312a"/></g></g><g><g><path d="m25.963 43.413c-.689 8.179-9.213 9.471-9.213 9.471 7.318.344 9.142 9.944 9.142 9.944.156-6.844 9.422-10.045 9.422-10.045-6.941-.416-9.351-9.37-9.351-9.37z" fill="#d7e057"/></g></g><g><g><path d="m35.404 51.285c-5.767-.345-7.973-8.186-7.994-8.265-.19-.702-.852-1.165-1.582-1.102-.726.066-1.299.642-1.36 1.368-.579 6.871-7.646 8.067-7.942 8.114-.763.115-1.314.79-1.273 1.56.04.77.657 1.384 1.428 1.421 6.035.284 7.723 8.644 7.739 8.726.135.713.759 1.22 1.472 1.22.042 0 .083-.001.125-.005.765-.063 1.358-.694 1.376-1.461.13-5.709 8.331-8.634 8.413-8.662.676-.234 1.094-.913.996-1.622-.099-.707-.683-1.249-1.398-1.292zm-9.585 6.795c-.924-1.885-2.34-3.947-4.447-5.28 1.856-1.041 3.697-2.63 4.871-4.916 1.057 1.874 2.655 3.954 4.941 5.224-1.85 1.1-3.989 2.74-5.365 4.972z" fill="#3a312a"/></g></g><g><g><path d="m25.963 16.756c-.689 8.18-9.213 9.471-9.213 9.471 7.318.345 9.142 9.944 9.142 9.944.156-6.845 9.422-10.045 9.422-10.045-6.941-.416-9.351-9.37-9.351-9.37z" fill="#d7e057"/></g></g><g><g><path d="m35.404 24.628c-5.744-.344-7.956-8.125-7.994-8.263-.19-.703-.853-1.168-1.583-1.103-.726.065-1.299.642-1.36 1.368-.579 6.871-7.646 8.067-7.942 8.114-.763.115-1.314.79-1.273 1.56.04.77.657 1.384 1.428 1.421 6.035.284 7.723 8.644 7.739 8.725.135.713.759 1.22 1.472 1.22.042 0 .083-.001.125-.005.765-.063 1.358-.694 1.376-1.461.13-5.709 8.331-8.633 8.413-8.661.676-.234 1.094-.913.996-1.622s-.682-1.25-1.397-1.293zm-9.585 6.795c-.924-1.886-2.34-3.947-4.447-5.28 1.855-1.041 3.697-2.63 4.87-4.917 1.057 1.874 2.654 3.955 4.941 5.224-1.849 1.101-3.988 2.74-5.364 4.973z" fill="#3a312a"/></g></g><g><g><path d="m222.139 122.194h-188.278c-9.555 0-17.301 7.746-17.301 17.301v24.05c0 9.555 7.746 17.301 17.301 17.301h188.278c9.555 0 17.301-7.746 17.301-17.301v-24.05c0-9.555-7.746-17.301-17.301-17.301z" fill="#87796f"/></g></g><g><g><path d="m222.139 120.694h-51.968c-.829 0-1.5.671-1.5 1.5s.671 1.5 1.5 1.5h51.968c8.713 0 15.801 7.088 15.801 15.801v24.05c0 8.713-7.088 15.801-15.801 15.801h-188.278c-8.713 0-15.801-7.088-15.801-15.801v-24.05c0-8.713 7.088-15.801 15.801-15.801h121.301c.829 0 1.5-.671 1.5-1.5s-.671-1.5-1.5-1.5h-121.301c-10.367 0-18.801 8.434-18.801 18.801v24.05c0 10.367 8.434 18.801 18.801 18.801h188.278c10.367 0 18.801-8.434 18.801-18.801v-24.05c0-10.367-8.434-18.801-18.801-18.801z" fill="#3a312a"/></g></g><g><g><path d="m222.139 180.847h-188.278c-9.555 0-17.301 7.746-17.301 17.301v24.051c0 9.555 7.746 17.301 17.301 17.301h36.181 14.581 137.516c9.555 0 17.301-7.746 17.301-17.301v-24.051c0-9.555-7.746-17.301-17.301-17.301z" fill="#87796f"/></g></g><g><g><path d="m222.139 179.347h-188.278c-10.367 0-18.801 8.434-18.801 18.801v24.051c0 10.367 8.434 18.801 18.801 18.801h36.181c.829 0 1.5-.671 1.5-1.5s-.671-1.5-1.5-1.5h-36.181c-8.713 0-15.801-7.088-15.801-15.801v-24.051c0-8.712 7.088-15.801 15.801-15.801h188.278c8.713 0 15.801 7.088 15.801 15.801v24.051c0 8.713-7.088 15.801-15.801 15.801h-137.516c-.829 0-1.5.671-1.5 1.5s.671 1.5 1.5 1.5h137.517c10.367 0 18.801-8.434 18.801-18.801v-24.051c-.001-10.367-8.435-18.801-18.802-18.801z" fill="#3a312a"/></g></g><g><g><ellipse cx="45.034" cy="209.721" fill="#d7e057" rx="9.516" ry="9.516" transform="matrix(.973 -.23 .23 .973 -46.98 15.957)"/></g></g><g><g><path d="m45.034 198.706c-6.074 0-11.016 4.942-11.016 11.016s4.941 11.016 11.016 11.016 11.016-4.941 11.016-11.016c0-6.074-4.942-11.016-11.016-11.016zm0 19.031c-4.42 0-8.016-3.596-8.016-8.016s3.596-8.016 8.016-8.016 8.016 3.596 8.016 8.016c0 4.421-3.596 8.016-8.016 8.016z" fill="#3a312a"/></g></g><g><g><ellipse cx="45.034" cy="151.521" fill="#d7e057" rx="9.516" ry="9.516" transform="matrix(.707 -.707 .707 .707 -93.951 76.223)"/></g></g><g><g><path d="m45.034 140.505c-6.074 0-11.016 4.941-11.016 11.016 0 6.074 4.941 11.016 11.016 11.016s11.016-4.942 11.016-11.016c0-6.075-4.942-11.016-11.016-11.016zm0 19.032c-4.42 0-8.016-3.596-8.016-8.016s3.596-8.016 8.016-8.016 8.016 3.596 8.016 8.016c0 4.419-3.596 8.016-8.016 8.016z" fill="#3a312a"/></g></g><g><g><ellipse cx="210.966" cy="209.721" fill="#d7e057" rx="9.516" ry="9.516" transform="matrix(.698 -.716 .716 .698 -86.471 214.283)"/></g></g><g><g><path d="m210.966 198.706c-6.074 0-11.016 4.942-11.016 11.016s4.942 11.016 11.016 11.016 11.016-4.941 11.016-11.016c0-6.074-4.942-11.016-11.016-11.016zm0 19.031c-4.42 0-8.016-3.596-8.016-8.016s3.596-8.016 8.016-8.016 8.016 3.596 8.016 8.016c0 4.421-3.596 8.016-8.016 8.016z" fill="#3a312a"/></g></g><g><g><ellipse cx="210.966" cy="151.521" fill="#d7e057" rx="9.516" ry="9.516" transform="matrix(.972 -.237 .237 .972 -29.919 54.364)"/></g></g><g><g><path d="m210.966 140.505c-6.074 0-11.016 4.941-11.016 11.016 0 6.074 4.942 11.016 11.016 11.016s11.016-4.942 11.016-11.016c0-6.075-4.942-11.016-11.016-11.016zm0 19.032c-4.42 0-8.016-3.596-8.016-8.016s3.596-8.016 8.016-8.016 8.016 3.596 8.016 8.016c0 4.419-3.596 8.016-8.016 8.016z" fill="#3a312a"/></g></g><g><g><path d="m222.14 123.689h-16.31c8.71 0 15.8 7.09 15.8 15.81v9.27c.23.88.35 1.8.35 2.75s-.12 1.87-.35 2.75v9.28c0 8.71-7.09 15.8-15.8 15.8h16.31c8.71 0 15.8-7.09 15.8-15.8v-24.05c0-8.72-7.09-15.81-15.8-15.81z" fill="#695b51"/></g></g><g><g><path d="m222.14 182.35h-16.31c8.71 0 15.8 7.09 15.8 15.8v8.82c.23.88.35 1.8.35 2.75s-.12 1.87-.35 2.75v9.73c0 8.71-7.09 15.8-15.8 15.8h16.31c8.71 0 15.8-7.09 15.8-15.8v-24.05c0-8.711-7.09-15.8-15.8-15.8z" fill="#695b51"/></g></g></g></svg>