<svg id="Layer_1" enable-background="new 0 0 256 256" height="512" viewBox="0 0 256 256" width="512" xmlns="http://www.w3.org/2000/svg"><g><g><g><path d="m127.956 104.524c-58.197 0-105.375 35.716-105.375 79.775h210.75c0-44.059-47.177-79.775-105.375-79.775z" fill="#d7e057"/></g></g><g><g><path d="m127.956 103.024c-58.931 0-106.875 36.46-106.875 81.274 0 .829.672 1.5 1.5 1.5h210.75c.828 0 1.5-.671 1.5-1.5 0-44.815-47.944-81.274-106.875-81.274zm-103.856 79.774c1.063-42.472 47.244-76.774 103.856-76.774s102.793 34.302 103.856 76.774z" fill="#3a312a"/></g></g><g><g><path d="m64.117 34.456c-.974 11.564-13.024 13.39-13.024 13.39 10.347.487 12.925 14.059 12.925 14.059.221-9.677 13.321-14.202 13.321-14.202-9.813-.587-13.222-13.247-13.222-13.247z" fill="#d7e057"/></g></g><g><g><path d="m77.43 46.205c-8.605-.514-11.833-12.024-11.864-12.14-.19-.702-.847-1.16-1.584-1.102-.725.066-1.298.642-1.359 1.367-.86 10.215-11.313 11.964-11.755 12.033-.763.115-1.313.79-1.273 1.56s.657 1.384 1.428 1.421c9.028.425 11.499 12.718 11.522 12.842.138.711.76 1.217 1.473 1.217.042 0 .084-.002.126-.005.765-.064 1.357-.693 1.375-1.459.193-8.509 12.191-12.777 12.313-12.819.676-.235 1.092-.914.994-1.622-.099-.709-.682-1.25-1.396-1.293zm-13.567 10.346c-1.356-3.13-3.709-6.907-7.588-8.876 2.932-1.405 6.409-3.913 8.202-8.273 1.551 3.071 4.2 6.88 8.335 8.722-3.007 1.64-6.922 4.406-8.949 8.427z" fill="#3a312a"/></g></g><g><g><path d="m42.419 51.437c-.689 8.179-9.213 9.47-9.213 9.47 7.318.344 9.142 9.944 9.142 9.944.156-6.844 9.422-10.045 9.422-10.045-6.94-.415-9.351-9.369-9.351-9.369z" fill="#d7e057"/></g></g><g><g><path d="m51.86 59.309c-5.766-.345-7.972-8.186-7.994-8.265-.189-.702-.855-1.162-1.581-1.102-.726.065-1.3.643-1.361 1.368-.578 6.871-7.646 8.067-7.942 8.114-.763.115-1.313.79-1.273 1.561.04.77.657 1.384 1.428 1.421 6.035.284 7.724 8.643 7.739 8.725.136.712.759 1.22 1.473 1.22.041 0 .083-.001.125-.005.765-.063 1.358-.694 1.376-1.461.13-5.709 8.331-8.633 8.412-8.661.676-.234 1.093-.913.996-1.622-.099-.708-.684-1.25-1.398-1.293zm-9.585 6.795c-.924-1.886-2.34-3.947-4.447-5.28 1.856-1.041 3.698-2.63 4.871-4.916 1.058 1.873 2.654 3.954 4.941 5.223-1.849 1.101-3.989 2.741-5.365 4.973z" fill="#3a312a"/></g></g><g><g><path d="m42.419 24.779c-.689 8.179-9.213 9.471-9.213 9.471 7.318.344 9.142 9.944 9.142 9.944.156-6.844 9.422-10.045 9.422-10.045-6.94-.416-9.351-9.37-9.351-9.37z" fill="#d7e057"/></g></g><g><g><path d="m51.86 32.651c-5.766-.345-7.972-8.186-7.994-8.265-.189-.702-.855-1.161-1.581-1.102-.726.065-1.3.643-1.361 1.368-.578 6.871-7.646 8.067-7.942 8.114-.763.115-1.313.79-1.273 1.56s.657 1.384 1.428 1.421c6.035.284 7.724 8.644 7.739 8.726.136.712.759 1.22 1.473 1.22.041 0 .083-.001.125-.005.765-.064 1.358-.694 1.376-1.461.13-5.709 8.331-8.634 8.412-8.662.676-.234 1.093-.913.996-1.622-.099-.707-.684-1.249-1.398-1.292zm-9.585 6.796c-.924-1.886-2.34-3.947-4.447-5.28 1.856-1.041 3.698-2.63 4.871-4.917 1.058 1.873 2.654 3.954 4.941 5.223-1.849 1.102-3.989 2.741-5.365 4.974z" fill="#3a312a"/></g></g><g><g><path d="m16.56 184.298c0 19.436 15.756 35.192 35.192 35.192h4.531 14.934 133.032c19.436 0 35.192-15.756 35.192-35.192z" fill="#87796f"/></g></g><g><g><path d="m239.44 182.798h-222.88c-.828 0-1.5.671-1.5 1.5 0 20.232 16.46 36.692 36.692 36.692h4.53c.828 0 1.5-.671 1.5-1.5s-.672-1.5-1.5-1.5h-4.53c-18.076 0-32.872-14.307-33.659-32.192h219.814c-.787 17.885-15.583 32.192-33.659 32.192h-133.031c-.828 0-1.5.671-1.5 1.5s.672 1.5 1.5 1.5h133.031c20.232 0 36.692-16.46 36.692-36.692 0-.828-.671-1.5-1.5-1.5z" fill="#3a312a"/></g></g><g><g><path d="m80.807 219.49h94.387v11.73h-94.387z" fill="#87796f"/></g></g><g><g><path d="m175.193 217.99h-94.386c-.828 0-1.5.671-1.5 1.5v11.731c0 .829.672 1.5 1.5 1.5h94.387c.828 0 1.5-.671 1.5-1.5v-11.731c-.001-.828-.673-1.5-1.501-1.5zm-1.5 11.731h-91.386v-8.731h91.387v8.731z" fill="#3a312a"/></g></g><g><g><path d="m223.46 185.8c-.79 17.88-15.58 32.19-33.66 32.19h14.45c18.07 0 32.87-14.31 33.66-32.19z" fill="#695b51"/></g></g><g><g><ellipse cx="49.432" cy="158.323" fill="#ef6d7a" rx="25.975" ry="25.975" transform="matrix(.957 -.29 .29 .957 -43.759 21.118)"/></g></g><g><g><path d="m49.432 130.848c-15.15 0-27.476 12.325-27.476 27.475s12.325 27.475 27.476 27.475c15.149 0 27.475-12.325 27.475-27.475s-12.326-27.475-27.475-27.475zm0 51.95c-13.496 0-24.476-10.979-24.476-24.475s10.979-24.475 24.476-24.475c13.495 0 24.475 10.979 24.475 24.475s-10.98 24.475-24.475 24.475z" fill="#3a312a"/></g></g><g><g><ellipse cx="101.781" cy="158.104" fill="#ef6d7a" rx="25.975" ry="25.975" transform="matrix(.982 -.189 .189 .982 -28.062 22.1)"/></g></g><g><g><path d="m101.781 130.628c-15.149 0-27.475 12.325-27.475 27.475s12.325 27.476 27.475 27.476 27.476-12.326 27.476-27.476c0-15.149-12.325-27.475-27.476-27.475zm0 51.951c-13.495 0-24.475-10.979-24.475-24.476 0-13.496 10.979-24.475 24.475-24.475s24.476 10.98 24.476 24.475c0 13.497-10.98 24.476-24.476 24.476z" fill="#3a312a"/></g></g><g><g><circle cx="154.131" cy="157.884" fill="#ef6d7a" r="25.975"/></g></g><g><g><path d="m154.132 130.409c-15.15 0-27.476 12.325-27.476 27.475s12.325 27.475 27.476 27.475c15.149 0 27.475-12.325 27.475-27.475s-12.326-27.475-27.475-27.475zm0 51.95c-13.496 0-24.476-10.979-24.476-24.475s10.979-24.475 24.476-24.475c13.495 0 24.475 10.979 24.475 24.475s-10.98 24.475-24.475 24.475z" fill="#3a312a"/></g></g><g><g><ellipse cx="206.481" cy="157.665" fill="#ef6d7a" rx="25.975" ry="25.975" transform="matrix(.973 -.23 .23 .973 -30.7 51.657)"/></g></g><g><g><path d="m206.481 130.19c-15.15 0-27.476 12.325-27.476 27.475s12.325 27.475 27.476 27.475c15.149 0 27.475-12.325 27.475-27.475s-12.325-27.475-27.475-27.475zm0 51.95c-13.496 0-24.476-10.979-24.476-24.475s10.979-24.475 24.476-24.475c13.495 0 24.475 10.979 24.475 24.475 0 13.495-10.979 24.475-24.475 24.475z" fill="#3a312a"/></g></g><g><g><path d="m218.804 89.582c.165-1.219.258-2.461.258-3.725 0-15.218-12.337-27.556-27.556-27.556-4.415 0-8.583 1.044-12.283 2.89-4.222-9.803-13.966-16.667-25.317-16.667-11.247 0-20.914 6.741-25.197 16.401-3.858-1.949-8.231-3.024-12.866-2.947-12.941.213-24.195 9.752-26.613 22.467-.599 3.152-.611 6.21-.182 9.127-11.89 3.055-20.677 13.846-20.677 26.69 0 .079 0 .158.001.237.094 11.056 9.396 19.836 20.453 19.836h1.599c6.805 0 12.321 5.516 12.321 12.321v1.102 14.531.947c0 9.271 7.516 16.787 16.787 16.787s16.787-7.516 16.787-16.787v-10.516c0-10.155 8.232-18.386 18.386-18.386s18.386 8.231 18.386 18.386v1.331c0 9.271 7.516 16.787 16.787 16.787s16.787-7.516 16.787-16.787v-7.396c0-6.805 5.516-12.321 12.321-12.321 11.057 0 20.359-8.78 20.453-19.836.001-.079.001-.158.001-.237 0-12.829-8.767-23.609-20.636-26.679z" fill="#fce8cb"/></g></g><g><g><path d="m220.438 88.485c.082-.889.123-1.769.123-2.628 0-16.021-13.035-29.056-29.057-29.056-4.023 0-7.901.804-11.553 2.394-4.884-9.874-14.945-16.172-26.047-16.172-10.968 0-20.976 6.194-25.909 15.907-3.816-1.677-8.011-2.52-12.178-2.453-13.694.226-25.495 10.188-28.062 23.687-.521 2.735-.64 5.525-.356 8.313-12.152 3.717-20.529 14.958-20.529 27.785l.001.25c.1 11.758 9.948 21.324 21.953 21.324h1.599c5.967 0 10.821 4.854 10.821 10.821v1.102c0 .829.672 1.5 1.5 1.5s1.5-.671 1.5-1.5v-1.102c0-7.621-6.2-13.821-13.821-13.821h-1.599c-10.365 0-18.867-8.232-18.953-18.355l-.001-.219c0-11.901 8.039-22.279 19.55-25.237.743-.191 1.223-.912 1.111-1.671-.425-2.891-.367-5.794.172-8.628 2.302-12.109 12.885-21.045 25.163-21.247 4.276-.093 8.365.867 12.166 2.786.364.185.792.212 1.18.074s.701-.429.867-.805c4.178-9.421 13.529-15.509 23.825-15.509 10.419 0 19.816 6.187 23.939 15.76.163.379.476.674.862.815.389.142.815.117 1.186-.066 3.633-1.813 7.54-2.731 11.612-2.731 14.368 0 26.057 11.688 26.057 26.056 0 1.141-.082 2.327-.244 3.523-.103.753.375 1.463 1.11 1.653 11.489 2.972 19.513 13.345 19.513 25.227l-.001.225c-.086 10.118-8.588 18.349-18.953 18.349-7.621 0-13.821 6.2-13.821 13.821v7.396c0 8.429-6.857 15.287-15.287 15.287s-15.287-6.858-15.287-15.287v-1.331c0-10.965-8.921-19.886-19.886-19.886s-19.886 8.921-19.886 19.886v10.516c0 8.43-6.857 15.288-15.287 15.288s-15.287-6.858-15.287-15.288v-.947c0-.829-.672-1.5-1.5-1.5s-1.5.671-1.5 1.5v.947c0 10.084 8.203 18.288 18.287 18.288s18.287-8.204 18.287-18.288v-10.516c0-9.311 7.575-16.886 16.886-16.886s16.886 7.575 16.886 16.886v1.331c0 10.083 8.203 18.287 18.287 18.287s18.287-8.204 18.287-18.287v-7.396c0-5.967 4.854-10.821 10.821-10.821 12.005 0 21.854-9.566 21.953-21.336l.001-.237c.001-12.813-8.365-24.052-20.501-27.778z" fill="#3a312a"/></g></g><g><g><circle cx="156.871" cy="60.774" fill="#d7e057" r="6.75"/></g></g><g><g><path d="m156.871 52.524c-4.549 0-8.25 3.701-8.25 8.25s3.701 8.25 8.25 8.25 8.25-3.701 8.25-8.25-3.701-8.25-8.25-8.25zm0 13.5c-2.895 0-5.25-2.355-5.25-5.25s2.355-5.25 5.25-5.25 5.25 2.355 5.25 5.25-2.355 5.25-5.25 5.25z" fill="#3a312a"/></g></g><g><g><circle cx="126.871" cy="119.774" fill="#d7e057" r="6.75"/></g></g><g><g><path d="m126.871 111.524c-4.549 0-8.25 3.701-8.25 8.25s3.701 8.25 8.25 8.25 8.25-3.701 8.25-8.25-3.701-8.25-8.25-8.25zm0 13.5c-2.895 0-5.25-2.355-5.25-5.25s2.355-5.25 5.25-5.25 5.25 2.355 5.25 5.25-2.355 5.25-5.25 5.25z" fill="#3a312a"/></g></g><g><g><circle cx="84.871" cy="112.774" fill="#d7e057" r="6.75"/></g></g><g><g><path d="m84.871 104.524c-4.549 0-8.25 3.701-8.25 8.25s3.701 8.25 8.25 8.25 8.25-3.701 8.25-8.25-3.701-8.25-8.25-8.25zm0 13.5c-2.895 0-5.25-2.355-5.25-5.25s2.355-5.25 5.25-5.25 5.25 2.355 5.25 5.25-2.355 5.25-5.25 5.25z" fill="#3a312a"/></g></g><g><g><circle cx="191.871" cy="113.774" fill="#d7e057" r="6.75"/></g></g><g><g><path d="m191.871 105.524c-4.549 0-8.25 3.701-8.25 8.25s3.701 8.25 8.25 8.25 8.25-3.701 8.25-8.25-3.701-8.25-8.25-8.25zm0 13.5c-2.895 0-5.25-2.355-5.25-5.25s2.355-5.25 5.25-5.25 5.25 2.355 5.25 5.25-2.355 5.25-5.25 5.25z" fill="#3a312a"/></g></g><g><g><circle cx="198.871" cy="79.774" fill="#d7e057" r="6.75"/></g></g><g><g><path d="m198.871 71.524c-4.549 0-8.25 3.701-8.25 8.25s3.701 8.25 8.25 8.25 8.25-3.701 8.25-8.25-3.701-8.25-8.25-8.25zm0 13.5c-2.895 0-5.25-2.355-5.25-5.25s2.355-5.25 5.25-5.25 5.25 2.355 5.25 5.25-2.355 5.25-5.25 5.25z" fill="#3a312a"/></g></g><g><g><circle cx="156.871" cy="92.774" fill="#d7e057" r="6.75"/></g></g><g><g><path d="m156.871 84.524c-4.549 0-8.25 3.701-8.25 8.25s3.701 8.25 8.25 8.25 8.25-3.701 8.25-8.25-3.701-8.25-8.25-8.25zm0 13.5c-2.895 0-5.25-2.355-5.25-5.25s2.355-5.25 5.25-5.25 5.25 2.355 5.25 5.25-2.355 5.25-5.25 5.25z" fill="#3a312a"/></g></g><g><g><circle cx="112.871" cy="79.774" fill="#d7e057" r="6.75"/></g></g><g><g><path d="m112.871 71.524c-4.549 0-8.25 3.701-8.25 8.25s3.701 8.25 8.25 8.25 8.25-3.701 8.25-8.25-3.701-8.25-8.25-8.25zm0 13.5c-2.895 0-5.25-2.355-5.25-5.25s2.355-5.25 5.25-5.25 5.25 2.355 5.25 5.25-2.355 5.25-5.25 5.25z" fill="#3a312a"/></g></g></g></svg>