<svg id="Layer_1" enable-background="new 0 0 256 256" height="512" viewBox="0 0 256 256" width="512" xmlns="http://www.w3.org/2000/svg"><g><g><g><path d="m171.54 45.636-19.38-11.189-12.598-7.274-16.1-9.296c-5.982-3.454-13.46.863-13.46 7.771v55.517c0 6.908 7.478 11.225 13.46 7.771l48.079-27.758c5.981-3.453 5.981-12.088-.001-15.542z" fill="#d6df58"/></g></g><g><g><path d="m172.29 44.337-19.381-11.189c-.717-.415-1.635-.169-2.049.549-.414.717-.169 1.635.549 2.049l19.381 11.19c2.34 1.351 3.736 3.77 3.736 6.472.001 2.702-1.396 5.122-3.736 6.473l-48.08 27.758c-2.34 1.351-5.133 1.351-7.473 0s-3.737-3.771-3.737-6.472v-55.518c0-2.702 1.397-5.121 3.737-6.472 2.34-1.352 5.133-1.351 7.473 0l16.101 9.296c.717.414 1.635.169 2.049-.549.414-.717.169-1.635-.549-2.049l-16.101-9.296c-3.278-1.894-7.192-1.894-10.473 0-3.279 1.893-5.237 5.284-5.237 9.07v55.517c0 3.787 1.958 7.177 5.237 9.07 1.64.947 3.438 1.42 5.236 1.42s3.597-.474 5.236-1.421l48.08-27.758c3.279-1.893 5.237-5.284 5.236-9.071.001-3.785-1.956-7.176-5.235-9.069z" fill="#3a312a"/></g></g><g><g><path d="m187.758 64h-55.517c-6.908 0-11.225 7.478-7.771 13.461l27.758 48.079c3.454 5.982 12.089 5.982 15.543 0l27.759-48.08c3.454-5.982-.864-13.46-7.772-13.46z" fill="#d6df58"/></g></g><g><g><path d="m196.828 67.736c-1.893-3.279-5.283-5.236-9.069-5.236h-55.518c-3.786 0-7.177 1.957-9.069 5.236-1.894 3.279-1.895 7.195-.001 10.474l27.759 48.079c1.893 3.279 5.284 5.237 9.07 5.237s7.177-1.958 9.07-5.237l27.759-48.079c1.894-3.279 1.893-7.194-.001-10.474zm-2.597 8.974-27.759 48.079c-1.352 2.34-3.771 3.737-6.473 3.737s-5.121-1.397-6.473-3.737l-27.757-48.079c-1.351-2.34-1.351-5.134.001-7.474 1.351-2.339 3.77-3.736 6.472-3.736h55.518c2.701 0 5.121 1.397 6.472 3.736 1.35 2.341 1.35 5.135-.001 7.474z" fill="#3a312a"/></g></g><g><g><path d="m121.928 93.394-15.97-53.17c-1.987-6.616-10.391-8.6-15.127-3.571l-38.062 40.415c-4.736 5.029-2.252 13.299 4.471 14.886l54.032 12.755c6.723 1.587 12.643-4.699 10.656-11.315z" fill="#d6df58"/></g></g><g><g><path d="m123.364 92.962-15.969-53.17c-1.089-3.626-3.939-6.311-7.625-7.181-3.687-.873-7.435.256-10.03 3.013l-38.062 40.416c-2.596 2.756-3.496 6.567-2.406 10.193 1.089 3.626 3.939 6.311 7.624 7.181l54.032 12.755c.819.193 1.643.288 2.455.288 2.841 0 5.557-1.158 7.575-3.301 2.596-2.757 3.496-6.567 2.406-10.194zm-4.59 8.137c-1.854 1.967-4.528 2.771-7.157 2.15l-54.032-12.755c-2.63-.621-4.663-2.536-5.441-5.124-.777-2.587-.136-5.307 1.717-7.273l38.063-40.416c1.44-1.529 3.378-2.355 5.405-2.355.58 0 1.167.068 1.752.206 2.63.621 4.664 2.537 5.441 5.125l15.969 53.17c.778 2.586.136 5.305-1.717 7.272z" fill="#3a312a"/></g></g><g><g><path d="m95.53 135.54-27.759-48.08c-3.454-5.982-12.089-5.982-15.543 0l-27.758 48.08c-3.454 5.982.863 13.46 7.771 13.46h55.517c6.908 0 11.226-7.478 7.772-13.46z" fill="#d6df58"/></g></g><g><g><path d="m96.829 134.79-27.759-48.08c-1.894-3.279-5.284-5.237-9.07-5.237s-7.177 1.958-9.07 5.237l-27.759 48.08c-1.894 3.279-1.893 7.195.001 10.474 1.893 3.279 5.283 5.236 9.069 5.236h55.518c3.786 0 7.177-1.958 9.069-5.236 1.894-3.28 1.895-7.195.001-10.474zm-2.599 8.974c-1.351 2.339-3.77 3.736-6.472 3.736h-55.517c-2.701 0-5.121-1.397-6.472-3.736-1.351-2.34-1.351-5.134-.001-7.474l27.759-48.08c1.352-2.34 3.771-3.737 6.473-3.737s5.121 1.397 6.473 3.737l27.759 48.079c1.35 2.34 1.35 5.134-.002 7.475z" fill="#3a312a"/></g></g><g><g><path d="m125.342 81.667-53.625 14.369c-6.673 1.788-8.907 10.129-4.023 15.013l39.256 39.256c4.885 4.885 13.225 2.65 15.013-4.023l14.369-53.625c1.788-6.672-4.317-12.777-10.99-10.99z" fill="#d6df58"/></g></g><g><g><path d="m135.07 82.929c-2.678-2.676-6.454-3.689-10.117-2.71l-53.625 14.368c-3.657.98-6.426 3.748-7.405 7.406-.98 3.657.033 7.439 2.711 10.116l39.256 39.256c2.005 2.005 4.63 3.078 7.358 3.078.914 0 1.841-.121 2.759-.367 3.657-.98 6.426-3.749 7.406-7.406l14.369-53.626c.98-3.656-.034-7.438-2.712-10.115zm-.186 9.341-14.369 53.626c-.699 2.61-2.675 4.585-5.284 5.285s-5.309-.024-7.22-1.935l-39.256-39.256c-1.91-1.911-2.634-4.609-1.935-7.219s2.675-4.585 5.285-5.285l53.625-14.369c2.61-.697 5.309.024 7.219 1.934s2.634 4.609 1.935 7.219z" fill="#3a312a"/></g></g><g><g><path d="m227.283 100.036-53.625-14.369c-6.672-1.788-12.778 4.318-10.99 10.99l14.369 53.625c1.788 6.673 10.128 8.907 15.013 4.023l39.256-39.256c4.884-4.884 2.65-13.225-4.023-15.013z" fill="#d6df58"/></g></g><g><g><path d="m235.077 105.994c-.979-3.658-3.748-6.426-7.405-7.406l-53.625-14.369c-3.661-.98-7.441.033-10.117 2.71-2.678 2.678-3.691 6.459-2.712 10.117l14.369 53.626c.98 3.657 3.749 6.426 7.406 7.406.919.246 1.844.367 2.759.367 2.728 0 5.354-1.072 7.358-3.078l39.256-39.256c2.678-2.678 3.692-6.46 2.711-10.117zm-4.832 7.995-39.256 39.256c-1.911 1.911-4.607 2.633-7.22 1.935-2.609-.7-4.585-2.675-5.284-5.285l-14.369-53.625c-.699-2.61.024-5.309 1.935-7.219 1.909-1.91 4.61-2.632 7.219-1.934l53.625 14.369c2.61.7 4.586 2.675 5.285 5.285.699 2.608-.025 5.307-1.935 7.218z" fill="#3a312a"/></g></g><g><g><path d="m181.283 108.036-53.625-14.369c-6.673-1.788-12.778 4.318-10.99 10.99l14.369 53.625c1.788 6.673 10.128 8.907 15.013 4.023l39.256-39.256c4.884-4.884 2.65-13.225-4.023-15.013z" fill="#d6df58"/></g></g><g><g><path d="m189.077 113.994c-.979-3.658-3.748-6.426-7.405-7.406l-53.625-14.369c-3.661-.981-7.441.033-10.117 2.71-2.678 2.678-3.691 6.459-2.712 10.117l14.369 53.626c.98 3.657 3.749 6.426 7.406 7.406.919.246 1.844.367 2.759.367 2.728 0 5.354-1.072 7.358-3.078l39.256-39.256c2.678-2.678 3.692-6.46 2.711-10.117zm-4.832 7.995-39.256 39.256c-1.911 1.911-4.608 2.632-7.22 1.935-2.609-.7-4.585-2.675-5.284-5.285l-14.369-53.626c-.699-2.61.024-5.309 1.935-7.219 1.91-1.91 4.611-2.633 7.219-1.934l53.625 14.369c2.61.7 4.586 2.675 5.285 5.285.699 2.609-.025 5.308-1.935 7.219z" fill="#3a312a"/></g></g><g><g><path d="m47.411 26.084c-.974 11.564-13.024 13.389-13.024 13.389 10.347.487 12.925 14.059 12.925 14.059.221-9.677 13.321-14.202 13.321-14.202-9.814-.586-13.222-13.246-13.222-13.246z" fill="#d7e057"/></g></g><g><g><path d="m60.723 37.833c-8.604-.514-11.832-12.024-11.863-12.14-.19-.702-.854-1.16-1.584-1.102-.725.066-1.298.642-1.359 1.367-.859 10.215-11.313 11.964-11.754 12.033-.763.115-1.313.79-1.273 1.561.04.77.657 1.384 1.428 1.421 9.027.425 11.498 12.718 11.521 12.842.138.711.76 1.217 1.473 1.217.042 0 .084-.001.126-.005.764-.064 1.357-.693 1.375-1.459.194-8.509 12.191-12.777 12.313-12.819.676-.235 1.092-.915.994-1.623-.101-.709-.684-1.25-1.397-1.293zm-13.567 10.346c-1.356-3.13-3.708-6.907-7.586-8.876 2.931-1.405 6.408-3.913 8.201-8.272 1.551 3.071 4.2 6.88 8.334 8.722-3.006 1.639-6.922 4.405-8.949 8.426z" fill="#3a312a"/></g></g><g><g><path d="m25.713 43.065c-.689 8.179-9.213 9.471-9.213 9.471 7.318.344 9.142 9.944 9.142 9.944.156-6.844 9.422-10.045 9.422-10.045-6.941-.416-9.351-9.37-9.351-9.37z" fill="#d7e057"/></g></g><g><g><path d="m35.154 50.937c-5.767-.345-7.972-8.186-7.993-8.265-.19-.702-.863-1.162-1.582-1.102-.726.065-1.3.642-1.361 1.368-.579 6.871-7.646 8.067-7.942 8.114-.763.115-1.314.79-1.273 1.561.04.77.657 1.384 1.428 1.421 6.035.284 7.724 8.644 7.739 8.726.136.712.759 1.22 1.473 1.22.041 0 .083-.001.125-.005.765-.064 1.358-.694 1.376-1.461.13-5.709 8.331-8.633 8.412-8.661.676-.234 1.093-.913.996-1.622-.099-.71-.684-1.251-1.398-1.294zm-9.585 6.795c-.924-1.886-2.34-3.947-4.447-5.28 1.855-1.041 3.697-2.63 4.871-4.917 1.057 1.874 2.654 3.955 4.941 5.224-1.849 1.101-3.989 2.741-5.365 4.973z" fill="#3a312a"/></g></g><g><g><path d="m25.713 16.407c-.689 8.179-9.213 9.471-9.213 9.471 7.318.344 9.142 9.944 9.142 9.944.156-6.845 9.422-10.045 9.422-10.045-6.941-.416-9.351-9.37-9.351-9.37z" fill="#d7e057"/></g></g><g><g><path d="m35.154 24.279c-5.767-.345-7.972-8.186-7.993-8.265-.19-.702-.863-1.161-1.582-1.102-.726.065-1.3.642-1.361 1.368-.579 6.871-7.646 8.067-7.942 8.114-.763.115-1.314.79-1.273 1.561.04.77.657 1.384 1.428 1.421 6.035.284 7.724 8.644 7.739 8.726.136.712.759 1.22 1.473 1.22.041 0 .083-.001.125-.005.765-.064 1.358-.694 1.376-1.461.13-5.709 8.331-8.634 8.412-8.662.676-.234 1.093-.913.996-1.622-.099-.708-.684-1.25-1.398-1.293zm-9.585 6.796c-.924-1.886-2.34-3.947-4.447-5.28 1.855-1.042 3.697-2.63 4.871-4.917 1.057 1.874 2.654 3.954 4.941 5.224-1.849 1.101-3.989 2.74-5.365 4.973z" fill="#3a312a"/></g></g><g><g><path d="m230.411 151.731h-204.822c0 .086-.004.17-.004.256 0 47.205 45.853 85.473 102.415 85.473s102.415-38.268 102.415-85.473c0-.086-.004-.171-.004-.256z" fill="#8ac5dc"/></g></g><g><g><path d="m231.911 151.73c0-.829-.672-1.5-1.5-1.5h-204.822c-.828 0-1.502.766-1.502 1.594l-.002.162c0 47.957 46.616 86.973 103.915 86.973s103.915-39.016 103.915-86.973zm-103.911 84.23c-55.108 0-100.041-36.95-100.901-82.729h201.806c-.803 45.731-45.76 82.729-100.905 82.729z" fill="#3a312a"/></g></g><g><g><path d="m230.065 132.565h-87.773-12.361-103.996c-5.292 0-9.583 4.29-9.583 9.583 0 5.292 4.29 9.583 9.583 9.583h204.13c5.292 0 9.583-4.29 9.583-9.583 0-5.293-4.291-9.583-9.583-9.583z" fill="#8ac5dc"/></g></g><g><g><path d="m230.064 131.065h-87.772c-.828 0-1.5.671-1.5 1.5s.672 1.5 1.5 1.5h87.772c4.457 0 8.083 3.626 8.083 8.083s-3.626 8.083-8.083 8.083h-204.129c-4.457 0-8.083-3.626-8.083-8.083s3.626-8.083 8.083-8.083h103.995c.828 0 1.5-.671 1.5-1.5s-.672-1.5-1.5-1.5h-103.995c-6.111 0-11.083 4.972-11.083 11.083s4.972 11.083 11.083 11.083h204.129c6.111 0 11.083-4.972 11.083-11.083.001-6.111-4.971-11.083-11.083-11.083z" fill="#3a312a"/></g></g><g><g><path d="m80.807 227.862h94.387v11.73h-94.387z" fill="#8ac5dc"/></g></g><g><g><path d="m175.193 226.362h-94.386c-.828 0-1.5.671-1.5 1.5v11.73c0 .829.672 1.5 1.5 1.5h94.387c.828 0 1.5-.671 1.5-1.5v-11.73c-.001-.828-.673-1.5-1.501-1.5zm-1.5 11.731h-91.386v-8.73h91.387v8.73z" fill="#3a312a"/></g></g><g><g><path d="m213.9 153.226c-.55 31.74-22.37 59.26-54.09 73.14h15c31.72-13.88 53.54-41.4 54.09-73.14z" fill="#6ca6be"/></g></g><g><g><path d="m230.06 134.066h-15c4.46 0 8.09 3.62 8.09 8.08s-3.63 8.08-8.09 8.08h15c4.46 0 8.09-3.62 8.09-8.08s-3.63-8.08-8.09-8.08z" fill="#6ca6be"/></g></g><g><g><path d="m88.628 226.132-27.758-48.079c-3.454-5.982-12.089-5.982-15.543 0l-27.758 48.079c-3.454 5.982.863 13.46 7.771 13.46h55.517c6.907.001 11.225-7.477 7.771-13.46z" fill="#d6df58"/></g></g><g><g><path d="m89.927 225.382-27.759-48.079c-1.894-3.279-5.284-5.237-9.07-5.237s-7.177 1.957-9.07 5.237l-27.758 48.079c-1.893 3.279-1.893 7.194 0 10.474 1.893 3.279 5.284 5.237 9.07 5.237h55.517c3.786 0 7.178-1.958 9.07-5.237 1.893-3.279 1.893-7.194 0-10.474zm-2.598 8.974c-1.351 2.34-3.771 3.737-6.473 3.737h-55.516c-2.702 0-5.122-1.397-6.473-3.737s-1.351-5.134 0-7.474l27.758-48.079c1.352-2.34 3.77-3.737 6.473-3.737 2.702 0 5.121 1.397 6.473 3.737l27.759 48.079c1.35 2.34 1.35 5.134-.001 7.474z" fill="#3a312a"/></g></g></g></svg>