<svg id="Layer_1" enable-background="new 0 0 256 256" height="512" viewBox="0 0 256 256" width="512" xmlns="http://www.w3.org/2000/svg"><g><g><g><path d="m237.293 30.756-11.971-11.971c-2.943-2.943-7.714-2.943-10.657 0l-17.745 17.746c-2.943 2.943-2.943 7.714 0 10.657l11.971 11.971c2.943 2.943 7.714 2.943 10.657 0l17.745-17.745c2.943-2.944 2.943-7.715 0-10.658z" fill="#87796f"/></g></g><g><g><path d="m238.354 29.696-11.971-11.972c-3.523-3.523-9.256-3.523-12.778 0l-17.746 17.746c-3.523 3.522-3.523 9.255 0 12.777l11.971 11.971c1.707 1.707 3.976 2.647 6.389 2.647s4.682-.94 6.389-2.647l17.746-17.745c1.707-1.707 2.646-3.976 2.646-6.389s-.94-4.682-2.646-6.388zm-2.122 10.657-17.746 17.745c-1.14 1.141-2.656 1.769-4.268 1.769s-3.128-.628-4.268-1.769l-11.97-11.971c-2.353-2.354-2.353-6.182 0-8.535l17.746-17.746c1.177-1.177 2.722-1.765 4.268-1.765s3.091.589 4.268 1.765l11.971 11.972c1.14 1.14 1.768 2.655 1.768 4.268-.001 1.61-.629 3.126-1.769 4.267z" fill="#3a312a"/></g></g><g><g><path d="m134.337 74.575h80.333v14h-80.333z" fill="#f16c7a" transform="matrix(.707 -.707 .707 .707 -6.571 147.286)"/></g></g><g><g><path d="m208.915 57.063-9.899-9.899c-.586-.586-1.535-.586-2.121 0l-56.804 56.804c-.281.281-.439.663-.439 1.061 0 .397.158.779.439 1.061l9.899 9.899c.293.293.677.44 1.061.44s.768-.147 1.061-.44l56.804-56.804c.281-.281.439-.663.439-1.061s-.158-.78-.44-1.061zm-57.864 55.743-7.778-7.778 54.683-54.683 7.778 7.778z" fill="#3a312a"/></g></g><g><g><path d="m163.407 219.329h-70.814c-11.097 0-20.093 8.996-20.093 20.092h111c0-11.096-8.996-20.092-20.093-20.092z" fill="#8ac5dc"/></g></g><g><g><path d="m163.407 217.829h-70.814c-11.906 0-21.593 9.686-21.593 21.593 0 .828.671 1.5 1.5 1.5h111c.829 0 1.5-.672 1.5-1.5 0-11.906-9.686-21.593-21.593-21.593zm-89.347 20.093c.766-9.554 8.786-17.093 18.533-17.093h70.814c9.747 0 17.767 7.539 18.533 17.093z" fill="#3a312a"/></g></g><g><g><path d="m71.5 151.329-54.5 88.092h42.5l24.5-88.092z" fill="#87796f"/></g></g><g><g><path d="m85.194 150.422c-.284-.374-.726-.593-1.194-.593h-12.5c-.52 0-1.002.269-1.275.711l-54.5 88.093c-.287.463-.3 1.044-.035 1.52.265.475.766.77 1.31.77h42.5c.674 0 1.265-.449 1.445-1.098l24.5-88.093c.126-.453.033-.937-.251-1.31zm-26.834 87.5h-38.668l52.644-85.093h9.69z" fill="#3a312a"/></g></g><g><g><path d="m184.5 151.329h-12.5l12.749 45.842 3.963 14.247 7.788 28.003h42.5z" fill="#87796f"/></g></g><g><g><path d="m240.275 238.633-54.5-88.093c-.273-.442-.756-.711-1.275-.711h-12.5c-.469 0-.911.219-1.194.593-.284.373-.376.857-.251 1.309l12.749 45.842c.222.798 1.051 1.263 1.847 1.043.798-.222 1.265-1.049 1.043-1.848l-12.221-43.939h9.69l52.644 85.093h-38.667l-7.482-26.906c-.222-.798-1.053-1.264-1.847-1.043-.798.222-1.265 1.049-1.044 1.848l7.788 28.004c.181.648.771 1.098 1.445 1.098h42.5c.544 0 1.045-.295 1.31-.77.265-.476.252-1.057-.035-1.52z" fill="#3a312a"/></g></g><g><g><path d="m47.671 26.255c-.974 11.564-13.024 13.39-13.024 13.39 10.346.487 12.925 14.059 12.925 14.059.221-9.677 13.321-14.202 13.321-14.202-9.814-.587-13.222-13.247-13.222-13.247z" fill="#d7e057"/></g></g><g><g><path d="m60.982 38.005c-8.604-.515-11.831-12.025-11.863-12.141-.191-.703-.862-1.17-1.583-1.102-.725.066-1.298.642-1.359 1.367-.86 10.215-11.313 11.963-11.755 12.031-.763.116-1.313.791-1.274 1.561.04.771.657 1.385 1.427 1.421 9.028.426 11.499 12.719 11.523 12.844.137.711.759 1.217 1.472 1.217.042 0 .084-.002.126-.005.764-.064 1.357-.693 1.375-1.46.195-8.509 12.192-12.777 12.313-12.819.675-.234 1.092-.914.994-1.622-.098-.709-.682-1.25-1.396-1.292zm-13.565 10.346c-1.356-3.131-3.709-6.908-7.587-8.877 2.931-1.404 6.409-3.913 8.202-8.272 1.551 3.071 4.199 6.88 8.334 8.723-3.008 1.638-6.923 4.404-8.949 8.426z" fill="#3a312a"/></g></g><g><g><path d="m25.972 43.236c-.689 8.179-9.212 9.471-9.212 9.471 7.318.344 9.142 9.944 9.142 9.944.156-6.845 9.422-10.046 9.422-10.046-6.941-.415-9.352-9.369-9.352-9.369z" fill="#d7e057"/></g></g><g><g><path d="m35.414 51.108c-5.766-.345-7.972-8.185-7.994-8.265-.19-.702-.854-1.172-1.582-1.102-.726.065-1.299.643-1.36 1.368-.579 6.87-7.646 8.066-7.942 8.113-.763.116-1.314.791-1.274 1.561.04.771.657 1.385 1.428 1.421 6.035.284 7.724 8.643 7.739 8.726.135.713.759 1.22 1.472 1.22.042 0 .083-.002.125-.005.765-.063 1.358-.693 1.376-1.461.13-5.708 8.331-8.633 8.412-8.661.677-.234 1.094-.913.996-1.622-.097-.709-.682-1.251-1.396-1.293zm-9.584 6.795c-.924-1.886-2.34-3.947-4.447-5.28 1.856-1.041 3.697-2.629 4.87-4.916 1.057 1.874 2.655 3.955 4.941 5.224-1.85 1.1-3.988 2.74-5.364 4.972z" fill="#3a312a"/></g></g><g><g><path d="m25.972 16.579c-.689 8.179-9.212 9.471-9.212 9.471 7.318.344 9.142 9.944 9.142 9.944.156-6.845 9.422-10.046 9.422-10.046-6.941-.415-9.352-9.369-9.352-9.369z" fill="#d7e057"/></g></g><g><g><path d="m35.414 24.451c-5.767-.346-7.973-8.187-7.994-8.266-.19-.702-.857-1.166-1.582-1.101-.726.065-1.299.643-1.36 1.368-.579 6.871-7.646 8.066-7.942 8.113-.763.116-1.313.791-1.274 1.561.04.771.657 1.385 1.427 1.421 6.036.284 7.724 8.644 7.74 8.726.135.713.759 1.22 1.473 1.22.041 0 .083-.002.125-.005.765-.063 1.358-.693 1.376-1.461.13-5.709 8.331-8.633 8.412-8.661.676-.233 1.094-.913.996-1.622s-.683-1.25-1.397-1.293zm-9.584 6.794c-.924-1.885-2.34-3.947-4.447-5.279 1.856-1.041 3.697-2.63 4.871-4.916 1.057 1.873 2.654 3.954 4.941 5.224-1.851 1.1-3.989 2.739-5.365 4.971z" fill="#3a312a"/></g></g><g><g><path d="m128.974 177.199c-.499-.65-1.473-.655-1.977-.008-3.444 4.422-14.579 19.281-14.579 26.556 0 8.606 6.976 15.582 15.582 15.582s15.582-6.976 15.582-15.582c0-7.185-11.186-22.092-14.608-26.548z" fill="#d7e057"/></g></g><g><g><path d="m130.164 176.286c-.523-.682-1.314-1.074-2.172-1.077-.845-.048-1.65.384-2.178 1.061-4.479 5.75-14.896 19.938-14.896 27.478 0 9.419 7.663 17.082 17.082 17.082s17.082-7.663 17.082-17.082c0-6.646-8.113-18.603-14.918-27.462zm-2.164 41.543c-7.765 0-14.082-6.317-14.082-14.082 0-5.348 7.226-16.564 14.063-25.377 8.965 11.707 14.101 20.948 14.101 25.377 0 7.765-6.317 14.082-14.082 14.082z" fill="#3a312a"/></g></g><g><g><path d="m128.642 191.567c-.329-.428-.971-.431-1.302-.005-2.27 2.914-9.607 12.705-9.607 17.499 0 5.671 4.597 10.268 10.268 10.268s10.268-4.597 10.268-10.268c-.001-4.734-7.372-14.557-9.627-17.494z" fill="#f16c7a"/></g></g><g><g><path d="m129.831 190.652c-.443-.575-1.113-.906-1.837-.908h-.006c-.721 0-1.389.327-1.831.896-2.984 3.83-9.924 13.293-9.924 18.421 0 6.488 5.279 11.768 11.768 11.768s11.768-5.279 11.768-11.768c-.001-4.521-5.405-12.505-9.938-18.409zm-1.831 27.177c-4.834 0-8.768-3.934-8.768-8.768 0-3.29 4.597-10.447 8.753-15.881 5.511 7.274 8.782 13.18 8.782 15.881.001 4.834-3.932 8.768-8.767 8.768z" fill="#3a312a"/></g></g><g><g><path d="m29.84 115.201c3.73 32.225 46.25 57.628 98.16 57.628s94.43-25.402 98.16-57.628z" fill="#8ac6dd"/></g></g><g><g><path d="m227.28 114.203c-.285-.319-.692-.502-1.12-.502h-196.32c-.428 0-.835.183-1.12.502s-.419.745-.37 1.171c1.866 16.116 13.138 31.038 31.74 42.018 18.506 10.922 42.624 16.938 67.91 16.938s49.404-6.016 67.91-16.938c18.603-10.98 29.874-25.901 31.74-42.018.049-.426-.086-.852-.37-1.171zm-99.28 57.126c-49.658 0-91.509-23.859-96.439-54.628h192.878c-4.93 30.769-46.781 54.628-96.439 54.628z" fill="#3a312a"/></g></g><g><g><path d="m228.559 94.257h-201.118c-5.766 0-10.441 4.674-10.441 10.44v.062c0 5.766 4.675 10.441 10.441 10.441h201.118c5.766 0 10.441-4.674 10.441-10.441v-.062c0-5.766-4.675-10.44-10.441-10.44z" fill="#8ac6dd"/></g></g><g><g><path d="m228.559 92.757h-201.118c-6.585 0-11.941 5.356-11.941 12.002 0 6.585 5.356 11.941 11.941 11.941h201.118c6.585 0 11.941-5.356 11.941-12.003 0-6.584-5.356-11.94-11.941-11.94zm0 20.943h-201.118c-4.93 0-8.941-4.011-8.941-9.003 0-4.93 4.011-8.941 8.941-8.941h201.118c4.93 0 8.941 4.011 8.941 9.002 0 4.931-4.011 8.942-8.941 8.942z" fill="#3a312a"/></g></g><g><g><path d="m229.678 72.921h-157.943-14.31-31.103c-5.424 0-9.822 4.397-9.822 9.822v7.678c0 5.333 4.324 9.657 9.657 9.657h2.5c3.779 0 6.843 3.064 6.843 6.843 0 5.799 4.701 10.5 10.5 10.5s10.5-4.701 10.5-10.5v-1.5c0-4.971 4.029-9 9-9s9 4.029 9 9v15.5c0 5.247 4.253 9.5 9.5 9.5s9.5-4.253 9.5-9.5v-8.686c0-6.714 5.443-12.157 12.157-12.157h4c4.331 0 7.843 3.512 7.843 7.843 0 6.351 5.149 11.5 11.5 11.5s11.5-5.149 11.5-11.5v-2c0-5.247 4.253-9.5 9.5-9.5s9.5 4.253 9.5 9.5v15.5c0 4.418 3.582 8 8 8s8-3.582 8-8v-8.686c0-6.99 5.667-12.657 12.657-12.657 6.817 0 12.343 5.526 12.343 12.343 0 5.523 4.477 10 10 10s10-4.477 10-10v-2.843c0-5.247 4.253-9.5 9.5-9.5s9.5-4.253 9.5-9.5v-7.835c0-5.424-4.397-9.822-9.822-9.822z" fill="#fce8cb"/></g></g><g><g><path d="m229.678 71.422h-157.943c-.829 0-1.5.672-1.5 1.5s.671 1.5 1.5 1.5h157.943c4.589 0 8.322 3.732 8.322 8.321v7.835c0 4.411-3.589 8-8 8-6.065 0-11 4.935-11 11v2.844c0 4.687-3.813 8.5-8.5 8.5s-8.5-3.813-8.5-8.5c0-7.634-6.21-13.844-13.843-13.844-7.806 0-14.157 6.351-14.157 14.157v8.687c0 3.584-2.916 6.5-6.5 6.5s-6.5-2.916-6.5-6.5v-15.5c0-6.065-4.935-11-11-11s-11 4.935-11 11v2c0 5.514-4.486 10-10 10s-10-4.486-10-10c0-5.152-4.191-9.344-9.343-9.344h-4c-7.531 0-13.657 6.127-13.657 13.657v8.687c0 4.411-3.589 8-8 8s-8-3.589-8-8v-15.5c0-5.79-4.71-10.5-10.5-10.5s-10.5 4.71-10.5 10.5v1.5c0 4.963-4.038 9-9 9s-9-4.037-9-9c0-4.601-3.743-8.344-8.343-8.344h-2.5c-4.498 0-8.157-3.659-8.157-8.156v-7.679c0-4.589 3.733-8.321 8.322-8.321h31.104c.829 0 1.5-.672 1.5-1.5s-.671-1.5-1.5-1.5h-31.104c-6.243 0-11.322 5.079-11.322 11.321v7.679c0 6.151 5.005 11.156 11.157 11.156h2.5c2.946 0 5.343 2.397 5.343 5.344 0 6.617 5.383 12 12 12s12-5.383 12-12v-1.5c0-4.136 3.364-7.5 7.5-7.5s7.5 3.364 7.5 7.5v15.5c0 6.065 4.935 11 11 11s11-4.935 11-11v-8.687c0-5.876 4.781-10.657 10.657-10.657h4c3.498 0 6.343 2.846 6.343 6.344 0 7.168 5.832 13 13 13 7.169 0 13-5.832 13-13v-2c0-4.411 3.589-8 8-8s8 3.589 8 8v15.5c0 5.238 4.262 9.5 9.5 9.5s9.5-4.262 9.5-9.5v-8.687c0-6.152 5.005-11.157 11.157-11.157 5.979 0 10.843 4.864 10.843 10.844 0 6.341 5.159 11.5 11.5 11.5s11.5-5.159 11.5-11.5v-2.844c0-4.411 3.589-8 8-8 6.065 0 11-4.935 11-11v-7.835c0-6.242-5.079-11.321-11.322-11.321z" fill="#3a312a"/></g></g><g><g><path d="m221.17 116.699c-1.71 4.23-5.84 7.22-10.67 7.22-.97 0-1.91-.12-2.81-.35-9.04 25.87-44.57 45.5-87.19 47.57 2.48.13 4.98.19 7.5.19 49.66 0 91.51-23.86 96.44-54.63z" fill="#6ca6be"/></g></g><g><g><path d="m236.009 99.781c-1.729 1.133-3.792 1.798-6.009 1.798-4.411 0-8 3.589-8 8v2.843c0 .433-.029.858-.075 1.278h6.635c4.93 0 8.941-4.011 8.941-8.94-.001-1.846-.552-3.555-1.492-4.979z" fill="#6ca6be"/></g></g><g><g><path d="m229.68 74.419h-15c4.59 0 8.32 3.74 8.32 8.32v18.35c1.91-1.57 4.34-2.51 7-2.51 4.41 0 8-3.59 8-8v-7.84c0-4.58-3.73-8.32-8.32-8.32z" fill="#dcc8ab"/></g></g></g></svg>