<svg id="Layer_1" enable-background="new 0 0 256 256" height="512" viewBox="0 0 256 256" width="512" xmlns="http://www.w3.org/2000/svg"><g><g><g><circle cx="201.125" cy="79.133" fill="#8ac5dc" r="20.5"/></g></g><g><g><path d="m201.125 57.133c-12.131 0-22 9.869-22 22s9.869 22 22 22 22-9.869 22-22-9.869-22-22-22zm0 41c-10.477 0-19-8.523-19-19s8.523-19 19-19 19 8.523 19 19-8.523 19-19 19z" fill="#3a312a"/></g></g><g><g><path d="m197.196 16.274-6.659 12.496-7.015 13.163-41.353 77.593 15.885 8.466 55.027-103.252z" fill="#87796f"/></g></g><g><g><path d="m213.786 23.417-15.885-8.466c-.35-.186-.76-.227-1.143-.111-.38.116-.699.378-.887.729l-6.659 12.496c-.389.731-.112 1.64.619 2.029.729.389 1.639.113 2.029-.618l5.953-11.172 13.237 7.055-53.616 100.604-13.237-7.055 40.648-76.27c.389-.731.112-1.64-.619-2.029-.729-.39-1.639-.113-2.029.618l-41.353 77.593c-.389.731-.112 1.64.619 2.029l15.885 8.466c.219.117.461.176.705.176.146 0 .294-.021.438-.065.38-.116.699-.378.887-.729l55.027-103.252c.389-.73.113-1.639-.619-2.028z" fill="#3a312a"/></g></g><g><g><path d="m58.786 26.566c-.974 11.564-13.024 13.39-13.024 13.39 10.347.487 12.925 14.059 12.925 14.059.221-9.677 13.321-14.202 13.321-14.202-9.814-.588-13.222-13.247-13.222-13.247z" fill="#d7e057"/></g></g><g><g><path d="m72.098 38.315c-8.605-.515-11.832-12.024-11.864-12.141-.19-.702-.853-1.16-1.584-1.101-.725.066-1.298.642-1.359 1.367-.859 10.215-11.313 11.964-11.754 12.033-.763.115-1.313.79-1.273 1.561.04.77.657 1.384 1.428 1.421 9.027.425 11.498 12.718 11.521 12.842.138.711.76 1.217 1.473 1.217.042 0 .084-.001.126-.005.764-.064 1.357-.693 1.375-1.459.194-8.509 12.191-12.777 12.313-12.819.676-.235 1.092-.914.994-1.623-.099-.709-.683-1.25-1.396-1.293zm-13.567 10.346c-1.356-3.13-3.708-6.907-7.586-8.876 2.931-1.405 6.408-3.913 8.201-8.272 1.551 3.071 4.2 6.88 8.334 8.722-3.006 1.639-6.922 4.405-8.949 8.426z" fill="#3a312a"/></g></g><g><g><path d="m37.088 43.546c-.689 8.179-9.213 9.471-9.213 9.471 7.318.344 9.142 9.944 9.142 9.944.156-6.845 9.422-10.045 9.422-10.045-6.941-.416-9.351-9.37-9.351-9.37z" fill="#d7e057"/></g></g><g><g><path d="m46.529 51.418c-5.767-.345-7.972-8.186-7.993-8.265-.19-.702-.862-1.162-1.582-1.102-.726.065-1.3.642-1.361 1.368-.579 6.871-7.646 8.067-7.942 8.114-.763.115-1.313.79-1.273 1.561.04.77.657 1.384 1.428 1.421 6.035.284 7.724 8.644 7.739 8.726.136.713.759 1.22 1.473 1.22.041 0 .083-.001.125-.005.765-.063 1.358-.694 1.376-1.461.13-5.71 8.331-8.634 8.412-8.662.676-.234 1.093-.913.996-1.622-.099-.708-.684-1.25-1.398-1.293zm-9.585 6.795c-.924-1.885-2.34-3.947-4.447-5.28 1.855-1.041 3.697-2.63 4.871-4.917 1.057 1.874 2.654 3.955 4.941 5.224-1.849 1.102-3.989 2.741-5.365 4.973z" fill="#3a312a"/></g></g><g><g><path d="m37.088 16.889c-.689 8.179-9.213 9.471-9.213 9.471 7.318.344 9.142 9.944 9.142 9.944.156-6.844 9.422-10.045 9.422-10.045-6.941-.416-9.351-9.37-9.351-9.37z" fill="#d7e057"/></g></g><g><g><path d="m46.529 24.761c-5.767-.345-7.972-8.186-7.993-8.265-.19-.702-.862-1.161-1.582-1.102-.726.066-1.3.642-1.361 1.368-.579 6.871-7.646 8.067-7.942 8.114-.763.115-1.313.79-1.273 1.561.04.77.657 1.384 1.428 1.421 6.035.284 7.724 8.644 7.739 8.726.136.712.759 1.22 1.473 1.22.041 0 .083-.001.125-.005.765-.063 1.358-.694 1.376-1.461.13-5.709 8.331-8.634 8.412-8.662.676-.234 1.093-.913.996-1.622-.099-.709-.684-1.25-1.398-1.293zm-9.585 6.795c-.924-1.886-2.34-3.947-4.447-5.28 1.855-1.042 3.697-2.63 4.871-4.917 1.057 1.874 2.654 3.954 4.941 5.224-1.849 1.101-3.989 2.74-5.365 4.973z" fill="#3a312a"/></g></g><g><g><path d="m174.533 219.633h-70.815c-11.097 0-20.093 8.996-20.093 20.092h111c0-11.096-8.996-20.092-20.092-20.092z" fill="#8ac5dc"/></g></g><g><g><path d="m174.532 218.133h-70.814c-11.906 0-21.593 9.686-21.593 21.592 0 .829.672 1.5 1.5 1.5h27.05c.828 0 1.5-.671 1.5-1.5s-.672-1.5-1.5-1.5h-25.49c.767-9.553 8.786-17.092 18.533-17.092h70.814c9.747 0 17.767 7.539 18.533 17.092h-68.488c-.828 0-1.5.671-1.5 1.5s.672 1.5 1.5 1.5h70.048c.828 0 1.5-.671 1.5-1.5 0-11.906-9.686-21.592-21.593-21.592z" fill="#3a312a"/></g></g><g><g><path d="m136.662 20.062c2.952 16.117-22.119 10.852-22.717 26.61h50.516c-.932-11.996-29.939-38.305-27.799-26.61z" fill="#d7e057"/></g></g><g><g><path d="m140.747 16.299c-1.982-.866-3.521-.883-4.573-.049-1.005.796-1.337 2.169-.987 4.082 1.244 6.791-2.872 8.997-9.691 12.035-5.964 2.657-12.724 5.668-13.049 14.249-.016.407.136.803.418 1.097.283.294.674.46 1.081.46h50.516c.418 0 .817-.174 1.101-.482.284-.307.428-.718.395-1.135-.772-9.925-17.773-27.011-25.211-30.257zm-25.142 28.873c.968-5.546 5.906-7.746 11.11-10.065 6.166-2.747 13.154-5.86 11.422-15.316-.121-.661-.093-1.008-.063-1.163.434-.025 1.823.341 4.465 2.159 7.108 4.896 18.161 16.933 20.138 24.384h-47.072z" fill="#3a312a"/></g></g><g><g><path d="m177.32 68.414h-76.389c-7.059 0-12.781 5.723-12.781 12.782v8.96h101.952v-8.96c-.001-7.06-5.724-12.782-12.782-12.782z" fill="#d7e057"/></g></g><g><g><path d="m177.319 66.914h-76.389c-7.875 0-14.281 6.407-14.281 14.281v8.96c0 .829.672 1.5 1.5 1.5h101.951c.828 0 1.5-.671 1.5-1.5v-8.96c.001-7.875-6.406-14.281-14.281-14.281zm11.282 21.741h-98.952v-7.46c0-6.221 5.061-11.281 11.281-11.281h76.389c6.221 0 11.281 5.061 11.281 11.282v7.459z" fill="#3a312a"/></g></g><g><g><path d="m164.799 46.672h-51.348c-7.059 0-12.781 5.723-12.781 12.781v8.96h76.911v-8.96c0-7.058-5.723-12.781-12.782-12.781z" fill="#d7e057"/></g></g><g><g><path d="m164.799 45.172h-51.348c-7.875 0-14.282 6.407-14.282 14.281v8.96c0 .829.672 1.5 1.5 1.5h76.911c.828 0 1.5-.671 1.5-1.5v-8.96c0-7.874-6.406-14.281-14.281-14.281zm11.281 21.742h-73.911v-7.46c0-6.221 5.062-11.281 11.282-11.281h51.348c6.221 0 11.281 5.06 11.281 11.281z" fill="#3a312a"/></g></g><g><g><path d="m83.579 56.026c-13.366 0-24.201 5.196-24.201 21.919s10.835 38.188 24.201 38.188 24.201-21.465 24.201-38.188c0-16.722-10.835-21.919-24.201-21.919z" fill="#f16c7a"/></g></g><g><g><path d="m83.579 54.526c-16.813 0-25.701 8.098-25.701 23.419 0 8.581 2.727 18.347 7.295 26.124 5.137 8.747 11.674 13.563 18.406 13.563s13.269-4.817 18.406-13.563c4.567-7.777 7.295-17.543 7.295-26.124 0-15.32-8.887-23.419-25.701-23.419zm15.819 48.025c-4.511 7.679-10.276 12.083-15.819 12.083-5.544 0-11.31-4.404-15.819-12.083-4.31-7.337-6.882-16.535-6.882-24.605 0-13.74 7.426-20.419 22.701-20.419s22.701 6.679 22.701 20.419c0 8.07-2.572 17.268-6.882 24.605z" fill="#3a312a"/></g></g><g><g><path d="m101.536 56.892c-4.441-2.094-8.758-3.28-12.085-3.498-1.216-5.56-3.388-5.258-5.872-5.258s-4.655-.302-5.872 5.258c-3.327.217-7.644 1.403-12.085 3.498-8.486 4.001-14.175 9.769-12.707 12.883s9.538 2.394 18.024-1.607c2.116-.998 4.058-2.106 5.758-3.254.237 10.166 3.223 18.211 6.882 18.211s6.645-8.045 6.882-18.211c1.701 1.149 3.642 2.257 5.758 3.254 8.486 4.001 16.555 4.721 18.024 1.607 1.468-3.114-4.221-8.882-12.707-12.883z" fill="#d7e057"/></g></g><g><g><path d="m112.689 62.613c-2.521-2.556-6.254-5.069-10.514-7.078-4.028-1.899-8.072-3.137-11.524-3.537-1.381-4.968-3.853-5.405-6.717-5.363l-.355.001-.356-.001c-2.844-.039-5.337.396-6.716 5.363-3.452.4-7.496 1.638-11.524 3.537-8.31 3.918-15.589 10.287-13.424 14.88 2.166 4.59 11.71 3.027 20.02-.891 1.3-.613 2.552-1.272 3.742-1.972.616 8.649 3.312 17.072 8.259 17.072s7.643-8.423 8.259-17.072c1.189.7 2.441 1.359 3.741 1.972 4.26 2.008 8.575 3.29 12.15 3.609 5.22.464 7.164-1.221 7.869-2.718.707-1.497.775-4.067-2.91-7.802zm.197 6.522c-.302.641-1.769 1.292-4.89 1.01-3.233-.288-7.189-1.473-11.138-3.334-1.997-.941-3.867-1.998-5.558-3.14-.455-.309-1.041-.342-1.528-.09s-.799.749-.812 1.298c-.241 10.375-3.297 16.746-5.382 16.746s-5.141-6.371-5.382-16.746c-.013-.549-.324-1.046-.812-1.298-.217-.112-.453-.167-.688-.167-.294 0-.587.086-.84.257-1.692 1.143-3.563 2.2-5.559 3.141-8.552 4.033-15.203 4.07-16.027 2.325-.822-1.746 3.439-6.855 11.99-10.886 4.073-1.921 8.28-3.145 11.543-3.358.667-.043 1.225-.523 1.367-1.176.897-4.1 1.945-4.095 4.033-4.081l.374.001.374-.001c2.081-.016 3.135-.019 4.033 4.081.143.653.7 1.132 1.367 1.176 3.263.213 7.47 1.437 11.543 3.358 3.948 1.862 7.378 4.16 9.657 6.471 2.207 2.232 2.637 3.773 2.335 4.413z" fill="#3a312a"/></g></g><g><g><path d="m219.419 90.133h-160.588c-4.808 0-8.706 3.898-8.706 8.706 0 4.808 3.898 8.707 8.706 8.707h160.587c4.808 0 8.706-3.898 8.706-8.707.001-4.808-3.897-8.706-8.705-8.706z" fill="#fce8cb"/></g></g><g><g><path d="m219.419 88.633h-160.588c-5.628 0-10.206 4.579-10.206 10.206 0 5.628 4.578 10.207 10.206 10.207h160.588c5.628 0 10.206-4.579 10.206-10.207 0-5.627-4.578-10.206-10.206-10.206zm0 17.413h-160.588c-3.974 0-7.206-3.233-7.206-7.207s3.232-7.206 7.206-7.206h160.588c3.974 0 7.206 3.233 7.206 7.206 0 3.974-3.232 7.207-7.206 7.207z" fill="#3a312a"/></g></g><g><g><path d="m67.85 107.547 45.82 112.086h50.91l45.819-112.086z" fill="#87796f"/></g></g><g><g><path d="m211.645 106.71c-.278-.415-.745-.664-1.245-.664h-142.549c-.5 0-.967.249-1.245.664s-.332.941-.144 1.404l45.82 112.087c.23.564.779.933 1.389.933h50.908c.609 0 1.158-.369 1.389-.933l45.82-112.087c.189-.463.135-.989-.143-1.404zm-48.073 111.424h-48.895l-44.593-109.088h138.082z" fill="#3a312a"/></g></g><g><g><path d="m82.404 143.148 31.266 76.486h50.91l31.266-76.486z" fill="#f16c7a"/></g></g><g><g><path d="m197.091 142.312c-.278-.414-.745-.664-1.245-.664h-113.442c-.5 0-.967.249-1.245.664s-.332.941-.144 1.404l31.267 76.485c.23.564.779.933 1.389.933h50.908c.609 0 1.158-.369 1.389-.933l31.267-76.485c.188-.463.134-.989-.144-1.404zm-33.519 75.822h-48.895l-30.04-73.485h108.975z" fill="#3a312a"/></g></g><g><g><path d="m97.527 180.143 16.143 39.491h50.91l16.143-39.491z" fill="#d7e057"/></g></g><g><g><path d="m181.968 179.306c-.278-.415-.745-.664-1.245-.664h-83.196c-.5 0-.967.249-1.245.664s-.332.941-.144 1.404l16.144 39.491c.23.564.779.933 1.389.933h50.908c.609 0 1.158-.369 1.389-.933l16.143-39.491c.189-.462.135-.989-.143-1.404zm-18.396 38.828h-48.895l-14.917-36.491h78.729z" fill="#3a312a"/></g></g><g><g><path d="m174.535 221.133h-9.95s0 0-.01 0h-5.04c9.74 0 17.76 7.54 18.53 17.09h15c-.77-9.55-8.79-17.09-18.53-17.09z" fill="#6ca6be"/></g></g><g><g><path d="m219.415 91.633h-15c3.98 0 7.21 3.23 7.21 7.21 0 3.97-3.23 7.2-7.21 7.2h15c3.98 0 7.21-3.23 7.21-7.2 0-3.98-3.23-7.21-7.21-7.21z" fill="#decaad"/></g></g><g><g><path d="m193.165 109.043-13.33 32.61h15l13.33-32.61z" fill="#695b51"/></g></g><g><g><path d="m178.615 144.653-13.9 33.99h15l13.9-33.99z" fill="#d04e5d"/></g></g><g><g><path d="m163.485 181.643-14.91 36.49h15l14.91-36.49z" fill="#b9c239"/></g></g></g></svg>