<svg id="Layer_1" enable-background="new 0 0 256 256" height="512" viewBox="0 0 256 256" width="512" xmlns="http://www.w3.org/2000/svg"><g><g><g><path d="m65.286 26.403c-.974 11.564-13.025 13.39-13.025 13.39 10.347.487 12.925 14.059 12.925 14.059.221-9.677 13.321-14.202 13.321-14.202-9.813-.588-13.221-13.247-13.221-13.247z" fill="#d7e057"/></g></g><g><g><path d="m78.598 38.151c-8.604-.514-11.832-12.024-11.863-12.14-.191-.702-.849-1.158-1.584-1.101-.725.066-1.298.642-1.359 1.367-.86 10.215-11.313 11.963-11.755 12.032-.763.115-1.314.79-1.273 1.561.04.77.657 1.384 1.428 1.421 9.027.425 11.498 12.719 11.521 12.843.138.711.76 1.217 1.473 1.217.042 0 .084-.001.126-.005.764-.064 1.357-.693 1.375-1.46.194-8.509 12.191-12.777 12.313-12.819.676-.235 1.092-.915.994-1.623-.099-.709-.682-1.25-1.396-1.293zm-13.567 10.347c-1.357-3.13-3.709-6.907-7.587-8.876 2.931-1.405 6.409-3.913 8.202-8.273 1.551 3.071 4.2 6.88 8.334 8.722-3.006 1.639-6.922 4.406-8.949 8.427z" fill="#3a312a"/></g></g><g><g><path d="m43.588 43.383c-.689 8.179-9.213 9.471-9.213 9.471 7.318.344 9.142 9.944 9.142 9.944.156-6.844 9.422-10.045 9.422-10.045-6.941-.416-9.351-9.37-9.351-9.37z" fill="#d7e057"/></g></g><g><g><path d="m53.029 51.255c-5.767-.345-7.972-8.185-7.993-8.264-.19-.702-.858-1.161-1.582-1.102-.726.065-1.3.642-1.361 1.368-.579 6.871-7.646 8.066-7.942 8.113-.763.115-1.313.79-1.273 1.561.04.77.657 1.384 1.428 1.421 6.035.284 7.724 8.644 7.739 8.726.136.712.759 1.22 1.473 1.22.041 0 .083-.002.125-.005.765-.063 1.358-.694 1.376-1.461.13-5.709 8.331-8.634 8.412-8.662.676-.234 1.093-.913.996-1.622-.099-.709-.684-1.25-1.398-1.293zm-9.585 6.795c-.924-1.886-2.34-3.947-4.447-5.28 1.855-1.042 3.697-2.63 4.871-4.917 1.057 1.874 2.654 3.955 4.941 5.224-1.85 1.102-3.989 2.741-5.365 4.973z" fill="#3a312a"/></g></g><g><g><path d="m43.588 16.726c-.689 8.179-9.213 9.471-9.213 9.471 7.318.344 9.142 9.944 9.142 9.944.156-6.845 9.422-10.045 9.422-10.045-6.941-.416-9.351-9.37-9.351-9.37z" fill="#d7e057"/></g></g><g><g><path d="m53.029 24.598c-5.767-.345-7.972-8.186-7.993-8.265-.19-.702-.858-1.159-1.582-1.102-.726.066-1.3.642-1.361 1.368-.579 6.871-7.646 8.067-7.942 8.114-.763.115-1.313.79-1.273 1.561.04.77.657 1.384 1.428 1.421 6.035.284 7.724 8.644 7.739 8.726.136.713.759 1.22 1.473 1.22.041 0 .083-.001.125-.005.765-.063 1.358-.694 1.376-1.461.13-5.709 8.331-8.634 8.412-8.662.676-.234 1.093-.913.996-1.622-.099-.709-.684-1.25-1.398-1.293zm-9.585 6.795c-.924-1.885-2.34-3.947-4.447-5.28 1.855-1.041 3.697-2.63 4.871-4.917 1.057 1.874 2.654 3.955 4.941 5.224-1.849 1.101-3.989 2.74-5.365 4.973z" fill="#3a312a"/></g></g><g><g><path d="m135.557 16.53h20.135v49.44h-20.135z" fill="#87796f"/></g></g><g><g><path d="m155.692 15.03h-20.135c-.828 0-1.5.671-1.5 1.5v49.44c0 .829.672 1.5 1.5 1.5h20.135c.828 0 1.5-.671 1.5-1.5v-49.44c0-.828-.672-1.5-1.5-1.5zm-1.5 49.44h-17.135v-46.44h17.135z" fill="#3a312a"/></g></g><g><g><path d="m214.902 64.578h-138.554c-3.713 0-6.723 3.01-6.723 6.723v6.135c0 3.713 3.01 6.723 6.723 6.723h138.554c3.713 0 6.723-3.01 6.723-6.723v-6.135c0-3.713-3.01-6.723-6.723-6.723z" fill="#d7e057"/></g></g><g><g><path d="m214.902 63.078h-138.554c-4.534 0-8.223 3.688-8.223 8.223v6.135c0 4.534 3.688 8.223 8.223 8.223h138.555c4.534 0 8.223-3.688 8.223-8.223v-6.136c-.001-4.534-3.69-8.222-8.224-8.222zm5.223 14.358c0 2.88-2.343 5.223-5.223 5.223h-138.554c-2.88 0-5.223-2.343-5.223-5.223v-6.136c0-2.88 2.343-5.223 5.223-5.223h138.555c2.88 0 5.223 2.343 5.223 5.223v6.136z" fill="#3a312a"/></g></g><g><g><path d="m214.905 66.08h-16c2.88 0 5.22 2.34 5.22 5.22v6.14c0 2.88-2.34 5.22-5.22 5.22h16c2.88 0 5.22-2.34 5.22-5.22v-6.14c0-2.88-2.34-5.22-5.22-5.22z" fill="#b9c239"/></g></g><g><g><path d="m194.9 44.997h-98.55c-6.476 0-11.725 5.25-11.725 11.725v7.855h122v-7.855c0-6.475-5.249-11.725-11.725-11.725z" fill="#d7e057"/></g></g><g><g><path d="m194.899 43.497h-72.279c-.828 0-1.5.671-1.5 1.5s.672 1.5 1.5 1.5h72.279c5.639 0 10.226 4.587 10.226 10.225v6.355h-119v-6.355c0-5.638 4.587-10.225 10.226-10.225h11.96c.828 0 1.5-.671 1.5-1.5s-.672-1.5-1.5-1.5h-11.96c-7.293 0-13.226 5.933-13.226 13.225v7.855c0 .829.672 1.5 1.5 1.5h122c.828 0 1.5-.671 1.5-1.5v-7.855c0-7.292-5.933-13.225-13.226-13.225z" fill="#3a312a"/></g></g><g><g><path d="m83.184 84.155 17.579 145.708c.656 5.454 5.287 9.547 10.765 9.547h68.194c5.478 0 10.108-4.094 10.765-9.547l17.58-145.708z" fill="#fce8cb"/></g></g><g><g><path d="m209.189 83.16c-.284-.321-.693-.505-1.122-.505h-124.883c-.429 0-.838.184-1.122.505-.285.321-.419.748-.367 1.175l17.58 145.707c.745 6.196 6.014 10.868 12.254 10.868h68.193c6.24 0 11.509-4.672 12.254-10.868l17.58-145.707c.051-.427-.082-.854-.367-1.175zm-20.192 146.523c-.564 4.69-4.552 8.227-9.275 8.227h-68.193c-4.724 0-8.711-3.537-9.275-8.227v-.001l-17.379-144.027h121.5z" fill="#3a312a"/></g></g><g><g><path d="m86.54 111.97 14.223 117.893c.657 5.454 5.287 9.547 10.765 9.547h68.194c5.478 0 10.108-4.094 10.765-9.547l14.223-117.893z" fill="#ef6d7a"/></g></g><g><g><path d="m205.832 110.975c-.284-.321-.693-.505-1.122-.505h-31.245c-.828 0-1.5.671-1.5 1.5s.672 1.5 1.5 1.5h29.554l-14.021 116.213c-.564 4.69-4.552 8.227-9.275 8.227h-68.193c-4.724 0-8.711-3.537-9.275-8.227l-14.024-116.213h70.915c.828 0 1.5-.671 1.5-1.5s-.672-1.5-1.5-1.5h-72.606c-.429 0-.838.184-1.122.505-.285.321-.419.749-.367 1.175l14.224 117.892c.745 6.196 6.014 10.868 12.254 10.868h68.193c6.24 0 11.509-4.672 12.254-10.868l14.224-117.893c.051-.426-.083-.853-.368-1.174z" fill="#3a312a"/></g></g><g><g><circle cx="113.328" cy="229.605" fill="#87796f" r="9.865"/></g></g><g><g><path d="m113.328 218.24c-6.267 0-11.365 5.099-11.365 11.365 0 6.267 5.099 11.365 11.365 11.365s11.365-5.098 11.365-11.365-5.098-11.365-11.365-11.365zm0 19.73c-4.612 0-8.365-3.752-8.365-8.365s3.753-8.365 8.365-8.365 8.365 3.752 8.365 8.365c0 4.612-3.753 8.365-8.365 8.365z" fill="#3a312a"/></g></g><g><g><path d="m146.574 219.74c-5.448 0-9.865 4.417-9.865 9.865s4.417 9.865 9.865 9.865 9.865-4.417 9.865-9.865-4.416-9.865-9.865-9.865z" fill="#87796f"/></g></g><g><g><path d="m146.574 218.24c-6.267 0-11.365 5.099-11.365 11.365 0 6.267 5.099 11.365 11.365 11.365s11.365-5.098 11.365-11.365-5.098-11.365-11.365-11.365zm0 19.73c-4.612 0-8.365-3.752-8.365-8.365s3.753-8.365 8.365-8.365 8.365 3.752 8.365 8.365c0 4.612-3.753 8.365-8.365 8.365z" fill="#3a312a"/></g></g><g><g><circle cx="152.162" cy="198.391" fill="#87796f" r="9.865"/></g></g><g><g><path d="m152.162 187.025c-6.267 0-11.365 5.099-11.365 11.365 0 6.267 5.099 11.365 11.365 11.365s11.364-5.098 11.364-11.365c0-6.266-5.097-11.365-11.364-11.365zm0 19.73c-4.612 0-8.365-3.752-8.365-8.365s3.753-8.365 8.365-8.365 8.364 3.752 8.364 8.365-3.752 8.365-8.364 8.365z" fill="#3a312a"/></g></g><g><g><ellipse cx="174.789" cy="178.835" fill="#87796f" rx="9.865" ry="9.865" transform="matrix(.343 -.939 .939 .343 -53.13 281.725)"/></g></g><g><g><path d="m174.789 167.47c-6.267 0-11.365 5.099-11.365 11.365s5.099 11.365 11.365 11.365c6.267 0 11.364-5.099 11.364-11.365s-5.097-11.365-11.364-11.365zm0 19.73c-4.612 0-8.365-3.752-8.365-8.365s3.753-8.365 8.365-8.365 8.364 3.753 8.364 8.365c0 4.613-3.752 8.365-8.364 8.365z" fill="#3a312a"/></g></g><g><g><ellipse cx="170.789" cy="229.605" fill="#87796f" rx="9.865" ry="9.865" transform="matrix(.385 -.923 .923 .385 -106.871 298.832)"/></g></g><g><g><path d="m170.789 218.24c-6.267 0-11.365 5.099-11.365 11.365 0 6.267 5.099 11.365 11.365 11.365 6.267 0 11.364-5.098 11.364-11.365s-5.097-11.365-11.364-11.365zm0 19.73c-4.612 0-8.365-3.752-8.365-8.365s3.753-8.365 8.365-8.365 8.364 3.752 8.364 8.365c0 4.612-3.752 8.365-8.364 8.365z" fill="#3a312a"/></g></g><g><g><path d="m127.257 198.216c-5.448 0-9.865 4.417-9.865 9.865s4.417 9.865 9.865 9.865 9.865-4.417 9.865-9.865-4.417-9.865-9.865-9.865z" fill="#87796f"/></g></g><g><g><path d="m127.257 196.716c-6.267 0-11.365 5.099-11.365 11.365 0 6.267 5.099 11.365 11.365 11.365 6.267 0 11.365-5.099 11.365-11.365s-5.099-11.365-11.365-11.365zm0 19.73c-4.612 0-8.365-3.753-8.365-8.365 0-4.613 3.753-8.365 8.365-8.365s8.365 3.753 8.365 8.365c0 4.613-3.753 8.365-8.365 8.365z" fill="#3a312a"/></g></g><g><g><path d="m137.257 164.216c-5.448 0-9.865 4.417-9.865 9.865s4.417 9.865 9.865 9.865 9.865-4.417 9.865-9.865-4.417-9.865-9.865-9.865z" fill="#87796f"/></g></g><g><g><path d="m137.257 162.716c-6.267 0-11.365 5.099-11.365 11.365s5.099 11.365 11.365 11.365 11.365-5.099 11.365-11.365-5.099-11.365-11.365-11.365zm0 19.73c-4.612 0-8.365-3.752-8.365-8.365s3.753-8.365 8.365-8.365 8.365 3.753 8.365 8.365c0 4.613-3.753 8.365-8.365 8.365z" fill="#3a312a"/></g></g><g><g><path d="m185.257 126.216c-5.448 0-9.865 4.417-9.865 9.865s4.417 9.865 9.865 9.865 9.865-4.417 9.865-9.865-4.417-9.865-9.865-9.865z" fill="#87796f"/></g></g><g><g><path d="m185.257 124.716c-6.267 0-11.365 5.099-11.365 11.365s5.099 11.365 11.365 11.365 11.365-5.099 11.365-11.365-5.099-11.365-11.365-11.365zm0 19.73c-4.612 0-8.365-3.752-8.365-8.365s3.753-8.365 8.365-8.365 8.365 3.752 8.365 8.365-3.753 8.365-8.365 8.365z" fill="#3a312a"/></g></g><g><g><path d="m110.257 178.216c-5.448 0-9.865 4.417-9.865 9.865s4.417 9.865 9.865 9.865 9.865-4.417 9.865-9.865-4.417-9.865-9.865-9.865z" fill="#87796f"/></g></g><g><g><path d="m110.257 176.716c-6.267 0-11.365 5.099-11.365 11.365 0 6.267 5.099 11.365 11.365 11.365s11.365-5.099 11.365-11.365-5.099-11.365-11.365-11.365zm0 19.73c-4.612 0-8.365-3.752-8.365-8.365s3.753-8.365 8.365-8.365 8.365 3.753 8.365 8.365c0 4.613-3.753 8.365-8.365 8.365z" fill="#3a312a"/></g></g><g><g><circle cx="178.447" cy="205.462" fill="#87796f" r="9.865"/></g></g><g><g><path d="m178.447 194.097c-6.267 0-11.365 5.099-11.365 11.365s5.099 11.365 11.365 11.365 11.365-5.099 11.365-11.365-5.098-11.365-11.365-11.365zm0 19.73c-4.612 0-8.365-3.752-8.365-8.365s3.753-8.365 8.365-8.365 8.365 3.752 8.365 8.365c.001 4.613-3.752 8.365-8.365 8.365z" fill="#3a312a"/></g></g><g><g><path d="m191.375 85.65-2.99 24.82h15l2.99-24.82z" fill="#decaad"/></g></g><g><g><path d="m188.015 113.47-1.37 11.34c5.62.68 9.98 5.47 9.98 11.27 0 6.27-5.1 11.37-11.37 11.37-.45 0-.89-.03-1.33-.08l-2.67 22.12c2.96 2.06 4.9 5.48 4.9 9.35 0 4.83-3.04 8.97-7.31 10.61l-.56 4.65h.16c6.27 0 11.37 5.1 11.37 11.36 0 6.27-5.1 11.37-11.37 11.37-.99 0-1.95-.13-2.86-.37l-.32 2.7c4.05 1.74 6.89 5.77 6.89 10.44 0 3.28-1.41 6.23-3.63 8.31h1.2c4.72 0 8.71-3.54 9.27-8.23l14.02-116.21z" fill="#d34e5c"/></g></g></g></svg>