<svg id="Layer_1" enable-background="new 0 0 256 256" height="512" viewBox="0 0 256 256" width="512" xmlns="http://www.w3.org/2000/svg"><g><g><g><path d="m220.344 16.5-17.67 17.67c2 1.02 3.87 2.36 5.54 4.03 1.68 1.67 3.02 3.55 4.03 5.54l27.24-27.24z" fill="#87796f"/></g></g><g><g><path d="m240.869 15.926c-.232-.561-.779-.926-1.386-.926h-19.14c-.397 0-.779.158-1.061.439l-17.67 17.67c-.34.339-.496.821-.421 1.295s.372.884.8 1.102c1.905.972 3.642 2.235 5.164 3.758 1.518 1.508 2.779 3.243 3.75 5.155.218.428.628.727 1.103.802.078.012.157.019.235.019.395 0 .777-.156 1.061-.439l27.239-27.24c.43-.429.559-1.075.326-1.635zm-28.29 25.358c-.939-1.504-2.046-2.893-3.305-4.145-1.259-1.259-2.647-2.365-4.146-3.302l15.837-15.837h14.898z" fill="#3a312a"/></g></g><g><g><path d="m208.218 38.202c-8.544-8.544-22.396-8.544-30.94 0l-27.451 27.451c-1.812 1.812-1.812 4.751 0 6.563s4.751 1.812 6.563 0l18.211-18.211c1.553-1.553 4.072-1.554 5.626 0 1.553 1.553 1.553 4.072 0 5.625l-18.211 18.211c-1.812 1.812-1.813 4.751 0 6.563 1.812 1.812 4.751 1.812 6.563 0l18.211-18.211c1.553-1.553 4.072-1.553 5.626 0 1.553 1.553 1.553 4.072 0 5.625l-18.211 18.211c-1.813 1.812-1.813 4.751 0 6.563 1.812 1.812 4.751 1.812 6.563 0l21.024-21.024 6.427-6.427c8.543-8.543 8.543-22.395-.001-30.939z" fill="#87796f"/></g></g><g><g><path d="m209.279 37.141c-9.116-9.116-23.947-9.114-33.061 0l-27.451 27.451c-2.395 2.395-2.395 6.29 0 8.685 2.395 2.394 6.29 2.393 8.685-.001l18.211-18.211c.966-.966 2.537-.967 3.505 0 .966.966.965 2.538-.001 3.504l-18.212 18.211c-2.395 2.395-2.395 6.29 0 8.685 2.395 2.394 6.29 2.393 8.685-.001l18.211-18.211c.936-.938 2.569-.936 3.504 0 .468.468.726 1.09.726 1.752s-.258 1.284-.726 1.752l-18.211 18.211c-2.395 2.395-2.394 6.291 0 8.684 1.197 1.197 2.77 1.796 4.343 1.796 1.572 0 3.145-.599 4.342-1.796l27.451-27.451c9.114-9.114 9.114-23.945-.001-33.06zm-2.121 30.94-27.451 27.451c-1.225 1.226-3.218 1.225-4.442 0-1.225-1.224-1.225-3.216 0-4.442l18.211-18.21c1.035-1.035 1.604-2.41 1.604-3.874 0-1.463-.569-2.839-1.604-3.874-1.034-1.035-2.409-1.604-3.873-1.604-1.463 0-2.838.57-3.873 1.604l-18.211 18.211c-1.224 1.225-3.217 1.225-4.442.001-1.225-1.225-1.225-3.218 0-4.442l18.211-18.21c1.035-1.035 1.605-2.41 1.605-3.873s-.569-2.839-1.605-3.874c-1.034-1.035-2.409-1.604-3.873-1.604-1.463 0-2.838.57-3.873 1.604l-18.212 18.21c-1.224 1.224-3.217 1.225-4.442 0s-1.225-3.218 0-4.442l27.451-27.451c7.946-7.945 20.873-7.946 28.819 0 7.944 7.946 7.944 20.874 0 28.819z" fill="#3a312a"/></g></g><g><g><path d="m142.738 31.612c-3.326-2.327-28.043 6.467-35.676 17.379s-5.617 23.083 3.104 29.184c8.722 6.101 20.846 3.821 28.48-7.091 7.632-10.911 7.418-37.145 4.092-39.472z" fill="#d7e057"/></g></g><g><g><path d="m143.597 30.383c-3.504-2.451-16.239 2.954-17.679 3.578-4.39 1.902-15.134 7.091-20.086 14.171-3.835 5.482-5.554 11.676-4.84 17.441.7 5.66 3.653 10.573 8.314 13.832 3.512 2.456 7.4 3.64 11.311 3.64 7.07 0 14.202-3.874 19.258-11.1 7.648-10.935 8.189-38.438 3.722-41.562zm-6.181 39.842c-6.854 9.796-17.949 12.626-26.391 6.722-3.955-2.767-6.461-6.938-7.057-11.743-.622-5.027.913-10.479 4.322-15.352 6.884-9.842 27.375-17.183 32.594-17.183.438 0 .768.051.973.157 2.242 2.059 3.021 26.732-4.441 37.399z" fill="#3a312a"/></g></g><g><g><path d="m104.939 48.992c-7.633-10.912-32.35-19.706-35.676-17.379-1.261.883-2.074 5.207-2.182 10.827l1.406 15.776c1.006 4.96 2.583 9.603 4.868 12.869 7.633 10.912 19.758 13.192 28.48 7.091 8.721-6.101 10.737-18.273 3.104-29.184z" fill="#d7e057"/></g></g><g><g><path d="m106.168 48.132c-4.952-7.08-15.696-12.269-20.086-14.171-1.44-.625-14.173-6.029-17.68-3.578-2.171 1.519-2.732 7.379-2.821 12.027-.016.829.643 1.513 1.472 1.528.819.029 1.512-.643 1.528-1.471.12-6.312 1.104-9.222 1.521-9.614 2.707-1.398 26.147 6.331 33.607 16.997 3.409 4.873 4.944 10.325 4.322 15.352-.596 4.806-3.102 8.976-7.057 11.743-8.441 5.902-19.537 3.075-26.39-6.722-1.965-2.808-3.565-7.063-4.627-12.307-.164-.812-.953-1.337-1.768-1.172-.812.165-1.337.956-1.172 1.768 1.159 5.725 2.878 10.244 5.107 13.431 5.056 7.227 12.187 11.1 19.258 11.1 3.909 0 7.8-1.184 11.311-3.64 4.661-3.26 7.614-8.172 8.314-13.832.715-5.763-1.004-11.957-4.839-17.439z" fill="#3a312a"/></g></g><g><g><path d="m217.034 86.333h-178.359c-5.896 0-10.675 4.78-10.675 10.675v14.708c0 5.896 4.779 10.675 10.675 10.675h178.359c5.896 0 10.675-4.779 10.675-10.675v-14.708c.001-5.895-4.779-10.675-10.675-10.675z" fill="#f16c7a"/></g></g><g><g><path d="m217.034 84.834h-178.359c-6.713 0-12.175 5.461-12.175 12.175v14.708c0 6.713 5.462 12.175 12.175 12.175h178.359c6.714 0 12.176-5.461 12.176-12.175v-14.709c0-6.713-5.462-12.174-12.176-12.174zm9.176 26.882c0 5.059-4.116 9.175-9.176 9.175h-178.359c-5.059 0-9.175-4.116-9.175-9.175v-14.708c0-5.059 4.116-9.175 9.175-9.175h178.359c5.06 0 9.176 4.116 9.176 9.175z" fill="#3a312a"/></g></g><g><g><path d="m217.034 129.667h-178.359c-5.896 0-10.675 4.779-10.675 10.675v14.708c0 5.896 4.779 10.675 10.675 10.675h178.359c5.896 0 10.675-4.779 10.675-10.675v-14.708c.001-5.896-4.779-10.675-10.675-10.675z" fill="#f16c7a"/></g></g><g><g><path d="m217.034 128.167h-178.359c-6.713 0-12.175 5.462-12.175 12.175v14.708c0 6.713 5.462 12.175 12.175 12.175h178.359c6.714 0 12.176-5.462 12.176-12.175v-14.708c0-6.714-5.462-12.175-12.176-12.175zm9.176 26.882c0 5.059-4.116 9.175-9.176 9.175h-178.359c-5.059 0-9.175-4.116-9.175-9.175v-14.708c0-5.059 4.116-9.175 9.175-9.175h178.359c5.06 0 9.176 4.116 9.176 9.175z" fill="#3a312a"/></g></g><g><g><path d="m226.906 118.528c-12.418-8.719-29.102-8.729-41.531-.035-.02.014-.039.027-.059.041-6.251 4.388-14.65 4.387-20.898 0-.021-.015-.043-.03-.063-.044-12.434-8.691-29.109-8.676-41.529.044-6.243 4.383-14.628 4.388-20.876.018-.009-.006-.018-.013-.026-.019-12.438-8.732-29.149-8.732-41.585 0-6.251 4.389-14.65 4.389-20.901-.001-4.068-2.856-9.68-1.874-12.538 2.194-2.856 4.068-1.874 9.681 2.194 12.538 12.437 8.733 29.151 8.733 41.588.001 6.245-4.384 14.633-4.388 20.882-.012.006.004.013.009.02.014 12.437 8.731 29.149 8.731 41.588-.003 6.252-4.388 14.649-4.387 20.899.001.02.014.039.027.059.041 6.206 4.341 13.471 6.511 20.737 6.51 7.265-.001 14.531-2.17 20.737-6.51.02-.014.041-.028.062-.043 6.249-4.388 14.648-4.388 20.897 0 4.067 2.855 9.681 1.872 12.537-2.195 2.856-4.071 1.874-9.684-2.194-12.54z" fill="#fce8cb"/></g></g><g><g><path d="m227.768 117.301c-12.927-9.076-30.31-9.091-43.314.006-5.733 4.025-13.438 4.027-19.239-.047-12.944-9.048-30.325-9.03-43.25.045-5.726 4.019-13.423 4.024-19.178-.001-12.953-9.095-30.356-9.095-43.309 0-5.734 4.026-13.442 4.026-19.177-.001-4.739-3.327-11.301-2.178-14.628 2.56-3.326 4.739-2.178 11.3 2.559 14.627 12.953 9.096 30.357 9.096 43.313.001 5.7-4.002 13.356-4.025 19.129-.033.016.012.032.024.048.035 12.955 9.094 30.36 9.092 43.312-.003 5.736-4.027 13.443-4.024 19.238.042 6.343 4.437 13.811 6.782 21.597 6.781 7.786 0 15.255-2.345 21.661-6.826 5.735-4.027 13.441-4.025 19.173 0 4.737 3.327 11.3 2.177 14.627-2.561 3.324-4.738 2.176-11.299-2.562-14.625zm.105 12.903c-2.378 3.385-7.064 4.206-10.447 1.83-6.766-4.75-15.856-4.751-22.681.042-5.836 4.081-12.71 6.239-19.878 6.239-7.168.001-14.041-2.157-19.935-6.279-3.384-2.375-7.347-3.562-11.312-3.562-3.964 0-7.929 1.187-11.313 3.562-11.918 8.369-27.934 8.372-39.856.009-.011-.008-.02-.015-.029-.021-6.764-4.736-15.847-4.732-22.604.013-11.922 8.37-27.941 8.37-39.863-.001-3.385-2.376-4.205-7.063-1.829-10.448 2.377-3.384 7.062-4.206 10.448-1.829 6.768 4.752 15.858 4.751 22.626.001 11.921-8.37 27.939-8.369 39.89.02 6.76 4.729 15.842 4.723 22.598-.019 11.894-8.352 27.893-8.369 39.867.001 6.765 4.751 15.855 4.751 22.678-.039 11.913-8.333 27.912-8.32 39.81.034 3.385 2.375 4.206 7.062 1.83 10.447z" fill="#3a312a"/></g></g><g><g><path d="m217.034 173h-178.359c-5.896 0-10.675 4.779-10.675 10.675v14.708c0 5.896 4.779 10.675 10.675 10.675h178.359c5.896 0 10.675-4.779 10.675-10.675v-14.708c.001-5.896-4.779-10.675-10.675-10.675z" fill="#f16c7a"/></g></g><g><g><path d="m217.034 171.5h-178.359c-6.713 0-12.175 5.462-12.175 12.175v14.708c0 6.713 5.462 12.175 12.175 12.175h178.359c6.714 0 12.176-5.462 12.176-12.175v-14.708c0-6.713-5.462-12.175-12.176-12.175zm9.176 26.883c0 5.059-4.116 9.175-9.176 9.175h-178.359c-5.059 0-9.175-4.116-9.175-9.175v-14.708c0-5.059 4.116-9.175 9.175-9.175h178.359c5.06 0 9.176 4.116 9.176 9.175z" fill="#3a312a"/></g></g><g><g><path d="m226.906 161.861c-12.418-8.719-29.102-8.729-41.531-.035-.02.014-.039.027-.059.041-6.251 4.388-14.65 4.387-20.898-.001-.021-.015-.043-.03-.063-.044-12.434-8.691-29.109-8.676-41.529.044-6.243 4.383-14.628 4.388-20.876.018-.009-.006-.018-.013-.026-.019-12.438-8.732-29.149-8.732-41.585 0-6.251 4.389-14.65 4.389-20.901-.001-4.068-2.856-9.68-1.874-12.538 2.194-2.856 4.068-1.874 9.681 2.194 12.538 12.437 8.732 29.151 8.733 41.588.001 6.245-4.384 14.633-4.388 20.882-.012.006.004.013.009.02.014 12.437 8.731 29.149 8.731 41.588-.003 6.252-4.388 14.649-4.387 20.899.001.02.014.039.027.059.041 6.206 4.341 13.471 6.511 20.737 6.51 7.265 0 14.531-2.17 20.737-6.51.02-.014.041-.028.062-.043 6.249-4.388 14.648-4.388 20.897 0 4.067 2.855 9.681 1.873 12.537-2.195 2.856-4.069 1.874-9.683-2.194-12.539z" fill="#fce8cb"/></g></g><g><g><path d="m227.768 160.634c-12.927-9.076-30.31-9.091-43.314.006-5.733 4.025-13.438 4.027-19.239-.047-12.944-9.048-30.325-9.029-43.25.045-5.726 4.019-13.423 4.024-19.178-.001-12.953-9.095-30.356-9.095-43.309 0-5.734 4.026-13.442 4.026-19.177-.001-4.739-3.327-11.301-2.178-14.628 2.56-3.326 4.739-2.178 11.3 2.559 14.627 12.953 9.096 30.357 9.096 43.313.001 5.7-4.002 13.356-4.025 19.129-.033.016.012.032.024.048.035 12.955 9.094 30.36 9.092 43.312-.003 5.736-4.027 13.443-4.024 19.238.043 6.343 4.437 13.811 6.782 21.597 6.781s15.255-2.345 21.661-6.826c5.735-4.027 13.441-4.025 19.173 0 4.737 3.326 11.3 2.177 14.627-2.561 3.324-4.739 2.176-11.3-2.562-14.626zm.105 12.903c-2.378 3.386-7.064 4.206-10.447 1.83-6.766-4.749-15.856-4.751-22.681.042-5.836 4.081-12.71 6.239-19.878 6.239s-14.041-2.157-19.935-6.279c-3.384-2.375-7.347-3.562-11.312-3.562-3.964 0-7.929 1.187-11.313 3.562-11.918 8.369-27.934 8.372-39.856.009-.011-.008-.02-.015-.029-.021-6.764-4.736-15.847-4.731-22.604.013-11.922 8.37-27.941 8.37-39.863-.001-3.385-2.377-4.205-7.064-1.829-10.448 2.377-3.383 7.062-4.205 10.448-1.829 6.768 4.752 15.858 4.751 22.626.001 11.921-8.37 27.939-8.369 39.89.02 6.76 4.729 15.842 4.723 22.598-.019 11.894-8.352 27.893-8.369 39.867.001 6.765 4.751 15.855 4.751 22.678-.039 11.913-8.334 27.912-8.32 39.81.034 3.385 2.375 4.206 7.062 1.83 10.447z" fill="#3a312a"/></g></g><g><g><path d="m47.427 25.98c-.974 11.564-13.024 13.39-13.024 13.39 10.347.487 12.925 14.059 12.925 14.059.221-9.677 13.321-14.202 13.321-14.202-9.813-.588-13.222-13.247-13.222-13.247z" fill="#d7e057"/></g></g><g><g><path d="m60.739 37.729c-8.604-.514-11.832-12.024-11.863-12.14-.191-.702-.847-1.165-1.584-1.102-.725.066-1.298.642-1.359 1.367-.86 10.215-11.313 11.963-11.755 12.032-.763.115-1.313.79-1.273 1.561.04.77.657 1.384 1.428 1.421 9.028.425 11.499 12.719 11.522 12.843.138.711.76 1.217 1.473 1.217.042 0 .084-.001.126-.005.765-.064 1.357-.693 1.375-1.459.193-8.509 12.191-12.777 12.313-12.819.676-.235 1.092-.914.994-1.623-.1-.709-.683-1.25-1.397-1.293zm-13.566 10.346c-1.357-3.13-3.709-6.907-7.588-8.876 2.932-1.405 6.41-3.914 8.203-8.273 1.551 3.071 4.199 6.88 8.334 8.722-3.008 1.64-6.923 4.406-8.949 8.427z" fill="#3a312a"/></g></g><g><g><path d="m25.729 42.961c-.689 8.179-9.213 9.471-9.213 9.471 7.318.344 9.142 9.944 9.142 9.944.156-6.844 9.422-10.045 9.422-10.045-6.941-.416-9.351-9.37-9.351-9.37z" fill="#d7e057"/></g></g><g><g><path d="m35.17 50.833c-5.766-.345-7.972-8.185-7.994-8.264-.19-.702-.862-1.159-1.581-1.102-.726.065-1.3.643-1.361 1.368-.578 6.871-7.646 8.066-7.941 8.113-.763.115-1.314.79-1.273 1.561.04.77.657 1.384 1.428 1.421 6.034.284 7.723 8.644 7.738 8.726.136.712.759 1.22 1.473 1.22.041 0 .083-.001.125-.005.765-.064 1.358-.694 1.376-1.461.13-5.709 8.331-8.634 8.412-8.662.676-.234 1.093-.913.996-1.622-.099-.709-.684-1.251-1.398-1.293zm-9.585 6.795c-.924-1.886-2.34-3.947-4.446-5.28 1.855-1.041 3.697-2.63 4.87-4.916 1.058 1.874 2.654 3.954 4.941 5.223-1.849 1.101-3.989 2.741-5.365 4.973z" fill="#3a312a"/></g></g><g><g><path d="m25.729 16.303c-.689 8.179-9.213 9.471-9.213 9.471 7.318.344 9.142 9.944 9.142 9.944.156-6.845 9.422-10.045 9.422-10.045-6.941-.416-9.351-9.37-9.351-9.37z" fill="#d7e057"/></g></g><g><g><path d="m35.17 24.175c-5.766-.345-7.972-8.186-7.994-8.265-.19-.702-.862-1.165-1.581-1.101-.726.065-1.3.643-1.361 1.368-.578 6.871-7.646 8.067-7.941 8.114-.763.115-1.314.79-1.273 1.561.04.77.657 1.384 1.428 1.421 6.034.284 7.723 8.644 7.738 8.726.136.713.759 1.22 1.473 1.22.041 0 .083-.001.125-.005.765-.064 1.358-.694 1.376-1.461.13-5.709 8.331-8.634 8.412-8.662.676-.234 1.093-.913.996-1.622-.099-.709-.684-1.251-1.398-1.294zm-9.585 6.795c-.924-1.885-2.34-3.947-4.446-5.28 1.855-1.041 3.697-2.629 4.87-4.916 1.058 1.873 2.654 3.954 4.941 5.223-1.849 1.102-3.989 2.741-5.365 4.973z" fill="#3a312a"/></g></g><g><g><path d="m16.603 192.775c0 19.436 15.756 35.192 35.192 35.192h152.497c19.436 0 35.192-15.756 35.192-35.192z" fill="#87796f"/></g></g><g><g><path d="m239.483 191.275h-222.88c-.828 0-1.5.671-1.5 1.5 0 20.232 16.46 36.691 36.691 36.691h4.531c.828 0 1.5-.671 1.5-1.5s-.672-1.5-1.5-1.5h-4.531c-18.075 0-32.871-14.307-33.658-32.191h219.814c-.787 17.885-15.583 32.191-33.658 32.191h-133.032c-.828 0-1.5.671-1.5 1.5s.672 1.5 1.5 1.5h133.032c20.231 0 36.691-16.459 36.691-36.691 0-.829-.672-1.5-1.5-1.5z" fill="#3a312a"/></g></g><g><g><path d="m80.85 227.966h94.387v11.731h-94.387z" fill="#87796f"/></g></g><g><g><path d="m175.237 226.466h-94.386c-.828 0-1.5.671-1.5 1.5v11.73c0 .829.672 1.5 1.5 1.5h94.387c.828 0 1.5-.671 1.5-1.5v-11.73c-.001-.828-.673-1.5-1.501-1.5zm-1.5 11.731h-91.386v-8.73h91.387v8.73z" fill="#3a312a"/></g></g><g><g><path d="m223.504 194.277c-.79 17.88-15.58 32.19-33.66 32.19h14.45c18.07 0 32.87-14.31 33.66-32.19z" fill="#695b51"/></g></g><g><g><path d="m226.607 74.987c-12.386-8.511-28.902-8.452-41.233.172-.02.014-.039.027-.059.041-6.251 4.388-14.65 4.387-20.898 0-.021-.015-.043-.03-.063-.044-12.597-8.805-29.549-8.674-42.017.392-5.919 4.304-13.98 4.178-19.965-.034-12.549-8.831-29.444-9.254-41.956-.371-6.287 4.464-14.779 4.462-21.064-.006-2.807-1.996-6.547-2.3-9.483-.499-6.126 3.759-5.887 11.701-.775 15.291 3.726 2.616 7.839 4.431 12.105 5.475 1.303.319 2.22 1.481 2.22 2.822v2.987c0 4.525 3.668 8.194 8.193 8.194h.28c4.525 0 8.193-3.668 8.193-8.193v-4.097c0-1.225.763-2.323 1.918-2.731 1.346-.476 2.669-1.035 3.962-1.675 1.916-.949 4.159.507 4.159 2.645v18.349c0 3.614 2.242 6.964 5.696 8.026 5.724 1.761 10.971-2.471 10.971-7.928v-21.396c0-2.454 2.761-3.895 4.774-2.49l.819.594c12.152 8.811 28.424 8.34 40.595-.445 1.179-.851 2.438-1.542 3.746-2.074 1.884-.767 3.936.695 3.936 2.729v7.137c0 3.614 2.242 6.964 5.696 8.026 5.724 1.761 10.97-2.471 10.97-7.929v-.18c0-2.632 2.624-4.413 5.095-3.504.786.289 1.579.55 2.38.782 1.245.361 2.103 1.495 2.103 2.791v28.822c0 3.614 2.242 6.964 5.696 8.026 5.724 1.761 10.97-2.471 10.97-7.929v-25.8c0-3.087 1.831-5.923 4.7-7.066.36-.143.718-.293 1.074-.448 1.5-.654 3.174.469 3.174 2.106v.372c0 3.614 2.242 6.964 5.696 8.026 5.724 1.761 10.97-2.471 10.97-7.928v-5.252c0-2.068 2.106-3.508 4.013-2.708 1.17.491 2.299 1.11 3.366 1.858 4.588 3.221 11.142 1.558 13.489-3.906 1.709-3.976.125-8.576-3.446-11.03z" fill="#fce8cb"/></g></g><g><g><path d="m227.457 73.751c-12.882-8.851-30.138-8.777-43.004.222-5.734 4.026-13.438 4.026-19.239-.047-13.173-9.207-30.759-9.045-43.758.408-5.342 3.883-12.664 3.863-18.22-.047-13.279-9.346-30.837-9.492-43.688-.368-5.783 4.105-13.55 4.102-19.327-.006-3.389-2.409-7.759-2.627-11.136-.555-3.266 2.004-5.203 5.237-5.316 8.872-.109 3.55 1.559 6.887 4.462 8.925 3.8 2.668 8.042 4.587 12.61 5.704.634.155 1.076.716 1.076 1.365v2.987c0 5.345 4.349 9.693 9.693 9.693h.28c5.345 0 9.693-4.349 9.693-9.693v-4.097c0-.594.368-1.122.917-1.317 1.406-.497 2.795-1.085 4.128-1.746.596-.297 1.111-.048 1.306.072.431.267.688.727.688 1.228v18.35c0 4.346 2.777 8.236 6.755 9.46 3.121.959 6.37.432 8.916-1.448 2.502-1.848 3.996-4.807 3.996-7.914v-21.392c0-.583.309-1.092.826-1.362.518-.269 1.111-.23 1.568.087l.818.593c12.457 9.031 29.476 8.851 42.354-.443 1.063-.767 2.218-1.406 3.434-1.901.552-.224 1.007-.01 1.227.139.403.271.645.72.645 1.201v7.136c0 4.347 2.777 8.237 6.754 9.46 3.122.959 6.37.432 8.916-1.448 2.502-1.848 3.996-4.807 3.996-7.914v-.18c0-.742.347-1.409.952-1.831.625-.436 1.399-.532 2.125-.266.818.301 1.653.575 2.479.814.61.177 1.021.72 1.021 1.351v28.822c0 4.347 2.778 8.237 6.755 9.46 1.022.314 2.058.469 3.078.469 2.096 0 4.126-.653 5.838-1.917 2.502-1.848 3.996-4.807 3.996-7.914v-25.8c0-2.498 1.509-4.777 3.753-5.671.375-.149.748-.305 1.12-.467.317-.14.584-.021.713.063.108.071.361.279.361.668v.373c0 4.347 2.778 8.237 6.755 9.46 3.121.96 6.37.432 8.916-1.449 2.502-1.848 3.996-4.806 3.996-7.913v-5.252c0-.487.234-.923.643-1.195.394-.261.862-.309 1.29-.129 1.088.456 2.125 1.029 3.083 1.702 2.6 1.825 5.845 2.374 8.905 1.506 3.06-.869 5.547-3.072 6.824-6.047 1.948-4.531.277-9.941-3.973-12.861zm1.218 11.679c-.92 2.141-2.701 3.724-4.888 4.345-2.189.621-4.506.228-6.361-1.075-1.134-.797-2.361-1.474-3.647-2.014-1.349-.566-2.884-.416-4.111.398-1.241.826-1.982 2.206-1.982 3.693v5.252c0 2.191-1.013 4.196-2.778 5.5-1.772 1.309-4.055 1.671-6.251.995-2.73-.84-4.638-3.551-4.638-6.593v-.373c0-1.285-.643-2.473-1.718-3.177-1.066-.697-2.396-.81-3.555-.304-.342.148-.684.292-1.03.429-3.376 1.345-5.645 4.744-5.645 8.459v25.8c0 2.192-1.013 4.197-2.778 5.501-1.772 1.309-4.049 1.671-6.251.994-2.73-.84-4.638-3.551-4.638-6.593v-28.821c0-1.948-1.31-3.688-3.186-4.232-.76-.22-1.526-.472-2.278-.749-.601-.221-1.226-.329-1.847-.329-1.071 0-2.132.323-3.03.949-1.421.991-2.236 2.556-2.236 4.292v.18c0 2.191-1.013 4.197-2.778 5.501-1.773 1.309-4.052 1.67-6.251.994-2.73-.84-4.637-3.551-4.637-6.593v-7.136c0-1.481-.736-2.861-1.97-3.69-1.2-.808-2.708-.967-4.032-.429-1.437.585-2.802 1.34-4.059 2.247-11.825 8.535-27.433 8.715-38.837.446l-.841-.609c-1.391-.971-3.188-1.086-4.693-.302-1.504.784-2.438 2.326-2.438 4.022v21.394c0 2.192-1.013 4.197-2.778 5.501-1.771 1.309-4.049 1.671-6.251.994-2.73-.84-4.638-3.551-4.638-6.593v-18.35c0-1.547-.787-2.959-2.105-3.777-1.291-.801-2.868-.882-4.22-.212-1.227.608-2.503 1.148-3.796 1.606-1.745.617-2.917 2.283-2.917 4.145v4.097c0 3.691-3.003 6.693-6.693 6.693h-.28c-3.69 0-6.693-3.003-6.693-6.693v-2.987c0-2.035-1.383-3.795-3.363-4.279-4.204-1.028-8.106-2.794-11.599-5.246-2.074-1.457-3.267-3.84-3.188-6.378.08-2.606 1.496-4.941 3.885-6.407 2.351-1.442 5.423-1.268 7.829.443 6.817 4.847 15.98 4.849 22.802.007 11.816-8.391 27.983-8.24 40.226.374 6.608 4.649 15.332 4.658 21.71.021 11.965-8.701 28.152-8.852 40.336-.334 6.765 4.751 15.855 4.751 22.678-.039 11.787-8.243 27.67-8.311 39.524-.165 3.072 2.113 4.299 5.984 2.915 9.207z" fill="#3a312a"/></g></g><g><g><path d="m225.03 135.85c-3.05 1-6.51.62-9.33-1.36-1.24-.87-2.58-1.56-3.97-2.05.57 1.19.89 2.52.89 3.93v14.71c0 1.13-.21 2.21-.59 3.21 4.62.72 9.13 2.3 13.26 4.74.58-1.2.92-2.55.92-3.98v-14.71c0-1.63-.43-3.16-1.18-4.49z" fill="#d34e5c"/></g></g><g><g><path d="m226.04 119.76c-4.55-3.2-9.71-5.18-15.01-5.93 1.2.64 2.38 1.36 3.51 2.16 3.39 2.38 4.21 7.07 1.83 10.45-1.06 1.53-2.6 2.53-4.28 2.95 1.88.59 3.68 1.47 5.34 2.64 3.38 2.38 8.07 1.56 10.44-1.83 2.38-3.38 1.56-8.07-1.83-10.44z" fill="#decaad"/></g></g><g><g><path d="m225.03 179.18c-3.05 1-6.51.62-9.33-1.36-1.41-.98-2.93-1.73-4.51-2.23.76 1.83 1.43 4.89 1.43 6.58v9.1h13.59v-7.59c0-1.64-.43-3.17-1.18-4.5z" fill="#d34e5c"/></g></g><g><g><path d="m226.04 163.09c-4.4-3.08-9.35-5.04-14.46-5.85 1.06.58 2.09 1.23 3.09 1.93 3.38 2.38 4.2 7.07 1.83 10.45-1.15 1.64-2.84 2.68-4.66 3.03 1.97.6 3.85 1.5 5.59 2.72 3.38 2.37 8.07 1.55 10.44-1.83 2.38-3.39 1.56-8.08-1.83-10.45z" fill="#decaad"/></g></g><g><g><path d="m225.03 92.52c-.14.04-.28.1-.42.14-3.06.87-6.31.32-8.91-1.51-.96-.67-1.99-1.24-3.08-1.7-.03-.01-.05-.02-.08-.02-.41-.15-.84-.09-1.21.15s-.6.62-.64 1.05c-.01.05-.01.09-.01.14v.01c1.27 1.75 2.03 3.9 2.03 6.23v14.06c4.38.76 8.65 2.31 12.58 4.63.58-1.21.92-2.55.92-3.98v-14.71c0-1.63-.43-3.17-1.18-4.49z" fill="#d34e5c"/></g></g><g><g><path d="m225.76 76.22c-7.01-4.81-15.42-6.76-23.56-5.84 3.29 1.05 6.47 2.59 9.41 4.61 3.57 2.45 5.15 7.05 3.44 11.03-.15.35-.32.69-.51 1.01 1.01.47 1.98 1.03 2.89 1.67 1.85 1.3 4.17 1.7 6.36 1.07 2.18-.62 3.97-2.2 4.89-4.34 1.38-3.22.15-7.09-2.92-9.21z" fill="#decaad"/></g></g></g></svg>