<svg id="Layer_1" enable-background="new 0 0 256 256" height="512" viewBox="0 0 256 256" width="512" xmlns="http://www.w3.org/2000/svg"><g><g><g><path d="m47.66 26.219c-.974 11.564-13.024 13.39-13.024 13.39 10.346.486 12.924 14.058 12.924 14.058.221-9.677 13.321-14.202 13.321-14.202-9.813-.587-13.221-13.246-13.221-13.246z" fill="#d7e057"/></g></g><g><g><path d="m60.971 37.968c-8.604-.515-11.832-12.024-11.863-12.141-.191-.703-.861-1.168-1.583-1.102-.725.066-1.298.642-1.359 1.367-.86 10.215-11.313 11.964-11.754 12.032-.763.116-1.313.791-1.273 1.561.04.771.657 1.385 1.428 1.421 9.028.425 11.498 12.718 11.522 12.842.137.712.759 1.218 1.472 1.218.042 0 .084-.002.126-.005.764-.064 1.357-.693 1.375-1.46.195-8.509 12.192-12.777 12.313-12.819.675-.234 1.092-.914.994-1.622-.1-.709-.684-1.25-1.398-1.292zm-13.566 10.345c-1.356-3.131-3.708-6.907-7.586-8.877 2.931-1.404 6.409-3.912 8.202-8.272 1.551 3.071 4.2 6.88 8.334 8.723-3.008 1.639-6.924 4.405-8.95 8.426z" fill="#3a312a"/></g></g><g><g><path d="m25.961 43.199c-.689 8.179-9.212 9.47-9.212 9.47 7.318.345 9.142 9.944 9.142 9.944.156-6.844 9.422-10.045 9.422-10.045-6.941-.415-9.352-9.369-9.352-9.369z" fill="#d7e057"/></g></g><g><g><path d="m35.402 51.071c-5.766-.345-7.972-8.186-7.994-8.265-.19-.702-.853-1.171-1.582-1.101-.726.065-1.299.643-1.36 1.368-.579 6.87-7.647 8.066-7.942 8.113-.763.116-1.314.791-1.273 1.561.04.771.657 1.385 1.428 1.421 6.035.284 7.723 8.645 7.739 8.727.135.713.759 1.22 1.472 1.22.042 0 .083-.002.125-.005.765-.063 1.358-.693 1.376-1.461.13-5.709 8.332-8.634 8.413-8.662.677-.234 1.094-.913.996-1.622-.098-.71-.683-1.252-1.398-1.294zm-9.584 6.795c-.924-1.886-2.34-3.947-4.447-5.28 1.855-1.041 3.697-2.63 4.871-4.916 1.057 1.874 2.654 3.955 4.941 5.224-1.85 1.1-3.989 2.74-5.365 4.972z" fill="#3a312a"/></g></g><g><g><path d="m25.961 16.542c-.689 8.179-9.212 9.471-9.212 9.471 7.318.344 9.142 9.944 9.142 9.944.156-6.845 9.422-10.045 9.422-10.045-6.941-.416-9.352-9.37-9.352-9.37z" fill="#d7e057"/></g></g><g><g><path d="m35.403 24.414c-5.767-.346-7.973-8.186-7.994-8.265-.19-.702-.856-1.165-1.582-1.102-.726.065-1.299.642-1.36 1.368-.579 6.87-7.646 8.065-7.942 8.112-.763.116-1.313.791-1.273 1.561.04.771.657 1.385 1.427 1.421 6.035.284 7.724 8.645 7.739 8.727.135.713.759 1.22 1.472 1.22.042 0 .083-.002.125-.005.765-.063 1.358-.693 1.376-1.461.13-5.708 8.332-8.633 8.413-8.661.676-.233 1.094-.913.996-1.622s-.683-1.25-1.397-1.293zm-9.585 6.795c-.924-1.886-2.34-3.947-4.447-5.28 1.856-1.041 3.697-2.63 4.871-4.916 1.057 1.874 2.654 3.954 4.942 5.224-1.851 1.1-3.99 2.74-5.366 4.972z" fill="#3a312a"/></g></g><g><g><path d="m163.144 32.355c-4.602-2.843-10.119-2.948-14.657-.768-.082-5.034-2.644-9.921-7.246-12.764-7.178-4.434-16.598-2.209-21.039 4.971-4.433 7.185-2.207 16.605 4.971 21.04.171.105.348.202.526.306l-11.808 19.104c4.487.24 8.609 1.374 12.202 3.593 3.594 2.22 6.452 5.398 8.675 9.304l11.799-19.11c.173.113.338.228.51.333 7.178 4.435 16.598 2.209 21.039-4.971 4.431-7.184 2.206-16.604-4.972-21.038z" fill="#fce8cb"/></g></g><g><g><path d="m163.932 31.078c-4.279-2.643-9.42-3.215-14.114-1.646-.698-4.899-3.511-9.241-7.789-11.885-7.87-4.861-18.234-2.413-23.104 5.46-4.703 7.622-2.563 17.572 4.713 22.614l-11.024 17.834c-.278.451-.299 1.015-.053 1.484.245.469.72.774 1.249.803 4.385.234 8.252 1.369 11.494 3.372 3.244 2.004 5.989 4.954 8.159 8.769.262.46.747.748 1.276.758h.027c.52 0 1.003-.269 1.276-.712l11.016-17.84c7.764 4.249 17.621 1.711 22.333-5.908 4.86-7.877 2.411-18.242-5.459-23.103zm2.907 21.527c-4.001 6.468-12.516 8.477-18.976 4.483-.095-.059-.186-.12-.279-.182l-.201-.133c-.338-.22-.751-.295-1.145-.206-.395.089-.736.332-.948.676l-10.526 17.047c-2.194-3.254-4.838-5.848-7.883-7.729-3.044-1.88-6.547-3.084-10.44-3.59l10.534-17.042c.212-.344.277-.759.18-1.15-.097-.393-.349-.729-.697-.933l-.211-.122c-.097-.056-.193-.11-.285-.167-6.464-3.993-8.475-12.506-4.483-18.975 4-6.467 12.512-8.477 18.976-4.483 4.015 2.48 6.457 6.784 6.534 11.512.009.512.276.983.712 1.252.435.269.977.298 1.438.076 4.263-2.049 9.204-1.79 13.22.691 6.459 3.993 8.47 12.506 4.48 18.975z" fill="#3a312a"/></g></g><g><g><path d="m126.092 67.837c-25.617-15.825-78.584 23.469-94.409 49.086-15.825 25.616-7.888 59.212 17.729 75.037 25.616 15.825 59.212 7.888 75.037-17.729 5.105-8.264 9.751-20.624 12.846-34.105l2.198-11.45c3.908-25.277 1.652-51.54-13.401-60.839z" fill="#87796f"/></g></g><g><g><path d="m126.881 66.561c-16.047-9.914-39.741 1.378-52.437 8.992-18.021 10.808-35.718 27.116-44.038 40.582-7.864 12.729-10.3 27.761-6.86 42.323 3.441 14.563 12.346 26.914 25.076 34.778 9.152 5.653 19.31 8.347 29.351 8.347 18.792 0 37.17-9.436 47.751-26.563 5.156-8.345 9.906-20.941 13.042-34.61l2.198-11.45c.004-.019.007-.036.01-.054 4.742-30.659-.528-53.966-14.093-62.345zm11.134 61.859-2.182 11.37c-3.056 13.31-7.669 25.576-12.66 33.653-15.366 24.871-48.102 32.607-72.973 17.24-12.048-7.443-20.477-19.133-23.733-32.915-3.256-13.783-.951-28.009 6.492-40.058 8.09-13.095 25.381-29.002 43.028-39.585 15.92-9.548 27.567-12.431 35.828-12.431 6.379 0 10.74 1.72 13.489 3.418 12.503 7.724 17.254 29.894 12.711 59.308z" fill="#3a312a"/></g></g><g><g><path d="m235.065 48.98c-3.825-3.825-9.17-5.195-14.088-4.117 1.078-4.918-.292-10.263-4.117-14.088-5.966-5.966-15.645-5.966-21.619 0-5.966 5.974-5.966 15.653 0 21.619.142.142.292.277.442.419l-2.595 2.594-10.37 10.365-2.92 2.919c4.312 1.265 8.062 3.316 11.049 6.303s5.038 6.737 6.303 11.049l15.877-15.885c.142.15.277.299.419.442 5.966 5.966 15.645 5.966 21.619 0 5.967-5.975 5.967-15.654 0-21.62z" fill="#fce8cb"/></g></g><g><g><path d="m236.126 47.919c-3.557-3.557-8.436-5.303-13.357-4.848.446-4.93-1.293-9.802-4.849-13.357-6.541-6.541-17.19-6.54-23.741.001-6.327 6.335-6.532 16.51-.613 23.092l-1.539 1.539c-.586.585-.586 1.535 0 2.121s1.535.586 2.121 0l2.595-2.594c.285-.285.444-.674.439-1.078-.005-.403-.172-.789-.465-1.067l-.177-.167c-.082-.077-.164-.153-.239-.228-5.371-5.373-5.371-14.119-.001-19.497 5.381-5.372 14.128-5.373 19.499-.001 3.337 3.337 4.725 8.087 3.713 12.706-.109.5.043 1.021.404 1.382s.881.516 1.382.404c4.618-1.012 9.368.375 12.706 3.713 5.371 5.373 5.371 14.119.001 19.497-5.38 5.371-14.127 5.371-19.495.005-.078-.079-.154-.161-.231-.243l-.167-.177c-.278-.293-.664-.46-1.067-.465-.389.029-.793.154-1.078.439l-14.164 14.171c-1.388-3.673-3.364-6.806-5.895-9.336-2.53-2.529-5.663-4.507-9.336-5.895l1.206-1.205c.586-.585.586-1.535 0-2.121-.584-.586-1.535-.586-2.121 0l-2.92 2.918c-.374.374-.523.918-.393 1.432.131.513.523.919 1.03 1.068 4.214 1.236 7.717 3.229 10.412 5.924 2.694 2.695 4.688 6.198 5.924 10.412.15.508.556.9 1.068 1.03.123.031.247.047.371.047.393 0 .776-.154 1.061-.439l14.822-14.829c6.577 5.918 16.755 5.716 23.094-.615 6.541-6.548 6.541-17.198 0-23.739z" fill="#3a312a"/></g></g><g><g><path d="m190.848 74.992c-21.291-21.292-81.875 4.771-103.166 26.063-21.291 21.291-21.291 55.811 0 77.103s55.812 21.292 77.103 0c6.869-6.869 14.232-17.829 20.344-30.238l4.772-10.638c9.616-23.701 13.459-49.779.947-62.29z" fill="#87796f"/></g></g><g><g><path d="m191.909 73.931c-13.338-13.338-38.994-7.796-53.099-3.306-20.024 6.374-40.996 18.177-52.188 29.369-10.581 10.58-16.408 24.648-16.408 39.612 0 14.963 5.827 29.031 16.408 39.611 10.58 10.581 24.648 16.408 39.612 16.408s29.032-5.827 39.612-16.408c6.938-6.937 14.457-18.103 20.651-30.684l4.772-10.638c.008-.017.015-.033.022-.051 5.238-12.911 8.309-25.299 8.879-35.824.677-12.48-2.103-21.931-8.261-28.089zm-3.388 62.762-4.738 10.563c-6.032 12.25-13.344 23.126-20.059 29.84-10.014 10.015-23.328 15.529-37.491 15.529-14.162 0-27.477-5.515-37.491-15.529s-15.529-23.328-15.529-37.49c0-14.163 5.515-27.478 15.529-37.491 10.883-10.884 31.37-22.39 50.978-28.632 11.35-3.613 20.355-4.96 27.477-4.96 12.549 0 19.245 4.184 22.59 7.528 10.392 10.393 9.918 33.061-1.266 60.642z" fill="#3a312a"/></g></g><g><g><path d="m230.38 121.762h-204.76c-5.898 0-10.257 5.494-8.916 11.237l23.201 99.385c.967 4.143 4.661 7.074 8.916 7.074h158.359c4.255 0 7.949-2.931 8.916-7.074l23.201-99.385c1.34-5.743-3.019-11.237-8.917-11.237z" fill="#8ac6dd"/></g></g><g><g><path d="m238.727 124.294c-2.034-2.563-5.076-4.032-8.348-4.032h-122.908c-.829 0-1.5.672-1.5 1.5s.671 1.5 1.5 1.5h122.909c2.351 0 4.536 1.056 5.997 2.897s1.993 4.21 1.459 6.499l-23.201 99.385c-.814 3.482-3.879 5.915-7.455 5.915h-158.36c-3.577 0-6.642-2.433-7.455-5.915l-23.201-99.385c-.535-2.289-.003-4.658 1.458-6.499 1.461-1.842 3.647-2.897 5.997-2.897h67.52c.829 0 1.5-.672 1.5-1.5s-.671-1.5-1.5-1.5h-67.519c-3.271 0-6.314 1.47-8.348 4.032-2.033 2.563-2.773 5.86-2.029 9.046l23.201 99.385c1.132 4.848 5.399 8.233 10.377 8.233h158.359c4.977 0 9.244-3.386 10.377-8.233l23.201-99.385c.743-3.186.003-6.484-2.031-9.046z" fill="#3a312a"/></g></g><g><g><circle cx="128" cy="180.762" fill="#ef6d7a" r="32.5"/></g></g><g><g><path d="m128 146.762c-18.748 0-34 15.252-34 34s15.252 34 34 34 34-15.252 34-34-15.252-34-34-34zm0 65c-17.093 0-31-13.906-31-31s13.907-31 31-31c17.094 0 31 13.906 31 31 0 17.093-13.906 31-31 31z" fill="#3a312a"/></g></g><g><g><path d="m236.38 126.162c-1.46-1.84-3.65-2.9-6-2.9h-15c2.35 0 4.54 1.06 6 2.9s1.99 4.21 1.45 6.5l-23.2 99.38c-.81 3.48-3.87 5.92-7.45 5.92h15c3.58 0 6.64-2.44 7.45-5.92l23.2-99.38c.54-2.29.01-4.66-1.45-6.5z" fill="#6ca8bf"/></g></g></g></svg>