<svg id="Layer_1" enable-background="new 0 0 256 256" height="512" viewBox="0 0 256 256" width="512" xmlns="http://www.w3.org/2000/svg"><g><g><g><path d="m48.795 37.376c-.974 11.563-13.025 13.389-13.025 13.389 10.347.487 12.925 14.059 12.925 14.059.221-9.677 13.321-14.202 13.321-14.202-9.813-.587-13.221-13.246-13.221-13.246z" fill="#d7e057"/></g></g><g><g><path d="m62.106 49.125c-8.604-.515-11.832-12.025-11.863-12.141-.19-.702-.853-1.161-1.584-1.102-.725.066-1.298.642-1.359 1.367-.86 10.215-11.313 11.964-11.754 12.033-.763.115-1.313.79-1.273 1.561.04.77.657 1.384 1.428 1.421 9.027.425 11.498 12.718 11.521 12.842.138.711.76 1.217 1.473 1.217.042 0 .084-.001.126-.005.765-.064 1.357-.693 1.375-1.46.193-8.508 12.191-12.777 12.313-12.819.676-.235 1.092-.914.994-1.623-.099-.708-.683-1.249-1.397-1.291zm-13.566 10.345c-1.356-3.131-3.708-6.907-7.587-8.876 2.931-1.404 6.409-3.913 8.202-8.273 1.551 3.071 4.199 6.88 8.334 8.723-3.008 1.64-6.923 4.405-8.949 8.426z" fill="#3a312a"/></g></g><g><g><path d="m27.096 54.356c-.689 8.179-9.212 9.471-9.212 9.471 7.318.344 9.142 9.944 9.142 9.944.156-6.845 9.422-10.045 9.422-10.045-6.941-.416-9.352-9.37-9.352-9.37z" fill="#d7e057"/></g></g><g><g><path d="m36.537 62.228c-5.766-.345-7.972-8.185-7.994-8.264-.189-.702-.86-1.164-1.581-1.102-.726.065-1.3.643-1.361 1.368-.578 6.87-7.646 8.066-7.941 8.113-.763.115-1.314.79-1.274 1.561.04.77.657 1.384 1.428 1.421 6.034.284 7.723 8.644 7.738 8.726.136.712.759 1.22 1.473 1.22.041 0 .083-.002.125-.005.765-.063 1.358-.694 1.376-1.461.13-5.709 8.331-8.634 8.412-8.662.676-.234 1.093-.913.996-1.622-.098-.708-.683-1.25-1.397-1.293zm-9.585 6.795c-.924-1.885-2.34-3.947-4.446-5.279 1.855-1.042 3.697-2.63 4.87-4.917 1.058 1.874 2.654 3.955 4.941 5.224-1.849 1.1-3.989 2.739-5.365 4.972z" fill="#3a312a"/></g></g><g><g><path d="m27.096 27.699c-.689 8.179-9.212 9.471-9.212 9.471 7.318.345 9.142 9.944 9.142 9.944.156-6.844 9.422-10.045 9.422-10.045-6.941-.416-9.352-9.37-9.352-9.37z" fill="#d7e057"/></g></g><g><g><path d="m36.537 35.571c-5.766-.345-7.972-8.186-7.994-8.265-.189-.702-.86-1.163-1.581-1.102-.726.065-1.3.643-1.361 1.368-.578 6.871-7.646 8.067-7.941 8.114-.763.115-1.314.79-1.274 1.561.04.77.657 1.384 1.428 1.421 6.034.284 7.723 8.644 7.738 8.726.136.713.759 1.22 1.473 1.22.041 0 .083-.001.125-.005.765-.063 1.358-.694 1.376-1.461.13-5.709 8.331-8.634 8.412-8.662.676-.234 1.093-.913.996-1.622-.098-.709-.683-1.25-1.397-1.293zm-9.585 6.795c-.924-1.885-2.34-3.947-4.446-5.28 1.855-1.041 3.697-2.629 4.87-4.916 1.058 1.874 2.654 3.954 4.941 5.223-1.849 1.101-3.989 2.74-5.365 4.973z" fill="#3a312a"/></g></g><g><g><path d="m137.376 215.461c-3.09-1.42-6.07-3.07-8.93-4.93-2.86 1.86-5.84 3.51-8.93 4.93-2.58 1.3-5.27 2.5-8.06 3.59 5.77 1.65 11.81 2.52 18.04 2.52 5.78 0 11.41-.75 16.81-2.18-3.1-1.19-6.069-2.5-8.93-3.93z" fill="#87796f"/></g></g><g><g><path d="m146.844 217.991c-3.01-1.155-5.97-2.458-8.796-3.871-.015-.007-.029-.014-.045-.021-2.982-1.37-5.923-2.993-8.739-4.824-.496-.323-1.138-.323-1.636 0-2.812 1.829-5.752 3.452-8.786 4.848-2.545 1.283-5.214 2.471-7.932 3.533-.6.234-.983.825-.952 1.467.03.643.467 1.195 1.086 1.372 5.982 1.71 12.19 2.578 18.452 2.578 5.821 0 11.606-.751 17.194-2.23.629-.167 1.079-.72 1.114-1.37.036-.651-.353-1.249-.96-1.482zm-30.63.697c1.343-.598 2.657-1.222 3.929-1.863 2.83-1.3 5.619-2.816 8.304-4.511 2.681 1.692 5.463 3.205 8.282 4.501 1.506.752 3.048 1.475 4.614 2.161-8.267 1.545-16.904 1.449-25.129-.288z" fill="#3a312a"/></g></g><g><g><path d="m91.81 58.53c-22.98 0-43.5 11.92-56.89 30.5l-7.87 13.43c-5.27 11.26-8.26 24.04-8.26 37.59 0 25.09 10.21 47.56 26.23 62.53-2.79 2.72-4.52 6.52-4.52 10.72 0 8.29 6.71 15 15 15 25.59 0 47-4.31 64.02-12.84 8-3.68 15.3-8.89 21.59-15.32 1.32-1.31 2.6-2.66 3.83-4.07 16.45-18.78 19.9-40.83 19.9-56.02 0-44.95-32.76-81.52-73.03-81.52zm28.84 119.72c-3.78 3.85-8.49 7.34-14.3 10.29-4.54 1.96-9.43 3.03-14.54 3.03-23.72 0-43.02-23.11-43.02-51.52s19.3-51.52 43.02-51.52c23.73 0 43.03 23.11 43.03 51.52 0 15.14-5.48 28.77-14.19 38.2z" fill="#87796f"/></g></g><g><g><path d="m91.813 57.028c-22.671 0-43.853 11.345-58.114 31.125-.484.672-.332 1.61.34 2.094.672.486 1.61.332 2.094-.339 13.69-18.989 33.985-29.879 55.681-29.879 39.44 0 71.528 35.898 71.528 80.023 0 14.931-3.389 36.599-19.532 55.035-1.17 1.337-2.434 2.679-3.774 4.006-6.232 6.375-13.344 11.425-21.187 15.03-16.789 8.413-38.104 12.679-63.353 12.679-7.444 0-13.5-6.056-13.5-13.5 0-3.658 1.445-7.085 4.071-9.651.293-.286.456-.68.451-1.09s-.177-.799-.476-1.079c-16.369-15.292-25.758-37.683-25.758-61.43 0-13.003 2.731-25.437 8.119-36.957.352-.75.027-1.643-.723-1.994-.753-.352-1.644-.027-1.994.724-5.575 11.921-8.402 24.783-8.402 38.228 0 24.048 9.32 46.767 25.624 62.589-2.534 2.978-3.913 6.709-3.913 10.661 0 9.098 7.402 16.5 16.5 16.5 25.719 0 47.486-4.373 64.65-12.976 8.132-3.737 15.545-8.999 22.016-15.619 1.374-1.359 2.689-2.754 3.905-4.145 16.757-19.137 20.274-41.565 20.274-57.011.002-45.78-33.432-83.024-74.527-83.024zm0 136.046c5.186 0 10.277-1.062 15.219-3.196 5.687-2.883 10.63-6.441 14.692-10.574.011-.011.021-.022.032-.034 9.269-10.044 14.585-24.338 14.585-39.218 0-29.237-19.976-53.023-44.528-53.023-24.553 0-44.528 23.786-44.528 53.023s19.976 53.022 44.528 53.022zm0-103.046c22.898 0 41.528 22.441 41.528 50.023 0 14.126-5.02 27.671-13.773 37.167-3.83 3.893-8.505 7.252-13.809 9.945-4.48 1.932-9.172 2.912-13.946 2.912-22.898 0-41.528-22.44-41.528-50.023s18.63-50.024 41.528-50.024z" fill="#3a312a"/></g></g><g><g><path d="m134.843 138.551c-.828 0-1.5.671-1.5 1.5 0 46.904-42.333 56.75-77.847 56.75-9.098 0-16.5 7.402-16.5 16.5 0 .829.672 1.5 1.5 1.5s1.5-.671 1.5-1.5c0-7.444 6.056-13.5 13.5-13.5 66.82 0 80.847-32.492 80.847-59.75 0-.828-.672-1.5-1.5-1.5z" fill="#3a312a"/></g></g><g><g><path d="m238.117 140.051c0-44.95-32.76-81.52-73.03-81.52-13.34 0-25.86 4.01-36.63 11.02-8.63 5.6-16.14 13.12-22.05 22.03-9.02 13.56-14.35 30.33-14.35 48.47 0 13.22 2.61 31.63 14.13 48.56.06-.02.11-.05.17-.07 5.81-2.95 10.51-6.44 14.3-10.29 3.02-3.27 5.65-7.04 7.8-11.21-4.06-7.85-6.4-17.1-6.4-26.99s2.34-19.14 6.4-26.99c5.07-9.85 12.83-17.49 22.04-21.48 4.55-1.97 9.47-3.05 14.59-3.05 23.72 0 43.03 23.11 43.03 51.52 0 7.053-1.192 13.778-3.345 19.905l-7.216 13.844c-7.896 10.875-19.521 17.771-32.469 17.771-5.04 0-9.89-1.05-14.38-2.96-1.72 2.53-3.64 5.02-5.77 7.46-1.22 1.4-2.5 2.76-3.83 4.07-3.86 3.95-8.1 7.44-12.66 10.39 2.86 1.86 5.84 3.51 8.93 4.93 17.03 8.53 38.43 12.84 64.03 12.84 8.28 0 15-6.72 15-15 0-4.2-1.74-8-4.53-10.72 16.019-14.97 26.24-37.44 26.24-62.53z" fill="#87796f"/></g></g><g><g><path d="m239.616 140.051c0-45.777-33.434-83.02-74.529-83.02-13.178 0-26.128 3.895-37.447 11.262-8.838 5.735-16.402 13.292-22.482 22.458-9.552 14.36-14.601 31.407-14.601 49.3 0 12.891 2.496 31.926 14.39 49.404.378.556 1.079.791 1.718.578.078-.026.152-.057.17-.07.069-.023.137-.051.201-.084 5.678-2.883 10.62-6.441 14.723-10.61 3.128-3.386 5.83-7.268 8.031-11.54.223-.432.223-.945-.001-1.377-4.076-7.884-6.231-16.979-6.231-26.301 0-9.323 2.155-18.418 6.233-26.303 4.939-9.595 12.504-16.979 21.302-20.79 4.486-1.942 9.194-2.927 13.995-2.927 22.899 0 41.529 22.439 41.529 50.02 0 6.72-1.097 13.25-3.26 19.408-.274.782.137 1.638.918 1.912.78.277 1.638-.136 1.912-.918 2.275-6.478 3.43-13.342 3.43-20.402 0-29.235-19.976-53.02-44.529-53.02-5.213 0-10.322 1.068-15.188 3.174-9.432 4.086-17.521 11.959-22.775 22.167-4.297 8.307-6.567 17.878-6.567 27.679 0 9.526 2.146 18.836 6.211 26.979-2.01 3.765-4.433 7.193-7.181 10.169-3.598 3.655-7.93 6.838-12.89 9.475-10.837-16.545-13.141-34.423-13.141-46.623 0-17.3 4.875-33.773 14.1-47.641 5.852-8.824 13.126-16.091 21.618-21.602 10.833-7.051 23.217-10.777 35.813-10.777 39.441 0 71.529 35.897 71.529 80.02 0 23.742-9.391 46.134-25.764 61.434-.299.28-.471.67-.475 1.08s.159.804.453 1.09c2.629 2.563 4.076 5.989 4.076 9.646 0 7.444-6.056 13.5-13.5 13.5-25.242 0-46.559-4.267-63.403-12.703-2.305-1.059-4.584-2.269-6.801-3.609 3.894-2.702 7.576-5.82 10.957-9.28 1.353-1.333 2.668-2.73 3.907-4.152 1.859-2.13 3.602-4.347 5.188-6.603 4.459 1.737 9.106 2.617 13.832 2.617 12.92 0 25.196-6.703 33.683-18.39.486-.671.338-1.608-.333-2.095-.67-.487-1.607-.338-2.095.333-7.915 10.901-19.307 17.153-31.255 17.153-4.723 0-9.363-.956-13.794-2.84-.66-.281-1.425-.055-1.827.537-1.7 2.501-3.605 4.963-5.66 7.318-1.19 1.366-2.452 2.708-3.772 4.007-3.802 3.891-7.975 7.316-12.401 10.179-.427.276-.684.749-.686 1.257-.001.508.256.982.683 1.259 2.938 1.911 6.007 3.605 9.076 5.014 17.22 8.625 38.988 12.999 64.701 12.999 9.098 0 16.5-7.402 16.5-16.5 0-3.952-1.382-7.682-3.919-10.658 16.305-15.83 25.628-38.553 25.628-62.593z" fill="#3a312a"/></g></g><g><g><path d="m201.401 196.801c-20.65 0-37.481-3.203-50.024-9.52-.739-.372-1.642-.075-2.015.665-.372.74-.075 1.642.665 2.015 12.966 6.53 30.251 9.841 51.374 9.841 7.444 0 13.5 6.056 13.5 13.5 0 .829.672 1.5 1.5 1.5s1.5-.671 1.5-1.5c0-9.099-7.402-16.501-16.5-16.501z" fill="#3a312a"/></g></g><g><g><path d="m165.09 60.035c-2.5 0-5 .15-7.47.44 35.92 4.22 64 38.3 64 79.58 0 21.43-7.67 41.75-21.21 56.75h.99c3.95 0 7.58 1.4 10.42 3.72 15.77-15.27 24.8-37.21 24.8-60.47 0-44.13-32.09-80.02-71.53-80.02z" fill="#695b51"/></g></g></g></svg>