<svg id="Layer_1" enable-background="new 0 0 256 256" height="512" viewBox="0 0 256 256" width="512" xmlns="http://www.w3.org/2000/svg"><g><g><g><path d="m56.493 26.345c-.974 11.564-13.025 13.39-13.025 13.39 10.347.487 12.925 14.059 12.925 14.059.221-9.677 13.321-14.202 13.321-14.202-9.813-.588-13.221-13.247-13.221-13.247z" fill="#d7e057"/></g></g><g><g><path d="m69.804 38.094c-8.604-.514-11.831-12.024-11.863-12.14-.191-.703-.865-1.167-1.583-1.101-.725.066-1.298.642-1.359 1.367-.86 10.215-11.314 11.963-11.755 12.032-.763.115-1.313.79-1.273 1.56s.657 1.384 1.427 1.421c9.028.425 11.499 12.719 11.523 12.843.137.711.759 1.217 1.472 1.217.042 0 .084-.001.126-.005.764-.064 1.357-.693 1.375-1.459.195-8.509 12.192-12.777 12.313-12.819.675-.235 1.092-.915.994-1.623-.099-.709-.683-1.25-1.397-1.293zm-13.566 10.346c-1.356-3.13-3.709-6.907-7.587-8.876 2.931-1.405 6.409-3.913 8.202-8.273 1.551 3.071 4.199 6.88 8.334 8.722-3.007 1.64-6.922 4.406-8.949 8.427z" fill="#3a312a"/></g></g><g><g><path d="m34.794 43.326c-.689 8.179-9.213 9.471-9.213 9.471 7.318.344 9.142 9.944 9.142 9.944.156-6.844 9.422-10.045 9.422-10.045-6.94-.416-9.351-9.37-9.351-9.37z" fill="#d7e057"/></g></g><g><g><path d="m44.235 51.197c-5.766-.345-7.972-8.185-7.993-8.264-.19-.702-.851-1.169-1.582-1.102-.726.065-1.299.642-1.36 1.368-.579 6.871-7.647 8.066-7.942 8.113-.763.115-1.313.79-1.273 1.561.04.77.657 1.384 1.427 1.421 6.035.284 7.724 8.644 7.739 8.726.135.712.759 1.22 1.472 1.22.042 0 .083-.001.125-.005.765-.063 1.358-.694 1.376-1.461.13-5.709 8.332-8.634 8.412-8.662.677-.234 1.094-.913.996-1.622-.097-.708-.682-1.25-1.397-1.293zm-9.584 6.796c-.924-1.886-2.34-3.947-4.447-5.28 1.856-1.041 3.697-2.63 4.871-4.916 1.057 1.874 2.654 3.954 4.941 5.223-1.85 1.101-3.989 2.74-5.365 4.973z" fill="#3a312a"/></g></g><g><g><path d="m34.794 16.668c-.689 8.179-9.213 9.471-9.213 9.471 7.318.344 9.142 9.944 9.142 9.944.156-6.845 9.422-10.045 9.422-10.045-6.94-.416-9.351-9.37-9.351-9.37z" fill="#d7e057"/></g></g><g><g><path d="m44.236 24.54c-5.766-.345-7.972-8.185-7.994-8.265-.19-.702-.851-1.169-1.582-1.102-.726.066-1.299.642-1.36 1.368-.579 6.871-7.647 8.067-7.942 8.114-.763.115-1.314.79-1.273 1.56.04.77.657 1.384 1.428 1.421 6.035.284 7.723 8.644 7.739 8.726.135.713.759 1.22 1.472 1.22.042 0 .083-.001.125-.005.765-.063 1.358-.694 1.376-1.461.13-5.71 8.331-8.634 8.412-8.662.676-.234 1.094-.913.996-1.622-.098-.707-.683-1.249-1.397-1.292zm-9.585 6.795c-.924-1.885-2.34-3.947-4.447-5.28 1.856-1.041 3.697-2.63 4.871-4.916 1.057 1.873 2.654 3.954 4.941 5.224-1.85 1.1-3.989 2.74-5.365 4.972z" fill="#3a312a"/></g></g><g><g><path d="m129.778 60.912v178.5h14.108v-178.5z" fill="#87796f"/></g></g><g><g><path d="m143.886 59.412h-14.108c-.829 0-1.5.671-1.5 1.5v136.526c0 .829.671 1.5 1.5 1.5s1.5-.671 1.5-1.5v-135.026h11.108l-.001 175.5h-11.108v-25.652c0-.829-.671-1.5-1.5-1.5s-1.5.671-1.5 1.5v27.152c0 .829.671 1.5 1.5 1.5h14.108c.829 0 1.5-.671 1.5-1.5v-178.5c.001-.828-.67-1.5-1.499-1.5z" fill="#3a312a"/></g></g><g><g><path d="m136.616 16.588c-7.13 0-33.612 36.635-33.612 69.261 0 32.627 15.048 48.891 33.612 48.89 18.563 0 33.612-16.263 33.612-48.89 0-32.626-26.482-69.261-33.612-69.261z" fill="#8bbed5"/></g></g><g><g><path d="m136.616 15.088c-8.549 0-35.112 37.607-35.112 70.761 0 30.611 13.782 50.391 35.112 50.391s35.112-19.779 35.112-50.391c0-33.154-26.564-70.761-35.112-70.761zm0 118.152c-9.091 0-16.895-4.014-22.566-11.608-6.245-8.362-9.546-20.736-9.546-35.783 0-33.033 26.679-67.761 32.112-67.761s32.112 34.729 32.113 67.761c0 15.047-3.301 27.42-9.547 35.783-5.672 7.594-13.475 11.608-22.566 11.608z" fill="#3a312a"/></g></g><g><g><path d="m132.555 92.869c-10.263-30.971-46.925-57.415-53.693-55.172s-20.382 45.348-10.118 76.319c10.263 30.97 29.664 41.675 47.285 35.835s26.789-26.012 16.526-56.982z" fill="#8bbed5"/></g></g><g><g><path d="m133.979 92.397c-10.429-31.471-47.475-58.809-55.59-56.124-8.114 2.69-21.499 46.744-11.069 78.214 4.938 14.902 12.355 26.133 21.448 32.479 5.589 3.9 11.786 5.891 18.067 5.891 3.223 0 6.469-.524 9.665-1.583 20.248-6.709 27.108-29.82 17.479-58.877zm-18.422 56.03c-8.63 2.86-17.299 1.504-25.072-3.92-8.559-5.973-15.585-16.68-20.317-30.963-10.391-31.355 4.009-72.714 9.165-74.423.17-.056.373-.084.608-.084 6.909 0 41.141 23.982 51.19 54.304 4.733 14.283 5.492 27.067 2.194 36.97-2.994 8.991-9.138 15.256-17.768 18.116z" fill="#3a312a"/></g></g><g><g><path d="m194.802 37.697c-6.768-2.243-43.43 24.201-53.694 55.172-10.263 30.97-1.095 51.142 16.526 56.982 17.622 5.84 37.022-4.865 47.285-35.835 10.265-30.971-3.349-74.076-10.117-76.319z" fill="#8bbed5"/></g></g><g><g><path d="m195.274 36.273c-8.107-2.691-45.16 24.654-55.589 56.124-9.629 29.057-2.769 52.168 17.479 58.877 3.197 1.06 6.442 1.583 9.665 1.583 6.281 0 12.479-1.991 18.067-5.891 9.093-6.346 16.51-17.577 21.448-32.479 10.429-31.47-2.955-75.525-11.07-78.214zm8.222 77.271c-4.733 14.283-11.759 24.99-20.318 30.963-7.772 5.424-16.442 6.78-25.072 3.92-8.629-2.86-14.773-9.125-17.768-18.117-3.298-9.903-2.54-22.687 2.194-36.97 10.391-31.354 46.634-55.93 51.798-54.22 5.157 1.71 19.558 43.068 9.166 74.424z" fill="#3a312a"/></g></g><g><g><path d="m228.889 76.837c-5.042-5.042-49.672 2.137-72.743 25.208-23.071 23.07-23.93 45.212-10.803 58.338 13.126 13.126 35.267 12.267 58.338-10.803 23.071-23.071 30.25-67.701 25.208-72.743z" fill="#8bbed5"/></g></g><g><g><path d="m229.95 75.776c-6.044-6.045-51.421 1.765-74.864 25.208-11.101 11.101-17.81 22.769-19.4 33.743-1.479 10.206 1.574 19.694 8.597 26.716 5.864 5.865 13.448 8.96 21.734 8.96 1.636 0 3.299-.121 4.981-.364 10.975-1.59 22.643-8.298 33.744-19.399 23.443-23.442 31.253-68.819 25.208-74.864zm-27.329 72.744c-10.64 10.64-21.724 17.055-32.053 18.551-9.378 1.362-17.735-1.319-24.164-7.748-6.428-6.428-9.108-14.784-7.748-24.165 1.497-10.329 7.912-21.413 18.552-32.052 18.999-19 51.273-26.31 64.723-26.31 3.085 0 5.182.385 5.898 1.102 3.841 3.841-1.851 47.264-25.208 70.622z" fill="#3a312a"/></g></g><g><g><path d="m117.517 102.045c-23.07-23.071-67.701-30.25-72.742-25.208-2.672 2.672-1.911 16.467 2.83 32.278l5.111 13.968c4.237 9.7 9.951 19.182 17.266 26.497 23.071 23.07 45.212 23.93 58.338 10.803 13.127-13.126 12.268-35.267-10.803-58.338z" fill="#8bbed5"/></g></g><g><g><path d="m137.977 134.728c-1.59-10.974-8.299-22.643-19.4-33.743-13.755-13.756-33.342-20.648-43.793-23.532-12.754-3.52-27.522-5.225-31.07-1.676-3.833 3.833-1.597 20.259 2.454 33.769.237.793 1.073 1.245 1.868 1.006.794-.238 1.244-1.074 1.006-1.868-5.221-17.413-4.87-29.123-3.207-30.787 1.705-1.704 12.709-1.814 28.151 2.447 10.166 2.805 29.202 9.492 42.47 22.761 10.64 10.64 17.055 21.723 18.552 32.052 1.359 9.38-1.32 17.736-7.748 24.165-6.428 6.428-14.784 9.109-24.165 7.748-10.329-1.497-21.413-7.912-32.053-18.551-6.574-6.575-12.278-15.334-16.952-26.036-.331-.759-1.214-1.106-1.975-.774-.759.332-1.106 1.216-.774 1.975 4.824 11.047 10.739 20.117 17.58 26.957 13.028 13.027 26.811 19.75 39.009 19.75 8.069 0 15.445-2.942 21.45-8.947 7.024-7.022 10.076-16.51 8.597-26.716z" fill="#3a312a"/></g></g><g><g><path d="m141.449 164.687c-8.393-39.34-28.642-76.706-57.017-105.218-.584-.587-1.534-.589-2.121-.005s-.589 1.534-.005 2.121c27.973 28.107 47.935 64.945 56.209 103.728.15.705.773 1.188 1.465 1.188.104 0 .209-.011.314-.034.811-.173 1.328-.97 1.155-1.78z" fill="#3a312a"/></g></g><g><g><path d="m124.6 41.58c-.317-.766-1.194-1.129-1.96-.813-.765.317-1.129 1.194-.813 1.96 15.162 36.642 19.591 78.306 12.473 117.317-.149.815.392 1.596 1.207 1.745.091.017.182.025.271.025.71 0 1.342-.507 1.474-1.232 7.22-39.571 2.727-81.833-12.652-119.002z" fill="#3a312a"/></g></g><g><g><path d="m191.352 59.464c-.586-.584-1.537-.583-2.121.005-28.375 28.512-48.624 65.879-57.017 105.218-.173.81.344 1.607 1.154 1.78.105.023.211.034.314.034.693 0 1.315-.483 1.465-1.188 8.274-38.782 28.236-75.62 56.21-103.728.585-.587.583-1.537-.005-2.121z" fill="#3a312a"/></g></g><g><g><path d="m151.024 40.768c-.767-.317-1.643.047-1.96.813-15.379 37.169-19.872 79.432-12.652 119.002.132.724.763 1.232 1.474 1.232.089 0 .18-.008.271-.025.815-.148 1.356-.93 1.207-1.745-7.118-39.011-2.688-80.675 12.473-117.317.316-.766-.048-1.643-.813-1.96z" fill="#3a312a"/></g></g><g><g><path d="m136.616 62.482c-7.13 0-33.612 33-33.612 62.39s15.048 44.04 33.612 44.04c18.563 0 33.612-14.65 33.612-44.04s-26.482-62.39-33.612-62.39z" fill="#8bbed5"/></g></g><g><g><path d="m136.616 60.981c-8.549 0-35.112 33.956-35.112 63.891 0 27.665 13.782 45.54 35.112 45.54s35.112-17.875 35.112-45.54c0-29.935-26.564-63.891-35.112-63.891zm0 106.431c-19.808 0-32.112-16.3-32.112-42.54 0-29.684 26.679-60.891 32.112-60.891s32.112 31.207 32.113 60.891c-.001 26.24-12.306 42.54-32.113 42.54z" fill="#3a312a"/></g></g><g><g><path d="m227.832 77.902c-.72-.72-2.82-1.11-5.9-1.11-2.56 0-5.79.26-9.49.83.16.08.29.18.39.28 3.84 3.84-1.85 47.26-25.21 70.62-9.58 9.58-19.52 15.73-28.95 17.96 3.7.99 7.69 1.2 11.9.59 10.33-1.5 21.41-7.91 32.05-18.55 23.36-23.36 29.05-66.78 25.21-70.62z" fill="#6ca8bf"/></g></g></g></svg>