<svg id="Layer_1" enable-background="new 0 0 256 256" height="512" viewBox="0 0 256 256" width="512" xmlns="http://www.w3.org/2000/svg"><g><g><g><path d="m47.661 112.193c-.974 11.564-13.025 13.39-13.025 13.39 10.347.487 12.925 14.059 12.925 14.059.221-9.677 13.321-14.202 13.321-14.202-9.813-.588-13.221-13.247-13.221-13.247z" fill="#d7e057"/></g></g><g><g><path d="m60.972 123.942c-8.604-.514-11.832-12.024-11.863-12.14-.191-.703-.865-1.164-1.583-1.102-.725.066-1.298.642-1.359 1.367-.86 10.215-11.313 11.964-11.754 12.033-.763.115-1.313.79-1.273 1.561.04.77.657 1.384 1.428 1.421 9.028.425 11.498 12.718 11.522 12.842.137.711.759 1.217 1.472 1.217.041 0 .084-.001.126-.005.764-.064 1.357-.693 1.374-1.459.194-8.509 12.191-12.777 12.313-12.819.675-.235 1.092-.915.994-1.623-.099-.709-.683-1.25-1.397-1.293zm-13.565 10.346c-1.357-3.13-3.709-6.907-7.587-8.877 2.931-1.405 6.409-3.913 8.202-8.273 1.551 3.071 4.2 6.88 8.334 8.722-3.008 1.641-6.923 4.406-8.949 8.428z" fill="#3a312a"/></g></g><g><g><path d="m25.963 129.174c-.689 8.179-9.213 9.471-9.213 9.471 7.318.344 9.142 9.944 9.142 9.944.156-6.844 9.422-10.045 9.422-10.045-6.941-.416-9.351-9.37-9.351-9.37z" fill="#d7e057"/></g></g><g><g><path d="m35.404 137.045c-5.766-.345-7.972-8.185-7.994-8.264-.191-.702-.857-1.163-1.582-1.102-.726.065-1.299.642-1.36 1.368-.579 6.871-7.646 8.067-7.942 8.114-.763.115-1.314.79-1.273 1.561.04.77.657 1.384 1.428 1.421 6.035.284 7.723 8.644 7.739 8.725.135.713.759 1.22 1.472 1.22.042 0 .083-.001.125-.005.765-.063 1.358-.694 1.376-1.461.13-5.709 8.332-8.634 8.413-8.662.677-.234 1.094-.913.996-1.622-.099-.708-.683-1.25-1.398-1.293zm-9.585 6.796c-.924-1.886-2.34-3.947-4.447-5.28 1.855-1.041 3.697-2.63 4.87-4.917 1.057 1.874 2.654 3.955 4.941 5.224-1.849 1.101-3.988 2.74-5.364 4.973z" fill="#3a312a"/></g></g><g><g><path d="m25.963 102.516c-.689 8.179-9.213 9.471-9.213 9.471 7.318.344 9.142 9.944 9.142 9.944.156-6.845 9.422-10.045 9.422-10.045-6.941-.416-9.351-9.37-9.351-9.37z" fill="#d7e057"/></g></g><g><g><path d="m35.404 110.388c-5.767-.345-7.973-8.186-7.994-8.265-.191-.702-.857-1.163-1.582-1.101-.726.065-1.299.642-1.36 1.368-.579 6.871-7.646 8.067-7.942 8.114-.763.115-1.313.79-1.273 1.561.04.77.657 1.384 1.427 1.421 6.036.284 7.724 8.644 7.739 8.726.135.713.759 1.22 1.472 1.22.042 0 .083-.001.125-.005.765-.063 1.358-.694 1.376-1.461.13-5.709 8.332-8.634 8.413-8.662.676-.234 1.094-.913.996-1.622s-.682-1.251-1.397-1.294zm-9.585 6.795c-.924-1.885-2.34-3.947-4.447-5.28 1.855-1.041 3.697-2.63 4.871-4.916 1.057 1.874 2.655 3.954 4.941 5.224-1.85 1.101-3.989 2.74-5.365 4.972z" fill="#3a312a"/></g></g><g><g><path d="m234.248 46.162c-18.344-18.948-43.588-29.646-69.961-29.646h-72.574c-26.373 0-51.618 10.697-69.961 29.646-7.003 7.234-7.003 18.72 0 25.954 18.344 18.948 43.588 29.646 69.961 29.646h72.573c26.373 0 51.617-10.697 69.961-29.646 7.004-7.234 7.004-18.72.001-25.954z" fill="#87796f"/></g></g><g><g><path d="m235.325 45.118c-18.52-19.13-44.412-30.102-71.039-30.102h-29.483c-.829 0-1.5.671-1.5 1.5s.671 1.5 1.5 1.5h29.483c25.818 0 50.926 10.639 68.883 29.189 6.479 6.692 6.479 17.176 0 23.867-17.958 18.55-43.065 29.189-68.883 29.189h-72.573c-25.818 0-50.926-10.639-68.883-29.189-6.478-6.691-6.478-17.175 0-23.867 17.958-18.55 43.065-29.189 68.883-29.189h28.765c.829 0 1.5-.671 1.5-1.5s-.671-1.5-1.5-1.5h-28.765c-26.627 0-52.519 10.972-71.039 30.102-7.611 7.862-7.611 20.179 0 28.041 18.52 19.13 44.412 30.102 71.039 30.102h72.573c26.626 0 52.519-10.972 71.039-30.102 7.611-7.862 7.611-20.179 0-28.041z" fill="#3a312a"/></g></g><g><g><path d="m233.748 143.867c-18.344-18.948-43.588-29.646-69.961-29.646h-16.787v85.245h16.787c26.373 0 51.617-10.697 69.961-29.645 7.003-7.234 7.003-18.719 0-25.954z" fill="#87796f"/></g></g><g><g><path d="m234.825 142.824-1.078 1.043 1.078-1.043c-18.52-19.131-44.413-30.103-71.039-30.103h-16.786c-.829 0-1.5.671-1.5 1.5v85.245c0 .829.671 1.5 1.5 1.5h16.787c26.626 0 52.519-10.972 71.039-30.102 7.61-7.861 7.61-20.178-.001-28.04zm-2.155 25.954c-17.958 18.55-43.064 29.189-68.883 29.189h-15.287v-82.245h15.287c25.818 0 50.925 10.639 68.883 29.189 6.478 6.691 6.478 17.175 0 23.867z" fill="#3a312a"/></g></g><g><g><ellipse cx="146.997" cy="156.844" fill="#f7e3c7" rx="29.554" ry="42.639"/></g></g><g><g><path d="m146.997 112.705c-17.124 0-31.054 19.801-31.054 44.14 0 24.338 13.931 44.139 31.054 44.139 17.124 0 31.054-19.801 31.054-44.139 0-24.339-13.93-44.14-31.054-44.14zm0 85.279c-15.469 0-28.054-18.455-28.054-41.139s12.585-41.14 28.054-41.14 28.054 18.455 28.054 41.14c0 22.684-12.585 41.139-28.054 41.139z" fill="#3a312a"/></g></g><g><g><path d="m145.774 190.934h-85.24s-.01 19.61 0 19.91c.7 15.9 19.51 28.64 42.62 28.64s41.92-12.74 42.62-28.64c.01-.3 0-19.91 0-19.91z" fill="#87796f"/></g></g><g><g><path d="m147.274 190.933c-.001-.828-.672-1.499-1.5-1.499h-85.24c-.828 0-1.499.671-1.5 1.499-.002 4.606-.009 19.658.002 19.977.743 16.864 20.122 30.074 44.119 30.074s43.376-13.21 44.119-30.074c0-.006 0-.011 0-.017.009-.302.002-15.353 0-19.96zm-3 19.864c-.675 14.993-19.116 27.187-41.121 27.187-22.014 0-40.461-12.205-41.121-27.174-.007-.411-.003-11.455 0-18.376h82.241c.005 6.865.008 17.786.001 18.363z" fill="#3a312a"/></g></g><g><g><ellipse cx="103.155" cy="190.931" fill="#f7e3c7" rx="42.639" ry="29.554"/></g></g><g><g><path d="m103.155 159.877c-24.338 0-44.139 13.931-44.139 31.054 0 17.124 19.801 31.054 44.139 31.054 24.339 0 44.14-13.931 44.14-31.054s-19.801-31.054-44.14-31.054zm0 59.108c-22.684 0-41.139-12.585-41.139-28.054s18.455-28.054 41.139-28.054c22.685 0 41.14 12.585 41.14 28.054s-18.455 28.054-41.14 28.054z" fill="#3a312a"/></g></g><g><g><path d="m97.655 173.305c-.205-.219-14.078-14.078-14.078-14.078l-60.274 60.274s13.859 13.873 14.079 14.078c11.738 10.748 34.047 6.456 50.388-9.885 16.34-16.342 20.633-38.651 9.885-50.389z" fill="#87796f"/></g></g><g><g><path d="m98.761 172.292c-.004-.004-.007-.008-.011-.012-.206-.22-10.855-10.859-14.114-14.115-.586-.586-1.535-.585-2.121.001l-60.273 60.274c-.585.586-.586 1.535 0 2.121 3.255 3.259 13.894 13.908 14.127 14.125 4.679 4.284 10.851 6.341 17.637 6.341 11.272 0 24.233-5.681 34.825-16.273 16.967-16.968 21.33-40.012 9.93-52.462zm-12.053 50.341c-15.566 15.566-37.239 19.981-48.292 9.861-.298-.288-8.103-8.098-12.994-12.993l58.154-58.154c4.856 4.852 12.583 12.574 12.985 12.985 10.124 11.079 5.707 32.741-9.853 48.301z" fill="#3a312a"/></g></g><g><g><ellipse cx="53.438" cy="189.36" fill="#f7e3c7" rx="42.639" ry="29.554" transform="matrix(.707 -.707 .707 .707 -118.247 93.249)"/></g></g><g><g><path d="m84.649 158.149c-5.94-5.94-14.798-8.2-24.936-6.362-9.94 1.802-19.966 7.347-28.233 15.614-17.21 17.21-21.361 41.061-9.253 53.17 4.688 4.688 11.132 6.938 18.273 6.938 11.305 0 24.349-5.644 34.897-16.191 17.21-17.209 21.36-41.061 9.252-53.169zm-11.373 51.049c-16.042 16.04-37.99 20.191-48.928 9.253s-6.787-32.887 9.253-48.928c7.84-7.839 17.303-13.09 26.647-14.783 2.117-.384 4.167-.573 6.134-.573 6.529 0 12.131 2.089 16.146 6.104 10.938 10.938 6.788 32.887-9.252 48.927z" fill="#3a312a"/></g></g><g><g><path d="m68.5 33.761h-17c-.829 0-1.5.671-1.5 1.5s.671 1.5 1.5 1.5h17c.829 0 1.5-.671 1.5-1.5s-.671-1.5-1.5-1.5z" fill="#3a312a"/></g></g><g><g><path d="m194.5 83.761h-17c-.829 0-1.5.671-1.5 1.5s.671 1.5 1.5 1.5h17c.829 0 1.5-.671 1.5-1.5s-.671-1.5-1.5-1.5z" fill="#3a312a"/></g></g><g><g><path d="m26.5 59.761h-10c-.829 0-1.5.671-1.5 1.5s.671 1.5 1.5 1.5h10c.829 0 1.5-.671 1.5-1.5s-.671-1.5-1.5-1.5z" fill="#3a312a"/></g></g><g><g><path d="m184.5 35.761h-10c-.829 0-1.5.671-1.5 1.5s.671 1.5 1.5 1.5h10c.829 0 1.5-.671 1.5-1.5s-.671-1.5-1.5-1.5z" fill="#3a312a"/></g></g><g><g><path d="m126.5 82.761h-18c-.829 0-1.5.671-1.5 1.5s.671 1.5 1.5 1.5h18c.829 0 1.5-.671 1.5-1.5s-.671-1.5-1.5-1.5z" fill="#3a312a"/></g></g><g><g><path d="m150 70.261h-10c-.829 0-1.5.671-1.5 1.5s.671 1.5 1.5 1.5h10c.829 0 1.5-.671 1.5-1.5s-.671-1.5-1.5-1.5z" fill="#3a312a"/></g></g><g><g><path d="m88.5 49.761h-26c-.829 0-1.5.671-1.5 1.5s.671 1.5 1.5 1.5h26c.829 0 1.5-.671 1.5-1.5s-.671-1.5-1.5-1.5z" fill="#3a312a"/></g></g><g><g><path d="m239.5 57.761h-26c-.829 0-1.5.671-1.5 1.5s.671 1.5 1.5 1.5h26c.829 0 1.5-.671 1.5-1.5s-.671-1.5-1.5-1.5z" fill="#3a312a"/></g></g><g><g><path d="m218.17 47.201c2.89 2.99 4.48 6.74 4.79 10.56h15c-.31-3.82-1.9-7.57-4.79-10.56-17.96-18.55-43.07-29.18-68.88-29.18h-15c25.81 0 50.92 10.629 68.88 29.18zm0 23.87c-17.96 18.55-43.07 29.19-68.88 29.19h15c25.81 0 50.92-10.64 68.88-29.19 2.83-2.92 4.42-6.57 4.78-10.31h-15c-.36 3.74-1.95 7.389-4.78 10.31z" fill="#695b51"/></g></g><g><g><path d="m232.67 144.911c-17.96-18.55-43.06-29.19-68.88-29.19h-5.53c.34.19.67.38 1 .59 22.04 2.45 42.89 12.57 58.41 28.6 6.48 6.69 6.48 17.18 0 23.87-15.52 16.03-36.37 26.15-58.41 28.6-.33.21-.66.4-1 .59h5.53c25.82 0 50.92-10.64 68.88-29.19 6.48-6.691 6.48-17.181 0-23.87z" fill="#695b51"/></g></g></g></svg>