<svg id="Layer_1" enable-background="new 0 0 256 256" height="512" viewBox="0 0 256 256" width="512" xmlns="http://www.w3.org/2000/svg"><g><g><g><path d="m47.661 26.305c-.974 11.564-13.024 13.39-13.024 13.39 10.347.487 12.925 14.059 12.925 14.059.221-9.677 13.321-14.203 13.321-14.203-9.814-.586-13.222-13.246-13.222-13.246z" fill="#d7e057"/></g></g><g><g><path d="m60.973 38.054c-8.604-.514-11.832-12.024-11.863-12.14-.191-.702-.854-1.164-1.584-1.102-.725.066-1.298.642-1.359 1.367-.859 10.215-11.313 11.963-11.754 12.032-.763.115-1.314.79-1.273 1.561.04.77.657 1.384 1.428 1.421 9.027.425 11.498 12.719 11.521 12.843.138.711.76 1.217 1.473 1.217.042 0 .084-.001.126-.005.764-.064 1.357-.693 1.375-1.459.194-8.509 12.191-12.777 12.313-12.819.676-.235 1.092-.915.994-1.623-.1-.709-.683-1.25-1.397-1.293zm-13.567 10.346c-1.356-3.13-3.709-6.907-7.587-8.876 2.931-1.405 6.409-3.913 8.202-8.273 1.551 3.071 4.2 6.88 8.334 8.722-3.006 1.64-6.922 4.406-8.949 8.427z" fill="#3a312a"/></g></g><g><g><path d="m25.963 43.286c-.689 8.179-9.213 9.471-9.213 9.471 7.318.345 9.142 9.944 9.142 9.944.156-6.844 9.422-10.045 9.422-10.045-6.941-.416-9.351-9.37-9.351-9.37z" fill="#d7e057"/></g></g><g><g><path d="m35.404 51.158c-5.767-.345-7.972-8.185-7.993-8.264-.191-.702-.864-1.158-1.582-1.102-.726.065-1.3.642-1.361 1.368-.579 6.871-7.646 8.066-7.942 8.113-.763.115-1.314.79-1.273 1.561.04.77.657 1.384 1.428 1.421 6.035.284 7.724 8.644 7.739 8.726.136.712.759 1.22 1.473 1.22.041 0 .083-.001.125-.005.765-.063 1.358-.694 1.376-1.461.13-5.709 8.331-8.634 8.412-8.662.676-.234 1.093-.913.996-1.622-.099-.709-.684-1.25-1.398-1.293zm-9.585 6.795c-.924-1.886-2.34-3.947-4.447-5.28 1.855-1.042 3.697-2.63 4.871-4.917 1.057 1.874 2.654 3.955 4.941 5.224-1.85 1.102-3.989 2.741-5.365 4.973z" fill="#3a312a"/></g></g><g><g><path d="m25.963 16.628c-.689 8.179-9.213 9.471-9.213 9.471 7.318.344 9.142 9.944 9.142 9.944.156-6.845 9.422-10.045 9.422-10.045-6.941-.415-9.351-9.37-9.351-9.37z" fill="#d7e057"/></g></g><g><g><path d="m35.404 24.5c-5.767-.345-7.972-8.186-7.993-8.265-.191-.702-.864-1.157-1.582-1.101-.726.065-1.3.642-1.361 1.368-.579 6.871-7.646 8.067-7.942 8.114-.763.115-1.314.79-1.273 1.561.04.77.657 1.384 1.428 1.421 6.035.284 7.724 8.644 7.739 8.726.136.713.759 1.22 1.473 1.22.041 0 .083-.001.125-.005.765-.063 1.358-.694 1.376-1.461.13-5.709 8.331-8.634 8.412-8.662.676-.234 1.093-.913.996-1.622-.099-.709-.684-1.25-1.398-1.294zm-9.585 6.795c-.924-1.885-2.34-3.947-4.447-5.28 1.855-1.041 3.697-2.63 4.871-4.917 1.057 1.874 2.654 3.955 4.941 5.224-1.849 1.102-3.989 2.741-5.365 4.973z" fill="#3a312a"/></g></g><g><g><path d="m171.54 45.509-48.08-27.759c-5.982-3.454-13.46.864-13.46 7.771v55.517c0 6.908 7.478 11.225 13.46 7.771l48.079-27.759c5.983-3.452 5.983-12.087.001-15.541z" fill="#d6df58"/></g></g><g><g><path d="m172.29 44.21-48.08-27.758c-3.279-1.894-7.194-1.894-10.474 0-3.278 1.893-5.236 5.284-5.236 9.07v55.517c0 3.787 1.958 7.178 5.237 9.071 1.639.946 3.438 1.42 5.235 1.42 1.799 0 3.598-.474 5.237-1.42l48.08-27.758c3.279-1.893 5.236-5.284 5.236-9.07.001-3.788-1.956-7.179-5.235-9.072zm-1.5 15.543-48.08 27.758c-2.339 1.35-5.133 1.351-7.474 0-2.34-1.351-3.736-3.771-3.736-6.473v-55.517c0-2.702 1.396-5.122 3.736-6.472 1.17-.675 2.453-1.013 3.736-1.013 1.284 0 2.567.338 3.737 1.013l48.08 27.758c2.34 1.351 3.736 3.771 3.736 6.473.001 2.702-1.395 5.122-3.735 6.473z" fill="#3a312a"/></g></g><g><g><path d="m96.928 101.267-15.97-53.17c-1.987-6.616-10.391-8.6-15.127-3.571l-11.133 11.821-9.942 10.557-16.987 18.037c-4.736 5.029-2.252 13.299 4.471 14.886l54.032 12.755c6.723 1.587 12.643-4.699 10.656-11.315z" fill="#d6df58"/></g></g><g><g><path d="m98.365 100.835-15.97-53.17c-1.089-3.626-3.939-6.311-7.625-7.181-3.688-.87-7.436.256-10.03 3.013l-11.134 11.822c-.568.603-.54 1.552.063 2.12.604.567 1.552.541 2.12-.063l11.134-11.822c1.853-1.967 4.527-2.769 7.157-2.15 2.63.621 4.664 2.536 5.441 5.124l15.97 53.17c.776 2.588.135 5.307-1.718 7.274-1.853 1.968-4.528 2.771-7.157 2.15l-54.031-12.755c-2.63-.621-4.663-2.537-5.44-5.124s-.136-5.307 1.717-7.273l16.986-18.037c.568-.603.54-1.552-.063-2.12-.604-.567-1.552-.541-2.12.063l-16.987 18.036c-2.596 2.756-3.496 6.566-2.406 10.193 1.089 3.626 3.938 6.311 7.624 7.182l54.032 12.755c.82.193 1.643.288 2.455.288 2.841 0 5.557-1.158 7.575-3.301 2.597-2.757 3.496-6.567 2.407-10.194z" fill="#3a312a"/></g></g><g><g><path d="m225.869 67.922-55.37 4.033c-6.89.502-10.653 8.274-6.773 13.99l31.178 45.936c3.879 5.715 12.491 5.088 15.502-1.129l24.192-49.969c3.01-6.218-1.84-13.363-8.729-12.861z" fill="#d6df58"/></g></g><g><g><path d="m235.186 70.99c-2.127-3.132-5.652-4.839-9.427-4.563l-55.37 4.033c-3.775.275-7.016 2.474-8.665 5.881-1.65 3.408-1.366 7.313.76 10.446l31.178 45.936c1.978 2.913 5.163 4.593 8.637 4.593.262 0 .525-.01.79-.029 3.776-.275 7.017-2.474 8.666-5.882l24.193-49.969c1.65-3.408 1.366-7.313-.762-10.446zm-1.938 9.139-24.192 49.969c-1.178 2.432-3.49 4.001-6.185 4.197-2.693.195-5.209-1.021-6.727-3.257l-31.178-45.936c-1.518-2.236-1.72-5.022-.542-7.455 1.177-2.432 3.488-4 6.184-4.196l55.37-4.033c2.691-.194 5.209 1.021 6.726 3.256 1.518 2.236 1.721 5.023.544 7.455z" fill="#3a312a"/></g></g><g><g><path d="m207.715 104.756c.202-1.497.316-3.022.316-4.575 0-18.693-15.154-33.847-33.847-33.847-5.423 0-10.544 1.283-15.087 3.549-5.186-12.041-17.155-20.472-31.097-20.472-13.814 0-25.688 8.281-30.949 20.146-4.58-2.314-9.753-3.625-15.235-3.625-18.693 0-33.847 15.154-33.847 33.847 0 1.687.128 3.343.366 4.965-14.604 3.753-25.397 17.008-25.397 32.783 0 18.693 15.154 33.847 33.847 33.847h142.431c18.693 0 33.847-15.154 33.847-33.847 0-15.759-10.769-29.001-25.348-32.771z" fill="#fce8cb"/></g></g><g><g><path d="m209.355 103.655c.117-1.178.177-2.342.177-3.475 0-19.49-15.856-35.347-35.348-35.347-5.005 0-9.826 1.023-14.354 3.044-5.887-12.181-18.214-19.968-31.83-19.968-13.452 0-25.715 7.659-31.664 19.641-4.575-2.071-9.452-3.12-14.521-3.12-19.49 0-35.347 15.856-35.347 35.347 0 1.279.071 2.574.213 3.866-14.93 4.436-25.244 18.182-25.244 33.882 0 19.49 15.856 35.347 35.347 35.347h142.432c19.49 0 35.347-15.857 35.347-35.347 0-15.678-10.301-29.421-25.208-33.87zm-10.139 66.218h-142.432c-17.836 0-32.347-14.511-32.347-32.347 0-14.775 9.98-27.658 24.271-31.331.743-.191 1.223-.912 1.111-1.671-.232-1.581-.351-3.178-.351-4.747 0-17.836 14.511-32.347 32.347-32.347 5.111 0 10.01 1.166 14.559 3.464.367.185.794.211 1.181.074.388-.138.701-.429.867-.805 5.187-11.696 16.796-19.254 29.578-19.254 12.935 0 24.601 7.68 29.719 19.566.163.379.476.674.862.815.388.142.816.117 1.186-.066 4.511-2.251 9.361-3.392 14.417-3.392 17.837 0 32.348 14.511 32.348 32.347 0 1.414-.102 2.886-.303 4.374-.102.753.375 1.463 1.11 1.653 14.263 3.688 24.224 16.567 24.224 31.318 0 17.838-14.511 32.349-32.347 32.349z" fill="#3a312a"/></g></g><g><g><path d="m230.411 151.604h-204.822c0 .085-.004.17-.004.255 0 47.206 45.853 85.473 102.415 85.473s102.415-38.268 102.415-85.473c0-.086-.004-.17-.004-.255z" fill="#8ac5dc"/></g></g><g><g><path d="m231.911 151.604c0-.829-.672-1.5-1.5-1.5h-204.822c-.828 0-1.502.765-1.502 1.593l-.002.162c0 47.957 46.616 86.973 103.915 86.973s103.915-39.016 103.915-86.973zm-103.911 84.228c-55.108 0-100.041-36.949-100.901-82.729h201.806c-.803 45.732-45.76 82.729-100.905 82.729z" fill="#3a312a"/></g></g><g><g><path d="m80.807 227.735h94.387v11.73h-94.387z" fill="#8ac5dc"/></g></g><g><g><path d="m175.193 226.235h-94.386c-.828 0-1.5.671-1.5 1.5v11.73c0 .829.672 1.5 1.5 1.5h94.387c.828 0 1.5-.671 1.5-1.5v-11.73c-.001-.829-.673-1.5-1.501-1.5zm-1.5 11.73h-91.386v-8.73h91.387v8.73z" fill="#3a312a"/></g></g><g><g><path d="m213.9 153.099c-.55 31.74-22.37 59.26-54.09 73.14h15c31.72-13.88 53.54-41.4 54.09-73.14z" fill="#6ca6be"/></g></g><g><g><path d="m230.065 132.438h-204.13c-5.292 0-9.583 4.29-9.583 9.583 0 5.292 4.29 9.583 9.583 9.583h204.13c5.292 0 9.583-4.291 9.583-9.583 0-5.293-4.291-9.583-9.583-9.583z" fill="#8ac5dc"/></g></g><g><g><path d="m230.064 130.938h-87.772c-.828 0-1.5.671-1.5 1.5s.672 1.5 1.5 1.5h87.772c4.457 0 8.083 3.626 8.083 8.083s-3.626 8.083-8.083 8.083h-204.129c-4.457 0-8.083-3.626-8.083-8.083 0-4.456 3.626-8.083 8.083-8.083h103.995c.828 0 1.5-.671 1.5-1.5s-.672-1.5-1.5-1.5h-103.995c-6.111 0-11.083 4.972-11.083 11.083s4.972 11.083 11.083 11.083h204.129c6.111 0 11.083-4.972 11.083-11.083.001-6.112-4.971-11.083-11.083-11.083z" fill="#3a312a"/></g></g><g><g><path d="m230.06 133.939h-15c4.46 0 8.09 3.62 8.09 8.08s-3.63 8.08-8.09 8.08h15c4.46 0 8.09-3.62 8.09-8.08s-3.63-8.08-8.09-8.08z" fill="#6ca6be"/></g></g></g></svg>