<svg id="Layer_1" enable-background="new 0 0 256 256" height="512" viewBox="0 0 256 256" width="512" xmlns="http://www.w3.org/2000/svg"><g><g><g><path d="m145.394 81.28c-3.123-7.727-6.857-15.228-10.978-22.15-14.488-24.467-33.772-42.431-48.323-42.431-16.258 0-34.898 17.642-48.677 41.498-4.121 7.115-7.823 14.777-10.914 22.697-1.938 4.954-3.628 10.006-5.034 15.082l-3.194 14.54c-.906 5.653-1.398 11.247-1.398 16.673 0 46.971 27.172 77.298 69.217 77.298s69.217-30.327 69.217-77.298c-.001-15.035-3.832-30.971-9.916-45.909z" fill="#ed6e7a"/></g></g><g><g><path d="m146.784 80.718c-3.128-7.74-6.856-15.261-11.078-22.352-15.527-26.223-35.002-43.167-49.614-43.167-15.774 0-34.924 16.188-49.975 42.246-4.223 7.291-7.928 14.996-11.013 22.902-1.965 5.025-3.675 10.148-5.083 15.229-.221.798.247 1.625 1.045 1.846.794.223 1.625-.247 1.846-1.045 1.38-4.981 3.058-10.007 4.986-14.938 3.03-7.765 6.669-15.332 10.815-22.492 14.518-25.135 32.672-40.749 47.378-40.749 13.364 0 32.265 16.756 47.034 41.699 4.146 6.963 7.805 14.346 10.878 21.948 6.415 15.748 9.805 31.428 9.805 45.343 0 46.045-26.581 75.797-67.717 75.797s-67.717-29.752-67.717-75.797c0-5.198.464-10.728 1.379-16.436.131-.818-.426-1.587-1.244-1.718-.812-.135-1.587.425-1.718 1.244-.94 5.865-1.417 11.554-1.417 16.911 0 47.868 27.758 78.797 70.717 78.797s70.717-30.93 70.717-78.797c.002-14.3-3.466-30.371-10.024-46.471z" fill="#3a312a"/></g></g><g><g><path d="m134.415 59.13c-14.488-24.467-33.771-42.431-48.323-42.431-16.258 0-34.898 17.642-48.677 41.498-4.121 7.115-7.823 14.777-10.914 22.697l.249.43c5.115 8.843 17.883 8.84 22.993-.006l.922-1.597c5.114-8.851 17.892-8.848 23.001.007l.899 1.558c5.108 8.855 17.886 8.858 23.001.007l.915-1.585c5.112-8.848 17.885-8.848 22.997 0l.913 1.581c5.115 8.852 17.894 8.847 23.002-.009-3.122-7.727-6.857-15.229-10.978-22.15z" fill="#d7e057"/></g></g><g><g><path d="m146.784 80.718c-3.128-7.74-6.856-15.261-11.078-22.352-15.527-26.223-35.002-43.167-49.614-43.167-15.774 0-34.924 16.188-49.975 42.246-4.222 7.29-7.927 14.996-11.014 22.903-.166.425-.129.902.099 1.296l.249.431c2.673 4.621 7.455 7.379 12.793 7.379h.004c5.34-.002 10.122-2.763 12.793-7.386l.922-1.597c2.13-3.687 5.942-5.887 10.199-5.887h.003c4.259.001 8.072 2.204 10.201 5.893l.899 1.557c2.67 4.628 7.453 7.392 12.796 7.394h.005c5.341 0 10.125-2.761 12.797-7.386l.916-1.585c2.13-3.686 5.943-5.887 10.2-5.887s8.07 2.201 10.2 5.886l.913 1.582c2.672 4.625 7.456 7.386 12.797 7.386h.006c5.344-.002 10.127-2.767 12.797-7.396.231-.399.265-.882.092-1.31zm-12.889 5.707h-.005c-4.257 0-8.07-2.201-10.199-5.886l-.913-1.582c-2.672-4.625-7.456-7.386-12.797-7.386s-10.125 2.761-12.797 7.386l-.915 1.585c-2.13 3.687-5.942 5.887-10.2 5.887h-.004c-4.258-.002-8.071-2.204-10.199-5.893l-.899-1.557c-2.671-4.628-7.455-7.392-12.798-7.394h-.004c-5.341 0-10.125 2.761-12.797 7.386l-.922 1.597c-2.129 3.685-5.941 5.886-10.197 5.887h-.003c-4.18 0-7.932-2.122-10.082-5.688 2.977-7.53 6.525-14.867 10.551-21.819 14.517-25.134 32.672-40.748 47.378-40.748 13.364 0 32.265 16.756 47.034 41.699 4.019 6.749 7.58 13.892 10.591 21.244-2.184 3.318-5.805 5.28-9.823 5.282z" fill="#3a312a"/></g></g><g><g><path d="m128.636 100.868c-46.964 0-77.31 27.17-77.31 69.217s30.345 69.217 77.31 69.217c50.16 0 110.489-42.512 110.489-69.217 0-30.405-61.956-69.217-110.489-69.217z" fill="#ed6e7a"/></g></g><g><g><path d="m202.876 122.803c-23.425-14.675-51.178-23.436-74.241-23.436-47.875 0-78.81 27.758-78.81 70.717s30.934 70.717 78.81 70.717c23.106 0 51.097-9.286 74.876-24.839 22.892-14.974 37.113-32.553 37.113-45.878.001-14.798-14.111-32.473-37.748-47.281zm-1.007 90.649c-23.31 15.247-50.687 24.35-73.233 24.35-46.053 0-75.81-26.581-75.81-67.717 0-41.137 29.757-67.717 75.81-67.717 22.522 0 49.681 8.59 72.648 22.978 22.756 14.255 36.341 30.98 36.341 44.739 0 12.138-14.035 29.16-35.756 43.367z" fill="#3a312a"/></g></g><g><g><path d="m128.636 116.965c-38.329 0-61.213 19.859-61.213 53.12 0 33.263 22.883 53.12 61.213 53.12 45.322 0 94.393-39.824 94.393-53.12-.001-16.261-48.374-53.12-94.393-53.12z" fill="#d7e057"/></g></g><g><g><path d="m193.889 136.158c-20.866-13.151-44.65-20.693-65.253-20.693-39.269 0-62.712 20.419-62.712 54.62s23.444 54.62 62.712 54.62c19.914 0 43.608-7.951 65.007-21.815 18.185-11.781 30.885-25.271 30.885-32.805 0-8.742-12.313-22.377-30.639-33.927zm-1.877 64.214c-20.926 13.558-44.026 21.333-63.376 21.333-37.39 0-59.712-19.297-59.712-51.62s22.322-51.62 59.712-51.62c20.053 0 43.254 7.374 63.654 20.232 17.215 10.85 29.239 23.757 29.239 31.389-.001 5.487-11.041 18.316-29.517 30.286z" fill="#3a312a"/></g></g><g><g><path d="m122.692 143.229c-18.222 0-29.996 10.542-29.996 26.856s11.774 26.856 29.996 26.856c19.462 0 42.87-16.495 42.87-26.856 0-11.797-24.039-26.856-42.87-26.856z" fill="#f7e3c7"/></g></g><g><g><path d="m122.691 141.729c-19.133 0-31.496 11.13-31.496 28.357 0 17.225 12.363 28.356 31.496 28.356 20.571 0 44.37-17.16 44.37-28.356 0-12.722-24.465-28.357-44.37-28.357zm0 53.712c-17.311 0-28.496-9.953-28.496-25.356s11.185-25.357 28.496-25.357c17.785 0 41.37 14.456 41.37 25.357 0 8.815-21.916 25.356-41.37 25.356z" fill="#3a312a"/></g></g><g><g><path d="m67.66 164.267c-.129 1.9-.225 3.831-.225 5.827s.096 3.928.225 5.827h24.435v-11.654z" fill="#87796f"/></g></g><g><g><path d="m92.095 162.767h-24.435c-.789 0-1.443.611-1.497 1.399-.158 2.338-.229 4.167-.229 5.928 0 1.762.07 3.591.229 5.928.053.788.707 1.399 1.497 1.399h4.775c.829 0 1.5-.671 1.5-1.5s-.671-1.5-1.5-1.5h-3.366c-.092-1.626-.134-2.999-.134-4.327s.042-2.701.134-4.327h21.526v8.654h-3.827c-.829 0-1.5.671-1.5 1.5s.671 1.5 1.5 1.5h5.327c.829 0 1.5-.671 1.5-1.5v-11.654c0-.828-.672-1.5-1.5-1.5z" fill="#3a312a"/></g></g><g><g><path d="m225.903 26.876c-.974 11.564-13.024 13.39-13.024 13.39 10.347.487 12.925 14.059 12.925 14.059.221-9.677 13.321-14.202 13.321-14.202-9.814-.588-13.222-13.247-13.222-13.247z" fill="#d7e057"/></g></g><g><g><path d="m239.215 38.625c-8.605-.515-11.832-12.024-11.864-12.141-.191-.703-.864-1.163-1.584-1.102-.725.066-1.298.642-1.359 1.367-.86 10.215-11.314 11.964-11.755 12.033-.763.115-1.313.79-1.273 1.561.04.77.657 1.384 1.427 1.421 9.028.425 11.499 12.719 11.523 12.843.137.711.759 1.217 1.472 1.217.042 0 .085-.001.126-.005.764-.064 1.357-.693 1.374-1.46.195-8.509 12.192-12.777 12.313-12.819.675-.235 1.092-.914.994-1.623-.097-.709-.68-1.25-1.394-1.292zm-13.567 10.346c-1.356-3.13-3.709-6.907-7.587-8.876 2.931-1.405 6.409-3.914 8.202-8.273 1.551 3.071 4.199 6.88 8.334 8.723-3.007 1.639-6.922 4.404-8.949 8.426z" fill="#3a312a"/></g></g><g><g><path d="m204.205 43.856c-.689 8.179-9.213 9.471-9.213 9.471 7.318.344 9.142 9.944 9.142 9.944.156-6.844 9.422-10.045 9.422-10.045-6.941-.416-9.351-9.37-9.351-9.37z" fill="#d7e057"/></g></g><g><g><path d="m213.646 51.728c-5.766-.345-7.972-8.186-7.994-8.265-.19-.702-.855-1.17-1.582-1.102-.726.065-1.299.642-1.36 1.368-.579 6.871-7.646 8.067-7.942 8.114-.763.115-1.313.79-1.273 1.561.04.77.657 1.384 1.427 1.421 6.035.284 7.724 8.644 7.739 8.726.135.712.759 1.22 1.473 1.22.041 0 .083-.002.124-.005.765-.063 1.358-.694 1.376-1.461.13-5.709 8.331-8.634 8.412-8.662.677-.234 1.094-.913.996-1.622-.097-.708-.682-1.25-1.396-1.293zm-9.585 6.795c-.924-1.886-2.34-3.947-4.447-5.28 1.855-1.042 3.697-2.63 4.871-4.917 1.057 1.874 2.655 3.954 4.941 5.224-1.849 1.101-3.988 2.741-5.365 4.973z" fill="#3a312a"/></g></g><g><g><path d="m204.205 17.199c-.689 8.179-9.213 9.471-9.213 9.471 7.318.344 9.142 9.944 9.142 9.944.156-6.845 9.422-10.045 9.422-10.045-6.941-.416-9.351-9.37-9.351-9.37z" fill="#d7e057"/></g></g><g><g><path d="m213.646 25.071c-5.766-.345-7.972-8.186-7.994-8.265-.19-.702-.855-1.17-1.582-1.102-.726.065-1.299.642-1.36 1.368-.579 6.871-7.646 8.067-7.942 8.114-.763.115-1.313.79-1.273 1.561.04.77.657 1.384 1.428 1.421 6.035.284 7.723 8.644 7.739 8.726.135.713.759 1.22 1.472 1.22.042 0 .083-.001.125-.005.765-.063 1.358-.694 1.376-1.461.13-5.709 8.331-8.634 8.412-8.662.676-.234 1.094-.913.996-1.622s-.683-1.25-1.397-1.293zm-9.585 6.795c-.924-1.885-2.34-3.947-4.447-5.28 1.855-1.041 3.697-2.63 4.871-4.916 1.057 1.874 2.654 3.954 4.941 5.224-1.85 1.1-3.988 2.739-5.365 4.972z" fill="#3a312a"/></g></g><g><g><path d="m192.285 138.693c-20.4-12.85-43.6-20.23-63.65-20.23-2.69 0-5.31.1-7.84.3 18.28 1.5 38.48 8.58 56.49 19.93 17.22 10.85 29.24 23.76 29.24 31.39 0 5.49-11.04 18.32-29.51 30.29-18.48 11.97-38.65 19.43-56.44 21.01 2.6.21 5.29.32 8.06.32 19.35 0 42.45-7.77 63.38-21.33 18.47-11.97 29.51-24.8 29.51-30.29 0-7.63-12.02-20.54-29.24-31.39z" fill="#b9c239"/></g></g></g></svg>