<svg id="Layer_1" enable-background="new 0 0 256 256" height="512" viewBox="0 0 256 256" width="512" xmlns="http://www.w3.org/2000/svg"><g><g><g><path d="m47.661 26.435c-.974 11.564-13.024 13.39-13.024 13.39 10.347.487 12.925 14.059 12.925 14.059.221-9.677 13.321-14.202 13.321-14.202-9.814-.587-13.222-13.247-13.222-13.247z" fill="#d7e057"/></g></g><g><g><path d="m60.973 38.185c-8.605-.515-11.832-12.025-11.864-12.141-.19-.702-.846-1.162-1.584-1.101-.725.066-1.298.642-1.359 1.367-.86 10.215-11.313 11.964-11.754 12.033-.763.115-1.313.79-1.273 1.561.04.77.657 1.384 1.428 1.421 9.028.425 11.499 12.718 11.523 12.842.137.711.759 1.217 1.472 1.217.041 0 .084-.001.126-.005.764-.064 1.357-.693 1.374-1.459.194-8.51 12.191-12.778 12.312-12.82.675-.235 1.092-.914.994-1.623-.098-.708-.682-1.249-1.395-1.292zm-13.566 10.345c-1.357-3.13-3.709-6.907-7.587-8.876 2.931-1.405 6.409-3.913 8.202-8.273 1.551 3.071 4.199 6.88 8.333 8.722-3.007 1.641-6.922 4.406-8.948 8.427z" fill="#3a312a"/></g></g><g><g><path d="m25.963 43.416c-.689 8.179-9.213 9.471-9.213 9.471 7.318.344 9.142 9.944 9.142 9.944.156-6.844 9.422-10.045 9.422-10.045-6.941-.416-9.351-9.37-9.351-9.37z" fill="#d7e057"/></g></g><g><g><path d="m35.404 51.288c-5.767-.345-7.973-8.186-7.994-8.265-.191-.702-.854-1.165-1.582-1.101-.726.065-1.299.642-1.36 1.368-.579 6.871-7.646 8.067-7.942 8.114-.763.115-1.313.79-1.273 1.561.04.77.657 1.384 1.428 1.421 6.035.284 7.723 8.644 7.739 8.726.135.713.759 1.22 1.472 1.22.042 0 .083-.002.125-.005.765-.063 1.358-.694 1.376-1.461.13-5.709 8.331-8.634 8.413-8.662.676-.234 1.094-.913.996-1.622-.099-.709-.683-1.251-1.398-1.294zm-9.585 6.795c-.924-1.885-2.34-3.947-4.447-5.28 1.856-1.041 3.697-2.63 4.871-4.916 1.057 1.874 2.655 3.954 4.941 5.224-1.85 1.1-3.989 2.74-5.365 4.972z" fill="#3a312a"/></g></g><g><g><path d="m25.963 16.758c-.689 8.179-9.213 9.471-9.213 9.471 7.318.344 9.142 9.944 9.142 9.944.156-6.844 9.422-10.045 9.422-10.045-6.941-.416-9.351-9.37-9.351-9.37z" fill="#d7e057"/></g></g><g><g><path d="m35.404 24.63c-5.767-.345-7.973-8.186-7.994-8.265-.191-.702-.854-1.166-1.582-1.101-.726.065-1.299.642-1.36 1.368-.579 6.871-7.646 8.067-7.942 8.114-.763.115-1.313.79-1.273 1.561.04.77.657 1.384 1.427 1.421 6.036.284 7.724 8.644 7.739 8.726.135.713.759 1.22 1.472 1.22.042 0 .083-.001.125-.005.765-.063 1.358-.694 1.376-1.461.13-5.71 8.331-8.634 8.413-8.662.676-.234 1.094-.913.996-1.622s-.682-1.251-1.397-1.294zm-9.585 6.795c-.924-1.885-2.34-3.947-4.447-5.279 1.856-1.042 3.697-2.63 4.871-4.917 1.057 1.874 2.655 3.954 4.941 5.224-1.85 1.101-3.989 2.74-5.365 4.972z" fill="#3a312a"/></g></g><g><g><path d="m16.5 194.595v34.491c0 5.804 4.705 10.509 10.509 10.509h201.982c5.804 0 10.509-4.705 10.509-10.509v-34.491z" fill="#fce8cb"/></g></g><g><g><path d="m239.5 193.095h-223c-.829 0-1.5.671-1.5 1.5v34.491c0 6.622 5.387 12.009 12.009 12.009h85.073c.829 0 1.5-.671 1.5-1.5s-.671-1.5-1.5-1.5h-85.073c-4.968 0-9.009-4.042-9.009-9.009v-32.991h220v32.991c0 4.967-4.041 9.009-9.009 9.009h-102.574c-.829 0-1.5.671-1.5 1.5s.671 1.5 1.5 1.5h102.574c6.622 0 12.009-5.387 12.009-12.009v-34.491c0-.828-.672-1.5-1.5-1.5z" fill="#3a312a"/></g></g><g><g><path d="m16.5 131.096v34.491c0 5.804 4.705 10.509 10.509 10.509h201.982c5.804 0 10.509-4.705 10.509-10.509v-34.491z" fill="#fce8cb"/></g></g><g><g><path d="m239.5 129.595h-223c-.829 0-1.5.671-1.5 1.5v34.491c0 6.622 5.387 12.009 12.009 12.009h201.982c6.622 0 12.009-5.387 12.009-12.009v-34.491c0-.828-.672-1.5-1.5-1.5zm-1.5 35.991c0 4.967-4.041 9.009-9.009 9.009h-201.982c-4.968 0-9.009-4.042-9.009-9.009v-32.991h220z" fill="#3a312a"/></g></g><g><g><path d="m135.687 19.747c-4.155-4.457-11.218-4.457-15.373 0l-27.403 29.391-9.902 10.621-66.509 71.336h223z" fill="#fce8cb"/></g></g><g><g><path d="m240.597 130.072-103.814-111.347c-2.263-2.428-5.464-3.82-8.783-3.82s-6.521 1.392-8.784 3.82l-27.402 29.391c-.565.606-.532 1.555.074 2.12.605.564 1.555.531 2.12-.074l27.402-29.391c1.723-1.848 4.063-2.866 6.589-2.866s4.866 1.018 6.59 2.866l101.461 108.825h-216.101l64.157-68.813c.565-.606.532-1.555-.074-2.12-.607-.565-1.556-.532-2.12.074l-66.509 71.335c-.407.437-.517 1.074-.278 1.621.238.548.778.902 1.376.902h223c.597 0 1.138-.354 1.376-.902.236-.547.127-1.184-.28-1.621z" fill="#3a312a"/></g></g><g><g><path d="m229.835 176.096h-203.67c-5.338 0-9.665 4.327-9.665 9.664v7.992c0 5.247 4.253 9.5 9.5 9.5h2.657c3.779 0 6.843 3.064 6.843 6.843 0 5.799 4.701 10.5 10.5 10.5s10.5-4.701 10.5-10.5v-1.5c0-4.971 4.029-9 9-9s9 4.029 9 9v15.5c0 5.246 4.253 9.5 9.5 9.5s9.5-4.254 9.5-9.5v-8.843c0-6.627 5.373-12 12-12h4.157c4.332 0 7.843 3.512 7.843 7.843 0 6.351 5.149 11.5 11.5 11.5s11.5-5.149 11.5-11.5v-2c0-5.247 4.253-9.5 9.5-9.5s9.5 4.253 9.5 9.5v15.5c0 4.418 3.582 8 8 8s8-3.582 8-8v-8.843c0-6.903 5.596-12.5 12.5-12.5h.157c6.817 0 12.343 5.526 12.343 12.343 0 5.523 4.477 10 10 10s10-4.477 10-10v-2.843c0-5.246 4.253-9.5 9.5-9.5s9.5-4.253 9.5-9.5v-7.992c0-5.338-4.327-9.664-9.665-9.664z" fill="#d7e057"/></g></g><g><g><path d="m229.835 174.595h-203.67c-6.156 0-11.165 5.009-11.165 11.165v7.992c0 6.066 4.935 11 11 11h2.657c2.946 0 5.343 2.397 5.343 5.343 0 6.617 5.383 12 12 12s12-5.383 12-12v-1.5c0-4.136 3.364-7.5 7.5-7.5s7.5 3.364 7.5 7.5v15.5c0 6.065 4.935 11 11 11s11-4.935 11-11v-8.843c0-5.789 4.71-10.5 10.5-10.5h4.157c3.498 0 6.343 2.845 6.343 6.343 0 7.169 5.831 13 13 13 7.168 0 13-5.831 13-13v-2c0-4.411 3.589-8 8-8s8 3.589 8 8v15.5c0 5.238 4.262 9.5 9.5 9.5s9.5-4.262 9.5-9.5v-8.843c0-6.065 4.935-11 11-11h.157c5.979 0 10.843 4.864 10.843 10.843 0 6.341 5.159 11.5 11.5 11.5s11.5-5.159 11.5-11.5v-2.843c0-4.411 3.589-8 8-8 6.065 0 11-4.934 11-11v-7.992c0-6.156-5.009-11.165-11.165-11.165zm8.165 19.157c0 4.411-3.589 8-8 8-6.065 0-11 4.935-11 11v2.843c0 4.687-3.814 8.5-8.5 8.5-4.687 0-8.5-3.813-8.5-8.5 0-7.633-6.21-13.843-13.843-13.843h-.157c-7.72 0-14 6.28-14 14v8.843c0 3.584-2.916 6.5-6.5 6.5s-6.5-2.916-6.5-6.5v-15.5c0-6.065-4.935-11-11-11s-11 4.935-11 11v2c0 5.514-4.486 10-10 10s-10-4.486-10-10c0-5.152-4.191-9.343-9.343-9.343h-4.157c-7.444 0-13.5 6.056-13.5 13.5v8.843c0 4.411-3.589 8-8 8s-8-3.589-8-8v-15.5c0-5.79-4.71-10.5-10.5-10.5s-10.5 4.71-10.5 10.5v1.5c0 4.962-4.038 9-9 9s-9-4.038-9-9c0-4.6-3.743-8.343-8.343-8.343h-2.657c-4.411 0-8-3.589-8-8v-7.992c0-4.503 3.663-8.165 8.165-8.165h203.67c4.502 0 8.165 3.663 8.165 8.165z" fill="#3a312a"/></g></g><g><g><path d="m223 115.592v14h13.05z" fill="#decaad"/></g></g><g><g><path d="m230 204.753c-3.01 0-5.64 1.67-7 4.14v20.19c0 4.97-4.04 9.01-9.01 9.01h15c4.97 0 9.01-4.04 9.01-9.01v-27.8c-2.01 2.13-4.85 3.47-8 3.47z" fill="#decaad"/></g></g><g><g><path d="m223 132.592v42h5.99c4.97 0 9.01-4.04 9.01-9.01v-32.99z" fill="#decaad"/></g></g><g><g><path d="m229.83 177.592h-6.83v26.67c1.91-1.57 4.34-2.51 7-2.51 4.41 0 8-3.59 8-8v-7.99c0-4.499-3.66-8.17-8.17-8.17z" fill="#b9c239"/></g></g></g></svg>