<svg id="Layer_1" enable-background="new 0 0 256 256" height="512" viewBox="0 0 256 256" width="512" xmlns="http://www.w3.org/2000/svg"><g><g><g><path d="m239.313 92.601c-7.327-42.927-54.367-76.041-111.313-76.041s-103.986 33.114-111.313 76.041c-.929 5.444 3.354 10.399 8.919 10.399h204.788c5.565 0 9.848-4.955 8.919-10.399z" fill="#fae6ca"/></g></g><g><g><path d="m240.792 92.349c-7.522-44.062-56.011-77.289-112.792-77.289s-105.271 33.227-112.792 77.289c-.512 2.997.327 6.057 2.301 8.396 2.014 2.386 4.965 3.755 8.097 3.755h204.788c3.132 0 6.083-1.369 8.096-3.755 1.974-2.339 2.813-5.4 2.302-8.396zm-4.595 6.462c-1.442 1.709-3.558 2.689-5.803 2.689h-204.788c-2.246 0-4.361-.98-5.804-2.689-1.403-1.663-2-3.834-1.637-5.957 7.279-42.64 54.497-74.794 109.835-74.794s102.556 32.154 109.835 74.794c.362 2.123-.235 4.294-1.638 5.957z" fill="#3a312a"/></g></g><g><g><path d="m226.728 202.812h-197.456c-7.021 0-12.712 5.691-12.712 12.712 0 13.209 10.708 23.916 23.916 23.916h175.048c13.209 0 23.916-10.708 23.916-23.916 0-7.021-5.691-12.712-12.712-12.712z" fill="#fae6ca"/></g></g><g><g><path d="m226.728 201.311h-197.456c-7.837 0-14.212 6.376-14.212 14.212 0 14.015 11.402 25.417 25.417 25.417h20.031c.829 0 1.5-.671 1.5-1.5s-.671-1.5-1.5-1.5h-20.032c-12.36 0-22.417-10.056-22.417-22.417 0-6.183 5.03-11.212 11.212-11.212h197.456c6.183 0 11.212 5.03 11.212 11.212 0 12.36-10.056 22.417-22.417 22.417h-140.029c-.829 0-1.5.671-1.5 1.5s.671 1.5 1.5 1.5h140.031c14.015 0 25.417-11.402 25.417-25.417-.001-7.836-6.376-14.212-14.213-14.212z" fill="#3a312a"/></g></g><g><g><path d="m208.514 164.421h-161.028c-10.601 0-19.195 8.594-19.195 19.195 0 10.601 8.594 19.195 19.195 19.195h161.029c10.601 0 19.195-8.594 19.195-19.195 0-10.601-8.594-19.195-19.196-19.195z" fill="#ef6d7a"/></g></g><g><g><path d="m208.514 162.921h-161.028c-11.412 0-20.695 9.284-20.695 20.695 0 11.412 9.284 20.695 20.695 20.695h161.028c11.412 0 20.695-9.284 20.695-20.695.001-11.411-9.283-20.695-20.695-20.695zm0 38.39h-161.028c-9.757 0-17.695-7.938-17.695-17.695s7.938-17.695 17.695-17.695h161.028c9.757 0 17.695 7.938 17.695 17.695.001 9.758-7.938 17.695-17.695 17.695z" fill="#3a312a"/></g></g><g><g><path d="m211.558 132.117h-167.116c-8.92 0-16.152 7.231-16.152 16.152 0 8.92 7.231 16.152 16.152 16.152h167.116c8.92 0 16.152-7.231 16.152-16.152 0-8.92-7.232-16.152-16.152-16.152z" fill="#87796f"/></g></g><g><g><path d="m211.558 130.618h-167.116c-9.733 0-17.651 7.918-17.651 17.651s7.918 17.652 17.651 17.652h167.116c9.733 0 17.651-7.919 17.651-17.652.001-9.733-7.918-17.651-17.651-17.651zm0 32.303h-167.116c-8.079 0-14.651-6.573-14.651-14.652s6.573-14.651 14.651-14.651h167.116c8.079 0 14.651 6.573 14.651 14.651.001 8.079-6.572 14.652-14.651 14.652z" fill="#3a312a"/></g></g><g><g><path d="m40.021 113.545 113.084 56.476 13.235 6.61 8.291 4.141c5.236 2.615 11.602.837 14.725-4.113l39.816-63.114z" fill="#fae6ca"/></g></g><g><g><path d="m230.484 112.82c-.264-.478-.767-.775-1.313-.775h-189.15c-.696 0-1.3.479-1.46 1.156s.167 1.376.79 1.686l113.084 56.476c.739.369 1.642.07 2.012-.671s.069-1.642-.671-2.012l-107.394-53.635h180.069l-38.365 60.813c-2.723 4.317-8.221 5.853-12.786 3.572l-8.29-4.141c-.742-.37-1.642-.07-2.012.671s-.069 1.642.671 2.012l8.291 4.141c1.857.928 3.831 1.371 5.778 1.371 4.292 0 8.444-2.155 10.886-6.025l39.816-63.113c.291-.463.308-1.047.044-1.526z" fill="#3a312a"/></g></g><g><g><path d="m237.83 92.85c-7.27-42.64-54.49-74.79-109.83-74.79-2.52 0-5.02.07-7.5.2 52.05 2.75 95.39 33.89 102.33 74.59.37 2.13-.23 4.3-1.63 5.96-1.45 1.71-3.56 2.69-5.81 2.69h15c2.25 0 4.36-.98 5.81-2.69 1.4-1.66 2-3.83 1.63-5.96z" fill="#ddc9ac"/></g></g><g><g><path d="m226.73 204.31h-15c6.18 0 11.21 5.03 11.21 11.21 0 12.36-10.06 22.42-22.42 22.42h15c12.36 0 22.42-10.06 22.42-22.42 0-6.18-5.03-11.21-11.21-11.21z" fill="#ddc9ac"/></g></g><g><g><path d="m208.51 165.92h-10.61l-.3.48c7.8 1.85 13.61 8.87 13.61 17.22 0 9.75-7.94 17.69-17.7 17.69h15c9.76 0 17.7-7.94 17.7-17.69 0-9.76-7.94-17.7-17.7-17.7z" fill="#d24e5c"/></g></g><g><g><path d="m239.094 123.385c0-11.308-9.167-20.475-20.475-20.475h-181.308c-11.308 0-20.475 9.167-20.475 20.475v4.548c0 8.789 7.125 15.914 15.914 15.914 8.526 0 15.466-6.711 15.875-15.136.409 8.425 7.349 15.136 15.875 15.136s15.466-6.711 15.875-15.136c.409 8.425 7.349 15.136 15.875 15.136s15.466-6.711 15.875-15.136c.409 8.425 7.349 15.136 15.875 15.136s15.466-6.711 15.875-15.136c.409 8.425 7.349 15.136 15.875 15.136s15.466-6.711 15.875-15.136c.409 8.425 7.349 15.136 15.875 15.136s15.466-6.711 15.875-15.136c.409 8.425 7.349 15.136 15.875 15.136 8.789 0 15.914-7.125 15.914-15.914 0-.734-.07-4.548-.07-4.548z" fill="#d7e057"/></g></g><g><g><path d="m240.595 123.371c-.007-12.111-9.863-21.961-21.976-21.961h-181.308c-12.117 0-21.975 9.858-21.975 21.975v4.548c0 9.603 7.812 17.415 17.414 17.415 7.054 0 13.15-4.192 15.875-10.275 2.725 6.083 8.821 10.275 15.875 10.275s13.15-4.192 15.875-10.275c2.725 6.083 8.821 10.275 15.875 10.275s13.15-4.192 15.875-10.275c2.725 6.083 8.821 10.275 15.875 10.275s13.15-4.192 15.875-10.275c2.725 6.083 8.821 10.275 15.875 10.275s13.15-4.192 15.875-10.275c2.725 6.083 8.821 10.275 15.875 10.275s13.15-4.192 15.875-10.275c2.725 6.083 8.821 10.275 15.875 10.275 9.602 0 17.414-7.812 17.414-17.415 0-.713-.065-4.313-.069-4.562zm-17.345 18.976c-7.689 0-14.004-6.021-14.377-13.708-.038-.799-.698-1.427-1.498-1.427s-1.46.628-1.498 1.427c-.373 7.687-6.688 13.708-14.377 13.708s-14.004-6.021-14.377-13.708c-.038-.799-.698-1.427-1.498-1.427s-1.46.628-1.498 1.427c-.373 7.687-6.688 13.708-14.377 13.708s-14.004-6.021-14.377-13.708c-.038-.799-.698-1.427-1.498-1.427s-1.46.628-1.498 1.427c-.373 7.687-6.688 13.708-14.377 13.708s-14.004-6.021-14.377-13.708c-.039-.799-.698-1.427-1.498-1.427s-1.459.628-1.498 1.427c-.373 7.687-6.688 13.708-14.377 13.708s-14.004-6.021-14.377-13.708c-.038-.799-.698-1.427-1.498-1.427s-1.46.628-1.498 1.427c-.373 7.687-6.688 13.708-14.377 13.708s-14.004-6.021-14.377-13.708c-.039-.799-.698-1.427-1.498-1.427s-1.459.628-1.498 1.427c-.373 7.687-6.688 13.708-14.377 13.708-7.948 0-14.414-6.466-14.414-14.415v-4.548c0-10.463 8.512-18.975 18.975-18.975h181.308c10.463 0 18.976 8.512 18.976 18.975v.027s.069 3.791.069 4.521c0 7.949-6.466 14.415-14.414 14.415z" fill="#3a312a"/></g></g><g><g><path d="m237.59 123.41v-.03c0-10.46-8.51-18.97-18.97-18.97h-15c10.46 0 18.97 8.51 18.97 18.97v.03s.07 3.79.07 4.52c0 5.2-2.77 9.77-6.91 12.31 2.18 1.34 4.75 2.11 7.5 2.11 7.95 0 14.41-6.47 14.41-14.42 0-.73-.07-4.52-.07-4.52z" fill="#b9c239"/></g></g><g><g><path d="m225.86 145.13c-.85.13-1.72.22-2.61.22-3.83 0-7.38-1.25-10.26-3.35l-2.09 3.32c.2.95.31 1.94.31 2.95 0 6.87-4.76 12.66-11.15 14.23l-.27.42h11.77c8.08 0 14.65-6.57 14.65-14.65 0-1.08-.13-2.13-.35-3.14z" fill="#695b51"/></g></g></g></svg>