<svg id="Layer_1" enable-background="new 0 0 256 256" height="512" viewBox="0 0 256 256" width="512" xmlns="http://www.w3.org/2000/svg"><g><g><g><path d="m47.661 52.695c-.974 11.564-13.024 13.39-13.024 13.39 10.347.487 12.925 14.059 12.925 14.059.221-9.677 13.321-14.202 13.321-14.202-9.814-.588-13.222-13.247-13.222-13.247z" fill="#d7e057"/></g></g><g><g><path d="m60.972 64.444c-8.604-.514-11.832-12.024-11.863-12.14-.191-.703-.862-1.168-1.584-1.102-.725.066-1.298.642-1.359 1.367-.86 10.215-11.313 11.964-11.754 12.033-.763.115-1.313.79-1.273 1.561.04.77.657 1.384 1.428 1.421 9.028.425 11.499 12.718 11.523 12.842.137.711.759 1.217 1.472 1.217.041 0 .084-.002.126-.005.764-.064 1.357-.693 1.374-1.459.194-8.509 12.191-12.777 12.313-12.819.675-.235 1.092-.915.994-1.623-.099-.709-.683-1.25-1.397-1.293zm-13.565 10.346c-1.357-3.13-3.709-6.907-7.587-8.876 2.931-1.405 6.409-3.913 8.202-8.273 1.551 3.071 4.2 6.88 8.334 8.722-3.008 1.64-6.923 4.405-8.949 8.427z" fill="#3a312a"/></g></g><g><g><path d="m25.963 69.676c-.689 8.179-9.213 9.471-9.213 9.471 7.318.344 9.142 9.944 9.142 9.944.156-6.844 9.422-10.045 9.422-10.045-6.941-.416-9.351-9.37-9.351-9.37z" fill="#d7e057"/></g></g><g><g><path d="m35.404 77.548c-5.767-.345-7.973-8.186-7.994-8.265-.191-.702-.854-1.167-1.582-1.102-.726.065-1.299.642-1.36 1.368-.579 6.871-7.646 8.067-7.942 8.114-.763.115-1.313.79-1.273 1.561.04.77.657 1.384 1.428 1.421 6.035.284 7.723 8.644 7.739 8.725.135.713.759 1.22 1.472 1.22.042 0 .083-.001.125-.005.765-.063 1.358-.694 1.376-1.461.13-5.709 8.331-8.633 8.413-8.661.676-.234 1.094-.913.996-1.622-.099-.709-.683-1.25-1.398-1.293zm-9.585 6.795c-.924-1.886-2.34-3.947-4.447-5.28 1.855-1.041 3.697-2.63 4.87-4.916 1.057 1.874 2.655 3.955 4.941 5.224-1.849 1.1-3.988 2.739-5.364 4.972z" fill="#3a312a"/></g></g><g><g><path d="m25.963 43.018c-.689 8.179-9.213 9.471-9.213 9.471 7.318.344 9.142 9.944 9.142 9.944.156-6.845 9.422-10.045 9.422-10.045-6.941-.416-9.351-9.37-9.351-9.37z" fill="#d7e057"/></g></g><g><g><path d="m35.404 50.89c-5.767-.345-7.973-8.186-7.994-8.265-.191-.702-.854-1.168-1.582-1.102-.726.065-1.299.642-1.36 1.368-.579 6.871-7.646 8.067-7.942 8.114-.763.115-1.313.79-1.273 1.561.04.77.657 1.384 1.427 1.421 6.036.284 7.724 8.644 7.739 8.726.135.713.759 1.22 1.472 1.22.042 0 .083-.002.125-.005.765-.063 1.358-.694 1.376-1.461.13-5.709 8.331-8.634 8.413-8.662.676-.234 1.094-.913.996-1.622-.098-.708-.682-1.25-1.397-1.293zm-9.585 6.795c-.924-1.885-2.34-3.947-4.447-5.28 1.855-1.041 3.697-2.63 4.871-4.916 1.057 1.874 2.655 3.954 4.941 5.224-1.85 1.101-3.989 2.74-5.365 4.972z" fill="#3a312a"/></g></g><g><g><path d="m221.11 156.573c-1.31 0-2.59.14-3.82.4 2.38-3.09 3.82-6.96 3.82-11.16 0-10.12-8.21-18.32-18.32-18.32-3.27 0-6.34.86-8.99 2.36.6-1.81.93-3.74.93-5.75 0-10.12-8.2-18.32-18.32-18.32-5.42 0-10.27 2.37-13.63 6.11-.98-9.19-8.76-16.35-18.21-16.35-7.33 0-13.64 4.32-16.57 10.55-2.93-6.23-9.24-10.55-16.57-10.55-9.45 0-17.23 7.16-18.21 16.35-3.36-3.74-8.21-6.11-13.63-6.11-10.12 0-18.32 8.2-18.32 18.32 0 2.01.33 3.94.93 5.75-2.65-1.5-5.72-2.36-8.99-2.36-10.11 0-18.32 8.2-18.32 18.32 0 4.2 1.44 8.07 3.82 11.16-1.23-.26-2.51-.4-3.82-.4-10.11 0-18.32 8.2-18.32 18.32 0 8.71 6.09 16.01 14.25 17.86 9.4-45.05 49.34-78.89 97.18-78.89s87.78 33.84 97.18 78.89c8.16-1.85 14.25-9.15 14.25-17.86 0-10.12-8.21-18.32-18.32-18.32z" fill="#d7e057"/></g></g><g><g><path d="m221.11 155.073c-.273 0-.547.006-.82.017 1.525-2.849 2.32-6.003 2.32-9.277 0-10.929-8.892-19.82-19.82-19.82-2.328 0-4.635.412-6.804 1.205.162-1.022.244-2.056.244-3.094 0-10.929-8.892-19.82-19.82-19.82-4.632 0-9.109 1.648-12.654 4.594-2.217-8.631-10.014-14.834-19.186-14.834-6.698 0-12.94 3.453-16.57 8.986-3.63-5.534-9.872-8.986-16.57-8.986-9.172 0-16.969 6.204-19.186 14.835-3.545-2.946-8.023-4.595-12.654-4.595-10.929 0-19.82 8.892-19.82 19.82 0 1.039.082 2.072.244 3.094-2.169-.793-4.476-1.205-6.804-1.205-10.929 0-19.82 8.892-19.82 19.82 0 3.274.795 6.429 2.319 9.277-.273-.011-.546-.017-.819-.017-10.929 0-19.82 8.891-19.82 19.82 0 9.319 6.34 17.265 15.418 19.323.391.089.804.017 1.142-.201.339-.218.576-.562.658-.956 9.394-45.02 49.647-77.696 95.712-77.696s86.318 32.676 95.711 77.696c.083.394.319.738.658.956.243.156.525.238.811.238.11 0 .222-.012.332-.037 9.078-2.058 15.418-10.004 15.418-19.323 0-10.929-8.891-19.82-19.82-19.82zm5.2 35.815c-10.276-45.598-51.364-78.524-98.31-78.524-46.945 0-88.033 32.927-98.31 78.524-6.815-2.223-11.62-8.722-11.62-15.995 0-9.274 7.545-16.82 16.82-16.82 1.175 0 2.356.124 3.509.368.613.131 1.245-.136 1.58-.668s.302-1.216-.081-1.714c-2.295-2.98-3.508-6.523-3.508-10.245 0-9.275 7.545-16.82 16.82-16.82 2.894 0 5.748.749 8.251 2.166.54.306 1.212.247 1.691-.147s.667-1.042.471-1.63c-.567-1.71-.854-3.486-.854-5.278 0-9.275 7.545-16.82 16.82-16.82 4.749 0 9.31 2.045 12.515 5.612.395.441 1.012.605 1.578.425.563-.183.967-.679 1.03-1.268.912-8.557 8.1-15.009 16.718-15.009 6.473 0 12.444 3.803 15.212 9.688.247.526.776.862 1.357.862s1.11-.336 1.357-.862c2.768-5.885 8.739-9.688 15.213-9.688 8.618 0 15.806 6.453 16.719 15.009.063.589.466 1.086 1.029 1.268.567.182 1.182.016 1.578-.425 3.203-3.567 7.765-5.612 12.514-5.612 9.274 0 16.82 7.545 16.82 16.82 0 1.793-.287 3.569-.854 5.278-.195.589-.008 1.237.472 1.631.479.394 1.151.452 1.691.147 2.503-1.417 5.356-2.166 8.251-2.166 9.274 0 16.82 7.545 16.82 16.82 0 3.722-1.213 7.264-3.509 10.245-.384.498-.416 1.182-.081 1.714s.965.799 1.58.668c1.153-.244 2.334-.368 3.51-.368 9.274 0 16.819 7.546 16.819 16.82.002 7.272-4.803 13.771-11.618 15.994z" fill="#3a312a"/></g></g><g><g><path d="m225.272 193.152c-9.255-45.249-49.288-79.287-97.272-79.287s-88.017 34.039-97.272 79.287c-2.099 10.261 5.894 19.83 16.368 19.83h161.808c10.473 0 18.466-9.569 16.368-19.83z" fill="#fce8cb"/></g></g><g><g><path d="m226.741 192.852c-9.539-46.637-51.065-80.487-98.741-80.487-47.675 0-89.202 33.85-98.741 80.487-1.08 5.277.268 10.713 3.697 14.915 3.483 4.268 8.637 6.716 14.141 6.716h39.493c.829 0 1.5-.671 1.5-1.5s-.671-1.5-1.5-1.5h-39.494c-4.599 0-8.905-2.046-11.816-5.612-2.856-3.501-3.98-8.026-3.082-12.417 9.254-45.247 49.545-78.088 95.802-78.088s86.547 32.841 95.802 78.088c.898 4.391-.226 8.917-3.082 12.417-2.911 3.566-7.218 5.612-11.815 5.612h-107.485c-.829 0-1.5.671-1.5 1.5s.671 1.5 1.5 1.5h107.484c5.503 0 10.656-2.448 14.14-6.715 3.429-4.203 4.776-9.639 3.697-14.916z" fill="#3a312a"/></g></g><g><g><path d="m223.805 193.454c-9.26-45.25-49.55-78.09-95.8-78.09-2.58 0-5.14.1-7.67.31 42.98 3.39 79.4 35.05 88.14 77.78.89 4.39-.23 8.92-3.09 12.42-2.91 3.56-7.21 5.61-11.81 5.61h15.33c4.6 0 8.9-2.05 11.81-5.61 2.86-3.5 3.99-8.03 3.09-12.42z" fill="#decaad"/></g></g></g></svg>