<svg id="Layer_1" enable-background="new 0 0 256 256" height="512" viewBox="0 0 256 256" width="512" xmlns="http://www.w3.org/2000/svg"><g><g><g><path d="m47.411 26.188c-.974 11.564-13.025 13.39-13.025 13.39 10.347.487 12.925 14.059 12.925 14.059.221-9.677 13.321-14.202 13.321-14.202-9.813-.587-13.221-13.247-13.221-13.247z" fill="#d7e057"/></g></g><g><g><path d="m60.722 37.938c-8.604-.515-11.832-12.024-11.863-12.141-.191-.703-.861-1.164-1.583-1.102-.725.066-1.298.642-1.359 1.367-.86 10.215-11.313 11.964-11.754 12.032-.763.116-1.313.791-1.273 1.561.04.771.657 1.385 1.427 1.421 9.028.426 11.499 12.719 11.523 12.844.137.711.759 1.217 1.472 1.217.041 0 .084-.002.126-.005.764-.064 1.357-.693 1.374-1.46.194-8.51 12.191-12.778 12.313-12.82.675-.234 1.092-.914.994-1.622-.099-.709-.683-1.251-1.397-1.292zm-13.565 10.345c-1.357-3.131-3.708-6.907-7.587-8.876 2.931-1.405 6.409-3.913 8.202-8.273 1.551 3.071 4.2 6.88 8.334 8.723-3.008 1.639-6.923 4.405-8.949 8.426z" fill="#3a312a"/></g></g><g><g><path d="m25.713 43.169c-.689 8.179-9.213 9.471-9.213 9.471 7.318.344 9.142 9.944 9.142 9.944.156-6.844 9.422-10.045 9.422-10.045-6.941-.416-9.351-9.37-9.351-9.37z" fill="#d7e057"/></g></g><g><g><path d="m35.154 51.041c-5.766-.345-7.972-8.186-7.994-8.265-.19-.702-.851-1.167-1.582-1.102-.726.065-1.299.643-1.36 1.368-.579 6.871-7.646 8.066-7.942 8.113-.763.116-1.313.791-1.273 1.561.04.771.657 1.385 1.427 1.421 6.036.284 7.724 8.645 7.739 8.727.135.712.759 1.22 1.472 1.22.042 0 .083-.002.125-.005.765-.063 1.358-.693 1.376-1.461.13-5.709 8.332-8.634 8.413-8.662.677-.234 1.094-.913.996-1.622s-.682-1.251-1.397-1.293zm-9.585 6.795c-.924-1.886-2.34-3.947-4.447-5.279 1.856-1.041 3.697-2.63 4.871-4.917 1.057 1.874 2.654 3.955 4.941 5.224-1.85 1.1-3.989 2.74-5.365 4.972z" fill="#3a312a"/></g></g><g><g><path d="m25.713 16.511c-.689 8.179-9.213 9.471-9.213 9.471 7.318.344 9.142 9.944 9.142 9.944.156-6.844 9.422-10.045 9.422-10.045-6.941-.415-9.351-9.37-9.351-9.37z" fill="#d7e057"/></g></g><g><g><path d="m35.154 24.384c-5.766-.345-7.972-8.186-7.994-8.265-.19-.702-.851-1.168-1.582-1.102-.726.065-1.299.643-1.36 1.368-.579 6.87-7.647 8.066-7.942 8.113-.763.116-1.314.791-1.273 1.561.04.77.657 1.385 1.428 1.421 6.035.284 7.723 8.645 7.739 8.727.135.712.759 1.22 1.472 1.22.042 0 .083-.002.125-.005.765-.064 1.358-.693 1.376-1.461.13-5.709 8.332-8.634 8.413-8.662.677-.234 1.094-.913.996-1.622-.099-.709-.683-1.251-1.398-1.293zm-9.585 6.795c-.924-1.886-2.34-3.947-4.447-5.28 1.856-1.041 3.697-2.63 4.871-4.916 1.057 1.874 2.654 3.955 4.941 5.224-1.85 1.1-3.989 2.739-5.365 4.972z" fill="#3a312a"/></g></g><g><g><path d="m128 16.5c-10.85 0-21.33 1.55-31.24 4.44 3.56 3.77 5.74 8.84 5.74 14.43 0 10.18-7.23 18.68-16.85 20.61.55 2.42.85 4.93.85 7.52 0 18.23-14.77 33-33 33-11.28 0-21.24-5.66-27.19-14.29-6.3 13.97-9.81 29.47-9.81 45.79 0 23.689 7.394 45.649 19.991 63.709l8.025 10.191c20.427 23.06 50.255 37.6 83.484 37.6 61.58 0 111.5-49.92 111.5-111.5s-49.92-111.5-111.5-111.5z" fill="#f7e3c7"/></g></g><g><g><path d="m128 15c-10.769 0-21.421 1.514-31.66 4.499-.501.146-.891.543-1.028 1.047-.137.505-.002 1.044.357 1.424 3.438 3.64 5.331 8.399 5.331 13.4 0 9.271-6.58 17.32-15.645 19.14-.397.08-.745.316-.964.655-.22.34-.293.754-.203 1.148.539 2.371.812 4.789.812 7.187 0 17.369-14.131 31.5-31.5 31.5-10.363 0-20.066-5.1-25.955-13.642-.307-.446-.835-.689-1.37-.643-.539.049-1.01.384-1.232.878-6.598 14.629-9.943 30.242-9.943 46.407 0 23.237 7.006 45.564 20.26 64.567.474.68 1.409.846 2.088.372.68-.474.846-1.409.373-2.089-12.902-18.496-19.721-40.23-19.721-62.85 0-14.876 2.909-29.271 8.652-42.828 6.527 8.077 16.38 12.828 26.848 12.828 19.023 0 34.5-15.477 34.5-34.5 0-2.132-.197-4.276-.587-6.396 9.697-2.635 16.587-11.545 16.587-21.734 0-4.959-1.613-9.712-4.585-13.616 9.278-2.492 18.882-3.754 28.585-3.754 60.654 0 110 49.346 110 110s-49.346 110-110 110c-31.459 0-61.478-13.52-82.361-37.095-.549-.619-1.497-.677-2.117-.128-.62.55-.678 1.498-.128 2.118 21.451 24.216 52.289 38.105 84.606 38.105 62.309 0 113-50.691 113-113s-50.691-113-113-113z" fill="#3a312a"/></g></g><g><g><circle cx="146" cy="59" fill="#87796f" r="18.5"/></g></g><g><g><path d="m146 39c-11.028 0-20 8.972-20 20s8.972 20 20 20 20-8.972 20-20-8.972-20-20-20zm0 37c-9.374 0-17-7.626-17-17s7.626-17 17-17 17 7.626 17 17-7.626 17-17 17z" fill="#3a312a"/></g></g><g><g><circle cx="52" cy="141" fill="#87796f" r="18.5"/></g></g><g><g><path d="m52 121c-11.028 0-20 8.972-20 20s8.972 20 20 20 20-8.972 20-20-8.972-20-20-20zm0 37c-9.374 0-17-7.626-17-17s7.626-17 17-17 17 7.626 17 17-7.626 17-17 17z" fill="#3a312a"/></g></g><g><g><circle cx="186" cy="149" fill="#87796f" r="18.5"/></g></g><g><g><path d="m186 129c-11.028 0-20 8.972-20 20s8.972 20 20 20 20-8.972 20-20-8.972-20-20-20zm0 37c-9.374 0-17-7.626-17-17s7.626-17 17-17 17 7.626 17 17-7.626 17-17 17z" fill="#3a312a"/></g></g><g><g><circle cx="122" cy="164" fill="#87796f" r="18.5"/></g></g><g><g><path d="m122 144c-11.028 0-20 8.972-20 20s8.972 20 20 20 20-8.972 20-20-8.972-20-20-20zm0 37c-9.374 0-17-7.626-17-17s7.626-17 17-17 17 7.626 17 17-7.626 17-17 17z" fill="#3a312a"/></g></g><g><g><circle cx="109" cy="110" fill="#87796f" r="11.5"/></g></g><g><g><path d="m109 97c-7.169 0-13 5.832-13 13s5.831 13 13 13c7.168 0 13-5.832 13-13s-5.832-13-13-13zm0 23c-5.514 0-10-4.486-10-10s4.486-10 10-10 10 4.486 10 10-4.486 10-10 10z" fill="#3a312a"/></g></g><g><g><circle cx="176" cy="202" fill="#87796f" r="11.5"/></g></g><g><g><path d="m176 189c-7.169 0-13 5.832-13 13s5.831 13 13 13c7.168 0 13-5.832 13-13s-5.832-13-13-13zm0 23c-5.514 0-10-4.486-10-10s4.486-10 10-10 10 4.486 10 10-4.486 10-10 10z" fill="#3a312a"/></g></g><g><g><circle cx="92" cy="201" fill="#87796f" r="11.5"/></g></g><g><g><path d="m92 188c-7.169 0-13 5.832-13 13s5.831 13 13 13c7.168 0 13-5.832 13-13s-5.832-13-13-13zm0 23c-5.514 0-10-4.486-10-10s4.486-10 10-10 10 4.486 10 10-4.486 10-10 10z" fill="#3a312a"/></g></g><g><g><circle cx="193" cy="99" fill="#87796f" r="11.5"/></g></g><g><g><path d="m193 86c-7.169 0-13 5.832-13 13s5.831 13 13 13c7.168 0 13-5.832 13-13s-5.832-13-13-13zm0 23c-5.514 0-10-4.486-10-10s4.486-10 10-10 10 4.486 10 10-4.486 10-10 10z" fill="#3a312a"/></g></g><g><g><path d="m128 18c-2.51 0-5.01.09-7.51.26 57.17 3.86 102.51 51.61 102.51 109.74 0 32.54-14.2 61.82-36.74 81.97-1.09 1.4-2.46 2.58-4.04 3.44-.01.02-.02.03-.03.02-17.09 13.89-38.41 22.74-61.69 24.31 2.48.17 4.98.26 7.5.26 60.65 0 110-49.35 110-110s-49.35-110-110-110z" fill="#dcc8ab"/></g></g></g></svg>