<svg id="Layer_1" enable-background="new 0 0 256 256" height="512" viewBox="0 0 256 256" width="512" xmlns="http://www.w3.org/2000/svg"><g><g><g><path d="m47.536 26.305c-.974 11.564-13.024 13.39-13.024 13.39 10.347.487 12.925 14.06 12.925 14.06.221-9.677 13.321-14.203 13.321-14.203-9.814-.588-13.222-13.247-13.222-13.247z" fill="#d7e057"/></g></g><g><g><path d="m60.848 38.055c-8.604-.516-11.832-12.025-11.863-12.142-.191-.702-.854-1.156-1.584-1.102-.725.066-1.298.642-1.359 1.367-.859 10.216-11.313 11.964-11.754 12.032-.763.116-1.314.791-1.273 1.561.04.771.657 1.385 1.428 1.421 9.027.426 11.498 12.719 11.521 12.843.138.712.76 1.218 1.473 1.218.042 0 .084-.002.126-.005.764-.064 1.357-.693 1.375-1.46.194-8.509 12.191-12.777 12.313-12.819.676-.234 1.092-.914.994-1.622-.099-.708-.683-1.249-1.397-1.292zm-13.567 10.345c-1.356-3.131-3.708-6.908-7.586-8.877 2.931-1.404 6.408-3.913 8.201-8.273 1.551 3.071 4.2 6.881 8.334 8.723-3.006 1.64-6.922 4.406-8.949 8.427z" fill="#3a312a"/></g></g><g><g><path d="m25.838 43.285c-.689 8.18-9.213 9.471-9.213 9.471 7.318.344 9.142 9.944 9.142 9.944.156-6.844 9.422-10.045 9.422-10.045-6.941-.416-9.351-9.37-9.351-9.37z" fill="#d7e057"/></g></g><g><g><path d="m35.279 51.158c-5.767-.346-7.972-8.187-7.993-8.266-.191-.701-.863-1.158-1.582-1.102-.726.065-1.3.643-1.361 1.368-.579 6.871-7.646 8.066-7.942 8.113-.763.116-1.314.791-1.273 1.561.04.771.657 1.385 1.428 1.421 6.035.284 7.724 8.645 7.739 8.727.136.713.759 1.22 1.473 1.22.041 0 .083-.002.125-.005.765-.063 1.358-.693 1.376-1.461.13-5.709 8.331-8.633 8.411-8.661.677-.233 1.094-.913.997-1.622-.099-.709-.684-1.25-1.398-1.293zm-9.585 6.794c-.924-1.885-2.34-3.947-4.447-5.279 1.855-1.041 3.697-2.63 4.871-4.917 1.057 1.874 2.653 3.955 4.941 5.225-1.849 1.1-3.989 2.739-5.365 4.971z" fill="#3a312a"/></g></g><g><g><path d="m25.838 16.628c-.689 8.179-9.213 9.471-9.213 9.471 7.318.344 9.142 9.944 9.142 9.944.156-6.845 9.422-10.045 9.422-10.045-6.941-.416-9.351-9.37-9.351-9.37z" fill="#d7e057"/></g></g><g><g><path d="m35.279 24.5c-5.767-.345-7.972-8.185-7.993-8.265-.191-.701-.863-1.157-1.582-1.102-.726.065-1.3.643-1.361 1.368-.579 6.871-7.646 8.066-7.942 8.113-.763.116-1.314.791-1.273 1.561.04.771.657 1.385 1.428 1.421 6.035.284 7.724 8.644 7.739 8.726.136.713.759 1.22 1.473 1.22.041 0 .083-.002.125-.005.765-.063 1.358-.693 1.376-1.461.13-5.709 8.331-8.634 8.412-8.662.676-.234 1.093-.913.996-1.622-.099-.708-.684-1.25-1.398-1.292zm-9.585 6.795c-.924-1.885-2.34-3.947-4.447-5.279 1.855-1.041 3.697-2.63 4.871-4.917 1.057 1.874 2.654 3.955 4.941 5.224-1.849 1.1-3.989 2.74-5.365 4.972z" fill="#3a312a"/></g></g><g><g><circle cx="131.625" cy="131.622" fill="#87796f" r="107.75"/></g></g><g><g><path d="m131.625 22.372c-60.24 0-109.25 49.01-109.25 109.25s49.01 109.25 109.25 109.25 109.25-49.01 109.25-109.25-49.01-109.25-109.25-109.25zm0 215.5c-58.587 0-106.25-47.663-106.25-106.25s47.663-106.25 106.25-106.25 106.25 47.663 106.25 106.25-47.663 106.25-106.25 106.25z" fill="#3a312a"/></g></g><g><g><circle cx="131.625" cy="131.622" fill="#87796f" r="91.322"/></g></g><g><g><path d="m131.625 38.801c-51.183 0-92.822 41.64-92.822 92.821 0 51.183 41.64 92.822 92.822 92.822s92.821-41.64 92.821-92.822-41.639-92.821-92.821-92.821zm0 182.643c-49.528 0-89.822-40.294-89.822-89.822 0-49.527 40.294-89.821 89.822-89.821 49.527 0 89.821 40.294 89.821 89.821 0 49.528-40.294 89.822-89.821 89.822z" fill="#3a312a"/></g></g><g><g><circle cx="183.625" cy="131.622" fill="#f8e4c8" r="27.75"/></g></g><g><g><path d="m183.625 102.372c-16.129 0-29.25 13.121-29.25 29.25s13.121 29.25 29.25 29.25 29.25-13.121 29.25-29.25-13.121-29.25-29.25-29.25zm0 55.5c-14.475 0-26.25-11.775-26.25-26.25s11.775-26.25 26.25-26.25 26.25 11.775 26.25 26.25-11.775 26.25-26.25 26.25z" fill="#3a312a"/></g></g><g><g><circle cx="183.625" cy="131.622" fill="#f16c7a" r="20.195"/></g></g><g><g><path d="m183.625 109.927c-11.963 0-21.695 9.732-21.695 21.695s9.732 21.695 21.695 21.695 21.695-9.732 21.695-21.695-9.732-21.695-21.695-21.695zm0 40.39c-10.309 0-18.695-8.387-18.695-18.695s8.387-18.695 18.695-18.695 18.695 8.387 18.695 18.695-8.386 18.695-18.695 18.695z" fill="#3a312a"/></g></g><g><g><path d="m144.791 66.619c-20.943-9.382-44.893-9.39-65.842-.02l-.612.273v129.503l1.16.509c21.023 9.22 44.981 9.035 65.859-.509v-129.503z" fill="#f8e4c8"/></g></g><g><g><path d="m145.969 65.502-.564-.252c-21.309-9.547-45.755-9.554-67.067-.021l-.611.273c-.54.241-.888.777-.888 1.369v20.416c0 .828.672 1.5 1.5 1.5s1.5-.672 1.5-1.5v-19.442c20.363-9.015 43.658-9.012 64.02.001v127.561c-20.259 8.964-43.439 9.015-63.757.104l-.263-.115v-93.272c0-.828-.672-1.5-1.5-1.5s-1.5.672-1.5 1.5v94.253c0 .596.353 1.135.897 1.374l1.16.509c10.498 4.604 21.73 6.902 32.962 6.902 11.653-.001 23.306-2.477 34.124-7.421.533-.244.876-.777.876-1.364v-129.505c-.001-.592-.348-1.128-.889-1.37z" fill="#3a312a"/></g></g><g><g><path d="m79.404 66.872h-1.066v129.503h1.066c20.964 0 37.958-28.99 37.958-64.752 0-35.761-16.995-64.751-37.958-64.751z" fill="#f8e4c8"/></g></g><g><g><path d="m79.403 65.372h-1.065c-.828 0-1.5.672-1.5 1.5v20.416c0 .828.672 1.5 1.5 1.5s1.5-.672 1.5-1.5v-18.911c19.904.404 36.023 28.621 36.023 63.247s-16.119 62.843-36.023 63.247v-92.748c0-.828-.672-1.5-1.5-1.5s-1.5.672-1.5 1.5v94.253c0 .828.672 1.5 1.5 1.5h1.065c21.757 0 39.458-29.721 39.458-66.252s-17.701-66.252-39.458-66.252z" fill="#3a312a"/></g></g><g><g><path d="m144.292 66.872c-20.964 0-37.958 28.99-37.958 64.752 0 20.082 5.36 38.026 13.771 49.903l10.401 10.425c4.275 2.845 8.921 4.423 13.786 4.423h1.066v-129.503z" fill="#f8e4c8"/></g></g><g><g><path d="m145.357 65.372h-1.065c-21.757 0-39.458 29.721-39.458 66.252 0 19.66 5.12 38.165 14.046 50.771.48.675 1.415.835 2.092.357.676-.479.836-1.414.356-2.091-8.575-12.109-13.494-29.982-13.494-49.036 0-34.626 16.119-62.843 36.023-63.247v126.494c-4.286-.088-8.496-1.489-12.521-4.167-.689-.457-1.62-.273-2.08.418-.459.689-.271 1.621.418 2.08 4.661 3.102 9.579 4.674 14.617 4.674h1.065c.828 0 1.5-.672 1.5-1.5v-129.505c.001-.828-.67-1.5-1.499-1.5z" fill="#3a312a"/></g></g><g><g><path d="m131.625 41.802c-2.53 0-5.03.1-7.5.31 38.96 3.24 70.94 31.44 79.84 68.53 5.49 5.3 8.91 12.75 8.91 20.98s-3.42 15.68-8.91 20.98c-8.9 37.09-40.88 65.29-79.84 68.53 2.47.21 4.97.31 7.5.31 49.53 0 89.82-40.29 89.82-89.82s-40.29-89.82-89.82-89.82z" fill="#695b51"/></g></g></g></svg>