<svg id="Layer_1" enable-background="new 0 0 256 256" height="512" viewBox="0 0 256 256" width="512" xmlns="http://www.w3.org/2000/svg"><g><g><g><path d="m47.661 26.206c-.974 11.564-13.024 13.39-13.024 13.39 10.347.487 12.925 14.059 12.925 14.059.221-9.677 13.321-14.203 13.321-14.203-9.814-.586-13.222-13.246-13.222-13.246z" fill="#d7e057"/></g></g><g><g><path d="m60.973 37.955c-8.604-.514-11.832-12.024-11.863-12.14-.191-.702-.854-1.158-1.584-1.101-.725.066-1.298.642-1.359 1.367-.859 10.215-11.313 11.964-11.754 12.033-.763.115-1.314.79-1.273 1.561.04.77.657 1.384 1.428 1.421 9.027.425 11.498 12.718 11.521 12.842.138.711.76 1.217 1.473 1.217.042 0 .084-.001.126-.005.764-.064 1.357-.693 1.375-1.459.194-8.509 12.191-12.777 12.313-12.819.676-.235 1.092-.914.994-1.622-.1-.711-.683-1.252-1.397-1.295zm-13.567 10.346c-1.356-3.13-3.709-6.907-7.587-8.876 2.931-1.405 6.409-3.913 8.202-8.273 1.551 3.071 4.2 6.88 8.334 8.722-3.006 1.64-6.922 4.406-8.949 8.427z" fill="#3a312a"/></g></g><g><g><path d="m25.963 43.187c-.689 8.179-9.213 9.471-9.213 9.471 7.318.344 9.142 9.944 9.142 9.944.156-6.844 9.422-10.045 9.422-10.045-6.941-.416-9.351-9.37-9.351-9.37z" fill="#d7e057"/></g></g><g><g><path d="m35.404 51.059c-5.767-.345-7.972-8.186-7.993-8.265-.191-.702-.864-1.16-1.582-1.101-.726.065-1.3.642-1.361 1.368-.579 6.871-7.646 8.067-7.942 8.114-.763.115-1.314.79-1.273 1.561.04.77.657 1.384 1.428 1.421 6.035.284 7.724 8.644 7.739 8.726.136.712.759 1.22 1.473 1.22.041 0 .083-.002.125-.005.765-.063 1.358-.694 1.376-1.461.13-5.709 8.331-8.633 8.412-8.661.676-.234 1.093-.913.996-1.622-.099-.71-.684-1.252-1.398-1.295zm-9.585 6.795c-.924-1.886-2.34-3.947-4.447-5.28 1.855-1.041 3.697-2.63 4.871-4.917 1.057 1.874 2.654 3.955 4.941 5.224-1.849 1.101-3.989 2.741-5.365 4.973z" fill="#3a312a"/></g></g><g><g><path d="m25.963 16.529c-.689 8.18-9.213 9.471-9.213 9.471 7.318.344 9.142 9.944 9.142 9.944.156-6.845 9.422-10.045 9.422-10.045-6.941-.416-9.351-9.37-9.351-9.37z" fill="#d7e057"/></g></g><g><g><path d="m35.404 24.401c-5.767-.345-7.972-8.186-7.993-8.265-.191-.702-.864-1.159-1.582-1.101-.726.065-1.3.642-1.361 1.368-.579 6.871-7.646 8.067-7.942 8.114-.763.115-1.314.79-1.273 1.561.04.77.657 1.384 1.428 1.421 6.035.284 7.724 8.644 7.739 8.726.136.712.759 1.22 1.473 1.22.041 0 .083-.001.125-.005.765-.063 1.358-.694 1.376-1.461.13-5.71 8.331-8.634 8.412-8.662.676-.234 1.093-.913.996-1.622-.099-.709-.684-1.251-1.398-1.294zm-9.585 6.796c-.924-1.886-2.34-3.947-4.447-5.28 1.855-1.042 3.697-2.63 4.871-4.917 1.057 1.874 2.654 3.954 4.941 5.224-1.849 1.101-3.989 2.74-5.365 4.973z" fill="#3a312a"/></g></g><g><g><path d="m16.56 192.548c0 19.436 15.756 35.192 35.192 35.192h152.497c19.436 0 35.192-15.756 35.192-35.192z" fill="#fce8cb"/></g></g><g><g><path d="m239.44 191.048h-222.88c-.828 0-1.5.671-1.5 1.5 0 20.232 16.46 36.692 36.692 36.692h4.53c.828 0 1.5-.671 1.5-1.5s-.672-1.5-1.5-1.5h-4.53c-18.076 0-32.872-14.307-33.659-32.192h219.814c-.787 17.885-15.583 32.192-33.659 32.192h-133.031c-.828 0-1.5.671-1.5 1.5s.672 1.5 1.5 1.5h133.031c20.232 0 36.692-16.46 36.692-36.692 0-.828-.671-1.5-1.5-1.5z" fill="#3a312a"/></g></g><g><g><path d="m80.807 227.74h94.387v11.731h-94.387z" fill="#fce8cb"/></g></g><g><g><path d="m175.193 226.24h-94.386c-.828 0-1.5.671-1.5 1.5v11.73c0 .829.672 1.5 1.5 1.5h94.387c.828 0 1.5-.671 1.5-1.5v-11.73c-.001-.828-.673-1.5-1.501-1.5zm-1.5 11.731h-91.386v-8.73h91.387v8.73z" fill="#3a312a"/></g></g><g><g><path d="m223.46 194.05c-.79 17.88-15.58 32.19-33.66 32.19h14.45c18.07 0 32.87-14.31 33.66-32.19z" fill="#decaad"/></g></g><g><g><path d="m113.047 171.073c2.999-2.339 4.938-5.981 4.938-10.076 0-4.669-2.513-8.738-6.242-10.972 1.93-2.243 3.104-5.147 3.104-8.338 0-3.699-1.57-7.019-4.08-9.348-1.815-1.685-4.236-2.565-6.712-2.565h-70.109c-2.476 0-4.897.88-6.712 2.565-2.51 2.329-4.08 5.649-4.08 9.348 0 3.191 1.174 6.095 3.104 8.338-3.73 2.234-6.242 6.303-6.242 10.972 0 4.095 1.939 7.738 4.938 10.076-3.634 2.261-6.068 6.277-6.068 10.868v.119c.05 5.419 4.624 9.714 10.043 9.714h80.144c5.419 0 9.993-4.295 10.043-9.714 0-.04 0-.079 0-.119-.001-4.59-2.435-8.607-6.069-10.868z" fill="#d7e057"/></g></g><g><g><path d="m115.435 170.946c2.595-2.654 4.051-6.186 4.051-9.949 0-4.502-2.063-8.626-5.591-11.322 1.591-2.355 2.452-5.136 2.452-7.988 0-3.95-1.662-7.758-4.56-10.448-2.061-1.912-4.808-2.965-7.733-2.965h-70.109c-2.926 0-5.672 1.053-7.732 2.965-2.898 2.689-4.56 6.497-4.56 10.448 0 2.852.861 5.633 2.452 7.988-3.528 2.697-5.591 6.82-5.591 11.322 0 3.764 1.456 7.296 4.05 9.95-3.274 2.704-5.18 6.689-5.18 10.994l.001.132c.057 6.176 5.234 11.201 11.542 11.201h80.145c6.308 0 11.485-5.024 11.542-11.177l.001-.156c0-4.305-1.906-8.291-5.18-10.995zm2.179 11.1c-.042 4.537-3.874 8.228-8.542 8.228h-80.144c-4.668 0-8.5-3.691-8.542-8.251l-.001-.082c0-3.919 2.004-7.506 5.36-9.594.417-.259.68-.705.706-1.194.025-.49-.19-.961-.576-1.262-2.771-2.16-4.36-5.401-4.36-8.893 0-3.997 2.061-7.617 5.513-9.686.38-.227.64-.61.71-1.047.071-.437-.055-.882-.344-1.217-1.767-2.055-2.74-4.669-2.74-7.36 0-3.164 1.278-6.094 3.601-8.248 1.504-1.396 3.525-2.165 5.691-2.165h70.108c2.167 0 4.188.769 5.692 2.165 2.322 2.154 3.601 5.084 3.601 8.248 0 2.691-.974 5.305-2.74 7.36-.289.335-.415.781-.344 1.217.07.437.33.82.71 1.047 3.452 2.068 5.513 5.689 5.513 9.686 0 3.491-1.59 6.732-4.36 8.893-.387.302-.602.773-.576 1.262.026.49.289.936.706 1.194 3.356 2.088 5.36 5.675 5.36 9.594z" fill="#3a312a"/></g></g><g><g><path d="m69.031 129.774h-.062l-2.89 62h5.845z" fill="#fce8cb"/></g></g><g><g><path d="m70.529 129.704c-.037-.8-.76-1.43-1.56-1.43-.802 0-1.461.63-1.498 1.43l-2.89 62c-.02.41.13.809.413 1.105s.675.464 1.085.464h5.845c.41 0 .802-.168 1.085-.464s.433-.696.413-1.105zm-2.879 60.57 1.351-28.968 1.352 28.968z" fill="#3a312a"/></g></g><g><g><path d="m84.841 143.913c-.586-.586-1.535-.586-2.121 0l-13.259 13.258c-.586.585-.586 1.535 0 2.121.293.293.677.439 1.061.439s.768-.146 1.061-.439l13.259-13.258c.585-.585.585-1.535-.001-2.121z" fill="#3a312a"/></g></g><g><g><path d="m85.927 167.387c-.586-.586-1.535-.586-2.121 0l-13.258 13.258c-.586.586-.586 1.536 0 2.121.293.293.677.439 1.061.439s.768-.146 1.061-.439l13.258-13.258c.585-.586.585-1.535-.001-2.121z" fill="#3a312a"/></g></g><g><g><path d="m68.395 157.171-13.259-13.258c-.586-.586-1.535-.586-2.121 0s-.586 1.536 0 2.121l13.259 13.258c.293.293.677.439 1.061.439s.768-.146 1.061-.439c.584-.586.584-1.535-.001-2.121z" fill="#3a312a"/></g></g><g><g><path d="m67.308 180.645-13.259-13.258c-.586-.586-1.535-.586-2.121 0s-.586 1.536 0 2.121l13.259 13.258c.293.293.677.439 1.061.439s.768-.146 1.061-.439c.585-.585.585-1.535-.001-2.121z" fill="#3a312a"/></g></g><g><g><path d="m172.047 171.073c2.999-2.339 4.938-5.981 4.938-10.076 0-4.669-2.513-8.738-6.242-10.972 1.93-2.243 3.104-5.147 3.104-8.338 0-3.699-1.571-7.019-4.08-9.348-1.815-1.685-4.236-2.565-6.712-2.565h-70.109c-2.476 0-4.897.88-6.712 2.565-2.51 2.329-4.08 5.649-4.08 9.348 0 3.191 1.174 6.095 3.104 8.338-3.73 2.234-6.242 6.303-6.242 10.972 0 4.095 1.939 7.738 4.938 10.076-3.634 2.261-6.068 6.277-6.068 10.868v.119c.05 5.419 4.624 9.714 10.043 9.714h80.144c5.419 0 9.993-4.295 10.043-9.714 0-.04.001-.079.001-.119-.002-4.59-2.436-8.607-6.07-10.868z" fill="#d7e057"/></g></g><g><g><path d="m174.435 170.946c2.595-2.654 4.051-6.186 4.051-9.949 0-4.502-2.063-8.626-5.591-11.322 1.591-2.355 2.452-5.136 2.452-7.988 0-3.95-1.662-7.758-4.56-10.448-2.061-1.912-4.808-2.965-7.733-2.965h-70.109c-2.926 0-5.672 1.053-7.732 2.965-2.897 2.689-4.56 6.497-4.56 10.448 0 2.852.861 5.633 2.452 7.988-3.528 2.697-5.591 6.82-5.591 11.322 0 3.764 1.456 7.296 4.05 9.95-3.273 2.704-5.18 6.689-5.18 10.994l.001.132c.057 6.176 5.234 11.201 11.542 11.201h80.145c6.308 0 11.485-5.024 11.542-11.177l.001-.156c0-4.305-1.906-8.291-5.18-10.995zm2.179 11.1c-.042 4.537-3.874 8.228-8.542 8.228h-80.144c-4.668 0-8.5-3.691-8.542-8.251l-.001-.082c0-3.919 2.004-7.506 5.36-9.594.417-.259.68-.705.706-1.194.025-.49-.189-.961-.576-1.262-2.771-2.16-4.36-5.401-4.36-8.893 0-3.997 2.061-7.617 5.513-9.686.38-.227.64-.61.71-1.047.071-.437-.055-.882-.344-1.217-1.767-2.055-2.74-4.669-2.74-7.36 0-3.164 1.278-6.094 3.601-8.248 1.504-1.396 3.525-2.165 5.691-2.165h70.108c2.167 0 4.189.769 5.692 2.165 2.322 2.154 3.601 5.084 3.601 8.248 0 2.691-.974 5.305-2.74 7.36-.289.335-.415.781-.344 1.217.07.437.33.82.71 1.047 3.452 2.068 5.513 5.689 5.513 9.686 0 3.491-1.59 6.732-4.36 8.893-.387.302-.602.773-.576 1.262.026.49.289.936.706 1.194 3.356 2.088 5.36 5.675 5.36 9.594z" fill="#3a312a"/></g></g><g><g><path d="m128.031 129.774h-.062l-2.89 62h5.845z" fill="#fce8cb"/></g></g><g><g><path d="m129.529 129.704c-.037-.8-.76-1.43-1.56-1.43-.802 0-1.461.63-1.498 1.43l-2.89 62c-.02.41.13.809.413 1.105s.675.464 1.085.464h5.845c.41 0 .802-.168 1.085-.464s.433-.696.413-1.105zm-2.879 60.57 1.351-28.968 1.351 28.968z" fill="#3a312a"/></g></g><g><g><path d="m143.841 143.913c-.586-.586-1.535-.586-2.121 0l-13.259 13.258c-.586.585-.586 1.535 0 2.121.293.293.677.439 1.061.439s.768-.146 1.061-.439l13.259-13.258c.585-.585.585-1.535-.001-2.121z" fill="#3a312a"/></g></g><g><g><path d="m144.927 167.387c-.586-.586-1.535-.586-2.121 0l-13.258 13.258c-.586.586-.586 1.536 0 2.121.293.293.677.439 1.061.439s.768-.146 1.061-.439l13.258-13.258c.585-.586.585-1.535-.001-2.121z" fill="#3a312a"/></g></g><g><g><path d="m127.395 157.171-13.259-13.258c-.586-.586-1.535-.586-2.121 0s-.586 1.536 0 2.121l13.259 13.258c.293.293.677.439 1.061.439s.768-.146 1.061-.439c.584-.586.584-1.535-.001-2.121z" fill="#3a312a"/></g></g><g><g><path d="m126.308 180.645-13.259-13.258c-.586-.586-1.535-.586-2.121 0s-.586 1.536 0 2.121l13.259 13.258c.293.293.677.439 1.061.439s.768-.146 1.061-.439c.585-.585.585-1.535-.001-2.121z" fill="#3a312a"/></g></g><g><g><path d="m231.047 171.073c2.999-2.339 4.938-5.981 4.938-10.076 0-4.669-2.513-8.738-6.242-10.972 1.93-2.243 3.104-5.147 3.104-8.338 0-3.699-1.571-7.019-4.08-9.348-1.815-1.685-4.236-2.565-6.712-2.565h-70.108c-2.476 0-4.897.88-6.712 2.565-2.51 2.329-4.08 5.649-4.08 9.348 0 3.191 1.174 6.095 3.104 8.338-3.73 2.234-6.242 6.303-6.242 10.972 0 4.095 1.939 7.738 4.938 10.076-3.634 2.261-6.068 6.277-6.068 10.868 0 .04 0 .08.001.119.05 5.419 4.624 9.714 10.043 9.714h80.144c5.419 0 9.993-4.295 10.043-9.714 0-.04.001-.079.001-.119-.004-4.59-2.438-8.607-6.072-10.868z" fill="#d7e057"/></g></g><g><g><path d="m233.435 170.946c2.595-2.654 4.051-6.186 4.051-9.949 0-4.502-2.063-8.626-5.591-11.322 1.591-2.355 2.452-5.136 2.452-7.988 0-3.95-1.662-7.758-4.56-10.448-2.061-1.912-4.808-2.965-7.733-2.965h-70.108c-2.926 0-5.672 1.053-7.732 2.965-2.898 2.689-4.56 6.497-4.56 10.448 0 2.852.861 5.633 2.452 7.988-3.528 2.697-5.591 6.82-5.591 11.322 0 3.764 1.456 7.296 4.05 9.95-3.273 2.704-5.18 6.689-5.18 10.994l.001.132c.057 6.176 5.234 11.201 11.542 11.201h80.145c6.308 0 11.485-5.024 11.542-11.177l.001-.156c-.001-4.305-1.907-8.291-5.181-10.995zm2.179 11.1c-.042 4.537-3.874 8.228-8.542 8.228h-80.145c-4.668 0-8.5-3.691-8.542-8.251l-.001-.082c0-3.919 2.004-7.506 5.36-9.594.417-.259.68-.705.706-1.194.025-.49-.189-.961-.576-1.262-2.77-2.16-4.36-5.401-4.36-8.893 0-3.997 2.061-7.617 5.513-9.686.38-.227.64-.61.71-1.047.071-.437-.055-.882-.344-1.217-1.767-2.055-2.74-4.669-2.74-7.36 0-3.164 1.278-6.094 3.601-8.248 1.504-1.396 3.525-2.165 5.691-2.165h70.108c2.167 0 4.189.769 5.692 2.165 2.322 2.154 3.601 5.084 3.601 8.248 0 2.691-.974 5.305-2.74 7.36-.289.335-.415.781-.344 1.217.07.437.33.82.71 1.047 3.452 2.068 5.513 5.689 5.513 9.686 0 3.491-1.59 6.732-4.36 8.893-.387.302-.602.773-.576 1.262.026.49.289.936.706 1.194 3.356 2.088 5.36 5.675 5.36 9.594z" fill="#3a312a"/></g></g><g><g><path d="m187.031 129.774h-.062l-2.89 62h5.845z" fill="#fce8cb"/></g></g><g><g><path d="m188.529 129.704c-.037-.8-.76-1.43-1.561-1.43-.802 0-1.461.63-1.498 1.43l-2.89 62c-.02.41.13.809.413 1.105s.675.464 1.085.464h5.845c.41 0 .802-.168 1.085-.464s.433-.696.413-1.105zm-2.879 60.57 1.351-28.968 1.351 28.968z" fill="#3a312a"/></g></g><g><g><path d="m202.841 143.913c-.586-.586-1.535-.586-2.121 0l-13.259 13.258c-.586.585-.586 1.535 0 2.121.293.293.677.439 1.061.439s.768-.146 1.061-.439l13.259-13.258c.585-.585.585-1.535-.001-2.121z" fill="#3a312a"/></g></g><g><g><path d="m203.927 167.387c-.586-.586-1.535-.586-2.121 0l-13.258 13.258c-.586.586-.586 1.536 0 2.121.293.293.677.439 1.061.439s.768-.146 1.061-.439l13.258-13.258c.585-.586.585-1.535-.001-2.121z" fill="#3a312a"/></g></g><g><g><path d="m186.395 157.171-13.259-13.258c-.586-.586-1.535-.586-2.121 0s-.586 1.536 0 2.121l13.259 13.258c.293.293.677.439 1.061.439s.768-.146 1.061-.439c.584-.586.584-1.535-.001-2.121z" fill="#3a312a"/></g></g><g><g><path d="m185.308 180.645-13.259-13.258c-.586-.586-1.535-.586-2.121 0s-.586 1.536 0 2.121l13.259 13.258c.293.293.677.439 1.061.439s.768-.146 1.061-.439c.585-.585.585-1.535-.001-2.121z" fill="#3a312a"/></g></g><g><g><path d="m142.547 109.073c2.999-2.339 4.938-5.981 4.938-10.076 0-4.669-2.513-8.738-6.242-10.972 1.93-2.243 3.104-5.147 3.104-8.338 0-3.699-1.571-7.019-4.08-9.348-1.815-1.685-4.236-2.565-6.712-2.565h-70.109c-2.476 0-4.897.88-6.712 2.565-2.51 2.329-4.08 5.649-4.08 9.348 0 3.191 1.174 6.095 3.104 8.338-3.73 2.234-6.242 6.303-6.242 10.972 0 4.095 1.939 7.738 4.938 10.076-3.634 2.261-6.068 6.277-6.068 10.868v.119c.05 5.419 4.624 9.714 10.043 9.714h80.144c5.419 0 9.993-4.295 10.043-9.714 0-.039.001-.079.001-.119-.002-4.59-2.436-8.607-6.07-10.868z" fill="#d7e057"/></g></g><g><g><path d="m144.935 108.946c2.595-2.654 4.051-6.186 4.051-9.949 0-4.502-2.063-8.626-5.591-11.322 1.591-2.354 2.452-5.136 2.452-7.988 0-3.95-1.662-7.758-4.56-10.448-2.061-1.912-4.808-2.965-7.733-2.965h-70.109c-2.926 0-5.672 1.053-7.732 2.965-2.897 2.689-4.56 6.497-4.56 10.448 0 2.852.861 5.633 2.452 7.988-3.528 2.697-5.591 6.82-5.591 11.322 0 3.764 1.456 7.296 4.05 9.95-3.273 2.704-5.18 6.689-5.18 10.994l.001.132c.057 6.176 5.234 11.201 11.542 11.201h80.145c6.308 0 11.485-5.024 11.542-11.177l.001-.156c0-4.305-1.906-8.291-5.18-10.995zm2.179 11.1c-.042 4.537-3.874 8.228-8.542 8.228h-80.144c-4.668 0-8.5-3.691-8.542-8.251l-.001-.082c0-3.919 2.004-7.506 5.36-9.594.417-.259.68-.705.706-1.194.025-.49-.189-.961-.576-1.262-2.771-2.16-4.36-5.401-4.36-8.893 0-3.997 2.061-7.617 5.513-9.686.38-.227.64-.61.71-1.047.071-.437-.055-.882-.344-1.217-1.767-2.055-2.74-4.668-2.74-7.36 0-3.164 1.278-6.094 3.601-8.248 1.504-1.396 3.525-2.165 5.691-2.165h70.108c2.167 0 4.189.769 5.692 2.165 2.322 2.154 3.601 5.084 3.601 8.248 0 2.691-.974 5.305-2.74 7.36-.289.335-.415.781-.344 1.217.07.437.33.82.71 1.047 3.452 2.068 5.513 5.689 5.513 9.686 0 3.491-1.59 6.732-4.36 8.893-.387.302-.602.773-.576 1.262.026.49.289.936.706 1.194 3.356 2.088 5.36 5.675 5.36 9.594z" fill="#3a312a"/></g></g><g><g><path d="m98.531 67.774h-.062l-2.89 62h5.845z" fill="#fce8cb"/></g></g><g><g><path d="m100.029 67.704c-.037-.8-.76-1.43-1.56-1.43-.802 0-1.461.63-1.498 1.43l-2.89 62c-.02.41.13.809.413 1.105s.675.464 1.085.464h5.845c.41 0 .802-.168 1.085-.464s.433-.696.413-1.105zm-2.879 60.57 1.351-28.968 1.352 28.968z" fill="#3a312a"/></g></g><g><g><path d="m114.341 81.913c-.586-.586-1.535-.586-2.121 0l-13.259 13.258c-.586.585-.586 1.535 0 2.121.293.293.677.439 1.061.439s.768-.146 1.061-.439l13.259-13.258c.585-.585.585-1.535-.001-2.121z" fill="#3a312a"/></g></g><g><g><path d="m115.427 105.387c-.586-.586-1.535-.586-2.121 0l-13.258 13.258c-.586.586-.586 1.536 0 2.121.293.293.677.439 1.061.439s.768-.146 1.061-.439l13.258-13.258c.585-.586.585-1.535-.001-2.121z" fill="#3a312a"/></g></g><g><g><path d="m97.895 95.171-13.259-13.258c-.586-.586-1.535-.586-2.121 0s-.586 1.536 0 2.121l13.259 13.258c.293.293.677.439 1.061.439s.768-.146 1.061-.439c.584-.586.584-1.535-.001-2.121z" fill="#3a312a"/></g></g><g><g><path d="m96.808 118.646-13.259-13.258c-.586-.586-1.535-.586-2.121 0s-.586 1.536 0 2.121l13.259 13.258c.293.293.677.439 1.061.439s.768-.146 1.061-.439c.585-.586.585-1.536-.001-2.121z" fill="#3a312a"/></g></g><g><g><path d="m201.547 109.073c2.999-2.339 4.938-5.981 4.938-10.076 0-4.669-2.513-8.738-6.242-10.972 1.93-2.243 3.104-5.147 3.104-8.338 0-3.699-1.571-7.019-4.08-9.348-1.815-1.685-4.236-2.565-6.712-2.565h-70.108c-2.476 0-4.897.88-6.712 2.565-2.51 2.329-4.08 5.649-4.08 9.348 0 3.191 1.174 6.095 3.104 8.338-3.73 2.234-6.242 6.303-6.242 10.972 0 4.095 1.939 7.737 4.938 10.076-3.634 2.261-6.068 6.277-6.068 10.868v.119c.05 5.419 4.624 9.714 10.043 9.714h80.144c5.419 0 9.993-4.295 10.043-9.714 0-.04.001-.08.001-.119-.003-4.59-2.437-8.607-6.071-10.868z" fill="#d7e057"/></g></g><g><g><path d="m203.935 108.946c2.595-2.654 4.051-6.186 4.051-9.949 0-4.502-2.063-8.626-5.591-11.322 1.591-2.354 2.452-5.136 2.452-7.988 0-3.951-1.662-7.759-4.561-10.447-2.06-1.913-4.806-2.966-7.732-2.966h-9.383c-.828 0-1.5.671-1.5 1.5s.672 1.5 1.5 1.5h9.383c2.167 0 4.189.769 5.691 2.165 2.322 2.154 3.602 5.084 3.602 8.248 0 2.691-.974 5.305-2.74 7.36-.289.335-.415.781-.344 1.217.07.437.33.82.71 1.047 3.452 2.068 5.513 5.689 5.513 9.686 0 3.491-1.59 6.732-4.36 8.893-.387.302-.602.773-.576 1.262.026.49.289.936.706 1.194 3.356 2.088 5.36 5.675 5.36 9.594v.105c-.042 4.537-3.875 8.228-8.543 8.228h-80.144c-4.669 0-8.501-3.691-8.543-8.227 0-.008-.001-.098-.001-.105 0-3.919 2.004-7.506 5.36-9.594.417-.259.68-.705.706-1.194.025-.49-.189-.961-.576-1.262-2.771-2.16-4.36-5.401-4.36-8.893 0-3.997 2.062-7.617 5.514-9.686.38-.227.64-.61.71-1.047.071-.437-.055-.882-.344-1.218-1.768-2.054-2.741-4.668-2.741-7.359 0-3.164 1.278-6.094 3.601-8.248 1.504-1.396 3.525-2.165 5.691-2.165h46.384c.828 0 1.5-.671 1.5-1.5s-.672-1.5-1.5-1.5h-46.384c-2.926 0-5.672 1.053-7.732 2.965-2.897 2.689-4.56 6.497-4.56 10.448 0 2.852.861 5.634 2.452 7.988-3.528 2.697-5.591 6.82-5.591 11.322 0 3.764 1.456 7.296 4.05 9.95-3.273 2.704-5.18 6.689-5.18 10.994l.001.133c.057 6.176 5.235 11.2 11.543 11.2h80.144c6.307 0 11.485-5.024 11.543-11.214v-.119c-.001-4.306-1.907-8.292-5.181-10.996z" fill="#3a312a"/></g></g><g><g><path d="m157.531 67.774h-.062l-2.89 62h5.845z" fill="#fce8cb"/></g></g><g><g><path d="m159.029 67.704c-.037-.8-.76-1.43-1.561-1.43-.802 0-1.461.63-1.498 1.43l-2.89 62c-.02.41.13.809.413 1.105s.675.464 1.085.464h5.845c.41 0 .802-.168 1.085-.464s.433-.696.413-1.105zm-2.879 60.57 1.351-28.968 1.351 28.968z" fill="#3a312a"/></g></g><g><g><path d="m173.341 81.913c-.586-.586-1.535-.586-2.121 0l-13.259 13.258c-.586.585-.586 1.535 0 2.121.293.293.677.439 1.061.439s.768-.146 1.061-.439l13.259-13.258c.585-.585.585-1.535-.001-2.121z" fill="#3a312a"/></g></g><g><g><path d="m174.427 105.387c-.586-.586-1.535-.586-2.121 0l-13.258 13.258c-.586.586-.586 1.536 0 2.121.293.293.677.439 1.061.439s.768-.146 1.061-.439l13.258-13.258c.585-.586.585-1.535-.001-2.121z" fill="#3a312a"/></g></g><g><g><path d="m156.895 95.171-13.259-13.258c-.586-.586-1.535-.586-2.121 0s-.586 1.536 0 2.121l13.259 13.258c.293.293.677.439 1.061.439s.768-.146 1.061-.439c.584-.586.584-1.535-.001-2.121z" fill="#3a312a"/></g></g><g><g><path d="m155.808 118.646-13.259-13.258c-.586-.586-1.535-.586-2.121 0s-.586 1.536 0 2.121l13.259 13.258c.293.293.677.439 1.061.439s.768-.146 1.061-.439c.585-.586.585-1.536-.001-2.121z" fill="#3a312a"/></g></g></g></svg>