<svg id="Layer_1" enable-background="new 0 0 256 256" height="512" viewBox="0 0 256 256" width="512" xmlns="http://www.w3.org/2000/svg"><g><g><g><path d="m47.786 27.273c-.974 11.564-13.025 13.39-13.025 13.39 10.347.487 12.925 14.059 12.925 14.059.221-9.677 13.321-14.202 13.321-14.202-9.813-.588-13.221-13.247-13.221-13.247z" fill="#d7e057"/></g></g><g><g><path d="m61.098 39.022c-8.605-.515-11.832-12.024-11.864-12.141-.19-.702-.846-1.166-1.583-1.101-.725.066-1.298.642-1.359 1.367-.86 10.215-11.313 11.964-11.754 12.033-.763.115-1.313.79-1.273 1.561.04.77.657 1.384 1.428 1.421 9.028.425 11.498 12.718 11.522 12.842.137.711.759 1.217 1.472 1.217.042 0 .085-.001.127-.005.764-.064 1.357-.693 1.374-1.459.195-8.508 12.192-12.777 12.313-12.819.675-.235 1.092-.914.994-1.623-.1-.709-.683-1.25-1.397-1.293zm-13.566 10.346c-1.356-3.131-3.709-6.908-7.587-8.877 2.931-1.405 6.409-3.913 8.202-8.272 1.551 3.071 4.2 6.88 8.334 8.722-3.007 1.64-6.922 4.406-8.949 8.427z" fill="#3a312a"/></g></g><g><g><path d="m26.088 44.254c-.689 8.179-9.213 9.471-9.213 9.471 7.318.344 9.142 9.944 9.142 9.944.156-6.844 9.422-10.045 9.422-10.045-6.941-.416-9.351-9.37-9.351-9.37z" fill="#d7e057"/></g></g><g><g><path d="m35.529 52.125c-5.766-.345-7.972-8.186-7.994-8.265-.19-.702-.864-1.17-1.581-1.102-.726.065-1.3.642-1.361 1.368-.579 6.871-7.647 8.067-7.943 8.114-.763.115-1.314.79-1.273 1.561.04.77.657 1.384 1.428 1.421 6.035.284 7.723 8.644 7.739 8.726.135.713.759 1.22 1.472 1.22.042 0 .083-.002.125-.005.765-.063 1.358-.694 1.376-1.461.13-5.709 8.332-8.634 8.413-8.662.677-.234 1.094-.913.996-1.622-.098-.708-.682-1.25-1.397-1.293zm-9.585 6.795c-.924-1.885-2.34-3.947-4.447-5.28 1.856-1.041 3.697-2.63 4.871-4.917 1.057 1.874 2.654 3.955 4.941 5.224-1.849 1.102-3.989 2.742-5.365 4.973z" fill="#3a312a"/></g></g><g><g><path d="m26.088 17.596c-.689 8.179-9.213 9.471-9.213 9.471 7.318.344 9.142 9.944 9.142 9.944.156-6.845 9.422-10.045 9.422-10.045-6.941-.416-9.351-9.37-9.351-9.37z" fill="#d7e057"/></g></g><g><g><path d="m35.529 25.468c-5.766-.345-7.972-8.186-7.994-8.265-.19-.702-.864-1.164-1.581-1.101-.726.065-1.3.642-1.361 1.368-.579 6.871-7.647 8.067-7.943 8.114-.763.115-1.314.79-1.273 1.561.04.77.657 1.384 1.428 1.421 6.035.284 7.723 8.644 7.739 8.726.135.713.759 1.22 1.472 1.22.042 0 .083-.001.125-.005.765-.063 1.358-.694 1.376-1.461.13-5.709 8.332-8.634 8.413-8.662.676-.234 1.094-.913.996-1.622s-.682-1.251-1.397-1.294zm-9.585 6.795c-.924-1.885-2.34-3.947-4.447-5.28 1.856-1.041 3.697-2.63 4.871-4.917 1.057 1.874 2.654 3.955 4.941 5.224-1.85 1.102-3.989 2.741-5.365 4.973z" fill="#3a312a"/></g></g><g><g><path d="m226.772 94.304-65.11-65.11c-16.471-16.471-43.176-16.471-59.647 0l-9.775 9.775-10.492 10.491-52.27 52.27c-16.471 16.471-16.471 43.176 0 59.647l65.11 65.11c16.471 16.471 43.176 16.471 59.647 0l72.536-72.536c16.472-16.471 16.472-43.176.001-59.647z" fill="#f8e4c8"/></g></g><g><g><path d="m227.832 93.244-65.11-65.11c-8.249-8.25-19.217-12.793-30.884-12.793s-22.635 4.544-30.884 12.793l-9.775 9.775c-.586.585-.586 1.536 0 2.121.586.586 1.535.586 2.121 0l9.775-9.775c7.683-7.683 17.898-11.914 28.763-11.914s21.08 4.232 28.763 11.914l65.11 65.11c7.683 7.683 11.914 17.897 11.914 28.763 0 10.865-4.231 21.08-11.914 28.763l-72.536 72.536c-15.86 15.859-41.665 15.859-57.526 0l-65.11-65.11c-15.86-15.86-15.86-41.666 0-57.526l52.27-52.27c.586-.585.586-1.536 0-2.121-.586-.586-1.535-.586-2.121 0l-52.27 52.27c-17.03 17.029-17.03 44.739 0 61.768l65.11 65.11c8.515 8.515 19.699 12.772 30.884 12.772s22.369-4.257 30.884-12.772l72.536-72.536c8.249-8.249 12.793-19.218 12.793-30.884s-4.544-22.635-12.793-30.884z" fill="#3a312a"/></g></g><g><g><path d="m219.263 38.323c-12.965-12.965-33.986-12.965-46.951 0l-89.239 89.239-10.429 10.429-34.036 34.036c-12.965 12.965-12.965 33.986 0 46.951 12.965 12.965 33.986 12.965 46.951 0l133.704-133.704c12.965-12.965 12.965-33.986 0-46.951z" fill="#ed6e7a"/></g></g><g><g><path d="m220.323 37.262c-13.528-13.529-35.542-13.529-49.072 0l-89.239 89.239c-.586.585-.586 1.536 0 2.121.586.586 1.535.586 2.121 0l89.239-89.239c12.36-12.359 32.47-12.359 44.83 0 12.359 12.36 12.359 32.47 0 44.83l-133.704 133.704c-5.987 5.987-13.948 9.285-22.415 9.285s-16.427-3.297-22.415-9.285c-5.987-5.987-9.285-13.948-9.285-22.415s3.297-16.427 9.285-22.414l34.036-34.036c.586-.586.586-1.536 0-2.121-.586-.586-1.535-.586-2.121 0l-34.036 34.036c-6.554 6.554-10.164 15.267-10.164 24.536s3.609 17.982 10.164 24.536c6.554 6.554 15.267 10.163 24.536 10.163s17.982-3.609 24.536-10.163l133.705-133.704c13.528-13.53 13.528-35.543-.001-49.073z" fill="#3a312a"/></g></g><g><g><path d="m203.109 53.293c-5.657-1.147-11.47.602-15.551 4.683s-5.832 9.895-4.679 15.573c.956 4.675-.491 9.479-3.869 12.849s-8.184 4.805-12.857 3.841c-5.651-1.17-11.467.569-15.553 4.646-4.085 4.077-5.835 9.887-4.68 15.542l.026.129c.954 4.666-.492 9.459-3.868 12.82-3.375 3.361-8.172 4.787-12.847 3.81-5.65-1.181-11.464.545-15.557 4.613-4.093 4.069-5.852 9.874-4.705 15.531l.066.327c.944 4.659-.514 9.432-3.901 12.768-3.388 3.336-8.183 4.719-12.848 3.701-5.656-1.152-11.471.6-15.554 4.682-4.082 4.082-5.833 9.897-4.682 15.554.949 4.669-.496 9.467-3.865 12.835-3.369 3.369-8.166 4.813-12.835 3.863-.809-.165-1.604.359-1.769 1.171s.359 1.604 1.171 1.769c1.145.233 2.295.347 3.438.347 4.501 0 8.86-1.773 12.117-5.028 4.082-4.083 5.833-9.897 4.683-15.555-.949-4.668.496-9.467 3.864-12.835 3.369-3.368 8.166-4.814 12.813-3.869 5.639 1.234 11.461-.448 15.572-4.498 4.112-4.05 5.883-9.845 4.736-15.503l-.066-.327c-.945-4.664.505-9.451 3.879-12.806s8.17-4.776 12.839-3.803c5.653 1.18 11.473-.547 15.566-4.623s5.847-9.887 4.69-15.547l-.026-.128c-.953-4.664.49-9.455 3.859-12.817 3.37-3.362 8.163-4.795 12.827-3.832 5.664 1.171 11.489-.569 15.583-4.655 4.094-4.085 5.847-9.907 4.685-15.591-.948-4.668.497-9.465 3.865-12.833 3.368-3.367 8.167-4.811 12.832-3.864.814.165 1.604-.359 1.769-1.171.168-.812-.357-1.604-1.168-1.769z" fill="#3a312a"/></g></g><g><g><path d="m218.205 39.38c-5.99-5.98-13.95-9.28-22.42-9.28-2.55 0-5.06.3-7.49.89 5.6 1.35 10.73 4.22 14.91 8.39 12.36 12.36 12.36 32.47 0 44.83l-133.71 133.71c-4.26 4.26-9.45 7.05-14.91 8.37 10.39 2.52 21.81-.27 29.91-8.37l133.71-133.71c12.36-12.36 12.36-32.47 0-44.83z" fill="#d34e5c"/></g></g></g></svg>