<svg id="Layer_1" enable-background="new 0 0 256 256" height="512" viewBox="0 0 256 256" width="512" xmlns="http://www.w3.org/2000/svg"><g><g><g><path d="m47.675 31.301c-.974 11.563-13.031 13.389-13.031 13.389 10.352.487 12.932 14.059 12.932 14.059.221-9.677 13.328-14.202 13.328-14.202-9.819-.587-13.229-13.246-13.229-13.246z" fill="#d4d853"/></g></g><g><g><path d="m60.993 43.05c-8.609-.515-11.838-12.025-11.87-12.141-.191-.703-.861-1.162-1.583-1.101-.725.066-1.298.642-1.359 1.367-.86 10.215-11.32 11.963-11.761 12.032-.762.115-1.313.79-1.273 1.56.04.771.657 1.385 1.428 1.421 9.033.425 11.505 12.719 11.529 12.843.137.711.759 1.217 1.472 1.217.042 0 .084-.001.126-.005.764-.064 1.356-.693 1.374-1.459.195-8.509 12.198-12.777 12.319-12.819.676-.235 1.092-.914.995-1.623-.099-.708-.683-1.249-1.397-1.292zm-13.572 10.347c-1.357-3.13-3.711-6.909-7.591-8.878 2.933-1.405 6.413-3.914 8.206-8.274 1.551 3.071 4.201 6.881 8.338 8.724-3.009 1.64-6.926 4.406-8.953 8.428z" fill="#3a312a"/></g></g><g><g><path d="m25.965 48.281c-.689 8.179-9.217 9.471-9.217 9.471 7.322.344 9.147 9.944 9.147 9.944.156-6.844 9.427-10.045 9.427-10.045-6.944-.416-9.357-9.37-9.357-9.37z" fill="#d4d853"/></g></g><g><g><path d="m35.412 56.153c-5.77-.345-7.977-8.185-7.999-8.264-.19-.702-.858-1.158-1.582-1.102-.726.065-1.299.642-1.36 1.368-.579 6.871-7.651 8.066-7.947 8.113-.762.115-1.313.79-1.273 1.56s.657 1.385 1.428 1.421c6.039.284 7.728 8.645 7.744 8.727.135.712.759 1.22 1.472 1.22.042 0 .083-.001.125-.005.765-.063 1.358-.694 1.376-1.461.13-5.709 8.337-8.634 8.418-8.662.676-.234 1.094-.913.996-1.622-.099-.709-.684-1.25-1.398-1.293zm-9.59 6.797c-.924-1.886-2.341-3.948-4.45-5.281 1.856-1.042 3.699-2.63 4.874-4.917 1.057 1.874 2.655 3.955 4.944 5.225-1.851 1.1-3.991 2.739-5.368 4.973z" fill="#3a312a"/></g></g><g><g><path d="m25.965 21.624c-.689 8.179-9.217 9.471-9.217 9.471 7.322.345 9.147 9.944 9.147 9.944.156-6.845 9.427-10.045 9.427-10.045-6.944-.416-9.357-9.37-9.357-9.37z" fill="#d4d853"/></g></g><g><g><path d="m35.412 29.496c-5.77-.345-7.977-8.185-7.999-8.265-.19-.702-.858-1.165-1.582-1.102-.726.065-1.299.642-1.36 1.368-.579 6.871-7.651 8.067-7.947 8.114-.763.115-1.313.79-1.273 1.561.04.77.657 1.384 1.428 1.421 6.039.284 7.728 8.644 7.744 8.726.135.712.759 1.22 1.473 1.22.041 0 .083-.001.125-.005.765-.063 1.358-.694 1.376-1.461.13-5.709 8.337-8.633 8.417-8.662.677-.234 1.094-.913.997-1.622-.1-.709-.685-1.25-1.399-1.293zm-9.59 6.796c-.925-1.886-2.341-3.948-4.45-5.281 1.857-1.041 3.7-2.63 4.874-4.917 1.057 1.874 2.655 3.955 4.944 5.225-1.851 1.1-3.991 2.74-5.368 4.973z" fill="#3a312a"/></g></g><g><g><path d="m55.96 136.558-14.082.017c-15.099.022-24.627.052-24.627.09 0 53.964 70.324 97.711 124.289 97.711s97.711-43.747 97.711-97.711c.001-.134-119.677-.17-183.291-.107z" fill="#fce8cb"/></g></g><g><g><path d="m237.905 135.142c-.894-.008-2.213-.015-3.914-.022-3.397-.014-8.322-.026-14.431-.037-12.214-.021-29.162-.037-48.099-.045-39.015-.017-84.352-.01-115.503.021-.829.001-1.5.673-1.499 1.501s.672 1.499 1.5 1.499h.001c58.514-.058 168.03-.033 181.779.081-.791 52.374-43.641 94.737-96.2 94.737-26.625 0-57.092-10.591-81.5-28.332-26.09-18.964-40.694-42.492-41.272-66.404 2.37-.019 8.409-.043 23.111-.065.828-.002 1.499-.674 1.497-1.502-.001-.828-.672-1.498-1.5-1.498 0 0-.001 0-.002 0-7.551.011-13.709.024-17.979.04-2.137.008-3.802.016-4.932.024-2.14.016-3.213.024-3.213 1.527 0 25.404 15.102 50.373 42.526 70.306 24.901 18.1 56.027 28.905 83.263 28.905 54.705 0 99.211-44.506 99.211-99.211.003-1.501-1.253-1.512-2.844-1.525z" fill="#3a312a"/></g></g><g><g><path d="m139.119 36.699c4.204 22.953-31.503 15.456-32.354 37.899h71.945c-1.326-17.085-42.64-54.555-39.591-37.899z" fill="#d7e057"/></g></g><g><g><path d="m144.683 31.923c-2.628-1.147-4.546-1.199-5.864-.154-1.233.976-1.628 2.726-1.175 5.2 1.951 10.655-5.52 13.983-14.17 17.837-8.325 3.708-17.759 7.911-18.208 19.736-.015.407.136.803.418 1.097.283.293.673.46 1.08.46h71.945c.418 0 .817-.174 1.1-.481.284-.307.428-.718.395-1.135-1.059-13.652-25.312-38.104-35.521-42.56zm-36.294 41.175c1.095-8.777 8.496-12.073 16.306-15.552 8.985-4.003 18.276-8.142 15.9-21.117-.294-1.604-.036-2.21.087-2.309.154-.119.95-.255 2.801.553 10.018 4.373 30.882 26.211 33.491 38.425z" fill="#3a312a"/></g></g><g><g><path d="m197.024 105.563h-29.938-78.857c-10.053 0-18.203 8.15-18.203 18.204v12.762h145.202v-12.762c0-10.054-8.15-18.204-18.204-18.204z" fill="#d7e057"/></g></g><g><g><path d="m197.024 104.063h-15.607c-.828 0-1.5.671-1.5 1.5s.672 1.5 1.5 1.5h15.607c9.21.001 16.703 7.494 16.703 16.704v11.262h-142.201v-11.262c0-9.21 7.493-16.704 16.703-16.704h78.857c.828 0 1.5-.671 1.5-1.5s-.672-1.5-1.5-1.5h-78.857c-10.864 0-19.703 8.839-19.703 19.704v12.762c0 .829.671 1.5 1.5 1.5h145.202c.828 0 1.5-.671 1.5-1.5v-12.762c-.001-10.865-8.839-19.704-19.704-19.704z" fill="#3a312a"/></g></g><g><g><path d="m179.192 74.598h-73.131c-10.054 0-18.203 8.15-18.203 18.203v12.761h79.229 14.331 15.979v-12.761c-.001-10.053-8.151-18.203-18.205-18.203z" fill="#d7e057"/></g></g><g><g><path d="m179.192 73.098h-73.131c-10.865 0-19.704 8.839-19.704 19.704v12.761c0 .829.671 1.5 1.5 1.5h79.228c.828 0 1.5-.671 1.5-1.5s-.672-1.5-1.5-1.5h-77.728v-11.262c0-9.211 7.493-16.704 16.704-16.704h73.131c9.21 0 16.703 7.493 16.703 16.704v11.261h-14.478c-.828 0-1.5.671-1.5 1.5s.672 1.5 1.5 1.5h15.978c.828 0 1.5-.671 1.5-1.5v-12.761c0-10.864-8.838-19.703-19.703-19.703z" fill="#3a312a"/></g></g><g><g><path d="m222.722 138.096c-.004.016-.006.032-.01.048h.029c-.75 49.9-39.69 90.71-88.83 94.45 2.57.19 5.12.28 7.63.28 52.56 0 95.41-42.36 96.2-94.73-2.38-.018-7.648-.034-15.019-.048z" fill="#decaad"/></g></g></g></svg>