<svg id="Layer_1" enable-background="new 0 0 256 256" height="512" viewBox="0 0 256 256" width="512" xmlns="http://www.w3.org/2000/svg"><g><g><g><path d="m47.66 26.219c-.974 11.564-13.024 13.39-13.024 13.39 10.346.486 12.924 14.058 12.924 14.058.221-9.677 13.321-14.202 13.321-14.202-9.813-.587-13.221-13.246-13.221-13.246z" fill="#d7e057"/></g></g><g><g><path d="m60.971 37.968c-8.604-.515-11.831-12.024-11.863-12.141-.191-.703-.863-1.168-1.584-1.102-.725.066-1.298.642-1.359 1.367-.86 10.215-11.313 11.964-11.754 12.032-.763.116-1.313.791-1.273 1.561.04.771.657 1.385 1.428 1.421 9.028.425 11.498 12.718 11.522 12.842.137.712.759 1.218 1.472 1.218.042 0 .084-.002.126-.005.764-.064 1.357-.693 1.375-1.46.195-8.509 12.192-12.777 12.313-12.819.675-.234 1.092-.914.994-1.622-.099-.709-.683-1.25-1.397-1.292zm-13.566 10.345c-1.356-3.131-3.708-6.907-7.586-8.877 2.931-1.404 6.409-3.912 8.202-8.272 1.551 3.071 4.2 6.88 8.334 8.723-3.008 1.639-6.924 4.405-8.95 8.426z" fill="#3a312a"/></g></g><g><g><path d="m25.961 43.199c-.689 8.179-9.212 9.47-9.212 9.47 7.318.345 9.142 9.944 9.142 9.944.156-6.844 9.422-10.045 9.422-10.045-6.941-.415-9.352-9.369-9.352-9.369z" fill="#d7e057"/></g></g><g><g><path d="m35.402 51.071c-5.766-.345-7.972-8.186-7.994-8.265-.19-.702-.855-1.171-1.582-1.101-.726.065-1.299.643-1.36 1.368-.579 6.87-7.647 8.066-7.942 8.113-.763.116-1.313.791-1.273 1.561.04.771.657 1.385 1.428 1.421 6.035.284 7.723 8.645 7.739 8.727.135.713.759 1.22 1.472 1.22.042 0 .083-.002.125-.005.765-.063 1.358-.693 1.376-1.461.13-5.709 8.332-8.634 8.413-8.662.677-.234 1.094-.913.996-1.622-.098-.71-.683-1.252-1.398-1.294zm-9.584 6.795c-.924-1.886-2.34-3.947-4.447-5.28 1.855-1.041 3.697-2.63 4.871-4.916 1.057 1.874 2.654 3.955 4.941 5.224-1.85 1.1-3.989 2.74-5.365 4.972z" fill="#3a312a"/></g></g><g><g><path d="m25.961 16.542c-.689 8.179-9.212 9.471-9.212 9.471 7.318.344 9.142 9.944 9.142 9.944.156-6.844 9.422-10.045 9.422-10.045-6.941-.416-9.352-9.37-9.352-9.37z" fill="#d7e057"/></g></g><g><g><path d="m35.403 24.414c-5.767-.346-7.973-8.186-7.994-8.265-.19-.702-.859-1.165-1.582-1.102-.726.065-1.299.642-1.36 1.368-.579 6.87-7.646 8.065-7.942 8.112-.763.116-1.313.791-1.273 1.561.04.771.657 1.385 1.427 1.421 6.035.284 7.724 8.645 7.739 8.727.135.713.759 1.22 1.472 1.22.042 0 .083-.002.125-.005.765-.063 1.358-.693 1.376-1.461.13-5.708 8.332-8.633 8.413-8.661.676-.233 1.094-.913.996-1.622s-.683-1.25-1.397-1.293zm-9.585 6.795c-.924-1.886-2.34-3.947-4.447-5.28 1.856-1.041 3.697-2.63 4.871-4.916 1.057 1.874 2.654 3.954 4.942 5.224-1.851 1.1-3.99 2.74-5.366 4.972z" fill="#3a312a"/></g></g><g><g><path d="m16.56 192.536c0 19.436 15.756 35.192 35.192 35.192h152.497c19.436 0 35.192-15.756 35.192-35.192z" fill="#fce8cb"/></g></g><g><g><path d="m239.44 191.036h-222.88c-.829 0-1.5.672-1.5 1.5 0 20.231 16.46 36.691 36.692 36.691h4.531c.829 0 1.5-.672 1.5-1.5s-.671-1.5-1.5-1.5h-4.531c-18.076 0-32.872-14.307-33.659-32.191h219.815c-.787 17.885-15.583 32.191-33.659 32.191h-133.032c-.829 0-1.5.672-1.5 1.5s.671 1.5 1.5 1.5h133.032c20.232 0 36.692-16.46 36.692-36.691-.001-.828-.672-1.5-1.501-1.5z" fill="#3a312a"/></g></g><g><g><path d="m80.807 227.728h94.387v11.731h-94.387z" fill="#fce8cb"/></g></g><g><g><path d="m175.193 226.227h-94.386c-.829 0-1.5.672-1.5 1.5v11.73c0 .828.671 1.5 1.5 1.5h94.387c.829 0 1.5-.672 1.5-1.5v-11.73c-.001-.828-.672-1.5-1.501-1.5zm-1.5 11.731h-91.386v-8.73h91.387v8.73z" fill="#3a312a"/></g></g><g><g><path d="m223.46 194.038c-.79 17.88-15.58 32.19-33.66 32.19h14.45c18.07 0 32.87-14.31 33.66-32.19z" fill="#decaad"/></g></g><g><g><path d="m123.265 57.799c5.674 30.979-42.519 20.86-43.667 51.152h97.103c-1.79-23.06-57.55-73.631-53.436-51.152z" fill="#d7e057"/></g></g><g><g><path d="m130.565 51.834c-3.354-1.464-5.768-1.557-7.379-.278-1.5 1.188-1.969 3.38-1.396 6.514 2.708 14.786-7.55 19.355-19.427 24.646-11.096 4.943-23.671 10.545-24.264 26.178-.015.407.136.804.419 1.097.283.294.673.46 1.08.46h97.103c.418 0 .817-.175 1.101-.481.284-.307.427-.718.395-1.135-1.419-18.272-33.942-51.024-47.632-57.001zm-49.362 55.616c1.242-12.578 11.521-17.156 22.381-21.994 11.942-5.319 24.291-10.82 21.158-27.928-.338-1.847-.223-3.2.308-3.621.474-.376 1.858-.396 4.315.676 13.773 6.013 42.636 36.358 45.629 52.867z" fill="#3a312a"/></g></g><g><g><path d="m201.419 150.743h-27.754-14.33-105.856c-12.96 0-23.467 10.506-23.467 23.467v18.326h195.976v-17.224c0-13.569-11-24.569-24.569-24.569z" fill="#d7e057"/></g></g><g><g><path d="m201.419 149.243h-27.754c-.829 0-1.5.672-1.5 1.5s.671 1.5 1.5 1.5h27.754c12.72 0 23.068 10.349 23.068 23.069v15.724h-192.975v-16.826c0-12.112 9.855-21.967 21.967-21.967h105.856c.829 0 1.5-.672 1.5-1.5s-.671-1.5-1.5-1.5h-105.856c-13.767 0-24.967 11.2-24.967 24.967v18.326c0 .828.671 1.5 1.5 1.5h195.976c.829 0 1.5-.672 1.5-1.5v-17.224c0-14.374-11.695-26.069-26.069-26.069z" fill="#3a312a"/></g></g><g><g><path d="m178.454 108.95h-100.908c-12.96 0-23.467 10.507-23.467 23.467v18.326h147.842v-18.326c0-12.96-10.507-23.467-23.467-23.467z" fill="#d7e057"/></g></g><g><g><path d="m178.454 107.45h-100.908c-13.767 0-24.967 11.2-24.967 24.967v18.326c0 .828.671 1.5 1.5 1.5h105.256c.829 0 1.5-.672 1.5-1.5s-.671-1.5-1.5-1.5h-103.756v-16.826c0-12.112 9.854-21.967 21.967-21.967h100.908c12.112 0 21.967 9.854 21.967 21.967v16.826h-26.755c-.829 0-1.5.672-1.5 1.5s.671 1.5 1.5 1.5h28.255c.829 0 1.5-.672 1.5-1.5v-18.326c-.001-13.767-11.201-24.967-24.967-24.967z" fill="#3a312a"/></g></g></g></svg>